<?xml version="1.0" encoding="utf-8"?>
<!-- Generator: Adobe Illustrator 21.1.0, SVG Export Plug-In . SVG Version: 6.00 Build 0)  -->
<svg version="1.1" id="Layer_1" xmlns="http://www.w3.org/2000/svg" xmlns:xlink="http://www.w3.org/1999/xlink" x="0px" y="0px"
	 viewBox="0 0 440 430" style="enable-background:new 0 0 440 430;" xml:space="preserve">
<style type="text/css">
	.st0{fill-rule:evenodd;clip-rule:evenodd;fill:#FFFFFF;}
	.st1{fill:none;stroke:#000000;stroke-width:1.6996;stroke-linecap:round;stroke-linejoin:round;stroke-miterlimit:22.9256;}
</style>
<path class="st0" d="M0.9,305.5c0.1-44.9,58-72.9,218.9-70.6c175.2,0.5,219.6,31.8,219.6,70.6c0,61.3-98.4,123.3-219.6,123.3
	C90.5,430.3,1.1,360.1,0.9,305.5z"/>
<path class="st1" d="M0.9,305.5c0.1-44.9,58-72.9,218.9-70.6c175.2,0.5,219.6,31.8,219.6,70.6c0,61.3-98.4,123.3-219.6,123.3
	C90.5,430.3,1.1,360.1,0.9,305.5z"/>
<path class="st1" d="M3.6,301.3c0.1-42.3,57.3-68.6,216-66.4c173,0.5,216.8,29.9,216.8,66.4c0,57.7-97.2,116.1-216.8,116.1
	C92.1,418.7,3.9,352.8,3.6,301.3z"/>
<path class="st0" d="M62.3,300.9c2.8,42.6,72.2,69.4,157.4,70.4c107.3-2.4,155.2-38.8,157.4-70.4c0.1-82.6,10.9-161.3,34.6-235.2
	l-381.9,6C52.3,139,61.2,212.1,62.3,300.9z"/>
<path class="st1" d="M376.9,300.9c0,38.9-70.4,70.4-157.4,70.4c-86.9,0-157.4-31.5-157.4-70.4"/>
<path class="st1" d="M410.5,72.1c-22.6,67.4-32.4,139.9-33.6,228.7"/>
<path class="st1" d="M29.6,71.7C52.2,139.1,61.1,212.2,62.2,301"/>
<path class="st0" d="M220.1,126.8c105.4,0,191.5-27.5,191.5-61.2c0-33.7-86-61.2-191.5-61.2C114.7,4.5,28.7,32,28.7,65.7
	C28.7,99.3,114.7,126.8,220.1,126.8z"/>
<path class="st1" d="M220.1,126.8c105.4,0,191.5-27.5,191.5-61.2c0-33.7-86-61.2-191.5-61.2C114.7,4.5,28.7,32,28.7,65.7
	C28.7,99.3,114.7,126.8,220.1,126.8z"/>
<path class="st1" d="M379.6,232.5c0,38.9-71.7,70.4-160.1,70.4c-88.4,0-160.1-31.5-160.1-70.4"/>
</svg>
