<?xml version="1.0" encoding="utf-8"?>
<!-- Generator: Adobe Illustrator 21.1.0, SVG Export Plug-In . SVG Version: 6.00 Build 0)  -->
<svg version="1.1" id="Layer_1" xmlns="http://www.w3.org/2000/svg" xmlns:xlink="http://www.w3.org/1999/xlink" x="0px" y="0px"
	 viewBox="0 0 440 430" style="enable-background:new 0 0 440 430;" xml:space="preserve">
<style type="text/css">
	.st0{fill-rule:evenodd;clip-rule:evenodd;fill:#C7A9D0;}
	.st1{fill-rule:evenodd;clip-rule:evenodd;fill:#B28ABF;}
	.st2{fill:none;stroke:#6C3E81;stroke-width:1.6996;stroke-linecap:round;stroke-linejoin:round;stroke-miterlimit:22.9256;}
	.st3{fill-rule:evenodd;clip-rule:evenodd;fill:#9665AA;}
	.st4{fill-rule:evenodd;clip-rule:evenodd;fill:#A172AD;}
	.st5{fill-rule:evenodd;clip-rule:evenodd;fill:#8B5697;}
	.st6{fill-rule:evenodd;clip-rule:evenodd;fill:#DACAE3;}
</style>
<path class="st0" d="M0.9,305.5c0.1-44.9,58-72.9,218.9-70.6c175.2,0.5,219.6,31.8,219.6,70.6c0,61.3-98.4,123.3-219.6,123.3
	C90.5,430.3,1.1,360.1,0.9,305.5z"/>
<path class="st1" d="M0.9,305.5c0.1-34.8,34.9-59.4,125.4-67.7v178.7C49.4,394.1,1,345.7,0.9,305.5z"/>
<path class="st2" d="M0.9,305.5c0.1-44.9,58-72.9,218.9-70.6c175.2,0.5,219.6,31.8,219.6,70.6c0,61.3-98.4,123.3-219.6,123.3
	C90.5,430.3,1.1,360.1,0.9,305.5z"/>
<path class="st1" d="M3.6,301.3c0.1-42.3,57.3-68.6,216-66.4c173,0.5,216.8,29.9,216.8,66.4c0,57.7-97.2,116.1-216.8,116.1
	C92.1,418.7,3.9,352.8,3.6,301.3z"/>
<path class="st3" d="M3.8,301.3c0.1-30.4,29.6-52.5,105.1-61.7v89.1h234.6v-42.4l33.6,14.5c7.5,55.9-83,119.9-250.6,104.5
	C51.3,384.3,4,338.9,3.8,301.3z"/>
<path class="st2" d="M3.6,301.3c0.1-42.3,57.3-68.6,216-66.4c173,0.5,216.8,29.9,216.8,66.4c0,57.7-97.2,116.1-216.8,116.1
	C92.1,418.7,3.9,352.8,3.6,301.3z"/>
<path class="st1" d="M62.3,300.9c2.8,42.6,72.2,69.4,157.4,70.4c107.3-2.4,155.2-38.8,157.4-70.4c0.1-82.6,10.9-161.3,34.6-235.2
	l-381.9,6C52.3,139,61.2,212.1,62.3,300.9z"/>
<path class="st4" d="M59.6,232.5l2.7,68.4c1.8,34.9,58.8,70.9,157.4,70.4c115.2-2.5,157-41,157.4-70.4l2.7-68.4
	c0,38.9-71.7,70.4-160.1,70.4C131.2,302.9,59.6,271.4,59.6,232.5z"/>
<path class="st3" d="M62.3,300.9c2.7,40.3,64.9,66.4,143.5,70v-20.1c-102.6-26.5-90.2-202.5-71.1-230.4l-105-48.6
	C52.3,139,61.2,212.1,62.3,300.9z"/>
<path class="st5" d="M62.3,300.9c2.8,42.6,72.2,69.4,157.4,70.4c107.3-2.4,155.2-38.8,157.4-70.4c-40.2,63.1-212.4,66.4-235.8-7.1
	C98.4,282.3,66.8,265.5,60,237l1.7,35.4C61.9,281.8,62.1,291.3,62.3,300.9z"/>
<path class="st2" d="M376.9,300.9c0,38.9-70.4,70.4-157.4,70.4c-86.9,0-157.4-31.5-157.4-70.4"/>
<path class="st2" d="M410.5,72.1c-22.6,67.4-32.4,139.9-33.6,228.7"/>
<path class="st2" d="M29.6,71.7C52.2,139.1,61.1,212.2,62.2,301"/>
<path class="st0" d="M220.1,126.8c105.4,0,191.5-27.5,191.5-61.2c0-33.7-86-61.1-191.5-61.1C114.7,4.6,28.7,32,28.7,65.7
	C28.7,99.3,114.7,126.8,220.1,126.8z"/>
<path class="st1" d="M220.1,4.6c5,0,10,0.1,14.9,0.2c-133.2,12.8-155.6,77-100.4,115.5c-62.8-10-105.9-30.8-105.9-54.7
	C28.7,31.9,114.4,4.6,220.1,4.6z"/>
<path class="st2" d="M379.6,232.5c0,38.9-71.7,70.4-160.1,70.4c-88.4,0-160.1-31.5-160.1-70.4"/>
<path class="st2" d="M220.1,126.8c105.4,0,191.5-27.5,191.5-61.2c0-33.7-86-61.1-191.5-61.1C114.7,4.6,28.7,32,28.7,65.7
	C28.7,99.3,114.7,126.8,220.1,126.8z"/>
<path class="st6" d="M389.4,48.7c15,17-32.6,48.2-70.6,61.1C373.5,98.9,419.3,69.1,389.4,48.7z"/>
<path class="st0" d="M412.8,301.4c19,12.4-18.5,55.2-51.6,77.7C411.1,354.1,447.1,313,412.8,301.4z"/>
</svg>
