<?xml version="1.0" encoding="utf-8"?>
<!-- Generator: Adobe Illustrator 21.1.0, SVG Export Plug-In . SVG Version: 6.00 Build 0)  -->
<svg version="1.1" id="Layer_1" xmlns="http://www.w3.org/2000/svg" xmlns:xlink="http://www.w3.org/1999/xlink" x="0px" y="0px"
	 viewBox="0 0 188.4 329.2" style="enable-background:new 0 0 188.4 329.2;" xml:space="preserve">
<style type="text/css">
	.st0{fill:#E6E7E8;}
	.st1{fill:#FFFFFF;}
	.st2{fill:none;stroke:#000000;stroke-width:1.7008;stroke-miterlimit:22.9256;}
	.st3{fill:#D1D3D4;}
	.st4{fill:none;stroke:#000000;stroke-width:1.7008;stroke-linecap:round;stroke-linejoin:round;stroke-miterlimit:22.9256;}
</style>
<path class="st0" d="M20.6,273.2c22.4,5.3-8.1,14.6,2.2,23.8c9.7,8.6,36.4,2.3,41.2,10.1c4.6,7.5-7,7.3-0.1,15.6
	c18.6,22.4,123.3-17,94-47.5C108,223.4-24.8,262.5,20.6,273.2z"/>
<path class="st1" d="M159.1,143c7.9-14.2,11.1-16.3,12.9-4c10.9,16.9,10.6,36.1,1.9,57.2c11,4.7,14.4,8.5,13.7,11.7
	c-1.8,2.9-9,5-21.4,6.2c-5.9,25.7-24.4,45.3-47.9,52.5l-15.7,3.4C42.4,278.6-9.7,205.5,7.1,157.9c-7.7,10.5-8.5-5.2,0-19.5
	c-11.3-18.9,52.7-24.3,62-48.9L53.4,54.9c-3.6-12.8,1.6-18.8,7.3-17.6c1.3-27,33.5-38.8,57-30.4c29.7,11.7,34.4,45.2,21.7,69.6
	c-16,29.5-71,40.4-72.4,76.2C115.1,127.5,115.4,178.1,159.1,143z"/>
<path class="st1" d="M121.6,179l-51.1,50.6c22.5,15.5,46.1,18.3,62.6,12.5c-1.7-4.7-5.5-7.9-11.2-9.6c15.9,3.1,32.3-3.5,34-5.2
	c0.8-3.6-9.2-9.3-30-13.8c36.5,4.2,61.4-2.3,61.8-5.6C188.1,201.4,168.7,191.5,121.6,179z"/>
<path class="st1" d="M53.4,54.9l7.4-2.7l8-5.9c-2.9-1.5-4-5-6-7.5C58.2,33.2,47.8,41.5,53.4,54.9z"/>
<ellipse transform="matrix(0.9686 -0.2487 0.2487 0.9686 -14.2461 30.2419)" class="st1" cx="112.6" cy="71.5" rx="18.3" ry="16.1"/>
<path class="st1" d="M111.6,22.8c6.9,0.9,11.1,16.7,5.9,31.1l-5.9,1.5l-6.1,2.2l-4.9,2.1L96,58.4l-1.7-2.3
	C93.9,38.2,100.7,24.3,111.6,22.8z"/>
<path class="st1" d="M80.6,282.1c8.3,1,16.6,0,25-5.1c-0.6-5.3-3.9-11.1-9.8-17.3c5,2.4,11,2.6,18,0.5c9.4,11.8,11.8,24.4,10.3,37.4
	c-3.1,10.7-11.4,18-23.8,22.2c-6,2.2-11.5-2.8-7.8-6.7c2-2.4,1.1-7.3-7.9-5.3c-6.5,1.5-12.4-5.9-2.4-9.5c4-1.8,3.6-7.5-3.2-7.4
	C72.1,289.4,73.8,281.9,80.6,282.1z"/>
<path class="st1" d="M80.1,17.9c4.2,4.6,3.2,12.5-1.3,24.8L75,43l-6.1,3.3l-3.3-3.4l-1.2-2.7C65.4,25.8,73,16.8,80.1,17.9z"/>
<path class="st2" d="M60.7,37.3c1.3-27,33.5-38.8,57-30.4c29.7,11.7,34.4,45.2,21.7,69.6c-16,29.5-71,40.4-72.4,76.2
	c48.1-25.2,48.4,25.4,92-9.7"/>
<path class="st1" d="M41.8,251.1c8.1,7.9,15.6,11.9,22.8,14.1c-2.5,16-16.2,24.6-25.7,25.8c-8.2,1-12.7-2.6-9.7-6.2
	c2-2.6,2.1-6.2-2.9-5.8c-4.2,0.5-8,0.6-9-2.5c-0.7-3.3,1.6-4.4,5.1-5.3c4.7-1.1,5.6-6.5-1.6-7.1c-6.8-0.5-6.3-9,1.4-8.8
	C30.3,255.8,37.4,254.7,41.8,251.1z"/>
<path class="st2" d="M151.6,158.6c4.5-11.4,9.9-20.8,16-28.2c4,1.5,5.3,10.6,5.3,23.1"/>
<path class="st1" d="M121.6,179c-45.7-7.3-71.9-1.6-75.4,11.4c-3.9,11.1,4.2,24.2,24.3,39.2c11.9,3.6,18.9-0.7,20.3-6.1
	c13.2,3.9,22.9-4.9,20.3-13.9C122.6,209.5,129.9,195,121.6,179z"/>
<path class="st3" d="M112.6,28.9c2.9,0,5.8,4.3,6.8,9.8l-0.3,7.7l-0.9,8.6l-3.9-0.2l-8.7,2.9C94.3,56.2,102.6,28.2,112.6,28.9z"/>
<path class="st3" d="M79.1,22.8c2.6,0.1,3.5,3.1,3.4,7.5l-3,12.5l-3.6,0.4l-5.6,3.3C62.4,41.7,71.5,22.4,79.1,22.8z"/>
<path class="st2" d="M172,139c10.7,16.1,10.4,41.8,1.9,57.2"/>
<path class="st1" d="M62.2,77.1L104,65.9l1.6,2.7c-1.7,9.6-10.9,18.6-18.4,22.5C78.4,96,70.2,94.3,62.2,77.1z"/>
<path class="st4" d="M46.2,190.5c-9,21.6,45.6,66.3,86.9,51.7c-1.1-2.6-3.8-6.3-11.2-9.6"/>
<path class="st4" d="M107.8,229.1c20.4,8.2,47.1,1.6,48-1.8c0.8-3.6-9.2-9.3-30-13.8c36.5,4.2,61.4-2.3,61.8-5.6
	c0.5-6.6-18.9-16.5-66-28.9"/>
<path class="st2" d="M166.1,214.1c-5.7,23.1-22.9,45.9-48.8,52.8"/>
<path class="st1" d="M53.4,54.9c9.1,0.2,15.8-13.4,25.4-12.2c7.9,2.3,10.1,15.9,21.9,17c4.6,0.9,6.2,3.1,5.5,10.1L104,66
	C93.5,78,78.9,81.6,60.9,78C33,68.1,34,51.9,43.3,52.9L53.4,54.9z"/>
<path class="st4" d="M91.9,257.4c5.6,5.1,18.7,5.2,25.4,1.4"/>
<path class="st4" d="M5.4,164.6C-6,222.1,57.2,280.9,102.5,270.1"/>
<path class="st4" d="M95.9,259.7c8.4,8,12.7,17.3,7.8,29"/>
<path class="st4" d="M113.9,260.3c7.4,9.7,12.9,23.7,10.3,37.4c-2.3,10.6-15.7,20.3-23.8,22.2c-7.4,1.9-10.7-3.2-7.8-6.7
	c2-2.6,0.4-6-4.6-5.6c-6.3,0.9-10.2,0.5-10.7-2.8c-1-3.4,1.9-5.5,5.1-6.4c4.2-2,4-6.8-3.2-7.4c-6.8-0.5-6.3-9,1.4-8.8
	c8.2,0.3,18-1,25-5.1"/>
<path class="st4" d="M64.6,265.3c-2.5,16-16.2,24.6-25.7,25.8c-8.2,1-12.7-2.6-9.7-6.2c2-2.6,2.1-6.2-2.9-5.8c-4.2,0.5-8,0.6-9-2.5
	c-0.7-3.3,1.6-4.4,5.1-5.3c4.7-1.1,5.6-6.5-1.6-7.1c-6.8-0.5-6.3-9,1.4-8.8c8.2,0.3,15.3-0.8,19.7-4.3"/>
<path class="st4" d="M70.5,229.7c11.9,3.6,18.9-0.7,20.3-6.1c13.2,3.9,22.9-4.9,20.3-13.9c11.5-0.1,18.8-14.6,10.5-30.6"/>
<path class="st4" d="M22.4,167.7c-11.3,14.4-21.2,2.9-15.3-9.9c-6.4,10.6-10.1-2.3,0-19.5"/>
<path class="st4" d="M11.3,137.7c-11.5,1.4-5.8-9.2,5.7-15.6c15.8-10.3,40-13.6,51.8-32.1"/>
<path class="st4" d="M20.9,155.2c-1.8,6.3,3.5,7.7,7.9,1.1c-0.2,4.6,4.2,4.4,6.6,1.3"/>
<path class="st4" d="M100.7,59.7c-12.6-2.3-15.3-16.3-21.9-17c-11.2-1.3-17.4,17-32.9,11.1c-5.5-2.7-9.8,1-8.6,5.2
	C42,79,82.4,88.7,103,67.5"/>
<path class="st4" d="M62.2,78.3C71,96.8,81.3,96.7,93,87.9"/>
<path class="st4" d="M105.5,57.6c11.3-7.3,25.9-0.1,25.3,11.8"/>
<path class="st4" d="M128.9,66.5c6.8,6.4-2.2,21.1-16.4,21.8"/>
<path class="st4" d="M94.3,56.2C93.4,35,105.6,22,111.6,22.8c9.8,1.6,8.7,24.9,6.6,32.1"/>
<path class="st4" d="M112,68.3c1.2,2.1,1.2,4.9-0.7,6.3"/>
<path class="st4" d="M68.8,46.3c-2.9-1.5-4-5-6-7.5c-4.6-5.6-15,2.7-9.5,16"/>
<path class="st4" d="M64.2,40.2c0.9-14.8,10.1-23.6,14-22.5c4.7,1.1,5.2,14.7,0.8,25"/>
<path d="M77.5,57.2c2,0,3.6-1.6,3.6-3.6S79.5,50,77.5,50s-3.6,1.6-3.6,3.6C73.9,55.6,75.6,57.2,77.5,57.2z"/>
<path d="M113.1,50.8c3.4,0,6.1-2.7,6.1-6.1c0-3.4-2.7-6.1-6.1-6.1s-6.1,2.7-6.1,6.1S109.8,50.8,113.1,50.8z"/>
<path class="st1" d="M107.3,52.7c1.9,0,3.4-1.5,3.4-3.4s-1.5-3.4-3.4-3.4s-3.4,1.5-3.4,3.4S105.4,52.7,107.3,52.7z"/>
<path class="st1" d="M107.9,35c1.3,0,2.3-1,2.3-2.3s-1-2.3-2.3-2.3s-2.3,1-2.3,2.3S106.7,35,107.9,35z"/>
<circle cx="76" cy="36.2" r="5.1"/>
<circle class="st1" cx="70.4" cy="38.9" r="2.9"/>
<circle class="st1" cx="73.9" cy="25.5" r="1.9"/>
</svg>
