<?xml version="1.0" encoding="utf-8"?>
<!-- Generator: Adobe Illustrator 21.1.0, SVG Export Plug-In . SVG Version: 6.00 Build 0)  -->
<svg version="1.1" id="Layer_1" xmlns="http://www.w3.org/2000/svg" xmlns:xlink="http://www.w3.org/1999/xlink" x="0px" y="0px"
	 viewBox="0 0 186.5 251.4" style="enable-background:new 0 0 186.5 251.4;" xml:space="preserve">
<style type="text/css">
	.st0{fill:#FFFFFF;}
	.st1{fill:#E6E7E8;}
	.st2{fill:#D1D3D4;}
	.st3{fill:none;stroke:#000000;stroke-width:1.7008;stroke-linecap:round;stroke-linejoin:round;stroke-miterlimit:22.9256;}
</style>
<path class="st0" d="M104.1,185l11.5-14.7l16.5-1.2c-4.4,6.6-11.1,14.6-14.8,16.3C115.3,187.1,110.9,187,104.1,185z"/>
<path class="st0" d="M53.9,141.1l6.4-17.5c-4.8,0.2-10-0.4-15.5-1.6C46.4,129.4,49.4,135.8,53.9,141.1z"/>
<path class="st1" d="M119.1,203.5c10.7,0.8,50.7,8.5,33.9,17.4c-3.4,1.8-11.1,3.5-12.5,4.6c-9.4,7.8,12.6,11.8,5.8,18.6
	c-15.2,15.3-94.8,5.3-96.8-19.9C48.6,212.3,73.9,198.3,119.1,203.5z"/>
<path class="st0" d="M106,185.5c6.6,1.9,10.4,1.8,11.2-0.2c-4.3,8.4-6.6,16.8-6.8,25.2c9.7-2.5,20.1-12.7,29-7.4
	c10.2-2.2,14.2,1.2,13.8,8.5c5.5,1.9,4.1,8.8,0.9,8.4c-12.8-2-29.4-3.2-49.4-3.5c-6.4,0.1-4.6-5.3,0.1-6.3
	C103.8,201.7,104,193.4,106,185.5z"/>
<path class="st0" d="M82.8,186.1l3.7,2.6l7.7,2.1c-5,8.7-7.6,18-7.9,27.9c17.5-2.3,24.3,1.2,26.2,7.4c7.4,1.9,6.4,6.3,1.6,11.9
	l-2.1-1.9c0.9,3.2-7.4,8.1-12.6,4.6C87.9,230.9,80.2,225.2,68,225c-2.5,0.4-3.4-3.9-0.3-4.5c3.1-1,7-1.6,11.5-1.9
	C77.6,207.4,77.9,196,82.8,186.1z"/>
<path class="st0" d="M51.2,137.5l-3-5.4L44.7,122l12.4,1.6c-9-5.3-14.6-29-25.1-60.2c-2.8,6.8-5,15.5-9.5,19.7
	c-4.5,1.8-11.7,0.5-21.8-3.9C2.7,103.4,30.8,137.8,51.2,137.5z"/>
<path class="st0" d="M124.6,129.1l8.7-33.5l-16.8-9.5L75.3,97c-22.1,23.5-15.3,61-46,66.8C44.6,177.5,105.9,174.6,124.6,129.1z"/>
<path class="st0" d="M136.1,67.5L93.9,51.7c-26.5-2.5-40.1,12.1-41.8,24.2c2.5-1.8,5.1-2.6,7.6-2.9
	C52.4,101.3,102.2,110.9,136.1,67.5z"/>
<path class="st0" d="M116.5,86.1l19.6-18.6c58.7-5.3,71.3,99.4-18.2,102.8c-4.5,5.9-16.8,17.7-23.8,20.6c-10-2-15.7-6.1-12.1-14.7
	l-8.4-7c30-7.1,43.5-22.2,51-40C128.1,111.2,126.2,96.3,116.5,86.1z"/>
<path class="st0" d="M94.6,161.6c20.2,5.5,40.4,4.5,60.6-0.9c-7.9,4.9-19.7,8.3-37.3,9.6c-4.5,5.9-16.8,17.7-23.8,20.6
	c-10-2-15.7-6.1-12.1-14.7l-8.4-7l10.4-2.9L94.6,161.6z"/>
<path class="st0" d="M125.9,27.7l-32,23.8c-15.6-1.3-27.8,2.9-36.6,12.8c-11.5-16.1-14-32-0.3-47.4L56.4,3c4.5,2.2,7.1,5.7,7.8,10.5
	l5.7-10.8l0.6,3.4C96.4-6.1,115.9,3.7,125.9,27.7z"/>
<path class="st0" d="M84,51.5l9.9,0.1c0.7-6.2,2.7-12.1,6.6-17.3c-8.1-10.7-16.8-13.6-21.4-10.1C75.5,27.1,76.6,39.7,84,51.5z"/>
<path class="st2" d="M91,51.5l3,0.1l1.3-6.7l3.8-8.2c-5.3-9.2-11.5-11.2-15.4-8.2C80.5,30.8,81.3,43.9,91,51.5z"/>
<path class="st0" d="M104.9,30.8c4.9-2.3,10.3-3.1,16-3.1C114.6,14.4,105.5,10,101.2,13C98.1,15.5,99.8,23.5,104.9,30.8z"/>
<path class="st2" d="M108.6,29.3l12.3-1.6l-3.8-5c-3.9-6.1-9.4-9.2-12.6-6.7C101.9,18.1,104.3,25.9,108.6,29.3z"/>
<path class="st0" d="M93.9,51.7c1.9-15.9,10.1-25,27.6-23.9l32.1-0.3c-4.9,16.7-9.5,30.8-17.6,40.1c-6.4,9.6-23.6,11.6-34,7.8
	C87.7,76.6,84.4,59.6,93.9,51.7z"/>
<path class="st0" d="M153.6,27.4c-4.9,16.7-9.5,30.8-17.6,40.1c-7.1,9.3-18.4,12-34,7.8c-9.9-3.1-10.1-18.7,2.2-18.3
	C107.7,70.9,146.8,48.4,153.6,27.4z"/>
<path class="st3" d="M69.9,14.5c1-3.7,1-7.6,0-11.8c-1.7,4.4-3.6,8-5.7,10.8C63.1,8.2,60.5,4.7,56.4,3c1,4.3,1.2,9,0.7,13.8
	C46,26.1,43.2,47.7,57.3,64.3"/>
<path class="st3" d="M70.5,6.1C96.4-6.1,116,3.8,125.9,27.8"/>
<path class="st3" d="M104.3,57c-1.7,0.8-2.7,3.5-1.8,5.3"/>
<path class="st3" d="M100.5,34.4c-8.1-10.7-16.8-13.6-21.4-10.1c-3.7,2.9-2.5,15.4,4.8,27.3"/>
<path d="M90.9,37.9c2.5,0,4.5-2,4.5-4.5s-2-4.5-4.5-4.5s-4.5,2-4.5,4.5S88.5,37.9,90.9,37.9z"/>
<path d="M110.4,24.7c2.1,0,3.9-1.7,3.9-3.9s-1.7-3.9-3.9-3.9c-2.1,0-3.9,1.7-3.9,3.9S108.2,24.7,110.4,24.7z"/>
<path class="st0" d="M89.8,40.4c1.4,0,2.6-1.2,2.6-2.6c0-1.4-1.2-2.6-2.6-2.6s-2.6,1.2-2.6,2.6C87.2,39.2,88.4,40.4,89.8,40.4z"/>
<path class="st0" d="M109.4,26.8c1.2,0,2.2-1,2.2-2.2s-1-2.2-2.2-2.2s-2.2,1-2.2,2.2C107.2,25.8,108.2,26.8,109.4,26.8z"/>
<path class="st0" d="M87.6,48.1c1.2,0,2.1-1,2.1-2.1c0-1.2-1-2.1-2.1-2.1c-1.2,0-2.1,1-2.1,2.1C85.5,47.2,86.4,48.1,87.6,48.1z"/>
<path class="st3" d="M73.2,23.7c-1.4,1.6-2.7,5.3-2.5,8"/>
<path class="st3" d="M102.4,8.9c-2.2-0.4-4.9,0.5-5.3,3.6"/>
<path class="st3" d="M120.9,27.8c-6.3-13.3-15.4-17.7-19.7-14.7c-3.1,2.4-1.4,10.4,3.7,17.7"/>
<path class="st3" d="M75.3,97c-22.1,23.5-15.3,61-46,66.8c15.3,13.7,76.7,10.8,95.4-34.7"/>
<path class="st3" d="M103.6,156c-7,4.5-16.7-0.4-17.6-8.4c-10,5-18.4-2.4-15.8-11c-10.4-0.8-10.7-10.8-8.4-16.8 M57.2,123.7
	c-9-5.3-14.6-29-25.1-60.2c-2.8,6.8-5,15.5-9.5,19.7c-4.5,1.8-11.7,0.5-21.8-3.9c1.8,24.2,29.9,58.6,50.3,58.3"/>
<path class="st3" d="M60.3,123.6c-4.8,0.2-10-0.4-15.5-1.6c1.6,7.4,4.7,13.8,9.1,19.1"/>
<path class="st3" d="M48.2,122.7c-6-7.4-10.9-16.2-14.7-26.4"/>
<path class="st3" d="M46.1,127c-7.5-3-14.9-10.9-22.4-23.6"/>
<path class="st3" d="M70.2,136.5c-9.5,16.4-20.6,23.7-32.8,24.7"/>
<path class="st3" d="M86,147.5c-11.7,14-28.2,21.1-45.3,21.7"/>
<path class="st3" d="M126.2,208.2l13.2-5c-11.3-4.5-19.3,4.9-29,7.4c0.2-8.2,2.2-16.6,6.8-25.2"/>
<path class="st3" d="M138,210.8l15.3,0.9c0.3-7-6.1-10.9-13.8-8.5"/>
<path class="st3" d="M153.2,211.7c5.5,1.9,4.1,8.8,0.9,8.4c-12.8-2-29.4-3.2-49.4-3.5c-6.4,0.1-4.6-5.3,0.1-6.3
	c-1.1-8.6-0.9-16.9,1.2-24.7"/>
<path class="st3" d="M94.1,190.9c-6.3,10.6-8.1,20.9-7.9,31.2"/>
<path class="st3" d="M86.3,218.8c20.1-1.1,26.9,1.9,26.2,7.4"/>
<path class="st3" d="M93.6,227.1c9.4,3.2,16.5,6.8,20.4,11c6.8-7.5,4.3-12.4-14.3-14.1"/>
<path class="st3" d="M112,236.1c0.9,3.2-7.4,8.1-12.6,4.6C87.9,230.9,80.2,225.2,68,225c-2.5,0.4-3.4-3.9-0.3-4.5
	c3.1-1,7-1.6,11.5-1.9c-1.7-11.2-1.3-22.5,3.5-32.5"/>
<path class="st3" d="M143.7,94.4c3.4,1.5,7.2-0.7,7.3-4.5"/>
<path class="st3" d="M131.7,105.4c2.4,1.7,5.7,0.7,6.5-2.2"/>
<path class="st3" d="M148.1,104.5c1.9,0.9,4.1-0.4,4.2-2.6"/>
<path class="st3" d="M157.8,95.6c1.4,0.6,3.1-0.3,3.1-1.9"/>
<path class="st3" d="M162.4,115.2c1.3,0.9,3.1,0.3,3.5-1.2"/>
<path class="st3" d="M152.9,124c1.7,1.2,4.1,0.5,4.6-1.6"/>
<path class="st3" d="M154.3,137.2c1.3,0.9,3.1,0.3,3.5-1.2"/>
<path class="st3" d="M152.2,32.6c-15.1,20.3-35.3,31.6-45.5,28.5"/>
<path class="st3" d="M93.9,51.7c-26.5-2.5-40.1,12.1-41.8,24.2c2.5-1.8,5.1-2.6,7.6-2.9c-7.4,28.3,42.4,37.9,76.3-5.5"/>
<path class="st3" d="M136.1,67.5c69.5-4.4,63.4,119.4-38.9,100.9"/>
<path class="st3" d="M102.1,75.3C89.3,76,83.7,61.7,93.9,51.7c2.2-17.8,10.9-24.4,25.8-23.9l34-0.4c-2.5,10.4-9.5,29.7-17.6,40.1"/>
<path d="M109.9,45c1.7,0,3.2-1.4,3.2-3.2c0-1.7-1.4-3.2-3.2-3.2c-1.7,0-3.2,1.4-3.2,3.2C106.7,43.6,108.2,45,109.9,45z"/>
<path class="st3" d="M73.6,169.1c2.1,2.9,5.4,5,8.4,7c-3.3,8.1,0.7,13,12.1,14.7c3.4,0.7,14.1-8.9,18-14.5"/>
<path class="st3" d="M132.1,169c-4.4,6.6-11.1,14.6-14.8,16.3c-2,1.8-6.3,1.7-13.1-0.4"/>
</svg>
