<?xml version="1.0" encoding="utf-8"?>
<!-- Generator: Adobe Illustrator 21.1.0, SVG Export Plug-In . SVG Version: 6.00 Build 0)  -->
<svg version="1.1" id="Layer_1" xmlns="http://www.w3.org/2000/svg" xmlns:xlink="http://www.w3.org/1999/xlink" x="0px" y="0px"
	 viewBox="0 0 173.2 274.4" style="enable-background:new 0 0 173.2 274.4;" xml:space="preserve">
<style type="text/css">
	.st0{fill:#414042;}
	.st1{fill:#E6E7E8;}
	.st2{fill:#B28ABF;}
	.st3{fill:#9665AA;}
	.st4{fill:#C7A9D0;}
	.st5{fill:#FABFBF;}
	.st6{fill:none;stroke:#6C3E81;stroke-width:1.7008;stroke-linecap:round;stroke-linejoin:round;stroke-miterlimit:22.9256;}
	.st7{fill:none;stroke:#000000;stroke-width:1.7008;stroke-linecap:round;stroke-linejoin:round;stroke-miterlimit:22.9256;}
	.st8{fill:#FFFFFF;}
	.st9{fill:#DACAE3;}
	.st10{fill:#F7A1A1;}
</style>
<path class="st0" d="M17,141.4c-14,3.9-20.1-10.2-6.3-19C22.3,122.2,25.7,136.3,17,141.4z"/>
<path class="st1" d="M93.5,227.1c38.6,4.7,48.3,26.2,41,37.1c-8.4,11.3-21.4,13.3-39.1,6c-17-7.4-23-2.6-34.6-3.9
	c-12.3-1.3-20.1-6-20.6-15.1C39.5,240.4,55.3,222.5,93.5,227.1z"/>
<path class="st2" d="M62.1,142.2c17.7-0.5,35.1-2.5,52-6.7L113,209l-4.7,41.7c-7.6,5.7-13.3,7.6-16.1,3.7c-3.8-3-2.8-6.7,3.1-10.9
	c4.3-12.5-5.3-21.3-7.9-31.9h-6.5l-6.8,28.9c-1.2,7.1-4.6,10.2-10.3,9.3l-2.9-0.3l-3.1-2.1c-3.5-3.5-2.8-6.9,2.1-10.3
	c2.7-2.8,3.3-7.5,2.1-14.2l-5.5-23.5c-6.6-10.5-7-19.9-1.2-27.9C53.1,161.4,54.2,151.6,62.1,142.2z"/>
<path class="st3" d="M58.8,202.3c4.3,6.2,9.3,10.8,15.2,13.7c-1.2,10,3.1,30.8-10.3,33.7c18.7-0.3,12.4-25.8,17.1-38.2
	C71.5,210.7,64.1,207.6,58.8,202.3z"/>
<path class="st3" d="M56.8,150.6c-1.4,12.7,3.6,21.5,12.9,27.8l-9.5,2.3C53.9,170.9,51.3,161,56.8,150.6z"/>
<path class="st3" d="M105.4,176.3c-10.1,13.2-19.1,18.6-27.1,16l-6.5-1.3l3.9-0.8c14.8-3.7,37.8-31,34-53.8l8.8-1.9
	c0.6,22.6,0.3,45.8-0.8,69.7c-2.2,23.8-5.4,40.6-10,47.4c-2.1,4.1-5.4,5.7-9.8,4.8l-3.1-0.3l-2.6-1.7c1.3,0.9,4.1,1.9,5.5,0
	c17.2-6.2,6.1-38.3,6.9-51.1c-15.9,12.3-37.7,11.2-46.1-5.1c7,6.3,15.7,9.2,25.6,7.9C98.8,203.4,106.9,191,105.4,176.3z"/>
<path class="st3" d="M115.4,87.6l9.9-48.3l31.7-8.2c19.7,12.9,19.6,31.3,7.4,53.1c-11.9,15.5-27.8,21.1-47.7,16.7L115.4,87.6z"/>
<path class="st2" d="M64.5,55.1c8.8-11.2,14-21.5,13.9-30.4C84.2,28,88,34,90.8,41.2c0.1-6.6-0.9-13.4-4.1-21
	c8.5,3.2,13,13.7,14.6,29.2c16.8-24.9,51.4-32,67.1-7.2c-34.7-22.9-40,15.5-56.2,16.2l4.5,42.3L28.3,142L17,141.4
	c9.2-6.3,3.8-19.9-6.3-19c9.9-14.7,20.4-29.1,31.6-43L64.5,55.1z"/>
<path class="st4" d="M74.7,100.5c12-10.1,23.5-9.2,33.4-5.3l8.5,5.6l1.8,33.7c-33.1,7.1-66.8,10-101.5,6.8
	C43.5,137.1,59.9,113.3,74.7,100.5z"/>
<path class="st4" d="M67,141.9l17.1-1.5l21.2-3.3c0.5,11.9-8.3,23.6-29,37.7C68.9,164.5,63.5,153.7,67,141.9z"/>
<path class="st3" d="M61.7,8.5c23.1-19.3,48.6-1.6,53.3,26.8c-5,2.8-9.5,7.9-13.7,14.2c-0.6-15.1-5.4-24.9-14.6-29.2
	c3.4,8,4.3,14.7,4.1,21c-1.8-6.6-5.9-12.1-12.4-16.5c-0.4,8.6-5.5,18.9-13.9,30.4C47.1,40,50.1,19.1,61.7,8.5z"/>
<path class="st5" d="M112.1,58.5c14.3-2.7,23.4-25.5,42.8-8.1c12.9,15,1.8,52.3-38.8,44L112.1,58.5z"/>
<path class="st3" d="M117.6,204.2l0.5-8.2c56.3,6.6,60.6,45.4,40,54.5C173.1,237.3,169.1,210.3,117.6,204.2z"/>
<path class="st6" d="M10.6,122.4C24.7,99,43.5,76.8,64.5,55.1c8.4-9.8,13.6-19.9,13.9-30.4c6.3,3.3,10.1,9.1,12.4,16.5
	c-0.1-7.8-1.1-15-4.1-21c9.8,4.5,13.5,15.4,14.6,29.2c23.4-33.5,59.9-24.7,68.2-4.9c11.7,27.4-13.4,66.6-52.9,56.2"/>
<path class="st6" d="M112.1,58.5c9.6,0.8,18.1-19.7,37.3-12.4c14.3,6.2,17.2,40.4-13.7,48.8"/>
<path class="st6" d="M92.3,120.3c-5,10.5-11.1,17.5-18.4,21"/>
<path class="st6" d="M90.4,116.2c4-1.4,7.4,1.3,7.5,4.9"/>
<path class="st6" d="M112.1,58.5c9.1,61.6,11.7,187.5-8.6,197.1"/>
<path class="st6" d="M118.4,134.5c-28.5,6.6-62.6,10-102.6,6.7"/>
<path class="st7" d="M15.8,141.3c-15.6,2.2-16.5-11.4-5.2-18.9"/>
<path class="st6" d="M115,35.3C110.6,1.2,78.1-7.2,61.7,8.5C48.4,20.8,48.3,43,64.5,55.1"/>
<path class="st7" d="M10.6,122.4c11.7-0.2,15.1,14,6.3,19"/>
<path class="st8" d="M77.6,97.8l5.4-4l6-2.8c-0.7-19.2-8.6-27-17.6-17.8c-0.4-7-7.2-9.8-15-2.6C40.7,84,56.8,92.3,65.2,88.2
	C66,95,70.9,97.4,77.6,97.8z"/>
<path class="st6" d="M89,91c-0.7-19.2-8.6-27-17.6-17.8c-1.2-7-7.2-9.8-15-2.6c-14.8,15.2,0.4,21.7,8.7,17.6
	c0.9,6.8,5.8,9.2,12.5,9.7"/>
<path class="st6" d="M86.6,64.1c2.8,1.7,4.3,5.1,4.6,8.9"/>
<path d="M79.9,89.7c2.5,0,4.5-2,4.5-4.5s-2-4.5-4.5-4.5s-4.5,2-4.5,4.5S77.4,89.7,79.9,89.7z"/>
<path class="st8" d="M77.6,85.2c1.3,0,2.3-1,2.3-2.3s-1-2.3-2.3-2.3s-2.3,1-2.3,2.3C75.4,84.2,76.4,85.2,77.6,85.2z"/>
<path d="M60.1,82.3c2.3,0,4.2-1.9,4.2-4.2c0-2.3-1.9-4.2-4.2-4.2s-4.2,1.9-4.2,4.2C55.9,80.4,57.8,82.3,60.1,82.3z"/>
<path class="st8" d="M58,78.2c1.2,0,2.1-1,2.1-2.1c0-1.2-1-2.1-2.1-2.1c-1.2,0-2.1,1-2.1,2.1S56.8,78.2,58,78.2z"/>
<path class="st3" d="M27.5,123.2c1.2,0,2.2,1,2.2,2.2s-1,2.2-2.2,2.2s-2.2-1-2.2-2.2S26.3,123.2,27.5,123.2L27.5,123.2z M31.3,129.4
	c1.2,0,2.2,1,2.2,2.2s-1,2.2-2.2,2.2s-2.2-1-2.2-2.2C29.1,130.4,30,129.4,31.3,129.4L31.3,129.4z M35.4,123.1c1.2,0,2.2,1,2.2,2.2
	s-1,2.2-2.2,2.2s-2.2-1-2.2-2.2S34.2,123.1,35.4,123.1z"/>
<path class="st6" d="M103.5,255.6c-1.4,0.8-3.8,1.6-5.7,0.9c-1.5,0.4-4.6-0.5-5.7-2.1c-5.8-6.8,2.6-9,3.1-10.9
	c3-13.1-5.3-21.3-7.9-31.9"/>
<path class="st6" d="M62.1,142.2c-11.6,15-9.8,28.9-1.8,38.5c0.8,4.8,4.6,7.2,11.4,7.1"/>
<path class="st6" d="M64.4,186.4c1.5,4.1,7.1,5.6,11.3,3.8"/>
<path class="st6" d="M71.8,191c8.7,5.5,25.7-5.5,36.6-28.2"/>
<path class="st6" d="M60.2,180.7c12.5-1.8,26-10,40.6-28.7"/>
<path class="st6" d="M66.1,153c1.6,9.7,5.3,16.4,10.2,21.8"/>
<path class="st6" d="M55.1,171.3c-10.4,13.7-0.5,38.9,25.7,40.2c8.5,0.3,19.6-3.5,26.2-10.6"/>
<path class="st6" d="M118.1,196c56.3,6.6,60.6,45.4,40,54.5c14.9-13.3,10.9-40.2-40.6-46.3"/>
<path class="st6" d="M56.2,199.3c2.8,11.4,9.6,31.1,3.5,37.7c-4.4,1.7-6.2,7.6-1.4,10.8c0.8,1.4,3.6,2.1,5.4,1.9
	c17.2,1.2,13.8-25.6,17.1-38.2"/>
<path class="st6" d="M92.1,254.4c-0.1-2.8,0.9-4.9,2.6-6.4"/>
<path class="st6" d="M63.7,249.7c-0.1-3,0.8-5.3,2.3-6.9"/>
<path class="st6" d="M58.3,247.8c-0.1-3,0.9-5.3,2.6-6.9"/>
<path class="st6" d="M97.8,256.5c-0.6-2.3,0-4.9,1.1-6.9"/>
<path class="st4" d="M91,216.8c5,6.7,7.2,14.4,7.5,23.9C101.3,231.2,98.9,222.7,91,216.8z"/>
<path class="st4" d="M84,206.1c-9,0.4-17.1-2.4-25.6-7.9C65,206.5,74,209.6,84,206.1z"/>
<path class="st9" d="M79.2,97.6c8.9-4.2,18.2-4.7,29-2.4C98.1,89,87.8,89.5,79.2,97.6z"/>
<path class="st2" d="M56.6,21.1C63,12.8,71.6,7.6,82.9,4C70.4,3.8,60.9,9.5,56.6,21.1z"/>
<path class="st10" d="M152.5,76c-6.4,8.3-15,13.5-26.3,17.1C138.6,93.4,148.1,87.6,152.5,76z"/>
<path class="st6" d="M92.9,90.3c-5.5,0.2-11.6,3.6-18.2,10.2"/>
<path class="st4" d="M42.4,88.2c-4.3,1.1-22.6,23.9-23.4,30.6C26.9,110.5,35.1,100.3,42.4,88.2z"/>
</svg>
