<?xml version="1.0" encoding="utf-8"?>
<!-- Generator: Adobe Illustrator 21.1.0, SVG Export Plug-In . SVG Version: 6.00 Build 0)  -->
<svg version="1.1" id="Layer_1" xmlns="http://www.w3.org/2000/svg" xmlns:xlink="http://www.w3.org/1999/xlink" x="0px" y="0px"
	 viewBox="0 0 239.9 336.8" style="enable-background:new 0 0 239.9 336.8;" xml:space="preserve">
<style type="text/css">
	.st0{fill:#E6E7E8;}
	.st1{fill:#009CD9;}
	.st2{fill:#007BBF;}
	.st3{fill:#FABFBF;}
	.st4{fill:#8CD0EA;}
	.st5{fill:#00BBEB;}
	.st6{fill:#E89C9D;}
	.st7{fill:#D87672;}
	.st8{fill:#FFFFFF;}
	.st9{fill:#B5E0F2;}
	.st10{fill:none;stroke:#18537E;stroke-width:1.7008;stroke-linecap:round;stroke-linejoin:round;stroke-miterlimit:22.9256;}
	.st11{fill:#ADBC72;}
	.st12{fill:#F7A1A1;}
</style>
<g id="blue">
	<path id="XMLID_360_" class="st0" d="M37.3,293.3c0,7.9,14.8,11.4,18.4,13.6c7.5,4.5,5,8.9,9.7,18.1c12.1,23.5,117.2,6.7,124-12.4
		C202.6,275.6,37.3,272.6,37.3,293.3z"/>
	<path id="XMLID_359_" class="st1" d="M114.9,144.8c59.7-18.2,106.6,23,94.9,79.5c15.1-3.4,19.4,3.9,29.1,5.9
		c-6.4,3-10.8,7.8-13.4,14.5l9.3-0.9c-13.2,12.7-23.1,33.8-39.5,38.1c-8.7,1.3-19.6,1.5-26.8-8.2c-9.4,6.3-11.7,14.1-6.8,23.1
		c14.8,10.3-36,32.6-76.3,25c-4.8,0.8-9.3-0.6-13.6-4.1l-5-2.4c-4.3-3.4-1.3-9.2,9-17.4c-16.3,1.9-28.8,0.4-35.9-5.8l-4.5-2.2
		l-3.4-3.6c14.4-24.4,42.6-3.5,55.4-23.1c-6.8-6.6-12.1-16.4-14.2-33.3c-8.9,13.8-17.5,21.6-25.5,20.6c-8.4-0.3-12.4-4-11.8-11
		c-20-28.7-1.6-37.8-2.4-56.6l-6.2,2.8c-1.6-5.5-1.2-11.4,3.6-18.3C22.1,159,10.2,155.8,7.3,135l-2.9,1.7L4,131.8l1.1-4.8L1,126.6
		c2.2-6.9,8.4-10.5,18.6-10.9C23.4,95.9,34.2,82,51.8,73.9C54.9,1.7,104.8,13,132.4,1c14.9-3.9,26,11.2,1.1,31.6
		C117.1,45.8,94,46,82.7,59.4c5.5,4,9.1,9.8,11.4,16.8l9.2,7.4c24.1-40.3,62.4-40.7,109.1-11.3c6.6,4.8,8.3,15.6-5,21.1
		c-35.9,13.6-55-26.9-96.4,5L114.9,144.8z"/>
	<path id="XMLID_358_" class="st2" d="M114.9,144.8l-3.1,21.8c-3.2,16.4-31.3,15.2-39,18.7l-4.6,8.8l-8.6,8.7
		c-7.4,6.6-25.1,24.3-12.2,34c13.5,8.1,16.3-16,58.8-31l-4.8,8.6l-5,16.8c20.9,73.3,111.9,9.8,97-56.9
		c12.6,12.6,16.5,30.2,16.3,50.1c15.1-3.4,19.4,3.9,29.1,5.9c-6.4,3-10.8,7.8-13.4,14.5l9.3-0.9c-13.2,12.7-23.1,33.8-39.5,38.1
		c-8.7,1.3-19.6,1.5-26.8-8.2c-9.4,6.3-11.7,14.1-6.8,23.1c14.8,10.3-30.4,29-68.9,26.1c1.9-22.4,42.4-15,41.4-46.6l-5.6-1.5
		c-18.1,31.9-35.8,13.7-52.9,23.1c-16.3,1.9-28.8,0.4-35.9-5.8l-4.5-2.2c7.8-23.4,37.2-1.5,52-26.7c-6.8-6.6-12.1-16.4-14.2-33.3
		c-8.9,13.8-17.5,21.6-25.5,20.6c-8.4-0.3-13.8-3.8-11.9-17.5c-15.6-22.7-1.5-31.2-2.3-50.1l-6.2,2.8c-1.6-5.5-1.2-11.4,3.6-18.3
		L45,131.6l-5.7-24.5c6.7-13.7,14.1-15.4,18.2-8.7c3.8,8,2.3,20.4-1.5,34.9l0.4,17.4l43.3-17.1c3.4-23.9-9.9-49-24.7-50.5
		c6.4-0.1,8.8-5,4.7-10l-8.5-5.5l8-22.2l53.5-25.9c1.2,18.3-38.2,21.9-50,39.9l-3.4,0.1l-0.7,4.8c5.3-0.5,10.6,7.9,15.9,20.4
		L94,76.1l4.6,3.7l7.1,6.8c61.4-42.5,102.5,22.5,102.1-14.5c6.6,4.8,9.2,17.4-0.5,21.1c-35.9,13.6-55-26.9-96.4,5L114.9,144.8z"/>
	<path id="XMLID_355_" class="st3" d="M63.5,70.2C63,23,91.3,23.8,118,15.4c14.9-3.9,21.3,1.5,8.3,10c-18.6,13-49,15.9-53.7,42.6
		l-2.9-0.6l-0.8,2L63.5,70.2L63.5,70.2z M105.8,86.7l3.8,7C151,61.8,167,83.5,193,86.1c14.4,0,13.6-7.5,5.5-11.7
		C148.1,51.9,123.3,54.1,105.8,86.7z"/>
	<path id="XMLID_354_" class="st4" d="M114.9,144.8l2.6,4.8l4.3,3.3l-6.7,4.9l3.8,2.3c-10.5,13.1-26,20-44.1,18.7l0,0
		c-2.9,16.8-14.9,22.6-23.5,31.3c-7.9-5.4-12.9-11.9-11.7-21.1l-3.8,5.1l-2.1-5.4l-0.4-5.7l-6.2,2.8c-1.6-5.5-1.2-11.4,3.6-18.3
		C22.1,159,10.2,155.8,7.3,135l-2.9,1.7L4,131.8l1.1-4.8L1,126.6c2.2-6.9,8.4-10.5,18.6-10.9c13.2,2,22.7,10.1,29.6,22.4l19.9,5.6
		c10.3-8.9,21.6-11.1,30.6-10.1C107.2,135.3,112,139.3,114.9,144.8z"/>
	<path id="XMLID_353_" class="st5" d="M114.9,144.8l2.6,4.8l4.3,3.3l-6.7,4.9l3.8,2.3c-10.5,13.1-26,20-44.1,18.7l0,0l-11,1
		c-7.9,3.1-15.1,3.6-20.5-1.6l-12.4-10.7C22,159,9.9,156.7,7.3,135c8.3,23.5,24.9,29.2,36.5,29.2c2,11.4,3,10.1,6.8,10.7
		c7.3-1.1,6.3-1.2,8.5-3.3c19.1,7.1,58.8-5.7,40.5-37.9C107.2,135.3,112,139.3,114.9,144.8z"/>
	<path id="XMLID_352_" class="st4" d="M209.9,224.2c15.1-3.4,19.4,3.9,29.1,5.9c-6.4,3-10.8,7.8-13.4,14.5l9.3-0.9
		c-13.2,12.7-23.1,33.8-39.5,38.1c-8.7,1.3-19.6,1.5-26.8-8.2C183.7,265,206.4,248.8,209.9,224.2z"/>
	<path id="XMLID_351_" class="st5" d="M209.9,224.2c12.6-2.4,15.1,1.3,23.7,4.3c-7.5,2.1-20.8,13.4-23.3,20.1l15.3-4
		c-11.8,11.4-28.4,29-45,22.3C193.6,257.9,204.4,246.1,209.9,224.2z"/>
	<path id="XMLID_350_" class="st5" d="M87.4,263.2c-6.8-6.6-12.1-16.4-14.2-33.3c7.1-8.3,23.5-13.7,33.1-24.4
		c-19.5,30.5-10,53.5,15.5,67C108.8,274.7,97,272.6,87.4,263.2z"/>
	<path id="XMLID_349_" class="st6" d="M49.4,136.7c4.1-8.1,22.1,0.6,20.1,6.1C60.4,152.8,52.1,149.8,49.4,136.7z"/>
	<path id="XMLID_348_" class="st7" d="M49.4,136.7c1.8,7.1,16.8,9,20.1,6.1C60.4,152.8,50.4,149.4,49.4,136.7z"/>
	<path id="XMLID_347_" class="st8" d="M87.9,108.4c6.8,1.7,8.5,10.9,6.5,25.1l-7.4,1l-7.6,2.8C79.1,122.8,81.2,112.2,87.9,108.4z"/>
	<path id="XMLID_346_" class="st8" d="M50.9,99.4c5.2,3.4,8.4,17.1-5.9,32.2l-6.5-7.8l-4.9-3.5C38.7,105.8,44.5,98.9,50.9,99.4z"/>
	<path id="XMLID_345_" class="st9" d="M43.5,131.8c-5.6-4.5-10.7-7.3-18.9-12.5C35.7,118.2,38.8,122.8,43.5,131.8z"/>
	<path id="XMLID_344_" class="st9" d="M42,188.7c2.4,7,6.4,13,12.5,18.6l-1,0.9C45.9,204,42.3,197.4,42,188.7z"/>
	<path id="XMLID_343_" class="st9" d="M100.3,134.8c-8.6,2.1-16.1,3-26,7.2C83.1,134.1,94.8,131.7,100.3,134.8z"/>
	<path id="XMLID_342_" class="st10" d="M94.1,76.2c27.5,16.4,14.8,45.4,20.9,68.6c65.3-19,105.5,28.4,94.9,79.5
		c-5,22.3-20.1,39.6-41.3,49.5c-11,7.3-11.4,16.7-6.8,23.1c5.2,5,0.8,10.9-4.1,13.2c-16.5,10.1-59.5,17-72.2,11.8
		c-4.8,0.7-11.6-1.3-13.6-4.1c-3-1-8.5-3.5-6.8-7.3c8.6-21.8,28.5-11.9,43.1-16.8c8.4-2.7,15-8.5,20.3-17.9"/>
	<path id="XMLID_341_" class="st10" d="M51.8,73.9c3.1-1.6,7-2.9,11.7-3.7"/>
	<path id="XMLID_340_" class="st11" d="M36.9,123c2.1,1.6,4.2,3.2,8.1,8.6c10.6-10.3,10.3-23.5,5.1-26.1
		C47.1,104.9,39.5,110.2,36.9,123z"/>
	<path id="XMLID_339_" class="st10" d="M5.1,127c-1.2,3.4-1.4,6.7-0.7,9.7c1.7-1.4,3.7-2.2,6.2-2.4"/>
	<path id="XMLID_338_" class="st11" d="M94.4,133.7l-4.7,0.9l-7.2,1.3c-1.2-15.7,4-21.9,6.9-21.8C92.7,114.2,97.5,120.5,94.4,133.7z
		"/>
	<path id="XMLID_337_" d="M48.5,122.3c3,0,5.5-2.5,5.5-5.5s-2.5-5.5-5.5-5.5s-5.5,2.5-5.5,5.5S45.4,122.3,48.5,122.3z"/>
	<path id="XMLID_336_" class="st8" d="M43.3,122.1c1.8,0,3.4-1.5,3.4-3.3s-1.5-3.3-3.4-3.3c-1.8,0-3.3,1.5-3.3,3.3
		S41.4,122.1,43.3,122.1z"/>
	<path id="XMLID_335_" d="M90.8,129.4c3,0,5.5-2.5,5.5-5.5s-2.5-5.5-5.5-5.5s-5.5,2.5-5.5,5.5S87.8,129.4,90.8,129.4z"/>
	<path id="XMLID_334_" class="st8" d="M85.6,129.1c1.8,0,3.3-1.5,3.3-3.3s-1.5-3.3-3.3-3.3s-3.3,1.5-3.3,3.3
		C82.3,127.6,83.8,129.1,85.6,129.1z"/>
	<path id="XMLID_333_" class="st5" d="M63.8,179.8l11-1l-2,6.4c-16.4,6.2-29.3,5.4-38.3-15.1l8.8,8.1
		C47.9,183.8,54.7,184.3,63.8,179.8z"/>
	<path id="XMLID_332_" class="st6" d="M47.5,157.9l7.6-2.7l5.1,5.4C58.8,168.5,46.9,172.6,47.5,157.9z"/>
	<path id="XMLID_302_" class="st10" d="M103.2,83.6c20.9-39.3,65.1-41.6,109.1-11.3c10.4,7.7,6.1,21.5-17.1,23.9
		c-28.4,2.8-47.8-26.7-84.2,2.2 M57.5,98.4c-1.6-5.4-7.5-5.5-14.1-0.3 M79.5,111.5c2.8-9.7,9.2-11.9,12.2-6 M79.4,137.3
		c-0.9-19.3,4.9-28.9,8.5-28.8c4.1,0.2,10.4,8.9,6.5,25.2 M29.8,118.9c5.3,1,10.4,5.6,15.3,12.6c12.4-12.1,12.4-28.8,5.9-32.2
		c-3.8-0.7-14.1,5.8-17.3,20.9 M33.5,186.8c-0.7,13-17.5,27.7,2.5,52.8 M30.9,167.5c-4.3,5.8-4.8,12-3.6,18.3
		c2.1-1.7,4.1-2.6,6.2-2.8c-0.6,3.4,0.5,7.2,2.4,11.1l3.8-5.1c-0.9,8.5,4,15.2,11.7,21.1 M85.4,321.9c0.2-4.5,1.3-8.6,3.1-12.3
		 M71.8,317.8c0.2-4.5,1.9-8.5,4.4-12.1 M39.9,292.1c6.4,6.2,19,7.6,35.9,5.8 M46.3,282.9c-3,2.8-4.9,5.9-6.4,9.2
		c-3.1-0.6-6.8-3.7-7.9-5.8c2.2-5.4,7.2-9.5,11.9-10.9c16.8-5.9,34.7,3.2,43.6-12.1 M73.2,230c4,34.3,24.3,45.9,48.6,42.7 M36.4,242
		c0.5-3.2,2.5-6.5,5.9-9.9 M47.7,250.6c0.5-3.2,2.5-6.5,5.9-9.9 M75.7,139.9c5.1-4.7,13.1-6.8,24-6.2 M43.9,164.2
		c1.5,14,12.1,12.3,15.3,7.4 M47.5,157.9c-0.9,13.2,11.2,12.6,12.7,2.6 M76.2,147.7c2.3-1.4,5.3-0.1,6,1.9 M36.5,138
		c2.5-1,5.2,0.8,5.6,3 M38.8,140.9c-9.5,11,5.1,22.3,16.2,14.3c7.6,12.5,23.1,7.5,23.8-4.3 M115.1,157.9c2.5-0.7,5.4-3.1,6.7-4.9
		c-3.4-1.6-5.8-4.6-6.9-8.1 M7.3,135c4.3,26.8,24,28.8,36,43.2c3.7,4.3,10.9,5.4,17.2,2.3c17.4-5,35.4,5.2,58.4-20.4
		c-1.6-1.7-4.4-2.8-8.2-3.2 M134.3,276.3c-37.3-8.3-48.3-39.5-28-70.7c-10.5,12.6-27.8,16-35.9,27.7c-8.6,12.8-16,17.4-22.7,17.3
		c-5.7,0-11.5-2.8-11.4-8.6c-6.4-28.6,32.4-34.3,38.4-63.1 M216.7,247.4c5.5-2.4,11.5-3.6,18.2-3.6c-13.6,11.6-21.7,33.8-39.5,38.1
		c-9.2,2.2-20.4,0.4-26.8-8.2 M209.9,224.2c14.2-2.6,19.4,3.9,29.1,5.9c-6.4,3.8-10.5,8.4-13.4,14.5 M83.8,78.2
		c-7.3-10.9-22.3-17.6-10.6,0 M82.7,59.4c-3.9-2.8-5.2,1.8-3,13.8 M94.5,84.8c0.3-12.1-4.3-20-11.8-25.4
		c10.7-13.2,32.6-12.4,50.9-26.8c24.2-19.1,13.7-36.5-2.2-31.2C102.8,12.9,54.3,3.1,51.9,74c-16.2,6.5-27,20.4-32.2,41.8
		c-8.2,0.5-16.7,4.1-18.6,10.9c3.1,0.1,5.8,0.5,8.2,1.4 M69.6,142.7c2.4-6.6-17-13.5-20.1-6.1c-1.7,4.7,4.7,11.3,7.6,11.8
		C62.4,149.4,68.8,145.5,69.6,142.7z"/>
	<path id="XMLID_301_" class="st5" d="M58.9,76.5c-10.2,2.6-18.4,8.4-26.2,17.4C37.4,82.3,46.5,75.9,58.9,76.5z"/>
	<path id="XMLID_300_" class="st5" d="M88.2,297.6c-9,2.3-17.4,5.7-21.9,14.6C69.5,300.8,75.8,298,88.2,297.6z"/>
	<path id="XMLID_299_" class="st5" d="M130.1,261.4c-10.2-2.6-18.4-8.4-26.2-17.4C108.7,255.6,117.8,262,130.1,261.4z"/>
	<path id="XMLID_298_" class="st5" d="M157.4,149.6c12.6,3.2,22.6,10.3,32.2,21.4C183.8,156.8,172.6,148.9,157.4,149.6z"/>
	<path id="XMLID_297_" class="st5" d="M97.4,13.5C87.2,16.1,70,29.2,62.2,38.2C66.9,26.6,83.1,14.7,97.4,13.5z"/>
	<path id="XMLID_296_" class="st4" d="M106,269.3c-10.6-5-18.9-12.9-26.3-24.5C83.2,259.6,92.3,267.3,106,269.3z"/>
	<path id="XMLID_295_" class="st1" d="M145,311.6c9-4.6,14.3-8,11.7-16.6C162.7,303,159.6,308.9,145,311.6z"/>
	<path id="XMLID_294_" class="st9" d="M186.9,280.8c10.2-2.6,18.4-8.4,26.2-17.4C208.3,275,199.2,281.4,186.9,280.8z"/>
	<path id="XMLID_293_" class="st12" d="M161.2,63.9c-12.2-1.5-24-0.2-37.4,4C135.7,60,148.2,59.1,161.2,63.9z"/>
</g>
</svg>
