<?xml version="1.0" encoding="utf-8"?>
<!-- Generator: Adobe Illustrator 21.1.0, SVG Export Plug-In . SVG Version: 6.00 Build 0)  -->
<svg version="1.1" id="Layer_1" xmlns="http://www.w3.org/2000/svg" xmlns:xlink="http://www.w3.org/1999/xlink" x="0px" y="0px"
	 viewBox="0 0 239.9 336.8" style="enable-background:new 0 0 239.9 336.8;" xml:space="preserve">
<style type="text/css">
	.st0{fill:#E6E7E8;}
	.st1{fill:#FFFFFF;}
	.st2{fill:none;stroke:#000000;stroke-width:1.7008;stroke-linecap:round;stroke-linejoin:round;stroke-miterlimit:22.9256;}
</style>
<g id="empty">
	<path id="XMLID_470_" class="st0" d="M37.8,293.3c0,7.9,14.8,11.4,18.4,13.6c7.5,4.5,5,8.9,9.7,18.1c12.1,23.5,117.2,6.7,124-12.4
		C203.1,275.6,37.8,272.6,37.8,293.3z"/>
	<path id="XMLID_469_" class="st1" d="M114.4,144.8c59.7-18.2,106.6,23,94.9,79.5c15.1-3.4,19.4,3.9,29.1,5.9
		c-6.4,3-10.8,7.8-13.4,14.5l9.3-0.9c-13.2,12.7-23.1,33.8-39.5,38.1c-8.7,1.3-19.6,1.5-26.8-8.2c-9.4,6.3-11.7,14.1-6.8,23.1
		c14.8,10.3-36,32.6-76.3,25c-4.8,0.8-9.3-0.6-13.6-4.1l-5-2.4c-4.3-3.4-1.3-9.2,9-17.4c-16.3,1.9-28.8,0.4-35.9-5.8l-4.5-2.2
		l-3.4-3.6c14.4-24.4,42.6-3.5,55.4-23.1c-6.8-6.6-12.1-16.4-14.2-33.3c-8.9,13.8-17.5,21.6-25.5,20.6c-8.4-0.3-12.4-4-11.8-11
		c-20-28.7-1.6-37.8-2.4-56.6l-6.2,2.8c-1.6-5.5-1.2-11.4,3.6-18.3C21.5,159,9.7,155.8,6.8,135l-2.9,1.7l-0.4-4.9l1.1-4.8l-4.1-0.3
		c2.2-6.9,8.4-10.5,18.6-10.9C22.9,95.9,33.6,82,51.3,73.9C54.4,1.7,104.3,13,131.9,1c14.9-3.9,26,11.2,1.1,31.6
		C116.5,45.8,93.4,46,82.2,59.4c5.5,4,9.1,9.8,11.4,16.8l9.2,7.4c24.1-40.3,62.4-40.7,109.1-11.3c6.6,4.8,8.3,15.6-5,21.1
		c-35.9,13.6-55-26.9-96.4,5L114.4,144.8z"/>
	<path id="XMLID_468_" class="st2" d="M95.1,84.8c0.3-12.1-4.3-20-11.8-25.4C94,46.2,115.8,47,134.1,32.6
		c24.2-19.1,13.7-36.5-2.2-31.2C103.3,12.9,54.8,3.1,52.4,74c-16.2,6.5-27,20.4-32.2,41.8c-8.2,0.5-16.7,4.1-18.6,10.9
		c3.1,0.1,5.8,0.5,8.2,1.4"/>
	<path id="XMLID_467_" class="st2" d="M94.6,76.2c27.5,16.4,14.8,45.4,20.9,68.6c65.3-19,105.5,28.4,94.9,79.5
		c-5,22.3-20.1,39.6-41.3,49.5c-11,7.3-11.4,16.7-6.8,23.1c5.2,5,0.8,10.9-4.1,13.2c-16.5,10.1-59.5,17-72.2,11.8
		c-4.8,0.7-11.6-1.3-13.6-4.1c-3-1-8.5-3.5-6.8-7.3c8.6-21.8,28.5-11.9,43.1-16.8c8.4-2.7,15-8.5,20.3-17.9"/>
	<path id="XMLID_466_" class="st2" d="M210.4,224.2c14.2-2.6,19.4,3.9,29.1,5.9c-6.4,3.8-10.5,8.4-13.4,14.5"/>
	<path id="XMLID_465_" class="st2" d="M217.2,247.4c5.5-2.4,11.5-3.6,18.2-3.6c-13.6,11.6-21.7,33.8-39.5,38.1
		c-9.2,2.2-20.4,0.4-26.8-8.2"/>
	<path id="XMLID_464_" class="st2" d="M134.8,276.3c-37.3-8.3-48.3-39.5-28-70.7c-10.5,12.6-27.8,16-35.9,27.7
		c-8.6,12.8-16,17.4-22.7,17.3c-5.7,0-11.5-2.8-11.4-8.6c-6.4-28.6,32.4-34.3,38.4-63.1"/>
	<path id="XMLID_463_" class="st2" d="M52.4,73.9c3.1-1.6,7-2.9,11.7-3.7"/>
	<path id="XMLID_462_" class="st2" d="M83.2,59.4c-3.9-2.8-5.2,1.8-3,13.8"/>
	<path id="XMLID_461_" class="st2" d="M84.4,78.2C77,67.3,62,60.5,73.8,78.2"/>
	<path id="XMLID_460_" class="st0" d="M37.5,123c2.1,1.6,4.2,3.2,8.1,8.6c10.6-10.3,10.3-23.5,5.1-26.1
		C47.7,104.9,40,110.2,37.5,123z"/>
	<path id="XMLID_459_" class="st2" d="M103.8,83.6c20.9-39.3,65.1-41.6,109.1-11.3c10.4,7.7,6.1,21.5-17.1,23.9
		c-28.4,2.8-47.8-26.7-84.2,2.2"/>
	<path id="XMLID_458_" class="st2" d="M5.7,127c-1.2,3.4-1.4,6.7-0.7,9.7c1.7-1.4,3.7-2.2,6.2-2.4"/>
	<path id="XMLID_457_" class="st2" d="M7.9,135c4.3,26.8,24,28.8,36,43.2c3.7,4.3,10.9,5.4,17.2,2.3c17.4-5,35.4,5.2,58.4-20.4
		c-1.6-1.7-4.4-2.8-8.2-3.2"/>
	<path id="XMLID_456_" class="st2" d="M115.7,157.9c2.5-0.7,5.4-3.1,6.7-4.9c-3.4-1.6-5.8-4.6-6.9-8.1"/>
	<path id="XMLID_455_" class="st2" d="M39.3,140.9c-9.5,11,5.1,22.3,16.2,14.3c7.6,12.5,23.1,7.5,23.8-4.3"/>
	<path id="XMLID_454_" class="st2" d="M37,138c2.5-1,5.2,0.8,5.6,3"/>
	<path id="XMLID_453_" class="st2" d="M76.8,147.7c2.3-1.4,5.3-0.1,6,1.9"/>
	<path id="XMLID_452_" class="st2" d="M48,157.9c-0.9,13.2,11.2,12.6,12.7,2.6"/>
	<path id="XMLID_451_" class="st0" d="M94.9,133.7l-4.7,0.9l-7.2,1.3c-1.2-15.7,4-21.9,6.9-21.8C93.3,114.2,98.1,120.5,94.9,133.7z"
		/>
	<path id="XMLID_450_" class="st2" d="M44.4,164.2c1.5,14,12.1,12.3,15.3,7.4"/>
	<path id="XMLID_449_" class="st2" d="M76.3,139.9c5.1-4.7,13.1-6.8,24-6.2"/>
	<path id="XMLID_448_" class="st2" d="M30.3,118.9c5.3,1,10.4,5.6,15.3,12.6C58,119.4,58,102.7,51.5,99.3
		c-3.8-0.7-14.1,5.8-17.3,20.9"/>
	<path id="XMLID_447_" class="st2" d="M58,98.4c-1.6-5.4-7.5-5.5-14.1-0.3"/>
	<path id="XMLID_446_" class="st2" d="M57.5,148.3c-4.8-3-7.9-6.6-6.2-11.2c3.2-7.5,21.7-0.7,19.4,5.9C69.4,147,64,149.7,57.5,148.3
		z"/>
	<path id="XMLID_445_" class="st2" d="M80,137.3c-0.9-19.3,4.9-28.9,8.5-28.8c4.1,0.2,10.4,8.9,6.5,25.2"/>
	<path id="XMLID_444_" class="st2" d="M80,111.5c2.8-9.7,9.2-11.9,12.2-6"/>
	<path id="XMLID_443_" d="M49,122.3c3,0,5.5-2.5,5.5-5.5s-2.5-5.5-5.5-5.5s-5.5,2.5-5.5,5.5S46,122.3,49,122.3z"/>
	<path id="XMLID_442_" class="st1" d="M43.8,122.1c1.8,0,3.3-1.5,3.3-3.3s-1.5-3.3-3.3-3.3s-3.3,1.5-3.3,3.3S42,122.1,43.8,122.1z"
		/>
	<path id="XMLID_441_" d="M91.3,129.4c3,0,5.5-2.5,5.5-5.5s-2.5-5.5-5.5-5.5s-5.5,2.5-5.5,5.5S88.3,129.4,91.3,129.4z"/>
	<path id="XMLID_440_" class="st1" d="M86.2,129.1c1.8,0,3.3-1.5,3.3-3.3s-1.5-3.3-3.3-3.3s-3.3,1.5-3.3,3.3
		C82.9,127.6,84.4,129.1,86.2,129.1z"/>
	<path id="XMLID_439_" class="st2" d="M48.3,250.6c0.5-3.2,2.5-6.5,5.9-9.9"/>
	<path id="XMLID_438_" class="st2" d="M36.9,242c0.5-3.2,2.5-6.5,5.9-9.9"/>
	<path id="XMLID_437_" class="st2" d="M73.7,230c4,34.3,24.3,45.9,48.6,42.7"/>
	<path id="XMLID_436_" class="st2" d="M46.9,282.9c-3,2.8-4.9,5.9-6.4,9.2c-3.1-0.6-6.8-3.7-7.9-5.8c2.2-5.4,7.2-9.5,11.9-10.9
		c16.8-5.9,34.7,3.2,43.6-12.1"/>
	<path id="XMLID_435_" class="st2" d="M40.5,292.1c6.4,6.2,19,7.6,35.9,5.8"/>
	<path id="XMLID_434_" class="st2" d="M72.3,317.8c0.2-4.5,1.9-8.5,4.4-12.1"/>
	<path id="XMLID_433_" class="st2" d="M86,321.9c0.2-4.5,1.3-8.6,3.1-12.3"/>
	<path id="XMLID_432_" class="st2" d="M31.5,167.5c-4.3,5.8-4.8,12-3.6,18.3c2.1-1.7,4.1-2.6,6.2-2.8c-0.6,3.4,0.5,7.2,2.4,11.1
		l3.8-5.1c-0.9,8.5,4,15.2,11.7,21.1"/>
	<path id="XMLID_431_" class="st2" d="M34,186.8c-0.7,13-17.5,27.7,2.5,52.8"/>
</g>
</svg>
