<?xml version="1.0" encoding="utf-8"?>
<!-- Generator: Adobe Illustrator 21.1.0, SVG Export Plug-In . SVG Version: 6.00 Build 0)  -->
<svg version="1.1" id="Layer_1" xmlns="http://www.w3.org/2000/svg" xmlns:xlink="http://www.w3.org/1999/xlink" x="0px" y="0px"
	 viewBox="0 0 187.4 357.1" style="enable-background:new 0 0 187.4 357.1;" xml:space="preserve">
<style type="text/css">
	.st0{fill:#E6E7E8;}
	.st1{fill:#F9A57B;}
	.st2{fill:#FCC8A8;}
	.st3{fill:#A16044;}
	.st4{fill:#D58F5C;}
	.st5{fill:#BB7446;}
	.st6{fill:#FDCEAE;}
	.st7{fill:#EBB081;}
	.st8{fill:none;stroke:#823436;stroke-width:1.7008;stroke-linecap:round;stroke-linejoin:round;stroke-miterlimit:22.9256;}
	.st9{fill:#E4A16E;}
	.st10{fill:#F8ABAD;}
	.st11{fill:#FFFFFF;}
	.st12{fill:#C7EAFB;}
	.st13{fill:#FEE6D3;}
	.st14{fill:#FFEDE0;}
	.st15{fill:#F3C099;}
</style>
<g id="brown">
	<path id="XMLID_192_" class="st0" d="M72.9,322.2c-25.8,4-44.6,16.8-28.3,31c9.4,8.1,34.2-1,47.5,0c12.5,0.9,54.1,3.1,57.3-13.5
		C152,325.6,102.6,317.6,72.9,322.2z"/>
	<path id="XMLID_191_" class="st1" d="M54,176.7c-1.9-4.7-5.6-8.3-11.1-11c-14.8,15.1-19.5,35.2-17.9,43.4
		c0.8,10.7,13.5,18.8,26.9,27.8l-1.9-7.5l7.5,0.1c-7-9.5-14-19.3-17.8-22.8C38.4,200.7,47.2,184.8,54,176.7z"/>
	<path id="XMLID_190_" class="st2" d="M54,176.7c-1.9-4.7-4.5-6.5-9.8-6.2C33.5,186.8,31.4,198,33,206.2c2.4,5,11.6,16.5,17.5,13.8
		l1.9,3c-7-9.5-8.9-12.8-12.7-16.2C38.4,200.7,47.2,184.8,54,176.7z"/>
	<path id="XMLID_189_" class="st1" d="M168.1,197l-6.4-19.9l-1.4-10.1l6-5c9.4,7.4,15.8,16,18.2,25.9c1.8,11.8-8,25.8-23.2,40.8
		l-1.6-5.9l-4.9-0.3C158,211.1,161.8,203.6,168.1,197z"/>
	<path id="XMLID_188_" class="st2" d="M175.4,189.4c2.6-7.8-10-23.6-5.1-24.2c7.3,8.1,11.9,12.6,14.2,22.6
		c1.8,11.8-3.8,19-16.8,34.1v0.1l-0.7-4.5l-2.6-2.6C175.8,206.7,179.8,189.3,175.4,189.4z"/>
	<path id="XMLID_187_" class="st1" d="M136.5,278.3l-16.1,8.2c1.2,30.9,4.4,45.9,8.5,52.8l2.4-7.4l5.9,4.4
		C136.7,324.4,136.4,307.2,136.5,278.3z"/>
	<path id="XMLID_186_" class="st2" d="M136.5,278.3l-10.1,6.5c1.2,30.9,1.5,39.9,6.6,41.9l3.9,1.2
		C136.5,316.1,136.4,307.2,136.5,278.3z"/>
	<path id="XMLID_185_" class="st2" d="M86.2,280.8l-17.5-7.4c3.1,29.4,2.2,50.7-2.8,64L71,335l2,6C79.3,332.7,87.2,316.2,86.2,280.8
		z"/>
	<path id="XMLID_184_" class="st1" d="M77.6,279.2l-8.9-5.8c3.1,29.4,2.2,50.7-2.8,64l2.5-1.2l1.9-6.7
		C75.7,322.7,80.1,299.3,77.6,279.2z"/>
	<path id="XMLID_183_" class="st3" d="M77.2,334.3c-1.8-3.4-5.9-6.1-9.3-3.7c-0.6,2.5-1.3,4.7-2,6.8l4.4-0.6L73,341
		C74.3,339.2,75.8,337,77.2,334.3z"/>
	<path id="XMLID_182_" class="st4" d="M58.5,270.9l-7.7-5.9c-7.6,8.2-20.4,10.2-35.8,9.2C31.1,282.2,48,280.3,58.5,270.9z"/>
	<path id="XMLID_181_" class="st5" d="M86.3,286l-0.1-5.3c-5.1,0.9-11-1.6-17.5-7.4l-0.5,6.5c-5.4-0.4-8.2-5-9.6-8.9
		c-6.3-2-11.4-7.5-13.8-20.6c-5.8-6.4-9.9-12.1-9.7-25.5c6.6,5.9,13.6,10.3,16.9,12.2l-1.9-7.5l7.5,0.1
		c-7.1-8.8-12.9-17.3-17.8-22.8c1.2-10.4,8.6-22.9,14.3-30.1l107.8,0.4c4,4.7,5.7,11.8,6.4,19.9c-6.5,8-10.9,16.4-13.2,25.4l4.9,0.3
		l1.6,5.9l7.8-8.3c1.5,12.5-5.2,26.9-12.1,31.3c1.2,9.4-7,21.2-17.2,20.9c-1.5,7.1-15,15.7-26.4,14.1
		C105.8,289.7,93.2,289.6,86.3,286z"/>
	<path id="XMLID_180_" class="st3" d="M86.3,286l-0.1-5.3c-4.8,0.8-11.4-1.6-17.5-7l-0.5,6.1c-5.1-0.4-9.1-6-10.5-9.7
		c-5.9-1.9-8.7-14.5-6.1-17.8c-5.5-6.1-11.1-10.2-10.9-22.9c6.2,5.6,8.1,5.7,11.3,7.5l0.7-5.6l4.8-1.8c-5.5-8.4-10.5-16-17.1-21.1
		c-4.5-8.8,8.2-25,13.6-31.8l18.6,16l-1.6,6.3c-4.3,11.7,1.6,19.4,11.2,22.2c-8.1,3.1-8.2,14.2-4.9,19.4c-3.6,5.2-0.4,10,4.6,10.8
		c1.8,10.4,17.8,9.5,22.2,3.9c3.8,8.3,33.5,18.9,48-2c1.1,8.9-7.5,14.8-15.8,16.9c-1.4,6.7-11.9,18-22.6,16.4
		C106.3,289.6,92.8,289.4,86.3,286z"/>
	<path id="XMLID_179_" class="st4" d="M165.2,141.5l-101-22.9l-30.9,24.2c-3,13.1-0.2,21.4,5.3,27.5l4.2-4.6c6.3,2.2,10,5.9,11.1,11
		l4,10c2.5,4.7,7.4,6.7,14.6,6c-5.1,9.3,2.3,17,13.3,9.9c4.9,12.5,28.1,11.5,32.2-1.3c22.2,12.8,50.5-10.8,42.2-34.3
		C168.9,163,172.5,150.6,165.2,141.5z"/>
	<path id="XMLID_178_" class="st5" d="M64.3,118.6l-30.9,24.2c-3,13.1-0.2,21.4,5.3,27.5l4.2-4.6c6.3,2.2,10,5.9,11.1,11l4,10
		c2.5,4.7,13,4.6,16.3,2.7c-7.2,0.1-11-4.7-13.4-9.8c-1.6-13.5-14-14.4-3.6-26c6-8,17.3,8.5,19.6-0.9
		C68.1,143.7,83.8,134.2,64.3,118.6z"/>
	<path id="XMLID_177_" class="st6" d="M159.3,72l-36.9-29.5l2.4-30.4C162.4-4,193.6,47,159.3,72z"/>
	<path id="XMLID_176_" class="st5" d="M81.9,125.1c-5.8,10.5-18.2,17.9-28.6,19.3c2.1,3.4,1.5,10.7,15.7,19.7
		C77.1,155.8,84.6,138.5,81.9,125.1z"/>
	<path id="XMLID_175_" class="st7" d="M159.3,72l-43.9-16.9l2.2-28.6C160.5,12.5,183,52.1,159.3,72z"/>
	<path id="XMLID_174_" class="st5" d="M154.2,145.3c-8.3,13.1-38.5,24.5-73.5-5.2l1.2-16.8c7.8-18.8-5.5-37.1-20.9-38.9
		c5.6,1,9.9-0.8,12.8-5.4l37.9-48l17.2,9.1c13.1,6.4,25.7,21.2,33.2,37.3c18.7,14,19.4,51,11,58.6
		C168.9,140.2,162.4,143.7,154.2,145.3z"/>
	<path id="XMLID_173_" class="st3" d="M86.7,144.4l-5.4-3.8l0.1-9.7c-4.6,10.7-17.7,17-27.1,13.3l27.6-20.9
		c7.8-18.8-5.5-37.1-20.9-38.9c5.6,1,9.9-0.8,12.8-5.4l48.6-36.6c1.8,16-6,25.9-18.7,25.5c0,6.3-3.7,9.6-8.7,11.9
		c-6.6,10-0.4,21.4,8.2,30.8l-8.3,5C106,115.3,93.3,140,86.7,144.4z"/>
	<path id="XMLID_172_" class="st8" d="M124.8,12.1C162.4-4,193.6,47,159.3,72"/>
	<path id="XMLID_171_" class="st9" d="M99.8,63.5c-1.4,9.1-7.9,16.2-24.9,15.1c5-20-2.7-34.4-38.4-31.8c-1.1-10.6,1.1-17.1,10.3-22
		C47.3-0.2,88.9-5.7,93.2,7C99-0.8,115,2,115,13c18.9-8.4,33.6,23.2,7.5,29.4C124.1,52.1,115.9,63.1,99.8,63.5z"/>
	<path id="XMLID_170_" class="st4" d="M90.1,56.2c3,8.9-5.3,18.2-19.8,17.3c4.3-17.1-3.3-24.4-33.9-22.2
		c-2.3-13,10.5-20.6,18.5-18.8c0.5-21.4,27.3-21.9,33-14.2c5-6.7,15.6-3.3,15.8,4.1c15.9-6.4,22.8,18.7,5.4,22.1
		C110.5,52.8,100,59.6,90.1,56.2z"/>
	<path id="XMLID_169_" class="st5" d="M155.3,65.3c-5.7-8.7-12.2-15.6-19.4-20.9c16.4-9.7,32.6-4.9,47-2.9
		C179.1,53.1,170.1,67.2,155.3,65.3z"/>
	<path id="XMLID_168_" class="st3" d="M155.3,65.3c-5.7-8.7-6.7-11.1-13.9-16.4c16.4-9.7,28.9-2.6,41.5-7.4
		C179.1,53.1,170.1,67.2,155.3,65.3z"/>
	<path id="XMLID_167_" class="st10" d="M150.6,59.4l-4.7-6.2c2.5-3.8,24-5.7,22.9,0.7C167.8,60.4,150.1,60.9,150.6,59.4z"/>
	<path id="XMLID_166_" class="st7" d="M137.3,200.5c8.5-4.8,15.7-12.7,18.6-23.5C158.6,188,146.6,199.5,137.3,200.5z"/>
	<path id="XMLID_165_" class="st7" d="M95.8,205.6c7.7,0.8,14.9-2.9,19.3-8.6C114.1,205.8,103.6,209.4,95.8,205.6z"/>
	<path id="XMLID_164_" class="st7" d="M93.4,193.1c-6,0.6-11.8-2.3-15.2-6.8C78.9,193.3,87.3,196.1,93.4,193.1z"/>
	<path id="XMLID_163_" class="st4" d="M174.6,107.5c-2-9.6-6-31-26.2-22.7C167.2,69.9,175.4,96.4,174.6,107.5z"/>
	<path id="XMLID_162_" class="st4" d="M155.9,120.3c8.7,1.3,14.8-2.8,15-9.5C172.7,120.8,166.4,125.3,155.9,120.3z"/>
	<path id="XMLID_161_" class="st4" d="M124.7,89.2c-5.3-6.6-11.3-10.1-20.3-12.6C111.9,74.2,120.7,80.2,124.7,89.2z"/>
	<path id="XMLID_160_" class="st4" d="M78.1,136.2c-1.5,8.3-5.4,19-10.3,23.9C76,156.1,79.5,145.1,78.1,136.2z"/>
	<path id="XMLID_159_" class="st4" d="M152.2,70.5c-3.9-5.6-10.9-11.5-17.6-12.8C142.2,56.1,149.6,63.1,152.2,70.5z"/>
	<path id="XMLID_158_" class="st6" d="M61,84.4c7.3-0.6,18.2,8.5,21.5,18.9c6.7,20-9.2,37.1-28.3,40.9c-35.4,6-57.6-30.8-50.4-61.4
		c6.1-32,44.6-47.4,67.5-28.1C81.1,65.3,77.3,86.5,61,84.4z"/>
	<path id="XMLID_157_" class="st7" d="M61,84.4c-19.3-2.8-34.3,12.3-35.1,25.4c1.9-18.2,37-18,34.2,1.6
		c-2.1,15.5-33.5,19.3-40.3-6.2c-6.4-23.6,19.7-44.6,45.3-36.8C74.3,71.9,71.2,84.2,61,84.4z"/>
	<path id="XMLID_156_" class="st8" d="M25.9,109.9c2.7-27.4,45.5-38,56.6-6.5c6.7,20-9.2,37.1-28.3,40.9
		c-35.4,6-57.6-30.8-50.4-61.4c6.1-32,44.6-47.4,67.5-28.1c9.8,10.5,6,31.7-10.3,29.7"/>
	<path id="XMLID_155_" class="st8" d="M128.9,40c13.1,6.4,25.7,21.2,33.2,37.3c18.7,14,19.4,51,11,58.6
		c-10.2,10.6-34.7,16.1-63.4,1.7"/>
	<path id="XMLID_154_" class="st8" d="M154.1,145.3c-4.2,11.3-34.1,23.2-67.5-0.9"/>
	<path id="XMLID_153_" class="st8" d="M36.4,46.8c-3.9-11.5,5.8-25.1,20.7-23.5"/>
	<path id="XMLID_152_" class="st8" d="M46.7,24.8C47.3-0.2,88.9-5.7,93.2,7c6.2-6.9,20.5-4.1,21.8,6c18.9-8.4,33.6,23.2,7.5,29.4
		c1.7,9.7-6.5,20.7-22.6,21"/>
	<path id="XMLID_151_" class="st8" d="M99.8,63.5c0,8.7-11.9,17.9-24.9,15.1"/>
	<path id="XMLID_150_" class="st8" d="M77.9,55c3.9,3.4,8.5,0.3,8-2.8"/>
	<path id="XMLID_149_" class="st8" d="M101,168.2c3.1,4.2,8.3,2.1,8.4-1.1"/>
	<path id="XMLID_148_" class="st8" d="M67.4,242.9c1.1,5.3,7,5.5,8.4,2.5"/>
	<path id="XMLID_147_" class="st8" d="M84.8,252.6c0.9,4.2,5.6,4.4,6.8,2"/>
	<path id="XMLID_146_" class="st8" d="M135.4,229.1c3.7,3.1,7.9,0,7.4-2.8"/>
	<path id="XMLID_145_" class="st8" d="M137.2,244.7c3.1,2.6,6.7,0,6.2-2.4"/>
	<path id="XMLID_144_" class="st8" d="M84.4,266.4c2,3.8,6.6,2.7,7.1,0.2"/>
	<path id="XMLID_143_" class="st8" d="M132.8,180c4.4,2.7,8.4-1.2,7.4-4.2"/>
	<path id="XMLID_142_" class="st8" d="M115.1,179.9c2.6,3.4,6.9,1.6,7-1"/>
	<path id="XMLID_141_" class="st8" d="M138.9,165.3c2.5,1.8,5-0.4,4.5-2.2"/>
	<path id="XMLID_140_" class="st8" d="M96.3,47.3c4,4,9.5,0.7,8.8-3.6"/>
	<path id="XMLID_139_" class="st8" d="M108.4,34.8c1.4,2.3,4.3,0.3,3.9-1.6"/>
	<path id="XMLID_138_" class="st8" d="M80.9,40.2c1.6,3.9,6.4,1.6,6.4-1.5"/>
	<path id="XMLID_137_" class="st11" d="M115.8,109.5l-7.2-0.2c-10.4-9.1-13-22.5-10.2-26.8c5.9-7.1,23.8,2,27.9,14.5
		C127.5,99.9,123,107.6,115.8,109.5z"/>
	<path id="XMLID_136_" class="st12" d="M103.2,90.6c7.1-6.2,20.3,0.7,22.4,11.4l-4.1,4.8l-5.7,2.8l-7.2-0.2
		C104.5,107.4,97.2,95.5,103.2,90.6z"/>
	<path id="XMLID_135_" class="st8" d="M123.2,112.8c-6.8-5.3-19.2-5.3-28.3,2.9"/>
	<path id="XMLID_134_" class="st11" d="M153,78.9l0.7-0.3c-3.9,1.2-6.6,3.3-9.7,7.2c-9.6-2-18.4-19.3-13.6-24.5
		C135.9,57.9,146.5,62.5,153,78.9z"/>
	<path id="XMLID_133_" class="st12" d="M133.7,69.2c7.1-6.2,16.2,1.2,17,10.6l-6.7,5.9C138,86.3,129.3,74,133.7,69.2z"/>
	<path id="XMLID_132_" class="st8" d="M108.6,109.3c-10.4-9.1-13-22.5-10.2-26.8c5.9-7.1,23.8,2,27.9,14.5c1.1,3-3.4,10.7-10.6,12.6
		"/>
	<path id="XMLID_131_" class="st8" d="M162,77.4c-6.7-0.3-13.1,2.2-18,8.4c-9.6-2-18.4-19.3-13.6-24.5c5.5-3.4,16,1.2,22.6,17.6"/>
	<path id="XMLID_130_" class="st8" d="M168.4,120.9c3.8,4,5.8,13.8,2.6,16.9"/>
	<path id="XMLID_129_" class="st8" d="M95,79.8c-3.1,2-3.7,6.2-1.8,9.9"/>
	<path id="XMLID_128_" class="st8" d="M106.3,139.9c2.4-0.4,4-2.4,4.2-5"/>
	<path id="XMLID_127_" class="st8" d="M133.9,54.5c-2.8-2.2-8-0.7-10.3,2.2"/>
	<path id="XMLID_126_" class="st8" d="M58,186.6c2.5,4.7,7.4,6.7,14.6,6c-5.1,9.3,2.3,17,13.3,9.9c4.9,12.5,28.1,11.5,32.2-1.3
		c22.2,12.8,50.5-10.8,42.2-34.3c8.6-3.9,12.1-16.3,4.9-25.3"/>
	<path id="XMLID_125_" class="st3" d="M157.8,213.9c6-1.5,9.4,1.1,10.3,7.7c-2.1,2.3-4.3,4.6-6.7,7l-1.6-5.9l-4.9-0.3
		C155.7,219.5,156.6,216.7,157.8,213.9z"/>
	<path id="XMLID_124_" class="st8" d="M166.4,161.9c9.4,7.4,15.8,16,18.2,25.9c1.8,11.8-8,25.8-23.2,40.8l-1.6-5.9l-4.9-0.3
		c3.1-11.3,8.9-22.4,20.5-33"/>
	<path id="XMLID_123_" class="st8" d="M161.8,177c4.4,6.1,5.4,11.2,6.4,19.9"/>
	<path id="XMLID_122_" class="st8" d="M169.2,220.3c1.5,12.5-5.2,26.9-12.1,31.3c1.2,9.4-7,21.2-17.2,20.9
		c-1.5,7.1-15,15.7-26.4,14.1c-7.7,3.2-20.4,3.1-27.3-0.5"/>
	<path id="XMLID_121_" class="st8" d="M68.2,279.8c-5-0.6-9.2-4.8-10.5-9.7c-6.2-1.6-13-13-13-19.8c-6.7-4.1-10.6-18.8-9.7-25.5"/>
	<path id="XMLID_120_" class="st8" d="M66.7,271.2c4.9,6.2,14.7,11.7,24.3,8.8"/>
	<path id="XMLID_119_" class="st8" d="M50.9,265c-7.6,8.2-20.4,10.2-35.8,9.2c16,8,32.9,6.1,43.4-3.3"/>
	<path id="XMLID_118_" class="st3" d="M52.4,222.9c-5.8,0.4-8,3.7-7.3,9.4c2.2,1.5,4.5,3,6.8,4.6l0.7-5.6l4.8-1.8
		C55.8,227.2,54.1,225.3,52.4,222.9z"/>
	<path id="XMLID_117_" class="st8" d="M40,165.1c5.9,0.5,13.8,5.8,14.8,15.1"/>
	<path id="XMLID_116_" class="st8" d="M42.9,165.7c-14.8,15.1-19.5,35.2-17.9,43.4c0.8,10.7,13.5,18.8,26.9,27.8l0.7-5.6l4.8-1.8
		c-7-9.5-14-19.3-17.8-22.8c-1.3-6,7.5-21.9,14.3-30.1"/>
	<path id="XMLID_115_" class="st8" d="M38.7,170.3c-6.5-6.3-8.5-19.7-5.3-27.5"/>
	<path id="XMLID_114_" class="st3" d="M136.9,327.6c-5.3-2.1-8.9-0.1-11.6,2.6c1.1,4,2.3,6.9,3.6,9.1l3.4-4.3l4.8,1.2
		C137,333.6,137,330.7,136.9,327.6z"/>
	<path id="XMLID_113_" class="st8" d="M68.7,273.4c3.1,29.4,2.2,50.7-2.8,64l4.4-0.6L73,341c6.4-8.3,14.3-24.8,13.2-60.2"/>
	<path id="XMLID_112_" class="st8" d="M120.3,286.5c1.2,30.9,4.4,45.9,8.5,52.8l3.4-4.3l4.8,1.2c-0.4-11.8-0.7-28.9-0.6-57.9"/>
	<circle id="XMLID_111_" cx="110" cy="100.7" r="6.1"/>
	<circle id="XMLID_110_" class="st11" cx="113.1" cy="97.4" r="2.9"/>
	<circle id="XMLID_109_" class="st11" cx="108.4" cy="89.8" r="2.9"/>
	<path id="XMLID_108_" class="st8" d="M54.2,144.2c1.2,9,8.2,18.5,14.7,19.8c6.9-5.7,13.8-20.9,12.9-40.8"/>
	<circle id="XMLID_107_" class="st11" cx="139" cy="67.3" r="2.5"/>
	<circle id="XMLID_106_" cx="141.7" cy="77.3" r="5.4"/>
	<circle id="XMLID_105_" class="st11" cx="144.5" cy="74.4" r="2.6"/>
	<path id="XMLID_104_" class="st8" d="M33.3,68.3c-0.7-6.2-6.2-10.5-10.9-10"/>
	<path id="XMLID_103_" class="st8" d="M23.3,70.1c-0.4-3.5-3.5-6-6.2-5.7"/>
	<path id="XMLID_102_" class="st8" d="M25.9,109.9c7.3-5.6,29-10.8,30,1.4"/>
	<path id="XMLID_101_" class="st8" d="M52.4,222.9c-3.8,0.2-9,3.9-7.3,8.8"/>
	<path id="XMLID_100_" class="st8" d="M76.8,335c1.5-3-3.4-7.2-8.8-4.8"/>
	<path id="XMLID_99_" class="st8" d="M125.7,331.5c-1.7-3,6.8-6.7,11.2-3.6"/>
	<path id="XMLID_98_" class="st8" d="M157.9,213.6c5.6-1.2,11.2,3.9,9.8,8.4"/>
	<path id="XMLID_97_" class="st8" d="M135.9,44.3c16.4-9.7,32.6-4.9,47-2.9c-3.8,11.7-12.7,25.8-27.6,23.9"/>
	<path id="XMLID_96_" class="st13" d="M62.3,53.3c-10.9-2.1-21.7-1.5-34.2,1.7C39.7,48.2,51.1,48,62.3,53.3z"/>
	<path id="XMLID_95_" class="st14" d="M65.9,136c8-7.1,12.8-15.6,14.6-27.1C82.1,122.7,75.1,131.1,65.9,136z"/>
	<path id="XMLID_94_" class="st8" d="M65.6,90.7c-2.3-0.1-3.9,1.8-4,3.2"/>
	<path id="XMLID_93_" class="st8" d="M71.3,95.4c-2-0.5-4.6,0.9-5.4,3.4"/>
	<path id="XMLID_92_" class="st8" d="M158.3,122.2c10,2.9,14-4.3,13.5-10.9"/>
	<path id="XMLID_91_" class="st15" d="M115.8,16.9c6-0.6,11.8,2.3,15.2,6.8C130.3,16.7,122,13.9,115.8,16.9z"/>
	<path id="XMLID_1_" class="st15" d="M70.5,6.1c7.2-2.4,15-0.5,20.4,4C88,1.8,77.1,0.7,70.5,6.1z"/>
</g>
</svg>
