<?xml version="1.0" encoding="utf-8"?>
<!-- Generator: Adobe Illustrator 21.1.0, SVG Export Plug-In . SVG Version: 6.00 Build 0)  -->
<svg version="1.1" id="Layer_1" xmlns="http://www.w3.org/2000/svg" xmlns:xlink="http://www.w3.org/1999/xlink" x="0px" y="0px"
	 viewBox="0 0 187.4 357.1" style="enable-background:new 0 0 187.4 357.1;" xml:space="preserve">
<style type="text/css">
	.st0{fill:#FFFFFF;}
	.st1{fill:none;stroke:#000000;stroke-width:1.7008;stroke-linecap:round;stroke-linejoin:round;stroke-miterlimit:22.9256;}
	.st2{fill:#E6E7E8;}
</style>
<g id="empty">
	<path id="XMLID_79_" class="st0" d="M58.6,270.9l-7.7-5.9c-7.6,8.2-20.4,10.2-35.8,9.2C31.2,282.2,48.1,280.3,58.6,270.9z"/>
	<path id="XMLID_78_" class="st1" d="M50.9,265c-7.6,8.2-20.4,10.2-35.8,9.2c16,8,32.9,6.1,43.4-3.3"/>
	<path id="XMLID_77_" class="st2" d="M72.9,322.2c-25.8,4-44.6,16.8-28.3,31c9.4,8.1,34.2-1,47.5,0c12.5,0.9,54.1,3.1,57.3-13.5
		C152.1,325.6,102.6,317.6,72.9,322.2z"/>
	<path id="XMLID_76_" class="st0" d="M54.1,176.7c-1.9-4.7-5.6-8.3-11.1-11c-14.8,15.1-19.5,35.2-17.9,43.4
		c0.8,10.7,13.5,18.8,26.9,27.8l0.7-5.6l4.8-1.8c-7-9.5-14-19.3-17.8-22.8C38.4,200.7,47.3,184.8,54.1,176.7z"/>
	<path id="XMLID_75_" class="st0" d="M168.2,197l-6.4-19.9l-1.4-10.1l6-5c9.4,7.4,15.8,16,18.2,25.9c1.8,11.8-8,25.8-23.2,40.8
		l-1.6-5.9l-4.9-0.3C158.1,211.1,161.8,203.6,168.2,197z"/>
	<path id="XMLID_74_" class="st0" d="M136.5,278.3l-16.1,8.2c1.2,30.9,4.4,45.9,8.5,52.8l3.4-4.3l4.8,1.2
		C136.8,324.4,136.5,307.2,136.5,278.3z"/>
	<path id="XMLID_73_" class="st0" d="M86.2,280.8l-17.5-7.4c3.1,29.4,2.2,50.7-2.8,64l4.4-0.6L73,341
		C79.4,332.7,87.3,316.2,86.2,280.8z"/>
	<path id="XMLID_72_" class="st0" d="M86.3,286l-0.1-5.3c-5.1,0.9-11-1.6-17.5-7.4l-0.5,6.5c-5.4-0.4-8.2-5-9.6-8.9
		c-6.3-2-11.4-7.5-13.8-20.6c-5.8-6.4-9.9-12.1-9.7-25.5c6.6,5.9,13.6,10.3,16.9,12.2l0.7-5.6l4.8-1.8c-7.1-8.8-12.9-17.3-17.8-22.8
		c1.2-10.4,8.6-22.9,14.3-30.1l107.8,0.4c4,4.7,5.7,11.8,6.4,19.9c-6.5,8-10.9,16.4-13.2,25.4l4.9,0.3l1.6,5.9l7.8-8.3
		c1.5,12.5-5.2,26.9-12.1,31.3c1.2,9.4-7,21.2-17.2,20.9c-1.5,7.1-15,15.7-26.4,14.1C105.9,289.7,93.2,289.6,86.3,286z"/>
	<path id="XMLID_71_" class="st0" d="M165.3,141.5l-101-22.9l-30.9,24.2c-3,13.1-0.2,21.4,5.3,27.5l4.2-4.6c6.3,2.2,10,5.9,11.1,11
		l4,10c2.5,4.7,7.4,6.7,14.6,6c-5.1,9.3,2.3,17,13.3,9.9c4.9,12.5,28.1,11.5,32.2-1.3c22.2,12.8,50.5-10.8,42.2-34.3
		C169,163,172.5,150.6,165.3,141.5z"/>
	<path id="XMLID_70_" class="st0" d="M159.4,72l-36.9-29.5l2.4-30.4C162.5-4,193.7,47,159.4,72z"/>
	<path id="XMLID_69_" class="st0" d="M154.3,145.3c-8.3,13.1-38.5,24.5-73.5-5.2l1.2-16.8c7.8-18.8-5.5-37.1-20.9-38.9
		c5.6,1,9.9-0.8,12.8-5.4l37.9-48l17.2,9.1c13.1,6.4,25.7,21.2,33.2,37.3c18.7,14,19.4,51,11,58.6
		C168.9,140.2,162.4,143.7,154.3,145.3z"/>
	<path id="XMLID_68_" class="st1" d="M124.9,12.1C162.5-4,193.7,47,159.4,72"/>
	<path id="XMLID_67_" class="st0" d="M99.9,63.5C98.5,72.6,92,79.7,75,78.6c5-20-2.7-34.4-38.4-31.8c-1.1-10.6,1.1-17.1,10.3-22
		C47.3-0.2,89-5.7,93.2,7C99-0.8,115,2,115,13c18.9-8.4,33.6,23.2,7.5,29.4C124.1,52.1,116,63.1,99.9,63.5z"/>
	<path id="XMLID_66_" class="st0" d="M155.3,65.3c-5.7-8.7-12.2-15.6-19.4-20.9c16.4-9.7,32.6-4.9,47-2.9
		C179.2,53.1,170.2,67.2,155.3,65.3z"/>
	<path id="XMLID_65_" class="st0" d="M61.1,84.4c7.3-0.6,18.2,8.5,21.5,18.9c6.7,20-9.2,37.1-28.3,40.9c-35.4,6-57.6-30.8-50.4-61.4
		c6.1-32,44.6-47.4,67.5-28.1C81.2,65.3,77.4,86.5,61.1,84.4z"/>
	<path id="XMLID_57_" class="st1" d="M108.4,34.8c1.4,2.3,4.3,0.3,3.9-1.6 M36.5,46.8c-3.9-11.5,5.8-25.1,20.7-23.5 M46.7,24.8
		C47.3-0.2,89-5.7,93.2,7c6.2-6.9,20.5-4.1,21.8,6c18.9-8.4,33.6,23.2,7.5,29.4c1.7,9.7-6.5,20.7-22.6,21 M99.9,63.5
		c0,8.7-11.9,17.9-24.9,15.1 M96.4,47.3c4,4,9.5,0.7,8.8-3.6 M81,40.2c1.6,3.9,6.4,1.6,6.4-1.5 M77.9,55c3.9,3.4,8.5,0.3,8-2.8"/>
	<path id="XMLID_56_" class="st0" d="M115.9,109.5l-7.2-0.2c-10.4-9.1-13-22.5-10.2-26.8c5.9-7.1,23.8,2,27.9,14.5
		C127.6,99.9,123.1,107.6,115.9,109.5z"/>
	<path id="XMLID_55_" class="st0" d="M153.1,78.9l0.7-0.3c-3.9,1.2-6.6,3.3-9.7,7.2c-9.6-2-18.4-19.3-13.6-24.5
		C136,57.9,146.5,62.5,153.1,78.9z"/>
	<path id="XMLID_52_" class="st1" d="M68.2,279.8c-5-0.6-9.2-4.8-10.5-9.7c-6.2-1.6-13-13-13-19.8c-6.7-4.1-10.6-18.8-9.7-25.5
		 M169.3,220.3c1.5,12.5-5.2,26.9-12.1,31.3c1.2,9.4-7,21.2-17.2,20.9c-1.5,7.1-15,15.7-26.4,14.1c-7.7,3.2-20.4,3.1-27.3-0.5"/>
	<path id="XMLID_51_" class="st1" d="M161.8,177c4.4,6.1,5.4,11.2,6.4,19.9"/>
	<path id="XMLID_50_" class="st1" d="M166.4,161.9c9.4,7.4,15.8,16,18.2,25.9c1.8,11.8-8,25.8-23.2,40.8l-1.6-5.9l-4.9-0.3
		c3.1-11.3,8.9-22.4,20.5-33"/>
	<path id="XMLID_49_" class="st1" d="M68.7,273.4c3.1,29.4,2.2,50.7-2.8,64l4.4-0.6L73,341c6.4-8.3,14.3-24.8,13.2-60.2"/>
	<path id="XMLID_48_" class="st1" d="M120.4,286.5c1.2,30.9,4.4,45.9,8.5,52.8l3.4-4.3l4.8,1.2c-0.4-11.8-0.7-28.9-0.6-57.9"/>
	<circle id="XMLID_47_" cx="110.1" cy="100.7" r="6.1"/>
	<circle id="XMLID_46_" class="st0" cx="113.2" cy="97.4" r="2.9"/>
	<path id="XMLID_43_" class="st1" d="M54.3,144.2c1.2,9,8.2,18.5,14.7,19.8c6.9-5.7,13.8-20.9,12.9-40.8 M38.7,170.3
		c-6.5-6.3-8.5-19.7-5.3-27.5"/>
	<circle id="XMLID_42_" cx="141.7" cy="77.3" r="5.4"/>
	<circle id="XMLID_41_" class="st0" cx="144.5" cy="74.4" r="2.6"/>
	<path id="XMLID_40_" class="st1" d="M33.3,68.3c-0.7-6.2-6.2-10.5-10.9-10"/>
	<path id="XMLID_39_" class="st1" d="M23.4,70.1c-0.4-3.5-3.5-6-6.2-5.7"/>
	<path id="XMLID_38_" class="st1" d="M26,109.9c7.3-5.6,29-10.8,30,1.4"/>
	<path id="XMLID_37_" class="st1" d="M52.5,222.9c-3.8,0.2-9,3.9-7.3,8.8"/>
	<path id="XMLID_36_" class="st1" d="M76.9,335c1.5-3-3.4-7.2-8.8-4.8"/>
	<path id="XMLID_35_" class="st1" d="M125.7,331.5c-1.7-3,6.8-6.7,11.2-3.6"/>
	<path id="XMLID_34_" class="st1" d="M158,213.6c5.6-1.2,11.2,3.9,9.8,8.4"/>
	<path id="XMLID_33_" class="st1" d="M65.7,90.7c-2.3-0.1-3.9,1.8-4,3.2"/>
	<path id="XMLID_32_" class="st1" d="M71.4,95.4c-2-0.5-4.6,0.9-5.4,3.4"/>
	<path id="XMLID_31_" class="st1" d="M26,109.9c2.7-27.4,45.5-38,56.6-6.5c6.7,20-9.2,37.1-28.3,40.9c-35.4,6-57.6-30.8-50.4-61.4
		c6.1-32,44.6-47.4,67.5-28.1c9.8,10.5,6,31.7-10.3,29.7"/>
	<path id="XMLID_19_" class="st1" d="M154.2,145.3c-4.2,11.3-34.1,23.2-67.5-0.9 M136,44.3c16.4-9.7,32.6-4.9,47-2.9
		c-3.8,11.7-12.7,25.8-27.6,23.9 M168.4,120.9c3.8,4,5.8,13.8,2.6,16.9 M158.4,122.2c10,2.9,14-4.3,13.5-10.9 M106.3,139.9
		c2.4-0.4,4-2.4,4.2-5 M128.9,40c13.1,6.4,25.7,21.2,33.2,37.3c18.7,14,19.4,51,11,58.6c-10.2,10.6-34.7,16.1-63.4,1.7 M123.3,112.8
		c-6.8-5.3-19.2-5.3-28.3,2.9 M162.1,77.4c-6.7-0.3-13.1,2.2-18,8.4c-9.6-2-18.4-19.3-13.6-24.5c5.5-3.4,16,1.2,22.6,17.6 M134,54.5
		c-2.8-2.2-8-0.7-10.3,2.2 M95.1,79.8c-3.1,2-3.7,6.2-1.8,9.9 M108.7,109.3c-10.4-9.1-13-22.5-10.2-26.8c5.9-7.1,23.8,2,27.9,14.5
		c1.1,3-3.4,10.7-10.6,12.6"/>
	<path id="XMLID_18_" class="st1" d="M42.9,165.7c-14.8,15.1-19.5,35.2-17.9,43.4c0.8,10.7,13.5,18.8,26.9,27.8l0.7-5.6l4.8-1.8
		c-7-9.5-14-19.3-17.8-22.8c-1.3-6,7.5-21.9,14.3-30.1"/>
	<path id="XMLID_5_" class="st1" d="M40,165.1c5.9,0.5,13.8,5.8,14.8,15.1 M66.8,271.2c4.9,6.2,14.7,11.7,24.3,8.8 M137.3,244.7
		c3.1,2.6,6.7,0,6.2-2.4 M67.4,242.9c1.1,5.3,7,5.5,8.4,2.5 M84.8,252.6c0.9,4.2,5.6,4.4,6.8,2 M84.4,266.4c2,3.8,6.6,2.7,7.1,0.2
		 M135.5,229.1c3.7,3.1,7.9,0.1,7.4-2.8 M139,165.3c2.5,1.8,5-0.4,4.5-2.2 M132.8,180c4.4,2.7,8.4-1.2,7.4-4.2 M115.2,179.9
		c2.6,3.4,6.9,1.6,7-1 M101,168.2c3.1,4.2,8.3,2.1,8.4-1.1 M58.1,186.6c2.5,4.7,7.4,6.7,14.6,6c-5.1,9.3,2.3,17,13.3,9.9
		c4.9,12.5,28.1,11.5,32.2-1.3c22.2,12.8,50.5-10.8,42.2-34.3c8.6-3.9,12.1-16.3,4.9-25.3"/>
</g>
</svg>
