<?xml version="1.0" encoding="utf-8"?>
<!-- Generator: Adobe Illustrator 21.1.0, SVG Export Plug-In . SVG Version: 6.00 Build 0)  -->
<svg version="1.1" id="Layer_1" xmlns="http://www.w3.org/2000/svg" xmlns:xlink="http://www.w3.org/1999/xlink" x="0px" y="0px"
	 viewBox="0 0 314.7 362.7" style="enable-background:new 0 0 314.7 362.7;" xml:space="preserve">
<style type="text/css">
	.st0{fill:#E6E7E8;}
	.st1{fill:#00BBEB;}
	.st2{fill:#007BBF;}
	.st3{fill:#009CD9;}
	.st4{fill:#8CD0EA;}
	.st5{fill:#FFFFFF;}
	.st6{fill:none;stroke:#6D6E71;stroke-width:1.7008;stroke-linecap:round;stroke-linejoin:round;stroke-miterlimit:22.9256;}
	.st7{fill:none;stroke:#18537E;stroke-width:1.7008;stroke-linecap:round;stroke-linejoin:round;stroke-miterlimit:22.9256;}
	.st8{fill:#C1D55D;}
	.st9{fill:#007BBF;stroke:#18537E;stroke-width:1.7008;stroke-linecap:round;stroke-linejoin:round;stroke-miterlimit:22.9256;}
	.st10{fill:none;stroke:#58595B;stroke-width:1.7008;stroke-linecap:round;stroke-linejoin:round;stroke-miterlimit:22.9256;}
</style>
<g id="blue">
	<path id="XMLID_181_" class="st0" d="M49.4,329.5c-21,4.2-19.8,16.3-0.1,16.8c31.2,0.8,25.9,13.2,59.4,15
		c65.1,3.6,173.6-4.4,133-18.6C201.3,328.6,108.9,317.6,49.4,329.5z"/>
	<path id="XMLID_180_" class="st1" d="M296.1,335.3l-14.5-3C290.9,321.9,293.5,325.1,296.1,335.3z"/>
	<path class="st1" d="M254.2,327.2l-18.9-5.1C247.9,310.3,250.1,311.1,254.2,327.2L254.2,327.2z M199.6,149.4l0.3-23.1
		C215,134.8,216.1,140.1,199.6,149.4L199.6,149.4z M197.2,187.7l1.8-26.3C217.9,169.9,218,178.4,197.2,187.7L197.2,187.7z
		 M194.9,228.3l1.1-22.6C213.1,214.3,213.7,220.1,194.9,228.3L194.9,228.3z M196.1,266.5l-1.4-21.5
		C211.9,253.6,208.8,255.5,196.1,266.5L196.1,266.5z M204,297.4l-5.9-18.9C214.9,282.4,214.9,284.4,204,297.4L204,297.4z
		 M224.7,318.4c-6.2-2.7-11.2-6.5-15-11.2C224.8,300.9,225.9,301.4,224.7,318.4z"/>
	<path id="XMLID_172_" class="st2" d="M42.2,211.5c19.3,3.3,36,2.8,50.1-1.5l8.7-22.5c-23.6,19.3-53.1,2-66.7,25.3L42.2,211.5z"/>
	<path id="XMLID_171_" class="st3" d="M35.5,336.8l5.4-0.5c12.6,3.4,26.8,3.5,41.5,2.8l17.9-15.1l-13.6-82.3
		c-22.9,13.2-16.9,43-2.7,77.5c-31.7-2.7-49.6,3.7-53.7,19.1L35.5,336.8z"/>
	<path id="XMLID_170_" class="st2" d="M42.7,336.8l6.4,1.2c13.8,1.3,25.8,1.8,40.5,1.1l17.9-15.1l-13.6-82.3
		c-22.9,13.2-18.4,45.6-0.3,84.7c-31.7-2.7-31.2,3.5-39.7,6.4L42.7,336.8z"/>
	<path id="XMLID_169_" class="st3" d="M169.1,207.5c-2.1,13.2-5.4,25.5-9.8,37c-14.3-4.2-20.9,22.6,1.8,75.7l-61,3.6
		c-10.7,3.1-17.2,10.3-19.7,21.7L84,344l11.5-0.6c39.4,4.7,75.6,5.5,104.6-2.5c24.9,12.7,77-2.1,113.7-0.2
		c-34.4-12.2-85.3-11.9-104.1-33.5c-9.5-13.1-14.8-33.3-15-62.2c-1.1-41.8,6.7-88.4,5-128.1l-21.4,2.5c4.1,4.3,0.6,39.6-4.1,56.7
		c-20,29.4-67.7,11.4-70.8,34.6l1.6-1.2C121.6,211.6,143.5,210.6,169.1,207.5z"/>
	<path id="XMLID_168_" class="st2" d="M169.1,207.5c-2.1,13.2-5.4,25.5-9.8,37l10.2,4.6l7.9,7.7c-14.6,0.7-11.9,35.9-2,63.4
		c7,14.2-20.3,22.1-64,18.5l-15.9,4.7c39.4,4.7,75.6,5.5,104.6-2.5c24.9,12.7,77-2.1,113.7-0.2c-34.4-12.2-74.9,13.5-106.9-28.3
		c-9.5-13.1-11.9-38.5-12.1-67.4c-1.1-41.8,6.7-88.4,5-128.1l-21.1,2.5c10.6-1.2,7.6,39.7,2.8,56.7c-20,29.4-39.8,32.3-70.8,34.6
		l1.6-1.2C128.8,211.6,143.5,210.6,169.1,207.5z"/>
	<path id="XMLID_167_" class="st3" d="M77.5,104.3c-12.7,1.2-23.3,3.9-31.6,8c-11.8,8.8-20.2,7.9-25.2-2.7
		c-5.7-6.8-27.4-1.8-17-20.5L7,81.9c2.7-10,9-14.7,23.2-7.5c23.5-10.2,51.2-19.1,88.2-24.9c8.1-44.3,29.1-57.7,36.4-34.8
		c16.4-24.7,37-18.9,54.8,31.5c30,11.1,31.5,41.3,18.8,54.4C189.6,140.2,118.9,104.9,77.5,104.3z"/>
	<path class="st2" d="M77.5,104.3c-12.7,1.2-23.3,3.9-31.6,8c-11.8,8.8-20.2,7.9-25.2-2.7c-5.7-6.8,14,12.6,24.5-6.1
		c35.5-9.7,82.2-5,127.3-15.2c10.9-3.4,20.2-11.4,27.9-24.1c19.5,4.8,29,24,21.6,42.1C180,134.7,135.5,108.6,77.5,104.3L77.5,104.3z
		 M198.9,45.3c-2.9-28.5-20.4-57.1-44.1-30.7c16.4-24.7,37-18.9,54.8,31.5L198.9,45.3z"/>
	<path id="XMLID_164_" class="st1" d="M30.1,74.4c31.8-14.3,69.1-23.3,111.9-27l-37,8.1l2.7,2.2c-7.3-2.7-19-1.1-35,4.9l5.6,3.2
		c-6.5-3.4-18,0.1-40,10.2l8.3,0.7c7,2.5,9,9.3,8.8,18C49,77.6,43.3,82.2,32.5,79.6c-7.4-1.6-15.3-9.1-22.2-4.8
		C14.2,67.6,21.6,69.7,30.1,74.4z"/>
	<path id="XMLID_163_" class="st4" d="M135.5,114.3c17.8,3.8,32,5.5,42.9,5.1c3.2,11.3,1.6,30.6-4.1,56.7
		c-20.9,28.5-65.3,11.2-70.8,34.6l1.6-1.2c17.9,2.3,39.6,1.2,64-2c-3.1,14.7-6,26.9-9.8,37c-20.3-1.7-16.3,31.4,1.8,75.7
		c-10.5,17.1-37.8-0.2-60.8,3.8c-17.2-16.1-24.2-58.6-13.1-78.7c-1.4-14.9,3.5-34.7,14.7-59.6c-1.1-7,5.3-20.7,15.1-32.6
		C116.9,142,123.8,128.9,135.5,114.3z"/>
	<path id="XMLID_162_" class="st1" d="M135.5,114.3c17.8,3.8,32,5.5,42.9,5.1c3.2,11.3,1.6,30.6-4.1,56.7
		c-20.9,28.5-65.3,11.2-70.8,34.6l1.6-1.2c17.9,2.3,39.6,1.2,64-2c-3.1,14.7-6,26.9-9.8,37c-20.3-1.7-16.3,31.4,1.8,75.7
		c-10.5,17.1-37.8-0.2-60.8,3.8c-16-15-21.2-65.3-6.8-79.9c-1.4-14.9,4.6-49.7,16.3-61c-7.3-4.3,3.9-25.9,14.4-32.4
		C120.4,147.4,126.8,126.4,135.5,114.3z"/>
	<path id="XMLID_161_" class="st5" d="M47.3,112.1c-4.6,2-9.8,4.9-13.9,5.9c2.8,5.8,4.8,8.4,6,8C41.6,125.6,44.4,120,47.3,112.1z"/>
	<path id="XMLID_160_" class="st6" d="M33.4,118c2.8,5.8,4.8,8.4,6,8c2.3-0.4,5-6,7.9-13.9"/>
	<path id="XMLID_159_" class="st5" d="M20.6,109.6l-12-4.5c2.3,7.1,5.6,13.5,6.6,13C17.3,117.7,18.8,114.5,20.6,109.6z"/>
	<path id="XMLID_158_" class="st6" d="M8.7,105.1c2.3,7.1,5.6,13.5,6.6,13c2-0.4,3.5-3.6,5.3-8.5"/>
	<path class="st4" d="M132.2,295.5c-15.3-5.6-31.4-4.7-40.3-2.9C89.9,282.5,131.5,287.3,132.2,295.5L132.2,295.5z M120.2,148.6
		c13.8-6.3,39.5-1.9,44.8,6.8c-13.2-7-29.3-7.8-48.1-2.4L120.2,148.6L120.2,148.6z M105.3,180.6c8.8-4.2,37.7-4.4,39.5,2.2
		c-21.5-2.2-32.3-1.5-43.2,2.7L105.3,180.6L105.3,180.6z M93.3,240.7c9.8-5,40.2-2.8,46.4,5.1c-18.2-4.3-39.2-5.1-50-0.2L93.3,240.7
		z"/>
	<path id="XMLID_153_" class="st1" d="M173.8,181.2c-9.3,8.6-22,14-34.5,15.8C152.5,198.6,167,193,173.8,181.2z"/>
	<path id="XMLID_152_" class="st7" d="M161,320.2c-8.7,16-38.5,0.2-60.8,3.8c-10.3,2.4-17,9.5-19.9,21.5c5.4-1.9,11.4-5.3,17.9-10.3
		"/>
	<path id="XMLID_151_" class="st7" d="M84,344c9.7,0.3,18.8-1.4,27.4-5.3"/>
	<path id="XMLID_150_" class="st7" d="M200.1,340.9c-18.5,4.7-45.1,8.9-104.6,2.5"/>
	<path id="XMLID_149_" class="st7" d="M35.5,336.8c7-0.3,14.6-2.2,22.6-5.7"/>
	<path id="XMLID_148_" class="st7" d="M82.5,339.1c-17,0.4-34.3-0.9-41.6-2.8"/>
	<path id="XMLID_147_" class="st7" d="M91.9,292.6c11.7-1.8,24.7-1.6,35.8,1.2"/>
	<path id="XMLID_146_" class="st5" d="M191.1,45.7c-12.1,1.7-25.6,7.3-36.4,5.1c-0.9-23.7,8.6-37.6,18.3-38.6
		C183.7,12.8,191.6,28.6,191.1,45.7z"/>
	<path id="XMLID_145_" class="st5" d="M125.7,23.8l-4,11.4l-3.3,14.2l23.7-2.1C143.3,16.9,134.9,10.6,125.7,23.8z"/>
	<path id="XMLID_144_" class="st8" d="M142,47.4l-18.5,1.4c0.7-13.7,4.7-23.9,10.8-24.3C139.8,24.4,142.4,34.5,142,47.4z"/>
	<path id="XMLID_143_" class="st8" d="M191.1,45.7l-28.9,5.1c-0.7-18.9,6.8-29.9,14.5-30.7C185.2,20.6,191.5,32.1,191.1,45.7z"/>
	<path id="XMLID_142_" class="st7" d="M30.1,74.4c39.3-16.5,76.6-25.5,111.9-27"/>
	<path id="XMLID_141_" class="st7" d="M118.3,49.4c8.1-44.3,29.1-57.7,36.4-34.8c16.4-24.7,37-18.9,54.8,31.5
		c29.5,8.4,31.5,41.3,18.8,54.4c-38.8,39.5-109.4,4.3-150.8,3.7"/>
	<path id="XMLID_140_" class="st7" d="M55.4,94.6C55,68.7,40.5,79.1,30.1,74.4C22.4,71.1,15,67,10.2,74.7C7,78.5,6.7,85.9,3.7,89
		c-10.4,16.4,11.1,15.7,17,20.5"/>
	<path id="XMLID_139_" class="st9" d="M38,85.2c0.7,3.6,6.5,14.5-1,13.3C30.7,96.6,34.9,88.3,38,85.2z"/>
	<path id="XMLID_138_" class="st9" d="M17.7,77.7c-0.2,3.3,2.4,14-3.7,11.4C9,86.2,14.4,79.8,17.7,77.7z"/>
	<path id="XMLID_137_" class="st5" d="M194.1,74.2c-4.8,4-9.5,7.5-14.2,10.6c4.4,5.5,13.6,11,14.3,10.3
		C195.9,94,195.6,80.6,194.1,74.2z"/>
	<path id="XMLID_136_" class="st10" d="M179.9,84.8c4.4,5.5,13.6,11,14.3,10.3c1.6-1.1,1.4-14.5-0.2-20.9"/>
	<path id="XMLID_135_" class="st5" d="M132.9,97.8L122,99.4c2.5,5.5,4.3,8,5.3,7.6C129.3,106.6,130.9,103,132.9,97.8z"/>
	<path id="XMLID_134_" class="st10" d="M122,99.4c2.5,5.5,4.3,8,5.3,7.6c2-0.4,3.6-4,5.6-9.2"/>
	<path id="XMLID_133_" class="st7" d="M97.2,53c3.6,0.1,8.6,2.2,10.4,4.5"/>
	<path id="XMLID_132_" class="st7" d="M66.2,61.2c4.2,0.1,10,2.2,12.1,4.5"/>
	<path id="XMLID_131_" class="st7" d="M192.2,65.3c7.4-4.8,12.8,1,11.5,6.2"/>
	<path id="XMLID_130_" class="st7" d="M209.6,46.2c-27.4-4.3-40.2,8.6-57.2,4.1"/>
	<path id="XMLID_129_" class="st7" d="M154.7,50.8c-0.9-23.7,8.6-37.6,18.3-38.6c10.6,0.6,18.5,16.4,18.1,33.5"/>
	<path id="XMLID_128_" class="st7" d="M142,47.3c1.3-30.4-7.1-36.7-16.3-23.6"/>
	<path id="XMLID_127_" d="M175.8,47.4c4.2,0,7.5-3.4,7.5-7.5c0-4.2-3.4-7.5-7.5-7.5c-4.2,0-7.5,3.4-7.5,7.5
		C168.2,44.1,171.6,47.4,175.8,47.4z"/>
	<path id="XMLID_126_" class="st5" d="M171.6,39.2c1.9,0,3.4-1.5,3.4-3.4s-1.5-3.4-3.4-3.4s-3.4,1.5-3.4,3.4S169.8,39.2,171.6,39.2z
		"/>
	<path id="XMLID_125_" d="M135.1,47.2c3.5,0,6.4-2.9,6.4-6.4s-2.9-6.4-6.4-6.4s-6.4,2.9-6.4,6.4C128.8,44.4,131.6,47.2,135.1,47.2z"
		/>
	<path id="XMLID_124_" class="st5" d="M131.6,40.2c1.6,0,2.9-1.3,2.9-2.9c0-1.6-1.3-2.9-2.9-2.9c-1.6,0-2.9,1.3-2.9,2.9
		C128.8,38.9,130,40.2,131.6,40.2z"/>
	<path id="XMLID_123_" class="st7" d="M135.5,114.3C122.7,130.6,117,143.2,117,153c-6.2,6.9-17.6,27.7-15.1,32.6
		c-9.1,18.3-17.6,48.5-14.7,59.6c-11,14-3.6,65.8,13.1,78.7"/>
	<path id="XMLID_122_" class="st7" d="M117,153c10.2-5,40-4.6,48.1,2.4"/>
	<path id="XMLID_121_" class="st7" d="M101.9,185.6c8.5-4.1,22.8-5,42.9-2.8"/>
	<path id="XMLID_120_" class="st7" d="M93.5,244.1c23.1-3.6,40.7-1.1,55.3,4.8"/>
	<path id="XMLID_119_" class="st7" d="M101,187.5c-23.6,19.3-53.1,2-66.7,25.3c6.4-0.5,10.5-1.8,17.9-4.5"/>
	<path id="XMLID_118_" class="st7" d="M39.8,211.8c16.7,2.2,40.5,3.6,52.5-1.8"/>
	<path id="XMLID_117_" class="st7" d="M178.4,119.4c4.1,4.3,0.6,39.6-4.1,56.7c-20,29.4-67.7,11.4-70.8,34.6
		c4.6-3.3,8.7-6.1,12.3-8.4"/>
	<path id="XMLID_116_" class="st7" d="M105.1,209.5c22.8,2.5,47.2,1.3,73.1-3.6"/>
	<path id="XMLID_115_" class="st7" d="M169.1,207.5c-2.3,13.6-5.8,26.2-9.8,37"/>
	<path id="XMLID_114_" class="st7" d="M177.4,256.8c-10.6-12.7-22.1-16.2-28.6-8c-8.4,13.7,3.6,54.7,14.3,75.5"/>
	<path id="XMLID_113_" class="st7" d="M86.6,241.8c-22.9,13.2-16.9,43-2.7,77.5c-31.7-2.7-49.6,3.7-53.7,19.1
		c5.2-0.8,11.9-4.2,20.3-10.3"/>
	<path id="XMLID_112_" class="st7" d="M199.7,116.9c3,63.2-18.2,147.5,9.1,189.6c17.1,23.3,75.9,22,105,34.2
		c-42-3.4-103.5,20.9-126-10.3"/>
	<path id="XMLID_111_" class="st7" d="M200.2,65.7c-22.9,42.2-111.5,28.4-154.3,46.6c-4.1,2.5-11.1,7.9-17.6,4.9
		c-8-2.5-8.1-13.3-13.9-16.5"/>
	<path class="st7" d="M281.7,332.4c9.3-10.5,11.8-7.3,14.5,3 M198.1,278.6c16.9,3.9,16.8,5.8,5.9,18.9 M194.8,245
		c17.1,8.6,14.1,10.5,1.4,21.5 M195.9,205.7c17.1,8.6,17.7,14.5-1.1,22.6 M199,161.4c18.9,8.5,19,17-1.8,26.3 M199.9,126.3
		c15.1,8.5,16.2,13.8-0.3,23.1 M209.7,307.2c15.1-6.3,16.2-5.8,15,11.2 M235.3,322.2c12.6-11.8,14.8-11,18.9,5.1"/>
	<path id="XMLID_102_" class="st1" d="M112.8,326.2c-9-0.4-17.1,2.4-25.6,7.9C93.8,325.8,102.8,322.7,112.8,326.2z"/>
	<path id="XMLID_101_" class="st1" d="M149,271.3c-1.4-16.5,5.5-24.5,12-24.6C152.4,242.3,145.1,251.5,149,271.3z"/>
	<path id="XMLID_100_" class="st1" d="M214.6,51.1c9,6.7,14.7,15.6,18.8,27.6C233.3,65.4,227,55.5,214.6,51.1z"/>
	<path id="XMLID_99_" class="st1" d="M187,12c-8.8-5.4-18.2-8.4-27,2.7C167-0.6,178.4,2.7,187,12z"/>
	<path id="XMLID_98_" class="st1" d="M152,12.8c-4.2-5.6-11.4-8.4-18.8,0.5C139.7,2.4,148.3,3.3,152,12.8z"/>
</g>
</svg>
