<?xml version="1.0" encoding="utf-8"?>
<!-- Generator: Adobe Illustrator 21.1.0, SVG Export Plug-In . SVG Version: 6.00 Build 0)  -->
<svg version="1.1" id="Layer_1" xmlns="http://www.w3.org/2000/svg" xmlns:xlink="http://www.w3.org/1999/xlink" x="0px" y="0px"
	 viewBox="0 0 314.7 362.7" style="enable-background:new 0 0 314.7 362.7;" xml:space="preserve">
<style type="text/css">
	.st0{fill:#FFFFFF;}
	.st1{fill:#E6E7E8;}
	.st2{fill:none;stroke:#000000;stroke-width:1.7008;stroke-linecap:round;stroke-linejoin:round;stroke-miterlimit:22.9256;}
	.st3{fill:#D1D3D4;}
</style>
<g id="empty">
	<path id="XMLID_578_" class="st0" d="M199.6,149.3l0.3-23.1C215,134.7,216.1,140,199.6,149.3z"/>
	<path id="XMLID_577_" class="st1" d="M49.3,329.6c-21,4.2-19.8,16.3-0.1,16.8c31.2,0.8,25.9,13.2,59.4,15
		c65.1,3.6,173.6-4.4,133-18.6C201.2,328.7,108.8,317.7,49.3,329.6z"/>
	<path id="XMLID_576_" class="st0" d="M296.1,335.2l-14.5-3C290.9,321.8,293.5,325,296.1,335.2z"/>
	<path id="XMLID_575_" class="st0" d="M254.2,327.2l-18.9-5.1C247.9,310.2,250.1,311.1,254.2,327.2z"/>
	<path id="XMLID_574_" class="st0" d="M224.7,318.3c-6.2-2.7-11.2-6.5-15-11.2C224.8,300.8,225.9,301.4,224.7,318.3z"/>
	<path id="XMLID_573_" class="st0" d="M204,297.4l-5.9-18.9C214.9,282.4,214.9,284.3,204,297.4z"/>
	<path id="XMLID_572_" class="st0" d="M196.1,266.4l-1.4-21.5C211.9,253.5,208.8,255.5,196.1,266.4z"/>
	<path id="XMLID_571_" class="st0" d="M194.9,228.2l1.1-22.6C213.1,214.2,213.7,220,194.9,228.2z"/>
	<path id="XMLID_570_" class="st0" d="M42.2,211.4c19.3,3.3,36,2.8,50.1-1.5l8.7-22.5c-23.6,19.3-53.1,2-66.7,25.3L42.2,211.4z"/>
	<path id="XMLID_569_" class="st0" d="M197.2,187.6l1.8-26.3C217.9,169.8,218,178.3,197.2,187.6z"/>
	<path id="XMLID_568_" class="st0" d="M86.6,241.7c-20.2,10.5-18.8,38.1-2.7,77.5c-34-2.7-50,4.7-53.7,19.1l5.2-1.5l6.6-0.2
		c2.2,1.4,20.8,2.3,40.4,2.5l-2.1,6.3L84,344l11.5-0.6c39.4,4.7,75.6,5.5,104.6-2.5c24.9,12.7,77-2.1,113.7-0.2
		c-34.4-12.2-85.3-11.9-104.1-33.5c-9.5-13.1-14.8-33.3-15-62.2c-1.1-41.8,6.7-88.4,5-128.1l-64.2-2.6c-12.4,15.1-18.6,28-18.5,38.7
		c-9.8,13-14.9,23.9-15.1,32.6C92.6,206.1,87.5,224.8,86.6,241.7z"/>
	<path id="XMLID_567_" class="st0" d="M77.5,104.2c-12.7,1.2-23.3,3.9-31.6,8c-11.8,8.8-20.2,7.9-25.2-2.7
		c-5.7-6.8-27.4-1.8-17-20.5L7,81.8c2.7-10,9-14.7,23.2-7.5c23.4-10.3,51.1-19.1,88.1-25c8.1-44.3,29.1-57.7,36.4-34.8
		c16.4-24.7,37-18.9,54.8,31.5c30,11.1,31.5,41.3,18.8,54.4C189.6,140.1,118.9,104.9,77.5,104.2z"/>
	<path id="XMLID_566_" class="st0" d="M47.3,112c-4.6,2-9.8,4.9-13.9,5.9c2.8,5.8,4.8,8.4,6,8C41.6,125.5,44.4,120,47.3,112z"/>
	<path id="XMLID_565_" class="st0" d="M20.5,109.6l-12-4.5c2.3,7.1,5.6,13.5,6.6,13C17.2,117.8,18.6,114.6,20.5,109.6z"/>
	<path id="XMLID_564_" class="st2" d="M8.5,105.1c2.3,7.1,5.6,13.5,6.6,13c2-0.4,3.5-3.6,5.3-8.5"/>
	<path id="XMLID_563_" class="st2" d="M161,320.1c-8.7,16-38.5,0.2-60.8,3.8c-10.3,2.4-17,9.5-19.9,21.5c5.4-1.9,11.4-5.3,17.9-10.3
		"/>
	<path id="XMLID_562_" class="st2" d="M84,344c9.7,0.3,18.8-1.4,27.4-5.3"/>
	<path id="XMLID_561_" class="st2" d="M200.1,340.8c-18.5,4.7-45.1,8.9-104.6,2.5"/>
	<path id="XMLID_560_" class="st2" d="M35.5,336.8c7-0.3,14.6-2.2,22.6-5.7"/>
	<path id="XMLID_559_" class="st2" d="M82.5,339.1c-17,0.4-34.3-0.9-41.6-2.8"/>
	<path id="XMLID_558_" class="st2" d="M91.9,292.5c11.7-1.8,24.7-1.6,35.8,1.2"/>
	<path id="XMLID_557_" class="st2" d="M209.7,307.1c15.1-6.3,16.2-5.8,15,11.2"/>
	<path id="XMLID_556_" class="st2" d="M235.3,322.1c12.6-11.8,14.8-11,18.9,5.1"/>
	<path id="XMLID_555_" class="st2" d="M281.7,332.3c9.3-10.5,11.8-7.3,14.5,3"/>
	<path id="XMLID_554_" class="st3" d="M142,47.3l-18.5,1.4c0.7-13.7,4.7-23.9,10.8-24.3C139.8,24.3,142.4,34.4,142,47.3z"/>
	<path id="XMLID_553_" class="st3" d="M191.1,45.6l-28.9,5.1c-0.7-18.9,6.8-29.9,14.5-30.7C185.2,20.5,191.5,32,191.1,45.6z"/>
	<path id="XMLID_552_" class="st2" d="M200.2,65.6C177.3,107.8,88.7,94,45.9,112.2c-4.1,2.5-11.1,7.9-17.6,4.9
		c-8-2.5-8.1-13.3-13.9-16.5"/>
	<path id="XMLID_551_" class="st2" d="M30.1,74.3c39.3-16.5,76.6-25.5,111.9-27"/>
	<path id="XMLID_550_" class="st2" d="M118.3,49.3c8.1-44.3,29.1-57.7,36.4-34.8c16.4-24.7,37-18.9,54.8,31.5
		c30,11.1,31.5,41.3,18.8,54.4c-38.8,39.5-109.4,4.3-150.8,3.7"/>
	<path id="XMLID_549_" class="st2" d="M55.4,94.5C55,68.6,40.5,79.1,30.1,74.3C22.4,71,16.5,67,10.2,74.6C7,78.4,6.7,85.8,3.7,88.9
		c-10.4,16.4,11.1,15.7,17,20.5"/>
	<path id="XMLID_548_" class="st2" d="M38,85.1c0.7,3.6,6.5,14.5-1,13.3C30.7,96.6,34.9,88.2,38,85.1z"/>
	<path id="XMLID_547_" class="st2" d="M17.7,77.6c-0.2,3.3,2.4,14-3.7,11.4C9,86.1,14.4,79.7,17.7,77.6z"/>
	<path id="XMLID_546_" class="st2" d="M33.4,118c2.8,5.8,4.8,8.4,6,8c2.3-0.4,5-6,7.9-13.9"/>
	<path id="XMLID_545_" class="st2" d="M179.9,84.7c4.4,5.5,13.6,11,14.3,10.3c1.6-1.1,1.4-14.5-0.2-20.9"/>
	<path id="XMLID_544_" class="st2" d="M122,99.3c2.5,5.5,4.3,8,5.3,7.6c2-0.4,3.6-4,5.6-9.2"/>
	<path id="XMLID_543_" class="st2" d="M97.2,53c3.6,0.1,8.6,2.2,10.4,4.5"/>
	<path id="XMLID_542_" class="st2" d="M66.2,61.1c4.2,0.1,10,2.2,12.1,4.5"/>
	<path id="XMLID_541_" class="st2" d="M192.2,65.2c7.4-4.8,12.8,1,11.5,6.2"/>
	<path id="XMLID_540_" class="st2" d="M209.6,46.1c-27.4-4.3-40.2,8.6-57.2,4.1"/>
	<path id="XMLID_539_" class="st2" d="M154.7,50.7c-0.9-23.7,8.6-37.6,18.3-38.6c10.6,0.6,18.5,16.4,18.1,33.5"/>
	<path id="XMLID_538_" class="st2" d="M142,47.3c1.3-30.4-7.1-36.7-16.3-23.6"/>
	<path id="XMLID_537_" d="M175.8,47.4c4.2,0,7.5-3.4,7.5-7.5s-3.4-7.5-7.5-7.5c-4.2,0-7.5,3.4-7.5,7.5S171.6,47.4,175.8,47.4z"/>
	<path id="XMLID_536_" class="st0" d="M171.6,39.1c1.9,0,3.4-1.5,3.4-3.4s-1.5-3.4-3.4-3.4s-3.4,1.5-3.4,3.4
		C168.2,37.6,169.8,39.1,171.6,39.1z"/>
	<path id="XMLID_535_" d="M135.1,47.2c3.5,0,6.4-2.9,6.4-6.4s-2.9-6.4-6.4-6.4s-6.4,2.9-6.4,6.4C128.8,44.3,131.6,47.2,135.1,47.2z"
		/>
	<path id="XMLID_534_" class="st0" d="M131.6,40.2c1.6,0,2.9-1.3,2.9-2.9c0-1.6-1.3-2.9-2.9-2.9c-1.6,0-2.9,1.3-2.9,2.9
		C128.8,38.9,130.1,40.2,131.6,40.2z"/>
	<path id="XMLID_533_" class="st2" d="M135.5,114.2C122.7,130.5,117,143.1,117,153c-6.2,6.9-17.6,27.7-15.1,32.6
		c-9.1,18.3-17.6,48.5-14.7,59.6c-11,14-3.6,65.8,13.1,78.7"/>
	<path id="XMLID_532_" class="st2" d="M117,153c10.2-5,40-4.6,48.1,2.4"/>
	<path id="XMLID_531_" class="st2" d="M101.9,185.6c8.5-4.1,22.8-5,42.9-2.8"/>
	<path id="XMLID_530_" class="st2" d="M93.5,244c23.1-3.6,40.7-1.1,55.3,4.8"/>
	<path id="XMLID_529_" class="st2" d="M101,187.4c-23.6,19.3-53.1,2-66.7,25.3c6.4-0.5,10.5-1.8,17.9-4.5"/>
	<path id="XMLID_528_" class="st2" d="M39.8,211.8c16.7,2.2,40.5,3.6,52.5-1.8"/>
	<path id="XMLID_527_" class="st2" d="M178.4,119.3c4.1,4.3,0.6,39.6-4.1,56.7c-20,29.4-67.7,11.4-70.8,34.6
		c4.6-3.3,8.7-6.1,12.3-8.4"/>
	<path id="XMLID_526_" class="st2" d="M105.1,209.5c22.8,2.5,47.2,1.3,73.1-3.6"/>
	<path id="XMLID_525_" class="st2" d="M169.1,207.4c-2.3,13.6-5.8,26.2-9.8,37"/>
	<path id="XMLID_524_" class="st2" d="M177.4,256.7c-10.6-12.7-22.1-16.2-28.6-8c-8.4,13.7,3.6,54.7,14.3,75.5"/>
	<path id="XMLID_523_" class="st2" d="M86.6,241.7c-22.9,13.2-16.9,43-2.7,77.5c-31.7-2.7-49.6,3.7-53.7,19.1
		c5.2-0.8,11.9-4.2,20.3-10.3"/>
	<path id="XMLID_522_" class="st2" d="M199.7,116.8c3,63.2-18.2,147.5,9.1,189.6c17.1,23.3,75.9,22,105,34.2
		c-42-3.4-103.5,20.9-126-10.3"/>
	<path id="XMLID_521_" class="st2" d="M199.9,126.2c15.1,8.5,16.2,13.8-0.3,23.1"/>
	<path id="XMLID_520_" class="st2" d="M199,161.3c18.9,8.5,19,17-1.8,26.3"/>
	<path id="XMLID_519_" class="st2" d="M195.9,205.6c17.1,8.6,17.7,14.5-1.1,22.6"/>
	<path id="XMLID_518_" class="st2" d="M194.8,244.9c17.1,8.6,14.1,10.5,1.4,21.5"/>
	<path id="XMLID_517_" class="st2" d="M198.1,278.5c16.9,3.9,16.8,5.8,5.9,18.9"/>
</g>
</svg>
