<?xml version="1.0" encoding="utf-8"?>
<!-- Generator: Adobe Illustrator 21.1.0, SVG Export Plug-In . SVG Version: 6.00 Build 0)  -->
<svg version="1.1" id="Layer_1" xmlns="http://www.w3.org/2000/svg" xmlns:xlink="http://www.w3.org/1999/xlink" x="0px" y="0px"
	 viewBox="0 0 185.4 313.9" style="enable-background:new 0 0 185.4 313.9;" xml:space="preserve">
<style type="text/css">
	.st0{fill:#E6E7E8;}
	.st1{fill:#FFFFFF;}
	.st2{fill:none;stroke:#000000;stroke-width:1.7008;stroke-linecap:round;stroke-linejoin:round;stroke-miterlimit:22.9256;}
	.st3{fill:#FFFFFF;stroke:#000000;stroke-width:1.7008;stroke-linecap:round;stroke-linejoin:round;stroke-miterlimit:22.9256;}
	.st4{fill:#4D4D4F;stroke:#000000;stroke-width:1.7008;stroke-linecap:round;stroke-linejoin:round;stroke-miterlimit:22.9256;}
	.st5{fill:#D1D3D4;}
</style>
<g id="empty">
	<path id="XMLID_592_" class="st0" d="M160.6,295.8c-1.2,15.4-48.6,7.4-65.6,13.3c-25.9,9-62.4,4.5-65.8-12.6
		C21.4,257.6,161.9,278.8,160.6,295.8z"/>
	<path id="XMLID_591_" class="st1" d="M60.1,134.4l64.9,0.2c61,17.5,76.4,101.6,28.9,139.6c8.3,15.9-45.1,33.4-62.5,24.1
		c-5.7,5.1-13,6-21.9,2.9c-31-2.4-35.1-18.8-33.4-23C-22.1,235.6,5.5,148.8,60.1,134.4z"/>
	<path id="XMLID_590_" class="st1" d="M61.6,134.6c-15.7-4.9-34.9-26.7-37.2-40L22,96.7c-4.2-21.6-7.4-36.9,6.8-54.5
		c-3-0.9-7.8-1.1-9.7-4l-0.6,3.1c-3.1-4.3-3.7-9.1-1.8-14.4l-3.1,3c-2.4-15,8.3-27.5,23-28.1C49.3,1.6,51.9,7,55,15.9l7.3-6l8.8-3.8
		L69,13c3.7-4.4,8.6-7.2,14.8-8.6l-1.9,3.3c20.3-5.1,36.4-4.3,50,7.6C142.4-10.5,173.3,0,172.4,24l-3.2-1.7
		c6.7,9.6-0.7,17.2-12.5,21.6c10.4,13.3,13.1,28.9,6.9,52.8l-2.4-2.1c-2.2,9.1-7.9,26.2-37.7,40.2l-34.1,13L61.6,134.6z"/>
	<path class="st2" d="M19,38.2c1.4,2.6,5.7,4.6,8.5,5.5c-9,10.8-12.2,31.6-5.5,52.9l2.4-2.1c3,10.7,16.1,33.7,37.2,40 M82.3,7
		c11.6-3.8,35-4.4,49.6,8.2c10.2-26.4,42.4-13.5,40.5,8.7l-3.2-1.7c3.9,5.3,4.6,15.9-12.5,21.6 M156.8,43.8
		c8,9.8,13.6,30.3,6.8,52.8l-2.4-2.1c-2.1,14.3-18,32-37.2,40 M54.9,15.9c4.3-4.8,9.5-7.8,16-9.7L69,13c3.8-4.7,8.8-7.6,14.8-8.6
		l-3,5.2 M55.7,26.8C57.5,0.4,36.9-4,21.5,8.1c-5.5,4.1-10.4,12.7-8,21.8c1.9-2.5,4.3-4,7.3-4.6 M16.6,26.9c-1.9,5.1-1,9.8,1.8,14.4
		c0-3.6,2.5-8,6.8-10.8"/>
	<path class="st2" d="M60.1,134.4C-10.6,158-12.1,251,39.3,280.2 M71,301c20.1,7,26-8.9,12.7-16.1 M125.9,134.4
		c71.9,26,71.2,119.5,15.1,149.2 M88.2,300.4c10.9-6.6,14.2-16.5-4.7-29.4 M36.9,278.8C33.5,288.8,50.5,301,71,301
		c0.3-3.4-3.4-7.2-11.1-11.4 M60.6,263.5c19.8,10.9,40.1,10.2,60.9,0 M101.4,300.4c-0.6-3.8,2.1-7.4,8.2-10.6 M91.4,298.3
		c20.4,8.5,68.5-8.4,62.7-23.6"/>
	<path class="st2" d="M99.6,236.7c2.6,3.8,13.7,0.8,20-4.9 M92,215.5c-23.1,11.3-47.3,5.8-68.8-29.8 M102.5,211.6
		c-6.1,4.6-13.8,4.9-23,1.1 M64.9,138.2c-11.1,6.9-19,21.8-17.1,28.2l5.5-4.4c-9.6,16.9,21.8,18.9,39.1,25.9
		c7.8,5.2,11.9,13.4,10,23.7c-3.4-3.8-7.1-7.4-13-9.7 M50.6,215.2c-7,15.7,3.5,47,38.9,47.1c22.7-0.2,42.1-11.9,43.9-31.2
		 M96.5,214.6c-4.6,9.4-2.3,18,3.1,22.1c0.4-4.1,1.9-8.3,5.6-13.1 M131.3,147.5c11.9,32.4-19.5,41.4-28.6,56.1 M108.3,237.8
		c19.4,3.7,49.1-18.7,47-53.3"/>
	<path id="XMLID_567_" class="st1" d="M92.3,106.5v-5.3V106.5c-7.8,10.1-23.8,11.1-30.6,2.2C49.3,89,69.6,73.8,92.3,73.6
		c24.2-0.6,43.6,18.8,32.1,33.5C115.5,118,99.8,115.1,92.3,106.5z"/>
	<path class="st2" d="M29.4,79.9c-1.4,0-2.7,1.5-3.5,2.7 M125,134.9c6.5,6.2,9.1,10.1,7.7,14.6c-1.4-2.4-3.2-3.8-6.1-5.3
		 M155.9,258.3c0.3-1.1-0.7-2.9-1.7-3.6 M163.9,235.7c-0.1-0.8-1.2-1.8-2.1-2.1 M150.9,265.7c0.5-1.6-0.6-4.3-2.1-5.5 M159.9,250.6
		c0.2-1.2-1.1-3.1-2.4-3.8 M33.5,252.6c-0.3-0.8,0.2-2.3,0.9-3 M29.9,242.7c-0.7-1-0.3-3.2,0.5-4.3 M24,237.8
		c-0.5-1.6,0.6-4.3,2.1-5.5 M84.2,174.3c0.4-0.7,0-2.2-0.7-2.8 M75.6,166.8c-0.6,1.7-0.6,4.1,0,5.4 M71,163.6
		c-1.3,0.5-2.5,2.5-2.7,4.1 M123.5,155.7c1.6,1.5,1.5,4.5,1.2,6.7 M117.8,162.3c1.7,0.9,2.8,2.5,3.2,4.4 M156.2,66.6
		c2.1,0,3.4,1.3,4.1,2.2 M155.4,73.6c1.8,0,3.5,1.9,4.5,3.5 M33.6,87.6c-1.4,0.3-2.4,1.9-3,3.3"/>
	<path id="XMLID_549_" class="st3" d="M42.1,33.7c8-6.9-0.2-18.3-12.3-19.6l1.7,5l-4.1-0.9C24.3,27.8,32.8,41.9,42.1,33.7z"/>
	<path id="XMLID_548_" class="st3" d="M149.6,14.6l-0.1,5.1l7.8-6.7c10.6,14-4.1,25.3-10.5,21.6C140.8,30.9,137.5,22.4,149.6,14.6z"
		/>
	<path class="st2" d="M92.3,101.2v5.3c-7.8,10.1-23.8,11.1-30.6,2.2c-12.9-18.8,7.9-34.9,30.6-35.1c24.2-0.6,43.6,18.8,32.1,33.5
		c-8.9,10.9-24.6,8-32.1-0.6 M84.4,112.7c3.2,7.1,13.9,6.9,16.1-0.4 M79.6,114.3c5,11,21.2,11.3,25.4-0.6"/>
	<path id="XMLID_544_" class="st3" d="M113.2,42c-4.1,0.4-7.3,2.1-7.1,3.9c0.1,1.8,3.5,2.9,7.6,2.6c4.1-0.4,7.3-2.1,7.1-3.9
		C120.6,42.7,117.2,41.6,113.2,42z"/>
	<path id="XMLID_543_" class="st3" d="M58.3,45.7c3-2.5,6.5-3.5,7.9-2.3c1.4,1.2,0.1,4.3-2.8,6.8c-3,2.5-6.5,3.5-7.9,2.3
		C54,51.3,55.3,48.2,58.3,45.7z"/>
	<path id="XMLID_542_" class="st4" d="M93.1,92c8.7,0,15.8-3,15.8-6.7s-7.1-6.7-15.8-6.7s-15.8,3-15.8,6.7S84.4,92,93.1,92z"/>
	<path class="st0" d="M71.1,90.6c1.1,0.2,1.9,1.2,1.6,2.3c-0.2,1-1.4,1.7-2.5,1.5s-1.9-1.2-1.6-2.3C68.8,91,70,90.4,71.1,90.6
		L71.1,90.6z M114,97c-1.1,0.2-1.9,1.2-1.6,2.3c0.2,1,1.4,1.7,2.5,1.5s1.9-1.2,1.6-2.3C116.2,97.5,115.1,96.8,114,97L114,97z
		 M71.2,97c1.1,0.2,1.9,1.2,1.6,2.3c-0.2,1-1.4,1.7-2.5,1.5s-1.9-1.2-1.6-2.3C68.9,97.5,70,96.8,71.2,97L71.2,97z M107.1,94.1
		c-1.1,0.2-1.9,1.2-1.6,2.3c0.2,1,1.4,1.7,2.5,1.5s1.9-1.2,1.6-2.3C109.3,94.5,108.2,93.8,107.1,94.1L107.1,94.1z M78.1,94.1
		c1.1,0.2,1.9,1.2,1.6,2.3c-0.2,1-1.4,1.7-2.5,1.5s-1.9-1.2-1.6-2.3C75.8,94.5,77,93.8,78.1,94.1L78.1,94.1z M114.1,90.6
		c-1.1,0.2-1.9,1.2-1.6,2.3c0.2,1,1.4,1.7,2.5,1.5s1.9-1.2,1.6-2.3C116.3,91,115.2,90.4,114.1,90.6z"/>
	<path id="XMLID_535_" class="st1" d="M68.6,52.7c6.2,0.6,10.9,6.2,10.6,12.5c-0.4,6.3-5.7,10.9-11.9,10.3
		C61.1,75,56.4,69.3,56.7,63C57.1,56.7,62.4,52.1,68.6,52.7z"/>
	<path id="XMLID_534_" class="st1" d="M114.9,51.6c-6.5,0.8-11.2,6.7-10.6,13.2s6.3,11.1,12.8,10.3c6.5-0.8,11.2-6.7,10.6-13.2
		C127.1,55.4,121.3,50.8,114.9,51.6z"/>
	<path id="XMLID_533_" class="st5" d="M72.6,58.9c4.1,1.9,5.9,6.9,4,11.1s-6.8,6-10.9,4.1s-5.9-6.9-4-11.1S68.5,57,72.6,58.9z"/>
	<path id="XMLID_532_" class="st2" d="M79,62.4c0.9,6.3-3.3,12.2-9.3,13.1C63.5,76.4,57.9,72,57,65.7s3.3-12.2,9.3-13.1
		C72.4,51.7,78.1,56.1,79,62.4z"/>
	<path id="XMLID_531_" class="st5" d="M112.8,58.2c-4.5,1.9-6.7,7.1-4.9,11.7c1.8,4.6,6.9,6.8,11.4,4.9s6.7-7.1,4.9-11.7
		C122.4,58.5,117.3,56.3,112.8,58.2z"/>
	<path id="XMLID_530_" class="st2" d="M105.9,58.3c-3,5.8-0.9,12.9,4.7,15.9s12.5,0.8,15.4-4.9c3-5.8,0.9-12.9-4.7-15.9
		C115.8,50.3,108.9,52.5,105.9,58.3z"/>
	<path id="XMLID_529_" d="M69.2,71.7c2.8,0,5-2.3,5-5c0-2.8-2.3-5-5-5s-5,2.3-5,5C64.1,69.4,66.4,71.7,69.2,71.7z"/>
	<path id="XMLID_528_" d="M116.1,71.7c2.8,0,5-2.3,5-5c0-2.8-2.3-5-5-5c-2.8,0-5,2.3-5,5C111,69.4,113.3,71.7,116.1,71.7z"/>
	<path id="XMLID_527_" class="st1" d="M73.2,62.2c1.2,0.2,2,1.4,1.8,2.5c-0.2,1.2-1.4,1.9-2.6,1.7c-1.2-0.2-2-1.4-1.8-2.5
		C70.8,62.7,72,62,73.2,62.2z"/>
	<path id="XMLID_526_" class="st1" d="M120.1,62.2c1.2,0.2,2,1.4,1.8,2.5c-0.2,1.2-1.4,1.9-2.6,1.7c-1.2-0.2-2-1.4-1.8-2.5
		C117.7,62.7,118.9,62,120.1,62.2z"/>
</g>
</svg>
