<?xml version="1.0" encoding="utf-8"?>
<!-- Generator: Adobe Illustrator 21.1.0, SVG Export Plug-In . SVG Version: 6.00 Build 0)  -->
<svg version="1.1" id="Layer_1" xmlns="http://www.w3.org/2000/svg" xmlns:xlink="http://www.w3.org/1999/xlink" x="0px" y="0px"
	 viewBox="0 0 185.4 313.9" style="enable-background:new 0 0 185.4 313.9;" xml:space="preserve">
<style type="text/css">
	.st0{fill:#E6E7E8;}
	.st1{fill:#FCC826;}
	.st2{fill:#E1A836;}
	.st3{fill:#F7A1A1;}
	.st4{fill:#FFE580;}
	.st5{fill:#FFF9AE;}
	.st6{fill:none;stroke:#9A6326;stroke-width:1.7008;stroke-linecap:round;stroke-linejoin:round;stroke-miterlimit:22.9256;}
	.st7{fill:#FABFBF;stroke:#9A6326;stroke-width:1.7008;stroke-linecap:round;stroke-linejoin:round;stroke-miterlimit:22.9256;}
	.st8{fill:#FFE580;stroke:#9A6326;stroke-width:1.7008;stroke-linecap:round;stroke-linejoin:round;stroke-miterlimit:22.9256;}
	.st9{fill:#4D4D4F;stroke:#000000;stroke-width:1.7008;stroke-linecap:round;stroke-linejoin:round;stroke-miterlimit:22.9256;}
	.st10{fill:#FFFFFF;}
	.st11{fill:#A5C3D2;}
</style>
<g id="yellow">
	<path id="XMLID_98_" class="st0" d="M160.8,295.8c-1.2,15.4-48.6,7.4-65.6,13.3c-25.9,9-62.4,4.5-65.8-12.6
		C21.6,257.6,162.1,278.8,160.8,295.8z"/>
	<path id="XMLID_97_" class="st1" d="M60.3,134.4l64.9,0.2c61,17.5,76.4,101.6,28.9,139.6c8.3,15.9-45.1,33.4-62.5,24.1
		c-5.7,5.1-13,6-21.9,2.9c-31-2.4-35.1-18.8-33.4-23C-17.3,227.1,5.7,148.8,60.3,134.4z"/>
	<path id="XMLID_96_" class="st1" d="M61.7,134.6c-15.7-4.9-34.9-26.7-37.2-40l-2.4,2.1c-4.1-21.7-7.4-37,6.8-54.6
		c-3-0.9-7.8-1.1-9.7-4l-0.6,3.1c-3.1-4.3-3.7-9.1-1.8-14.4l-3.1,3c-2.4-15,8.3-27.5,23-28.1C49.3,1.5,51.9,6.9,55,15.9l7.3-6
		l8.8-3.8L69.2,13c3.7-4.4,8.6-7.2,14.8-8.6l-1.9,3.3c20.3-5.1,36.4-4.3,50,7.6C142.6-10.5,173.5,0,172.6,24l-3.2-1.7
		c6.7,9.6-0.7,17.2-12.5,21.6c10.4,13.3,13.1,28.9,6.9,52.8l-2.4-2.1c-2.2,9.1-7.9,26.2-37.7,40.2L61.7,134.6z"/>
	<path id="XMLID_95_" class="st2" d="M60.3,134.4l62-2.1l2.9,2.3l-13.3,44.5L48.1,161C45,151.7,53.5,137.9,60.3,134.4l-13,5.5
		c-52.6,28-0.6,66.3,27.7,70.6c12.7,1.7,21.8-4.5,26.2-12.9l1.9,7.4c-0.4,6.6-1.5,17.1,2.3,18.6c16.8,18,50-16.8,50.1-39.1
		c3.8,18.9-2.1,43.8-24.3,54.9l-42.7,10.8l-39.4-29.5c-3.4-1.1-9.1-4.7-11.5-6.7c-5.6,14.6,3.7,43.4,23.1,49.6
		c25.9,17.3-9.3,6.6-2.3,20c13.4,8.3,23.7,13.8,32.3,8.2c6.6-6,4.6-10.3-8.3-20.8c13.4,1,25.4-0.8,39.1-7.4
		c-15.7,16-7.1,22.5,1.8,20.3c26.6-7.7,48.2-28.7,57.6-60.1c-2.3,21.2-11.2,38.2-26.8,51c6.2,16.1-44.4,32.1-64.2,23.6
		c-5.7,5.1-9.9,5.8-18.8,2.7C39.3,298.2,34,284.4,37,278.9l-1.7-1.1C-18.1,235.5-1,155.4,60.3,134.4z"/>
	<path id="XMLID_94_" class="st2" d="M61.7,134.6c-16.5-7.2-28.5-19.8-37.2-40l-2.4,2.1c-6.2-22.6-5.1-37.3,5.5-52.9l-8.5-5.5
		l-0.6,3.1C11.3,28,16.9,7.3,33.3,6.8c-16.4,18.5,0.9,38,22.5,8.3l6.5-5.2l8.8-3.8L69.2,13c3.7-4.4,8.6-7.2,14.8-8.6l-1.9,3.3
		c20.3-5.1,26.4-1.7,32-0.6C68.3,4.5,26.8,33.5,43.7,69.6c-29.5,36.4,15,62.2,48.5,62.5c34.9,0.2,60.7-14.1,66.2-36.3
		c1.3,17.1-19.8,32.1-34.8,38.9L61.7,134.6z"/>
	<path id="XMLID_93_" class="st2" d="M105.2,112.9l-12.8-6.4l-12.7,7C84.7,125.5,100.9,125.9,105.2,112.9z"/>
	<path id="XMLID_92_" class="st3" d="M100.6,111.7l-4.3-2.1l-3.9-3.1l-3.4,3.1l-4.5,2.5C87.3,120.1,98.1,119.8,100.6,111.7z"/>
	<path id="XMLID_91_" class="st2" d="M144.1,27.4l17.1-3.4c3.6-5.9-0.5-18.4-5.1-20.4c8.5,0,17.9,9.4,16.5,20.4l-3.2-1.7
		c5.8,9.3,2.4,15.4-12.4,21.5C149.5,41.7,144.2,35.3,144.1,27.4z"/>
	<path id="XMLID_90_" class="st4" d="M102.9,203.7c9.1-14.8,43.2-27.2,27.4-57.3c1.2-3.5-52.6-3.4-67.2-6.8
		c-0.8-0.2-5.7,6.3-6.6,6.1l-3.7,4.9c-3.2,4.3-6.8,9.5-4.8,15.8l5.5-4.4c-9.6,16.9,21.8,18.9,39.1,25.9
		C100.4,193.1,101.5,198.4,102.9,203.7z"/>
	<path id="XMLID_89_" class="st5" d="M107.6,191.2c9.2-11,29.9-17.6,23.1-43.6c5.8,3.8,1-10.9-6.9-12.8
		c-36.6,11.2-54.2-6.8-65.7,9.6c-5.3,10.5,2.7,24.1,32.8,32.4C100.3,180,106.2,186,107.6,191.2z"/>
	<path class="st6" d="M19.2,38.2c1.4,2.6,5.7,4.6,8.5,5.5c-9,10.8-12.2,31.6-5.5,52.9l2.4-2.1c3,10.6,16.1,33.7,37.2,40 M82.5,7
		c11.6-3.8,35-4.4,49.6,8.2c10.2-26.4,42.4-13.5,40.5,8.7l-3.2-1.7c3.9,5.3,4.6,15.9-12.5,21.6 M157,43.8c8,9.8,13.6,30.3,6.8,52.8
		l-2.4-2.1c-2.1,14.3-18,32-37.2,40 M55,15.9c4.3-4.8,9.5-7.8,16-9.7L69.2,13C73,8.3,77.9,5.5,84,4.4l-3,5.2 M55.9,26.8
		C57.7,0.4,37.1-4,21.7,8.1c-5.5,4.1-10.4,12.7-8,21.8c1.9-2.5,4.3-4,7.3-4.6 M16.8,26.9c-1.9,5.1-1,9.8,1.8,14.4
		c0-3.6,2.5-8,6.8-10.8"/>
	<path id="XMLID_82_" class="st4" d="M133.6,231c-8.6,6.6-17.6,8.6-25,6.8c-3.9,0.8-6.8,0.5-8.8-1.1c-6.3-6.1-7.4-13.5-3.1-22.1
		l-5.2,0.7c-13.9,7.8-27.5,7.7-40.7-0.1c-7,15.7,3.5,47,38.9,47.1C112.3,262,131.7,250.4,133.6,231z"/>
	<path id="XMLID_81_" class="st5" d="M118.7,254.3c-35.6,13.1-61-2.5-69.7-24.7C51.6,261.4,93.5,271.3,118.7,254.3z"/>
	<path id="XMLID_80_" class="st1" d="M49.1,220.6l1.9-5.2c14.8,7.7,29.3,7,40.4,0l5.2-0.7c-4.5,11.5-3.5,18.8,3.1,22.1l4.2,1.5
		l4.6-0.4c9.1,1.4,17.4-0.9,25-6.8l-2.4,8.3c-23,10.5-42.9,5.8-42.4-14.1C77.2,229.1,59.4,226.4,49.1,220.6z"/>
	<path class="st6" d="M60.3,134.4C-10.4,158-11.9,251,39.5,280.2 M71.2,301c20.1,7,26-8.9,12.7-16.1 M126.1,134.4
		c71.9,26,71.2,119.5,15.1,149.2 M88.4,300.4c10.9-6.6,14.2-16.5-4.7-29.4 M37.1,278.8c-3.4,10,13.5,22.2,34.1,22.2
		c0.3-3.4-3.4-7.2-11.1-11.4 M60.8,263.5c19.8,10.9,40.1,10.2,60.9,0 M101.6,300.4c-0.6-3.8,2.1-7.4,8.2-10.6 M91.6,298.3
		c20.4,8.5,68.5-8.4,62.7-23.6"/>
	<path class="st6" d="M99.8,236.7c2.6,3.8,13.7,0.8,20-4.9 M92.2,215.5c-23.1,11.3-47.3,5.8-68.8-29.8 M102.7,211.6
		c-6.1,4.6-13.8,4.9-23,1.1 M65.1,138.2C54,145.1,46.1,160,48,166.4l5.5-4.4c-9.6,16.9,21.8,18.9,39.1,25.9
		c7.8,5.2,11.9,13.4,10,23.7c-3.4-3.8-7.1-7.3-13-9.7 M50.7,215.2c-7,15.7,3.5,47,38.9,47.1c22.7-0.2,42.1-11.9,43.9-31.2
		 M96.6,214.6c-4.6,9.4-2.3,18,3.1,22.1c0.4-4.1,1.9-8.3,5.6-13.1 M131.5,147.5c11.9,32.4-19.5,41.4-28.6,56.1 M108.5,237.8
		c19.4,3.7,49.1-18.7,47-53.3"/>
	<path id="XMLID_63_" class="st4" d="M92.4,106.5v-5.3V106.5c-7.8,10.1-23.8,11.1-30.6,2.2c-12.4-19.7,8-34.9,30.6-35.1
		c24.2-0.6,43.6,18.8,32.1,33.5C115.6,118,100,115.1,92.4,106.5z"/>
	<path class="st5" d="M61.9,108.7C49.4,89,69.8,73.8,92.4,73.6c24.2-0.6,43.6,18.8,32.1,33.5C133.1,68.6,45.6,66.6,61.9,108.7
		L61.9,108.7z M92.6,100.6c-4,9.3-14.9,15.9-27.8,10.9c9.4,5.6,18.6,3.9,27.7-5L92.6,100.6z"/>
	<path class="st6" d="M29.5,79.9c-1.4,0-2.7,1.5-3.5,2.7 M125.2,134.9c6.5,6.2,9.1,10.1,7.7,14.6c-1.4-2.4-3.2-3.8-6.1-5.3
		 M156.1,258.3c0.3-1.1-0.7-2.9-1.7-3.6 M164.1,235.7c-0.1-0.8-1.2-1.8-2.1-2.1 M151.1,265.7c0.5-1.6-0.6-4.3-2.1-5.5 M160.1,250.6
		c0.2-1.2-1.1-3.1-2.4-3.8 M33.6,252.6c-0.3-0.8,0.2-2.3,0.9-3 M30.1,242.7c-0.7-1-0.3-3.2,0.5-4.3 M24.2,237.8
		c-0.5-1.6,0.6-4.3,2.1-5.5 M84.4,174.3c0.4-0.7,0-2.2-0.7-2.8 M75.8,166.8c-0.6,1.7-0.6,4.1,0,5.4 M71.2,163.6
		c-1.3,0.5-2.5,2.5-2.7,4.1 M123.7,155.7c1.6,1.5,1.5,4.5,1.2,6.7 M117.9,162.3c1.7,0.9,2.8,2.5,3.2,4.4 M156.3,66.6
		c2.1,0,3.4,1.3,4.1,2.2 M155.5,73.6c1.8,0,3.5,1.9,4.5,3.5 M33.8,87.6c-1.4,0.3-2.4,1.9-3,3.3"/>
	<path id="XMLID_43_" class="st7" d="M42.3,33.7c8-6.9-0.2-18.3-12.3-19.6l1.7,5l-4.1-0.9C24.5,27.8,33,41.9,42.3,33.7z"/>
	<path id="XMLID_42_" class="st7" d="M149.8,14.6l-0.1,5.1l7.8-6.7c10.6,14-4.1,25.3-10.5,21.6C141,30.9,137.6,22.4,149.8,14.6z"/>
	<path class="st6" d="M92.4,101.2v5.3c-7.8,10.1-23.8,11.1-30.6,2.2c-12.9-18.8,7.9-34.9,30.6-35.1c24.2-0.6,43.6,18.8,32.1,33.5
		c-8.9,10.9-24.6,8-32.1-0.6 M84.6,112.7c3.2,7.1,13.9,6.9,16.1-0.4 M79.8,114.3c5,11,21.2,11.3,25.4-0.6"/>
	<path id="XMLID_38_" class="st8" d="M113.4,42c-4.1,0.4-7.3,2.1-7.1,3.9c0.1,1.8,3.5,2.9,7.6,2.6c4.1-0.4,7.3-2.1,7.1-3.9
		C120.8,42.7,117.4,41.6,113.4,42z"/>
	<path id="XMLID_37_" class="st8" d="M58.5,45.7c3-2.5,6.5-3.5,7.9-2.3s0.1,4.3-2.8,6.8c-3,2.5-6.5,3.5-7.9,2.3
		C54.2,51.3,55.5,48.2,58.5,45.7z"/>
	<path id="XMLID_36_" class="st1" d="M91.7,94.4c9.1,0,16.5-3.5,16.5-7.9c0-4.3-7.4-7.9-16.5-7.9s-16.5,3.5-16.5,7.9
		S82.6,94.4,91.7,94.4z"/>
	<path id="XMLID_35_" class="st9" d="M93.3,92c8.7,0,15.8-3,15.8-6.7s-7.1-6.7-15.8-6.7s-15.8,3-15.8,6.7S84.6,92,93.3,92z"/>
	<path class="st1" d="M71.3,90.6c1.1,0.2,1.9,1.2,1.6,2.3c-0.2,1-1.4,1.7-2.5,1.5s-1.9-1.2-1.6-2.3C69,91,70.1,90.4,71.3,90.6
		L71.3,90.6z M114.2,97c-1.1,0.2-1.9,1.2-1.6,2.3c0.2,1,1.4,1.7,2.5,1.5s1.9-1.2,1.6-2.3C116.4,97.5,115.3,96.8,114.2,97L114.2,97z
		 M71.4,97c1.1,0.2,1.9,1.2,1.6,2.3c-0.2,1-1.4,1.7-2.5,1.5s-1.9-1.2-1.6-2.3C69.1,97.5,70.2,96.8,71.4,97L71.4,97z M107.3,94.1
		c-1.1,0.2-1.9,1.2-1.6,2.3c0.2,1,1.4,1.7,2.5,1.5s1.9-1.2,1.6-2.3C109.5,94.5,108.4,93.8,107.3,94.1L107.3,94.1z M78.3,94.1
		c1.1,0.2,1.9,1.2,1.6,2.3c-0.2,1-1.4,1.7-2.5,1.5s-1.9-1.2-1.6-2.3C76,94.5,77.1,93.8,78.3,94.1L78.3,94.1z M114.3,90.6
		c-1.1,0.2-1.9,1.2-1.6,2.3c0.2,1,1.4,1.7,2.5,1.5s1.9-1.2,1.6-2.3C116.5,91,115.4,90.4,114.3,90.6z"/>
	<path id="XMLID_28_" class="st10" d="M68.8,52.7c6.2,0.6,10.9,6.2,10.6,12.5c-0.4,6.3-5.7,10.9-11.9,10.3
		c-6.2-0.5-11-6.2-10.6-12.5C57.3,56.7,62.6,52.1,68.8,52.7z"/>
	<path id="XMLID_27_" class="st10" d="M115.1,51.6c-6.5,0.8-11.2,6.7-10.6,13.2s6.3,11.1,12.8,10.3c6.5-0.8,11.2-6.7,10.6-13.2
		C127.2,55.4,121.5,50.8,115.1,51.6z"/>
	<path id="XMLID_26_" class="st11" d="M72.8,58.9c4.1,1.9,5.9,6.9,4,11.1s-6.8,6-10.9,4.1s-5.9-6.9-4-11.1
		C63.8,58.8,68.7,57,72.8,58.9z"/>
	<path id="XMLID_25_" class="st6" d="M79.1,62.4c0.9,6.3-3.3,12.2-9.3,13.1c-6.1,0.9-11.7-3.5-12.6-9.8c-0.9-6.3,3.3-12.2,9.3-13.1
		C72.6,51.7,78.2,56.1,79.1,62.4z"/>
	<path id="XMLID_24_" class="st11" d="M113,58.2c-4.5,1.9-6.7,7.1-4.9,11.7c1.8,4.6,6.9,6.8,11.4,4.9s6.7-7.1,4.9-11.7
		C122.6,58.5,117.5,56.3,113,58.2z"/>
	<path id="XMLID_23_" class="st6" d="M106.1,58.3c-3,5.8-0.9,12.9,4.7,15.9s12.5,0.8,15.4-4.9c3-5.8,0.9-12.9-4.7-15.9
		C115.9,50.3,109,52.5,106.1,58.3z"/>
	<path id="XMLID_22_" d="M69.3,71.7c2.8,0,5-2.3,5-5s-2.3-5-5-5s-5,2.3-5,5C64.3,69.4,66.6,71.7,69.3,71.7z"/>
	<path id="XMLID_21_" d="M116.2,71.7c2.8,0,5-2.3,5-5s-2.3-5-5-5s-5,2.3-5,5C111.2,69.4,113.5,71.7,116.2,71.7z"/>
	<path id="XMLID_20_" class="st10" d="M73.4,62.2c1.2,0.2,2,1.4,1.8,2.5c-0.2,1.2-1.4,1.9-2.6,1.7c-1.2-0.2-2-1.4-1.8-2.5
		C71,62.7,72.2,62,73.4,62.2z"/>
	<path id="XMLID_19_" class="st10" d="M120.3,62.2c1.2,0.2,2,1.4,1.8,2.5c-0.2,1.2-1.4,1.9-2.6,1.7c-1.2-0.2-2-1.4-1.8-2.5
		C117.9,62.7,119.1,62,120.3,62.2z"/>
	<path class="st4" d="M77.7,186.3c9.5,3,15.6,6.2,21.9,12.5C95.2,190.2,89.6,187.1,77.7,186.3L77.7,186.3z M34.2,3.8
		c8,1.1,13.5,3.5,19,11.6C50.8,5.5,42.6,1.8,34.2,3.8L34.2,3.8z M145,2.4c8.4,0.9,15.4,4.5,22.1,10.5C162.8,4.6,155,0.7,145,2.4
		L145,2.4z M147.1,41.6c7.1,8.1,14.5,21,15.4,33.1C164.3,61.5,158.1,48.3,147.1,41.6L147.1,41.6z M144.2,157.9
		c8.1,5,20.2,19.9,23.9,29.6C166.5,176.1,155.4,160.8,144.2,157.9z"/>
</g>
</svg>
