<?xml version="1.0" encoding="utf-8"?>
<!-- Generator: Adobe Illustrator 21.1.0, SVG Export Plug-In . SVG Version: 6.00 Build 0)  -->
<svg version="1.1" id="Layer_1" xmlns="http://www.w3.org/2000/svg" xmlns:xlink="http://www.w3.org/1999/xlink" x="0px" y="0px"
	 viewBox="0 0 288 405.1" style="enable-background:new 0 0 288 405.1;" xml:space="preserve">
<style type="text/css">
	.st0{fill:#E6E7E8;}
	.st1{fill:#FFFFFF;}
	.st2{fill:none;stroke:#000000;stroke-width:1.7008;stroke-linecap:round;stroke-linejoin:round;stroke-miterlimit:22.9256;}
</style>
<g id="empty">
	<path id="XMLID_449_" class="st0" d="M111.9,368.9c-32.3,9.8-25.2,30.9,3.2,35.2c24.1,3.7,41.4-8.9,69.2-6.6c29,2.4,76,2.8,78.8-15
		C266.8,359.1,139.4,357.2,111.9,368.9z"/>
	<path id="XMLID_448_" class="st1" d="M75.1,186.1c8.7,13.3,18.6,22.8,29.5,29.7c-22.9,30.9-30.6,59.8-23.1,86.6l13.5-0.6l2.4,7.5
		c-15,6.4-25.8,28.2-44.9,19.3c18.8,15.4,33.5-5.9,50.3-8.8l4.7,4.8c-14,23.4-17.4,42.6-10.2,57.4c6.7,10.6,43.5,18.8,60.2,2.5
		c0.9-15.4-7.9-29.6-2.5-39.1l17.5,1.3c2.5,11.5,3.1,23.1,1.8,35c7,14.8,50.6,13.2,61.5-1.9c10.5-12.1,7-31.5-11.3-55.8l3.8-6.9
		l1.8-7.5c12.7-1.7,24.2-7.1,33.4-20.4c-1.9-14.5-6.4-26.9-14.9-36.2c15-27.4,23.2-55.2,23.2-83.5c17.5-14.3,17.2-24.6,11.6-22.1
		l-12,5.4c-2-23.1-7.3-44.5-16.8-63.7c16.5-5.5,23.4-17.8,12-30.7c-11.9-8.9,2.9-18.7-1.4-28.6c-5.8-11.1-22.1,0.6-25.1-21
		c-0.8-11-23.1-17.8-44,23l-15.6-4c6.1-6.1-5.8-12.4-17.6-8.5C180.4,5,164.2,2,144.7,24.4c-40.8,9-64.2,32-76.7,59.7
		c-41.7-7.3-63.7,7.3-63.3,21.6C4.5,114.5,18.8,118,7.4,129c-7.8,7.3-9.7,19.3,0.3,22c19.7,8.9,5.9,25.3,13.2,31.8
		c11.6,11,22.4-12.5,32,3.1C58.3,196.1,67.8,195.5,75.1,186.1z"/>
	<path id="XMLID_447_" class="st1" d="M171.9,165.9c-9.6,4.8-17.8-1.1-26.6-1.6c-8-17.3-2.5-34.9,4.6-36.4
		C160.6,126.7,172.9,141.1,171.9,165.9z"/>
	<path id="XMLID_446_" class="st2" d="M162.3,26.5c5.6,3,14.7,4.4,18.2,1.4c51.8,8.1,86.6,63.2,91,126.9
		c4.8,81.3-46.9,161.8-122.9,156.5c-5.6-0.3,2-6.6-3-9c-4.1-4-2.3-8.2,3.5-9.8c33.9-7.9,53.1-35.3,50.6-81.4"/>
	<path id="XMLID_445_" class="st2" d="M180.5,27.9c4.3-5.1,0.7-11.5-17.6-8.5"/>
	<path class="st2" d="M152.1,27.3c12.9-8.8,20-15.3,18.8-18.2C168,6,156.7,9.8,144.7,24.5C109.5,30.7,78.1,57.2,68,84.2 M60.8,114.2
		c-6.7,56,26.3,119.1,97.6,112.2c14.5-1.3,22.4,14,31.7,12.7c4.7-0.9,8-5.9,9.7-11.6"/>
	<path id="XMLID_442_" class="st2" d="M168.4,185.5c13.8,18-6.5,24.1-9.1,31.3"/>
	<path id="XMLID_441_" class="st2" d="M173,195.4c38,4.3,50.6-13.5,52.4-8.7c1.1,6.7-19,35.5-59.3,22.5c9.2,6.3,17.3,22.7,24.1,22.4
		c3.2-1.1,6.7-6.3,9.9-13.9"/>
	<path id="XMLID_440_" class="st2" d="M271.4,152.8c5.6-0.6,13.5-8.1,15.3-5.2c2,2.1-2.5,13.1-14.9,21.9"/>
	<path id="XMLID_439_" class="st2" d="M247.3,173.9c2.3-1,5.6-1.2,7.7-0.1"/>
	<path id="XMLID_438_" class="st0" d="M171.3,153.9l0.6,12c-7.7,4.5-13.8-0.3-20.7-0.5c-6.3-13.6-2.2-28.2,3.3-29.4
		C161.7,134.3,169.5,141,171.3,153.9z"/>
	<path id="XMLID_437_" class="st2" d="M240.4,255.7c1.8,0.4,3.8,1.8,4.5,3.3"/>
	<path id="XMLID_436_" class="st2" d="M228.4,269.1c2.1,0.9,4.3,3,4.9,5"/>
	<path id="XMLID_435_" class="st2" d="M207.1,285.7c2.3,1.5,4.6,4.3,4.9,6.8"/>
	<path id="XMLID_434_" class="st2" d="M178.9,216.8c5.1-0.8,8,0.6,9.9,3c0.8-2,3.3-3,7.7-3"/>
	<path id="XMLID_433_" class="st2" d="M73.6,85.6c-41.9-11.2-68.1,4.2-69,20.3C4.5,114.5,18.8,118,7.4,129c-7.8,7.3-9.7,19.3,0.3,22
		c19.7,8.9,5.9,25.3,13.2,31.8c11.6,11,22.4-12.5,32,3.1c5.4,10.1,14.9,9.6,22.3,0.2"/>
	<path id="XMLID_432_" class="st2" d="M66.1,111.7c-12.8,8.1-28.2,0.1-38.9,7c-7.9,5-7.6,19.4-1.1,26.1"/>
	<path id="XMLID_431_" class="st2" d="M176.7,162.2c-11.7,12.2-25.6-0.4-37.9,2.3"/>
	<path id="XMLID_430_" class="st2" d="M145.3,164.3c-8-17.3-2.5-34.9,4.6-36.4c10.7-1.2,23,13.2,22,38"/>
	<path id="XMLID_429_" d="M158.7,162.7c3.9,0,7.2-3.2,7.2-7.2c0-3.9-3.2-7.2-7.2-7.2c-3.9,0-7.2,3.2-7.2,7.2
		S154.8,162.7,158.7,162.7z"/>
	<path id="XMLID_428_" class="st1" d="M162.9,154.3c1.6,0,2.9-1.3,2.9-2.9s-1.3-2.9-2.9-2.9c-1.6,0-2.9,1.3-2.9,2.9
		S161.3,154.3,162.9,154.3z"/>
	<path id="XMLID_427_" class="st2" d="M129.5,136.3c2.1-7.6,16.7-13.1,10.7-17C134.2,115.6,124.8,128,129.5,136.3z"/>
	<path id="XMLID_426_" class="st2" d="M240.7,138.7c3.1-2.3,7.5-2.6,10.6-2"/>
	<path id="XMLID_425_" class="st2" d="M229.7,122c4.3-3.2,10.9-4.3,15.7-4.1"/>
	<path id="XMLID_424_" class="st2" d="M196.1,31.9c19.5-39.1,42.7-35.1,44-23c2.9,21.8,20.5,9.9,25.1,21c4.9,11.2-11.1,18,1.4,28.6
		c8.8,7.5,7.9,24.9-12,30.7"/>
	<path id="XMLID_423_" class="st2" d="M252.2,47c-6.8-20-23.4-25-37.5-5.7"/>
	<path id="XMLID_422_" class="st2" d="M104.6,215.8c-25.2,32.2-29.3,63.8-23.1,86.6c22.4-0.4,37.2-3.2,44.3-8.4
		c5.6-9.5,8.9-24.8,9.7-46.1"/>
	<path id="XMLID_421_" class="st2" d="M133.9,266.5c3.7-0.9,9.5-4.9,10.9-11.1"/>
	<path id="XMLID_420_" class="st2" d="M128.3,285.8c-5.5-1.6-15.4-1.6-20.2,6.1c-4.5-8.1-13.1-7.6-27.8,5.4"/>
	<path id="XMLID_419_" class="st2" d="M94.6,302.8c10.1,25.6,26.5,38.6,62.9,42.8c33.4,4.6,71.9-15.1,72.6-36.1"/>
	<path id="XMLID_418_" class="st2" d="M107.4,324.5c-13.5,21.6-17,41.5-10.2,57.4c4.9,10.1,45.2,19.5,60.2,2.5
		c0.5-14.8-7.7-28.3-2.5-39.1"/>
	<path id="XMLID_417_" class="st2" d="M97.3,381.9c4.2-4.5,9.1-4.1,14.9,1.2c11.5-11.5,30.4-11.1,36.2,0.6c1.5-5.2,4.2-8.7,8.1-10.6
		"/>
	<path id="XMLID_416_" class="st2" d="M97.4,309.2c-18.3,7-21.5,26.9-44.9,19.3c20.4,15.6,30.7-5.7,50.3-8.8"/>
	<path id="XMLID_415_" class="st2" d="M172.5,346.6c3.3,9.8,3.3,21.9,1.8,35c8.7,15.7,59.9,15.8,66.7-11.9
		c2.1-15.8-5.5-32.3-16.5-45.8"/>
	<path id="XMLID_414_" class="st2" d="M218.2,288.9c1.6,10,3.2,16.9,7.3,20.4c9.4,1,30.6-6,38.1-20.1c-2.1-14.2-6.3-26.9-14.9-36.2"
		/>
	<path id="XMLID_413_" class="st2" d="M222,304.5c2.8-11.7,15.1-15.9,21.4-9.8c3-9.5,14.9-11.7,20.1-5.5"/>
	<path id="XMLID_412_" class="st2" d="M179.4,386.7c11.6-9.3,21.5-12.7,27.5-3.3c1.9-10.6,11.6-11.8,28.9-3.7"/>
</g>
</svg>
