<?xml version="1.0" encoding="utf-8"?>
<!-- Generator: Adobe Illustrator 21.1.0, SVG Export Plug-In . SVG Version: 6.00 Build 0)  -->
<svg version="1.1" id="Layer_1" xmlns="http://www.w3.org/2000/svg" xmlns:xlink="http://www.w3.org/1999/xlink" x="0px" y="0px"
	 viewBox="0 0 288 405.1" style="enable-background:new 0 0 288 405.1;" xml:space="preserve">
<style type="text/css">
	.st0{fill:#E6E7E8;}
	.st1{fill:#636466;}
	.st2{fill:#414042;}
	.st3{fill:#FABFBF;}
	.st4{fill:#EA9A9D;}
	.st5{fill:#FFFFFF;}
	.st6{fill:none;stroke:#000000;stroke-width:1.7008;stroke-linecap:round;stroke-linejoin:round;stroke-miterlimit:22.9256;}
	.st7{fill:none;stroke:#6D6E71;stroke-width:1.7008;stroke-linecap:round;stroke-linejoin:round;stroke-miterlimit:22.9256;}
	.st8{fill:#A8D4EA;}
	.st9{fill:none;stroke:#E47A6B;stroke-width:1.7008;stroke-linecap:round;stroke-linejoin:round;stroke-miterlimit:22.9256;}
	.st10{fill:#939598;stroke:#000000;stroke-width:1.7008;stroke-linecap:round;stroke-linejoin:round;stroke-miterlimit:22.9256;}
	.st11{fill:#939598;}
	.st12{fill:#F7A1A1;}
	.st13{fill:#BCBEC0;}
</style>
<g id="XMLID_453_">
	<path id="XMLID_277_" class="st0" d="M111.9,368.9c-32.3,9.8-25.2,30.9,3.2,35.2c24.1,3.7,41.4-8.9,69.2-6.6c29,2.4,76,2.8,78.8-15
		C266.8,359.1,139.4,357.2,111.9,368.9z"/>
	<path id="XMLID_276_" class="st1" d="M75.1,186.1c8.7,13.3,18.6,22.8,29.5,29.7c-22.9,30.9-30.6,59.8-23.1,86.6l13.5-0.6l2.4,7.5
		c-15,6.4-25.8,28.2-44.9,19.3c18.8,15.4,33.5-5.9,50.3-8.8l4.7,4.8c-14,23.4-17.4,42.6-10.2,57.4c6.7,10.6,43.5,18.8,60.2,2.5
		c0.9-15.4-7.9-29.6-2.5-39.1l17.5,1.3c2.5,11.5,3.1,23.1,1.8,35c7,14.8,50.6,13.2,61.5-1.9c10.5-12.1,7-31.5-11.3-55.8l3.8-6.9
		l1.8-7.5c12.7-1.7,24.2-7.1,33.4-20.4c-1.9-14.5-6.4-26.9-14.9-36.2c15-27.4,23.2-55.2,23.2-83.5c17.5-14.3,17.2-24.6,11.6-22.1
		l-12,5.4c-2-23.1-7.3-44.5-16.8-63.7c16.5-5.5,23.4-17.8,12-30.7c-11.9-8.9,2.9-18.7-1.4-28.6c-5.8-11.1-22.1,0.6-25.1-21
		c-0.8-11-23.1-17.8-44,23l-15.6-4c6.1-6.1-5.8-12.4-17.6-8.5C180.4,5,164.2,2,144.7,24.4c-40.8,9-64.2,32-76.7,59.7
		c-41.7-7.3-63.7,7.3-63.3,21.6C4.5,114.5,18.8,118,7.4,129c-7.8,7.3-9.7,19.3,0.3,22c19.7,8.9,5.9,25.3,13.2,31.8
		c11.6,11,22.4-12.5,32,3.1C58.3,196.1,67.8,195.5,75.1,186.1z"/>
	<path id="XMLID_275_" class="st2" d="M79.7,177c8.6,25.5,39.1,49.4,65.5,49.9c15.7,1.9,28,6.8,33,18.4c5.1,13.5-7.3,38.2-30.8,40.3
		c-7,0.9-5.8-17.3-2.5-30.2l-4,7l-6.9,4.1l-4.6,19.8l-24.5,7.6l-1.7-6.8c-23.7-4.1-3.4-48.7,5-58.1c-18.7,6.3-34.6,42.5-26.7,73.4
		l6.3-0.6H95l2.4,7.5c-15,6.4-25.8,28.2-44.9,19.3c18.8,15.4,33.5-5.9,50.3-8.8l4.7,4.8c-14,23.4-13.3,39.8-6.1,54.6
		c6.7,10.6,30.4,20.9,47.1,4.6c-2.9-7.7-7.1-14.6-20.7-16c-8.5-2.7-1.6-29.8,20-22.4l24.7,1.3c2.1,9.1,24.8-3.8,29.4,7.2
		c7,14.8-12.9,16.2-14.5,27.3c5.3,4.8,37.1,14.2,43.2-3.6c14.5-15-1.2-46.6-6.2-53.6c-22.3,21.7-87.7,25.4-87.6-10.5
		c9.6,6.5,53.4,6.9,82.1-19.9l3.1,11l8.1,5.1c12.7-1.7,17-7.1,26.2-20.4l-12.9,5.5c-13.2-1.2-13.2-8.8,0-33.3
		c-29.9,41.4-62,51.2-94.7,49.8l-2.1-1.4l0.9-5.6l-1.7-1.9c-3.6-5.9-1.3-9.4,6.9-10.7c37.6-6.3,69.3-34.1,62.8-89.2
		c16.5-5.5-32.4,13.4-43.9,0.5l-12.3,14c21.5-31.9-22.5-9.3-52.8-48.3c-31.6-44.9-19.7-103.3,30.8-132
		c-30.1,9.5-49.6,19.8-62.1,47.5c8.2,36.7-38.5,15.7-53.1,33.6c-8.4,8-6.7,21.1-0.5,29.4c10.6,12.9-1,23.3,5.8,29.6
		c11.6,11,15.9-6.3,25.5,9.3C58.3,196.1,72.3,186.4,79.7,177z"/>
	<polygon id="XMLID_274_" class="st3" points="168.2,209.8 196.6,208.8 199.9,211.1 200.1,217.6 193.7,228.9 190.2,231.6 
		186.3,230.2 183.3,227.6 	"/>
	<path id="XMLID_273_" class="st4" d="M168.2,209.8l28.5-1.1l3.2,2.3l0.2,6.6l0,0c-7.3-1.4-11.1-0.7-11.3,2.2
		c-4.8-4.8-9.1-5.1-13.1-1.1L168.2,209.8z"/>
	<path id="XMLID_272_" class="st3" d="M26.1,144.7c2.3,15.1,18.3,24,33,21.3c2.9,5.7,6.2,6.4,9.5,6.9c-7.4-20.1-10-39.7-7.8-58.8
		c-12.7,3.2-22.9-2.4-33.6,4.5C19.3,123.7,19.6,138.1,26.1,144.7z"/>
	<path id="XMLID_271_" class="st5" d="M171.9,165.9c-9.6,4.8-17.8-1.1-26.6-1.6c-8-17.3-2.5-34.9,4.6-36.4
		C160.6,126.7,172.9,141.1,171.9,165.9z"/>
	<path id="XMLID_270_" class="st5" d="M271.8,169.5l-0.4-16.8c5.6-0.6,13.5-8.1,15.3-5.2C288.7,149.7,284.3,160.7,271.8,169.5z"/>
	<path id="XMLID_269_" class="st5" d="M166.1,209.2c5.2-3.6,7.5-8.2,6.9-13.8c38,4.3,50.6-13.5,52.4-8.7
		C226.5,193.4,206.4,222.2,166.1,209.2z"/>
	<path id="XMLID_268_" class="st6" d="M166.1,209.2c9.2,6.3,17.3,22.7,24.1,22.4c3.2-1.1,6.7-6.3,9.9-13.9"/>
	<path id="XMLID_267_" class="st7" d="M173,195.4c38,4.3,50.6-13.5,52.4-8.7c1.1,6.7-19,35.5-59.3,22.5"/>
	<path id="XMLID_266_" class="st7" d="M271.4,152.8c5.6-0.6,13.5-8.1,15.3-5.2c2,2.1-2.5,13.1-14.9,21.9"/>
	<path id="XMLID_265_" class="st8" d="M171.3,153.9l0.6,12c-7.7,4.5-13.8-0.3-20.7-0.5c-6.3-13.6-2.2-28.2,3.3-29.4
		C161.7,134.3,169.5,141,171.3,153.9z"/>
	<path id="XMLID_264_" class="st9" d="M178.9,216.8c5.1-0.8,8,0.6,9.9,3c0.8-2,3.3-3,7.7-3"/>
	<path id="XMLID_263_" class="st6" d="M66.1,111.7c-12.8,8.1-28.2,0.1-38.9,7c-7.9,5-7.6,19.4-1.1,26.1"/>
	<path id="XMLID_262_" d="M158.7,162.7c3.9,0,7.2-3.2,7.2-7.2c0-3.9-3.2-7.2-7.2-7.2c-3.9,0-7.2,3.2-7.2,7.2
		S154.8,162.7,158.7,162.7z"/>
	<path id="XMLID_261_" class="st5" d="M162.9,154.3c1.6,0,2.9-1.3,2.9-2.9s-1.3-2.9-2.9-2.9s-2.9,1.3-2.9,2.9
		S161.3,154.3,162.9,154.3z"/>
	<path id="XMLID_260_" class="st10" d="M129.5,136.3c2.1-7.6,16.7-13.1,10.7-17C134.2,115.6,124.8,128,129.5,136.3z"/>
	<path id="XMLID_259_" class="st3" d="M214.7,41.3c14.6,9.7,25.7,22.8,33.2,35.5c0.9-1.7,0.6-5.9-0.9-7.8c7.1-4.6,7.8-14.1,5.2-21.9
		C245.4,27,228.7,22,214.7,41.3z"/>
	<path id="XMLID_258_" class="st6" d="M252.2,47c-6.8-20-23.4-25-37.5-5.7"/>
	<path class="st11" d="M235.8,379.7c-10.5,11.5-33.9,17.3-56.4,7c11.6-9.3,21.5-12.7,27.5-3.3C208.8,372.8,218.4,371.6,235.8,379.7
		L235.8,379.7z M80.3,297.3l1.2,5.1c16.6,0.7,31.9-1.2,44.3-8.4l3.6-7.6c-5.5-1.6-16.4-2.1-21.3,5.6
		C103.6,283.7,95,284.2,80.3,297.3L80.3,297.3z M156.5,373.1l1,11.3c-14.1,16.3-56,8.1-60.2-2.5c4.2-4.5,9.1-4.1,14.9,1.2
		c11.5-11.5,30.4-11.1,36.2,0.6C149.9,378.5,152.6,375,156.5,373.1L156.5,373.1z M263.5,289.2c-11.4,15.3-24.3,20.1-38.1,20.1
		l-3.4-4.8c2.8-11.7,15.1-15.9,21.4-9.8C246.4,285.1,258.3,283,263.5,289.2z"/>
	<path class="st11" d="M175.1,152.9c-2.6-11.8-10.4-23.7-17.2-26.9C169.1,124.8,176.1,140.7,175.1,152.9L175.1,152.9z M235.7,261.5
		c-9.3,13.1-21.3,23.6-37.2,33.6C215.8,288.9,229.2,277.3,235.7,261.5L235.7,261.5z M167.4,186.2c2.5,9.6,4.3,12.1-4.9,25.2
		C173.4,202.6,177.7,196.1,167.4,186.2L167.4,186.2z M245.5,82c10.2,17.3,16.5,36.5,20.9,59.8C266.8,118.9,259.7,97.5,245.5,82
		L245.5,82z M207.5,19.8c5.9-6.9,18.8-14.3,26.3-15.5C226.9,0.6,214.6,6.8,207.5,19.8L207.5,19.8z M8.8,104.3
		C15,91.4,44.8,83.8,58,86.5C42,80.8,9,87.8,8.8,104.3L8.8,104.3z M130.3,249.1c0.1,8.8-1.9,23.6-5.3,34.2
		C132.3,273.5,135,257,130.3,249.1L130.3,249.1z M149.6,302.3c-10.8-5.2,1.4-10.5,15.7-11.1C153.7,294.6,146,295.1,149.6,302.3
		L149.6,302.3z M223.9,317.9c-7.8,8.6-20,14-30.7,17.1C204.4,335.5,218.1,330.6,223.9,317.9z"/>
	<path id="XMLID_244_" class="st12" d="M219,39.2c8.9-4.2,16.2-5.4,24.4-1.8C234,29.2,227.7,31.1,219,39.2z"/>
	<path id="XMLID_243_" class="st12" d="M24.2,130.7c5.1-9.3,13.8-8.6,25.2-11.3C37,119.1,26.9,116.7,24.2,130.7z"/>
	<path id="XMLID_242_" class="st2" d="M143.1,129.1c-5.1,8.6-1.9,27.9,2.2,35.2h-4.8C134.2,155.1,134.5,139.9,143.1,129.1z"/>
	<path id="XMLID_241_" class="st6" d="M176.7,162.2c-11.7,12.2-25.6-0.4-37.9,2.3"/>
	<path id="XMLID_240_" class="st6" d="M145.3,164.3c-8-17.3-2.5-34.9,4.6-36.4c10.7-1.2,23,13.2,22,38"/>
	<path class="st6" d="M133.9,266.5c3.7-0.9,9.5-4.9,10.9-11.1 M240.4,255.7c1.8,0.4,3.8,1.8,4.5,3.3 M247.3,173.9
		c2.3-1,5.6-1.2,7.8-0.1 M229.7,122c4.3-3.2,10.9-4.3,15.7-4.1 M240.7,138.7c3.1-2.3,7.5-2.6,10.6-2 M207.1,285.7
		c2.3,1.5,4.6,4.3,4.9,6.8 M228.4,269.1c2.1,0.9,4.3,2.9,4.9,5 M162.3,26.5c5.6,3,14.7,4.4,18.2,1.4c51.8,8.1,86.6,63.2,91,126.9
		c4.8,81.3-46.9,161.8-122.9,156.5c-5.6-0.3,2-6.6-3-9c-4.1-4-2.3-8.2,3.5-9.8c33.9-7.9,53.1-35.3,50.6-81.4 M180.5,27.9
		c4.3-5.1,0.7-11.5-17.6-8.5 M152.1,27.3c12.9-8.8,20-15.3,18.8-18.2C168,6,156.7,9.8,144.7,24.5C109.5,30.7,78.1,57.2,68,84.2
		 M60.8,114.2c-6.7,56,26.3,119.1,97.6,112.2c14.5-1.3,22.4,14,31.7,12.7c4.7-0.9,8-5.9,9.7-11.6 M196.1,31.9
		c19.5-39.1,42.7-35.1,44-23c2.9,21.8,20.5,9.9,25.1,21c4.9,11.2-11.1,18,1.4,28.6c8.8,7.5,7.9,24.9-12,30.7 M73.6,85.6
		c-41.9-11.2-68.1,4.2-69,20.3C4.5,114.5,18.8,118,7.4,129c-7.8,7.3-9.7,19.3,0.3,22c19.7,8.9,5.9,25.3,13.2,31.8
		c11.6,11,22.4-12.5,32,3.1c5.4,10.1,14.9,9.6,22.3,0.2 M104.6,215.8c-25.2,32.2-29.3,63.8-23.1,86.6c22.4-0.4,37.2-3.2,44.3-8.4
		c5.6-9.5,8.9-24.8,9.7-46.1 M129.3,286.3c-5.5-1.6-16.4-2.1-21.3,5.6c-4.5-8.1-13.1-7.6-27.8,5.4 M97.4,309.2
		c-18.3,7-21.5,26.9-44.9,19.3c20.4,15.6,30.7-5.7,50.3-8.8 M94.6,302.8c10.1,25.6,26.5,38.6,62.9,42.8
		c33.4,4.6,71.9-15.1,72.6-36.1 M107.4,324.5c-13.5,21.6-17,41.5-10.2,57.4c4.9,10.1,45.2,19.5,60.2,2.5c0.5-14.8-7.7-28.3-2.5-39.1
		 M97.3,381.9c4.2-4.5,9.1-4.1,14.9,1.2c11.5-11.5,30.4-11.1,36.2,0.6c1.5-5.2,4.2-8.7,8.1-10.6 M179.4,386.7
		c11.6-9.3,21.5-12.7,27.5-3.3c1.9-10.6,11.6-11.8,28.9-3.7 M222,304.5c2.8-11.7,15.1-15.9,21.4-9.8c3-9.5,14.9-11.7,20.1-5.5
		 M218.2,288.9c1.6,10,3.2,16.9,7.3,20.4c9.4,1,30.6-6,38.1-20.1c-2.1-14.2-6.3-26.9-14.9-36.2 M172.5,346.6
		c3.3,9.8,3.3,21.9,1.8,35c8.7,15.7,59.9,15.8,66.7-11.9c2.1-15.8-5.5-32.3-16.5-45.8"/>
	<path id="XMLID_216_" class="st6" d="M168.4,185.5c13.8,18-6.5,24.1-9.1,31.3"/>
	<path class="st13" d="M83.9,296.9c3.7-3.4,14.4-8.4,21-5.6C100.8,284.4,86.9,291.7,83.9,296.9L83.9,296.9z M226.2,299.9
		c3.7-3.4,8.2-5.1,13.8-5.6C234.1,292.8,229.2,294.7,226.2,299.9L226.2,299.9z M208.4,383.7c3.9-5.1,12.2-6.7,22.7-3.8
		C220,374.6,210.7,374,208.4,383.7L208.4,383.7z M116.1,382.7c8.5-4.2,17.2-4.7,27.4-2.4C134,374.1,124.3,374.6,116.1,382.7z"/>
</g>
</svg>
