<?xml version="1.0" encoding="utf-8"?>
<!-- Generator: Adobe Illustrator 21.1.0, SVG Export Plug-In . SVG Version: 6.00 Build 0)  -->
<svg version="1.1" id="Layer_1" xmlns="http://www.w3.org/2000/svg" xmlns:xlink="http://www.w3.org/1999/xlink" x="0px" y="0px"
	 viewBox="0 0 40 36" style="enable-background:new 0 0 40 36;" xml:space="preserve">
<style type="text/css">
	.st0{clip-path:url(#SVGID_2_);}
	.st1{fill:#FFFFFF;}
	.st2{fill:#1F862E;}
</style>
<g>
	<g>
		<defs>
			<rect id="SVGID_1_" width="40" height="36"/>
		</defs>
		<clipPath id="SVGID_2_">
			<use xlink:href="#SVGID_1_"  style="overflow:visible;"/>
		</clipPath>
		<g class="st0">
			<path class="st1" d="M18.1,35c-0.5,0-0.9-0.2-1.3-0.7L1.8,20c0,0,0,0-0.1-0.1c-0.9-1.1-0.9-2.7,0-3.8c0,0,0,0,0.1-0.1l15-14.3
				C17.2,1.2,17.6,1,18.1,1c0.7,0,1.5,0.5,1.5,2v6c0,0.6,0.3,0.9,0.4,0.9h9.3h7.3c0.1,0,0.2,0,0.2,0C38,10,39,11.3,39,12.8v10.1
				c0,1.6-1.1,2.9-2.4,2.9L20,26c-0.1,0-0.4,0.3-0.4,0.9v6C19.6,34.5,18.8,35,18.1,35z"/>
			<path class="st2" d="M18.1,2c0.3,0,0.5,0.4,0.5,1v6c0,1.1,0.6,1.9,1.4,1.9h9.3h7.3l0,0c0.8,0,1.4,0.9,1.4,1.9v10.1
				c0,1.1-0.6,1.9-1.4,1.9H20.2H20c-0.8,0-1.4,0.9-1.4,1.9v6c0,0.7-0.2,1-0.5,1c-0.2,0-0.4-0.1-0.6-0.4l-15.1-14
				c-0.6-0.7-0.6-1.8,0-2.5L17.5,2.4C17.7,2.1,17.9,2,18.1,2 M18.1,0L18.1,0c-0.5,0-1.3,0.2-2,1l-15,14.3L1,15.4
				c-1.2,1.4-1.2,3.7,0,5.1c0,0.1,0.1,0.1,0.1,0.1l15,14.3c0.7,0.8,1.5,1,2,1c1.2,0,2.5-1,2.5-3V27h16c1.9,0,3.4-1.7,3.4-3.9V13
				c0-2-1.3-3.7-3-3.9c-0.1,0-0.3,0-0.4,0h-7.3h-8.7V3C20.6,1,19.3,0,18.1,0L18.1,0z"/>
		</g>
	</g>
</g>
</svg>
