<?xml version="1.0" encoding="utf-8"?>
<!-- Generator: Adobe Illustrator 21.1.0, SVG Export Plug-In . SVG Version: 6.00 Build 0)  -->
<svg version="1.1" id="pencil_x5F_blue" xmlns="http://www.w3.org/2000/svg" xmlns:xlink="http://www.w3.org/1999/xlink" x="0px"
	 y="0px" viewBox="0 0 44.6 436.8" style="enable-background:new 0 0 44.6 436.8;" xml:space="preserve">
<style type="text/css">
	.st0{fill:#009CD9;stroke:#18537E;stroke-width:1.7008;stroke-linecap:round;stroke-linejoin:round;stroke-miterlimit:22.9256;}
	.st1{fill:#007BBF;stroke:#18537E;stroke-width:1.7008;stroke-linecap:round;stroke-linejoin:round;stroke-miterlimit:22.9256;}
	.st2{fill:#E2BD89;}
	.st3{fill:#F3DCB5;}
	.st4{fill:#009CD9;}
	.st5{fill:#007BBF;}
	.st6{fill:none;stroke:#18537E;stroke-width:1.7008;stroke-linecap:round;stroke-linejoin:round;stroke-miterlimit:22.9256;}
	.st7{fill:none;stroke:#A0624A;stroke-width:1.7008;stroke-linecap:round;stroke-linejoin:round;stroke-miterlimit:22.9256;}
	.st8{fill:none;stroke:#8C503A;stroke-width:1.7008;stroke-linecap:round;stroke-linejoin:round;stroke-miterlimit:22.9256;}
</style>
<polygon class="st0" points="8.1,74.1 22.3,59.6 43.8,74.1 43.8,436 22.3,436 "/>
<polygon class="st1" points="0.9,74.1 22.3,59.6 22.3,436 0.9,436 "/>
<path class="st2" d="M0.9,74.1c8.2,4.3,17.9,2,21.5-6L33,54.7L22.3,33.1h-9.4L0.9,74.1z"/>
<path class="st3" d="M43.8,74.1c-8.2,4.3-17.9,2-21.5-6v-35h9.4L43.8,74.1z"/>
<polygon class="st4" points="31.7,33.1 22.3,0.9 12.9,33.1 "/>
<polygon class="st5" points="22.3,33.1 22.3,0.9 12.9,33.1 "/>
<polygon class="st6" points="31.7,33.1 22.3,0.9 12.9,33.1 "/>
<path class="st7" d="M12.9,33.1h18.9l12,41c-8.2,4.3-17.9,2-21.5-6"/>
<path class="st8" d="M12.9,33.1l-12,41c8.2,4.3,17.9,2,21.5-6"/>
</svg>
