<?xml version="1.0" encoding="utf-8"?>
<!-- Generator: Adobe Illustrator 21.1.0, SVG Export Plug-In . SVG Version: 6.00 Build 0)  -->
<svg version="1.1" id="Layer_1" xmlns="http://www.w3.org/2000/svg" xmlns:xlink="http://www.w3.org/1999/xlink" x="0px" y="0px"
	 viewBox="0 0 225.3 360.3" style="enable-background:new 0 0 225.3 360.3;" xml:space="preserve">
<style type="text/css">
	.st0{fill:#E6E7E8;}
	.st1{fill:#009CD9;}
	.st2{fill:#007BBF;}
	.st3{fill:#00BBEB;}
	.st4{fill:#F18A2E;}
	.st5{fill:#FAA74A;}
	.st6{fill:#F09D6E;}
	.st7{fill:none;stroke:#A82E31;stroke-width:1.7008;stroke-linecap:round;stroke-linejoin:round;stroke-miterlimit:22.9256;}
	.st8{fill:#FFFFFF;}
	.st9{fill:#C7EAFB;}
	.st10{fill:#A82E31;}
	.st11{fill:none;stroke:#18537E;stroke-width:1.7008;stroke-linecap:round;stroke-linejoin:round;stroke-miterlimit:22.9256;}
	.st12{fill:#F9A57B;}
	.st13{fill:#FDCEAE;}
	.st14{fill:#89D1F4;}
	.st15{fill:#FED1A2;}
</style>
<path class="st0" d="M169.7,304.5c-22.3,5.3,8.1,14.5-2.2,23.6c-9.6,8.6-36.3,2.3-41,10c-4.6,7.5,7,7.3,0.1,15.5
	C108.2,376,4,336.8,33.2,306.5C82.7,255,214.8,293.9,169.7,304.5z"/>
<path class="st1" d="M176.4,72.2c3.3-12.9,0.2-38.5,10-38.6c11.1,3.3,13.7,29.8,8.5,53.5c5.9-9.5,13.3-29.7,17.8-28.4
	c8.3,5.5,3.7,36-11.3,54.8c8.4-2.3,17.4-23.4,21.9-21.4c4,13.8-13.9,60.7-41.9,76.6l-5.9,8.9l-36.4-58.2
	C153.7,119.1,162.3,78.3,176.4,72.2z"/>
<path class="st2" d="M181.8,101.2c13.1-30.9-0.1-47.8,9.7-47.9c11.1,3.3,5.8,24.7,0.6,48.4c5.9-9.5,14.1-27.3,18.6-26
	c8.3,5.5-0.4,31.7-14,46.6c19-5.1,22.1-32,26.6-30.1c4,13.8-13.9,60.7-41.9,76.6l-5.9,8.9l-17.1-41
	C178.5,142.2,167.7,107.2,181.8,101.2z"/>
<path class="st3" d="M38.3,181.8l64.4-19.4c32.6,24.6,25.2,52-15.4,81.8c-23.1,16.5-46,24-68.1-31.9L38.3,181.8z"/>
<path class="st1" d="M174.3,205.3c-12.4,72.5-79.6,109-131.5,73.2c63.5-45.3,79.7-69.4,72.8-96.3c-4.3-18.2-45-13.4-67.1,1.3
	c-10.3,6.1-19.2,13.7-25.6,24.5l-7.3,8.5c-14.7-22.6-17.9-46.8-7.3-73l0.8,5.9l4.1-12.3c9.8,18,21.9,28.4,35.2,34.5
	c22.3-11.1,46.4-20.9,47.2-39.7l-36.7-31.8l17.6-17.8l32.6,16c18.5,15.2,60.1,34,60.4,64.6C169.3,158.4,184.1,192.9,174.3,205.3z"/>
<path class="st2" d="M174.3,205.3c-12.4,72.5-74.3,104.8-126.3,69c63.5-45.3,64.8-43.4,70.8-57.4
	C126.5,235.1,156.2,251.9,174.3,205.3L174.3,205.3z M35.7,179.6c-13.5,10-20.1,22.3-20.1,36.9c-14.7-22.6-17.9-46.8-7.3-73l0.8,5.9
	l0.8,5.9C7.3,182.9,15.5,197.2,35.7,179.6L35.7,179.6z"/>
<path class="st2" d="M95.6,132l-36.7-31.8l13.7-2.9c28.1,19.3,42.7,39.5,33.3,61.4C104.5,148.5,101.1,139.6,95.6,132z"/>
<path class="st3" d="M72.6,97.2c4.4-2.5,6.7-6.5,6-12.7L67,64.8c-12-6.9-22.1-5.1-29.3,9.3l-1.9,4.6l9-5.2
	C26.8,86.7,50.9,108.1,72.6,97.2z"/>
<path class="st4" d="M118.5,78.1L69.9,66.6L65,71.8l1.2,3.8l4.3,3.1c4.7,0.9,16.7,14.5,25,18.8C105.3,103,117.1,98.6,118.5,78.1z"/>
<path class="st5" d="M128.5,52.8c-10.2,0.3-18.6-10.3-29.4-8.9c-14,2.2-9.7,16.9-22.8,18.1c-8,0.3-17,6.1-7.9,15.3
	c-2.7-3.5,1-8.3,3.3-7.1c10.8,10.3,34.5,13.2,46.9,8C141,66.6,143.5,51.3,133,52.5L128.5,52.8z"/>
<path class="st6" d="M136.6,273.1c-7.1,5.1-17.3,11.9-24.5,13.9c0.4,12.2,6.4,20.1,12.6,25c6.9,3.6,11.1,1.2,9.6-2.9
	c-0.9-2.9,0.9-6.9,5.2-4.9c3.6,1.8,9.2,2.9,11.1,0.5c1.7-2.7,0-4.4-2.8-6.3c-3.8-2.5-2.8-7.5,3.7-5.7c6.2,1.8,8.5-5.9,1.6-8.2
	C145.9,282.1,139.2,277.7,136.6,273.1z"/>
<path class="st3" d="M128.5,52.8c-10-0.3-13.7-5.2-20.5-7.8C119.7,31.7,127.8,35.8,128.5,52.8z"/>
<path class="st7" d="M112.1,287c-0.5,8.7,5.5,19.3,12.6,25c5.9,4,10.1,1.2,9.6-3.7c-0.4-4.1,2.3-5.9,6.4-3.5c3.6,1.8,8,2.3,9.9-0.1
	c1.7-2.7,0-4.4-2.8-6.3c-3.8-2.5-2.8-7.5,3.7-5.7c6.2,1.8,8.5-5.9,1.6-8.2c-7.3-2.4-13.2-5.7-15.9-10.2"/>
<path class="st1" d="M56.7,8.2c29-13.6,55.3,2,62.4,29l-4.1,1.5l-7.1,6.2c-10-3.4-17,0.7-22.1,10c-3.4,9.6-13.2,4.6-19.1,10.2
	c-12-6.9-21.6-5-29.1,9.1c-11.5-17.6-11.4-44.4,5.7-58.6c-0.4-3.9,0.5-8.8,3.1-11.3l3.6,10C50,7.9,51.5,3.5,54.5,1
	C55,5.9,56,6.9,56.7,8.2z"/>
<path class="st2" d="M51.6,61.2c-3.2,1-7.1,2.9-13.9,12.9c-9.4-20.2-7.2-42.9,9.9-57.1C42.7,26.8,38.5,55.9,51.6,61.2z"/>
<path class="st8" d="M116.2,38.1l-8.2,6.8l-5.4-1.1L99,43.9c-3.9-15.2-4.6-24.4-1.5-26.5C102.5,16.4,111,25.3,116.2,38.1z"/>
<path class="st9" d="M113.2,39.8l-5.2,5.1l-8.9-1l0.5,1.5c-3.4-9.3-4.4-18.1-1.3-20.2C101.9,23.3,108,27,113.2,39.8z"/>
<path class="st8" d="M57.2,61.4l9.5,3.7c6.3-5,17.1-1.1,19-9.9c-5-15.8-12.8-30.6-18.6-30C60.6,26.1,55.8,45,57.2,61.4z"/>
<path class="st9" d="M57.2,61.4l9.5,3.7c6.3-5,12.2-3.6,14.4-4.3C77.9,37.7,70.3,34.4,66,35.1C58.6,36,57,52.4,57.2,61.4z"/>
<path class="st10" d="M97.7,58.2c2,0,3.6-1.6,3.6-3.6S99.7,51,97.7,51s-3.6,1.6-3.6,3.6C94.1,56.5,95.7,58.2,97.7,58.2z"/>
<path class="st11" d="M174.3,205.3c-12,75.7-85.4,106.9-131.5,73.2"/>
<path class="st1" d="M87.3,244.1c-33.3,26.3-60,43-67.5,60.5c-3.5,4.3-12.3-3.9,0.6-39.4C14.2,270,8.3,284.4,4.1,285
	c-5.7-4.9-1.1-20.2,8.1-40.2c-5.3,5.6-8.9,8.4-10.3,7.2c-2.6-1.8-2.4-19.6,20.9-43.9c-2,4.8,3,10.4,11.8,6.7
	c-3.4,9.1,6.7,13.5,17.6,12.1C42.3,240.6,60,254.9,87.3,244.1z"/>
<path class="st12" d="M89.8,309.5c-7.9-0.8-15.5-3.5-22.3-10c1.7-4.9,6.8-10.8,13.6-15.3c-5.2,1.2-11.3-1.3-17.4-4.7
	c-11.2,9.1-16.5,23-17.8,35.4c0.7,10.7,3.4,18.9,14.1,25.5c5.1,3.3,11.3-0.2,8.6-4.6c-1.4-2.7,0.5-7.1,8.5-3.3
	c5.7,2.7,12.8-3,4.2-8.4c-3.4-2.5,1.6-7.5,7.9-6.1C96.3,318.2,96.2,310.7,89.8,309.5z"/>
<path class="st7" d="M63.8,279.6C54.9,287,46.4,301.7,46,315c-0.1,10.4,7,22,14.1,25.5c6.5,3.3,10.7-0.7,8.6-4.6
	c-1.4-2.8,0.9-5.7,5.5-4.3c5.7,2.1,9.4,2.6,10.6-0.4c1.6-3-0.6-5.5-3.4-7c-3.5-2.8,1.1-7,7.9-6.1c6.4,0.9,7.8-7.1,0.5-8.5
	c-7.7-1.4-16.5-4.5-22.1-9.8"/>
<path class="st13" d="M49.7,322.3c-0.2-9.3,2.1-18.1,7.1-27.8C48.6,302.8,46.6,312.1,49.7,322.3z"/>
<path class="st14" d="M34.8,197.8c19.2-10.8,45-20,64.2-22.6C83.4,169.6,53.3,182.5,34.8,197.8z"/>
<path class="st7" d="M81.2,284.3C71.7,290,64.8,299,67,310.9"/>
<path class="st11" d="M57.8,273.9c8.9,10.2,18.5,12.5,28.6,9.2"/>
<path d="M69.8,59.4c3.8,0,6.9-3.1,6.9-6.9c0-3.8-3.1-6.9-6.9-6.9s-6.9,3.1-6.9,6.9C62.9,56.3,66,59.4,69.8,59.4z"/>
<path d="M106.8,45.4c3,0,5.5-2.5,5.5-5.5s-2.5-5.5-5.5-5.5s-5.5,2.5-5.5,5.5S103.7,45.4,106.8,45.4z"/>
<path class="st8" d="M73.8,52.1c2,0,3.6-1.6,3.6-3.6s-1.6-3.6-3.6-3.6s-3.6,1.6-3.6,3.6S71.9,52.1,73.8,52.1z"/>
<path class="st8" d="M70.7,42.7c2.3,0,4.2-1.9,4.2-4.2s-1.9-4.2-4.2-4.2c-2.3,0-4.2,1.9-4.2,4.2S68.4,42.7,70.7,42.7z"/>
<path class="st8" d="M104,31.1c2.1,0,3.7-1.7,3.7-3.7c0-2.1-1.7-3.7-3.7-3.7c-2.1,0-3.7,1.7-3.7,3.7C100.2,29.4,101.9,31.1,104,31.1
	z"/>
<path class="st8" d="M109,38.6c1.6,0,2.9-1.3,2.9-2.9c0-1.6-1.3-2.9-2.9-2.9s-2.9,1.3-2.9,2.9C106.1,37.4,107.4,38.6,109,38.6z"/>
<path class="st7" d="M73.7,69c-2.8,0.3-4,4-2.2,6.1"/>
<path class="st1" d="M99.7,284.1c9.9-3.9,37.1-13.5,50.4-35.5C143.1,267.8,114.2,286.7,99.7,284.1z"/>
<path class="st11" d="M99.1,43.8c-3.9-15.2-4.6-24.4-1.5-26.5c4.9-0.9,13.4,8,18.6,20.8 M85.7,55.2c-5-15.8-12.8-30.6-18.6-30
	c-6.6,1-11.3,19.8-9.9,36.2 M72.2,22.1c-6.1-3.9-10.8-2.1-13.9,5.5 M66.8,65.1c-12-6.9-21.6-5-29.1,9.1
	c-11.8-18.8-11.4-44.4,5.7-58.6c-0.4-3.9,0.5-8.8,3.1-11.3l3.6,10c0-6.4,1.5-10.8,4.5-13.3c0.3,5,2.2,8.5,5.1,10.9 M37.7,74.2
	l-1.9,4.6l9-5.2c-18,13.2,6.1,34.6,27.8,23.8 M169.4,162.9c8.9,15.2,11.1,37.2,4.8,42.4c-2,0.3-4-1.4-6.1-5.1 M109.1,98.3
	c18.5,15.2,60.1,34,60.4,64.6c-2.2,2.5-5.7,1.6-10.6-2.7 M58.9,100.2c19.6,18,44.9,28.1,47,58.5 M95.6,132
	c-2.7,38.2-77.9,30-80,84.6 M48.4,171.7c-13.4-4.5-25.9-17-35.2-34.5c-3.3,6.9-3.6,13-3.3,18.2l-1.5-11.8
	c-10.6,30.5-6.7,52.9,7,69.7 M12.2,244.8c-5.3,5.6-8.9,8.4-10.3,7.2c-2.5-1.8-2.4-19.6,20.9-43.9c-2,4.8,3,10.4,11.8,6.7
	c-3.4,9.1,6.7,13.5,17.6,12.1c-10,13.8,7.8,28.1,35.1,17.3 M20.4,265.3c-6.7,5.6-13,20.1-16.4,19.7c-4.7,0.3-4.2-32.1,23-59.7
	 M115.5,182.3c12.3,58.7-75.9,82.2-95.7,122.4c-6.1,11.1-13.9-25.6,13-60.3 M181.5,168.7l-5.9,8.9 M139.1,119.4
	c14.6-0.3,21.5-37.2,37.3-47.2c3.5-13.3,1.3-39,10-38.6c6.2,0.7,16.3,25.1,8.5,53.5c10.7-16.2,12.3-28.9,17.8-28.4
	c5.9,2.7,5.2,31.1-11.3,54.8c15.3-11.4,18.1-24.7,21.9-21.4c6.1,8.6-13,60.1-41.9,76.6 M108,44.9c11.7-13.2,19.8-9.1,20.5,7.8
	 M119.2,37.2c-6.8-26.8-36-42.3-61.5-29.4"/>
<path class="st7" d="M70.4,78.7c-6.7-2.8-7.3-9.1-3.7-13.7c5.2-5,14.7-1,18.1-7.6c3-8.1,8.1-13,14.2-13.6
	c12.6-2.1,18.2,11.4,33.9,8.5c4.7-0.9,7.4,2.7,5.4,8c-7.2,16.4-33.9,28.4-63.3,13.1"/>
<path class="st3" d="M63,8.9C73.8,7.3,84.4,8.7,96.4,13C85.5,4.7,74.4,3.8,63,8.9L63,8.9z M14,144.8c4.6,9.9,15,20.9,24.5,25.8
	C27.4,170.3,17,160,14,144.8L14,144.8z M166.4,160.8c-4.6-9.9-12.3-23-22.6-30.5C156.7,134.7,164.4,148.5,166.4,160.8L166.4,160.8z
	 M182.2,71.7c-7.9,8.1-18.6,22-23.6,32.9C160.7,92.6,171.2,74.8,182.2,71.7L182.2,71.7z M173.7,202.1c0.4-6.7-0.1-17.2-2.2-24.7
	C177.1,184.7,176.3,194.8,173.7,202.1z"/>
<path class="st15" d="M98.8,46.3c8.7-5,20.4,11.4,33.7,7.3C119.9,62.4,107.2,44.7,98.8,46.3z"/>
<path class="st7" d="M118.5,78.1c-2.7,28.8-21.4,27-42,4.3"/>
</svg>
