<?xml version="1.0" encoding="utf-8"?>
<!-- Generator: Adobe Illustrator 21.1.0, SVG Export Plug-In . SVG Version: 6.00 Build 0)  -->
<svg version="1.1" id="Bubble" xmlns="http://www.w3.org/2000/svg" xmlns:xlink="http://www.w3.org/1999/xlink" x="0px" y="0px"
	 viewBox="0 0 230.5 205.1" style="enable-background:new 0 0 230.5 205.1;" xml:space="preserve">
<style type="text/css">
	.st0{fill:#FFFFFF;}
	.st1{fill:#E1EEFF;}
	.st2{fill:#73787F;}
	.st3{display:none;}
	.st4{display:inline;}
	.st5{fill:#095878;}
</style>
<g id="XMLID_42_">
	<g id="XMLID_44_">
		<path id="XMLID_187_" class="st0" d="M226.8,89.5c0,24.1-12.8,46-31.1,61.1c-10.1,8.3-21.7,14.7-33.9,19.1
			c-6.5,2.4-13.3,4.3-20.1,5.6c-2.8,0.5-5.7,0.5-8.1,1.2c-2.7,0.8-4.9,2.3-5.6,6.3c-0.7,3.4,0.4,7,2.2,9.9c1.8,3,4.3,5.4,6.7,7.9
			c-12.5-3.3-24.2-9.8-33.7-18.7c-3.5-3.3-3.2-4.2-7.8-5.3c-3.4-0.8-7-1.1-10.4-1.8c-6.7-1.4-13.3-3.4-19.7-5.9
			c-12-4.6-23.3-11.1-33.1-19.4c-17.6-15-30.5-36.5-29.8-60C4.2,24.3,76.8,1,114.6,1C176.6,1,226.8,40.6,226.8,89.5z"/>
	</g>
	<g id="XMLID_40_">
		<path id="XMLID_186_" class="st1" d="M136.3,202c-12.5-3.3-25.1-10.7-34.6-19.6c-3.5-3.3-2-3.2-6.6-4.3c-3.4-0.8-7.1-1.8-10.5-2.6
			c-6.7-1.4-13.2-3.7-19.6-6.1c-12-4.6-23.7-10.7-33.5-19.1c-17.6-15-29.3-33.7-29.2-60.9C2.6,57.1,31.5,23.8,42,22.2
			c1.3,1-17.6,48.7-12.9,71.2C34,117,48.7,138,68,152.4c18.9,14.1,42.1,22,65.6,24.1c-2.7,0.8-4.9,2.3-5.6,6.3
			c-0.7,3.4,0.4,7,2.2,9.9C131.9,195.7,133.8,199.6,136.3,202z"/>
	</g>
	<g id="XMLID_46_">
		<path id="XMLID_257_" class="st2" d="M142.7,205.1l-6.8-1.8c-12.9-3.4-24.8-10-34.5-19.1c-0.9-0.9-1.6-1.6-2.1-2.2
			c-1.5-1.6-1.9-2-4.8-2.7c-1.8-0.4-3.6-0.7-5.5-1c-1.6-0.2-3.3-0.5-4.9-0.8c-6.9-1.5-13.6-3.5-20-6c-12.7-4.9-24-11.6-33.6-19.7
			C11.1,135.3,0,112.9,0,90.3c0-15.8,2.1-25.7,15.1-44.9c12.8-19,37.8-35.9,69.4-42.3C94.1,1,104.1,0,114.1,0
			C177,0,228.3,40.5,228.3,90.3c0,23.1-11.6,45.9-31.8,62.6c-9.9,8.2-21.5,14.7-34.5,19.5c-6.8,2.5-13.7,4.4-20.4,5.7
			c-1.2,0.2-2.4,0.4-3.6,0.5c-1.6,0.2-3,0.3-4.3,0.7c-1.8,0.5-3.6,1.5-4.3,4.8c-0.5,2.6,0.2,5.7,1.9,8.6c1.7,2.8,4.1,5.2,6.4,7.5
			L142.7,205.1z M19.4,43.5C7.6,58.3,2.6,74.6,2.6,90.5c0,21.4,10.7,43.4,29.2,59.2c9.3,7.9,20.8,14.6,33.1,19.4
			c6.2,2.4,9.8,3.8,16.5,5.2c1.5,0.3,11,2.5,12.9,3c3.8,1,3.5-0.2,5.4,1.8c0.5,0.6,3.3,3.8,4.2,4.6c7.5,7.1,20.7,13.7,30.4,17.2
			c-0.7-0.9-4.6-5.7-5.2-6.7c-2.2-3.7-2.6-7.5-1.9-11.1c0.8-4.1,1.6-5.3,5.5-6.4c1.6-0.4,3.3-0.6,4.9-0.8c1.1-0.1,2.4-0.4,3.4-0.6
			c6.5-1.2,13.2-2.8,19.8-5.2c12.6-4.6,25.1-11.2,34.6-19.1c19.3-15.9,30.2-39,30.2-60.9c0-47.7-49.3-88-111.5-88
			c-10.5,0-21,0.8-31,3.1C83.1,5.3,46.9,8.8,19.4,43.5z"/>
	</g>
	<g id="XMLID_79_" class="st3">
		<g id="XMLID_73_" class="st4">
			<path id="XMLID_179_" class="st5" d="M218.3,37.4c2.4,2.9,4,6.3,4.8,10c0.6,2.5,4.5,1.5,3.9-1.1c-1-4.4-3-8.3-5.9-11.8
				C219.6,32.5,216.7,35.4,218.3,37.4L218.3,37.4z"/>
		</g>
	</g>
	<g id="XMLID_173_" class="st3">
		<g id="XMLID_68_" class="st4">
			<path id="XMLID_178_" class="st5" d="M223.8,33.9c1,1.8,2,3.5,2.9,5.3c1.3,2.3,4.8,0.2,3.5-2c-1-1.8-2-3.5-2.9-5.3
				C226,29.6,222.5,31.6,223.8,33.9L223.8,33.9z"/>
		</g>
	</g>
</g>
</svg>
