<?xml version="1.0" encoding="utf-8"?>
<!-- Generator: Adobe Illustrator 21.1.0, SVG Export Plug-In . SVG Version: 6.00 Build 0)  -->
<svg version="1.1" id="Bubble" xmlns="http://www.w3.org/2000/svg" xmlns:xlink="http://www.w3.org/1999/xlink" x="0px" y="0px"
	 viewBox="0 0 230.5 205.1" style="enable-background:new 0 0 230.5 205.1;" xml:space="preserve">
<style type="text/css">
	.st0{fill:#FFFFFF;}
	.st1{fill:#E1EEFF;}
	.st2{fill:#73787F;}
	.st3{display:none;}
	.st4{display:inline;}
	.st5{fill:#095878;}
</style>
<g id="XMLID_42_">
	<g>
		<g id="XMLID_115_">
			<path id="XMLID_116_" class="st0" d="M3.7,89.5c0,24.1,12.8,46,31.1,61.1c10.1,8.3,21.7,14.7,33.9,19.1
				c6.5,2.4,13.3,4.3,20.1,5.6c2.8,0.5,5.7,0.5,8.1,1.2c2.7,0.8,4.9,2.3,5.6,6.3c0.7,3.4-0.4,7-2.2,9.9c-1.8,3-4.3,5.4-6.7,7.9
				c12.5-3.3,24.2-9.8,33.7-18.7c3.5-3.3,3.2-4.2,7.8-5.3c3.4-0.8,7-1.1,10.4-1.8c6.7-1.4,13.3-3.4,19.7-5.9
				c12-4.6,23.3-11.1,33.1-19.4c17.6-15,30.5-36.5,29.8-60C226.3,24.3,153.7,1,115.9,1C53.9,1,3.7,40.6,3.7,89.5z"/>
		</g>
		<g id="XMLID_113_">
			<path id="XMLID_114_" class="st1" d="M94.2,202c12.5-3.3,25.1-10.7,34.6-19.6c3.5-3.3,2-3.2,6.6-4.3c3.4-0.8,7.1-1.8,10.5-2.6
				c6.7-1.4,13.2-3.7,19.6-6.1c12-4.6,23.7-10.7,33.5-19.1c17.6-15,29.3-33.7,29.2-60.9c-0.3-32.3-29.2-65.6-39.7-67.2
				c-1.3,1,17.6,48.7,12.9,71.2c-4.9,23.6-19.6,44.6-38.9,59c-18.9,14.1-42.1,22-65.6,24.1c2.7,0.8,4.9,2.3,5.6,6.3
				c0.7,3.4-0.4,7-2.2,9.9C98.6,195.7,96.7,199.6,94.2,202z"/>
		</g>
		<g id="XMLID_111_">
			<path id="XMLID_112_" class="st2" d="M87.8,205.1l6.8-1.8c12.9-3.4,24.8-10,34.5-19.1c0.9-0.9,1.6-1.6,2.1-2.2
				c1.5-1.6,1.9-2,4.8-2.7c1.8-0.4,3.6-0.7,5.5-1c1.6-0.2,3.3-0.5,4.9-0.8c6.9-1.5,13.6-3.5,20-6c12.7-4.9,24-11.6,33.6-19.7
				c19.4-16.5,30.5-38.9,30.5-61.5c0-15.8-2.1-25.7-15.1-44.9c-12.8-19-37.8-35.9-69.4-42.3C136.4,1,126.4,0,116.4,0
				C53.5,0,2.2,40.5,2.2,90.3c0,23.1,11.6,45.9,31.8,62.6c9.9,8.2,21.5,14.7,34.5,19.5c6.8,2.5,13.7,4.4,20.4,5.7
				c1.2,0.2,2.4,0.4,3.6,0.5c1.6,0.2,3,0.3,4.3,0.7c1.8,0.5,3.6,1.5,4.3,4.8c0.5,2.6-0.2,5.7-1.9,8.6c-1.7,2.8-4.1,5.2-6.4,7.5
				L87.8,205.1z M211.1,43.5c11.8,14.8,16.8,31.1,16.8,47c0,21.4-10.7,43.4-29.2,59.2c-9.3,7.9-20.8,14.6-33.1,19.4
				c-6.2,2.4-9.8,3.8-16.5,5.2c-1.5,0.3-11,2.5-12.9,3c-3.8,1-3.5-0.2-5.4,1.8c-0.5,0.6-3.3,3.8-4.2,4.6
				c-7.5,7.1-20.7,13.7-30.4,17.2c0.7-0.9,4.6-5.7,5.2-6.7c2.2-3.7,2.6-7.5,1.9-11.1c-0.8-4.1-1.6-5.3-5.5-6.4
				c-1.6-0.4-3.3-0.6-4.9-0.8c-1.1-0.1-2.4-0.4-3.4-0.6c-6.5-1.2-13.2-2.8-19.8-5.2c-12.6-4.6-25.1-11.2-34.6-19.1
				C15.8,135.1,4.9,112,4.9,90.1c0-47.7,49.3-88,111.5-88c10.5,0,21,0.8,31,3.1C147.4,5.3,183.6,8.8,211.1,43.5z"/>
		</g>
		<g id="XMLID_108_" class="st3">
			<g id="XMLID_109_" class="st4">
				<path id="XMLID_110_" class="st5" d="M12.2,37.4c-2.4,2.9-4,6.3-4.8,10c-0.6,2.5-4.5,1.5-3.9-1.1c1-4.4,3-8.3,5.9-11.8
					C10.9,32.5,13.8,35.4,12.2,37.4L12.2,37.4z"/>
			</g>
		</g>
		<g id="XMLID_105_" class="st3">
			<g id="XMLID_106_" class="st4">
				<path id="XMLID_107_" class="st5" d="M6.7,33.9c-1,1.8-2,3.5-2.9,5.3c-1.3,2.3-4.8,0.2-3.5-2c1-1.8,2-3.5,2.9-5.3
					C4.5,29.6,8,31.6,6.7,33.9L6.7,33.9z"/>
			</g>
		</g>
	</g>
</g>
</svg>
