<?xml version="1.0" encoding="utf-8"?>
<!-- Generator: Adobe Illustrator 21.1.0, SVG Export Plug-In . SVG Version: 6.00 Build 0)  -->
<svg version="1.1" id="Button_02" xmlns="http://www.w3.org/2000/svg" xmlns:xlink="http://www.w3.org/1999/xlink" x="0px" y="0px"
	 viewBox="0 0 543 123" style="enable-background:new 0 0 543 123;" xml:space="preserve">
<style type="text/css">
	.st0{fill:#FFD83B;stroke:#957D1B;stroke-width:3;stroke-linejoin:round;}
	.st1{opacity:5.000000e-02;enable-background:new    ;}
	.st2{opacity:0.8;fill:#FFFFFF;enable-background:new    ;}
</style>
<path id="Body" class="st0" d="M61.5,1.5h420c33.1,0,60,26.9,60,60l0,0c0,33.1-26.9,60-60,60h-420c-33.1,0-60-26.9-60-60l0,0
	C1.5,28.4,28.4,1.5,61.5,1.5z"/>
<path id="Shadow" class="st1" d="M61.5,19.5h420c33.1,0,68.5,38.2,53.8,68.8l6.2-8.8c-23.3,32.7-30.2,34.8-60,42h-420
	c-33-7-33-7-52.8-31.8v0C1.3,58.7,26,20.2,61.5,19.5z"/>
<path id="Glow" class="st2" d="M19.5,30.5c0,0,11.5-23,48-23C47.2,13,39.6,14.5,19.5,30.5z"/>
</svg>
