<?xml version="1.0" encoding="iso-8859-1"?>
<!-- Generator: Adobe Illustrator 19.0.0, SVG Export Plug-In . SVG Version: 6.00 Build 0)  -->
<svg version="1.1" id="Layer_1" xmlns="http://www.w3.org/2000/svg" xmlns:xlink="http://www.w3.org/1999/xlink" x="0px" y="0px"
	 viewBox="0 0 32.657 32.657" style="enable-background:new 0 0 32.657 32.657;" xml:space="preserve">
<g id="XMLID_4_">
	<polygon id="XMLID_17_" style="fill:#FFFFFF;" points="16.328,22.005 7.092,31.242 1.414,25.566 10.651,16.328 1.414,7.092 
		7.092,1.414 16.328,10.651 25.566,1.414 31.242,7.092 22.005,16.328 31.242,25.566 25.566,31.242 	"/>
	<path id="XMLID_14_" style="fill:#238642;" d="M25.565,2.828l4.263,4.263l-9.237,9.237l9.237,9.237l-4.263,4.263l-9.237-9.237
		l-9.237,9.237l-4.263-4.263l9.237-9.237L2.828,7.092l4.263-4.263l9.237,9.237L25.565,2.828 M25.565,0l-1.414,1.414l-7.823,7.823
		L8.506,1.414L7.092,0L5.677,1.414L1.414,5.677L0,7.092l1.414,1.414l7.823,7.823l-7.823,7.823L0,25.565l1.414,1.414l4.263,4.263
		l1.414,1.414l1.414-1.414l7.823-7.823l7.823,7.823l1.414,1.414l1.414-1.414l4.263-4.263l1.414-1.414l-1.414-1.414l-7.823-7.823
		l7.823-7.823l1.414-1.414l-1.414-1.414l-4.263-4.263L25.565,0L25.565,0z"/>
</g>
<g id="XMLID_20_">
</g>
<g id="XMLID_21_">
</g>
<g id="XMLID_22_">
</g>
<g id="XMLID_23_">
</g>
<g id="XMLID_24_">
</g>
<g id="XMLID_25_">
</g>
</svg>
