<?xml version="1.0" encoding="utf-8"?>
<!-- Generator: Adobe Illustrator 21.1.0, SVG Export Plug-In . SVG Version: 6.00 Build 0)  -->
<svg version="1.1" id="Layer_1" xmlns="http://www.w3.org/2000/svg" xmlns:xlink="http://www.w3.org/1999/xlink" x="0px" y="0px"
	 viewBox="0 0 32 22.1" style="enable-background:new 0 0 32 22.1;" xml:space="preserve">
<style type="text/css">
	.st0{clip-path:url(#SVGID_2_);}
	.st1{fill:#FFFFFF;stroke:#957D1B;stroke-width:2;stroke-miterlimit:10;}
</style>
<g>
	<g>
		<defs>
			<rect id="SVGID_1_" width="32" height="22"/>
		</defs>
		<clipPath id="SVGID_2_">
			<use xlink:href="#SVGID_1_"  style="overflow:visible;"/>
		</clipPath>
		<g class="st0">
			<path class="st1" d="M1,19.8c0,0.7,0.6,1.3,1.4,1.3h27.3c0.8,0,1.4-0.6,1.4-1.3V6.5l-14.4,7.4l0,0l0,0l0,0l0,0c0,0,0,0-0.1,0l0,0
				c0,0,0,0-0.1,0l0,0c0,0,0,0-0.1,0l0,0h-0.1l0,0h-0.1l0,0h-0.1l0,0l0,0H16l0,0h-0.1l0,0h-0.1l0,0c0,0,0,0-0.1,0l0,0c0,0,0,0-0.1,0
				l0,0c0,0,0,0-0.1,0l0,0l0,0l0,0l0,0L1,6.5V19.8"/>
			<path class="st1" d="M3.7,6.9L16,13.3l15-7.7V2.4c0-0.7-0.6-1.3-1.4-1.3H2.4C1.6,1.1,1,1.7,1,2.4v3.1L3.7,6.9"/>
		</g>
	</g>
</g>
</svg>
