<?xml version="1.0" encoding="utf-8"?>
<!-- Generator: Adobe Illustrator 21.1.0, SVG Export Plug-In . SVG Version: 6.00 Build 0)  -->
<svg version="1.1" id="Layer_1" xmlns="http://www.w3.org/2000/svg" xmlns:xlink="http://www.w3.org/1999/xlink" x="0px" y="0px"
	 viewBox="0 0 543 123" style="enable-background:new 0 0 543 123;" xml:space="preserve">
<style type="text/css">
	.st0{fill:#37CC4C;stroke:#1F862E;stroke-width:3;}
	.st1{opacity:5.100000e-02;enable-background:new    ;}
	.st2{opacity:0.8;fill:#FFFFFF;enable-background:new    ;}
</style>
<path class="st0" d="M61.5,1.5h420c33.1,0,60,26.9,60,60s-26.9,60-60,60h-420c-33.1,0-60-26.9-60-60S28.4,1.5,61.5,1.5z"/>
<path class="st1" d="M61.5,19.5h420c33.1,0,74.9,41.9,54.2,67.8c-21.6,27-21.6,27-54.2,34.2h-420c-35.5-11-37-6.7-52.3-30
	C-9,63.9,28.4,19.5,61.5,19.5z"/>
<path class="st2" d="M19.5,30.5c0,0,11.5-23,48-23C47.2,13,39.6,14.5,19.5,30.5z"/>
</svg>
