<?xml version="1.0" encoding="iso-8859-1"?>
<!-- Generator: Adobe Illustrator 19.0.0, SVG Export Plug-In . SVG Version: 6.00 Build 0)  -->
<svg version="1.1" id="padlock" xmlns="http://www.w3.org/2000/svg" xmlns:xlink="http://www.w3.org/1999/xlink" x="0px" y="0px"
	 viewBox="0 0 39 50" style="enable-background:new 0 0 39 50;" xml:space="preserve">
<g>
	<path style="fill:#FFFFFF;" d="M5.601,49c-1.227,0-2.381-0.48-3.25-1.354c-0.876-0.88-1.355-2.05-1.35-3.293V24.258
		C1,21.933,2.708,20,4.926,19.667V15.81C4.926,7.644,11.514,1,19.612,1c8.097,0,14.685,6.644,14.685,14.81v3.91
		C36.438,20.168,38,22.033,38,24.258v20.099C38,46.917,35.933,49,33.391,49H5.601z M26.314,19.616V15.81
		c0-3.735-3.007-6.773-6.703-6.773c-3.696,0-6.704,3.038-6.704,6.773v3.807H26.314z"/>
	<path style="fill:#989898;" d="M19.612,2c7.545,0,13.685,6.196,13.685,13.809v4.807h0.093c1.991,0,3.61,1.633,3.61,3.642v20.099
		C37,46.366,35.381,48,33.39,48H5.601C3.61,48,1.991,46.366,2,44.358V24.258c0-2.009,1.619-3.642,3.61-3.642h0.317v-4.807
		C5.926,8.196,12.066,2,19.612,2 M11.908,20.616h15.407v-4.807c0-4.29-3.461-7.773-7.703-7.773c-4.252,0-7.704,3.492-7.704,7.773
		V20.616 M19.612,0C10.963,0,3.926,7.092,3.926,15.809v3.066C1.653,19.596,0,21.737,0,24.258v20.099
		c-0.007,1.502,0.576,2.924,1.641,3.994C2.699,49.414,4.106,50,5.601,50h27.79c3.093,0,5.61-2.531,5.61-5.642V24.258
		c0-2.438-1.545-4.52-3.703-5.307v-3.142C35.297,7.092,28.261,0,19.612,0L19.612,0z M13.908,18.616v-2.807
		c0-3.183,2.559-5.773,5.704-5.773c3.145,0,5.703,2.59,5.703,5.773v2.807H13.908L13.908,18.616z"/>
</g>
</svg>
