<?xml version="1.0" encoding="utf-8"?>
<!-- Generator: Adobe Illustrator 21.1.0, SVG Export Plug-In . SVG Version: 6.00 Build 0)  -->
<svg version="1.1" id="Layer_1" xmlns="http://www.w3.org/2000/svg" xmlns:xlink="http://www.w3.org/1999/xlink" x="0px" y="0px"
	 viewBox="0 0 36 31" style="enable-background:new 0 0 36 31;" xml:space="preserve">
<style type="text/css">
	.st0{fill:#FFFFFF;}
	.st1{fill:#1F862E;}
</style>
<g id="XMLID_67_">
	<g id="XMLID_20_">
		<rect id="XMLID_491_" x="1" y="1" class="st0" width="34" height="7"/>
		<path id="XMLID_488_" class="st1" d="M34,2v5H2V2H34 M36,0h-2H2H0v2v5v2h2h32h2V7V2V0L36,0z"/>
	</g>
	<g id="XMLID_62_">
		<rect id="XMLID_487_" x="1" y="12" class="st0" width="34" height="7"/>
		<path id="XMLID_483_" class="st1" d="M34,13v5H2v-5H34 M36,11h-2H2H0v2v5v2h2h32h2v-2v-5V11L36,11z"/>
	</g>
	<g id="XMLID_66_">
		<rect id="XMLID_497_" x="1" y="23" class="st0" width="34" height="7"/>
		<path id="XMLID_494_" class="st1" d="M34,24v5H2v-5H34 M36,22h-2H2H0v2v5v2h2h32h2v-2v-5V22L36,22z"/>
	</g>
</g>
</svg>
