<?xml version="1.0" encoding="utf-8"?>
<!-- Generator: Adobe Illustrator 21.1.0, SVG Export Plug-In . SVG Version: 6.00 Build 0)  -->
<svg version="1.1" id="Layer_1" xmlns="http://www.w3.org/2000/svg" xmlns:xlink="http://www.w3.org/1999/xlink" x="0px" y="0px"
	 viewBox="0 0 58 53" style="enable-background:new 0 0 58 53;" xml:space="preserve">
<style type="text/css">
	.st0{fill:#FFFFFF;}
	.st1{fill:#1F862E;}
</style>
<g>
	<path class="st0" d="M16.3,52h-0.2L4.3,50c-0.3-0.1-0.6-0.2-0.9-0.5c-0.1-0.2-0.2-0.4-0.3-0.6c-0.1-0.6,0-1.1,0.5-1.5L6.7,45
		c0.1-0.1,0.1-0.1,0.1-0.2c0,0,0-0.1,0-0.2C2.4,39,0.4,32.1,1.2,25.1C2,17.9,5.7,11.4,11.5,6.9c5-3.9,11.1-6,17.5-6
		c1,0,2.1,0.1,3.1,0.2c7.4,0.8,14.1,4.3,18.8,10s6.8,12.8,6,20C56.2,37.7,53,43.8,48,48.2c-0.3,0.2-0.6,0.4-0.9,0.4H47
		c-0.4,0-0.8-0.2-1-0.5l-2.3-2.8c-0.5-0.6-0.4-1.4,0.1-2c8.1-7.3,9-19.7,2.1-28l-0.1-0.1c-3.5-4.2-8.6-6.9-14.2-7.5
		c-0.8-0.1-1.7-0.1-2.5-0.1c-4.8,0-9.3,1.5-13,4.3c-4.5,3.4-7.3,8.2-8.1,13.6c-0.7,5.4,0.7,10.8,4.1,15.1c0,0.1,0.1,0.1,0.2,0.1l0,0
		c0.1,0,0.2,0,0.2-0.1l3.6-2.8c0.3-0.2,0.6-0.3,0.9-0.3c0.2,0,0.4,0.1,0.6,0.2c0.5,0.3,0.8,0.8,0.8,1.3l-0.5,11.6
		c0,0.4-0.2,0.8-0.5,1.1C17,51.9,16.7,52,16.3,52L16.3,52z"/>
	<path class="st1" d="M29,2c1,0,2,0.1,3,0.2c7.2,0.8,13.6,4.2,18.1,9.6c4.5,5.5,6.6,12.3,5.8,19.2c-0.7,6.3-3.8,12.2-8.6,16.5
		c-0.1,0.1-0.2,0.1-0.3,0.1l0,0c-0.1,0-0.2,0-0.3-0.2l-2.4-2.8c-0.1-0.2-0.1-0.4,0-0.6c8.5-7.7,9.5-20.6,2.2-29.4l-0.1-0.1
		c-3.7-4.4-9-7.2-14.8-7.8c-0.9-0.1-1.7-0.1-2.6-0.1c-4.9,0-9.7,1.6-13.6,4.5c-4.7,3.5-7.7,8.6-8.5,14.3s0.8,11.3,4.3,15.9
		c0.2,0.3,0.5,0.4,0.9,0.5c0.1,0,0.1,0,0.2,0c0.3,0,0.6-0.1,0.8-0.3l3.6-2.8c0.1-0.1,0.2-0.1,0.3-0.1s0.2,0,0.2,0
		c0.1,0,0.3,0.2,0.2,0.4l-0.5,11.6c0,0.2-0.1,0.3-0.2,0.3c0,0-0.1,0.1-0.3,0.1h-0.1L4.5,49c-0.1,0-0.2-0.1-0.3-0.1
		c0-0.1-0.1-0.1-0.1-0.2c0-0.1,0-0.3,0.1-0.4l3.1-2.4c0.5-0.4,0.6-1.2,0.2-1.7c-4.2-5.4-6.2-12-5.4-18.8c0.8-7,4.3-13.2,9.9-17.6
		C17,4,22.8,2,29,2 M29,0c-6.6,0-12.9,2.1-18.1,6.2C4.8,10.9,1,17.6,0.2,25.1c-0.8,7,1.1,13.9,5.3,19.6l-2.5,2
		c-0.8,0.6-1.1,1.6-0.9,2.5c0.1,0.3,0.3,0.7,0.5,0.9c0.4,0.4,0.9,0.7,1.5,0.8l11.8,2c0.1,0,0.3,0,0.4,0c0.5,0,1.1-0.2,1.5-0.5
		c0.6-0.4,0.9-1.1,0.9-1.8L19.3,39c0-1-0.5-1.9-1.4-2.3c-0.3-0.2-0.7-0.3-1.1-0.3c-0.5,0-1.1,0.2-1.5,0.5l-3.1,2.4
		c-2.9-4-4.1-8.9-3.5-13.8c0.7-5.2,3.4-9.8,7.7-13c3.6-2.7,7.9-4.1,12.4-4.1c0.8,0,1.6,0,2.4,0.1c5.3,0.6,10.1,3.1,13.5,7.1l0.1,0.1
		c6.6,8,5.7,19.7-2,26.7c-1,0.9-1.1,2.3-0.2,3.3l2.3,2.8c0.4,0.5,1,0.8,1.7,0.9h0.1h0.1c0.6,0,1.2-0.2,1.6-0.6
		c5.2-4.6,8.5-10.9,9.3-17.7c0.8-7.5-1.4-14.9-6.2-20.7C46.7,4.5,39.7,0.9,32.1,0C31.1,0,30,0,29,0L29,0z"/>
</g>
</svg>
