<?xml version="1.0" encoding="utf-8"?>
<!-- Generator: Adobe Illustrator 21.1.0, SVG Export Plug-In . SVG Version: 6.00 Build 0)  -->
<svg version="1.1" id="Layer_1" xmlns="http://www.w3.org/2000/svg" xmlns:xlink="http://www.w3.org/1999/xlink" x="0px" y="0px"
	 viewBox="0 0 29 37" style="enable-background:new 0 0 29 37;" xml:space="preserve">
<style type="text/css">
	.st0{clip-path:url(#SVGID_2_);}
	.st1{fill:#FFFFFF;}
	.st2{fill:#957D1B;}
</style>
<g>
	<g>
		<defs>
			<rect id="SVGID_1_" width="29" height="37"/>
		</defs>
		<clipPath id="SVGID_2_">
			<use xlink:href="#SVGID_1_"  style="overflow:visible;"/>
		</clipPath>
		<g class="st0">
			<path class="st1" d="M4.6,36c-1,0-1.8-0.4-2.5-1.1C1.4,34.3,1,33.4,1,32.4V18c0-1.7,1.2-3.2,2.8-3.5V12c0-6.1,4.8-11,10.8-11
				c5.9,0,10.8,4.9,10.8,10.9v2.6c1.5,0.4,2.6,1.8,2.6,3.5v14.4c0,2-1.6,3.6-3.6,3.6H4.6z M19.1,14.4V12c0-2.5-2-4.6-4.5-4.6
				s-4.5,2.1-4.5,4.6v2.4H19.1z"/>
			<path class="st2" d="M14.6,2c5.4,0,9.8,4.4,9.8,9.9v3.4h0.1c1.4,0,2.6,1.2,2.6,2.6v14.4c0,1.4-1.2,2.6-2.6,2.6H4.6
				C3.1,35,2,33.8,2,32.4V18c0-1.4,1.2-2.6,2.6-2.6h0.2V12C4.8,6.4,9.2,2,14.6,2 M9.1,15.4h11V12c0-3.1-2.5-5.6-5.5-5.6
				S9.1,8.9,9.1,12V15.4 M14.6,0C8.1,0,2.8,5.3,2.8,11.9v1.8C1.2,14.4,0,16.1,0,18v14.4c0,1.2,0.5,2.4,1.3,3.3
				c0.9,0.9,2,1.3,3.2,1.3h19.8c2.5,0,4.6-2.1,4.6-4.6V18c0-1.8-1.1-3.4-2.6-4.2v-1.9C26.4,5.3,21.1,0,14.6,0L14.6,0z M11.1,13.4V12
				c0-2,1.6-3.6,3.5-3.6s3.5,1.6,3.5,3.6v1.4H11.1L11.1,13.4z"/>
		</g>
	</g>
</g>
</svg>
