<?xml version="1.0" encoding="utf-8"?>
<!-- Generator: Adobe Illustrator 21.1.0, SVG Export Plug-In . SVG Version: 6.00 Build 0)  -->
<svg version="1.1" id="svg" xmlns="http://www.w3.org/2000/svg" xmlns:xlink="http://www.w3.org/1999/xlink" x="0px" y="0px"
	 viewBox="0 0 400.1 436.3" style="enable-background:new 0 0 400.1 436.3;" xml:space="preserve">
<style type="text/css">
	.st0{fill:#FFFFFF;}
	.st1{fill:#1E7085;}
</style>
<g id="svgg">
	<path id="path0" class="st0" d="M89.1,18.4C43.1,33.4,2.5,239,23.6,349c11.7,60.9,36,78.8,88.8,65.5
		c84.3-21.1,232.7-134.6,264.9-202.6c10.9-23,3.7-38.7-16.2-35.1c-5.8,1-10.7,3-35.6,14.1c-30.1,13.4-45.3,13.9-57.5,1.8
		c-13.3-13.2-12.9-30.9,1.8-79.7c14.2-47.1,14.2-61.4,0.2-69.7c-13.6-8.1-26.6-0.8-58.3,32.8c-38.5,40.9-53.9,49.9-73.3,42.6
		c-15.4-5.8-21.1-19.2-24.9-58.7c-2.4-24.4-4.3-31.9-9.5-37.6C100.6,18.5,93.9,16.8,89.1,18.4"/>
	<path id="path1" class="st1" d="M85.1,1.2C79.3,2.7,78.4,3,76,4.7c-1,0.7-2.4,1.5-2.9,1.7c-1.4,0.5-8,6.3-10.4,9
		c-2.8,3.2-5,5.9-5.2,6.5c-0.2,0.6-2.1,3.2-3.4,4.6c-0.5,0.6-1.9,2.7-3,4.8c-1.2,2.1-2.9,5.2-3.9,6.8c-1,1.7-2,3.5-2.2,4.1
		c-0.2,0.6-1.4,3.2-2.6,5.7c-1.2,2.5-2.7,5.7-3.2,7c-3.1,8.1-4.7,12.4-5.9,15.2c-0.7,1.8-1.3,3.5-1.3,3.8c0,0.3-1.3,4.5-2.9,9.2
		c-1.6,4.8-3.1,9.9-3.5,11.5c-0.3,1.6-1.5,5.9-2.5,9.6c-1.1,3.7-2.4,8.7-2.9,11.1c-0.5,2.4-1.9,8.4-3.1,13.3
		c-1.2,4.9-2.6,11.6-3.2,14.8c-4.7,24.8-6.6,35.9-7.1,41c-0.1,1.6-0.7,6.4-1.3,10.8C-1.1,245.9-1.9,302,3.7,337.4
		c2.6,16.4,3.6,20.8,9,40.8c1,3.6,3.9,11.3,4.9,13.2c0.2,0.4,1.2,2.4,2.1,4.5s2.5,4.9,3.4,6.3c0.9,1.4,2,3.2,2.4,4
		c2.4,4.7,11.4,14.6,15.9,17.5c1.7,1.1,3.3,2.2,3.5,2.5c1.8,2.2,11,6,20.3,8.3l6.8,1.7h11.6c13.1,0,13.6-0.1,29.9-4
		c12.4-3,27.2-7.7,35.6-11.3c2-0.9,5.6-2.4,7.9-3.3c5.3-2.2,13.2-5.9,20.1-9.5c3-1.6,6.8-3.5,8.5-4.3c1.7-0.8,3.6-1.8,4.2-2.3
		c0.6-0.4,3.6-2.1,6.6-3.7c3-1.6,6-3.4,6.7-3.9c0.7-0.5,2.5-1.6,3.9-2.3c1.4-0.7,4.1-2.3,5.9-3.5c1.8-1.2,3.8-2.4,4.4-2.7
		c1.5-0.7,16.1-10.3,17.5-11.5c0.6-0.5,2-1.4,3.1-1.9c1.1-0.5,2.3-1.3,2.8-1.8c0.5-0.5,3.1-2.4,5.9-4.2c2.7-1.9,5.9-4.1,7.1-5.1
		c1.2-0.9,2.3-1.7,2.5-1.7c0.2,0,1.5-0.9,2.9-2.1c1.4-1.1,3.5-2.8,4.7-3.6c4.1-2.9,14.4-10.6,15.7-11.8c0.7-0.7,2.2-1.9,3.3-2.7
		c1.1-0.8,3.3-2.5,4.8-3.7c1.5-1.3,4.3-3.5,6.2-5c1.9-1.5,3.6-2.9,3.9-3.2c0.3-0.2,3.4-2.9,7-5.9c3.5-3,6.4-5.6,6.4-5.8
		c0-0.2,0.5-0.6,1.1-0.9c0.6-0.3,2.7-2.1,4.6-3.8s4.9-4.5,6.6-6.1c12.4-11.4,25.7-24.8,34.9-35.2c6.5-7.3,9.7-11.1,9.9-11.6
		c0.1-0.3,1-1.5,2.1-2.7c1.1-1.2,3.1-3.8,4.6-5.9s3.4-4.6,4.3-5.7c0.9-1.1,1.7-2.2,1.7-2.5s1-1.9,2.3-3.6
		c2.6-3.5,9.5-15.5,10.5-18.2c0.4-1,1.3-3.3,2-5.2c6-15.3,5.7-32.8-0.7-40.6c-0.6-0.7-1.7-2.3-2.5-3.5c-0.8-1.2-2.2-2.8-3.2-3.5
		c-1-0.7-2.7-2.1-3.9-3c-2.4-1.9-3.8-2.4-10.4-4c-5.9-1.5-10.3-1.5-16-0.2c-2.2,0.5-5,1.1-6.2,1.3c-4.1,0.7-9.3,2.6-16.3,5.7
		c-1,0.5-2,0.8-2.3,0.8c-0.3,0-3.2,1.4-6.6,3.1c-3.4,1.7-6.4,3.1-6.6,3.1c-0.2,0-1.6,0.6-3.1,1.3c-5.5,2.6-9.3,4.3-11,4.8
		c-1,0.3-3.3,1.1-5.3,1.8c-12,4.2-19.9,2.5-23.4-5l-1.5-3.2l0-7.9c0-6.1,0.2-9,1-12.9c0.5-2.8,1.2-6.5,1.5-8.3
		c0.3-1.8,1.9-7.5,3.5-12.7c1.6-5.1,3.2-10.7,3.7-12.4c0.5-1.7,1.4-4.7,2-6.8c2.4-7.7,7.7-28.2,9-35.6c1.9-10.3,0-25.4-4.3-33.8
		c-7.8-15.3-25.2-22.9-42-18.6c-3.2,0.8-6.2,1.5-6.6,1.5c-0.9,0-7,3.2-9.6,5c-1.1,0.8-2.5,1.6-3.1,1.9c-0.6,0.3-1.6,1-2.2,1.5
		c-0.6,0.5-2.6,2.1-4.4,3.5c-4.5,3.3-14.9,13.5-26.4,25.8c-27.8,29.7-39.6,39.1-49.3,39.2c-10.6,0.1-14.8-8.7-17.4-35.9
		c-1.5-15.9-2.6-24.4-3.7-29.1c-0.5-2.1-1.2-5.5-1.6-7.4C122.9,8.5,105-4,85.1,1.2 M99.9,19.2c8.1,4,10.9,12.2,13.6,40.7
		c3.8,39.5,9.5,52.9,24.9,58.7c19.4,7.3,34.8-1.6,73.3-42.6c31.6-33.6,44.6-41,58.3-32.8c14,8.4,14,22.7-0.2,69.7
		c-14.7,48.8-15.1,66.5-1.8,79.7c12.2,12.1,27.4,11.6,57.5-1.8c30.7-13.7,34.1-14.9,42.6-14.4c9.9,0.5,15.7,8.7,14.2,20
		c-6.9,50.3-137.6,164.5-236.2,206.4c-42.6,18.1-74.2,20.7-92.4,7.7c-28-19.9-40.7-86.2-34-176.6C29,108.1,68.1,3.7,99.9,19.2"/>
</g>
</svg>
