<?xml version="1.0" encoding="utf-8"?>
<!-- Generator: Adobe Illustrator 21.1.0, SVG Export Plug-In . SVG Version: 6.00 Build 0)  -->
<svg version="1.1" id="svg" xmlns="http://www.w3.org/2000/svg" xmlns:xlink="http://www.w3.org/1999/xlink" x="0px" y="0px"
	 viewBox="0 0 399.7 99.2" style="enable-background:new 0 0 399.7 99.2;" xml:space="preserve">
<style type="text/css">
	.st0{fill:#73787F;}
	.st1{fill:#6D7FD9;}
	.st2{fill:#798DF2;}
</style>
<g id="svgg">
	<path id="path0" class="st0" d="M44.3,0.2C-12.3,7.4-15.7,87,40.1,98.3l4.1,0.8l156.8-0.1L357.9,99l4.6-1.3
		C405.6,86,413.3,29.6,375,6.6c-4.8-2.9-11.7-5.2-18.8-6.2C353.5,0,47.4-0.2,44.3,0.2 M358,7.4c46.1,8.7,46.8,73,1,84.5
		c-3.4,0.8-306.9,1.3-314.2,0.5c-17-1.9-30.9-13.3-36.2-29.5C0.4,38,16.5,11.6,42.4,7.2C46.3,6.5,354.5,6.7,358,7.4"/>
	<path id="path1" class="st1" d="M380.5,19.4c0.7,0.8,1.4,1.4,1.6,1.4c0.1,0-0.4-0.6-1.2-1.4s-1.4-1.4-1.6-1.4
		C379.2,18,379.7,18.6,380.5,19.4 M45.3,26.8C28.7,28.2,14.1,39.8,8.5,56l-1.2,3.4l1.1,3.4C13.8,79,27.8,90.4,44.7,92.4
		c7.3,0.8,310.9,0.4,314.2-0.5c15.9-4,27.3-14.3,32.1-29l1.1-3.3l-1.2-3.6c-5.6-16.6-19.9-27.8-37.6-29.2
		C347.6,26.3,50.8,26.3,45.3,26.8"/>
	<path id="path2" class="st2" d="M41.8,7.4C18.5,11.6,1.9,36,7.2,58l0.3,1.4L8.2,57C13.1,40.5,28.4,28.2,46,26.8
		c6.3-0.5,301-0.5,307.2,0c17.7,1.5,32,12.6,37.6,29c1.3,3.9,1.4,3.8,2.1-1.9c2.2-20.6-11.4-40.1-32-45.8L357.1,7L200.9,6.9
		C73.9,6.8,44.1,6.9,41.8,7.4"/>
</g>
</svg>
