<?xml version="1.0" encoding="utf-8"?>
<!-- Generator: Adobe Illustrator 21.1.0, SVG Export Plug-In . SVG Version: 6.00 Build 0)  -->
<svg version="1.1" id="Bar" xmlns="http://www.w3.org/2000/svg" xmlns:xlink="http://www.w3.org/1999/xlink" x="0px" y="0px"
	 viewBox="0 0 404 59" style="enable-background:new 0 0 404 59;" xml:space="preserve">
<style type="text/css">
	.st0{fill:#CFC1A2;}
	.st1{opacity:5.000000e-02;enable-background:new    ;}
	.st2{fill:#BAAE92;}
	.st3{fill:#C4B79A;}
</style>
<path id="Rounded_Rectangle_3" class="st0" d="M10,18h347c5.5,0,10,4.5,10,10l0,0c0,5.5-4.5,10-10,10H10C4.5,38,0,33.5,0,28l0,0
	C0,22.5,4.5,18,10,18z"/>
<path id="Rounded_Rectangle_3-2" class="st0" d="M10,18h347c5.5,0,10,4.5,10,10l0,0c0,5.5-4.5,10-10,10H10C4.5,38,0,33.5,0,28l0,0
	C0,22.5,4.5,18,10,18z"/>
<path id="Rounded_Rectangle_3-3" class="st1" d="M12,3h347c5.5,0,10,4.5,10,10l0,0c0,5.5-4.5,10-10,10H12C6.5,23,2,18.5,2,13l0,0
	C2,7.5,6.5,3,12,3z"/>
<path id="Rounded_Rectangle_3-4" class="st1" d="M12,0h347c5.5,0,10,4.5,10,10l0,0c0,5.5-4.5,10-10,10H12C6.5,20,2,15.5,2,10l0,0
	C2,4.5,6.5,0,12,0z"/>
<circle class="st2" cx="378" cy="28" r="26"/>
<circle class="st3" cx="378" cy="30" r="26"/>
<circle class="st0" cx="378" cy="33" r="26"/>
<rect x="345" y="23" class="st0" width="17" height="5"/>
</svg>
