<?xml version="1.0" encoding="utf-8"?>
<!-- Generator: Adobe Illustrator 21.1.0, SVG Export Plug-In . SVG Version: 6.00 Build 0)  -->
<svg version="1.1" id="svg" xmlns="http://www.w3.org/2000/svg" xmlns:xlink="http://www.w3.org/1999/xlink" x="0px" y="0px"
	 viewBox="0 0 400 63.6" style="enable-background:new 0 0 400 63.6;" xml:space="preserve">
<style type="text/css">
	.st0{fill:#73787F;}
	.st1{fill:#6D7FD9;}
	.st2{fill:#798DF2;}
</style>
<g id="svgg">
	<path id="path0" class="st0" d="M360.1,1c-8.1,2.1-15,7-19.3,13.9l-1.4,2.3l-163.2,0C41.5,17.3,12.6,17.4,11,17.8
		C-3.7,21.7-3.7,42,11,45.9c1.6,0.4,30.5,0.5,165.2,0.5l163.2,0l1.4,2.3c15,24.1,52.7,17.4,58.4-10.4C404.1,15.3,382.9-4.9,360.1,1
		 M377.4,3.4c20.9,7.1,27.5,32.9,12.5,48.9c-13.7,14.6-38,11.8-47.9-5.6l-1.3-2.2L176,44.4L11.4,44.3l-1.9-0.9
		c-10-4.6-10-18.4,0-23.1l1.9-0.9L176,19.4l164.7-0.1l1.2-2.1C348.7,5,364.4-1,377.4,3.4"/>
	<path id="path1" class="st1" d="M362.6,8.3c-8.3,1.6-16.9,7.6-20.5,14.5l-1.3,2.5l-165.1,0.1L10.6,25.5l-1.7,0.9
		c-2.4,1.3-5,4-6,6.4l-0.8,2l1.1,2.3c1.3,2.6,3.7,5,6.4,6.3l1.8,0.9L176,44.4l164.7,0.1l1.3,2.2c9.9,17.3,34.3,20.2,47.9,5.6
		c6-6.4,8.9-14.5,7.5-20.9C393.9,15.6,378.4,5.3,362.6,8.3"/>
	<path id="path2" class="st2" d="M362.4,2.5c-8.8,1.9-15.7,6.8-20.5,14.8l-1.3,2.2H176H11.4l-2.3,1.1c-4.4,2.2-6.8,5.9-7,10.9
		L2,34.7l1-2.1c1.1-2.4,3.5-4.9,5.9-6.2l1.7-0.9l165.1-0.1l165.1-0.1l1.3-2.5c0.8-1.6,2.6-3.8,4.9-6.1c16.4-16.6,44.7-8.7,50.3,14
		l0.7,2.8l0-2.3C398.2,13.7,379.8-1.2,362.4,2.5"/>
</g>
</svg>
