<?xml version="1.0" encoding="utf-8"?>
<!-- Generator: Adobe Illustrator 21.1.0, SVG Export Plug-In . SVG Version: 6.00 Build 0)  -->
<svg version="1.1" id="Layer_1" xmlns="http://www.w3.org/2000/svg" xmlns:xlink="http://www.w3.org/1999/xlink" x="0px" y="0px"
	 viewBox="0 0 41 41" style="enable-background:new 0 0 41 41;" xml:space="preserve">
<style type="text/css">
	.st0{fill:#FFFFFF;stroke:#238642;stroke-width:2;stroke-miterlimit:10;}
</style>
<path class="st0" d="M1.6,15.6c-2,7.8,0.9,15.8,6.7,20.6L7,38c-0.3,0.4-0.3,1-0.1,1.4c0.3,0.4,0.7,0.7,1.3,0.6l7.9-1.2
	c0.3,0,0.6-0.2,0.8-0.5c0.2-0.3,0.3-0.6,0.2-1L16,29.1c-0.1-0.5-0.4-0.9-0.9-1.1c-0.5-0.1-1,0.1-1.3,0.5l-1.6,2.2
	c-3.8-3.2-5.7-8.4-4.3-13.5c1.8-7,8.9-11.1,15.9-9.2c6.9,1.9,11.1,9.1,9.3,16.1c-0.8,3.1-2.7,5.6-5.1,7.3c-1.4,1-1.9,2.9-1,4.4v0.1
	c0.9,1.7,3.1,2.1,4.6,1.1c3.7-2.6,6.5-6.4,7.7-11.1C42,15.4,35.8,4.5,25.4,1.6C15.1-1.2,4.4,5.1,1.6,15.6L1.6,15.6z"/>
</svg>
