<?xml version="1.0" encoding="utf-8"?>
<!-- Generator: Adobe Illustrator 21.1.0, SVG Export Plug-In . SVG Version: 6.00 Build 0)  -->
<svg version="1.1" id="Layer_1" xmlns="http://www.w3.org/2000/svg" xmlns:xlink="http://www.w3.org/1999/xlink" x="0px" y="0px"
	 viewBox="0 0 38 42" style="enable-background:new 0 0 38 42;" xml:space="preserve">
<style type="text/css">
	.st0{clip-path:url(#SVGID_2_);}
	.st1{fill:#FFFFFF;}
	.st2{fill:#238642;}
</style>
<g>
	<g>
		<defs>
			<rect id="SVGID_1_" width="38" height="42"/>
		</defs>
		<clipPath id="SVGID_2_">
			<use xlink:href="#SVGID_1_"  style="overflow:visible;"/>
		</clipPath>
		<g class="st0">
			<path class="st1" d="M7.7,41C3.8,41,1,38.6,1,35.4c0-3.6,3.5-7,7.8-7.7c0.5-0.1,1-0.1,1.5-0.1c0.6,0,1,0.1,1.4,0.1V11.8
				c0-2.4,1.9-4.9,4.3-5.6l16.2-5C32.6,1.1,33,1,33.4,1C35.5,1,37,2.6,37,4.7v24.2c0,3.6-3.5,7-7.8,7.5c-0.4,0.1-0.8,0.1-1.2,0.1
				c-4,0-6.8-2.4-6.8-5.7c0-3.6,3.5-7,7.8-7.5c0.4-0.1,0.9-0.1,1.3-0.1c0.8,0,1.4,0.1,1.9,0.2V12.9c-0.1,0-0.2,0-0.3,0l-14.3,4.6
				c0,0-0.9,0.4-0.9,1v14.8c0,3.7-3.2,7-7.5,7.6C8.6,41,8.1,41,7.7,41z"/>
			<path class="st2" d="M33.4,2C34.9,2,36,3.1,36,4.7v24.2c0,3.1-3.1,6.1-6.9,6.5c-0.4,0-0.7,0.1-1.1,0.1c-3.3,0-5.8-1.9-5.8-4.7
				c0-3.1,3.1-6.1,6.9-6.5c0.4,0,0.8-0.1,1.1-0.1c1.9,0,2.9,0.6,2.9,0.6V12.9c0-0.9-0.5-1-1-1c-0.3,0-0.6,0.1-0.6,0.1l-14.3,4.6
				c0,0-1.6,0.6-1.6,2v14.8c0,3.1-2.8,6-6.6,6.6c-0.5,0-0.9,0-1.3,0C4.4,40,2,38.2,2,35.4c0-3.1,3.1-6.1,6.9-6.7
				c0.5-0.1,0.9-0.1,1.3-0.1c1.7,0,2.4,0.5,2.4,0.5V11.8c0-2,1.6-4.1,3.5-4.6l16.2-5C32.8,2,33.1,2,33.4,2 M33.4,0
				c-0.5,0-1,0.1-1.5,0.2l-16.2,5c-2.8,0.8-5,3.7-5,6.5v14.8c-0.1,0-0.3,0-0.4,0c-0.5,0-1.1,0-1.6,0.1C3.8,27.4,0,31.2,0,35.4
				C0,39.2,3.2,42,7.7,42c0.5,0,1,0,1.6-0.1c4.8-0.7,8.4-4.4,8.4-8.6V18.6c0.1-0.1,0.3-0.2,0.3-0.2l13.2-4.2v8c-0.3,0-0.6,0-0.9,0
				c-0.5,0-0.9,0-1.4,0.1c-4.9,0.6-8.7,4.4-8.7,8.5c0,3.9,3.3,6.7,7.8,6.7c0.4,0,0.9,0,1.3-0.1c4.9-0.6,8.7-4.4,8.7-8.5V4.7
				C38,2,36.1,0,33.4,0L33.4,0z"/>
		</g>
	</g>
</g>
</svg>
