<?xml version="1.0" encoding="utf-8"?>
<!-- Generator: Adobe Illustrator 21.1.0, SVG Export Plug-In . SVG Version: 6.00 Build 0)  -->
<svg version="1.1" id="svg" xmlns="http://www.w3.org/2000/svg" xmlns:xlink="http://www.w3.org/1999/xlink" x="0px" y="0px"
	 viewBox="0 0 399.9 385.7" style="enable-background:new 0 0 399.9 385.7;" xml:space="preserve">
<style type="text/css">
	.st0{fill:#FFFFFF;}
	.st1{fill:#957D1B;}
</style>
<g id="svgg">
	<path id="path0" class="st0" d="M193.6,16.1c-6.4,2.3-8.9,4.9-13.6,14.5c-1.9,4-8.9,18.1-15.4,31.4c-6.5,13.3-14.9,30.4-18.6,37.9
		c-7.5,15.2-9,17.4-13.9,20c-3.4,1.8-2.5,1.7-46.7,8.1c-22.7,3.3-44.3,6.5-48.1,7c-3.8,0.6-7.9,1.4-9.1,1.8
		c-11.1,3.8-16.2,17.1-10.9,27.9c1.6,3.2,0.4,1.9,37.7,38.5c36.9,36.1,35.1,34.3,36.6,36.6c4.2,6.6,4.2,5.8-4.4,55.9
		c-10.3,60.1-9.5,54.4-8.9,57.9c1.8,11,12.2,18.5,22.9,16.7c3.6-0.6,4-0.8,49.6-25c45.9-24.3,44.7-23.8,50.8-23.3
		c4.8,0.4,2-0.9,61.8,30.7c30.8,16.3,32,16.9,35.4,17.5c11.8,2,23.2-7.6,23.2-19.5c0-1-3.7-23.5-8.2-49.9c-9.1-53-9-52.4-7-57.4
		c1.6-4.2,3.2-5.9,33.5-35.5c42.8-41.9,41-40.1,42.7-43.6c4.8-9.9,0.7-22.1-9.1-26.8c-3.1-1.5-1.3-1.2-56.6-9.2
		c-26.6-3.9-45-6.7-46.3-7.2c-6.1-2.1-9-5.3-13.9-15.4c-2-4.2-9.3-19.1-16.2-33c-6.9-14-15.1-30.6-18.2-37
		c-3.2-6.6-6.4-12.5-7.3-13.6C210.4,16.1,201,13.4,193.6,16.1"/>
	<path id="path1" class="st1" d="M195.2,0.4c-11.8,2.5-17.2,5.6-23.1,13.5C170,16.7,160,36,160,37.3c0,0.1-7,14.2-15.4,31.3
		c-8.5,17.1-16,32.3-16.6,33.7c-2.3,5.1-1,4.6-22.7,7.8c-9.8,1.4-20.8,3-24.4,3.6c-6.7,1-13.9,2-18.2,2.4c-1.3,0.1-5.9,0.8-10.2,1.4
		s-11,1.6-14.8,2.2c-8.4,1.2-15.4,2.9-18.4,4.4c-8.2,4.1-15.6,12.9-17.4,20.8c-0.4,1.6-0.8,3.5-1,4.3c-1.2,4.4-0.9,8.7,0.8,16.2
		c2,8.3,4.3,11.2,24.6,30.6c2.9,2.7,10.1,9.8,16,15.8s16.5,16.3,23.5,23c7,6.7,13,12.7,13.3,13.3c0.9,1.7,0.7,4.2-1.5,16.5
		c-16.1,92.5-15.2,86.3-13,94.9c5.9,22.8,30,32.8,51.6,21.4c2-1.1,12.5-6.6,23.3-12.4c10.8-5.7,20.1-10.7,20.6-11
		c1.8-1.2,19.8-10.6,20.7-10.9c0.9-0.3,10.5-5.3,15.9-8.2c3.1-1.7,3.8-1.6,11,2.3c3.5,1.9,8,4.2,10.1,5.2c3.5,1.7,20.9,10.8,22.8,12
		c0.8,0.5,37.5,20,44.6,23.7c3,1.6,5,2.2,12,3.8c13.2,3,30.9-6.5,36.5-19.6c4-9.4,4-13.2-0.2-37.9c-3.2-18.7-5.4-31.3-8.2-47.6
		c-0.6-3.7-2-11.5-3-17.3c-2-11.6-2.1-13.4-1.1-14.9c0.7-1,14-14.2,19.9-19.6c1.8-1.6,9.2-9,16.5-16.3c7.3-7.3,17.7-17.5,23.1-22.6
		c14.8-14.1,16.6-16.8,19-29.4c1.1-5.7-0.8-15.9-3.9-21.5c-4.8-8.6-11.9-14.1-21.5-16.6c-3.6-0.9-27.6-4.7-36.5-5.8
		c-1.1-0.1-3.6-0.4-5.6-0.6c-2-0.2-9.5-1.3-16.8-2.4c-7.3-1.1-18.9-2.8-25.8-3.8c-16.8-2.4-13.7,0.2-24.2-20.8
		c-12.8-25.5-25-50.4-26-52.7c-10.7-24.9-17.5-32.1-34-35.2C201.8-0.1,197.9-0.2,195.2,0.4 M206.1,15.9c6.9,2.1,9.1,4.8,16.5,19.8
		c3.1,6.4,11.3,23,18.2,37c6.9,14,14.2,28.8,16.2,33c4.9,10,7.7,13.2,13.9,15.4c1.3,0.5,19.7,3.3,46.3,7.2c55.3,8,53.5,7.7,56.6,9.2
		c9.8,4.7,14,16.9,9.1,26.8c-1.8,3.6,0.1,1.7-42.7,43.6c-30.3,29.7-31.9,31.4-33.5,35.5c-2,5.1-2.1,4.4,7,57.4
		c4.5,26.4,8.2,48.9,8.2,49.9c0,11.9-11.4,21.5-23.2,19.5c-3.4-0.6-4.6-1.2-35.4-17.5c-59.7-31.7-57-30.3-61.8-30.7
		c-6.1-0.6-4.9-1.1-50.8,23.3c-45.6,24.2-46,24.4-49.6,25c-10.7,1.8-21-5.7-22.9-16.7c-0.6-3.4-1.4,2.2,8.9-57.9
		c8.6-50.1,8.6-49.4,4.4-55.9c-1.5-2.4,0.3-0.6-36.6-36.6c-37.3-36.5-36.1-35.3-37.7-38.5c-5.4-10.9-0.2-24.1,10.9-27.9
		c1.2-0.4,5.3-1.2,9.1-1.8c3.8-0.6,25.5-3.7,48.1-7c44.1-6.4,43.3-6.3,46.7-8.1c4.9-2.6,6.4-4.8,13.9-20
		c3.7-7.5,12.1-24.6,18.6-37.9c6.5-13.3,13.5-27.4,15.4-31.4C186.5,17.1,194.8,12.5,206.1,15.9"/>
</g>
</svg>
