<?xml version="1.0" encoding="utf-8"?>
<!-- Generator: Adobe Illustrator 21.1.0, SVG Export Plug-In . SVG Version: 6.00 Build 0)  -->
<svg version="1.1" id="Layer_1" xmlns="http://www.w3.org/2000/svg" xmlns:xlink="http://www.w3.org/1999/xlink" x="0px" y="0px"
	 viewBox="0 0 579 561" style="enable-background:new 0 0 579 561;" xml:space="preserve">
<style type="text/css">
	.st0{fill-rule:evenodd;clip-rule:evenodd;fill:#E1F4FD;}
	.st1{fill-rule:evenodd;clip-rule:evenodd;fill:#D9E5AC;}
	.st2{fill-rule:evenodd;clip-rule:evenodd;fill:#009CD9;}
	.st3{fill-rule:evenodd;clip-rule:evenodd;fill:#007BBF;}
	.st4{fill-rule:evenodd;clip-rule:evenodd;fill:#FABFBF;}
	.st5{fill:none;stroke:#18537E;stroke-width:1.7002;stroke-linecap:round;stroke-linejoin:round;stroke-miterlimit:22.9256;}
	.st6{fill-rule:evenodd;clip-rule:evenodd;fill:#9ACA3C;}
	.st7{fill-rule:evenodd;clip-rule:evenodd;fill:#00BBEB;}
	.st8{fill-rule:evenodd;clip-rule:evenodd;fill:#008D49;}
	.st9{fill-rule:evenodd;clip-rule:evenodd;fill:#F8B5B7;}
	.st10{fill-rule:evenodd;clip-rule:evenodd;fill:#E58E8D;}
	.st11{fill-rule:evenodd;clip-rule:evenodd;fill:#FFFFFF;}
	.st12{fill-rule:evenodd;clip-rule:evenodd;fill:#25B34B;}
	.st13{fill:none;stroke:#0A5737;stroke-width:1.7002;stroke-linecap:round;stroke-linejoin:round;stroke-miterlimit:22.9256;}
	.st14{fill-rule:evenodd;clip-rule:evenodd;fill:#CBD85C;}
	.st15{fill-rule:evenodd;clip-rule:evenodd;fill:#A16044;}
	.st16{fill:none;stroke:#6D6E71;stroke-width:1.7002;stroke-linecap:round;stroke-linejoin:round;stroke-miterlimit:22.9256;}
	.st17{fill-rule:evenodd;clip-rule:evenodd;fill:#C7EAFB;}
	.st18{fill:none;stroke:#E47A6B;stroke-width:1.7002;stroke-linecap:round;stroke-linejoin:round;stroke-miterlimit:22.9256;}
	.st19{fill-rule:evenodd;clip-rule:evenodd;}
	.st20{fill-rule:evenodd;clip-rule:evenodd;fill:#C1D55D;}
	.st21{fill:none;stroke:#58595B;stroke-width:1.7002;stroke-linecap:round;stroke-linejoin:round;stroke-miterlimit:22.9256;}
	.st22{fill-rule:evenodd;clip-rule:evenodd;fill:#414042;}
	.st23{fill-rule:evenodd;clip-rule:evenodd;fill:#BB7446;}
	.st24{fill-rule:evenodd;clip-rule:evenodd;fill:#D58F5C;}
	.st25{fill:none;stroke:#823436;stroke-width:1.7002;stroke-linecap:round;stroke-linejoin:round;stroke-miterlimit:22.9256;}
	.st26{fill-rule:evenodd;clip-rule:evenodd;fill:#EBB081;}
	.st27{fill-rule:evenodd;clip-rule:evenodd;fill:#F7A1A1;}
	.st28{fill:none;stroke:#000000;stroke-width:1.7002;stroke-linecap:round;stroke-linejoin:round;stroke-miterlimit:22.9256;}
	.st29{fill:none;stroke:#DE7974;stroke-width:1.7002;stroke-linecap:round;stroke-linejoin:round;stroke-miterlimit:22.9256;}
	.st30{fill-rule:evenodd;clip-rule:evenodd;fill:#F8ABAD;}
	.st31{fill-rule:evenodd;clip-rule:evenodd;fill:#F9A57B;}
	.st32{fill-rule:evenodd;clip-rule:evenodd;fill:#FCC8A8;}
	.st33{fill-rule:evenodd;clip-rule:evenodd;fill:#B28ABF;}
	.st34{fill-rule:evenodd;clip-rule:evenodd;fill:#9665AA;}
	.st35{fill-rule:evenodd;clip-rule:evenodd;fill:#C7A9D0;}
	.st36{fill-rule:evenodd;clip-rule:evenodd;fill:#FDCEAE;}
	.st37{fill-rule:evenodd;clip-rule:evenodd;fill:#D5BEDC;}
	.st38{fill:none;stroke:#6C3E81;stroke-width:1.7002;stroke-linecap:round;stroke-linejoin:round;stroke-miterlimit:22.9256;}
	.st39{fill-rule:evenodd;clip-rule:evenodd;fill:#FEE6D3;}
	.st40{fill-rule:evenodd;clip-rule:evenodd;fill:#FFEDE0;}
	.st41{fill-rule:evenodd;clip-rule:evenodd;fill:#E5D7EA;}
	.st42{fill-rule:evenodd;clip-rule:evenodd;fill:#DACAE3;}
	.st43{fill-rule:evenodd;clip-rule:evenodd;fill:#FCC826;}
	.st44{fill-rule:evenodd;clip-rule:evenodd;fill:#E1A836;}
	.st45{fill-rule:evenodd;clip-rule:evenodd;fill:#FFE17F;}
	.st46{fill-rule:evenodd;clip-rule:evenodd;fill:#FFDD7F;}
	.st47{fill-rule:evenodd;clip-rule:evenodd;fill:#A15437;}
	.st48{fill-rule:evenodd;clip-rule:evenodd;fill:#CA6C38;}
	.st49{fill:none;stroke:#9A6326;stroke-width:1.7002;stroke-linecap:round;stroke-linejoin:round;stroke-miterlimit:22.9256;}
	.st50{fill-rule:evenodd;clip-rule:evenodd;fill:#EFBB79;}
	.st51{fill:none;stroke:#D0853D;stroke-width:1.7002;stroke-linecap:round;stroke-linejoin:round;stroke-miterlimit:22.9256;}
	.st52{fill-rule:evenodd;clip-rule:evenodd;fill:#E1966C;}
	.st53{fill-rule:evenodd;clip-rule:evenodd;fill:#FFE580;}
	.st54{fill-rule:evenodd;clip-rule:evenodd;fill:#FFF9AE;}
	.st55{fill-rule:evenodd;clip-rule:evenodd;fill:#89D1F4;}
	.st56{fill-rule:evenodd;clip-rule:evenodd;fill:#FFEFC6;}
	.st57{fill-rule:evenodd;clip-rule:evenodd;fill:#FFE8B1;}
</style>
<path class="st0" d="M8.4,407.9c-34.7-122.1,43.2-246.2,131.4-307.1c40-27.6,83.3-40.5,150.1-11.4c61.2,26.2,56,112.4,137.2,83.2
	c78.6-28.2,125.6,4.7,144.2,92c21.1,99.3,12.1,326-186.6,279.9C244.8,512.1,66.5,612.3,8.4,407.9z"/>
<path class="st1" d="M164.3,541c45.4,21.5,149.7-12.6,209.5,1.3c64.1,16.4,116.9,10.1,153.2-29.2c6.2,0,37.8-22.7,39.8-26.1
	c2.2-3.9-23,5.1-23,5.1c15.8-7,26.4-25.3,21.5-22.9c-12.1,6.2-17.1,9.8-28.9,14c-23.4,8.3,26-21,15.8-19.7
	c-11.2,1.5-26.2,7.6-33.4,7.3c-8.5-0.3-28.9,4.1-32,1c-11.4-11.4-69.3,3.1-86.8-5.2c0,0-7.2,3.1-8.3,3.1c-7.2,2.1-17.6,7.2-24.8,9.3
	c-6.2,2.1-19.2,10.9-15.5,2.1c0,0,11.4-23.8,4.1-16.5c-1,1-17.2,16.2-18.6,13.4c-1.5-2.9,3.6-14.1,9.1-20.8c3.2-4,4.2-6-2.1-3.1
	c-9.2,4.3-17.3,10.5-24.6,17.7c-7.2,7.2-7-22.7,9-50.4c5.7-9.8-21.9,10.6-34.2,34.5c-30,3.1-72.9-5.2-104.9-5.2
	c-16.5,0-30.1,3.5-45.6,3.5c-14.5,0-32,18.6-44.5,18.6c-12.4,0-10.8,30.1-10.8,39.4c-1.4-6.6-18.5-18.5-22.3-14.6
	c-1.1,1.1,11.4,15.8,11.4,21.7c0,2.1-18.8-16.3-20.7-14.5c-1,1,12.8,25.9,13.4,26.9c2.6,3.8-5.3-6.9-12.6-6.7
	c-3.5,0.1,8.6,14.8,12,18c0.4,10.4,21.9,16.8,50.3,17.8C131.1,561.1,164.1,556.5,164.3,541z"/>
<path class="st2" d="M351.3,262.9c-12.7,40.1-34.7,66-68.1,75l6.6,7.5c11.7-3.9,22.2-9.1,31.3-15.8c1.4-3.3,4.1-6.3,9.6-8.9
	c8.4,1.6,16,20.4,13.9,29.7c-8.1,18.5-21.5,33.2-42.8,42.4c4.6,21.9,2.2,39-6,52c19.7,38,18.6,65.5-9.2,76.5
	c-12.9,5.8-40.8-1.6-41.9-13.2c-0.2-11.8,8.9-11.1-0.7-35.3l-8.3,0.2l-10.4-0.8c-3.3,14.4,4.4,26.4,2.9,36.1
	c-4.7,11.7-26.7,17.3-47.4,11.9l-5.2-2.2l-4.4-3.2c-8.5-9.4-10.2-28.2,1.6-56.4l-2.9-5.6l0.9-7.3l3.1-5.3c7-16.8,5.7-31.9-5.7-45.2
	c3.4-7.8,3.1-15.1-2.7-21.3c4.3-16.4,10.8-26.8,20.5-28.6c-6.8-1.3-13.1-5.5-18.9-12.7c25.1-8.3,1.5-29.7-16.3-44.3l13.3-21
	l-9.1-2.2l-9.4,0.4l-15.8-12l-0.3-6.7l1.2-6.7c-10.2-1.9-26.6-11.4-32.9,3.6l-6.4,5.1l-6.9-1.1c-18-22.5,19.2-53.6,53.5-38.4
	c2.7-16.6,13.3-31.4,31.9-44.3l40.2-28.9l40.3,14.6c37.2,5.3,69.9,38.7,78,84.4c10.7-14.2,24.9-20.8,32.7-22.7
	c2.9-0.9,5.3-2.7,6.5-5.1c2.7,1,3.1,5.8-1.3,8.8c6.6-3.4,10.3,0.8,7.5,5.6C363.7,226.5,358.8,249.2,351.3,262.9z"/>
<path class="st3" d="M296.4,375l5.3,17.7c15.4-5.7,28.7-17.9,40.1-36.8C325.3,375.7,310.3,380.5,296.4,375z"/>
<path class="st3" d="M198.2,434.2c15.2,27.7,54.9,39.3,81.4,26.5c5.4,25.4-3,39.8-13.4,42.1c8.6,1.1,14.1,7.3,18.1,15.8l-26.1,1.5
	L244.6,508c-0.2-11.8,8.2-12.8-0.7-35.3l-18.7-0.5l-14.2-3c-10.6-1.2-20.7,23.2-17.2,39.1l-13.2,12c-17.4-4.8-22-23.3-8-61.8
	l-2.9-5.6l0.9-7.3l3.1-5.3L198.2,434.2z"/>
<path class="st3" d="M151.3,308.5c13,24.5,21.2,37.5,42.6,36.5c-19.3,0.2-23.5,14.7-28.5,28.8l2.7,21.3l9.8,35l0.2-10
	c0.6-41.2,20.6-58.4,22.1-36.9l0.2,9.2c4.6,1.1,7-2.4,6.7-8.2c-5.1-31.8,5.7-40.2,29.1-37.5l7,7.3l7.7,5c-7.7-5-14.9-20.2-8.2-23.8
	c29.3,11.7,70.3,0.1,93.2-37.8l23.9-54.2l-22.3,34.4c-16.4,52-61.1,58.1-91.6,44.4l-5.2,7.3l-2.8,1.8l-4.6,4.8
	c10.1-26-22.2-6.6-51.6-44.6c-30.6-43.5-30.1-100.7,19-128.6c-27,1.9-49.1,16.4-62.7,46.5l6.3,5.4c8,35.6-39.1-8.3-54.1,29.3
	c-8.2,7.7,3,18.6,9,26.6c10.3,12.6-1,22.6,5.6,28.7c11.3,10.7,15.4-6.2,24.8,9C134.9,318,144.2,317.6,151.3,308.5z"/>
<path class="st4" d="M96.6,248.5c5.9-18.7,23.6-11.4,34.2-8.4c-2,9.1-1.5,15.2,1.5,18.2l-2.8,3.3h-28.9L96.6,248.5z"/>
<path class="st3" d="M297.2,447.7l-1.5-3l3.2-5.3c16.4,0,17.3,20.5,38.4,19.8C311.7,464.9,312.3,445.4,297.2,447.7z"/>
<path class="st5" d="M188.5,345c-8.1-1.1-14.1-4-18-8.6"/>
<path class="st3" d="M322.8,213.2c-13.1-27.7-30.1-47.9-52.9-57.3c11.2-30.3,33-34.5,36.2-20.2c3,12.4,6.8,17,15.3,16.3
	c11.2,0.5,16.3,6.5,15.3,17.8c-2.8,9.3,0.3,13.6,6.1,15.8C353.4,189.5,351.5,210,322.8,213.2z"/>
<path class="st6" d="M500.6,373.5l3.9-26.2C520.2,362.2,515.6,366.3,500.6,373.5z"/>
<path class="st6" d="M499.9,413.7L500,388C518.3,398.2,514.2,405,499.9,413.7z"/>
<path class="st7" d="M242.5,306.1c2.5,9.3,2.2,14.1-6.8,26.8C246.3,324.3,252.5,315.7,242.5,306.1z M243.2,268.8
	c-5.3-10.4-15.7-19.6-22.8-21C230.5,244,241,257.1,243.2,268.8z M323.2,248.3c6.8-7.9,16.4-19.4,25.3-28.2
	C337.2,226.5,327.4,237.4,323.2,248.3z M257.2,155.5c18.3,9,34.1,21.5,50.5,38.2C295.6,174.9,277.9,161.1,257.2,155.5z M82.4,227.1
	c6-12.5,35-20,47.8-17.3C114.7,204.3,82.6,211.1,82.4,227.1z"/>
<path class="st6" d="M503.3,450l-2.3-18.7C516.1,435.2,515.9,440.2,503.3,450z"/>
<path class="st6" d="M509.2,475l-3.6-14.8C519.5,462.4,520.7,465.2,509.2,475z"/>
<path class="st6" d="M525.5,495.8l-7.5-4.9l-4.3-4.4C524.5,479.3,530.7,485.8,525.5,495.8z"/>
<path class="st6" d="M546.6,508.3l-7.2-2.8l-4.3-4.4C545.9,493.8,548.5,501.8,546.6,508.3z"/>
<path class="st7" d="M344.6,350.3c-0.6-14.5-4.7-25-13.9-29.7c-6,2.9-2.4,10.2,4.8,11.4C329.5,337.6,333.8,344.1,344.6,350.3z"/>
<path class="st4" d="M322.5,185.6c2.1,8.8,0.7,15-4,18.5c-6.3-13.1-14.5-24.5-24.9-33.9C299.5,151.6,318.3,161.8,322.5,185.6z"/>
<path class="st6" d="M556.6,524.9l-1.1-4.6l-2-4.6C563.3,515.3,562.5,522.1,556.6,524.9z"/>
<path class="st7" d="M228.1,508.3c-5.3,10.8-26.4,18.4-47.4,11.9c8.8-12.8,17.6-16.6,26.4-7.3C212.1,503.5,223.4,503.9,228.1,508.3z
	"/>
<path class="st6" d="M554.9,536.6l0.7-2.4l0.7-3.4C560.3,533.1,558.8,537,554.9,536.6z"/>
<path class="st8" d="M412.6,344.4l18,33.7l4.7-52.3C428.2,329.3,417.7,337.3,412.6,344.4z"/>
<path class="st9" d="M421.2,303.8l7.7-7.7l10-4.8l47.8-13.9l3,2c-14.2,9.8-28.3,22.3-42.5,29.4l-5.6,2.1
	C429.7,313.3,422.2,311.5,421.2,303.8z"/>
<path class="st10" d="M473,291.2c-15.5,0-24.9,2.5-28,7.4c-0.9-2.7-2.6-5.3-6.2-7.3l47.8-13.9l3,2L473,291.2z"/>
<path class="st11" d="M362.5,306l-9.4-3.1C355.1,315.8,358.5,313.8,362.5,306z"/>
<path class="st11" d="M439.6,291.1l-11.9,1.5C433.1,302.5,436.9,302,439.6,291.1z"/>
<path class="st6" d="M441.6,314.4c6.7-2.9,23.6-8.3,37.4-5.6c0.6,10.1,0.8,21.5-2.4,28.9c2.1-2.5,3.3,35.8-1.2,45.7
	c3.3,4,6.2,16.8-0.4,46.1c-17.9-1.5-23.2,25.5-7.2,64.5c-9.3,15-33.2-0.2-53.4,3.4c-14.1-13.2-2.8-130.4,9.9-143.2
	c1.6-7.3,4.1-13.7,7.8-18.9C433.1,331.6,434.1,325.1,441.6,314.4z"/>
<path class="st12" d="M354.4,513.3l5.1-0.5c11.8,3.1,25.2,3.3,38.9,2.7l16.8-14.2l-12.8-77.2c-21.5,12.4-15.8,40.4-2.5,72.7
	c-29.7-2.5-46.5,3.5-50.4,17.9L354.4,513.3z"/>
<path class="st8" d="M361.2,513.3l6,1.1c13,1.2,24.3,1.7,38,1.1l25-0.3l40.3-0.9l-8.1-20.3c-10.7,4.1-21.4,5.5-32,3.6l-18.2-1.4
	l-2.9-72.2c-21.5,12.4-17.3,42.8-0.2,79.6c-29.7-2.5-29.3,3.3-37.3,6L361.2,513.3z"/>
<path class="st8" d="M408.2,248l29.1,17.8l-5.5-25.7C422,239.7,413.7,242.8,408.2,248z"/>
<path class="st13" d="M435.2,325.8c-7.1,3.4-17.5,11.5-22.7,18.6"/>
<path class="st12" d="M500.5,268.6c-40.9,32.8-115.7,22.1-129.4,32.4c-10.1,12.2-19.3-1.7-25.7-2.8c-6.7-2.2-19.8,3.6-17.5-12.7
	l4.5-8.2l1.7-5.8c-0.8-6.8,8-14.5,17.8-6.5c20.5-9.2,47.2-15.6,79.7-21.1c6.2-36.7,25.8-50,33.7-35c14.5-16.8,37.4-12,45.9,27.2
	c16.4,0.5,24.6,12.8,28,23.7c-1-15.5,6.6-21.1,10-31.6c2.5,0.6,4,2.7,4.4,6.5c11.3,13.6-10.2,77.7-45.9,105.8
	c-12.7,22.3-8.8,118.6,6,146.1c11.8,16.3,57.6,18.5,38.2,57.3c-1-31.5-30.2-19.9-45.3-29.8c-13,13.1-50.1,2-81.2,9.5
	c-0.5-8.7,2.9-14.6,10.3-18c13.7-2.4,20.1,5.8,30.7-0.7c-22.8-54.8-14.6-88.3,8.7-75.1c3.9-21,5.8-38.9,0.4-46.1
	c3.7-17.7,4.8-33.5,1.2-45.7c2.6-9.4,3.4-19.1,2.4-28.9c-26.2-3-35.8,8.1-45.3,6.5c-8.9-0.7-13.5-3.2-13.7-7.4l2.3,1.8l2.9-0.3
	c3.1,1.7,6.5,2.4,10.2,2l3.2,0.6l3-1.2c13.8-3.7,32-21,48-31.5C501.4,288.6,503.2,282.1,500.5,268.6z"/>
<path class="st14" d="M463.5,418.1c-9.5-8.3-28.7-11.3-41.2-1.9C430.9,413.8,452.1,415.3,463.5,418.1z"/>
<path class="st14" d="M453.7,462.1c-9.5-8.3-30.5-8.3-43,1.1C419.3,460.8,442.3,459.4,453.7,462.1z"/>
<path class="st8" d="M502.3,237.8l5.8-1.7l3.4-0.1c-10.3-40.3-31.7-45.2-46.2-27.2C485.8,192.1,499.5,212.8,502.3,237.8z
	 M486.6,277.4c-44.3,23.1-101.3,12.7-115.6,23.6c-10.3,7.9-13.4,6.7-22.2-2.2c7,5.3,20.3,4.7,21.5-5.6c31.2-8.8,66-1.5,116.5-15.8
	l19.4,11.7c24.2-19.3,24.6-47.4-3.9-51.2l5.8-1.7l3.1-0.1c13.5,1.3,22.9,9.2,28,23.7c-6.3,16.9-17,32.6-31.9,47.1l-8.3,26.6
	c19.1-10.1,47.5-47,51.8-59.5c-11.8,32.4-27.2,54.3-43.2,66.5c-8.8,18.3-8.2,45.1-7.2,81.9c0.2,25.4,4.2,58.3,12.5,69.9
	c16.4,21.6,33.9,13.1,37.4,42.2c-7.5-18-25.5-12.8-43.8-20.3c-14.3,14.1-59.7,1.3-81.2,9.5l4.8-8.3c38.5,3.2,56.7-4.8,50.5-17.3
	c-8.8-24.2-12.9-64-0.1-64.5l-5.9-3.6c10.1-11.7,14-32.3,10.6-47.9c3-9.1,4.4-43,13.7-48.4l8.3-26.6l-9.4,8
	c-5.8,2.7-15,1.7-18.8-5.9l-13-0.2l-13.1,1.9c16.8-10.1,33.8-7,53.2-21.6L486.6,277.4z"/>
<path class="st13" d="M463.5,418.1c-22.4-3.5-42.4-2.3-56.6,3.4"/>
<path class="st13" d="M453.7,462.1c-22.4-3.5-39.5-1.1-53.6,4.6"/>
<path class="st6" d="M456.6,452.3c-1.3-14.5,4.8-21.5,10.6-21.6C459.6,426.8,453.2,435,456.6,452.3z M353.5,264.6
	c32.4-12.5,62.6-18.8,97.1-22.7l-31,7.1l2.6,3c-6.5-2.3-15.7-0.6-29.8,3.6l3.9,3.5c-5.7-2.9-20.9-0.5-40.2,8.6l11.8,1.1
	c6.2,2.2,7.1,6.2,8,13.4c-5.8-15-12.5-8.4-22-10.6c-5.9-5.8-11.8-10.4-17.8-6.5C339.4,258.8,346,260.6,353.5,264.6z M462.3,211
	c-3.7-4.9-10.1-7.3-16.6,0.6C451.4,202,459,202.7,462.3,211z M492.1,209.5c-7.8-4.6-16.7-8.1-24.3,1.8
	C473.8,197.7,485.3,199.9,492.1,209.5z M503.5,254.6c6-0.3,11.1,3.2,11.2,11.4C517.8,254.7,508.8,252.1,503.5,254.6z M534,276
	c-5.9,11-20.5,28.9-31.9,39.2C512.2,315.9,533.2,283.1,534,276z M450.5,508.2c-8.8-2-16-1.4-22.4,5.6
	C434.1,502.9,441.7,505.1,450.5,508.2z"/>
<path class="st13" d="M462.2,494c-18.9,7.5-47.1,7.2-51.4-14.2"/>
<path class="st15" d="M377.5,447.5l3.9-0.1l-10.5,37.1c-7-4.7-8.3-9-3.9-12.8C360.7,458.5,374,455.6,377.5,447.5z"/>
<path class="st4" d="M242.4,335.6l11.4,3.1l10.3,1.4c-2.2,6.6-5.3,13.1-10.1,13C249.8,352.2,246,345.7,242.4,335.6z"/>
<path class="st11" d="M240.6,329.2c4.5-3.4,6.3-6.9,5.7-11.3c31,3.5,33.6-5,35.1-1.1C282.2,322.3,273.6,339.8,240.6,329.2z"/>
<path class="st7" d="M303.1,493.4c-1.1,8.1-4.1,15.3-10.5,20.6C304.1,508,305,498.8,303.1,493.4z"/>
<path class="st7" d="M196.1,393.3c-2.4,8.1,3.2,27.3,0.7,35.5C200.9,422.3,197.9,396.8,196.1,393.3z"/>
<path class="st7" d="M295.8,420.2c-1.8,13.5-6.8,25.5-17.5,34.2C297.5,444.5,299,429.1,295.8,420.2z"/>
<path class="st2" d="M278.7,145.2c4.9-5.8,15.8-12,22.1-13C295.1,129.1,284.7,134.3,278.7,145.2z"/>
<path class="st3" d="M212.3,259.5c-3.3,7.4,0.3,28.7,4.3,34.2l-4.7,0.5C206,287.4,204.7,265.5,212.3,259.5z"/>
<path class="st16" d="M246.6,317.9c31.3,3,33.4-5.3,34.8-1.1c0.9,5.4-7.8,23-40.7,12.4"/>
<path class="st11" d="M306.6,254l-7.3,2.3l-16.4-4.6c-4.1-13.3-3.7-22.7,1.6-24.6C292.4,224.4,304.4,240.1,306.6,254z"/>
<path class="st17" d="M282.9,251.7c4.8,4.9,16.7,5.9,21.2,3.3c-4.3-15.1-11.8-22-18.5-20C280.2,236.3,281.4,245.8,282.9,251.7z"/>
<path class="st5" d="M172.3,164.7c-14.7,6.7-31.8,25.4-34.4,44.5"/>
<path class="st5" d="M144.2,214.6c-17-21.6-81-2.2-59.8,33"/>
<path class="st5" d="M250.3,150.7c41.4,5.6,71.8,44.6,78,84.4"/>
<path class="st5" d="M270,155.8c11.2-30.3,33-34.5,36.2-20.2c3,12.4,6.8,17,15.3,16.3c11.2,0.5,16.3,6.5,15.3,17.8
	c-2.8,9.3,0.3,13.6,6.1,15.8c10.6,3.9,8.6,24.4-20.1,27.6"/>
<path class="st5" d="M293.6,170.2c5.9-18.6,24.7-8.4,28.9,15.4"/>
<path class="st5" d="M282,250.9c11.7,11.2,30.3,5.7,46.4-15.8c10.7-14.2,24.9-20.8,32.7-22.7c2.9-0.9,5.3-2.7,6.5-5.1
	c2.7,1,3.1,5.8-1.3,8.8c6.6-3.4,10.3,0.8,7.5,5.6c-10,4.8-15,27.5-22.5,41.2"/>
<path class="st5" d="M334.9,297.5c-22,37.8-63.7,49.3-92.6,38.1c7.9,21.9,15.2,23.4,21.7,4.5"/>
<path class="st5" d="M270.7,339.7c-8.9,23.8-18.2,26.4-34.5,6.9"/>
<path class="st5" d="M246.1,311.5c4.2,18.7-14.2,18.3-13.3,27.1"/>
<path class="st5" d="M243.9,331.7c-0.6,3.2-1.9,5.1-4.1,5.6"/>
<path class="st18" d="M247.8,342.9c3.5-0.3,5.9,0.7,7.5,2.6c1.3-1.3,3.3-1.8,5.1-1.5"/>
<path class="st5" d="M96.6,248.5c8.1-22.9,28.9-6.6,42.8-7.5"/>
<path class="st5" d="M130.8,240.1c-1.5,6.1-1.8,10.5-0.9,13.4"/>
<path class="st13" d="M480.5,433.3c-26.5-19.3-39.8,7.8-14.2,71.5"/>
<path class="st7" d="M198.2,434.2c-3.1,5.5-12.4,6.8-24.5,6.2l3.7-10.3c4.6,0.1,6.8,2.4,8,5.6C188.7,427.9,194.8,428,198.2,434.2z"
	/>
<path class="st5" d="M283.2,337.8c4.4,4,7.4,7.9,8.9,12.1"/>
<path class="st5" d="M295.4,372.5c22.3,56.4-0.4,94.3-51.5,100.2c-22.1,1.7-47.2-4.9-61-20.5"/>
<path class="st5" d="M289.8,345.3c11.3-3.1,21.8-8.3,31.3-15.8c2.8-4.9,5.9-8.4,9.6-8.9c6.6,1,14.7,15.8,13.9,29.7
	c-8.8,19.7-25.2,35.9-42.8,42.4"/>
<path class="st5" d="M330.7,320.6c-6,2.9-2.4,10.2,4.8,11.4c-6,5.7-1.6,12.1,9.1,18.3"/>
<path class="st7" d="M286.5,521.2c-19.1,6-39.7-2.5-41.9-13.2c6.4-3.2,11.1,1.2,14.2,5.3C268.5,506.1,277.7,509.9,286.5,521.2z"/>
<path class="st5" d="M295.7,444.7c19.2,38.3,19.1,65.5-9.2,76.5c-21.2,6.2-41-5.1-41.9-13.2c-0.2-11.8,8.5-11-0.7-35.3"/>
<path class="st5" d="M244.6,508c6.4-3.2,11.1,1.2,14.2,5.3c9.7-7.2,18.9-3.4,27.7,7.9"/>
<path class="st5" d="M299,439.4c16.4,0,17.3,20.5,38.4,19.8c-25.6,5.7-25-13.8-40.1-11.5"/>
<path class="st5" d="M200.2,383.1c-2.1,15.9,4.9,39.1-3.2,53.4c-6,3.9-13.8,5.2-23.3,3.8"/>
<path class="st5" d="M207.1,384.1c0.6,4-2.7,9.1-7,8.2"/>
<path class="st5" d="M177.4,430.1c4.6,0.1,6.8,2.4,8,5.6c3.3-7.8,9.4-7.7,12.8-1.5"/>
<path class="st5" d="M169.7,452.9l2.9,5.6c-11,28.6-10.3,46.2-1.6,56.4c11.2,11.2,48,10.6,57.1-6.6c2.3-7-6.3-16.9-2.9-36.1"/>
<path class="st5" d="M180.6,520.3c8.8-12.8,17.6-16.6,26.4-7.3c5.1-9.5,16.4-9.1,21.1-4.7"/>
<path class="st11" d="M216.6,293.7c14.2,0.5,24.3-5.6,26.4-12.6c-3-17.9-16.2-32.2-23.6-29.4C207.8,256.4,209.1,276.6,216.6,293.7z"
	/>
<path class="st17" d="M216.6,293.7c12.1-1.2,18.1-4.3,22.7-7c-4.3-15.1-12.3-23.8-19-21.8C210.8,268,212.9,283.3,216.6,293.7z"/>
<path class="st5" d="M193.9,345c-14.5-2.2-24,11.1-28.5,28.8"/>
<path class="st5" d="M214.3,293.6c14.2,0.5,26.6-5.6,28.7-12.6c-3-17.9-15.7-31.9-23.6-29.4c-11.6,4.7-10.3,24.9-2.8,42.1"/>
<circle class="st19" cx="224.7" cy="279.8" r="6.7"/>
<path class="st19" d="M291.7,254.5c3.4,0,6.2-2.8,6.2-6.2c0-3.4-2.8-6.2-6.2-6.2c-3.4,0-6.2,2.8-6.2,6.2
	C285.6,251.7,288.3,254.5,291.7,254.5z"/>
<path class="st11" d="M228,279.8c1.8,0,3.3-1.5,3.3-3.3c0-1.8-1.5-3.3-3.3-3.3c-1.8,0-3.3,1.5-3.3,3.3
	C224.7,278.2,226.2,279.8,228,279.8z"/>
<path class="st11" d="M294.8,248.3c1.7,0,3.1-1.4,3.1-3.1c0-1.7-1.4-3.1-3.1-3.1s-3.1,1.4-3.1,3.1
	C291.7,246.9,293.1,248.3,294.8,248.3z"/>
<path class="st11" d="M224.3,271c2.4,0,4.3-2,4.3-4.3c0-2.4-2-4.3-4.3-4.3c-2.4,0-4.3,2-4.3,4.3C220,269,221.9,271,224.3,271z"/>
<path class="st11" d="M291,240.1c2.2,0,3.9-1.8,3.9-3.9c0-2.1-1.8-3.9-3.9-3.9c-2.1,0-3.9,1.8-3.9,3.9
	C287.1,238.3,288.8,240.1,291,240.1z"/>
<path class="st7" d="M212.4,243.1c-1.1,0.7-2.2,2.6-2.8,3.9c-1.3,2.6-1.9,7.4-4.4,7c-5.6-1-2.9-12.6,2.2-15.9
	C213.3,234.4,216.6,240.4,212.4,243.1z"/>
<path class="st5" d="M212.4,243.1c-1.1,0.7-2.2,2.6-2.8,3.9c-1.3,2.6-1.9,7.4-4.4,7c-5.6-1-2.9-12.6,2.2-15.9
	C213.3,234.4,216.6,240.4,212.4,243.1z"/>
<path class="st7" d="M283.9,220.7c4.7,0.1,10.5,1.7,11.2-0.2c1.7-4.3-7.3-7.1-11.8-5.1C278.3,217.6,280,220.6,283.9,220.7z"/>
<path class="st5" d="M283.9,220.7c4.7,0.1,10.5,1.7,11.2-0.2c1.7-4.3-7.3-7.1-11.8-5.1C278.3,217.6,280,220.6,283.9,220.7z"/>
<path class="st5" d="M282.9,251.7c-4.1-13.3-3.7-22.7,1.6-24.6c7.9-2.7,19.9,13,22.2,26.9"/>
<path class="st5" d="M311.1,251.6c-0.9,3,0.1,5,2.4,6.5 M320.7,247.4c-0.4,2.5,0.5,4.2,2.5,4.9 M329.9,240.7
	c-0.2,1.1,0.3,2.6,0.9,3.1 M285.6,263.5c2.1,1.8,3.3,5.5,2,8 M301.5,256c-3.3,3.3-3.3,6.6,0.1,9.9"/>
<path class="st11" d="M343.8,297.7l-8.8-0.3C336.2,307.6,340.4,308.7,343.8,297.7z"/>
<path class="st16" d="M334.9,297.5c1.2,10.1,5.5,11.3,8.8,0.3"/>
<path class="st16" d="M353.1,302.9c2,12.9,5.4,10.8,9.4,3.1"/>
<path class="st11" d="M430.9,244.1l19.6-2.2c4-10.4,2.8-27.4-2.3-28.3C443.1,213.5,432.9,229.3,430.9,244.1z"/>
<path class="st11" d="M468.9,241.9l5.8,2.5l19-3c-1-18.2-4.9-29.1-12.7-29.4C475.5,212.1,468.7,227.3,468.9,241.9z"/>
<path class="st13" d="M430.9,244.1c8.9-38.3,25.9-49.8,34.3-35.3c15.7-19.4,37.7-9,45.9,27.2"/>
<path class="st13" d="M497.9,314.8c16.4-12.8,30.9-29.5,41.2-55.1c-1.6-13.8,6.5-22.4,9.7-33.6c0.9,5.9,0.8,10.6-0.3,14.1"/>
<path class="st13" d="M549.1,228.1c4.3,1.3,5.6,6.3,3.6,14.9"/>
<path class="st13" d="M553.5,234.7c12.4,17.4-17.4,85.2-45.9,105.8c-9,8.6-14.2,103.1,6,146.1c11.1,15.9,58.1,18.7,38.2,57.3
	c-2-30.6-30.6-21.1-45.3-29.8c-9.1,12.1-51.7,3-81.2,9.5"/>
<path class="st20" d="M435.4,243.6c6.6-0.8,10.9-1.9,15.2-1.7c4-10.8,1-20.6-3.6-20.8C440.3,222,437.6,233.1,435.4,243.6z"/>
<path class="st9" d="M549.9,243.4c-5.5-0.7-9.6,8.5-5.7,13.8c1.7,2.3,4.6,0.6,5.7-1.5C551.1,253.6,553.4,244.7,549.9,243.4z"/>
<circle class="st19" cx="446.2" cy="237.1" r="5.8"/>
<path class="st11" d="M443,236.6c1.5,0,2.7-1.2,2.7-2.7s-1.2-2.7-2.7-2.7s-2.7,1.2-2.7,2.7C440.4,235.4,441.6,236.6,443,236.6z"/>
<path class="st20" d="M473.2,243.9c6.3,2.5,12.6,1.1,20.5-2.4c-0.8-13.6-3.6-21.7-9.5-21.9C477.6,220.5,473,233.4,473.2,243.9z"/>
<path class="st19" d="M486.9,244c3.4,0,6.1-2.7,6.1-6.1c0-3.4-2.7-6.1-6.1-6.1c-3.4,0-6.1,2.7-6.1,6.1
	C480.8,241.3,483.6,244,486.9,244z"/>
<path class="st11" d="M483.6,237.4c1.5,0,2.8-1.3,2.8-2.8s-1.3-2.8-2.8-2.8s-2.8,1.3-2.8,2.8S482.1,237.4,483.6,237.4z"/>
<path class="st11" d="M480.6,227.9c2,0,3.6-1.6,3.6-3.6s-1.6-3.6-3.6-3.6s-3.6,1.6-3.6,3.6C476.9,226.3,478.6,227.9,480.6,227.9z"/>
<path class="st11" d="M445.1,227.3c1.8,0,3.3-1.5,3.3-3.3c0-1.8-1.5-3.3-3.3-3.3c-1.8,0-3.3,1.5-3.3,3.3
	C441.8,225.8,443.3,227.3,445.1,227.3z"/>
<path class="st13" d="M493.7,241.4c-1-18.2-4.9-29.1-12.7-29.4c-5.5,0.2-12.3,15.4-12.1,29.9c15.9,9,26.1-3.8,39.1-5.8
	c13.1-1.2,26.3,7.7,31.1,23.6"/>
<path class="st11" d="M486.8,277.4l13.3-8.4C502.2,285,501.4,288.1,486.8,277.4z"/>
<path class="st13" d="M505.3,258.2c2.7-1.6,7.4,1.5,6,6.8"/>
<path class="st13" d="M351.9,264.9c28-9.2,61.1-19.9,98.7-23c4.2-10.5,2.7-28.3-2.3-28.3c-5.1-0.1-10.2,8.3-14.7,21.2"/>
<path class="st21" d="M500,269c2.2,16.1,1.6,19.4-13,8.6"/>
<path class="st13" d="M488.2,280.4c-20.1,13.5-36.9,29.6-46.6,30.6"/>
<path class="st13" d="M420.1,308c1.8,8.8,17.3,8.7,25.5,5.2c24.2-9.9,42.2,0.4,61.8-6.4"/>
<path class="st13" d="M354.4,513.3c6.6-0.3,13.7-2.1,21.2-5.3"/>
<path class="st13" d="M426.5,515.2c-16,0.4-60.2-0.6-67-2.4"/>
<path class="st13" d="M402.4,424c-21.5,12.4-15.8,40.4-2.5,72.7c-29.7-2.5-46.5,3.5-50.4,17.9c4.9-0.7,11.2-4,19-9.7"/>
<path class="st13" d="M476.4,210.7c4.6-3.9,8.5-3.5,11.7,1.2"/>
<path class="st13" d="M442.3,213.1c3.6-3,6.8-3.4,9.5-1.2"/>
<path class="st22" d="M338.5,442.8c-11.7,2.2-15.7-9.7-3.8-15.9C344.2,427.5,346,439.3,338.5,442.8z"/>
<path class="st15" d="M422.3,405.9l11.4-38.6l26.4-4.4c15.1,11.9,13.8,26.8,2.3,43.7c-10.8,11.8-24.1,15.2-40,10.2L422.3,405.9z"/>
<path class="st4" d="M421.8,382c11.8-1.2,20.9-19.1,35.4-3.6c9.4,13.1-1.1,43-33.6,33.4v-13.4L421.8,382z"/>
<path class="st23" d="M380.6,449.7c14.5-0.4,23.5-3.7,37.3-7.1l3.7-0.1c8-6.8,7.3-17.6,11-26.5c1.1-5.7,5.5-7.1,6.4-2.6
	c7.9,2.1,6.7,26.3-17.1,49.9l-4.9,39.3l-3.9,34.1c-6.2,4.7-10.9,6.2-13.1,3c-3.1-2.5-2.3-5.4,2.5-8.9c3.5-10.2-4.3-17.4-6.5-26.1
	h-5.3l-5.6,23.6c-1,5.8-3.8,8.4-8.4,7.6l-2.4-0.3l-2.6-1.7c-2.9-2.8-2.3-5.6,1.7-8.4c2.2-2.3,2.7-6.1,1.7-11.6l-3.2-25
	c-1.9-8.3-2.1-11.5-0.1-18.4C375.5,461.4,378.3,456.6,380.6,449.7z"/>
<path class="st15" d="M372.2,491.1c1.5,6.1,2.6,12.4,12.9,17.3c-1,8.2,2.5,25.2-8.4,27.5c15.3-0.2,10.1-21.1,13.9-31.2
	C383.1,504.1,376.6,495.4,372.2,491.1z"/>
<path class="st15" d="M410.8,476c-0.4-5.8,0.6-13.9,6.8-18c7.9-4.2,19-16.4,25.1-28.5c-4.2,16.5-11.2,27.8-20.8,33.9
	c0.5,18.4-0.2,15.9-1.1,35.4c-1.8,19.4-4.4,33.2-8.2,38.7c-1.7,3.3-4.4,4.6-8,3.9l-2.5-0.3l-2.1-1.4c1.1,0.7,3.4,1.5,4.5,0
	c14-5.1,5-31.3,5.6-41.8c-13,10.1-24.9,10.4-36.1-5.7c5.8,5.2,11.3,9.1,19.4,8C405.4,498.1,412.1,488,410.8,476z"/>
<path class="st23" d="M383.3,375.9c7.9-8.5,12.9-16.5,13.4-23.7c4.5,3,7.1,8.2,8.9,14.3c0.5-5.3,0.2-11-1.9-17.4
	c6.7,3.2,9.6,12,9.8,24.8c15.4-19.1,44.1-22.4,55.1-1.2c-26.7-21.1-33.6,9.8-46.8,9.3l2.1,35.3l-76.3,26.8l-9.1-1.4
	c7.9-4.5,4.5-15.9-3.8-15.9c9.1-11.3,18.6-22.2,28.7-32.7L383.3,375.9z"/>
<path class="st24" d="M388.4,413.6c10.5-7.4,19.8-5.9,27.6-2l8,5.6l-2.3,25.3l-3.8,3.4c-27.4,3.4-51.4,1.8-79.3-3.2
	C360.4,441.1,375.4,423,388.4,413.6z"/>
<path class="st24" d="M381.5,446.8l12-0.1l17.3-2.7c3.3,9.2-3.6,22.9-23.7,27.4C381,462.9,375,456.4,381.5,446.8z"/>
<path class="st15" d="M384.2,337.8c20.2-14.1,39.7,2.2,41.5,25.6c-4.3,1.9-8.3,5.8-12.2,10.6c0.6-12.3-2.7-20.6-9.8-24.8
	c2.2,6.7,2.5,12.3,1.9,17.4c-1-5.5-3.9-10.3-8.9-14.3c-1,7-5.8,15-13.4,23.7C370.2,362.4,374.1,345.6,384.2,337.8z"/>
<path class="st15" d="M420.8,498.8l0.4-6.7c22.5,3.6,21.1-26.2,41.1-25.9C440.1,472.1,451.2,499.8,420.8,498.8z"/>
<path class="st25" d="M430.9,418.9c-2.3-0.3-4.6-0.8-7-1.6 M334.7,426.9c13.1-18.1,30-34.8,48.6-51c7.5-7.4,12.4-15.3,13.4-23.7
	c4.9,3.2,7.6,8.1,8.9,14.3c0.5-6.3,0.1-12.3-1.9-17.4c7.6,4.4,9.9,13.5,9.8,24.8c21.4-25.6,50.5-15.9,55.8,0.8
	c5.8,17.7-6.4,39.5-26.5,43.7"/>
<path class="st25" d="M421.8,382c7.8,1.3,16.2-14.8,31.2-7.5c11.2,6,11.7,34.4-14,39"/>
<path class="st25" d="M401.3,430.9c-4.8,8.2-11.1,14.3-17.3,16.6"/>
<path class="st25" d="M400,427.4c3.4-0.9,5.9,1.6,5.8,4.5"/>
<path class="st25" d="M421.9,463.3c0.1,38.4-3.3,73-12.6,77.4"/>
<path class="st25" d="M417.8,446c-23.2,3.1-48.9,1.9-80.2-3.4"/>
<path class="st11" d="M390.9,411.6l4.6-2.9l5.1-1.9c0.7-15.7-5.1-22.5-13.1-15.7c0.1-5.7-5.1-8.5-12-3.2
	c-13.8,9.8-1.2,17.7,5.8,14.9C381.7,408.5,385.5,410.8,390.9,411.6z"/>
<path class="st25" d="M400.7,406.9c0.7-15.7-5.1-22.5-13.1-15.7c-0.5-5.8-5.1-8.5-12-3.2c-13.1,11.3-1.2,17.7,5.8,14.9
	c0.3,5.6,4.1,7.9,9.5,8.7"/>
<path class="st25" d="M400.6,384.8c2.2,1.6,3.1,4.5,3.1,7.6"/>
<circle class="st19" cx="393.6" cy="401.5" r="3.7"/>
<ellipse class="st11" cx="392" cy="399.5" rx="1.9" ry="1.9"/>
<ellipse class="st19" cx="378" cy="394.3" rx="3.4" ry="3.4"/>
<circle class="st11" cx="376.5" cy="392.5" r="1.7"/>
<path class="st15" d="M354.8,429.2c1,0.1,1.7,1,1.7,2c-0.1,1-1,1.7-2,1.7c-1-0.1-1.7-1-1.7-2C352.9,429.8,353.8,429.1,354.8,429.2z
	 M351,434c1,0.1,1.7,1,1.7,2c-0.1,1-1,1.7-2,1.7c-1-0.1-1.7-1-1.7-2C349.1,434.7,350,433.9,351,434z M348.4,428.7c1,0.1,1.7,1,1.7,2
	c-0.1,1-1,1.7-2,1.7c-1-0.1-1.7-1-1.7-2C346.5,429.4,347.4,428.7,348.4,428.7z"/>
<path class="st25" d="M409.3,540.7c-1.2,0.7-3.1,1.3-4.6,0.7c-1.2,0.3-3.8-0.4-4.7-1.7c-4.8-5.6,2.1-7.4,2.5-8.9
	c2.5-10.7-4.3-17.4-6.5-26.1"/>
<path class="st25" d="M381.3,447.5c-1.7,10.5-28.8,41.2,9.4,57.3c6.9,0.2,16-2.9,21.4-8.6"/>
<path class="st25" d="M421.2,492.1c24.5,1.1,20.1-23.8,41.1-25.9c-20.1,5.1-11,32.3-41.5,32.6"/>
<path class="st25" d="M372,488.9c2.2,9.3,6.6,31.2,1.5,36.7c-3.6,1.4-5.1,6.2-1.1,8.8c0.7,1.1,2.9,1.7,4.4,1.6
	c14.1,1,11.3-20.9,13.9-31.2"/>
<path class="st25" d="M400,539.8c-0.1-2.3,0.7-4,2.1-5.2"/>
<path class="st25" d="M376.8,535.9c-0.1-2.4,0.6-4.3,1.9-5.6"/>
<path class="st25" d="M372.4,534.4c-0.1-2.4,0.7-4.3,2.1-5.6"/>
<path class="st25" d="M404.6,541.5c-0.5-1.9,0-4,0.9-5.6"/>
<path class="st24" d="M399,509.1c4.1,5.5,5.9,11.8,6.1,19.5C407.5,520.8,405.5,513.8,399,509.1z"/>
<path class="st24" d="M396.3,497.8c-7.3,0.3-13.9-2-20.9-6.4C380.8,498.1,388.2,500.6,396.3,497.8z"/>
<path class="st26" d="M392.2,411.5c7.6-2.8,15.1-2.5,23.7,0.1C408.2,405.9,399.8,405.6,392.2,411.5z"/>
<path class="st23" d="M379.2,347.7c5.8-6.3,13.2-9.9,22.6-12C391.7,334.6,383.6,338.6,379.2,347.7z"/>
<path class="st27" d="M453.3,399.1c-5.8,6.3-13.2,9.9-22.6,12C440.8,412.3,448.9,408.2,453.3,399.1z"/>
<path class="st25" d="M403.9,406.6c-4.5-0.2-9.7,2.1-15.6,7"/>
<path class="st24" d="M363,401.3c-3.6,0.6-20,17.9-21.2,23.3C348.8,418.4,356.1,410.6,363,401.3z"/>
<path class="st28" d="M337.6,442.6c-12.9,0.7-12.6-10.5-2.9-15.7"/>
<path class="st28" d="M334.7,426.9c9.5,0.7,11.3,12.4,3.8,15.9"/>
<path class="st25" d="M421.8,382c3.5,22.6,2.7,45.5-0.2,60.6"/>
<path class="st13" d="M479,308.9c1,13.2-0.2,22.1-2.4,28.9c4.8,12.9,1,38.4-1.2,45.7c5.2,7.6,3.9,24.7-0.4,46.1"/>
<path class="st13" d="M469.6,501.5c-7.3,10.3-21.6,2.3-32.4,3.5c-6.1,1.1-13,9.2-11.9,18.4"/>
<path class="st13" d="M437.9,509.7c-5.7,2.1-9.9,6.7-12.6,13.7c6.4-3.2,13.7-5.4,21.4-8.2"/>
<path class="st14" d="M464.6,336.9c-9.5-8.3-20-11.1-32.5-1.6C441.9,331.9,455.6,332.4,464.6,336.9z"/>
<path class="st13" d="M443.1,314.1c-4.4,3.1-10.1,15.1-11,21.2c-3.3,4.3-6.6,12-7.9,19.5"/>
<path class="st13" d="M432.2,335.3c9.8-3.4,23.6-2.9,32.5,1.6"/>
<path class="st13" d="M504.5,347.3c15.8,15,11.2,19-3.9,26.2"/>
<path class="st13" d="M499.8,387.9c16.3,10.9,16.8,14.2,0.1,25.8"/>
<path class="st13" d="M501.1,431.3c15.4,4.4,14.5,8.5,2.3,18.7"/>
<path class="st13" d="M505.3,460.2c12.8,2,16.1,4.7,3.9,14.9"/>
<path class="st13" d="M513.6,486.5c14.1-7.1,15.2,0.9,11.8,9.3"/>
<path class="st13" d="M535,501c11.1-6,12.3-0.2,11.5,7.3"/>
<path class="st13" d="M553.5,515.8c9.7-0.2,8.5,6.6,3.1,9.1"/>
<path class="st11" d="M441.6,310.8l-3,1.2l-3.2-0.6C437.9,304.9,440.2,303.2,441.6,310.8z"/>
<path class="st13" d="M556.4,530.7c3.4,3,2.9,5.7-1.5,5.8"/>
<path class="st21" d="M435.4,311.4c2.5-6.5,4.8-8.2,6.2-0.6"/>
<path class="st29" d="M442.5,294.4c0,0,2,1.7,2.5,4.2c4.7-5.3,12.9-6.9,20.5-7"/>
<path class="st25" d="M377.6,447.3c-3.8,6-10.1,10-11.7,14.6c-1.6,5.3,0.3,9.8,4.7,15.2"/>
<path class="st25" d="M367,471.8c-4.4,3.5-3.2,7.5,3.9,12.8"/>
<path class="st25" d="M413.4,449.2c19.3-12.6,12.8-22.1,19.2-33.1"/>
<path class="st25" d="M433.6,419.1c-2-10.6,5.8-10.5,5.8-1.9"/>
<path class="st25" d="M438.3,413.2c10.4,3.8,4.1,36-18.5,51.6"/>
<path class="st30" d="M436.8,427.5c1.9,0,3.4-1.9,3.4-4.2s-1.5-4.2-3.4-4.2c-1.9,0-3.4,1.9-3.4,4.2
	C433.6,425.6,435.1,427.5,436.8,427.5z"/>
<path class="st13" d="M372.6,295.9c-1.4,12.5-14.3,12.2-21.9,5.2c-7.5-6.6-15.1-1.2-20.1-5.2c-9.2-10.1,3.8-16.5,3.4-24.6
	c-0.5-10.7,12-12.5,17.8-6.5c5,5.2,9.8,2.5,15.9,3.9c4.6,0.8,6.4,4,7.3,11.5"/>
<path class="st13" d="M431.7,240.1c-9.7-0.4-18,2.7-23.6,7.9"/>
<path class="st21" d="M427.8,292.6c5.3,9.9,9.3,9.4,11.9-1.5"/>
<path class="st13" d="M509.7,259.7c-38.9,44.9-123.3,29.2-138.7,41.3"/>
<path class="st11" d="M425.3,309.5l-2.9,0.3l-2.4-2.6C422.5,300.7,424.3,301.4,425.3,309.5z"/>
<path class="st21" d="M420.1,307.2c2.5-6.5,4.2-5.8,5.2,2.2"/>
<path class="st13" d="M441.6,310.8c-1.6,1.3-4.6,1.6-6.2,0.6c-5.3,0.2-9-0.3-10.2-2c-1.9,1-3.7,0.5-5.2-1.5
	c-0.4-2.9,2.1-6.8,8.8-11.9"/>
<path class="st21" d="M420.1,307.2c2.3-6,3.9-5.9,5,0.3"/>
<path class="st25" d="M425.7,363.4c-1.2-28.1-27-37.2-41.5-25.6c-11.7,9.1-13.3,27.2-1,38.1"/>
<path class="st8" d="M343.6,270.2c-0.4,3.2,1.4,13.8-4.3,10.8C334.6,277.8,340.3,272,343.6,270.2z"/>
<path class="st13" d="M343.6,270.2c-0.4,3.2,1.4,13.8-4.3,10.8C334.6,277.8,340.3,272,343.6,270.2z"/>
<path class="st8" d="M362.9,275.8c0.4,3.5,5.3,14.5-1.8,12.8C355,286.3,359.7,278.6,362.9,275.8z"/>
<path class="st13" d="M362.9,275.8c0.4,3.5,5.3,14.5-1.8,12.8C355,286.3,359.7,278.6,362.9,275.8z"/>
<path class="st13" d="M387.3,253.9c2.2,0.3,6.2,1.4,8.9,5.2"/>
<path class="st13" d="M414.9,247.2c3.9,0.6,5.9,2.5,7.2,4.8"/>
<line class="st13" x1="468.9" y1="241.9" x2="466.1" y2="240.4"/>
<path class="st24" d="M74.3,484.4l-6.7-5.1c-6.7,7.2-17.9,8.9-31.3,8C50.4,494.3,65.1,492.6,74.3,484.4z"/>
<path class="st25" d="M67.6,479.3c-6.7,7.2-17.9,8.9-31.3,8c14,7,28.8,5.3,38-2.9"/>
<path class="st31" d="M170,419.8l-5.6-17.4l-1.2-8.9l5.3-4.4c8.2,6.5,11.7,13.9,13.7,22.7c1.6,10.3,0.1,21.2-11.2,35L170,419.8z"/>
<path class="st32" d="M172,392.1c6.4,7.1,8.5,14.3,10.6,23.1c1.6,10.3-0.2,18.5-11.5,31.7C176.2,440.5,186.4,419.6,172,392.1z"/>
<path class="st31" d="M142.4,490.9l-14.1,7.2c1.1,27,3.8,40.1,7.4,46.1l2.1-6.5l5.1,3.8C142.6,531.1,142.4,516.2,142.4,490.9z"/>
<path class="st32" d="M142.4,490.9l-8.8,5.7c1.1,27,1.3,34.8,5.7,36.6l3.4,1C142.4,523.9,142.4,516.2,142.4,490.9z"/>
<path class="st32" d="M98.5,493l-15.3-6.5c2.7,25.7,1.9,44.3-2.5,55.9l4.4-2.1l1.7,5.2C92.5,538.4,99.4,524,98.5,493z"/>
<path class="st31" d="M91,491.7l-7.8-5.1c2.7,25.7,1.9,44.3-2.5,55.9l2.2-1l1.7-5.8C89.3,529.7,93.1,509.2,91,491.7z"/>
<path class="st15" d="M90.7,539.8c-1.5-3-5.2-5.3-8.2-3.2c-0.5,2.2-1.1,4.1-1.8,6l3.8-0.5l2.4,3.7C88.1,544.1,89.4,542.2,90.7,539.8
	z"/>
<path class="st33" d="M98.6,497.6l-0.1-4.6c-4.5,0.7-9.6-1.4-15.3-6.5l-0.4,5.6c-4.7-0.4-7.1-4.3-8.4-7.8c-5.5-1.8-10-6.6-12.1-18
	c-8-4.6-10.2-11.3-8.4-22.3c-6.3-11.1-7.3-23.4-1.7-36.9c1-9.1,13.3,1.2,18.3-5.1l94.2,0.3c3.5,4.1,5,10.3,5.6,17.4
	c2.4,6.9,2.7,13.7,1,20.4c1.3,10.9-4.5,23.5-10.6,27.3c1,8.2-6.1,18.6-15,18.3c-1.3,6.2-13.1,13.8-23,12.3
	C115.7,500.9,104.6,500.8,98.6,497.6z"/>
<path class="st34" d="M98.6,497.6l-0.1-4.6c-4.2,0.7-9.9-1.4-15.3-6.1l-0.4,5.3c-4.4-0.4-8-5.2-9.2-8.5c-5.2-1.7-7.6-12.7-5.4-15.6
	c-4.8-5.3-9.7-8.9-9.5-20c-8.6-8.7-10.6-36.6,3-53.9l24.9,21.7l-1.4,5.5c-3.8,10.3,1.4,16.9,9.8,19.4c-7.1,2.7-7.2,12.4-4.3,17
	c-3.1,4.5-0.4,8.7,4,9.4c1.6,9.1,15.6,8.3,19.4,3.4c3.4,7.2,29.3,16.6,41.9-1.8c1,7.7-6.5,12.9-13.8,14.8
	c-1.2,5.8-10.4,15.8-19.8,14.4C116.1,500.7,104.3,500.6,98.6,497.6z"/>
<path class="st35" d="M167.5,371.4l-88.2-20l-27,21.1c-2.6,11.4-0.1,18.7,4.7,24.1l3.7-4.1c5.5,2,8.7,5.1,9.7,9.6l3.5,8.7
	c2.2,4.1,6.5,5.8,12.8,5.2c-4.4,8.1,2,14.8,11.7,8.6c4.3,11,24.6,10.1,28.1-1.1c19.4,11.2,44.1-9.5,36.9-30
	C170.7,390.1,173.8,379.3,167.5,371.4z"/>
<path class="st33" d="M79.3,351.3l-27,21.1c-2.6,11.4-0.1,18.7,4.7,24.1l9.9,1.4c2.5,1.3,2,3.9,1.6,7.2c5.7,9.1,11.3,12.7,19.6,7.9
	c-6.3,0.1-9.6-4.1-11.7-8.6c-1.4-11.8-12.3-12.6-3.1-22.7c1.8,2.7,4.7,5.8,10.1,9.3c2.1-2.1,4.1-4.8,5.8-7.9
	c0.5-0.4,0.9-1.1,1.2-2.2c3.7-7.4,5.9-16.4,4.3-24c-1.6,2.9-3.8,5.6-6.4,7.9C87.9,361,85.9,356.5,79.3,351.3z"/>
<path class="st36" d="M162.3,310.6l-32.2-25.8l2.1-26.5C165,244.3,192.3,288.7,162.3,310.6z"/>
<path class="st26" d="M162.3,310.6l-38.3-14.8l2-25C163.4,258.7,183,293.2,162.3,310.6z"/>
<path class="st33" d="M157.8,374.7c-7.2,11.4-33.6,21.4-64.3-4.5l1-14.7c6.8-16.4-4.8-32.4-18.2-34c4.9,0.9,8.6-0.7,11.2-4.7
	l33.1-42l15,7.9c11.4,5.6,22.4,18.5,29,32.6c16.3,12.2,16.9,44.6,9.6,51.2C170.7,370.2,165,373.2,157.8,374.7z"/>
<path class="st34" d="M98.9,373.9l-4.7-3.3l0.1-8.5c-4,9.4-15.5,14.8-23.7,11.7l24.2-18.3c6.8-16.4-4.8-32.4-18.2-34
	c4.9,0.9,8.6-0.7,11.2-4.7l42.5-32c1.5,14-5.3,22.6-16.4,22.3c0,5.5-3.2,8.4-7.6,10.4c-5.8,8.7-0.3,18.7,7.2,26.9l-7.3,4.4
	C115.8,348.4,104.7,370,98.9,373.9z"/>
<path class="st25" d="M132.3,258.3c32.9-14,60.2,30.5,30.2,52.4"/>
<path class="st37" d="M110.4,303.1c-1.2,8-6.9,14.1-21.8,13.2c4.4-17.5-2.3-30.1-33.6-27.8c-1-9.3,1-14.9,9-19.2
	c0.5-21.8,36.9-26.6,40.6-15.6c5.1-6.8,19.1-4.4,19,5.3c16.5-7.3,29.4,20.3,6.5,25.7C131.6,293.2,124.5,302.8,110.4,303.1z"/>
<path class="st35" d="M101.9,296.8c2.6,7.8-4.6,15.9-17.3,15.1c3.8-15-2.9-21.4-29.6-19.4c-2-11.4,9.1-18,16.2-16.5
	c0.4-18.7,23.8-19.2,28.8-12.4c4.4-5.9,13.6-2.9,13.8,3.6c13.9-5.6,19.9,16.4,4.7,19.3C119.7,293.8,110.6,299.8,101.9,296.8z"/>
<path class="st33" d="M158.8,304.7c-5-7.6-10.6-13.7-16.9-18.3c14.4-8.4,28.5-4.2,41-2.5C179.6,294.1,171.8,306.4,158.8,304.7z"/>
<path class="st34" d="M158.8,304.7c-5-7.6-5.8-9.7-12.1-14.4c14.4-8.4,25.3-2.3,36.2-6.5C179.6,294.1,171.8,306.4,158.8,304.7z"/>
<path class="st30" d="M154.7,299.6l-4.1-5.4c2.2-3.3,20.9-5,20,0.6C169.7,300.5,154.3,300.9,154.7,299.6z"/>
<path class="st35" d="M159.3,352.8c7.6,1.1,13-2.5,13.1-8.3C174,353.3,168.5,357.2,159.3,352.8z"/>
<path class="st36" d="M76.5,321.5c6.4-0.5,15.9,7.5,18.8,16.5c5.8,17.5-8.1,32.4-24.7,35.7c-31,5.2-50.3-26.9-44.1-53.6
	c5.3-28,39-41.4,59-24.6C94.1,304.7,90.7,323.3,76.5,321.5z"/>
<path class="st26" d="M76.5,321.5c-16.8-2.5-29.9,10.8-30.6,22.2c1.6-15.9,32.4-15.7,29.9,1.4c-1.9,13.6-29.3,16.8-35.2-5.4
	c-5.6-20.6,17.2-39,39.6-32.2C88.1,310.5,85.4,321.2,76.5,321.5z"/>
<path class="st38" d="M91.2,295.7c3.4,3,7.5,0.3,7-2.5 M93.9,282.8c1.4,3.4,5.6,1.4,5.6-1.3 M107.4,289c3.5,3.5,8.3,0.6,7.7-3.1
	 M110.4,303.1c0,7.6-10.4,15.6-21.8,13.2 M64,269.4c0.5-21.8,36.9-26.6,40.6-15.6c5.4-6,18-3.6,19,5.3c16.5-7.3,29.4,20.3,6.5,25.7
	c1.4,8.5-5.7,18.1-19.8,18.4 M55,288.6c-3.4-10,5-22,18.1-20.5 M117.9,278.2c1.3,2,3.7,0.3,3.4-1.4"/>
<path class="st11" d="M124.4,343.4l-6.3-0.2c-9.1-7.9-11.3-19.6-8.9-23.4c5.1-6.2,20.8,1.7,24.4,12.6
	C134.6,335,130.7,341.7,124.4,343.4z"/>
<path class="st17" d="M113.4,326.8c6.2-5.4,17.7,0.6,19.6,9.9l-3.6,4.2l-5,2.5l-6.3-0.2C114.5,341.5,108.1,331.1,113.4,326.8z"/>
<path class="st11" d="M156.8,316.6l0.6-0.2c-3.4,1.1-5.8,2.9-8.5,6.3c-8.4-1.8-16-16.8-11.9-21.4
	C141.9,298.3,151.1,302.3,156.8,316.6z"/>
<path class="st17" d="M140,308.2c6.2-5.4,14.1,1,14.9,9.3l-5.8,5.2C143.8,323.1,136.2,312.3,140,308.2z"/>
<path class="st38" d="M164.4,402.4c3.8,5.3,6.2,10.3,5.6,17.4c2.5,6.3,3.1,13.6,1,20.4"/>
<path class="st25" d="M168.5,389.1c7.1,6.5,11.9,13.9,13.7,22.7c1.3,10.3,0.2,21.9-11.2,35"/>
<path class="st15" d="M142.8,534c-4.6-1.9-7.8-0.1-10.1,2.3c0.9,3.5,2,6,3.1,7.9l3-3.7l4.2,1C142.9,539.2,142.9,536.7,142.8,534z"/>
<path class="st25" d="M83.2,486.6c2.7,25.7,1.9,44.3-2.5,55.9l3.8-0.5l2.4,3.7c5.6-7.2,12.5-21.7,11.6-52.6"/>
<path class="st25" d="M128.3,498c1.1,27,3.8,40.1,7.4,46.1l3-3.7l4.2,1c-0.4-10.3-0.6-25.3-0.6-50.6"/>
<circle class="st19" cx="119.3" cy="335.7" r="5.4"/>
<circle class="st11" cx="122.1" cy="332.8" r="2.5"/>
<ellipse class="st11" cx="117.9" cy="326.1" rx="2.5" ry="2.5"/>
<path class="st38" d="M57,396.5c-5.7-5.5-7.5-17.2-4.7-24.1 M70.6,373.7c1.1,7.8,7.1,16.2,12.9,17.3c6-5,12-18.3,11.3-35.6"/>
<ellipse class="st11" cx="144.6" cy="306.5" rx="2.2" ry="2.2"/>
<circle class="st19" cx="146.9" cy="315.2" r="4.7"/>
<circle class="st11" cx="149.3" cy="312.7" r="2.3"/>
<path class="st25" d="M52.2,307.3c-0.6-5.4-5.4-9.2-9.5-8.8"/>
<path class="st25" d="M43.6,308.9c-0.4-3.1-3.1-5.2-5.4-5"/>
<path class="st25" d="M45.9,343.7c6.3-4.9,25.3-9.5,26.2,1.2"/>
<path class="st25" d="M90.3,540.4c1.3-2.6-3-6.3-7.7-4.2"/>
<path class="st25" d="M133,537.4c-1.5-2.6,5.9-5.9,9.8-3.1"/>
<path class="st39" d="M77.6,294.3c-9.5-1.8-19-1.3-29.9,1.5C57.9,289.8,67.9,289.7,77.6,294.3z"/>
<path class="st40" d="M80.8,366.6c7-6.2,11.2-13.6,12.7-23.7C94.9,354.9,88.8,362.2,80.8,366.6z"/>
<path class="st25" d="M80.5,326.9c-2-0.1-3.4,1.5-3.5,2.8"/>
<path class="st25" d="M85.5,331c-1.7-0.4-4,0.8-4.7,3"/>
<path class="st41" d="M84.8,253.1c6.3-2.1,13.1-0.5,17.9,3.5C100.1,249.3,90.6,248.4,84.8,253.1z M124.4,262.5
	c5.3-0.5,10.3,2,13.3,6C137.1,262.4,129.8,259.9,124.4,262.5z"/>
<path class="st25" d="M45.9,343.7c2.4-23.9,39.8-33.2,49.4-5.7c5.8,17.5-8.1,32.4-24.7,35.7c-31,5.2-50.3-26.9-44.1-53.6
	c5.3-28,39-41.4,59-24.6c8.6,9.2,5.3,27.7-9,25.9"/>
<path class="st38" d="M118.1,343.2c-9.1-7.9-11.3-19.6-8.9-23.4c5.1-6.2,20.8,1.7,24.4,12.6c0.9,2.6-3,9.4-9.3,11 M106.2,317.4
	c-2.7,1.8-3.2,5.4-1.6,8.7 M140.2,295.3c-2.5-1.9-7-0.6-9,2 M164.7,315.3c-5.8-0.2-11.4,1.9-15.7,7.3c-8.4-1.8-16-16.8-11.9-21.4
	c4.8-3,14,1,19.8,15.4 M130.9,346.2c-5.9-4.6-16.8-4.7-24.7,2.5 M135.8,282.8c11.4,5.6,22.4,18.5,29,32.6
	c16.3,12.2,16.9,44.6,9.6,51.2c-8.9,9.2-30.3,14.1-55.4,1.5 M116.1,369.9c2.1-0.3,3.5-2.1,3.7-4.4 M161.4,354.4
	c8.8,2.5,12.3-3.7,11.8-9.5 M170.2,353.3c3.3,3.5,5.1,12,2.3,14.8 M141.9,286.4c14.4-8.4,28.5-4.2,41-2.5
	c-3.3,10.3-11.1,22.5-24.1,20.9 M157.8,374.7c-3.7,9.8-29.8,20.3-58.9-0.8"/>
<path class="st35" d="M132.2,325.6c-4.6-5.8-9.9-8.8-17.7-11C121,312.5,128.7,317.7,132.2,325.6z M156.1,309.3
	c-2.3-6.4-8.7-12.6-15.4-11.2C146.6,299.2,152.7,304.4,156.1,309.3z M175.7,341.6c-1.7-8.4-5.2-27.1-22.9-19.9
	C169.2,308.7,176.3,331.9,175.7,341.6z M91.4,366.7c-1.4,7.3-4.7,16.6-9,20.9C89.6,384.1,92.7,374.5,91.4,366.7z"/>
<path class="st42" d="M106.9,427.3c6.7,0.7,13-2.5,16.8-7.5C122.9,427.5,113.7,430.6,106.9,427.3z M104.8,416.4
	c-5.3,0.5-10.3-2-13.3-6C92.1,416.6,99.4,419,104.8,416.4z M143.2,422.9c7.5-4.2,13.7-11.1,16.3-20.6
	C161.7,411.9,151.2,422,143.2,422.9z"/>
<path class="st43" d="M193.6,157.8l-3.2-4.6l-11.2-4.5c-9.5,0.7-20.3-1.3-29.1-4.8c4.8,7,3.3,12.3-4.5,15.8
	C160.6,167.8,180,166.1,193.6,157.8z"/>
<path class="st44" d="M193.6,157.8l-3.2-4.6l-11.2-4.5c-9.5,0.7-6.9,1.5-11.7-0.4c4.8,7-1.7,14-14.6,14.5
	C167,168.4,179.2,163.9,193.6,157.8z"/>
<path class="st44" d="M167.4,123.4l8.7,22.4c-29.6-5.8-37.7-23.7-13.9-14.3C152.2,125.4,151.7,120.7,167.4,123.4z"/>
<path class="st43" d="M190.3,153.2l13.4-60.1l-27.9,0.7C159,124.4,173.6,152,190.3,153.2z"/>
<path class="st44" d="M190.3,153.2l-4.3-13.9c-6.5,1.6-12.4-4.5-17.1-26.1C167,138.3,177.7,152.1,190.3,153.2z"/>
<path class="st45" d="M186.1,122.6c4.5-0.6,10.2-15.2,10.3-25.1l40.5-23.9c41.3,23.6,28.7,67.7,8.1,81.4c-10.5,7.7-23,7.6-28.1,1.1
	C211.2,170.8,181.3,166.1,186.1,122.6z"/>
<path class="st43" d="M188.2,148.5c8.7,12.2,27.5,9.8,27.6-0.2c13.4,9,32.5,3.4,40.9-16.2c1.4,8.4-4.8,16.8-11.7,22.7
	c-10.5,7.7-23,7.6-28.1,1.1C210.2,169.2,193.4,164.4,188.2,148.5z"/>
<path class="st43" d="M269.2,23.4l-1.7-6l-2-9.4l-3.4-7c7.9,1.4,13.4,6.2,16.3,14.5c10.3,5.9,16.5,29.3,11.5,48l-39.8,19.1l-13.2-9
	l3.2-6.6l1.3-6.7c22.1-8.4,25.6-30.7,12.8-58.4C259.2,0.5,267.7,14.6,269.2,23.4z"/>
<path class="st44" d="M290,63.5c-3.8,16.9-13.6,27.9-29.3,33l-5.2-8.2l-7.5-7.6C263.6,80.3,269.8,51.6,290,63.5z"/>
<path class="st43" d="M164.8,72.2c-9.1-14.6-10.3-29.4,0-44.7c0.6-14.4,6.6-12,5.3-2.8c4-15.1,7.9-11.8,8.3-6
	c22.5-13.5,42-1.7,50.4,20.7l-24.5,35.8L164.8,72.2z"/>
<path class="st46" d="M226.8,79.8l-11.5-31.1c9-10.7,15.9-10.1,24.7-7.9l-2.9,4l2.5-0.7C242.6,56.5,244.3,75.8,226.8,79.8z"/>
<path class="st44" d="M173.6,64.7l-8.8,7.4c-9.3-11.8-8.2-37.7,0-44.7l1-6.9c3.4,1.6,1.7,6,2.2,9.6
	C162.6,38.9,164.2,54.9,173.6,64.7z"/>
<path class="st46" d="M206.7,90.1l-14.1-30.6c-6.6,8-21.9-4.6-30.7,21l7-0.4l-3.2,2.3C176,99.8,195.1,104.2,206.7,90.1z"/>
<path class="st47" d="M230,53.3l-13.2,6.6l1.7-10C223.2,43.9,230.9,48.7,230,53.3z"/>
<path class="st43" d="M206.7,90.1l20.1-10.3c8.3-2.2,13.2-8.8,14.6-19.6c-2.8,9.5-11.4,12.4-13.3,10l-27.8,9.6
	c-15.8,9-32-1.7-26.7-15.2c-4,3.2-9.7,6.4-11,15.6c1-0.7,1.9-1.9,2.9-1.5L169,80l-3.2,2.3C174.3,98.3,195.5,104.6,206.7,90.1z"/>
<path class="st48" d="M192.6,59.5c0.8,5.8-16.6,8.8-11.8,18.3c3.1,8.4,10.3,4.8,15.4,7.1c18.5,10.8,30.3,6.8,31.2-14.1
	c4.7-3.7,8.2-8.4,10-13.3c-6.3-4.5-15-7.4-26.1-8.7C203.4,41.3,193.1,46,192.6,59.5z"/>
<path class="st47" d="M192.6,59.5c0.8,5.8-16.6,8.8-11.8,18.3c3.1,8.4,10.3,4.8,15.4,7.1c18.5,10.8,30.3,6.8,31.2-14.1
	c-6,3.8-16.6,12.4-37.5,5.1C176.1,73.1,194.8,66.6,192.6,59.5z"/>
<path class="st11" d="M195,50.3l-2.1,6.9l-15,6.6C170.6,35,181.2,30.1,195,50.3z"/>
<path class="st11" d="M220.3,43.8l-4.1,4l-14-2.5C195,21.6,209.5,23.2,220.3,43.8z"/>
<path class="st49" d="M228.8,39.4c-7.3-21.7-29.2-34.6-50.4-21.1"/>
<path class="st48" d="M193.2,54.9l-0.6,4.6l-4.5,2.8l-9.9,1C172.5,40.6,183.4,38.7,193.2,54.9z"/>
<path class="st48" d="M218.6,45.3l-3.3,3.4l-3.9,0.1l-3.6-2.5l-5.7-1C200.6,31.3,208.8,29.1,218.6,45.3z"/>
<path class="st49" d="M177.5,24.6c3.1-7.6-2.1-20.2-7.4,0c1.3-9.2-4.6-11.6-5.3,2.8c-10.3,15.3-9.1,30.2,0,44.7"/>
<path class="st49" d="M192.6,59.5c-6.6,8-21.9-4.6-30.7,21l7-0.4l-3.2,2.3c7.7,16,29.4,21.8,40.9,7.7"/>
<path class="st49" d="M215.3,48.7c9-10.7,15.9-10.1,24.7-7.9l-2.9,4l2.5-0.7c2.7,10.4,4.7,31.6-12.8,35.6"/>
<path class="st49" d="M241.5,60.3c21.1-6.8,25.6-30.7,12.8-58.4c5-1.3,13.5,12.8,15,21.6"/>
<path class="st49" d="M266.8,15.8c-0.5-5.3-1.4-10.5-4.7-14.8c8.2,0.1,20.4,11.2,20,34.7"/>
<path class="st49" d="M278.4,15.5c15.1,8,25.6,65.2-17.9,81"/>
<path class="st49" d="M175.8,93.8c-16.8,30.6-2.2,58.2,14.5,59.4"/>
<path class="st25" d="M192.6,59.5c0.3,6.7-15.2,7.9-11.8,18.3c2.7,7.3,11.2,5.4,15.4,7.1c17.7,10.7,29.3,7.9,32-14.3"/>
<path class="st49" d="M179.2,148.7c-9.5,0.7-20.3-1.3-29.1-4.8c4.8,7,3.3,12.3-4.5,15.8c15,8.1,34.4,6.4,48-1.9"/>
<path class="st49" d="M176,145.8c-29.6-5.8-37.7-23.7-13.9-14.3c-9.9-6.1-10.5-10.8,5.2-8.1"/>
<path class="st25" d="M190,72.8c0.3,2.1-0.4,3.9-2.2,5.5"/>
<path class="st25" d="M218.5,49.9c4.7-6,12.4-1.1,11.5,3.4"/>
<path class="st49" d="M177.8,63.4c-7.1-26.7,3.4-33.3,17.2-13"/>
<path class="st49" d="M202.1,45.3c-7.2-23.7,7.4-22.2,18.1-1.5"/>
<path class="st19" d="M183.7,60.1c2.5,0,4.6-2.1,4.6-4.6s-2.1-4.6-4.6-4.6c-2.5,0-4.6,2.1-4.6,4.6S181.2,60.1,183.7,60.1z"/>
<path class="st11" d="M186.2,55.1c1.2,0,2.2-1,2.2-2.2c0-1.2-1-2.2-2.2-2.2c-1.2,0-2.2,1-2.2,2.2C184,54.2,185,55.1,186.2,55.1z"/>
<path class="st11" d="M183.1,49.4c1.6,0,2.8-1.3,2.8-2.8c0-1.6-1.3-2.8-2.8-2.8s-2.8,1.3-2.8,2.8C180.3,48.2,181.6,49.4,183.1,49.4z
	"/>
<path class="st11" d="M207.4,37.9c1.6,0,2.8-1.3,2.8-2.8c0-1.6-1.3-2.8-2.8-2.8c-1.6,0-2.8,1.3-2.8,2.8
	C204.6,36.6,205.9,37.9,207.4,37.9z"/>
<path class="st19" d="M209,47c2.4,0,4.3-1.9,4.3-4.3c0-2.4-1.9-4.3-4.3-4.3c-2.4,0-4.3,1.9-4.3,4.3C204.6,45.1,206.6,47,209,47z"/>
<circle class="st11" cx="211.3" cy="40.4" r="2"/>
<path class="st25" d="M190,75.8c23,8.2,42.2-4,47.5-18.4c-6.3-4.5-15-7.4-26.1-8.7c-8.1-7.4-18.3-2.8-18.8,10.7"/>
<path class="st49" d="M174,32.3c-1.8,1.8-2.4,4.1-2.2,6.6"/>
<path class="st49" d="M213,108.7c2.5,3.2,6.5,1.6,6-2.9"/>
<path class="st49" d="M239.4,100.2c1.3,1.7,3.4,0.8,3.1-1.5"/>
<path class="st49" d="M236.7,123.2c0.9,1.9,3.1,1.7,3.4-0.7"/>
<path class="st49" d="M226.6,101.4c2.5,3,5.7,1.7,6.1-2.4"/>
<path class="st49" d="M224.2,123c1.3,3.7,5.5,3.7,6.2-0.4"/>
<path class="st50" d="M211.3,162.3c-3.8,1.8-8.6,1.3-14.4-1.5c-6.9,6.1-10,14.3-6.9,16.1c2,1.3,5.5-2.9,8.4-10.7
	c-2.4,8.5-3,14.4,0.6,14.6c2.2,0.3,4.9-4.8,5.2-12.7c2.6,3.4,3.3,9.5,6.7,9.1C215.7,176.5,216.4,168.3,211.3,162.3z"/>
<path class="st51" d="M196.9,160.7c-6.9,6.1-10,14.3-6.9,16.1c2,1.3,5.5-2.9,8.4-10.7c-2.4,8.5-3,14.4,0.6,14.6
	c2.2,0.3,4.9-4.8,5.2-12.7c2.6,3.4,3.3,9.5,6.7,9.1c4.8-0.7,5.5-8.9,0.4-14.9"/>
<path class="st50" d="M243,156.3c-6.9,3.4-12.7,4.8-17.4,4.3c1.7,4.7-0.6,14,4.3,14.5c2,0.3,4.1-4.3,3.7-9.3c3,2.5,3.6,10.5,7.3,9.8
	c2.9-0.7,3.2-4.4,0.6-12.2c4.6,5.2,7.5,5.9,9.4,4.3C253.7,165.6,250,160.1,243,156.3z"/>
<path class="st51" d="M225.6,160.6c1.7,4.7-0.6,14,4.3,14.5c2,0.3,4.1-4.3,3.7-9.3c3,2.5,3.6,10.5,7.3,9.8c2.9-0.7,3.2-4.4,0.6-12.2
	c4.6,5.2,7.5,5.9,9.4,4.3c2.8-2.1-0.9-7.6-7.9-11.4"/>
<path class="st49" d="M202.1,25c-1.7-0.3-3.7,0.4-4,2.7"/>
<path class="st47" d="M199.8,59.3c1.3,0,2.4-1.1,2.4-2.4c0-1.3-1.1-2.4-2.4-2.4c-1.3,0-2.4,1.1-2.4,2.4
	C197.4,58.3,198.5,59.3,199.8,59.3z"/>
<path class="st52" d="M207.2,47.5c-6.3,0.2-9.8,3.8-12.5,9.9C195.7,47.6,201.1,44.5,207.2,47.5z"/>
<path class="st53" d="M253.7,57.6c5.1-6,8.5-13.3,10.9-22.7C264.8,45.4,261,52.8,253.7,57.6z"/>
<path class="st54" d="M259.4,107.9c-1.8-8-5.6-15.1-12-22.3C256.2,91,259.9,98.6,259.4,107.9z"/>
<path class="st53" d="M206.5,18c-6.3-1.9-12.6-1.7-20,0.3C193.4,13.6,200.1,13.8,206.5,18z"/>
<path class="st49" d="M236.9,73.6c41.3,23.6,28.7,67.7,8.1,81.4c-10.5,7.7-23,7.6-28.1,1.1c-5.7,14.8-35.6,10.1-30.8-33.4"/>
<path class="st5" d="M243,281.1c0.5-0.9,2-2.4,3.3-3.2"/>
<path class="st55" d="M263.7,513c6.4,0,12.2,1.6,16.9,6C274.9,510.7,267.6,511,263.7,513z"/>
<path class="st55" d="M336.6,333.2c-0.8,3.8,1.9,9.8,6.1,13.1C335,342.8,332.6,335.8,336.6,333.2z"/>
<path class="st55" d="M202.5,511.1c-6.4,0-12.2,1.6-16.9,6C191.4,508.8,198.6,509.1,202.5,511.1z"/>
<path class="st32" d="M61.4,415c4-0.2,8.8-6.1,6.6-16.4c-8-3.6-21.2-19.1-29.6-38.7c-2.1,1.3-6.3,2.2-9.2,1
	C37.6,392.3,49,406.7,61.4,415z"/>
<path class="st31" d="M61.4,415c4-0.2,8.8-6.1,6.6-16.4c-2,20.3-32-17.1-34.1-37.2c-2.1,1.3-1.8,0.7-4.7-0.4
	C37.6,392.3,49,406.7,61.4,415z"/>
<path class="st15" d="M38.3,359.9l-4.5,1.5l-4.7-0.4c-1.9-3-3.2-7.2-3.6-12c1.9,0.2,3.8,1.6,5.6,3.6c0.6-2.8,1.7-5.3,3.2-7.6
	C35.7,349.9,40,352.7,38.3,359.9z"/>
<path class="st25" d="M29.1,360.9c-1.9-3-3.2-7.2-3.6-12c1.9,0.2,3.8,1.6,5.6,3.6c0.6-2.8,1.7-5.3,3.2-7.6c1.3,5,5.7,7.8,4,15"/>
<path class="st25" d="M64.7,396.7c-8-5.6-19.1-19.7-26.4-36.8c-2.1,1.3-6.3,2.2-9.2,1c8.5,31.4,19.8,45.8,32.3,54.1"/>
<path class="st38" d="M171,440.2c1.3,10.9-4.5,23.5-10.6,27.3c1,8.2-6.1,18.6-15,18.3c-1.3,6.2-13.1,13.8-23,12.3
	c-6.8,2.8-17.8,2.7-23.9-0.5 M82.8,492.2c-4.4-0.6-8-4.2-9.2-8.5c-5.5-1.4-11.4-11.3-11.3-17.3c-8-4-10.6-16.4-8.4-22.3
	c-6.3-10.7-7.6-22.8-1.7-36.9"/>
<path class="st38" d="M73.9,410.8c2.2,4.1,6.5,5.8,12.8,5.2c-4.4,8.1,2,14.8,11.7,8.6c4.3,11,24.6,10.1,28.1-1.1
	c19.4,11.2,44.1-9.5,36.9-30c7.5-3.4,10.6-14.2,4.3-22.1 M111.4,394.7c2.7,3.6,7.2,1.8,7.3-0.9 M123.8,404.9c2.3,3,6,1.4,6.1-0.9
	 M139.2,405c3.9,2.4,7.4-1.1,6.4-3.6 M144.6,392.1c2.2,1.5,4.4-0.3,3.9-1.9 M141.4,447.9c3.2,2.7,6.9,0,6.4-2.5 M96.9,480.5
	c1.8,3.4,5.8,2.4,6.2,0.1 M97.2,468.4c0.8,3.7,4.9,3.9,5.9,1.8 M82,460c1,4.6,6.1,4.8,7.4,2.2 M143.1,461.5c2.7,2.3,5.9,0,5.5-2.1
	 M81.5,484.7c4.3,5.4,12.8,10.2,21.2,7.7 M64.7,396.6c3.2,2.1,5.6,5.8,4.2,11"/>
<path class="st56" d="M363,151.4c-74-71.7,57-96.1,81.3-54.4C471.8,144.1,406.5,190.9,363,151.4z"/>
<path class="st57" d="M371.6,142.1c-61.7-38.6,25.1-74.7,48.1-49.6C445.5,121,407.4,162.9,371.6,142.1z"/>
</svg>
