<?xml version="1.0" encoding="iso-8859-1"?>
<!-- Generator: Adobe Illustrator 19.0.0, SVG Export Plug-In . SVG Version: 6.00 Build 0)  -->
<svg version="1.1" id="Speaker" xmlns="http://www.w3.org/2000/svg" xmlns:xlink="http://www.w3.org/1999/xlink" x="0px" y="0px"
	 viewBox="68.519 -8.019 36 33" style="enable-background:new 68.519 -8.019 36 33;" xml:space="preserve">
<g id="Path">
	<path style="fill:#FFFFFF;" d="M97.011,23.981c-0.671,0-1.32-0.302-1.78-0.827l-0.189-0.216c-0.84-0.957-0.899-2.457-0.14-3.491
		c2.22-3.012,3.441-6.839,3.441-10.779c0-4.099-1.308-8.04-3.682-11.098c-0.804-1.037-0.763-2.559,0.096-3.541l0.19-0.218
		c0.466-0.535,1.096-0.83,1.773-0.83c0.779,0.023,1.436,0.367,1.884,0.942c3.169,4.07,4.914,9.306,4.914,14.744
		c0.001,5.23-1.631,10.316-4.594,14.32c-0.441,0.597-1.1,0.957-1.806,0.991L97.011,23.981z M85.075,22.518
		c-0.596,0-1.169-0.233-1.615-0.656l-7.654-7.235h-3.833c-0.671,0-1.319-0.301-1.78-0.826c-0.434-0.496-0.673-1.146-0.673-1.831
		V5.364c0-1.465,1.101-2.658,2.453-2.658h3.833l7.655-7.237c0.447-0.422,1.02-0.655,1.614-0.655c0.377,0,0.755,0.096,1.092,0.278
		c0.839,0.449,1.362,1.362,1.362,2.38V19.86c0,1.018-0.522,1.931-1.363,2.381C85.832,22.422,85.454,22.518,85.075,22.518z
		 M92.009,18.274c-0.671,0-1.319-0.302-1.78-0.828l-0.193-0.221c-0.803-0.915-0.898-2.33-0.228-3.364
		c0.982-1.51,1.502-3.307,1.502-5.194c0-2.03-0.588-3.929-1.701-5.493c-0.732-1.028-0.663-2.514,0.163-3.456l0.191-0.22
		c0.471-0.536,1.098-0.829,1.768-0.829l0.155,0.005c0.701,0.04,1.36,0.412,1.797,1.021c1.834,2.56,2.804,5.663,2.804,8.972
		c0,3.082-0.856,6.017-2.478,8.489c-0.421,0.646-1.083,1.051-1.814,1.11C92.133,18.272,92.072,18.274,92.009,18.274z"/>
	<path style="fill:#1F862E;" d="M96.721-6.019c0.017,0,0.033,0,0.05,0.001c0.4,0.013,0.778,0.215,1.044,0.556
		c3.033,3.895,4.703,8.914,4.703,14.129c0.001,5.018-1.561,9.893-4.398,13.726c-0.263,0.354-0.643,0.567-1.05,0.587
		c-0.02,0.001-0.04,0.002-0.061,0.002c-0.385,0-0.754-0.173-1.028-0.485l-0.191-0.218c-0.533-0.608-0.57-1.581-0.085-2.239
		c2.344-3.18,3.635-7.218,3.635-11.372c0-4.32-1.382-8.479-3.891-11.711c-0.509-0.656-0.483-1.649,0.058-2.269L95.7-5.531
		C95.971-5.842,96.321-6.019,96.721-6.019 M85.075-4.186c0.21,0,0.421,0.052,0.618,0.158c0.509,0.273,0.835,0.857,0.835,1.5
		l0,22.387c0,0.643-0.326,1.227-0.835,1.5c-0.197,0.106-0.408,0.158-0.618,0.158c-0.332,0-0.661-0.13-0.927-0.382l-7.944-7.51
		h-4.231c0,0-0.001,0-0.001,0c-0.802,0-1.452-0.742-1.452-1.657V5.364c0-0.916,0.651-1.658,1.453-1.658h4.232l7.944-7.51
		C84.414-4.055,84.743-4.186,85.075-4.186 M91.731-0.331c0.029,0,0.058,0.001,0.087,0.003c0.41,0.024,0.793,0.244,1.053,0.606
		c1.712,2.39,2.616,5.291,2.616,8.389c0,2.885-0.8,5.632-2.313,7.942c-0.253,0.385-0.639,0.627-1.06,0.661
		c-0.035,0.003-0.069,0.004-0.105,0.004c-0.384,0-0.754-0.173-1.027-0.485l-0.194-0.222c-0.51-0.58-0.57-1.5-0.14-2.16
		c1.088-1.674,1.663-3.658,1.663-5.74c0-2.239-0.652-4.339-1.886-6.073c-0.47-0.659-0.426-1.617,0.1-2.217l0.194-0.222
		C90.987-0.153,91.343-0.331,91.731-0.331 M96.721-8.019c-0.971,0-1.869,0.417-2.529,1.174L94.004-6.63
		c-1.168,1.337-1.225,3.405-0.134,4.812c0.451,0.581,0.861,1.195,1.228,1.838c-0.19-0.308-0.391-0.61-0.602-0.906
		c-0.614-0.856-1.548-1.38-2.564-1.438c-0.054-0.004-0.128-0.006-0.201-0.006c-0.963,0-1.857,0.415-2.517,1.168L89.018-0.94
		c-0.193,0.22-0.356,0.46-0.489,0.713l0-2.3c0-1.388-0.725-2.639-1.892-3.263c-0.478-0.258-1.02-0.395-1.562-0.395
		c-0.851,0-1.668,0.33-2.301,0.928l-7.366,6.963h-3.436c-1.904,0-3.453,1.641-3.453,3.658v6.605c0,2.017,1.549,3.657,3.452,3.657
		h3.437l7.366,6.963c0.633,0.598,1.45,0.928,2.301,0.928c0.544,0,1.086-0.137,1.568-0.398c1.161-0.621,1.886-1.871,1.886-3.26
		l0-3.35c0.15,0.502,0.403,0.974,0.756,1.376l0.191,0.218c0.651,0.744,1.574,1.17,2.534,1.17c0.087,0,0.171-0.004,0.259-0.01
		c1.046-0.085,1.983-0.652,2.577-1.557c0.099-0.151,0.195-0.303,0.288-0.457c-0.314,0.556-0.66,1.092-1.036,1.602
		c-1.05,1.426-0.97,3.421,0.191,4.745l0.19,0.217c0.65,0.742,1.573,1.167,2.532,1.167c0.047,0,0.093-0.001,0.139-0.003
		c1.024-0.049,1.957-0.557,2.578-1.394c3.091-4.177,4.792-9.474,4.791-14.918c0-5.658-1.82-11.112-5.125-15.358
		c-0.631-0.811-1.564-1.294-2.558-1.326l-0.032-0.001L96.721-8.019L96.721-8.019z M88.529,14.271l0-10.948
		c0.078,0.149,0.166,0.293,0.266,0.432c0.991,1.392,1.515,3.091,1.515,4.912c0,1.694-0.463,3.302-1.339,4.649
		C88.776,13.615,88.629,13.937,88.529,14.271L88.529,14.271z"/>
</g>
</svg>
