<?xml version="1.0" encoding="iso-8859-1"?>
<!-- Generator: Adobe Illustrator 19.0.0, SVG Export Plug-In . SVG Version: 6.00 Build 0)  -->
<svg version="1.1" id="Layer_1" xmlns="http://www.w3.org/2000/svg" xmlns:xlink="http://www.w3.org/1999/xlink" x="0px" y="0px"
	 viewBox="0 0 39 34" style="enable-background:new 0 0 39 34;" xml:space="preserve">
<g>
	<path style="fill:#FFFFFF;stroke:#1F862E;stroke-width:2;stroke-linecap:round;stroke-linejoin:round;stroke-miterlimit:10;" d="
		M7.052,10.786H1v12.581h6.052l11.436,7.923c0,0,2.102,1.635,2.102-0.059V2.673c0-1.332-1.854-0.029-1.854-0.029L7.052,10.786z
		 M7.052,10.786"/>
	<path style="fill:#FFFFFF;stroke:#1F862E;stroke-width:2;stroke-miterlimit:10;" d="M26.543,5.83c-0.688-0.694-1.809-0.694-2.497,0
		c-0.695,0.686-0.695,1.812,0,2.49c2.278,2.272,3.404,5.229,3.404,8.202c-0.007,2.978-1.134,5.951-3.404,8.215
		c-0.695,0.686-0.695,1.812,0,2.505c0.343,0.344,0.791,0.512,1.252,0.512c0.446,0,0.9-0.168,1.245-0.512
		c2.966-2.965,4.445-6.85,4.445-10.72C30.988,12.65,29.509,8.78,26.543,5.83L26.543,5.83z M26.543,5.83"/>
	<path style="fill:#FFFFFF;stroke:#1F862E;stroke-width:2;stroke-miterlimit:10;" d="M31.679,1.489
		c-0.657-0.652-1.697-0.652-2.347,0c-0.645,0.652-0.645,1.696,0,2.348c3.574,3.583,5.353,8.252,5.36,12.941
		c-0.007,4.715-1.779,9.41-5.36,13.007c-0.645,0.645-0.645,1.696,0,2.348c0.321,0.322,0.752,0.48,1.171,0.48
		c0.424,0,0.848-0.158,1.176-0.48C35.891,27.89,38,22.33,38,16.777C38,11.251,35.877,5.712,31.679,1.489L31.679,1.489z
		 M31.679,1.489"/>
</g>
</svg>
