<?xml version="1.0" encoding="utf-8"?>
<!-- Generator: Adobe Illustrator 21.1.0, SVG Export Plug-In . SVG Version: 6.00 Build 0)  -->
<svg version="1.1" id="Speaker" xmlns="http://www.w3.org/2000/svg" xmlns:xlink="http://www.w3.org/1999/xlink" x="0px" y="0px"
	 viewBox="0 0 36 33" style="enable-background:new 0 0 36 33;" xml:space="preserve">
<style type="text/css">
	.st0{fill:#FFFFFF;}
	.st1{fill:#1F862E;}
</style>
<g id="Path">
	<path class="st0" d="M28.3,31.7c-0.7,0-1.3-0.3-1.8-0.8l-0.2-0.2c-0.8-1-0.9-2.5-0.1-3.5c2.2-3,3.4-6.8,3.4-10.8
		c0-4.1-1.3-8-3.7-11.1c-0.8-1-0.8-2.6,0.1-3.5l0.2-0.2c0.5-0.5,1.1-0.8,1.8-0.8c0.8,0,1.4,0.4,1.9,0.9c3.2,4.1,4.9,9.3,4.9,14.7
		c0,5.2-1.6,10.3-4.6,14.3c-0.4,0.6-1.1,1-1.8,1L28.3,31.7z M16.4,30.2c-0.6,0-1.2-0.2-1.6-0.7l-7.7-7.2H3.3c-0.7,0-1.3-0.3-1.8-0.8
		c-0.4-0.5-0.7-1.1-0.7-1.8v-6.6c0-1.5,1.1-2.7,2.5-2.7h3.8l7.7-7.2c0.4-0.4,1-0.7,1.6-0.7c0.4,0,0.8,0.1,1.1,0.3
		c0.8,0.4,1.4,1.4,1.4,2.4v22.4c0,1-0.5,1.9-1.4,2.4C17.2,30.1,16.8,30.2,16.4,30.2z M23.3,26c-0.7,0-1.3-0.3-1.8-0.8l-0.2-0.2
		c-0.8-0.9-0.9-2.3-0.2-3.4c1-1.5,1.5-3.3,1.5-5.2c0-2-0.6-3.9-1.7-5.5c-0.7-1-0.7-2.5,0.2-3.5l0.2-0.2c0.5-0.5,1.1-0.8,1.8-0.8
		l0.2,0c0.7,0,1.4,0.4,1.8,1c1.8,2.6,2.8,5.7,2.8,9c0,3.1-0.9,6-2.5,8.5c-0.4,0.6-1.1,1.1-1.8,1.1C23.5,26,23.4,26,23.3,26z"/>
	<path class="st1" d="M28.1,1.7C28.1,1.7,28.1,1.7,28.1,1.7c0.5,0,0.8,0.2,1.1,0.6c3,3.9,4.7,8.9,4.7,14.1c0,5-1.6,9.9-4.4,13.7
		c-0.3,0.4-0.6,0.6-1.1,0.6c0,0,0,0-0.1,0c-0.4,0-0.8-0.2-1-0.5L27.1,30c-0.5-0.6-0.6-1.6-0.1-2.2c2.3-3.2,3.6-7.2,3.6-11.4
		c0-4.3-1.4-8.5-3.9-11.7C26.3,4,26.3,3,26.8,2.4L27,2.2C27.3,1.9,27.7,1.7,28.1,1.7 M16.4,3.5c0.2,0,0.4,0.1,0.6,0.2
		c0.5,0.3,0.8,0.9,0.8,1.5v22.4c0,0.6-0.3,1.2-0.8,1.5c-0.2,0.1-0.4,0.2-0.6,0.2c-0.3,0-0.7-0.1-0.9-0.4l-7.9-7.5H3.3h0
		c-0.8,0-1.5-0.7-1.5-1.7v-6.6c0-0.9,0.7-1.7,1.5-1.7h4.2l7.9-7.5C15.7,3.7,16.1,3.5,16.4,3.5 M23.1,7.4C23.1,7.4,23.1,7.4,23.1,7.4
		c0.5,0,0.9,0.2,1.1,0.6c1.7,2.4,2.6,5.3,2.6,8.4c0,2.9-0.8,5.6-2.3,7.9c-0.3,0.4-0.6,0.6-1.1,0.7c0,0-0.1,0-0.1,0
		c-0.4,0-0.8-0.2-1-0.5l-0.2-0.2c-0.5-0.6-0.6-1.5-0.1-2.2c1.1-1.7,1.7-3.7,1.7-5.7c0-2.2-0.7-4.3-1.9-6.1c-0.5-0.7-0.4-1.6,0.1-2.2
		l0.2-0.2C22.3,7.6,22.7,7.4,23.1,7.4 M28.1-0.3c-1,0-1.9,0.4-2.5,1.2l-0.2,0.2c-1.2,1.3-1.2,3.4-0.1,4.8c0.5,0.6,0.9,1.2,1.2,1.8
		c-0.2-0.3-0.4-0.6-0.6-0.9c-0.6-0.9-1.5-1.4-2.6-1.4c-0.1,0-0.1,0-0.2,0c-1,0-1.9,0.4-2.5,1.2l-0.2,0.2C20.2,7,20,7.2,19.9,7.5V5.2
		c0-1.4-0.7-2.6-1.9-3.3c-0.5-0.3-1-0.4-1.6-0.4c-0.9,0-1.7,0.3-2.3,0.9l-7.4,7H3.3c-1.9,0-3.5,1.6-3.5,3.7v6.6c0,2,1.5,3.7,3.5,3.7
		h3.4l7.4,7c0.6,0.6,1.4,0.9,2.3,0.9c0.5,0,1.1-0.1,1.6-0.4c1.2-0.6,1.9-1.9,1.9-3.3v-3.3c0.2,0.5,0.4,1,0.8,1.4l0.2,0.2
		c0.7,0.7,1.6,1.2,2.5,1.2c0.1,0,0.2,0,0.3,0c1-0.1,2-0.7,2.6-1.6c0.1-0.2,0.2-0.3,0.3-0.5c-0.3,0.6-0.7,1.1-1,1.6
		c-1.1,1.4-1,3.4,0.2,4.7l0.2,0.2c0.7,0.7,1.6,1.2,2.5,1.2c0,0,0.1,0,0.1,0c1,0,2-0.6,2.6-1.4c3.1-4.2,4.8-9.5,4.8-14.9
		c0-5.7-1.8-11.1-5.1-15.4c-0.6-0.8-1.6-1.3-2.6-1.3L28.1-0.3L28.1-0.3L28.1-0.3z M19.9,22V11c0.1,0.1,0.2,0.3,0.3,0.4
		c1,1.4,1.5,3.1,1.5,4.9c0,1.7-0.5,3.3-1.3,4.6C20.1,21.3,20,21.6,19.9,22L19.9,22z"/>
</g>
</svg>
