<?xml version="1.0" encoding="utf-8"?>
<!-- Generator: Adobe Illustrator 21.1.0, SVG Export Plug-In . SVG Version: 6.00 Build 0)  -->
<svg version="1.1" id="Button_4" xmlns="http://www.w3.org/2000/svg" xmlns:xlink="http://www.w3.org/1999/xlink" x="0px" y="0px"
	 viewBox="0 0 123 123" style="enable-background:new 0 0 123 123;" xml:space="preserve">
<style type="text/css">
	.st0{fill:#FF3D3D;}
	.st1{fill:#B22B2B;}
	.st2{opacity:5.000000e-02;clip-path:url(#Body_1_);enable-background:new    ;}
	.st3{opacity:0.8;fill:#FFFFFF;enable-background:new    ;}
</style>
<g>
	<path id="Body_2_" class="st0" d="M61.5,1.5L61.5,1.5c33.1,0,60,26.9,60,60l0,0c0,33.1-26.9,60-60,60l0,0c-33.1,0-60-26.9-60-60
		l0,0C1.5,28.4,28.4,1.5,61.5,1.5z"/>
	<path class="st1" d="M61.5,123C27.6,123,0,95.4,0,61.5S27.6,0,61.5,0S123,27.6,123,61.5S95.4,123,61.5,123z M61.5,3
		C29.2,3,3,29.2,3,61.5S29.2,120,61.5,120S120,93.8,120,61.5S93.8,3,61.5,3z"/>
</g>
<g>
	<defs>
		<path id="Body" d="M61.5,1.5L61.5,1.5c33.1,0,60,26.9,60,60l0,0c0,33.1-26.9,60-60,60l0,0c-33.1,0-60-26.9-60-60l0,0
			C1.5,28.4,28.4,1.5,61.5,1.5z"/>
	</defs>
	<clipPath id="Body_1_">
		<use xlink:href="#Body"  style="overflow:visible;"/>
	</clipPath>
	<path id="Shadow" class="st2" d="M68.5,15.5L68.5,15.5c33.1,0,60,26.9,60,60l0,0c0,33.1-26.9,60-60,60l0,0c-33.1,0-60-26.9-60-60
		l0,0C8.5,42.4,35.4,15.5,68.5,15.5z"/>
</g>
<path id="Glow" class="st3" d="M19.5,30.5c0,0,11.5-23,48-23C47.2,13,39.6,14.6,19.5,30.5z"/>
</svg>
