<?xml version="1.0" encoding="utf-8"?>
<!-- Generator: Adobe Illustrator 21.1.0, SVG Export Plug-In . SVG Version: 6.00 Build 0)  -->
<svg version="1.1" id="Layer_1" xmlns="http://www.w3.org/2000/svg" xmlns:xlink="http://www.w3.org/1999/xlink" x="0px" y="0px"
	 viewBox="0 0 348 401" style="enable-background:new 0 0 348 401;" xml:space="preserve">
<style type="text/css">
	.st0{fill-rule:evenodd;clip-rule:evenodd;fill:#B28ABF;}
	.st1{fill-rule:evenodd;clip-rule:evenodd;fill:#9665AA;}
	.st2{fill-rule:evenodd;clip-rule:evenodd;fill:#F18A2E;}
	.st3{fill-rule:evenodd;clip-rule:evenodd;fill:#FAA74A;}
	.st4{fill-rule:evenodd;clip-rule:evenodd;fill:#FFFFFF;}
	.st5{fill-rule:evenodd;clip-rule:evenodd;fill:#C7A9D0;}
	.st6{fill:none;stroke:#6C3E81;stroke-width:1.7;stroke-linecap:round;stroke-linejoin:round;stroke-miterlimit:22.9256;}
	.st7{fill-rule:evenodd;clip-rule:evenodd;fill:#C7EAFB;}
	.st8{fill-rule:evenodd;clip-rule:evenodd;fill:#F8ABAD;}
	.st9{fill:none;stroke:#A82E31;stroke-width:1.7;stroke-linecap:round;stroke-linejoin:round;stroke-miterlimit:22.9256;}
	.st10{fill-rule:evenodd;clip-rule:evenodd;fill:#A82E31;}
	.st11{fill-rule:evenodd;clip-rule:evenodd;}
	.st12{fill-rule:evenodd;clip-rule:evenodd;fill:#F9A57B;}
	.st13{fill-rule:evenodd;clip-rule:evenodd;fill:#DACAE3;}
	.st14{fill-rule:evenodd;clip-rule:evenodd;fill:#FDCEAE;}
	.st15{fill-rule:evenodd;clip-rule:evenodd;fill:#FED1A2;}
	.st16{fill:none;stroke:#E8827E;stroke-width:1.7;stroke-linecap:round;stroke-linejoin:round;stroke-miterlimit:22.9256;}
	.st17{fill:none;stroke:#6C3E81;stroke-width:1.7;stroke-miterlimit:22.9256;}
	.st18{fill:none;stroke:#0094D5;stroke-width:1.7;stroke-linecap:round;stroke-linejoin:round;stroke-miterlimit:22.9256;}
	.st19{fill-rule:evenodd;clip-rule:evenodd;fill:#8ED8F8;}
</style>
<path class="st0" d="M251.6,206.3c12.9-0.6,31.1,8.5,32.7,18.3l-3.6,2.6c1,3.4-3.3,8.3-13,14.7l-13.1,16l-4.6,6.6l-2.8,2.4
	c-3.5-0.3-2.9-5.8,1.6-16.6c-6.2,0.7-8.6,1.4,1-11.2c-6.9,1.3-11.6,1-14.1-0.8l1-3.1L251.6,206.3z"/>
<path class="st1" d="M248.2,206.5c8.6-0.5,14.1,3.7,18.2,10c-23.5,12.1-32.1,18.8-30.6,21.8c2.3,1.2,7,1.4,14.1,0.8
	c-7.9,7.9-8.5,13.6-1,11.2c-4.9,11.3-11.2,30.1-27.8,38.9l-12.7-57C228.2,228.1,228.2,208.9,248.2,206.5z"/>
<path class="st0" d="M77,240.4l-1.4-1.6c-9.8,26.3-8.6,51.6,8.9,75.4c-1.7,10.2,1.1,16.6,6,21.2c-0.6,8.2,2.5,14.1,7.3,19
	c0.1,5.3,1,8.8,2.3,11.4c2.7-6,7-12,12.9-18l6.1,3l3.5-6.4l5.3,3l4.4,1.2l-1,5.3c34.9,10,71.5-5.1,89-60.8c3.2-17.5,1-35.9-9.2-55.7
	c-8.9-22.6-28.6-30.6-35.8-47.2L165,183c-2,6.5-6.7,12.7-20.3,15c16,22.9,20.1,40.3,12.3,52.3c-19.7-10.8-36.8,7.4-53.5,7.8
	c-7.9-1-16-6.9-24.9-23.8L77,240.4z"/>
<path class="st1" d="M91.6,301.1c-12.1-8.3-20.4-21.7-20.3-46.4c-3.3,25-0.7,41.8,13.2,59.5l28.5,33.6l6.1,3l3.5-6.4l5.3,3l4.4,1.2
	l-1,5.3c34.9,10,71.5-5.1,89-60.8c-14.8,27.2-31.1,30.6-44.3,14.7l-19.1-57.5c18.1-0.7,6.1-46.6-2.6-54.7l-9.7,2.4
	c16,22.9,20.1,40.3,12.3,52.3l19.1,57.5c-10.5,26.5-45.9,21.8-62.9,39.9L84.6,314l3.4-7.4L91.6,301.1z"/>
<path class="st2" d="M190.2,169.9l-34.7,0.2c-8.8-3.8-6,15.7,9.6,12.9C184.5,199.5,194.2,194.3,190.2,169.9z"/>
<path class="st3" d="M154.5,169.8c-6.5,3.1-0.1,10.2,6.7,11c-21,3.7-20.5-14.1-6.2-17.4c3.1-12.7,7.4-22,14.3-23.7
	c11.6-1.4,16.4,5.6,30.4-2.5c7.6-6.1,11,8.2,1,22.1C190.7,173.5,169.8,177.2,154.5,169.8z"/>
<path class="st4" d="M171.3,139.5l17.5,1.2c-3-9.7-7-18.2-14.8-22.6C166.6,117.4,164.8,124,171.3,139.5z"/>
<path class="st5" d="M191.1,179.6l-1.2-10.8c4.9-2.7,8.8-6.3,11.7-10.8C205,165.4,203.7,173,191.1,179.6z"/>
<path class="st6" d="M201.5,158c3.5,7.4,2.2,14.9-10.4,21.6"/>
<path class="st4" d="M162.2,145.2l-5.8,13.2h-14.1c-5-12.6-5.7-26.4,0.8-30.8C147.9,125,156.1,132.5,162.2,145.2z"/>
<path class="st7" d="M145.8,144.8c4,5.7,15.5,2.4,14.2-5.6l-4.1-5.6l-5.7-4.6C143.1,127.5,140.5,137.3,145.8,144.8z"/>
<path class="st0" d="M133.8,118.6l1.1-6.1l-4.2,4.6l-2.9,5.5l-0.3-6.4l-2.6,5.4l-0.7,4.7c-11.5,13.6-12.2,33.4-0.8,50.8
	c1.7-9.8,7.7-16.3,19-18.8c-11.2-36.1,6.4-40.9,19.9-13.2c2.4-3.7,5.4-5.6,9-5.7c-6-13.8-6.1-21.8,2.7-21.4
	C161.5,109.6,146.8,109.7,133.8,118.6z"/>
<path class="st8" d="M186.7,170.8c-8.7,3.2-17.6,3.6-26.7,1.1C179.4,188.9,188.9,195.4,186.7,170.8z"/>
<path class="st9" d="M160,172c19.5,16.9,28.9,23.4,26.7-1.1"/>
<path class="st5" d="M128.7,191.6c8.8,13.9,38,2.7,36.3-8.5c-6.7-5.6-14.3-2.2-18.9-6.1c-2.3-2.3-2.3-5,0.2-8.1l8.7-5.5l0.5-5.3
	C127.4,154.4,116.1,176.7,128.7,191.6z"/>
<path class="st1" d="M123.3,177.2c1.1-5.9,2.9-10.6,6.3-12.6c-7.1-6.4-11.6-28.4-5.5-38.3C116.1,134.6,109.8,157.2,123.3,177.2z"/>
<path class="st6" d="M146.4,168.9c-2.6,2.2-2.5,6.3-0.2,8.1"/>
<path class="st10" d="M170.4,152.3c1.7,0,3.1-1.4,3.1-3.1c0-1.7-1.4-3.1-3.1-3.1c-1.7,0-3.1,1.4-3.1,3.1
	C167.3,150.9,168.7,152.3,170.4,152.3z"/>
<path class="st7" d="M173.4,131.7c2.9,4.2,11.4,2.9,11.3-3.2c-2.4-5-4.7-5.7-8.5-8.8C170.7,118.6,168.9,125.5,173.4,131.7z"/>
<path class="st11" d="M176.8,129.9c2.4,0,4.4-2,4.4-4.4c0-2.4-2-4.4-4.4-4.4c-2.4,0-4.4,2-4.4,4.4
	C172.4,127.9,174.3,129.9,176.8,129.9z"/>
<path class="st4" d="M174.4,129.9c1.1,0,2.1-0.9,2.1-2.1c0-1.1-0.9-2.1-2.1-2.1c-1.1,0-2.1,0.9-2.1,2.1
	C172.4,129,173.3,129.9,174.4,129.9z"/>
<path class="st11" d="M151.4,141.7c2.7,0,5-2.2,5-5c0-2.7-2.2-5-5-5c-2.7,0-5,2.2-5,5C146.4,139.5,148.7,141.7,151.4,141.7z"/>
<path class="st4" d="M148.7,141.7c1.3,0,2.3-1,2.3-2.3c0-1.3-1-2.3-2.3-2.3c-1.3,0-2.3,1-2.3,2.3
	C146.4,140.7,147.5,141.7,148.7,141.7z"/>
<path class="st5" d="M145.4,320.5c20.5-1,45.9-10.4,21.5-50.9c-19.6-31.6-59.3,12.1-67.4,22.3C107.9,310.4,121.9,323.1,145.4,320.5z
	"/>
<path class="st12" d="M131.4,365c-0.9-5.1-0.6-10.6,0.8-16.4l-9.6-4.2c-5.3,8-7.9,15.2-8.6,21.9c-8.6,10.9-11,20.7-10,27.8
	c1.6,6.7,8,7.6,12.6,3.7c3.2-3.7,8.4-2.4,11.9,0.2c4.5,3.6,10.4,1.1,10.9-4.3c-0.3-4.7,1.2-8,7-8.2c9.8-0.7,11-9.7,5-11.8
	C142.5,371.2,137,370.3,131.4,365z"/>
<path class="st12" d="M185.9,345.9c-8.3,6.3-19.2,9.3-28.9,10.4c3,9.4,20.1,22.6,26.7,15.9c2.6-2.7,5.2-4.1,8.2-4
	c5.8,0.7,9.1-0.8,9.9-4.7c0.4-3.4,5.1-4.7,4.3-7.8C203.3,345,192.2,353.5,185.9,345.9z"/>
<line class="st6" x1="119.2" y1="350.8" x2="113.1" y2="347.7"/>
<path class="st9" d="M122.7,344.4c-12.2,20.9-10.7,29.8,0.2,30.5"/>
<path class="st9" d="M114.1,366.3c-8.6,10.9-11,20.7-10,27.8c1.6,6.7,8,7.6,12.6,3.7c3.2-3.7,8.4-2.4,11.9,0.2
	c4.5,3.6,10.4,1.1,10.9-4.3c-0.3-4.7,1.2-8,7-8.2c9.8-0.7,11-9.7,5-11.8c-8.8-2.4-17-5.5-22.5-10.9"/>
<path class="st9" d="M157,356.3c3,9.4,20.1,22.6,26.7,15.9c2.6-2.7,5.2-4.1,8.2-4c5.8,0.7,9.1-0.8,9.9-4.7c0.4-3.4,5.1-4.7,4.3-7.8
	c-1.8-8.9-18.9-4.7-20.2-9.8"/>
<path class="st9" d="M178.4,365.4c4.5-4.1,11.3-7.6,16.9-8.4"/>
<path class="st6" d="M208.3,232.1c19.1-3.6,20.1-21.7,36.8-25.1c19.7-4.1,39.7,10.6,39.2,17.6c-18.3,14.2-46.4,17.7-48.6,13.7
	c-1.1-2.8,4.9-8.4,30.6-21.8"/>
<path class="st13" d="M133.8,267.2c13.8-4.9,22.8-3.8,29.5,6.6C159.8,260.8,146.3,256.9,133.8,267.2z"/>
<path class="st14" d="M119.2,392.2c-11.8,1.8-13.2-2.7-7.1-19.1C101.8,389.5,104.8,401.4,119.2,392.2z"/>
<path class="st15" d="M180.3,170.1c8.2-3,22.1-15.5,22.7-24.9C204.9,157.2,191.3,168.2,180.3,170.1z"/>
<path class="st9" d="M156.5,167.4c-1.9,1.2-2.5,3-1.8,5.6"/>
<path class="st6" d="M144.2,124c-6-0.3-9.3,5.8-8.4,11.8"/>
<path class="st16" d="M182.5,174.9c-1.3,0.8-2.1,2.1-2,3.8c-0.7-1-2.2-1.9-6.4-2.2"/>
<path class="st17" d="M280.7,227.1c1.4,10.6-34.2,27-37.5,23c-0.7-1.3,1.5-5,6.5-11.1"/>
<path class="st6" d="M142.3,158.4c-5-12.6-5.7-26.4,0.8-30.8c4.8-2.5,13,5,19.1,17.6"/>
<path class="st18" d="M250.5,109.5c7.7,63.2-10.5,72.6,3.9,111.1"/>
<path class="st18" d="M263,247.7c6.1,24.8-0.4,39.5-9.1,50.7"/>
<path class="st17" d="M248.8,250.3c-4.7,11.8-4.5,15.3-2.6,16.4c3.6,2.5,9.3-14.6,24.3-26.6"/>
<path class="st19" d="M248.4,105.5l2.5-1.4c16.9,7.5,13.6,21.5,2.9,9.3c5.2,13.3-1.3,12.5-2.1,2.1
	C247.6,133.2,240.8,133,248.4,105.5z"/>
<path class="st18" d="M250.9,104.1c16.9,7.5,13.6,21.5,2.9,9.3c5.2,13.3-1.3,12.5-2.1,2.1c-4,17.7-10.9,17.5-3.3-9.9"/>
<path class="st19" d="M252.4,104.4c31.1-14.3,30.3-75.9-3.2-95.5c-17.5-12-59.3-2.9-52.5,46.5C202.4,102.8,240,112.4,252.4,104.4z"
	/>
<path class="st18" d="M252.4,104.4c31.1-14.3,30.3-75.9-3.2-95.5c-17.5-12-59.3-2.9-52.5,46.5C202.4,102.8,240,112.4,252.4,104.4z"
	/>
<path class="st7" d="M252.9,18.6c-8.3-5.9-17.4-8.8-28.7-9.3C235.9,5.5,245.3,9,252.9,18.6z"/>
<path class="st9" d="M132.3,348.6c-1.3,3.6-1.3,9.6-0.8,16.4"/>
<path class="st6" d="M124.1,126.3c-10.1,10.8-13.1,33.1-0.8,50.8 M129.1,185.7c-5.4,12.6,18.1,17,30.2,6.9 M90.5,335.4
	c-9.5-11-10.1-24.4,9.1-43.3 M97.8,354.3c-9.9-9.7-12.8-23.1,9.1-49.6 M167,269.7c14.1,21.5,11.5,36.5,5.6,45.7
	c-18.2,22.4-52.2,10.2-72.4,50.5c-4.9-6.8-4.2-26.2,20.4-49.4 M245.9,258.5c-7.4,10.5-10.1,22.2-24.9,30.7 M175.3,190.3
	c10,17.2,26.9,27.8,35.8,47.2c7.3,16.8,13.2,37.3,9.2,55.7 M220.3,293.2c-14.6,50-47,71.1-87.5,61.2 M137.3,349
	c-6.6-0.1-12.5-2-17.1-7 M144.7,198.1c16,22.9,20.1,40.3,12.3,52.3c-19.7-10.8-36.8,7.4-53.5,7.8c-7.9-1-16-6.9-24.9-23.8
	c-1.3,6.3-7.3,20.3,1.6,30.8 M77,240.4l-1.4-1.6c-10.5,29.7-6.3,56.6,8.9,75.4 M99.6,292c7.5,20,26.7,30.7,45.8,28.5 M207.7,289.3
	c2.9,3.9,6,2.1,5.9-0.7 M208.9,278.9c1.9,2.8,5.6,1.4,5.4-2.1 M205.2,258.2c1.7,2.4,4.9,1.2,4.7-1.8 M199.7,268.4
	c2.3,3.2,6.5,1.7,6.3-2.4 M186.8,277.3c4.1,3.4,8.4,1.2,8-3 M155.6,158.1c-28.2-3.6-39.5,18.6-26.8,33.5"/>
<path class="st9" d="M165,183.1c19.5,16.5,29.2,11.2,25.2-13.1"/>
<path class="st6" d="M188.7,140.7c-4.1-23.8-32.4-37.6-54.9-22.2 M135.1,121c-1.9-2.1-1.9-4.9-0.2-8.5c-2.9,2.6-5.4,5.7-7.1,10.1
	l-0.3-6.4c-2.4,3.8-3.5,7.4-3.3,10.3 M173.9,118.1c-7.4-0.7-9.1,5.8-2.7,21.4"/>
<path class="st9" d="M155.1,163.4c3.1-12.7,7.4-22,14.3-23.7c11.6-1.4,16.4,5.6,30.4-2.5c7.6-6.1,11,8.2,1,22.1
	c-10,14.3-30.9,18-46.1,10.6"/>
<path class="st5" d="M154.8,253.1c-9.6-1.5-19.1-0.2-29.8,3.7C134.7,249.4,144.6,248.5,154.8,253.1z M167.6,117.4
	c-9-2.3-18-1.9-28.5,0.8C148.9,112.1,158.4,112.2,167.6,117.4z M150.9,326.2c-14.4,4.2-32.3,10.9-40.8,21.3
	C117.6,332.2,140.7,322.9,150.9,326.2z"/>
<path class="st0" d="M145.4,352.7c7.3,1.5,33.8-2.8,46.3-17.4C184.1,350.2,157.5,357.7,145.4,352.7z"/>
</svg>
