<?xml version="1.0" encoding="utf-8"?>
<!-- Generator: Adobe Illustrator 21.1.0, SVG Export Plug-In . SVG Version: 6.00 Build 0)  -->
<svg version="1.1" id="Layer_1" xmlns="http://www.w3.org/2000/svg" xmlns:xlink="http://www.w3.org/1999/xlink" x="0px" y="0px"
	 viewBox="0 0 348 401" style="enable-background:new 0 0 348 401;" xml:space="preserve">
<style type="text/css">
	.st0{fill-rule:evenodd;clip-rule:evenodd;fill:#E1F4FD;}
	.st1{fill-rule:evenodd;clip-rule:evenodd;fill:#DBEAB4;}
	.st2{fill-rule:evenodd;clip-rule:evenodd;fill:#CAE197;}
</style>
<path class="st0" d="M221.8,365.1L106,389.5C18,386.7-6.4,318.6,1.8,277.3c5.1-25.6,19.1-45,46.6-72.5
	c47.8-47.8,10.5-77.2,72.8-136.7c44.4-42.6,138.6-37.3,160.4,42.7c9.6,30.9,43.7,33.2,52.2,60.9c10.2,33.3-0.3,43.6-1.5,68.1
	c-1.7,35.4,20.7,31.8,14.4,63.9C335.4,360.9,247.6,356.1,221.8,365.1z"/>
<path class="st1" d="M49.8,310.5c-7.7-9-22.7-0.3-15.4,17.9c-11,1.1-17.4,15.5-11.1,26.3L184.8,341c0.5,0,1.1-2.6,1.9-4.2
	c3.4-6.8-7.7-19.2-13.1-8.5c-0.3,0.7,3.8-7.2,3.7-9.1c-0.3-4.9-11.5-1-9.5-3c7.8-8.1,6.6-13.2-4.2-19.8c-9-5.4-14,5.7-13.5,7.4
	c-3.7-13.8-17.5-12.7-19.3-8.6c0,0-6.5-24.8-16-21.2c-5.7,2.2-6.8-8.3-6.6-2.2c-4.6-16.3-8.4-6.7-12.8,3.2c-6.6-19.7,0,0-24.5-4.2
	c-4.2-0.7-25,13.1-9.6,37c0.8,1.3-5.3-5.6-8.1-3.4C53.3,304.6,49.3,308.1,49.8,310.5z"/>
<path class="st1" d="M304.7,347.6c-7.5-28.3-130.7-8.5-167.3-8.3c-109.1,0.5-151.6,21.1-100.6,43.4c25.5,11.1,63.6,6.6,97.1-2.7
	C184.7,366,283.3,360.6,304.7,347.6z"/>
<path class="st2" d="M138.3,396c-15.1,2.4-54.9-0.2-55.1-18.2c-0.3-18.2,74.8-7.8,87.3-20.7c4.6-4.8,8.7,7,16.1,3.4
	c6.3-3.1,29.4-6.7,36.7-2.9c9.2,4.8-6.4,10-20.2,15.2C180.7,381.3,169.4,392.9,138.3,396z"/>
</svg>
