<?xml version="1.0" encoding="utf-8"?>
<!-- Generator: Adobe Illustrator 19.0.0, SVG Export Plug-In . SVG Version: 6.00 Build 0)  -->
<svg version="1.1" id="Layer_1" xmlns="http://www.w3.org/2000/svg" xmlns:xlink="http://www.w3.org/1999/xlink" x="0px" y="0px"
	 viewBox="0 0 365.9 349.9" enable-background="new 0 0 365.9 349.9" xml:space="preserve">
<path fill-rule="evenodd" clip-rule="evenodd" fill="#B87933" d="M31.4,284.7c7-8.1,3-26.5,15.4-32.1l13.3,30l-3.6,28.5l-43.6-15
	C11.9,288.1,26.4,290.7,31.4,284.7z"/>
<polygon fill-rule="evenodd" clip-rule="evenodd" fill="#C98E3E" points="21.1,51.6 15.1,68.4 56.5,318.3 65.3,321.4 45.8,159 "/>
<polygon fill-rule="evenodd" clip-rule="evenodd" fill="#DDB476" points="21.1,51.6 165,50.9 211.8,287.7 65.3,321.4 "/>
<linearGradient id="SVGID_1_" gradientUnits="userSpaceOnUse" x1="114.2736" y1="177.6037" x2="79.8273" y2="56.8389">
	<stop  offset="0" style="stop-color:#D3ECFB"/>
	<stop  offset="1" style="stop-color:#FFFFFF"/>
</linearGradient>
<polygon fill-rule="evenodd" clip-rule="evenodd" fill="url(#SVGID_1_)" points="32.5,61.9 157.2,59.2 200.6,281.1 74.8,308.2 "/>
<linearGradient id="SVGID_2_" gradientUnits="userSpaceOnUse" x1="127.429" y1="207.508" x2="2.8466" y2="-51.4071">
	<stop  offset="0" style="stop-color:#B0B1B2"/>
	<stop  offset="1" style="stop-color:#FFFFFF"/>
</linearGradient>
<path fill-rule="evenodd" clip-rule="evenodd" fill="url(#SVGID_2_)" d="M128.7,198.9l0.5-0.9c-6.8-0.9-12.4-4.9-15.5-15.8
	c2.9-5.7,7-10.8,11.6-15.8c4.4-4.2,9.5-9.1,15.4-16.1c3-3.3,5.9-6.7,8.4-10.2c3.2-4.2,5.6-8.8,7.2-13.4c0,0,0-0.1,0.1-0.1l0-0.1
	c1.5-4.5,2.3-9.1,2.5-13.6c0.3-5.6-0.2-11.2-1.8-16.7l1.4-2.2l3.2-1.1l-3-1.3l-3.1-0.1l3.4-3.2l-4.9-0.3
	c-2.7-6.2-6.3-10.4-10.8-12.7c-11.4-10.4-32.4-4.3-39.6,16.2c-1,2.4-1.7,5.6-2.2,9.8l0,0.2l0,0.1l0,0l0,0.4l0.3,0.2
	c-3.5-0.4-6.8,2.3-6.1,9l-4.1,0.1c-4.7-1.5-3.7,17.3,13,23.9l-0.2,0.1c0.3,5.4,1.1,9.6,2.2,12.7c-4.5,8.5-12,14-19.5,19.3
	c-10.8-23.7-33.3,2.7-20.8,31.1c-1.1,4-1.3,8.4-0.5,13c-3.2,26.2,9.7,63.1,32.5,81.6c-2.3,3.6-5.7,4.9-10.6,5.1
	c-4.7,1.3-4.1,6.4-0.8,7.7l74.8-16.1c8.2-9.2,15.1-22.4,18.5-40.4c2.4-2.1,4.4-4.6,6.1-7.5c6.8-10.2,9.4-22,8.5-34.9l1-5.7
	c-4.1,6.3-9.4,10.6-16,12.9c-3.2,0.8-6.6,1.2-10.3,1.1c0.5,0.2,1.1,0.4,1.6,0.6c-0.8,0.1-1.6,0.1-2.4,0.1l0,0
	c10.5-15.7,8.2-28.2-2.9-28.6C154.2,185,140,194.3,128.7,198.9L128.7,198.9z M109.6,153.3L109.6,153.3L109.6,153.3L109.6,153.3
	L109.6,153.3z"/>
<path fill-rule="evenodd" clip-rule="evenodd" fill="#3B3A39" d="M139.8,179.9l80.7,15.8l11.1-12.8c-9.8-1.3-17.8-5.9-22-18
	L171.2,147C156.4,120.6,122.8,148.3,139.8,179.9z"/>
<path fill-rule="evenodd" clip-rule="evenodd" fill="#ED861A" d="M228.9,121.2c16.4-4.9,20.5-11.4,12.4-19.6L197.5,113
	c0.5,10.8,3.2,17.1,7.2,20.2C209,134.9,219.5,131,228.9,121.2z"/>
<path fill-rule="evenodd" clip-rule="evenodd" fill="#F5A87D" d="M184.3,282.7c9.5,6.2,16.6,11.1,23.3,14.3
	c0.9,10.7-4.6,17.5-7.3,20.3c-4.1,3.7-9.8,2.5-11-1.1c-1-3.1-3.1-5.3-9.3-3c-6.3,2-10.7-1.2-7.8-6.7c2.3-2.7,2.3-7.5-4.7-8
	c-6.2-0.7-7.9-7.4-0.2-8.7C175.4,289.9,180.8,288.2,184.3,282.7z"/>
<path fill-rule="evenodd" clip-rule="evenodd" fill="#626261" d="M138.6,194.1c-8,41.1,31.9,108.3,95.6,104.8l-0.4-4.1l-2.5-6l7.7,1
	l7.6-1.1l4.1,8.4c29.2-10.3,44.7-31.2,52.5-55.9c17-12.3,23.8-27.8,22.8-45.6l1.6-6.2c-9.3,10.1-22.6,15.1-39.9,14.8l-27.7,21
	c19.3,15.3,17.6,22.1-5.2,17c19.1,9.9,18.2,16.8,3.3,11.5l-16.7-7.5c-0.1-11.4,30.8-28,46.2-42c15.9-16.6,13-30.4-3.1-31.3
	c-29.4-5.1-74,29.6-80.6,3.4c3.8-22.7,23.2-23.7,53.4-51.4c32.8-24,20.7-63.6,1-73.4c-17.7-16.4-58.6-7.3-64,25.1l4.3,1.4l3.8,2.8
	c12.4-6.3,16.4,16.6,29.6,15.2c1.9,2.1,3.6,3.6,5.1,4.2c9.6,1.6,7.4,10.1-8.5,21c-9.7,9.3-17.8,13.2-24.2,12l-4.6-6.2
	c-15.4,20.3-52.5,23.6-61.2,46c2.3,0.2,5.4-1.2,9.6-4.2C140,175.7,136.7,184.2,138.6,194.1z"/>
<path fill-rule="evenodd" clip-rule="evenodd" fill="#9B9B9B" d="M262.3,107.9c0.9,4-0.2,7.4-3.1,10.2c-9.6,8.9-21.5,8.6-30.3,3.1
	c5.1-3.2,9.4-7,12.6-11.9c2.5-2.1,2.4-4.7-0.2-7.8l-7,0l-2-5.6C253.4,84.5,266.1,93.8,262.3,107.9z"/>
<path fill-rule="evenodd" clip-rule="evenodd" fill="#F6A840" d="M189.8,86.4c5.9-0.5,10.6-7.4,20.3-6.1c7.9,2.3,9.9,15,22.3,15.7
	c4.6,0.9,6.9,3.6,9,5.6l-4.2,3.7c-11.1,7.1-20.2,11.5-35.5,8.8c-27.7-7-28.8-29.8-21.7-27.8L189.8,86.4z"/>
<path fill-rule="evenodd" clip-rule="evenodd" fill="#FBD4A7" d="M212.8,112.6c-10.4-0.2-30.8-9.1-35-19.3
	C180.3,107.4,199.8,114.6,212.8,112.6z"/>
<path fill-rule="evenodd" clip-rule="evenodd" fill="#FFFFFF" d="M247.7,90.9c-5.4,0.5-10.5,2.2-15.4,5.1l-4.7-0.6l-4.2-2.5
	c2.5-14.6,10.7-25.3,18.1-28.1C247.2,66.3,250.4,76.8,247.7,90.9z"/>
<path fill-rule="evenodd" clip-rule="evenodd" fill="#FFFFFF" d="M210,80.2l-3.7-0.6l-3.6,1.1l-8.1-4.1l3-9.9
	c5.9-8.1,9.9-12,14.3-11.8C216.1,58.3,216,69.6,210,80.2z"/>
<path fill-rule="evenodd" clip-rule="evenodd" fill="#D3ECFB" d="M206.3,79.7l-3.6,1.1l-3.8-2.8l-4.3-1.4c1.4-8.5,4.1-13.3,7.8-15.7
	C210.7,57.3,212,70.4,206.3,79.7z"/>
<path fill-rule="evenodd" clip-rule="evenodd" fill="#3B3A39" d="M303.2,241.2c-8.5,30.2-29.2,47.5-49.7,55.1l-19.3,2.7
	c-38.2,4.7-77.2-29.3-88.3-60.3c11.9,23.3,42.6,19.8,46.3-9c19.2,25.7,56,35.9,50.2,23.1l25.4-1.9c20.6-4.6,45.3-25.8,49.4-43.9
	l4.8-4.2C322.2,217.8,316.6,233.1,303.2,241.2L303.2,241.2z M202.7,188.5c-22-37.3,41.4-52.1,56.5-70.4c2.6-3.5,3.6-5.3,3-10.7
	l0.8-4.6c10.3-14.6,4.5-42.8-7.4-53.5c6.7,2.7,12,7.6,15.9,14.7l7.1,0.5l-5.1,3.4l4.5,0.3l4.3,1.5l-4.7,1.1l-2.1,2.3
	c3.8,11.1,2.7,22.1-2.2,33.1C257.3,138.2,198.9,151.6,202.7,188.5L202.7,188.5z"/>
<path fill-rule="evenodd" clip-rule="evenodd" fill="#3B3A39" d="M273.9,197.5c10.2-8.4,17.7-17.7,10-20
	c16.2,0.4,19.6,19.6-23.8,47.6c19.3,14.4,17.7,23.1-5.2,17c24.5,12,16.7,20-13.4,4l23.7,16.4c-7.2-0.6-14.7-3.1-22.9-9.7
	C211.5,230.4,245.4,217,273.9,197.5z"/>
<path fill-rule="evenodd" clip-rule="evenodd" fill="#F5A87D" d="M212.2,313.4c8.3,1,17.1-1.9,23.6-7.6c-0.6-5.3,1-11-4.9-17.2
	c7,1.9,10.3,1.6,15.6,0c11.6,16.8,12.3,48.6-2.7,57.2c-7.8,5.9-14,2.5-14-1.9c0.2-4.3-0.5-7.6-7.7-5.1c-5.7,3-13.1,1.3-7.6-8.1
	c2.4-3.7,3.2-8-3.6-7.9C203.8,321.4,207.1,313,212.2,313.4z"/>
<path fill-rule="evenodd" clip-rule="evenodd" fill="#9B9B9B" d="M185.8,86.4c5.6,0.1,11.2-1.8,16.9-5.6
	C196.8,74.4,184.7,75.1,185.8,86.4z"/>
<path fill-rule="evenodd" clip-rule="evenodd" fill="none" stroke="#A62522" stroke-width="1.7008" stroke-linecap="round" stroke-linejoin="round" stroke-miterlimit="22.9256" d="
	M237.5,100.2c5.4-0.1,7.4,6.3,4.1,9.1"/>
<path fill-rule="evenodd" clip-rule="evenodd" fill="#D3ECFB" d="M238.6,93c-5.1,3.7-10.2,3.6-15.2-0.3l5.5-16.4
	C238,66.7,248.2,78.4,238.6,93z"/>
<circle fill-rule="evenodd" clip-rule="evenodd" fill="#1A1A18" cx="201" cy="70.1" r="4.6"/>
<circle fill-rule="evenodd" clip-rule="evenodd" fill="#FFFFFF" cx="203.9" cy="68.8" r="2.2"/>
<circle fill-rule="evenodd" clip-rule="evenodd" fill="#1A1A18" cx="231.9" cy="80.7" r="5.2"/>
<circle fill-rule="evenodd" clip-rule="evenodd" fill="#FFFFFF" cx="235.2" cy="79" r="2.6"/>
<path fill-rule="evenodd" clip-rule="evenodd" fill="none" stroke="#A62522" stroke-width="1.7008" stroke-linecap="round" stroke-linejoin="round" stroke-miterlimit="22.9256" d="
	M182.7,284.8c-3.1,4.5-8.8,5-14.7,5.1c-7.9-1-7.2,8.5-0.6,8.7c6.5,0.4,6.9,4,5,7.4c-3.5,4.9,0.5,9.9,7.4,7.3
	c4.6-1.7,7.5-1.4,8.7,1.5c3,10.5,20,3.4,19-17.8"/>
<path fill-rule="evenodd" clip-rule="evenodd" fill="#F5B0B4" d="M201.5,114c12.7,2.9,24.5-0.7,35.5-8.8
	c-14.1,13.9-25.9,24.2-30.7,23.1C204.2,127.4,202.2,122.8,201.5,114z"/>
<path fill-rule="evenodd" clip-rule="evenodd" fill="none" stroke="#1A1A18" stroke-width="1.7008" stroke-linecap="round" stroke-linejoin="round" stroke-miterlimit="22.9256" d="
	M234.2,298.9c-37.6,6.8-102.4-38.5-95.6-104.8 M200.1,126.9c-15.4,20.3-52.5,23.6-61.2,46c2.3,0.2,5.4-1.2,9.6-4.2
	c-8.5,7.1-11.8,15.6-9.9,25.5 M194.6,76.6c10-41.7,62-40.5,76.9-12.5c3.4-0.4,6.1-0.1,8.1,0.9c-2.3,0.4-4.3,1.4-6,3
	c3.8-0.2,6.8,0.7,8.8,1.9c-4.4,0.3-6.2,1.6-6.7,3.4c6.1,20.2-1.2,38.6-18.1,51.7 M199.3,64.4c4.8-7.7,9-9.1,12.6-9.5
	c4.2,3.4,4.1,14.8-1.9,25.3 M256.5,111.2c4.7,7,3.4,13.2-3.9,18.7c-16.3,13.9-52.1,28.1-49.9,58.5 M257.3,102.3
	c6.4,2.8,7,9.1,1.9,15.8 M232.3,95.9c21.1-11.4,33.8-2.1,30,11.9 M202.7,80.7c-6-6.4-18-5.6-16.9,5.6 M238.1,62.2
	c3.8-2.4,9.2-1.9,10.5,3.3 M223.5,92.8c2.5-14.6,10.5-27.6,18.1-28.1c6.4,0.5,8.8,12,6.1,26.1 M204,176c2.8,8.5,10.1,12.6,25.1,7.8
	c36.1-12.9,62.2-13.9,66.8-6.6c16.1,29.6-64.5,51.2-53.5,75.7 M209.6,164.9c0.2,9,10.2,17.6,22,18 M171.2,147
	c-14.8-26.4-48.4,1.3-31.4,32.9 M150.5,190.1c2.1,6.8,6,5.5,7.7,1.8 M140.6,198.8c-0.4,7.1,5.5,9.4,7.4,5.3 M156,213.1
	c-2.9,3.9-6,2.1-5.9-0.7 M214.7,219.2c-17.7,34.4,43.2,52.2,53.1,49.5c3.4-3.1-8.1-11.6-26.3-22.6c31,16.8,37.3,7.7,13.4-4
	c16.9,4.3,28.7,1.6,5.1-17.1 M315.8,209.6c5.4-4.3,9.3-11.1,11.8-20.3c-8.9,9.3-22.1,14.3-39.9,14.8 M326,195.5
	c1.5,30.5-22.8,45.6-22.8,45.6c-7.1,23.9-25.3,47.8-52.5,55.9"/>
<path fill-rule="evenodd" clip-rule="evenodd" fill="none" stroke="#A62522" stroke-width="1.7008" stroke-linecap="round" stroke-linejoin="round" stroke-miterlimit="22.9256" d="
	M231,288.7c5.1,8.6,5.7,18,4.3,27.6"/>
<path fill-rule="evenodd" clip-rule="evenodd" fill="none" stroke="#A62522" stroke-width="1.7008" stroke-linecap="round" stroke-linejoin="round" stroke-miterlimit="22.9256" d="
	M197.5,113c0.5,10.8,3.2,17.1,7.2,20.2c4.3,1.8,14.8-2.2,24.2-12"/>
<path fill-rule="evenodd" clip-rule="evenodd" fill="#A62522" d="M209.1,92.5c1.7,0,3.1-1.4,3.1-3.1c0-1.7-1.4-3.1-3.1-3.1
	s-3.1,1.4-3.1,3.1C206,91.2,207.4,92.5,209.1,92.5z"/>
<path fill-rule="evenodd" clip-rule="evenodd" fill="#FBD2B6" d="M244.3,340.7c4.8-8.5,6.9-17.7,7.1-29.2
	C254.9,323.2,252.2,332.8,244.3,340.7z"/>
<path fill-rule="evenodd" clip-rule="evenodd" fill="#626261" d="M229.4,295.5c-9.3-1.6-35-4.8-50.7-21.6
	C188.5,289.5,217.2,300.5,229.4,295.5z"/>
<path fill-rule="evenodd" clip-rule="evenodd" fill="none" stroke="#E7817E" stroke-width="1.7008" stroke-linecap="round" stroke-linejoin="round" stroke-miterlimit="22.9256" d="
	M206.9,117c1.4,0.6,2.4,1.8,2.5,3.5c0.5-1.1,1.8-1.9,6.1-3"/>
<path fill-rule="evenodd" clip-rule="evenodd" fill="none" stroke="#A62522" stroke-width="1.7008" stroke-linecap="round" stroke-linejoin="round" stroke-miterlimit="22.9256" d="
	M232.3,95.9c-13.6,1-16.8-21.4-29.6-15.2c-7.2,5-14.7,7.2-22.9,5.4c-5.4-1-7.2,12.9,8,22.2c14.1,9.5,34,8.5,49.3-3.1
	c-14.1,13.9-25.9,24.2-30.7,23.1c-2.2-1-4.2-5.6-4.9-14.4"/>
<path fill-rule="evenodd" clip-rule="evenodd" fill="none" stroke="#A62522" stroke-width="1.7008" stroke-linecap="round" stroke-linejoin="round" stroke-miterlimit="22.9256" d="
	M246.6,288.7c11.8,20,11.3,44.5-0.3,55.2c-8.7,8.1-16.5,6.1-16.6-1.7c0.3-3.9-3.1-5.3-7.5-3.2c-7.9,3.8-11.9-1.5-8.1-7.1
	c3.2-5.9,2-8.6-2-8.8c-6.7-0.4-6.8-9.5,0.2-9.6c9,0.3,17.1-1.9,23.6-7.6"/>
<path fill-rule="evenodd" clip-rule="evenodd" fill="none" stroke="#1A1A18" stroke-width="1.7008" stroke-linecap="round" stroke-linejoin="round" stroke-miterlimit="22.9256" d="
	M225,285.1c7.9,7.3,21,5.7,36.5-2.1"/>
<path fill-rule="evenodd" clip-rule="evenodd" fill="#9B9B9B" d="M248.4,49.6c-9.4-2.4-18.9-2-30,0.8
	C228.8,44,238.7,44.1,248.4,49.6L248.4,49.6z M218,243.7c-2.3-8.3-2-16.6,0.9-26.3C212.4,226.5,212.5,235.2,218,243.7L218,243.7z
	 M232.3,187c16.2-6.7,38.6-14.5,49.7-9.3C275.7,177.2,254.5,180.8,232.3,187L232.3,187z M318.1,199.5c-8.5,4.7-17.8,6.9-29.2,6.9
	C300.6,210,310.2,207.3,318.1,199.5L318.1,199.5z M151.4,161.9c6.9-9.9,32-15.2,39.8-23.5C184.3,149.5,159.2,155.3,151.4,161.9z"/>
</svg>
