<?xml version="1.0" encoding="utf-8"?>
<!-- Generator: Adobe Illustrator 19.0.0, SVG Export Plug-In . SVG Version: 6.00 Build 0)  -->
<svg version="1.1" id="Layer_1" xmlns="http://www.w3.org/2000/svg" xmlns:xlink="http://www.w3.org/1999/xlink" x="0px" y="0px"
	 viewBox="0 0 365.9 349.9" enable-background="new 0 0 365.9 349.9" xml:space="preserve">
<path id="XMLID_30_" fill-rule="evenodd" clip-rule="evenodd" fill="#FDEDE1" d="M106.1,85.8c15.7-92.2,174.4-132.6,197.1-5
	c14.6,82.2,56.3,62.9,62.4,112.4c6.3,51.9-70.2,60.7-25,101.5c36.6,33-113.9,69.6-160,27c-19.1-17.7-48.8-3.4-63.5-33
	C89.1,232.2,98,143.3,106.1,85.8z"/>
<path id="XMLID_27_" fill-rule="evenodd" clip-rule="evenodd" fill="#ECECEC" d="M253.2,304.6L171,275.6l-40.9,31.3
	c-20.9,13.9,19.5,22.7,53.9,20.9c18.2-1,11.9,18,45.8,16.2c19.1-1,52.1-7.6,55.9-21.4C289.4,309.3,271.8,305.3,253.2,304.6z"/>
</svg>
