<?xml version="1.0" encoding="utf-8"?>
<!-- Generator: Adobe Illustrator 21.1.0, SVG Export Plug-In . SVG Version: 6.00 Build 0)  -->
<svg version="1.1" id="Layer_1" xmlns="http://www.w3.org/2000/svg" xmlns:xlink="http://www.w3.org/1999/xlink" x="0px" y="0px"
	 viewBox="0 0 490 420" style="enable-background:new 0 0 490 420;" xml:space="preserve">
<style type="text/css">
	.st0{fill-rule:evenodd;clip-rule:evenodd;fill:#AF6D44;}
	.st1{fill-rule:evenodd;clip-rule:evenodd;fill:#DEA175;}
	.st2{fill-rule:evenodd;clip-rule:evenodd;fill:#CD8C5D;}
	.st3{fill-rule:evenodd;clip-rule:evenodd;fill:#9E5839;}
	.st4{fill-rule:evenodd;clip-rule:evenodd;fill:#A5C3D2;}
	.st5{fill-rule:evenodd;clip-rule:evenodd;fill:#E6E7E8;}
	.st6{fill-rule:evenodd;clip-rule:evenodd;fill:#939598;}
	.st7{fill-rule:evenodd;clip-rule:evenodd;fill:#FFFFFF;}
	.st8{fill-rule:evenodd;clip-rule:evenodd;fill:#C4D8E0;}
	.st9{fill-rule:evenodd;clip-rule:evenodd;fill:#CAE197;}
	.st10{fill-rule:evenodd;clip-rule:evenodd;fill:#DBEAB4;}
	.st11{fill-rule:evenodd;clip-rule:evenodd;fill:#E9C18B;}
	.st12{fill-rule:evenodd;clip-rule:evenodd;fill:#849DAA;}
	.st13{fill-rule:evenodd;clip-rule:evenodd;fill:#A7A9AC;}
	.st14{fill-rule:evenodd;clip-rule:evenodd;fill:#F5C8AE;}
	.st15{fill-rule:evenodd;clip-rule:evenodd;fill:#ADBC72;}
	.st16{fill-rule:evenodd;clip-rule:evenodd;fill:#D1D3D4;}
</style>
<rect x="26.2" y="114.1" class="st0" width="10.3" height="99.5"/>
<polygon class="st1" points="100.7,25.5 186,114 164.9,114.1 164.9,213.6 36.5,213.6 36.5,114 17.9,114.1 "/>
<polygon class="st2" points="100.7,25.5 186,114 164.9,114.1 36.5,114 17.9,114.1 "/>
<rect x="164.9" y="114.1" class="st0" width="10.3" height="81.7"/>
<rect x="36.5" y="126.5" class="st0" width="128.4" height="2.2"/>
<polygon class="st0" points="85.8,46 115,46 116.9,48.1 83.9,48.1 "/>
<rect x="36.5" y="153.3" class="st0" width="128.4" height="2.2"/>
<polygon class="st0" points="62.3,72.7 138.5,72.7 140.4,74.9 60.4,74.9 "/>
<rect x="36.5" y="180.1" class="st0" width="128.4" height="2.2"/>
<polygon class="st0" points="38.7,99.5 162.1,99.5 164,101.7 36.8,101.7 "/>
<rect x="36.5" y="140" class="st0" width="128.4" height="2.2"/>
<polygon class="st0" points="74,59.4 126.8,59.4 128.7,61.5 72.1,61.5 "/>
<rect x="36.5" y="166.7" class="st0" width="128.4" height="2.2"/>
<polygon class="st0" points="50.4,86.2 150.4,86.2 152.3,88.4 48.5,88.4 "/>
<rect x="36.5" y="193.6" class="st0" width="128.4" height="2.2"/>
<rect x="26.2" y="113.1" class="st0" width="149.1" height="2.2"/>
<rect x="26.2" y="126.5" class="st3" width="10.3" height="2.2"/>
<rect x="26.2" y="153.3" class="st3" width="10.3" height="2.2"/>
<rect x="26.2" y="180.1" class="st3" width="10.3" height="2.2"/>
<rect x="26.2" y="140" class="st3" width="10.3" height="2.2"/>
<rect x="26.2" y="166.7" class="st3" width="10.3" height="2.2"/>
<rect x="26.2" y="193.6" class="st3" width="10.3" height="2.2"/>
<rect x="164.9" y="126.5" class="st3" width="10.3" height="2.2"/>
<rect x="164.9" y="153.3" class="st3" width="10.3" height="2.2"/>
<rect x="164.9" y="180.1" class="st3" width="10.3" height="2.2"/>
<rect x="164.9" y="140" class="st3" width="10.3" height="2.2"/>
<rect x="164.9" y="166.7" class="st3" width="10.3" height="2.2"/>
<rect x="164.9" y="193.6" class="st3" width="10.3" height="2.2"/>
<path class="st2" d="M36.5,127.6c3.7,0,6.7-3,6.7-6.7c0-3.7-3-6.7-6.7-6.7c-3.7,0-6.7,3-6.7,6.7C29.7,124.5,32.8,127.6,36.5,127.6z"
	/>
<path class="st2" d="M164.9,127.6c3.7,0,6.7-3,6.7-6.7c0-3.7-3-6.7-6.7-6.7c-3.7,0-6.7,3-6.7,6.7
	C158.2,124.5,161.2,127.6,164.9,127.6z"/>
<path class="st2" d="M36.5,141c3.7,0,6.7-3,6.7-6.7c0-3.7-3-6.7-6.7-6.7c-3.7,0-6.7,3-6.7,6.7C29.7,138,32.8,141,36.5,141z"/>
<circle class="st2" cx="164.9" cy="134.3" r="6.7"/>
<path class="st2" d="M36.5,154.5c3.7,0,6.7-3,6.7-6.7c0-3.7-3-6.7-6.7-6.7c-3.7,0-6.7,3-6.7,6.7C29.7,151.5,32.8,154.5,36.5,154.5z"
	/>
<circle class="st2" cx="164.9" cy="147.8" r="6.7"/>
<path class="st2" d="M36.5,167.9c3.7,0,6.7-3,6.7-6.7c0-3.7-3-6.7-6.7-6.7c-3.7,0-6.7,3-6.7,6.7C29.7,164.9,32.8,167.9,36.5,167.9z"
	/>
<circle class="st2" cx="164.9" cy="161.2" r="6.7"/>
<path class="st2" d="M36.5,181.4c3.7,0,6.7-3,6.7-6.7c0-3.7-3-6.7-6.7-6.7c-3.7,0-6.7,3-6.7,6.7C29.7,178.4,32.8,181.4,36.5,181.4z"
	/>
<circle class="st2" cx="164.9" cy="174.7" r="6.7"/>
<circle class="st2" cx="36.5" cy="188.2" r="6.7"/>
<circle class="st2" cx="164.9" cy="188.2" r="6.7"/>
<path class="st2" d="M36.5,208.4c3.7,0,6.7-3,6.7-6.7c0-3.7-3-6.7-6.7-6.7c-3.7,0-6.7,3-6.7,6.7C29.7,205.4,32.8,208.4,36.5,208.4z"
	/>
<rect x="81.5" y="129.6" class="st4" width="38.3" height="39.6"/>
<polygon class="st4" points="81.5,129.6 100.5,134.7 119.7,129.6 100.5,120.4 "/>
<rect x="81.5" y="164" class="st4" width="7.7" height="10.3"/>
<rect x="112" y="164" class="st4" width="7.7" height="10.3"/>
<rect x="112" y="124.3" class="st4" width="7.7" height="10.4"/>
<rect x="81.5" y="124.3" class="st4" width="7.7" height="10.4"/>
<rect x="86.4" y="134.7" class="st5" width="28.5" height="29.4"/>
<polygon class="st6" points="89.1,155.5 99.4,137.5 112,158.6 112,161.1 89.1,161.1 "/>
<rect x="89.1" y="153.3" class="st5" width="23.1" height="2.9"/>
<path class="st7" d="M89.1,137.5h10.3c-1.2,8.8-4.7,14.8-10.3,17.9V137.5z"/>
<path class="st7" d="M112,137.5H99.4c1.5,10.4,5.7,17.4,12.6,21V137.5z"/>
<polygon class="st8" points="88.1,129.6 112.9,129.6 100.5,123.6 "/>
<rect x="93.6" y="74.9" class="st4" width="14.2" height="24.7"/>
<rect x="96.8" y="78.3" class="st6" width="7.6" height="17.9"/>
<path class="st4" d="M100.7,66.2c3.1,0,5.7-2.6,5.7-5.7s-2.6-5.7-5.7-5.7c-3.1,0-5.7,2.6-5.7,5.7C94.9,63.6,97.5,66.2,100.7,66.2z"
	/>
<path class="st6" d="M100.7,63.9c1.9,0,3.5-1.6,3.5-3.5c0-1.9-1.6-3.5-3.5-3.5c-1.9,0-3.5,1.6-3.5,3.5
	C97.2,62.4,98.8,63.9,100.7,63.9z"/>
<polygon class="st1" points="93.6,0 82.9,9.3 90.9,18.5 7,114.1 17.7,123.4 100.4,29.3 183.1,123.4 193.8,114.1 109.8,18.5 
	117.9,9.3 107.1,0 100.4,7.7 "/>
<path class="st9" d="M159.7,75.2l34.2,38.9l-10.8,9.3l-9.1-10.3l1.2,81.1c-40.5,0.7-64.6,4.9-92.4,12c-15.8,2.4-49,4.6-55.4-1.1
	C15.9,206.6,6.7,210,0,215.5c10.1-2.7,19.5-4.1,25-2.8c59.4,58.5,150.4,20.4,141.2,43.1c-8,21.6-47.5,31.4-66.6,45.1l5.9,22.2
	l4.4,25.4l129.9,41.8l104-29.1l-23.2-94.3l68.4,7.2l64.9-70.9c6.8-4.1,6.6-34.3-20.3-17.6c17.3-21.2,27.5-30.6,9.8-40.5
	c2.8-10.1-5-25.4-11.3-28.5c-5.2-2.6,4.8-5.9,0.4-10.2c-2.4-2.4-11.3-3.9-10.9-4.4c5.2-5.2-0.2-10.6-6.3-6.7c-6.5,4.2-3.3-7.4-8.9-7
	c-2.6,0.2-3.3,6.5-5.7,7c-3.1,0.7-3.6-3.9-5-6.7c-3-6.1-10.7-11.1-16.3-7c-3.1-25-30.3-7.4-30.3-7.4c-17.5-8.9-26.2-5.7-32,6.3
	c-2.8,5.8-4.8,18.7-8.7,23.7c0-5.7,1.8-15.2,0-20.7c-1.5-4.6-14.2,2.4-14.2,2c0-3.3-0.7-7.1-3.7-8.1c-6.3-1.9-13.1-3.7-21.3-1.7
	c-10.9,2.6,14.6-7.6,10-16.8c-2-3.9-7.6-2.6-7.6-3.9c0-4.8-0.7-12.5-2.8-16.5c-13.5-25.8-29.2-11.8-31.4-0.5
	c-0.1,0.5-2.8-14.6-6.7-10.8c-11.8,11.6-25.6,0-36.2,0c-5.5,0-8.8,0.7-11.1,5.5c-2.4,4.7-2,4.9-9.1,5.9
	C161,40.6,153.8,64,159.7,75.2z"/>
<path class="st10" d="M159.7,75.2l34.2,38.9l-10.8,9.3l-9.1-10.3l0.6,40.3l31.4,12.3c162.5-64.2,145,30.5,137.6,48.6l45.5,59.7
	l64.9-70.9c6.8-4.1,6.6-34.3-20.3-17.6c17.3-21.2,27.5-30.6,9.8-40.5c2.8-10.1-5-25.4-11.3-28.5c-5.2-2.6,4.8-5.9,0.4-10.2
	c-2.4-2.4-11.3-3.9-10.9-4.4c5.2-5.2-0.2-10.6-6.3-6.7c-6.5,4.2-3.3-7.4-8.9-7c-2.6,0.2-3.3,6.5-5.7,7c-3.1,0.7-3.6-3.9-5-6.7
	c-3-6.1-10.7-11.1-16.3-7c-3.1-25-30.3-7.4-30.3-7.4c-17.5-8.9-26.2-5.7-32,6.3c-2.8,5.8-4.8,18.7-8.7,23.7c0-5.7,1.8-15.2,0-20.7
	c-1.5-4.6-14.2,2.4-14.2,2c0-3.3-0.7-7.1-3.7-8.1c-6.3-1.9-13.1-3.7-21.3-1.7c-10.9,2.6,14.6-7.6,10-16.8c-2-3.9-7.6-2.6-7.6-3.9
	c0-4.8-0.7-12.5-2.8-16.5c-13.5-25.8-29.2-11.8-31.4-0.5c-0.1,0.5-2.8-14.6-6.7-10.8c-11.8,11.6-25.6,0-36.2,0
	c-5.5,0-8.8,0.7-11.1,5.5c-2.4,4.7-2,4.9-9.1,5.9C161,40.6,153.8,64,159.7,75.2z"/>
<path class="st11" d="M221.3,252.7c0.4,33-95.8,49.1-90.3,80.3c4.5,26.3,113.7,47.9,247.7,1.8l33.1,24.2
	c5.4,19.9-12.2,34.7-52.9,44.4c-149.4,36-301.2-4.6-303.4-57.9c-1.2-49.3,132-65.3,142.6-92.8c10.3-28.4-102.4,4.9-150.5-44
	c11.1-0.3,21.6-0.7,32.4-2.1C108.9,244.8,228.8,207,221.3,252.7z"/>
<path class="st9" d="M279.6,105.6c-0.5-7.6,9.6-7.1,15.4-7.5l0.9-0.1l0.1,0.9C294.1,103.1,283.9,107.4,279.6,105.6z M217.2,56.4
	c-1.4-4.3,3.5-17.7,6.5-14.4C228.3,47.1,220.5,56.6,217.2,56.4z M272.4,105.2c-6.7-2.3-6.5-8.9-9.4-14.6c0,0-1.5-1.1-0.4-1.1
	C272.1,89.5,274.6,98.7,272.4,105.2z M278.3,95.8c-1.7-6.9,3-6.9,8.3-9.6C288,85.6,286.1,97.3,278.3,95.8z M211.8,63.7
	c-7.6,0-6.4-10.1-6.4-15.8v-0.9h0.9C210.3,49.1,213.8,59.5,211.8,63.7z"/>
<rect x="47.7" y="198.3" class="st12" width="4.1" height="14.1"/>
<rect x="107.2" y="198.3" class="st12" width="4.1" height="14.1"/>
<rect x="41.9" y="193.6" class="st12" width="75" height="6.5"/>
<path class="st13" d="M66.2,195.5c-6,0.7-10.3-2.9-9.8-18.3l15.7-6.7l10.3,3l1.5,8.9c5.5,4,8.1,8.4,7.9,13.2l0.5,13.1
	c-2.1,2.5-15.8,4-24.9,2C65.5,204.9,65.4,199.3,66.2,195.5z"/>
<path class="st14" d="M87.8,175.2l-3.9-3.2l-3.1,3.2c-1.5,3.5-3.8,6.9-6.1,9.2c-6.2,2,0.3,6,3.3,4C82,186.1,85.2,180.7,87.8,175.2z"
	/>
<path class="st14" d="M58.8,176.1l9.2-0.5c2.5,4.1,5.5,6.9,8.8,9.4c8.1,1.4,4,9.6-3.5,3.3C67.9,186.4,63,182.6,58.8,176.1z"/>
<path class="st15" d="M63.9,156.9l18.7,0.6c3.8,3.2,5.1,9.7,5.2,17.7c-11.1-0.2-21.9,0-31.4,2C56.2,166.6,58.4,159.3,63.9,156.9z"/>
<path class="st14" d="M65.4,150.8L75.5,139c5.3,6.6,10.2,23.1-2.8,23.1C67.3,162.2,63.9,156.9,65.4,150.8z"/>
<path class="st7" d="M73.4,137.6c13.4,11.2,13.7,19.1,1.8,25.2c2,0.5,5.8,3.9,5.1,7.7c-1.8,0.3-6.4-2.5-7-5.2
	c-1.2,3.7-5.9,7.8-8.4,7.9c-0.8-3.4,1.4-8.2,6.1-9.9l0.9-1.1c10.2,0.3,9.9-10.1,2.6-17.8c-10.1,7.3-9.9,15.9-2.6,17.8l-0.9,1.1
	C57.9,159,59.6,147.3,73.4,137.6z"/>
<path class="st16" d="M67.4,151.4c7.3-21.3,19.1,9.7,7-2.1C72.3,152.3,66.6,154.1,67.4,151.4z"/>
<path class="st5" d="M89.3,210.2l-9.8,0.9C78.4,219,86.2,221.2,89.3,210.2z"/>
<path class="st5" d="M69.6,211.2h10C82,219.8,74.1,222.5,69.6,211.2z"/>
</svg>
