<?xml version="1.0" encoding="utf-8"?>
<!-- Generator: Adobe Illustrator 21.1.0, SVG Export Plug-In . SVG Version: 6.00 Build 0)  -->
<svg version="1.1" id="Layer_1" xmlns="http://www.w3.org/2000/svg" xmlns:xlink="http://www.w3.org/1999/xlink" x="0px" y="0px"
	 viewBox="0 0 490 420" style="enable-background:new 0 0 490 420;" xml:space="preserve">
<style type="text/css">
	.st0{fill-rule:evenodd;clip-rule:evenodd;fill:#AF6D44;}
	.st1{fill-rule:evenodd;clip-rule:evenodd;fill:#DEA175;}
	.st2{fill-rule:evenodd;clip-rule:evenodd;fill:#CD8C5D;}
	.st3{fill-rule:evenodd;clip-rule:evenodd;fill:#9E5839;}
	.st4{fill-rule:evenodd;clip-rule:evenodd;fill:#A5C3D2;}
	.st5{fill-rule:evenodd;clip-rule:evenodd;fill:#E6E7E8;}
	.st6{fill-rule:evenodd;clip-rule:evenodd;fill:#939598;}
	.st7{fill-rule:evenodd;clip-rule:evenodd;fill:#FFFFFF;}
	.st8{fill-rule:evenodd;clip-rule:evenodd;fill:#C4D8E0;}
	.st9{fill-rule:evenodd;clip-rule:evenodd;fill:#CAE197;}
	.st10{fill-rule:evenodd;clip-rule:evenodd;fill:#DBEAB4;}
	.st11{fill-rule:evenodd;clip-rule:evenodd;fill:#E9C18B;}
	.st12{fill-rule:evenodd;clip-rule:evenodd;fill:#BB7446;}
	.st13{fill-rule:evenodd;clip-rule:evenodd;fill:#A16044;}
	.st14{fill-rule:evenodd;clip-rule:evenodd;fill:#F18A2E;}
	.st15{fill-rule:evenodd;clip-rule:evenodd;fill:#FAA74A;}
	.st16{fill-rule:evenodd;clip-rule:evenodd;fill:#F9A57B;}
	.st17{fill-rule:evenodd;clip-rule:evenodd;fill:#D58F5C;}
	.st18{fill-rule:evenodd;clip-rule:evenodd;fill:#FED1A2;}
	.st19{fill-rule:evenodd;clip-rule:evenodd;fill:#C7EAFB;}
	.st20{fill:none;stroke:#823436;stroke-width:1.6992;stroke-linecap:round;stroke-linejoin:round;stroke-miterlimit:22.9256;}
	.st21{fill:none;stroke:#A82E31;stroke-width:1.6992;stroke-linecap:round;stroke-linejoin:round;stroke-miterlimit:22.9256;}
	.st22{fill-rule:evenodd;clip-rule:evenodd;}
	.st23{fill-rule:evenodd;clip-rule:evenodd;fill:#F8ABAD;}
	.st24{fill-rule:evenodd;clip-rule:evenodd;fill:#A82E31;}
	.st25{fill-rule:evenodd;clip-rule:evenodd;fill:#EBB081;}
	.st26{fill-rule:evenodd;clip-rule:evenodd;fill:#FDCEAE;}
	.st27{fill:none;stroke:#E8827E;stroke-width:1.6992;stroke-linecap:round;stroke-linejoin:round;stroke-miterlimit:22.9256;}
	.st28{fill:none;stroke:#ED1651;stroke-width:8.4958;stroke-linecap:round;stroke-linejoin:round;stroke-miterlimit:22.9256;}
	.st29{fill-rule:evenodd;clip-rule:evenodd;fill:#849DAA;}
	.st30{fill-rule:evenodd;clip-rule:evenodd;fill:#A7A9AC;}
	.st31{fill-rule:evenodd;clip-rule:evenodd;fill:#F5C8AE;}
	.st32{fill-rule:evenodd;clip-rule:evenodd;fill:#ADBC72;}
	.st33{fill-rule:evenodd;clip-rule:evenodd;fill:#D1D3D4;}
</style>
<rect x="26.2" y="114.1" class="st0" width="10.3" height="99.5"/>
<polygon class="st1" points="100.7,25.5 186,114 164.9,114.1 164.9,213.6 36.5,213.6 36.5,114 17.9,114.1 "/>
<polygon class="st2" points="100.7,25.5 186,114 164.9,114.1 36.5,114 17.9,114.1 "/>
<rect x="164.9" y="114.1" class="st0" width="10.3" height="81.7"/>
<rect x="36.5" y="126.5" class="st0" width="128.4" height="2.2"/>
<polygon class="st0" points="85.8,46 115,46 116.9,48.1 83.9,48.1 "/>
<rect x="36.5" y="153.3" class="st0" width="128.4" height="2.2"/>
<polygon class="st0" points="62.3,72.7 138.5,72.7 140.4,74.9 60.4,74.9 "/>
<rect x="36.5" y="180.1" class="st0" width="128.4" height="2.2"/>
<polygon class="st0" points="38.7,99.5 162.1,99.5 164,101.7 36.8,101.7 "/>
<rect x="36.5" y="140" class="st0" width="128.4" height="2.2"/>
<polygon class="st0" points="74,59.4 126.8,59.4 128.7,61.5 72.1,61.5 "/>
<rect x="36.5" y="166.7" class="st0" width="128.4" height="2.2"/>
<polygon class="st0" points="50.4,86.2 150.4,86.2 152.3,88.4 48.5,88.4 "/>
<rect x="36.5" y="193.6" class="st0" width="128.4" height="2.2"/>
<rect x="26.2" y="113.1" class="st0" width="149.1" height="2.2"/>
<rect x="26.2" y="126.5" class="st3" width="10.3" height="2.2"/>
<rect x="26.2" y="153.3" class="st3" width="10.3" height="2.2"/>
<rect x="26.2" y="180.1" class="st3" width="10.3" height="2.2"/>
<rect x="26.2" y="140" class="st3" width="10.3" height="2.2"/>
<rect x="26.2" y="166.7" class="st3" width="10.3" height="2.2"/>
<rect x="26.2" y="193.6" class="st3" width="10.3" height="2.2"/>
<rect x="164.9" y="126.5" class="st3" width="10.3" height="2.2"/>
<rect x="164.9" y="153.3" class="st3" width="10.3" height="2.2"/>
<rect x="164.9" y="180.1" class="st3" width="10.3" height="2.2"/>
<rect x="164.9" y="140" class="st3" width="10.3" height="2.2"/>
<rect x="164.9" y="166.7" class="st3" width="10.3" height="2.2"/>
<rect x="164.9" y="193.6" class="st3" width="10.3" height="2.2"/>
<path class="st2" d="M36.5,127.6c3.7,0,6.7-3,6.7-6.7c0-3.7-3-6.7-6.7-6.7c-3.7,0-6.7,3-6.7,6.7C29.7,124.5,32.8,127.6,36.5,127.6z"
	/>
<path class="st2" d="M164.9,127.6c3.7,0,6.7-3,6.7-6.7c0-3.7-3-6.7-6.7-6.7c-3.7,0-6.7,3-6.7,6.7
	C158.2,124.5,161.2,127.6,164.9,127.6z"/>
<path class="st2" d="M36.5,141c3.7,0,6.7-3,6.7-6.7c0-3.7-3-6.7-6.7-6.7c-3.7,0-6.7,3-6.7,6.7C29.7,138,32.8,141,36.5,141z"/>
<circle class="st2" cx="164.9" cy="134.3" r="6.7"/>
<path class="st2" d="M36.5,154.5c3.7,0,6.7-3,6.7-6.7c0-3.7-3-6.7-6.7-6.7c-3.7,0-6.7,3-6.7,6.7C29.7,151.5,32.8,154.5,36.5,154.5z"
	/>
<circle class="st2" cx="164.9" cy="147.8" r="6.7"/>
<path class="st2" d="M36.5,167.9c3.7,0,6.7-3,6.7-6.7c0-3.7-3-6.7-6.7-6.7c-3.7,0-6.7,3-6.7,6.7C29.7,164.9,32.8,167.9,36.5,167.9z"
	/>
<circle class="st2" cx="164.9" cy="161.2" r="6.7"/>
<path class="st2" d="M36.5,181.4c3.7,0,6.7-3,6.7-6.7c0-3.7-3-6.7-6.7-6.7c-3.7,0-6.7,3-6.7,6.7C29.7,178.4,32.8,181.4,36.5,181.4z"
	/>
<circle class="st2" cx="164.9" cy="174.7" r="6.7"/>
<circle class="st2" cx="36.5" cy="188.2" r="6.7"/>
<circle class="st2" cx="164.9" cy="188.2" r="6.7"/>
<path class="st2" d="M36.5,208.4c3.7,0,6.7-3,6.7-6.7c0-3.7-3-6.7-6.7-6.7c-3.7,0-6.7,3-6.7,6.7C29.7,205.4,32.8,208.4,36.5,208.4z"
	/>
<rect x="81.5" y="129.6" class="st4" width="38.3" height="39.6"/>
<polygon class="st4" points="81.5,129.6 100.5,134.7 119.7,129.6 100.5,120.4 "/>
<rect x="81.5" y="164" class="st4" width="7.7" height="10.3"/>
<rect x="112" y="164" class="st4" width="7.7" height="10.3"/>
<rect x="112" y="124.3" class="st4" width="7.7" height="10.4"/>
<rect x="81.5" y="124.3" class="st4" width="7.7" height="10.4"/>
<rect x="86.4" y="134.7" class="st5" width="28.5" height="29.4"/>
<polygon class="st6" points="89.1,155.5 99.4,137.5 112,158.6 112,161.1 89.1,161.1 "/>
<rect x="89.1" y="153.3" class="st5" width="23.1" height="2.9"/>
<path class="st7" d="M89.1,137.5h10.3c-1.2,8.8-4.7,14.8-10.3,17.9V137.5z"/>
<path class="st7" d="M112,137.5H99.4c1.5,10.4,5.7,17.4,12.6,21V137.5z"/>
<polygon class="st8" points="88.1,129.6 112.9,129.6 100.5,123.6 "/>
<rect x="93.6" y="74.9" class="st4" width="14.2" height="24.7"/>
<rect x="96.8" y="78.3" class="st6" width="7.6" height="17.9"/>
<path class="st4" d="M100.7,66.2c3.1,0,5.7-2.6,5.7-5.7s-2.6-5.7-5.7-5.7c-3.1,0-5.7,2.6-5.7,5.7C94.9,63.6,97.5,66.2,100.7,66.2z"
	/>
<path class="st6" d="M100.7,63.9c1.9,0,3.5-1.6,3.5-3.5c0-1.9-1.6-3.5-3.5-3.5c-1.9,0-3.5,1.6-3.5,3.5
	C97.2,62.4,98.8,63.9,100.7,63.9z"/>
<polygon class="st1" points="93.6,0 82.9,9.3 90.9,18.5 7,114.1 17.7,123.4 100.4,29.3 183.1,123.4 193.8,114.1 109.8,18.5 
	117.9,9.3 107.1,0 100.4,7.7 "/>
<path class="st9" d="M159.7,75.2l34.2,38.9l-10.8,9.3l-9.1-10.3l1.2,81.1c-40.5,0.7-64.6,4.9-92.4,12c-15.8,2.4-49,4.6-55.4-1.1
	C15.9,206.6,6.7,210,0,215.5c10.1-2.7,19.5-4.1,25-2.8c59.4,58.5,150.4,20.4,141.2,43.1c-8,21.6-47.5,31.4-66.6,45.1l5.9,22.2
	l4.4,25.4l129.9,41.8l104-29.1l-23.2-94.3l68.4,7.2l64.9-70.9c6.8-4.1,6.6-34.3-20.3-17.6c17.3-21.2,27.5-30.6,9.8-40.5
	c2.8-10.1-5-25.4-11.3-28.5c-5.2-2.6,4.8-5.9,0.4-10.2c-2.4-2.4-11.3-3.9-10.9-4.4c5.2-5.2-0.2-10.6-6.3-6.7c-6.5,4.2-3.3-7.4-8.9-7
	c-2.6,0.2-3.3,6.5-5.7,7c-3.1,0.7-3.6-3.9-5-6.7c-3-6.1-10.7-11.1-16.3-7c-3.1-25-30.3-7.4-30.3-7.4c-17.5-8.9-26.2-5.7-32,6.3
	c-2.8,5.8-4.8,18.7-8.7,23.7c0-5.7,1.8-15.2,0-20.7c-1.5-4.6-14.2,2.4-14.2,2c0-3.3-0.7-7.1-3.7-8.1c-6.3-1.9-13.1-3.7-21.3-1.7
	c-10.9,2.6,14.6-7.6,10-16.8c-2-3.9-7.6-2.6-7.6-3.9c0-4.8-0.7-12.5-2.8-16.5c-13.5-25.8-29.2-11.8-31.4-0.5
	c-0.1,0.5-2.8-14.6-6.7-10.8c-11.8,11.6-25.6,0-36.2,0c-5.5,0-8.8,0.7-11.1,5.5c-2.4,4.7-2,4.9-9.1,5.9
	C161,40.6,153.8,64,159.7,75.2z"/>
<path class="st10" d="M159.7,75.2l34.2,38.9l-10.8,9.3l-9.1-10.3l0.6,40.3l31.4,12.3c162.5-64.2,145,30.5,137.6,48.6l45.5,59.7
	l64.9-70.9c6.8-4.1,6.6-34.3-20.3-17.6c17.3-21.2,27.5-30.6,9.8-40.5c2.8-10.1-5-25.4-11.3-28.5c-5.2-2.6,4.8-5.9,0.4-10.2
	c-2.4-2.4-11.3-3.9-10.9-4.4c5.2-5.2-0.2-10.6-6.3-6.7c-6.5,4.2-3.3-7.4-8.9-7c-2.6,0.2-3.3,6.5-5.7,7c-3.1,0.7-3.6-3.9-5-6.7
	c-3-6.1-10.7-11.1-16.3-7c-3.1-25-30.3-7.4-30.3-7.4c-17.5-8.9-26.2-5.7-32,6.3c-2.8,5.8-4.8,18.7-8.7,23.7c0-5.7,1.8-15.2,0-20.7
	c-1.5-4.6-14.2,2.4-14.2,2c0-3.3-0.7-7.1-3.7-8.1c-6.3-1.9-13.1-3.7-21.3-1.7c-10.9,2.6,14.6-7.6,10-16.8c-2-3.9-7.6-2.6-7.6-3.9
	c0-4.8-0.7-12.5-2.8-16.5c-13.5-25.8-29.2-11.8-31.4-0.5c-0.1,0.5-2.8-14.6-6.7-10.8c-11.8,11.6-25.6,0-36.2,0
	c-5.5,0-8.8,0.7-11.1,5.5c-2.4,4.7-2,4.9-9.1,5.9C161,40.6,153.8,64,159.7,75.2z"/>
<path class="st11" d="M221.3,252.7c0.4,33-95.8,49.1-90.3,80.3c4.5,26.3,113.7,47.9,247.7,1.8l33.1,24.2
	c5.4,19.9-12.2,34.7-52.9,44.4c-149.4,36-301.2-4.6-303.4-57.9c-1.2-49.3,132-65.3,142.6-92.8c10.3-28.4-102.4,4.9-150.5-44
	c11.1-0.3,21.6-0.7,32.4-2.1C108.9,244.8,228.8,207,221.3,252.7z"/>
<path class="st12" d="M152.5,261.7l-3.4-3.7c-9.8,26.3-8.6,51.6,8.9,75.3c-1.7,10.2,1.1,16.6,6,21.2c-0.6,8.2,2.5,14.1,7.3,19
	c0.1,5.3,1,8.8,2.3,11.4c2.7-6,7-12,12.9-18l6.1,3l3.5-6.4l5.3,3l4.4,1.2l-1,5.3c34.9,10,71.4-5.1,88.9-60.7l-9.2-55.6
	c-8.9-22.6-28.6-30.6-35.8-47.2l-10.3-7.2c-2,6.5-6.7,12.7-20.3,15c16,22.9,20.1,40.3,12.3,52.3c-19.7-10.8-36.8,7.4-53.4,7.8
	c-7.9-1-16-6.9-24.9-23.8L152.5,261.7z"/>
<path class="st13" d="M165.2,320.2c-12.1-8.3-20.4-21.7-20.3-46.4c-3.3,25-0.7,41.8,13.2,59.4l28.5,33.6l6.1,3l3.5-6.4l5.3,3
	l4.4,1.2l-1,5.3c34.9,10,71.4-5.1,88.9-60.7c-14.8,27.2-31.1,30.6-44.3,14.7l-19.1-57.4c18.1-0.7,6.1-46.6-2.6-54.6l-9.7,2.4
	c16,22.9,20.1,40.3,12.3,52.3l19.1,57.4c-10.5,26.5-45.9,21.8-62.8,39.9l-28.5-33.6l3.4-7.4L165.2,320.2z"/>
<path class="st13" d="M330.4,208.8l-24.6,29.6l-21.3,18.2l-17.2-24.1C285,212.7,307.9,205.4,330.4,208.8z"/>
<path class="st14" d="M263.6,189l-34.7,0.2c-8.8-3.8-6,15.7,9.6,12.9C257.9,218.7,267.6,213.4,263.6,189z"/>
<path class="st15" d="M228,188.9c-6.5,3.1-0.1,10.2,6.7,11c-21,3.7-20.5-14.1-6.2-17.4c3.1-12.7,7.4-22,14.3-23.7
	c11.6-1.4,16.4,5.6,30.4-2.5c7.6-6.1,11,8.2,1,22.1C264.1,192.6,243.2,196.3,228,188.9z"/>
<path class="st14" d="M375.3,189.7c16.4-4.9,20.5-11.4,12.4-19.6l-43.8,11.4c0.5,10.8,3.2,17.1,7.2,20.2
	C355.3,203.5,365.9,199.5,375.3,189.7z"/>
<path class="st16" d="M320.4,346.8c9.5,6.2,16.6,11.1,23.3,14.3c0.9,10.7-4.6,17.5-7.3,20.3c-4.1,3.7-9.8,2.5-11-1.1
	c-1-3.1-3.1-5.3-9.3-3c-6.3,2-10.7-1.2-7.8-6.7c2.3-2.7,2.3-7.5-4.7-8c-6.2-0.7-7.9-7.4-0.2-8.7C311.5,354,317,352.3,320.4,346.8z"
	/>
<path class="st17" d="M228.2,272.1c-9.6-1.5-19.1-0.2-29.8,3.7C208.1,268.4,218.1,267.5,228.2,272.1z"/>
<path class="st12" d="M285,262.6c-8,41.1,31.9,108.2,95.5,104.7l-2.9-10.1l7.7,1l7.6-1.1l4.1,8.4c32.6-9.9,50.9-37.7,54.9-83.4
	c17.2-15.4,27.2-28.4,28.6-38.6c-2.4-2.1-9-0.4-20,5c17.3-16,27.8-30.1,28.5-41.5c-2.6-1.5-10.7,2.8-21.2,9.8
	c11-15.6,15.5-26.9,10.6-31.7c-36.8,36.4-86.3,29.1-99,48.8l4.7,3.6l6.6,2.8c-3.6,2.5-9.5,3.9-17.7,4.2l4.1,1.5l3,2.8
	c-11.2,6.7-21.7,7.7-31.2,5.9c2-32.3,24.3-32.6,54.8-61.3c32.8-24,20.7-63.5,1-73.3c-17.7-16.4-58.5-7.3-63.9,25.1l4.3,1.4l3.8,2.8
	c12.4-6.3,16.4,16.6,29.6,15.2c1.9,2.1,3.6,3.6,5.1,4.2c9.6,1.6,7.4,10.1-8.5,21c-9.7,9.3-17.8,13.2-24.2,12l-4.6-6.2
	c-15.4,20.3-52.5,23.6-61.1,46c2.3,0.2,5.4-1.2,9.6-4.2C286.4,244.3,283.1,252.8,285,262.6z"/>
<path class="st17" d="M408.6,176.4c0.9,4-0.2,7.4-3.1,10.2c-9.6,8.9-21.5,8.6-30.3,3.1c5.1-3.2,9.4-7,12.6-11.9
	c2.5-2.1,2.4-4.7-0.2-7.8h-7l-2-5.6C399.7,153.1,412.4,162.3,408.6,176.4z"/>
<path class="st15" d="M336.1,155c5.9-0.5,10.6-7.4,20.3-6.1c7.9,2.3,9.9,15,22.3,15.7c4.6,0.9,6.9,3.6,9,5.6l-4.2,3.7
	c-11.1,7.1-20.2,11.5-35.5,8.8c-27.7-7-28.8-29.8-21.7-27.8L336.1,155z"/>
<path class="st18" d="M359.2,181.2c-10.4-0.2-30.8-9.1-35-19.3C326.6,176,346.1,183.1,359.2,181.2z"/>
<path class="st7" d="M394,159.4c-5.4,0.5-10.5,2.2-15.4,5.1l-4.7-0.6l-4.2-2.5c2.5-14.6,10.7-25.3,18.1-28.1
	C393.5,135,396.7,145.5,394,159.4z"/>
<path class="st7" d="M356.4,148.9l-3.7-0.6l-3.6,1.1l-8.1-4.1l3-9.9c5.9-8.1,9.9-12,14.3-11.8C362.5,127,362.3,138.3,356.4,148.9z"
	/>
<path class="st19" d="M352.6,148.3l-3.6,1.1l-3.8-2.8l-4.3-1.4c1.4-8.5,4.1-13.3,7.8-15.7C357.1,125.9,358.3,139,352.6,148.3z"/>
<path class="st13" d="M349,257c-22-37.3,41.4-52.1,56.4-70.3c2.6-3.5,3.6-5.3,3-10.7l0.8-4.6c10.3-14.6,4.5-42.8-7.4-53.4
	c22.7,10.7,25.9,40.1,17.9,56.9C403.6,206.8,345.2,220.1,349,257z M420.8,299.4c8-3.3,20.3-9.8,24.8-12.7
	c-6.4,47.1-22.4,70.7-45.8,77.9l-19.3,2.7c-38.2,4.7-77.1-29.3-88.2-60.2c11.9,23.3,43.9,13.7,47.6-15c12,26.1,26.4,27.7,41.2,25.8
	c-9.8,0.4-17.4-3.7-22.7-12.2C373.7,325.2,396.7,319.9,420.8,299.4z"/>
<path class="st20" d="M340.9,145.2c5.4-32.4,46.3-40,63.9-25.1c19.6,9.7,31.7,49.4-1,73.3"/>
<path class="st20" d="M405.8,114.3c0.3,1.9-0.1,4.3-1,5.8"/>
<path class="st16" d="M358.6,381.8c8.3,1,17.1-1.9,23.6-7.6c-0.6-5.3,1-11-4.9-17.2c7,1.9,10.3,1.6,15.6,0
	c11.6,16.8,12.3,48.6-2.7,57.1c-7.8,5.9-14,2.5-14-1.9c0.2-4.3-0.5-7.6-7.7-5.1c-5.7,3-13.1,1.3-7.6-8.1c2.4-3.7,3.2-8-3.6-7.9
	C350.1,389.8,353.4,381.4,358.6,381.8z"/>
<path class="st20" d="M415.5,120.1c-3.2,1.1-5.7,3.2-6.8,5.7"/>
<path class="st17" d="M332.2,155c5.6,0.1,11.2-1.8,16.9-5.6C343.1,143,331.1,143.7,332.2,155z"/>
<path class="st20" d="M403.6,170.9c6.4,2.8,7,9.1,1.9,15.8"/>
<path class="st20" d="M349,149.4c-6-6.4-18-5.6-16.9,5.6"/>
<path class="st21" d="M383.8,168.7c5.4-0.1,7.4,6.3,4.1,9.1"/>
<path class="st19" d="M385,161.6c-5.1,3.7-10.2,3.6-15.2-0.3l5.5-16.4C384.3,135.3,394.5,147.1,385,161.6z"/>
<path class="st20" d="M369.8,161.4c2.5-14.6,10.5-27.6,18.1-28.1c6.4,0.5,8.8,12,6.1,26.1"/>
<path class="st20" d="M344,135.3c4.8-7.7,9.9-12,14.3-11.8c4.2,3.4,4.1,14.8-1.9,25.3"/>
<circle class="st22" cx="348.4" cy="139.5" r="4.6"/>
<circle class="st7" cx="351.2" cy="138.1" r="2.2"/>
<circle class="st22" cx="379.6" cy="151.5" r="5.2"/>
<circle class="st7" cx="382.8" cy="149.9" r="2.6"/>
<path class="st20" d="M346.5,195.5c-15.4,20.3-52.4,23.6-61.1,46c2.3,0.2,5.4-1.2,9.6-4.2c-8.5,7.1-11.8,15.6-9.9,25.5"/>
<path class="st7" d="M244.7,158.6l17.5,1.2c-3-9.7-7-18.2-14.8-22.6C240,136.6,238.2,143.2,244.7,158.6z"/>
<path class="st17" d="M264.5,198.7l-1.2-10.8c4.9-2.7,8.8-6.3,11.7-10.8C278.4,184.5,277.1,192.1,264.5,198.7z"/>
<path class="st20" d="M379.5,234c12.5-19.8,58.2-10.6,99-48.8c5.5,2.9,0.8,24.8-31.2,53.8"/>
<path class="st20" d="M467.9,216.9c13.1-8.3,19.4-10.9,21.2-9.8c0,8.5-10.1,26.4-28.5,41.5"/>
<path class="st20" d="M274.9,177.1c3.5,7.4,2.2,14.9-10.4,21.6"/>
<path class="st17" d="M358.2,305.8c-9.6-13.4-14-29.1-9.2-48.9l-0.1-2.2c11.5,1.4,19.3,0.4,24.6-2.3l6.7-3.6l-0.8-1.4l-4.3-2.2
	l9.5-1.7l6.2-3.3l-7.7-3.6c4.9-3.5,11.2-6.3,16.3-6.8c15-1.5,11.4,11.4-2.3,24.4c29.5-8.1,34.6-0.3,24.2,14.3c11,2,15,9.9-0.4,30.8
	C400,319.2,371.7,325.8,358.2,305.8z"/>
<path class="st20" d="M441.7,258.1c20.8-11,36.1-17.6,38.9-14.5c2.4,7-19.7,41.3-59.7,55.8"/>
<path class="st20" d="M402.1,228c15-1.5,17.2,9,3.5,22c26.7-5.5,28.7,2.7,19.5,17c11,2,11.2,11.7-4.2,32.6
	c-20.9,19.8-49.2,26.4-62.6,6.4"/>
<path class="st20" d="M452,282.1c-2.9,36.2-18.7,72.5-54.9,83.4"/>
<path class="st7" d="M235.7,164.3l-5.8,13.2h-14.1c-5-12.6-5.7-26.4,0.8-30.8C221.3,144.2,229.5,151.7,235.7,164.3z"/>
<path class="st19" d="M223.8,176.8l6.1,0.7l5.8-13.2l-7.8-11.1C218.2,152.6,216.2,162.9,223.8,176.8z"/>
<path class="st12" d="M207.2,137.8l1.1-6.1l-4.2,4.6l-2.9,5.5c-15.7,14.9-15.8,37.1-4.4,54.5c1.7-9.8,7.7-16.3,19-18.8
	c-11.2-36.1,6.4-40.9,19.9-13.2c2.4-3.7,5.4-5.6,9-5.7c-6-13.8-6.1-21.8,2.7-21.4C234.9,128.9,220.2,129,207.2,137.8z"/>
<path class="st21" d="M392.9,357.2c11.8,20,11.3,44.5-0.3,55.1c-8.7,8.1-16.5,6.1-16.6-1.7c0.3-3.9-3.1-5.3-7.5-3.2
	c-7.9,3.8-11.9-1.5-8.1-7.1c3.2-5.9,2-8.6-2-8.8c-6.7-0.4-6.8-9.5,0.2-9.6c9,0.3,17.1-1.9,23.6-7.6"/>
<path class="st21" d="M320.6,346.4c-2.5,6.4-9.7,7.5-16.5,7.6c-7.9-1-7.2,8.5-0.6,8.7c6.5,0.4,6.9,4,5,7.4c-3.5,4.9,0.5,9.9,7.4,7.3
	c4.6-1.7,7.5-1.4,8.7,1.5c3,10.5,20,3.4,19-17.8"/>
<path class="st23" d="M260.1,189.9c-8.7,3.2-17.6,3.6-26.7,1.1C252.9,208,262.3,214.5,260.1,189.9z"/>
<path class="st21" d="M233.4,191.1c19.5,16.9,28.9,23.4,26.7-1.1"/>
<path class="st20" d="M248.7,209.4c10,17.2,26.9,27.8,35.8,47.2"/>
<path class="st20" d="M208.5,140.2c-1.9-2.1-1.9-4.9-0.2-8.5c-2.9,2.6-5.4,5.7-7.1,10.1"/>
<path class="st17" d="M202.2,210.7c8.8,13.9,38,2.7,36.3-8.5c-6.7-5.6-14.3-2.2-18.9-6.1c-2.3-2.3-2.3-5,0.2-8.1l8.7-5.5l0.5-5.3
	C200.8,173.5,189.6,195.8,202.2,210.7z"/>
<path class="st20" d="M198.4,136.9c-1.6,4.5-0.2,8.5,1.7,11.3"/>
<path class="st13" d="M196.8,196.3c1.1-5.9,2.9-10.6,6.3-12.6c-7.1-6.4-12.7-26.7-1.9-42C188.7,153.7,183.3,176.3,196.8,196.3z"/>
<path class="st20" d="M201.2,141.8c-12.5,11.9-17.9,34.6-4.4,54.5"/>
<path class="st20" d="M229,177.2c-28.2-3.6-39.5,18.6-26.8,33.5"/>
<path class="st20" d="M202.5,204.8c-5.4,12.6,18.1,17,30.2,6.9"/>
<path class="st20" d="M219.8,188c-2.6,2.2-2.5,6.3-0.2,8.1"/>
<path class="st24" d="M243.9,171.4c1.7,0,3.1-1.4,3.1-3.1c0-1.7-1.4-3.1-3.1-3.1c-1.7,0-3.1,1.4-3.1,3.1
	C240.8,170,242.2,171.4,243.9,171.4z"/>
<path class="st20" d="M215.8,177.5c-5-12.6-5.7-26.4,0.8-30.8c4.8-2.5,13,5,19.1,17.6"/>
<path class="st20" d="M247.4,137.3c-7.4-0.7-9.1,5.8-2.7,21.4"/>
<path class="st19" d="M249.4,158.8l12.7,1.1c-1.8-7.9-4.5-13.5-8.3-17C248.4,140.3,244,148,249.4,158.8z"/>
<path class="st22" d="M253.9,155.8c2.4,0,4.4-2,4.4-4.4c0-2.4-2-4.4-4.4-4.4c-2.4,0-4.4,2-4.4,4.4
	C249.4,153.9,251.4,155.8,253.9,155.8z"/>
<path class="st7" d="M251.5,155.8c1.1,0,2.1-0.9,2.1-2.1c0-1.1-0.9-2.1-2.1-2.1c-1.1,0-2.1,0.9-2.1,2.1
	C249.4,154.9,250.4,155.8,251.5,155.8z"/>
<path class="st22" d="M226.8,168.7c2.7,0,5-2.2,5-5c0-2.7-2.2-5-5-5c-2.7,0-5,2.2-5,5C221.8,166.5,224,168.7,226.8,168.7z"/>
<path class="st7" d="M224.1,168.7c1.3,0,2.3-1,2.3-2.3c0-1.3-1-2.3-2.3-2.3c-1.3,0-2.3,1-2.3,2.3
	C221.8,167.7,222.8,168.7,224.1,168.7z"/>
<path class="st20" d="M218.1,217.2c16,22.9,20.1,40.3,12.3,52.3c-19.7-10.8-36.8,7.4-53.4,7.8c-7.9-1-16-6.9-24.9-23.8
	c-0.3,8.3,1.2,18.3,9.3,28.2"/>
<path class="st20" d="M152.5,261.7l-3.4-3.7c-10.5,29.7-6.3,56.5,8.9,75.3"/>
<path class="st17" d="M218.9,339.6c20.5-1,45.9-10.4,21.5-50.9c-19.6-31.6-48.8,14.9-70.5,7.1C171.8,325.4,195.3,342.2,218.9,339.6z
	"/>
<path class="st20" d="M169.9,295.7c1.9,29.6,25.5,46.5,49,43.8"/>
<path class="st20" d="M240.4,288.7c14.1,21.5,11.5,36.5,5.6,45.7c-18.2,22.4-52.2,10.2-72.3,50.4c-4.9-6.8-4.2-26.2,20.4-49.4"/>
<path class="st20" d="M171.4,373.3c-9.9-9.7-12.8-23.1,9.1-49.6"/>
<path class="st16" d="M204.9,384c-0.9-5.1-0.6-10.6,0.8-16.4l-9.6-4.2c-5.3,8-7.9,15.2-8.6,21.9c-8.6,10.9-11,20.7-10,27.8
	c1.6,6.7,8,7.6,12.6,3.7c3.2-3.7,8.4-2.4,11.9,0.2c4.5,3.6,10.4,1.1,10.9-4.3c-0.3-4.7,1.2-8,7-8.2c9.8-0.7,11-9.7,5-11.8
	C216,390.2,210.4,389.3,204.9,384z"/>
<path class="st20" d="M164.1,354.5c-9.5-11-10.1-24.4,9.1-43.3"/>
<path class="st16" d="M255.9,367.1c-8.5,4.9-15.8,7.1-25.5,8.2c3,9.4,20.1,22.6,26.7,15.9c2.6-2.7,5.2-4.1,8.2-4
	c5.8,0.7,9.1-0.8,9.9-4.7c0.4-3.4,5.1-4.7,4.3-7.8C279.1,371.1,274.6,366.2,255.9,367.1z"/>
<line class="st20" x1="192.6" y1="369.8" x2="186.6" y2="366.8"/>
<path class="st21" d="M196.1,363.5c-12.2,20.9-10.7,29.8,0.2,30.5"/>
<path class="st21" d="M187.6,385.3c-8.6,10.9-11,20.7-10,27.8c1.6,6.7,8,7.6,12.6,3.7c3.2-3.7,8.4-2.4,11.9,0.2
	c4.5,3.6,10.4,1.1,10.9-4.3c-0.3-4.7,1.2-8,7-8.2c9.8-0.7,11-9.7,5-11.8c-8.8-2.4-17-5.5-22.5-10.9"/>
<path class="st21" d="M230.4,375.3c3,9.4,20.1,22.6,26.7,15.9c2.6-2.7,5.2-4.1,8.2-4c5.8,0.7,9.1-0.8,9.9-4.7
	c0.4-3.4,5.1-4.7,4.3-7.8c-0.4-3.6-6.8-8.6-23.6-7.6"/>
<path class="st21" d="M251.8,384.4c4.5-4.1,11.3-7.6,16.9-8.4"/>
<path class="st20" d="M260.2,296.3c4.1,3.4,8.4,1.2,8-3"/>
<path class="st20" d="M303.7,261.2c0.1,7.1,4.3,7,6.9,3.8"/>
<path class="st20" d="M287.1,267.2c-0.4,7.1,5.5,9.4,7.4,5.3"/>
<path class="st20" d="M269.9,288.7c3.5,4.9,9.9,2.5,9.6-3.7"/>
<path class="st20" d="M267.7,305.5c2.9,3.9,6,2.1,5.9-0.7"/>
<path class="st20" d="M302.4,281.6c-2.9,3.9-6,2.1-5.9-0.7"/>
<path class="st9" d="M279.6,105.6c-0.5-7.6,9.6-7.1,15.4-7.5l0.9-0.1l0.1,0.9C294.1,103.1,283.9,107.4,279.6,105.6z M217.2,56.4
	c-1.4-4.3,3.5-17.7,6.5-14.4C228.3,47.1,220.5,56.6,217.2,56.4z M272.4,105.2c-6.7-2.3-6.5-8.9-9.4-14.6c0,0-1.5-1.1-0.4-1.1
	C272.1,89.5,274.6,98.7,272.4,105.2z M278.3,95.8c-1.7-6.9,3-6.9,8.3-9.6C288,85.6,286.1,97.3,278.3,95.8z M211.8,63.7
	c-7.6,0-6.4-10.1-6.4-15.8v-0.9h0.9C210.3,49.1,213.8,59.5,211.8,63.7z"/>
<path class="st20" d="M267.3,232.5c17.7-19.8,40.6-27.1,63-23.7"/>
<path class="st23" d="M347.9,182.5c12.7,2.9,24.5-0.7,35.5-8.8c-14.1,13.9-25.9,24.2-30.7,23.1C350.5,195.9,348.6,191.3,347.9,182.5
	z"/>
<path class="st20" d="M380.5,367.4c-37.6,6.8-102.3-38.5-95.5-104.7"/>
<path class="st21" d="M377.3,357.1c5.1,8.6,5.7,18,4.3,27.6"/>
<path class="st20" d="M371.3,353.6c7.9,7.3,21,5.7,36.5-2.1"/>
<path class="st21" d="M378.7,164.5c-13.6,1-16.8-21.4-29.6-15.2c-7.2,5-14.7,7.2-22.9,5.4c-5.4-1-7.2,12.9,8,22.2
	c14.1,9.5,34,8.5,49.3-3.1c-14.1,13.9-25.9,24.2-30.7,23.1c-2.2-1-4.2-5.6-4.9-14.4"/>
<path class="st21" d="M343.8,181.5c0.5,10.8,3.2,17.1,7.2,20.2c4.3,1.8,14.8-2.2,24.2-12"/>
<path class="st24" d="M355.4,161.1c1.7,0,3.1-1.4,3.1-3.1c0-1.7-1.4-3.1-3.1-3.1c-1.7,0-3.1,1.4-3.1,3.1
	C352.3,159.7,353.7,161.1,355.4,161.1z"/>
<path class="st17" d="M394.7,118.3c-9.4-2.4-18.9-2-30,0.8C375.1,112.7,385.1,112.8,394.7,118.3z"/>
<path class="st17" d="M241,136.6c-9-2.3-18-1.9-28.5,0.8C222.4,131.3,231.9,131.4,241,136.6z"/>
<path class="st17" d="M297.8,230.4c6.9-9.9,32-15.2,39.8-23.5C330.6,218.1,305.5,223.9,297.8,230.4z"/>
<path class="st12" d="M348.9,254.8c0.3-8.9,3.6-19.7,17.4-32.6c8.2,6.1,15.6,16.4,24.5,18.2c-3.5,3.1-9.4,4.5-17.7,4.2l4.7,2.1
	l2.4,2.2C373,254.5,362.6,256.5,348.9,254.8z"/>
<path class="st17" d="M422.1,217.9c14.6-2.8,32.9-12,43.1-18.9C457.2,209.3,432.3,221.1,422.1,217.9z"/>
<path class="st17" d="M224.3,345.3c-14.4,4.2-32.3,10.9-40.8,21.3C191.1,351.3,214.2,342.1,224.3,345.3z"/>
<path class="st20" d="M366.3,222.2c8.2,6.1,15.6,16.4,24.5,18.2c-4.7,5.2-17.8,5.6-39.4,1.4"/>
<path class="st20" d="M373.1,244.6c3.1,0.8,7.5,2.9,7.1,4.3c-9.1,6.1-19.7,7.6-31.2,5.9"/>
<path class="st20" d="M402.8,179.8c4.7,7,3.4,13.2-3.9,18.7c-16.3,13.9-52,28.1-49.9,58.4"/>
<path class="st25" d="M408.2,301.9c-21.8,13.1-41.3,6.9-53.4-11.9C361.3,313.5,385.7,320.6,408.2,301.9z"/>
<path class="st25" d="M204.6,289.1c16.2-5.8,26.8-4.5,34.8,7.8C235.2,281.5,219.3,276.9,204.6,289.1z"/>
<path class="st26" d="M390.6,409.1c4.8-8.5,6.9-17.7,7.1-29.2C401.2,391.6,398.5,401.2,390.6,409.1z"/>
<path class="st26" d="M192.6,411.2c-11.8,1.8-13.2-2.7-7.1-19.1C175.4,408.5,178.3,420.4,192.6,411.2z"/>
<path class="st12" d="M375.7,364c-9.3-1.6-35-4.8-50.7-21.6C334.8,357.9,363.6,368.9,375.7,364z"/>
<path class="st12" d="M218.8,371.7c7.3,1.5,33.8-2.8,46.3-17.4C257.5,369.2,230.9,376.7,218.8,371.7z"/>
<path class="st20" d="M293.8,312.2c-14.8,50.7-49.4,71.2-88.9,60.7"/>
<path class="st21" d="M205.7,367.6c-1.3,3.6-1.3,9.6-0.8,16.4"/>
<path class="st20" d="M210.7,368.1c-6.6-0.1-12.5-2-17.1-7"/>
<path class="st20" d="M378.7,164.5c21.1-11.4,33.8-2.1,30,11.9"/>
<path class="st20" d="M262.1,159.9c-4.1-23.8-32.4-37.6-54.8-22.2"/>
<path class="st21" d="M228.5,182.5c3.1-12.7,7.4-22,14.3-23.7c11.6-1.4,16.4,5.6,30.4-2.5c7.6-6.1,11,8.2,1,22.1
	c-10,14.3-30.9,18-46.1,10.6"/>
<path class="st18" d="M253.8,189.3c8.2-3,22.1-15.5,22.7-24.9C278.4,176.3,264.7,187.3,253.8,189.3z"/>
<path class="st21" d="M229.9,186.5c-1.9,1.2-2.5,3-1.8,5.6"/>
<path class="st21" d="M238.4,202.2c19.5,16.5,29.2,11.2,25.2-13.1"/>
<path class="st20" d="M217.7,143.2c-6-0.3-9.3,5.8-8.4,11.8"/>
<path class="st20" d="M384.4,130.9c3.8-2.4,9.2-1.9,10.5,3.3"/>
<path class="st27" d="M353.3,185.5c1.4,0.6,2.4,1.8,2.5,3.5c0.5-1.1,1.8-1.9,6.1-3"/>
<path class="st27" d="M256,194c-1.3,0.8-2.1,2.1-2,3.8c-0.7-1-2.2-1.9-6.4-2.2"/>
<line class="st28" x1="154" y1="87.9" x2="154" y2="192.3"/>
<polyline class="st28" points="118.7,10.1 28.6,114.1 174.9,114.1 "/>
<rect x="47.7" y="198.3" class="st29" width="4.1" height="14.1"/>
<rect x="107.2" y="198.3" class="st29" width="4.1" height="14.1"/>
<rect x="41.9" y="193.6" class="st29" width="75" height="6.5"/>
<path class="st30" d="M66.2,195.5c-6,0.7-10.3-2.9-9.8-18.3l15.7-6.7l10.3,3l1.5,8.9c5.5,4,8.1,8.4,7.9,13.2l0.5,13.1
	c-2.1,2.5-15.8,4-24.9,2C65.5,204.9,65.4,199.3,66.2,195.5z"/>
<path class="st31" d="M87.8,175.2l-3.9-3.2l-3.1,3.2c-1.5,3.5-3.8,6.9-6.1,9.2c-6.2,2,0.3,6,3.3,4C82,186.1,85.2,180.7,87.8,175.2z"
	/>
<path class="st31" d="M58.8,176.1l9.2-0.5c2.5,4.1,5.5,6.9,8.8,9.4c8.1,1.4,4,9.6-3.5,3.3C67.9,186.4,63,182.6,58.8,176.1z"/>
<path class="st32" d="M63.9,156.9l18.7,0.6c3.8,3.2,5.1,9.7,5.2,17.7c-11.1-0.2-21.9,0-31.4,2C56.2,166.6,58.4,159.3,63.9,156.9z"/>
<path class="st31" d="M65.4,150.8L75.5,139c5.3,6.6,10.2,23.1-2.8,23.1C67.3,162.2,63.9,156.9,65.4,150.8z"/>
<path class="st7" d="M73.4,137.6c13.4,11.2,13.7,19.1,1.8,25.2c2,0.5,5.8,3.9,5.1,7.7c-1.8,0.3-6.4-2.5-7-5.2
	c-1.2,3.7-5.9,7.8-8.4,7.9c-0.8-3.4,1.4-8.2,6.1-9.9l0.9-1.1c10.2,0.3,9.9-10.1,2.6-17.8c-10.1,7.3-9.9,15.9-2.6,17.8l-0.9,1.1
	C57.9,159,59.6,147.3,73.4,137.6z"/>
<path class="st33" d="M67.4,151.4c7.3-21.3,19.1,9.7,7-2.1C72.3,152.3,66.6,154.1,67.4,151.4z"/>
<path class="st5" d="M89.3,210.2l-9.8,0.9C78.4,219,86.2,221.2,89.3,210.2z"/>
<path class="st5" d="M69.6,211.2h10C82,219.8,74.1,222.5,69.6,211.2z"/>
</svg>
