<?xml version="1.0" encoding="utf-8"?>
<!-- Generator: Adobe Illustrator 21.1.0, SVG Export Plug-In . SVG Version: 6.00 Build 0)  -->
<svg version="1.1" id="Layer_1" xmlns="http://www.w3.org/2000/svg" xmlns:xlink="http://www.w3.org/1999/xlink" x="0px" y="0px"
	 viewBox="0 0 479 422" style="enable-background:new 0 0 479 422;" xml:space="preserve">
<style type="text/css">
	.st0{fill-rule:evenodd;clip-rule:evenodd;fill:#25B34B;}
	.st1{fill-rule:evenodd;clip-rule:evenodd;fill:#008D49;}
	.st2{fill-rule:evenodd;clip-rule:evenodd;fill:#FFFFFF;}
	.st3{fill-rule:evenodd;clip-rule:evenodd;fill:#C7EAFB;}
	.st4{fill-rule:evenodd;clip-rule:evenodd;fill:#F18A2E;}
	.st5{fill-rule:evenodd;clip-rule:evenodd;fill:#9ACA3C;}
	.st6{fill-rule:evenodd;clip-rule:evenodd;fill:#F8ABAD;}
	.st7{fill:none;stroke:#0A5737;stroke-width:1.7004;stroke-linecap:round;stroke-linejoin:round;stroke-miterlimit:22.9256;}
	.st8{fill-rule:evenodd;clip-rule:evenodd;fill:#F9A57B;}
	.st9{fill-rule:evenodd;clip-rule:evenodd;fill:#FAA74A;}
	.st10{fill:none;stroke:#A82E31;stroke-width:1.7004;stroke-linecap:round;stroke-linejoin:round;stroke-miterlimit:22.9256;}
	.st11{fill-rule:evenodd;clip-rule:evenodd;fill:#A82E31;}
	.st12{fill-rule:evenodd;clip-rule:evenodd;}
	.st13{fill-rule:evenodd;clip-rule:evenodd;fill:#CCD745;}
	.st14{fill-rule:evenodd;clip-rule:evenodd;fill:#FDCEAE;}
	.st15{fill:none;stroke:#E8827E;stroke-width:1.7004;stroke-linecap:round;stroke-linejoin:round;stroke-miterlimit:22.9256;}
	.st16{fill-rule:evenodd;clip-rule:evenodd;fill:#FED1A2;}
</style>
<path class="st0" d="M227,236.6c41.6-20.6,69.9,15.9,64.5,43.7l4.2,3.5l2,3.9c3.8,5.3,1.6,10.5-3.4,15.8l-46.7,22.4
	c-19.3,5.2-41.4-5.4-37.6-19.7l-3.4,3.6c-14.1-17.8-16-42.5-23.9-63.7c-18.9,37-48.4,53.5-88.4,49.6l3.6-6.3
	c-5.1-0.6-9.6-1.7-13.1-7l-6.3,9.6c-19.5-7.8-36-19.8-48.1-38c-7.9,0.6-12.7-4.4-5.2-8.5L19,232.2c-9.8-1.5-15.7-5.3-17.7-11.4
	l2.9-3l10.4-3.8c-5.3-21.7-4.1-44.5,6.9-68.9l2.4-10.5c6.9,23.3,25.2,32,50,33.2c18.5-10.5,31.5-14.4,55.4-2.4
	c15.7-5.9,28-6.2,42.6,0.8C195.3,178.4,204.1,218.8,227,236.6z"/>
<path class="st1" d="M205.3,255.5c-0.9-2.5,0.2-7.2,3.3-14l-0.1,8.2c1.3-6.2,4.2-11.1,8.8-14.5l2.3,11c7.4-9.6,24.7-16.4,35.5-8.5
	c-30.9,3.9-41.3,27.4-37.7,48c-7.8,5.2-11.4,13.3-10.8,24.2c-14.1-17.8-16-42.5-23.9-63.7c-18.9,37-48.4,53.5-88.4,49.6l3.6-6.3
	c-5.1-0.6-9.6-1.7-13.1-7l-6.3,9.6c-19.5-7.8-36-19.8-48.1-38c-7.9,0.6-12.7-4.4-5.2-8.5L19,232.3c-9.8-1.5-15.7-5.3-17.7-11.4
	l2.9-3l10.4-3.8c-5.3-21.7-4.1-44.5,6.9-68.9c-10.3,68.3,21.5,105.5,82.1,121.5c12.7-5.5,28.6-8.8,48.5-41.1l-8.6-38.6
	C185.9,165.7,171.2,228.9,205.3,255.5z"/>
<path class="st2" d="M286.9,281.2l-6.6,4.2l-13-3.3c0.2-13.9,1.7-24.5,5.4-26.3C278.5,254.8,285.2,266.6,286.9,281.2z"/>
<path class="st2" d="M254.3,290.7c-3.6,2.2-7.7,3-12.4,2.5c-3.3-5.3-9.1-7.9-16.1-9.3c5.6-12.9,12.4-25.3,20.5-27.1
	C252.6,255.5,255.3,269.6,254.3,290.7z"/>
<path class="st3" d="M232.9,285.6l5.2,3.3l3.7,4.3l6.4-0.2l6-2.3l-0.2-18.8C250.1,262,238.6,267.9,232.9,285.6z"/>
<path class="st3" d="M271.6,281.8l4.4,1l4.3,2.7l6.6-4.2l-2.9-12.5C276,261,272.7,268,271.6,281.8z"/>
<path class="st4" d="M258,337.3c3.5,1.5,8.7-2.3,15.6-11.5l-25.2-23.7l-13.5,0.5l1.5,5.5l2.2,1C245.1,318.5,248.5,334,258,337.3z"/>
<path class="st5" d="M245.3,321.8l-6.6-12.8l-4.4-2.1l7.6-13.8c-9.1-11.7-18.4-9.6-24.4-7.5C206.7,305.3,223.5,324.5,245.3,321.8z"
	/>
<path class="st5" d="M297.6,287.6c3.5,5.6,1.3,10.8-3.4,15.8c-8.9-4.7-9.3-12-13.9-18C286.2,279.1,295.1,279,297.6,287.6z"/>
<path class="st0" d="M52.6,236.2c-49.2,11.3-39.1,24.3,20.1,14.2c-36.8,16.5-3.2,28.9,36.7,13.9c8.9-3.6,17.5-9.3,26-17.2
	l-60.9-54.6c-13.2,14-74.3,21-73.4,28.3C1.5,228.8,21.1,235.4,52.6,236.2z"/>
<path class="st6" d="M243.7,307c7.7,10.8,16,16.6,24.9,18.3l-4.8,5.9l-4,2C253.8,328.4,248.5,319,243.7,307z"/>
<path class="st7" d="M74.5,192.6c-13.2,14-74.3,21-73.4,28.3c0.3,8,19.9,14.6,51.6,15.4 M68.9,232.5c-30.2,5.9-50.3,13.3-47.6,18.2
	c2.1,5,20.7,4.3,51.4-0.4"/>
<path class="st8" d="M91,304.4c0.7-5.1,3.3-10.1,6.9-15c-4.1,0.2-8.5-2.2-13.1-7c-11.1,14.8-13.3,26.4-9.5,35.9
	c2.8,9.3,2,22.4,7.1,27.9c4.2,5.1,8.3,1.5,9.9-1.2c2-3.2,6-2.7,10.3-1.6c5.9,1.9,10.7-0.3,10.7-6.5c-0.3-4,1.6-6.2,4-7.7
	c2.8-2.2,4.3-8-1.2-13.4C111.1,310.7,98.1,310.9,91,304.4z"/>
<path class="st5" d="M135.4,247c7.2-4.8,14.9-16.1,21.2-31.1c15.3-38.8-53.3-38.5-82.1-23.5c-8.3,9.4-7.7,32,13.5,31.6
	c-6.1,6.2-0.5,15,16.7,15.4C99.1,253,115.8,261.2,135.4,247z"/>
<path class="st9" d="M238.6,309c-2.2-0.7-0.5-5.7,2.2-4.9l2.2,1.3c15.8,24.5,37.5,25.7,53.4,7.5c3-2.9,3.8-8.1-2.2-9.6
	c-9.1-4.1-8.7-12.2-13.9-18c-6.3-5.7-15.8-3.9-19.4-0.1c-6.4,6.2-11.1,8.7-19.1,7.8C231.5,291.5,226.8,306.4,238.6,309z"/>
<path class="st8" d="M150.7,283.6c-8.2,6.1-18.1,10.4-30.6,12.1c2.3,21.7,10.8,24.7,13.7,18.1c2.7-4.2,6.3-5.7,10.9-4.7
	c8.2,2.1,12.3-0.7,12.1-6.4c-0.3-3.3,1.1-5.8,4-7.7C167.1,292.2,162.3,285.7,150.7,283.6z"/>
<path class="st10" d="M120.1,295.8c2.3,21.7,10.8,24.7,13.7,18.1c2.7-4.2,6.3-5.7,10.9-4.7c8.2,2.1,12.3-0.7,12.1-6.4
	c-0.3-3.3,1.1-5.8,4-7.7c6.3-2.9,1.5-9.4-10.1-11.5"/>
<path class="st10" d="M248.4,302.1c-1.6,2.4-5.3,3.4-7.6,2.1"/>
<path class="st10" d="M291.5,308.8c-5.2,0.6-10.9,3.7-14.9,7"/>
<path class="st11" d="M266.3,296.1c1.9,0,3.4-1.6,3.4-3.5c0-1.9-1.5-3.5-3.4-3.5s-3.4,1.6-3.4,3.5
	C262.9,294.5,264.5,296.1,266.3,296.1z"/>
<path class="st7" d="M243.8,252.6c-2.8-0.8-6.1,0.8-7.7,3.6"/>
<path class="st12" d="M247.3,291.4c2.8,0,5-2.3,5-5.1s-2.2-5.1-5-5.1c-2.8,0-5,2.3-5,5.1S244.5,291.4,247.3,291.4z"/>
<path class="st2" d="M244.7,286.2c1.4,0,2.5-1.1,2.5-2.5c0-1.4-1.1-2.5-2.5-2.5c-1.4,0-2.5,1.1-2.5,2.5
	C242.3,285.1,243.4,286.2,244.7,286.2z"/>
<path class="st12" d="M281.1,283.3c2.3,0,4.2-1.9,4.2-4.3c0-2.3-1.9-4.3-4.2-4.3s-4.2,1.9-4.2,4.3
	C276.9,281.4,278.8,283.3,281.1,283.3z"/>
<path class="st2" d="M279,279c1.1,0,2-0.9,2-2.1c0-1.2-0.9-2.1-2-2.1c-1.1,0-2,0.9-2,2.1C277,278.1,277.8,279,279,279z"/>
<path class="st13" d="M89.4,192.2c23.9-5.4,47.6-1.3,60.3,4.6C138.6,182.8,105.1,183.8,89.4,192.2z"/>
<path class="st14" d="M79.9,322.8c-2.3-9.5-1.9-19,0.9-30C74.5,303.2,74.5,313.2,79.9,322.8z"/>
<path class="st15" d="M257,324.6c1.5,0.3,2.8,1.2,3.3,2.8c0.5-1.1,2.1-2.5,3.7-3.5"/>
<path class="st16" d="M268.8,285.2c14-1.4,11.1,17.3,22.4,18.7C282.7,299.5,282.7,281.2,268.8,285.2z"/>
<path class="st7" d="M290,285.3c9.4-2.1,13.5,9.8,4.3,18.1 M280.3,285.4c5.9-6.4,14.8-6.4,17.3,2.2 M267.3,282.1
	c0.2-13.9,1.7-24.5,5.4-26.3c5.8-1,12.5,10.8,14.3,25.5 M225.7,283.9c5.6-12.9,12.4-25.3,20.5-27.1c6.5-1.2,9.2,12.9,8.1,33.9
	 M241.8,293.1c-9.1-14.1-35.5-14.8-35.2,16.7c3-3.5,4.5-5,7.6-6.3 M209.5,307.5c-2,12.3,20,23.7,37.2,18.8 M208.5,249.6
	c1.7-6.7,5.6-12,8.8-14.5c0.2,3.7,1.1,7.4,2.3,11 M206.2,260.1c-2-7.5-1.2-13.7,2.4-18.6c-0.8,4.8-0.2,10.3,1.6,16.2 M205.3,255.5
	c-3.8,5.9-5.3,13.2-4.5,21.7 M166.1,224.4c18.9-3.9,19.2,59.4,40.5,85.4 M94.3,295.7c34.2,4.9,65.6-7.8,88.4-49.6 M121.3,169.5
	c16.4-10.2,35.8-10.2,50.4-3.2c23.7,12.1,32.4,52.7,55.3,70.5 M30.3,254.1c11.8,17.4,28.7,31.8,48.1,38 M18.9,232.2
	c1.8,4.6,3.8,8.9,6.3,13.3 M21.4,145.2c-10.1,20.7-12.1,45.1-6.9,68.9 M73.7,167.9c-21.8-1-40.9-7.4-50-33.2
	c-4.1,11.7-3.4,22.9,2,33.6 M66.5,169.9c16.8-2.8,25.3-21.5,61.1-4.9 M81.6,246.7c-20.7,7.5-27.8,16.2-24.6,19
	c9.1,10.3,73.1,11.1,99.6-49.8 M74.5,192.6c-8.3,9.4-7.7,32,13.5,31.6c-6.1,6.2-0.5,15,16.7,15.4c-5.5,13.6,11.2,21.8,30.8,7.6
	 M218.9,242.7c29.6-27.1,77.3-7,72.6,37.6"/>
<path class="st10" d="M97.9,289.4c-7.7,9.8-9.9,20.8-2.3,27.4"/>
<path class="st10" d="M84.7,282.4c-11.1,14.8-13.3,26.4-9.5,35.9c2.8,9.3,2,22.4,7.1,27.9c4.2,5.1,8.3,1.5,9.9-1.2
	c2-3.2,6-2.7,10.3-1.6c5.9,1.9,10.7-0.3,10.7-6.5c-0.3-4,1.6-6.2,4-7.7c2.8-2.2,4.3-8-1.2-13.4c-5-5.2-18-5-25.2-11.5"/>
<path class="st7" d="M81.6,277.9c6.1,10.4,13.8,13.8,23,10.1"/>
<path class="st10" d="M268.6,325.2c-3.5,5.2-6.3,7.9-8.8,7.9c-4.4-1.9-9.9-11.2-16.8-27.7c15.8,24.5,37.5,25.7,53.4,7.5
	c3-2.9,3.8-8.1-2.2-9.6c-9.1-4.1-8.7-12.2-13.9-18c-6.3-5.7-15.8-3.9-19.4-0.1c-6.4,6.2-11.1,8.7-19.1,7.8
	c-10.3-1.7-15,13.2-3.2,15.9c17.2,34.5,20.5,34.4,35,16.7"/>
<path class="st5" d="M112.2,164.2c-9.6-1.5-19.1-0.2-29.8,3.7C92.1,160.4,102.1,159.6,112.2,164.2z"/>
<path class="st5" d="M190.4,191.7c-9.2-10.4-17.6-21.4-34-26.1C175.4,166.6,182.7,178.5,190.4,191.7z"/>
<path class="st0" d="M116.1,289.7c9.2-2.4,34.4-7.9,48.6-26C156.3,280,128.6,293.5,116.1,289.7z"/>
<path class="st5" d="M281.3,249.3c-6.5-7-14.5-11.7-25.2-15.1C268.2,234.2,276.3,239.5,281.3,249.3z"/>
</svg>
