<?xml version="1.0" encoding="utf-8"?>
<!-- Generator: Adobe Illustrator 21.1.0, SVG Export Plug-In . SVG Version: 6.00 Build 0)  -->
<svg version="1.1" id="Layer_1" xmlns="http://www.w3.org/2000/svg" xmlns:xlink="http://www.w3.org/1999/xlink" x="0px" y="0px"
	 viewBox="0 0 479 422" style="enable-background:new 0 0 479 422;" xml:space="preserve">
<style type="text/css">
	.st0{fill-rule:evenodd;clip-rule:evenodd;fill:#BB7446;}
	.st1{fill-rule:evenodd;clip-rule:evenodd;fill:#9665AA;}
	.st2{fill-rule:evenodd;clip-rule:evenodd;fill:#C7A9D0;}
	.st3{fill-rule:evenodd;clip-rule:evenodd;fill:#B28ABF;}
	.st4{fill-rule:evenodd;clip-rule:evenodd;fill:#FFFFFF;}
	.st5{fill-rule:evenodd;clip-rule:evenodd;fill:#CA6C38;}
	.st6{fill:none;stroke:#823436;stroke-width:1.7004;stroke-linecap:round;stroke-linejoin:round;stroke-miterlimit:22.9256;}
	.st7{fill-rule:evenodd;clip-rule:evenodd;}
	.st8{fill-rule:evenodd;clip-rule:evenodd;fill:#F7C68C;}
	.st9{fill:none;stroke:#B77136;stroke-width:1.7004;stroke-linecap:round;stroke-linejoin:round;stroke-miterlimit:22.9256;}
	.st10{fill-rule:evenodd;clip-rule:evenodd;fill:#E1966C;}
	.st11{fill:none;stroke:#6C3E81;stroke-width:1.7004;stroke-linecap:round;stroke-linejoin:round;stroke-miterlimit:22.9256;}
	.st12{fill-rule:evenodd;clip-rule:evenodd;fill:#A15437;}
	.st13{fill-rule:evenodd;clip-rule:evenodd;fill:#DACAE3;}
</style>
<path class="st0" d="M436.9,155.2l-29.8,15.9l-15.4-5.6l9.7-6.8c9.5-5.5,17.7-12.1,21.4-24.2C427.9,136.3,432.6,143.2,436.9,155.2z"
	/>
<path class="st1" d="M380.3,144.6c6.6,5.2,11,11.6,13.9,18.8l17.5-11.8c-5.7-30.6-16.8-41.4-19.3-26.7
	C389.2,134.8,385.2,141.4,380.3,144.6z"/>
<path class="st1" d="M401.2,262.3l-23.6-2.1C383.8,273.6,397,273.9,401.2,262.3z M438.9,239.6l-31.6,21.5
	C413.2,282.4,434.7,276.6,438.9,239.6z"/>
<path class="st2" d="M444.9,228.5l-71.8-14.2l-18.2,27.2C370.9,272.7,427.9,270.5,444.9,228.5z"/>
<path class="st3" d="M447.4,226.5c-19.9,13.7-40.4,10.5-61.5-6.8l21.3-49.1c13.1-18.3,43.4-9.8,62.9-39.9c4,6,5.1,15.4,4.9,26.2
	C483.7,178.8,471.8,210.9,447.4,226.5z"/>
<path class="st2" d="M337,224.4l-0.8-20.1l-15.3-7.8C317.7,214.3,322.9,218.8,337,224.4z"/>
<path class="st3" d="M394.2,163.4l-13.8,31.9l-50.5,13.1c-11.9-11.6-16.4-26-11.9-43.8l-3.8-2.8l-2.4-4.9l6.5,1.7l-2.2-5l9.9-0.4
	C347.4,129.7,383.2,133.3,394.2,163.4z"/>
<path class="st4" d="M344.2,190.5l-8,13.9l-2.5,0.6c-5.7-10.5-7.8-19.7-4.6-23.9C332,178.9,338.1,182.9,344.2,190.5z"/>
<path class="st5" d="M328.8,193.3l5,11.6l2.5-0.6l8-13.9l-1.7,1.5C333.1,180.9,327.7,186.9,328.8,193.3z"/>
<path class="st2" d="M379.8,220.9l0.8-36.1c2.3-12.3,11.8-21.7,20.9-26.2c-0.9,5.1-0.4,8.6,0.4,11.5c-0.7-3.1,2-6,4.7-6.7
	c-0.8,10.9,6.1,17,3.8,33.3C408.4,211.4,391.6,219.6,379.8,220.9z"/>
<path class="st3" d="M379.8,220.9c32.9-3.2,33.1-50.3,4.3-45.8c2.7-7.6,8.3-12,17.3-16.5c-0.9,5.1-0.4,8.6,0.4,11.5
	c-0.7-3.1,2-6,4.7-6.7c-0.8,10.9,6.1,17,3.8,33.3C408.4,211.4,391.6,219.6,379.8,220.9z"/>
<path class="st5" d="M335.3,218.1c-8.8-5.3-6.9-12.8,0.9-13.8c3.6-14.6,13-20.9,31.1-15.1c10.4-10.8,30.3-0.8,19.3,17.7
	c-2.9,18.3-26.8,29.3-40.1,41.3C341.9,240,337.7,228.1,335.3,218.1z"/>
<path class="st6" d="M376.1,197.1c1.8-2.5,5.9-2.5,7.2,0.2"/>
<path class="st6" d="M379.8,195.2c1.8,14.7-3.9,27.1-13.7,38.2"/>
<path class="st3" d="M435.5,151.4c-3.9-9.2-8.1-15.3-12.7-17l-2.9,7l-3.8,5.6c1-20.6-4.5-40.2-18-58.6l7.7,2.9l5.5,3.6
	c8.6-0.6,16.5-5.4,22.6-19.4C448.4,104.2,445.5,131.6,435.5,151.4z"/>
<path class="st1" d="M435.5,151.4l1.4,3.8c-11.1,3.2-21.1,8.1-29.6,15.5l-0.8-3.2v-3.9l-3.6,2.5l-1.4,3.1l-0.6-4.6l0.5-5.8l10.3-7.2
	l4.4-4.5c-0.1-12-1-18.8-5.5-35c5.1,5,11.7,21.2,16,21.4c10.5,3.5,13.8-18.7,15.4-35.6C445.1,126.6,442.1,137.2,435.5,151.4z"/>
<path class="st4" d="M375.7,185l-4.4,1.4l-3.9,2.9l-6.3-1.6l-6.4-0.5c-1.5-10.5-1.4-18.5,1.7-20.2
	C363.3,165.7,369.7,171.8,375.7,185z"/>
<path class="st5" d="M373.4,185.7l2.2-0.7l-8.4,4.3l-12.8-2.2l-0.5-4.6C353.8,172.3,365.3,168.4,373.4,185.7z"/>
<path class="st7" d="M335.2,200.2c2.5,0,4.6-2.1,4.6-4.6s-2.1-4.6-4.6-4.6c-2.5,0-4.6,2.1-4.6,4.6
	C330.6,198.2,332.6,200.2,335.2,200.2z"/>
<path class="st7" d="M364.6,189.1c2.8,0,5-2.2,5-5c0-2.8-2.2-5-5-5c-2.8,0-5,2.2-5,5C359.5,186.8,361.8,189.1,364.6,189.1z"/>
<path class="st4" d="M335.9,195c1.3,0,2.3-1,2.3-2.3c0-1.3-1-2.3-2.3-2.3c-1.3,0-2.3,1-2.3,2.3C333.6,194,334.7,195,335.9,195z"/>
<path class="st4" d="M365.4,183.4c1.4,0,2.5-1.1,2.5-2.5c0-1.4-1.1-2.5-2.5-2.5c-1.4,0-2.5,1.1-2.5,2.5
	C362.9,182.3,364,183.4,365.4,183.4z"/>
<path class="st8" d="M383.2,267.7c3.6,2.6,7.3,3.6,11.2,2.3c-0.1,5.6-1.4,11.4-3.9,17.3c9.1-0.2,12.2,1.3,9.3,4.5
	c-12.7,5.5-28.3,24.8-38.1,16.4c-5-0.3-6.2-5.4-3.9-7.3c-2.3-7.6,5.8-12,24.2-13.3C383.3,284.1,383.9,277.9,383.2,267.7z"/>
<path class="st9" d="M375.7,293.1c-9.2,1.5-16.2,5.2-18,7.7c-2.3-7.6,5.8-12,24.2-13.3c1.4-3.5,2-9.7,1.3-19.9"/>
<path class="st9" d="M394.4,270c0.1,7.9-3.9,18.4-6.6,23.2"/>
<path class="st8" d="M390.6,313.5c0.2,5.5,2.9,7.8,8.2,6.8c8.7,4,14.6-4.2,19.7-15.8l8.4-13.6c1.5-4.6-0.2-5.4-5.2-2.4l2-8.5
	l0.9-8.3l-5.8,1.7l-3.9-1c0.4,7.3-0.6,13.7-2.7,19.4C393,300.2,384.2,307.6,390.6,313.5z"/>
<path class="st9" d="M414.9,272.4c0.4,7.3-0.6,13.7-2.7,19.4c-19.2,8.4-28.1,15.9-21.6,21.8"/>
<path class="st9" d="M424.6,271.7c-0.4,8.2-2,15.2-4.5,21.3"/>
<path class="st9" d="M357.7,300.9c-3.1,3.5,0.9,7.7,3.9,7.3c1.2-2.7,7.7-6.7,19.4-12"/>
<path class="st9" d="M361.7,308.1c9.2,8.8,24.6-11.2,36.9-15.8c5.1-2.3,2.8-5.5-8.1-5.1"/>
<path class="st9" d="M405.6,299.3c-9.2,5.9-13.7,10.5-15,14.2c-1.1,4.6,4.2,8.6,8.2,6.8c0.8-5.3,8-12.8,12.8-19.1"/>
<path class="st9" d="M398.8,320.3c13.8,6.9,18.7-19.6,28.1-29.4c3-3.3,0-5.7-5.2-2.4"/>
<path class="st10" d="M362.7,191.5c-7.4-1.2-14.6,0-21.3,4.6C347.1,188.6,354.8,187.2,362.7,191.5z"/>
<path class="st10" d="M344.3,235.3c-3.1-8.5-5.6-17.2-6.7-27.2C334.8,217.2,338.9,227.8,344.3,235.3z"/>
<path class="st11" d="M377.6,260.2c6.2,13.4,19.4,13.7,23.6,2.1 M355,241.5c15.9,31.3,72.9,29,89.9-13 M386.5,253.6
	c3.1,3.6,7.3,2.3,8.5-0.9 M383,243.4c2.8,2,5.5,0.6,5.7-2.2 M373.2,249.9c3.1,3.6,7.3,2.3,8.5-0.9 M371,241.2
	c2.7,2.5,5.7,0.7,5.7-1.6 M407.3,261.1c5.9,21.3,27.4,15.5,31.6-21.5"/>
<path class="st12" d="M359.4,205c1.7,0,3.1-1.4,3.1-3.1c0-1.7-1.4-3.1-3.1-3.1s-3.1,1.4-3.1,3.1C356.4,203.6,357.7,205,359.4,205z"
	/>
<path class="st12" d="M345.2,208.1c1.5,0,2.7-1.2,2.7-2.7s-1.2-2.7-2.7-2.7s-2.7,1.2-2.7,2.7C342.4,206.9,343.7,208.1,345.2,208.1z"
	/>
<path class="st1" d="M456.3,209.2c-0.5-6.5-3.5-10-8.8-10.7c15.6-7.4,25.2-20.9,27.5-41.7C481.1,175.2,478.4,190.4,456.3,209.2z
	 M454.3,186.3c-0.1-4.4,0.6-14.9-12.1-16.5c7.3-7.6,21.4-23.1,26.3-36.8C474.7,150.8,471.2,172.4,454.3,186.3z M394.2,163.4
	c-4.5,2.8-7.9,6.7-10.1,11.8c-10.2-22.4-23.6-28.6-44.6-25.2C358.8,131.4,387.9,144.7,394.2,163.4z M407.1,171.1
	c6.8,20,4.1,34.2-8,42.6c42.2-0.4,56.4-37.2,36.3-42.2C441.7,155.4,419.2,158.8,407.1,171.1z"/>
<path class="st11" d="M322,165.4c-5.7-0.3-8.9-3.4-10.2-8.4c4.3,1.9,10.1,2.3,16.9,1.8 M318.3,158.6l-2.2-5
	c4.9,0.9,11.5-0.4,18.9-2.7 M407.6,232.7c47.1,12.2,59.3-32.8,39.9-34.2c13.4-11.4,5-30.1-5.3-28.8c1.5-5.2-1.2-12.2-10-13.1
	 M475,156.9c8.7,21.9-3.2,54-27.6,69.6 M470.1,130.8c10.4,15.8,5.7,55.3-22.6,67.9 M407.3,170.7c19.2-20,43-9.5,62.9-39.9
	c-8.2,15.8-17.4,29.2-27.9,39 M401.4,158.7c9.5-5.5,17.7-12.1,21.4-24.2c5.1,1.8,9.8,8.8,14.1,20.7 M411.3,95
	c8.6-0.6,16.5-5.4,22.6-19.4c14.5,28.7,11.6,56.1,1.6,75.9 M429.2,139.7c3.3-7.3,3.1-18.2-0.5-32.6 M422.8,134.5
	c-1-9-1.6-15.6-6-25.6 M416.1,147.1c1.4-20-5-39.4-18-58.6c6.8,1.4,13.5,5.7,20.3,13 M411.7,151.5c-2.4-19.4-10.7-32.7-15.8-33.6
	c-4,2.5-5.8,16.6-6.4,36 M392.4,124.9c-3.2,10-7.2,16.5-12,19.7 M325.9,153.2c21.5-23.5,57.2-19.9,68.2,10.2 M380.6,184.9
	c2.3-12.3,11.8-21.7,20.9-26.2c-0.9,5.1-0.4,8.6,0.4,11.5c-0.7-3.1,2-6,4.7-6.7c-0.8,10.9,6.1,17,3.8,33.3
	c-1.9,14.7-18.7,22.8-30.5,24.2 M318,164.6c-5,16.2,0,32.6,11.9,43.8"/>
<path class="st11" d="M333.7,205c-5.7-10.5-7.8-19.7-4.6-23.9c2.9-2.1,9.7,1.3,15,9.4 M324.9,178.9c1-1.7,2.7-3.3,4.2-3.5
	 M359.8,161.7c2.8-0.2,5.8,0.7,7.3,2.3 M354.5,187.2c-2.4-10.1-1.4-18.5,1.7-20.2c5.8-2.5,13.5,4.8,19.4,18.1 M320.9,196.6
	c-3.3,17.8,2,22.1,16.1,27.8"/>
<path class="st6" d="M335.3,218.1c-8.8-5.3-6.9-12.8,0.9-13.8c3.6-14.6,13-20.9,31.1-15.1c10.4-10.8,30.3-0.8,19.3,17.7
	c-2.9,18.3-26.8,29.3-40.1,41.3C341.9,240,337.7,228.1,335.3,218.1z"/>
<path class="st2" d="M323.9,194.7c-3.5-7.9-4.4-16.3-2.9-26.4C315.9,178.3,317.2,187,323.9,194.7z"/>
<path class="st13" d="M405,257.3c10.4-3.3,19.2-9.2,28-18.5C427,251,417.5,256.8,405,257.3z"/>
<path class="st3" d="M409.8,208.7c10.5-3,19.5-8.5,28.6-17.2C431.9,203.2,422.2,208.6,409.8,208.7z"/>
<path class="st2" d="M433.1,83.6c-3.7,6.7-9.7,11.8-17.1,12.8C422.4,102.1,432.5,91.9,433.1,83.6z"/>
</svg>
