<?xml version="1.0" encoding="utf-8"?>
<!-- Generator: Adobe Illustrator 21.1.0, SVG Export Plug-In . SVG Version: 6.00 Build 0)  -->
<svg version="1.1" id="Layer_1" xmlns="http://www.w3.org/2000/svg" xmlns:xlink="http://www.w3.org/1999/xlink" x="0px" y="0px"
	 viewBox="0 0 479 422" style="enable-background:new 0 0 479 422;" xml:space="preserve">
<style type="text/css">
	.st0{fill-rule:evenodd;clip-rule:evenodd;fill:#DBEAB4;}
	.st1{fill-rule:evenodd;clip-rule:evenodd;fill:#CAE197;}
	.st2{fill-rule:evenodd;clip-rule:evenodd;fill:#FCD3C1;}
	.st3{fill-rule:evenodd;clip-rule:evenodd;fill:#EFB8A1;}
	.st4{fill:none;stroke:#823436;stroke-width:1.7004;stroke-linecap:round;stroke-linejoin:round;stroke-miterlimit:22.9256;}
	.st5{fill-rule:evenodd;clip-rule:evenodd;fill:#FFFFFF;}
	.st6{fill-rule:evenodd;clip-rule:evenodd;}
</style>
<path class="st0" d="M362.6,105.1c2.2-3.3-2.1-11.3-2.1-11.3c-3.1-5.2-14.5,2-15.4-0.4c-8.2-21.2-29.6,6.7-19.1-6.4
	c10.4-13.1,2.3-16.6-3.9-8.1c-0.6,0.8,1.3-50.4-31.1-19c-8.2,7.9,3.9-6.8,5.9-12.2c4.9-13.3-18.7-10.8-18.3-11.5
	c4.2-9.1,7.7-22.6-0.4-29.8c-13.3-11.8-39.3,21.1-39.3,21.1c-0.5-7.4-22.5-18.3-37,0c1.9-2.2,0.5-22.2-17.6-20.1
	c-21.9,2.5-27,9.5-19.1,26.9c1.8,4.5-8.4,4.4-11.9,11.6c-1.4,2.7,0.7,17.4,0.6,16.1c-2.2-19.8-28.2-8.7-26.8,3.9
	c0.3,2.9,1.2,8,0.4,7.6c-7.1-3.7-17.3-2.7-24.4,6.2C90.5,63.4,46.4,72.7,63,94c0.7,0.9-1.5,1.9-2.3,2.4c-1.6,1-1.1,5.2-0.9,6.9
	c0.8,7.1,0.9,3.7-1,2.2c-10.3-8.2-9.6,5.3-5.8,12.6c-18.8,7.7-19.9,38.8,6.1,54.6l-34.6,69l341.8-33.7l10.5-65.6
	C400,119.9,380.8,96.7,362.6,105.1z M373.9,233.1l43.6,12.5l5.8,36.9c42.2,16.4,8.3,70.8-32.2,78.9l-6.3,38
	c-19.9,36.7-136.8,24.7-112.7-6.9c16.6-20.6-35.4-31.2-107.5-19.2c-93.4,16.1-136.8-37.7-94.2-84.8l19.1,3.5l-14.2-34.4L373.9,233.1
	z"/>
<path class="st1" d="M287.9,104.8c7.8-18.5,37.6-14.3,35.8,17.8c19-5.1,36.5,6.6,31.9,26.9l4.6,28.5l38.1,50.2l23.4,60.3
	c28.9,50.6-120.6,69.4-135.5,7.3c-0.2-0.7-84.8-19.4-16.4-3.2l-44-8.7l-40.6-58.1L140.3,277l20.5,18.1c27,22.7-9,48.5-50.8,48.2
	l-12.9-0.7c-53.9,1-34.4-44.3-9.1-40.4c0.9,0.1,1.2-3.1,0.1-3.3c-26.7-4.5-0.4-41.2,19.9-37.7c-0.8-11.3-22.7-19-15-21
	c0.8-0.2-3.2-3.4-5.5-5.3c-9.6-8.3,2.1-34,17.1-21c1,0.8-10.5-8.6-11.3-11.5c-2.3-7.6,5.3-14.5,1-16.6c-17.6-7.5-18.5-16.1-4.1-32.7
	c11.9-13.7,26.5,0.1,26.6,3c-1.6-23.3,22-30.1,27.4-25c0,0-3-41.8,14.8-42.1c10.8-0.2,17.4,12.1,20.4,21.7
	c-1.5-27.7,19.7-39.9,32.5-27.5c0-34.2,49.5-20.7,29.1,3.1c-2,2.4,6.5-0.8,8.4,1c5.2,4.9-5.6,14.9-4.4,14.9c4.7-0.1,7.9,2.9,9.7,5.9
	c2.6-2.3,6.6-3.2,12.5-0.3c2.3,1.1,5.8-11.8,11.6-10.1C278.7,97.9,287.3,100.9,287.9,104.8z"/>
<path class="st1" d="M333.1,413c20,0,36.4-4.9,36.4-10.8c0-6-16.3-10.8-36.4-10.8s-36.4,4.9-36.4,10.8
	C296.8,408.2,313.1,413,333.1,413z"/>
<path class="st2" d="M322.4,376.8c6.3-28,45.3-35.5,54.6-12.8c7.9,16-9.8,42.3-43,30.3c-21.8-8.6-20.4-42.6-2.9-64.4
	c19.6-12,21.9-26.1,11.2-28.9c-29.8-3.6-54.3,58.3-33.4,91.3c23.1,36.3,77.6,23.4,84.7-9.3c4.9-25-17.4-48-43.9-41.9
	C333.3,344.7,317.8,360.7,322.4,376.8z"/>
<path class="st3" d="M322.4,376.8c6.3-28,46.1-37.8,56-9.3c7.9,16-15.5,44.7-48.7,32.7c-21.8-8.6-24.9-44-7.5-65.8
	c25.1-11.4,28-24.2,17.4-26.9c-21.6-1.5-51.6,51.9-30.8,85c23.1,36.3,73.6,23.7,80.4-3.5c4.9-25-17.4-48-43.9-41.9
	C329,350.5,318.1,360.1,322.4,376.8z"/>
<path class="st4" d="M315.8,387.5c-2.4,0.4-7,4.8-5,7.8"/>
<path class="st4" d="M321,395.2c-2.4,0.4-5.5,4.6-4.6,6.5"/>
<path class="st4" d="M340,405.6c-2,2.3-1.9,6.5-0.3,7.7"/>
<path class="st4" d="M346.5,407.2c-1.1,1.8-0.3,6.3,1.3,6.8"/>
<path class="st4" d="M381.7,358.8c0.9-1.9,5.2-3.5,6.5-2.5"/>
<path class="st5" d="M342.2,301c-7.1-0.9-13.8,1.7-20.1,7.5c-4.3-14.5,6.3-18.5,9-13.2C333.7,289,341.8,288.8,342.2,301z"/>
<path class="st4" d="M322.1,308.6c-4.3-14.5,6.3-18.5,9-13.2c2.6-6.4,10.7-6.6,11.1,5.7c-29.8-3.6-54.3,58.3-33.4,91.3
	c23.1,36.3,77.6,23.4,84.7-9.3c4.9-25-17.4-48-43.9-41.9c-16.3,3.6-31.8,19.6-27.2,35.7"/>
<path class="st4" d="M342.2,301c9.5,1.9,10.9,19.9-20.1,33.3"/>
<path class="st4" d="M330.9,329.9c-22.7,30.8-13.6,59.4,4.9,65.1c25.2,9.2,47.9-8.3,42.5-27.5c-10.7-30.4-52.5-14.7-56,9.3"/>
<path class="st4" d="M329.8,322.3c2.7-3.8,7.7-5,9-1.7"/>
<path class="st6" d="M337.3,298.5c1.7,0,3.1-1.4,3.1-3.1c0-1.7-1.4-3.1-3.1-3.1c-1.7,0-3.1,1.4-3.1,3.1
	C334.2,297.1,335.6,298.5,337.3,298.5z"/>
<path class="st6" d="M328.3,300.6c1.7,0,3.1-1.4,3.1-3.1c0-1.7-1.4-3.1-3.1-3.1c-1.7,0-3.1,1.4-3.1,3.1
	C325.2,299.2,326.6,300.6,328.3,300.6z"/>
<circle class="st5" cx="335.6" cy="297.3" r="1.6"/>
<circle class="st5" cx="326.6" cy="299.3" r="1.6"/>
</svg>
