<?xml version="1.0" encoding="utf-8"?>
<!-- Generator: Adobe Illustrator 21.1.0, SVG Export Plug-In . SVG Version: 6.00 Build 0)  -->
<svg version="1.1" id="Layer_1" xmlns="http://www.w3.org/2000/svg" xmlns:xlink="http://www.w3.org/1999/xlink" x="0px" y="0px"
	 viewBox="0 0 479 422" style="enable-background:new 0 0 479 422;" xml:space="preserve">
<style type="text/css">
	.st0{fill-rule:evenodd;clip-rule:evenodd;fill:#BB7446;}
	.st1{fill-rule:evenodd;clip-rule:evenodd;fill:#DBEAB4;}
	.st2{fill-rule:evenodd;clip-rule:evenodd;fill:#CAE197;}
	.st3{fill-rule:evenodd;clip-rule:evenodd;fill:#A16044;}
	.st4{fill-rule:evenodd;clip-rule:evenodd;fill:#D58F5C;}
	.st5{fill-rule:evenodd;clip-rule:evenodd;fill:#FFFFFF;}
	.st6{fill-rule:evenodd;clip-rule:evenodd;fill:#FCD3C1;}
	.st7{fill-rule:evenodd;clip-rule:evenodd;fill:#EFB8A1;}
	.st8{fill-rule:evenodd;clip-rule:evenodd;fill:#C7EAFB;}
	.st9{fill-rule:evenodd;clip-rule:evenodd;fill:#F18A2E;}
	.st10{fill-rule:evenodd;clip-rule:evenodd;fill:#CA6C38;}
	.st11{fill:none;stroke:#823436;stroke-width:1.7004;stroke-linecap:round;stroke-linejoin:round;stroke-miterlimit:22.9256;}
	.st12{fill-rule:evenodd;clip-rule:evenodd;fill:#F8ABAD;}
	.st13{fill-rule:evenodd;clip-rule:evenodd;fill:#F9A57B;}
	.st14{fill-rule:evenodd;clip-rule:evenodd;fill:#FAA74A;}
	.st15{fill:none;stroke:#A82E31;stroke-width:1.7004;stroke-linecap:round;stroke-linejoin:round;stroke-miterlimit:22.9256;}
	.st16{fill-rule:evenodd;clip-rule:evenodd;fill:#A82E31;}
	.st17{fill-rule:evenodd;clip-rule:evenodd;}
	.st18{fill-rule:evenodd;clip-rule:evenodd;fill:#F7C68C;}
	.st19{fill:none;stroke:#B77136;stroke-width:1.7004;stroke-linecap:round;stroke-linejoin:round;stroke-miterlimit:22.9256;}
	.st20{fill-rule:evenodd;clip-rule:evenodd;fill:#D3E49B;}
	.st21{fill-rule:evenodd;clip-rule:evenodd;fill:#EBB081;}
	.st22{fill-rule:evenodd;clip-rule:evenodd;fill:#FDCEAE;}
	.st23{fill-rule:evenodd;clip-rule:evenodd;fill:#E1966C;}
	.st24{fill-rule:evenodd;clip-rule:evenodd;fill:#A15437;}
	.st25{fill:none;stroke:#E8827E;stroke-width:1.7004;stroke-linecap:round;stroke-linejoin:round;stroke-miterlimit:22.9256;}
	.st26{fill:none;stroke:#ED1651;stroke-width:8.5019;stroke-linecap:round;stroke-linejoin:round;stroke-miterlimit:22.9256;}
	.st27{fill-rule:evenodd;clip-rule:evenodd;fill:#FED1A2;}
</style>
<path class="st0" d="M436.9,155.2l-29.8,15.9l-15.4-5.6l9.7-6.8c9.5-5.5,17.7-12.1,21.4-24.2C427.9,136.3,432.6,143.2,436.9,155.2z"
	/>
<path class="st1" d="M362.6,105.1c2.2-3.3-2.1-11.3-2.1-11.3c-3.1-5.2-14.5,2-15.4-0.4c-8.2-21.2-29.6,6.7-19.1-6.4
	c10.4-13.1,2.3-16.6-3.9-8.1c-0.6,0.8,1.3-50.4-31.1-19c-8.2,7.9,3.9-6.8,5.9-12.2c4.9-13.3-18.7-10.8-18.3-11.5
	c4.2-9.1,7.7-22.6-0.4-29.8c-13.3-11.8-39.3,21.1-39.3,21.1c-0.5-7.4-22.5-18.3-37,0c1.9-2.2,0.5-22.2-17.6-20.1
	c-21.9,2.5-27,9.5-19.1,26.9c1.8,4.5-8.4,4.4-11.9,11.6c-1.4,2.7,0.7,17.4,0.6,16.1c-2.2-19.8-28.2-8.7-26.8,3.9
	c0.3,2.9,1.2,8,0.4,7.6c-7.1-3.7-17.3-2.7-24.4,6.2C90.5,63.4,46.4,72.7,63,94c0.7,0.9-1.5,1.9-2.3,2.4c-1.6,1-1.1,5.2-0.9,6.9
	c0.8,7.1,0.9,3.7-1,2.2c-10.3-8.2-9.6,5.3-5.8,12.6c-18.8,7.7-19.9,38.8,6.1,54.6l-34.6,69l341.8-33.7l10.5-65.6
	C400,119.9,380.8,96.7,362.6,105.1z M373.9,233.1l43.6,12.5l5.8,36.9c42.2,16.4,8.3,70.8-32.2,78.9l-6.3,38
	c-19.9,36.7-136.8,24.7-112.7-6.9c16.6-20.6-35.4-31.2-107.5-19.2c-93.4,16.1-136.8-37.7-94.2-84.8l19.1,3.5l-14.2-34.4L373.9,233.1
	z"/>
<path class="st2" d="M287.9,104.8c7.8-18.5,37.6-14.3,35.8,17.8c19-5.1,36.5,6.6,31.9,26.9l4.6,28.5l38.1,50.2l23.4,60.3
	c28.9,50.6-120.6,69.4-135.5,7.3c-0.2-0.7-84.8-19.4-16.4-3.2l-44-8.7l-40.6-58.1L140.3,277l20.5,18.1c27,22.7-9,48.5-50.8,48.2
	l-12.9-0.7c-53.9,1-34.4-44.3-9.1-40.4c0.9,0.1,1.2-3.1,0.1-3.3c-26.7-4.5-0.4-41.2,19.9-37.7c-0.8-11.3-22.7-19-15-21
	c0.8-0.2-3.2-3.4-5.5-5.3c-9.6-8.3,2.1-34,17.1-21c1,0.8-10.5-8.6-11.3-11.5c-2.3-7.6,5.3-14.5,1-16.6c-17.6-7.5-18.5-16.1-4.1-32.7
	c11.9-13.7,26.5,0.1,26.6,3c-1.6-23.3,22-30.1,27.4-25c0,0-3-41.8,14.8-42.1c10.8-0.2,17.4,12.1,20.4,21.7
	c-1.5-27.7,19.7-39.9,32.5-27.5c0-34.2,49.5-20.7,29.1,3.1c-2,2.4,6.5-0.8,8.4,1c5.2,4.9-5.6,14.9-4.4,14.9c4.7-0.1,7.9,2.9,9.7,5.9
	c2.6-2.3,6.6-3.2,12.5-0.3c2.3,1.1,5.8-11.8,11.6-10.1C278.7,97.9,287.3,100.9,287.9,104.8z"/>
<path class="st2" d="M333.1,413c20,0,36.4-4.9,36.4-10.8c0-6-16.3-10.8-36.4-10.8s-36.4,4.9-36.4,10.8
	C296.8,408.2,313.1,413,333.1,413z"/>
<path class="st3" d="M401.2,262.3l-23.6-2.1C383.8,273.6,397,273.9,401.2,262.3z"/>
<path class="st3" d="M380.3,144.6c6.6,5.2,11,11.6,13.9,18.8l17.5-11.8c-5.7-30.6-16.8-41.4-19.3-26.7
	C389.2,134.8,385.2,141.4,380.3,144.6z"/>
<path class="st3" d="M438.9,239.6l-31.6,21.5C413.2,282.4,434.7,276.6,438.9,239.6z"/>
<path class="st4" d="M444.9,228.5l-71.8-14.2l-18.2,27.2C370.9,272.7,427.9,270.5,444.9,228.5z"/>
<path class="st0" d="M447.4,226.5c-19.9,13.7-40.4,10.5-61.5-6.8l21.3-49.1c13.1-18.3,43.4-9.8,62.9-39.9c4,6,5.1,15.4,4.9,26.2
	C483.7,178.8,471.8,210.9,447.4,226.5z"/>
<path class="st3" d="M454.3,186.3c-0.1-4.4,0.6-14.9-12.1-16.5c7.3-7.6,21.4-23.1,26.3-36.8C474.7,150.8,471.2,172.4,454.3,186.3z"
	/>
<path class="st3" d="M407.1,171.1l-8,42.6c42.2-0.4,56.4-37.2,36.3-42.2C441.7,155.4,419.2,158.8,407.1,171.1z"/>
<path class="st0" d="M227,236.6c41.6-20.6,69.9,15.9,64.5,43.7l4.2,3.5l2,3.9c3.8,5.3,1.6,10.5-3.4,15.8l-46.7,22.4
	c-19.3,5.2-41.4-5.4-37.6-19.7l-3.4,3.6c-14.1-17.8-16-42.5-23.9-63.7c-18.9,37-48.4,53.5-88.4,49.6l3.6-6.3
	c-5.1-0.6-9.6-1.7-13.1-7l-6.3,9.6c-19.5-7.8-36-19.8-48.1-38c-7.9,0.6-12.7-4.4-5.2-8.5L19,232.2c-9.8-1.5-15.7-5.3-17.7-11.4
	l2.9-3l10.4-3.8c-5.3-21.7-4.1-44.5,6.9-68.9l2.4-10.5c6.9,23.3,25.2,32,50,33.2c18.5-10.5,31.5-14.4,55.4-2.4
	c15.7-5.9,28-6.2,42.6,0.8C195.3,178.4,204.1,218.8,227,236.6z"/>
<path class="st3" d="M205.3,255.5c-0.9-2.5,0.2-7.2,3.3-14l-0.1,8.2c1.3-6.2,4.2-11.1,8.8-14.5l2.3,11c7.4-9.6,24.7-16.4,35.5-8.5
	c-30.9,3.9-41.3,27.4-37.7,48c-7.8,5.2-11.4,13.3-10.8,24.2c-14.1-17.8-16-42.5-23.9-63.7c-18.9,37-48.4,53.5-88.4,49.6l3.6-6.3
	c-5.1-0.6-9.6-1.7-13.1-7l-6.3,9.6c-19.5-7.8-36-19.8-48.1-38c-7.9,0.6-12.7-4.4-5.2-8.5L19,232.3c-9.8-1.5-15.7-5.3-17.7-11.4
	l2.9-3l10.4-3.8c-5.3-21.7-4.1-44.5,6.9-68.9c-10.3,68.3,21.5,105.5,82.1,121.5c12.7-5.5,28.6-8.8,48.5-41.1l-8.6-38.6
	C185.9,165.7,171.2,228.9,205.3,255.5z"/>
<path class="st4" d="M337,224.4l-0.8-20.1l-15.3-7.8C317.7,214.3,322.9,218.8,337,224.4z"/>
<path class="st5" d="M286.9,281.2l-6.6,4.2l-13-3.3c0.2-13.9,1.7-24.5,5.4-26.3C278.5,254.8,285.2,266.6,286.9,281.2z"/>
<path class="st0" d="M394.2,163.4l-13.8,31.9l-50.5,13.1c-11.9-11.6-16.4-26-11.9-43.8l-3.8-2.8l-2.4-4.9l6.5,1.7l-2.2-5l9.9-0.4
	C347.4,129.7,383.2,133.3,394.2,163.4z"/>
<path class="st3" d="M394.2,163.4l-10.1,11.8c-10.2-22.4-23.6-28.6-44.6-25.2C358.8,131.4,387.9,144.7,394.2,163.4z"/>
<path class="st6" d="M322.4,376.8c6.3-28,45.3-35.5,54.6-12.8c7.9,16-9.8,42.3-43,30.3c-21.8-8.6-20.4-42.6-2.9-64.4
	c19.6-12,21.9-26.1,11.2-28.9c-29.8-3.6-54.3,58.3-33.4,91.3c23.1,36.3,77.6,23.4,84.7-9.3c4.9-25-17.4-48-43.9-41.9
	C333.3,344.7,317.8,360.7,322.4,376.8z"/>
<path class="st7" d="M322.4,376.8c6.3-28,46.1-37.8,56-9.3c7.9,16-15.5,44.7-48.7,32.7c-21.8-8.6-24.9-44-7.5-65.8
	c25.1-11.4,28-24.2,17.4-26.9c-21.6-1.5-51.6,51.9-30.8,85c23.1,36.3,73.6,23.7,80.4-3.5c4.9-25-17.4-48-43.9-41.9
	C329,350.5,318.1,360.1,322.4,376.8z"/>
<path class="st5" d="M254.3,290.7c-3.6,2.2-7.7,3-12.4,2.5c-3.3-5.3-9.1-7.9-16.1-9.3c5.6-12.9,12.4-25.3,20.5-27.1
	C252.6,255.5,255.3,269.6,254.3,290.7z"/>
<path class="st8" d="M232.9,285.6l5.2,3.3l3.7,4.3l6.4-0.2l6-2.3l-0.2-18.8C250.1,262,238.6,267.9,232.9,285.6z"/>
<path class="st5" d="M344.2,190.5l-8,13.9l-2.5,0.6c-5.7-10.5-7.8-19.7-4.6-23.9C332,178.9,338.1,182.9,344.2,190.5z"/>
<path class="st8" d="M271.6,281.8l4.4,1l4.3,2.7l6.6-4.2l-2.9-12.5C276,261,272.7,268,271.6,281.8z"/>
<path class="st9" d="M258,337.3c3.5,1.5,8.7-2.3,15.6-11.5l-25.2-23.7l-13.5,0.5l1.5,5.5l2.2,1C245.1,318.5,248.5,334,258,337.3z"/>
<path class="st4" d="M245.3,321.8l-6.6-12.8l-4.4-2.1l7.6-13.8c-9.1-11.7-18.4-9.6-24.4-7.5C206.7,305.3,223.5,324.5,245.3,321.8z"
	/>
<path class="st4" d="M297.6,287.6c3.5,5.6,1.3,10.8-3.4,15.8c-8.9-4.7-9.3-12-13.9-18C286.2,279.1,295.1,279,297.6,287.6z"/>
<path class="st10" d="M328.8,193.3l5,11.6l2.5-0.6l8-13.9l-1.7,1.5C333.1,180.9,327.7,186.9,328.8,193.3z"/>
<path class="st4" d="M379.8,220.9l0.8-36.1c2.3-12.3,11.8-21.7,20.9-26.2c-0.9,5.1-0.4,8.6,0.4,11.5c-0.7-3.1,2-6,4.7-6.7
	c-0.8,10.9,6.1,17,3.8,33.3C408.4,211.4,391.6,219.6,379.8,220.9z"/>
<path class="st0" d="M52.6,236.2c-49.2,11.3-39.1,24.3,20.1,14.2c-36.8,16.5-3.2,28.9,36.7,13.9c8.9-3.6,17.5-9.3,26-17.2
	l-60.9-54.6c-13.2,14-74.3,21-73.4,28.3C1.5,228.8,21.1,235.4,52.6,236.2z"/>
<path class="st0" d="M379.8,220.9c32.9-3.2,33.1-50.3,4.3-45.8c2.7-7.6,8.3-12,17.3-16.5c-0.9,5.1-0.4,8.6,0.4,11.5
	c-0.7-3.1,2-6,4.7-6.7c-0.8,10.9,6.1,17,3.8,33.3C408.4,211.4,391.6,219.6,379.8,220.9z"/>
<path class="st11" d="M74.5,192.6c-13.2,14-74.3,21-73.4,28.3c0.3,8,19.9,14.6,51.6,15.4"/>
<path class="st12" d="M243.7,307c7.7,10.8,16,16.6,24.9,18.3l-4.8,5.9l-4,2C253.8,328.4,248.5,319,243.7,307z"/>
<path class="st11" d="M68.9,232.5c-30.2,5.9-50.3,13.3-47.6,18.2c2.1,5,20.7,4.3,51.4-0.4"/>
<path class="st13" d="M91,304.4c0.7-5.1,3.3-10.1,6.9-15c-4.1,0.2-8.5-2.2-13.1-7c-11.1,14.8-13.3,26.4-9.5,35.9
	c2.8,9.3,2,22.4,7.1,27.9c4.2,5.1,8.3,1.5,9.9-1.2c2-3.2,6-2.7,10.3-1.6c5.9,1.9,10.7-0.3,10.7-6.5c-0.3-4,1.6-6.2,4-7.7
	c2.8-2.2,4.3-8-1.2-13.4C111.1,310.7,98.1,310.9,91,304.4z"/>
<path class="st4" d="M135.4,247c7.2-4.8,14.9-16.1,21.2-31.1c15.3-38.8-53.3-38.5-82.1-23.5c-8.3,9.4-7.7,32,13.5,31.6
	c-6.1,6.2-0.5,15,16.7,15.4C99.1,253,115.8,261.2,135.4,247z"/>
<path class="st14" d="M238.6,309c-2.2-0.7-0.5-5.7,2.2-4.9l2.2,1.3c15.8,24.5,37.5,25.7,53.4,7.5c3-2.9,3.8-8.1-2.2-9.6
	c-9.1-4.1-8.7-12.2-13.9-18c-6.3-5.7-15.8-3.9-19.4-0.1c-6.4,6.2-11.1,8.7-19.1,7.8C231.5,291.5,226.8,306.4,238.6,309z"/>
<path class="st13" d="M150.7,283.6c-8.2,6.1-18.1,10.4-30.6,12.1c2.3,21.7,10.8,24.7,13.7,18.1c2.7-4.2,6.3-5.7,10.9-4.7
	c8.2,2.1,12.3-0.7,12.1-6.4c-0.3-3.3,1.1-5.8,4-7.7C167.1,292.2,162.3,285.7,150.7,283.6z"/>
<path class="st15" d="M120.1,295.8c2.3,21.7,10.8,24.7,13.7,18.1c2.7-4.2,6.3-5.7,10.9-4.7c8.2,2.1,12.3-0.7,12.1-6.4
	c-0.3-3.3,1.1-5.8,4-7.7c6.3-2.9,1.5-9.4-10.1-11.5"/>
<path class="st15" d="M248.4,302.1c-1.6,2.4-5.3,3.4-7.6,2.1"/>
<path class="st10" d="M335.3,218.1c-8.8-5.3-6.9-12.8,0.9-13.8c3.6-14.6,13-20.9,31.1-15.1c10.4-10.8,30.3-0.8,19.3,17.7
	c-2.9,18.3-26.8,29.3-40.1,41.3C341.9,240,337.7,228.1,335.3,218.1z"/>
<path class="st15" d="M291.5,308.8c-5.2,0.6-10.9,3.7-14.9,7"/>
<path class="st11" d="M315.8,387.5c-2.4,0.4-7,4.8-5,7.8"/>
<path class="st11" d="M321,395.2c-2.4,0.4-5.5,4.6-4.6,6.5"/>
<path class="st11" d="M340,405.6c-2,2.3-1.9,6.5-0.3,7.7"/>
<path class="st11" d="M346.5,407.2c-1.1,1.8-0.3,6.3,1.3,6.8"/>
<path class="st11" d="M381.7,358.8c0.9-1.9,5.2-3.5,6.5-2.5"/>
<path class="st16" d="M266.3,296.1c1.9,0,3.4-1.6,3.4-3.5c0-1.9-1.5-3.5-3.4-3.5s-3.4,1.6-3.4,3.5
	C262.9,294.5,264.5,296.1,266.3,296.1z"/>
<path class="st11" d="M243.8,252.6c-2.8-0.8-6.1,0.8-7.7,3.6"/>
<path class="st17" d="M247.3,291.4c2.8,0,5-2.3,5-5.1s-2.2-5.1-5-5.1c-2.8,0-5,2.3-5,5.1S244.5,291.4,247.3,291.4z"/>
<path class="st5" d="M244.7,286.2c1.4,0,2.5-1.1,2.5-2.5c0-1.4-1.1-2.5-2.5-2.5c-1.4,0-2.5,1.1-2.5,2.5
	C242.3,285.1,243.4,286.2,244.7,286.2z"/>
<path class="st17" d="M281.1,283.3c2.3,0,4.2-1.9,4.2-4.3c0-2.3-1.9-4.3-4.2-4.3s-4.2,1.9-4.2,4.3
	C276.9,281.4,278.8,283.3,281.1,283.3z"/>
<path class="st3" d="M456.3,209.2c-0.5-6.5-3.5-10-8.8-10.7c15.6-7.4,25.2-20.9,27.5-41.7C481.1,175.2,478.4,190.4,456.3,209.2z"/>
<path class="st5" d="M279,279c1.1,0,2-0.9,2-2.1c0-1.2-0.9-2.1-2-2.1c-1.1,0-2,0.9-2,2.1C277,278.1,277.8,279,279,279z"/>
<path class="st11" d="M376.1,197.1c1.8-2.5,5.9-2.5,7.2,0.2"/>
<path class="st11" d="M379.8,195.2c1.8,14.7-3.9,27.1-13.7,38.2"/>
<path class="st0" d="M435.5,151.4c-3.9-9.2-8.1-15.3-12.7-17l-2.9,7l-3.8,5.6c1-20.6-4.5-40.2-18-58.6l7.7,2.9l5.5,3.6
	c8.6-0.6,16.5-5.4,22.6-19.4C448.4,104.2,445.5,131.6,435.5,151.4z"/>
<path class="st3" d="M435.5,151.4l1.4,3.8c-11.1,3.2-21.1,8.1-29.6,15.5l-0.8-3.2v-3.9l-3.6,2.5l-1.4,3.1l-0.6-4.6l0.5-5.8l10.3-7.2
	l4.4-4.5c-0.1-12-1-18.8-5.5-35c5.1,5,11.7,21.2,16,21.4c10.5,3.5,13.8-18.7,15.4-35.6C445.1,126.6,442.1,137.2,435.5,151.4z"/>
<path class="st5" d="M375.7,185l-4.4,1.4l-3.9,2.9l-6.3-1.6l-6.4-0.5c-1.5-10.5-1.4-18.5,1.7-20.2
	C363.3,165.7,369.7,171.8,375.7,185z"/>
<path class="st10" d="M373.4,185.7l2.2-0.7l-8.4,4.3l-12.8-2.2l-0.5-4.6C353.8,172.3,365.3,168.4,373.4,185.7z"/>
<path class="st17" d="M335.2,200.2c2.5,0,4.6-2.1,4.6-4.6s-2.1-4.6-4.6-4.6c-2.5,0-4.6,2.1-4.6,4.6
	C330.6,198.2,332.6,200.2,335.2,200.2z"/>
<path class="st17" d="M364.6,189.1c2.8,0,5-2.2,5-5c0-2.8-2.2-5-5-5c-2.8,0-5,2.2-5,5C359.5,186.8,361.8,189.1,364.6,189.1z"/>
<path class="st5" d="M335.9,195c1.3,0,2.3-1,2.3-2.3c0-1.3-1-2.3-2.3-2.3c-1.3,0-2.3,1-2.3,2.3C333.6,194,334.7,195,335.9,195z"/>
<path class="st5" d="M365.4,183.4c1.4,0,2.5-1.1,2.5-2.5c0-1.4-1.1-2.5-2.5-2.5c-1.4,0-2.5,1.1-2.5,2.5
	C362.9,182.3,364,183.4,365.4,183.4z"/>
<path class="st18" d="M383.2,267.7c3.6,2.6,7.3,3.6,11.2,2.3c-0.1,5.6-1.4,11.4-3.9,17.3c9.1-0.2,12.2,1.3,9.3,4.5
	c-12.7,5.5-28.3,24.8-38.1,16.4c-5-0.3-6.2-5.4-3.9-7.3c-2.3-7.6,5.8-12,24.2-13.3C383.3,284.1,383.9,277.9,383.2,267.7z"/>
<path class="st19" d="M375.7,293.1c-9.2,1.5-16.2,5.2-18,7.7c-2.3-7.6,5.8-12,24.2-13.3c1.4-3.5,2-9.7,1.3-19.9"/>
<path class="st19" d="M394.4,270c0.1,7.9-3.9,18.4-6.6,23.2"/>
<path class="st18" d="M390.6,313.5c0.2,5.5,2.9,7.8,8.2,6.8c8.7,4,14.6-4.2,19.7-15.8l8.4-13.6c1.5-4.6-0.2-5.4-5.2-2.4l2-8.5
	l0.9-8.3l-5.8,1.7l-3.9-1c0.4,7.3-0.6,13.7-2.7,19.4C393,300.2,384.2,307.6,390.6,313.5z"/>
<path class="st19" d="M414.9,272.4c0.4,7.3-0.6,13.7-2.7,19.4c-19.2,8.4-28.1,15.9-21.6,21.8"/>
<path class="st19" d="M424.6,271.7c-0.4,8.2-2,15.2-4.5,21.3"/>
<path class="st19" d="M357.7,300.9c-3.1,3.5,0.9,7.7,3.9,7.3c1.2-2.7,7.7-6.7,19.4-12"/>
<path class="st19" d="M361.7,308.1c9.2,8.8,24.6-11.2,36.9-15.8c5.1-2.3,2.8-5.5-8.1-5.1"/>
<path class="st19" d="M405.6,299.3c-9.2,5.9-13.7,10.5-15,14.2c-1.1,4.6,4.2,8.6,8.2,6.8c0.8-5.3,8-12.8,12.8-19.1"/>
<path class="st19" d="M398.8,320.3c13.8,6.9,18.7-19.6,28.1-29.4c3-3.3,0-5.7-5.2-2.4"/>
<path class="st5" d="M342.2,301c-7.1-0.9-13.8,1.7-20.1,7.5c-4.3-14.5,6.3-18.5,9-13.2C333.7,289,341.8,288.8,342.2,301z"/>
<path class="st11" d="M322.1,308.6c-4.3-14.5,6.3-18.5,9-13.2c2.6-6.4,10.7-6.6,11.1,5.7c-29.8-3.6-54.3,58.3-33.4,91.3
	c23.1,36.3,77.6,23.4,84.7-9.3c4.9-25-17.4-48-43.9-41.9c-16.3,3.6-31.8,19.6-27.2,35.7"/>
<path class="st11" d="M342.2,301c9.5,1.9,10.9,19.9-20.1,33.3"/>
<path class="st11" d="M330.9,329.9c-22.7,30.8-13.6,59.4,4.9,65.1c25.2,9.2,47.9-8.3,42.5-27.5c-10.7-30.4-52.5-14.7-56,9.3"/>
<path class="st11" d="M329.8,322.3c2.7-3.8,7.7-5,9-1.7"/>
<path class="st17" d="M337.3,298.5c1.7,0,3.1-1.4,3.1-3.1c0-1.7-1.4-3.1-3.1-3.1c-1.7,0-3.1,1.4-3.1,3.1
	C334.2,297.1,335.6,298.5,337.3,298.5z"/>
<path class="st17" d="M328.3,300.6c1.7,0,3.1-1.4,3.1-3.1c0-1.7-1.4-3.1-3.1-3.1c-1.7,0-3.1,1.4-3.1,3.1
	C325.2,299.2,326.6,300.6,328.3,300.6z"/>
<circle class="st5" cx="335.6" cy="297.3" r="1.6"/>
<circle class="st5" cx="326.6" cy="299.3" r="1.6"/>
<path class="st2" d="M292.4,28.1c0-7.8,5.9-20,15.5-20C308.9,8.1,305.9,23.3,292.4,28.1z"/>
<path class="st20" d="M298.9,28.6c11.1-1,31.2,3.1,29.8,4.4C320.9,40.7,304.3,37.3,298.9,28.6z"/>
<path class="st20" d="M149.2,28c-6.1-4.5-13.1-23-3.1-27.3l0.7-0.3l0.3-0.3v0.7C151.1,7.4,150.9,19.2,149.2,28z"/>
<path class="st2" d="M145,36.3c-0.9-3.7-13.7-30.2-19-24.9C118.6,18.9,134.9,36.3,145,36.3z"/>
<path class="st21" d="M89.4,192.2c23.9-5.4,47.6-1.3,60.3,4.6C138.6,182.8,105.1,183.8,89.4,192.2z"/>
<path class="st4" d="M281.3,249.3c-6.5-7-14.5-11.7-25.2-15.1C268.2,234.2,276.3,239.5,281.3,249.3z"/>
<path class="st22" d="M79.9,322.8c-2.3-9.5-1.9-19,0.9-30C74.5,303.2,74.5,313.2,79.9,322.8z"/>
<path class="st23" d="M362.7,191.5c-7.4-1.2-14.6,0-21.3,4.6C347.1,188.6,354.8,187.2,362.7,191.5z"/>
<path class="st23" d="M344.3,235.3c-3.1-8.5-5.6-17.2-6.7-27.2C334.8,217.2,338.9,227.8,344.3,235.3z"/>
<path class="st11" d="M377.6,260.2c6.2,13.4,19.4,13.7,23.6,2.1 M355,241.5c15.9,31.3,72.9,29,89.9-13 M386.5,253.6
	c3.1,3.6,7.3,2.3,8.5-0.9 M383,243.4c2.8,2,5.5,0.6,5.7-2.2 M373.2,249.9c3.1,3.6,7.3,2.3,8.5-0.9 M371,241.2
	c2.7,2.5,5.7,0.7,5.7-1.6 M407.3,261.1c5.9,21.3,27.4,15.5,31.6-21.5"/>
<path class="st24" d="M359.4,205c1.7,0,3.1-1.4,3.1-3.1c0-1.7-1.4-3.1-3.1-3.1s-3.1,1.4-3.1,3.1C356.4,203.6,357.7,205,359.4,205z"
	/>
<path class="st24" d="M345.2,208.1c1.5,0,2.7-1.2,2.7-2.7s-1.2-2.7-2.7-2.7s-2.7,1.2-2.7,2.7S343.7,208.1,345.2,208.1z"/>
<path class="st25" d="M257,324.6c1.5,0.3,2.8,1.2,3.3,2.8c0.5-1.1,2.1-2.5,3.7-3.5"/>
<path class="st26" d="M322.1,308.6c-11.6,9.1-34.1,50.7-13.3,83.8c23.1,36.3,77.6,23.4,84.7-9.3c4.9-25-17.4-48-43.9-41.9
	c-16.3,3.6-31.8,19.6-27.2,35.7"/>
<path class="st27" d="M268.8,285.2c14-1.4,11.1,17.3,22.4,18.7C282.7,299.5,282.7,281.2,268.8,285.2z"/>
<path class="st4" d="M112.2,164.2c-9.6-1.5-19.1-0.2-29.8,3.7C92.1,160.4,102.1,159.6,112.2,164.2z"/>
<path class="st4" d="M190.4,191.7c-9.2-10.4-17.6-21.4-34-26.1C175.4,166.6,182.7,178.5,190.4,191.7z"/>
<path class="st0" d="M116.1,289.7c9.2-2.4,34.4-7.9,48.6-26C156.3,280,128.6,293.5,116.1,289.7z"/>
<path class="st11" d="M290,285.3c9.4-2.1,13.5,9.8,4.3,18.1 M280.3,285.4c5.9-6.4,14.8-6.4,17.3,2.2 M267.3,282.1
	c0.2-13.9,1.7-24.5,5.4-26.3c5.8-1,12.5,10.8,14.3,25.5 M225.7,283.9c5.6-12.9,12.4-25.3,20.5-27.1c6.5-1.2,9.2,12.9,8.1,33.9
	 M241.8,293.1c-9.1-14.1-35.5-14.8-35.2,16.7c3-3.5,4.5-5,7.6-6.3 M209.5,307.5c-2,12.3,20,23.7,37.2,18.8 M208.5,249.6
	c1.7-6.7,5.6-12,8.8-14.5c0.2,3.7,1.1,7.4,2.3,11 M206.2,260.1c-2-7.5-1.2-13.7,2.4-18.6c-0.8,4.8-0.2,10.3,1.6,16.2 M205.3,255.5
	c-3.8,5.9-5.3,13.2-4.5,21.7 M166.1,224.4c18.9-3.9,19.2,59.4,40.5,85.4 M94.3,295.7c34.2,4.9,65.6-7.8,88.4-49.6 M121.3,169.5
	c16.4-10.2,35.8-10.2,50.4-3.2c23.7,12.1,32.4,52.7,55.3,70.5 M30.3,254.1c11.8,17.4,28.7,31.8,48.1,38 M18.9,232.2
	c1.8,4.6,3.8,8.9,6.3,13.3 M21.4,145.2c-10.1,20.7-12.1,45.1-6.9,68.9 M73.7,167.9c-21.8-1-40.9-7.4-50-33.2
	c-4.1,11.7-3.4,22.9,2,33.6 M66.5,169.9c16.8-2.8,25.3-21.5,61.1-4.9 M81.6,246.7c-20.7,7.5-27.8,16.2-24.6,19
	c9.1,10.3,73.1,11.1,99.6-49.8 M74.5,192.6c-8.3,9.4-7.7,32,13.5,31.6c-6.1,6.2-0.5,15,16.7,15.4c-5.5,13.6,11.2,21.8,30.8,7.6
	 M218.9,242.7c29.6-27.1,77.3-7,72.6,37.6"/>
<path class="st15" d="M97.9,289.4c-7.7,9.8-9.9,20.8-2.3,27.4"/>
<path class="st15" d="M84.7,282.4c-11.1,14.8-13.3,26.4-9.5,35.9c2.8,9.3,2,22.4,7.1,27.9c4.2,5.1,8.3,1.5,9.9-1.2
	c2-3.2,6-2.7,10.3-1.6c5.9,1.9,10.7-0.3,10.7-6.5c-0.3-4,1.6-6.2,4-7.7c2.8-2.2,4.3-8-1.2-13.4c-5-5.2-18-5-25.2-11.5"/>
<path class="st11" d="M81.6,277.9c6.1,10.4,13.8,13.8,23,10.1"/>
<path class="st15" d="M268.6,325.2c-3.5,5.2-6.3,7.9-8.8,7.9c-4.4-1.9-9.9-11.2-16.8-27.7c15.8,24.5,37.5,25.7,53.4,7.5
	c3-2.9,3.8-8.1-2.2-9.6c-9.1-4.1-8.7-12.2-13.9-18c-6.3-5.7-15.8-3.9-19.4-0.1c-6.4,6.2-11.1,8.7-19.1,7.8
	c-10.3-1.7-15,13.2-3.2,15.9c17.2,34.5,20.5,34.4,35,16.7"/>
<path class="st11" d="M322,165.4c-5.7-0.3-8.9-3.4-10.2-8.4c4.3,1.9,10.1,2.3,16.9,1.8 M318.3,158.6l-2.2-5
	c4.9,0.9,11.5-0.4,18.9-2.7 M407.6,232.7c47.1,12.2,59.3-32.8,39.9-34.2c13.4-11.4,5-30.1-5.3-28.8c1.5-5.2-1.2-12.2-10-13.1
	 M475,156.9c8.7,21.9-3.2,54-27.6,69.6 M470.1,130.8c10.4,15.8,5.7,55.3-22.6,67.9 M407.3,170.7c19.2-20,43-9.5,62.9-39.9
	c-8.2,15.8-17.4,29.2-27.9,39 M401.4,158.7c9.5-5.5,17.7-12.1,21.4-24.2c5.1,1.8,9.8,8.8,14.1,20.7 M411.3,95
	c8.6-0.6,16.5-5.4,22.6-19.4c14.5,28.7,11.6,56.1,1.6,75.9 M429.2,139.7c3.3-7.3,3.1-18.2-0.5-32.6 M422.8,134.5
	c-1-9-1.6-15.6-6-25.6 M416.1,147.1c1.4-20-5-39.4-18-58.6c6.8,1.4,13.5,5.7,20.3,13 M411.7,151.5c-2.4-19.4-10.7-32.7-15.8-33.6
	c-4,2.5-5.8,16.6-6.4,36 M392.4,124.9c-3.2,10-7.2,16.5-12,19.7 M325.9,153.2c21.5-23.5,57.2-19.9,68.2,10.2 M380.6,184.9
	c2.3-12.3,11.8-21.7,20.9-26.2c-0.9,5.1-0.4,8.6,0.4,11.5c-0.7-3.1,2-6,4.7-6.7c-0.8,10.9,6.1,17,3.8,33.3
	c-1.9,14.7-18.7,22.8-30.5,24.2 M318,164.6c-5,16.2,0,32.6,11.9,43.8"/>
<path class="st11" d="M333.7,205c-5.7-10.5-7.8-19.7-4.6-23.9c2.9-2.1,9.7,1.3,15,9.4 M324.9,178.9c1-1.7,2.7-3.3,4.2-3.5
	 M359.8,161.7c2.8-0.2,5.8,0.7,7.3,2.3 M354.5,187.2c-2.4-10.1-1.4-18.5,1.7-20.2c5.8-2.5,13.5,4.8,19.4,18.1 M320.9,196.6
	c-3.3,17.8,2,22.1,16.1,27.8"/>
<path class="st11" d="M335.3,218.1c-8.8-5.3-6.9-12.8,0.9-13.8c3.6-14.6,13-20.9,31.1-15.1c10.4-10.8,30.3-0.8,19.3,17.7
	c-2.9,18.3-26.8,29.3-40.1,41.3C341.9,240,337.7,228.1,335.3,218.1z"/>
<path class="st4" d="M323.9,194.7c-3.5-7.9-4.4-16.3-2.9-26.4C315.9,178.3,317.2,187,323.9,194.7z"/>
<path class="st21" d="M405,257.3c10.4-3.3,19.2-9.2,28-18.5C427,251,417.5,256.8,405,257.3z"/>
<path class="st0" d="M409.8,208.7c10.5-3,19.5-8.5,28.6-17.2C431.9,203.2,422.2,208.6,409.8,208.7z"/>
<path class="st4" d="M433.1,83.6c-3.7,6.7-9.7,11.8-17.1,12.8C422.4,102.1,432.5,91.9,433.1,83.6z"/>
</svg>
