<?xml version="1.0" encoding="utf-8"?>
<!-- Generator: Adobe Illustrator 21.1.0, SVG Export Plug-In . SVG Version: 6.00 Build 0)  -->
<svg version="1.1" id="Layer_1" xmlns="http://www.w3.org/2000/svg" xmlns:xlink="http://www.w3.org/1999/xlink" x="0px" y="0px"
	 viewBox="0 0 421 426" style="enable-background:new 0 0 421 426;" xml:space="preserve">
<style type="text/css">
	.st0{fill-rule:evenodd;clip-rule:evenodd;fill:#009CD9;}
	.st1{fill-rule:evenodd;clip-rule:evenodd;fill:#007BBF;}
	.st2{fill-rule:evenodd;clip-rule:evenodd;fill:#00BBEB;}
	.st3{fill-rule:evenodd;clip-rule:evenodd;fill:#FAA74A;}
	.st4{fill-rule:evenodd;clip-rule:evenodd;fill:#FED1A2;}
	.st5{fill-rule:evenodd;clip-rule:evenodd;fill:#E69065;}
	.st6{fill-rule:evenodd;clip-rule:evenodd;fill:#FFFFFF;}
	.st7{fill-rule:evenodd;clip-rule:evenodd;fill:#C7EAFB;}
	.st8{fill:none;stroke:#18537E;stroke-width:1.6992;stroke-linecap:round;stroke-linejoin:round;stroke-miterlimit:22.9256;}
	.st9{fill-rule:evenodd;clip-rule:evenodd;}
	.st10{fill-rule:evenodd;clip-rule:evenodd;fill:#F9A57B;}
	.st11{fill:none;stroke:#A82E31;stroke-width:1.6992;stroke-linecap:round;stroke-linejoin:round;stroke-miterlimit:22.9256;}
	.st12{fill-rule:evenodd;clip-rule:evenodd;fill:#F18A2E;}
	.st13{fill-rule:evenodd;clip-rule:evenodd;fill:#FDCEAE;}
	.st14{fill-rule:evenodd;clip-rule:evenodd;fill:#A82E31;}
	.st15{fill-rule:evenodd;clip-rule:evenodd;fill:#8CD0EA;}
</style>
<path class="st0" d="M260.9,200.2l-74.5,6.7c-20.9-4.3-39.4-10.9-46.4-28.5c-4.9-13.3-2.4-27.1-14.6-39.9l3.5-2.4l-6.2-2.7l4.7-2.3
	l1.9-2.9c-5.3,1.7-12.8,0.8-21.3-1.4c-28.4-7.6-56.3,1.7-61.4,36.3l6.7,4.5l2.3,2.7c12-5.2,17.2,1.3,23.4,10.4l28.9,0.3
	c12.1,1.1,19.1,15.7,13.1,24.8l-3,5.1l-3.9,3.7c31,18.2,41.2,50.8,59.3,79.1c4.4,5.4,4.8,12.9,13.3,16.2
	c23.3,25.3,57.3,30.7,87.1,17.7l-8.4-4.1c4.6-2.3,8.2-6.1,11-11.3l22.2-0.2c7.2-6,13.8-13.2,19.4-22.3
	c64.1-12.6,70.8-27.3,18.8-31.3l2-4.9c15.2-7.2,15.6-11.6,4-13.3c3.4-13.4,3.4-27.2-1.6-41.5l-2.6-12.4
	C298.3,221.5,286.8,195.7,260.9,200.2z"/>
<path class="st1" d="M342.4,201.8c4,10.4,3.7,23.4,0.5,38.2l-6,18.5l-13.4-0.9l15-4.1l4.3-13.2l-22.4-1.3
	C335,232.5,341.8,219,342.4,201.8z"/>
<path class="st1" d="M226.8,276.5c-48.1,26.5-90.6-60.8-97.7-78.4c7.6-12.1,5.8-30.8-2-38.9c4.1,9.4-0.2,33.8-15.5,22.6
	c10,4.2,13.6,18.1,9.2,23.9l-3,5.1l-3.9,3.7c31,18.2,41.2,50.8,59.3,79.1c4.4,5.4,4.8,12.9,13.3,16.2c23.3,25.3,57.3,30.7,87.1,17.7
	l-8.4-4.1c4.6-2.3,8.2-6.1,11-11.3l11.1-0.1l11.1-0.1c7.2-6,13.8-13.2,19.4-22.3C281.4,294.4,250.2,291.2,226.8,276.5z"/>
<path class="st2" d="M245.9,285c-11.3-3.4-21.6-9.2-31-17.6c-13.9-11.4-5.8-38.1,63.5-39.8c8.3,2.8,6.2,10.8,1.8,13.4
	c9.7,7.3,5.3,19.9-8.2,21.5C279.8,272.7,271.5,288,245.9,285z"/>
<path class="st2" d="M95.3,180.9c11.3-3.5,23.1,2,26.4,12.4c3.3,10.4-3.3,21.6-14.6,25.1c-11.3,3.5-23.1-2-26.4-12.4
	C77.4,195.7,83.9,184.4,95.3,180.9z"/>
<path class="st3" d="M91.1,196.8l9.6,7.6c8.7-8,2.4-18.1-6.5-18.1c-8.1,0.4-14.9-3.3-18.9-10.6c-3.9-8.1-13.8-9.4-21.2-4.5
	c-7.1,3.2-12.7,9.7-25.4,7.1c-9.5-2.1-7.4,23.3,22.9,30.2C69.8,212.6,83.7,208.1,91.1,196.8z"/>
<path class="st2" d="M188.8,211.9c-15.2-4.3-32.9-12.8-44.1-21.5C150.1,201.7,171.8,210.5,188.8,211.9z"/>
<path class="st4" d="M62.8,204.8c-10.4-0.2-30.8-9.1-35-19.3C30.3,199.7,49.8,206.8,62.8,204.8z"/>
<path class="st5" d="M344.3,310.2l-6.4,2.6l-39.3-0.7c7.5-6.6,14.3-13.8,19.4-22.3l18.6-3.4c-2.6,5,0.1,8,4.8,7.4
	c6.8-0.4,8.4,5.1,4.8,8.9C343.3,306.1,342.6,307.6,344.3,310.2z"/>
<path class="st6" d="M65.8,168.5c-3.2-0.9-6.6-0.3-10.3,1.8l-6.3-5.5c2.5-13.4,10.1-21.9,14.1-21.4
	C68.4,144.1,70.3,154.2,65.8,168.5z"/>
<path class="st6" d="M107.8,180.9c-5.2-0.3-9.8,1.5-13.7,5.3c-6.5,0.1-11.6-1.8-15.2-5.6c5.1-17.8,11-29,18.1-28.5
	C106.2,153.2,109.5,167.4,107.8,180.9z"/>
<path class="st7" d="M96.8,151.9c11.9,0.2,12.7,19.1,11.1,28.8l0.3-3.2C75.7,189.4,86.7,151.2,96.8,151.9z"/>
<path class="st7" d="M63.4,143.4c6.6,0.8,7.9,22-1,22.2C47.7,166.8,54.1,143.6,63.4,143.4z"/>
<path class="st2" d="M36.1,178.7c9.3-0.5,13-5.7,19.6-8.5C47.5,159,33.8,162.2,36.1,178.7z"/>
<path class="st8" d="M342.9,240c4.2-18.7,2.8-32.7-2.7-43.2 M336.9,258.5c0.7-1.6,1.4-3.5,2-4.9 M298.6,312c8-7,13.1-12.1,19.4-22.3
	 M173.4,293.7c8.9,16.7,15,18.6,20,13.9 M114.1,214.6c35.3,22.3,42,54.8,59.3,79.1c4,6,10.1,4.8,10.4-1.8 M90.9,149.8
	c6.1-5.3,10.8-3.5,15,1.5 M78.9,180.6c5.1-17.8,11-29,18.1-28.5c9.1,1,12.4,15.3,10.8,28.8 M49.4,164.7
	c2.5-13.4,10.1-21.9,14.1-21.4c5,0.7,6.9,10.7,2.4,25.2 M69.5,141.5c-1-3.8-3.6-4.6-7-3 M55.6,170.2c-8.2-11.3-21.9-8-19.6,8.5
	 M186.3,206.9c-18.8-3.2-35.3-12.2-42.1-21.1c-10.3-11.8-3.3-31.2-18.9-47.3 M122.8,133.5l6.2,2.7c-4.2,3.2-8,5.2-10.9,4.3
	 M46.6,163c2.6-17.1,11.2-30.1,26.3-35.8c26.9-9.8,37.2,5.4,56.5,0.9c-1.4,4.1-6.5,6.2-15.2,6.2 M120.4,206.9
	c5.5-2.9,10.8-9.2,13.1-20.5 M117.2,195.1c13.6,10.2-10,33.5-30.6,20.4 M94.2,186.2c13.9-13.4,34,0.3,26.8,19.5 M186.7,309.9
	c23.5,24.7,56.8,30.7,87.1,17.7"/>
<path class="st9" d="M63.8,156.7c2.7,0,4.9-2.2,4.9-4.9c0-2.7-2.2-4.9-4.9-4.9c-2.7,0-4.9,2.2-4.9,4.9
	C58.9,154.5,61.1,156.7,63.8,156.7z"/>
<path class="st6" d="M60.2,156.3c1.4,0,2.5-1.1,2.5-2.5c0-1.4-1.1-2.5-2.5-2.5c-1.4,0-2.5,1.1-2.5,2.5
	C57.8,155.2,58.9,156.3,60.2,156.3z"/>
<path class="st9" d="M100,165.5c3,0,5.4-2.4,5.4-5.4c0-3-2.4-5.4-5.4-5.4c-3,0-5.4,2.4-5.4,5.4C94.6,163.1,97,165.5,100,165.5z"/>
<path class="st6" d="M96.1,165.1c1.5,0,2.7-1.2,2.7-2.7c0-1.5-1.2-2.7-2.7-2.7c-1.5,0-2.7,1.2-2.7,2.7
	C93.5,163.9,94.7,165.1,96.1,165.1z"/>
<path class="st10" d="M298.7,330.3c-8.7,1.5-19.2,0.3-33.3-6.7c5.3-2.3,8.6-6.3,11-11.3c19.1,2.3,36.5-1.5,52.1-11.4
	c4.4-2.8,8.2,0.9,6.1,5.1c-3.8,5.5,0.6,9.3,7.8,5.1c7.7-4.1,11.6,1,8.4,5.5c-4.4,5.5-0.2,6.3,2.4,5.9c6.7,0.1,8.5,7.5-0.8,11.4
	C339.8,340.3,316,340.1,298.7,330.3z"/>
<path class="st11" d="M276.4,312.2c19.1,2.3,36.5-1.5,52.1-11.4c4.4-2.8,8.2,0.9,6.1,5.1c-3.8,5.5,0.6,9.3,7.8,5.1
	c7.7-4.1,11.6,1,8.4,5.5c-4.4,5.5-0.2,6.3,2.4,5.9c6.7,0.1,8.5,7.5-0.8,11.4c-12.7,6.4-36.4,6.2-53.6-3.6"/>
<path class="st11" d="M312.1,326.8c-16.5,6.1-32.2,5.5-46.7-3.2"/>
<path class="st11" d="M336.7,286.3c-2.6,5,0.1,8,4.8,7.4c6.8-0.4,8.4,5.1,4.8,8.9c-2.9,3.5-3.6,5-1.9,7.5"/>
<path class="st8" d="M278.3,227.7c8.3,2.8,6.2,10.8,1.8,13.4c9.7,7.3,5.3,19.9-8.2,21.5c7.9,10.2-0.5,25.4-26.2,22.5 M297.1,259.8
	c32,0.6,53.9-9.9,53.9-15.1c0.1-5.4-18.1-7.3-63-4.1c32.9-8.8,27.5-15.9-9.6-12.8 M335.4,218c4.4-9.9,6.4-20.2,3.2-31.6
	c-40.3,35-51.8,9.2-77.7,13.8 M214.8,267.4c48,44.7,157.2,16.5,156.9,0.9c-0.5-5.8-18.3-9.3-48.3-10.8"/>
<path class="st12" d="M91.4,211.7l9.3-7.4c-0.7-4.5-3.1-7.9-9.2-8.9l-0.3,1.4c-5.9,11.2-19.1,15-39.5,11.6
	C60.7,227.1,74,226.7,91.4,211.7z"/>
<path class="st8" d="M261.6,324.7c7.3-1.5,13-6.4,16.3-16"/>
<path class="st11" d="M51.7,208.4c9.1,18.7,22.4,18.3,39.8,3.4"/>
<path class="st11" d="M100.7,204.3c8.7-8,2.4-18.1-6.5-18.1c-8.1,0.4-14.9-3.3-18.9-10.6c-3.9-8.1-13.8-9.4-21.2-4.5
	c-7.1,3.2-12.7,9.7-25.4,7.1c-9.5-2.1-7.4,23.3,22.9,30.2c18.2,4.3,32.1-0.2,39.5-11.6"/>
<path class="st13" d="M315.4,333.7c8.8,0.8,21.4,0.9,31.9-0.8C337.6,337.5,325.9,337.6,315.4,333.7z"/>
<path class="st14" d="M65.4,183c2.1,0,3.9-1.7,3.9-3.9c0-2.1-1.7-3.9-3.9-3.9c-2.1,0-3.9,1.7-3.9,3.9C61.6,181.3,63.3,183,65.4,183z
	"/>
<path class="st11" d="M87.5,193.9c3.3,0.2,5.8,2.4,4.9,5.6"/>
<path class="st2" d="M97.9,131.2c-9.6-1.5-19.1-0.2-29.8,3.7C77.8,127.4,87.8,126.6,97.9,131.2z"/>
<path class="st2" d="M299,208.1c9.7-0.4,18.8-3.4,28.5-9.2C319.5,208,309.9,210.7,299,208.1z"/>
<path class="st0" d="M248.3,328.9c-9.4-0.8-35.2-2.1-52.2-17.5C207.1,326.1,236.6,334.8,248.3,328.9z"/>
<path class="st15" d="M267.8,275.4c-18,6.7-36.3,0.8-49.2-9.9C227,277.7,257.6,290.5,267.8,275.4z"/>
</svg>
