<?xml version="1.0" encoding="utf-8"?>
<!-- Generator: Adobe Illustrator 21.1.0, SVG Export Plug-In . SVG Version: 6.00 Build 0)  -->
<svg version="1.1" id="Layer_1" xmlns="http://www.w3.org/2000/svg" xmlns:xlink="http://www.w3.org/1999/xlink" x="0px" y="0px"
	 viewBox="0 0 421 426" style="enable-background:new 0 0 421 426;" xml:space="preserve">
<style type="text/css">
	.st0{fill-rule:evenodd;clip-rule:evenodd;fill:#FCC826;}
	.st1{fill-rule:evenodd;clip-rule:evenodd;fill:#E1A836;}
	.st2{fill-rule:evenodd;clip-rule:evenodd;fill:#414042;}
	.st3{fill-rule:evenodd;clip-rule:evenodd;fill:#FFE580;}
	.st4{fill-rule:evenodd;clip-rule:evenodd;fill:#FABFBF;}
	.st5{fill-rule:evenodd;clip-rule:evenodd;fill:#788C94;}
	.st6{fill-rule:evenodd;clip-rule:evenodd;fill:#8AA9B4;}
	.st7{fill:none;stroke:#9A6326;stroke-width:1.6992;stroke-linecap:round;stroke-linejoin:round;stroke-miterlimit:22.9256;}
	.st8{fill-rule:evenodd;clip-rule:evenodd;fill:#9ECAE7;}
	.st9{fill:none;stroke:#546474;stroke-width:1.6992;stroke-linecap:round;stroke-linejoin:round;stroke-miterlimit:22.9256;}
	.st10{fill-rule:evenodd;clip-rule:evenodd;fill:#FFFFFF;}
	.st11{fill-rule:evenodd;clip-rule:evenodd;fill:#FFF9AE;}
	.st12{fill-rule:evenodd;clip-rule:evenodd;fill:#F7A1A1;}
	.st13{fill:none;stroke:#000000;stroke-width:1.6992;stroke-linecap:round;stroke-linejoin:round;stroke-miterlimit:22.9256;}
</style>
<path class="st0" d="M233.7,54.7C230.3,26.4,256.3,10.4,278,17c15.8,5.5,18.8,18.6,15.9,35.1c23.9,0.5,34.9,25.3,27.4,45.4
	c-12.1,26.1-32.3,34.7-60.6,25.9c-4.8,36.2-11,65.5-18.6,88.3c-10,32.5-22.2,52-37.7,52.8c-2.7-0.7-4.6-2.4-5.9-5
	c-3.9-8.8,4.6-9.4,7.1-13.2c3.9-7.9,2.6-16.9,3.8-25.4c-21.3-7.1-34.9-23.1-28.9-43.5c3.7-13,16.5-21.7,22.6-31.2
	c-20.6-5.7-39.6-15-57.1-27.9l58.4-49.1C215,66.1,224.7,61,233.7,54.7z"/>
<path class="st1" d="M242.1,211.5c-10,32.5-22.2,52.1-37.7,52.9c-2.7-0.7-4.6-2.4-5.9-5c9.9,7.6,21.6-4.9,22.2-14.3
	c-12.2-11.4,5.4-46.7-6.1-35.6l-3.6,6l-1.6,5.3c-16.9-4.8-26.9-14.4-26.7-30.8c10.5,13.5,27.4,12.6,32.8,0
	c6.3-15.3-9.2-31.6-3.1-41.2c-3.2-9.1-1.1-24.2,2.5-45.2c8,20.7-13.3,42,27.4,68.5C245.6,175,245.9,193.2,242.1,211.5z"/>
<path class="st2" d="M146,118.4c-11.3-3-18.1-13.1-4.3-21.9C164.6,84.7,166.9,115.8,146,118.4z"/>
<path class="st1" d="M323.6,87.4c-0.5,20.3-26,43.7-62.8,35.8l2.9-45.6C304.7,49.3,323,64,323.6,87.4z"/>
<path class="st3" d="M157.4,112.1c15.4-3.2,49.3-6.3,56.1,1.9c-4.3,15.2-2.3,23.7-1.1,34.9c-32.5-9.5-37.6-11.3-66.4-30.6
	C150.5,118.3,154.3,116.2,157.4,112.1z"/>
<path class="st3" d="M261.7,113.2c-6.6-3.5-17.1-6.3-31.9-4.4c2,16.7,1.7,35.4,15.1,42.3c4.6,2.6,8.4,3.4,11.5,2.6
	C259.2,143.1,260.7,123.2,261.7,113.2z"/>
<path class="st4" d="M263.6,77.6c8.4-3.9,35.2-17.9,47,1.5c9.5,21.1-15.6,53.3-48.9,34L263.6,77.6z"/>
<path class="st5" d="M143,58.9l25.1,1.9c7.7,2.7,10.9,11.2,23,8.1l-2.4-7.8c9.2-1.4,18.4,6.9,33.4,19.2c9.5,2.5,15,14.5,7,24.6
	c-2-9-7.6-12.6-16.6-10.9c3.2,3.7,3,11.1,1.1,20l-33,8.9c-17.5,3.2-31.1-13.7-24-30.8c-4.7,6-10.8,7.6-17.5,7.2
	C110.9,95.6,115.3,57.6,143,58.9z"/>
<path class="st6" d="M159.3,87.7c5.7-4.8,8.6-10.4,5.4-17.9l17.7-0.3l8.6-0.7c-0.3-2.9-1-5.2-2.3-7.8l-43.4-2l7.9,4.5L159.3,87.7z"
	/>
<path class="st6" d="M192.1,117c9.8-3.1,12.6-18.8,9.6-26.8l29.2-2.5c-2.2-5.4-4.8-6.7-11.5-7.8l-39-0.3l7.9,4.5L192.1,117z"/>
<path class="st1" d="M160.2,198.2c7.5,4.1,16.4,6.9,26.1,8.7c-6.3-9.4-8.8-19.2-5.8-29.6C169.3,180.9,162.5,187.9,160.2,198.2z"/>
<path class="st7" d="M180.6,177.3c-11.2,3.6-18,10.6-20.3,20.9"/>
<path class="st0" d="M246.5,197.4l-4.4,14.1c22.1-1.5,25.9-37.8,63.9-33.4C275.8,167.5,266.3,191,246.5,197.4z"/>
<path class="st1" d="M246.5,197.4l-4.4,14.1c22.1-1.5,25.9-37.8,63.9-33.4C276.7,171.2,257.3,203.9,246.5,197.4z"/>
<path class="st8" d="M153.3,63.6c11.5,8.6,11.6,33.1-10.9,35.7c-17.8-3.6-19.9-35.4,4-37.7C152.9,61,151,62.9,153.3,63.6z"/>
<path class="st8" d="M185.2,81.7c14.6,3,23.2,33.7-4.5,41.2c-6.8-1.4-12.7-6.1-15.3-13c-4.1-10.7,1.4-22.7,12.1-26.8
	C180,82.1,182.6,81.7,185.2,81.7z"/>
<path class="st1" d="M292.5,52c-10-0.1-19,2.5-27.2,6.8c-0.7-11.4-4.3-20.1-10.7-26.1l-0.3,10.4c-1.2-4.6-3.4-8.3-6.7-11.3
	l-2.3,13.9l-11.6,8.9c-3.4-33,29.2-43.4,44.4-37.7C293.8,23.1,299.4,38.3,292.5,52z"/>
<path class="st9" d="M142.4,99.3c-6.1-1.8-11.2-6.7-13.1-13.3c-2.8-10.3,3.2-20.9,13.4-23.7c2.4-0.7,4.9-0.9,7.3-0.6"/>
<path class="st9" d="M180.8,122.9c-6.8-1.4-12.8-6.2-15.5-13.2c-4.1-10.8,1.4-22.9,12.2-27c2.6-1,5.2-1.4,7.8-1.3"/>
<path class="st7" d="M233.7,54.7C230.3,21.7,261.9,11,278,17c16.1,5.6,21.4,21.3,14.4,35"/>
<path class="st9" d="M176.6,79.4l43.8,0.5c10.4,1.2,17.1,15.7,8.7,25.1"/>
<line class="st9" x1="184.9" y1="121.6" x2="213.6" y2="114"/>
<path class="st9" d="M188.6,61.1l3.2,0.1c3.7,0.1,8.3,2.9,10.6,4.8 M143,58.9l23.8,1.5"/>
<path class="st0" d="M191,68.8c-0.4-13.2-13.4-15.5-24.4-8.4C178.8,63,176.2,72.1,191,68.8z"/>
<path class="st7" d="M221.3,167.9c-23.2-34.6,0.5-56.7-8.9-73.9c4.4-1.4,8.2,1.1,11.4,7.6 M212.5,149c-24.2-6.7-46.8-16.1-66.4-30.6
	 M203.1,146.2c-4.2,10.6-20.3,18.1-22.9,32.7c-3.4,15.8,3.7,34.7,29.2,42.1 M198.5,259.4c0.9,2.9,3,4.4,5.9,5
	c0.4-3.4,1.4-6.5,3.6-9.2 M203.5,253.3c-2.9,1.3-4.4,3.4-5,6.1c-4.3-10,5.2-9.1,7.1-13.2c5.7-8.4-0.9-24.6,9-36.7 M242.1,211.5
	c22.1-1.5,25.9-37.8,63.9-33.4c-30.2-10.6-39.7,12.9-59.5,19.3 M204.4,264.4c14.2-0.9,26.9-16.3,37.7-52.9
	c12.7-37.8,20.2-81.9,21.6-133.9C294,61.8,309,70,312.3,84c4.7,20.8-20.5,41.2-39.9,33.4 M256.6,64.1c34.9-24.3,61.8-8.4,66.4,11.7
	c6.5,27.9-23.8,63.3-62.3,47.4 M254.3,43.1c0.6-3.3,0.7-6.7,0.3-10.4c6.5,5.8,10.2,14.7,10.7,26.1 M240.2,58.8
	c4.9-9.5,6.8-18.4,7.5-27c5.1,4.4,7.6,11.9,8.5,21.3 M206,68.7c12.8-4.2,28.1-13.5,38.9-22.4 M215.3,93.7
	c25.4-1.4,6.4,44.5,29.7,57.3"/>
<path class="st3" d="M182.5,181.2c3-8.5,8.6-15,16.8-20.9C189.1,163.5,183,170.7,182.5,181.2z"/>
<path class="st10" d="M137.2,92.1c-3.4-7.1-3.6-14.4-1.4-22.8C130.3,77.1,130.5,85.2,137.2,92.1z"/>
<path class="st10" d="M172.4,114.6c-3.4-7.1-3.6-14.4-1.4-22.8C165.5,99.6,165.7,107.7,172.4,114.6z"/>
<path class="st3" d="M265.2,61.6c9.2-3.5,20.1-5.2,29.2-5.9C287.3,53.2,273.8,55.4,265.2,61.6z"/>
<path class="st3" d="M210.7,227.6c0.1,6.8-1,13.3-4.3,20C212.9,242.2,212.3,233,210.7,227.6z"/>
<path class="st11" d="M231.3,108.5c10.2-0.6,19.4-0.1,28.8,3.7C254.4,104.6,240.5,104.7,231.3,108.5z"/>
<path class="st0" d="M243.7,29.9c8.1-6.8,17.6-10,29.4-11C260.9,16,250.4,19.6,243.7,29.9z"/>
<path class="st12" d="M307.6,99.2c-6.4,8.3-15,13.5-26.3,17.1C293.8,116.5,303.3,110.7,307.6,99.2z"/>
<path class="st9" d="M197,79.6l-16.7-11.1c2.6,3.3,3.1,7,2.4,10.9"/>
<line class="st9" x1="202.4" y1="66" x2="223.8" y2="80.8"/>
<path class="st7" d="M217.7,67.2c2.5,0.1,4.6,1.5,5,3.8 M237.7,82.7c2.5,1.7,3.5,4.5,2.5,7 M182,138.5c7.1,0.1,14.8-4.2,23-12.9
	 M201.9,123.5c3.4-0.4,4.9,2.1,3.8,5.2 M183.5,62c3.8,1,6,3.7,7.5,6.8c-0.4-13.2-13.4-15.5-24.4-8.4c12.2,2.6,9.6,11.7,24.4,8.4"/>
<path class="st13" d="M146,118.4c-13.8-2.9-15.1-14.8-6.3-18.8"/>
<path class="st13" d="M146,118.4c4.6-0.3,10-2.9,11.1-6.9"/>
<path class="st9" d="M176.6,123.3c12.1,0,22-9.9,22-22c0-12.1-9.9-22-22-22c-12.1,0-22,9.9-22,22
	C154.7,113.4,164.5,123.3,176.6,123.3z"/>
<path class="st9" d="M140.4,99.7c11.3,0,20.5-9.2,20.5-20.5s-9.2-20.5-20.5-20.5s-20.5,9.2-20.5,20.5S129.1,99.7,140.4,99.7z"/>
</svg>
