<?xml version="1.0" encoding="utf-8"?>
<!-- Generator: Adobe Illustrator 21.1.0, SVG Export Plug-In . SVG Version: 6.00 Build 0)  -->
<svg version="1.1" id="Layer_1" xmlns="http://www.w3.org/2000/svg" xmlns:xlink="http://www.w3.org/1999/xlink" x="0px" y="0px"
	 viewBox="0 0 421 426" style="enable-background:new 0 0 421 426;" xml:space="preserve">
<style type="text/css">
	.st0{fill-rule:evenodd;clip-rule:evenodd;fill:#E9F7FE;}
	.st1{fill-rule:evenodd;clip-rule:evenodd;fill:#FFFFFF;}
	.st2{fill-rule:evenodd;clip-rule:evenodd;fill:#CAE197;}
	.st3{fill-rule:evenodd;clip-rule:evenodd;fill:#DBEAB4;}
</style>
<path class="st0" d="M59.2,404.9c-63.4-17.3-86.3-107.2,4.5-123.5c17.9-3.2,23.2-22.4,0.5-29.3C14.1,237-6.5,204.2,1.7,170
	c11.1-46,67.5-56.4,33.8-89.7c-19.3-19,15-50.8,54.7-31.5c29.9,14.5,48.3,2,37.9-17.5c-29.4-55,198.1-34,149.7,34.1L323,75.9
	c48.8,12.7,56.4,36.1,54.2,53.6c-2.7,21.9-40.4,36.8-10.7,58.3c45.2,32.9,67.9,99.9,46.1,148c-34.6,76-133.6,92-201.4,89.6
	c-0.2-3.9-7.5-10.9-11.3-11.5c-7.6-1.2-9.5,7.8-11.3,4.3c-10.5-20.4-39.9,0.9-32.5-6.5c7.4-7.4-4.8-10.4-10.4-10.4
	c-0.4,0,14.6-15.4-1.7-21.2c-9.4-3.3-23,12.6-23,11.7c0-2.6,0-4.8-0.4-7.4c-2.6-10.8-14.7-3.5-16.5,5.2c0-3.9-7.4-20.4-10.8-9.5
	c-0.9,2.6,1.3,3.9-0.9,1.7c0,0-4.3-10.4-4.3-10.8c-2.6-5.2-6.9-4.8-9.5-2.2c-5.6,5.6-3,18.2-1.3,25.6c0.9,4.3-10.5-21.2-17.8-21.2
	c-5.2,0-7.8,4.3-7.8,8.7C51.9,388.9,53.6,400.1,59.2,404.9z"/>
<path class="st1" d="M260,138.5l-9.5-23.3l43.8-14.6c19.3-10.1,41.6,5.1,27.9,21.2c9.7-1.1,16.1,9.7,11.5,17
	c25.8,3.1,1,34.3-20.9,11.5c2.8,15.2-36.9,20.4-37.8-0.3C263.6,159,251.8,148.7,260,138.5z"/>
<path class="st1" d="M83.4,308.7c-16.7-0.7-17.1,18.9-1.8,17.3c-8.1,19.9,29.3,27.5,35.9,8.4c12.2,10.5,33.2,1.3,29-7.2
	c16.1-4.4,5.3-30.5-15-18.5C129.1,283.3,79.6,286.6,83.4,308.7z"/>
<path class="st1" d="M247.9,370.2c-14.6-2.8-18.3,10.6-8.8,13.3c-5.3,8.8,11.6,14,16.7,5.7c8.4,13.1,33.7,3,27.2-4.7
	c7.7-1.3,7.2-13.5-6.6-11.2C278.9,359,246.7,357.3,247.9,370.2z"/>
<path class="st1" d="M322.6,355.3c9.2-2.5,10.8,9.9,3.3,10.3c2.5,6.2-7.4,7.7-8.8,3.1c-16.1,11-27.4-8.3-14.5-11.2
	C301,347.3,323.4,346.1,322.6,355.3z"/>
<path class="st2" d="M211.2,425.7c-52.6,1.7-103.8-2.8-152-20.8c-5.6-4.8-7.4-16-7.4-23c0-4.3,2.6-8.7,7.8-8.7
	c7.3,0,18.6,25.6,17.8,21.2c-1.7-7.4-4.3-19.9,1.3-25.6c2.6-2.6,6.9-3,9.5,2.2c0,0.4,4.3,10.8,4.3,10.8c2.2,2.2,0,0.9,0.9-1.7
	c3.5-10.8,10.8,5.6,10.8,9.5c1.7-8.7,13.9-16,16.5-5.2c0.4,2.6,0.4,4.8,0.4,7.4c0,0.9,13.6-15,23-11.7c16.4,5.8,1.3,21.2,1.7,21.2
	c5.6,0,17.8,3,10.4,10.4c-7.4,7.4,22-13.9,32.5,6.5c1.8,3.5,3.7-5.6,11.3-4.3C203.8,414.6,211.2,421.8,211.2,425.7z"/>
<path class="st3" d="M184.8,404.9c0.7-0.5,24.6,0.9,20.8-4.8C202,394.7,188.2,399.5,184.8,404.9z M170.5,401.4
	c-0.4-13.2,11-12.6,18.6-16.5c0,0,0.7-0.4,0.4,0.4C183.6,402.9,169.6,401.9,170.5,401.4z"/>
</svg>
