<?xml version="1.0" encoding="utf-8"?>
<!-- Generator: Adobe Illustrator 21.1.0, SVG Export Plug-In . SVG Version: 6.00 Build 0)  -->
<svg version="1.1" id="Layer_1" xmlns="http://www.w3.org/2000/svg" xmlns:xlink="http://www.w3.org/1999/xlink" x="0px" y="0px"
	 viewBox="0 0 421 426" style="enable-background:new 0 0 421 426;" xml:space="preserve">
<style type="text/css">
	.st0{fill-rule:evenodd;clip-rule:evenodd;fill:#E9F7FE;}
	.st1{fill-rule:evenodd;clip-rule:evenodd;fill:#BB7446;}
	.st2{fill-rule:evenodd;clip-rule:evenodd;fill:#A16044;}
	.st3{fill-rule:evenodd;clip-rule:evenodd;fill:#FFFFFF;}
	.st4{fill-rule:evenodd;clip-rule:evenodd;fill:#D58F5C;}
	.st5{fill-rule:evenodd;clip-rule:evenodd;fill:#414042;}
	.st6{fill-rule:evenodd;clip-rule:evenodd;fill:#FABFBF;}
	.st7{fill-rule:evenodd;clip-rule:evenodd;fill:#788C94;}
	.st8{fill-rule:evenodd;clip-rule:evenodd;fill:#8AA9B4;}
	.st9{fill-rule:evenodd;clip-rule:evenodd;fill:#FAA74A;}
	.st10{fill:none;stroke:#823436;stroke-width:1.6992;stroke-linecap:round;stroke-linejoin:round;stroke-miterlimit:22.9256;}
	.st11{fill-rule:evenodd;clip-rule:evenodd;fill:#EBB081;}
	.st12{fill-rule:evenodd;clip-rule:evenodd;fill:#FED1A2;}
	.st13{fill-rule:evenodd;clip-rule:evenodd;fill:#E69065;}
	.st14{fill-rule:evenodd;clip-rule:evenodd;fill:#C7EAFB;}
	.st15{fill-rule:evenodd;clip-rule:evenodd;}
	.st16{fill-rule:evenodd;clip-rule:evenodd;fill:#F9A57B;}
	.st17{fill:none;stroke:#A82E31;stroke-width:1.6992;stroke-linecap:round;stroke-linejoin:round;stroke-miterlimit:22.9256;}
	.st18{fill:none;stroke:#000000;stroke-width:1.6992;stroke-linecap:round;stroke-linejoin:round;stroke-miterlimit:22.9256;}
	.st19{fill-rule:evenodd;clip-rule:evenodd;fill:#9ECAE7;}
	.st20{fill:none;stroke:#546474;stroke-width:1.6992;stroke-linecap:round;stroke-linejoin:round;stroke-miterlimit:22.9256;}
	.st21{fill-rule:evenodd;clip-rule:evenodd;fill:#CAE197;}
	.st22{fill-rule:evenodd;clip-rule:evenodd;fill:#DBEAB4;}
	.st23{fill-rule:evenodd;clip-rule:evenodd;fill:#F18A2E;}
	.st24{fill-rule:evenodd;clip-rule:evenodd;fill:#F7A1A1;}
	.st25{fill-rule:evenodd;clip-rule:evenodd;fill:#FDCEAE;}
	.st26{fill-rule:evenodd;clip-rule:evenodd;fill:#A82E31;}
	.st27{fill:none;stroke:#ED1651;stroke-width:8.4958;stroke-linecap:round;stroke-linejoin:round;stroke-miterlimit:22.9256;}
</style>
<path class="st0" d="M59.2,404.9c-63.4-17.3-86.3-107.2,4.5-123.5c17.9-3.2,23.2-22.4,0.5-29.3C14.1,237-6.5,204.2,1.7,170
	c11.1-46,67.5-56.4,33.8-89.7c-19.3-19,15-50.8,54.7-31.5c29.9,14.5,48.3,2,37.9-17.5c-29.4-55,198.1-34,149.7,34.1L323,75.9
	c48.8,12.7,56.4,36.1,54.2,53.6c-2.7,21.9-40.4,36.8-10.7,58.3c45.2,32.9,67.9,99.9,46.1,148c-34.6,76-133.6,92-201.4,89.6
	c-0.2-3.9-7.5-10.9-11.3-11.5c-7.6-1.2-9.5,7.8-11.3,4.3c-10.5-20.4-39.9,0.9-32.5-6.5c7.4-7.4-4.8-10.4-10.4-10.4
	c-0.4,0,14.6-15.4-1.7-21.2c-9.4-3.3-23,12.6-23,11.7c0-2.6,0-4.8-0.4-7.4c-2.6-10.8-14.7-3.5-16.5,5.2c0-3.9-7.4-20.4-10.8-9.5
	c-0.9,2.6,1.3,3.9-0.9,1.7c0,0-4.3-10.4-4.3-10.8c-2.6-5.2-6.9-4.8-9.5-2.2c-5.6,5.6-3,18.2-1.3,25.6c0.9,4.3-10.5-21.2-17.8-21.2
	c-5.2,0-7.8,4.3-7.8,8.7C51.9,388.9,53.6,400.1,59.2,404.9z"/>
<path class="st1" d="M260.9,200.2l-74.5,6.7c-20.9-4.3-39.4-10.9-46.4-28.5c-4.9-13.3-2.4-27.1-14.6-40l3.5-2.4l-6.2-2.7l4.7-2.3
	l1.9-2.9c-5.3,1.7-12.8,0.8-21.3-1.4c-28.4-7.6-56.3,1.7-61.4,36.3l6.7,4.5l2.3,2.7c12-5.2,17.2,1.3,23.4,10.4l28.9,0.3
	c12.1,1.1,19.1,15.7,13.1,24.8l-3,5.1l-3.9,3.7c31,18.2,41.2,50.8,59.3,79.1c4.4,5.4,4.8,12.9,13.3,16.2
	c23.3,25.3,57.3,30.7,87.1,17.7l-8.4-4.1c4.6-2.3,8.2-6.1,11-11.3l22.2-0.2c7.2-6,13.8-13.2,19.4-22.3
	c64.1-12.6,70.8-27.3,18.8-31.3l2-4.9c15.2-7.2,15.6-11.6,4-13.3c3.4-13.4,3.4-27.2-1.6-41.5l-2.6-12.4
	C298.3,221.5,286.8,195.7,260.9,200.2z"/>
<path class="st2" d="M342.4,201.8c4,10.4,3.7,23.4,0.5,38.2l-6,18.5l-13.4-0.9l15-4.1l4.3-13.2l-22.4-1.3
	C335,232.5,341.8,219,342.4,201.8z"/>
<path class="st2" d="M226.8,276.5c-48.1,26.5-90.6-60.8-97.7-78.4c7.6-12.1,5.8-30.8-2-38.9c4.1,9.4-0.2,33.8-15.5,22.6
	c10,4.2,13.6,18.1,9.2,23.9l-3,5.1l-3.9,3.7c31,18.2,41.2,50.8,59.3,79.1c4.4,5.4,4.8,12.9,13.3,16.2c23.3,25.3,57.3,30.7,87.1,17.7
	l-8.4-4.1c4.6-2.3,8.2-6.1,11-11.3l11.1-0.1l11.1-0.1c7.2-6,13.8-13.2,19.4-22.3C281.4,294.4,250.2,291.2,226.8,276.5z"/>
<path class="st3" d="M260,138.5l-9.5-23.3l43.8-14.6c19.3-10.1,41.6,5.1,27.9,21.2c9.7-1.1,16.1,9.7,11.5,17
	c25.8,3.1,1,34.3-20.9,11.5c2.8,15.2-36.9,20.4-37.8-0.3C263.6,159,251.8,148.7,260,138.5z"/>
<path class="st4" d="M245.9,285c-11.3-3.4-21.6-9.2-31-17.6c-13.9-11.4-5.8-38.1,63.5-39.8c8.3,2.8,6.2,10.8,1.8,13.4
	c9.7,7.3,5.3,19.9-8.2,21.5C279.8,272.7,271.5,288,245.9,285z"/>
<path class="st1" d="M233.7,54.7C230.3,26.4,256.3,10.4,278,17c15.8,5.5,18.8,18.6,15.9,35.1c23.9,0.5,34.9,25.3,27.4,45.4
	c-12.1,26.1-32.3,34.7-60.6,25.9c-4.8,36.2-11,65.5-18.6,88.3c-10,32.5-22.2,52-37.7,52.8c-2.7-0.7-4.6-2.4-5.9-5
	c-3.9-8.8,4.6-9.4,7.1-13.2c3.9-7.9,2.6-16.9,3.8-25.4c-21.3-7.1-34.9-23.1-28.9-43.5c3.7-13,16.5-21.7,22.6-31.2
	c-20.6-5.7-39.6-15-57.1-27.9l58.4-49.1C215,66.1,224.7,61,233.7,54.7z"/>
<path class="st2" d="M242.1,211.5c-10,32.5-22.2,52.1-37.7,52.9c-2.7-0.7-4.6-2.4-5.9-5c9.9,7.6,21.6-4.9,22.2-14.3
	c-12.2-11.4,5.4-46.7-6.1-35.6l-3.6,6l-1.6,5.3c-16.9-4.8-26.9-14.4-26.7-30.8c10.5,13.5,27.4,12.6,32.8,0
	c6.3-15.3-9.2-31.6-3.1-41.2c-3.2-9.1-1.1-24.2,2.5-45.2c8,20.7-13.3,42,27.4,68.5C245.6,175,245.9,193.2,242.1,211.5z"/>
<path class="st5" d="M146,118.4c-11.3-3-18.1-13.1-4.3-21.9C164.6,84.7,166.9,115.8,146,118.4z"/>
<path class="st2" d="M323.6,87.4c-0.5,20.3-26,43.7-62.8,35.8l2.9-45.6C304.7,49.3,323,64,323.6,87.4z"/>
<path class="st4" d="M157.4,112.1c15.4-3.2,49.3-6.3,56.1,1.9c-4.3,15.2-2.3,23.7-1.1,34.9c-32.5-9.5-37.6-11.3-66.4-30.6
	C150.5,118.3,154.3,116.2,157.4,112.1z"/>
<path class="st4" d="M261.7,113.2c-6.6-3.5-17.1-6.3-31.9-4.4c2,16.7,1.7,35.4,15.1,42.3c4.6,2.6,8.4,3.4,11.5,2.6
	C259.2,143.1,260.7,123.2,261.7,113.2z"/>
<path class="st6" d="M263.6,77.6c8.4-3.9,35.2-17.9,47,1.5c9.5,21.1-15.6,53.3-48.9,34L263.6,77.6z"/>
<path class="st7" d="M143,58.9l25.1,1.9c7.7,2.7,10.9,11.2,23,8.1l-2.4-7.8c9.2-1.4,18.4,6.9,33.4,19.2c9.5,2.5,15,14.5,7,24.6
	c-2-9-7.6-12.6-16.6-10.9c3.2,3.7,3,11.1,1.1,20l-33,8.9c-17.5,3.2-31.1-13.7-24-30.8c-4.7,6-10.8,7.6-17.5,7.2
	C110.9,95.6,115.3,57.6,143,58.9z"/>
<path class="st8" d="M159.3,87.7c5.7-4.8,8.6-10.4,5.4-17.9l17.7-0.3l8.6-0.7c-0.3-2.9-1-5.2-2.3-7.8l-43.4-2l7.9,4.5L159.3,87.7z"
	/>
<path class="st8" d="M192.1,117c9.8-3.1,12.6-18.8,9.6-26.8l29.2-2.5c-2.2-5.4-4.8-6.7-11.5-7.8l-39-0.3l7.9,4.5L192.1,117z"/>
<path class="st4" d="M95.3,180.9c11.3-3.5,23.1,2,26.4,12.4c3.3,10.4-3.3,21.6-14.6,25.1c-11.3,3.5-23.1-2-26.4-12.4
	C77.4,195.7,83.9,184.4,95.3,180.9z"/>
<path class="st9" d="M91.1,196.8l9.6,7.6c8.7-8,2.4-18.1-6.5-18.1c-8.1,0.4-14.9-3.3-18.9-10.6c-3.9-8.1-13.8-9.4-21.2-4.5
	c-7.1,3.2-12.7,9.7-25.4,7.1c-9.5-2.1-7.4,23.3,22.9,30.2C69.8,212.6,83.7,208.1,91.1,196.8z"/>
<path class="st10" d="M278.3,227.7c8.3,2.8,6.2,10.8,1.8,13.4c9.7,7.3,5.3,19.9-8.2,21.5c7.9,10.2-0.5,25.4-26.2,22.5"/>
<path class="st4" d="M188.8,211.9c-15.2-4.3-32.9-12.8-44.1-21.5C150.1,201.7,171.8,210.5,188.8,211.9z"/>
<path class="st11" d="M267.8,275.4c-18,6.7-36.3,0.8-49.2-9.9C227,277.7,257.6,290.5,267.8,275.4z"/>
<path class="st4" d="M97.9,131.2c-9.6-1.5-19.1-0.2-29.8,3.7C77.8,127.4,87.8,126.6,97.9,131.2z"/>
<path class="st4" d="M299,208.1c9.7-0.4,18.8-3.4,28.5-9.2C319.5,208,309.9,210.7,299,208.1z"/>
<path class="st1" d="M248.3,328.9c-9.4-0.8-35.2-2.1-52.2-17.5C207.1,326.1,236.6,334.8,248.3,328.9z"/>
<path class="st12" d="M62.8,204.8c-10.4-0.2-30.8-9.1-35-19.3C30.3,199.7,49.8,206.8,62.8,204.8z"/>
<path class="st13" d="M344.3,310.2l-6.4,2.6l-39.3-0.7c7.5-6.6,14.3-13.8,19.4-22.3l18.6-3.4c-2.6,5,0.1,8,4.8,7.4
	c6.8-0.4,8.4,5.1,4.8,8.9C343.3,306.1,342.6,307.6,344.3,310.2z"/>
<path class="st2" d="M160.2,198.2c7.5,4.1,16.4,6.9,26.1,8.7c-6.3-9.4-8.8-19.2-5.8-29.6C169.3,180.9,162.5,187.9,160.2,198.2z"/>
<path class="st10" d="M46.6,163c2.6-17.1,11.2-30.1,26.3-35.8c26.9-9.8,37.2,5.4,56.5,0.9c-1.4,4.1-6.5,6.2-15.2,6.2"/>
<path class="st3" d="M65.8,168.5c-3.2-0.9-6.6-0.3-10.3,1.8l-6.3-5.5c2.5-13.4,10.1-21.9,14.1-21.4
	C68.4,144.1,70.3,154.2,65.8,168.5z"/>
<path class="st10" d="M122.8,133.5l6.2,2.7c-4.2,3.2-8,5.2-10.9,4.3"/>
<path class="st10" d="M186.3,206.9c-18.8-3.2-35.3-12.2-42.1-21.1c-10.3-11.8-3.3-31.2-18.9-47.3"/>
<path class="st10" d="M114.1,214.6c35.3,22.3,42,54.8,59.3,79.1c4,6,10.1,4.8,10.4-1.8"/>
<path class="st4" d="M36.1,178.7c9.3-0.5,13-5.7,19.6-8.5C47.5,159,33.8,162.2,36.1,178.7z"/>
<path class="st10" d="M173.4,293.7c8.9,16.7,15,18.6,20,13.9"/>
<path class="st10" d="M342.9,240c4.2-18.7,2.8-32.7-2.7-43.2 M336.9,258.5c0.7-1.6,1.4-3.5,2-4.9 M298.6,312
	c8-7,13.1-12.1,19.4-22.3 M186.7,309.9c23.5,24.7,56.8,30.7,87.1,17.7"/>
<path class="st3" d="M107.8,180.9c-5.2-0.3-9.8,1.5-13.7,5.3c-6.5,0.1-11.6-1.8-15.2-5.6c5.1-17.8,11-29,18.1-28.5
	C106.2,153.2,109.5,167.4,107.8,180.9z"/>
<path class="st14" d="M96.8,151.9c11.9,0.2,12.7,19.1,11.1,28.8l0.3-3.2C75.7,189.4,86.7,151.2,96.8,151.9z"/>
<path class="st14" d="M63.4,143.4c6.6,0.8,7.9,22-1,22.2C47.7,166.8,54.1,143.6,63.4,143.4z"/>
<path class="st10" d="M55.6,170.2c-8.2-11.3-21.9-8-19.6,8.5"/>
<path class="st10" d="M94.2,186.2c13.9-13.4,34,0.3,26.8,19.5"/>
<path class="st10" d="M117.2,195.1c13.6,10.2-10,33.5-30.6,20.4"/>
<path class="st10" d="M120.4,206.9c5.5-2.9,10.8-9.2,13.1-20.5"/>
<path class="st10" d="M69.5,141.5c-1-3.8-3.6-4.6-7-3"/>
<path class="st10" d="M90.9,149.8c6.1-5.3,10.8-3.5,15,1.5"/>
<path class="st15" d="M63.8,156.7c2.7,0,4.9-2.2,4.9-4.9c0-2.7-2.2-4.9-4.9-4.9c-2.7,0-4.9,2.2-4.9,4.9
	C58.9,154.5,61.1,156.7,63.8,156.7z"/>
<path class="st10" d="M49.4,164.7c2.5-13.4,10.1-21.9,14.1-21.4c5,0.7,6.9,10.7,2.4,25.2"/>
<path class="st3" d="M60.2,156.3c1.4,0,2.5-1.1,2.5-2.5c0-1.4-1.1-2.5-2.5-2.5c-1.4,0-2.5,1.1-2.5,2.5
	C57.7,155.2,58.9,156.3,60.2,156.3z"/>
<path class="st15" d="M100,165.5c3,0,5.4-2.4,5.4-5.4c0-3-2.4-5.4-5.4-5.4c-3,0-5.4,2.4-5.4,5.4C94.6,163.1,97,165.5,100,165.5z"/>
<path class="st3" d="M96.1,165.1c1.5,0,2.7-1.2,2.7-2.7c0-1.5-1.2-2.7-2.7-2.7c-1.5,0-2.7,1.2-2.7,2.7
	C93.5,163.9,94.7,165.1,96.1,165.1z"/>
<path class="st10" d="M78.9,180.6c5.1-17.8,11-29,18.1-28.5c9.1,1,12.4,15.3,10.8,28.8"/>
<path class="st10" d="M297.1,259.8c32,0.6,53.9-9.9,53.9-15.1c0.1-5.4-18.1-7.3-63-4.1c32.9-8.8,27.5-15.9-9.6-12.8"/>
<path class="st16" d="M298.7,330.3c-8.7,1.5-19.2,0.3-33.3-6.7c5.3-2.3,8.6-6.3,11-11.3c19.1,2.3,36.5-1.5,52.1-11.4
	c4.4-2.8,8.2,0.9,6.1,5.1c-3.8,5.5,0.6,9.3,7.8,5.1c7.7-4.1,11.6,1,8.4,5.5c-4.4,5.5-0.2,6.3,2.4,5.9c6.7,0.1,8.5,7.5-0.8,11.4
	C339.8,340.3,316,340.1,298.7,330.3z"/>
<path class="st10" d="M335.4,218c4.4-9.9,6.4-20.2,3.2-31.6c-40.3,35-51.8,9.2-77.7,13.8"/>
<path class="st17" d="M276.4,312.2c19.1,2.3,36.5-1.5,52.1-11.4c4.4-2.8,8.2,0.9,6.1,5.1c-3.8,5.5,0.6,9.3,7.8,5.1
	c7.7-4.1,11.6,1,8.4,5.5c-4.4,5.5-0.2,6.3,2.4,5.9c6.7,0.1,8.5,7.5-0.8,11.4c-12.7,6.4-36.4,6.2-53.6-3.6"/>
<path class="st17" d="M312.1,326.8c-16.5,6.1-32.2,5.5-46.7-3.2"/>
<path class="st17" d="M336.7,286.3c-2.6,5,0.1,8,4.8,7.4c6.8-0.4,8.4,5.1,4.8,8.9c-2.9,3.5-3.6,5-1.9,7.5"/>
<path class="st10" d="M212.5,149c-24.2-6.7-46.8-16.1-66.4-30.6"/>
<path class="st18" d="M146,118.4c-13.8-2.9-15.1-14.8-6.3-18.8"/>
<path class="st10" d="M203.1,146.2c-4.2,10.6-20.3,18.1-22.9,32.7c-3.4,15.8,3.7,34.7,29.2,42.1"/>
<path class="st10" d="M180.6,177.3c-11.2,3.6-18,10.6-20.3,20.9"/>
<path class="st10" d="M203.5,253.3c-2.9,1.3-4.4,3.4-5,6.1c-4.3-10,5.2-9.1,7.1-13.2c5.7-8.4-0.9-24.6,9-36.7"/>
<path class="st1" d="M246.5,197.4l-4.4,14.1c22.1-1.5,25.9-37.8,63.9-33.4C275.8,167.5,266.3,191,246.5,197.4z"/>
<path class="st2" d="M246.5,197.4l-4.4,14.1c22.1-1.5,25.9-37.8,63.9-33.4C276.7,171.2,257.3,203.9,246.5,197.4z"/>
<path class="st10" d="M198.5,259.4c0.9,2.9,3,4.4,5.9,5c0.4-3.4,1.4-6.5,3.6-9.2"/>
<path class="st10" d="M204.4,264.4c14.2-0.9,26.9-16.3,37.7-52.9c12.7-37.8,20.2-81.9,21.6-133.9C294,61.8,309,70,312.3,84
	c4.7,20.8-20.5,41.2-39.9,33.4"/>
<path class="st10" d="M242.1,211.5c22.1-1.5,25.9-37.8,63.9-33.4c-30.2-10.6-39.7,12.9-59.5,19.3"/>
<path class="st10" d="M182,138.5c7.1,0.1,14.8-4.2,23-12.9"/>
<path class="st10" d="M201.9,123.5c3.4-0.4,4.9,2.1,3.8,5.2"/>
<path class="st19" d="M153.3,63.6c11.5,8.6,11.6,33.1-10.9,35.7c-17.8-3.6-19.9-35.4,4-37.7C152.9,61,151,62.9,153.3,63.6z"/>
<path class="st19" d="M185.2,81.7c14.6,3,23.2,33.7-4.5,41.2c-6.8-1.4-12.7-6.1-15.3-13c-4.1-10.7,1.4-22.7,12.1-26.8
	C180,82.1,182.6,81.7,185.2,81.7z"/>
<path class="st2" d="M292.5,52c-10-0.1-19,2.5-27.2,6.8c-0.7-11.4-4.3-20.1-10.7-26.1l-0.3,10.4c-1.2-4.6-3.4-8.3-6.7-11.3
	l-2.3,13.9l-11.6,8.9c-3.4-33,29.2-43.4,44.4-37.7C293.8,23.1,299.4,38.3,292.5,52z"/>
<path class="st20" d="M142.4,99.3c-6.1-1.8-11.2-6.7-13.1-13.3c-2.8-10.3,3.2-20.9,13.4-23.7c2.4-0.7,4.9-0.9,7.3-0.6"/>
<path class="st20" d="M180.8,122.9c-6.8-1.4-12.8-6.2-15.5-13.2c-4.1-10.8,1.4-22.9,12.2-27c2.6-1,5.2-1.4,7.8-1.3"/>
<path class="st10" d="M206,68.7c12.8-4.2,28.1-13.5,38.9-22.4"/>
<path class="st10" d="M240.2,58.8c4.9-9.5,6.8-18.4,7.5-27c5.1,4.4,7.6,11.9,8.5,21.4"/>
<path class="st10" d="M254.3,43.1c0.6-3.3,0.7-6.7,0.3-10.4c6.5,5.8,10.2,14.7,10.7,26.1"/>
<path class="st10" d="M233.7,54.7C230.3,21.7,261.9,11,278,17c16.1,5.6,21.4,21.3,14.4,35"/>
<path class="st10" d="M217.7,67.2c2.5,0.1,4.6,1.5,5,3.8"/>
<path class="st10" d="M237.7,82.7c2.5,1.7,3.5,4.5,2.5,7"/>
<path class="st3" d="M83.4,308.7c-16.7-0.7-17.1,18.9-1.8,17.3c-8.1,19.9,29.3,27.5,35.9,8.4c12.2,10.5,33.2,1.3,29-7.2
	c16.1-4.4,5.3-30.5-15-18.5C129.1,283.3,79.6,286.6,83.4,308.7z"/>
<path class="st3" d="M247.9,370.2c-14.6-2.8-18.3,10.6-8.8,13.3c-5.3,8.8,11.6,14,16.7,5.7c8.4,13.1,33.7,3,27.2-4.7
	c7.7-1.3,7.2-13.5-6.6-11.2C278.9,359,246.7,357.3,247.9,370.2z"/>
<path class="st3" d="M322.6,355.3c9.2-2.5,10.8,9.9,3.3,10.3c2.5,6.2-7.4,7.7-8.8,3.1c-16.1,11-27.4-8.3-14.5-11.2
	C301,347.3,323.4,346.1,322.6,355.3z"/>
<path class="st20" d="M176.6,79.4l43.8,0.5c10.4,1.2,17.1,15.7,8.7,25.1"/>
<line class="st20" x1="184.9" y1="121.6" x2="213.6" y2="114"/>
<path class="st20" d="M188.6,61.1l3.2,0.1c3.7,0.1,8.3,2.9,10.6,4.8 M143,58.9l23.8,1.5"/>
<path class="st18" d="M146,118.4c4.6-0.3,10-2.9,11.1-6.9"/>
<path class="st21" d="M211.2,425.7c-52.6,1.7-103.8-2.8-152-20.8c-5.6-4.8-7.4-16-7.4-23c0-4.3,2.6-8.7,7.8-8.7
	c7.3,0,18.6,25.6,17.8,21.2c-1.7-7.4-4.3-19.9,1.3-25.6c2.6-2.6,6.9-3,9.5,2.2c0,0.4,4.3,10.8,4.3,10.8c2.2,2.2,0,0.9,0.9-1.7
	c3.5-10.8,10.8,5.6,10.8,9.5c1.7-8.7,13.9-16,16.5-5.2c0.4,2.6,0.4,4.8,0.4,7.4c0,0.9,13.6-15,23-11.7c16.4,5.8,1.3,21.2,1.7,21.2
	c5.6,0,17.8,3,10.4,10.4c-7.4,7.4,22-13.9,32.5,6.5c1.8,3.5,3.7-5.6,11.3-4.3C203.8,414.6,211.2,421.8,211.2,425.7z"/>
<path class="st22" d="M184.8,404.9c0.7-0.5,24.6,0.9,20.8-4.8C202,394.7,188.2,399.5,184.8,404.9z M170.5,401.4
	c-0.4-13.2,11-12.6,18.6-16.5c0,0,0.7-0.4,0.4,0.4C183.6,402.9,169.6,401.9,170.5,401.4z"/>
<path class="st1" d="M191,68.8c-0.4-13.2-13.4-15.5-24.4-8.4C178.8,63,176.2,72.1,191,68.8z"/>
<path class="st10" d="M256.6,64.1c34.9-24.3,61.8-8.4,66.4,11.7c6.5,27.9-23.8,63.3-62.3,47.4"/>
<path class="st20" d="M176.6,123.3c12.1,0,22-9.9,22-22c0-12.1-9.9-22-22-22c-12.1,0-22,9.9-22,22
	C154.7,113.4,164.5,123.3,176.6,123.3z"/>
<path class="st23" d="M91.4,211.7l9.3-7.4c-0.7-4.5-3.1-7.9-9.2-8.9l-0.3,1.4c-5.9,11.2-19.1,15-39.5,11.6
	C60.7,227.1,74,226.7,91.4,211.7z"/>
<path class="st10" d="M215.3,93.7c25.4-1.4,6.4,44.5,29.7,57.3"/>
<path class="st10" d="M221.3,167.9c-23.2-34.6,0.5-56.7-8.9-73.9c4.4-1.4,8.2,1.1,11.4,7.6"/>
<path class="st10" d="M214.8,267.4c48,44.7,157.2,16.5,156.9,0.9c-0.5-5.8-18.3-9.3-48.3-10.8"/>
<path class="st10" d="M261.6,324.7c7.3-1.5,13-6.4,16.3-16"/>
<path class="st17" d="M51.7,208.4c9.1,18.7,22.4,18.3,39.8,3.4"/>
<path class="st17" d="M100.7,204.3c8.7-8,2.4-18.1-6.5-18.1c-8.1,0.4-14.9-3.3-18.9-10.6c-3.9-8.1-13.8-9.4-21.2-4.5
	c-7.1,3.2-12.7,9.7-25.4,7.1c-9.5-2.1-7.4,23.3,22.9,30.2c18.2,4.3,32.1-0.2,39.5-11.6"/>
<path class="st4" d="M182.5,181.2c3-8.5,8.6-15,16.8-20.9C189.1,163.5,183,170.7,182.5,181.2z"/>
<path class="st3" d="M137.2,92.1c-3.4-7.1-3.6-14.4-1.4-22.8C130.3,77.1,130.5,85.2,137.2,92.1z"/>
<path class="st3" d="M172.4,114.6c-3.4-7.1-3.6-14.4-1.4-22.8C165.5,99.6,165.7,107.7,172.4,114.6z"/>
<path class="st4" d="M265.2,61.6c9.2-3.5,20.1-5.2,29.2-5.9C287.3,53.2,273.8,55.4,265.2,61.6z"/>
<path class="st4" d="M210.7,227.6c0.1,6.8-1,13.3-4.3,20C212.9,242.2,212.3,233,210.7,227.6z"/>
<path class="st11" d="M231.3,108.5c10.2-0.6,19.4-0.1,28.8,3.7C254.4,104.6,240.5,104.7,231.3,108.5z"/>
<path class="st1" d="M243.7,29.9c8.1-6.8,17.6-10,29.4-11C260.9,16,250.4,19.6,243.7,29.9z"/>
<path class="st24" d="M307.6,99.2c-6.4,8.3-15,13.5-26.3,17.1C293.8,116.5,303.3,110.7,307.6,99.2z"/>
<path class="st25" d="M315.4,333.7c8.8,0.8,21.4,0.9,31.9-0.8C337.6,337.5,325.9,337.6,315.4,333.7z"/>
<path class="st20" d="M140.4,99.7c11.3,0,20.5-9.2,20.5-20.5s-9.2-20.5-20.5-20.5s-20.5,9.2-20.5,20.5S129.1,99.7,140.4,99.7z"/>
<path class="st20" d="M197,79.6l-16.7-11.1c2.6,3.3,3.1,7,2.4,10.9"/>
<line class="st20" x1="202.4" y1="66" x2="223.8" y2="80.8"/>
<path class="st10" d="M183.5,62c3.8,1,6,3.7,7.5,6.8c-0.4-13.2-13.4-15.5-24.4-8.4c12.2,2.6,9.6,11.7,24.4,8.4"/>
<path class="st26" d="M65.4,183c2.1,0,3.9-1.7,3.9-3.9c0-2.1-1.7-3.9-3.9-3.9c-2.1,0-3.9,1.7-3.9,3.9C61.6,181.3,63.3,183,65.4,183z
	"/>
<path class="st17" d="M87.5,193.9c3.3,0.2,5.8,2.4,4.9,5.6"/>
<path class="st27" d="M138.7,99.7c11.3,0,20.5-9.2,20.5-20.5s-9.2-20.5-20.5-20.5s-20.5,9.2-20.5,20.5S127.4,99.7,138.7,99.7z"/>
<path class="st27" d="M174.9,123.3c12.1,0,22-9.9,22-22c0-12.1-9.9-22-22-22c-12.1,0-22,9.9-22,22
	C153,113.4,162.8,123.3,174.9,123.3z"/>
</svg>
