<?xml version="1.0" encoding="utf-8"?>
<!-- Generator: Adobe Illustrator 21.1.0, SVG Export Plug-In . SVG Version: 6.00 Build 0)  -->
<svg version="1.1" id="Layer_1" xmlns="http://www.w3.org/2000/svg" xmlns:xlink="http://www.w3.org/1999/xlink" x="0px" y="0px"
	 viewBox="0 0 476 406" style="enable-background:new 0 0 476 406;" xml:space="preserve">
<style type="text/css">
	.st0{fill-rule:evenodd;clip-rule:evenodd;fill:#BB7446;}
	.st1{fill-rule:evenodd;clip-rule:evenodd;fill:#A16044;}
	.st2{fill-rule:evenodd;clip-rule:evenodd;fill:#D58F5C;}
	.st3{fill-rule:evenodd;clip-rule:evenodd;fill:#F18A2E;}
	.st4{fill:none;stroke:#823436;stroke-width:1.6995;stroke-linecap:round;stroke-linejoin:round;stroke-miterlimit:22.9256;}
	.st5{fill-rule:evenodd;clip-rule:evenodd;fill:#EBB081;}
	.st6{fill-rule:evenodd;clip-rule:evenodd;fill:#FAA74A;}
	.st7{fill-rule:evenodd;clip-rule:evenodd;fill:#FED1A2;}
	.st8{fill-rule:evenodd;clip-rule:evenodd;fill:#FFFFFF;}
	.st9{fill-rule:evenodd;clip-rule:evenodd;fill:#C7EAFB;}
	.st10{fill:none;stroke:#A82E31;stroke-width:1.6995;stroke-linecap:round;stroke-linejoin:round;stroke-miterlimit:22.9256;}
	.st11{fill-rule:evenodd;clip-rule:evenodd;}
	.st12{fill-rule:evenodd;clip-rule:evenodd;fill:#8CCCEB;}
	.st13{fill-rule:evenodd;clip-rule:evenodd;fill:#EB9669;}
	.st14{fill-rule:evenodd;clip-rule:evenodd;fill:#A8D4EA;}
	.st15{fill-rule:evenodd;clip-rule:evenodd;fill:#D2E288;}
	.st16{fill:none;stroke:#FFFFFF;stroke-width:1.6995;stroke-linecap:round;stroke-linejoin:round;stroke-miterlimit:22.9256;}
	.st17{fill:none;stroke:#D2E288;stroke-width:1.6995;stroke-linecap:round;stroke-linejoin:round;stroke-miterlimit:22.9256;}
	.st18{fill:none;stroke:#1493C1;stroke-width:1.6995;stroke-linecap:round;stroke-linejoin:round;stroke-miterlimit:22.9256;}
	.st19{fill-rule:evenodd;clip-rule:evenodd;fill:#F9A57B;}
	.st20{fill-rule:evenodd;clip-rule:evenodd;fill:#A82E31;}
	.st21{fill-rule:evenodd;clip-rule:evenodd;fill:#FDCEAE;}
</style>
<path class="st0" d="M425,79.3c-1.4,8.5-4.8,9.8-11.9,12.1c-16.5,16.3-51.3,29-55.1,61c30.3-21.6,61.7,11.8,94.1-2.5
	c5.8-8,13.4-13.4,22.9-16.1l-4.2,4c-3.5,25,13.4,54.9-10.5,74.9c-8.2,36.3-25.8,56.6-49.5,61l-8.6-13.3c-5,1.9-9.7,2.7-14.3,2.5
	l4.1,5l3.8,6.5c-33.6-2.2-60.4-11-75.9-30.5c10.1-1.9,18.4-7.1,24.8-15.7c-8.6-3.5-16.1-8.6-22.8-14.7c-20.3-3.8-27.3-7.6-5-11.5
	c-12.9-0.1-18.9-1.4-18.1-3.9l13.4,46.9c5.6,3,7.1,7,6.6,11.3c-9.6-8.5-28.8-5-43.3-7.5c-35.7-9.4-36.2-47.8-3.9-77.6l22.8-27
	l2.7-6.7c-4.1,2.8-2.4-0.8,5.1-10.8c10.4-14.2,42-19.6,59.8-37L350.6,40c8.2-45.2,62.4-44.3,76.2-21.5c1.4-3.1,4-5.8,7.9-7.9
	c-3.3,6-4.4,10.7-4.7,14.7c1.6-3.7,4-5.6,7.2-5.7C433.1,39.5,445.5,56.2,425,79.3z"/>
<path class="st1" d="M344.9,228c-6.4,8.5-14.7,13.8-24.8,15.7c15.6,19.5,42.4,28.4,75.9,30.5l-3.8-6.5l-4.1-5
	c4.5,0.3,9.3-0.6,14.3-2.5l8.6,13.3c23.7-4.4,41.3-24.7,49.5-61c23.9-20.1,10.6-45.2,10.1-64.9c-8.2,17.9,9.9,46.7-25.2,56.5
	C438.6,245.5,388.5,248.6,344.9,228z M425,79.3c-1.4,8.5-4.8,9.8-11.9,12.1c-18.4,18.1-54.4,33-55.1,61c13.2-4.7,32-3.3,42.7,6.3
	l-45.4,20.6c0,0-21.2-31.6-13.7-41.6c8.3-21.2,42.4-23.8,53.7-47.1c27.3-24.9,37.3-53,22.8-72.5C432.7,21.3,442.5,59.6,425,79.3z"/>
<path class="st2" d="M361.1,45.1l-7.6,8.2l-11.8,1C341.5,38.5,350.3,37.1,361.1,45.1z"/>
<path class="st2" d="M401.3,59.7c15-3.9,21.4,0.5,21.9,10.6l1,2.8l-0.4,3.5c2.1,3.8,0.9,8-3.6,12.6c-9.4,4.2-20.4,3.9-32.8,0
	L401.3,59.7z"/>
<path class="st1" d="M271.5,172.4l40.9,71.9C252.3,243.6,235.7,208.9,271.5,172.4z"/>
<path class="st3" d="M354.5,78.8l40.1-14.7l10.2,2.8c-1.8,8.4-15.8,20.8-23.3,24.7C372.7,96.5,362.5,95.9,354.5,78.8z"/>
<path class="st2" d="M355.4,179.3l4.4-3l3.9-5.6c6-19.7,48.6-25.3,59.6,18.2c4,21.2-4,34-20.1,41c-11.9,3.6-27.9-1.7-26.4-13.3
	c-12.7,4.2-23.2-5.3-20.6-14.4C346.5,200.7,340.5,185.8,355.4,179.3z"/>
<path class="st4" d="M403.1,229.8c-11.9,3.6-27.9-1.7-26.4-13.3c-12.7,4.2-23.2-5.3-20.6-14.4c-9.8-1.6-15.7-16.5-0.9-23"/>
<path class="st5" d="M402.9,164.1c-14.6-3.5-26.1-3.2-36.6,7.6C376.1,155.4,392.3,156.1,402.9,164.1z"/>
<path class="st6" d="M346.6,53.2c6.5-2.3,11.9-10,19.6-9.5c11.8-0.1,17,19.2,29.5,16.6c9.8-3.3,12.5,7.1,5.1,14.6
	c0.8-6.6-1.9-9.5-7.9-8.7c-10.2,10.5-22.3,15.9-40.4,12.4c-26.5-8.7-25.1-25.3-15.7-24.3L346.6,53.2z"/>
<path class="st2" d="M403.3,8.7c-9.6-1.5-19.1-0.2-29.8,3.7C383.2,4.9,393.1,4.1,403.3,8.7z"/>
<path class="st2" d="M327.6,118.9c-9.6,1.7-18.1,5.9-27,13C307.4,121.8,316.5,117.8,327.6,118.9z"/>
<path class="st2" d="M422.1,156.3c9.6,1.5,19.1,0.2,29.8-3.7C442.2,160.1,432.3,160.9,422.1,156.3z"/>
<path class="st0" d="M388.7,269.1c-7.7-1.7-38-5.4-55.4-20.5C344.5,263.3,375.4,271.9,388.7,269.1z"/>
<path class="st7" d="M363.6,76.7c-8.9-0.2-26.5-7.8-30.1-16.7C335.5,72.2,352.4,78.4,363.6,76.7z"/>
<path class="st8" d="M403.3,59c-9.1,3.7-17.3,1.9-24.3-7.7c3.7-15.1,14.7-27.8,18.9-26.1C405.6,27.6,408.3,42.1,403.3,59z"/>
<path class="st8" d="M368.4,43.9l-2.7-0.2l-4.6,1.5l-8-4.4c3-14.6,11.6-24.1,15.5-23C374.6,21,372.6,31.4,368.4,43.9z"/>
<path class="st9" d="M366.2,43.7l-5.6,1l-5.6-3.4c1.3-10.4,8-16.5,10.2-15.9C369.1,25.7,369.5,35.1,366.2,43.7z"/>
<path class="st4" d="M413.1,91.4c-21.8,18.7-53.8,34.5-55.1,61c32.8-22,59.2,11.6,94.1-2.5c7.6-9.3,15.3-14.6,22.9-16.1
	c-8.5,7.4-13.7,15.7-15.4,25.1 M350.6,40c8.2-45.2,62.4-44.3,76.2-21.5c1.4-3.1,4-5.8,7.9-7.9c-3.3,6-4.4,10.7-4.7,14.7
	c1.6-3.7,4-5.6,7.2-5.7c-4.1,19.9,8.4,36.7-12.2,59.8"/>
<path class="st4" d="M401.3,59.7c13.7-5,21.9,0.8,21.9,10.6"/>
<path class="st4" d="M417,66.9c5,1.2,8.1,3.4,7,8.1"/>
<path class="st4" d="M418.9,72.4c7.8,3.4,7.3,10.3,1.3,16.6c-9.4,3.7-17.6,3.8-25,1.5"/>
<path class="st10" d="M389.4,64c3.2,0.4,4.8,2.4,4.9,5.9"/>
<path class="st4" d="M361.1,45.1c-10.5-8.8-20.2-5.5-19.4,9.2"/>
<path class="st4" d="M353.2,40.7c3-14.6,11.6-24.1,15.5-23c5.9,3.3,3.9,13.8-0.3,26.2"/>
<path class="st4" d="M379,51.3c3.7-15.1,14.7-27.8,18.9-26.1c7.7,2.4,10.4,16.8,5.4,33.7"/>
<path class="st9" d="M396.1,60.1c-4.9,1.1-9.7,0-14.5-5.9c2.2-12.4,10.2-19.4,13.1-18.6C400.1,36.1,400.6,48.4,396.1,60.1z"/>
<path class="st11" d="M360.9,41.6c2.2,0,4.1-1.8,4.1-4.1s-1.8-4.1-4.1-4.1c-2.2,0-4.1,1.8-4.1,4.1S358.7,41.6,360.9,41.6z"/>
<path class="st12" d="M344.9,228c-9-3.9-16.5-8.8-22.8-14.7c-23-4.7-23.9-7.5-5-11.5c-11.1,0.4-18.7-0.3-18.5-3.4
	c10.4-15.7,37.8-11.2,56.7-19.2c2.5-17.6-9.3-45.3-25.3-48.7c-16.9-5.5-52.4,24.1-58.1,40.6C246.9,241.6,318.2,263.4,344.9,228z"/>
<ellipse class="st8" cx="363" cy="39.6" rx="2" ry="2"/>
<circle class="st11" cx="390.8" cy="49.6" r="4.7"/>
<path class="st8" d="M393.1,54.3c1.3,0,2.3-1.1,2.3-2.3c0-1.3-1.1-2.3-2.3-2.3c-1.3,0-2.3,1.1-2.3,2.3S391.8,54.3,393.1,54.3z"/>
<path class="st4" d="M362.4,89.6c-19.3,19-57.6,24.5-66.6,47.2c-1.8,4.3,3.4-0.7,9-5.1"/>
<path class="st13" d="M364,269.4c-10.6-2.4-21.1-6.3-31.1-13.3c-1.7,6-15.6,6.5-18.8,9c-3.4,2.1-1.8,6.2,3.6,7.2
	c4.7,1.4,2.9,4.4,0.4,8.2c-3.5,5.2,3.2,8.3,6.9,5.7c3.6-2.4,6.4-0.1,7.5,3.1C335.4,298.1,351.9,295.7,364,269.4z"/>
<path class="st8" d="M314.6,212.3l5.8,0.8l6.6,16.6l13.1-4l4.9,2.3c-20,28.7-75,18.7-77.9-24.3l10.1,11.8l12.4-12.1l10.2,18.9
	L314.6,212.3z"/>
<path class="st4" d="M272,171.1c-24.7,25-28.6,45.3-18.3,62.5c18.1,27.3,47.3,8.9,65.4,22.7c0.4-4.4-1.1-8.4-6.6-11.3"/>
<path class="st10" d="M332.9,256.1c-1.7,6-15.6,6.5-18.8,9c-3.4,2.1-1.8,6.2,3.6,7.2c4.7,1.4,2.9,4.4,0.4,8.2
	c-3.5,5.2,3.2,8.3,6.9,5.7c3.6-2.4,6.4-0.1,7.5,3.1c3,8.9,19.5,6.5,31.6-19.9"/>
<path class="st4" d="M396,274.3c-25.3-0.9-62-9.9-75.9-30.5 M470.9,137.8c-3.5,25,14.2,52.9-10.5,74.9c-7.9,36.6-26.8,56.9-49.5,61"
	/>
<path class="st14" d="M348.8,181.5c-16.7,5.7-39.7,1.3-50.1,17c2.6,2.4,9.8,3.1,19,3.2c-18.4,4.1-19.7,6.1-3.1,10.7l-15,10.1
	l-10.2-18.9L277,215.6l-10.1-11.8c-1-18.4,3.2-32.2,11-43l14-4.6l3.9,17.1l19.3-9.4l9.6,16.3l15.8-10L348.8,181.5z"/>
<line class="st4" x1="297.5" y1="137.4" x2="294.8" y2="144.1"/>
<polygon class="st15" points="355.4,179.3 348.8,181.5 340.5,170.3 324.7,180.3 314.3,164.4 295.8,173.4 291.9,156.3 278,160.8 
	287.9,150.1 297.4,147.6 300.7,163.3 318.2,153.8 327.1,170.3 341.3,160.3 "/>
<polyline class="st16" points="287.9,150.1 297.4,147.6 300.7,163.3 318.2,153.8 327.1,170.3 341.3,160.3 355.4,179.3 "/>
<polyline class="st17" points="266.9,203.8 277,215.6 289.4,203.6 299.6,222.4 314.6,212.3 "/>
<polyline class="st16" points="278,160.8 291.9,156.3 295.8,173.4 315.1,164 324.7,180.3 340.5,170.3 348.8,181.5 "/>
<path class="st18" d="M355.4,179.3c2.5-17.6-9.3-45.3-25.3-48.7c-16.9-5.5-52.4,24.1-58.1,40.6c-25.1,70.6,46.3,92.3,72.9,57"/>
<ellipse transform="matrix(0.2866 -0.958 0.958 0.2866 25.3173 399.3229)" class="st8" cx="280.8" cy="182.7" rx="9.3" ry="6"/>
<path class="st8" d="M313.4,188.6c-6.6,2.6-11.1,5.8-14.3,9.4c-1.1-2.1-1.3-5-0.2-7.9c1.8-4.9,6.4-8.2,10.2-7.2
	C311.6,183.4,313.1,185.7,313.4,188.6z"/>
<polyline class="st17" points="320.4,213.1 327,229.7 340,225.7 "/>
<path class="st10" d="M392.8,66.1c-19.1,19.8-47.9,15.9-59.7,0.4c-4.7-6.9-1.6-13.4,5.1-12.3c9.3,1.5,15.3-6.1,22.9-9.1
	c6.3-3.6,12.2-0.3,18,6.2c4.2,4.7,9,10.7,16.6,8.9c9.5-2.4,12.3,5.8,5.1,14.6"/>
<path class="st10" d="M354.3,78.7c10.5,19.9,24.4,19.9,40.1,2"/>
<path class="st19" d="M397.8,279.2c-2.2-6.2-5.5-11.6-9.7-16.4c4.6,0.5,9.4-0.3,14.3-2.5c21,26.5,18.2,52.6,1.6,58.8
	c-4.5,2.7-10.7,2.4-12-2.6c-0.5-2.2-3.5-3.6-8.6-2.4c-7.8,1.7-12.4-2.8-7.7-7.5c2.8-2.6,3.2-6.7-2.6-7.7c-8-1.7-6.7-9.8-0.2-10.6
	C380.5,288,394.8,286,397.8,279.2z"/>
<path class="st10" d="M388.1,262.8c8.5,9.3,11.2,17.5,10,24.8"/>
<path class="st10" d="M402.3,260.3c21,26.5,18.2,52.6,1.6,58.8c-4.5,2.7-10.7,2.4-12-2.6c-0.5-2.2-3.5-3.6-8.6-2.4
	c-7.8,1.7-12.4-2.8-7.7-7.5c2.8-2.6,3.2-6.7-2.6-7.7c-8-1.7-6.7-9.8-0.2-10.6c7.5-0.5,21.8-2.5,24.8-9.3"/>
<path class="st4" d="M381.5,261.4c8.1,3.2,18.8,1.1,26.4-4"/>
<path class="st4" d="M363.7,170.7c-8.8,20.2-47.7,6.7-64.9,27.8c1.8,4.3,25.8,2.7,38.7,4"/>
<path class="st4" d="M317.1,201.9c-7.3,1.6-13.3,3.2-13.7,5c3.1,8.3,34.6,6.3,51.9,9.5"/>
<path class="st4" d="M322.2,213.3c41.8,38,111.9,23.8,101-24.5"/>
<path class="st20" d="M366.8,59.5c2,0,3.6-1.6,3.6-3.6c0-2-1.6-3.6-3.6-3.6c-2,0-3.6,1.6-3.6,3.6C363.1,57.8,364.7,59.5,366.8,59.5z
	"/>
<path class="st21" d="M410.7,310.2c2.3-9.5,2-19-1-30C416.2,290.6,416.2,300.6,410.7,310.2z"/>
</svg>
