<?xml version="1.0" encoding="utf-8"?>
<!-- Generator: Adobe Illustrator 21.1.0, SVG Export Plug-In . SVG Version: 6.00 Build 0)  -->
<svg version="1.1" id="Layer_1" xmlns="http://www.w3.org/2000/svg" xmlns:xlink="http://www.w3.org/1999/xlink" x="0px" y="0px"
	 viewBox="0 0 476 406" style="enable-background:new 0 0 476 406;" xml:space="preserve">
<style type="text/css">
	.st0{fill-rule:evenodd;clip-rule:evenodd;fill:#6D6E71;}
	.st1{fill-rule:evenodd;clip-rule:evenodd;fill:#8CCCEB;}
	.st2{fill-rule:evenodd;clip-rule:evenodd;fill:#009CD9;}
	.st3{fill-rule:evenodd;clip-rule:evenodd;fill:#007BBF;}
	.st4{fill-rule:evenodd;clip-rule:evenodd;fill:#00BBEB;}
	.st5{fill-rule:evenodd;clip-rule:evenodd;fill:#8CD0EA;}
	.st6{fill-rule:evenodd;clip-rule:evenodd;fill:#FFFFFF;}
	.st7{fill-rule:evenodd;clip-rule:evenodd;fill:#ADBC72;}
	.st8{fill-rule:evenodd;clip-rule:evenodd;fill:#E89C9D;}
	.st9{fill-rule:evenodd;clip-rule:evenodd;fill:#D87672;}
	.st10{fill-rule:evenodd;clip-rule:evenodd;}
	.st11{fill-rule:evenodd;clip-rule:evenodd;fill:#B79977;}
	.st12{fill-rule:evenodd;clip-rule:evenodd;fill:#D1D3D4;}
	.st13{fill-rule:evenodd;clip-rule:evenodd;fill:#F1F2F2;}
	.st14{fill:none;stroke:#7E6545;stroke-width:1.6995;stroke-linecap:round;stroke-linejoin:round;stroke-miterlimit:22.9256;}
	.st15{fill:none;stroke:#18537E;stroke-width:1.6995;stroke-linecap:round;stroke-linejoin:round;stroke-miterlimit:22.9256;}
	.st16{fill-rule:evenodd;clip-rule:evenodd;fill:#FABFBF;}
	.st17{fill-rule:evenodd;clip-rule:evenodd;fill:#B5E0F2;}
	.st18{fill-rule:evenodd;clip-rule:evenodd;fill:#F7A1A1;}
	.st19{fill:none;stroke:#58595B;stroke-width:1.6995;stroke-linecap:round;stroke-linejoin:round;stroke-miterlimit:22.9256;}
	.st20{fill:none;stroke:#B35856;stroke-width:1.6995;stroke-linecap:round;stroke-linejoin:round;stroke-miterlimit:22.9256;}
</style>
<path class="st0" d="M239.6,70.1l-7.3-0.7c-12.4-25.3,5.1-36.2,9.2-54.1C253.2,36.5,255.3,58.5,239.6,70.1z"/>
<path class="st1" d="M248.1,59.7c-26.7-16.5-9.6-31.7-6.7-44.3C253.2,36.5,251.6,52.6,248.1,59.7z"/>
<path class="st2" d="M115.4,312.3c19.2,11.1,44.5,13.4,74.7,8.4c3.8,0.3,7.6-0.8,11.2-5.2c2.1-0.8,3-3.1,2.7-7
	c-10.7-14.2-37.8,1.2-54.1-24.4c8.7-6.8,14.7-17.2,18.9-30.2c35.1,10.2,60.5-3.4,58.5-13.7c2.4-3.9,3-7.1,2-9.7
	c0.9-2.9,0.6-5.1-1.1-6.5c-15.6,5-31.3,4-46.9-4.2l5.6-4.2c7.1,2.5,15.6-0.1,25.1-6.3l4.5-35.3c-10,6.2-19.3,8.4-28.1,7.8l-3.3-4.6
	c5.8-0.5,9.7-3,11.8-7.5c16.6-13.3,21.7-30.5,19.4-50.1c-1.8-1.9-4.3-3.2-8.3-3.1c1.5-2.8,3.7-4.6,6.5-5.4
	c-4.1-1.8-8.3-2.6-12.4-2.5c-4.6-21.2-15.3-34.4-34.7-36.2c2.6-38-40.5-51.3-65.2-66c-7.7-4-11.4-1.7-11,6.6
	c6.6,30.2,34.1,28.4,41.6,61.1l-5.6,6.5C110.7,38.9,91,35.7,70.8,6.6c-4.5-7.4-10.9-8.1-12.4,0.6c-9.4,74.8,34,72,53.5,99
	c-3.2,11.6-2.8,18.7,0.4,31.4c-3.5,5.3-4.9,11.6-4.3,16.8c2.6-2.5,6.3-4.2,9.3-4.4c-9.5,9.9,0.2,16.4-16.9,25.1
	c-44,9.4-75.6,35.7-71.4,73.9c2.1,22.6,19.5,40.1,45,55.2c4.9,3.2,6.4,7.3,4.5,12.4c-7.1,4.9-8.8,12.1-2.3,16.9
	c11.7,10.8,70.2,18.4,73.5,12.7c7.8,1,12.4-0.1,14.1-3.4c3.5,0.5,8.2-1,8.4-3.9C170.4,319.6,123.1,324.3,115.4,312.3z"/>
<path class="st3" d="M115.4,312.3c19.2,11.1,44.5,13.4,74.7,8.4c3.8,0.3,8.8-1.6,12.4-5.9c8-24.5-41.5-3.6-60.2-24.8l-24.1,10.5
	l-32.3-15.4c-59.1-46.8-43.8-73.1-0.8-98.8l46.3,6.5c-6.2,14.9-3.3,28.4,8.7,40.5c18.4,21.7,50.4,31.2,66,14.7
	c-33.2,10.7-76.3-38-74.6-55.2l11.2-25.4l38.8,52.6l5.6-4.2c7.1,2.5,15.6-0.1,25.1-6.3l2.7-21.4c-10,6.2-18.1,9-26.3-6.1l-3.3-4.6
	l2.9-51.8l-9.4-29.4c-5,1-5.3,12.1,0.6,33.2l-10.8,15.2l-41.3-16.5c-0.9-9.1-1.2-23.1,7.4-29.8c1.4-15.3,32.4-23.4,19.2-29.9
	c-3.4,0.2-6.8,4-12,8.8c6.2-9.7,5.9-13.1,0.8-11.5l4.9-3.6c-2.3-31-51.6-36.2-56.4-48.7c6.6,29.9,34.1,28.1,41.6,60.8l-5.6,6.5
	c3.6,22.1-11.1,21.8-8.9,11.2c-4.5-7.4-54.1-77.3-55.6-68.7c-3.9,49.8,29.5,56,49,82.9c-3.2,11.6-2.8,18.7,0.4,31.4
	c-3.5,5.3-4.9,11.6-4.3,16.8c2.6-2.5,6.3-4.2,9.3-4.4l25.4,17.3l-11.2,25.4l-46.3-6.5c-33.8,7.6-58.2,25.6-56.4,62.8
	c2.1,22.6,19.5,40.1,45,55.2c4.9,3.2,6.4,7.3,4.5,12.4c-7.1,4.9-8.8,12.1-2.3,16.9c11.7,10.8,70.2,18.4,73.5,12.7
	c7.8,1,12.4-0.1,14.1-3.4c-34.3,4.9-72.3-12.8-75.1-23.5c-4.3-13.4,18.2-6-2.6-34.1l32.3,15.4l-3.1,6L115.4,312.3z"/>
<path class="st4" d="M168.9,254c-11.5-3.2-18.7-9.9-28.4-20.6c14.4,33.6-6.3,49.1-22.2,67C142.3,295.5,165.4,273,168.9,254z"/>
<path class="st5" d="M202.2,108.8c-8.2,2.1-14.5,6.1-18.8,12c-10.3,2.8-15.4,5.8-15.5,9.1c-16.2,1.1-32.4-7.3-45.2-0.2
	c-11.9,6.6-16,15-14.8,24.7l9.3-4.4c-4,14.1,7.6,22,26.5,27l3.8,0.6c-1.7,2.7-0.7,6.9,3,12.6c9.2,15.1,19.3,25.7,30.9,29.7
	c4.3-1.9,7.4-5.4,9.1-10.3l3.1-0.2c-2.8-10.7,1-21.1-8.3-32c3.9-0.8,9.5-1.2,11.8-7.5c14.5-9.5,23.7-28.1,19.4-50.1
	c-1.5-2.3-4.3-3.3-8.3-3.1c0.9-2.5,3.4-4.1,6.5-5.4C211.4,109.7,207.6,108.6,202.2,108.8z"/>
<path class="st4" d="M107.9,154.3l9.3-4.4c-4,14.1,7.6,22,26.5,27l3.8,0.6c-2.5,2.6-0.7,6.9,3,12.6c9.2,15.1,19.3,25.7,30.9,29.7
	c4.3-1.9,7.4-5.4,9.1-10.3c-9.6,6.6-20.8-1.8-30-26.2c6.3,1.2,19.9-2.5,24.8-6.1c3.9-0.8,7.4-1.5,11.8-7.5
	c8.7-6.3,13.1-14.1,13.3-23.5c-1.9,8.1-7.1,14.4-15.7,18.9c-3.3,6.3-9.7,7.8-18.1,5.9c-33,5.9-53.5-12.4-46.8-32.9l-5.9,3.1
	c1.9-4.4,8.5-9.1,16.1-8.9C126.8,130.2,109,137.5,107.9,154.3z"/>
<path class="st5" d="M6.6,245.2c-3.6-8.6-4.3-16-2.2-22.3l3.3,5.5c6.6,3.3,13.8,5,21.4,5.6c-3.8,24.2,8.3,43.3,29.2,59.6
	c-58.2,11.5-47-34-57.4-49.2L6.6,245.2z"/>
<path class="st4" d="M16.5,247.7c-5.6-4.8-10.4-14.3-8.8-19.2l7.5,2.9c5.2,2.6,8,2.2,13.9,2.7c-0.4,16.5-0.4,28.3,12.6,44.2
	c-24.5-0.2-24.9-20.3-31.9-32.2L16.5,247.7z"/>
<path class="st6" d="M164.3,129.9l-23.6-2.7c-0.2-16.8,2.1-26.6,8.3-27.2C156.3,100.5,161,112.1,164.3,129.9z"/>
<path class="st7" d="M145.9,127.5l18.4,2.4l-6.1-21.4C150.3,101.5,144,110.8,145.9,127.5z"/>
<path class="st6" d="M197.8,109.4c-5.9,3.1-11,6.9-15.5,11.5c-4.5-13.4-5.5-27.9-0.2-30.1C187.4,89.5,193.9,96.7,197.8,109.4z"/>
<path class="st7" d="M185.6,118.2c2.8-3.6,7.2-6.4,12.2-8.8c-1.5-5.2-3.6-10-6.9-13.9C183,94,180.2,101.8,185.6,118.2z"/>
<path class="st8" d="M190.1,145.5l-6.2-2.2l-2,4.8l-3.4,3.8C183.6,158.2,191,156.2,190.1,145.5z"/>
<path class="st8" d="M167.9,129.8c0.3-5.5,17.6-11.3,19.1-8.3c2.6,2.8-0.5,9.9-4.3,13.1C175.7,136,169.2,133.7,167.9,129.8z"/>
<path class="st9" d="M167.9,129.8c6,4,22-4,19.1-8.3c2.6,2.8,0.9,11.3-4.1,15.2C175.9,138.2,169.2,133.7,167.9,129.8z"/>
<path class="st10" d="M155.4,123.4c2.9,0,5.2-2.3,5.2-5.2c0-2.9-2.3-5.2-5.2-5.2c-2.9,0-5.2,2.3-5.2,5.2
	C150.2,121.1,152.5,123.4,155.4,123.4z"/>
<path class="st6" d="M152.6,123.4c1.4,0,2.5-1.1,2.5-2.5c0-1.4-1.1-2.5-2.5-2.5c-1.4,0-2.5,1.1-2.5,2.5
	C150.2,122.3,151.3,123.4,152.6,123.4z"/>
<circle class="st10" cx="190.3" cy="104.7" r="4.7"/>
<path class="st6" d="M187.8,109.4c1.2,0,2.2-1,2.2-2.2c0-1.2-1-2.2-2.2-2.2c-1.2,0-2.2,1-2.2,2.2
	C185.6,108.4,186.6,109.4,187.8,109.4z"/>
<path class="st11" d="M232.3,193.3c-1.2,10.4-2.6,20.8-4,30.9L232.3,193.3z M224.8,248.1c-2.8,2.8-8.2,5.2-16.9,8
	c-4.3,47.9-5.8,83.3-2.9,83.2C207.9,340,216.7,300.3,224.8,248.1z M210.7,226.8c1.9-18.5,4-37.8,6.4-57.3L210.7,226.8z M218.7,157.2
	c5.9,2.6,6.7,17.9-1.6,12.5l-6.4,57.3c6-0.2,11.8-0.9,17.4-2.7l4.2-30.9c-10.2-11.4-9.9-28.7,2.9-26.3c3.1-32.7,5.4-71.5,4.4-96.7
	l-7.3-0.7C227.4,94.9,222.8,125.7,218.7,157.2z"/>
<path class="st12" d="M237.6,134.4c1.7-21.8,2.5-43.3,2-64.3l-7.3-0.7L222,133C223.8,136.4,234.5,137.1,237.6,134.4z"/>
<path class="st13" d="M236.9,83.3l-1.9,52.3c-5.4,1.1-9.7,0.2-13-2.6l0.4-2.8c2.7,1.4,5.6,1.9,8.6,1.7L236.9,83.3z"/>
<path class="st14" d="M228.3,224c1.4-10.1,2.7-20.4,4-30.9 M207.9,256c-4.3,47.9-5.8,83.4-2.9,83.3c2.9,0.8,11.7-39.1,19.7-91.2
	 M217.1,169.8c-2.4,19.4-4.6,38.6-6.4,57.1 M235.2,166.9c3.1-32.7,5.4-71.5,4.4-96.7l-7.3-0.7c-4.9,25.5-9.5,56.3-13.6,87.6"/>
<path class="st2" d="M216.6,157.7c-9.7,7.2,3.6,16.1,5.4,12.4C224.9,165.9,221.1,154.7,216.6,157.7z M236.2,160.2
	c11.6,5.6,5.5,30.1-4.4,33.1c-5.6-6.8-8.3-12.9-6.1-22.5c1-2.9,5-4.2,9.9-3.8L236.2,160.2z M225.8,170.8c1.7,4.4,4.5,9,7.3,11.6
	L225.8,170.8z"/>
<path class="st15" d="M216.6,157.7c-9.7,7.2,3.6,16.1,5.4,12.4C224.9,165.9,221.1,154.7,216.6,157.7z M236.2,160.2
	c11.6,5.6,5.5,30.1-4.4,33.1c-5.6-6.8-8.3-12.9-6.1-22.5c1-2.9,5-4.2,9.9-3.8 M225.8,170.8c1.7,4.4,4.5,9,7.3,11.6"/>
<path class="st16" d="M123,96.1C111.9,49.8,79.6,33,71.5,21.7c-2.4-4.6-9.2-5.3-8.7,1.6c4.1,54.1,39,48,52,74.5
	C115.7,102.6,124.8,101.4,123,96.1z"/>
<path class="st17" d="M189.8,198.7c-0.3-6.4-2.2-12.2-4.8-18.3C188.1,183,192.6,191.2,189.8,198.7z"/>
<path class="st18" d="M70,41.8C75.2,53,82.6,62.3,93.2,71.3C80.3,65.5,72.9,55.4,70,41.8z"/>
<path class="st4" d="M210.5,229.2c-12.4,1.1-23.8-2.1-36-9C184.3,231.2,197,234.7,210.5,229.2z"/>
<path class="st19" d="M239.6,70.1l-7.3-0.7c-12.4-25.3,5.1-36.2,9.2-54.1C253.2,36.5,255.3,58.5,239.6,70.1z"/>
<path class="st14" d="M222,133c1.8,3.4,12.5,4.1,15.6,1.4"/>
<path class="st15" d="M182.4,120.9h0.2 M178.5,151.8c5.1,6.4,12.5,4.5,11.6-6.3 M180.7,158.5c4.3,2.6,9.2,1.1,10.8-2.9 M199.1,128.9
	c-1.8-1.1-3.2-0.8-4.1,1.1 M158.1,143.6c0.8-2.2,2.2-2.9,4.2-2.1 M152,97c-4.4-3.8-11.6,0.3-13.3,9 M140.6,126.2
	c-0.2-16.8,2.1-25.6,8.3-26.1c7.3,0.4,12.1,12,15.3,29.9 M183.5,86.3c-4.5-1.6-7.6,2.4-7.8,7 M182.3,120.9
	c-4.5-13.4-5.5-27.9-0.2-30.1c5.3-1.3,11.8,5.9,15.7,18.6 M112.1,137.5c14.8-18.6,43.2-6.1,55.7-7.7 M183.4,120.8
	c6.9-8.4,13.4-11,18.8-12 M161.1,144.5c2.5,11,21.3,10.4,22.9-1.3c8.2,6,19.3-2.9,13.6-11.8"/>
<path class="st20" d="M167.9,129.8c0.2-3.9,8.9-7.9,14.5-8.9h0.2c2.2-0.4,3.9-0.2,4.3,0.6c2.6,2.8,0.9,12-4.1,15.2
	C175.9,138.2,169.2,133.7,167.9,129.8z"/>
<path class="st4" d="M83.1,25.4c9.1,5.4,30.4,34.9,36.1,45.3C116.9,58.4,96.7,29.7,83.1,25.4z"/>
<path class="st4" d="M131.1,27.3c9.8,4,25,19.3,31.5,29.2C159.5,44.4,145,30.5,131.1,27.3z"/>
<path class="st15" d="M187,215.6c7.8,2,17.3-1,25.1-6.3 M185.2,177.3c10.9,13.1,5.4,24,8.3,32c-2.7,1.1-7.9-0.7-9.3-3.1 M168.9,254
	c-7.9,25.5-25.8,39.7-50.6,46.5 M150.1,284.1c15.3,27.1,47.6,8.9,54.1,25.7c-0.2,2.5-0.7,4.6-2.7,5.8c-3,3.6-6.7,5.3-11.2,5.2
	c-18.2,4.4-38.8,3.6-61.7-2.1 M201.4,315.6c-1-3.6-3.1-6.4-7.2-7.3 M190.2,320.7c-1-3.6-2.6-6.2-5.6-8.4 M11,253.7
	c-6.2-10.4-9.5-20.7-6.6-30.9c2.5,5.9,8.1,11.4,15.1,16.8 M131.5,93.8C117.2,41.9,91,35.7,70.8,6.6c-4.5-7.4-10.9-8.1-12.4,0.6
	c-9.4,74.8,34,72,53.5,99c-3.2,11.6-2.8,18.7,0.4,31.4c-3.5,5.3-4.9,11.6-4.3,16.8c2.6-2.5,6.3-4.2,9.3-4.4
	c-9.5,9.9,0.2,16.4-16.9,25.1c-44,9.4-75.6,35.7-71.4,73.9c2.1,22.6,19.5,40.1,45,55.2c4.9,3.2,6.4,7.3,4.5,12.4
	c-1.6,3.8-12.3,10.1-2.3,16.9c11.7,10.8,70.2,18.4,73.5,12.7c7.8,1,12.4-0.1,14.1-3.4c3.5,0.5,8.2-1,8.4-3.9
	c-1.7-17.2-46.8-13.9-61.5-29.6 M159.8,333.6c2.7,3,3.9,4,4.3,9.1 M146.3,337.2c2.3,3.1,3.1,4.2,3.7,8.8 M143.7,176.9
	c13.3,2.3,22.6,3.5,35-0.1c6.7,2,16.1-0.7,18.4-6.9c14.5-9.5,23.8-28.9,19.4-50.1c-1.5-2.3-4.3-3.3-8.3-3.1c0.9-2.5,3.4-4.1,6.5-5.4
	c-3.2-1.6-7.1-2.7-12.4-2.5c-5.2-25.5-16.6-34.2-34.7-36.2c4-41.1-52.5-55.7-65.2-66c-4.7-3.5-12.8-2.9-11,6.6
	c4.7,27.4,36.5,31,41.5,61 M127.3,80.7c11-14.4,26-23,28.6-21.5c1.6,1.8-3.5,8.1-13.2,17.4 M58.2,293.7c-58.2,11.5-47-34-57.4-49.2
	l5.8,0.7 M7.7,228.4c7.5,3.5,15.6,5.4,21.4,5.6 M190.5,209.5c-2.3,5.6-5.4,9-9.1,10.3 M149.6,69.6c19.6-6.2,24.7,1.3,7.7,10.5
	 M115.4,312.3c-6.9-17.9,46.3-32.1,24.7-79.1 M229.4,230.6c1.8,7-2.3,11.6-9.3,14.8 M150.5,190.2c23,38.7,54.6,40.3,77.6,34
	c3.6,2.3,2.3,10.5-8,14.5 M140.2,233.1c26.3,37.7,90.1,25.7,87.1,7.2 M216.6,174.1c-7.2,5.5-17.5,8.1-28.1,7.8"/>
<path class="st4" d="M141.5,249.6c-0.6,12.5-5.5,23.3-14.1,34.4C139.7,275.9,145,263.8,141.5,249.6z"/>
<path class="st4" d="M115.7,316.2c10.1,7.4,27.3,6.3,38.4,12.3C143.3,327.4,124.3,326.4,115.7,316.2z"/>
<path class="st17" d="M41.3,292.4C29.9,289.5,20.7,283,12,273C17.3,285.9,27.5,293.1,41.3,292.4z"/>
<path class="st17" d="M164.8,132.4c-5.8,1.6-13.7,1.8-23.4-0.3C151.9,130.7,157.3,131.2,164.8,132.4z"/>
<path class="st17" d="M204.6,111.3c-5.8,1.6-10.7,4.6-15.7,8.3C190.6,116,197.1,110,204.6,111.3z"/>
<path class="st5" d="M144.9,284.2c6.5-7.1,13.9-17.7,17-27.7C162.3,268,154.6,279.2,144.9,284.2z"/>
</svg>
