<?xml version="1.0" encoding="utf-8"?>
<!-- Generator: Adobe Illustrator 21.1.0, SVG Export Plug-In . SVG Version: 6.00 Build 0)  -->
<svg version="1.1" id="Layer_1" xmlns="http://www.w3.org/2000/svg" xmlns:xlink="http://www.w3.org/1999/xlink" x="0px" y="0px"
	 viewBox="0 0 476 406" style="enable-background:new 0 0 476 406;" xml:space="preserve">
<style type="text/css">
	.st0{fill-rule:evenodd;clip-rule:evenodd;fill:#DBEAB4;}
	.st1{fill-rule:evenodd;clip-rule:evenodd;fill:#CAE197;}
	.st2{fill-rule:evenodd;clip-rule:evenodd;fill:#8CCCEB;}
	.st3{fill-rule:evenodd;clip-rule:evenodd;fill:#6D6E71;}
	.st4{fill-rule:evenodd;clip-rule:evenodd;fill:#BB7446;}
	.st5{fill-rule:evenodd;clip-rule:evenodd;fill:#A16044;}
	.st6{fill-rule:evenodd;clip-rule:evenodd;fill:#D58F5C;}
	.st7{fill-rule:evenodd;clip-rule:evenodd;fill:#F18A2E;}
	.st8{fill:none;stroke:#823436;stroke-width:1.6995;stroke-linecap:round;stroke-linejoin:round;stroke-miterlimit:22.9256;}
	.st9{fill-rule:evenodd;clip-rule:evenodd;fill:#EBB081;}
	.st10{fill-rule:evenodd;clip-rule:evenodd;fill:#FAA74A;}
	.st11{fill-rule:evenodd;clip-rule:evenodd;fill:#FED1A2;}
	.st12{fill-rule:evenodd;clip-rule:evenodd;fill:#E7A570;}
	.st13{fill-rule:evenodd;clip-rule:evenodd;fill:#FFFFFF;}
	.st14{fill-rule:evenodd;clip-rule:evenodd;fill:#ADBC72;}
	.st15{fill-rule:evenodd;clip-rule:evenodd;fill:#E89C9D;}
	.st16{fill-rule:evenodd;clip-rule:evenodd;}
	.st17{fill-rule:evenodd;clip-rule:evenodd;fill:#B79977;}
	.st18{fill-rule:evenodd;clip-rule:evenodd;fill:#D1D3D4;}
	.st19{fill-rule:evenodd;clip-rule:evenodd;fill:#F1F2F2;}
	.st20{fill:none;stroke:#7E6545;stroke-width:1.6995;stroke-linecap:round;stroke-linejoin:round;stroke-miterlimit:22.9256;}
	.st21{fill-rule:evenodd;clip-rule:evenodd;fill:#C7EAFB;}
	.st22{fill:none;stroke:#A82E31;stroke-width:1.6995;stroke-linecap:round;stroke-linejoin:round;stroke-miterlimit:22.9256;}
	.st23{fill-rule:evenodd;clip-rule:evenodd;fill:#EB9669;}
	.st24{fill-rule:evenodd;clip-rule:evenodd;fill:#A8D4EA;}
	.st25{fill-rule:evenodd;clip-rule:evenodd;fill:#D2E288;}
	.st26{fill:none;stroke:#FFFFFF;stroke-width:1.6995;stroke-linecap:round;stroke-linejoin:round;stroke-miterlimit:22.9256;}
	.st27{fill:none;stroke:#D2E288;stroke-width:1.6995;stroke-linecap:round;stroke-linejoin:round;stroke-miterlimit:22.9256;}
	.st28{fill:none;stroke:#1493C1;stroke-width:1.6995;stroke-linecap:round;stroke-linejoin:round;stroke-miterlimit:22.9256;}
	.st29{fill-rule:evenodd;clip-rule:evenodd;fill:#F9A57B;}
	.st30{fill-rule:evenodd;clip-rule:evenodd;fill:#A82E31;}
	.st31{fill-rule:evenodd;clip-rule:evenodd;fill:#FDCEAE;}
	.st32{fill-rule:evenodd;clip-rule:evenodd;fill:#FABFBF;}
	.st33{fill-rule:evenodd;clip-rule:evenodd;fill:#F6CDA8;}
	.st34{fill-rule:evenodd;clip-rule:evenodd;fill:#F7A1A1;}
	.st35{fill:none;stroke:#58595B;stroke-width:1.6995;stroke-linecap:round;stroke-linejoin:round;stroke-miterlimit:22.9256;}
	.st36{fill:none;stroke:#ED1651;stroke-width:8.4976;stroke-linecap:round;stroke-linejoin:round;stroke-miterlimit:22.9256;}
	.st37{fill-rule:evenodd;clip-rule:evenodd;fill:#D87672;}
	.st38{fill:none;stroke:#B35856;stroke-width:1.6995;stroke-linecap:round;stroke-linejoin:round;stroke-miterlimit:22.9256;}
</style>
<path class="st0" d="M412.7,125c20.5-9.9,42.8,16.2,16.9,42.1l-39.5,67.4l-31.7,45c93.2,10.1,93.1,67.2,15.8,58.7
	c-105.1-12.5-19.3,6.7-34.9,23.9c-16.8,19.2-96.6-7.6-81.1,17.4c41.1,69.2-323.4-11.7-165.2-70l-13.3-37.7L72.9,199
	C36,188,54.7,158.1,76,159.7c-9.4-5.3-2.2-18.2,6.4-14.4c0,0-31.3-19.6-12.4-32c0.9-0.6,3.1-1.5,2.5-2.8
	c-11.5-24.6,23.6-32.4,33.9-9.8c6.5-17.8-5.2-40.2,2.9-36.1c0.9,0.4-0.2-5.3-0.6-8.6c-1.9-14.3,27.5-5.7,30.4,16.7
	c0.2,1.4-2.4-15.1-0.9-18.3c3.8-8.2,14.7-5.8,13.2-11c-4.1-14.2,5.1-24,17-26.7c20.1-4.6,26.8,13.7,24.6,16.2
	c16.9-15.3,35.8-3.4,35.3,14.7c0,0,14-31.4,29.4-18.3c9.3,7.9,12.8,16.2,8.2,26.6c-0.4,0.9,26.3-2.4,21,12.8
	c-2.1,6.1-12.6,23.4-6.4,13.9c32.7-50,64.2-30.4,64.4-29.4c0.9,7.7,10.2,11.5,4.6,9.1c-17.5-7.5,33.8,26.2,43.4,50.1
	c1.1,2.7,13.8-5.7,17.5,0.2C410.1,112.2,415.1,121.2,412.7,125z"/>
<path class="st1" d="M402.9,178.5c14.7-7.1,30.7,11.6,12.1,30.2l-50,48.4l-22.7,32.2c66.9,7.2,62.4,32.1,11.3,35.7
	c-131.8-5.1,8.1,29.5-85.7,29.5c-49.3,44.4-208.1,11.9-163-28.3l16-64l38.2-30.6c-26.5-7.9-13.1-29.3,2.2-28.2
	c-6.7-3.8-1.6-13.1,4.6-10.3c0,0-22.4-14-8.9-23c0.6-0.4,2.2-1.1,1.8-2c-8.2-17.7,16.9-23.3,24.3-7.1c4.7-12.8-3.7-28.8,2.1-25.9
	c0.6,0.3-0.1-3.8-0.5-6.2c-1.3-10.2,19.7-4.1,21.8,12c0.1,1-1.7-10.9-0.7-13.1c2.8-5.9,10.6-4.2,9.5-7.9
	c-2.9-10.2,3.6-17.2,12.2-19.2c14.4-3.3,19.2,9.8,17.7,11.6c12.1-11,25.7-2.4,25.4,10.5c0,0,10.1-22.5,21.1-13.1
	c6.7,5.7,9.2,11.6,5.9,19.1c-0.3,0.6,18.9-1.8,15.1,9.2c-1.5,4.4-9.1,16.8-4.6,10c23.5-35.8,46.1-21.8,46.2-21.1
	c0.7,5.5,7.3,8.3,3.3,6.5c-12.5-5.4,24.2,18.8,31.2,35.9c0.8,1.9,9.9-4.1,12.5,0.1C401.1,169.3,404.7,175.8,402.9,178.5z"/>
<path class="st2" d="M213.5,311c-2.4-7.9-5-10.1,2.1-11.8c8.1-1.9,9.4,6.3,10.9,9.4c2.5,5.1,25.2,0.9,30.6,0
	c13.3-2.1,27.1,1.8,20.6,13.6c-3.3,6.1-15.2,0.5-15.4,8.2c-0.3,9.4-22.1-0.9-27.5,0c-13.6,2.7-11.5,11.2-22.1,13.6
	c-7,1.5-21.8-1.5-21.8-10c0-4.5,5.9-6.8,8.2-8.8c5.1-4.5-8.5-7-3-11.5C199.4,310.8,213.8,317,213.5,311z"/>
<path class="st2" d="M294.9,300.7c-4.5,0-17-3.6-17,2.7c0,6.9,16.2,1.8,18.2,1.2C301.3,303,298,301.2,294.9,300.7z"/>
<path class="st3" d="M239.6,70.1l-7.3-0.7c-12.4-25.3,5.1-36.2,9.2-54.1C253.2,36.5,255.3,58.5,239.6,70.1z"/>
<path class="st2" d="M248.1,59.7c-26.7-16.5-9.6-31.7-6.7-44.3C253.2,36.5,251.6,52.6,248.1,59.7z"/>
<path class="st4" d="M425,79.3c-1.4,8.5-4.8,9.8-11.9,12.1c-16.5,16.3-51.3,29-55.1,61c30.3-21.6,61.7,11.8,94.1-2.5
	c5.8-8,13.4-13.4,22.9-16.1l-4.2,4c-3.5,25,13.4,54.9-10.5,74.9c-8.2,36.3-25.8,56.6-49.5,61l-8.6-13.3c-5,1.9-9.7,2.7-14.3,2.5
	l4.1,5l3.8,6.5c-33.6-2.2-60.4-11-75.9-30.5c10.1-1.9,18.4-7.1,24.8-15.7c-8.6-3.5-16.1-8.6-22.8-14.7c-20.3-3.8-27.3-7.6-5-11.5
	c-12.9-0.1-18.9-1.4-18.1-3.9l13.4,46.9c5.6,3,7.1,7,6.6,11.3c-9.6-8.5-28.8-5-43.3-7.5c-35.7-9.4-36.2-47.8-3.9-77.6l22.8-27
	l2.7-6.7c-4.1,2.8-2.4-0.8,5.1-10.8c10.4-14.2,42-19.6,59.8-37L350.6,40c8.2-45.2,62.4-44.3,76.2-21.5c1.4-3.1,4-5.8,7.9-7.9
	c-3.3,6-4.4,10.7-4.7,14.7c1.6-3.7,4-5.6,7.2-5.7C433.1,39.5,445.5,56.2,425,79.3z"/>
<path class="st5" d="M344.9,228c-6.4,8.5-14.7,13.8-24.8,15.7c15.6,19.5,42.4,28.4,75.9,30.5l-3.8-6.5l-4.1-5
	c4.5,0.3,9.3-0.6,14.3-2.5l8.6,13.3c23.7-4.4,41.3-24.7,49.5-61c23.9-20.1,10.6-45.2,10.1-64.9c-8.2,17.9,9.9,46.7-25.2,56.5
	C438.6,245.5,388.5,248.6,344.9,228z M425,79.3c-1.4,8.5-4.8,9.8-11.9,12.1c-18.4,18.1-54.4,33-55.1,61c13.2-4.7,32-3.3,42.7,6.3
	l-45.4,20.6c0,0-21.2-31.6-13.7-41.6c8.3-21.2,42.4-23.8,53.7-47.1c27.3-24.9,37.3-53,22.8-72.5C432.7,21.3,442.5,59.6,425,79.3z"/>
<path class="st4" d="M115.4,312.3c19.2,11.1,44.5,13.4,74.7,8.4c3.8,0.3,7.6-0.8,11.2-5.2c2.1-0.8,3-3.1,2.7-7
	c-10.7-14.2-37.8,1.2-54.1-24.4c8.7-6.8,14.7-17.2,18.9-30.2c35.1,10.2,60.5-3.4,58.5-13.7c2.4-3.9,3-7.1,2-9.7
	c0.9-2.9,0.6-5.1-1.1-6.5c-15.6,5-31.3,4-46.9-4.2l5.6-4.2c7.1,2.5,15.6-0.1,25.1-6.3l4.5-35.3c-10,6.2-19.3,8.4-28.1,7.8l-3.3-4.6
	c5.8-0.5,9.7-3,11.8-7.5c16.6-13.3,21.7-30.5,19.4-50.1c-1.8-1.9-4.3-3.2-8.3-3.1c1.5-2.8,3.7-4.6,6.5-5.4
	c-4.1-1.8-8.3-2.6-12.4-2.5c-4.6-21.2-15.3-34.4-34.7-36.2c2.6-38-40.5-51.3-65.2-66c-7.7-4-11.4-1.7-11,6.6
	c6.6,30.2,34.1,28.4,41.6,61.1l-5.6,6.5C110.7,38.9,91,35.7,70.8,6.6c-4.5-7.4-10.9-8.1-12.4,0.6c-9.4,74.8,34,72,53.5,99
	c-3.2,11.6-2.8,18.7,0.4,31.4c-3.5,5.3-4.9,11.6-4.3,16.8c2.6-2.5,6.3-4.2,9.3-4.4c-9.5,9.9,0.2,16.4-16.9,25.1
	c-44,9.4-75.6,35.7-71.4,73.9c2.1,22.6,19.5,40.1,45,55.2c4.9,3.2,6.4,7.3,4.5,12.4c-7.1,4.9-8.8,12.1-2.3,16.9
	c11.7,10.8,70.2,18.4,73.5,12.7c7.8,1,12.4-0.1,14.1-3.4c3.5,0.5,8.2-1,8.4-3.9C170.4,319.6,123.1,324.3,115.4,312.3z"/>
<path class="st5" d="M115.4,312.3c19.2,11.1,44.5,13.4,74.7,8.4c3.8,0.3,7.6-0.8,11.2-5.2c8-24.5-40.3-4.3-59-25.6l-24.1,10.5
	L86.1,285c-59.1-46.8-43.8-73.1-0.8-98.8l46.3,6.5c-6.2,14.9-3.3,28.4,8.7,40.5c18.4,21.7,50.4,31.2,66,14.7
	c-33.2,10.7-76.3-38-74.6-55.2l11.2-25.4l38.8,52.6l5.6-4.2c7.1,2.5,15.6-0.1,25.1-6.3L215,188c-10,6.2-18.1,9-26.3-6.1l-3.3-4.6
	l2.9-51.8l-9.4-29.3c-5,1-5.3,12.1,0.6,33.2l-10.8,15.2l-41.3-16.5c-0.9-9.1-1.2-23.1,7.4-29.8c1.4-15.3,32.4-23.4,19.2-29.9
	c-3.4,0.2-6.8,4-12,8.8c6.2-9.7,5.9-13.1,0.8-11.5l4.9-3.6c-2.3-31-51.6-36.2-56.4-48.7c6.6,29.9,34.1,28.1,41.6,60.8l-5.6,6.5
	c3.6,22.1-11.1,21.8-8.9,11.2c-4.5-7.4-54.1-77.3-55.6-68.7c-3.9,49.8,29.5,56,49,82.9c-3.2,11.6-2.8,18.7,0.4,31.4
	c-3.5,5.3-4.9,11.6-4.3,16.8c2.6-2.5,6.3-4.2,9.3-4.4l25.4,17.3l-11.2,25.4l-46.3-6.5c-33.8,7.6-58.2,25.6-56.4,62.8
	c2.1,22.6,19.5,40.1,45,55.2c4.9,3.2,6.4,7.3,4.5,12.4c-7.1,4.9-8.8,12.1-2.3,16.9c11.7,10.8,70.2,18.4,73.5,12.7
	c7.8,1,12.4-0.1,14.1-3.4c-34.3,4.9-72.3-12.8-75.1-23.5c-4.3-13.4,18.2-6-2.6-34.1l32.3,15.4l-3.1,6L115.4,312.3z"/>
<path class="st6" d="M361.1,45.1l-7.6,8.2l-11.8,1C341.5,38.5,350.3,37.1,361.1,45.1z"/>
<path class="st6" d="M401.3,59.7c15-3.9,21.4,0.5,21.9,10.6l1,2.8l-0.4,3.5c2.1,3.8,0.9,8-3.6,12.6c-9.4,4.2-20.4,3.9-32.8,0
	L401.3,59.7z"/>
<path class="st5" d="M271.5,172.4l40.9,71.9C252.3,243.6,235.7,208.9,271.5,172.4z"/>
<path class="st7" d="M354.5,78.8l40.1-14.7l10.2,2.8c-1.8,8.4-15.8,20.8-23.3,24.7C372.7,96.5,362.5,95.9,354.5,78.8z"/>
<path class="st6" d="M355.4,179.3l4.4-3l3.9-5.6c6-19.7,48.6-25.3,59.6,18.2c4,21.2-4,34-20.1,41c-11.9,3.6-27.9-1.7-26.4-13.3
	c-12.7,4.2-23.2-5.3-20.6-14.4C346.5,200.7,340.5,185.8,355.4,179.3z"/>
<path class="st8" d="M403.1,229.8c-11.9,3.6-27.9-1.7-26.4-13.3c-12.7,4.2-23.2-5.3-20.6-14.4c-9.8-1.6-15.7-16.5-0.9-23"/>
<path class="st9" d="M402.9,164.1c-14.6-3.5-26.1-3.2-36.6,7.6C376.1,155.4,392.3,156.1,402.9,164.1z"/>
<path class="st10" d="M346.6,53.2c6.5-2.3,11.9-10,19.6-9.5c11.8-0.1,17,19.2,29.5,16.6c9.8-3.3,12.5,7.1,5.1,14.6
	c0.8-6.6-1.9-9.5-7.9-8.7c-10.2,10.5-22.3,15.9-40.4,12.4c-26.5-8.7-25.1-25.3-15.7-24.3L346.6,53.2z"/>
<path class="st6" d="M403.3,8.7c-9.6-1.5-19.1-0.2-29.8,3.7C383.2,4.9,393.1,4.1,403.3,8.7z"/>
<path class="st6" d="M327.6,118.9c-9.6,1.7-18.1,5.9-27,13C307.4,121.8,316.5,117.8,327.6,118.9z"/>
<path class="st6" d="M422.1,156.3c9.6,1.5,19.1,0.2,29.8-3.7C442.2,160.1,432.3,160.9,422.1,156.3z"/>
<path class="st4" d="M388.7,269.1c-7.7-1.7-38-5.4-55.4-20.5C344.5,263.3,375.4,271.9,388.7,269.1z"/>
<path class="st11" d="M363.6,76.7c-8.9-0.2-26.5-7.8-30.1-16.7C335.5,72.2,352.4,78.4,363.6,76.7z"/>
<path class="st1" d="M271.5,106.3c-6.7-2.3-6.5-8.9-9.4-14.6c0,0-1.5-1.1-0.4-1.1C271.2,90.6,273.7,99.8,271.5,106.3z M193.8,52.2
	c4.5-0.9,10.6-10.3,9.7-14.7l-0.5-0.7l-0.7,0.5C197.8,40.9,189.1,46.2,193.8,52.2z M202.8,51.9c2.5-3.8,16.1-8.2,15.3-3.8
	C217.1,54.9,204.8,54.6,202.8,51.9z M277.4,96.9c-1.7-6.9,3-6.9,8.3-9.6C287.1,86.7,285.2,98.4,277.4,96.9z"/>
<path class="st6" d="M168.9,254c-11.5-3.2-18.7-9.9-28.4-20.6c14.4,33.6-6.3,49.1-22.2,67C142.3,295.5,165.4,273,168.9,254z"/>
<path class="st12" d="M202.2,108.8c-8.2,2.1-14.5,6.1-18.8,12c-10.3,2.8-15.4,5.8-15.5,9.1c-16.2,1.1-32.4-7.3-45.2-0.2
	c-11.9,6.6-16,15-14.8,24.7l9.3-4.4c-4,14.1,7.6,22,26.5,27l3.8,0.6c-1.7,2.7-0.7,6.9,3,12.6c9.2,15.1,19.3,25.7,30.9,29.7
	c4.3-1.9,7.4-5.4,9.1-10.3l3.1-0.2c-2.8-10.7,1-21.1-8.3-32c3.9-0.8,9.5-1.2,11.8-7.5c14.5-9.5,23.7-28.1,19.4-50.1
	c-1.5-2.3-4.3-3.3-8.3-3.1c0.9-2.5,3.4-4.1,6.5-5.4C211.4,109.7,207.6,108.6,202.2,108.8z"/>
<path class="st6" d="M107.9,154.3l9.3-4.4c-4,14.1,7.6,22,26.5,27l3.8,0.6c-1.7,2.7-0.7,6.9,3,12.6c9.2,15.1,19.3,25.7,30.9,29.7
	c4.3-1.9,7.4-5.4,9.1-10.3c-9.6,6.6-20.8-1.8-30-26.2c6.3,1.2,19.9-2.5,24.8-6.1c3.9-0.8,7.4-1.5,11.8-7.5
	c8.7-6.3,13.1-14.1,13.3-23.5c-1.9,8.1-7.1,14.4-15.7,18.9c-3.3,6.3-9.7,7.8-18.1,5.9c-33,5.9-53.5-12.4-46.8-32.9l-5.9,3.1
	c1.9-4.4,8.5-9.1,16.1-8.9C126.8,130.2,109,137.5,107.9,154.3z"/>
<path class="st9" d="M6.6,245.2c-3.6-8.6-4.3-16-2.2-22.3l3.3,5.5c6.6,3.3,13.8,5,21.4,5.6c-3.8,24.2,8.3,43.3,29.2,59.6
	c-58.2,11.5-47-34-57.4-49.2L6.6,245.2z"/>
<path class="st6" d="M16.5,247.7c-5.6-4.8-10.4-14.3-8.8-19.2l7.5,2.9c5.2,2.6,8,2.2,13.9,2.7c-0.4,16.5-0.4,28.3,12.6,44.2
	c-24.5-0.2-24.9-20.3-31.9-32.2L16.5,247.7z"/>
<path class="st8" d="M143.7,176.9c13.3,2.3,22.6,3.5,35-0.1c6.7,2,16.1-0.7,18.4-6.9c14.5-9.5,23.8-28.9,19.4-50.1
	c-1.5-2.3-4.3-3.3-8.3-3.1c0.9-2.5,3.4-4.1,6.5-5.4c-3.2-1.6-7.1-2.7-12.4-2.5c-5.2-25.5-16.6-34.2-34.7-36.2
	c4-41.1-52.5-55.7-65.2-66c-4.7-3.5-12.8-2.9-11,6.6c4.7,27.4,36.5,31,41.5,61"/>
<path class="st8" d="M115.4,312.3c-6.9-17.9,46.3-32.1,24.7-79.1"/>
<path class="st8" d="M58.2,293.7c-58.2,11.5-47-34-57.4-49.2l5.8,0.7"/>
<path class="st13" d="M164.3,129.9l-23.6-2.7c-0.2-16.8,2.1-26.6,8.3-27.2C156.3,100.5,161,112.1,164.3,129.9z"/>
<path class="st8" d="M11,253.7c-6.2-10.4-9.5-20.7-6.6-30.9c2.5,5.9,8.1,11.4,15.1,16.8"/>
<path class="st14" d="M145.9,127.5l18.4,2.4l-6.1-21.4C150.3,101.5,144,110.8,145.9,127.5z"/>
<path class="st8" d="M7.7,228.4c7.5,3.5,15.6,5.4,21.4,5.6"/>
<path class="st8" d="M146.3,337.2c2.3,3.1,3.1,4.2,3.7,8.8"/>
<path class="st8" d="M159.8,333.6c2.7,3,3.9,4,4.3,9.1"/>
<path class="st8" d="M168.9,254c-7.9,25.5-25.8,39.7-50.6,46.5"/>
<path class="st13" d="M197.8,109.4c-5.9,3.1-11,6.9-15.5,11.5c-4.5-13.4-5.5-27.9-0.2-30.1C187.4,89.5,193.9,96.7,197.8,109.4z"/>
<path class="st8" d="M150.1,284.1c15.3,27.1,47.6,8.9,54.1,25.7c-0.2,2.8-0.7,4.6-2.7,5.8c-3,3.6-6.7,5.3-11.2,5.2
	c-18.2,4.3-38.8,3.6-61.7-2.1"/>
<path class="st14" d="M185.6,118.2c2.8-3.6,7.2-6.4,12.2-8.8c-1.5-5.2-3.6-10-6.9-13.9C183,94,180.2,101.8,185.6,118.2z"/>
<path class="st8" d="M201.4,315.6c-1-3.6-3.1-6.4-7.2-7.3"/>
<path class="st8" d="M190.2,320.7c-1-3.6-2.6-6.2-5.6-8.4"/>
<path class="st8" d="M112.1,137.5c14.8-18.6,43.2-6.1,55.7-7.7"/>
<path class="st15" d="M190.1,145.5l-6.2-2.2l-2,4.8l-3.4,3.8C183.6,158.2,191,156.2,190.1,145.5z"/>
<path class="st8" d="M183.4,120.8c6.9-8.4,13.4-11,18.8-12"/>
<path class="st8" d="M161.1,144.5c2.5,11,21.3,10.4,22.9-1.3c8.2,6,19.3-2.9,13.6-11.8"/>
<path class="st8" d="M158.1,143.6c0.8-2.2,2.2-2.9,4.2-2.1"/>
<path class="st8" d="M199.1,128.9c-1.8-1.1-3.2-0.8-4.1,1.1"/>
<path class="st8" d="M178.5,151.8c5.1,6.4,12.5,4.5,11.6-6.3"/>
<path class="st8" d="M180.7,158.5c4.3,2.6,9.2,1.1,10.8-2.9"/>
<path class="st8" d="M140.6,126.2c-0.2-16.8,2.1-25.6,8.3-26.1c7.3,0.4,12.1,12,15.3,29.9"/>
<path class="st8" d="M182.3,120.9c-4.5-13.4-5.5-27.9-0.2-30.1c5.3-1.3,11.8,5.9,15.7,18.6"/>
<path class="st8" d="M152,97c-4.4-3.8-11.6,0.3-13.3,9"/>
<path class="st8" d="M183.5,86.3c-4.5-1.6-7.6,2.4-7.8,7"/>
<path class="st16" d="M155.4,123.4c2.9,0,5.2-2.3,5.2-5.2c0-2.9-2.3-5.2-5.2-5.2c-2.9,0-5.2,2.3-5.2,5.2
	C150.2,121.1,152.5,123.4,155.4,123.4z"/>
<path class="st13" d="M152.6,123.4c1.4,0,2.5-1.1,2.5-2.5c0-1.4-1.1-2.5-2.5-2.5c-1.4,0-2.5,1.1-2.5,2.5
	C150.1,122.3,151.3,123.4,152.6,123.4z"/>
<circle class="st16" cx="190.3" cy="104.7" r="4.7"/>
<path class="st13" d="M187.8,109.4c1.2,0,2.2-1,2.2-2.2c0-1.2-1-2.2-2.2-2.2c-1.2,0-2.2,1-2.2,2.2
	C185.6,108.4,186.6,109.4,187.8,109.4z"/>
<path class="st8" d="M127.3,80.7c11-14.4,26-23,28.6-21.5c1.6,1.8-3.5,8.1-13.2,17.4"/>
<path class="st8" d="M149.6,69.6c19.6-6.2,24.7,1.3,7.7,10.5"/>
<path class="st8" d="M229.4,230.6c1.8,7-2.3,11.6-9.3,14.8"/>
<path class="st8" d="M185.2,177.3c10.9,13.1,5.4,24,8.3,32c-2.7,1.1-7.9-0.7-9.3-3.1"/>
<path class="st17" d="M232.3,193.3c-1.2,10.4-2.6,20.8-4,30.9L232.3,193.3z M224.8,248.1c-2.8,2.8-8.2,5.2-16.9,8
	c-4.3,47.9-5.8,83.3-2.9,83.2C207.9,340,216.7,300.3,224.8,248.1z M210.7,226.8c1.9-18.5,4-37.8,6.4-57.3L210.7,226.8z M218.7,157.2
	c5.9,2.6,6.7,17.9-1.6,12.5l-6.4,57.3c6-0.2,11.8-0.9,17.4-2.7l4.2-30.9c-10.2-11.4-9.9-28.7,2.9-26.3c3.1-32.7,5.4-71.5,4.4-96.7
	l-7.3-0.7C227.4,94.9,222.8,125.7,218.7,157.2z"/>
<path class="st8" d="M216.6,174.1c-7.2,5.5-17.5,8.1-28.1,7.8"/>
<path class="st8" d="M190.5,209.5c-2.3,5.6-5.4,9-9.1,10.3"/>
<path class="st8" d="M187,215.6c7.8,2,17.3-1,25.1-6.3"/>
<path class="st13" d="M403.3,59c-9.1,3.7-17.3,1.9-24.3-7.7c3.7-15.1,14.7-27.8,18.9-26.1C405.6,27.6,408.3,42.1,403.3,59z"/>
<path class="st13" d="M368.4,43.9l-2.7-0.2l-4.6,1.5l-8-4.4c3-14.6,11.6-24.1,15.5-23C374.6,21,372.6,31.4,368.4,43.9z"/>
<path class="st4" d="M235.2,166.9l0.7-7.3c11.8,5.6,6.5,30.6-3.6,33.6c-5.7-6.8-8.5-12.9-6.2-22.5
	C227.1,167.9,230.1,166.6,235.2,166.9z"/>
<path class="st18" d="M237.6,134.4c1.7-21.8,2.5-43.3,2-64.3l-7.3-0.7L222,133C223.8,136.4,234.5,137.1,237.6,134.4z"/>
<path class="st8" d="M235.9,159.7c11.8,5.6,6.5,30.6-3.6,33.6c-5.7-6.8-8.5-12.9-6.2-22.5c1-2.9,4-4.2,9.1-3.9"/>
<path class="st19" d="M236.9,83.3l-1.9,52.3c-5.4,1.1-9.7,0.2-13-2.6l0.4-2.8c2.7,1.4,5.6,1.9,8.6,1.7L236.9,83.3z"/>
<path class="st20" d="M228.3,224c1.4-10.1,2.7-20.4,4-30.9 M207.9,256c-4.3,47.9-5.8,83.4-2.9,83.3c2.9,0.8,11.7-39.1,19.7-91.2
	 M217.1,169.8c-2.4,19.4-4.6,38.6-6.4,57.1 M235.2,166.9c3.1-32.7,5.4-71.5,4.4-96.7l-7.3-0.7c-4.9,25.5-9.5,56.3-13.6,87.6"/>
<path class="st21" d="M366.2,43.7l-5.6,1l-5.6-3.4c1.3-10.4,8-16.5,10.2-15.9C369.1,25.7,369.5,35.1,366.2,43.7z"/>
<path class="st4" d="M216.6,157.7c-9.9,7.2,3.7,16.1,5.5,12.4C225.1,165.9,221.3,154.7,216.6,157.7z"/>
<path class="st8" d="M216.6,157.7c-9.9,7.2,3.7,16.1,5.5,12.4C225.1,165.9,221.3,154.7,216.6,157.7z"/>
<path class="st8" d="M226.1,170.8c1.3,5.1,3.6,8.8,7.5,11.6"/>
<path class="st8" d="M413.1,91.4c-21.8,18.7-53.8,34.5-55.1,61c32.8-22,59.2,11.6,94.1-2.5c7.6-9.3,15.3-14.6,22.9-16.1
	c-8.5,7.4-13.7,15.7-15.4,25.1 M350.6,40c8.2-45.2,62.4-44.3,76.2-21.5c1.4-3.1,4-5.8,7.9-7.9c-3.3,6-4.4,10.7-4.7,14.7
	c1.6-3.7,4-5.6,7.2-5.7c-4.1,19.9,8.4,36.7-12.2,59.8"/>
<path class="st8" d="M401.3,59.7c13.7-5,21.9,0.8,21.9,10.6"/>
<path class="st8" d="M417,66.9c5,1.2,8.1,3.4,7,8.1"/>
<path class="st8" d="M418.9,72.4c7.8,3.4,7.3,10.3,1.3,16.6c-9.4,3.7-17.6,3.8-25,1.5"/>
<path class="st22" d="M389.4,64c3.2,0.4,4.8,2.4,4.9,5.9"/>
<path class="st8" d="M361.1,45.1c-10.5-8.8-20.2-5.5-19.4,9.2"/>
<path class="st8" d="M353.2,40.7c3-14.6,11.6-24.1,15.5-23c5.9,3.3,3.9,13.8-0.3,26.2"/>
<path class="st8" d="M379,51.3c3.7-15.1,14.7-27.8,18.9-26.1c7.7,2.4,10.4,16.8,5.4,33.7"/>
<path class="st21" d="M396.1,60.1c-4.9,1.1-9.7,0-14.5-5.9c2.2-12.4,10.2-19.4,13.1-18.6C400.1,36.1,400.6,48.4,396.1,60.1z"/>
<path class="st16" d="M360.9,41.6c2.2,0,4.1-1.8,4.1-4.1s-1.8-4.1-4.1-4.1c-2.2,0-4.1,1.8-4.1,4.1S358.7,41.6,360.9,41.6z"/>
<path class="st2" d="M344.9,228c-9-3.9-16.5-8.8-22.8-14.7c-23-4.7-23.9-7.5-5-11.5c-11.1,0.4-18.7-0.3-18.5-3.4
	c10.4-15.7,37.8-11.2,56.7-19.2c2.5-17.6-9.3-45.3-25.3-48.7c-16.9-5.5-52.4,24.1-58.1,40.6C246.9,241.6,318.2,263.4,344.9,228z"/>
<ellipse class="st13" cx="363" cy="39.6" rx="2" ry="2"/>
<circle class="st16" cx="390.8" cy="49.6" r="4.7"/>
<path class="st13" d="M393.1,54.3c1.3,0,2.3-1.1,2.3-2.3c0-1.3-1.1-2.3-2.3-2.3c-1.3,0-2.3,1.1-2.3,2.3S391.8,54.3,393.1,54.3z"/>
<path class="st8" d="M362.4,89.6c-19.3,19-57.6,24.5-66.6,47.2c-1.8,4.3,3.4-0.7,9-5.1"/>
<path class="st23" d="M364,269.4c-10.6-2.4-21.1-6.3-31.1-13.3c-1.7,6-15.6,6.5-18.8,9c-3.4,2.1-1.8,6.2,3.6,7.2
	c4.7,1.4,2.9,4.4,0.4,8.2c-3.5,5.2,3.2,8.3,6.9,5.7c3.6-2.4,6.4-0.1,7.5,3.1C335.4,298.1,351.9,295.7,364,269.4z"/>
<path class="st13" d="M314.6,212.3l5.8,0.8l6.6,16.6l13.1-4l4.9,2.3c-20,28.7-75,18.7-77.9-24.3l10.1,11.8l12.4-12.1l10.2,18.9
	L314.6,212.3z"/>
<path class="st8" d="M272,171.1c-24.7,25-28.6,45.3-18.3,62.5c18.1,27.3,47.3,8.9,65.4,22.7c0.4-4.4-1.1-8.4-6.6-11.3"/>
<path class="st22" d="M332.9,256.1c-1.7,6-15.6,6.5-18.8,9c-3.4,2.1-1.8,6.2,3.6,7.2c4.7,1.4,2.9,4.4,0.4,8.2
	c-3.5,5.2,3.2,8.3,6.9,5.7c3.6-2.4,6.4-0.1,7.5,3.1c3,8.9,19.5,6.5,31.6-19.9"/>
<path class="st8" d="M396,274.3c-25.3-0.9-62-9.9-75.9-30.5 M470.9,137.8c-3.5,25,14.2,52.9-10.5,74.9c-7.9,36.6-26.8,56.9-49.5,61"
	/>
<path class="st24" d="M348.8,181.5c-16.7,5.7-39.7,1.3-50.1,17c2.6,2.4,9.8,3.1,19,3.2c-18.4,4.1-19.7,6.1-3.1,10.7l-15,10.1
	l-10.2-18.9L277,215.6l-10.1-11.8c-1-18.4,3.2-32.2,11-43l14-4.6l3.9,17.1l19.3-9.4l9.6,16.3l15.8-10L348.8,181.5z"/>
<line class="st8" x1="297.5" y1="137.4" x2="294.8" y2="144.1"/>
<polygon class="st25" points="355.4,179.3 348.8,181.5 340.5,170.3 324.7,180.3 314.3,164.4 295.8,173.4 291.9,156.3 278,160.8 
	287.9,150.1 297.4,147.6 300.7,163.3 318.2,153.8 327.1,170.3 341.3,160.3 "/>
<polyline class="st26" points="287.9,150.1 297.4,147.6 300.7,163.3 318.2,153.8 327.1,170.3 341.3,160.3 355.4,179.3 "/>
<polyline class="st27" points="266.9,203.8 277,215.6 289.4,203.6 299.6,222.4 314.6,212.3 "/>
<polyline class="st26" points="278,160.8 291.9,156.3 295.8,173.4 315.1,164 324.7,180.3 340.5,170.3 348.8,181.5 "/>
<path class="st28" d="M355.4,179.3c2.5-17.6-9.3-45.3-25.3-48.7c-16.9-5.5-52.4,24.1-58.1,40.6c-25.1,70.6,46.3,92.3,72.9,57"/>
<ellipse transform="matrix(0.2866 -0.958 0.958 0.2866 25.3173 399.3229)" class="st13" cx="280.8" cy="182.7" rx="9.3" ry="6"/>
<path class="st13" d="M313.4,188.6c-6.6,2.6-11.1,5.8-14.3,9.4c-1.1-2.1-1.3-5-0.2-7.9c1.8-4.9,6.4-8.2,10.2-7.2
	C311.6,183.4,313.1,185.7,313.4,188.6z"/>
<polyline class="st27" points="320.4,213.1 327,229.7 340,225.7 "/>
<path class="st22" d="M392.8,66.1c-19.1,19.8-47.9,15.9-59.7,0.4c-4.7-6.9-1.6-13.4,5.1-12.3c9.3,1.5,15.3-6.1,22.9-9.1
	c6.3-3.6,12.2-0.3,18,6.2c4.2,4.7,9,10.7,16.6,8.9c9.5-2.4,12.3,5.8,5.1,14.6"/>
<path class="st22" d="M354.3,78.7c10.5,19.9,24.4,19.9,40.1,2"/>
<path class="st29" d="M397.8,279.2c-2.2-6.2-5.5-11.6-9.7-16.4c4.6,0.5,9.4-0.3,14.3-2.5c21,26.5,18.2,52.6,1.6,58.8
	c-4.5,2.7-10.7,2.4-12-2.6c-0.5-2.2-3.5-3.6-8.6-2.4c-7.8,1.7-12.4-2.8-7.7-7.5c2.8-2.6,3.2-6.7-2.6-7.7c-8-1.7-6.7-9.8-0.2-10.6
	C380.5,288,394.8,286,397.8,279.2z"/>
<path class="st22" d="M388.1,262.8c8.5,9.3,11.2,17.5,10,24.8"/>
<path class="st22" d="M402.3,260.3c21,26.5,18.2,52.6,1.6,58.8c-4.5,2.7-10.7,2.4-12-2.6c-0.5-2.2-3.5-3.6-8.6-2.4
	c-7.8,1.7-12.4-2.8-7.7-7.5c2.8-2.6,3.2-6.7-2.6-7.7c-8-1.7-6.7-9.8-0.2-10.6c7.5-0.5,21.8-2.5,24.8-9.3"/>
<path class="st8" d="M381.5,261.4c8.1,3.2,18.8,1.1,26.4-4"/>
<path class="st8" d="M363.7,170.7c-8.8,20.2-47.7,6.7-64.9,27.8c1.8,4.3,25.8,2.7,38.7,4"/>
<path class="st8" d="M317.1,201.9c-7.3,1.6-13.3,3.2-13.7,5c3.1,8.3,34.6,6.3,51.9,9.5"/>
<path class="st8" d="M322.2,213.3c41.8,38,111.9,23.8,101-24.5"/>
<path class="st8" d="M150.5,190.2c23,38.7,54.6,40.3,77.6,34c3.6,2.3,2.3,10.5-8,14.5"/>
<path class="st8" d="M140.2,233.1c26.3,37.7,90.1,25.7,87.1,7.2"/>
<path class="st30" d="M366.8,59.5c2,0,3.6-1.6,3.6-3.6c0-2-1.6-3.6-3.6-3.6c-2,0-3.6,1.6-3.6,3.6C363.1,57.8,364.7,59.5,366.8,59.5z
	"/>
<path class="st31" d="M410.7,310.2c2.3-9.5,2-19-1-30C416.2,290.6,416.2,300.6,410.7,310.2z"/>
<path class="st32" d="M123,96.1C111.9,49.8,79.6,33,71.5,21.7c-2.4-4.6-9.2-5.3-8.7,1.6c4.1,54.1,39,48,52,74.5
	C115.7,102.6,124.8,101.4,123,96.1z"/>
<path class="st33" d="M164.8,132.4c-5.8,1.6-13.7,1.8-23.4-0.3C151.9,130.7,157.3,131.2,164.8,132.4z"/>
<path class="st33" d="M204.6,111.3c-5.8,1.6-10.7,4.6-15.7,8.3C190.6,116,197.1,110,204.6,111.3z"/>
<path class="st33" d="M189.8,198.7c-0.3-6.4-2.2-12.2-4.8-18.3C188.1,183,192.6,191.2,189.8,198.7z"/>
<path class="st34" d="M70,41.8C75.2,53,82.6,62.3,93.2,71.3C80.3,65.5,72.9,55.4,70,41.8z"/>
<path class="st6" d="M141.5,249.6c-0.6,12.5-5.5,23.3-14.1,34.4C139.7,275.9,145,263.8,141.5,249.6z"/>
<path class="st6" d="M210.5,229.2c-12.4,1.1-23.8-2.1-36-9C184.3,231.2,197,234.7,210.5,229.2z"/>
<path class="st6" d="M83.1,25.4c9.1,5.4,30.4,34.9,36.1,45.3C116.9,58.4,96.7,29.7,83.1,25.4z"/>
<path class="st6" d="M131.1,27.3c9.8,4,25,19.3,31.5,29.2C159.5,44.4,145,30.5,131.1,27.3z"/>
<path class="st9" d="M144.9,284.2c6.5-7.1,13.9-17.7,17-27.7C162.3,268,154.6,279.2,144.9,284.2z"/>
<path class="st33" d="M41.3,292.4C29.9,289.5,20.7,283,12,273C17.3,285.9,27.5,293.1,41.3,292.4z"/>
<path class="st8" d="M131.5,93.8C117.2,41.9,91,35.7,70.8,6.6c-4.5-7.4-10.9-8.1-12.4,0.6c-9.4,74.8,34,72,53.5,99
	c-3.2,11.6-2.8,18.7,0.4,31.4c-3.5,5.3-4.9,11.6-4.3,16.8c2.6-2.5,6.3-4.2,9.3-4.4c-9.5,9.9,0.2,16.4-16.9,25.1
	c-44,9.4-75.6,35.7-71.4,73.9c2.1,22.6,19.5,40.1,45,55.2c4.9,3.2,6.4,7.3,4.5,12.4c-1.6,3.8-12.3,10.1-2.3,16.9
	c11.7,10.8,70.2,18.4,73.5,12.7c7.8,1,12.4-0.1,14.1-3.4c3.5,0.5,8.2-1,8.4-3.9c-1.7-17.2-46.8-13.9-61.5-29.6"/>
<path class="st6" d="M115.7,316.2c10.1,7.4,27.3,6.3,38.4,12.3C143.3,327.4,124.3,326.4,115.7,316.2z"/>
<path class="st0" d="M364.1,360.1c2.3,0.9,8.4,1.7,10.3-0.2c1.8-1.9,14.8-9.6,19.5-5c2.8,2.8,0.1,4.7-1.8,6.6
	c-5.1,5.2,3.8,6,7.6,9.7c5.7,5.5-4.1,9.9-9.2,9.9c-11.3,0.2-24.7-10.5-36-5.1c-2.8,1.4-20.9,8.6-25.3,2.8
	c-8.4-11.1,18.3-5.4,18.1-17.2c0-2.8,1.3-7.5,6-7.6C358.4,354.1,362.2,360.1,364.1,360.1z"/>
<path class="st35" d="M239.6,70.1l-7.3-0.7c-12.4-25.3,5.1-36.2,9.2-54.1C253.2,36.5,255.3,58.5,239.6,70.1z"/>
<path class="st20" d="M222,133c1.8,3.4,12.5,4.1,15.6,1.4"/>
<path class="st36" d="M239.6,70.1c-1.5,110.5-14.5,197.3-34.6,269.2"/>
<path class="st36" d="M344.9,228c26.7-33.9,4.7-91.2-14.9-97.5c-19-5.5-65.9,34.6-63.2,71C269.4,241.2,316.5,260.3,344.9,228z"/>
<path class="st15" d="M167.9,129.8c0.3-5.5,17.6-11.3,19.1-8.3c2.6,2.8-0.5,9.9-4.3,13.1C175.7,136,169.2,133.7,167.9,129.8z"/>
<path class="st37" d="M167.9,129.8c6,4,22-4,19.1-8.3c2.6,2.8,0.9,11.3-4.1,15.2C175.9,138.2,169.2,133.7,167.9,129.8z"/>
<path class="st38" d="M167.9,129.8c0.2-3.9,8.9-7.9,14.5-8.9h0.2c2.2-0.4,3.9-0.2,4.3,0.6c2.6,2.8,0.9,12-4.1,15.2
	C175.9,138.2,169.2,133.7,167.9,129.8z"/>
</svg>
