<?xml version="1.0" encoding="utf-8"?>
<!-- Generator: Adobe Illustrator 21.1.0, SVG Export Plug-In . SVG Version: 6.00 Build 0)  -->
<svg version="1.1" id="Layer_1" xmlns="http://www.w3.org/2000/svg" xmlns:xlink="http://www.w3.org/1999/xlink" x="0px" y="0px"
	 viewBox="0 0 472 440" style="enable-background:new 0 0 472 440;" xml:space="preserve">
<style type="text/css">
	.st0{fill-rule:evenodd;clip-rule:evenodd;fill:#BE8A53;}
	.st1{fill-rule:evenodd;clip-rule:evenodd;fill:#F9A57B;}
	.st2{fill-rule:evenodd;clip-rule:evenodd;fill:#9665AA;}
	.st3{fill-rule:evenodd;clip-rule:evenodd;fill:#B28ABF;}
	.st4{fill-rule:evenodd;clip-rule:evenodd;fill:#C7A9D0;}
	.st5{fill-rule:evenodd;clip-rule:evenodd;fill:#FDCEAE;}
	.st6{fill-rule:evenodd;clip-rule:evenodd;fill:#DACAE3;}
	.st7{fill:none;stroke:#808285;stroke-width:1.7;stroke-miterlimit:22.9256;}
	.st8{fill-rule:evenodd;clip-rule:evenodd;fill:#D1D3D4;}
	.st9{fill:none;stroke:#808285;stroke-width:1.7;stroke-linecap:round;stroke-linejoin:round;stroke-miterlimit:22.9256;}
	.st10{fill-rule:evenodd;clip-rule:evenodd;fill:#F18A2E;}
	.st11{fill-rule:evenodd;clip-rule:evenodd;fill:#FFFFFF;}
	.st12{fill-rule:evenodd;clip-rule:evenodd;fill:#C7EAFB;}
	.st13{fill-rule:evenodd;clip-rule:evenodd;}
	.st14{fill-rule:evenodd;clip-rule:evenodd;fill:#FAA74A;}
	.st15{fill:none;stroke:#A82E31;stroke-width:1.7;stroke-linecap:round;stroke-linejoin:round;stroke-miterlimit:22.9256;}
	.st16{fill-rule:evenodd;clip-rule:evenodd;fill:#A82E31;}
	.st17{fill-rule:evenodd;clip-rule:evenodd;fill:#FED1A2;}
	.st18{fill-rule:evenodd;clip-rule:evenodd;fill:#EF996A;}
	.st19{fill:none;stroke:#6C3E81;stroke-width:1.7;stroke-linecap:round;stroke-linejoin:round;stroke-miterlimit:22.9256;}
	.st20{fill:none;stroke:#7E523B;stroke-width:1.7;stroke-linecap:round;stroke-linejoin:round;stroke-miterlimit:22.9256;}
</style>
<path class="st0" d="M195.8,188.1l-11.9,17.4c4-99.2,23-172.4,54.3-201.2C213.2,31.8,200.2,96.5,195.8,188.1z"/>
<path class="st1" d="M71.3,391.6c0.9-4.4,3.4-8.5,7.5-12.3l-16.9-4.5c-6.7,10.8-19.7,36.3-8.1,56.4c3.5,5.6,8.6,4.6,10,0
	c1.7-3.1,5.8-2.7,8.7,0.6c4.6,3.3,9.8,2.3,9.5-3.3c-0.6-3.2,0.3-5.8,3.6-6.1C100.4,421,87.6,401.9,71.3,391.6z"/>
<path class="st2" d="M184.5,192.7l-0.6,12.8c-19.4,34.3-16.1,40-6.3,32.5c-1.1,4.3,0.7,6,5.6,5.3c-4.1,6.6,0.3,10.4,23.4,7.6
	c-7.9,20.7-20.4,37.6-37.2,51l-23-62.3C166.3,230.5,169.9,207.1,184.5,192.7z"/>
<path class="st3" d="M18.6,259.5l-3.3-9.1l-6.5,10c-10.3,12.3-10.5,33.2,0.2,49.8c0.1,10.8,0.3,20.8,7.6,34.9
	c-0.2,7.6,2,14.2,5.8,20.1c1.7,6.8,5,12,9.9,15.7c2.4,4.9,5.6,7.7,6.7,5l2.9-8.1l6,3.6l8.6,3.6l5.5-10.1c4.1,3.4,9.7,4.9,16.9,4.6
	l-6.2,7.8c40.1,5.4,102.9-41.9,96.8-101.6c4.1-2.3,1.9-12.9-2.4-17.9c-3.6-29.4-41.8-33.3-60.8-56.8l-26.6-21.5L56,206.7
	c12.1,29.2,46.1,34.4,52.4,64C76.3,250.4,52.6,291.9,18.6,259.5z"/>
<path class="st3" d="M46.9,198.4l67.7-39.1c-2.9-26.2-34.4-42.6-61.8-23.7c-0.2-2-0.1-4.4,0.8-7.5c-4.2,3.2-5.6,6.9-4.9,11.2
	c-1.8-3-4-5-7-5c0.8,1.8,2.5,3.9,2.5,7.1C31.2,160.6,33.1,183,46.9,198.4z"/>
<path class="st2" d="M36.2,306.5c-22,7.6-28.5-31.7-27.5-46.1c-10,14.5-11.1,33.7,0.3,49.8c-0.3,12.4,2.6,27.4,9.6,41l-2-6.1
	c0.1-10.5,4.6-21.2,13.4-31.9l57.1,30.4c-15.1,11.3-36.4,17.2-45.2,34c4.3,2.9,9.2,5.4,14.5,7.3l5.5-10.1c5.1,4.4,10.7,5.9,16.9,4.6
	l-5.7,7.8c40.6,3.8,79-31.3,90-62.1c-11.8,23.2-45.4,15.1-49.1-13.4l-10.5,5.3l4.8-46.3c9.7-25.2-30.6-39.8-42.4-65.9l14.8-10.2
	l-28.1-7.5c-11.7-17.5-7.5-36.1,3.2-47.5c-21.4,11.8-24.9,38.7-8.9,58.7l9.1,8.3c10.8,28.3,47.8,36,52.4,64l-4.8,46.3L36.2,306.5z"
	/>
<path class="st4" d="M47.7,203.3c-0.3,5.4,1.9,10,5.2,14.2l3.1-10.8l3.4,6.7c11.7,0.5,28.2-11,17.4-31.8
	C62.8,170.5,42.1,179.8,47.7,203.3z"/>
<path class="st4" d="M26.1,318.3c28.1-42.4,84.8-40.9,87.6-29.7c2.6,11,5.8,37.1-26.6,55c-31.2,13-33.9-1.3-37.1-5.8
	c-8.2,0.4-15.2,0-16.1-9.3C27,328.4,25.7,322.2,26.1,318.3z"/>
<path class="st5" d="M56,425c-2.3-9.4-2-18.8,1-29.8C50.5,405.5,50.5,415.4,56,425z"/>
<path class="st6" d="M35.1,314.5c15.2-13.5,35.2-23.3,51.8-27.8C72.6,283.6,45.5,298.1,35.1,314.5z"/>
<path class="st7" d="M331.3,306.6c6.4-15.4-30.2-1.8-53.6-12.3c-50.2-22.2-70.5-112-39.6-290.1"/>
<path class="st8" d="M331.3,306.6c-29,9-22.4-15.1-43.9-18.5c13.4-15,40.4-1,47.9-14.8c3.2-6.4-3.2-12.7-11.6-9.8l7.9,9.5
	c-7.2-3.2-14.7-5.5-22.5-6.5c5.8-6.1,12.6-12.1,20.9-15.4l-6.9,7.1c13.1-3.6,22.3,5.3,20.5,14.8c-2.8,15.7-25.7,13.7-40.2,15.6
	C314.2,293.5,315.2,308,331.3,306.6z"/>
<path class="st9" d="M331.3,306.6c-29,9-22.4-15.1-43.9-18.5c13.4-15,40.4-1,47.9-14.8c3.2-6.4-3.2-12.7-11.6-9.8l7.9,9.5
	c-7.2-3.2-14.7-5.5-22.5-6.5c5.8-6.1,12.6-12.1,20.9-15.4l-6.9,7.1c13.1-3.6,22.3,5.3,20.5,14.8c-2.8,15.7-25.7,13.7-40.2,15.6
	C314.2,293.5,315.2,308,331.3,306.6z"/>
<path class="st10" d="M113.1,199l-39.3-11.1l-1.5,2.6c1.6,9.6,10.3,18.6,17.3,22.4C97.8,217.8,105.6,216.1,113.1,199z"/>
<path class="st11" d="M66.6,144.9c-6.5,0.9-10.5,16.6-5.5,30.9l5.5,1.5l5.7,2.2l4.6,2.1l4.4-1.2l1.6-2.3
	C83.3,160.3,76.9,146.4,66.6,144.9z"/>
<path class="st12" d="M65.7,151c-2.8,0-5.4,4.3-6.4,9.7l0.3,7.6l0.9,8.5l3.7-0.2l8.2,2.9C82.9,178.1,75.1,150.3,65.7,151z"/>
<path class="st13" d="M65.2,172.8c3.2,0,5.7-2.7,5.7-6.1c0-3.4-2.6-6.1-5.7-6.1c-3.2,0-5.7,2.7-5.7,6.1
	C59.5,170.1,62.1,172.8,65.2,172.8z"/>
<path class="st14" d="M121.4,176.9c-8.5,0.2-14.8-13.4-23.9-12.1c-7.4,2.2-9.5,15.8-20.6,16.9c-4.3,0.9-5.8,3.1-5.2,10l2.1-3.8
	c9.8,12.1,23.6,15.6,40.5,12c26.2-9.8,25.3-26,16.5-24.9L121.4,176.9z"/>
<path class="st11" d="M70.7,174.7c1.8,0,3.2-1.5,3.2-3.4c0-1.9-1.5-3.4-3.2-3.4c-1.8,0-3.2,1.5-3.2,3.4
	C67.5,173.2,68.9,174.7,70.7,174.7z"/>
<path class="st11" d="M70.1,157.1c1.2,0,2.2-1,2.2-2.3c0-1.3-1-2.3-2.2-2.3s-2.2,1-2.2,2.3C67.9,156.1,68.9,157.1,70.1,157.1z"/>
<path class="st15" d="M76.8,186.7c-2.3,0.1-4.4,1.8-4.5,4.1"/>
<path class="st11" d="M96.3,140.1c-4,4.6-3,12.4,1.2,24.7l3.6,0.3l5.8,3.2l3.1-3.4l1.1-2.7C110,147.9,102.9,139,96.3,140.1z"/>
<path class="st12" d="M97.2,144.9c-2.4,0.1-3.3,3.1-3.2,7.4l2.8,12.5l4.9,0.4l4.4,2.7C113.1,163.3,104.4,144.6,97.2,144.9z"/>
<path class="st16" d="M98.7,179.2c1.9,0,3.4-1.6,3.4-3.6s-1.5-3.6-3.4-3.6c-1.9,0-3.4,1.6-3.4,3.6S96.8,179.2,98.7,179.2z"/>
<path class="st13" d="M99,153.3c-2.6,0.6-4.2,3.3-3.6,6.1c0.6,2.7,3.1,4.5,5.7,3.9c2.6-0.6,4.2-3.3,3.6-6.1
	C104.2,154.5,101.6,152.7,99,153.3z"/>
<path class="st11" d="M104.8,158.1c-1.5,0.3-2.4,1.9-2,3.4c0.3,1.5,1.8,2.5,3.2,2.2c1.5-0.3,2.4-1.9,2-3.4
	C107.7,158.8,106.2,157.8,104.8,158.1z"/>
<path class="st11" d="M101.6,145.8c-1,0.2-1.6,1.2-1.4,2.3c0.2,1,1.2,1.7,2.1,1.4c1-0.2,1.6-1.2,1.4-2.3
	C103.6,146.2,102.6,145.6,101.6,145.8z"/>
<path class="st17" d="M102.2,198.9c9.7-0.2,28.9-9,32.8-19.2C132.8,193.8,114.5,200.9,102.2,198.9z"/>
<path class="st4" d="M121.4,176.9l-7-2.7l-7.5-5.8c2.7-1.5,3.7-4.9,5.6-7.4C116.8,155.3,126.5,163.5,121.4,176.9z"/>
<path class="st18" d="M129.2,368.7l-11,7.6l-11.7,5.7c7.3,28.2,18.7,26.7,18.7,20.1c-0.2-3,3.3-4.6,6.9-3.4c5.5,2.3,9.6,0.6,9.1-4.2
	C139.8,387.8,159.6,386.5,129.2,368.7z"/>
<path class="st15" d="M106.5,382.1c7.3,28.2,18.7,26.7,18.7,20.1c-0.2-3,3.3-4.6,6.9-3.4c5.5,2.3,9.6,0.6,9.1-4.2
	c-1.3-6.7,18.5-8-11.9-25.8"/>
<path class="st19" d="M152.6,296.6c1.8,5.4,5.8,5.3,6.9,1.9 M23,365.7c-10-10.5-11.4-38.1,18.6-64.7 M41.8,377.7
	c4.6,3.1,9.3,5.5,14.6,7.2 M50,337.7c-14.7,17.4-19.6,31.4-17.7,43.1 M26.5,318.1c-3.3,5.1,2.7,10.6,7.4,10.4
	c-1,6.3,5.8,12,16.1,9.3c3.5,10.9,14.9,13.9,32.9,8.4 M113.7,288.6c12.5,61.9-66.5,57.4-74.8,97.3c-0.8,3.6-6.1-0.2-6.7-5
	c-10.6-8.3-15.3-21.5,1.7-52.4 M155.3,256.2c10.4,6.2,20.6,22,14.1,29.5c5.1,56.3-52.4,106.4-94.8,101.8 M169.4,285.7
	c-3.1,2.9-6.6-1.6-7.7-5.6 M106.3,211c18.6,23,55.9,26.3,60.8,56.8 M82.9,178.1c0.8-21-10.6-34-16.3-33.2c-9.2,1.6-8.1,24.8-6.2,32
	 M111.1,162.2c-0.9-14.7-9.5-23.5-13.2-22.4c-4.5,1.1-4.9,14.6-0.7,24.9 M106.9,168.3c2.7-1.5,3.7-5,5.6-7.4
	c4.3-5.6,14.1,2.6,8.9,16 M114.6,159.3c-2.9-26.2-34.4-42.6-61.8-23.7c-0.2-2-0.1-4.4,0.8-7.5c-4.1,3.2-5.6,6.9-4.9,11.2
	c-1.8-3-4-5-7-5c0.8,1.8,2.5,3.9,2.5,7.1c-12.9,19.1-11,41.5,2.8,56.9 M76.7,181.7c-13.9-11.2-34.7-1.9-29,21.6 M49.3,197
	c-2.8,7.4-1.6,14.3,3.5,20.5c0.4-3.9,1.4-7.5,3.1-10.8 M56,206.7c12.1,29.2,46.1,34.4,52.4,64c-32-20.4-55.7,21.2-89.8-11.2
	 M8.8,260.4c-9.9,10.7-11.1,33.8,0.3,49.8c-0.6,11.1,1.6,24.7,7.6,34.9 M30.2,274.1c-10.5-11.2-15.5-19.1-15-23.7
	c-8,7.2-9.1,17.5-7.1,29.1 M66.3,190.2c-1.2,2.1-1.1,4.9,0.7,6.2 M150,288.9c-1.6,6.8-9.9,7.7-13.4-0.2"/>
<path class="st19" d="M146.3,239.4c20-9,23.6-32.3,38.2-46.8"/>
<path class="st15" d="M61.9,374.8c-6.7,10.8-19.7,36.3-8.1,56.4c3.5,5.6,8.6,4.6,10,0c1.7-3.1,5.8-2.7,8.7,0.6
	c4.6,3.3,9.8,2.3,9.5-3.3c-0.6-3.2,0.3-5.8,3.6-6.1c14.8-1.4,2-20.5-14.3-30.8"/>
<path class="st15" d="M78.8,379.4c-9.5,8.2-10.2,19.1-5,25.8"/>
<path class="st3" d="M178.6,237c-3.7,5.5,0.2,7.6,6.1,5.8c-7.2,5.3-0.7,11.5,21.7,7.9c15.3-41.4,2.7-63.7-8.9-64.3
	c-10.1,9.8-33.2,50.2-26.9,54.5l3.1-0.6L178.6,237z"/>
<path class="st19" d="M178.6,237c-7.2,13.8,20,1.9,27.3-4.7 M197.6,186.5c-10.1,9.8-33.2,50.2-26.9,54.5
	c3.9,2.5,26.7-21.1,34.5-33.8 M206.5,250.8c-11,2.2-32.3,2.1-21.7-7.9 M169.3,301.8c48.6-36.3,55.4-112.8,28.3-115.2"/>
<path class="st0" d="M183.1,252.1l11,1.5c-0.1,16.2,0,31.5,0.2,48.9c0.6,5.9-9.3,5.8-9.8-0.4C183.6,284.1,183.2,268.9,183.1,252.1z"
	/>
<path class="st20" d="M184,202.2c4-99.2,22.8-169.2,54.1-197.9c-25,27.5-37.9,90.2-42.3,181.8 M194.1,253.6
	c-0.1,16.2,0,31.5,0.2,48.9c0.6,5.9-9.3,5.8-9.8-0.4c-0.9-18-1.3-33.2-1.4-50"/>
<path class="st19" d="M58.1,370.7c7.1,9.4,16.5,10.9,27.4,6.9"/>
<path class="st15" d="M76.9,181.6c11.9-2.3,14.4-16.2,20.6-16.9c10.5-1.3,16.3,16.9,30.9,11c5.1-2.7,9.2,1,8.1,5.1
	c-4.4,20-42.3,29.5-61.7,8.4"/>
<path class="st15" d="M113.1,200.2c-8.3,18.4-18,18.4-28.9,9.6"/>
<path class="st3" d="M97.3,377.9c9.1-3.5,34.5-11.9,46.8-31.5C137.5,363.6,110.7,380.3,97.3,377.9z"/>
<path class="st4" d="M198.1,189.7c8,4.6,12.5,20,12.9,31.4C212.5,205,207.5,189.5,198.1,189.7z M66.8,133.3c9-1.5,17.9-0.2,28,3.7
	C85.7,129.5,76.3,128.7,66.8,133.3z M74.1,271.9c9.6-1.5,18.9-0.2,29.6,3.6C94,268.2,84.1,267.3,74.1,271.9z"/>
</svg>
