<?xml version="1.0" encoding="utf-8"?>
<!-- Generator: Adobe Illustrator 21.1.0, SVG Export Plug-In . SVG Version: 6.00 Build 0)  -->
<svg version="1.1" id="Layer_1" xmlns="http://www.w3.org/2000/svg" xmlns:xlink="http://www.w3.org/1999/xlink" x="0px" y="0px"
	 viewBox="0 0 472 440" style="enable-background:new 0 0 472 440;" xml:space="preserve">
<style type="text/css">
	.st0{fill-rule:evenodd;clip-rule:evenodd;fill:#F9A57B;}
	.st1{fill-rule:evenodd;clip-rule:evenodd;fill:#FCC8A8;}
	.st2{fill-rule:evenodd;clip-rule:evenodd;fill:#A16044;}
	.st3{fill-rule:evenodd;clip-rule:evenodd;fill:#D58F5C;}
	.st4{fill-rule:evenodd;clip-rule:evenodd;fill:#BB7446;}
	.st5{fill-rule:evenodd;clip-rule:evenodd;fill:#FDCEAE;}
	.st6{fill-rule:evenodd;clip-rule:evenodd;fill:#EBB081;}
	.st7{fill:none;stroke:#823436;stroke-width:1.7;stroke-linecap:round;stroke-linejoin:round;stroke-miterlimit:22.9256;}
	.st8{fill-rule:evenodd;clip-rule:evenodd;fill:#E4A16E;}
	.st9{fill-rule:evenodd;clip-rule:evenodd;fill:#F8ABAD;}
	.st10{fill-rule:evenodd;clip-rule:evenodd;fill:#FFFFFF;}
	.st11{fill-rule:evenodd;clip-rule:evenodd;fill:#C7EAFB;}
	.st12{fill-rule:evenodd;clip-rule:evenodd;}
	.st13{fill-rule:evenodd;clip-rule:evenodd;fill:#FEE6D3;}
	.st14{fill-rule:evenodd;clip-rule:evenodd;fill:#FFEDE0;}
	.st15{fill-rule:evenodd;clip-rule:evenodd;fill:#F3C099;}
</style>
<path class="st0" d="M418.4,217.7c2-4.8,5.8-8.5,11.4-11.2c15.1,15.4,19.5,24.9,17.9,33.2c-0.8,11-11.8,15.2-5.9,29.8l-5.7-1
	l-1.2,4.9c-15.7-14.3-3.4-30.2,0.5-33.7C430,242,425.3,226,418.4,217.7z"/>
<path class="st1" d="M423.5,210.3c2.4-2.7,1.6-2.2,6.5-3.4c12.4,14.3,19.1,25.6,17.4,33.9c-0.9,6-8,15.4-7.5,21.2l-3-0.1
	c-3-11.5,4.9-16.9,5.5-23.6C443.8,232.2,431.4,223.3,423.5,210.3z"/>
<path class="st1" d="M309.9,207.9l-4.5-3.3c-15.8,17.3-22.5,31.7-42.7,43.3l6.1,4.5l-0.2,5.6c11.9-3.1,25.4-15.1,41.5-32.4
	C309,222.1,308.1,209.4,309.9,207.9z"/>
<path class="st0" d="M309.9,207.9l-1,8.8c-15.8,17.3-12.6,19.5-32.8,31.1l-7.4,4.6l-0.2,5.6c11.9-3.1,25.4-15.1,41.5-32.4
	C309,222.1,308.1,209.4,309.9,207.9z"/>
<path class="st0" d="M334.3,321.7l16.5,8.4c-1.3,31.6,5.9,35.6,1.7,42.7l-5.9-1.6l-2.9,4C338.5,367.8,334.3,351.1,334.3,321.7z"/>
<path class="st1" d="M334.3,321.7l10.3,6.6c-1.3,31.6,7.5,39.5,2.3,41.6l-3.2,5.1C337.9,367.8,334.3,351.1,334.3,321.7z"/>
<path class="st1" d="M385.7,324.2l17.9-7.5c-0.7,28.9,3.4,43.2-4.7,58.1l-4.6-4.6l-4.5,1.6C392.3,364.8,392.3,343.3,385.7,324.2z"/>
<path class="st0" d="M394.4,322.6l9.1-5.9c4.4,22,3.1,45.2-5,57.7l-4.3-4.2C402,357.5,402.9,323,394.4,322.6z"/>
<path class="st2" d="M401.7,368.1c-1.8-3.5-7.2-5.4-10.7-2.9c-0.6,2.5-0.4,4.3-1.2,6.5l4.5-1.6l4.1,4.2
	C399.8,372.4,400.2,370.9,401.7,368.1z"/>
<path class="st3" d="M414.8,313.3l7-5.2c7.8,8.4,20.9,10.4,36.5,9.4C441.9,325.6,425.5,322.9,414.8,313.3z"/>
<path class="st4" d="M385.6,329.6l0.1-5.4c5.3,0.9,11.2-1.6,17.9-7.5l0.5,6.6c5.5-0.5,8.3-5.1,9.8-9.1c6.4-2.1,11.6-7.7,14.1-21
	c5.9-6.6,10.2-10.4,10-24.1l-2-0.4l-1.2,4.9c-14.8-14-4.5-28.1,0.5-33.7c-3,4.1-11-14.6-16.8-21.9L310,225.8
	c-4.1,4.8-6.7,8-9.7,10.9c-3.1,9.7-1.9,17.9,3.4,24.5c-5,11.9,2.4,28.9,9.5,33.4c-1.2,9.6,7.2,21.7,17.6,21.4
	c1.5,7.2,15.3,16.1,26.9,14.4C365.6,333.3,378.5,333.2,385.6,329.6z"/>
<path class="st2" d="M387.2,328.4l-1.5-4.3c5,0.8,11.6-1.6,17.9-7.2l0.5,6.2c5.2-0.4,9.3-6.1,10.7-9.9c6.1-2,8.8-14.8,6.3-18.2
	c5.6-6.2,11.3-10.4,11.1-23.4l-0.3-1.4c-8-10.2-3.3-25.4,3.5-30.6c-3.2,3.6-11.3-15-16.8-21.9l-19,16.3l1.7,6.4
	c4.4,12-1.6,19.8-11.5,22.7c8.3,3.2,8.4,14.5,5,19.9c3.6,5.3,0.4,10.2-4.7,11c-1.8,10.7-18.2,9.7-22.6,4c-3.9,8.5-34.2,19.3-49-2.1
	c-1.1,9,7.6,15.1,16.2,17.3c1.4,6.8,12.2,18.4,23.1,16.8C365.1,333.1,380.5,331.9,387.2,328.4z"/>
<path class="st3" d="M304.9,182l103.2-23.4l31.6,24.7c3.1,13.4,0.2,21.9-5.4,28.1l-4.3-4.7c-6.4,2.3-10.2,6-11.4,11.2l-4.1,10.2
	c-2.6,4.8-7.6,6.8-14.9,6.1c5.2,9.5-2.3,17.4-13.6,10.1c-5,12.8-28.7,11.8-32.9-1.3c-22.7,13.1-51.5-11.1-43.1-35
	C301.1,203.9,297.5,191.2,304.9,182z"/>
<path class="st4" d="M408,158.6l31.6,24.7c3.1,13.4,0.2,21.9-5.4,28.1l-4.3-4.7c-6.4,2.3-10.2,6-11.4,11.2l-4.1,10.2
	c-2.6,4.8-13.3,4.7-16.6,2.7c7.3,0.1,11.2-4.8,13.7-10c1.6-13.8,14.3-14.8,3.7-26.6c-6.1-8.1-17.7,8.7-20-1
	C404.1,184.2,388.1,174.5,408,158.6z"/>
<path class="st5" d="M310.9,110.9l37.7-30.2l-2.4-31C307.8,33.4,275.9,85.5,310.9,110.9z"/>
<path class="st4" d="M390.1,165.2c5.9,10.7,18.6,18.3,29.2,19.7c-2.1,3.5-1.5,10.9-16,20.1C394.9,196.5,387.3,178.9,390.1,165.2z"/>
<path class="st6" d="M310.9,110.9l44.8-17.3l-2.3-29.2C309.7,50.3,286.7,90.8,310.9,110.9z"/>
<path class="st4" d="M316.2,185.8c8.5,13.4,39.3,25,75.1-5.3l-1.2-17.2c-8-19.2,5.6-37.9,21.3-39.7c-5.7,1.1-10.1-0.8-13.1-5.5
	l-38.7-49.1l-17.5,9.3c-13.3,6.5-26.2,21.6-33.9,38.1c-19.1,14.3-19.8,52.1-11.2,59.8C301.2,180.6,307.8,184.2,316.2,185.8z"/>
<path class="st2" d="M385.1,184.9l5.5-3.9l-0.1-9.9c4.7,11,18.1,17.3,27.7,13.6L390,163.3c-8-19.2,5.6-37.9,21.3-39.7
	c-5.7,1.1-10.1-0.8-13.1-5.5l-49.6-37.4c-1.8,16.4,6.1,26.4,19.1,26.1c0,6.4,3.8,9.8,8.8,12.1c6.8,10.2,0.4,21.9-8.4,31.4l8.5,5.2
	C365.4,155.2,378.4,180.5,385.1,184.9z"/>
<path class="st7" d="M346.2,49.8c-38.4-16.4-70.3,35.7-35.3,61.2"/>
<path class="st8" d="M371.7,102.3c1.5,9.3,8.1,16.5,25.5,15.4c-5.2-20.4,2.7-35.2,39.2-32.5c1.1-10.8-1.2-17.5-10.5-22.4
	C422.8,38,381.6,32,377,43c-6-8-20.4-1.6-20.7,7.8c-19.3-8.6-34.4,23.7-7.6,30C346.9,90.8,355.3,102,371.7,102.3z"/>
<path class="st3" d="M381.6,94.9c-3,9.1,5.4,18.6,20.3,17.7c-4.4-17.5,3.3-25,34.6-22.7c2.3-13.3-10.7-21-18.9-19.2
	c-0.5-21.9-27.8-22.4-33.7-14.5c-5.1-6.8-15.9-3.3-16.1,4.2c-16.3-6.6-23.3,19.2-5.5,22.5C360.8,91.4,371.5,98.4,381.6,94.9z"/>
<path class="st4" d="M315.1,104.2c5.8-8.8,12.4-16,19.8-21.4c-16.8-9.9-33.3-5-48-3C290.7,91.8,299.9,106.1,315.1,104.2z"/>
<path class="st2" d="M315.1,104.2c5.8-8.8,6.8-11.4,14.2-16.8c-16.8-9.9-29.6-2.6-42.3-7.6C290.7,91.8,299.9,106.1,315.1,104.2z"/>
<path class="st9" d="M319.8,98.2l4.8-6.3c-2.5-3.9-24.5-5.8-23.4,0.7C302.3,99.2,320.3,99.7,319.8,98.2z"/>
<path class="st6" d="M333.4,242.3c-8.7-4.9-16-13-19-24C311.7,229.4,323.9,241.2,333.4,242.3z"/>
<path class="st6" d="M375.9,247.4c-7.8,0.8-15.2-3-19.7-8.8C357.1,247.7,367.9,251.3,375.9,247.4z"/>
<path class="st6" d="M378.3,234.6c6.2,0.6,12-2.3,15.5-7C393.1,234.8,384.6,237.7,378.3,234.6z"/>
<path class="st3" d="M295.3,147.2c2-9.8,6.1-31.6,26.8-23.2C302.8,108.9,294.5,135.8,295.3,147.2z"/>
<path class="st3" d="M314.4,160.3c-8.9,1.3-15.1-2.9-15.3-9.7C297.3,160.8,303.7,165.5,314.4,160.3z"/>
<path class="st3" d="M346.3,128.5c5.4-6.8,11.6-10.3,20.7-12.9C359.4,113.2,350.4,119.3,346.3,128.5z"/>
<path class="st3" d="M393.9,176.6c1.6,8.5,5.5,19.4,10.5,24.5C396.1,196.9,392.5,185.6,393.9,176.6z"/>
<path class="st3" d="M318.2,109.4c4-5.7,11.1-11.7,18-13.1C328.4,94.8,320.8,102,318.2,109.4z"/>
<path class="st5" d="M411.4,123.7c-7.5-0.6-18.6,8.7-22,19.3c-6.8,20.4,9.4,37.9,28.9,41.8c36.2,6.1,58.8-31.5,51.5-62.7
	c-6.2-32.7-45.6-48.4-68.9-28.7C390.8,104.2,394.7,125.8,411.4,123.7z"/>
<path class="st6" d="M411.4,123.7c19.7-2.9,35,12.6,35.8,26c-1.9-18.5-37.8-18.4-34.9,1.6c2.2,15.9,34.3,19.7,41.1-6.3
	c6.5-24.1-20.1-45.6-46.3-37.6C397.8,110.9,400.9,123.4,411.4,123.7z"/>
<path class="st7" d="M447.2,149.7c-2.8-28-46.5-38.8-57.8-6.7c-6.8,20.4,9.4,37.9,28.9,41.8c36.2,6.1,58.8-31.5,51.5-62.7
	c-6.2-32.7-45.6-48.4-68.9-28.7c-10,10.8-6.1,32.4,10.5,30.3"/>
<path class="st7" d="M342.1,78.4c-13.3,6.5-26.2,21.6-33.9,38.1c-19.1,14.3-19.8,52.1-11.2,59.8c10.4,10.8,35.4,16.5,64.8,1.8"/>
<path class="st7" d="M316.2,185.9c4.3,11.5,34.9,23.7,68.9-0.9"/>
<path class="st7" d="M436.5,85.3c4-11.7-5.9-25.7-21.1-24"/>
<path class="st7" d="M426,62.8c-5.4-24.9-43.4-31.5-49-19.8c-6.3-7-19.4-2.5-20.7,7.8c-19.3-8.6-34.4,23.7-7.6,30
	c-1.7,9.9,6.7,21.1,23.1,21.5"/>
<path class="st7" d="M371.7,102.3c0,8.9,12.1,18.3,25.5,15.4"/>
<path class="st7" d="M394.2,93.7c-4,3.5-8.7,0.3-8.2-2.9"/>
<path class="st7" d="M370.6,209.2c-3.1,4.3-8.5,2.1-8.6-1.1"/>
<path class="st7" d="M404.9,285.5c-1.2,5.4-7.1,5.6-8.6,2.6"/>
<path class="st7" d="M387.1,295.5c-0.9,4.3-5.8,4.5-6.9,2.1"/>
<path class="st7" d="M335.4,271.5c-3.8,3.2-8.1,0-7.5-2.9"/>
<path class="st7" d="M333.5,287.4c-3.2,2.7-6.9,0-6.4-2.4"/>
<path class="st7" d="M387.5,309.6c-2.1,3.9-6.7,2.8-7.3,0.2"/>
<path class="st7" d="M338.1,221.3c-4.5,2.8-8.6-1.2-7.5-4.3"/>
<path class="st7" d="M356.1,221.2c-2.7,3.5-7,1.6-7.1-1"/>
<path class="st7" d="M331.8,206.3c-2.5,1.8-5.1-0.4-4.6-2.2"/>
<path class="st7" d="M375.3,85.9c-4.1,4.1-9.7,0.7-9-3.7"/>
<path class="st7" d="M363,73.1c-1.5,2.4-4.3,0.3-4-1.6"/>
<path class="st7" d="M391,78.5c-1.7,4-6.6,1.6-6.6-1.5"/>
<path class="st10" d="M355.4,149.3l7.3-0.2c10.6-9.3,13.2-23,10.4-27.4c-6-7.2-24.3,2-28.5,14.8C343.4,139.4,348,147.4,355.4,149.3z
	"/>
<path class="st11" d="M365.8,126.2c-7.2-6.3-19.5,2.4-21.3,12.2l2.9,5.6l4.7,4l6.2,1C364.5,145.7,372,131.2,365.8,126.2z"/>
<path class="st7" d="M347.8,152.6c6.9-5.4,19.6-5.4,28.9,2.9"/>
<path class="st10" d="M317.3,118l-0.7-0.3c4,1.2,6.8,3.4,9.9,7.3c9.8-2.1,18.7-19.7,13.9-25C334.8,96.7,324.1,101.3,317.3,118z"/>
<path class="st11" d="M335.3,106.7c-7.1-6.2-16.1,1.2-17,10.6l6.7,5.9C331,123.6,339.6,111.3,335.3,106.7z"/>
<path class="st7" d="M301.7,160.9c-3.9,4.1-5.9,14.1-2.7,17.3"/>
<path class="st7" d="M376.6,119c3.2,2.1,3.8,6.4,1.9,10.2"/>
<path class="st7" d="M365.1,180.3c-2.4-0.4-4-2.5-4.3-5.1"/>
<path class="st7" d="M336.9,93.1c2.9-2.2,8.2-0.7,10.5,2.3"/>
<path class="st7" d="M414.4,228.1c-2.6,4.8-7.6,6.8-14.9,6.1c5.2,9.5-2.3,17.4-13.6,10.1c-5,12.8-28.7,11.8-32.9-1.3
	c-22.7,13.1-51.5-11.1-43.1-35c-8.8-4-12.4-16.6-5-25.9"/>
<path class="st2" d="M276.5,254.8c1.7-6-1.2-9.7-5.8-11.5c-2.4,2-5.6,3.6-8,4.6l6.1,3l-0.3,7.1C271.5,257.3,273.6,255.9,276.5,254.8
	z"/>
<path class="st7" d="M304.3,205.8c-9.6,7.6-27.2,37.7-41.7,42.1l6.1,3l-0.3,7.1c10.4-2.5,38.8-25.8,41.5-32.4"/>
<path class="st7" d="M387.2,328.4c-7.1,3.7-21.6,4.9-29.5,1.6c-11.6,1.7-25.4-7.1-26.9-14.4c-10.4,0.3-18.8-11.8-17.6-21.4
	c-7.1-4.5-14.1-20.3-9.5-33.4c-5.7-3.7-6.4-15.9-3.4-24.5"/>
<path class="st7" d="M404.6,323.2c5.2-0.7,8.9-4.9,10.2-9.9c6.4-1.6,13.3-13.2,13.3-20.2c6.9-4.1,11-17.2,10-24.1"/>
<path class="st7" d="M405.6,314.4c-5.1,6.3-15,11.9-24.8,9"/>
<path class="st7" d="M421.7,308.1c7.8,8.4,20.9,10.4,36.5,9.4c-16.4,8.1-33.9,5.7-43.2-4.2"/>
<path class="st2" d="M430.4,268.4c2.2-5.5,4.8-6.5,9.5-5.7c0.8,2.6,1,4.2,1.8,6.9l-5.7-1l-1.2,4.9C433,271,432.1,270.8,430.4,268.4z
	"/>
<path class="st7" d="M432.8,206.1c-6,0.5-14.1,6-15.1,15.4"/>
<path class="st7" d="M429.9,206.7c15.1,15.4,18.3,25,17.7,33.1c-0.8,11-12.1,14.9-5.9,29.8l-5.7-1l-1.2,4.9
	c-15.2-14-3.4-30.2,0.5-33.7c-3.6,3.2-9.8-13.6-16.8-21.9"/>
<path class="st7" d="M434.8,210.7c6.7-6.4,8.1-19.4,4.9-27.5"/>
<path class="st2" d="M353.2,365.5c-5.4-2.2-9.9,0.3-12.6,3.1c1.1,4.1,1.8,4.1,3.1,6.3l3.5-4.3l5.3,2
	C353.2,370.3,353.2,368.7,353.2,365.5z"/>
<path class="st7" d="M403.5,316.7c4.8,25.9,1.2,48.8-5,57.7l-4.3-4.2l-4.5,1.6c2.8-9,1.9-32.5-4.1-47.5"/>
<path class="st7" d="M350.8,330.1c-1.3,31.6,4.8,35.6,1.7,42.7l-5.9-1.6l-2.9,4c-6.1-10.9-9.3-23.8-9.4-53.4"/>
<circle class="st12" cx="351.3" cy="137.3" r="6.3"/>
<circle class="st10" cx="356.8" cy="137.3" r="3"/>
<ellipse class="st10" cx="367.5" cy="130.1" rx="3" ry="3"/>
<path class="st7" d="M418.3,184.8c-1.2,9.2-8.3,18.9-15,20.3c-7-5.8-14-21.4-13.2-41.7"/>
<circle class="st10" cx="335.4" cy="108.2" r="2.6"/>
<circle class="st12" cx="324.2" cy="115.7" r="5.5"/>
<circle class="st10" cx="329.1" cy="114.9" r="2.6"/>
<path class="st7" d="M439.7,107.2c0.7-6.4,6.3-10.7,11.1-10.3"/>
<path class="st7" d="M449.9,109.1c0.4-3.6,3.6-6.1,6.3-5.8"/>
<path class="st7" d="M447.2,149.7c-7.4-5.7-29.6-11.1-30.7,1.4"/>
<path class="st7" d="M430.4,268.4c0.6-3.9,6-7.9,9.5-5.7"/>
<path class="st7" d="M400.8,370.1c1.6-3.1-4.3-7.2-9.9-4.8"/>
<path class="st7" d="M340.6,368.6c1.1-2.6,8.1-6.3,12.6-3.1"/>
<path class="st7" d="M275,255.2c4.5-2.7-0.6-12.1-4.3-12"/>
<path class="st7" d="M334.9,82.8c-16.8-9.9-33.3-5-48-3c3.8,12,13,26.3,28.2,24.4"/>
<path class="st13" d="M410,92c11.1-2.2,22.2-1.5,35,1.7C433.1,86.8,421.5,86.6,410,92z"/>
<path class="st14" d="M406.4,176.4c-8.2-7.3-13-15.9-14.9-27.7C389.8,162.7,397,171.3,406.4,176.4z"/>
<path class="st7" d="M406.7,130.1c2.3-0.1,4,1.8,4.1,3.3"/>
<path class="st7" d="M400.8,134.8c2-0.5,4.7,1,5.5,3.5"/>
<path class="st7" d="M312,162.2c-10.3,2.9-14.3-4.4-13.8-11.1"/>
<path class="st15" d="M355.4,54.7c-6.2-0.6-12,2.3-15.5,7C340.5,54.6,349.1,51.7,355.4,54.7z"/>
<path class="st15" d="M402.8,45c-8.3-3.5-18.1-2.7-25.5,1.1C382.2,38.1,395.7,38.6,402.8,45z"/>
<path class="st7" d="M308.2,116.4c6.8-0.3,13.4,2.3,18.4,8.6c9.8-2.1,18.7-19.7,13.9-25c-5.6-3.5-16.4,1.2-23.1,17.9"/>
<path class="st7" d="M362.7,149c10.6-9.3,13.2-23,10.4-27.4c-6-7.2-24.3,2-28.5,14.8c-1.1,3,3.5,11,10.8,12.9"/>
</svg>
