<?xml version="1.0" encoding="utf-8"?>
<!-- Generator: Adobe Illustrator 21.1.0, SVG Export Plug-In . SVG Version: 6.00 Build 0)  -->
<svg version="1.1" id="Layer_1" xmlns="http://www.w3.org/2000/svg" xmlns:xlink="http://www.w3.org/1999/xlink" x="0px" y="0px"
	 viewBox="0 0 472 440" style="enable-background:new 0 0 472 440;" xml:space="preserve">
<style type="text/css">
	.st0{fill-rule:evenodd;clip-rule:evenodd;fill:#E1F4FD;}
	.st1{fill-rule:evenodd;clip-rule:evenodd;fill:#DBEAB4;}
	.st2{fill-rule:evenodd;clip-rule:evenodd;fill:#C7EAFB;}
	.st3{fill:none;stroke:#FFFFFF;stroke-width:1.7;stroke-linecap:round;stroke-linejoin:round;stroke-miterlimit:22.9256;}
</style>
<path class="st0" d="M70.5,379.2L13.8,276c-12.5-40.6,18.8-83.9,49.9-89.2c24.5-4.2,73-14,83.4-49.6C182,18,306.1,24.7,348.3,73.3
	c15.3,20,47,87.1,55.6,95.7c23,23-1.6,106.1,18.1,139.4c34.5,58.5-8.5,94.5-44,98.4c-37.3,4.1-71.1-15.8-106.4-15.8
	c-100.4,0-147.6,62.7-212.5,21.8C49.7,406.8,71.5,375.3,70.5,379.2z"/>
<path class="st1" d="M403.1,355.6c14.2,1.9,26.9,15.5,12.6,32.9c-5.7,6-16.6,19.9-58.1,18.3c-37.6-4.2-144.9-31.2-170.1-12.6
	L176.1,409C125,438.1,70.5,438.9,60.4,394.8c-22.9-13.9,96.8-130.5,113.3-137.3c-3.4-6.4-4-18.3,5.1-11.1c1.6,1.3,1.6,4.3,0.9-2
	c-0.2-1.5-0.6-5.2,0.8-6.1c0.7-0.4,2.7-1.3,2-2.1c-14.7-18.8,24.3-27.1,35.4-12.7c6.2-7.8,15.3-8.7,21.5-5.5
	c0.7,0.3-0.1-4.1-0.4-6.7c-1.3-11.1,21.7-13.5,23.6,3.9c0.1,1.1-1.7-11.8-0.5-14.2c3.1-6.3,19.5,1,17.8-2.9
	c-6.8-15.4-2.4-21.5,16.8-23.7c15.9-1.8,17.2,15.8,15.5,17.8c12.8-16.1,32.2-6.4,32.7,0c0,0,22.9,0.3,34.7,10.7
	c7.1,6.3,4.1,18.2,0.4,26.2c-0.3,0.7,20.5-16.2,16.2-4.4c-1.7,4.7-12.4,32.3-5.2,25.3c28.6-27.7-9.6,68.6-9.1,68
	c5.5-7.6,12.6-4.4,3.4,7.1c-9.2,11.6,9.7-13,16.9,5.6c0.8,2.1-3.8,10.4-1.1,15C401.2,345.6,405,352.7,403.1,355.6z"/>
<path class="st2" d="M256.4,377.1c73.7-0.1,107.1,23.3,101.7,36.9c-5.8,14.7-40.7,21.2-51.6,24c-13.9,3.5-34,3.2-45.3-8
	c-19.4-19.3-72.1,5.2-83.1-13.6C164,392.2,224.2,377.2,256.4,377.1z"/>
<path class="st3" d="M291.1,406.9c6.3,6.7,14.3,3.4,17.2-0.3"/>
<path class="st3" d="M322.5,399.5c4.1,4.3,9.2,2.2,11.1-0.2"/>
<path class="st3" d="M305.7,389.9c2.2,2.4,5.1,1.2,6.2-0.1"/>
<path class="st3" d="M249.5,395c3.5,3.3,9.1,1.7,11.1-0.3"/>
<path class="st3" d="M278.2,393.9c1.8,3.8,7.7,2.5,8.8,0.5"/>
</svg>
