<?xml version="1.0" encoding="utf-8"?>
<!-- Generator: Adobe Illustrator 21.1.0, SVG Export Plug-In . SVG Version: 6.00 Build 0)  -->
<svg version="1.1" id="Layer_1" xmlns="http://www.w3.org/2000/svg" xmlns:xlink="http://www.w3.org/1999/xlink" x="0px" y="0px"
	 viewBox="0 0 472 440" style="enable-background:new 0 0 472 440;" xml:space="preserve">
<style type="text/css">
	.st0{fill-rule:evenodd;clip-rule:evenodd;fill:#E1F4FD;}
	.st1{fill-rule:evenodd;clip-rule:evenodd;fill:#DBEAB4;}
	.st2{fill-rule:evenodd;clip-rule:evenodd;fill:#BE8A53;}
	.st3{fill-rule:evenodd;clip-rule:evenodd;fill:#F9A57B;}
	.st4{fill-rule:evenodd;clip-rule:evenodd;fill:#A16044;}
	.st5{fill-rule:evenodd;clip-rule:evenodd;fill:#BB7446;}
	.st6{fill-rule:evenodd;clip-rule:evenodd;fill:#D58F5C;}
	.st7{fill-rule:evenodd;clip-rule:evenodd;fill:#FDCEAE;}
	.st8{fill-rule:evenodd;clip-rule:evenodd;fill:#EBB081;}
	.st9{fill-rule:evenodd;clip-rule:evenodd;fill:#FCC8A8;}
	.st10{fill:none;stroke:#823436;stroke-width:1.7;stroke-linecap:round;stroke-linejoin:round;stroke-miterlimit:22.9256;}
	.st11{fill-rule:evenodd;clip-rule:evenodd;fill:#E4A16E;}
	.st12{fill-rule:evenodd;clip-rule:evenodd;fill:#F8ABAD;}
	.st13{fill-rule:evenodd;clip-rule:evenodd;fill:#FFFFFF;}
	.st14{fill-rule:evenodd;clip-rule:evenodd;fill:#C7EAFB;}
	.st15{fill-rule:evenodd;clip-rule:evenodd;}
	.st16{fill-rule:evenodd;clip-rule:evenodd;fill:#FEE6D3;}
	.st17{fill-rule:evenodd;clip-rule:evenodd;fill:#FFEDE0;}
	.st18{fill-rule:evenodd;clip-rule:evenodd;fill:#F3C099;}
	.st19{fill:none;stroke:#808285;stroke-width:1.7;stroke-miterlimit:22.9256;}
	.st20{fill-rule:evenodd;clip-rule:evenodd;fill:#D1D3D4;}
	.st21{fill:none;stroke:#808285;stroke-width:1.7;stroke-linecap:round;stroke-linejoin:round;stroke-miterlimit:22.9256;}
	.st22{fill:none;stroke:#ED1651;stroke-width:8.5;stroke-linecap:round;stroke-linejoin:round;stroke-miterlimit:22.9256;}
	.st23{fill-rule:evenodd;clip-rule:evenodd;fill:#F18A2E;}
	.st24{fill-rule:evenodd;clip-rule:evenodd;fill:#FAA74A;}
	.st25{fill:none;stroke:#A82E31;stroke-width:1.7;stroke-linecap:round;stroke-linejoin:round;stroke-miterlimit:22.9256;}
	.st26{fill-rule:evenodd;clip-rule:evenodd;fill:#A82E31;}
	.st27{fill-rule:evenodd;clip-rule:evenodd;fill:#FED1A2;}
	.st28{fill:none;stroke:#823436;stroke-width:1.7;stroke-miterlimit:22.9256;}
	.st29{fill-rule:evenodd;clip-rule:evenodd;fill:#EF996A;}
	.st30{fill:none;stroke:#7E523B;stroke-width:1.7;stroke-linecap:round;stroke-linejoin:round;stroke-miterlimit:22.9256;}
	.st31{fill:none;stroke:#FFFFFF;stroke-width:1.7;stroke-linecap:round;stroke-linejoin:round;stroke-miterlimit:22.9256;}
</style>
<path class="st0" d="M70.5,379.2L13.8,276c-12.5-40.6,18.8-83.9,49.9-89.2c24.5-4.2,73-14,83.4-49.6C182,18,306.1,24.7,348.3,73.3
	c15.3,20,47,87.1,55.6,95.7c23,23-1.6,106.1,18.1,139.4c34.5,58.5-8.5,94.5-44,98.4c-37.3,4.1-71.1-15.8-106.4-15.8
	c-100.4,0-147.6,62.7-212.5,21.8C49.7,406.8,71.5,375.3,70.5,379.2z"/>
<path class="st1" d="M403.1,355.6c14.2,1.9,26.9,15.5,12.6,32.9c-5.7,6-16.6,19.9-58.1,18.3c-37.6-4.2-144.9-31.2-170.1-12.6
	L176.1,409C125,438.1,70.5,438.9,60.4,394.8c-22.9-13.9,96.8-130.5,113.3-137.3c-3.4-6.4-4-18.3,5.1-11.1c1.6,1.3,1.6,4.3,0.9-2
	c-0.2-1.5-0.6-5.2,0.8-6.1c0.7-0.4,2.7-1.3,2-2.1c-14.7-18.8,24.3-27.1,35.4-12.7c6.2-7.8,15.3-8.7,21.5-5.5
	c0.7,0.3-0.1-4.1-0.4-6.7c-1.3-11.1,21.7-13.5,23.6,3.9c0.1,1.1-1.7-11.8-0.5-14.2c3.1-6.3,19.5,1,17.8-2.9
	c-6.8-15.4-2.4-21.5,16.8-23.7c15.9-1.8,17.2,15.8,15.5,17.8c12.8-16.1,32.2-6.4,32.7,0c0,0,22.9,0.3,34.7,10.7
	c7.1,6.3,4.1,18.2,0.4,26.2c-0.3,0.7,20.5-16.2,16.2-4.4c-1.7,4.7-12.4,32.3-5.2,25.3c28.6-27.7-9.6,68.6-9.1,68
	c5.5-7.6,12.6-4.4,3.4,7.1c-9.2,11.6,9.7-13,16.9,5.6c0.8,2.1-3.8,10.4-1.1,15C401.2,345.6,405,352.7,403.1,355.6z"/>
<path class="st2" d="M195.8,188.1l-11.9,17.4c4-99.3,23-172.4,54.3-201.2C213.2,31.8,200.2,96.5,195.8,188.1z"/>
<path class="st3" d="M71.3,391.6c0.9-4.4,3.4-8.5,7.5-12.3l-16.9-4.5c-6.7,10.8-19.7,36.3-8.1,56.4c3.5,5.6,8.6,4.6,10,0
	c1.7-3.1,5.8-2.7,8.7,0.6c4.6,3.3,9.8,2.3,9.5-3.3c-0.6-3.2,0.3-5.8,3.6-6.1C100.4,421,87.6,401.9,71.3,391.6z"/>
<path class="st4" d="M184.5,192.7l-0.6,12.8c-19.4,34.3-16.1,40-6.3,32.5c-1.1,4.3,0.7,6,5.6,5.3c-4.1,6.6,0.3,10.4,23.4,7.6
	c-7.9,20.7-20.4,37.6-37.2,51l-23-62.3C166.3,230.5,169.9,207.1,184.5,192.7z"/>
<path class="st5" d="M18.6,259.5l-3.3-9.1l-6.5,10c-10.3,12.3-10.5,33.2,0.2,49.8c0.1,10.8,0.3,20.8,7.6,34.9
	c-0.2,7.6,2,14.2,5.8,20.1c1.7,6.8,5,12,9.9,15.7c2.4,4.9,5.6,7.7,6.7,5l2.9-8.1l6,3.6l8.6,3.6l5.5-10.1c4.1,3.4,9.7,4.9,16.9,4.6
	l-6.2,7.8c40.1,5.4,102.9-41.9,96.8-101.6c4.1-2.3,1.9-12.9-2.4-17.9c-3.6-29.4-41.8-33.3-60.8-56.8l-26.6-21.5L56,206.7
	c12.1,29.2,46.1,34.4,52.4,64C76.3,250.4,52.6,291.9,18.6,259.5z"/>
<path class="st5" d="M46.9,198.4l67.7-39.1c-2.9-26.2-34.4-42.6-61.8-23.7c-0.2-2-0.1-4.4,0.8-7.5c-4.2,3.2-5.6,6.9-4.9,11.2
	c-1.8-3-4-5-7-5c0.8,1.8,2.5,3.9,2.5,7.1C31.2,160.6,33.1,183,46.9,198.4z"/>
<path class="st4" d="M36.2,306.5c-22,7.6-28.5-31.7-27.5-46.1c-10,14.5-11.1,33.7,0.3,49.8c-0.3,12.4,2.6,27.4,9.6,41l-2-6.1
	c0.1-10.5,4.6-21.2,13.4-31.9l57.1,30.4c-15.1,11.3-36.4,17.2-45.2,34c4.3,2.9,9.2,5.4,14.5,7.3l5.5-10.1c5.1,4.4,10.7,5.9,16.9,4.6
	l-5.7,7.8c40.6,3.8,79-31.3,90-62.1c-11.8,23.2-45.4,15.1-49.1-13.4l-10.5,5.3l4.8-46.3c9.7-25.2-30.6-39.8-42.4-65.9l14.8-10.2
	l-28.1-7.5c-11.7-17.5-7.5-36.1,3.2-47.5c-21.4,11.8-24.9,38.7-8.9,58.7l9.1,8.3c10.8,28.3,47.8,36,52.4,64l-4.8,46.3L36.2,306.5z"
	/>
<path class="st6" d="M47.7,203.3c-0.3,5.4,1.9,10,5.2,14.2l3.1-10.8l3.4,6.7c11.7,0.5,28.2-11,17.4-31.8
	C62.8,170.5,42.1,179.8,47.7,203.3z"/>
<path class="st6" d="M26.1,318.3c28.1-42.4,84.8-40.9,87.6-29.7c2.6,11,5.8,37.1-26.6,55c-31.2,13-33.9-1.3-37.1-5.8
	c-8.2,0.4-15.2,0-16.1-9.3C27,328.4,25.7,322.2,26.1,318.3z"/>
<path class="st7" d="M56,425c-2.3-9.4-2-18.8,1-29.8C50.5,405.5,50.5,415.4,56,425z"/>
<path class="st8" d="M35.1,314.5c15.2-13.5,35.2-23.3,51.8-27.8C72.6,283.6,45.5,298.1,35.1,314.5z"/>
<path class="st6" d="M74.1,271.9c9.6-1.5,18.9-0.2,29.6,3.6C94,268.2,84.1,267.3,74.1,271.9z"/>
<path class="st5" d="M97.3,377.9c9.1-3.5,34.5-11.9,46.8-31.5C137.5,363.6,110.7,380.3,97.3,377.9z"/>
<path class="st3" d="M418.4,217.7c2-4.8,5.8-8.5,11.4-11.2c15.1,15.4,19.5,24.9,17.9,33.2c-0.8,11-11.8,15.2-5.9,29.8l-5.7-1
	l-1.2,4.9c-15.7-14.3-3.4-30.2,0.5-33.7C430,242,425.3,226,418.4,217.7z"/>
<path class="st9" d="M423.5,210.3c2.4-2.7,1.6-2.2,6.5-3.4c12.4,14.3,19.1,25.6,17.4,33.9c-0.9,6-8,15.4-7.5,21.2l-3-0.1
	c-3-11.5,4.9-16.9,5.5-23.6C443.8,232.2,431.4,223.3,423.5,210.3z"/>
<path class="st9" d="M309.9,207.9l-4.5-3.3c-15.8,17.3-22.5,31.7-42.7,43.3l6.1,4.5l-0.2,5.6c11.9-3.1,25.4-15.1,41.5-32.4
	C309,222.1,308.1,209.4,309.9,207.9z"/>
<path class="st3" d="M309.9,207.9l-1,8.8c-15.8,17.3-12.6,19.5-32.8,31.1l-7.4,4.6l-0.2,5.6c11.9-3.1,25.4-15.1,41.5-32.4
	C309,222.1,308.1,209.4,309.9,207.9z"/>
<path class="st3" d="M334.3,321.7l16.5,8.4c-1.3,31.6,5.9,35.6,1.7,42.7l-5.9-1.6l-2.9,4C338.5,367.8,334.3,351.1,334.3,321.7z"/>
<path class="st9" d="M334.3,321.7l10.3,6.6c-1.3,31.6,7.5,39.5,2.3,41.6l-3.2,5.1C337.9,367.8,334.3,351.1,334.3,321.7z"/>
<path class="st9" d="M385.7,324.2l17.9-7.5c-0.7,28.9,3.4,43.2-4.7,58.1l-4.6-4.6l-4.5,1.6C392.3,364.8,392.3,343.3,385.7,324.2z"/>
<path class="st3" d="M394.4,322.6l9.1-5.9c4.4,22,3.1,45.2-5,57.7l-4.3-4.2C402,357.5,402.9,323,394.4,322.6z"/>
<path class="st4" d="M401.7,368.1c-1.8-3.5-7.2-5.4-10.7-2.9c-0.6,2.5-0.4,4.3-1.2,6.5l4.5-1.6l4.1,4.2
	C399.8,372.4,400.2,370.9,401.7,368.1z"/>
<path class="st6" d="M414.8,313.3l7-5.2c7.8,8.4,20.9,10.4,36.5,9.4C441.9,325.6,425.5,322.9,414.8,313.3z"/>
<path class="st5" d="M385.6,329.6l0.1-5.4c5.3,0.9,11.2-1.6,17.9-7.5l0.5,6.6c5.5-0.5,8.3-5.1,9.8-9.1c6.4-2.1,11.6-7.7,14.1-21
	c5.9-6.6,10.2-10.4,10-24.1l-2-0.4l-1.2,4.9c-14.8-14-4.5-28.1,0.5-33.7c-3,4.1-11-14.6-16.8-21.9L310,225.8
	c-4.1,4.8-6.7,8-9.7,10.9c-3.1,9.7-1.9,17.9,3.4,24.5c-5,11.9,2.4,28.9,9.5,33.4c-1.2,9.6,7.2,21.7,17.6,21.4
	c1.5,7.2,15.3,16.1,26.9,14.4C365.6,333.3,378.5,333.2,385.6,329.6z"/>
<path class="st4" d="M387.2,328.4l-1.5-4.3c5,0.8,11.6-1.6,17.9-7.2l0.5,6.2c5.2-0.4,9.3-6.1,10.7-9.9c6.1-2,8.8-14.8,6.3-18.2
	c5.6-6.2,11.3-10.4,11.1-23.4l-0.3-1.4c-8-10.2-3.3-25.4,3.5-30.6c-3.2,3.6-11.3-15-16.8-21.9l-19,16.3l1.7,6.4
	c4.4,12-1.6,19.8-11.5,22.7c8.3,3.2,8.4,14.5,5,19.9c3.6,5.3,0.4,10.2-4.7,11c-1.8,10.7-18.2,9.7-22.6,4c-3.9,8.5-34.2,19.3-49-2.1
	c-1.1,9,7.6,15.1,16.2,17.3c1.4,6.8,12.2,18.4,23.1,16.8C365.1,333.1,380.5,331.9,387.2,328.4z"/>
<path class="st6" d="M304.9,182l103.2-23.4l31.6,24.7c3.1,13.4,0.2,21.9-5.4,28.1l-4.3-4.7c-6.4,2.3-10.2,6-11.4,11.2l-4.1,10.2
	c-2.6,4.8-7.6,6.8-14.9,6.1c5.2,9.5-2.3,17.4-13.6,10.1c-5,12.8-28.7,11.8-32.9-1.3c-22.7,13.1-51.5-11.1-43.1-35
	C301.1,203.9,297.5,191.2,304.9,182z"/>
<path class="st5" d="M408,158.6l31.6,24.7c3.1,13.4,0.2,21.9-5.4,28.1l-4.3-4.7c-6.4,2.3-10.2,6-11.4,11.2l-4.1,10.2
	c-2.6,4.8-13.3,4.7-16.6,2.7c7.3,0.1,11.2-4.8,13.7-10c1.6-13.8,14.3-14.8,3.7-26.6c-6.1-8.1-17.7,8.7-20-1
	C404.1,184.2,388.1,174.5,408,158.6z"/>
<path class="st7" d="M310.9,110.9l37.7-30.2l-2.4-31C307.8,33.4,275.9,85.5,310.9,110.9z"/>
<path class="st5" d="M390.1,165.2c5.9,10.7,18.6,18.3,29.2,19.7c-2.1,3.5-1.5,10.9-16,20.1C394.9,196.5,387.3,178.9,390.1,165.2z"/>
<path class="st8" d="M310.9,110.9l44.8-17.3l-2.3-29.2C309.7,50.3,286.7,90.8,310.9,110.9z"/>
<path class="st5" d="M316.2,185.8c8.5,13.4,39.3,25,75.1-5.3l-1.2-17.2c-8-19.2,5.6-37.9,21.3-39.7c-5.7,1.1-10.1-0.8-13.1-5.5
	l-38.7-49.1l-17.5,9.3c-13.3,6.5-26.2,21.6-33.9,38.1c-19.1,14.3-19.8,52.1-11.2,59.8C301.2,180.6,307.8,184.2,316.2,185.8z"/>
<path class="st4" d="M385.1,184.9l5.5-3.9l-0.1-9.9c4.7,11,18.1,17.3,27.7,13.6L390,163.3c-8-19.2,5.6-37.9,21.3-39.7
	c-5.7,1.1-10.1-0.8-13.1-5.5l-49.6-37.4c-1.8,16.4,6.1,26.4,19.1,26.1c0,6.4,3.8,9.8,8.8,12.1c6.8,10.2,0.4,21.9-8.4,31.4l8.5,5.2
	C365.4,155.2,378.4,180.5,385.1,184.9z"/>
<path class="st10" d="M346.2,49.8c-38.4-16.4-70.3,35.7-35.3,61.2"/>
<path class="st11" d="M371.7,102.3c1.5,9.3,8.1,16.5,25.5,15.4c-5.2-20.4,2.7-35.2,39.2-32.5c1.1-10.8-1.2-17.5-10.5-22.4
	C422.8,38,381.6,32,377,43c-6-8-20.4-1.6-20.7,7.8c-19.3-8.6-34.4,23.7-7.6,30C346.9,90.8,355.3,102,371.7,102.3z"/>
<path class="st6" d="M381.6,94.9c-3,9.1,5.4,18.6,20.3,17.7c-4.4-17.5,3.3-25,34.6-22.7c2.3-13.3-10.7-21-18.9-19.2
	c-0.5-21.9-27.8-22.4-33.7-14.5c-5.1-6.8-15.9-3.3-16.1,4.2c-16.3-6.6-23.3,19.2-5.5,22.5C360.8,91.4,371.5,98.4,381.6,94.9z"/>
<path class="st5" d="M315.1,104.2c5.8-8.8,12.4-16,19.8-21.4c-16.8-9.9-33.3-5-48-3C290.7,91.8,299.9,106.1,315.1,104.2z"/>
<path class="st4" d="M315.1,104.2c5.8-8.8,6.8-11.4,14.2-16.8c-16.8-9.9-29.6-2.6-42.3-7.6C290.7,91.8,299.9,106.1,315.1,104.2z"/>
<path class="st12" d="M319.8,98.2l4.8-6.3c-2.5-3.9-24.5-5.8-23.4,0.7C302.3,99.2,320.3,99.7,319.8,98.2z"/>
<path class="st8" d="M333.4,242.3c-8.7-4.9-16-13-19-24C311.7,229.4,323.9,241.2,333.4,242.3z"/>
<path class="st8" d="M375.9,247.4c-7.8,0.8-15.2-3-19.7-8.8C357.1,247.7,367.9,251.3,375.9,247.4z"/>
<path class="st8" d="M378.3,234.6c6.2,0.6,12-2.3,15.5-7C393.1,234.8,384.6,237.7,378.3,234.6z"/>
<path class="st6" d="M295.3,147.2c2-9.8,6.1-31.6,26.8-23.2C302.8,108.9,294.5,135.8,295.3,147.2z"/>
<path class="st6" d="M314.4,160.3c-8.9,1.3-15.1-2.9-15.3-9.7C297.3,160.8,303.7,165.5,314.4,160.3z"/>
<path class="st6" d="M346.3,128.5c5.4-6.8,11.6-10.3,20.7-12.9C359.4,113.2,350.4,119.3,346.3,128.5z"/>
<path class="st6" d="M393.9,176.6c1.6,8.5,5.5,19.4,10.5,24.5C396.1,196.9,392.5,185.6,393.9,176.6z"/>
<path class="st6" d="M318.2,109.4c4-5.7,11.1-11.7,18-13.1C328.4,94.8,320.8,102,318.2,109.4z"/>
<path class="st7" d="M411.4,123.7c-7.5-0.6-18.6,8.7-22,19.3c-6.8,20.4,9.4,37.9,28.9,41.8c36.2,6.1,58.8-31.5,51.5-62.7
	c-6.2-32.7-45.6-48.4-68.9-28.7C390.8,104.2,394.7,125.8,411.4,123.7z"/>
<path class="st8" d="M411.4,123.7c19.7-2.9,35,12.6,35.8,26c-1.9-18.5-37.8-18.4-34.9,1.6c2.2,15.9,34.3,19.7,41.1-6.3
	c6.5-24.1-20.1-45.6-46.3-37.6C397.8,110.9,400.9,123.4,411.4,123.7z"/>
<path class="st10" d="M447.2,149.7c-2.8-28-46.5-38.8-57.8-6.7c-6.8,20.4,9.4,37.9,28.9,41.8c36.2,6.1,58.8-31.5,51.5-62.7
	c-6.2-32.7-45.6-48.4-68.9-28.7c-10,10.8-6.1,32.4,10.5,30.3"/>
<path class="st10" d="M342.1,78.4c-13.3,6.5-26.2,21.6-33.9,38.1c-19.1,14.3-19.8,52.1-11.2,59.8c10.4,10.8,35.4,16.5,64.8,1.8"/>
<path class="st10" d="M316.2,185.9c4.3,11.5,34.9,23.7,68.9-0.9"/>
<path class="st10" d="M436.5,85.3c4-11.7-5.9-25.7-21.1-24"/>
<path class="st10" d="M426,62.8c-5.4-24.9-43.4-31.5-49-19.8c-6.3-7-19.4-2.5-20.7,7.8c-19.3-8.6-34.4,23.7-7.6,30
	c-1.7,9.9,6.7,21.1,23.1,21.5"/>
<path class="st10" d="M371.7,102.3c0,8.9,12.1,18.3,25.5,15.4"/>
<path class="st10" d="M394.2,93.7c-4,3.5-8.7,0.3-8.2-2.9"/>
<path class="st10" d="M370.6,209.2c-3.1,4.3-8.5,2.1-8.6-1.1"/>
<path class="st10" d="M404.9,285.5c-1.2,5.4-7.1,5.6-8.6,2.6"/>
<path class="st10" d="M387.1,295.5c-0.9,4.3-5.8,4.5-6.9,2.1"/>
<path class="st10" d="M335.4,271.5c-3.8,3.2-8.1,0-7.5-2.9"/>
<path class="st10" d="M333.5,287.4c-3.2,2.7-6.9,0-6.4-2.4"/>
<path class="st10" d="M387.5,309.6c-2.1,3.9-6.7,2.8-7.3,0.2"/>
<path class="st10" d="M338.1,221.3c-4.5,2.8-8.6-1.2-7.5-4.3"/>
<path class="st10" d="M356.1,221.2c-2.7,3.5-7,1.6-7.1-1"/>
<path class="st10" d="M331.8,206.3c-2.5,1.8-5.1-0.4-4.6-2.2"/>
<path class="st10" d="M375.3,85.9c-4.1,4.1-9.7,0.7-9-3.7"/>
<path class="st10" d="M363,73.1c-1.5,2.4-4.3,0.3-4-1.6"/>
<path class="st10" d="M391,78.5c-1.7,4-6.6,1.6-6.6-1.5"/>
<path class="st13" d="M355.4,149.3l7.3-0.2c10.6-9.3,13.2-23,10.4-27.4c-6-7.2-24.3,2-28.5,14.8C343.4,139.4,348,147.4,355.4,149.3z
	"/>
<path class="st14" d="M365.8,126.2c-7.2-6.3-19.5,2.4-21.3,12.2l2.9,5.6l4.7,4l6.2,1C364.5,145.7,372,131.2,365.8,126.2z"/>
<path class="st10" d="M347.8,152.6c6.9-5.4,19.6-5.4,28.9,2.9"/>
<path class="st13" d="M317.3,118l-0.7-0.3c4,1.2,6.8,3.4,9.9,7.3c9.8-2.1,18.7-19.7,13.9-25C334.8,96.7,324.1,101.3,317.3,118z"/>
<path class="st14" d="M335.3,106.7c-7.1-6.2-16.1,1.2-17,10.6l6.7,5.9C331,123.6,339.6,111.3,335.3,106.7z"/>
<path class="st10" d="M301.7,160.9c-3.9,4.1-5.9,14.1-2.7,17.3"/>
<path class="st10" d="M376.6,119c3.2,2.1,3.8,6.4,1.9,10.2"/>
<path class="st10" d="M365.1,180.3c-2.4-0.4-4-2.5-4.3-5.1"/>
<path class="st10" d="M336.9,93.1c2.9-2.2,8.2-0.7,10.5,2.3"/>
<path class="st10" d="M414.4,228.1c-2.6,4.8-7.6,6.8-14.9,6.1c5.2,9.5-2.3,17.4-13.6,10.1c-5,12.8-28.7,11.8-32.9-1.3
	c-22.7,13.1-51.5-11.1-43.1-35c-8.8-4-12.4-16.6-5-25.9"/>
<path class="st4" d="M276.5,254.8c1.7-6-1.2-9.7-5.8-11.5c-2.4,2-5.6,3.6-8,4.6l6.1,3l-0.3,7.1C271.5,257.3,273.6,255.9,276.5,254.8
	z"/>
<path class="st10" d="M304.3,205.8c-9.6,7.6-27.2,37.7-41.7,42.1l6.1,3l-0.3,7.1c10.4-2.5,38.8-25.8,41.5-32.4"/>
<path class="st10" d="M387.2,328.4c-7.1,3.7-21.6,4.9-29.5,1.6c-11.6,1.7-25.4-7.1-26.9-14.4c-10.4,0.3-18.8-11.8-17.6-21.4
	c-7.1-4.5-14.1-20.3-9.5-33.4c-5.7-3.7-6.4-15.9-3.4-24.5"/>
<path class="st10" d="M404.6,323.2c5.2-0.7,8.9-4.9,10.2-9.9c6.4-1.6,13.3-13.2,13.3-20.2c6.9-4.1,11-17.2,10-24.1"/>
<path class="st10" d="M405.6,314.4c-5.1,6.3-15,11.9-24.8,9"/>
<path class="st10" d="M421.7,308.1c7.8,8.4,20.9,10.4,36.5,9.4c-16.4,8.1-33.9,5.7-43.2-4.2"/>
<path class="st4" d="M430.4,268.4c2.2-5.5,4.8-6.5,9.5-5.7c0.8,2.6,1,4.2,1.8,6.9l-5.7-1l-1.2,4.9C433,271,432.1,270.8,430.4,268.4z
	"/>
<path class="st10" d="M432.8,206.1c-6,0.5-14.1,6-15.1,15.4"/>
<path class="st10" d="M429.9,206.7c15.1,15.4,18.3,25,17.7,33.1c-0.8,11-12.1,14.9-5.9,29.8l-5.7-1l-1.2,4.9
	c-15.2-14-3.4-30.2,0.5-33.7c-3.6,3.2-9.8-13.6-16.8-21.9"/>
<path class="st10" d="M434.8,210.7c6.7-6.4,8.1-19.4,4.9-27.5"/>
<path class="st4" d="M353.2,365.5c-5.4-2.2-9.9,0.3-12.6,3.1c1.1,4.1,1.8,4.1,3.1,6.3l3.5-4.3l5.3,2
	C353.2,370.3,353.2,368.7,353.2,365.5z"/>
<path class="st10" d="M403.5,316.7c4.8,25.9,1.2,48.8-5,57.7l-4.3-4.2l-4.5,1.6c2.8-9,1.9-32.5-4.1-47.5"/>
<path class="st10" d="M350.8,330.1c-1.3,31.6,4.8,35.6,1.7,42.7l-5.9-1.6l-2.9,4c-6.1-10.9-9.3-23.8-9.4-53.4"/>
<circle class="st15" cx="351.3" cy="137.3" r="6.3"/>
<circle class="st13" cx="356.8" cy="137.3" r="3"/>
<ellipse class="st13" cx="367.5" cy="130.1" rx="3" ry="3"/>
<path class="st10" d="M418.3,184.8c-1.2,9.2-8.3,18.9-15,20.3c-7-5.8-14-21.4-13.2-41.7"/>
<circle class="st13" cx="335.4" cy="108.2" r="2.6"/>
<circle class="st15" cx="324.2" cy="115.7" r="5.5"/>
<circle class="st13" cx="329.1" cy="114.9" r="2.6"/>
<path class="st10" d="M439.7,107.2c0.7-6.4,6.3-10.7,11.1-10.3"/>
<path class="st10" d="M449.9,109.1c0.4-3.6,3.6-6.1,6.3-5.8"/>
<path class="st10" d="M447.2,149.7c-7.4-5.7-29.6-11.1-30.7,1.4"/>
<path class="st10" d="M430.4,268.4c0.6-3.9,6-7.9,9.5-5.7"/>
<path class="st10" d="M400.8,370.1c1.6-3.1-4.3-7.2-9.9-4.8"/>
<path class="st10" d="M340.6,368.6c1.1-2.6,8.1-6.3,12.6-3.1"/>
<path class="st10" d="M275,255.2c4.5-2.7-0.6-12.1-4.3-12"/>
<path class="st10" d="M334.9,82.8c-16.8-9.9-33.3-5-48-3c3.8,12,13,26.3,28.2,24.4"/>
<path class="st16" d="M410,92c11.1-2.2,22.2-1.5,35,1.7C433.1,86.8,421.5,86.6,410,92z"/>
<path class="st17" d="M406.4,176.4c-8.2-7.3-13-15.9-14.9-27.7C389.8,162.7,397,171.3,406.4,176.4z"/>
<path class="st10" d="M406.7,130.1c2.3-0.1,4,1.8,4.1,3.3"/>
<path class="st10" d="M400.8,134.8c2-0.5,4.7,1,5.5,3.5"/>
<path class="st10" d="M312,162.2c-10.3,2.9-14.3-4.4-13.8-11.1"/>
<path class="st18" d="M355.4,54.7c-6.2-0.6-12,2.3-15.5,7C340.5,54.6,349.1,51.7,355.4,54.7z"/>
<path class="st18" d="M402.8,45c-8.3-3.5-18.1-2.7-25.5,1.1C382.2,38.1,395.7,38.6,402.8,45z"/>
<path class="st10" d="M308.2,116.4c6.8-0.3,13.4,2.3,18.4,8.6c9.8-2.1,18.7-19.7,13.9-25c-5.6-3.5-16.4,1.2-23.1,17.9"/>
<path class="st10" d="M362.7,149c10.6-9.3,13.2-23,10.4-27.4c-6-7.2-24.3,2-28.5,14.8c-1.1,3,3.5,11,10.8,12.9"/>
<path class="st19" d="M331.3,306.6c6.4-15.4-30.2-1.8-53.6-12.3c-50.2-22.2-70.5-112-39.6-290.1"/>
<path class="st20" d="M331.3,306.6c-29,9-22.4-15.1-43.9-18.5c13.4-15,40.4-1,47.9-14.8c3.2-6.4-3.2-12.7-11.6-9.8l7.9,9.5
	c-7.2-3.2-14.7-5.5-22.5-6.5c5.8-6.1,12.6-12.1,20.9-15.4l-6.9,7.1c13.1-3.6,22.3,5.3,20.5,14.8c-2.8,15.7-25.7,13.7-40.2,15.6
	C314.2,293.5,315.2,308,331.3,306.6z"/>
<path class="st21" d="M331.3,306.6c-29,9-22.4-15.1-43.9-18.5c13.4-15,40.4-1,47.9-14.8c3.2-6.4-3.2-12.7-11.6-9.8l7.9,9.5
	c-7.2-3.2-14.7-5.5-22.5-6.5c5.8-6.1,12.6-12.1,20.9-15.4l-6.9,7.1c13.1-3.6,22.3,5.3,20.5,14.8c-2.8,15.7-25.7,13.7-40.2,15.6
	C314.2,293.5,315.2,308,331.3,306.6z"/>
<path class="st22" d="M327.6,257.3c10.6-0.7,17.5,7.2,15.9,15.6c-2.8,15.7-25.7,13.7-40.2,15.6c10.9,5.1,11.9,19.5,28,18.1"/>
<path class="st23" d="M113.1,199l-39.3-11.1l-1.5,2.6c1.6,9.6,10.3,18.6,17.3,22.4C97.8,217.8,105.6,216.1,113.1,199z"/>
<path class="st13" d="M66.6,144.9c-6.5,0.9-10.5,16.6-5.5,30.9l5.5,1.5l5.7,2.2l4.6,2.1l4.4-1.2l1.6-2.3
	C83.3,160.3,76.9,146.4,66.6,144.9z"/>
<path class="st14" d="M65.7,151c-2.8,0-5.4,4.3-6.4,9.7l0.3,7.6l0.9,8.5l3.7-0.2l8.2,2.9C82.9,178.1,75.1,150.3,65.7,151z"/>
<path class="st10" d="M82.9,178.1c0.8-21-10.6-34-16.3-33.2c-9.2,1.6-8.1,24.8-6.2,32"/>
<path class="st15" d="M65.2,172.8c3.2,0,5.7-2.7,5.7-6.1c0-3.4-2.6-6.1-5.7-6.1c-3.1,0-5.7,2.7-5.7,6.1
	C59.5,170.1,62.1,172.8,65.2,172.8z"/>
<path class="st24" d="M121.4,176.9c-8.5,0.2-14.8-13.4-23.9-12.1c-7.4,2.2-9.5,15.8-20.6,16.9c-4.3,0.9-5.8,3.1-5.2,10l2.1-3.8
	c9.8,12.1,23.6,15.6,40.5,12c26.2-9.8,25.3-26,16.5-24.9L121.4,176.9z"/>
<path class="st10" d="M66.3,190.2c-1.2,2.1-1.1,4.9,0.7,6.2"/>
<path class="st6" d="M66.8,133.3c9-1.5,17.9-0.2,28,3.7C85.7,129.5,76.3,128.7,66.8,133.3z"/>
<path class="st13" d="M70.7,174.7c1.8,0,3.2-1.5,3.2-3.4c0-1.9-1.5-3.4-3.2-3.4c-1.8,0-3.2,1.5-3.2,3.4
	C67.5,173.2,68.9,174.7,70.7,174.7z"/>
<path class="st13" d="M70.1,157.1c1.2,0,2.2-1,2.2-2.3c0-1.3-1-2.3-2.2-2.3s-2.2,1-2.2,2.3C68,156.1,68.9,157.1,70.1,157.1z"/>
<path class="st25" d="M76.8,186.7c-2.3,0.1-4.4,1.8-4.5,4.1"/>
<path class="st25" d="M113.1,200.2c-8.3,18.4-18,18.4-28.9,9.6"/>
<path class="st13" d="M96.3,140.1c-4,4.6-3,12.4,1.2,24.7l3.6,0.3l5.8,3.2l3.1-3.4l1.1-2.7C110,147.9,102.9,139,96.3,140.1z"/>
<path class="st14" d="M97.2,144.9c-2.4,0.1-3.3,3.1-3.2,7.4l2.8,12.5l4.9,0.4l4.4,2.7C113.1,163.3,104.4,144.6,97.2,144.9z"/>
<path class="st10" d="M111.1,162.2c-0.9-14.7-9.5-23.5-13.2-22.4c-4.5,1.1-4.9,14.6-0.7,24.9"/>
<path class="st26" d="M98.7,179.2c1.9,0,3.4-1.6,3.4-3.6s-1.5-3.6-3.4-3.6c-1.9,0-3.4,1.6-3.4,3.6S96.8,179.2,98.7,179.2z"/>
<path class="st15" d="M99,153.3c-2.6,0.6-4.2,3.3-3.6,6.1c0.6,2.7,3.1,4.5,5.7,3.9c2.6-0.6,4.2-3.3,3.6-6.1
	C104.2,154.5,101.6,152.7,99,153.3z"/>
<path class="st13" d="M104.8,158.1c-1.5,0.3-2.4,1.9-2,3.4c0.3,1.5,1.8,2.5,3.2,2.2c1.5-0.3,2.4-1.9,2-3.4
	C107.7,158.8,106.2,157.8,104.8,158.1z"/>
<path class="st13" d="M101.6,145.8c-1,0.2-1.6,1.2-1.4,2.3c0.2,1,1.2,1.7,2.1,1.4c1-0.2,1.6-1.2,1.4-2.3
	C103.6,146.2,102.6,145.6,101.6,145.8z"/>
<path class="st27" d="M102.2,198.9c9.7-0.2,28.9-9,32.8-19.2C132.8,193.8,114.5,200.9,102.2,198.9z"/>
<path class="st6" d="M121.4,176.9l-7-2.7l-7.5-5.8c2.7-1.5,3.7-4.9,5.6-7.4C116.8,155.3,126.5,163.5,121.4,176.9z"/>
<path class="st10" d="M106.9,168.3c2.7-1.5,3.7-4.9,5.6-7.4c4.3-5.6,14.1,2.6,8.9,16"/>
<path class="st25" d="M76.9,181.6c11.9-2.3,14.4-16.2,20.6-16.9c10.5-1.3,16.3,16.9,30.9,11c5.1-2.7,9.2,1,8.1,5.1
	c-4.4,20-42.3,29.5-61.7,8.4"/>
<path class="st10" d="M76.7,181.7c-13.9-11.2-34.7-1.9-29,21.6"/>
<path class="st10" d="M114.6,159.3c-2.9-26.2-34.4-42.6-61.8-23.7c-0.2-2-0.1-4.4,0.8-7.5c-4.2,3.2-5.6,6.9-4.9,11.2c-1.8-3-4-5-7-5
	c0.8,1.8,2.5,3.9,2.5,7.1c-12.9,19.1-11,41.5,2.8,56.9"/>
<path class="st28" d="M56,206.7c12.1,29.2,46.1,34.4,52.4,64c-32-20.4-55.7,21.2-89.8-11.2"/>
<path class="st28" d="M30.2,274.1c-10.5-11.2-15.5-19.1-15-23.7c-8,7.2-9.1,17.5-7.1,29.1"/>
<path class="st10" d="M49.3,197c-2.8,7.4-1.6,14.3,3.5,20.5c0.4-3.9,1.4-7.5,3.1-10.8"/>
<path class="st10" d="M106.3,211c18.6,23,55.9,26.3,60.8,56.8"/>
<path class="st10" d="M41.8,377.7c4.6,3.1,9.3,5.5,14.6,7.2 M8.8,260.4c-9.9,10.7-11.1,33.8,0.3,49.8c-0.6,11.1,1.6,24.7,7.6,34.9"
	/>
<path class="st10" d="M113.7,288.6c12.5,61.9-66.5,57.4-74.8,97.3c-0.8,3.6-6.1-0.2-6.7-5c-10.6-8.3-15.3-21.5,1.7-52.4"/>
<path class="st10" d="M23,365.7c-10-10.5-11.4-38.1,18.6-64.7"/>
<path class="st10" d="M26.5,318.1c-3.3,5.1,2.7,10.6,7.4,10.4c-1,6.3,5.8,12,16.1,9.3c3.5,10.9,14.9,13.9,32.9,8.4"/>
<path class="st10" d="M50,337.7c-14.7,17.4-19.6,31.4-17.7,43.1"/>
<path class="st10" d="M169.4,285.7c-3.1,2.9-6.6-1.6-7.7-5.6"/>
<path class="st10" d="M150,288.9c-1.6,6.8-9.9,7.7-13.4-0.2"/>
<path class="st10" d="M152.6,296.6c1.8,5.4,5.8,5.3,6.9,1.9"/>
<path class="st10" d="M146.3,239.4c20-9,23.6-32.3,38.2-46.8"/>
<path class="st25" d="M61.9,374.8c-6.7,10.8-19.7,36.3-8.1,56.4c3.5,5.6,8.6,4.6,10,0c1.7-3.1,5.8-2.7,8.7,0.6
	c4.6,3.3,9.8,2.3,9.5-3.3c-0.6-3.2,0.3-5.8,3.6-6.1c14.8-1.4,2-20.5-14.3-30.8"/>
<path class="st25" d="M78.8,379.4c-9.5,8.2-10.2,19.1-5,25.8"/>
<path class="st29" d="M129.2,368.7l-11,7.6l-11.7,5.7c7.3,28.2,18.7,26.7,18.7,20.1c-0.2-3,3.3-4.6,6.9-3.4c5.5,2.3,9.6,0.6,9.1-4.2
	C139.8,387.8,159.6,386.5,129.2,368.7z"/>
<path class="st25" d="M106.5,382.1c7.3,28.2,18.7,26.7,18.7,20.1c-0.2-3,3.3-4.6,6.9-3.4c5.5,2.3,9.6,0.6,9.1-4.2
	c-1.3-6.7,18.5-8-11.9-25.8"/>
<path class="st5" d="M178.6,237c-3.7,5.5,0.2,7.6,6.1,5.8c-7.2,5.3-0.7,11.5,21.7,7.9c15.3-41.4,2.7-63.7-8.9-64.3
	c-10.1,9.8-33.2,50.2-26.9,54.5l3.1-0.6L178.6,237z"/>
<path class="st10" d="M169.3,301.8c48.6-36.3,55.4-112.8,28.3-115.2"/>
<path class="st2" d="M183.1,249.9l11,2.1c-0.1,16.2,0,33.1,0.2,50.5c0.6,5.9-9.3,5.8-9.8-0.4C183.6,284.1,183.2,266.7,183.1,249.9z"
	/>
<path class="st30" d="M183.9,205.5c4-99.3,23-172.4,54.3-201.2c-25,27.5-38,92.2-42.4,183.8 M194.1,252c-0.1,16.2,0,33.1,0.2,50.5
	c0.6,5.9-9.3,5.8-9.8-0.4c-0.9-18-1.3-35.4-1.4-52.2"/>
<path class="st10" d="M178.6,237c-7.2,13.8,20,1.9,27.3-4.7 M197.6,186.5c-10.1,9.8-33.2,50.2-26.9,54.5
	c3.9,2.5,26.7-21.1,34.5-33.8 M206.5,250.8c-11,2.2-32.3,2.1-21.7-7.9"/>
<path class="st10" d="M155.3,256.2c10.4,6.2,20.6,22,14.1,29.5c5.1,56.3-52.4,106.4-94.8,101.8"/>
<path class="st10" d="M58.1,370.7c7.1,9.4,16.5,10.9,27.4,6.9"/>
<path class="st6" d="M198.1,189.7c8,4.6,12.5,20,12.9,31.4C212.5,205,207.5,189.5,198.1,189.7z"/>
<path class="st14" d="M256.4,377.1c73.7-0.1,107.1,23.3,101.7,36.9c-5.8,14.7-40.7,21.2-51.6,24c-13.9,3.5-34,3.2-45.3-8
	c-19.4-19.3-72.1,5.2-83.1-13.6C164,392.2,224.2,377.2,256.4,377.1z"/>
<path class="st22" d="M184.3,197.1c4.7-91.5,20.9-159.2,53.9-192.8"/>
<path class="st31" d="M291.1,406.9c6.3,6.7,14.3,3.4,17.2-0.3"/>
<path class="st31" d="M322.5,399.5c4.1,4.3,9.2,2.2,11.1-0.2"/>
<path class="st31" d="M305.7,389.9c2.2,2.4,5.1,1.2,6.2-0.1"/>
<path class="st31" d="M249.5,395c3.5,3.3,9.1,1.7,11.1-0.3"/>
<path class="st31" d="M278.2,393.9c1.8,3.8,7.7,2.5,8.8,0.5"/>
<path class="st0" d="M70.5,379.2L13.8,276c-12.5-40.6,18.8-83.9,49.9-89.2c24.5-4.2,73-14,83.4-49.6C182,18,306.1,24.7,348.3,73.3
	c15.3,20,47,87.1,55.6,95.7c23,23-1.6,106.1,18.1,139.4c34.5,58.5-8.5,94.5-44,98.4c-37.3,4.1-71.1-15.8-106.4-15.8
	c-100.4,0-147.6,62.7-212.5,21.8C49.7,406.8,71.5,375.3,70.5,379.2z"/>
<path class="st1" d="M403.1,355.6c14.2,1.9,26.9,15.5,12.6,32.9c-5.7,6-16.6,19.9-58.1,18.3c-37.6-4.2-144.9-31.2-170.1-12.6
	L176.1,409C125,438.1,70.5,438.9,60.4,394.8c-22.9-13.9,96.8-130.5,113.3-137.3c-3.4-6.4-4-18.3,5.1-11.1c1.6,1.3,1.6,4.3,0.9-2
	c-0.2-1.5-0.6-5.2,0.8-6.1c0.7-0.4,2.7-1.3,2-2.1c-14.7-18.8,24.3-27.1,35.4-12.7c6.2-7.8,15.3-8.7,21.5-5.5
	c0.7,0.3-0.1-4.1-0.4-6.7c-1.3-11.1,21.7-13.5,23.6,3.9c0.1,1.1-1.7-11.8-0.5-14.2c3.1-6.3,19.5,1,17.8-2.9
	c-6.8-15.4-2.4-21.5,16.8-23.7c15.9-1.8,17.2,15.8,15.5,17.8c12.8-16.1,32.2-6.4,32.7,0c0,0,22.9,0.3,34.7,10.7
	c7.1,6.3,4.1,18.2,0.4,26.2c-0.3,0.7,20.5-16.2,16.2-4.4c-1.7,4.7-12.4,32.3-5.2,25.3c28.6-27.7-9.6,68.6-9.1,68
	c5.5-7.6,12.6-4.4,3.4,7.1c-9.2,11.6,9.7-13,16.9,5.6c0.8,2.1-3.8,10.4-1.1,15C401.2,345.6,405,352.7,403.1,355.6z"/>
<path class="st2" d="M195.8,188.1l-11.9,17.4c4-99.3,23-172.4,54.3-201.2C213.2,31.8,200.2,96.5,195.8,188.1z"/>
<path class="st3" d="M71.3,391.6c0.9-4.4,3.4-8.5,7.5-12.3l-16.9-4.5c-6.7,10.8-19.7,36.3-8.1,56.4c3.5,5.6,8.6,4.6,10,0
	c1.7-3.1,5.8-2.7,8.7,0.6c4.6,3.3,9.8,2.3,9.5-3.3c-0.6-3.2,0.3-5.8,3.6-6.1C100.4,421,87.6,401.9,71.3,391.6z"/>
<path class="st4" d="M184.5,192.7l-0.6,12.8c-19.4,34.3-16.1,40-6.3,32.5c-1.1,4.3,0.7,6,5.6,5.3c-4.1,6.6,0.3,10.4,23.4,7.6
	c-7.9,20.7-20.4,37.6-37.2,51l-23-62.3C166.3,230.5,169.9,207.1,184.5,192.7z"/>
<path class="st5" d="M18.6,259.5l-3.3-9.1l-6.5,10c-10.3,12.3-10.5,33.2,0.2,49.8c0.1,10.8,0.3,20.8,7.6,34.9
	c-0.2,7.6,2,14.2,5.8,20.1c1.7,6.8,5,12,9.9,15.7c2.4,4.9,5.6,7.7,6.7,5l2.9-8.1l6,3.6l8.6,3.6l5.5-10.1c4.1,3.4,9.7,4.9,16.9,4.6
	l-6.2,7.8c40.1,5.4,102.9-41.9,96.8-101.6c4.1-2.3,1.9-12.9-2.4-17.9c-3.6-29.4-41.8-33.3-60.8-56.8l-26.6-21.5L56,206.7
	c12.1,29.2,46.1,34.4,52.4,64C76.3,250.4,52.6,291.9,18.6,259.5z"/>
<path class="st5" d="M46.9,198.4l67.7-39.1c-2.9-26.2-34.4-42.6-61.8-23.7c-0.2-2-0.1-4.4,0.8-7.5c-4.2,3.2-5.6,6.9-4.9,11.2
	c-1.8-3-4-5-7-5c0.8,1.8,2.5,3.9,2.5,7.1C31.2,160.6,33.1,183,46.9,198.4z"/>
<path class="st4" d="M36.2,306.5c-22,7.6-28.5-31.7-27.5-46.1c-10,14.5-11.1,33.7,0.3,49.8c-0.3,12.4,2.6,27.4,9.6,41l-2-6.1
	c0.1-10.5,4.6-21.2,13.4-31.9l57.1,30.4c-15.1,11.3-36.4,17.2-45.2,34c4.3,2.9,9.2,5.4,14.5,7.3l5.5-10.1c5.1,4.4,10.7,5.9,16.9,4.6
	l-5.7,7.8c40.6,3.8,79-31.3,90-62.1c-11.8,23.2-45.4,15.1-49.1-13.4l-10.5,5.3l4.8-46.3c9.7-25.2-30.6-39.8-42.4-65.9l14.8-10.2
	l-28.1-7.5c-11.7-17.5-7.5-36.1,3.2-47.5c-21.4,11.8-24.9,38.7-8.9,58.7l9.1,8.3c10.8,28.3,47.8,36,52.4,64l-4.8,46.3L36.2,306.5z"
	/>
<path class="st6" d="M47.7,203.3c-0.3,5.4,1.9,10,5.2,14.2l3.1-10.8l3.4,6.7c11.7,0.5,28.2-11,17.4-31.8
	C62.8,170.5,42.1,179.8,47.7,203.3z"/>
<path class="st6" d="M26.1,318.3c28.1-42.4,84.8-40.9,87.6-29.7c2.6,11,5.8,37.1-26.6,55c-31.2,13-33.9-1.3-37.1-5.8
	c-8.2,0.4-15.2,0-16.1-9.3C27,328.4,25.7,322.2,26.1,318.3z"/>
<path class="st7" d="M56,425c-2.3-9.4-2-18.8,1-29.8C50.5,405.5,50.5,415.4,56,425z"/>
<path class="st8" d="M35.1,314.5c15.2-13.5,35.2-23.3,51.8-27.8C72.6,283.6,45.5,298.1,35.1,314.5z"/>
<path class="st6" d="M74.1,271.9c9.6-1.5,18.9-0.2,29.6,3.6C94,268.2,84.1,267.3,74.1,271.9z"/>
<path class="st5" d="M97.3,377.9c9.1-3.5,34.5-11.9,46.8-31.5C137.5,363.6,110.7,380.3,97.3,377.9z"/>
<path class="st3" d="M418.4,217.7c2-4.8,5.8-8.5,11.4-11.2c15.1,15.4,19.5,24.9,17.9,33.2c-0.8,11-11.8,15.2-5.9,29.8l-5.7-1
	l-1.2,4.9c-15.7-14.3-3.4-30.2,0.5-33.7C430,242,425.3,226,418.4,217.7z"/>
<path class="st9" d="M423.5,210.3c2.4-2.7,1.6-2.2,6.5-3.4c12.4,14.3,19.1,25.6,17.4,33.9c-0.9,6-8,15.4-7.5,21.2l-3-0.1
	c-3-11.5,4.9-16.9,5.5-23.6C443.8,232.2,431.4,223.3,423.5,210.3z"/>
<path class="st9" d="M309.9,207.9l-4.5-3.3c-15.8,17.3-22.5,31.7-42.7,43.3l6.1,4.5l-0.2,5.6c11.9-3.1,25.4-15.1,41.5-32.4
	C309,222.1,308.1,209.4,309.9,207.9z"/>
<path class="st3" d="M309.9,207.9l-1,8.8c-15.8,17.3-12.6,19.5-32.8,31.1l-7.4,4.6l-0.2,5.6c11.9-3.1,25.4-15.1,41.5-32.4
	C309,222.1,308.1,209.4,309.9,207.9z"/>
<path class="st3" d="M334.3,321.7l16.5,8.4c-1.3,31.6,5.9,35.6,1.7,42.7l-5.9-1.6l-2.9,4C338.5,367.8,334.3,351.1,334.3,321.7z"/>
<path class="st9" d="M334.3,321.7l10.3,6.6c-1.3,31.6,7.5,39.5,2.3,41.6l-3.2,5.1C337.9,367.8,334.3,351.1,334.3,321.7z"/>
<path class="st9" d="M385.7,324.2l17.9-7.5c-0.7,28.9,3.4,43.2-4.7,58.1l-4.6-4.6l-4.5,1.6C392.3,364.8,392.3,343.3,385.7,324.2z"/>
<path class="st3" d="M394.4,322.6l9.1-5.9c4.4,22,3.1,45.2-5,57.7l-4.3-4.2C402,357.5,402.9,323,394.4,322.6z"/>
<path class="st4" d="M401.7,368.1c-1.8-3.5-7.2-5.4-10.7-2.9c-0.6,2.5-0.4,4.3-1.2,6.5l4.5-1.6l4.1,4.2
	C399.8,372.4,400.2,370.9,401.7,368.1z"/>
<path class="st6" d="M414.8,313.3l7-5.2c7.8,8.4,20.9,10.4,36.5,9.4C441.9,325.6,425.5,322.9,414.8,313.3z"/>
<path class="st5" d="M385.6,329.6l0.1-5.4c5.3,0.9,11.2-1.6,17.9-7.5l0.5,6.6c5.5-0.5,8.3-5.1,9.8-9.1c6.4-2.1,11.6-7.7,14.1-21
	c5.9-6.6,10.2-10.4,10-24.1l-2-0.4l-1.2,4.9c-14.8-14-4.5-28.1,0.5-33.7c-3,4.1-11-14.6-16.8-21.9L310,225.8
	c-4.1,4.8-6.7,8-9.7,10.9c-3.1,9.7-1.9,17.9,3.4,24.5c-5,11.9,2.4,28.9,9.5,33.4c-1.2,9.6,7.2,21.7,17.6,21.4
	c1.5,7.2,15.3,16.1,26.9,14.4C365.6,333.3,378.5,333.2,385.6,329.6z"/>
<path class="st4" d="M387.2,328.4l-1.5-4.3c5,0.8,11.6-1.6,17.9-7.2l0.5,6.2c5.2-0.4,9.3-6.1,10.7-9.9c6.1-2,8.8-14.8,6.3-18.2
	c5.6-6.2,11.3-10.4,11.1-23.4l-0.3-1.4c-8-10.2-3.3-25.4,3.5-30.6c-3.2,3.6-11.3-15-16.8-21.9l-19,16.3l1.7,6.4
	c4.4,12-1.6,19.8-11.5,22.7c8.3,3.2,8.4,14.5,5,19.9c3.6,5.3,0.4,10.2-4.7,11c-1.8,10.7-18.2,9.7-22.6,4c-3.9,8.5-34.2,19.3-49-2.1
	c-1.1,9,7.6,15.1,16.2,17.3c1.4,6.8,12.2,18.4,23.1,16.8C365.1,333.1,380.5,331.9,387.2,328.4z"/>
<path class="st6" d="M304.9,182l103.2-23.4l31.6,24.7c3.1,13.4,0.2,21.9-5.4,28.1l-4.3-4.7c-6.4,2.3-10.2,6-11.4,11.2l-4.1,10.2
	c-2.6,4.8-7.6,6.8-14.9,6.1c5.2,9.5-2.3,17.4-13.6,10.1c-5,12.8-28.7,11.8-32.9-1.3c-22.7,13.1-51.5-11.1-43.1-35
	C301.1,203.9,297.5,191.2,304.9,182z"/>
<path class="st5" d="M408,158.6l31.6,24.7c3.1,13.4,0.2,21.9-5.4,28.1l-4.3-4.7c-6.4,2.3-10.2,6-11.4,11.2l-4.1,10.2
	c-2.6,4.8-13.3,4.7-16.6,2.7c7.3,0.1,11.2-4.8,13.7-10c1.6-13.8,14.3-14.8,3.7-26.6c-6.1-8.1-17.7,8.7-20-1
	C404.1,184.2,388.1,174.5,408,158.6z"/>
<path class="st7" d="M310.9,110.9l37.7-30.2l-2.4-31C307.8,33.4,275.9,85.5,310.9,110.9z"/>
<path class="st5" d="M390.1,165.2c5.9,10.7,18.6,18.3,29.2,19.7c-2.1,3.5-1.5,10.9-16,20.1C394.9,196.5,387.3,178.9,390.1,165.2z"/>
<path class="st8" d="M310.9,110.9l44.8-17.3l-2.3-29.2C309.7,50.3,286.7,90.8,310.9,110.9z"/>
<path class="st5" d="M316.2,185.8c8.5,13.4,39.3,25,75.1-5.3l-1.2-17.2c-8-19.2,5.6-37.9,21.3-39.7c-5.7,1.1-10.1-0.8-13.1-5.5
	l-38.7-49.1l-17.5,9.3c-13.3,6.5-26.2,21.6-33.9,38.1c-19.1,14.3-19.8,52.1-11.2,59.8C301.2,180.6,307.8,184.2,316.2,185.8z"/>
<path class="st4" d="M385.1,184.9l5.5-3.9l-0.1-9.9c4.7,11,18.1,17.3,27.7,13.6L390,163.3c-8-19.2,5.6-37.9,21.3-39.7
	c-5.7,1.1-10.1-0.8-13.1-5.5l-49.6-37.4c-1.8,16.4,6.1,26.4,19.1,26.1c0,6.4,3.8,9.8,8.8,12.1c6.8,10.2,0.4,21.9-8.4,31.4l8.5,5.2
	C365.4,155.2,378.4,180.5,385.1,184.9z"/>
<path class="st10" d="M346.2,49.8c-38.4-16.4-70.3,35.7-35.3,61.2"/>
<path class="st11" d="M371.7,102.3c1.5,9.3,8.1,16.5,25.5,15.4c-5.2-20.4,2.7-35.2,39.2-32.5c1.1-10.8-1.2-17.5-10.5-22.4
	C422.8,38,381.6,32,377,43c-6-8-20.4-1.6-20.7,7.8c-19.3-8.6-34.4,23.7-7.6,30C346.9,90.8,355.3,102,371.7,102.3z"/>
<path class="st6" d="M381.6,94.9c-3,9.1,5.4,18.6,20.3,17.7c-4.4-17.5,3.3-25,34.6-22.7c2.3-13.3-10.7-21-18.9-19.2
	c-0.5-21.9-27.8-22.4-33.7-14.5c-5.1-6.8-15.9-3.3-16.1,4.2c-16.3-6.6-23.3,19.2-5.5,22.5C360.8,91.4,371.5,98.4,381.6,94.9z"/>
<path class="st5" d="M315.1,104.2c5.8-8.8,12.4-16,19.8-21.4c-16.8-9.9-33.3-5-48-3C290.7,91.8,299.9,106.1,315.1,104.2z"/>
<path class="st4" d="M315.1,104.2c5.8-8.8,6.8-11.4,14.2-16.8c-16.8-9.9-29.6-2.6-42.3-7.6C290.7,91.8,299.9,106.1,315.1,104.2z"/>
<path class="st12" d="M319.8,98.2l4.8-6.3c-2.5-3.9-24.5-5.8-23.4,0.7C302.3,99.2,320.3,99.7,319.8,98.2z"/>
<path class="st8" d="M333.4,242.3c-8.7-4.9-16-13-19-24C311.7,229.4,323.9,241.2,333.4,242.3z"/>
<path class="st8" d="M375.9,247.4c-7.8,0.8-15.2-3-19.7-8.8C357.1,247.7,367.9,251.3,375.9,247.4z"/>
<path class="st8" d="M378.3,234.6c6.2,0.6,12-2.3,15.5-7C393.1,234.8,384.6,237.7,378.3,234.6z"/>
<path class="st6" d="M295.3,147.2c2-9.8,6.1-31.6,26.8-23.2C302.8,108.9,294.5,135.8,295.3,147.2z"/>
<path class="st6" d="M314.4,160.3c-8.9,1.3-15.1-2.9-15.3-9.7C297.3,160.8,303.7,165.5,314.4,160.3z"/>
<path class="st6" d="M346.3,128.5c5.4-6.8,11.6-10.3,20.7-12.9C359.4,113.2,350.4,119.3,346.3,128.5z"/>
<path class="st6" d="M393.9,176.6c1.6,8.5,5.5,19.4,10.5,24.5C396.1,196.9,392.5,185.6,393.9,176.6z"/>
<path class="st6" d="M318.2,109.4c4-5.7,11.1-11.7,18-13.1C328.4,94.8,320.8,102,318.2,109.4z"/>
<path class="st7" d="M411.4,123.7c-7.5-0.6-18.6,8.7-22,19.3c-6.8,20.4,9.4,37.9,28.9,41.8c36.2,6.1,58.8-31.5,51.5-62.7
	c-6.2-32.7-45.6-48.4-68.9-28.7C390.8,104.2,394.7,125.8,411.4,123.7z"/>
<path class="st8" d="M411.4,123.7c19.7-2.9,35,12.6,35.8,26c-1.9-18.5-37.8-18.4-34.9,1.6c2.2,15.9,34.3,19.7,41.1-6.3
	c6.5-24.1-20.1-45.6-46.3-37.6C397.8,110.9,400.9,123.4,411.4,123.7z"/>
<path class="st10" d="M447.2,149.7c-2.8-28-46.5-38.8-57.8-6.7c-6.8,20.4,9.4,37.9,28.9,41.8c36.2,6.1,58.8-31.5,51.5-62.7
	c-6.2-32.7-45.6-48.4-68.9-28.7c-10,10.8-6.1,32.4,10.5,30.3"/>
<path class="st10" d="M342.1,78.4c-13.3,6.5-26.2,21.6-33.9,38.1c-19.1,14.3-19.8,52.1-11.2,59.8c10.4,10.8,35.4,16.5,64.8,1.8"/>
<path class="st10" d="M316.2,185.9c4.3,11.5,34.9,23.7,68.9-0.9"/>
<path class="st10" d="M436.5,85.3c4-11.7-5.9-25.7-21.1-24"/>
<path class="st10" d="M426,62.8c-5.4-24.9-43.4-31.5-49-19.8c-6.3-7-19.4-2.5-20.7,7.8c-19.3-8.6-34.4,23.7-7.6,30
	c-1.7,9.9,6.7,21.1,23.1,21.5"/>
<path class="st10" d="M371.7,102.3c0,8.9,12.1,18.3,25.5,15.4"/>
<path class="st10" d="M394.2,93.7c-4,3.5-8.7,0.3-8.2-2.9"/>
<path class="st10" d="M370.6,209.2c-3.1,4.3-8.5,2.1-8.6-1.1"/>
<path class="st10" d="M404.9,285.5c-1.2,5.4-7.1,5.6-8.6,2.6"/>
<path class="st10" d="M387.1,295.5c-0.9,4.3-5.8,4.5-6.9,2.1"/>
<path class="st10" d="M335.4,271.5c-3.8,3.2-8.1,0-7.5-2.9"/>
<path class="st10" d="M333.5,287.4c-3.2,2.7-6.9,0-6.4-2.4"/>
<path class="st10" d="M387.5,309.6c-2.1,3.9-6.7,2.8-7.3,0.2"/>
<path class="st10" d="M338.1,221.3c-4.5,2.8-8.6-1.2-7.5-4.3"/>
<path class="st10" d="M356.1,221.2c-2.7,3.5-7,1.6-7.1-1"/>
<path class="st10" d="M331.8,206.3c-2.5,1.8-5.1-0.4-4.6-2.2"/>
<path class="st10" d="M375.3,85.9c-4.1,4.1-9.7,0.7-9-3.7"/>
<path class="st10" d="M363,73.1c-1.5,2.4-4.3,0.3-4-1.6"/>
<path class="st10" d="M391,78.5c-1.7,4-6.6,1.6-6.6-1.5"/>
<path class="st13" d="M355.4,149.3l7.3-0.2c10.6-9.3,13.2-23,10.4-27.4c-6-7.2-24.3,2-28.5,14.8C343.4,139.4,348,147.4,355.4,149.3z
	"/>
<path class="st14" d="M365.8,126.2c-7.2-6.3-19.5,2.4-21.3,12.2l2.9,5.6l4.7,4l6.2,1C364.5,145.7,372,131.2,365.8,126.2z"/>
<path class="st10" d="M347.8,152.6c6.9-5.4,19.6-5.4,28.9,2.9"/>
<path class="st13" d="M317.3,118l-0.7-0.3c4,1.2,6.8,3.4,9.9,7.3c9.8-2.1,18.7-19.7,13.9-25C334.8,96.7,324.1,101.3,317.3,118z"/>
<path class="st14" d="M335.3,106.7c-7.1-6.2-16.1,1.2-17,10.6l6.7,5.9C331,123.6,339.6,111.3,335.3,106.7z"/>
<path class="st10" d="M301.7,160.9c-3.9,4.1-5.9,14.1-2.7,17.3"/>
<path class="st10" d="M376.6,119c3.2,2.1,3.8,6.4,1.9,10.2"/>
<path class="st10" d="M365.1,180.3c-2.4-0.4-4-2.5-4.3-5.1"/>
<path class="st10" d="M336.9,93.1c2.9-2.2,8.2-0.7,10.5,2.3"/>
<path class="st10" d="M414.4,228.1c-2.6,4.8-7.6,6.8-14.9,6.1c5.2,9.5-2.3,17.4-13.6,10.1c-5,12.8-28.7,11.8-32.9-1.3
	c-22.7,13.1-51.5-11.1-43.1-35c-8.8-4-12.4-16.6-5-25.9"/>
<path class="st4" d="M276.5,254.8c1.7-6-1.2-9.7-5.8-11.5c-2.4,2-5.6,3.6-8,4.6l6.1,3l-0.3,7.1C271.5,257.3,273.6,255.9,276.5,254.8
	z"/>
<path class="st10" d="M304.3,205.8c-9.6,7.6-27.2,37.7-41.7,42.1l6.1,3l-0.3,7.1c10.4-2.5,38.8-25.8,41.5-32.4"/>
<path class="st10" d="M387.2,328.4c-7.1,3.7-21.6,4.9-29.5,1.6c-11.6,1.7-25.4-7.1-26.9-14.4c-10.4,0.3-18.8-11.8-17.6-21.4
	c-7.1-4.5-14.1-20.3-9.5-33.4c-5.7-3.7-6.4-15.9-3.4-24.5"/>
<path class="st10" d="M404.6,323.2c5.2-0.7,8.9-4.9,10.2-9.9c6.4-1.6,13.3-13.2,13.3-20.2c6.9-4.1,11-17.2,10-24.1"/>
<path class="st10" d="M405.6,314.4c-5.1,6.3-15,11.9-24.8,9"/>
<path class="st10" d="M421.7,308.1c7.8,8.4,20.9,10.4,36.5,9.4c-16.4,8.1-33.9,5.7-43.2-4.2"/>
<path class="st4" d="M430.4,268.4c2.2-5.5,4.8-6.5,9.5-5.7c0.8,2.6,1,4.2,1.8,6.9l-5.7-1l-1.2,4.9C433,271,432.1,270.8,430.4,268.4z
	"/>
<path class="st10" d="M432.8,206.1c-6,0.5-14.1,6-15.1,15.4"/>
<path class="st10" d="M429.9,206.7c15.1,15.4,18.3,25,17.7,33.1c-0.8,11-12.1,14.9-5.9,29.8l-5.7-1l-1.2,4.9
	c-15.2-14-3.4-30.2,0.5-33.7c-3.6,3.2-9.8-13.6-16.8-21.9"/>
<path class="st10" d="M434.8,210.7c6.7-6.4,8.1-19.4,4.9-27.5"/>
<path class="st4" d="M353.2,365.5c-5.4-2.2-9.9,0.3-12.6,3.1c1.1,4.1,1.8,4.1,3.1,6.3l3.5-4.3l5.3,2
	C353.2,370.3,353.2,368.7,353.2,365.5z"/>
<path class="st10" d="M403.5,316.7c4.8,25.9,1.2,48.8-5,57.7l-4.3-4.2l-4.5,1.6c2.8-9,1.9-32.5-4.1-47.5"/>
<path class="st10" d="M350.8,330.1c-1.3,31.6,4.8,35.6,1.7,42.7l-5.9-1.6l-2.9,4c-6.1-10.9-9.3-23.8-9.4-53.4"/>
<circle class="st15" cx="351.3" cy="137.3" r="6.3"/>
<circle class="st13" cx="356.8" cy="137.3" r="3"/>
<ellipse class="st13" cx="367.5" cy="130.1" rx="3" ry="3"/>
<path class="st10" d="M418.3,184.8c-1.2,9.2-8.3,18.9-15,20.3c-7-5.8-14-21.4-13.2-41.7"/>
<circle class="st13" cx="335.4" cy="108.2" r="2.6"/>
<circle class="st15" cx="324.2" cy="115.7" r="5.5"/>
<circle class="st13" cx="329.1" cy="114.9" r="2.6"/>
<path class="st10" d="M439.7,107.2c0.7-6.4,6.3-10.7,11.1-10.3"/>
<path class="st10" d="M449.9,109.1c0.4-3.6,3.6-6.1,6.3-5.8"/>
<path class="st10" d="M447.2,149.7c-7.4-5.7-29.6-11.1-30.7,1.4"/>
<path class="st10" d="M430.4,268.4c0.6-3.9,6-7.9,9.5-5.7"/>
<path class="st10" d="M400.8,370.1c1.6-3.1-4.3-7.2-9.9-4.8"/>
<path class="st10" d="M340.6,368.6c1.1-2.6,8.1-6.3,12.6-3.1"/>
<path class="st10" d="M275,255.2c4.5-2.7-0.6-12.1-4.3-12"/>
<path class="st10" d="M334.9,82.8c-16.8-9.9-33.3-5-48-3c3.8,12,13,26.3,28.2,24.4"/>
<path class="st16" d="M410,92c11.1-2.2,22.2-1.5,35,1.7C433.1,86.8,421.5,86.6,410,92z"/>
<path class="st17" d="M406.4,176.4c-8.2-7.3-13-15.9-14.9-27.7C389.8,162.7,397,171.3,406.4,176.4z"/>
<path class="st10" d="M406.7,130.1c2.3-0.1,4,1.8,4.1,3.3"/>
<path class="st10" d="M400.8,134.8c2-0.5,4.7,1,5.5,3.5"/>
<path class="st10" d="M312,162.2c-10.3,2.9-14.3-4.4-13.8-11.1"/>
<path class="st18" d="M355.4,54.7c-6.2-0.6-12,2.3-15.5,7C340.5,54.6,349.1,51.7,355.4,54.7z"/>
<path class="st18" d="M402.8,45c-8.3-3.5-18.1-2.7-25.5,1.1C382.2,38.1,395.7,38.6,402.8,45z"/>
<path class="st10" d="M308.2,116.4c6.8-0.3,13.4,2.3,18.4,8.6c9.8-2.1,18.7-19.7,13.9-25c-5.6-3.5-16.4,1.2-23.1,17.9"/>
<path class="st10" d="M362.7,149c10.6-9.3,13.2-23,10.4-27.4c-6-7.2-24.3,2-28.5,14.8c-1.1,3,3.5,11,10.8,12.9"/>
<path class="st19" d="M331.3,306.6c6.4-15.4-30.2-1.8-53.6-12.3c-50.2-22.2-70.5-112-39.6-290.1"/>
<path class="st20" d="M331.3,306.6c-29,9-22.4-15.1-43.9-18.5c13.4-15,40.4-1,47.9-14.8c3.2-6.4-3.2-12.7-11.6-9.8l7.9,9.5
	c-7.2-3.2-14.7-5.5-22.5-6.5c5.8-6.1,12.6-12.1,20.9-15.4l-6.9,7.1c13.1-3.6,22.3,5.3,20.5,14.8c-2.8,15.7-25.7,13.7-40.2,15.6
	C314.2,293.5,315.2,308,331.3,306.6z"/>
<path class="st21" d="M331.3,306.6c-29,9-22.4-15.1-43.9-18.5c13.4-15,40.4-1,47.9-14.8c3.2-6.4-3.2-12.7-11.6-9.8l7.9,9.5
	c-7.2-3.2-14.7-5.5-22.5-6.5c5.8-6.1,12.6-12.1,20.9-15.4l-6.9,7.1c13.1-3.6,22.3,5.3,20.5,14.8c-2.8,15.7-25.7,13.7-40.2,15.6
	C314.2,293.5,315.2,308,331.3,306.6z"/>
<path class="st22" d="M327.6,257.3c10.6-0.7,17.5,7.2,15.9,15.6c-2.8,15.7-25.7,13.7-40.2,15.6c10.9,5.1,11.9,19.5,28,18.1"/>
<path class="st23" d="M113.1,199l-39.3-11.1l-1.5,2.6c1.6,9.6,10.3,18.6,17.3,22.4C97.8,217.8,105.6,216.1,113.1,199z"/>
<path class="st13" d="M66.6,144.9c-6.5,0.9-10.5,16.6-5.5,30.9l5.5,1.5l5.7,2.2l4.6,2.1l4.4-1.2l1.6-2.3
	C83.3,160.3,76.9,146.4,66.6,144.9z"/>
<path class="st14" d="M65.7,151c-2.8,0-5.4,4.3-6.4,9.7l0.3,7.6l0.9,8.5l3.7-0.2l8.2,2.9C82.9,178.1,75.1,150.3,65.7,151z"/>
<path class="st10" d="M82.9,178.1c0.8-21-10.6-34-16.3-33.2c-9.2,1.6-8.1,24.8-6.2,32"/>
<path class="st15" d="M65.2,172.8c3.2,0,5.7-2.7,5.7-6.1c0-3.4-2.6-6.1-5.7-6.1c-3.1,0-5.7,2.7-5.7,6.1
	C59.5,170.1,62.1,172.8,65.2,172.8z"/>
<path class="st24" d="M121.4,176.9c-8.5,0.2-14.8-13.4-23.9-12.1c-7.4,2.2-9.5,15.8-20.6,16.9c-4.3,0.9-5.8,3.1-5.2,10l2.1-3.8
	c9.8,12.1,23.6,15.6,40.5,12c26.2-9.8,25.3-26,16.5-24.9L121.4,176.9z"/>
<path class="st10" d="M66.3,190.2c-1.2,2.1-1.1,4.9,0.7,6.2"/>
<path class="st6" d="M66.8,133.3c9-1.5,17.9-0.2,28,3.7C85.7,129.5,76.3,128.7,66.8,133.3z"/>
<path class="st13" d="M70.7,174.7c1.8,0,3.2-1.5,3.2-3.4c0-1.9-1.5-3.4-3.2-3.4c-1.8,0-3.2,1.5-3.2,3.4
	C67.5,173.2,68.9,174.7,70.7,174.7z"/>
<path class="st13" d="M70.1,157.1c1.2,0,2.2-1,2.2-2.3c0-1.3-1-2.3-2.2-2.3s-2.2,1-2.2,2.3C68,156.1,68.9,157.1,70.1,157.1z"/>
<path class="st25" d="M76.8,186.7c-2.3,0.1-4.4,1.8-4.5,4.1"/>
<path class="st25" d="M113.1,200.2c-8.3,18.4-18,18.4-28.9,9.6"/>
<path class="st13" d="M96.3,140.1c-4,4.6-3,12.4,1.2,24.7l3.6,0.3l5.8,3.2l3.1-3.4l1.1-2.7C110,147.9,102.9,139,96.3,140.1z"/>
<path class="st14" d="M97.2,144.9c-2.4,0.1-3.3,3.1-3.2,7.4l2.8,12.5l4.9,0.4l4.4,2.7C113.1,163.3,104.4,144.6,97.2,144.9z"/>
<path class="st10" d="M111.1,162.2c-0.9-14.7-9.5-23.5-13.2-22.4c-4.5,1.1-4.9,14.6-0.7,24.9"/>
<path class="st26" d="M98.7,179.2c1.9,0,3.4-1.6,3.4-3.6s-1.5-3.6-3.4-3.6c-1.9,0-3.4,1.6-3.4,3.6S96.8,179.2,98.7,179.2z"/>
<path class="st15" d="M99,153.3c-2.6,0.6-4.2,3.3-3.6,6.1c0.6,2.7,3.1,4.5,5.7,3.9c2.6-0.6,4.2-3.3,3.6-6.1
	C104.2,154.5,101.6,152.7,99,153.3z"/>
<path class="st13" d="M104.8,158.1c-1.5,0.3-2.4,1.9-2,3.4c0.3,1.5,1.8,2.5,3.2,2.2c1.5-0.3,2.4-1.9,2-3.4
	C107.7,158.8,106.2,157.8,104.8,158.1z"/>
<path class="st13" d="M101.6,145.8c-1,0.2-1.6,1.2-1.4,2.3c0.2,1,1.2,1.7,2.1,1.4c1-0.2,1.6-1.2,1.4-2.3
	C103.6,146.2,102.6,145.6,101.6,145.8z"/>
<path class="st27" d="M102.2,198.9c9.7-0.2,28.9-9,32.8-19.2C132.8,193.8,114.5,200.9,102.2,198.9z"/>
<path class="st6" d="M121.4,176.9l-7-2.7l-7.5-5.8c2.7-1.5,3.7-4.9,5.6-7.4C116.8,155.3,126.5,163.5,121.4,176.9z"/>
<path class="st10" d="M106.9,168.3c2.7-1.5,3.7-4.9,5.6-7.4c4.3-5.6,14.1,2.6,8.9,16"/>
<path class="st25" d="M76.9,181.6c11.9-2.3,14.4-16.2,20.6-16.9c10.5-1.3,16.3,16.9,30.9,11c5.1-2.7,9.2,1,8.1,5.1
	c-4.4,20-42.3,29.5-61.7,8.4"/>
<path class="st10" d="M76.7,181.7c-13.9-11.2-34.7-1.9-29,21.6"/>
<path class="st10" d="M114.6,159.3c-2.9-26.2-34.4-42.6-61.8-23.7c-0.2-2-0.1-4.4,0.8-7.5c-4.2,3.2-5.6,6.9-4.9,11.2c-1.8-3-4-5-7-5
	c0.8,1.8,2.5,3.9,2.5,7.1c-12.9,19.1-11,41.5,2.8,56.9"/>
<path class="st28" d="M56,206.7c12.1,29.2,46.1,34.4,52.4,64c-32-20.4-55.7,21.2-89.8-11.2"/>
<path class="st28" d="M30.2,274.1c-10.5-11.2-15.5-19.1-15-23.7c-8,7.2-9.1,17.5-7.1,29.1"/>
<path class="st10" d="M49.3,197c-2.8,7.4-1.6,14.3,3.5,20.5c0.4-3.9,1.4-7.5,3.1-10.8"/>
<path class="st10" d="M106.3,211c18.6,23,55.9,26.3,60.8,56.8"/>
<path class="st10" d="M41.8,377.7c4.6,3.1,9.3,5.5,14.6,7.2 M8.8,260.4c-9.9,10.7-11.1,33.8,0.3,49.8c-0.6,11.1,1.6,24.7,7.6,34.9"
	/>
<path class="st10" d="M113.7,288.6c12.5,61.9-66.5,57.4-74.8,97.3c-0.8,3.6-6.1-0.2-6.7-5c-10.6-8.3-15.3-21.5,1.7-52.4"/>
<path class="st10" d="M23,365.7c-10-10.5-11.4-38.1,18.6-64.7"/>
<path class="st10" d="M26.5,318.1c-3.3,5.1,2.7,10.6,7.4,10.4c-1,6.3,5.8,12,16.1,9.3c3.5,10.9,14.9,13.9,32.9,8.4"/>
<path class="st10" d="M50,337.7c-14.7,17.4-19.6,31.4-17.7,43.1"/>
<path class="st10" d="M169.4,285.7c-3.1,2.9-6.6-1.6-7.7-5.6"/>
<path class="st10" d="M150,288.9c-1.6,6.8-9.9,7.7-13.4-0.2"/>
<path class="st10" d="M152.6,296.6c1.8,5.4,5.8,5.3,6.9,1.9"/>
<path class="st10" d="M146.3,239.4c20-9,23.6-32.3,38.2-46.8"/>
<path class="st25" d="M61.9,374.8c-6.7,10.8-19.7,36.3-8.1,56.4c3.5,5.6,8.6,4.6,10,0c1.7-3.1,5.8-2.7,8.7,0.6
	c4.6,3.3,9.8,2.3,9.5-3.3c-0.6-3.2,0.3-5.8,3.6-6.1c14.8-1.4,2-20.5-14.3-30.8"/>
<path class="st25" d="M78.8,379.4c-9.5,8.2-10.2,19.1-5,25.8"/>
<path class="st29" d="M129.2,368.7l-11,7.6l-11.7,5.7c7.3,28.2,18.7,26.7,18.7,20.1c-0.2-3,3.3-4.6,6.9-3.4c5.5,2.3,9.6,0.6,9.1-4.2
	C139.8,387.8,159.6,386.5,129.2,368.7z"/>
<path class="st25" d="M106.5,382.1c7.3,28.2,18.7,26.7,18.7,20.1c-0.2-3,3.3-4.6,6.9-3.4c5.5,2.3,9.6,0.6,9.1-4.2
	c-1.3-6.7,18.5-8-11.9-25.8"/>
<path class="st5" d="M178.6,237c-3.7,5.5,0.2,7.6,6.1,5.8c-7.2,5.3-0.7,11.5,21.7,7.9c15.3-41.4,2.7-63.7-8.9-64.3
	c-10.1,9.8-33.2,50.2-26.9,54.5l3.1-0.6L178.6,237z"/>
<path class="st10" d="M169.3,301.8c48.6-36.3,55.4-112.8,28.3-115.2"/>
<path class="st2" d="M183.1,249.9l11,2.1c-0.1,16.2,0,33.1,0.2,50.5c0.6,5.9-9.3,5.8-9.8-0.4C183.6,284.1,183.2,266.7,183.1,249.9z"
	/>
<path class="st30" d="M183.9,205.5c4-99.3,23-172.4,54.3-201.2c-25,27.5-38,92.2-42.4,183.8 M194.1,252c-0.1,16.2,0,33.1,0.2,50.5
	c0.6,5.9-9.3,5.8-9.8-0.4c-0.9-18-1.3-35.4-1.4-52.2"/>
<path class="st10" d="M178.6,237c-7.2,13.8,20,1.9,27.3-4.7 M197.6,186.5c-10.1,9.8-33.2,50.2-26.9,54.5
	c3.9,2.5,26.7-21.1,34.5-33.8 M206.5,250.8c-11,2.2-32.3,2.1-21.7-7.9"/>
<path class="st10" d="M155.3,256.2c10.4,6.2,20.6,22,14.1,29.5c5.1,56.3-52.4,106.4-94.8,101.8"/>
<path class="st10" d="M58.1,370.7c7.1,9.4,16.5,10.9,27.4,6.9"/>
<path class="st6" d="M198.1,189.7c8,4.6,12.5,20,12.9,31.4C212.5,205,207.5,189.5,198.1,189.7z"/>
<path class="st14" d="M256.4,377.1c73.7-0.1,107.1,23.3,101.7,36.9c-5.8,14.7-40.7,21.2-51.6,24c-13.9,3.5-34,3.2-45.3-8
	c-19.4-19.3-72.1,5.2-83.1-13.6C164,392.2,224.2,377.2,256.4,377.1z"/>
<path class="st22" d="M184.3,197.1c4.7-91.5,20.9-159.2,53.9-192.8"/>
<path class="st31" d="M291.1,406.9c6.3,6.7,14.3,3.4,17.2-0.3"/>
<path class="st31" d="M322.5,399.5c4.1,4.3,9.2,2.2,11.1-0.2"/>
<path class="st31" d="M305.7,389.9c2.2,2.4,5.1,1.2,6.2-0.1"/>
<path class="st31" d="M249.5,395c3.5,3.3,9.1,1.7,11.1-0.3"/>
<path class="st31" d="M278.2,393.9c1.8,3.8,7.7,2.5,8.8,0.5"/>
</svg>
