<?xml version="1.0" encoding="utf-8"?>
<!-- Generator: Adobe Illustrator 21.1.0, SVG Export Plug-In . SVG Version: 6.00 Build 0)  -->
<svg version="1.1" id="Layer_1" xmlns="http://www.w3.org/2000/svg" xmlns:xlink="http://www.w3.org/1999/xlink" x="0px" y="0px"
	 viewBox="0 0 481 498" style="enable-background:new 0 0 481 498;" xml:space="preserve">
<style type="text/css">
	.st0{fill-rule:evenodd;clip-rule:evenodd;fill:#9D60A3;}
	.st1{fill-rule:evenodd;clip-rule:evenodd;fill:#A8A2C2;}
	.st2{fill-rule:evenodd;clip-rule:evenodd;fill:#8E86AF;}
	.st3{fill:none;stroke:#686181;stroke-width:1.7001;stroke-linecap:round;stroke-linejoin:round;stroke-miterlimit:22.9256;}
	.st4{fill-rule:evenodd;clip-rule:evenodd;fill:#BB8EC0;}
	.st5{fill-rule:evenodd;clip-rule:evenodd;fill:#E9996B;}
	.st6{fill:none;stroke:#A62522;stroke-width:1.7001;stroke-linecap:round;stroke-linejoin:round;stroke-miterlimit:22.9256;}
	.st7{fill-rule:evenodd;clip-rule:evenodd;fill:#FFFFFF;}
	.st8{fill-rule:evenodd;clip-rule:evenodd;fill:#D3ECFB;}
	.st9{fill-rule:evenodd;clip-rule:evenodd;fill:#D0B2D5;}
	.st10{fill:none;stroke:#6C3579;stroke-width:1.7001;stroke-linecap:round;stroke-linejoin:round;stroke-miterlimit:22.9256;}
	.st11{fill-rule:evenodd;clip-rule:evenodd;fill:#1A1A18;}
	.st12{fill-rule:evenodd;clip-rule:evenodd;fill:#F5A87D;}
	.st13{fill-rule:evenodd;clip-rule:evenodd;fill:#D6B36A;}
	.st14{fill-rule:evenodd;clip-rule:evenodd;fill:#C49246;}
	.st15{fill:none;stroke:#9C7560;stroke-width:1.7001;stroke-linecap:round;stroke-linejoin:round;stroke-miterlimit:22.9256;}
	.st16{fill-rule:evenodd;clip-rule:evenodd;fill:#ED861A;}
	.st17{fill-rule:evenodd;clip-rule:evenodd;fill:#FBD2B6;}
	.st18{fill-rule:evenodd;clip-rule:evenodd;fill:#F6A840;}
	.st19{fill-rule:evenodd;clip-rule:evenodd;fill:#C2BED6;}
	.st20{fill-rule:evenodd;clip-rule:evenodd;fill:#FBD4A7;}
	.st21{fill-rule:evenodd;clip-rule:evenodd;fill:#A62522;}
</style>
<path class="st0" d="M200.4,292l-17.6,14.5l-3.8-59l12.5-1.7c12.6,4.9,30.6,2.2,30.7,21.5c-2.5,15.7-21.6,21.5-39.3,39.2l-8,12.4
	c12.8,9,39.1,16.9,16.5-6.5c17.2,9,18.7,5.9,4.6-9.5C207,313.2,208.5,309.5,200.4,292z"/>
<path class="st1" d="M55.1,136c-2.5-16.2-5.4-32.8-8.7-36.3c-1.7,2.8-1.2,16.7,0,33.8c-4.3-7.3-15.2-12.7-16.8-19
	c-8.3-40.3-12-70.1-7.5-81.1c6-5.6,36.3-7.5,37.7-4.5c9.2,34.9,10.4,62.1,7.4,85.3C65.4,122,55.1,126.8,55.1,136z"/>
<path class="st2" d="M45.4,117l1.8,20.1c-2.4-8-10.1-12.1-15.2-18.2c-4.1,1-16.6-68.7-9.9-85.4c1.2-2.9,17.6-6.5,18.5-5.9
	C13.1,33.5,35.6,110.3,45.4,117z"/>
<path class="st3" d="M47.2,137.4c-0.5-8.2-14.7-14.2-17.7-22.9C24,100.5,17,39.8,22.1,33.5c3.6-4.8,34.1-9.5,37.7-4.5
	c11.9,42.6,9.1,77.5,7.4,85.3c-1.1,6.5-13.1,14-12.2,21.9"/>
<path class="st4" d="M111.1,341.8l2.4-5.9l-4.8-0.9l-4.6-2.5l-4.5,5.8c-37.9-13.6-42.4-49.9-63.6-74.8c6.9-5.1,13.7-6.2,20.4-4.5
	c-8.7-8.2-13.4-17.9-14.1-29.1c-3-7.3-4.6-13.7-3-18c-5.3-12.6,7.9-17,25.6-9.4c34.6,11.1,55.8,44,76.1,48.6
	c-3.4-33.6-38.8-32.3-47-56c7.1,5.8,18.8,3.3,22.1-0.2c10.4,9.9,18.8,12.1,24.8,5.2c13.5,13.4,31.1,18.9,45.9,35.7
	c10,10,6.9,19.9,0.5,19.6l1.3,6.5C200.3,311.1,152.6,350.3,111.1,341.8z"/>
<path class="st0" d="M111.1,341.8l2.4-5.9l-4.8-0.9l-4.6-2.5l-2.3,2.9c-37.9-13.6-40.6-45.2-65.8-72c6.9-5.1,20.4-4.5,28.9,9.9
	l-1.1-8.4l9.7,5.2l7.4,2.6l0.1-4.6l-6.8-12.6l6.3,1.2c5,14.5,9,27.1,26.8,34.7c15.2,6.9,26.4-3.3,35.6-14.5
	c5.6,9.8,19.3,13,27.1,8.5c5,4.2,8.1,3.2,9.5-3l2.2,1.9l2.6-1.1C185.8,328.9,142.3,346.7,111.1,341.8z"/>
<path class="st0" d="M39.2,211.9c-4-9.9,5.5-16.4,16.3-11.8l0.9,7l3.4,2.4c-8.7-3.4-11.2,9.2,3.1,18.6c-10.3-3.7-8,9.3,0.1,17.6
	c-4.6,0.8-8.1,10-3,16.6c-9.9-7.2-16.9-17-17.9-32.5C38.7,222.5,37.7,216.5,39.2,211.9z"/>
<path class="st5" d="M153.7,335l-19.2,6.8c0.7,11.1,9.5,17.3,15.9,18.6c5.5,1.2,8.8-1,7-3.6c-1.2-1.9-1-4.3,2.3-3.8
	c2.9,0.6,5.4,0.9,6.3-1.2c0.7-2.2-0.9-3.1-3.1-3.9c-3.1-1-3.4-4.7,1.5-4.7c4.7,0.1,4.8-5.8-0.4-6.1C159.8,337,156.5,336.5,153.7,335
	z"/>
<path class="st6" d="M134.5,341.8c0.7,11.1,9.5,17.3,15.9,18.6c5.5,1.2,8.8-1,7-3.6c-1.2-1.9-1-4.3,2.3-3.8c2.9,0.6,5.4,0.9,6.3-1.2
	c0.7-2.2-0.9-3.1-3.1-3.9c-3.1-1-3.4-4.7,1.5-4.7c4.7,0.1,4.8-5.8-0.4-6.1c-4.2-0.2-7.5-0.7-10.3-2.2"/>
<path class="st4" d="M85.3,185.8c4.3-14.2,13.6-16,26.3-9.4c3.7-1.4,7.6,1.5,11.1-4.3c3.3-6,12.5-14.8,18.7-7.2l7.3-5.5
	c-2.7-20.5-24.8-37.2-50-25.3c0.7-5.5,0.5-7.9-0.6-7.3c-2.7,2.4-3.7,5.5-4,9l-2.4-4.2c-1.8,2.2-2.4,5.3-1.8,9.3
	C78.8,151.3,76.9,168.6,85.3,185.8z"/>
<path class="st0" d="M140.8,251.1c-3.4-33.6-38.8-32.3-47-56c7.1,5.8,12.1,9.4,15.4,5.9c1.8,13.2,46.7,16.1,39.8,51.4L140.8,251.1z
	 M85.3,185.8c1.5-7.7,5.8-10.7,9.2-12.4c-5.7-10.5-2.4-28.8,3-33.4C80,147.8,75.1,163.1,85.3,185.8z"/>
<path class="st7" d="M122.6,172c-3.5,5.8-7.4,2.9-11.1,4.3c-3.7-2.5-7.6-3.8-11.8-3.9c-2.1-15.3,3-26.6,7.4-26.9
	C112.7,144.7,118.7,156.4,122.6,172z"/>
<path class="st8" d="M109.3,152.4c-6.2,1.3-7,12.9-5.7,20.5l7.3,3.1c5.5,0.8,9.9,0.1,11.9-4C121.9,169.2,118.2,150.7,109.3,152.4z"
	/>
<path class="st9" d="M93.9,195.1c5.8,9.8,18,8.1,22.1-0.2l-4.3-18.5c-19.6-11.4-27.5,5-26.5,14.2c2.3-3.4,4.3-5.7,6-6.9
	c-5,5.9-3.1,12.5,0.8,17.9C92.5,198.2,93.1,196.7,93.9,195.1z"/>
<path class="st10" d="M148.9,252.3c-24.1,1.3-47.1-37.6-84.2-49.8"/>
<path class="st7" d="M145.6,161.1l-4.3,3.8c-1.9-2.3-5-2.8-9.5-1.4c-3.2-12.3-1.4-21.5,1-22.1C138.1,141.1,142.4,149.6,145.6,161.1z
	"/>
<path class="st8" d="M136,146.8c-3.6,1-3.2,9.9-1.7,16l7,2c0.7-0.8,2.5-2.5,4.3-3.8C145,158.7,142.6,145.3,136,146.8z"/>
<path class="st9" d="M155.2,171.1c-4.7,0.1-9.3-2.2-13.9-6.3C149.6,155.1,157.2,160.9,155.2,171.1z"/>
<path class="st10" d="M148.6,159.3c-3.6-22.5-24.8-37.2-50-25.3c0.7-5.5,0.5-7.9-0.6-7.3c-2.7,2.4-3.7,5.5-4,9l-2.4-4.2
	c-1.8,2.2-2.4,5.3-1.8,9.3c-11.1,10.4-13,27.8-4.6,45 M99.8,172.5c-2.1-15.3,3-26.6,7.4-26.9c5.4-0.9,11.5,10.9,15.5,26.4
	 M100.1,146.5c1.6-2.9,4.8-4.9,7.9-4.2 M127.1,142.5c0.4-2.4,1.8-5.1,5.4-4.2 M131.8,163.5c-3.3-10.7-2.3-20.9,1-22.1
	c5.3-0.3,11.7,8.6,12.2,20 M111.6,176.4c-19.6-11.4-27.5,5-26.5,14.2c2.3-3.4,4.3-5.7,6-6.9c-5,5.9-3.1,12.5,0.8,17.9
	c0.5-3.3,1.2-4.9,1.9-6.5c9.3,23.5,43.4,24.1,47,56 M141.3,164.8c8.2-9.7,15.9-3.9,13.9,6.3"/>
<ellipse class="st11" cx="114" cy="162" rx="4.2" ry="4.2"/>
<ellipse class="st7" cx="111.7" cy="164.3" rx="1.9" ry="1.9"/>
<circle class="st11" cx="138.9" cy="155.2" r="3.7"/>
<circle class="st7" cx="136.8" cy="157.3" r="1.7"/>
<path class="st10" d="M174.8,318.9c12.8,9,39.1,16.9,16.5-6.5c17.2,9,18.7,5.9,4.6-9.5c11.1,10.3,12.6,6.6,4.5-11 M191.5,245.8
	c12.6,4.9,30.6,2.2,30.7,21.5c-0.3,14-21.6,21.5-39.3,39.2 M70.6,318.8C56.3,302,51.4,280.4,36,263.5c7.1-5,12.6-6,20.4-4.5
	 M99.5,338.3C92,335.5,86,332,80.9,328.2 M188.5,261.9c11.8,49.2-35.9,88.5-77.5,79.9 M140.7,200c14.9,16.5,39.3,20.5,49.9,42.3
	c2.3,6.9,1.2,13.4-3.5,13c3.8,6.3-0.4,16.6-8.4,11.7 M37.6,262.4c5.9-1.6,11.4-0.6,16.5,3"/>
<path class="st12" d="M109.5,350.6c0-5.2,1.4-10.2,3.9-14.7c-2.7,0-5.7-0.9-9.4-3.3c-12.2,14.4-14.7,26.6-9,37
	c7.7,11.1,22.3,10.5,23.4,5c1.5-5,7.7-0.1,12.5-5.4c2.6-2.3-2.6-5,0.6-7.7c4.8-2.3,3.2-7-1.8-7.4
	C123.2,353.5,115.4,357.1,109.5,350.6z"/>
<path class="st6" d="M104,332.6c-14.5,17.2-14,29.4-9,37"/>
<path class="st13" d="M56.4,207.2l9.9,6.8l-10-77.9c-3.5-21.8-7.1-38.8-9.9-39.1c-2.3,0.7-0.9,22,1.1,40.5L56.4,207.2z"/>
<path class="st13" d="M73.5,270.2l-9.7-5.2l13,101.8c0.6,3.9,9.6,2.8,9-0.6L73.5,270.2z"/>
<path class="st14" d="M73.5,270.2l-9.7-5.2l13,101.8c0.6,3.9,4.9,0.6,4.3-2.7C78.6,332.8,70.3,293.6,73.5,270.2z"/>
<path class="st6" d="M113.4,335.9c-5.9,12.6-4.6,20.4,0,26.1"/>
<path class="st6" d="M95,369.4c7.7,11.1,22.3,10.5,23.4,5c1.5-5,7.7-0.1,12.5-5.4c2.6-2.3-2.6-5,0.6-7.7c4.8-2.3,3.2-7-1.8-7.4
	c-6.5-0.5-14.4,3-20.3-3.4"/>
<path class="st15" d="M63.8,265l13,101.8c0.6,3.9,9.6,2.8,9-0.6l-12.3-96 M66.3,213.9l-10-77.9c-3.5-21.8-7.1-38.8-9.9-39.1
	c-2.3,0.7-0.9,22,1.1,40.5l8.9,69.7"/>
<path class="st16" d="M146.8,189.5l-34.6-11l-5.4,5.7l2.9,3.7c3.7,5.8,8.1,10.1,15.6,14C134,206.8,142.9,202.2,146.8,189.5z"/>
<path class="st17" d="M98.4,369.1c-2.3-7.7-2-15.4,1-24.4C92.9,353,92.9,361.2,98.4,369.1z"/>
<path class="st18" d="M132.1,163.4c-8.1,1.7-8,13.2-18.5,12.6c-6,0.2-10.6,6.8-4.1,11.9c-0.9-1.8-0.8-3.2,1.3-3.8l1.8-0.8
	c9.4,5.6,19.8,9.1,33.1,6.5c20.6-7.3,20.6-19.4,15.7-19.2C147.1,174.7,142.6,160.7,132.1,163.4z"/>
<path class="st19" d="M25.8,36.2c9.4-3.3,19.5-4.5,31.7-4C45.2,28.7,34.8,30.3,25.8,36.2z"/>
<path class="st19" d="M62.1,59.3c1.8,16.8,2.9,36.2,1.1,56.9C68.8,111.2,67.5,75.7,62.1,59.3z"/>
<path class="st20" d="M127.7,186.7c8.2,1.6,25.8-2,30.8-9.3C154.2,188.1,137.7,190.4,127.7,186.7z"/>
<path class="st10" d="M184.2,283.3c-1.1,1.4-3.2,1.9-4.9-0.8c-1.6,5.4-4.9,7.8-9.5,3 M77,282.5c14.9,15.9,29,21.3,42.6,19.4
	 M100.1,328.7c5.9,7.1,12.5,8.2,19.2,6.5"/>
<path class="st6" d="M116,194.8c15.2,14.1,24.9,10.5,30.9-5.3"/>
<path class="st6" d="M109.7,187.9c-5.3-3.5-3.2-10.3,2-11.5c3.5-1,8.2,0.3,10.4-3.1c6.8-11.4,14.1-12.2,19.4-8.4
	c6.7,5.6,13.4,7.3,20.1,5.8c2.6-0.6,4.3,4.3,1.3,7.8c-9.4,12.1-26.8,18.1-49.7,5.2"/>
<path class="st6" d="M114.3,179.7c0.3,2.2-1.2,3.9-3.3,4.4"/>
<circle class="st21" cx="132.9" cy="170.4" r="2.8"/>
<path class="st4" d="M122.1,337.9c9.9-2.6,37.3-8.5,52.4-26.9C165.7,327.6,135.9,341.6,122.1,337.9z"/>
<path class="st4" d="M218.1,261.4c0.5,8.7-2.8,16.1-13.7,24.4C215.8,279.5,223.5,270,218.1,261.4z"/>
<path class="st10" d="M39.2,211.9c-5.8,25.3,34.9,48.8,45,44.3c1.4-2.1-3-11.2-13.8-20.5 M42.2,229.8c0.2,16.1,13.8,36,38.7,43
	c2.6-1.2-1.6-9-6.7-17.3 M38.4,203.5c-5.3,17.6,38.3,38.1,47,35.3c-1-5.1-12-22.6-30.7-32.5 M54.1,199.7c-7.2-1.8-13.5-0.4-15.7,3.8
	"/>
<path class="st9" d="M81.9,236.5c-6.5-6.8-13.9-15.8-22.4-23.7C69.8,216.8,77.5,228.3,81.9,236.5z M99.4,227.5
	c10.4,6.6,26.5,25.3,44.7,27.8C127.4,257.9,105.8,236.8,99.4,227.5z M103.6,134.6c7.5-2.1,15.2-2,24.1,0.1
	C119.2,129.8,111.3,130.1,103.6,134.6z"/>
</svg>
