<?xml version="1.0" encoding="utf-8"?>
<!-- Generator: Adobe Illustrator 21.1.0, SVG Export Plug-In . SVG Version: 6.00 Build 0)  -->
<svg version="1.1" id="Layer_1" xmlns="http://www.w3.org/2000/svg" xmlns:xlink="http://www.w3.org/1999/xlink" x="0px" y="0px"
	 viewBox="0 0 481 498" style="enable-background:new 0 0 481 498;" xml:space="preserve">
<style type="text/css">
	.st0{fill-rule:evenodd;clip-rule:evenodd;fill:#D0B2D5;}
	.st1{fill-rule:evenodd;clip-rule:evenodd;fill:#9D60A3;}
	.st2{fill-rule:evenodd;clip-rule:evenodd;fill:#BB8EC0;}
	.st3{fill-rule:evenodd;clip-rule:evenodd;fill:#E2D2E8;}
	.st4{fill:none;stroke:#6C3579;stroke-width:1.7001;stroke-linecap:round;stroke-linejoin:round;stroke-miterlimit:22.9256;}
	.st5{fill-rule:evenodd;clip-rule:evenodd;fill:#FBDED1;}
	.st6{fill-rule:evenodd;clip-rule:evenodd;fill:#F9CEBB;}
	.st7{fill:none;stroke:#E29769;stroke-width:1.7001;stroke-linecap:round;stroke-linejoin:round;stroke-miterlimit:22.9256;}
	.st8{fill-rule:evenodd;clip-rule:evenodd;fill:#D6B36A;}
	.st9{fill:none;stroke:#A96833;stroke-width:1.7001;stroke-linecap:round;stroke-linejoin:round;stroke-miterlimit:22.9256;}
	.st10{fill-rule:evenodd;clip-rule:evenodd;fill:#FFFFFF;}
	.st11{fill:none;stroke:#6E6E6E;stroke-width:1.7001;stroke-linecap:round;stroke-linejoin:round;stroke-miterlimit:22.9256;}
	.st12{fill-rule:evenodd;clip-rule:evenodd;fill:#CAD44E;}
	.st13{fill:none;stroke:#575656;stroke-width:1.7001;stroke-linecap:round;stroke-linejoin:round;stroke-miterlimit:22.9256;}
	.st14{fill-rule:evenodd;clip-rule:evenodd;fill:#1A1A18;}
</style>
<path class="st0" d="M414.4,349.7c-5.5-2.4-9.9-5.7-13.2-9.9C414.5,334.2,415.5,334.7,414.4,349.7z M453.1,377.1l-5.8-11.7
	C459.7,366.2,458.8,369.8,453.1,377.1z M396.1,331.1l-5.2-16.7C405.8,317.9,405.7,319.6,396.1,331.1z M389.2,303.8l-1.2-19
	C403.1,292.5,400.4,294.2,389.2,303.8z M388,270.1l0.9-20C404.1,257.8,404.6,262.9,388,270.1z M390.1,241.5l1.6-23.2
	C408.4,225.8,408.4,233.3,390.1,241.5z M392.2,207.7l0.3-20.4C405.8,194.8,406.8,199.5,392.2,207.7z M437.9,361l-16.1-6.3
	C434.1,345.5,435.9,346.5,437.9,361z"/>
<path class="st1" d="M260.6,233.7c17,2.9,31.8,2.5,44.2-1.3l7.6-19.9c-20.8,17-46.4-0.2-58.9,22.3L260.6,233.7z"/>
<path class="st2" d="M247.5,365.9l4.8-0.5c11.1,3,23.7,3.1,36.6,2.5l15.8-13.4l-12-72.6c-20.3,11.7-14.9,38-2.3,68.4
	c-28-2.3-43.7,3.3-47.4,16.8L247.5,365.9z"/>
<path class="st1" d="M246.7,365.9l5.6,1c12.2,1.2,22.8,1.6,35.7,1l15.8-13.4l-12-72.6c-20.3,11.7-16.2,40.3-0.2,74.8
	c-28-2.3-27.5,3.1-35,5.6L246.7,365.9z"/>
<path class="st2" d="M365.3,251.8c-1.9,11.6-4.8,22.5-8.6,32.7c-12.6-3.7-18.4,19.9,1.6,66.8l-53.8,3.2c-9.4,2.7-15.2,9.1-17.4,19.1
	l3.2-1.3l10.2-0.6c34.8,4.2,66.7,4.8,92.3-2.2c20.8,6.7,65.1-13.6,49.1,31.6c36.3-47.7-24.5-36.9-40.6-61.3
	c-8.4-11.6-13-29.4-13.2-54.9c-0.9-36.9,5.9-78,4.4-113l-18.9,2.2c3.6,3.8,0.5,35-3.6,50c-17.7,26-59.7,10.1-62.5,30.5l1.4-1
	C323.5,255.4,342.8,254.5,365.3,251.8z"/>
<path class="st1" d="M365.3,251.8c-1.9,11.6-4.8,22.5-8.6,32.7l9,4.1l7,6.8c-12.9,0.6-10.5,31.7-1.7,55.9
	c6.2,12.6-17.9,19.5-56.5,16.4l-14,4.1c34.8,4.2,68.3,4.8,93.9-2.2c20,8.7,59.9-9.3,47.5,31.6c25.3-48.9-14.9-19.8-43.2-56.7
	c-8.4-11.6-10.5-34-10.7-59.5c-0.9-36.9,5.9-78,4.4-113l-18.6,2.2c9.3-1.1,6.7,35,2.5,50.1c-17.7,26-35.1,28.5-62.5,30.5l1.4-1
	C329.8,255.4,342.8,254.5,365.3,251.8z"/>
<path class="st3" d="M335.8,169.5c15.7,3.4,28.3,4.9,37.8,4.5c2.9,9.9,1.4,27-3.6,50c-18.4,25.2-57.6,9.9-62.5,30.5l1.4-1
	c15.8,2,35,1.1,56.5-1.8c-2.7,13-5.3,23.7-8.6,32.7c-18-1.5-14.4,27.7,1.6,66.8c-9.3,15.1-33.3-0.2-53.6,3.4
	c-15.1-14.2-21.3-51.7-11.6-69.5c-1.3-13.1,3.1-30.7,13-52.6c-1-6.2,4.7-18.3,13.3-28.8C319.3,194,325.4,182.4,335.8,169.5z"/>
<path class="st0" d="M335.8,169.5c15.7,3.4,28.3,4.9,37.8,4.5c2.9,9.9,1.4,27-3.6,50c-18.4,25.2-57.6,9.9-62.5,30.5l1.4-1
	c15.8,2,35,1.1,56.5-1.8c-2.7,13-5.3,23.7-8.6,32.7c-18-1.5-14.4,27.7,1.6,66.8c-9.3,15.1-33.3-0.2-53.6,3.4
	c-14.2-13.2-18.7-57.7-6-70.5c-1.3-13.1,4-43.9,14.4-53.9c-6.5-3.8,3.5-22.9,12.7-28.6C322.5,198.7,328.1,180.2,335.8,169.5z"/>
<path class="st3" d="M298.5,281.1c8.6-4.4,35.5-2.4,40.9,4.5c-16-3.8-34.6-4.5-44.2-0.1L298.5,281.1z M309.1,228
	c7.7-3.7,33.3-3.9,34.9,2c-18.9-1.9-28.5-1.3-38.1,2.4L309.1,228z M322.3,199.8c12.2-5.6,34.9-1.7,39.6,6
	c-11.7-6.2-25.8-6.9-42.5-2.1L322.3,199.8z M332.8,329.4c-13.5-4.9-27.7-4.2-35.5-2.5C295.5,318,332.3,322.2,332.8,329.4z"/>
<path class="st4" d="M391.6,218.3c16.7,7.5,16.8,15-1.6,23.2 M389,250.1c15.1,7.6,15.7,12.8-0.9,20 M388,284.9
	c15.1,7.6,12.4,9.3,1.2,19 M390.9,314.5c14.9,3.4,14.9,5.1,5.2,16.7 M401.2,339.8c13.3-5.5,14.3-5.1,13.2,9.9 M422.6,354.2
	c11.2-8.3,13.6-7.1,15.2,5.9 M447.3,365.6c12.3,0.7,11.5,4.2,5.8,11.7 M392.5,187.3c13.3,7.5,14.3,12.2-0.3,20.4"/>
<path class="st4" d="M290.3,372.2c8.5,0.3,16.6-1.3,24.2-4.7 M358.2,351.2c-7.7,14.1-34,0.1-53.6,3.4c-9.1,2.1-15,8.4-17.5,18.9
	c4.8-1.6,10.1-4.7,15.8-9.1 M372.6,295.3c-9.4-11.2-19.5-14.3-25.3-7c-7.4,12,3.2,48.3,12.6,66.7 M365.3,251.8
	c-2,12-5.1,23.1-8.6,32.7 M373.5,174c3.6,3.8,0.5,35-3.6,50c-17.7,26-59.7,10.1-62.5,30.5c4.1-2.9,7.7-5.4,10.9-7.4 M392.3,171.8
	c2.7,55.8-16,130.1,8,167.2c16.7,25.1,76.4,13.7,41.4,61.9c14.8-46.1-43-14.9-60-40.8 M392.7,369.4c-16.4,4.2-39.8,7.9-92.3,2.2"/>
<path class="st4" d="M335.8,169.5c-11.3,14.3-16.3,25.4-16.3,34.2c-5.5,6.1-15.6,24.4-13.3,28.8c-8.1,16.1-15.6,42.8-13,52.6
	c-9.7,12.3-3.2,58.1,11.6,69.5"/>
<path class="st4" d="M306.1,232.5c7.5-3.6,20.1-4.4,37.9-2.5 M297.3,326.9c10.3-1.6,21.8-1.4,31.6,1.1 M298.7,284.1
	c20.4-3.2,35.9-1,48.8,4.2 M319.4,203.7c9-4.4,35.3-4.1,42.5,2.1"/>
<path class="st4" d="M247.5,365.9c6.2-0.3,12.8-1.9,20-5 M289,367.9c-15,0.4-30.3-0.8-36.7-2.5 M258.5,234
	c14.7,1.9,35.8,3.1,46.3-1.6 M314.1,211.1c-20.8,17-48.5,3.2-60.5,23.7c5.6-0.5,9.3-1.6,15.8-4 M292.6,282
	c-20.3,11.7-14.9,38-2.3,68.4c-28-2.3-43.7,3.3-47.4,16.8c4.6-0.7,10.5-3.7,17.9-9.1"/>
<path class="st5" d="M271.8,18.8l8.7,203.5c4.8,16.4,16.5,34.1,45.3,32.1c-56.7,4.9-110,4.8-165.5-12
	C182.2,164.5,221.8,88.7,271.8,18.8z"/>
<path class="st6" d="M273.1,50.7l7.3,171.6c4.8,16.4,16.5,34.1,45.3,32.1C180,267,224.7,146.6,273.1,50.7z"/>
<path class="st7" d="M307.9,252.8c-11.6-3.4-20.8-13.1-27.4-29"/>
<path class="st8" d="M267.8,369.1c0,3.9,14.6,4,14.4,0L277.9,3.5c-0.1-3.3-6-3.5-5.9,0L267.8,369.1z"/>
<path class="st9" d="M267.8,369.1c0,3.9,14.6,4,14.4,0L277.9,3.5c-0.1-3.3-6-3.5-5.9,0L267.8,369.1z"/>
<path class="st4" d="M308.9,253.6c20.1,2.2,41.6,1.1,64.5-3.2"/>
<path class="st7" d="M160.2,242.5c41.6,13.9,115.9,18.9,164.9,12.2c3.3-0.4,1.4-9.2-2.1-11.8c5.8,1.8,8.6,6,9.4,11.9 M160.2,242.5
	c13.8-62.3,62-158.7,111.6-223.6"/>
<path class="st10" d="M186.6,221.9c2.1-14.8,9.7-56.5,26.1-88.7C194.6,157.4,180.3,202.5,186.6,221.9z"/>
<path class="st2" d="M287.8,155.7c-11.3-0.4-20.8,0.7-28.6,3.3c-11.3,6.4-18.6,4.6-21.8-5.3c-4.2-6.6-23.8-4.7-12.5-19.9l3.7-5.9
	c3.5-8.5,9.6-11.8,21.1-3.9c21.7-6.3,47-10.8,80.1-11.7c12.2-37.9,32.1-47.2,35.9-26.2c17.2-19.7,34.6-12.2,44.3,33.9
	c25,13.2,22.8,39.8,10.2,49.8C381.6,200,324,161,287.8,155.7z"/>
<path class="st1" d="M400.7,118.2c0.8-25.3-11.3-52.3-35.1-31.9c17.2-19.7,34.6-12.2,44.3,33.9L400.7,118.2z M287.8,155.7
	c-11.3-0.4-20.8,0.7-28.6,3.3c-11.3,6.4-18.6,4.6-21.8-5.3c-4.2-6.6,10.8,12.7,22.1-2.6c32.2-4.4,72.5,5.1,113.1,1.4
	c10-1.7,19-7.6,27.2-17.8c16.5,6.4,22.6,24.3,14.1,39.3C373.9,194.1,338.1,166.1,287.8,155.7z"/>
<path class="st10" d="M260.5,159.1c-4.3,1.2-9.1,3.2-12.8,3.6c1.8,5.4,3.2,7.9,4.3,7.7C254,170.2,257,165.7,260.5,159.1z"/>
<path class="st11" d="M247.6,162.6c1.8,5.4,3.2,7.9,4.3,7.7c2-0.1,5.1-4.7,8.5-11.3"/>
<path class="st10" d="M237.4,153.8l-10-5.3c1.2,6.5,3.3,12.4,4.3,12.2C233.6,160.5,235.2,157.9,237.4,153.8z"/>
<path class="st11" d="M227.5,148.4c1.2,6.5,3.3,12.4,4.3,12.2c1.8-0.1,3.5-2.7,5.7-6.8"/>
<path class="st10" d="M393.8,117.6c-10.8,0.1-23.3,3.4-32.4,0.3c2-20.9,11.8-31.9,20.5-31.7C391.1,87.9,396.2,102.7,393.8,117.6z"/>
<path class="st10" d="M339.2,90.9l-4.8,9.5l-4.5,12.1l20.9,0.9C355.4,86.9,348.8,80.5,339.2,90.9z"/>
<path class="st12" d="M350.8,113.4l-16.3-0.9c2.2-11.9,6.8-20.4,12.2-20C351.5,93.1,352.6,102.2,350.8,113.4z"/>
<path class="st12" d="M393.8,117.6l-25.9,1.1c1.6-16.6,9.4-25.4,16.3-25.2C391.5,94.9,395.7,105.7,393.8,117.6z"/>
<path class="st10" d="M393.2,142.8c-4.6,2.9-9.2,5.5-13.6,7.6c3.2,5.3,10.6,11.2,11.3,10.7C392.4,160.3,393.8,148.5,393.2,142.8z"/>
<path class="st13" d="M379.6,150.4c3.2,5.3,10.6,11.2,11.3,10.7c1.5-0.7,2.9-12.5,2.3-18.3"/>
<path class="st0" d="M249.8,124.2c29.5-8.8,63.1-12.4,101-10.8l-33.3,2.8l2.1,2.2c-6.1-3.2-16.5-3.2-31.2,0.2l4.6,3.5
	c-5.3-3.7-15.8-2-36.1,4.3l7.2,1.5c5.8,3,6.8,9.2,5.6,16.8c-3.7-15.7-9.1-12.3-18.3-15.9c-6.3-2.2-12.4-9.7-18.9-6.7
	C236.6,116.4,242.9,119.1,249.8,124.2z M347.7,308.1c-1.3-14.5,4.8-21.6,10.6-21.7C350.7,282.5,344.3,290.6,347.7,308.1z
	 M315.7,356.6c-7.9-0.3-15.1,2.1-22.6,6.9C299,356.2,306.9,353.5,315.7,356.6z M413.7,125c7.1,6.9,11.1,15.4,13.2,26.3
	C428.5,139.6,424.1,130.2,413.7,125z M369.5,228.6c-8.2,7.6-19.4,12.4-30.5,13.9C350.8,243.9,363.4,239,369.5,228.6z M363.4,84.3
	c-3-5.4-9.1-8.6-16.5-1.8C354,73.8,361.2,75.6,363.4,84.3z M394.1,87.6c-7.1-5.7-15-9.5-24-0.7C378.1,74.3,387.6,78.5,394.1,87.6z"
	/>
<path class="st10" d="M337,156.4l-9.7,0.1c1.6,5.1,2.8,7.5,3.7,7.2C332.9,163.7,334.7,160.7,337,156.4z"/>
<path class="st13" d="M327.3,156.5c1.6,5.1,2.8,7.5,3.7,7.2c1.8-0.1,3.6-3,5.9-7.4"/>
<path class="st4" d="M350.8,113.4c4.6-26.4-2-32.9-11.6-22.5 M329.8,112.5c12.2-37.9,32.1-47.2,35.9-26.2
	c17.2-19.7,34.6-12.2,44.3,33.9c24.9,10.7,22.8,39.8,10.2,49.8c-38.5,30.1-96.2-8.8-132.3-14.1 M311,113.2c3.1,0.5,7.3,2.9,8.6,5.2
	 M282.9,116.8c3.6,0.6,8.5,3.1,10,5.4 M249.8,124.2c36.3-9.9,69.9-13.5,101-10.8 M269.5,144.7c2.7-22.7-11.2-15.2-19.8-20.6
	c-6.3-3.8-12.3-8.1-17.4-2c-3.3,2.9-4.4,9.4-7.4,11.8c-11,13.2,7.9,15,12.5,19.9 M399.5,136.1c-24.9,34.3-100.8,12-140.3,23
	c-3.9,1.8-10.6,5.7-16,2.2c-6.7-3.1-5.6-12.5-10.3-16.1 M392.5,134.8c7-3.3,11.1,2.4,9.3,6.8 M409.9,120.2
	c-23.5-6.9-36.2,2.9-50.5-3 M361.4,117.9c2-20.9,11.8-31.9,20.5-31.7c9.2,1.8,14.3,16.5,12,31.4"/>
<ellipse transform="matrix(0.1304 -0.9915 0.9915 0.1304 221.7178 474.1473)" class="st14" cx="381.2" cy="110.7" rx="6.7" ry="6.7"/>
<ellipse transform="matrix(0.1302 -0.9915 0.9915 0.1302 223.0454 467.5325)" class="st10" cx="378" cy="106.6" rx="3" ry="3"/>
<ellipse transform="matrix(0.1302 -0.9915 0.9915 0.1302 194.5092 435.4839)" class="st14" cx="345.5" cy="106.9" rx="5.6" ry="5.6"/>
<ellipse transform="matrix(0.1301 -0.9915 0.9915 0.1301 195.7215 429.7812)" class="st10" cx="342.8" cy="103.4" rx="2.6" ry="2.6"/>
<path class="st1" d="M255.4,134.4c0.2,3.2,4,13.4-2.4,11.5C247.7,143.6,252.4,136.8,255.4,134.4z M238.5,125.6
	c-0.5,2.9,0.5,12.6-4.5,9.6C229.9,132,235.4,127.1,238.5,125.6z"/>
<path class="st4" d="M255.4,134.4c0.2,3.2,4,13.4-2.4,11.5C247.7,143.6,252.4,136.8,255.4,134.4z M238.5,125.6
	c-0.5,2.9,0.5,12.6-4.5,9.6C229.9,132,235.4,127.1,238.5,125.6z"/>
</svg>
