<?xml version="1.0" encoding="utf-8"?>
<!-- Generator: Adobe Illustrator 21.1.0, SVG Export Plug-In . SVG Version: 6.00 Build 0)  -->
<svg version="1.1" id="Layer_1" xmlns="http://www.w3.org/2000/svg" xmlns:xlink="http://www.w3.org/1999/xlink" x="0px" y="0px"
	 viewBox="0 0 481 498" style="enable-background:new 0 0 481 498;" xml:space="preserve">
<style type="text/css">
	.st0{fill-rule:evenodd;clip-rule:evenodd;fill:#FFF3DF;}
	.st1{fill-rule:evenodd;clip-rule:evenodd;fill:#D7EEFC;}
	.st2{fill-rule:evenodd;clip-rule:evenodd;fill:#C97B41;}
	.st3{fill:none;stroke:#A55A44;stroke-width:1.7001;stroke-linecap:round;stroke-linejoin:round;stroke-miterlimit:22.9256;}
	.st4{fill-rule:evenodd;clip-rule:evenodd;fill:#EBC59F;}
	.st5{fill:none;stroke:#D29169;stroke-width:1.7001;stroke-linecap:round;stroke-linejoin:round;stroke-miterlimit:22.9256;}
	.st6{fill:none;stroke:#FFFFFF;stroke-width:1.7001;stroke-linecap:round;stroke-linejoin:round;stroke-miterlimit:22.9256;}
</style>
<path class="st0" d="M414.5,471.3L68.9,365.2C21.7,346.3-1.8,280.4,0.1,244c3.1-57.8,49.9-46.7,34.5-89.1
	C9.5,85.7,68.8,30.1,132,51.5c46.1,15.6,60.5,29.9,91.6,12.6C344.2-3.2,492.7,195.9,480.3,361.7
	C477.1,404.8,450.9,454.9,414.5,471.3z"/>
<path class="st1" d="M74.4,406.4L423.8,386c40.3-2.3,55.5,84.2-74.5,108c-95.6,17.6-157.2-30.1-157.2-30.1
	C119.9,482.6,23.3,433.8,74.4,406.4z"/>
<path class="st2" d="M30,366.4l213,18.8l-0.3,48C123.5,433.5,37.5,403.9,30,366.4z"/>
<path class="st2" d="M456,366.4l-227.4,18.8l14.7,48C362.4,433.5,448.5,403.9,456,366.4z"/>
<path class="st3" d="M456,366.4l-206.1,18.2L30,366.4c7.5,37.5,93.6,67.1,212.7,66.9l0.6-1.9v1.9C362.4,433.5,448.5,403.9,456,366.4
	z"/>
<path class="st4" d="M243,385.2c117.4,0,213-8.5,213-18.8c0-10.4-95.7-18.8-213-18.8s-213,8.4-213,18.8
	C30,376.8,125.6,385.2,243,385.2z"/>
<line class="st5" x1="134.7" y1="382.6" x2="150.7" y2="349.5"/>
<line class="st5" x1="173.7" y1="384.2" x2="186.7" y2="348.3"/>
<line class="st5" x1="254.8" y1="385.2" x2="256.8" y2="347.7"/>
<line class="st5" x1="297.5" y1="384.6" x2="293.2" y2="348.1"/>
<line class="st5" x1="214.1" y1="385" x2="221.9" y2="347.7"/>
<line class="st5" x1="339.4" y1="383.2" x2="332.1" y2="349.3"/>
<line class="st5" x1="382.3" y1="380.6" x2="370.9" y2="351.2"/>
<line class="st5" x1="95.6" y1="380" x2="114.7" y2="351.4"/>
<line class="st5" x1="423.4" y1="376.4" x2="408.7" y2="354.6"/>
<line class="st5" x1="57.7" y1="375.7" x2="79.5" y2="354.4"/>
<path class="st3" d="M243,385.2c117.4,0,213-8.5,213-18.8c0-10.4-95.7-18.8-213-18.8s-213,8.4-213,18.8
	C30,376.8,125.6,385.2,243,385.2z"/>
<path class="st1" d="M406.1,423.5c-41.1,70.7-303,31.1-311.2,3.6c20.1,1,32.8-5.3,38.3-18.8c6.9,19.1,32,16.8,40.7,2.4
	c8.3,15.9,22.7,15.2,35.3,15.2c18,0,32.8-8.1,44.4-24.3c11.6,24.5,47.4,25.5,63.8,6.7c15.8,19.7,40.7,20.7,62,3
	C387.5,419.5,396.4,423.5,406.1,423.5z"/>
<path class="st6" d="M95,427.2c20.1,1,32.8-5.3,38.3-18.8c6.9,19.1,32,16.8,40.7,2.4c0.8,8.3,18.8,17.7,35.3,15.2"/>
<path class="st6" d="M209.2,426c18,0,32.8-8.1,44.4-24.3c11.6,24.5,47.4,25.5,63.8,6.7c15.8,19.7,40.7,20.7,62,3
	c8.1,8.1,17,12.2,26.8,12.2"/>
<path class="st6" d="M294.4,473.6c13.4,2.4,37.3-7.9,41.2-28.5c1.1,19.8,18,23.6,27,14.7c1.9,5.7,5.7,7.8,11.5,6.5"/>
</svg>
