<?xml version="1.0" encoding="utf-8"?>
<!-- Generator: Adobe Illustrator 21.1.0, SVG Export Plug-In . SVG Version: 6.00 Build 0)  -->
<svg version="1.1" id="Layer_1" xmlns="http://www.w3.org/2000/svg" xmlns:xlink="http://www.w3.org/1999/xlink" x="0px" y="0px"
	 viewBox="0 0 481 498" style="enable-background:new 0 0 481 498;" xml:space="preserve">
<style type="text/css">
	.st0{fill-rule:evenodd;clip-rule:evenodd;fill:#FFF3DF;}
	.st1{fill-rule:evenodd;clip-rule:evenodd;fill:#D7EEFC;}
	.st2{fill-rule:evenodd;clip-rule:evenodd;fill:#A35939;}
	.st3{fill-rule:evenodd;clip-rule:evenodd;fill:#A8A2C2;}
	.st4{fill-rule:evenodd;clip-rule:evenodd;fill:#8E86AF;}
	.st5{fill:none;stroke:#686181;stroke-width:1.7001;stroke-linecap:round;stroke-linejoin:round;stroke-miterlimit:22.9256;}
	.st6{fill-rule:evenodd;clip-rule:evenodd;fill:#BD6E39;}
	.st7{fill-rule:evenodd;clip-rule:evenodd;fill:#C97B41;}
	.st8{fill:none;stroke:#A55A44;stroke-width:1.7001;stroke-linecap:round;stroke-linejoin:round;stroke-miterlimit:22.9256;}
	.st9{fill-rule:evenodd;clip-rule:evenodd;fill:#EBC59F;}
	.st10{fill:none;stroke:#D29169;stroke-width:1.7001;stroke-linecap:round;stroke-linejoin:round;stroke-miterlimit:22.9256;}
	.st11{fill-rule:evenodd;clip-rule:evenodd;fill:#D88F55;}
	.st12{fill-rule:evenodd;clip-rule:evenodd;fill:#E9996B;}
	.st13{fill:none;stroke:#A62522;stroke-width:1.7001;stroke-linecap:round;stroke-linejoin:round;stroke-miterlimit:22.9256;}
	.st14{fill-rule:evenodd;clip-rule:evenodd;fill:#FFFFFF;}
	.st15{fill-rule:evenodd;clip-rule:evenodd;fill:#EDB581;}
	.st16{fill-rule:evenodd;clip-rule:evenodd;fill:#D3ECFB;}
	.st17{fill:none;stroke:#822E2D;stroke-width:1.7001;stroke-linecap:round;stroke-linejoin:round;stroke-miterlimit:22.9256;}
	.st18{fill-rule:evenodd;clip-rule:evenodd;fill:#1A1A18;}
	.st19{fill-rule:evenodd;clip-rule:evenodd;fill:#F5A87D;}
	.st20{fill-rule:evenodd;clip-rule:evenodd;fill:#D6B36A;}
	.st21{fill-rule:evenodd;clip-rule:evenodd;fill:#C49246;}
	.st22{fill:none;stroke:#9C7560;stroke-width:1.7001;stroke-linecap:round;stroke-linejoin:round;stroke-miterlimit:22.9256;}
	.st23{fill-rule:evenodd;clip-rule:evenodd;fill:#FBDED1;}
	.st24{fill-rule:evenodd;clip-rule:evenodd;fill:#F9CEBB;}
	.st25{fill:none;stroke:#E29769;stroke-width:1.7001;stroke-linecap:round;stroke-linejoin:round;stroke-miterlimit:22.9256;}
	.st26{fill:none;stroke:#A96833;stroke-width:1.7001;stroke-linecap:round;stroke-linejoin:round;stroke-miterlimit:22.9256;}
	.st27{fill:none;stroke:#6E6E6E;stroke-width:1.7001;stroke-linecap:round;stroke-linejoin:round;stroke-miterlimit:22.9256;}
	.st28{fill-rule:evenodd;clip-rule:evenodd;fill:#CAD44E;}
	.st29{fill:none;stroke:#575656;stroke-width:1.7001;stroke-linecap:round;stroke-linejoin:round;stroke-miterlimit:22.9256;}
	.st30{fill:none;stroke:#E30045;stroke-width:8.5004;stroke-linecap:round;stroke-linejoin:round;stroke-miterlimit:22.9256;}
	.st31{fill:none;stroke:#FFFFFF;stroke-width:1.7001;stroke-linecap:round;stroke-linejoin:round;stroke-miterlimit:22.9256;}
	.st32{fill-rule:evenodd;clip-rule:evenodd;fill:#ED861A;}
	.st33{fill-rule:evenodd;clip-rule:evenodd;fill:#FBD2B6;}
	.st34{fill-rule:evenodd;clip-rule:evenodd;fill:#F6A840;}
	.st35{fill-rule:evenodd;clip-rule:evenodd;fill:#C2BED6;}
	.st36{fill-rule:evenodd;clip-rule:evenodd;fill:#FBD4A7;}
	.st37{fill-rule:evenodd;clip-rule:evenodd;fill:#A62522;}
</style>
<path class="st0" d="M414.5,471.3L68.9,365.2C21.7,346.3-1.8,280.4,0.1,244c3.1-57.8,49.9-46.7,34.5-89.1
	C9.5,85.7,68.8,30.1,132,51.5c46.1,15.6,60.5,29.9,91.6,12.6C344.2-3.2,492.7,195.9,480.3,361.7
	C477.1,404.8,450.9,454.9,414.5,471.3z"/>
<path class="st1" d="M74.4,406.4L423.8,386c40.3-2.3,55.5,84.2-74.5,108c-95.6,17.6-157.2-30.1-157.2-30.1
	C119.9,482.6,23.3,433.8,74.4,406.4z"/>
<path class="st2" d="M200.4,292l-17.6,14.5l-8,12.4c12.8,9,39.1,16.9,16.5-6.5c17.2,9,18.7,5.9,4.6-9.5
	C207,313.2,208.5,309.5,200.4,292z"/>
<path class="st2" d="M182.8,306.5l-3.8-59l12.5-1.7c12.6,4.9,30.6,2.2,30.7,21.5C219.7,283,200.5,288.8,182.8,306.5z"/>
<path class="st3" d="M55.1,136c-2.5-16.2-5.4-32.8-8.7-36.3c-1.7,2.8-1.2,16.7,0,33.8c-4.3-7.3-15.2-12.7-16.8-19
	c-8.3-40.3-12-70.1-7.5-81.1c6-5.6,36.3-7.5,37.7-4.5c9.2,34.9,10.4,62.1,7.4,85.3C65.4,122,55.1,126.8,55.1,136z"/>
<path class="st4" d="M45.4,117l1.8,20.1c-2.4-8-10.1-12.1-15.2-18.2c-4.1,1-16.6-68.7-9.9-85.4c1.2-2.9,17.6-6.5,18.5-5.9
	C13.1,33.5,35.6,110.3,45.4,117z"/>
<path class="st5" d="M47.2,137.4c-0.5-8.2-14.7-14.2-17.7-22.9C24,100.5,17,39.8,22.1,33.5c3.6-4.8,34.1-9.5,37.7-4.5
	c11.9,42.6,9.1,77.5,7.4,85.3c-1.1,6.5-13.1,14-12.2,21.9"/>
<path class="st6" d="M111.1,341.8l2.4-5.9l-4.8-0.9l-4.6-2.5l-4.5,5.8c-37.9-13.6-42.4-49.9-63.6-74.8c6.9-5.1,13.7-6.2,20.4-4.5
	c-8.7-8.2-13.4-17.9-14.1-29.1c-3-7.3-4.6-13.7-3-18c-5.3-12.6,7.9-17,25.6-9.4c34.6,11.1,55.8,44,76.1,48.6
	c-3.4-33.6-38.8-32.3-47-56c7.1,5.8,18.8,3.3,22.1-0.2c10.4,9.9,18.8,12.1,24.8,5.2c13.5,13.4,31.1,18.9,45.9,35.7
	c10,10,6.9,19.9,0.5,19.6l1.3,6.5C200.3,311.1,152.6,350.3,111.1,341.8z"/>
<path class="st2" d="M111.1,341.8l2.4-5.9l-4.8-0.9l-4.6-2.5l-2.3,2.9c-37.9-13.6-40.6-45.2-65.8-72c6.9-5.1,20.4-4.5,28.9,9.9
	l-1.1-8.4l9.7,5.2l7.4,2.6l0.1-4.6l-6.8-12.6l6.3,1.2c5,14.5,9,27.1,26.8,34.7c15.2,6.9,26.4-3.3,35.6-14.5
	c5.6,9.8,19.3,13,27.1,8.5c5,4.2,8.1,3.2,9.5-3l2.2,1.9l2.6-1.1C185.8,328.9,142.3,346.7,111.1,341.8z"/>
<path class="st2" d="M140.8,251.1c-3.4-33.6-38.8-32.3-47-56c7.1,5.8,12.1,9.4,15.4,5.9c1.8,13.2,46.7,16.1,39.8,51.4L140.8,251.1z"
	/>
<path class="st2" d="M39.2,211.9c-4-9.9,5.5-16.4,16.3-11.8l0.9,7l3.4,2.4c-8.7-3.4-11.2,9.2,3.1,18.6c-10.3-3.7-8,9.3,0.1,17.6
	c-4.6,0.8-8.1,10-3,16.6c-9.9-7.2-16.9-17-17.9-32.5C38.7,222.5,37.7,216.5,39.2,211.9z"/>
<path class="st7" d="M30,366.4l213,18.8l-0.3,48C123.5,433.5,37.5,403.9,30,366.4z"/>
<path class="st7" d="M456,366.4l-227.4,18.8l14.7,48C362.4,433.5,448.5,403.9,456,366.4z"/>
<path class="st8" d="M456,366.4l-206.1,18.2L30,366.4c7.5,37.5,93.6,67.1,212.7,66.9l0.6-1.9v1.9C362.4,433.5,448.5,403.9,456,366.4
	z"/>
<path class="st9" d="M243,385.2c117.4,0,213-8.5,213-18.8c0-10.4-95.7-18.8-213-18.8s-213,8.4-213,18.8
	C30,376.8,125.6,385.2,243,385.2z"/>
<line class="st10" x1="134.7" y1="382.6" x2="150.7" y2="349.5"/>
<line class="st10" x1="173.7" y1="384.2" x2="186.7" y2="348.3"/>
<line class="st10" x1="254.8" y1="385.2" x2="256.8" y2="347.7"/>
<line class="st10" x1="297.5" y1="384.6" x2="293.2" y2="348.1"/>
<line class="st10" x1="214.1" y1="385" x2="221.9" y2="347.7"/>
<line class="st10" x1="339.4" y1="383.2" x2="332.1" y2="349.3"/>
<line class="st10" x1="382.3" y1="380.6" x2="370.9" y2="351.2"/>
<line class="st10" x1="95.6" y1="380" x2="114.7" y2="351.4"/>
<line class="st10" x1="423.4" y1="376.4" x2="408.7" y2="354.6"/>
<line class="st10" x1="57.7" y1="375.7" x2="79.5" y2="354.4"/>
<path class="st8" d="M243,385.2c117.4,0,213-8.5,213-18.8c0-10.4-95.7-18.8-213-18.8s-213,8.4-213,18.8
	C30,376.8,125.6,385.2,243,385.2z"/>
<path class="st11" d="M437.9,361l-16.1-6.3C434.1,345.5,435.9,346.5,437.9,361z"/>
<path class="st12" d="M153.7,335l-19.2,6.8c0.7,11.1,9.5,17.3,15.9,18.6c5.5,1.2,8.8-1,7-3.6c-1.2-1.9-1-4.3,2.3-3.8
	c2.9,0.6,5.4,0.9,6.3-1.2c0.7-2.2-0.9-3.1-3.1-3.9c-3.1-1-3.4-4.7,1.5-4.7c4.7,0.1,4.8-5.8-0.4-6.1C159.8,337,156.5,336.5,153.7,335
	z"/>
<path class="st11" d="M414.4,349.7c-5.5-2.4-9.9-5.7-13.2-9.9C414.5,334.2,415.5,334.7,414.4,349.7z"/>
<path class="st11" d="M453.1,377.1l-5.8-11.7C459.7,366.2,458.8,369.8,453.1,377.1z"/>
<path class="st11" d="M396.1,331.1l-5.2-16.7C405.8,317.9,405.7,319.6,396.1,331.1z"/>
<path class="st11" d="M389.2,303.8l-1.2-19C403.1,292.5,400.4,294.2,389.2,303.8z"/>
<path class="st13" d="M134.5,341.8c0.7,11.1,9.5,17.3,15.9,18.6c5.5,1.2,8.8-1,7-3.6c-1.2-1.9-1-4.3,2.3-3.8
	c2.9,0.6,5.4,0.9,6.3-1.2c0.7-2.2-0.9-3.1-3.1-3.9c-3.1-1-3.4-4.7,1.5-4.7c4.7,0.1,4.8-5.8-0.4-6.1c-4.2-0.2-7.5-0.7-10.3-2.2"/>
<path class="st11" d="M388,270.1l0.9-20C404.1,257.8,404.6,262.9,388,270.1z"/>
<path class="st2" d="M260.6,233.7c17,2.9,31.8,2.5,44.2-1.3l7.6-19.9c-20.8,17-46.4-0.2-58.9,22.3L260.6,233.7z"/>
<path class="st11" d="M390.1,241.5l1.6-23.2C408.4,225.8,408.4,233.3,390.1,241.5z"/>
<path class="st6" d="M85.3,185.8c4.3-14.2,13.6-16,26.3-9.4c3.7-1.4,7.6,1.5,11.1-4.3c3.3-6,12.5-14.8,18.7-7.2l7.3-5.5
	c-2.7-20.5-24.8-37.2-50-25.3c0.7-5.5,0.5-7.9-0.6-7.3c-2.7,2.4-3.7,5.5-4,9l-2.4-4.2c-1.8,2.2-2.4,5.3-1.8,9.3
	C78.8,151.3,76.9,168.6,85.3,185.8z"/>
<path class="st2" d="M85.3,185.8c1.5-7.7,5.8-10.7,9.2-12.4c-5.7-10.5-2.4-28.8,3-33.4C80,147.8,75.1,163.1,85.3,185.8z"/>
<path class="st14" d="M122.6,172c-3.5,5.8-7.4,2.9-11.1,4.3c-3.7-2.5-7.6-3.8-11.8-3.9c-2.1-15.3,3-26.6,7.4-26.9
	C112.7,144.7,118.7,156.4,122.6,172z"/>
<path class="st6" d="M247.5,365.9l4.8-0.5c11.1,3,23.7,3.1,36.6,2.5l15.8-13.4l-12-72.6c-20.3,11.7-14.9,38-2.3,68.4
	c-28-2.3-43.7,3.3-47.4,16.8L247.5,365.9z"/>
<path class="st2" d="M253.9,365.9l5.6,1c12.2,1.2,22.8,1.6,35.7,1l15.8-13.4l-12-72.6c-20.3,11.7-16.2,40.3-0.2,74.8
	c-28-2.3-27.5,3.1-35,5.6L253.9,365.9z"/>
<path class="st6" d="M365.3,251.8c-1.9,11.6-4.8,22.5-8.6,32.7c-12.6-3.7-18.4,19.9,1.6,66.8l-53.8,3.2c-9.4,2.7-15.2,9.1-17.4,19.1
	l3.2-1.3l10.2-0.6c34.8,4.2,66.7,4.8,92.3-2.2c20.8,6.7,65.1-13.6,49.1,31.6c36.3-47.7-24.5-36.9-40.6-61.3
	c-8.4-11.6-13-29.4-13.2-54.9c-0.9-36.9,5.9-78,4.4-113l-18.9,2.2c3.6,3.8,0.5,35-3.6,50c-17.7,26-59.7,10.1-62.5,30.5l1.4-1
	C323.5,255.4,342.8,254.5,365.3,251.8z"/>
<path class="st2" d="M365.3,251.8c-1.9,11.6-4.8,22.5-8.6,32.7l9,4.1l7,6.8c-12.9,0.6-10.5,31.7-1.7,55.9
	c6.2,12.6-17.9,19.5-56.5,16.4l-14,4.1c34.8,4.2,68.3,4.8,93.9-2.2c20,8.7,59.9-9.3,47.5,31.6c25.3-48.9-14.9-19.8-43.2-56.7
	c-8.4-11.6-10.5-34-10.7-59.5c-0.9-36.9,5.9-78,4.4-113l-18.6,2.2c9.3-1.1,6.7,35,2.5,50.1c-17.7,26-35.1,28.5-62.5,30.5l1.4-1
	C329.8,255.4,342.8,254.5,365.3,251.8z"/>
<path class="st15" d="M335.8,169.5c15.7,3.4,28.3,4.9,37.8,4.5c2.9,9.9,1.4,27-3.6,50c-18.4,25.2-57.6,9.9-62.5,30.5l1.4-1
	c15.8,2,35,1.1,56.5-1.8c-2.7,13-5.3,23.7-8.6,32.7c-18-1.5-14.4,27.7,1.6,66.8c-9.3,15.1-33.3-0.2-53.6,3.4
	c-15.1-14.2-21.3-51.7-11.6-69.5c-1.3-13.1,3.1-30.7,13-52.6c-1-6.2,4.7-18.3,13.3-28.8C319.3,194,325.4,182.4,335.8,169.5z"/>
<path class="st16" d="M109.3,152.4c-6.2,1.3-7,12.9-5.7,20.5l7.3,3.1c5.5,0.8,9.9,0.1,11.9-4C121.9,169.2,118.2,150.7,109.3,152.4z"
	/>
<path class="st11" d="M93.9,195.1c5.8,9.8,18,8.1,22.1-0.2l-4.3-18.5c-19.6-11.4-27.5,5-26.5,14.2c2.3-3.4,4.3-5.7,6-6.9
	c-5,5.9-3.1,12.5,0.8,17.9C92.5,198.2,93.1,196.7,93.9,195.1z"/>
<path class="st17" d="M148.6,159.3c-3.6-22.5-24.8-37.2-50-25.3c0.7-5.5,0.5-7.9-0.6-7.3c-2.7,2.4-3.7,5.5-4,9l-2.4-4.2
	c-1.8,2.2-2.4,5.3-1.8,9.3c-11.1,10.4-13,27.8-4.6,45"/>
<path class="st17" d="M111.6,176.4c-19.6-11.4-27.5,5-26.5,14.2c2.3-3.4,4.3-5.7,6-6.9c-5,5.9-3.1,12.5,0.8,17.9
	c0.5-3.3,1.2-4.9,1.9-6.5c9.3,23.5,43.4,24.1,47,56"/>
<path class="st17" d="M148.9,252.3c-24.1,1.3-47.1-37.6-84.2-49.8"/>
<path class="st17" d="M55.5,200.1c-7.7-2.4-14.8-1.1-17.1,3.4"/>
<path class="st14" d="M145.6,161.1l-4.3,3.8c-1.9-2.3-5-2.8-9.5-1.4c-3.2-12.3-1.4-21.5,1-22.1C138.1,141.1,142.4,149.6,145.6,161.1
	z"/>
<path class="st16" d="M136,146.8c-3.6,1-3.2,9.9-1.7,16l7,2c0.7-0.8,2.5-2.5,4.3-3.8C145,158.7,142.6,145.3,136,146.8z"/>
<path class="st11" d="M155.2,171.1c-4.7,0.1-9.3-2.2-13.9-6.3C149.6,155.1,157.2,160.9,155.2,171.1z"/>
<path class="st17" d="M141.3,164.8c8.2-9.7,15.9-3.9,13.9,6.3"/>
<path class="st17" d="M99.8,172.5c-2.1-15.3,3-26.6,7.4-26.9c5.4-0.9,11.5,10.9,15.5,26.4"/>
<path class="st17" d="M131.8,163.5c-3.3-10.7-2.3-20.9,1-22.1c5.3-0.3,11.7,8.6,12.2,20"/>
<ellipse class="st18" cx="114" cy="162" rx="4.2" ry="4.2"/>
<ellipse class="st14" cx="111.7" cy="164.3" rx="1.9" ry="1.9"/>
<circle class="st18" cx="138.9" cy="155.2" r="3.7"/>
<circle class="st14" cx="136.8" cy="157.3" r="1.7"/>
<path class="st17" d="M140.7,200c14.9,16.5,39.3,20.5,49.9,42.3c2.3,6.9,1.2,13.4-3.5,13c3.8,6.3-0.4,16.6-8.4,11.7"/>
<path class="st17" d="M70.6,318.8C56.3,302,51.4,280.4,36,263.5c7.1-5,12.6-6,20.4-4.5 M99.5,338.3C92,335.5,86,332,80.9,328.2
	 M188.5,261.9c11.8,49.2-35.9,88.5-77.5,79.9"/>
<path class="st17" d="M75.2,280.5c15.6,17.5,30.3,23.4,44.4,21.4"/>
<path class="st17" d="M184.2,283.3c-1.1,1.4-3.2,1.9-4.9-0.8c-1.6,5.4-4.9,7.8-9.5,3"/>
<path class="st17" d="M37.6,262.4c5.9-1.6,11.4-0.6,16.5,3"/>
<path class="st19" d="M109.5,350.6c0-5.2,1.4-10.2,3.9-14.7c-2.7,0-5.7-0.9-9.4-3.3c-12.2,14.4-14.7,26.6-9,37
	c7.7,11.1,22.3,10.5,23.4,5c1.5-5,7.7-0.1,12.5-5.4c2.6-2.3-2.6-5,0.6-7.7c4.8-2.3,3.2-7-1.8-7.4
	C123.2,353.5,115.4,357.1,109.5,350.6z"/>
<path class="st17" d="M191.5,245.8c12.6,4.9,30.6,2.2,30.7,21.5c-0.3,14-21.6,21.5-39.3,39.2"/>
<path class="st17" d="M174.8,318.9c12.8,9,39.1,16.9,16.5-6.5c17.2,9,18.7,5.9,4.6-9.5c11.1,10.3,12.6,6.6,4.5-11"/>
<path class="st13" d="M104,332.6c-14.5,17.2-14,29.4-9,37"/>
<path class="st20" d="M56.4,207.2l9.9,6.8l-10-77.9c-3.5-21.8-7.1-38.8-9.9-39.1c-2.3,0.7-0.9,22,1.1,40.5L56.4,207.2z"/>
<path class="st20" d="M73.5,270.2l-9.7-5.2l13,101.8c0.6,3.9,9.6,2.8,9-0.6L73.5,270.2z"/>
<path class="st21" d="M73.5,270.2l-9.7-5.2l13,101.8c0.6,3.9,4.9,0.6,4.3-2.7C78.6,332.8,70.3,293.6,73.5,270.2z"/>
<path class="st13" d="M113.4,335.9c-5.9,12.6-4.6,20.4,0,26.1"/>
<path class="st13" d="M95,369.4c7.7,11.1,22.3,10.5,23.4,5c1.5-5,7.7-0.1,12.5-5.4c2.6-2.3-2.6-5,0.6-7.7c4.8-2.3,3.2-7-1.8-7.4
	c-6.5-0.5-14.4,3-20.3-3.4"/>
<path class="st22" d="M63.8,265l13,101.8c0.6,3.9,9.6,2.8,9-0.6l-12.3-96 M66.3,213.9l-10-77.9c-3.5-21.8-7.1-38.8-9.9-39.1
	c-2.3,0.7-0.9,22,1.1,40.5l8.9,69.7"/>
<path class="st11" d="M335.8,169.5c15.7,3.4,28.3,4.9,37.8,4.5c2.9,9.9,1.4,27-3.6,50c-18.4,25.2-57.6,9.9-62.5,30.5l1.4-1
	c15.8,2,35,1.1,56.5-1.8c-2.7,13-5.3,23.7-8.6,32.7c-18-1.5-14.4,27.7,1.6,66.8c-9.3,15.1-33.3-0.2-53.6,3.4
	c-14.2-13.2-18.7-57.7-6-70.5c-1.3-13.1,4-43.9,14.4-53.9c-6.5-3.8,3.5-22.9,12.7-28.6C322.5,198.7,328.1,180.2,335.8,169.5z"/>
<path class="st15" d="M322.3,199.8c12.2-5.6,34.9-1.7,39.6,6c-11.7-6.2-25.8-6.9-42.5-2.1L322.3,199.8z"/>
<path class="st15" d="M309.1,228c7.7-3.7,33.3-3.9,34.9,2c-18.9-1.9-28.5-1.3-38.1,2.4L309.1,228z"/>
<path class="st15" d="M298.5,281.1c8.6-4.4,35.5-2.4,40.9,4.5c-16-3.8-34.6-4.5-44.2-0.1L298.5,281.1z"/>
<path class="st15" d="M332.8,329.4c-13.5-4.9-27.7-4.2-35.5-2.5C295.5,318,332.3,322.2,332.8,329.4z"/>
<path class="st11" d="M315.7,356.6c-7.9-0.3-15.1,2.1-22.6,6.9C299,356.2,306.9,353.5,315.7,356.6z"/>
<path class="st11" d="M369.5,228.6c-8.2,7.6-19.4,12.4-30.5,13.9C350.8,243.9,363.4,239,369.5,228.6z"/>
<path class="st11" d="M347.7,308.1c-1.3-14.5,4.8-21.6,10.6-21.7C350.7,282.5,344.3,290.6,347.7,308.1z"/>
<path class="st17" d="M358.2,351.2c-7.7,14.1-34,0.1-53.6,3.4c-9.1,2.1-15,8.4-17.5,18.9c4.8-1.6,10.1-4.7,15.8-9.1"/>
<path class="st17" d="M290.3,372.2c8.5,0.3,16.6-1.3,24.2-4.7"/>
<path class="st17" d="M392.7,369.4c-16.4,4.2-39.8,7.9-92.3,2.2"/>
<path class="st17" d="M247.5,365.9c6.2-0.3,12.8-1.9,20-5"/>
<path class="st17" d="M289,367.9c-15,0.4-30.3-0.8-36.7-2.5"/>
<path class="st17" d="M297.3,326.9c10.3-1.6,21.8-1.4,31.6,1.1"/>
<path class="st17" d="M401.2,339.8c13.3-5.5,14.3-5.1,13.2,9.9"/>
<path class="st17" d="M422.6,354.2c11.2-8.3,13.6-7.1,15.2,5.9"/>
<path class="st17" d="M335.8,169.5c-11.3,14.3-16.3,25.4-16.3,34.2c-5.5,6.1-15.6,24.4-13.3,28.8c-8.1,16.1-15.6,42.8-13,52.6
	c-9.7,12.3-3.2,58.1,11.6,69.5"/>
<path class="st17" d="M319.4,203.7c9-4.4,35.3-4.1,42.5,2.1"/>
<path class="st17" d="M306.1,232.5c7.5-3.6,20.1-4.4,37.9-2.5"/>
<path class="st17" d="M298.7,284.1c20.4-3.2,35.9-1,48.8,4.2"/>
<path class="st17" d="M314.1,211.1c-20.8,17-48.5,3.2-60.5,23.7c5.6-0.5,9.3-1.6,15.8-4"/>
<path class="st17" d="M258.5,234c14.7,1.9,35.8,3.1,46.3-1.6"/>
<path class="st17" d="M447.3,365.6c12.3,0.7,11.5,4.2,5.8,11.7"/>
<path class="st17" d="M365.3,251.8c-2,12-5.1,23.1-8.6,32.7"/>
<path class="st17" d="M372.6,295.3c-9.4-11.2-19.5-14.3-25.3-7c-7.4,12,3.2,48.3,12.6,66.7"/>
<path class="st17" d="M292.6,282c-20.3,11.7-14.9,38-2.3,68.4c-28-2.3-43.7,3.3-47.4,16.8c4.6-0.7,10.5-3.7,17.9-9.1"/>
<path class="st11" d="M392.2,207.7l0.3-20.4C405.8,194.8,406.8,199.5,392.2,207.7z"/>
<path class="st17" d="M392.3,171.8c2.7,55.8-16,130.1,8,167.2c16.7,25.1,76.4,13.7,41.4,61.9c14.8-46.1-43-14.9-60-40.8"/>
<path class="st17" d="M392.5,187.3c13.3,7.5,14.3,12.2-0.3,20.4"/>
<path class="st23" d="M271.8,18.8l8.7,203.5c4.8,16.4,16.5,34.1,45.3,32.1c-56.7,4.9-110,4.8-165.5-12
	C182.2,164.5,221.8,88.7,271.8,18.8z"/>
<path class="st24" d="M273.1,50.7l7.3,171.6c4.8,16.4,16.5,34.1,45.3,32.1C180,267,224.7,146.6,273.1,50.7z"/>
<path class="st17" d="M391.6,218.3c16.7,7.5,16.8,15-1.6,23.2"/>
<path class="st25" d="M307.9,252.8c-11.6-3.4-20.8-13.1-27.4-29"/>
<path class="st17" d="M389,250.1c15.1,7.6,15.7,12.8-0.9,20"/>
<path class="st17" d="M388,284.9c15.1,7.6,12.4,9.3,1.2,19"/>
<path class="st17" d="M390.9,314.5c14.9,3.4,14.9,5.1,5.2,16.7"/>
<path class="st20" d="M267.8,369.1c0,3.9,14.6,4,14.4,0L277.9,3.5c-0.1-3.3-6-3.5-5.9,0L267.8,369.1z"/>
<path class="st26" d="M267.8,369.1c0,3.9,14.6,4,14.4,0L277.9,3.5c-0.1-3.3-6-3.5-5.9,0L267.8,369.1z"/>
<path class="st6" d="M287.8,155.7c-11.3-0.4-20.8,0.7-28.6,3.3c-11.3,6.4-18.6,4.6-21.8-5.3c-4.2-6.6-23.8-4.7-12.5-19.9l3.7-5.9
	c3.5-8.5,9.6-11.8,21.1-3.9c21.7-6.3,47-10.8,80.1-11.7c12.2-37.9,32.1-47.2,35.9-26.2c17.2-19.7,34.6-12.2,44.3,33.9
	c25,13.2,22.8,39.8,10.2,49.8C381.6,200,324,161,287.8,155.7z"/>
<path class="st2" d="M400.7,118.2c0.8-25.3-11.3-52.3-35.1-31.9c17.2-19.7,34.6-12.2,44.3,33.9L400.7,118.2z M287.8,155.7
	c-11.3-0.4-20.8,0.7-28.6,3.3c-11.3,6.4-18.6,4.6-21.8-5.3c-4.2-6.6,10.8,12.7,22.1-2.6c32.2-4.4,72.5,5.1,113.1,1.4
	c10-1.7,19-7.6,27.2-17.8c16.5,6.4,22.6,24.3,14.1,39.3C373.9,194.1,338.1,166.1,287.8,155.7z"/>
<path class="st11" d="M249.8,124.2c29.5-8.8,63.1-12.4,101-10.8l-33.3,2.8l2.1,2.2c-6.1-3.2-16.5-3.2-31.2,0.2l4.6,3.5
	c-5.3-3.7-15.8-2-36.1,4.3l7.2,1.5c5.8,3,6.8,9.2,5.6,16.8c-3.7-15.7-9.1-12.3-18.3-15.9c-6.3-2.2-12.4-9.7-18.9-6.7
	C236.6,116.4,242.9,119.1,249.8,124.2z"/>
<path class="st14" d="M260.5,159.1c-4.3,1.2-9.1,3.2-12.8,3.6c1.8,5.4,3.2,7.9,4.3,7.7C254,170.2,257,165.7,260.5,159.1z"/>
<path class="st27" d="M247.6,162.6c1.8,5.4,3.2,7.9,4.3,7.7c2-0.1,5.1-4.7,8.5-11.3"/>
<path class="st14" d="M237.4,153.8l-10-5.3c1.2,6.5,3.3,12.4,4.3,12.2C233.6,160.5,235.2,157.9,237.4,153.8z"/>
<path class="st27" d="M227.5,148.4c1.2,6.5,3.3,12.4,4.3,12.2c1.8-0.1,3.5-2.7,5.7-6.8"/>
<path class="st11" d="M413.7,125c7.1,6.9,11.1,15.4,13.2,26.3C428.5,139.6,424.1,130.2,413.7,125z"/>
<path class="st14" d="M393.8,117.6c-10.8,0.1-23.3,3.4-32.4,0.3c2-20.9,11.8-31.9,20.5-31.7C391.1,87.9,396.2,102.7,393.8,117.6z"/>
<path class="st14" d="M339.2,90.9l-4.8,9.5l-4.5,12.1l20.9,0.9C355.4,86.9,348.8,80.5,339.2,90.9z"/>
<path class="st28" d="M350.8,113.4l-16.3-0.9c2.2-11.9,6.8-20.4,12.2-20C351.5,93.1,352.6,102.2,350.8,113.4z"/>
<path class="st28" d="M393.8,117.6l-25.9,1.1c1.6-16.6,9.4-25.4,16.3-25.2C391.5,94.9,395.7,105.7,393.8,117.6z"/>
<path class="st17" d="M249.8,124.2c36.3-9.9,69.9-13.5,101-10.8"/>
<path class="st17" d="M329.8,112.5c12.2-37.9,32.1-47.2,35.9-26.2c17.2-19.7,34.6-12.2,44.3,33.9c24.9,10.7,22.8,39.8,10.2,49.8
	c-38.5,30.1-96.2-8.8-132.3-14.1"/>
<path class="st17" d="M269.5,144.7c2.7-22.7-11.2-15.2-19.8-20.6c-6.3-3.8-12.3-8.1-17.4-2c-3.3,2.9-4.4,9.4-7.4,11.8
	c-11,13.2,7.9,15,12.5,19.9"/>
<path class="st2" d="M255.4,134.4c0.2,3.2,4,13.4-2.4,11.5C247.7,143.6,252.4,136.8,255.4,134.4z"/>
<path class="st17" d="M255.4,134.4c0.2,3.2,4,13.4-2.4,11.5C247.7,143.6,252.4,136.8,255.4,134.4z"/>
<path class="st2" d="M238.5,125.6c-0.5,2.9,0.5,12.6-4.5,9.6C229.9,132,235.4,127.1,238.5,125.6z"/>
<path class="st17" d="M238.5,125.6c-0.5,2.9,0.5,12.6-4.5,9.6C229.9,132,235.4,127.1,238.5,125.6z"/>
<path class="st14" d="M393.2,142.8c-4.6,2.9-9.2,5.5-13.6,7.6c3.2,5.3,10.6,11.2,11.3,10.7C392.4,160.3,393.8,148.5,393.2,142.8z"/>
<path class="st29" d="M379.6,150.4c3.2,5.3,10.6,11.2,11.3,10.7c1.5-0.7,2.9-12.5,2.3-18.3"/>
<path class="st14" d="M337,156.4l-9.7,0.1c1.6,5.1,2.8,7.5,3.7,7.2C332.9,163.7,334.7,160.7,337,156.4z"/>
<path class="st29" d="M327.3,156.5c1.6,5.1,2.8,7.5,3.7,7.2c1.8-0.1,3.6-3,5.9-7.4"/>
<path class="st17" d="M311,113.2c3.1,0.5,7.3,2.9,8.6,5.2"/>
<path class="st17" d="M282.9,116.8c3.6,0.6,8.5,3.1,10,5.4"/>
<path class="st17" d="M392.5,134.8c7-3.3,11.1,2.4,9.3,6.8"/>
<path class="st17" d="M409.9,120.2c-23.5-6.9-36.2,2.9-50.5-3"/>
<path class="st17" d="M361.4,117.9c2-20.9,11.8-31.9,20.5-31.7c9.2,1.8,14.3,16.5,12,31.4"/>
<path class="st17" d="M350.8,113.4c4.6-26.4-2-32.9-11.6-22.5"/>
<ellipse transform="matrix(0.1304 -0.9915 0.9915 0.1304 221.7178 474.1473)" class="st18" cx="381.2" cy="110.7" rx="6.7" ry="6.7"/>
<ellipse transform="matrix(0.1302 -0.9915 0.9915 0.1302 223.0443 467.5352)" class="st14" cx="378" cy="106.6" rx="3" ry="3"/>
<ellipse transform="matrix(0.1302 -0.9915 0.9915 0.1302 194.5092 435.4839)" class="st18" cx="345.5" cy="106.9" rx="5.6" ry="5.6"/>
<ellipse transform="matrix(0.1308 -0.9914 0.9914 0.1308 195.4739 429.6784)" class="st14" cx="342.8" cy="103.4" rx="2.6" ry="2.5"/>
<path class="st17" d="M399.5,136.1c-24.9,34.3-100.8,12-140.3,23c-3.9,1.8-10.6,5.7-16,2.2c-6.7-3.1-5.6-12.5-10.3-16.1"/>
<path class="st11" d="M394.1,87.6c-7.1-5.7-15-9.5-24-0.7C378.1,74.3,387.6,78.5,394.1,87.6z"/>
<path class="st11" d="M363.4,84.3c-3-5.4-9.1-8.6-16.5-1.8C354,73.8,361.2,75.6,363.4,84.3z"/>
<path class="st17" d="M373.5,174c3.6,3.8,0.5,35-3.6,50c-17.7,26-59.7,10.1-62.5,30.5c4.1-2.9,7.7-5.4,10.9-7.4"/>
<path class="st17" d="M308.9,253.6c20.1,2.2,41.6,1.1,64.5-3.2"/>
<path class="st25" d="M160.2,242.5c41.6,13.9,115.9,18.9,164.9,12.2c3.3-0.4,1.4-9.2-2.1-11.8c5.8,1.8,8.6,6,9.4,11.9 M160.2,242.5
	c13.8-62.3,62-158.7,111.6-223.6"/>
<path class="st1" d="M406.1,423.5c-41.1,70.7-303,31.1-311.2,3.6c20.1,1,32.8-5.3,38.3-18.8c6.9,19.1,32,16.8,40.7,2.4
	c8.3,15.9,22.7,15.2,35.3,15.2c18,0,32.8-8.1,44.4-24.3c11.6,24.5,47.4,25.5,63.8,6.7c15.8,19.7,40.7,20.7,62,3
	C387.5,419.5,396.4,423.5,406.1,423.5z"/>
<path class="st30" d="M160.2,242.5c41.6,13.9,115.9,18.9,164.9,12.2 M160.2,242.5c13.8-62.3,62-158.7,111.6-223.6 M279.7,160.6
	l2.5,208.4"/>
<path class="st31" d="M95,427.2c20.1,1,32.8-5.3,38.3-18.8c6.9,19.1,32,16.8,40.7,2.4c0.8,8.3,18.8,17.7,35.3,15.2"/>
<path class="st31" d="M209.2,426c18,0,32.8-8.1,44.4-24.3c11.6,24.5,47.4,25.5,63.8,6.7c15.8,19.7,40.7,20.7,62,3
	c8.1,8.1,17,12.2,26.8,12.2"/>
<path class="st31" d="M294.4,473.6c13.4,2.4,37.3-7.9,41.2-28.5c1.1,19.8,18,23.6,27,14.7c1.9,5.7,5.7,7.8,11.5,6.5"/>
<path class="st32" d="M146.8,189.5l-34.6-11l-5.4,5.7l2.9,3.7c3.7,5.8,8.1,10.1,15.6,14C134,206.8,142.9,202.2,146.8,189.5z"/>
<path class="st33" d="M98.4,369.1c-2.3-7.7-2-15.4,1-24.4C92.9,353,92.9,361.2,98.4,369.1z"/>
<path class="st34" d="M132.1,163.4c-8.1,1.7-8,13.2-18.5,12.6c-6,0.2-10.6,6.8-4.1,11.9c-0.9-1.8-0.8-3.2,1.3-3.8l1.8-0.8
	c9.4,5.6,19.8,9.1,33.1,6.5c20.6-7.3,20.6-19.4,15.7-19.2C147.1,174.7,142.6,160.7,132.1,163.4z"/>
<path class="st11" d="M103.6,134.6c7.5-2.1,15.2-2,24.1,0.1C119.2,129.8,111.3,130.1,103.6,134.6z"/>
<path class="st35" d="M25.8,36.2c9.4-3.3,19.5-4.5,31.7-4C45.2,28.7,34.8,30.3,25.8,36.2z"/>
<path class="st35" d="M62.1,59.3c1.8,16.8,2.9,36.2,1.1,56.9C68.8,111.2,67.5,75.7,62.1,59.3z"/>
<path class="st11" d="M99.4,227.5c10.4,6.6,26.5,25.3,44.7,27.8C127.4,257.9,105.8,236.8,99.4,227.5z"/>
<path class="st36" d="M127.7,186.7c8.2,1.6,25.8-2,30.8-9.3C154.2,188.1,137.7,190.4,127.7,186.7z"/>
<path class="st17" d="M100.1,328.7c5.9,7.1,12.5,8.2,19.2,6.5"/>
<path class="st13" d="M116,194.8c15.2,14.1,24.9,10.5,30.9-5.3"/>
<path class="st13" d="M109.7,187.9c-5.3-3.5-3.2-10.3,2-11.5c3.5-1,8.2,0.3,10.4-3.1c6.8-11.4,14.1-12.2,19.4-8.4
	c6.7,5.6,13.4,7.3,20.1,5.8c2.6-0.6,4.3,4.3,1.3,7.8c-9.4,12.1-26.8,18.1-49.7,5.2"/>
<path class="st13" d="M114.3,179.7c0.3,2.2-1.2,3.9-3.3,4.4"/>
<path class="st17" d="M127.1,142.5c0.4-2.4,1.8-5.1,5.4-4.2"/>
<path class="st17" d="M100.1,146.5c1.6-2.9,4.8-4.9,7.9-4.2"/>
<circle class="st37" cx="132.9" cy="170.4" r="2.8"/>
<path class="st17" d="M38.4,203.5c-5.3,17.6,38.3,38.1,47,35.3c-1-5.1-12-22.6-30.7-32.5"/>
<path class="st17" d="M42.2,229.8c0.2,16.1,13.8,36,38.7,43c2.6-1.2-1.6-9-6.7-17.3"/>
<path class="st6" d="M122.1,337.9c9.9-2.6,37.3-8.5,52.4-26.9C165.7,327.6,135.9,341.6,122.1,337.9z"/>
<path class="st14" d="M186.6,221.9c2.1-14.8,9.7-56.5,26.1-88.7C194.6,157.4,180.3,202.5,186.6,221.9z"/>
<path class="st6" d="M218.1,261.4c0.5,8.7-2.8,16.1-13.7,24.4C215.8,279.5,223.5,270,218.1,261.4z"/>
<path class="st17" d="M39.2,211.9c-5.8,25.3,34.9,48.8,45,44.3c1.4-2.1-3-11.2-13.8-20.5"/>
<path class="st11" d="M81.9,236.5c-6.5-6.8-13.9-15.8-22.4-23.7C69.8,216.8,77.5,228.3,81.9,236.5z"/>
<path class="st30" d="M46.4,97.1c2.4,60.2,15.7,161.8,30.8,270.8"/>
</svg>
