<?xml version="1.0" encoding="utf-8"?>
<!-- Generator: Adobe Illustrator 21.1.0, SVG Export Plug-In . SVG Version: 6.00 Build 0)  -->
<svg version="1.1" id="Layer_1" xmlns="http://www.w3.org/2000/svg" xmlns:xlink="http://www.w3.org/1999/xlink" x="0px" y="0px"
	 viewBox="0 0 483 447" style="enable-background:new 0 0 483 447;" xml:space="preserve">
<style type="text/css">
	.st0{fill-rule:evenodd;clip-rule:evenodd;fill:#939598;}
	.st1{fill-rule:evenodd;clip-rule:evenodd;fill:#D2AB67;}
	.st2{fill-rule:evenodd;clip-rule:evenodd;fill:#636466;}
	.st3{fill-rule:evenodd;clip-rule:evenodd;fill:#414042;}
	.st4{fill-rule:evenodd;clip-rule:evenodd;fill:#F18A2E;}
	.st5{fill-rule:evenodd;clip-rule:evenodd;fill:#BCBEC0;}
	.st6{fill-rule:evenodd;clip-rule:evenodd;fill:#E7D3B2;}
	.st7{fill-rule:evenodd;clip-rule:evenodd;fill:#FAA74A;}
	.st8{fill-rule:evenodd;clip-rule:evenodd;fill:#FED1A2;}
	.st9{fill-rule:evenodd;clip-rule:evenodd;fill:#F9A57B;}
	.st10{fill:none;stroke:#A82E31;stroke-width:1.7012;stroke-linecap:round;stroke-linejoin:round;stroke-miterlimit:22.9256;}
	.st11{fill-rule:evenodd;clip-rule:evenodd;fill:#FFFFFF;}
	.st12{fill:none;stroke:#000000;stroke-width:1.7012;stroke-linecap:round;stroke-linejoin:round;stroke-miterlimit:22.9256;}
	.st13{fill-rule:evenodd;clip-rule:evenodd;fill:#C7EAFB;}
	.st14{fill-rule:evenodd;clip-rule:evenodd;}
	.st15{fill:none;stroke:#FFFFFF;stroke-width:1.7012;stroke-linecap:round;stroke-linejoin:round;stroke-miterlimit:22.9256;}
	.st16{fill:none;stroke:#A7A9AC;stroke-width:1.7012;stroke-linecap:round;stroke-linejoin:round;stroke-miterlimit:22.9256;}
	.st17{fill-rule:evenodd;clip-rule:evenodd;fill:#A82E31;}
	.st18{fill-rule:evenodd;clip-rule:evenodd;fill:#ED1C24;}
	.st19{fill-rule:evenodd;clip-rule:evenodd;fill:#CF2A30;}
	.st20{fill:none;stroke:#AB2930;stroke-width:1.7012;stroke-linecap:round;stroke-linejoin:round;stroke-miterlimit:22.9256;}
	.st21{fill-rule:evenodd;clip-rule:evenodd;fill:#FFE293;}
	.st22{fill:none;stroke:#C6863F;stroke-width:1.7012;stroke-linecap:round;stroke-linejoin:round;stroke-miterlimit:22.9256;}
	.st23{fill:none;stroke:#939598;stroke-width:1.7012;stroke-linecap:round;stroke-linejoin:round;stroke-miterlimit:22.9256;}
	.st24{fill:none;stroke:#A66D3F;stroke-width:1.7012;stroke-linecap:round;stroke-linejoin:round;stroke-miterlimit:22.9256;}
</style>
<path class="st0" d="M61.3,171.8l-0.1-8.3c2.1-16.6,15-15.8,20.5-11.6l11.4,19.9l-10.2,13.4l-15.2-1.6
	C64.5,179.7,62.4,175.7,61.3,171.8z"/>
<path class="st1" d="M193.6,190.5l-12.1,4.1c17.3-87.9,31.3-155.1,34.6-154C220.1,41.1,207.7,115.7,193.6,190.5z"/>
<path class="st2" d="M154.4,272c7-2,13.1-6.7,18.3-14.1c7.8-2.4,13-10,15.7-23c6.7-3.4,8.1-11.2,4.5-23.4c17-8.3,15.4-24.1,2.1-28.2
	l-1.4,7.2c-15.1,7-31,4-42,9.7l5.6,4.6c-12-5.7-18.5,2.7-30.6,15.3c-2.2-10.7-7.4-20.5-16.4-29.1c-7.1,0.6-15.1-6.1-23.9-19.9
	c-0.8,13.2-16,14.2-21.9,8.2L69,185l7.2,6.2c14.1,16.8,15.6,40.8,4.3,55.4c-25.7-1.7-39.6,31.5-77-5c-2.7,5.3-2.7,10.1-2.1,14
	c-2.2,13.2,3.5,25.6,14.6,37.5c-1.7,39.6,17.3,59.2,50.2,65.1C112.5,362.3,169.5,316.4,154.4,272z"/>
<path class="st3" d="M97.9,320.8c17.3,1,31-12.1,42.2-35c6.4,1.3,15.7-4.6,15.3-9.5l-1-4.4l-8.6,1.4c5.7-0.6,17.4-5.6,12.7-12.8
	c10.6-1.4,19.5-5.6,22.4-22.7c5.9-12.3,5.2-22.5-9.9-28.2l10.5,1.8l11.3,0.2c6.7-3.4,9-6.5,10.7-9.4c-10.7,9.4-34.3-0.3-46.4,2.8
	c13.6,10,11,30-3.8,33.9c7.1,8.9-3.1,19.7-9.5,20.2c-4.6,9.1-10.9,11.9-18.5,10.3c12.1,14.8-11.2,52.3-39.8,50l-5.4-63.3l17.8-12.5
	c17.7-46.6-20.7-51.3-33.4-64.2l4.6,5.8l7.2,6.2c14.1,16.8,15,50,3.8,64.7l5.6,63.3L97.9,320.8l5.6,10.2c-39.9,6-71.9-1.2-75.4-55.2
	c-3.3-9.9-15.4-10.5-21.5-25.4C4.4,263.6,0.4,280,16,293.3c-1.9,33.6,12.7,53.7,36.6,62.1l3.3-5.6l13.1,1.8
	c17.2-1.8,29.4-8,34.5-20.6L97.9,320.8z"/>
<path class="st0" d="M130.5,217.2c-12.4,12.3-29.7,25.3-50.4,38.8c-18.6,10.9-23.8,36.8,4,45.5c10.5,2.6,38.8-4.6,41.4-32.2
	c4.9,1.7,9.9-5,6.1-12.4c10.6-0.2,15.6-15.9,9.8-19.9C146.6,226.4,140.4,214.7,130.5,217.2z"/>
<path class="st4" d="M121.9,181.4L85.3,152c-8.2-0.3-10.6,7.9-2.2,15.1l3.3,4c3.6,5.4,8.5,13.9,16,17.8
	C109.4,192.5,114.1,192.8,121.9,181.4z"/>
<path class="st5" d="M129.6,221.6c-4.2,11.2-21,26.5-36.6,30.1C103.8,244.7,123.5,229.5,129.6,221.6z"/>
<path class="st6" d="M193.3,149.8c-1-9.6,11.1-77.9,19.2-90.5C208.7,76.7,198.6,126.6,193.3,149.8z"/>
<path class="st7" d="M134.1,161.4c-9.8-1-12.7-14.7-20.4-14.2c-7.1,0.5-11.6,9.2-17.7,10.8c-9.8-6.2-16.2-10.7-17.7,1.8
	c3.4-7.9,12.5-3.4,8.4,2c10.2,10.5,20,22.9,38,19.3c22.5-9.4,25.5-20,16.1-19L134.1,161.4z"/>
<path class="st0" d="M51.2,262.1c7.7-5.9,16.6-9.4,27.9-11.1C67,249.2,57.9,253.2,51.2,262.1z"/>
<path class="st8" d="M97.7,168.5c6,5.4,22.7,11.7,31.1,8.8C119.2,183.2,103.9,176.5,97.7,168.5z"/>
<path class="st3" d="M122.4,208.1l4.3,12.1c9.3-5.4,14-20.2,27.9-16.3l-2.9-3.6c9.9-5.8,19.9-3.7,29.8-5.6l2.5-12.8
	C161.5,181.1,143.5,188.2,122.4,208.1z"/>
<path class="st9" d="M107.5,367.5c4,0.2,9.7-0.7,17-2.7c-3.8-4-7.2-9.4-9.7-17.8l-11.3,5.4C103.8,357.7,105.5,364.2,107.5,367.5z"/>
<path class="st10" d="M103.4,352.3c0.4,5.4,2.1,11.9,4.1,15.2"/>
<path class="st10" d="M114.7,346.9c2.5,8,5.6,13.3,9,17.4"/>
<path class="st2" d="M129.1,146l-3,1.5c-0.6-11.7-2.9-19.6-7.4-22.1c-3.3,0.8-5.2,9.6-6.4,22l-13.4,9.4c-1-17.6-3.6-31.3-11.4-31.5
	c-5.6,1.2-10,10.1-13.4,24.1c-8.5,1.3-12.8,6-12.9,14.1l4.2-1.5c-3.8,2.4-5.1,5.7-4.1,9.9c-12.7-13.7-10.3-45,8.2-55.9
	c-0.7-3.2-0.8-5.7,0.3-6.7c2.3,0.6,4.2,2.4,5.8,5.2c0-4.7,5.2-9.8,11.5-11.2c-2.6,2.5-4,5-4.1,7.5
	C109.5,102.4,129.8,125.9,129.1,146z"/>
<path class="st3" d="M67.9,151.2c-4.9,2.5-6.1,7.7-6.7,12.3l4.2-1.5c-3.8,2.4-5.1,5.7-4.1,9.9c-12.7-13.7-10.3-45,8.2-55.9
	c-0.7-3.2-0.8-5.7,0.3-6.7c2.3,0.6,4.2,2.4,5.8,5.2c0-4.7,5.2-9.8,11.5-11.2c-2.6,2.5-4,5-4.1,7.5C68.1,118.5,60,139.6,67.9,151.2z"
	/>
<path class="st11" d="M98.9,156.8c-6,3.3-9.8-7.7-17.2-4.9l-7.6-2.5c1.9-12,8.7-24.4,13.4-24.1C95.5,125.7,98.2,139,98.9,156.8z"/>
<path class="st12" d="M184,181.8c-22.5-0.7-40.4,6.4-61.6,26.3"/>
<path class="st13" d="M78.7,150.2l3.7,1.6c3.6-3.1,8.7,3.7,13,5.5c3.3-13-1.2-23.3-4.4-23.9C85.5,131.5,81.2,138.7,78.7,150.2z"/>
<ellipse class="st14" cx="91" cy="148.7" rx="5" ry="5"/>
<ellipse class="st11" cx="87.6" cy="145" rx="2.5" ry="2.5"/>
<path class="st11" d="M126.1,147.5l-5.2,3c-2-2.9-4.8-3.9-8.6-3.1c0.8-11.9,3.5-21.9,6.4-22C123.1,127.1,126.7,137.8,126.1,147.5z"
	/>
<path class="st9" d="M48.3,377.9c11.3,3.8,22.6-2.1,18.6-4.1c-4.3-3.7-2.9-11.5,2.3-22.3l-7.8-0.2l-5.5-1.6
	C49.2,364.1,47.1,372.3,48.3,377.9z"/>
<path class="st0" d="M134.1,161.4c-9.5-1.9-8.8-7.2-13.2-10.8C132.8,141.7,138,149.7,134.1,161.4z"/>
<path class="st15" d="M137.1,353.3c9,2.6-14.7,17.8-39.9,13.4"/>
<path class="st13" d="M115.2,147.1l4.3,1.8c2.4,3.3,3.7-2.6,6.6-1.4c0-8.8-2.9-15.5-5.1-15.8C117.3,130.4,115.2,139.3,115.2,147.1z"
	/>
<circle class="st14" cx="121.6" cy="145.3" r="4.2"/>
<circle class="st11" cx="118.8" cy="142.1" r="2.1"/>
<path class="st11" d="M264.2,420.1l23.4-14.5c1.7,3.1,3.6,7.4,4.1,10.9C278.8,423.9,267.5,424,264.2,420.1z"/>
<path class="st16" d="M286.3,402.8c1.7,3.1,4.8,10.2,5.3,13.6c-8.7,7.5-25,9.5-29.1,1.8"/>
<path class="st10" d="M87.7,157.9c0.9,2.8-1.8,6.1-4.8,4.3"/>
<path class="st17" d="M111.6,159.8c1.5,0,2.8-1.3,2.8-2.8s-1.3-2.8-2.8-2.8s-2.8,1.3-2.8,2.8S110,159.8,111.6,159.8z"/>
<path class="st18" d="M286,402.3c-0.6-1.2,2.9,4.4-1.1-1.8c-4-6.2-18.5-16.8-25-12.6c-6.5,4.3-2.8,21.6,1.3,28
	c4.1,6.3,0.4,1,1.5,2.2C266.9,423.6,290.2,410.1,286,402.3z"/>
<path class="st19" d="M286,402.3c0.4,0.5-14.2,17.5-19.4,9.1c-5.2-8.4,4.4-20.3-5.2-21.4c-9.6-1.1-4.3,19.6-0.2,26
	c4.1,6.3,0.4,1,1.5,2.2C266.9,423.6,290.2,410.1,286,402.3z"/>
<path class="st20" d="M286,402.3c-0.6-1.2,2.9,4.4-1.1-1.8c-4-6.2-18.5-16.8-25-12.6c-6.5,4.3-2.8,21.6,1.3,28
	c4.1,6.3,0.4,1,1.5,2.2C266.9,423.6,290.2,410.1,286,402.3z"/>
<path class="st21" d="M247.5,371.6c1.6-1.1,4-0.4,5.4,1.6l11.4,16.4c1.9,2.5-3.8,6.3-5.7,4l-11.4-16.4
	C245.8,375.2,245.9,372.7,247.5,371.6z"/>
<path class="st22" d="M247.5,371.6c1.6-1.1,4-0.4,5.4,1.6l11.4,16.4c1.9,2.5-3.8,6.3-5.7,4l-11.4-16.4
	C245.8,375.2,245.9,372.7,247.5,371.6z"/>
<path class="st23" d="M216.8,44c5.6,99.1-15.8,350,41.6,337.5"/>
<path class="st12" d="M80.1,256.1c21.6-14.4,41.3-29.6,57.1-46.2c6.3-6.9,13.4-8.4,21.2-4.4 M192.8,211.4
	c7.4,20.3-2.8,27.8-29.9,28.3 M188.4,234.9c-2.6,20.6-17.7,29.3-44.5,24.2 M172.7,257.8c-11.5,16.6-27.8,18.9-47.3,11.6
	 M145.8,273.3c-14.6,36.4-34.4,52.5-60.1,46.1 M125.5,269.4c4.9,1.7,9.9-5,6.1-12.4c10.6-0.2,15.6-15.9,9.8-19.9
	c5.3-10.7-0.9-22.3-10.8-19.9"/>
<path class="st12" d="M66.3,358.3c46.2,4,103.2-42,88.1-86.3 M74.1,149.4c1.9-12,8.7-24.4,13.4-24.1c8,0.4,10.6,13.7,11.4,31.5
	 M80.5,124.9c3.2-4.2,8.8-4.9,13.3,0 M112.3,147.5c0.8-11.9,3.5-21.9,6.4-22c4.4,1.6,8.1,12.3,7.4,22.1 M120.9,150.5
	c11.9-8.8,17.1-0.9,13.2,10.8 M110.3,191.1c7.9,7.3,13.5,18.1,16.4,29.1 M81.7,151.9c-11-7.2-20.6,2.5-20.5,11.6l4.2-1.5
	c-9.3,6.8-2.1,19.8,10.9,29.3c12.9,14.8,15.9,39.5,4.3,55.4c-25.7-1.7-41.2,32.6-77-5c-5.4,12.7-0.8,22.2,6.5,30.9 M61.3,171.8
	c-12.7-13.7-10.3-45,8.2-55.9c-0.7-3.2-0.8-5.7,0.3-6.7c2.3,0.6,4.2,2.4,5.8,5.2c0-4.7,5.2-9.8,11.5-11.2c-2.6,2.5-4,5-4.1,7.5
	c26.4-8.3,46.8,15.3,46.1,35.3 M1.5,255.8c-2.9,13.6,6.8,29.8,14.6,37.5c-2,33.7,14.5,54.5,36.6,62.1"/>
<path class="st10" d="M86.7,161.8c21.1,25.9,43.7,24.5,57.4,6.3c2-2,1.3-6.1-1.7-6.1c-19.7,1.4-19-14.8-27.3-14.9
	c-8-0.2-15.1,11.2-19.1,10.8c-4.3-0.4-8.2-8.7-14.4-6c-4.7,3.5-5,10.4,1.4,15.2"/>
<path class="st10" d="M121.9,181.4c-7.4,14.5-20.5,13.9-35.5-10.3"/>
<path class="st10" d="M55.9,349.8c-7.7,13.7-7.9,21.5-7.8,27"/>
<path class="st10" d="M69,351.6c-5.3,11.6-5.5,18.6-2.1,22.3"/>
<path class="st12" d="M50.6,346.2c5,5.5,16.2,6.7,22.9,4.5"/>
<path class="st24" d="M181.4,194.6c17.3-87.9,31.3-155.1,34.6-154c4,0.5-8.3,75.2-22.5,149.9"/>
<path class="st12" d="M193.6,190.5c-16.2,8.6-31,3.5-42,9.7c2.3,6,26.7,12.7,41.3,11.2c17.1-7.7,15-22.8,3.8-27.6"/>
<path class="st0" d="M81.8,114.1c9.6-1.5,19.1-0.2,29.8,3.7C101.9,110.3,92,109.5,81.8,114.1z"/>
<path class="st0" d="M170.4,198.9c13.6-0.5,23.6-5.2,28.9-9.2C198.3,195.5,180.7,202.2,170.4,198.9z"/>
<path class="st0" d="M116.8,341.4c5.6-5.5,29.4-24.7,36.2-46.7C151.4,313,129.6,336.7,116.8,341.4z"/>
<path class="st2" d="M20.1,309.6c-0.9,9.6,6.8,26.9,18.1,32.9C29.7,335.1,23.1,320.6,20.1,309.6z"/>
</svg>
