<?xml version="1.0" encoding="utf-8"?>
<!-- Generator: Adobe Illustrator 21.1.0, SVG Export Plug-In . SVG Version: 6.00 Build 0)  -->
<svg version="1.1" id="Layer_1" xmlns="http://www.w3.org/2000/svg" xmlns:xlink="http://www.w3.org/1999/xlink" x="0px" y="0px"
	 viewBox="0 0 483 447" style="enable-background:new 0 0 483 447;" xml:space="preserve">
<style type="text/css">
	.st0{fill-rule:evenodd;clip-rule:evenodd;fill:#FAA74A;}
	.st1{fill-rule:evenodd;clip-rule:evenodd;fill:#F58345;}
	.st2{fill-rule:evenodd;clip-rule:evenodd;fill:#636466;}
	.st3{fill-rule:evenodd;clip-rule:evenodd;fill:#414042;}
	.st4{fill-rule:evenodd;clip-rule:evenodd;fill:#939598;}
	.st5{fill-rule:evenodd;clip-rule:evenodd;fill:#BCBEC0;}
	.st6{fill:none;stroke:#000000;stroke-width:1.7012;stroke-linecap:round;stroke-linejoin:round;stroke-miterlimit:22.9256;}
	.st7{fill-rule:evenodd;clip-rule:evenodd;fill:#F7A1A1;}
	.st8{fill-rule:evenodd;clip-rule:evenodd;fill:#4D4D4F;}
	.st9{fill:none;stroke:#000000;stroke-width:1.7011;stroke-linecap:round;stroke-linejoin:round;stroke-miterlimit:22.9256;}
	.st10{fill-rule:evenodd;clip-rule:evenodd;fill:#FFFFFF;}
	.st11{fill-rule:evenodd;clip-rule:evenodd;fill:#A5C3D2;}
	.st12{fill-rule:evenodd;clip-rule:evenodd;}
	.st13{fill-rule:evenodd;clip-rule:evenodd;fill:#F6D864;}
	.st14{fill-rule:evenodd;clip-rule:evenodd;fill:#EEBF32;}
	.st15{fill:none;stroke:#CC692E;stroke-width:1.7012;stroke-linecap:round;stroke-linejoin:round;stroke-miterlimit:22.9256;}
	.st16{fill:none;stroke:#C67733;stroke-width:1.7012;stroke-linecap:round;stroke-linejoin:round;stroke-miterlimit:22.9256;}
	.st17{fill:none;stroke:#E0902F;stroke-width:1.7012;stroke-linecap:round;stroke-linejoin:round;stroke-miterlimit:22.9256;}
	.st18{fill-rule:evenodd;clip-rule:evenodd;fill:#F6ADCD;}
	.st19{fill:none;stroke:#FFFFFF;stroke-width:1.7012;stroke-linecap:round;stroke-linejoin:round;stroke-miterlimit:22.9256;}
	.st20{fill:none;stroke:#E95F60;stroke-width:1.7012;stroke-linecap:round;stroke-linejoin:round;stroke-miterlimit:22.9256;}
	.st21{fill-rule:evenodd;clip-rule:evenodd;fill:#FFF1AB;}
	.st22{fill-rule:evenodd;clip-rule:evenodd;fill:#FABFBF;}
	.st23{fill:none;stroke:#E07D7D;stroke-width:1.7012;stroke-linecap:round;stroke-linejoin:round;stroke-miterlimit:22.9256;}
</style>
<path class="st0" d="M286.4,140.2c-8.8,10.4-18.2,13.2-28.6,4.8c-10.2-11.2-14.7-20.7-11.1-27.6c4.8-3.1,14.3,6.2,21.4,9.3
	c6.4-7.9,18.6-17.5,22.2-15.1C295.9,114.9,290.5,135.1,286.4,140.2z"/>
<path class="st1" d="M286.4,140.2c-8.8,10.4-9.5,17.3-19.9,8.9c-9.7-5.2-14.5-13.8-10.9-20.8c4.8-3.1,8.6,2.3,15.8,5.4
	c4.6,2.2,15.3-19.5,18.9-17.2C295.9,120,290.5,135.1,286.4,140.2z"/>
<path class="st2" d="M404.5,62.6c2.8-5.7,7.4-9.4,13.8-11l-3,4.4c25.6-14.1,40.5,28.2,12.5,36.5c3.9,3.1,5.7,8.1,6.4,13.9l-2.6-1.2
	l-1.6-2.5c5.9,12.8,3.9,26.3-0.2,39.7l5.5-4.9c0.2-4.8-0.7-10.3,5.9-15.7c5.1-3.3,4.4-13.3,10-12.8c5.7-0.8,5.9,7.3,2.1,16
	c10.4-17.3,21.4-15.8,23.8-10.6c3.8,4.4,2.7,8.6-3.4,12.6c3.9-1.8,6.9-1.7,8.1,2.6c3.2,7-10,10.8-15,16.1
	c-12.3,30.3-31.8,48.2-26.4,63.7c13.7,32.1,13.5,63.5-8,92c-9.9,1.9-18.6-2.6-27.2-4c-15-2.2-27.6,5.6-41.8,5.5
	c-22.4-0.4-28.2-20.6-55.4-4.6c-3.7-7.3-6.7-14.5-7.3-21.5l2.5,0.4c7,1.3,8-8.4-0.4-11.9c18.6-8.7,21.1-29.9,14.1-46.9
	c10.2-8.8,12.7-16-1.6-19.8c-3.1-0.9-5.1,0.9-6.1,5.4c-8.8-11.9-19.2-20.9-25.4-34.3c-17.2,3.1-29-5-24.8-24.3
	c5.5,3.5,10.8,4.8,15.9,3.8c7.3-14.1,14.5-9.7,15-3.2c13.3,7.5,25.3,20.1,39.6,22.8c-7.6-6.1-13.1-13-16.5-20.6l-1.5,4.6
	c-4.1-6.7-6.6-13.4-5.4-20.1l-1.9,5c-1.9-15.6,0.8-32.2,8.5-46.4c-6.6-1.9-16.9-8.8-14.2-18.6l-2.7,3.5c-5.1-29.6,35.8-33,36.4-10.8
	c3.4-6.4,9-10.9,17-13.5c-0.1,1.5-0.6,3.4-1.5,5.8c2-3.9,5.9-7.1,11.6-9.7c0.4,2.3-0.5,4.1-1.9,5.8
	C372.2,47.6,392.9,50.5,404.5,62.6z"/>
<path class="st3" d="M466.8,145.9c-12.3,30.3-31.8,48.2-26.4,63.7c13.7,32.1,13.5,63.5-8,92c-9.9,1.9-18.6-2.6-27.2-4
	c15.8-12,30.9-31.9,24.4-57c-4.2-20.7-7.7-37.4-0.4-46.1c9.7-10.8,22.1-26.3,23.2-36.1c-5.6-1.3-7.8-5-8.2-7.6
	C452.1,153.2,459.6,151.6,466.8,145.9z"/>
<path class="st3" d="M308,298.6c-3.7-7.3-6.7-14.5-7.3-21.5l2.5,0.4c7,1.3,8-8.4-0.4-11.9c18.6-8.7,21.1-29.9,14.1-46.9
	c10.2-8.8,12.7-16-1.6-19.8c-3.1-0.9-5.1,0.9-6.1,5.4c-6.3-8.6-14.9-18-20.7-26.3c-2.3-3.2-2.9-4.2-4.7-8c4.9-0.5,7.4-3.1,7.4-7.7
	l0.6-5.2c13.3,7.5,27.4,21.5,38.2,19.6l5.1-4.4l6.5,2.7l-5.7,31.4l-0.7,76.4c4.5,8.4,13.1,15.2,25.8,20.5
	c-11.8,0-20.8-10.5-34.3-10.5C317.8,293.5,311.6,295.5,308,298.6z"/>
<path class="st4" d="M379.8,290.2c-15.9,3.6-34.8,1.9-44.6-7.6c-20.5-19.6-22.3-52.1,0.3-76.4h58.4
	C427.5,237.2,415.3,283.5,379.8,290.2z"/>
<path class="st5" d="M405.3,171.2c-17.2,10-39.2,13.3-63.8,3.5c-9.6,2.1-20.5,20.1,2.3,40.1l3.6-4.6c-1.5,6.9,3,13.2,13.7,18.8
	C369,216.9,421.9,203.2,405.3,171.2z"/>
<path class="st2" d="M393.9,206.1c9.9,8.7,16.2,20.9,19.5,36.1c-3.3-9.1-7.3-18.2-13.3-23.4c-8.6-6.5-21.7-2.7-37.5,14.2
	c-7.1-2.2-13.7-5.3-18.3-11.9c-4.2-2.6-8.5-9.7-10.4-13.3l1.6-1.7l8.4,8.8l3.6-4.6c-1.5,6.9,3,13.2,13.7,18.8
	C369,216.9,387.9,214.8,393.9,206.1z"/>
<path class="st4" d="M405.3,171.2c-10.8,6.6-23.7,9.3-42.1,9.4c12.3,8.8,31.2-2.2,30.1,6.6c-1,10.2-19.7,29.6-35.1,33.3
	c-5-1.5-7.2-3-10.8-10.2c-1.5,6.9,3,13.2,13.7,18.8C369,216.9,421.9,203.2,405.3,171.2z"/>
<path class="st3" d="M404.8,170.7c10-13.6,12.7-18,24.9-28.2c5.6-13.6,5.7-26.8,0.2-39.7l4.3,3.6l-1.9-7.6l-4.6-6.3l10-4.7
	c2-3.8,9.8-23-12.2-23.5c3.8,14-15,13.4-21.5,3.9l0.4-5.5c-12.6-8.4-34.8-11.7-50.5-2.2c39.7-9,69.9,28.3,56.1,57.2
	c26,32.1-14.3,52.5-43.9,52.8c-30.8,0.1-46.4-12.2-51.3-31.8c-1.2,15.1,15.3,30.8,28.5,36.8C361.4,183.4,391.7,180.7,404.8,170.7z"
	/>
<path class="st6" d="M339.3,189.1c-1.4,0.1-3,1.7-3.7,3.2 M342.8,193.4c-1.1,1.5-1.8,3.8-1.5,5.2 M432.1,276c0-0.1,0-0.3,0-0.4
	c-0.1-1.2-1.2-2.8-2.4-3.5 M423,291.1c0-0.1,0.1-0.3,0.1-0.4c0.2-1.6-0.8-4-2.2-5.1 M436.1,261.2c0-0.1,0-0.2-0.1-0.3
	c-0.3-0.7-1.2-1.6-2-1.8 M428.1,283.7c0-0.1,0-0.3,0-0.4c0-1.1-0.8-2.5-1.8-3.2 M316.5,130.2c-1.2,0.2-2,1.6-2.5,2.8 M418.3,118.4
	c1.5,0,2.9,1.6,3.8,2.9 M418.9,112.6c1.8,0,2.8,1.1,3.4,1.9 M313,123.7c-1.2,0-2.3,1.3-3,2.3 M349,202.9c0.5-0.6,0.6-2.1,0.1-2.9"/>
<path class="st3" d="M377.1,151.6l-11-5.7l-11,5.9C359.2,162.3,373.2,162.8,377.1,151.6z"/>
<path class="st7" d="M373.1,150.5l-3.7-1.9l-3.3-2.7l-3,2.6l-3.9,2.1C361.5,157.7,370.8,157.5,373.1,150.5z"/>
<path class="st4" d="M366.1,145.9l0.1-4.6L366.1,145.9c-6.8,8.6-20.7,9.4-26.5,1.5c-10.6-17.2,7.3-30.1,26.9-30
	c21-0.2,37.6,16.8,27.4,29.4C386.1,156.1,372.5,153.4,366.1,145.9z"/>
<path class="st5" d="M366.3,140.8c-3.6,8-13.1,13.6-24.2,9.1c8.1,4.9,16.1,3.6,24.1-4L366.3,140.8z M339.6,147.4
	c-10.6-17.2,7.3-30.1,26.9-30c21-0.2,37.6,16.8,27.4,29.4C401.7,113.5,325.9,110.8,339.6,147.4z"/>
<path class="st6" d="M355,152.5c4.2,9.5,18.3,10,22-0.2 M359.2,151.2c2.7,6.2,12,6.1,13.9-0.2 M366.2,141.3l-0.1,4.6
	c-6.8,8.6-20.7,9.4-26.5,1.5c-11-16.4,7.3-30.1,26.9-30c21-0.2,37.6,16.8,27.4,29.4c-7.8,9.3-21.4,6.6-27.8-0.9"/>
<ellipse transform="matrix(1.264489e-02 -0.9999 0.9999 1.264489e-02 232.3467 492.6105)" class="st2" cx="365.6" cy="128.7" rx="6.8" ry="14.3"/>
<ellipse transform="matrix(1.250645e-02 -0.9999 0.9999 1.250645e-02 234.8586 493.0412)" class="st8" cx="367.1" cy="127.6" rx="5.8" ry="13.7"/>
<ellipse transform="matrix(1.250645e-02 -0.9999 0.9999 1.250645e-02 234.8586 493.0412)" class="st9" cx="367.1" cy="127.6" rx="5.8" ry="13.7"/>
<path class="st2" d="M385.2,132.4c-1,0.2-1.6,1-1.4,1.9c0.2,0.9,1.2,1.5,2.2,1.3c1-0.2,1.6-1,1.4-1.9
	C387.1,132.8,386.2,132.2,385.2,132.4z M354,135c1,0.2,1.6,1.1,1.4,2c-0.2,0.9-1.2,1.4-2.2,1.2c-1-0.2-1.6-1.1-1.4-2
	C352,135.3,353,134.8,354,135z M379.1,135.3c-1,0.2-1.6,1-1.4,1.9c0.2,0.9,1.2,1.5,2.2,1.3c1-0.2,1.6-1,1.4-1.9
	C381,135.7,380.1,135.1,379.1,135.3z M347.9,137.5c1,0.2,1.6,1.1,1.4,2c-0.2,0.9-1.2,1.4-2.2,1.2c-1-0.2-1.6-1.1-1.4-2
	C346,137.8,347,137.3,347.9,137.5z M385,138c-1,0.2-1.6,1-1.4,1.9c0.2,0.9,1.2,1.5,2.2,1.3c1-0.2,1.6-1,1.4-1.9
	C387,138.4,386,137.8,385,138z M347.9,131.9c1,0.2,1.6,1.1,1.4,2c-0.2,0.9-1.2,1.4-2.2,1.2c-1-0.2-1.6-1.1-1.4-2
	C346,132.2,347,131.7,347.9,131.9z"/>
<path class="st10" d="M345.1,96.5c5.5,0.6,9.6,5.7,9.2,11.3c-0.4,5.6-5.2,9.6-10.7,9c-5.5-0.6-9.6-5.7-9.2-11.3
	C334.8,99.9,339.6,95.8,345.1,96.5z"/>
<path class="st10" d="M389.4,95.7c5.5,0.6,9.6,5.7,9.2,11.3c-0.4,5.6-5.2,9.6-10.7,9c-5.5-0.6-9.6-5.7-9.2-11.3
	C379.1,99.2,383.9,95.1,389.4,95.7z"/>
<path class="st11" d="M345.9,101.7c3.6,1.8,5.2,6.2,3.4,9.9c-1.7,3.7-6.1,5.3-9.7,3.5c-3.6-1.8-5.2-6.2-3.4-9.9
	C337.9,101.5,342.3,99.9,345.9,101.7z"/>
<path class="st11" d="M390.2,101c3.6,1.8,5.2,6.2,3.4,9.9c-1.7,3.7-6.1,5.3-9.7,3.5c-3.6-1.8-5.2-6.2-3.4-9.9
	C382.2,100.8,386.6,99.2,390.2,101z"/>
<path class="st6" d="M398.5,104.6c0.7,5.6-3.1,10.8-8.5,11.5c-5.4,0.7-10.4-3.2-11.1-8.9c-0.7-5.6,3.1-10.8,8.5-11.5
	C392.8,95,397.8,99,398.5,104.6z M354.1,105.2c0.7,5.6-3.1,10.8-8.5,11.5c-5.4,0.7-10.4-3.2-11.1-8.9c-0.7-5.6,3.1-10.8,8.5-11.5
	C348.5,95.6,353.4,99.6,354.1,105.2z"/>
<circle class="st12" cx="342.3" cy="108.8" r="4.8"/>
<circle class="st12" cx="386.6" cy="108.2" r="4.8"/>
<path class="st10" d="M346.3,104.7c1.2,0.3,1.9,1.4,1.7,2.5c-0.2,1.1-1.4,1.8-2.5,1.6c-1.2-0.3-1.9-1.4-1.7-2.5
	C344,105.1,345.1,104.4,346.3,104.7z"/>
<path class="st0" d="M246.1,233.7l10.1-55.6c-8.5,1.8-16.1,6.6-13.8,16.7c-7.3,6-8.6,13.2-3.5,21.1
	C232.8,226.4,239.6,231.4,246.1,233.7z"/>
<path class="st1" d="M304,197.2l-15.8-19.6c8.5,1.7,9.3,0.1,9.7,8.8C306.8,189,305.8,188.2,304,197.2z"/>
<path class="st13" d="M263.3,166c5.8,5,12.6,6.3,20.5,3.9c9.8,21.3,27.1,30,33,48.6c8.7,20.6,1.8,39.1-14.1,46.9l-18.2,3.7
	c-13.1-0.6-26.5-8-34.2-23.8C240.2,225.1,242.1,198.3,263.3,166z"/>
<path class="st10" d="M390.6,104c1.2,0.3,1.9,1.4,1.7,2.5c-0.2,1.1-1.4,1.8-2.5,1.6c-1.2-0.3-1.9-1.4-1.7-2.5
	C388.3,104.5,389.4,103.8,390.6,104z"/>
<path class="st6" d="M458.4,123c4.9,2.6,7.9,6.5,9.7,11.4 M437.8,145.8c-4.7-7.6-3.3-18,4.1-24.7c5.8-6.1,2.6-11.7,9.2-12
	c5.8,0.6,4.3,6.9,2.1,16c4-7.4,17.2-20.2,23.8-10.6c4.2,5.2,2,9.1-3.1,12.3c5.4-2,7.5,0.1,8.1,4c1,6.1-10.6,9.6-15.2,15
	c-6.9,20.5-33,50.3-26.4,63.7c12.9,32.1,11.6,69.8-8,92 M335.1,282.6c-21-18.2-21.6-53.7,0.3-76.4 M341.5,174.7
	c-13.5,3.6-17.4,24.2,2.3,40.1l3.6-4.6c-1.5,6.9,3,13.2,13.7,18.8c7.8-12.2,59.9-25.9,43.3-57.9 M329.5,169
	c-14.1-3.6-27.9-16.2-39.6-22.8 M427.7,92.5c3.4,2.6,6.2,10,6.4,13.9c-1.8-0.1-2.5-0.5-4.3-3.6c5.8,12.7,4.1,26.6,0.7,38.2
	 M404.1,68.1c-1.8-6.5,4.6-13.6,14.2-16.5l-3,4.4c8.1-7.2,23.5-2.8,27.4,12.3c3.3,13.5-7.2,23.9-19.2,25 M341.5,174.7
	c-12.4-3.8-24.3-15.1-28.5-26.3l-1.5,4.6c-4.1-6.7-6.6-13.4-5.4-20.1l-1.9,5c-2.7-17.3,0.8-32.2,8.5-46.4
	c-6.6-1.9-16.9-8.8-14.2-18.6l-2.7,3.5c-5.1-29.6,35.8-33,36.4-10.8c3.4-6.4,9-10.9,17-13.5c-0.1,1.5-0.6,3.4-1.5,5.8
	c2-3.9,5.9-7.1,11.6-9.7c0.4,2.3-0.5,4.1-1.9,5.8c15.1-6.5,35.7-3.6,47.3,8.5 M479.1,120.8c-2.5,4.6-7.7,8-11.6,11.2 M346.1,289.1
	c5.9,2.3,16.5,3.5,24.6,2.6 M393.9,206.1c33.6,31.1,21.7,78.2-15,84 M356.8,178.5c13.7,3.9,34.6,1.2,47.7-7.3
	c8.9-13.3,13.8-19.4,30-32.7 M477,114.6c-4.8,2.5-11.4,7.7-14.3,11.4"/>
<path class="st14" d="M263.3,166c5.8,5,12.6,6.3,20.5,3.9c9.8,21.3,27.1,30,33,48.6c8.7,20.6,1.8,39.1-14.1,46.9
	c-12.3,0.8-21.7-2.3-24.5-13.7l14.2,4.2c19.8-13.5,16-43.1-6.2-48.5c-14.4,0.8-23.1,7.1-26.2,18.9c-3.4-12.9,2.8-28.5,10.5-28.1
	C257.5,196,256.2,178,263.3,166z"/>
<path class="st15" d="M288.2,177.6c8.5,1.7,9.3,0.1,9.7,8.8c8.9,2.6,7.9,1.8,6.1,10.9"/>
<path class="st0" d="M312.7,220.1l-4.7-5.5c-0.1-8.9,2.3-17.5,7.3-15.8c7.3,1.7,12.3,5.8,9,11.3C321.2,215,317.7,219.4,312.7,220.1z
	"/>
<path class="st15" d="M256.2,178c-8.5,1.8-16.1,6.6-13.8,16.7c-7.3,6-8.6,13.2-3.5,21.1c-6,10.6,0.7,15.5,7.1,17.8"/>
<path class="st16" d="M287.1,269.2c-12.9,0.5-29.7-8.2-36.8-23.8c-10-20.1-8.2-46.9,12.9-79.3 M316.8,218.6c1.8,4.3,3,8.5,3.6,13.5
	c1.9,16-7.1,28.5-18.6,34.1 M309.2,204.2c-8.5-12.6-19.1-21.3-25.4-34.3"/>
<path class="st6" d="M291.2,162.2c-4.7,3.6-9.9,4.1-15.5,1.5 M283.8,169.9c4.6-0.7,8.2-4.7,7.4-7.7c2.1-3.5,0.4-8-3-9 M283.8,169.9
	c-16.4,4.1-29.3-5.5-24.9-24.1"/>
<path class="st15" d="M275.1,129.1c-9.4-0.9-23.2-16-28.4-11.7c-6.4,5.4,8.4,37.2,28.2,32"/>
<path class="st15" d="M268.1,126.7c6.4-7.9,18.6-17.5,22.2-15.1c5.6,3.3,0.2,23.6-3.9,28.7"/>
<path class="st17" d="M258.7,205c1-7.5,8.1-10.3,11.8-6.7c2.3-5.4,8.5-6.3,12.5-2.9c2.3-5.4,8.4-4.4,11-0.8"/>
<path class="st17" d="M261.3,189.7c1.4-5,6.9-5.4,9.5-2c2.2-4.4,7.6-5.1,11-1.2"/>
<path class="st15" d="M308,214.6c-0.1-8.9,2.3-17.5,7.3-15.8c7.3,1.7,12.3,5.8,9,11.3c-3,5-6.5,9.4-11.5,10"/>
<path class="st10" d="M287.5,257.2c5.9,0,10.7-4.8,10.7-10.7c0-5.9-4.8-10.7-10.7-10.7s-10.7,4.8-10.7,10.7
	C276.8,252.4,281.6,257.2,287.5,257.2z"/>
<path class="st17" d="M287.5,257.2c5.9,0,10.7-4.8,10.7-10.7c0-5.9-4.8-10.7-10.7-10.7s-10.7,4.8-10.7,10.7
	C276.8,252.4,281.6,257.2,287.5,257.2z"/>
<path class="st12" d="M287.5,250.9c2.4,0,4.3-1.9,4.3-4.3c0-2.4-1.9-4.3-4.3-4.3c-2.4,0-4.3,1.9-4.3,4.3
	C283.2,248.9,285.1,250.9,287.5,250.9z"/>
<path class="st18" d="M303.2,266.7c-6.7-2.5-12.4-1.4-17,3.4c-4.1,4.3-5.2,9.6-2.1,11.8c3,2,8.4,0.3,11.1-8c4.7,4.1,10,5.1,12.6,2.4
	C310.6,274,309.3,268.7,303.2,266.7z"/>
<path class="st6" d="M300.7,277.2c0.9,8.2,5.4,17.3,7.3,21.3"/>
<path class="st4" d="M399.1,87c-3.9-2.5-9.3-1.9-10.1,0.2c-1.5,4,4.6,2.8,7,4.5c2,1.4,1.9,3.5,3.6,4.7
	C403.6,99.2,406.9,92.1,399.1,87z M345.9,82.4c-5-0.1-9.6,3.5-9.1,6c0.9,4.6,5.8,0,9,0.1c2.6,0.1,3.7,2.1,6,2.2
	C357,90.9,356,82.5,345.9,82.4z"/>
<path class="st6" d="M399.1,87c-3.9-2.5-9.3-1.9-10.1,0.2c-1.5,4,4.6,2.8,7,4.5c2,1.4,1.9,3.5,3.6,4.7
	C403.6,99.2,406.9,92.1,399.1,87z M345.9,82.4c-5-0.1-9.6,3.5-9.1,6c0.9,4.6,5.8,0,9,0.1c2.6,0.1,3.7,2.1,6,2.2
	C357,90.9,356,82.5,345.9,82.4z"/>
<path class="st19" d="M382.7,299.8c-32.9,10.8-36.2-7.3-56-7.2c-13.9-0.1-20.2,10-32,10.4"/>
<path class="st19" d="M442.2,297.9c-22.4,11.3-26.3-3.8-50,0"/>
<path class="st6" d="M286.4,140.2c4,2,5.3,9.1,0,15.4c-4.3,5.4-13.2,1.4-11.5-6.2C276.2,142.6,283.5,138.4,286.4,140.2"/>
<path class="st20" d="M303.2,266.7c-6.7-2.5-12.4-1.4-17,3.4c-4.1,4.3-5.2,9.6-2.1,11.8c3,2,8.4,0.3,11.1-8c4.7,4.1,10,5.1,12.6,2.4
	C310.6,274,309.3,268.7,303.2,266.7z"/>
<path class="st17" d="M258.9,231.8c4.2-31.8,45.6-29.1,54.6-10.1"/>
<path class="st21" d="M257.2,249.3c-7.6-8.6-12.5-29-7.8-43.1C250.1,217.9,253.4,240.8,257.2,249.3z"/>
<path class="st5" d="M392.8,279.9c-34.3,13.1-58.7-2.5-67.1-24.7C328.2,286.9,368.5,296.9,392.8,279.9z"/>
<path class="st4" d="M320.2,93.3c-6.6,8.5-13.4,21.8-13.6,33.8C304.1,114,309.6,100.6,320.2,93.3z"/>
<path class="st4" d="M298.4,68.5c3.6-7.3,7.6-11.7,17-14.4C305.3,53.2,299.2,59.9,298.4,68.5z"/>
<path class="st4" d="M408.5,173.3c4-5.9,18.8-22.6,25.3-30.3C426.4,145.3,409.3,164.6,408.5,173.3z"/>
<path class="st22" d="M322.6,80.7c7.4-6.4-0.2-17-11.4-18.2l1.5,4.7l-3.8-0.8C306.1,75.2,313.9,88.2,322.6,80.7z"/>
<path class="st23" d="M322.6,80.7c7.4-6.4-0.2-17-11.4-18.2l1.5,4.7l-3.8-0.8C306.1,75.2,313.9,88.2,322.6,80.7z"/>
<path class="st22" d="M418.3,65.8l-0.1,4.8l7.4-6.3c10.1,13.3-3.9,24.1-10,20.5C409.9,81.3,406.7,73.2,418.3,65.8z"/>
<path class="st23" d="M418.3,65.8l-0.1,4.8l7.4-6.3c10.1,13.3-3.9,24.1-10,20.5C409.9,81.3,406.7,73.2,418.3,65.8z"/>
<path class="st22" d="M461.9,138.8c-1.8,14.8-22.7,2.1-19.5-6.1C446.9,119.5,462.4,127,461.9,138.8z"/>
<path class="st23" d="M461.9,138.8c-1.8,14.8-22.7,2.1-19.5-6.1C446.9,119.5,462.4,127,461.9,138.8z"/>
</svg>
