<?xml version="1.0" encoding="utf-8"?>
<!-- Generator: Adobe Illustrator 21.1.0, SVG Export Plug-In . SVG Version: 6.00 Build 0)  -->
<svg version="1.1" id="Layer_1" xmlns="http://www.w3.org/2000/svg" xmlns:xlink="http://www.w3.org/1999/xlink" x="0px" y="0px"
	 viewBox="0 0 483 447" style="enable-background:new 0 0 483 447;" xml:space="preserve">
<style type="text/css">
	.st0{fill-rule:evenodd;clip-rule:evenodd;fill:#DBEAB4;}
	.st1{fill-rule:evenodd;clip-rule:evenodd;fill:#E1F4FD;}
	.st2{fill:none;stroke:#FFFFFF;stroke-width:1.7012;stroke-linecap:round;stroke-linejoin:round;stroke-miterlimit:22.9256;}
	.st3{fill-rule:evenodd;clip-rule:evenodd;fill:#CAE197;}
</style>
<path class="st0" d="M404.9,109.5c16.6-5.1,30.4,17,8,33.6l-37.4,46.3l-29,30.3c69.1,18.1,62.6,61.2,5.3,46
	c-15.7-4.3-25.7-6.8-31.8-7.8c3.4,3.8,4.2,8.2,2.5,12.4c2.5,3.4,3.6,6.8,0.3,9.5c-3.4,2.8-8.9,3.5-15.3,3.2
	c-5.8,2.5-13.3,4.5-22.5,5.6c-10.4,1.2-18.2,2.2-24.2,3.2c-0.7,4.2-4.3,6.8-9.9,8c6.6,2.7,16,6.3,12.4,12.7
	c-9.1,17.2-73,11.5-57.1,27.3c42.7,44.1-241.8,48.6-134.8-22.6L65,256.5c-25.6,9.6-31.7-6.8-21.2-20.5c-25.7,0.4-27.8-24-11.7-26.6
	c-7.9-2.3-4.9-13.1,2.2-11.8c0,0-20.1-3.4-14.8-21.5c0.2-0.8,2.2-1.8,1.4-2.5C-7.5,148,25.5,136,40.2,138.6
	c-6.7-8.9-13.7-17.5-9.2-26.5c4.9-9.8,40.1,15.9,25.4,7c-17.1-10.4-11.5-31.7,3.9-23.9c10,5.1,3.4-33.3,36.1-15.2
	c9.8-14.3,25.9,5.6,28.8,19c0,0,4.2-22.3,15.8-19.7c-1.6-6.2-1.4-13.6,6.8-17.4c0.7-0.3,8.5-0.3,8.3-1.3
	C151.3,34.2,181,41.7,181,41.7c-3.7-9,11.8-33.4,23.5-2.6c0.4,1-0.1-11.7,1.4-13.9c3.8-5.7,14.5,4.9,14.2,0.7
	c-0.7-11.6,3.5-25,12.8-25.8c15.7-1.2,18.6,13.3,16.7,15c14.4-9.6,28.2,3.4,20.4,27.9c0,0,14.8-27.2,28.8-23.3
	c9,2.5,7.8,13.6,3.2,20.9c-0.4,0.6,15.8-14.3,16.4-2.1c1.4,27.1,30-11.2,39.5,19.9c1.7,5.6,10.3-1,6.3-3.5
	c-12.3-7.6,22.5,23.6,27,42.6c0.5,2.1,11-2.7,13.1,2.1C404.4,99.6,407.1,106.9,404.9,109.5z"/>
<path class="st1" d="M460.1,287.7c6.8-59.5-84-80-124.2-81.5c-201.9-7.8-232.1,115.4-289.8,136.7c-44.8,16.6-47.9,72,39.5,66.3
	c63.8-4.1,74.5,4,116.8,22.5c100.9,44.2,162.3-19.1,128.8-45c-33.5-25.7-9.2-42.2,18.6-38.9C393.2,353.1,460,332.8,460.1,287.7z"/>
<path class="st2" d="M258.7,428.8c23.8,0,43.2-7.5,43.2-16.8c0-9.2-19.4-16.8-43.2-16.8c-23.8,0-43.2,7.5-43.2,16.8
	C215.4,421.2,234.8,428.8,258.7,428.8z"/>
<path class="st2" d="M261.3,421.4c14.8,0,26.9-5,26.9-11c0-6.1-12.1-11-26.9-11s-26.9,5-26.9,11
	C234.2,416.4,246.4,421.4,261.3,421.4z"/>
<path class="st2" d="M49.6,365.8c-9,1-15.5,4.1-15.5,7.8c0,4.5,9.8,8.2,21.9,8.2c12.1,0,21.9-3.7,21.9-8.2c0-3.4-5.5-6.3-13.4-7.5"
	/>
<path class="st2" d="M137.1,353.3c9,2.6-14.7,17.8-39.9,13.4"/>
<path class="st2" d="M31.4,380.3C36,386,48,390,64.1,388.1"/>
<path class="st2" d="M148.3,351.6c4.5,3.7,1.8,11.5-8,14.6"/>
<path class="st2" d="M360.5,317.5c-3.2,3.7-17,6.4-22.4,0.3"/>
<path class="st2" d="M282.7,342.9c-2.8,3.3-14.8,5.5-19.5,0.2"/>
<path class="st2" d="M181.3,366.8c-1.9,2.2-10,3.7-13.2,0.2"/>
<path class="st2" d="M205.4,313.4c-1.9,2.2-10,3.7-13.2,0.2"/>
<path class="st2" d="M251.5,284.9c-1.5,1.7-7.7,2.9-10.1,0.1"/>
<path class="st2" d="M400.3,307.9c-2.7,2.3-9,4.6-15.7,1.1"/>
<path class="st2" d="M382.7,299.8c-32.9,10.8-36.2-7.3-56-7.2c-13.9-0.1-20.2,10-32,10.4"/>
<path class="st2" d="M442.2,297.9c-22.4,11.3-26.3-3.8-50,0"/>
<path class="st0" d="M135.2,71.1c-1.8-4.8-13.1-9.6-17.7-7.8l-0.6,0.7l0.7,0.6C122.2,68.9,129.6,77.3,135.2,71.1z M136.3,64.2
	c-4.1-1.8-10.7-14.5-6.2-14.5C136.9,49.7,138.7,61.8,136.3,64.2z M21.7,195.5c-2.7,1-11.3-1.7-9.3-3.7
	C15.4,188.7,21.7,193.3,21.7,195.5z M22.1,198.4c2.4,5.7-5.6,8-9.9,9.8l-0.6,0.3l-0.3-0.6C11.5,204.1,18.3,198.1,22.1,198.4z"/>
<path class="st3" d="M260,65.2c2.5,2.2,14.5-0.3,14.1-7.1C273.9,53.6,261.6,61,260,65.2z M253,57.3c-0.2-0.2-0.4-0.3-0.5-0.5
	c-3.2,0-10.8-7-7.6-12c1.3-2,4.2,1.3,6.1,5.1c1.3-3.8,5.1-7.7,7.4-10.7l0.6-0.7l0.7,0.6C261.9,43.6,257.7,55.1,253,57.3z"/>
</svg>
