<?xml version="1.0" encoding="utf-8"?>
<!-- Generator: Adobe Illustrator 21.1.0, SVG Export Plug-In . SVG Version: 6.00 Build 0)  -->
<svg version="1.1" id="Layer_1" xmlns="http://www.w3.org/2000/svg" xmlns:xlink="http://www.w3.org/1999/xlink" x="0px" y="0px"
	 viewBox="0 0 483 447" style="enable-background:new 0 0 483 447;" xml:space="preserve">
<style type="text/css">
	.st0{fill-rule:evenodd;clip-rule:evenodd;fill:#DBEAB4;}
	.st1{fill-rule:evenodd;clip-rule:evenodd;fill:#E1F4FD;}
	.st2{fill-rule:evenodd;clip-rule:evenodd;fill:#FAA74A;}
	.st3{fill-rule:evenodd;clip-rule:evenodd;fill:#F58345;}
	.st4{fill-rule:evenodd;clip-rule:evenodd;fill:#D58F5C;}
	.st5{fill-rule:evenodd;clip-rule:evenodd;fill:#D2AB67;}
	.st6{fill:none;stroke:#FFFFFF;stroke-width:1.7012;stroke-linecap:round;stroke-linejoin:round;stroke-miterlimit:22.9256;}
	.st7{fill-rule:evenodd;clip-rule:evenodd;fill:#BB7446;}
	.st8{fill-rule:evenodd;clip-rule:evenodd;fill:#A16044;}
	.st9{fill-rule:evenodd;clip-rule:evenodd;fill:#F18A2E;}
	.st10{fill-rule:evenodd;clip-rule:evenodd;fill:#EBB081;}
	.st11{fill-rule:evenodd;clip-rule:evenodd;fill:#E7D3B2;}
	.st12{fill-rule:evenodd;clip-rule:evenodd;fill:#FED1A2;}
	.st13{fill:none;stroke:#823436;stroke-width:1.7012;stroke-linecap:round;stroke-linejoin:round;stroke-miterlimit:22.9256;}
	.st14{fill-rule:evenodd;clip-rule:evenodd;fill:#FABFBF;}
	.st15{fill:none;stroke:#E07D7D;stroke-width:1.7012;stroke-linecap:round;stroke-linejoin:round;stroke-miterlimit:22.9256;}
	.st16{fill-rule:evenodd;clip-rule:evenodd;fill:#F7A1A1;}
	.st17{fill-rule:evenodd;clip-rule:evenodd;fill:#4D4D4F;}
	.st18{fill:none;stroke:#000000;stroke-width:1.7011;stroke-linecap:round;stroke-linejoin:round;stroke-miterlimit:22.9256;}
	.st19{fill-rule:evenodd;clip-rule:evenodd;fill:#FFFFFF;}
	.st20{fill-rule:evenodd;clip-rule:evenodd;fill:#A5C3D2;}
	.st21{fill-rule:evenodd;clip-rule:evenodd;}
	.st22{fill-rule:evenodd;clip-rule:evenodd;fill:#F6D864;}
	.st23{fill-rule:evenodd;clip-rule:evenodd;fill:#EEBF32;}
	.st24{fill:none;stroke:#CC692E;stroke-width:1.7012;stroke-linecap:round;stroke-linejoin:round;stroke-miterlimit:22.9256;}
	.st25{fill:none;stroke:#C67733;stroke-width:1.7012;stroke-linecap:round;stroke-linejoin:round;stroke-miterlimit:22.9256;}
	.st26{fill:none;stroke:#E0902F;stroke-width:1.7012;stroke-linecap:round;stroke-linejoin:round;stroke-miterlimit:22.9256;}
	.st27{fill-rule:evenodd;clip-rule:evenodd;fill:#F6ADCD;}
	.st28{fill-rule:evenodd;clip-rule:evenodd;fill:#F9A57B;}
	.st29{fill:none;stroke:#A82E31;stroke-width:1.7012;stroke-linecap:round;stroke-linejoin:round;stroke-miterlimit:22.9256;}
	.st30{fill:none;stroke:#A66D3F;stroke-width:1.7012;stroke-linecap:round;stroke-linejoin:round;stroke-miterlimit:22.9256;}
	.st31{fill-rule:evenodd;clip-rule:evenodd;fill:#C7EAFB;}
	.st32{fill:none;stroke:#A7A9AC;stroke-width:1.7012;stroke-linecap:round;stroke-linejoin:round;stroke-miterlimit:22.9256;}
	.st33{fill-rule:evenodd;clip-rule:evenodd;fill:#A82E31;}
	.st34{fill-rule:evenodd;clip-rule:evenodd;fill:#ED1C24;}
	.st35{fill-rule:evenodd;clip-rule:evenodd;fill:#CF2A30;}
	.st36{fill:none;stroke:#AB2930;stroke-width:1.7012;stroke-linecap:round;stroke-linejoin:round;stroke-miterlimit:22.9256;}
	.st37{fill-rule:evenodd;clip-rule:evenodd;fill:#FFE293;}
	.st38{fill:none;stroke:#C6863F;stroke-width:1.7012;stroke-linecap:round;stroke-linejoin:round;stroke-miterlimit:22.9256;}
	.st39{fill:none;stroke:#939598;stroke-width:1.7012;stroke-linecap:round;stroke-linejoin:round;stroke-miterlimit:22.9256;}
	.st40{fill:none;stroke:#ED1651;stroke-width:8.5058;stroke-linecap:round;stroke-linejoin:round;stroke-miterlimit:22.9256;}
	.st41{fill:none;stroke:#E95F60;stroke-width:1.7012;stroke-linecap:round;stroke-linejoin:round;stroke-miterlimit:22.9256;}
	.st42{fill-rule:evenodd;clip-rule:evenodd;fill:#FFF1AB;}
	.st43{fill-rule:evenodd;clip-rule:evenodd;fill:#CAE197;}
</style>
<path class="st0" d="M404.9,109.5c16.6-5.1,30.4,17,8,33.6l-37.4,46.3l-29,30.3c69.1,18.1,62.6,61.2,5.3,46
	c-15.7-4.3-25.7-6.8-31.8-7.8c3.4,3.8,4.2,8.2,2.5,12.4c2.5,3.4,3.6,6.8,0.3,9.5c-3.4,2.8-8.9,3.5-15.3,3.2
	c-5.8,2.5-13.3,4.5-22.5,5.6c-10.4,1.2-18.2,2.2-24.2,3.2c-0.7,4.2-4.3,6.8-9.9,8c6.6,2.7,16,6.3,12.4,12.7
	c-9.1,17.2-73,11.5-57.1,27.3c42.7,44.1-241.8,48.6-134.8-22.6L65,256.5c-25.6,9.6-31.7-6.8-21.2-20.5c-25.7,0.4-27.8-24-11.7-26.6
	c-7.9-2.3-4.9-13.1,2.2-11.8c0,0-20.1-3.4-14.8-21.5c0.2-0.8,2.2-1.8,1.4-2.5C-7.5,148,25.5,136,40.2,138.6
	c-6.7-8.9-13.7-17.5-9.2-26.5c4.9-9.8,40.1,15.9,25.4,7c-17.1-10.4-11.5-31.7,3.9-23.9c10,5.1,3.4-33.3,36.1-15.2
	c9.8-14.3,25.9,5.6,28.8,19c0,0,4.2-22.3,15.8-19.7c-1.6-6.2-1.4-13.6,6.8-17.4c0.7-0.3,8.5-0.3,8.3-1.3
	C151.3,34.2,181,41.7,181,41.7c-3.7-9,11.8-33.4,23.5-2.6c0.4,1-0.1-11.7,1.4-13.9c3.8-5.7,14.5,4.9,14.2,0.7
	c-0.7-11.6,3.5-25,12.8-25.8c15.7-1.2,18.6,13.3,16.7,15c14.4-9.6,28.2,3.4,20.4,27.9c0,0,14.8-27.2,28.8-23.3
	c9,2.5,7.8,13.6,3.2,20.9c-0.4,0.6,15.8-14.3,16.4-2.1c1.4,27.1,30-11.2,39.5,19.9c1.7,5.6,10.3-1,6.3-3.5
	c-12.3-7.6,22.5,23.6,27,42.6c0.5,2.1,11-2.7,13.1,2.1C404.4,99.6,407.1,106.9,404.9,109.5z"/>
<path class="st1" d="M460.1,287.7c6.8-59.5-84-80-124.2-81.5c-201.9-7.8-232.1,115.4-289.8,136.7c-44.8,16.6-47.9,72,39.5,66.3
	c63.8-4.1,74.5,4,116.8,22.5c100.9,44.2,162.3-19.1,128.8-45c-33.5-25.7-9.2-42.2,18.6-38.9C393.2,353.1,460,332.8,460.1,287.7z"/>
<path class="st2" d="M286.4,140.2c-8.8,10.4-18.2,13.2-28.6,4.8c-10.2-11.2-14.7-20.7-11.1-27.6c4.8-3.1,14.3,6.2,21.4,9.3
	c6.4-7.9,18.6-17.5,22.2-15.1C295.9,114.9,290.5,135.1,286.4,140.2z"/>
<path class="st3" d="M286.4,140.2c-8.8,10.4-9.5,17.3-19.9,8.9c-9.7-5.2-14.5-13.8-10.9-20.8c4.8-3.1,8.6,2.3,15.8,5.4
	c4.6,2.2,15.3-19.5,18.9-17.2C295.9,120,290.5,135.1,286.4,140.2z"/>
<path class="st4" d="M61.3,171.8l-0.1-8.3c2.1-16.6,15-15.8,20.5-11.6l11.4,19.9l-10.2,13.4l-15.2-1.6
	C64.5,179.7,62.4,175.7,61.3,171.8z"/>
<path class="st5" d="M193.6,190.5l-12.1,4.1c17.3-87.9,31.3-155.1,34.6-154C220.1,41.1,207.7,115.7,193.6,190.5z"/>
<path class="st6" d="M258.7,428.8c23.8,0,43.2-7.5,43.2-16.8c0-9.2-19.4-16.8-43.2-16.8c-23.8,0-43.2,7.5-43.2,16.8
	C215.4,421.2,234.8,428.8,258.7,428.8z"/>
<path class="st6" d="M261.3,421.4c14.8,0,26.9-5,26.9-11c0-6.1-12.1-11-26.9-11s-26.9,5-26.9,11
	C234.2,416.4,246.4,421.4,261.3,421.4z"/>
<path class="st7" d="M154.4,272c7-2,13.1-6.7,18.3-14.1c7.8-2.4,13-10,15.7-23c6.7-3.4,8.1-11.2,4.5-23.4c17-8.3,15.4-24.1,2.1-28.2
	l-1.4,7.2c-15.1,7-31,4-42,9.7l5.6,4.6c-12-5.7-18.5,2.7-30.6,15.3c-2.2-10.7-7.4-20.5-16.4-29.1c-7.1,0.6-15.1-6.1-23.9-19.9
	c-0.8,13.2-16,14.2-21.9,8.2L69,185l7.2,6.2c14.1,16.8,15.6,40.8,4.3,55.4c-25.7-1.7-39.6,31.5-77-5c-2.7,5.3-2.7,10.1-2.1,14
	c-2.2,13.2,3.5,25.6,14.6,37.5c-1.7,39.6,17.3,59.2,50.2,65.1C112.5,362.3,169.5,316.4,154.4,272z"/>
<path class="st8" d="M97.9,320.8c17.3,1,31-12.1,42.2-35c6.4,1.3,15.7-4.6,15.3-9.5l-1-4.4l-8.6,1.4c5.7-0.6,17.4-5.6,12.7-12.8
	c10.6-1.4,19.5-5.6,22.4-22.7c5.9-12.3,5.2-22.5-9.9-28.2l10.5,1.8l11.3,0.2c6.7-3.4,9-6.5,10.7-9.4c-10.7,9.4-34.3-0.3-46.4,2.8
	c13.6,10,11,30-3.8,33.9c7.1,8.9-3.1,19.7-9.5,20.2c-4.6,9.1-10.9,11.9-18.5,10.3c12.1,14.8-11.2,52.3-39.8,50l-5.4-63.3l17.8-12.5
	c17.7-46.6-20.7-51.3-33.4-64.2l4.6,5.8l7.2,6.2c14.1,16.8,15,50,3.8,64.7l5.6,63.3L97.9,320.8l5.6,10.2c-39.9,6-71.9-1.2-75.4-55.2
	c-3.3-9.9-15.4-10.5-21.5-25.4C4.4,263.6,0.4,280,16,293.3c-1.9,33.6,12.7,53.7,36.6,62.1l3.3-5.6l13.1,1.8
	c17.2-1.8,29.4-8,34.5-20.6L97.9,320.8z"/>
<path class="st4" d="M130.5,217.2c-12.4,12.3-29.7,25.3-50.4,38.8c-18.6,10.9-23.8,36.8,4,45.5c10.5,2.6,38.8-4.6,41.4-32.2
	c4.9,1.7,9.9-5,6.1-12.4c10.6-0.2,15.6-15.9,9.8-19.9C146.6,226.4,140.4,214.7,130.5,217.2z"/>
<path class="st9" d="M121.9,181.4L85.3,152c-8.2-0.3-10.6,7.9-2.2,15.1l3.3,4c3.6,5.4,8.5,13.9,16,17.8
	C109.4,192.5,114.1,192.8,121.9,181.4z"/>
<path class="st10" d="M129.6,221.6c-4.2,11.2-21,26.5-36.6,30.1C103.8,244.7,123.5,229.5,129.6,221.6z"/>
<path class="st11" d="M193.3,149.8c-1-9.6,11.1-77.9,19.2-90.5C208.7,76.7,198.6,126.6,193.3,149.8z"/>
<path class="st2" d="M134.1,161.4c-9.8-1-12.7-14.7-20.4-14.2c-7.1,0.5-11.6,9.2-17.7,10.8c-9.8-6.2-16.2-10.7-17.7,1.8
	c3.4-7.9,12.5-3.4,8.4,2c10.2,10.5,20,22.9,38,19.3c22.5-9.4,25.5-20,16.1-19L134.1,161.4z"/>
<path class="st4" d="M51.2,262.1c7.7-5.9,16.6-9.4,27.9-11.1C67,249.2,57.9,253.2,51.2,262.1z"/>
<path class="st4" d="M116.8,341.4c5.6-5.5,29.4-24.7,36.2-46.7C151.4,313,129.6,336.7,116.8,341.4z"/>
<path class="st12" d="M97.7,168.5c6,5.4,22.7,11.7,31.1,8.8C119.2,183.2,103.9,176.5,97.7,168.5z"/>
<path class="st7" d="M404.5,62.6c2.8-5.7,7.4-9.4,13.8-11l-3,4.4c25.6-14.1,40.5,28.2,12.5,36.5c3.9,3.1,5.7,8.1,6.4,13.9l-2.6-1.2
	l-1.6-2.5c5.9,12.8,3.9,26.3-0.2,39.7l5.5-4.9c0.2-4.8-0.7-10.3,5.9-15.7c5.1-3.3,4.4-13.3,10-12.8c5.7-0.8,5.9,7.3,2.1,16
	c10.4-17.3,21.4-15.8,23.8-10.6c3.8,4.4,2.7,8.6-3.4,12.6c3.9-1.8,6.9-1.7,8.1,2.6c3.2,7-10,10.8-15,16.1
	c-12.3,30.3-31.8,48.2-26.4,63.7c13.7,32.1,13.5,63.5-8,92c-9.9,1.9-18.6-2.6-27.2-4c-15-2.2-27.6,5.6-41.8,5.5
	c-22.4-0.4-28.2-20.6-55.4-4.6c-3.7-7.3-6.7-14.5-7.3-21.5l2.5,0.4c7,1.3,8-8.4-0.4-11.9c18.6-8.7,21.1-29.9,14.1-46.9
	c10.2-8.8,12.7-16-1.6-19.8c-3.1-0.9-5.1,0.9-6.1,5.4c-8.8-11.9-19.2-20.9-25.4-34.3c-17.2,3.1-29-5-24.8-24.3
	c5.5,3.5,10.8,4.8,15.9,3.8c7.3-14.1,14.5-9.7,15-3.2c13.3,7.5,25.3,20.1,39.6,22.8c-7.6-6.1-13.1-13-16.5-20.6l-1.5,4.6
	c-4.1-6.7-6.6-13.4-5.4-20.1l-1.9,5c-1.9-15.6,0.8-32.2,8.5-46.4c-6.6-1.9-16.9-8.8-14.2-18.6l-2.7,3.5c-5.1-29.6,35.8-33,36.4-10.8
	c3.4-6.4,9-10.9,17-13.5c-0.1,1.5-0.6,3.4-1.5,5.8c2-3.9,5.9-7.1,11.6-9.7c0.4,2.3-0.5,4.1-1.9,5.8
	C372.2,47.6,392.9,50.5,404.5,62.6z"/>
<path class="st8" d="M466.8,145.9c-12.3,30.3-31.8,48.2-26.4,63.7c13.7,32.1,13.5,63.5-8,92c-9.9,1.9-18.6-2.6-27.2-4
	c15.8-12,30.9-31.9,24.4-57c-4.2-20.7-7.7-37.4-0.4-46.1c9.7-10.8,22.1-26.3,23.2-36.1c-5.6-1.3-7.8-5-8.2-7.6
	C452.1,153.2,459.6,151.6,466.8,145.9z"/>
<path class="st8" d="M308,298.6c-3.7-7.3-6.7-14.5-7.3-21.5l2.5,0.4c7,1.3,8-8.4-0.4-11.9c18.6-8.7,21.1-29.9,14.1-46.9
	c10.2-8.8,12.7-16-1.6-19.8c-3.1-0.9-5.1,0.9-6.1,5.4c-6.3-8.6-14.9-18-20.7-26.3c-2.3-3.2-2.9-4.2-4.7-8c4.9-0.5,7.4-3.1,7.4-7.7
	l0.6-5.2c13.3,7.5,27.4,21.5,38.2,19.6l5.1-4.4l6.5,2.7l-5.7,31.4l-0.7,76.4c4.5,8.4,13.1,15.2,25.8,20.5
	c-11.8,0-20.8-10.5-34.3-10.5C317.8,293.5,311.6,295.5,308,298.6z"/>
<path class="st4" d="M379.8,290.2c-15.9,3.6-34.8,1.9-44.6-7.6c-20.5-19.6-22.3-52.1,0.3-76.4h58.4
	C427.5,237.2,415.3,283.5,379.8,290.2z"/>
<path class="st10" d="M405.3,171.2c-17.2,10-39.2,13.3-63.8,3.5c-9.6,2.1-20.5,20.1,2.3,40.1l3.6-4.6c-1.5,6.9,3,13.2,13.7,18.8
	C369,216.9,421.9,203.2,405.3,171.2z"/>
<path class="st7" d="M393.9,206.1c9.9,8.7,16.2,20.9,19.5,36.1c-3.3-9.1-7.3-18.2-13.3-23.4c-8.6-6.5-21.7-2.7-37.5,14.2
	c-7.1-2.2-13.7-5.3-18.3-11.9c-4.2-2.6-8.5-9.7-10.4-13.3l1.6-1.7l8.4,8.8l3.6-4.6c-1.5,6.9,3,13.2,13.7,18.8
	C369,216.9,387.9,214.8,393.9,206.1z"/>
<path class="st4" d="M405.3,171.2c-10.8,6.6-23.7,9.3-42.1,9.4c12.3,8.8,31.2-2.2,30.1,6.6c-1,10.2-19.7,29.6-35.1,33.3
	c-5-1.5-7.2-3-10.8-10.2c-1.5,6.9,3,13.2,13.7,18.8C369,216.9,421.9,203.2,405.3,171.2z"/>
<path class="st8" d="M404.8,170.7c10-13.6,12.7-18,24.9-28.2c5.6-13.6,5.7-26.8,0.2-39.7l4.3,3.6l-1.9-7.6l-4.6-6.3l10-4.7
	c2-3.8,9.8-23-12.2-23.5c3.8,14-15,13.4-21.5,3.9l0.4-5.5c-12.6-8.4-34.8-11.7-50.5-2.2c39.7-9,69.9,28.3,56.1,57.2
	c26,32.1-14.3,52.5-43.9,52.8c-30.8,0.1-46.4-12.2-51.3-31.8c-1.2,15.1,15.3,30.8,28.5,36.8C361.4,183.4,391.7,180.7,404.8,170.7z"
	/>
<path class="st13" d="M427.7,92.5c3.4,2.6,6.2,10,6.4,13.9c-1.8-0.1-2.5-0.5-4.3-3.6c5.8,12.7,4.1,26.6,0.7,38.2 M404.1,68.1
	c-1.8-6.5,4.6-13.6,14.2-16.5l-3,4.4c8.1-7.2,23.5-2.8,27.4,12.3c3.3,13.5-7.2,23.9-19.2,25 M341.5,174.7
	c-12.4-3.8-24.3-15.1-28.5-26.3l-1.5,4.6c-4.1-6.7-6.6-13.4-5.4-20.1l-1.9,5c-2.7-17.3,0.8-32.2,8.5-46.4
	c-6.6-1.9-16.9-8.8-14.2-18.6l-2.7,3.5c-5.1-29.6,35.8-33,36.4-10.8c3.4-6.4,9-10.9,17-13.5c-0.1,1.5-0.6,3.4-1.5,5.8
	c2-3.9,5.9-7.1,11.6-9.7c0.4,2.3-0.5,4.1-1.9,5.8c15.1-6.5,35.7-3.6,47.3,8.5"/>
<path class="st13" d="M356.8,178.5c13.7,3.9,34.6,1.2,47.7-7.3c8.9-13.3,13.8-19.4,30-32.7"/>
<path class="st13" d="M316.5,130.2c-1.2,0.2-2,1.6-2.5,2.8 M418.3,118.4c1.5,0,2.9,1.6,3.8,2.9 M418.9,112.6c1.8,0,2.8,1.1,3.4,1.9
	 M313,123.7c-1.2,0-2.3,1.3-3,2.3"/>
<path class="st13" d="M432.1,276c0.2-1.2-1.1-3.1-2.4-3.8 M423,291.1c0.5-1.6-0.6-4.3-2.1-5.5 M436.1,261.2
	c-0.1-0.8-1.2-1.8-2.1-2.1 M428.1,283.7c0.3-1.1-0.7-2.9-1.7-3.6"/>
<path class="st13" d="M339.3,189.1c-1.4,0.1-3,1.7-3.7,3.2 M342.8,193.4c-1.1,1.5-1.8,3.8-1.5,5.2 M349,202.9
	c0.5-0.6,0.6-2.1,0.1-2.9"/>
<path class="st14" d="M322.6,80.7c7.4-6.4-0.2-17-11.4-18.2l1.5,4.7l-3.8-0.8C306.1,75.2,313.9,88.2,322.6,80.7z"/>
<path class="st15" d="M322.6,80.7c7.4-6.4-0.2-17-11.4-18.2l1.5,4.7l-3.8-0.8C306.1,75.2,313.9,88.2,322.6,80.7z"/>
<path class="st14" d="M418.3,65.8l-0.1,4.8l7.4-6.3c10.1,13.3-3.9,24.1-10,20.5C409.9,81.3,406.7,73.2,418.3,65.8z"/>
<path class="st15" d="M418.3,65.8l-0.1,4.8l7.4-6.3c10.1,13.3-3.9,24.1-10,20.5C409.9,81.3,406.7,73.2,418.3,65.8z"/>
<path class="st8" d="M377.1,151.6l-11-5.7l-11,5.9C359.2,162.3,373.2,162.8,377.1,151.6z"/>
<path class="st16" d="M373.1,150.5l-3.7-1.9l-3.3-2.7l-3,2.6l-3.9,2.1C361.5,157.7,370.8,157.5,373.1,150.5z"/>
<path class="st4" d="M366.1,145.9l0.1-4.6L366.1,145.9c-6.8,8.6-20.7,9.4-26.5,1.5c-10.6-17.2,7.3-30.1,26.9-30
	c21-0.2,37.6,16.8,27.4,29.4C386.1,156.1,372.5,153.4,366.1,145.9z"/>
<path class="st10" d="M366.3,140.8c-3.6,8-13.1,13.6-24.2,9.1c8.1,4.9,16.1,3.6,24.1-4L366.3,140.8z M339.6,147.4
	c-10.6-17.2,7.3-30.1,26.9-30c21-0.2,37.6,16.8,27.4,29.4C401.7,113.5,325.9,110.8,339.6,147.4z"/>
<path class="st13" d="M355,152.5c4.2,9.5,18.3,10,22-0.2 M359.2,151.2c2.7,6.2,12,6.1,13.9-0.2 M366.2,141.3l-0.1,4.6
	c-6.8,8.6-20.7,9.4-26.5,1.5c-11-16.4,7.3-30.1,26.9-30c21-0.2,37.6,16.8,27.4,29.4c-7.8,9.3-21.4,6.6-27.8-0.9"/>
<path class="st13" d="M335.1,282.6c-21-18.2-21.6-53.7,0.3-76.4"/>
<ellipse transform="matrix(1.264489e-02 -0.9999 0.9999 1.264489e-02 232.3467 492.6105)" class="st7" cx="365.6" cy="128.7" rx="6.8" ry="14.3"/>
<ellipse transform="matrix(1.250645e-02 -0.9999 0.9999 1.250645e-02 234.8586 493.0412)" class="st17" cx="367.1" cy="127.6" rx="5.8" ry="13.7"/>
<ellipse transform="matrix(1.250645e-02 -0.9999 0.9999 1.250645e-02 234.8586 493.0412)" class="st18" cx="367.1" cy="127.6" rx="5.8" ry="13.7"/>
<path class="st7" d="M385.2,132.4c-1,0.2-1.6,1-1.4,1.9c0.2,0.9,1.2,1.5,2.2,1.3c1-0.2,1.6-1,1.4-1.9
	C387.1,132.8,386.2,132.2,385.2,132.4z M354,135c1,0.2,1.6,1.1,1.4,2c-0.2,0.9-1.2,1.4-2.2,1.2c-1-0.2-1.6-1.1-1.4-2
	C352,135.3,353,134.8,354,135z M379.1,135.3c-1,0.2-1.6,1-1.4,1.9c0.2,0.9,1.2,1.5,2.2,1.3c1-0.2,1.6-1,1.4-1.9
	C381,135.7,380.1,135.1,379.1,135.3z M347.9,137.5c1,0.2,1.6,1.1,1.4,2c-0.2,0.9-1.2,1.4-2.2,1.2c-1-0.2-1.6-1.1-1.4-2
	C346,137.8,347,137.3,347.9,137.5z M385,138c-1,0.2-1.6,1-1.4,1.9c0.2,0.9,1.2,1.5,2.2,1.3c1-0.2,1.6-1,1.4-1.9
	C387,138.4,386,137.8,385,138z M347.9,131.9c1,0.2,1.6,1.1,1.4,2c-0.2,0.9-1.2,1.4-2.2,1.2c-1-0.2-1.6-1.1-1.4-2
	C346,132.2,347,131.7,347.9,131.9z"/>
<path class="st19" d="M345.1,96.5c5.5,0.6,9.6,5.7,9.2,11.3c-0.4,5.6-5.2,9.6-10.7,9c-5.5-0.6-9.6-5.7-9.2-11.3
	C334.8,99.9,339.6,95.8,345.1,96.5z"/>
<path class="st19" d="M389.4,95.7c5.5,0.6,9.6,5.7,9.2,11.3c-0.4,5.6-5.2,9.6-10.7,9c-5.5-0.6-9.6-5.7-9.2-11.3
	C379.1,99.2,383.9,95.1,389.4,95.7z"/>
<path class="st20" d="M345.9,101.7c3.6,1.8,5.2,6.2,3.4,9.9c-1.7,3.7-6.1,5.3-9.7,3.5c-3.6-1.8-5.2-6.2-3.4-9.9
	C337.9,101.5,342.3,99.9,345.9,101.7z"/>
<path class="st20" d="M390.2,101c3.6,1.8,5.2,6.2,3.4,9.9c-1.7,3.7-6.1,5.3-9.7,3.5c-3.6-1.8-5.2-6.2-3.4-9.9
	C382.2,100.8,386.6,99.2,390.2,101z"/>
<path class="st13" d="M354.1,105.2c0.7,5.6-3.1,10.8-8.5,11.5c-5.4,0.7-10.4-3.2-11.1-8.9c-0.7-5.6,3.1-10.8,8.5-11.5
	C348.5,95.6,353.4,99.6,354.1,105.2z"/>
<path class="st13" d="M398.5,104.6c0.7,5.6-3.1,10.8-8.5,11.5c-5.4,0.7-10.4-3.2-11.1-8.9c-0.7-5.6,3.1-10.8,8.5-11.5
	C392.8,95,397.8,99,398.5,104.6z"/>
<circle class="st21" cx="342.3" cy="108.8" r="4.8"/>
<circle class="st21" cx="386.6" cy="108.2" r="4.8"/>
<path class="st19" d="M346.3,104.7c1.2,0.3,1.9,1.4,1.7,2.5c-0.2,1.1-1.4,1.8-2.5,1.6c-1.2-0.3-1.9-1.4-1.7-2.5
	C344,105.1,345.1,104.4,346.3,104.7z"/>
<path class="st2" d="M246.1,233.7l10.1-55.6c-8.5,1.8-16.1,6.6-13.8,16.7c-7.3,6-8.6,13.2-3.5,21.1
	C232.8,226.4,239.6,231.4,246.1,233.7z"/>
<path class="st3" d="M304,197.2l-15.8-19.6c8.5,1.7,9.3,0.1,9.7,8.8C306.8,189,305.8,188.2,304,197.2z"/>
<path class="st22" d="M263.3,166c5.8,5,12.6,6.3,20.5,3.9c9.8,21.3,27.1,30,33,48.6c8.7,20.6,1.8,39.1-14.1,46.9l-18.2,3.7
	c-13.1-0.6-26.5-8-34.2-23.8C240.2,225.1,242.1,198.3,263.3,166z"/>
<path class="st23" d="M263.3,166c5.8,5,12.6,6.3,20.5,3.9c9.8,21.3,27.1,30,33,48.6c8.7,20.6,1.8,39.1-14.1,46.9
	c-12.3,0.8-21.7-2.3-24.6-13.7l14.2,4.2c19.8-13.5,16-43.1-6.2-48.5c-14.4,0.8-23.1,7.1-26.2,18.9c-3.4-12.9,2.8-28.5,10.5-28.1
	C257.5,196,256.2,178,263.3,166z"/>
<path class="st19" d="M390.6,104c1.2,0.3,1.9,1.4,1.7,2.5c-0.2,1.1-1.4,1.8-2.5,1.6c-1.2-0.3-1.9-1.4-1.7-2.5
	C388.3,104.5,389.4,103.8,390.6,104z"/>
<path class="st13" d="M437.8,145.8c-4.7-7.6-3.3-18,4.1-24.7c5.8-6.1,2.6-11.7,9.2-12c5.8,0.6,4.3,6.9,2.1,16
	c4-7.4,17.2-20.2,23.8-10.6c4.2,5.2,2,9.1-3.1,12.3c5.4-2,7.5,0.1,8.1,4c1,6.1-10.6,9.6-15.2,15c-6.9,20.5-33,50.3-26.4,63.7
	c12.9,32.1,11.6,69.8-8,92"/>
<path class="st13" d="M477,114.6c-4.8,2.5-11.4,7.7-14.3,11.4"/>
<path class="st24" d="M288.2,177.6c8.5,1.7,9.3,0.1,9.7,8.8c8.9,2.6,7.9,1.8,6.1,10.9"/>
<path class="st2" d="M312.7,220.1l-4.7-5.5c-0.1-8.9,2.3-17.5,7.3-15.8c7.3,1.7,12.3,5.8,9,11.3C321.2,215,317.7,219.4,312.7,220.1z
	"/>
<path class="st24" d="M256.2,178c-8.5,1.8-16.1,6.6-13.8,16.7c-7.3,6-8.6,13.2-3.5,21.1c-6,10.6,0.7,15.5,7.1,17.8"/>
<path class="st13" d="M479.1,120.8c-2.5,4.6-7.7,8-11.6,11.2"/>
<path class="st13" d="M458.4,123c4.9,2.6,7.9,6.5,9.7,11.4"/>
<path class="st13" d="M341.5,174.7c-13.5,3.6-17.4,24.2,2.3,40.1l3.6-4.6c-1.5,6.9,3,13.2,13.7,18.8c7.8-12.2,59.9-25.9,43.3-57.9"
	/>
<path class="st13" d="M329.5,169c-14.1-3.6-27.9-16.2-39.6-22.8"/>
<path class="st13" d="M393.9,206.1c33.6,31.1,21.7,78.2-15,84"/>
<path class="st25" d="M287.1,269.2c-12.9,0.5-29.7-8.2-36.8-23.8c-10-20.1-8.2-46.9,12.9-79.3 M316.8,218.6c1.8,4.3,3,8.5,3.6,13.5
	c1.9,16-7.1,28.5-18.6,34.1 M309.2,204.2c-8.5-12.6-19.1-21.3-25.4-34.3"/>
<path class="st13" d="M283.8,169.9c-16.4,4.1-29.3-5.5-24.9-24.1"/>
<path class="st24" d="M275.1,129.1c-9.4-0.9-23.2-16-28.4-11.7c-6.4,5.4,8.4,37.2,28.2,32"/>
<path class="st24" d="M268.1,126.7c6.4-7.9,18.6-17.5,22.2-15.1c5.6,3.3,0.2,23.6-3.9,28.7"/>
<path class="st26" d="M258.7,205c1-7.5,8.1-10.3,11.8-6.7c2.3-5.4,8.5-6.3,12.5-2.9c2.3-5.4,8.4-4.4,11-0.8"/>
<path class="st26" d="M261.3,189.7c1.4-5,6.9-5.4,9.5-2c2.2-4.4,7.6-5.1,11-1.2"/>
<path class="st24" d="M308,214.6c-0.1-8.9,2.3-17.5,7.3-15.8c7.3,1.7,12.3,5.8,9,11.3c-3,5-6.5,9.4-11.5,10"/>
<path class="st19" d="M287.5,257.2c5.9,0,10.7-4.8,10.7-10.7c0-5.9-4.8-10.7-10.7-10.7s-10.7,4.8-10.7,10.7
	C276.8,252.4,281.6,257.2,287.5,257.2z"/>
<path class="st26" d="M287.5,257.2c5.9,0,10.7-4.8,10.7-10.7c0-5.9-4.8-10.7-10.7-10.7s-10.7,4.8-10.7,10.7
	C276.8,252.4,281.6,257.2,287.5,257.2z"/>
<path class="st21" d="M287.5,250.9c2.4,0,4.3-1.9,4.3-4.3c0-2.4-1.9-4.3-4.3-4.3c-2.4,0-4.3,1.9-4.3,4.3
	C283.2,248.9,285.1,250.9,287.5,250.9z"/>
<path class="st27" d="M303.2,266.7c-6.7-2.5-12.4-1.4-17,3.4c-4.1,4.3-5.2,9.6-2.1,11.8c3,2,8.4,0.3,11.1-8c4.7,4.1,10,5.1,12.6,2.4
	C310.6,274,309.3,268.7,303.2,266.7z"/>
<path class="st8" d="M122.4,208.1l4.3,12.1c9.3-5.4,14-20.2,27.9-16.3l-2.9-3.6c9.9-5.8,19.9-3.7,29.8-5.6l2.5-12.8
	C161.5,181.1,143.5,188.2,122.4,208.1z"/>
<path class="st28" d="M107.5,367.5c4,0.2,9.7-0.7,17-2.7c-3.8-4-7.2-9.4-9.7-17.8l-11.3,5.4C103.8,357.7,105.5,364.2,107.5,367.5z"
	/>
<path class="st13" d="M300.7,277.2c0.9,8.2,5.4,17.3,7.3,21.3"/>
<path class="st29" d="M103.4,352.3c0.4,5.4,2.1,11.9,4.1,15.2"/>
<path class="st29" d="M114.7,346.9c2.5,8,5.6,13.3,9,17.4"/>
<path class="st30" d="M181.4,194.6c17.3-87.9,31.3-155.1,34.6-154c4,0.5-8.3,75.2-22.5,149.9"/>
<path class="st7" d="M129.1,146l-3,1.5c-0.6-11.7-2.9-19.6-7.4-22.1c-3.3,0.8-5.2,9.6-6.4,22l-13.4,9.4c-1-17.6-3.6-31.3-11.4-31.5
	c-5.6,1.2-10,10.1-13.4,24.1c-8.5,1.3-12.8,6-12.9,14.1l4.2-1.5c-3.8,2.4-5.1,5.7-4.1,9.9c-12.7-13.7-10.3-45,8.2-55.9
	c-0.7-3.2-0.8-5.7,0.3-6.7c2.3,0.6,4.2,2.4,5.8,5.2c0-4.7,5.2-9.8,11.5-11.2c-2.6,2.5-4,5-4.1,7.5
	C109.5,102.4,129.8,125.9,129.1,146z"/>
<path class="st8" d="M67.9,151.2c-4.9,2.5-6.1,7.7-6.7,12.3l4.2-1.5c-3.8,2.4-5.1,5.7-4.1,9.9c-12.7-13.7-10.3-45,8.2-55.9
	c-0.7-3.2-0.8-5.7,0.3-6.7c2.3,0.6,4.2,2.4,5.8,5.2c0-4.7,5.2-9.8,11.5-11.2c-2.6,2.5-4,5-4.1,7.5C68.1,118.5,60,139.6,67.9,151.2z"
	/>
<path class="st13" d="M193.6,190.5c-16.2,8.6-31,3.5-42,9.7c2.3,6,26.7,12.7,41.3,11.2c17.9-8.1,14.8-24.3,2.1-28.2"/>
<path class="st19" d="M98.9,156.8c-6,3.3-9.8-7.7-17.2-4.9l-7.6-2.5c1.9-12,8.7-24.4,13.4-24.1C95.5,125.7,98.2,139,98.9,156.8z"/>
<path class="st13" d="M184,181.8c-22.5-0.7-40.4,6.4-61.6,26.3"/>
<path class="st31" d="M78.7,150.2l3.7,1.6c3.6-3.1,8.7,3.7,13,5.5c3.3-13-1.2-23.3-4.4-23.9C85.5,131.5,81.2,138.7,78.7,150.2z"/>
<ellipse class="st21" cx="91" cy="148.7" rx="5" ry="5"/>
<ellipse class="st19" cx="87.6" cy="145" rx="2.5" ry="2.5"/>
<path class="st13" d="M80.1,256.1c21.6-14.4,41.3-29.6,57.1-46.2c6.3-6.9,13.4-8.4,21.2-4.4"/>
<path class="st13" d="M192.8,211.4c7.4,20.3-2.8,27.8-29.9,28.3"/>
<path class="st6" d="M49.6,365.8c-9,1-15.5,4.1-15.5,7.8c0,4.5,9.8,8.2,21.9,8.2c12.1,0,21.9-3.7,21.9-8.2c0-3.4-5.5-6.3-13.4-7.5"
	/>
<path class="st13" d="M188.4,234.9c-2.6,20.6-17.7,29.3-44.5,24.2"/>
<path class="st13" d="M172.7,257.8c-11.5,16.6-27.8,18.9-47.3,11.6"/>
<path class="st13" d="M110.3,191.1c7.9,7.3,13.5,18.1,16.4,29.1"/>
<path class="st13" d="M81.7,151.9c-11-7.2-20.6,2.5-20.5,11.6l4.2-1.5c-9.3,6.8-2.1,19.8,10.9,29.3c12.9,14.8,15.9,39.5,4.3,55.4
	c-25.7-1.7-41.2,32.6-77-5c-5.4,12.7-0.8,22.2,6.5,30.9"/>
<path class="st13" d="M66.3,358.3c46.2,4,103.2-42,88.1-86.3 M1.5,255.8c-2.9,13.6,6.8,29.8,14.6,37.5c-2,33.7,14.5,54.5,36.6,62.1"
	/>
<path class="st13" d="M145.8,273.3c-14.6,36.4-34.4,52.5-60.1,46.1"/>
<path class="st19" d="M126.1,147.5l-5.2,3c-2-2.9-4.8-3.9-8.6-3.1c0.8-11.9,3.5-21.9,6.4-22C123.1,127.1,126.7,137.8,126.1,147.5z"
	/>
<path class="st28" d="M48.3,377.9c11.3,3.8,22.6-2.1,18.6-4.1c-4.3-3.7-2.9-11.5,2.3-22.3l-7.8-0.2l-5.5-1.6
	C49.2,364.1,47.1,372.3,48.3,377.9z"/>
<path class="st29" d="M69,351.6c-5.3,11.6-5.5,18.6-2.1,22.3"/>
<path class="st4" d="M134.1,161.4c-9.5-1.9-8.8-7.2-13.2-10.8C132.8,141.7,138,149.7,134.1,161.4z"/>
<path class="st29" d="M55.9,349.8c-7.7,13.7-7.9,21.5-7.8,27"/>
<path class="st6" d="M137.1,353.3c9,2.6-14.7,17.8-39.9,13.4"/>
<path class="st31" d="M115.2,147.1l4.3,1.8c2.4,3.3,3.7-2.6,6.6-1.4c0-8.8-2.9-15.5-5.1-15.8C117.3,130.4,115.2,139.3,115.2,147.1z"
	/>
<circle class="st21" cx="121.6" cy="145.3" r="4.2"/>
<path class="st6" d="M31.4,380.3C36,386,48,390,64.1,388.1"/>
<circle class="st19" cx="118.8" cy="142.1" r="2.1"/>
<path class="st6" d="M148.3,351.6c4.5,3.7,1.8,11.5-8,14.6"/>
<path class="st6" d="M360.5,317.5c-3.2,3.7-17,6.4-22.4,0.3"/>
<path class="st6" d="M282.7,342.9c-2.8,3.3-14.8,5.5-19.5,0.2"/>
<path class="st6" d="M181.3,366.8c-1.9,2.2-10,3.7-13.2,0.2"/>
<path class="st6" d="M205.4,313.4c-1.9,2.2-10,3.7-13.2,0.2"/>
<path class="st6" d="M251.5,284.9c-1.5,1.7-7.7,2.9-10.1,0.1"/>
<path class="st6" d="M400.3,307.9c-2.7,2.3-9,4.6-15.7,1.1"/>
<path class="st19" d="M264.2,420.1l23.4-14.5c1.7,3.1,3.6,7.4,4.1,10.9C278.8,423.9,267.5,424,264.2,420.1z"/>
<path class="st13" d="M61.3,171.8c-12.7-13.7-10.3-45,8.2-55.9c-0.7-3.2-0.8-5.7,0.3-6.7c2.3,0.6,4.2,2.4,5.8,5.2
	c0-4.7,5.2-9.8,11.5-11.2c-2.6,2.5-4,5-4.1,7.5c26.4-8.3,46.8,15.3,46.1,35.3"/>
<path class="st32" d="M286.3,402.8c1.7,3.1,4.8,10.2,5.3,13.6c-8.7,7.5-25,9.5-29.1,1.8"/>
<path class="st29" d="M121.9,181.4c-7.4,14.5-20.5,13.9-35.5-10.3"/>
<path class="st29" d="M87.7,157.9c0.9,2.8-1.8,6.1-4.8,4.3"/>
<path class="st33" d="M111.6,159.8c1.5,0,2.8-1.3,2.8-2.8s-1.3-2.8-2.8-2.8s-2.8,1.3-2.8,2.8S110,159.8,111.6,159.8z"/>
<path class="st13" d="M120.9,150.5c11.9-8.8,17.1-0.9,13.2,10.8"/>
<path class="st13" d="M74.1,149.4c1.9-12,8.7-24.4,13.4-24.1c8,0.4,10.6,13.7,11.4,31.5"/>
<path class="st13" d="M112.3,147.5c0.8-11.9,3.5-21.9,6.4-22c4.4,1.6,8.1,12.3,7.4,22.1"/>
<path class="st34" d="M286,402.3c-0.6-1.2,2.9,4.4-1.1-1.8c-4-6.2-18.5-16.8-25-12.6c-6.5,4.3-2.8,21.6,1.3,28
	c4.1,6.3,0.4,1,1.5,2.2C266.9,423.6,290.2,410.1,286,402.3z"/>
<path class="st35" d="M286,402.3c0.4,0.5-14.2,17.5-19.4,9.1c-5.2-8.4,4.4-20.3-5.2-21.4c-9.6-1.1-4.3,19.6-0.2,26
	c4.1,6.3,0.4,1,1.5,2.2C266.9,423.6,290.2,410.1,286,402.3z"/>
<path class="st36" d="M286,402.3c-0.6-1.2,2.9,4.4-1.1-1.8c-4-6.2-18.5-16.8-25-12.6c-6.5,4.3-2.8,21.6,1.3,28
	c4.1,6.3,0.4,1,1.5,2.2C266.9,423.6,290.2,410.1,286,402.3z"/>
<path class="st37" d="M247.5,371.6c1.6-1.1,4-0.4,5.4,1.6l11.4,16.4c1.9,2.5-3.8,6.3-5.7,4l-11.4-16.4
	C245.8,375.2,245.9,372.7,247.5,371.6z"/>
<path class="st38" d="M247.5,371.6c1.6-1.1,4-0.4,5.4,1.6l11.4,16.4c1.9,2.5-3.8,6.3-5.7,4l-11.4-16.4
	C245.8,375.2,245.9,372.7,247.5,371.6z"/>
<path class="st39" d="M216.8,44c5.6,99.1-15.8,350,41.6,337.5"/>
<path class="st40" d="M216.8,44c3.9,68.9-5.3,211.1,8.1,287.3"/>
<path class="st13" d="M291.2,162.2c-4.7,3.6-9.9,4.1-15.5,1.5"/>
<path class="st13" d="M346.1,289.1c5.9,2.3,16.5,3.5,24.6,2.6"/>
<path class="st4" d="M345.9,82.4c-5-0.1-9.6,3.5-9.1,6c0.9,4.6,5.8,0,9,0.1c2.6,0.1,3.7,2.1,6,2.2C357,90.9,356,82.5,345.9,82.4z"/>
<path class="st13" d="M345.9,82.4c-5-0.1-9.6,3.5-9.1,6c0.9,4.6,5.8,0,9,0.1c2.6,0.1,3.7,2.1,6,2.2C357,90.9,356,82.5,345.9,82.4z"
	/>
<path class="st4" d="M399.1,87c-3.9-2.5-9.3-1.9-10.1,0.2c-1.5,4,4.6,2.8,7,4.5c2,1.4,1.9,3.5,3.6,4.7
	C403.6,99.2,406.9,92.1,399.1,87z"/>
<path class="st13" d="M399.1,87c-3.9-2.5-9.3-1.9-10.1,0.2c-1.5,4,4.6,2.8,7,4.5c2,1.4,1.9,3.5,3.6,4.7
	C403.6,99.2,406.9,92.1,399.1,87z"/>
<path class="st13" d="M125.5,269.4c4.9,1.7,9.9-5,6.1-12.4c10.6-0.2,15.6-15.9,9.8-19.9c5.3-10.7-0.9-22.3-10.8-19.9"/>
<path class="st4" d="M81.8,114.1c9.6-1.5,19.1-0.2,29.8,3.7C101.9,110.3,92,109.5,81.8,114.1z"/>
<path class="st4" d="M170.4,198.9c13.6-0.5,23.6-5.2,28.9-9.2C198.3,195.5,180.7,202.2,170.4,198.9z"/>
<path class="st13" d="M50.6,346.2c5,5.5,16.2,6.7,22.9,4.5"/>
<path class="st29" d="M86.7,161.8c21.1,25.9,43.7,24.5,57.4,6.3c2-2,1.3-6.1-1.7-6.1c-19.7,1.4-19-14.8-27.3-14.9
	c-8-0.2-15.1,11.2-19.1,10.8c-4.3-0.4-8.2-8.7-14.4-6c-4.7,3.5-5,10.4,1.4,15.2"/>
<path class="st13" d="M80.5,124.9c3.2-4.2,8.8-4.9,13.3,0"/>
<path class="st7" d="M20.1,309.6c-0.9,9.6,6.8,26.9,18.1,32.9C29.7,335.1,23.1,320.6,20.1,309.6z"/>
<path class="st6" d="M382.7,299.8c-32.9,10.8-36.2-7.3-56-7.2c-13.9-0.1-20.2,10-32,10.4"/>
<path class="st6" d="M442.2,297.9c-22.4,11.3-26.3-3.8-50,0"/>
<path class="st13" d="M286.4,140.2c4,2,5.3,9.1,0,15.4c-4.3,5.4-13.2,1.4-11.5-6.2C276.2,142.6,283.5,138.4,286.4,140.2"/>
<path class="st13" d="M283.8,169.9c4.6-0.7,8.2-4.7,7.4-7.7c2.1-3.5,0.4-8-3-9"/>
<path class="st41" d="M303.2,266.7c-6.7-2.5-12.4-1.4-17,3.4c-4.1,4.3-5.2,9.6-2.1,11.8c3,2,8.4,0.3,11.1-8c4.7,4.1,10,5.1,12.6,2.4
	C310.6,274,309.3,268.7,303.2,266.7z"/>
<path class="st26" d="M258.9,231.8c4.2-31.8,45.6-29.1,54.6-10.1"/>
<path class="st42" d="M257.2,249.3c-7.6-8.6-12.5-29-7.8-43.1C250.1,217.9,253.4,240.8,257.2,249.3z"/>
<path class="st10" d="M392.8,279.9c-34.3,13.1-58.7-2.5-67.1-24.7C328.2,286.9,368.5,296.9,392.8,279.9z"/>
<path class="st4" d="M320.2,93.3c-6.6,8.5-13.4,21.8-13.6,33.8C304.1,114,309.6,100.6,320.2,93.3z"/>
<path class="st4" d="M298.4,68.5c3.6-7.3,7.6-11.7,17-14.4C305.3,53.2,299.2,59.9,298.4,68.5z"/>
<path class="st4" d="M408.5,173.3c4-5.9,18.8-22.6,25.3-30.3C426.4,145.3,409.3,164.6,408.5,173.3z"/>
<path class="st40" d="M263.3,166c-21.2,32.3-22.9,59.1-12.9,79.3c7.6,15.8,21.1,23.2,34.2,23.8c20.5,2.5,40.2-16.1,36-37.1
	c-5.2-33.3-56.4-35.5-61.6-0.3"/>
<path class="st0" d="M135.2,71.1c-1.8-4.8-13.1-9.6-17.7-7.8l-0.6,0.7l0.7,0.6C122.2,68.9,129.6,77.3,135.2,71.1z M136.3,64.2
	c-4.1-1.8-10.7-14.5-6.2-14.5C136.9,49.7,138.7,61.8,136.3,64.2z M21.7,195.5c-2.7,1-11.3-1.7-9.3-3.7
	C15.4,188.7,21.7,193.3,21.7,195.5z M22.1,198.4c2.4,5.7-5.6,8-9.9,9.8l-0.6,0.3l-0.3-0.6C11.5,204.1,18.3,198.1,22.1,198.4z"/>
<path class="st43" d="M260,65.2c2.5,2.2,14.5-0.3,14.1-7.1C273.9,53.6,261.6,61,260,65.2z M253,57.3c-0.2-0.2-0.4-0.3-0.5-0.5
	c-3.2,0-10.8-7-7.6-12c1.3-2,4.2,1.3,6.1,5.1c1.3-3.8,5.1-7.7,7.4-10.7l0.6-0.7l0.7,0.6C261.9,43.6,257.7,55.1,253,57.3z"/>
<path class="st14" d="M461.9,138.8c-1.8,14.8-22.7,2.1-19.5-6.1C446.9,119.5,462.4,127,461.9,138.8z"/>
<path class="st15" d="M461.9,138.8c-1.8,14.8-22.7,2.1-19.5-6.1C446.9,119.5,462.4,127,461.9,138.8z"/>
</svg>
