<?xml version="1.0" encoding="utf-8"?>
<!-- Generator: Adobe Illustrator 21.1.0, SVG Export Plug-In . SVG Version: 6.00 Build 0)  -->
<svg version="1.1" id="Layer_1" xmlns="http://www.w3.org/2000/svg" xmlns:xlink="http://www.w3.org/1999/xlink" x="0px" y="0px"
	 viewBox="0 0 521 424" style="enable-background:new 0 0 521 424;" xml:space="preserve">
<style type="text/css">
	.st0{fill-rule:evenodd;clip-rule:evenodd;fill:#D3ECFB;}
	.st1{fill-rule:evenodd;clip-rule:evenodd;fill:#F2C98F;}
	.st2{fill-rule:evenodd;clip-rule:evenodd;fill:#E7B261;}
	.st3{fill-rule:evenodd;clip-rule:evenodd;fill:#9D60A3;}
	.st4{fill-rule:evenodd;clip-rule:evenodd;fill:#BB8EC0;}
	.st5{fill-rule:evenodd;clip-rule:evenodd;fill:#D0B2D5;}
	.st6{fill-rule:evenodd;clip-rule:evenodd;fill:#ED861A;}
	.st7{fill-rule:evenodd;clip-rule:evenodd;fill:#F6A840;}
	.st8{fill-rule:evenodd;clip-rule:evenodd;fill:#EF9F6C;}
	.st9{fill:none;stroke:#A62522;stroke-width:1.7008;stroke-linecap:round;stroke-linejoin:round;stroke-miterlimit:22.9256;}
	.st10{fill-rule:evenodd;clip-rule:evenodd;fill:#FFFFFF;}
	.st11{fill-rule:evenodd;clip-rule:evenodd;fill:#A62522;}
	.st12{fill-rule:evenodd;clip-rule:evenodd;fill:#E2D2E8;}
	.st13{fill-rule:evenodd;clip-rule:evenodd;fill:#FBD4A7;}
	.st14{fill:none;stroke:#6C3579;stroke-width:1.7008;stroke-linecap:round;stroke-linejoin:round;stroke-miterlimit:22.9256;}
	.st15{fill-rule:evenodd;clip-rule:evenodd;fill:#D0935F;}
	.st16{fill:none;stroke:#9A5732;stroke-width:1.7008;stroke-linecap:round;stroke-linejoin:round;stroke-miterlimit:22.9256;}
	.st17{fill-rule:evenodd;clip-rule:evenodd;fill:#1A1A18;}
	.st18{fill:none;stroke:#C07D29;stroke-width:1.7008;stroke-linecap:round;stroke-linejoin:round;stroke-miterlimit:22.9256;}
	.st19{fill:none;stroke:#8FAABA;stroke-width:1.7008;stroke-linecap:round;stroke-linejoin:round;stroke-miterlimit:22.9256;}
	.st20{fill-rule:evenodd;clip-rule:evenodd;fill:#F5A87D;}
	.st21{fill-rule:evenodd;clip-rule:evenodd;fill:#FBD2B6;}
</style>
<path class="st0" d="M141.8,77.2l-16.3,0.6C120.4,91.1,147.2,85.3,141.8,77.2z"/>
<path class="st1" d="M141.8,77.2c8.2-5.5,15.8-38.3,11.9-63.9l-3.3,4.5c-1-7-2.6-12-5.3-12.7l-1.8-4.2L137.4,20
	c0.5-8-0.3-13-4.1-11.5c-2.5,2.8-5.2,3.5-8.1,2c-0.8-4-2.9-8.2-6.5-3.7c-2.8-0.8-4.2,6-5.2,18.8c-1.5-11.6-4.7-12.7-5.4-7.6
	c-2.6,19.8,9.6,58.7,17.5,59.9C129.3,84,140.1,80.5,141.8,77.2z"/>
<path class="st2" d="M141.5,71.8c6.7-5.5,10-27.8,12.9-52.1l-4,5.1c-1-7-1.6-4.9-4.4-5.5l-1.8-4.2c-1.3,14.2-6.5,17.6-6.8,11.9
	c0.5-8-0.3-13-4.1-11.5c-2.5,2.8-8.6-11.4-6.1,26.3c-0.8-4-3.3-32.7-6.9-28.1c-2.8-0.8-4.7,4.6-5.7,17.3c-1.2-12.6-5.2-20.1-6.5-13
	c0.1,19.8,11.3,50.3,14.6,51.6C125.6,87.5,144.6,80.9,141.5,71.8z"/>
<path class="st3" d="M134.3,153.9l3.9,73.3l-4.5,6.8L106,189.8C117.1,189.5,127,157.4,134.3,153.9z"/>
<path class="st4" d="M133.1,176.2c-11,11.3-11.2,19,13.4,6.7c-20.8,11.8-18.7,17.5-4.1,15.2l1.2,21.9c15.3-32.9,8.3-64.9-3.7-68.1
	C117.4,181.5,129,177.5,133.1,176.2z"/>
<path class="st5" d="M29.4,237.2l48.9-14.8c24.8,18.7,19.1,39.5-11.7,62.1c-17.5,12.6-35,18.3-51.7-24.2L29.4,237.2z"/>
<path class="st4" d="M132.7,255c-9.4,55.1-60.4,82.8-99.9,55.6c48.2-34.4,60.6-52.8,55.3-73.1c-3.3-13.8-34.2-10.2-51,1
	c-7.8,4.6-14.6,10.4-19.4,18.6l-5.5,6.4C1,246.4-1.5,228,6.6,208.1l0.6,4.5l3.1-9.3c7.5,13.7,16.6,21.6,26.8,26.2
	c16.9-8.4,35.3-15.9,35.9-30.2l-27.9-24.2l13.4-13.6l24.8,12.1c14,11.5,45.7,25.8,45.9,49.1C129,219.4,140.2,245.6,132.7,255z"/>
<path class="st3" d="M27.4,235.5c-10.2,7.6-15.3,16.9-15.3,28C1,246.4-1.5,228,6.6,208.1l0.6,4.5l0.6,4.5
	C5.8,238,12,248.9,27.4,235.5z M132.7,255c-9.4,55.1-56.4,79.6-95.9,52.4C85,273,86,274.4,90.6,263.8
	C96.4,277.6,119,290.4,132.7,255z"/>
<path class="st5" d="M55.4,172.9c3.4-1.9,5.1-4.9,4.5-9.6l-8.7-15c-9.2-5.2-16.8-3.9-22.3,7.1l-1.5,3.5l6.8-4
	C20.6,164.9,39,181.2,55.4,172.9z M97.9,139.1c-7.6-0.2-10.4-4-15.6-6C91.2,123.2,97.4,126.3,97.9,139.1z"/>
<path class="st3" d="M72.9,199.3L45,175.1l10.4-2.2c21.3,14.6,32.4,30,25.3,46.7C79.7,211.9,77.1,205.1,72.9,199.3z"/>
<path class="st6" d="M90.4,158.4l-36.9-8.7l-3.8,4l0.9,2.9l3.3,2.4c3.5,0.7,12.7,11,19,14.3C80.3,177.3,89.3,174,90.4,158.4z"/>
<path class="st7" d="M97.9,139.1c-7.7,0.2-14.2-7.9-22.4-6.8c-10.6,1.7-7.3,12.8-17.4,13.7c-6,0.2-12.9,4.7-6,11.6
	c-2.1-2.7,0.7-6.3,2.5-5.4c8.2,7.8,26.2,10,35.7,6.1c17-8.8,18.9-20.4,10.9-19.5L97.9,139.1z"/>
<path class="st8" d="M104.1,306.5c-5.4,3.9-13.2,9-18.6,10.5c0.3,9.3,4.9,15.3,9.6,19c5.2,2.7,8.4,0.9,7.3-2.2
	c-0.7-2.2,0.7-5.2,3.9-3.7c2.7,1.4,7,2.2,8.4,0.4c1.3-2,0-3.4-2.1-4.8c-2.9-1.9-2.1-5.7,2.8-4.3c4.7,1.3,6.5-4.5,1.2-6.3
	C111.2,313.4,106.1,310,104.1,306.5z"/>
<path class="st9" d="M85.5,317.1c-0.4,6.6,4.2,14.6,9.6,19c4.5,3,7.7,0.9,7.3-2.8c-0.3-3.1,1.8-4.5,4.8-2.7c2.7,1.4,6.1,1.8,7.5,0
	c1.3-2,0-3.4-2.1-4.8c-2.9-1.9-2.1-5.7,2.8-4.3c4.7,1.3,6.5-4.5,1.2-6.3c-5.6-1.8-10.1-4.3-12.1-7.8"/>
<path class="st4" d="M43.4,105.3c22-10.4,42,1.5,47.4,22l-3.1,1.2l-5.4,4.7c-7.6-2.6-12.9,0.6-16.8,7.6c-2.6,7.3-10.1,3.5-14.5,7.7
	c-9.1-5.3-16.4-3.8-22.1,6.9c-7.1-15.3-8.6-33.7,4.4-44.5c-0.3-3,0.4-6.7,2.3-8.6l2.8,7.6c0-4.9,1.1-8.2,3.5-10.1
	C42.1,103.5,42.9,104.3,43.4,105.3z"/>
<path class="st3" d="M39.5,145.6c-2.4,0.8-5.4,2.2-10.6,9.8c-7.1-15.3-5.5-32.6,7.5-43.4C32.8,119.4,29.6,141.6,39.5,145.6z"/>
<path class="st10" d="M88.6,128l-6.2,5.1l-4.1-0.9h-2.7c-2.9-11.5-3.5-18.6-1.1-20.2C78.2,111.5,84.6,118.3,88.6,128z"/>
<path class="st0" d="M88.6,128l-6.2,5.1l-4.1-0.9c-2.6-7-2.6-14.6-0.2-16.1C80.8,114.6,84.6,118.3,88.6,128z"/>
<path class="st10" d="M43.8,145.7l7.2,2.8c4.8-3.8,13-0.9,14.4-7.5c-3.8-12-9.8-23.3-14.1-22.8C46.3,118.9,42.7,133.2,43.8,145.7z"
	/>
<path class="st0" d="M50,147.8l1,0.7c4.8-3.8,13-0.9,14.4-7.5c-3.8-12-7-16.7-11.3-16.3C48.5,125.5,46,140.3,50,147.8z"/>
<circle class="st11" cx="74.5" cy="140.5" r="2.8"/>
<path class="st4" d="M66.6,284.5c-25.3,20-45.6,32.7-51.3,46c-2.6,3.3-9.4-3,0.5-29.9c-4.8,3.6-9.2,14.5-12.4,14.9
	c-4.3-3.7-0.8-15.3,6.2-30.5c-4,4.3-6.8,6.4-7.8,5.5c-1.9-1.4-1.8-14.9,15.9-33.4c-1.5,3.6,2.3,7.9,9,5.1
	c-2.6,6.9,5.1,10.3,13.4,9.2C32.4,281.9,45.9,292.7,66.6,284.5z"/>
<path class="st12" d="M26.7,249.3c14.6-8.2,34.2-15.2,48.8-17.2C63.7,227.9,40.8,237.7,26.7,249.3z"/>
<path class="st13" d="M68.5,156c9,1.6,28.2-2.4,33.6-10.2C97.6,157.2,79.5,159.8,68.5,156z"/>
<path class="st14" d="M138.2,227.2l-4.5,6.8 M106,189.8c11.1-0.3,21-32.3,28.3-35.9"/>
<path class="st15" d="M139.9,151.9l-5.3,7.3l-3.9-68h5.5L139.9,151.9z M136.7,198.7l5.7-0.6l5,98.5c0.1,2.6-6,3.3-6,0.5L136.7,198.7
	z"/>
<path class="st16" d="M134.6,159.2l-3.9-68h5.5l3.7,60.7 M142.4,198.6l5,98c0.1,2.6-6,3.3-6,0.5l-4.7-98"/>
<circle class="st17" cx="58.3" cy="136" r="4.5"/>
<circle class="st17" cx="82.6" cy="125.8" r="3.9"/>
<path class="st2" d="M135.9,102.6c-2.8,10-7.4,10.6-7.6-0.1c-3.4,5.3-4.9,2.4-2-18.4c1.9,2.3,6.9,1.5,13.2-0.7
	c5,12.9,6.8,18.8,5.4,21C143.3,107.6,137.4,106.9,135.9,102.6z"/>
<circle class="st10" cx="55.7" cy="138.7" r="2.3"/>
<path class="st18" d="M139.5,83.5c5,12.9,6.8,18.8,5.4,21c-1.6,3-7.5,2.4-8.9-1.9"/>
<path class="st18" d="M126.3,84.2c-1.5,5.4-2.6,20.1-0.8,20.9c2.1,0.9,3.5-4.4,5.7-10.6"/>
<circle class="st10" cx="80.3" cy="128" r="2"/>
<path class="st18" d="M125.2,10.4c5.1,4.9,13.1-13.8,12.2,9.5l5.9-19.1c2.9,0.1,4.3,25.1,0.4,51.5"/>
<path class="st18" d="M145,5c5.7,1.8,6.3,15.9,5.1,34.5"/>
<path class="st18" d="M150.3,17.8l3.3-4.5c3.9,33.9-4.1,58.9-11.9,63.9"/>
<path class="st19" d="M125.5,77.8c-5,13.4,21.7,7.5,16.3-0.6"/>
<path class="st18" d="M129.1,100.5c-1.2,2.5-0.6,9.7,2.9,9.6c2.2,0.1,4.2-5.6,5.9-19.9"/>
<path class="st18" d="M125.5,77.8c-2.2-3.1-3.4-8.9-3.6-17.2"/>
<path class="st9" d="M56.3,151.4c-2.1,0.2-3.1,3-1.7,4.7"/>
<path class="st18" d="M126.7,17.3c-1.8-10.8-4.4-15.1-8-10.5c-2.8-0.8-4.2,6-5.2,18.8c-1.5-11.6-4.7-12.7-5.4-7.6
	c-2.6,19.8,9.6,58.7,17.5,59.9c3.8,6.2,19.8,3.6,16-5.9"/>
<path class="st14" d="M88.1,237.5c9.4,44.6-57.7,62.4-72.7,93c-4.6,8.4-10.5-19.5,9.9-45.8 M9.6,285c-4,4.3-6.8,6.4-7.8,5.5
	c-1.9-1.4-1.8-14.9,15.9-33.4c-1.5,3.6,2.3,7.9,9,5.1c-2.6,6.9,5.1,10.3,13.4,9.2c-7.6,10.5,5.9,21.3,26.6,13.1 M132.7,255
	c-9.1,57.5-64.9,81.2-99.9,55.6 M129,222.8c6.7,11.6,8.4,28.2,3.7,32.2c-1.5,0.3-3.1-1-4.6-3.9 M83.2,173.7
	c14,11.5,45.7,25.8,45.9,49.1c-1.6,1.9-4.3,1.2-8.1-2.1 M139.9,151.9c-22.5,29.5-12.9,31.3,4.8,16.2 M139.9,151.9
	c13,3.3,18.7,39,3.7,68.1 M133.1,176.2c-12.9,14.7-9.4,17.1,13.4,6.7c-20.1,10.1-20.8,19.6,0.7,14.1 M75.6,132.3
	c-2.9-11.5-3.5-18.6-1.1-20.2c3.7-0.7,10.2,6.1,14.1,15.8 M82.4,133.2c8.9-10,15.1-6.9,15.6,6 M51,148.5c-9.1-5.3-16.4-3.8-22.1,6.9
	c-7.1-15.3-8.6-33.7,4.4-44.5c-0.3-3,0.4-6.7,2.3-8.6l2.8,7.6c0-4.9,1.1-8.2,3.5-10.1c0.2,3.8,1.7,6.5,3.9,8.3 M45,175.2
	c14.9,13.7,34.1,21.3,35.7,44.4 M28.9,155.4l-1.5,3.5l6.8-4c-13.7,10.1,4.7,26.3,21.1,18 M37.1,229.5C27,226,17.4,216.6,10.3,203.3
	c-2.5,5.2-2.8,9.9-2.5,13.8l-1.2-9c-8,23.2-5.1,40.2,5.3,52.9 M72.9,199.3c-2.1,29-59.2,22.8-60.8,64.2 M90.8,127.3
	C85.7,107,63.5,95.2,44.1,105 M55.1,115.8c-4.7-3-8.2-1.6-10.6,4.1 M65.5,141c-3.8-12-9.8-23.3-14.1-22.8c-5,0.7-8.6,15.1-7.6,27.5
	 M15.8,300.6c-5.1,4.3-9.9,15.3-12.4,14.9c-3.5,0.3-3.2-24.4,17.5-45.3"/>
<path class="st9" d="M90.4,158.4c-2,21.9-16.3,20.5-31.9,3.2"/>
<path class="st9" d="M53.8,158.9c-5.1-2.1-5.6-6.9-2.8-10.4c4-3.8,11.1-0.8,13.7-5.8c2.3-6.1,6.2-9.8,10.8-10.3
	c9.6-1.6,13.8,8.7,25.7,6.5c3.6-0.7,5.6,2.1,4.1,6.1c-5.5,12.5-25.7,21.6-48.1,10"/>
<path class="st20" d="M68.6,334.2c-6-0.6-11.8-2.7-16.9-7.6c1.3-3.7,5.2-8.2,10.4-11.6c-3.9,0.9-8.6-1-13.2-3.6
	c-8.5,6.9-12.5,17.4-13.5,26.9c0.5,8.1,2.6,14.4,10.7,19.4c3.9,2.5,8.6-0.1,6.6-3.5c-1.1-2,0.4-5.4,6.4-2.5c4.4,2.1,9.7-2.3,3.2-6.4
	c-2.6-1.9,1.2-5.7,6-4.6C73.5,340.8,73.4,335.1,68.6,334.2z"/>
<path class="st9" d="M48.8,311.4c-6.8,5.7-13.2,16.8-13.5,26.9c-0.1,7.9,5.3,16.7,10.7,19.4c5,2.5,8.1-0.6,6.6-3.5
	c-1-2.2,0.7-4.3,4.1-3.3c4.3,1.6,7.1,1.9,8-0.3c1.2-2.3-0.5-4.2-2.6-5.3c-2.7-2.1,0.8-5.3,6-4.6c4.9,0.7,5.9-5.4,0.4-6.5
	c-5.9-1.1-12.5-3.4-16.8-7.5"/>
<path class="st21" d="M38,343.9c-0.2-7.1,1.6-13.7,5.4-21.1C37.2,329.1,35.7,336.2,38,343.9z"/>
<path class="st9" d="M62,315c-7.2,4.4-12.5,11.2-10.8,20.2"/>
<path class="st14" d="M44.2,307.1c6.7,7.8,14,9.5,21.7,7"/>
<path class="st5" d="M132.3,252.6c0.3-5.1-0.1-13.1-1.6-18.8C134.9,239.4,134.2,247.1,132.3,252.6z M126.8,221.2
	c-3.5-7.5-9.4-17.4-17.2-23.2C119.4,201.4,125.2,211.8,126.8,221.2z M149.9,184.6c-0.5-8.6-2.4-20.5-7.6-29
	C150.3,162.7,151.9,175,149.9,184.6z M11,209.1c3.5,7.5,11.4,15.9,18.6,19.6C21.1,228.4,13.2,220.6,11,209.1z M48.2,105.8
	c8.2-1.3,16.2-0.2,25.3,3.1C65.3,102.6,56.8,101.9,48.2,105.8z"/>
<path class="st4" d="M76.1,314.9c7.5-3,28.2-10.3,38.3-27C109,302.5,87.1,316.8,76.1,314.9z"/>
</svg>
