<?xml version="1.0" encoding="utf-8"?>
<!-- Generator: Adobe Illustrator 21.1.0, SVG Export Plug-In . SVG Version: 6.00 Build 0)  -->
<svg version="1.1" id="Layer_1" xmlns="http://www.w3.org/2000/svg" xmlns:xlink="http://www.w3.org/1999/xlink" x="0px" y="0px"
	 viewBox="0 0 521 424" style="enable-background:new 0 0 521 424;" xml:space="preserve">
<style type="text/css">
	.st0{fill-rule:evenodd;clip-rule:evenodd;fill:#BB8EC0;}
	.st1{fill-rule:evenodd;clip-rule:evenodd;fill:#9D60A3;}
	.st2{fill-rule:evenodd;clip-rule:evenodd;fill:#FFFFFF;}
	.st3{fill-rule:evenodd;clip-rule:evenodd;fill:#D0B2D5;}
	.st4{fill-rule:evenodd;clip-rule:evenodd;fill:#F7C6C7;}
	.st5{fill:none;stroke:#6E6E6E;stroke-width:1.7008;stroke-linecap:round;stroke-linejoin:round;stroke-miterlimit:22.9256;}
	.st6{fill-rule:evenodd;clip-rule:evenodd;fill:#EB9EA1;}
	.st7{fill-rule:evenodd;clip-rule:evenodd;fill:#C5C5C6;}
	.st8{fill:none;stroke:#6C3579;stroke-width:1.7008;stroke-linecap:round;stroke-linejoin:round;stroke-miterlimit:22.9256;}
	.st9{fill-rule:evenodd;clip-rule:evenodd;fill:#B7DAEF;}
	.st10{fill:none;stroke:#E37767;stroke-width:1.7008;stroke-linecap:round;stroke-linejoin:round;stroke-miterlimit:22.9256;}
	.st11{fill-rule:evenodd;clip-rule:evenodd;fill:#1A1A18;}
	.st12{fill-rule:evenodd;clip-rule:evenodd;fill:#E2D2E8;}
	.st13{fill-rule:evenodd;clip-rule:evenodd;fill:#F3A5A6;}
	.st14{fill-rule:evenodd;clip-rule:evenodd;fill:#ACD5EF;}
	.st15{fill-rule:evenodd;clip-rule:evenodd;fill:#92C2E5;}
	.st16{fill:none;stroke:#6B9FCC;stroke-width:1.7008;stroke-linecap:round;stroke-linejoin:round;stroke-miterlimit:22.9256;}
	.st17{fill-rule:evenodd;clip-rule:evenodd;fill:#558EBC;}
	.st18{fill-rule:evenodd;clip-rule:evenodd;fill:#D8D9D9;}
	.st19{fill:none;stroke:#868685;stroke-width:1.7008;stroke-linecap:round;stroke-linejoin:round;stroke-miterlimit:22.9256;}
	.st20{fill-rule:evenodd;clip-rule:evenodd;fill:#CEE6F5;}
</style>
<path class="st0" d="M459.8,159.5c-7,10.8-15.1,18.5-23.9,24.1c18.6,25.1,25.8,44.4,19.7,66.1l-11.2,2.3l-2.7,7.4
	c12.1,5.2,20.9,22.9,36.4,15.6c-15.3,12.5-27.2-4.8-40.8-7.1l-3.8,3.9c11.3,19,14.5,36.9,8.6,48.9c-5.4,8.6-37.8,12.5-51.4-0.7
	c-0.8-12.5,8.5-23.6,4.2-31.3l-9.4,0.8c1,9.8,0.9,21.9-7.9,24c-19.5,12-47.4-2.4-48.5-11.6c2.5-11.4,12.6-16.9,12.1-29.6
	c-7.6-9.6-11.8-20-10.6-34.7l-6.1,4.3c-10.3-1.4-20.1-9.8-25.4-23.9c3-5.9,6-10.6,12.9-18.1c-9.8-23.5-9.5-32-11.9-53.7
	c-14.2-11.6-13.9-20-9.4-18l9.7,4.4c1.6-18.7,4.1-25.1,6.9-34.9c-13.2-4.7-21.5-13.3-14.9-23.8c9.6-7.2-5.9-15.1-2.5-23.1
	c3.4-9.5,16.9-2.4,17.5-19.9c-0.9-8.9,17.5-18.1,37.6,12.2c8.8-6.6,17.8-10,29.2-11.9c-5-4.9,4.7-10.1,14.3-6.9
	c-14.2-11.6-1-14,14.8,4.2c33.1,7.3,52,26,62.2,48.4c33.8-5.9,51.6,6,51.4,17.5c0.1,7-11.5,9.8-2.2,18.8c6.3,6,7.9,15.6-0.2,17.9
	c-15.9,7.2-4.8,20.5-10.7,25.8c-9.4,8.9-18.1-10.1-25.9,2.5C473.5,167.6,465.8,167.1,459.8,159.5z"/>
<path class="st1" d="M456.1,152.1c-7,20.7-31.7,40.1-53.1,40.5c-12.7,1.5-22.7,5.5-26.8,14.9c-4.2,10.9,5.9,31,25,32.7
	c5.6,0.7,4.7-14.1,2.1-24.5l3.2,5.7l5.6,3.3l3.7,16l19.9,6.2l1.4-5.5c19.2-3.3,2.8-39.5-4.1-47.2c15.1,5.1,29.2,29.5,22.8,54.6
	l-5.9,2.3l-5.5,0.5l-2.8,7.7c12.1,5.2,20.9,22.9,36.4,15.6c-15.3,12.5-27.2-4.8-40.8-7.1l-3.8,3.9c11.3,19,14.5,36.9,8.6,48.9
	c-5.4,8.6-37.8,12.5-51.4-0.7c2.3-6.2,14.5-10.5,25.3-8.2c6.9-2.2,2.3-29.1-15.3-23.1l-15.2,0.8c1.3,7.7,2.4,17.7-7.9,24
	c-50,7.2-48.1-13.5-20.6-11.6c18.1,0.7,19.6-10.2,12.6-14.1c13.9,2.2,47.8-4.8,39.9-25c-7.8,5.3-43.3,5.6-66.6-16.2
	c-4.2,3-3.3,16.6,3.9,25.8c-8.4-5.9-14.9-15.7-17.1-34l-16.2-11.8l9.5-6c24.2,33.5,50.3,41.5,76.8,40.4l1.7-1.1l-0.7-4.6l1.4-1.6
	c2.9-4.7,1-7.6-5.6-8.7c-30.5-5.1-56.2-27.7-50.9-72.4c-13.4-4.5,26.3,10.9,35.6,0.4l10,11.4c-17.4-25.9,18.2-7.5,42.8-39.1
	c25.6-36.3,16-83.6-25-106.9c24.4,7.7,40.2,16,50.4,38.5c-6.6,29.8,31.2,12.7,43.1,27.2c6.8,6.5,5.4,17.1,0.4,23.8
	c-8.6,10.5,0.8,18.9-4.7,24c-9.4,8.9-12.9-5.1-20.7,7.5C473.5,167.6,462.1,159.7,456.1,152.1z"/>
<path class="st2" d="M300.3,146.1l0.3-13.6c-4.6-0.5-10.9-6.6-12.4-4.2C286.6,130,290.2,138.9,300.3,146.1z"/>
<path class="st3" d="M299.4,217.8c5.6,14.4,14.7,21,25.4,23.9l3.7-3c0.4-9.7-8.3-15.7-14.6-12.3
	C313.6,218.3,304.7,214.1,299.4,217.8z"/>
<polygon class="st4" points="384.4,178.7 361.3,177.9 358.7,179.7 358.5,185.1 363.7,194.2 366.5,196.4 369.7,195.3 372.1,193.2 "/>
<path class="st4" d="M331.9,53.8c-9.1,10.6-15.5,22.1-20.4,32.9c-0.9-1.3-1.2-4.7-0.2-6.4c-6.3-2.8-9.9-10.6-8.8-17.3
	C305.6,46.2,318.3,40.1,331.9,53.8z"/>
<path class="st5" d="M300.6,132.5c-4.6-0.5-10.9-6.6-12.4-4.2c-1.6,1.7,2,10.6,12.1,17.8"/>
<path class="st6" d="M384.4,178.7l-23.1-0.9l-2.6,1.9l-0.2,5.3c5.9-1.1,9-0.5,9.2,1.8c3.9-3.9,7.4-4.1,10.6-0.9L384.4,178.7z"/>
<path class="st7" d="M400.9,260.8c2.6-0.5,0.2-3.7,0.3-5.6l2.2-2.5c2.2,3.4,2.9,9,2.7,15.3l-4.9-0.6
	C401.5,265,401.3,262.8,400.9,260.8z"/>
<path class="st5" d="M403.4,252.7c2.2,3.4,2.9,9,2.7,15.3l-4.9-0.6c0.4-2.4,0.2-4.6-0.3-6.5"/>
<path class="st4" d="M499.6,125.9c-1.9,12.3-14.8,19.4-26.7,17.3c-2.3,4.6-5,5.2-7.7,5.6c6-16.3,8.1-32.2,6.3-47.7
	c10.3,2.6,18.5-2,27.2,3.6C505.1,108.9,504.8,120.6,499.6,125.9z"/>
<path class="st2" d="M381.3,143.1c7.8,3.9,14.4-0.9,21.6-1.3c6.5-14,2-28.3-3.7-29.5C390.5,111.3,380.5,123,381.3,143.1z"/>
<path class="st8" d="M471.5,101.2c5.5,45.4-21.3,96.6-79.1,91c-11.8-1.1-18.2,11.4-25.7,10.3c-3.8-0.8-6.4-4.8-7.9-9.4 M461.1,78
	c33.9-9.1,55.3,3.4,55.9,16.4c0.1,7-11.5,9.8-2.2,18.8c6.3,6,7.9,15.6-0.2,17.9c-15.9,7.2-4.8,20.5-10.7,25.8
	c-9.4,8.9-18.1-10.1-25.9,2.5c-4.4,8.2-12.1,7.7-18.1,0.1 M345.1,43.1c-20.5-28.9-38-22-37.6-12.2c0.4,17.8-15.2,10.5-17.5,19.9
	c-2.6,9.6,11.2,13,2.5,23.1c-6.2,7.1-0.6,21.6,16.1,23.8 M389.1,30.1c-4.6,2.5-11.9,3.6-14.8,1.1c-42,6.5-70.2,51.3-73.8,102.9
	c-3.9,65.9,38,131.2,99.7,126.9c4.5-0.3-1.6-5.4,2.4-7.3c3.4-3.2,1.9-6.6-2.9-8c-27.5-6.4-43.1-28.6-41.1-66 M328.5,238.7
	c0.4-9.7-8.3-15.7-14.6-12.3c-0.3-8.1-9.1-12.3-14.5-8.6 M397.4,30.7c-10.4-7.2-16.2-12.4-15.2-14.8c2.3-2.5,11.5,0.6,21.2,12.5
	c28.5,5.1,54,26.5,62.2,48.4"/>
<path class="st2" d="M386.1,178.2c-4.2-2.9-6.1-6.6-5.6-11.2c-30.8,3.5-41-10.9-42.5-7C337.1,165.4,353.4,188.8,386.1,178.2z"/>
<path class="st5" d="M380.4,167c-30.8,3.5-41-10.9-42.5-7c-0.9,5.4,15.4,28.8,48.1,18.2"/>
<path class="st9" d="M381.8,133.4l-0.5,9.7c6.3,3.6,11.2-0.3,16.8-0.4c5.1-11,1.8-22.9-2.7-23.8
	C389.6,117.5,383.3,122.9,381.8,133.4z"/>
<path class="st10" d="M375.6,184.4c-4.2-0.7-6.5,0.5-8,2.4c-0.6-1.6-2.7-2.4-6.2-2.4"/>
<path class="st11" d="M389.6,139.9c3.7,0,6.7-3,6.7-6.7s-3-6.7-6.7-6.7c-3.7,0-6.7,3-6.7,6.7C382.8,136.8,385.9,139.9,389.6,139.9z"
	/>
<circle class="st2" cx="394" cy="136.7" r="2.8"/>
<path class="st3" d="M455.6,249.6c-17.9,4.1-32.9,3.7-36.9-2.7l-2.9-6.2c4.4-1.3,13.3-1.7,17.2,4.5
	C436.7,238.7,443.7,239.1,455.6,249.6z"/>
<path class="st3" d="M415.7,119.1c-1.7-6.1-13.5-10.6-8.7-13.7C411.9,102.4,419.6,112.4,415.7,119.1z"/>
<path class="st8" d="M415.7,119.1c-1.7-6.1-13.5-10.6-8.7-13.7C411.9,102.4,419.6,112.4,415.7,119.1z"/>
<path class="st3" d="M385,159.6c-2.1,7.8-3.5,9.8,4,20.4C380.1,172.8,376.7,167.6,385,159.6z M329.6,220.6
	c7.5,10.6,17.3,19.1,30.1,27.2C345.7,242.9,334.9,233.4,329.6,220.6z"/>
<path class="st3" d="M390.9,319.9c11.4,13.3,39.5,9.1,45,4.7c-6-4.9-18.3-12.5-26.6-4.4C406,316,391.7,311.5,390.9,319.9z"/>
<path class="st8" d="M435.9,183.6c20.4,26.1,24.7,47.6,19.7,66.1c-12,4-33.6,4-36.9-2.7c-4.6-7.7-7.2-20.1-7.9-37.4 M384.2,159
	c-11.2,14.6,5.3,19.5,7.4,25.4 M302.6,63c3-16.9,15.7-22.9,29.3-9.3 M374.3,31.2c-3.5-4.1-0.6-9.3,14.3-6.9 M467.1,99.1
	c10.3,6.6,22.9,0.1,31.5,5.7c6.4,4.1,6.2,15.8,0.9,21.1 M386.1,178.2c-7.5,5.1-14,18.4-19.5,18.1c-2.6-0.9-5.4-5.1-8.1-11.3
	 M412.1,224.7c-3-0.7-7.7-4-8.8-9"/>
<path class="st3" d="M377.8,313.4c-10.7,6.8-30.2,6.3-45.6-6.5c11.1-4.8,19.5-5.4,22.2,3.3C358.2,302.3,366,303.4,377.8,313.4z"/>
<path class="st8" d="M332.2,306.9c11.1-4.8,19.5-5.4,22.2,3.3c3.8-7.9,11.6-6.8,23.4,3.3 M341.5,272.2c0.7,12.1-10.1,18.2-12.1,29.6
	c3.5,14.1,43.5,25.1,54.7,4.9c1.5-2.8,3.4-8.9,1.7-17.3 M433.6,271.7c10.9,17.5,14.2,36,8.6,48.9c-4,8.2-39.2,13.1-51.4-0.7
	c-0.4-12,6.4-22.8,4.2-31.3 M444.4,252c-6.2,20.3-21.9,33.5-51.4,36.9c-27.1,3.7-66.2-11.3-62.1-51.4 M436.4,325
	c-13-10.3-22.3-9-27-4.8c-9.3-9.3-15-5.5-18.5-0.3"/>
<path class="st8" d="M335.5,226.8c-1.7,0.7-3.5,2.4-4,4.1 M352.8,240.3c-1.9,1.2-3.7,3.5-4,5.5 M325.6,121c-2.5-1.9-6.1-2.1-8.6-1.6
	 M334.4,107.5c-3.5-2.6-8.8-3.5-12.7-3.3 M320.2,149.6c-1.9-0.8-4.6-1-6.3-0.1 M325.8,215.9c-1.4,0.4-3,1.4-3.7,2.7 M333.8,233.2
	c-2.8,4.8-5.1,6.6-9,8.5c-7.6-1.2-22.7-11.3-25.4-23.9c4.7-10.6,8.3-12.4,12.9-18.1 M415.9,240.7c4.4-1.3,13.3-1.7,17.2,4.5
	c3.6-6.6,10.6-6.2,22.5,4.4 M441.8,259.3c14.8,5.6,17.4,21.8,36.4,15.6c-16.6,12.7-24.9-4.7-40.8-7.1"/>
<path class="st3" d="M352.5,275.4c8,5,18.6,6.6,27.7,6.7C371.5,284.9,359.8,284,352.5,275.4z"/>
<path class="st12" d="M431.3,324.7c-6.9-3.4-14-3.8-22.3-1.9C416.7,317.7,424.6,318.1,431.3,324.7z M452.7,249.4
	c-3-2.8-11.7-6.8-17-4.6C439,239.2,450.3,245.1,452.7,249.4z M355.6,310.8c4.2-3.2,11-2.7,18.6,1.9
	C366.6,306.1,359.4,303.6,355.6,310.8z"/>
<path class="st13" d="M328.2,52.6c-7.7-2.3-13.6-2.3-19.8,1.6C314.9,46.5,320.2,47.2,328.2,52.6z"/>
<path class="st13" d="M501.1,114.5c-4.1-7.5-11.2-7-20.4-9.2C490.8,105.1,498.9,103.2,501.1,114.5z"/>
<path class="st3" d="M415.1,210.6c-0.1,7.1,1.5,19.1,4.3,27.7C413.4,230.4,411.3,217,415.1,210.6z M321.6,75.1
	c-8.3,14-13.4,29.6-16.9,48.5C304.4,105,310.1,87.7,321.6,75.1z M335,35.7c-5.5-4.8-16.8-9.1-23-9.2C317.1,22.7,327.7,26.1,335,35.7
	z M513.6,93.1c-5-10.5-29.2-16.7-39.9-14.5C486.7,74.1,513.5,79.8,513.6,93.1z M378.7,132.6c2.1-9.5,8.4-19.2,13.9-21.8
	C383.7,109.8,378,122.6,378.7,132.6z M399.4,253.7c8.8-4.2-1.1-8.5-12.8-9C396.1,247.5,402.4,247.9,399.4,253.7z"/>
<path class="st1" d="M404.7,113.2c4.1,7,1.5,22.6-1.8,28.5h3.9C411.9,134.4,411.7,122,404.7,113.2z"/>
<path class="st14" d="M366.7,271.6h47.7l-7,36.9c-1.7,8.6-31.6,9.4-33.6,0L366.7,271.6z"/>
<path class="st15" d="M400.3,275.9l14.1-4.3l-7,36.9c-1.7,8.6-31.6,9.4-33.6,0C389.7,314.7,399.5,306.1,400.3,275.9z"/>
<path class="st16" d="M366.7,271.6h47.7l-7,36.9c-1.7,8.6-31.6,9.4-33.6,0L366.7,271.6z"/>
<path class="st8" d="M377.4,140.1c9.5,9.9,20.8-0.4,30.8,1.9 M402.9,141.8c6.5-14,2-28.3-3.7-29.5c-8.7-0.9-18.7,10.7-17.9,30.8"/>
<path class="st17" d="M390.6,276.3c13.1,0,23.9-2.1,23.9-4.7c0-2.6-10.7-4.7-23.9-4.7c-13.1,0-23.9,2.1-23.9,4.7
	C366.7,274.2,377.4,276.3,390.6,276.3z"/>
<path class="st16" d="M390.6,276.3c13.1,0,23.9-2.1,23.9-4.7c0-2.6-10.7-4.7-23.9-4.7c-13.1,0-23.9,2.1-23.9,4.7
	C366.7,274.2,377.4,276.3,390.6,276.3z"/>
<path class="st18" d="M398.4,245.2c-9.5-7.2-24.4,5.3-23.6,29.9l4.6,0.6C379.6,255.2,386.9,243.6,398.4,245.2z"/>
<path class="st19" d="M398.4,245.2c-9.5-7.2-24.4,5.3-23.6,29.9l4.6,0.6C379.6,255.2,386.9,243.6,398.4,245.2z"/>
<ellipse class="st18" cx="376.8" cy="278.8" rx="4" ry="4.2"/>
<ellipse class="st19" cx="376.8" cy="278.8" rx="4" ry="4.2"/>
<path class="st20" d="M371.6,284.6c2.9,1.6,6.4,19.5,4,22.4L371.6,284.6z"/>
<path class="st15" d="M410.2,272.4c0-3.5-23.1-4.1-26.5-2.1C396.4,269.7,404.9,271.5,410.2,272.4z"/>
</svg>
