<?xml version="1.0" encoding="utf-8"?>
<!-- Generator: Adobe Illustrator 21.1.0, SVG Export Plug-In . SVG Version: 6.00 Build 0)  -->
<svg version="1.1" id="Layer_1" xmlns="http://www.w3.org/2000/svg" xmlns:xlink="http://www.w3.org/1999/xlink" x="0px" y="0px"
	 viewBox="0 0 521 424" style="enable-background:new 0 0 521 424;" xml:space="preserve">
<style type="text/css">
	.st0{fill-rule:evenodd;clip-rule:evenodd;fill:#F0F8FD;}
	.st1{fill-rule:evenodd;clip-rule:evenodd;fill:#DAEFFC;}
	.st2{fill-rule:evenodd;clip-rule:evenodd;fill:#FFFFFF;}
	.st3{fill-rule:evenodd;clip-rule:evenodd;fill:#C1181E;}
	.st4{fill:none;stroke:#A91F20;stroke-width:1.7008;stroke-linecap:round;stroke-linejoin:round;stroke-miterlimit:22.9256;}
	.st5{fill-rule:evenodd;clip-rule:evenodd;fill:#F2F2F2;}
	.st6{fill-rule:evenodd;clip-rule:evenodd;fill:#EFEFEF;}
	.st7{fill:none;stroke:#9B9B9B;stroke-width:1.7008;stroke-linecap:round;stroke-linejoin:round;stroke-miterlimit:22.9256;}
	.st8{fill-rule:evenodd;clip-rule:evenodd;fill:#D0935F;}
	.st9{fill:none;stroke:#9A5732;stroke-width:1.7008;stroke-linecap:round;stroke-linejoin:round;stroke-miterlimit:22.9256;}
	.st10{fill-rule:evenodd;clip-rule:evenodd;fill:#3B3A39;}
	.st11{fill-rule:evenodd;clip-rule:evenodd;fill:#ECECEC;}
	.st12{fill-rule:evenodd;clip-rule:evenodd;fill:#DE2C1B;}
	.st13{fill-rule:evenodd;clip-rule:evenodd;fill:#CD1F21;}
	.st14{fill-rule:evenodd;clip-rule:evenodd;fill:#F6A840;}
	.st15{fill-rule:evenodd;clip-rule:evenodd;fill:#E88D29;}
	.st16{fill:none;stroke:#DD6A13;stroke-width:1.7008;stroke-linecap:round;stroke-linejoin:round;stroke-miterlimit:22.9256;}
	.st17{fill:none;stroke:#FFFFFF;stroke-width:1.7008;stroke-linecap:round;stroke-linejoin:round;stroke-miterlimit:22.9256;}
</style>
<path class="st0" d="M52.6,229.8c-57.2-67.4,90.3-91.4,34.7-135.9c-25.8-20.7-11-57.8,46.8-73.7c116.5-32,194.1,32.4,200.3,87.4
	c5.4,47.1,122.1,15,93.6,140.8c-7.8,34.3-1.3,26.2,10.5,50.3c48.3,98.3-187.8,168.6-288.2,94.4c-59.3-43.9-83.4-12-112.4-29.4
	c-11.9-7.2-21.1-24.8,5.5-40.8c14.1-8.5-15-44.1-7.2-60.4C38.6,257.6,55.7,231.4,52.6,229.8z"/>
<path class="st1" d="M403.5,271.2c-0.1,13.1,9.4,16.2,13.9,34.5C444,413.2,256.5,447,164.4,379C105,335.1,81,367,52,349.6
	c-11.9-7.2-21.1-24.8,5.5-40.8c4.2-2.5,4.5-7.4,3.2-13.4l2.1,2C214.4,121.9,311.9,173.3,403.5,271.2z"/>
<path class="st2" d="M268.2,280.7l-23.5,13.9c4.7,4.8,37.5,5.7,40.8-0.1C289.1,289.9,282.6,276.9,268.2,280.7z"/>
<path class="st2" d="M227.9,175c-33.2,0.5-55.6,31.1-57.8,61.8c-1.2,37.1,28.5,72.6,76.3,57.2c32.6-13,43.1-39.7,39.6-65
	C282.2,200.7,259.1,171.8,227.9,175z"/>
<path class="st0" d="M282.9,317.9c-6.5-3.9-18.7-4.4-26.6,0.4C263.9,310.9,275.9,310.5,282.9,317.9z M357.8,335
	c-5.1-3.8-11.6-4.4-19.7-1C344.6,327.9,352.2,327.6,357.8,335z M314.7,369.8c-5.7-5-12-6.8-19.7-1.5
	C301,360.8,308.7,360.4,314.7,369.8z M358.7,366.3c-16-6.5-29.4-6.1-41.2,0.5C328.7,354.5,346.6,357.7,358.7,366.3z M191.4,338.1
	c-9.6-5.9-22.3-4.7-34,2.8C174.2,328,184,331.2,191.4,338.1z M224.2,351.2c-6-3.2-16.2-4.6-25.4,2.7
	C209.3,341.7,218,344.9,224.2,351.2z"/>
<path class="st3" d="M252.5,178.1l-3-6.1c3.8-3,6.7-7.1,8.3-12.6c9.2-5.6,17.6-8.1,25.6-9.2c-1,2-8.5,6.5-4.9,6.5
	c3.4,0,6.4-1.3,9.6-1.3c1.9,0-6.2,5.1-7.8,5.8c-2.2,1.1,5.3,0.8,5.6,1.1C289.9,165.8,275.5,178,252.5,178.1z"/>
<path class="st4" d="M257.9,159.5c9.2-5.6,23.3-11,25.6-9.2c-1,2-8.5,6.5-4.9,6.5c3.4,0,6.4-1.3,9.6-1.3c1.9,0-6.2,5.1-7.8,5.8
	c-2.2,1.1,5.3,0.8,5.6,1.1c3.9,3.4-10.5,15.7-33.5,15.7"/>
<path class="st2" d="M195.4,130.5c-9.3,36.3,30.3,58.1,60.5,35.2c16.8-14.5,10.2-42.6-2.4-55.7C234.8,90.6,202.5,101.1,195.4,130.5z
	"/>
<path class="st2" d="M220.8,297.8c-10.2-2.4-19.3-7.3-27.4-14.7c-13.3,1.3-17.6,11-13.7,16.3C183.3,304.7,200.5,302,220.8,297.8z"/>
<path class="st5" d="M220.8,297.8c-8.6-3-10.9,0.3-21.8-6.2c-0.3,8.6-19,10.3-19.3,7.8C182.7,307.6,213.2,303.3,220.8,297.8z"/>
<path class="st6" d="M234.3,175c-33.2,0.5-61.9,31.1-64.2,61.8c-1.8,42.8,50.6,77.8,91,40.6c-22.1,8.7-48.6,3.1-65.2-18.9
	c-11.2-13.2-12.5-33.4-3.1-48.7c9.7,3.3,14-10.9,7.3-16.2c16.2,7.9,39.3,5.1,50.2-5L234.3,175z"/>
<path class="st3" d="M257.8,182.5l0.1-12.6l14.6,0.3c11.8,3.3,26.4,17.9,22.7,22.9c-3.5-0.8-8-4.1-5.7,0.4c0.4,0.8,2.4,6.5,1.6,7.2
	c-2.7,2.6-6.4-2.5-8.9-0.6c-2,1.5,1,4.9-2.9,7.2C275.1,197.7,267.3,190.3,257.8,182.5z"/>
<path class="st4" d="M272.5,170.2c11.8,3.3,26.9,19.5,22.7,22.9c-3.5-0.8-8-4.1-5.7,0.4c0.4,0.8,2.4,6.5,1.6,7.2
	c-2.7,2.6-6.4-2.5-8.9-0.6c-2,1.5,1,4.9-2.9,7.2"/>
<path class="st5" d="M261.4,286.1l-16.7,8.5c4.7,4.8,37.5,5.7,40.8-0.1C283,295.7,264.2,293.5,261.4,286.1z"/>
<path class="st6" d="M196.8,131.6c-9.1,35.4,29,58.8,54.7,31.5c-45.6,25.4-59.1-33.7-40.5-50.9C203.8,116.4,201.2,120,196.8,131.6z"
	/>
<path class="st7" d="M195.4,130.5c-9.3,36.3,30.3,58.1,60.5,35.2c16.8-14.5,10.2-42.6-2.4-55.7C234.8,90.6,202.5,101.1,195.4,130.5z
	"/>
<path class="st7" d="M227.9,175c-33.2,0.5-55.6,31.1-57.8,61.8c-1.2,37.1,28.5,72.6,76.3,57.2c32.6-13,43.1-39.7,39.6-65
	C282.2,200.7,259.1,171.8,227.9,175z"/>
<path class="st8" d="M199.2,200.8c-10.1-8.1-17.2-28.7-22.4-52.5c3.8-2.7,9.7-8.2,6.9-21.2c-0.1-1.4-1.9-1.3-1.9,0.3
	c1.5,8.7-2.8,14.8-5.9,16.4c-1.4-7.6-1.1-15.7-4.9-24.4c-0.8-1.8-3.2-1.3-3.1,0.4c2,6.8,2.9,12.9,3,18.1c-3.1-0.7-7-3.7-10.2-7.3
	c-0.8-0.9-2.2,1-1.3,2.2c2.8,3.9,8.3,8.6,12.4,8.5c4.3,24.3,9.8,47.1,21.2,62C195.9,207.1,200.6,202.3,199.2,200.8z"/>
<path class="st9" d="M199.2,200.8c-10.1-8.1-17.2-28.7-22.4-52.5c3.8-2.7,9.7-8.2,6.9-21.2c-0.1-1.4-1.9-1.3-1.9,0.3
	c1.5,8.7-2.8,14.8-5.9,16.4c-1.4-7.6-1.1-15.7-4.9-24.4c-0.8-1.8-3.2-1.3-3.1,0.4c2,6.8,2.9,12.9,3,18.1c-3.1-0.7-7-3.7-10.2-7.3
	c-0.8-0.9-2.2,1-1.3,2.2c2.8,3.9,8.3,8.6,12.4,8.5c4.3,24.3,9.8,47.1,21.2,62C195.9,207.1,200.6,202.3,199.2,200.8z"/>
<path class="st7" d="M189.8,285.1c-8.8,0.3-13.9,8.9-10.1,14.3c7.1,8.6,31.9,4.3,40.6-1.7"/>
<path class="st7" d="M244.7,294.6c4.7,4.8,37.5,5.7,40.8-0.1c3.6-4.7-2.8-17.6-17.3-13.8"/>
<path class="st7" d="M214.3,144.6c10.3,19.1,33.7,11.8,35.3-4.2"/>
<ellipse transform="matrix(0.9551 -0.2962 0.2962 0.9551 -25.3465 71.7047)" class="st10" cx="224" cy="119.5" rx="1.9" ry="3"/>
<path class="st7" d="M215.3,141.9c-2-1.1-4.1,0.9-3.7,2.4"/>
<path class="st11" d="M233.5,141.6c4.5,0,8.1-3.2,8.1-7.1s-3.6-7.1-8.1-7.1s-8.1,3.2-8.1,7.1S229.1,141.6,233.5,141.6z"/>
<path class="st11" d="M223.5,130.4c-2.7-4.2-6.9-6.1-12.8-6.4C216.8,121.3,221.6,123.6,223.5,130.4z"/>
<path class="st12" d="M203.1,164.3c-3,6.4-4.2,14.5-0.9,17.9c12.6,17.2,49.1,11.4,55.6,0.3c2-6.4,2.1-12.2-1.9-16.8
	C236.5,179.7,214,177.1,203.1,164.3z"/>
<path class="st13" d="M203.1,164.3c-3,6.4-4.2,14.5-0.9,17.9c12.6,17.2,49.1,11.4,55.6,0.3c-0.9-4.9-8-2.5-15.5-0.6
	C217.5,185.3,221.8,176.6,203.1,164.3z"/>
<path class="st4" d="M203.1,164.3c-3,6.4-4.2,14.5-0.9,17.9c12.6,17.2,49.1,11.4,55.6,0.3c2-6.4,2.1-12.2-1.9-16.8
	C236.5,179.7,214,177.1,203.1,164.3z"/>
<path class="st4" d="M201.1,169.8c1.9,9.8,15.6,17.5,28,17.4"/>
<path class="st14" d="M231.3,128.9c8-3.3,16.6-5,23.9-9.8c-2.8,9.7-11.6,19.3-17.2,20.6C226.3,142.4,227,131,231.3,128.9z"/>
<path class="st15" d="M231.3,128.9c-1,16.6,20.6,0.8,23.9-9.8c-2.8,9.7-11.6,19.3-17.2,20.6C226.3,142.4,227,131,231.3,128.9z"/>
<path class="st16" d="M231.3,128.9c8-3.3,16.6-5,23.9-9.8c-2.8,9.7-11.6,19.3-17.2,20.6C226.3,142.4,227,131,231.3,128.9z"/>
<ellipse transform="matrix(0.955 -0.2966 0.2966 0.955 -23.5333 75.2235)" class="st10" cx="236.2" cy="115.2" rx="1.7" ry="2.7"/>
<path class="st7" d="M247.9,138.4c1.2-1.6,3.7-0.8,4,0.6"/>
<line class="st17" x1="207.6" y1="37" x2="202.7" y2="53.1"/>
<line class="st17" x1="211.8" y1="41.5" x2="198.5" y2="48.6"/>
<line class="st17" x1="213.2" y1="47.5" x2="197.1" y2="42.6"/>
<line class="st17" x1="208.7" y1="51.7" x2="201.6" y2="38.4"/>
<line class="st17" x1="178" y1="67" x2="172.2" y2="86.2"/>
<line class="st17" x1="183.8" y1="71.9" x2="166.3" y2="81.3"/>
<line class="st17" x1="184.7" y1="79.5" x2="165.4" y2="73.7"/>
<line class="st17" x1="179.7" y1="85.3" x2="170.4" y2="67.8"/>
<line class="st17" x1="252.4" y1="53" x2="257" y2="77.2"/>
<line class="st17" x1="261.1" y1="55.8" x2="248.4" y2="74.5"/>
<line class="st17" x1="266.8" y1="62.8" x2="242.6" y2="67.4"/>
<line class="st17" x1="264.1" y1="71.5" x2="245.4" y2="58.8"/>
</svg>
