<?xml version="1.0" encoding="utf-8"?>
<!-- Generator: Adobe Illustrator 21.1.0, SVG Export Plug-In . SVG Version: 6.00 Build 0)  -->
<svg version="1.1" id="Layer_1" xmlns="http://www.w3.org/2000/svg" xmlns:xlink="http://www.w3.org/1999/xlink" x="0px" y="0px"
	 viewBox="0 0 521 424" style="enable-background:new 0 0 521 424;" xml:space="preserve">
<style type="text/css">
	.st0{fill-rule:evenodd;clip-rule:evenodd;fill:#F0F8FD;}
	.st1{fill-rule:evenodd;clip-rule:evenodd;fill:#DAEFFC;}
	.st2{fill-rule:evenodd;clip-rule:evenodd;fill:#FFFFFF;}
	.st3{fill-rule:evenodd;clip-rule:evenodd;fill:#BD6E39;}
	.st4{fill-rule:evenodd;clip-rule:evenodd;fill:#A35939;}
	.st5{fill-rule:evenodd;clip-rule:evenodd;fill:#F7C6C7;}
	.st6{fill-rule:evenodd;clip-rule:evenodd;fill:#EB9EA1;}
	.st7{fill:none;stroke:#822E2D;stroke-width:1.7008;stroke-linecap:round;stroke-linejoin:round;stroke-miterlimit:22.9256;}
	.st8{fill:none;stroke:#6E6E6E;stroke-width:1.7008;stroke-linecap:round;stroke-linejoin:round;stroke-miterlimit:22.9256;}
	.st9{fill-rule:evenodd;clip-rule:evenodd;fill:#B7DAEF;}
	.st10{fill:none;stroke:#E37767;stroke-width:1.7008;stroke-linecap:round;stroke-linejoin:round;stroke-miterlimit:22.9256;}
	.st11{fill-rule:evenodd;clip-rule:evenodd;fill:#1A1A18;}
	.st12{fill-rule:evenodd;clip-rule:evenodd;fill:#D88F55;}
	.st13{fill-rule:evenodd;clip-rule:evenodd;fill:#C5C5C6;}
	.st14{fill-rule:evenodd;clip-rule:evenodd;fill:#EDB581;}
	.st15{fill-rule:evenodd;clip-rule:evenodd;fill:#F3A5A6;}
	.st16{fill-rule:evenodd;clip-rule:evenodd;fill:#ACD5EF;}
	.st17{fill-rule:evenodd;clip-rule:evenodd;fill:#92C2E5;}
	.st18{fill:none;stroke:#6B9FCC;stroke-width:1.7008;stroke-linecap:round;stroke-linejoin:round;stroke-miterlimit:22.9256;}
	.st19{fill-rule:evenodd;clip-rule:evenodd;fill:#558EBC;}
	.st20{fill-rule:evenodd;clip-rule:evenodd;fill:#D8D9D9;}
	.st21{fill:none;stroke:#868685;stroke-width:1.7008;stroke-linecap:round;stroke-linejoin:round;stroke-miterlimit:22.9256;}
	.st22{fill-rule:evenodd;clip-rule:evenodd;fill:#CEE6F5;}
	.st23{fill-rule:evenodd;clip-rule:evenodd;fill:#C1181E;}
	.st24{fill:none;stroke:#A91F20;stroke-width:1.7008;stroke-linecap:round;stroke-linejoin:round;stroke-miterlimit:22.9256;}
	.st25{fill-rule:evenodd;clip-rule:evenodd;fill:#F2F2F2;}
	.st26{fill-rule:evenodd;clip-rule:evenodd;fill:#EFEFEF;}
	.st27{fill:none;stroke:#9B9B9B;stroke-width:1.7008;stroke-linecap:round;stroke-linejoin:round;stroke-miterlimit:22.9256;}
	.st28{fill-rule:evenodd;clip-rule:evenodd;fill:#D0935F;}
	.st29{fill:none;stroke:#9A5732;stroke-width:1.7008;stroke-linecap:round;stroke-linejoin:round;stroke-miterlimit:22.9256;}
	.st30{fill-rule:evenodd;clip-rule:evenodd;fill:#3B3A39;}
	.st31{fill-rule:evenodd;clip-rule:evenodd;fill:#ECECEC;}
	.st32{fill-rule:evenodd;clip-rule:evenodd;fill:#DE2C1B;}
	.st33{fill-rule:evenodd;clip-rule:evenodd;fill:#CD1F21;}
	.st34{fill-rule:evenodd;clip-rule:evenodd;fill:#F6A840;}
	.st35{fill-rule:evenodd;clip-rule:evenodd;fill:#E88D29;}
	.st36{fill:none;stroke:#DD6A13;stroke-width:1.7008;stroke-linecap:round;stroke-linejoin:round;stroke-miterlimit:22.9256;}
	.st37{fill:none;stroke:#E30045;stroke-width:8.5039;stroke-linecap:round;stroke-linejoin:round;stroke-miterlimit:22.9256;}
	.st38{fill-rule:evenodd;clip-rule:evenodd;fill:#D3ECFB;}
	.st39{fill-rule:evenodd;clip-rule:evenodd;fill:#F2C98F;}
	.st40{fill-rule:evenodd;clip-rule:evenodd;fill:#E7B261;}
	.st41{fill-rule:evenodd;clip-rule:evenodd;fill:#ED861A;}
	.st42{fill-rule:evenodd;clip-rule:evenodd;fill:#EF9F6C;}
	.st43{fill:none;stroke:#A62522;stroke-width:1.7008;stroke-linecap:round;stroke-linejoin:round;stroke-miterlimit:22.9256;}
	.st44{fill-rule:evenodd;clip-rule:evenodd;fill:#A62522;}
	.st45{fill-rule:evenodd;clip-rule:evenodd;fill:#F5A87D;}
	.st46{fill-rule:evenodd;clip-rule:evenodd;fill:#FBD2B6;}
	.st47{fill-rule:evenodd;clip-rule:evenodd;fill:#FBD4A7;}
	.st48{fill:none;stroke:#C07D29;stroke-width:1.7008;stroke-linecap:round;stroke-linejoin:round;stroke-miterlimit:22.9256;}
	.st49{fill:none;stroke:#8FAABA;stroke-width:1.7008;stroke-linecap:round;stroke-linejoin:round;stroke-miterlimit:22.9256;}
	.st50{fill:none;stroke:#FFFFFF;stroke-width:1.7008;stroke-linecap:round;stroke-linejoin:round;stroke-miterlimit:22.9256;}
</style>
<path class="st0" d="M52.6,229.8c-57.2-67.4,90.3-91.4,34.7-135.9c-25.8-20.7-11-57.8,46.8-73.7c116.5-32,194.1,32.4,200.3,87.4
	c5.4,47.1,122.1,15,93.6,140.8c-7.8,34.3-1.3,26.2,10.5,50.3c48.3,98.3-187.8,168.6-288.2,94.4c-59.3-43.9-83.4-12-112.4-29.4
	c-11.9-7.2-21.1-24.8,5.5-40.8c14.1-8.5-15-44.1-7.2-60.4C38.6,257.6,55.7,231.4,52.6,229.8z"/>
<path class="st1" d="M403.5,271.2c-0.1,13.1,9.4,16.2,13.9,34.5C444,413.2,256.5,447,164.4,379C105,335.1,81,367,52,349.6
	c-11.9-7.2-21.1-24.8,5.5-40.8c4.2-2.5,4.5-7.4,3.2-13.4l2.1,2C214.4,121.9,311.9,173.3,403.5,271.2z"/>
<path class="st2" d="M268.2,280.7l-23.5,13.9c4.7,4.8,37.5,5.7,40.8-0.1C289.1,289.9,282.6,276.9,268.2,280.7z"/>
<path class="st2" d="M227.9,175c-33.2,0.5-55.6,31.1-57.8,61.8c-1.2,37.1,28.5,72.6,76.3,57.2c32.6-13,43.1-39.7,39.6-65
	C282.2,200.7,259.1,171.8,227.9,175z"/>
<path class="st0" d="M282.9,317.9c-6.5-3.9-18.7-4.4-26.6,0.4C263.9,310.9,275.9,310.5,282.9,317.9z M357.8,335
	c-5.1-3.8-11.6-4.4-19.7-1C344.6,327.9,352.2,327.6,357.8,335z M314.7,369.8c-5.7-5-12-6.8-19.7-1.5
	C301,360.8,308.7,360.4,314.7,369.8z M358.7,366.3c-16-6.5-29.4-6.1-41.2,0.5C328.7,354.5,346.6,357.7,358.7,366.3z M191.4,338.1
	c-9.6-5.9-22.3-4.7-34,2.8C174.2,328,184,331.2,191.4,338.1z M224.2,351.2c-6-3.2-16.2-4.6-25.4,2.7
	C209.3,341.7,218,344.9,224.2,351.2z"/>
<path class="st3" d="M459.8,159.5c-7,10.8-15.1,18.5-23.9,24.1c18.6,25.1,25.8,44.4,19.7,66.1l-11.2,2.3l-2.7,7.4
	c12.1,5.2,20.9,22.9,36.4,15.6c-15.3,12.5-27.2-4.8-40.8-7.1l-3.8,3.9c11.3,19,14.5,36.9,8.6,48.9c-5.4,8.6-37.8,12.5-51.4-0.7
	c-0.8-12.5,8.5-23.6,4.2-31.3l-9.4,0.8c1,9.8,0.9,21.9-7.9,24c-19.5,12-47.4-2.4-48.5-11.6c2.5-11.4,12.6-16.9,12.1-29.6
	c-7.6-9.6-11.8-20-10.6-34.7l-6.1,4.3c-10.3-1.4-20.1-9.8-25.4-23.9c3-5.9,6-10.6,12.9-18.1c-9.8-23.5-9.5-32-11.9-53.7
	c-14.2-11.6-13.9-20-9.4-18l9.7,4.4c1.6-18.7,4.1-25.1,6.9-34.9c-13.2-4.7-21.5-13.3-14.9-23.8c9.6-7.2-5.9-15.1-2.5-23.1
	c3.4-9.5,16.9-2.4,17.5-19.9c-0.9-8.9,17.5-18.1,37.6,12.2c8.8-6.6,17.8-10,29.2-11.9c-5-4.9,4.7-10.1,14.3-6.9
	c-14.2-11.6-1-14,14.8,4.2c33.1,7.3,52,26,62.2,48.4c33.8-5.9,51.6,6,51.4,17.5c0.1,7-11.5,9.8-2.2,18.8c6.3,6,7.9,15.6-0.2,17.9
	c-15.9,7.2-4.8,20.5-10.7,25.8c-9.4,8.9-18.1-10.1-25.9,2.5C473.5,167.6,465.8,167.1,459.8,159.5z"/>
<path class="st4" d="M456.1,152.1c-7,20.7-31.7,40.1-53.1,40.5c-12.7,1.5-22.7,5.5-26.8,14.9c-4.2,10.9,5.9,31,25,32.7
	c5.6,0.7,4.7-14.1,2.1-24.5l3.2,5.7l5.6,3.3l3.7,16l19.9,6.2l1.4-5.5c19.2-3.3,2.8-39.5-4.1-47.2c15.1,5.1,29.2,29.5,22.8,54.6
	l-5.9,2.3l-5.5,0.5l-2.8,7.7c12.1,5.2,20.9,22.9,36.4,15.6c-15.3,12.5-27.2-4.8-40.8-7.1l-3.8,3.9c11.3,19,14.5,36.9,8.6,48.9
	c-5.4,8.6-37.8,12.5-51.4-0.7c2.3-6.2,14.5-10.5,25.3-8.2c6.9-2.2,2.3-29.1-15.3-23.1l-15.2,0.8c1.3,7.7,2.4,17.7-7.9,24
	c-50,7.2-48.1-13.5-20.6-11.6c18.1,0.7,19.6-10.2,12.6-14.1c13.9,2.2,47.8-4.8,39.9-25c-7.8,5.3-43.3,5.6-66.6-16.2
	c-4.2,3-3.3,16.6,3.9,25.8c-8.4-5.9-14.9-15.7-17.1-34l-16.2-11.8l9.5-6c24.2,33.5,50.3,41.5,76.8,40.4l1.7-1.1l-0.7-4.6l1.4-1.6
	c2.9-4.7,1-7.6-5.6-8.7c-30.5-5.1-56.2-27.7-50.9-72.4c-13.4-4.5,26.3,10.9,35.6,0.4l10,11.4c-17.4-25.9,18.2-7.5,42.8-39.1
	c25.6-36.3,16-83.6-25-106.9c24.4,7.7,40.2,16,50.4,38.5c-6.6,29.8,31.2,12.7,43.1,27.2c6.8,6.5,5.4,17.1,0.4,23.8
	c-8.6,10.5,0.8,18.9-4.7,24c-9.4,8.9-12.9-5.1-20.7,7.5C473.5,167.6,462.1,159.7,456.1,152.1z"/>
<polygon class="st5" points="384.4,178.7 361.3,177.9 358.7,179.7 358.5,185.1 363.7,194.2 366.5,196.4 369.7,195.3 372.1,193.2 "/>
<path class="st6" d="M384.4,178.7l-23.1-0.9l-2.6,1.9l-0.2,5.3c5.9-1.1,9-0.5,9.2,1.8c3.9-3.9,7.4-4.1,10.6-0.9L384.4,178.7z"/>
<path class="st5" d="M499.6,125.9c-1.9,12.3-14.8,19.4-26.7,17.3c-2.3,4.6-5,5.2-7.7,5.6c6-16.3,8.1-32.2,6.3-47.7
	c10.3,2.6,18.5-2,27.2,3.6C505.1,108.9,504.8,120.6,499.6,125.9z"/>
<path class="st2" d="M381.3,143.1c7.8,3.9,14.4-0.9,21.6-1.3c6.5-14,2-28.3-3.7-29.5C390.5,111.3,380.5,123,381.3,143.1z"/>
<path class="st7" d="M374.3,31.2c-3.5-4.1-0.6-9.3,14.3-6.9"/>
<path class="st7" d="M471.5,101.2c5.5,45.4-21.3,96.6-79.1,91c-11.8-1.1-18.2,11.4-25.7,10.3c-3.8-0.8-6.4-4.8-7.9-9.4 M397.4,30.7
	c-10.4-7.2-16.2-12.4-15.2-14.8c2.3-2.5,11.5,0.6,21.2,12.5c28.5,5.1,54,26.5,62.2,48.4"/>
<path class="st2" d="M300.3,146.1l0.3-13.6c-4.6-0.5-10.9-6.6-12.4-4.2C286.6,130,290.2,138.9,300.3,146.1z"/>
<path class="st2" d="M386.1,178.2c-4.2-2.9-6.1-6.6-5.6-11.2c-30.8,3.5-41-10.9-42.5-7C337.1,165.4,353.4,188.8,386.1,178.2z"/>
<path class="st7" d="M386.1,178.2c-7.5,5.1-14,18.4-19.5,18.1c-2.6-0.9-5.4-5.1-8.1-11.3"/>
<path class="st8" d="M380.4,167c-30.8,3.5-41-10.9-42.5-7c-0.9,5.4,15.4,28.8,48.1,18.2"/>
<path class="st8" d="M300.6,132.5c-4.6-0.5-10.9-6.6-12.4-4.2c-1.6,1.7,2,10.6,12.1,17.8"/>
<path class="st9" d="M381.8,133.4l-0.5,9.7c6.3,3.6,11.2-0.3,16.8-0.4c5.1-11,1.8-22.9-2.7-23.8
	C389.6,117.5,383.3,122.9,381.8,133.4z"/>
<path class="st10" d="M375.6,184.4c-4.2-0.7-6.5,0.5-8,2.4c-0.6-1.6-2.7-2.4-6.2-2.4"/>
<path class="st7" d="M461.1,78c33.9-9.1,55.3,3.4,55.9,16.4c0.1,7-11.5,9.8-2.2,18.8c6.3,6,7.9,15.6-0.2,17.9
	c-15.9,7.2-4.8,20.5-10.7,25.8c-9.4,8.9-18.1-10.1-25.9,2.5c-4.4,8.2-12.1,7.7-18.1,0.1"/>
<path class="st7" d="M467.1,99.1c10.3,6.6,22.9,0.1,31.5,5.7c6.4,4.1,6.2,15.8,0.9,21.1"/>
<path class="st11" d="M389.6,139.9c3.7,0,6.7-3,6.7-6.7s-3-6.7-6.7-6.7c-3.7,0-6.7,3-6.7,6.7C382.8,136.8,385.9,139.9,389.6,139.9z"
	/>
<circle class="st2" cx="394" cy="136.7" r="2.8"/>
<path class="st12" d="M455.6,249.6c-17.9,4.1-32.9,3.7-36.9-2.7l-2.9-6.2c4.4-1.3,13.3-1.7,17.2,4.5
	C436.7,238.7,443.7,239.1,455.6,249.6z"/>
<path class="st12" d="M415.7,119.1c-1.7-6.1-13.5-10.6-8.7-13.7C411.9,102.4,419.6,112.4,415.7,119.1z"/>
<path class="st7" d="M415.7,119.1c-1.7-6.1-13.5-10.6-8.7-13.7C411.9,102.4,419.6,112.4,415.7,119.1z"/>
<path class="st7" d="M345.1,43.1c-20.5-28.9-38-22-37.6-12.2c0.4,17.8-15.2,10.5-17.5,19.9c-2.6,9.6,11.2,13,2.5,23.1
	c-6.2,7.1-0.6,21.6,16.1,23.8"/>
<path class="st5" d="M331.9,53.8c-9.1,10.6-15.5,22.1-20.4,32.9c-0.9-1.3-1.2-4.7-0.2-6.4c-6.3-2.8-9.9-10.6-8.8-17.3
	C305.6,46.2,318.3,40.1,331.9,53.8z"/>
<path class="st7" d="M302.6,63c3-16.9,15.7-22.9,29.3-9.3"/>
<path class="st12" d="M390.9,319.9c11.4,13.3,39.5,9.1,45,4.7c-6-4.9-18.3-12.5-26.6-4.4C406,316,391.7,311.5,390.9,319.9z"/>
<path class="st7" d="M435.9,183.6c20.4,26.1,24.7,47.6,19.7,66.1c-12,4-33.6,4-36.9-2.7c-4.6-7.7-7.2-20.1-7.9-37.4"/>
<path class="st12" d="M299.4,217.8c5.6,14.4,14.7,21,25.4,23.9l3.7-3c0.4-9.7-8.3-15.7-14.6-12.3
	C313.6,218.3,304.7,214.1,299.4,217.8z"/>
<path class="st7" d="M412.1,224.7c-3-0.7-7.7-4-8.8-9"/>
<path class="st12" d="M377.8,313.4c-10.7,6.8-30.2,6.3-45.6-6.5c11.1-4.8,19.5-5.4,22.2,3.3C358.2,302.3,366,303.4,377.8,313.4z"/>
<path class="st7" d="M415.9,240.7c4.4-1.3,13.3-1.7,17.2,4.5c3.6-6.6,10.6-6.2,22.5,4.4"/>
<path class="st7" d="M444.4,252c-6.2,20.3-21.9,33.5-51.4,36.9c-27.1,3.7-66.2-11.3-62.1-51.4"/>
<path class="st7" d="M433.6,271.7c10.9,17.5,14.2,36,8.6,48.9c-4,8.2-39.2,13.1-51.4-0.7c-0.4-12,6.4-22.8,4.2-31.3"/>
<path class="st7" d="M436.4,325c-13-10.3-22.3-9-27-4.8c-9.3-9.3-15-5.5-18.5-0.3"/>
<path class="st7" d="M441.8,259.3c14.8,5.6,17.4,21.8,36.4,15.6c-16.6,12.7-24.9-4.7-40.8-7.1"/>
<path class="st7" d="M341.5,272.2c0.7,12.1-10.1,18.2-12.1,29.6c3.5,14.1,43.5,25.1,54.7,4.9c1.5-2.8,3.4-8.9,1.7-17.3"/>
<path class="st7" d="M333.8,233.2c-2.8,4.8-5.1,6.6-9,8.5c-7.6-1.2-22.7-11.3-25.4-23.9c4.7-10.6,8.3-12.4,12.9-18.1"/>
<path class="st7" d="M328.5,238.7c0.4-9.7-8.3-15.7-14.6-12.3c-0.3-8.1-9.1-12.3-14.5-8.6"/>
<path class="st7" d="M332.2,306.9c11.1-4.8,19.5-5.4,22.2,3.3c3.8-7.9,11.6-6.8,23.4,3.3"/>
<path class="st13" d="M400.9,260.8c2.6-0.5,0.2-3.7,0.3-5.6l2.2-2.5c2.2,3.4,2.9,9,2.7,15.3l-4.9-0.6
	C401.5,265,401.3,262.8,400.9,260.8z"/>
<path class="st12" d="M385,159.6c-2.1,7.8-3.5,9.8,4,20.4C380.1,172.8,376.7,167.6,385,159.6z"/>
<path class="st8" d="M403.4,252.7c2.2,3.4,2.9,9,2.7,15.3l-4.9-0.6c0.4-2.4,0.2-4.6-0.3-6.5"/>
<path class="st14" d="M326.2,234.3c-2.2-3.5-5.3-5.7-9.6-7.4C321.5,227,325,229.5,326.2,234.3z"/>
<path class="st14" d="M452.7,249.4c-3-2.8-11.7-6.8-17-4.6C439,239.2,450.3,245.1,452.7,249.4z"/>
<path class="st12" d="M352.5,275.4c8,5,18.6,6.6,27.7,6.7C371.5,284.9,359.8,284,352.5,275.4z"/>
<path class="st12" d="M415.1,210.6c-0.1,7.1,1.5,19.1,4.3,27.7C413.4,230.4,411.3,217,415.1,210.6z"/>
<path class="st14" d="M431.3,324.7c-6.9-3.4-14-3.8-22.3-1.9C416.7,317.7,424.6,318.1,431.3,324.7z"/>
<path class="st14" d="M355.6,310.8c4.2-3.2,11-2.7,18.6,1.9C366.6,306.1,359.4,303.6,355.6,310.8z"/>
<path class="st12" d="M335,35.7c-5.5-4.8-16.8-9.1-23-9.2C317.1,22.7,327.7,26.1,335,35.7z"/>
<path class="st12" d="M378.7,132.6c2.1-9.5,8.4-19.2,13.9-21.8C383.7,109.8,378,122.6,378.7,132.6z"/>
<path class="st15" d="M328.2,52.6c-7.7-2.3-13.6-2.3-19.8,1.6C314.9,46.5,320.2,47.2,328.2,52.6z"/>
<path class="st15" d="M501.1,114.5c-4.1-7.5-11.2-7-20.4-9.2C490.8,105.1,498.9,103.2,501.1,114.5z"/>
<path class="st7" d="M384.2,159c-11.2,14.6,5.3,19.5,7.4,25.4"/>
<path class="st7" d="M389.1,30.1c-4.6,2.5-11.9,3.6-14.8,1.1c-42,6.5-70.2,51.3-73.8,102.9c-3.9,65.9,38,131.2,99.7,126.9
	c4.5-0.3-1.6-5.4,2.4-7.3c3.4-3.2,1.9-6.6-2.9-8c-27.5-6.4-43.1-28.6-41.1-66"/>
<path class="st12" d="M321.6,75.1c-8.3,14-13.4,29.6-16.9,48.5C304.4,105,310.1,87.7,321.6,75.1z"/>
<path class="st12" d="M329.6,220.6c7.5,10.6,17.3,19.1,30.1,27.2C345.7,242.9,334.9,233.4,329.6,220.6z"/>
<path class="st7" d="M335.5,226.8c-1.7,0.7-3.5,2.4-4,4.1 M352.8,240.3c-1.9,1.2-3.7,3.5-4,5.5 M325.6,121c-2.5-1.9-6.1-2.1-8.6-1.6
	 M334.4,107.5c-3.5-2.6-8.8-3.5-12.7-3.3 M320.2,149.6c-1.9-0.8-4.6-1-6.3-0.1 M325.8,215.9c-1.4,0.4-3,1.4-3.7,2.7"/>
<path class="st12" d="M513.6,93.1c-5-10.5-29.2-16.7-39.9-14.5C486.7,74.1,513.5,79.8,513.6,93.1z"/>
<path class="st12" d="M399.4,253.7c8.8-4.2-1.1-8.5-12.8-9C396.1,247.5,402.4,247.9,399.4,253.7z"/>
<path class="st4" d="M404.7,113.2c4.1,7,1.5,22.6-1.8,28.5h3.9C411.9,134.4,411.7,122,404.7,113.2z"/>
<path class="st7" d="M377.4,140.1c9.5,9.9,20.8-0.4,30.8,1.9"/>
<path class="st16" d="M366.7,271.6h47.7l-7,36.9c-1.7,8.6-31.6,9.4-33.6,0L366.7,271.6z"/>
<path class="st17" d="M400.3,275.9l14.1-4.3l-7,36.9c-1.7,8.6-31.6,9.4-33.6,0C389.7,314.7,399.5,306.1,400.3,275.9z"/>
<path class="st18" d="M366.7,271.6h47.7l-7,36.9c-1.7,8.6-31.6,9.4-33.6,0L366.7,271.6z"/>
<path class="st7" d="M402.9,141.8c6.5-14,2-28.3-3.7-29.5c-8.7-0.9-18.7,10.7-17.9,30.8"/>
<path class="st19" d="M390.6,276.3c13.1,0,23.9-2.1,23.9-4.7c0-2.6-10.7-4.7-23.9-4.7c-13.1,0-23.9,2.1-23.9,4.7
	C366.7,274.2,377.4,276.3,390.6,276.3z"/>
<path class="st18" d="M390.6,276.3c13.1,0,23.9-2.1,23.9-4.7c0-2.6-10.7-4.7-23.9-4.7c-13.1,0-23.9,2.1-23.9,4.7
	C366.7,274.2,377.4,276.3,390.6,276.3z"/>
<path class="st20" d="M398.4,245.2c-9.5-7.2-24.4,5.3-23.6,29.9l4.6,0.6C379.6,255.2,386.9,243.6,398.4,245.2z"/>
<path class="st21" d="M398.4,245.2c-9.5-7.2-24.4,5.3-23.6,29.9l4.6,0.6C379.6,255.2,386.9,243.6,398.4,245.2z"/>
<ellipse class="st20" cx="376.8" cy="278.8" rx="4" ry="4.2"/>
<ellipse class="st21" cx="376.8" cy="278.8" rx="4" ry="4.2"/>
<path class="st22" d="M371.6,284.6c2.9,1.6,6.4,19.5,4,22.4L371.6,284.6z"/>
<path class="st17" d="M410.2,272.4c0-3.5-23.1-4.1-26.5-2.1C396.4,269.7,404.9,271.5,410.2,272.4z"/>
<path class="st23" d="M252.5,178.1l-3-6.1c3.8-3,6.7-7.1,8.3-12.6c9.2-5.6,17.6-8.1,25.6-9.2c-1,2-8.5,6.5-4.9,6.5
	c3.4,0,6.4-1.3,9.6-1.3c1.9,0-6.2,5.1-7.8,5.8c-2.2,1.1,5.3,0.8,5.6,1.1C289.9,165.8,275.5,178,252.5,178.1z"/>
<path class="st24" d="M257.9,159.5c9.2-5.6,23.3-11,25.6-9.2c-1,2-8.5,6.5-4.9,6.5c3.4,0,6.4-1.3,9.6-1.3c1.9,0-6.2,5.1-7.8,5.8
	c-2.2,1.1,5.3,0.8,5.6,1.1c3.9,3.4-10.5,15.7-33.5,15.7"/>
<path class="st2" d="M195.4,130.5c-9.3,36.3,30.3,58.1,60.5,35.2c16.8-14.5,10.2-42.6-2.4-55.7C234.8,90.6,202.5,101.1,195.4,130.5z
	"/>
<path class="st2" d="M220.8,297.8c-10.2-2.4-19.3-7.3-27.4-14.7c-13.3,1.3-17.6,11-13.7,16.3C183.3,304.7,200.5,302,220.8,297.8z"/>
<path class="st25" d="M220.8,297.8c-8.6-3-10.9,0.3-21.8-6.2c-0.3,8.6-19,10.3-19.3,7.8C182.7,307.6,213.2,303.3,220.8,297.8z"/>
<path class="st26" d="M234.3,175c-33.2,0.5-61.9,31.1-64.2,61.8c-1.8,42.8,50.6,77.8,91,40.6c-22.1,8.7-48.6,3.1-65.2-18.9
	c-11.2-13.2-12.5-33.4-3.1-48.7c9.7,3.3,14-10.9,7.3-16.2c16.2,7.9,39.3,5.1,50.2-5L234.3,175z"/>
<path class="st23" d="M257.8,182.5l0.1-12.6l14.6,0.3c11.8,3.3,26.4,17.9,22.7,22.9c-3.5-0.8-8-4.1-5.7,0.4c0.4,0.8,2.4,6.5,1.6,7.2
	c-2.7,2.6-6.4-2.5-8.9-0.6c-2,1.5,1,4.9-2.9,7.2C275.1,197.7,267.3,190.3,257.8,182.5z"/>
<path class="st24" d="M272.5,170.2c11.8,3.3,26.9,19.5,22.7,22.9c-3.5-0.8-8-4.1-5.7,0.4c0.4,0.8,2.4,6.5,1.6,7.2
	c-2.7,2.6-6.4-2.5-8.9-0.6c-2,1.5,1,4.9-2.9,7.2"/>
<path class="st25" d="M261.4,286.1l-16.7,8.5c4.7,4.8,37.5,5.7,40.8-0.1C283,295.7,264.2,293.5,261.4,286.1z"/>
<path class="st26" d="M196.8,131.6c-9.1,35.4,29,58.8,54.7,31.5c-45.6,25.4-59.1-33.7-40.5-50.9C203.8,116.4,201.2,120,196.8,131.6z
	"/>
<path class="st27" d="M195.4,130.5c-9.3,36.3,30.3,58.1,60.5,35.2c16.8-14.5,10.2-42.6-2.4-55.7C234.8,90.6,202.5,101.1,195.4,130.5
	z"/>
<path class="st27" d="M227.9,175c-33.2,0.5-55.6,31.1-57.8,61.8c-1.2,37.1,28.5,72.6,76.3,57.2c32.6-13,43.1-39.7,39.6-65
	C282.2,200.7,259.1,171.8,227.9,175z"/>
<path class="st28" d="M199.2,200.8c-10.1-8.1-17.2-28.7-22.4-52.5c3.8-2.7,9.7-8.2,6.9-21.2c-0.1-1.4-1.9-1.3-1.9,0.3
	c1.5,8.7-2.8,14.8-5.9,16.4c-1.4-7.6-1.1-15.7-4.9-24.4c-0.8-1.8-3.2-1.3-3.1,0.4c2,6.8,2.9,12.9,3,18.1c-3.1-0.7-7-3.7-10.2-7.3
	c-0.8-0.9-2.2,1-1.3,2.2c2.8,3.9,8.3,8.6,12.4,8.5c4.3,24.3,9.8,47.1,21.2,62C195.9,207.1,200.6,202.3,199.2,200.8z"/>
<path class="st29" d="M199.2,200.8c-10.1-8.1-17.2-28.7-22.4-52.5c3.8-2.7,9.7-8.2,6.9-21.2c-0.1-1.4-1.9-1.3-1.9,0.3
	c1.5,8.7-2.8,14.8-5.9,16.4c-1.4-7.6-1.1-15.7-4.9-24.4c-0.8-1.8-3.2-1.3-3.1,0.4c2,6.8,2.9,12.9,3,18.1c-3.1-0.7-7-3.7-10.2-7.3
	c-0.8-0.9-2.2,1-1.3,2.2c2.8,3.9,8.3,8.6,12.4,8.5c4.3,24.3,9.8,47.1,21.2,62C195.9,207.1,200.6,202.3,199.2,200.8z"/>
<path class="st27" d="M189.8,285.1c-8.8,0.3-13.9,8.9-10.1,14.3c7.1,8.6,31.9,4.3,40.6-1.7"/>
<path class="st27" d="M244.7,294.6c4.7,4.8,37.5,5.7,40.8-0.1c3.6-4.7-2.8-17.6-17.3-13.8"/>
<path class="st27" d="M214.3,144.6c10.3,19.1,33.7,11.8,35.3-4.2"/>
<ellipse transform="matrix(0.9551 -0.2962 0.2962 0.9551 -25.3465 71.7047)" class="st30" cx="224" cy="119.5" rx="1.9" ry="3"/>
<path class="st27" d="M215.3,141.9c-2-1.1-4.1,0.9-3.7,2.4"/>
<path class="st31" d="M233.5,141.6c4.5,0,8.1-3.2,8.1-7.1s-3.6-7.1-8.1-7.1s-8.1,3.2-8.1,7.1S229.1,141.6,233.5,141.6z"/>
<path class="st31" d="M223.5,130.4c-2.7-4.2-6.9-6.1-12.8-6.4C216.8,121.3,221.6,123.6,223.5,130.4z"/>
<path class="st32" d="M203.1,164.3c-3,6.4-4.2,14.5-0.9,17.9c12.6,17.2,49.1,11.4,55.6,0.3c2-6.4,2.1-12.2-1.9-16.8
	C236.5,179.7,214,177.1,203.1,164.3z"/>
<path class="st33" d="M203.1,164.3c-3,6.4-4.2,14.5-0.9,17.9c12.6,17.2,49.1,11.4,55.6,0.3c-0.9-4.9-8-2.5-15.5-0.6
	C217.5,185.3,221.8,176.6,203.1,164.3z"/>
<path class="st24" d="M203.1,164.3c-3,6.4-4.2,14.5-0.9,17.9c12.6,17.2,49.1,11.4,55.6,0.3c2-6.4,2.1-12.2-1.9-16.8
	C236.5,179.7,214,177.1,203.1,164.3z"/>
<path class="st24" d="M201.1,169.8c1.9,9.8,15.6,17.5,28,17.4"/>
<path class="st34" d="M231.3,128.9c8-3.3,16.6-5,23.9-9.8c-2.8,9.7-11.6,19.3-17.2,20.6C226.3,142.4,227,131,231.3,128.9z"/>
<path class="st35" d="M231.3,128.9c-1,16.6,20.6,0.8,23.9-9.8c-2.8,9.7-11.6,19.3-17.2,20.6C226.3,142.4,227,131,231.3,128.9z"/>
<path class="st36" d="M231.3,128.9c8-3.3,16.6-5,23.9-9.8c-2.8,9.7-11.6,19.3-17.2,20.6C226.3,142.4,227,131,231.3,128.9z"/>
<ellipse transform="matrix(0.955 -0.2966 0.2966 0.955 -23.5333 75.2235)" class="st30" cx="236.2" cy="115.2" rx="1.7" ry="2.7"/>
<path class="st27" d="M247.9,138.4c1.2-1.6,3.7-0.8,4,0.6"/>
<path class="st37" d="M195.4,130.5c-9.3,36.3,30.3,58.1,60.5,35.2c16.8-14.5,10.2-42.6-2.4-55.7C234.8,90.6,202.5,101.1,195.4,130.5
	z"/>
<path class="st37" d="M227.9,175c-33.2,0.5-55.6,31.1-57.8,61.8c-1.2,37.1,28.5,72.6,76.3,57.2c32.6-13,43.1-39.7,39.6-65
	C282.2,200.7,259.1,171.8,227.9,175z"/>
<path class="st38" d="M141.8,77.2l-16.3,0.6C120.4,91.1,147.2,85.3,141.8,77.2z"/>
<path class="st39" d="M141.8,77.2c8.2-5.5,15.8-38.3,11.9-63.9l-3.3,4.5c-1-7-2.6-12-5.3-12.7l-1.8-4.2L137.4,20
	c0.5-8-0.3-13-4.1-11.5c-2.5,2.8-5.2,3.5-8.1,2c-0.8-4-2.9-8.2-6.5-3.7c-2.8-0.8-4.2,6-5.2,18.8c-1.5-11.6-4.7-12.7-5.4-7.6
	c-2.6,19.8,9.6,58.7,17.5,59.9C129.3,84,140.1,80.5,141.8,77.2z"/>
<path class="st40" d="M141.5,71.8c6.7-5.5,10-27.8,12.9-52.1l-4,5.1c-1-7-1.6-4.9-4.4-5.5l-1.8-4.2c-1.3,14.2-6.5,17.6-6.8,11.9
	c0.5-8-0.3-13-4.1-11.5c-2.5,2.8-8.6-11.4-6.1,26.3c-0.8-4-3.3-32.7-6.9-28.1c-2.8-0.8-4.7,4.6-5.7,17.3c-1.2-12.6-5.2-20.1-6.5-13
	c0.1,19.8,11.3,50.3,14.6,51.6C125.6,87.5,144.6,80.9,141.5,71.8z"/>
<path class="st4" d="M134.3,153.9l3.9,73.3l-4.5,6.8L106,189.8C117.1,189.5,127,157.4,134.3,153.9z"/>
<path class="st3" d="M133.1,176.2c-11,11.3-11.2,19,13.4,6.7c-20.8,11.8-18.7,17.5-4.1,15.2l1.2,21.9c15.3-32.9,8.3-64.9-3.7-68.1
	C117.4,181.5,129,177.5,133.1,176.2z"/>
<path class="st12" d="M29.4,237.2l48.9-14.8c24.8,18.7,19.1,39.5-11.7,62.1c-17.5,12.6-35,18.3-51.7-24.2L29.4,237.2z"/>
<path class="st3" d="M132.7,255c-9.4,55.1-60.4,82.8-99.9,55.6c48.2-34.4,60.6-52.8,55.3-73.1c-3.3-13.8-34.2-10.2-51,1
	c-7.8,4.6-14.6,10.4-19.4,18.6l-5.5,6.4C1,246.4-1.5,228,6.6,208.1l0.6,4.5l3.1-9.3c7.5,13.7,16.6,21.6,26.8,26.2
	c16.9-8.4,35.3-15.9,35.9-30.2l-27.9-24.2l13.4-13.6l24.8,12.1c14,11.5,45.7,25.8,45.9,49.1C129,219.4,140.2,245.6,132.7,255z"/>
<path class="st4" d="M27.4,235.5c-10.2,7.6-15.3,16.9-15.3,28C1,246.4-1.5,228,6.6,208.1l0.6,4.5l0.6,4.5
	C5.8,238,12,248.9,27.4,235.5z M132.7,255c-9.4,55.1-56.4,79.6-95.9,52.4C85,273,86,274.4,90.6,263.8
	C96.4,277.6,119,290.4,132.7,255z"/>
<path class="st4" d="M72.9,199.3L45,175.1l10.4-2.2c21.3,14.6,32.4,30,25.3,46.7C79.7,211.9,77.1,205.1,72.9,199.3z"/>
<path class="st12" d="M55.4,172.9c3.4-1.9,5.1-4.9,4.5-9.7l-8.7-15c-9.2-5.2-16.8-3.9-22.3,7.1l-1.5,3.5l6.8-4
	C20.6,164.9,39,181.2,55.4,172.9z"/>
<path class="st41" d="M90.4,158.4l-36.9-8.7l-3.8,4l0.9,2.9l3.3,2.4c3.5,0.7,12.7,11,19,14.3C80.3,177.3,89.3,174,90.4,158.4z"/>
<path class="st34" d="M97.9,139.1c-7.7,0.2-14.2-7.9-22.4-6.8c-10.6,1.7-7.3,12.8-17.4,13.7c-6,0.2-12.9,4.7-6,11.6
	c-2.1-2.7,0.7-6.3,2.5-5.4c8.2,7.8,26.2,10,35.7,6.1c17-8.8,18.9-20.4,10.9-19.5L97.9,139.1z"/>
<path class="st42" d="M104.1,306.5c-5.4,3.9-13.2,9-18.6,10.5c0.3,9.3,4.9,15.3,9.6,19c5.2,2.7,8.4,0.9,7.3-2.2
	c-0.7-2.2,0.7-5.2,3.9-3.7c2.7,1.4,7,2.2,8.4,0.4c1.3-2,0-3.4-2.1-4.8c-2.9-1.9-2.1-5.7,2.8-4.3c4.7,1.3,6.5-4.5,1.2-6.3
	C111.2,313.4,106.1,310,104.1,306.5z"/>
<path class="st12" d="M97.9,139.1c-7.6-0.2-10.4-4-15.6-6C91.2,123.2,97.4,126.3,97.9,139.1z"/>
<path class="st43" d="M85.5,317.1c-0.4,6.6,4.2,14.6,9.6,19c4.5,3,7.7,0.9,7.3-2.8c-0.3-3.1,1.8-4.5,4.8-2.7c2.7,1.4,6.1,1.8,7.5,0
	c1.3-2,0-3.4-2.1-4.8c-2.9-1.9-2.1-5.7,2.8-4.3c4.7,1.3,6.5-4.5,1.2-6.3c-5.6-1.8-10.1-4.3-12.1-7.8"/>
<path class="st3" d="M43.4,105.3c22-10.4,42,1.5,47.4,22l-3.1,1.2l-5.4,4.7c-7.6-2.6-12.9,0.6-16.8,7.6c-2.6,7.3-10.1,3.5-14.5,7.7
	c-9.1-5.3-16.4-3.8-22.1,6.9c-7.1-15.3-8.6-33.7,4.4-44.5c-0.3-3,0.4-6.7,2.3-8.6l2.8,7.6c0-4.9,1.1-8.2,3.5-10.1
	C42.1,103.5,42.9,104.3,43.4,105.3z"/>
<path class="st4" d="M39.5,145.6c-2.4,0.8-5.4,2.2-10.6,9.8c-7.1-15.3-5.5-32.6,7.5-43.4C32.8,119.4,29.6,141.6,39.5,145.6z"/>
<path class="st2" d="M88.6,128l-6.2,5.1l-4.1-0.9h-2.7c-2.9-11.5-3.5-18.6-1.1-20.2C78.2,111.5,84.6,118.3,88.6,128z"/>
<path class="st38" d="M88.6,128l-6.2,5.1l-4.1-0.9c-2.6-7-2.6-14.6-0.2-16.1C80.8,114.6,84.6,118.3,88.6,128z"/>
<path class="st2" d="M43.8,145.7l7.2,2.8c4.8-3.8,13-0.9,14.4-7.5c-3.8-12-9.8-23.3-14.1-22.8C46.3,118.9,42.7,133.2,43.8,145.7z"/>
<path class="st38" d="M50,147.8l1,0.7c4.8-3.8,13-0.9,14.4-7.5c-3.8-12-7-16.7-11.3-16.3C48.5,125.5,46,140.3,50,147.8z"/>
<path class="st7" d="M90.8,127.3C85.7,107,63.5,95.2,44.1,105"/>
<path class="st7" d="M51,148.5c-9.1-5.3-16.4-3.8-22.1,6.9c-7.1-15.3-8.6-33.7,4.4-44.5c-0.3-3,0.4-6.7,2.3-8.6l2.8,7.6
	c0-4.9,1.1-8.2,3.5-10.1c0.2,3.8,1.7,6.5,3.9,8.3"/>
<path class="st7" d="M28.9,155.4l-1.5,3.5l6.8-4c-13.7,10.1,4.7,26.3,21.1,18"/>
<path class="st7" d="M82.4,133.2c8.9-10,15.1-6.9,15.6,6"/>
<path class="st7" d="M65.5,141c-3.8-12-9.8-23.3-14.1-22.8c-5,0.7-8.6,15.1-7.6,27.5"/>
<path class="st7" d="M75.6,132.3c-2.9-11.5-3.5-18.6-1.1-20.2c3.7-0.7,10.2,6.1,14.1,15.8"/>
<circle class="st44" cx="74.5" cy="140.5" r="2.8"/>
<path class="st7" d="M45,175.2c14.9,13.7,34.1,21.3,35.7,44.4"/>
<path class="st7" d="M83.2,173.7c14,11.5,45.7,25.8,45.9,49.1c-1.6,1.9-4.3,1.2-8.1-2.1"/>
<path class="st7" d="M129,222.8c6.7,11.6,8.4,28.2,3.7,32.2c-1.5,0.3-3.1-1-4.6-3.9"/>
<path class="st7" d="M132.7,255c-9.1,57.5-64.9,81.2-99.9,55.6"/>
<path class="st7" d="M37.1,229.5C27,226,17.4,216.6,10.3,203.3c-2.5,5.2-2.8,9.9-2.5,13.8l-1.2-9c-8,23.2-5.1,40.2,5.3,52.9"/>
<path class="st3" d="M66.6,284.5c-25.3,20-45.6,32.7-51.3,46c-2.6,3.3-9.4-3,0.5-29.9c-4.8,3.6-9.2,14.5-12.4,14.9
	c-4.3-3.7-0.8-15.3,6.2-30.5c-4,4.3-6.8,6.4-7.8,5.5c-1.9-1.4-1.8-14.9,15.9-33.4c-1.5,3.6,2.3,7.9,9,5.1
	c-2.6,6.9,5.1,10.3,13.4,9.2C32.4,281.9,45.9,292.7,66.6,284.5z"/>
<path class="st7" d="M72.9,199.3c-2.1,29-59.2,22.8-60.8,64.2"/>
<path class="st7" d="M88.1,237.5c9.4,44.6-57.7,62.4-72.7,93c-4.6,8.4-10.5-19.5,9.9-45.8"/>
<path class="st7" d="M15.8,300.6c-5.1,4.3-9.9,15.3-12.4,14.9c-3.5,0.3-3.2-24.4,17.5-45.3"/>
<path class="st7" d="M9.6,285c-4,4.3-6.8,6.4-7.8,5.5c-1.9-1.4-1.8-14.9,15.9-33.4c-1.5,3.6,2.3,7.9,9,5.1
	c-2.6,6.9,5.1,10.3,13.4,9.2c-7.6,10.5,5.9,21.3,26.6,13.1"/>
<path class="st45" d="M68.6,334.2c-6-0.6-11.8-2.7-16.9-7.6c1.3-3.7,5.2-8.2,10.4-11.6c-3.9,0.9-8.6-1-13.2-3.6
	c-8.5,6.9-12.5,17.4-13.5,26.9c0.5,8.1,2.6,14.4,10.7,19.4c3.9,2.5,8.6-0.1,6.6-3.5c-1.1-2,0.4-5.4,6.4-2.5c4.4,2.1,9.7-2.3,3.2-6.4
	c-2.6-1.9,1.2-5.7,6-4.6C73.5,340.8,73.4,335.1,68.6,334.2z"/>
<path class="st43" d="M48.8,311.4c-6.8,5.7-13.2,16.8-13.5,26.9c-0.1,7.9,5.3,16.7,10.7,19.4c5,2.5,8.1-0.6,6.6-3.5
	c-1-2.2,0.7-4.3,4.1-3.3c4.3,1.6,7.1,1.9,8-0.3c1.2-2.3-0.5-4.2-2.6-5.3c-2.7-2.1,0.8-5.3,6-4.6c4.9,0.7,5.9-5.4,0.4-6.5
	c-5.9-1-12.5-3.4-16.8-7.5"/>
<path class="st46" d="M38,343.9c-0.2-7.1,1.6-13.7,5.4-21.1C37.2,329.1,35.7,336.2,38,343.9z"/>
<path class="st14" d="M26.7,249.3c14.6-8.2,34.2-15.2,48.8-17.2C63.7,227.9,40.8,237.7,26.7,249.3z"/>
<path class="st12" d="M48.2,105.8c8.2-1.3,16.2-0.2,25.3,3.1C65.3,102.6,56.8,101.9,48.2,105.8z"/>
<path class="st43" d="M62,315c-7.2,4.4-12.5,11.2-10.8,20.2"/>
<path class="st12" d="M126.8,221.2c-3.5-7.5-9.4-17.4-17.2-23.2C119.4,201.4,125.2,211.8,126.8,221.2z"/>
<path class="st12" d="M149.9,184.6c-0.5-8.6-2.4-20.5-7.6-29C150.3,162.7,151.9,175,149.9,184.6z"/>
<path class="st12" d="M11,209.1c3.5,7.5,11.4,15.9,18.6,19.6C21.1,228.4,13.2,220.6,11,209.1z"/>
<path class="st12" d="M132.3,252.6c0.3-5.1-0.1-13.1-1.6-18.8C134.9,239.4,134.2,247.1,132.3,252.6z"/>
<path class="st47" d="M68.5,156c9,1.6,28.2-2.4,33.6-10.2C97.6,157.2,79.5,159.8,68.5,156z"/>
<path class="st7" d="M44.2,307.1c6.7,7.8,14,9.5,21.7,7"/>
<path class="st7" d="M106,189.8c11.1-0.3,21-32.3,28.3-35.9"/>
<path class="st7" d="M139.9,151.9c13,3.3,18.7,39,3.7,68.1"/>
<line class="st7" x1="138.2" y1="227.2" x2="133.7" y2="234"/>
<path class="st28" d="M139.6,152.3l-5,6.8l-3.9-67.9h5.5L139.6,152.3z M136.7,198.7l5.7-0.6l5,98.5c0.1,2.6-6,3.3-6,0.5L136.7,198.7
	z"/>
<path class="st29" d="M134.6,159.2l-3.9-68h5.5l3.5,61 M142.4,198.6l5,98c0.1,2.6-6,3.3-6,0.5l-4.7-98"/>
<circle class="st11" cx="58.3" cy="136" r="4.5"/>
<circle class="st11" cx="82.6" cy="125.8" r="3.9"/>
<path class="st40" d="M135.9,102.6c-2.8,10-7.4,10.6-7.6-0.1c-3.4,5.3-4.9,2.4-2-18.4c1.9,2.3,6.9,1.5,13.2-0.7
	c5,12.9,6.8,18.8,5.4,21C143.3,107.6,137.4,106.9,135.9,102.6z"/>
<circle class="st2" cx="55.7" cy="138.7" r="2.3"/>
<path class="st48" d="M139.5,83.5c5,12.9,6.8,18.8,5.4,21c-1.6,3-7.5,2.4-8.9-1.9"/>
<path class="st48" d="M126.3,84.2c-1.5,5.4-2.6,20.1-0.8,20.9c2.1,0.9,3.5-4.4,5.7-10.6"/>
<circle class="st2" cx="80.3" cy="128" r="2"/>
<path class="st7" d="M55.1,115.8c-4.7-3-8.2-1.6-10.6,4.1"/>
<path class="st48" d="M125.2,10.4c5.1,4.9,13.1-13.8,12.2,9.5l5.9-19.1c2.9,0.1,4.3,25.1,0.4,51.5"/>
<path class="st48" d="M145,5c5.7,1.8,6.3,15.9,5.1,34.5"/>
<path class="st48" d="M150.3,17.8l3.3-4.5c3.9,33.9-4.1,58.9-11.9,63.9"/>
<path class="st49" d="M125.5,77.8c-5,13.4,21.7,7.5,16.3-0.6"/>
<path class="st48" d="M129.1,100.5c-1.2,2.5-0.6,9.7,2.9,9.6c2.2,0.1,4.2-5.6,5.9-19.9"/>
<path class="st48" d="M125.5,77.8c-2.2-3.1-3.4-8.9-3.6-17.2"/>
<path class="st43" d="M53.8,158.9c-5.1-2.1-5.6-6.9-2.8-10.4c4-3.8,11.1-0.8,13.7-5.8c2.3-6.1,6.2-9.8,10.8-10.3
	c9.6-1.6,13.8,8.7,25.7,6.5c3.6-0.7,5.6,2.1,4.1,6.1c-5.5,12.5-25.7,21.6-48.1,10"/>
<path class="st43" d="M90.4,158.4c-2,21.9-16.3,20.5-31.9,3.2"/>
<path class="st43" d="M56.3,151.4c-2.1,0.2-3.1,3-1.7,4.7"/>
<path class="st3" d="M76.1,314.9c7.5-3,28.2-10.3,38.3-27C109,302.5,87.1,316.8,76.1,314.9z"/>
<path class="st48" d="M126.7,17.3c-1.8-10.8-4.4-15.1-8-10.5c-2.8-0.8-4.2,6-5.2,18.8c-1.5-11.6-4.7-12.7-5.4-7.6
	c-2.6,19.8,9.6,58.7,17.5,59.9c3.8,6.2,19.8,3.6,16-5.9"/>
<path class="st7" d="M133.1,176.2c-12.9,14.7-9.4,17.1,13.4,6.7c-20.1,10.1-20.8,19.6,0.7,14.1"/>
<line class="st50" x1="207.6" y1="37" x2="202.7" y2="53.1"/>
<line class="st50" x1="211.8" y1="41.5" x2="198.5" y2="48.6"/>
<line class="st50" x1="213.2" y1="47.5" x2="197.1" y2="42.6"/>
<line class="st50" x1="208.7" y1="51.7" x2="201.6" y2="38.4"/>
<line class="st50" x1="178" y1="67" x2="172.2" y2="86.2"/>
<line class="st50" x1="183.8" y1="71.9" x2="166.3" y2="81.3"/>
<line class="st50" x1="184.7" y1="79.5" x2="165.4" y2="73.7"/>
<line class="st50" x1="179.7" y1="85.3" x2="170.4" y2="67.8"/>
<line class="st50" x1="252.4" y1="53" x2="257" y2="77.2"/>
<line class="st50" x1="261.1" y1="55.8" x2="248.4" y2="74.5"/>
<line class="st50" x1="266.8" y1="62.8" x2="242.6" y2="67.4"/>
<line class="st50" x1="264.1" y1="71.5" x2="245.4" y2="58.8"/>
<path class="st7" d="M139.9,151.9c-22.5,29.5-12.9,31.3,4.8,16.2"/>
<line class="st37" x1="136.2" y1="91.2" x2="147.4" y2="296.6"/>
</svg>
