<?xml version="1.0" encoding="utf-8"?>
<!-- Generator: Adobe Illustrator 21.1.0, SVG Export Plug-In . SVG Version: 6.00 Build 0)  -->
<svg version="1.1" id="Layer_1" xmlns="http://www.w3.org/2000/svg" xmlns:xlink="http://www.w3.org/1999/xlink" x="0px" y="0px"
	 viewBox="0 0 265 363" style="enable-background:new 0 0 265 363;" xml:space="preserve">
<style type="text/css">
	.st0{fill-rule:evenodd;clip-rule:evenodd;fill:#008D49;}
	.st1{fill-rule:evenodd;clip-rule:evenodd;fill:#25B34B;}
	.st2{fill-rule:evenodd;clip-rule:evenodd;fill:#9ACA3C;}
	.st3{fill-rule:evenodd;clip-rule:evenodd;fill:#FFFFFF;}
	.st4{fill-rule:evenodd;clip-rule:evenodd;fill:#CA6C38;}
	.st5{fill-rule:evenodd;clip-rule:evenodd;}
	.st6{fill-rule:evenodd;clip-rule:evenodd;fill:#A15437;}
	.st7{fill-rule:evenodd;clip-rule:evenodd;fill:#EFBB79;}
	.st8{fill-rule:evenodd;clip-rule:evenodd;fill:#F7C68C;}
	.st9{fill:none;stroke:#D0853D;stroke-width:1.6994;stroke-linecap:round;stroke-linejoin:round;stroke-miterlimit:22.9256;}
	.st10{fill:none;stroke:#0094D5;stroke-width:1.6994;stroke-linecap:round;stroke-linejoin:round;stroke-miterlimit:22.9256;}
	.st11{fill:none;stroke:#783A31;stroke-width:1.6994;stroke-linecap:round;stroke-linejoin:round;stroke-miterlimit:22.9256;}
	.st12{fill-rule:evenodd;clip-rule:evenodd;fill:#E1966C;}
	.st13{fill:none;stroke:#0A5737;stroke-width:1.6994;stroke-linecap:round;stroke-linejoin:round;stroke-miterlimit:22.9256;}
	.st14{fill-rule:evenodd;clip-rule:evenodd;fill:#8ED8F8;}
	.st15{fill-rule:evenodd;clip-rule:evenodd;fill:#C7EAFB;}
	.st16{fill-rule:evenodd;clip-rule:evenodd;fill:#CCD745;}
</style>
<path class="st0" d="M206.2,160.1c1.6,6.5,1.1,13-0.7,19.6c5.7,3.1,2.3,24-21.3,43.5l-28.4-34.3c8.8-13.2,27.8-12.9,39.9-32.5
	c4-6.3,8.5-14,11.1-12.6C209.3,146.1,209.3,151.8,206.2,160.1z"/>
<path class="st1" d="M67.5,262l-2.6-4.6l-2.9-8.7l10.7,1.4c-7.7-4.5-12.1-20.7-21-47.5c-5.8,11.2-12.7,13.8-27.2,11.7
	C28.3,236,57.6,258.7,67.5,262z"/>
<path class="st0" d="M67.5,262l-2.6-4.6l-2.9-8.7l8.4-1c-2.4-3.5-7.7-11.8-14.7-30c2.5,7.8,1.9,20.7-3.9,22
	c-3.8,1.6-19.8-3.9-27.4-25.4C28.6,235.3,54.2,258,67.5,262z"/>
<path class="st0" d="M117.2,305.2c11.7,3.4,19.5-0.7,24.8-9.8l-49.4-5.1c-0.7,13.8,3.1,18.5,16.6,19.3l4.3-1.5L117.2,305.2z"/>
<path class="st1" d="M162.6,285.3c11-3.1,24.4-12.3,22.1-20.4c6.7-7.7,9.5-11,6.6-16.4l-0.1-4.7l-3.2,4.1l-3,2.1l-59-45.2L90.1,215
	c-5.8,9.5-7.1,19-5.3,28.6c-9.1,3.5-17.4,3.2-25.3,0.4c8.2,26.9,22.8,41.7,39,48.5c8.3,3.5,17.1,4.8,25.7,4.6
	C138.6,296.8,152.3,292,162.6,285.3z"/>
<path class="st0" d="M160.7,287.2c-16.3,1.7-31.5-0.7-45.5-7.2c-10.4,1-36-0.3-51.6-24.9C84.4,305.4,132.7,304.9,160.7,287.2z"/>
<path class="st2" d="M123.2,213.2l-10.5-2.5l-0.3-6.9l38.5-16.5c31.6,7.5,39.7,44.2,34.1,62.8c-7,4.1-14.5,4.8-22.4,2
	C148.5,247,154.9,223.4,123.2,213.2z"/>
<path class="st0" d="M162.7,252.1c11.1,2.9,21.1,1.8,28.5-8.2C188.1,238.2,173.1,251.5,162.7,252.1z"/>
<path class="st2" d="M119.1,203.4l-15.4-26.3c-20.3-4.5-28.3,4.5-38.3,19.3c2.4-1.7,8.3-0.7,11,0.6l-4.3,0.5l-3.5,2.4
	C86.4,223.1,110.5,217.9,119.1,203.4z"/>
<path class="st1" d="M119.1,203.4l-8.6-4.1c-14.8,8.2-35.6-3.2-29.4-19.8c-6.3,3.1-11,10.4-15.7,16.9c3.9-1.5,7.6-1.3,11,0.6
	c-3-0.1-5.6,0.9-7.8,2.9C83.5,220.2,110.2,219.9,119.1,203.4z"/>
<path class="st1" d="M137.5,151.9l-33.8,25.2c-15.7-3.3-23.7,1.3-32.1,10.7c-18.9-25.9,1.1-42.5-1-55.3c4.3,2.1,4.4,4,5.2,6.1
	c-0.2-4,1.1-7.6,3.8-11l-0.1,5.8C104.4,117.7,128,129,137.5,151.9z"/>
<path class="st0" d="M81,179.5l-10.2,8.2c-18-32.6,3.7-42.2-0.3-55.1c4.3,2.1,6.2,5.8,6.8,10.4C73.1,149.2,69.8,165.5,81,179.5z"/>
<path class="st3" d="M97,176.2l6.7,0.9c1-5.9,5.4-12.4,9.4-17.2c-7.2-10.6-14.2-15.8-18.7-12.7C90.7,149.8,91.4,164.8,97,176.2z"/>
<path class="st4" d="M99.5,163.3c5.7,1.7,10.6-4.8,7.9-9.8c-4.3-4.4-8.4-9.3-12.3-6.7C89.8,149.5,92.3,161.2,99.5,163.3z"/>
<circle class="st5" cx="101.5" cy="152.8" r="4.3"/>
<circle class="st3" cx="98" cy="155.3" r="2.5"/>
<circle class="st3" cx="98.6" cy="163" r="2.9"/>
<path class="st4" d="M102.4,181.9c5.8-34.3,34.4-31.8,62.9-28.6c-12.6,29.8-37.8,42.7-57.8,34.7l25.8,16.5
	c-8.7,2.1-19.1-3.1-27.8-9.3C99.2,195,95.6,187.3,102.4,181.9z"/>
<path class="st3" d="M120,155.4c4.7-2.2,9-3.3,14.4-3.3c-6-12.7-14-18-17.7-16.3C113.8,138.1,116.8,149,120,155.4z"/>
<path class="st4" d="M120.3,149.3c5.1,2.5,9.5-1.9,9.3-5.8c-3.7-5.8-10.3-8.6-11.9-7.9C115.1,137.5,114,146.1,120.3,149.3z"/>
<path class="st5" d="M122.5,144.9c2,0,3.7-1.7,3.7-3.7s-1.7-3.7-3.7-3.7c-2,0-3.7,1.7-3.7,3.7C118.9,143.2,120.5,144.9,122.5,144.9z
	"/>
<path class="st3" d="M120.3,145.9c1.2,0,2.1-1,2.1-2.1c0-1.2-1-2.1-2.1-2.1c-1.2,0-2.1,1-2.1,2.1C118.2,145,119.1,145.9,120.3,145.9
	z"/>
<path class="st6" d="M154,172.8c-4.7,15.9-1.9,13.6-8,22.7c-6.8,9.7-21.7,15.4-40.4-0.3c-5-0.2-5.1-8.1-1.3-8.4
	C117.9,192.7,138.9,191.1,154,172.8z"/>
<path class="st7" d="M121,305.9c4,0.8,9.6-0.3,11.8-1.7c-4.4,8.6-6.7,17.1-7,25.7c9.9-2.5,20.5-13,29.6-7.5
	c10.4-2.3,14.5,1.2,14.1,8.7c5.6,1.9,4.2,9,0.9,8.6c-13.1-2.1-30-3.2-50.5-3.6c-6.6,0.1-4.7-5.4,0.1-6.5
	C119.1,320.9,118.9,313.9,121,305.9z"/>
<path class="st8" d="M97,306.1l3.9,2l8.2,1.7c-5.1,8.9-7.8,18.4-8.1,28.5c17.9-2.3,27,1.6,26.8,7.5c5.8,3.6,4.8,8.6,0.5,11.2l-1.1-1
	c0.9,3.3-7.5,8.3-12.9,4.7c-11.7-10-19.6-15.9-32-16c-2.6,0.4-3.5-4-0.3-4.6c3.2-1,7.1-1.7,11.8-2C92.3,326.7,92.1,316.3,97,306.1z"
	/>
<path class="st9" d="M142,327.5l13.5-5.2c-11.6-4.6-19.7,5-29.6,7.5c0.2-8.4,2.2-17,7-25.7"/>
<path class="st9" d="M154,330.2l15.6,0.9c0.3-7.1-6.3-11.1-14.1-8.7"/>
<path class="st9" d="M169.6,331.1c5.6,1.9,4.2,9,0.9,8.6c-13.1-2.1-30-3.2-50.5-3.6c-6.6,0.1-4.7-5.4,0.1-6.5
	c-1.1-8.8-1.3-15.7,0.8-23.8"/>
<path class="st9" d="M109.2,309.5c-6.4,10.8-8.3,21.7-8,32.2"/>
<path class="st9" d="M101.2,338.4c20.5-1.2,27.5,2,26.8,7.5"/>
<path class="st9" d="M108.7,346.8c9.6,3.2,14.8,5.9,18.8,10.2c4.6,0.8,11.7-13.2-12.5-13.4"/>
<path class="st9" d="M127.4,357c-0.1,3.2-7.5,7.3-12.9,3.7c-11.7-10-19.6-15.9-32-16c-2.6,0.4-3.5-4-0.3-4.6c3.2-1,7.1-1.7,11.8-2
	c-1.6-10.9-1.4-22.1,3-32"/>
<path class="st10" d="M181.6,274.1c0.6,7.1,3.2,16.1-0.5,21.1"/>
<path class="st11" d="M106.4,184.2c-2.3,1.2-2.8,3.2-1.6,6.1"/>
<path class="st6" d="M120.1,162.2c1.4,0.5,2.1,2.6,1.5,4.7c-0.6,2.1-2.2,3.4-3.6,2.9c-1.4-0.5-2.1-2.6-1.5-4.7
	C117,163,118.7,161.7,120.1,162.2z"/>
<path class="st0" d="M126,268.8c32.1-2.6-6.6-46.2-28.3-45.1c-7.6,0.5-12.9,6.2-13.4,13.8c0.4,12.9,7.7,24.4,17.1,34
	C110,278.1,125.6,276.6,126,268.8z"/>
<path class="st12" d="M131.4,154.6c-7.7,1.8-16.1,6.7-21.2,13.3C113.1,159,122.1,154.5,131.4,154.6z"/>
<circle class="st3" cx="122.1" cy="149.4" r="2.5"/>
<path class="st13" d="M191.2,243.9c-3-5.7-18,7.6-28.5,8.2"/>
<path class="st11" d="M154,172.8c-5.3,32.9-22.2,39.2-43.5,26.5"/>
<path class="st13" d="M206.3,159.9c3.1,9.8,0,24.6-11.6,40.8 M155.9,188.7c8.8-13.2,27.8-12.9,39.9-32.5c4-6.3,8.5-14,11.1-12.6
	c4.3,4.1,0.9,19-13.8,40.1 M205.5,179.7c4.9,1.4,3.6,22.8-21.3,43.5"/>
<path class="st10" d="M186.7,94.9c27.4,62.5-8.3,111.8-6.1,155.3"/>
<path class="st14" d="M183.9,95.9l5.3-2.1c18.3,6.9,15.5,20.1,3.9,9c5.7,12.2-2.4,12.1-3.3,2.5C187.3,118.6,177.1,118.7,183.9,95.9z
	"/>
<path class="st10" d="M189.2,93.9c18.3,6.9,15.5,20.1,3.9,9c5.7,12.2-2.4,12.1-3.3,2.5c-4.4,16.2-11.6,9-5.9-9.5"/>
<path class="st14" d="M186.7,94.9c32.7-12.9,31.9-68.6-3.3-86.4C165-2.3,121.1,5.9,128.3,50.6C134.3,93.4,173.7,102.2,186.7,94.9z"
	/>
<path class="st10" d="M186.7,94.9c32.7-12.9,31.9-68.6-3.3-86.4C165-2.3,121.1,5.9,128.3,50.6C134.3,93.4,173.7,102.2,186.7,94.9z"
	/>
<path class="st15" d="M189.8,17.2c-9.9-5.3-20.9-7.9-34.4-8.4C169.4,5.4,180.8,8.6,189.8,17.2z"/>
<path class="st13" d="M117.2,305.2c11.4,3,18.8-0.7,24.8-9.8 M92.6,290.4c-0.7,13.8,3.1,18.5,16.6,19.3c3.7-0.3,8.1-3.2,14.1-11.4
	 M66.7,261.6c-21.6-10.5-36.6-26.8-42.3-47.4c13.7,2.6,23.3-1.2,27.2-11.7c4.3,19.5,9.8,32.2,17.7,43.6 M62.7,252.8
	c-6.9-2.7-13.1-9.7-20-21.5 M124.5,297.4c14-0.5,27.5-5.3,38-12.1 M84.9,243.6c-9.1,3.5-17.4,3.2-25.3,0.4
	c7.3,23.9,19.4,38.4,33.3,46.1c2.2,1.2,4.4,2.2,6.6,3.1 M101.4,271.4c10.5,6.3,23.2,5.1,24.6-2.6c10.8,3.9,19-2.4,20.4-9.7
	c6.1-2.2,9.2-13.7,3.7-23.6 M184.6,265c-8.1,10.6-37.8,19.4-58.7,4.3 M146.3,259.1c22.4,15.8,49-5.1,44.8-15.2 M191.2,243.9
	c-1.3,4.6-13.3,13-28.5,8.2c-13.5-6.8-9.1-27.8-39.4-38.9 M90.2,215.1c-12.5,20.1-3.7,44.5,11.2,56.3c49.2,34.3,86.8,4.2,83.1-6.5
	c4.3-4.2,10-9.7,6.6-16.4 M103.7,177.1c-24.6-5.1-32,10.9-38.3,19.3c4.2-1.5,7.9-1.5,11,0.6c-3.3-0.3-5.9,0.7-7.8,2.9
	c15.4,20.2,36.8,19.5,46.5,8.7 M88.5,146c-1.4,1.5-2.9,4.9-2.9,7.5 M97,176.2c-5.2-13-6.4-26.2-2.6-28.9c4.6-2.2,11.8,1.9,18.7,12.7
	 M120,155.4c-4.2-9.4-6.4-16.9-3.3-19.6c3.5-2.1,11.9,3.5,17.7,16.3 M137.5,151.9c-9.3-24.4-35.1-33.5-58-18.5 M81.3,138.9
	c-2.1-3.8-2.2-7.8-1.7-11.3c-2.9,2.7-4,6.5-3.8,11c-1-3.4-2.8-5.5-5.2-6.1c4.3,11.7-18.6,26.3,1,55.3 M64.3,245.4
	c-4.5-6.5-6.3-9.9-9.7-18.7 M162,224.3c2.5,0.7,4.4-0.2,4.2-2.6 M161.4,209.2c2.3,0.7,4.1-0.2,3.9-2.4 M149.6,216.6
	c4.3,1.3,7.6-0.4,7.2-4.5 M150.9,187.3c26.1,7.4,36.8,33.8,35.2,55.6"/>
<path class="st11" d="M105.5,195.2c-7.4-0.4-9.1-8.3-3.2-13.3c6.4-25.7,16.3-34,62.9-28.6c-9.6,25-32.5,43-57.8,34.7"/>
<path class="st1" d="M135.3,259.1c-4.5-9-11.2-16.5-21.1-23.9C126.6,240.1,133.3,248.2,135.3,259.1z"/>
<path class="st2" d="M105.3,129.5c-9.2,0.5-16,2.3-21.2,4.6C88.6,128.8,97.2,126.6,105.3,129.5z M29.7,216.8
	c8.8,3.4,15.2,0.6,20-6.9C46.6,220.7,39.1,223.6,29.7,216.8z"/>
<path class="st16" d="M179.2,220.5c-3.5-9.8-9.4-18.1-18.5-26.2C172.6,199.7,178.4,208.6,179.2,220.5z"/>
</svg>
