<?xml version="1.0" encoding="utf-8"?>
<!-- Generator: Adobe Illustrator 21.1.0, SVG Export Plug-In . SVG Version: 6.00 Build 0)  -->
<svg version="1.1" id="Layer_1" xmlns="http://www.w3.org/2000/svg" xmlns:xlink="http://www.w3.org/1999/xlink" x="0px" y="0px"
	 viewBox="0 0 265 363" style="enable-background:new 0 0 265 363;" xml:space="preserve">
<style type="text/css">
	.st0{fill-rule:evenodd;clip-rule:evenodd;fill:#FEE9DA;}
	.st1{fill-rule:evenodd;clip-rule:evenodd;fill:#DBEAB4;}
	.st2{fill-rule:evenodd;clip-rule:evenodd;fill:#CAE197;}
</style>
<path class="st0" d="M148.2,50.2c37.4,0,82.8,16.7,82.8,57.4c0,30.3-9,44.9,17.3,72c20.2,20.9-1,48.1,9.1,68.9
	C313.2,364.2,39.5,375.3,17.1,329C7,308.1,42.4,276.8,27.2,261.1c-34.4-35.5-37.3-91.8-1.6-145.1C55.3,71.6,96.7,50.2,148.2,50.2z"
	/>
<path class="st1" d="M57.2,327.2c6.2,1.8,7.7,8.6,4,8c-13.2-0.9-40.3-1.1-21.5,9.7c58.6,22.3,60.2-2.5,100.2,8.9
	c32.9,2.1,75.6-0.4,91.8-12.8c3.5-6.4-9.4-13.4-41.1-7.8c5.9-2.4,20.6-6,23.7-9.1c0.9-0.9-3.6-0.9-4.6-0.9c-11.1,0-21.9,5.5-31,5.5
	c2.4-6.7,9.8-14.5,15.5-18.2c0,0,7.9-3.8,1.8-3.6c-17.1,0.6-31.9,11.9-41,20.9l-2.7,4.6c1.2-9.7,5.9-26.3,9.1-31
	c0.5-0.7,5.1-4.6,0-3.6c-10.2,2-22,24.8-21.9,22.8c0.9-13.8-6.4-24.2-6.4-36.4c0-3.6-0.9-1.8-0.9,0.9c0,12.7-5.5,24.2-5.5,36.4
	c-5.7-18.4-49.8-37.5-55.5-32.2c0,0,12.7,21.3,14,35.8c0.1,1.5-16.1-21.6-25.1-19.9c-2.8,0.5,8.4,16.3,9.7,24.4
	C70.2,329.7,63.2,322.6,57.2,327.2z"/>
<path class="st2" d="M151.3,354.8c-10.5,0.5-7.1-0.2-18.3,0.7c-8.1,0.7-25,9.2-43.8,2.6c-9.6-3.3-31.3-6.4-28.9-12.7
	c0.8-2.2,53.8-10.7,71.8-10.7c14.5,0,19.9-1.9,32.9-1.9c0,0,2.8,5.3,5.4,6.9C175.4,342.6,168.5,353.8,151.3,354.8z"/>
</svg>
