<?xml version="1.0" encoding="utf-8"?>
<!-- Generator: Adobe Illustrator 19.0.0, SVG Export Plug-In . SVG Version: 6.00 Build 0)  -->
<svg version="1.1" id="Layer_1" xmlns="http://www.w3.org/2000/svg" xmlns:xlink="http://www.w3.org/1999/xlink" x="0px" y="0px"
	 viewBox="0 0 368.1 319.5" enable-background="new 0 0 368.1 319.5" xml:space="preserve">
<path id="XMLID_14_" fill-rule="evenodd" clip-rule="evenodd" fill="#E9F6FD" d="M135.8,16.6c43-26.1,138.1-22.1,164.1,16.9
	c19.5,28.7,5.2,48.2,16.9,71.6c11.7,23.4,78.2,50.8,39.1,93.7c-33.6,36.9-0.7,53.8-28.7,75.5c-89.9,69.8-196.2-10.6-171.9-24.7
	c15.9-9.2-32.8-24.6-40.4-44.3C109.5,191.2,14.7,97.3,135.8,16.6z"/>
<path id="XMLID_15_" fill-rule="evenodd" clip-rule="evenodd" fill="#ECECEC" d="M167.2,276.5c-8.5-1.3-32.7,6.7-32.7,12.1
	c0,12.1,11.4,12.1,22.7,12.1c19.9,0,19.9,18.8,39.8,18.8c17,0,79.5-6.7,79.5-21.5C276.5,279.1,194.6,273.1,167.2,276.5z"/>
</svg>
