<?xml version="1.0" encoding="utf-8"?>
<!-- Generator: Adobe Illustrator 19.0.0, SVG Export Plug-In . SVG Version: 6.00 Build 0)  -->
<svg version="1.1" id="Layer_1" xmlns="http://www.w3.org/2000/svg" xmlns:xlink="http://www.w3.org/1999/xlink" x="0px" y="0px"
	 viewBox="0 0 368.1 319.5" enable-background="new 0 0 368.1 319.5" xml:space="preserve">
<path fill-rule="evenodd" clip-rule="evenodd" fill="#E9F6FD" d="M135.8,16.6c43-26.1,138.1-22.1,164.1,16.9
	c19.5,28.7,5.2,48.2,16.9,71.6c11.7,23.4,78.2,50.8,39.1,93.7c-33.6,36.9-0.7,53.8-28.7,75.5c-89.9,69.8-196.2-10.6-171.9-24.7
	c15.9-9.2-32.8-24.6-40.4-44.3C109.5,191.2,14.7,97.3,135.8,16.6z"/>
<path fill-rule="evenodd" clip-rule="evenodd" fill="#ECECEC" d="M167.2,276.5c-8.5-1.3-32.7,6.7-32.7,12.1
	c0,12.1,11.4,12.1,22.7,12.1c19.9,0,19.9,18.8,39.8,18.8c17,0,79.5-6.7,79.5-21.5C276.5,279.1,194.6,273.1,167.2,276.5z"/>
<path fill-rule="evenodd" clip-rule="evenodd" fill="#B87933" d="M31.4,272.8c7-8.1,3-26.5,15.4-32.1l13.3,30l-3.6,28.5l-43.6-15
	C11.9,276.2,26.4,278.8,31.4,272.8z"/>
<polygon fill-rule="evenodd" clip-rule="evenodd" fill="#C98E3E" points="21.1,39.7 15.1,56.5 56.5,306.4 65.3,309.5 45.8,147.1 "/>
<polygon fill-rule="evenodd" clip-rule="evenodd" fill="#DDB476" points="21.1,39.7 165,39 211.8,275.8 65.3,309.5 "/>
<linearGradient id="SVGID_1_" gradientUnits="userSpaceOnUse" x1="114.2736" y1="165.7044" x2="79.8273" y2="44.9397">
	<stop  offset="0" style="stop-color:#D3ECFB"/>
	<stop  offset="1" style="stop-color:#FFFFFF"/>
</linearGradient>
<polygon fill-rule="evenodd" clip-rule="evenodd" fill="url(#SVGID_1_)" points="32.5,50 157.2,47.3 200.6,269.2 74.8,296.3 "/>
<polyline fill-rule="evenodd" clip-rule="evenodd" fill="none" stroke="#E30045" stroke-width="8.5039" stroke-linecap="round" stroke-linejoin="round" stroke-miterlimit="22.9256" points="
	65.3,309.5 21.1,39.7 4.3,79.4 "/>
<path fill-rule="evenodd" clip-rule="evenodd" fill="#A35939" d="M255.5,217.1l-0.2-19.2c4.6,1.8,9.8,3.1,15.6,3.8
	C266.8,208.3,261.7,213.4,255.5,217.1z"/>
<g>
	<linearGradient id="SVGID_2_" gradientUnits="userSpaceOnUse" x1="120.5833" y1="178.4046" x2="10.759" y2="69.9537">
		<stop  offset="0" style="stop-color:#B1AE9A"/>
		<stop  offset="1" style="stop-color:#FFFFFF"/>
	</linearGradient>
	<path fill-rule="evenodd" clip-rule="evenodd" fill="url(#SVGID_2_)" d="M177.1,174.3L177.1,174.3c-4.2,7.9-6.1,23.6-1.9,27.4
		L177.1,174.3L177.1,174.3z M160.2,206.7c1.5,0.5,3,0.9,4.6,1.1c-0.9,2.2-1.9,4.1-2.9,5.9L160.2,206.7z M160.2,206.7
		c1.5,0.5,3,0.9,4.6,1.1l-4.7-1.5L160.2,206.7L160.2,206.7z M76.7,133.3c12.4-26.2,25.9-23.8,26.6-59.2c2.8,0,4.4,5.3,5.5,13
		c0.9-9.1-3.1-22.3-0.9-23.5c4.6,2.2,7.6,10.8,9.4,23.9l0,0c6.7-11.7,17-15.8,30.4-9.5l0.1-3.6l5,10.3c0-5,1.6-8.9,4.5-11.7
		l0.7,14.3l0,0c2.1,2.1,3.9,5.1,5.3,8.7c4.2,9.6,4.3,20.1,1.5,31.2c-0.7,3-1.6,6-2.8,8.8l0,0l0.1,0.2c1.9,2.5,3.6,6,4.5,11
		c-1.9-1.5-3.8-2-5.6-2c0.1,0.4,0.2,0.9,0.3,1.3l0,0c0.1,0.4,0.2,0.8,0.3,1.2l0,0.1c0.1,0.4,0.1,0.8,0.2,1.2l0,0.1
		c0.1,0.4,0.1,0.8,0.1,1.1l0,0.1c0,0.4,0.1,0.7,0.1,1.1l0,0.2c0,0.4,0,0.7,0,1l0,0.1c0,0.3,0,0.7,0,1l0,0.1c0,0.3,0,0.7-0.1,1l0,0.1
		c0,0.3-0.1,0.7-0.1,1l0,0.2c0,0.3-0.1,0.6-0.1,0.9l0,0.1c-0.1,0.3-0.1,0.6-0.2,0.9c0,0.1,0,0.1,0,0.2c-0.1,0.3-0.2,0.6-0.2,0.9
		l0,0.1c-0.1,0.3-0.2,0.6-0.3,0.9l0,0.1c-0.1,0.3-0.2,0.6-0.3,0.9l0,0.1c-0.1,0.3-0.2,0.6-0.4,0.8c0,0.1-0.1,0.1-0.1,0.2
		c-0.1,0.2-0.2,0.5-0.4,0.7c0,0.1-0.1,0.1-0.1,0.2c-0.1,0.2-0.3,0.5-0.4,0.7c0,0.1-0.1,0.2-0.1,0.2c-0.1,0.2-0.3,0.4-0.4,0.6
		c-0.1,0.1-0.1,0.2-0.2,0.2c-0.1,0.2-0.3,0.4-0.4,0.6c-0.1,0.1-0.1,0.2-0.2,0.3c-0.1,0.2-0.3,0.4-0.4,0.5c-0.1,0.1-0.1,0.2-0.2,0.2
		c-0.1,0.2-0.3,0.3-0.4,0.5c-0.1,0.1-0.2,0.2-0.2,0.3c-0.1,0.2-0.3,0.3-0.4,0.4c-0.1,0.1-0.2,0.2-0.3,0.2c-0.1,0.1-0.3,0.3-0.5,0.4
		c-0.1,0.1-0.2,0.2-0.4,0.3c-0.1,0.1-0.3,0.2-0.4,0.3c-0.1,0.1-0.2,0.2-0.3,0.2c-0.2,0.1-0.3,0.2-0.5,0.3c-0.1,0.1-0.3,0.2-0.4,0.3
		c-0.1,0.1-0.3,0.2-0.4,0.3c-0.1,0.1-0.3,0.2-0.4,0.3c-0.1,0.1-0.3,0.2-0.4,0.2c-0.2,0.1-0.3,0.2-0.5,0.3c-0.2,0.1-0.3,0.2-0.5,0.2
		c-0.1,0.1-0.3,0.1-0.4,0.2c-0.2,0.1-0.3,0.2-0.5,0.2c-0.1,0.1-0.3,0.1-0.4,0.2c-0.2,0.1-0.4,0.1-0.6,0.2c-0.1,0-0.3,0.1-0.4,0.1
		c-0.2,0.1-0.4,0.1-0.6,0.2l0,0l0.4,0.5c1.6,3,3.1,6.4,4.3,9.7c2.7,6.4,4.6,13.3,6.2,20c0.1-0.1,0.3-0.2,0.4-0.3
		c1.7-1.7,3.6-4.2,5.6-7.3c2.6-4.2,6.2-10.7,11.8-21.2c3.1-5.9,6.4-12.3,10.1-19.2c0.2,7.6-0.4,16.8,1.6,22.5
		c2.5,3.3,7.7,4.6,15.5,3.7c-5.9,19.3-25.9,39.1-40.1,40.6c3.2,10.3,8.3,16.6,17.2,19c-5.2,6.9-18.7,11.5-32.1,7.3l0,0l-6,7.3
		c0.1,0.3,0.2,0.5,0.2,0.8l0,0c0,0.1,0.1,0.3,0.1,0.4l0,0c0.1,0.3,0.1,0.5,0.2,0.8l0,0c0,0.1,0,0.2,0.1,0.3l0,0
		c0.1,0.4,0.1,0.7,0.1,1.1l0,0c0,0.1,0,0.2,0,0.3l0,0c0,0.1,0,0.2,0,0.3l0,0v0c0,0.1,0,0.2,0,0.3l0,0.1c0,0.1,0,0.1,0,0.2l0,0.1
		c0,0.1,0,0.1,0,0.2l0,0.1c0,0.2,0,0.4,0,0.6l0,0.1c0,0.1,0,0.1,0,0.2l0,0.1c0,0.1,0,0.1,0,0.2l0,0.1l0,0c0,0.1,0,0.2,0,0.2
		c0,0,0,0.1,0,0.1l0,0.1l0,0.1l0,0.1l0,0.1l0,0.1c0,0.1,0,0.2-0.1,0.2l0,0.1l0,0.1l0,0.1l0,0.1l0,0.1c0,0,0,0.1-0.1,0.1l0,0
		c0,0.1-0.1,0.2-0.1,0.3l0,0.1l-0.1,0.1l0,0.1l-0.1,0.1l-0.1,0.1l-0.1,0.1l0,0c0,0.1-0.1,0.1-0.1,0.2l-0.1,0.1l0,0.1l-0.1,0.1l0,0.1
		l0.1,0.2c1.1,4.9,2,11.1,1.7,15.4l-6.2,1.3c-0.9-4.2-2-7.8-3.6-11.8h0c-0.1,0-0.2-0.1-0.2-0.1l0,0c-0.1,0-0.2-0.1-0.2-0.2l0,0
		c-0.1,0-0.1-0.1-0.2-0.1l-0.1,0c-0.1,0-0.1-0.1-0.2-0.1l-0.1-0.1l-0.2-0.1l0,0l0,0l-0.2-0.1l-0.1-0.1l-0.2-0.2l0,0l0,0l-0.2-0.2
		l-0.1-0.1l-0.1-0.1l-0.1-0.1l-0.2-0.2l-0.1-0.1l-0.1-0.1l-0.1-0.1l-0.1-0.1l-0.2-0.2l0,0l-0.1-0.1l-0.1-0.1l0,0l-0.1-0.1l-0.2-0.2
		l0,0l-0.1-0.1l-0.2-0.2l-0.2-0.3l-0.1-0.1l0,0l-0.1-0.1l-0.1-0.2l0,0l-0.1-0.1l-0.2-0.2l0,0l-0.1-0.1l-0.1-0.2l-0.2-0.3l-0.1-0.1
		l-0.1-0.1l-0.1-0.2l-0.1-0.1l0,0l0,0l-0.3-0.3l0,0l-0.1-0.2l0,0l-0.6,0.2c-0.5,0.2-0.9,0.4-1.4,0.6l0.5-0.2
		c1.2,6.5,1.5,12.8,1.2,19.8l-5.1,1.1c-0.6-7.2-2.1-13.7-4.6-20.9c-2.6-1.8-7.4-10.1-10.5-16.9l0-0.3c-2.4-0.6-4.6-1.4-6.7-2.4
		c-3.9-1.6-7.1-3.6-9.6-6l0.1,0c-17.2-14.2-22.2-40.8-18.2-62.6c0.6-4.7,1.8-9.2,3.4-13.3l0,0C74,151.6,74.2,141.2,76.7,133.3
		L76.7,133.3z M116.2,287.4c-4.5-2.6-8.2-4.5-12.5-0.7c-7.2-2.3-10.2-1.1-11,5.8L116.2,287.4L116.2,287.4z M134.8,270.7L134.8,270.7
		L134.8,270.7z"/>
</g>
<path fill-rule="evenodd" clip-rule="evenodd" fill="#BD6E39" d="M259.4,214.5l4.8-4.2l6.8-8.6l-12.6-2.7c10.6-2,24.2-23,45.1-49.7
	c0.3,7.6-0.5,16.7,2.4,22.4c3.7,3.3,11.2,4.6,22.5,3.7C318.1,198.2,279,221.8,259.4,214.5z"/>
<path fill-rule="evenodd" clip-rule="evenodd" fill="#A35939" d="M259.4,214.5l4.8-4.2l6.8-8.6l-12.6-2.7c8.2-3.1,9.6-4,30.5-30.6
	c-6,7.8-8.9,23.5-2.8,27.2c3.7,3.3,25,1,42.3-20.2C318.1,198.2,279,221.8,259.4,214.5z"/>
<path fill-rule="evenodd" clip-rule="evenodd" fill="none" stroke="#822E2D" stroke-width="1.7008" stroke-linecap="round" stroke-linejoin="round" stroke-miterlimit="22.9256" d="
	M258.3,199c10.6-2,24.2-23,45.1-49.7c0.3,7.6-0.5,16.7,2.4,22.4c3.7,3.3,11.2,4.6,22.5,3.7c-10.1,22.8-49.2,46.4-68.9,39.1"/>
<path fill-rule="evenodd" clip-rule="evenodd" fill="none" stroke="#822E2D" stroke-width="1.7008" stroke-linecap="round" stroke-linejoin="round" stroke-miterlimit="22.9256" d="
	M255.3,197.9c4.6,1.8,9.8,3.1,15.6,3.8c-4.2,6.6-8.8,11.4-14.9,15.1"/>
<path fill-rule="evenodd" clip-rule="evenodd" fill="none" stroke="#822E2D" stroke-width="1.7008" stroke-linecap="round" stroke-linejoin="round" stroke-miterlimit="22.9256" d="
	M267.4,201.2c8.3-5.1,16.1-12,23.4-20.5"/>
<path fill-rule="evenodd" clip-rule="evenodd" fill="none" stroke="#822E2D" stroke-width="1.7008" stroke-linecap="round" stroke-linejoin="round" stroke-miterlimit="22.9256" d="
	M267.9,206.1c8.3-0.3,18.2-5.4,29.9-15.2"/>
<path fill-rule="evenodd" clip-rule="evenodd" fill="#D88F55" d="M320.1,178.7c-11.3,0.2-17.3-3.2-19.8-13.6
	C299.5,178.6,305.3,182.7,320.1,178.7z"/>
<path fill-rule="evenodd" clip-rule="evenodd" fill="#A35939" d="M143.2,157.9l47.3-19.2l11.4-56.6c-2.6-13-6.9-21.5-13.6-23.7
	c-3.2,1.3,2.7,14.3,1.3,23.4c-1.5-7.6-3.9-12.9-8-13c-1.2,40.4-25.1,39.4-38.6,58.9C139.5,135.5,139.2,145.8,143.2,157.9z"/>
<path fill-rule="evenodd" clip-rule="evenodd" fill="#A35939" d="M217.2,258.2l-11.8-15.2l-17-1.3c4.5,6.8,11.5,15,15.3,16.8
	C205.7,260.4,210.2,260.3,217.2,258.2z"/>
<path fill-rule="evenodd" clip-rule="evenodd" fill="#F1C078" d="M215.2,258.8c-6.8,1.9-10.7,1.9-11.5-0.2c4.4,8.6,6.7,17.3,7,25.9
	c-9.9-2.5-20.7-13.1-29.8-7.6c-10.5-2.3-14.6,1.2-14.2,8.8c-5.6,2-4.2,9.1-0.9,8.6c13.1-2.1,30.2-3.3,50.8-3.6
	c6.6,0.1,4.7-5.4-0.1-6.5C217.5,275.4,217.3,266.9,215.2,258.8z"/>
<path fill-rule="evenodd" clip-rule="evenodd" fill="#F7CA8F" d="M239.2,259.4l-3.8,2.7l-7.9,2.2c5.2,9,7.9,18.6,8.1,28.7
	c-18-2.3-25,1.3-27,7.6c-7.6,2-6.6,6.5-1.6,12.2l2.1-2c-0.9,3.3,7.6,8.3,13,4.7c11.8-10.1,19.7-16,32.2-16.2c2.6,0.4,3.5-4,0.3-4.7
	c-3.2-1-7.2-1.7-11.8-2C244.5,281.3,244.1,269.6,239.2,259.4z"/>
<path fill-rule="evenodd" clip-rule="evenodd" fill="#BD6E39" d="M196.1,200.8l-8.9-34.5l17.3-9.8l42.4,11.2
	c22.8,24.1,15.8,62.8,47.4,68.7C278.4,250.6,215.3,247.5,196.1,200.8z"/>
<path fill-rule="evenodd" clip-rule="evenodd" fill="#A35939" d="M252,208.3c-14.5,25.4-38-27.1-25.4-42.7l7.6-1.2l7.5-2.9l5.8,5.9
	c6.6,8.5,11.6,20.1,13.1,23.6C263.7,202.4,259.5,206.9,252,208.3z"/>
<path fill-rule="evenodd" clip-rule="evenodd" fill="#BD6E39" d="M204.4,156.5l-20.1-19.1c-60.4-5.4-73.4,102.3,18.7,105.7
	c4.6,6.1,17.3,18.2,24.4,21.2c10.3-2.1,16.2-6.3,12.4-15.1l8.7-7.2c-30.9-7.3-44.8-22.8-52.5-41.2
	C192.5,182.3,194.4,167,204.4,156.5z"/>
<path fill-rule="evenodd" clip-rule="evenodd" fill="#A35939" d="M227,234.2c-20.8,5.7-41.6,4.7-62.3-0.9c8.1,5,20.3,8.6,38.4,9.8
	c4.6,6.1,17.3,18.2,24.4,21.2c10.3-2.1,16.2-6.3,12.4-15.1l8.7-7.2l-10.7-3L227,234.2z"/>
<path fill-rule="evenodd" clip-rule="evenodd" fill="#D88F55" d="M204.4,156.5l-10.9-8.9l-9.2-10.2c-63.1-5.4-72,103.1,33.4,91
	L205.5,217l-9.4-16.2C192.5,182.3,194.4,167,204.4,156.5z"/>
<path fill-rule="evenodd" clip-rule="evenodd" fill="none" stroke="#822E2D" stroke-width="1.7008" stroke-linecap="round" stroke-linejoin="round" stroke-miterlimit="22.9256" d="
	M241.8,161.5c27.1,23.2,20.8,69,52.4,74.9c-15.8,14.1-78.9,11.1-98.1-35.7"/>
<path fill-rule="evenodd" clip-rule="evenodd" fill="none" stroke="#822E2D" stroke-width="1.7008" stroke-linecap="round" stroke-linejoin="round" stroke-miterlimit="22.9256" d="
	M217.7,228.4c7.2,4.7,17.2-0.4,18.1-8.7c10.3,5.1,18.9-2.4,16.2-11.4c10.7-0.8,11-11.2,8.7-17.3"/>
<path fill-rule="evenodd" clip-rule="evenodd" fill="none" stroke="#822E2D" stroke-width="1.7008" stroke-linecap="round" stroke-linejoin="round" stroke-miterlimit="22.9256" d="
	M252,208.3c9.7,16.9,21.2,24.4,33.8,25.4"/>
<path fill-rule="evenodd" clip-rule="evenodd" fill="none" stroke="#822E2D" stroke-width="1.7008" stroke-linecap="round" stroke-linejoin="round" stroke-miterlimit="22.9256" d="
	M189.6,81.7c-1.5-7.6-3.9-12.9-8-13c-1.2,40.4-25.1,39.4-38.6,58.9c-3.6,7.8-3.9,18.2,0.2,30.2"/>
<path fill-rule="evenodd" clip-rule="evenodd" fill="none" stroke="#822E2D" stroke-width="1.7008" stroke-linecap="round" stroke-linejoin="round" stroke-miterlimit="22.9256" d="
	M235.8,219.7c12,14.4,29,21.7,46.6,22.4"/>
<path fill-rule="evenodd" clip-rule="evenodd" fill="none" stroke="#D1822F" stroke-width="1.7008" stroke-linecap="round" stroke-linejoin="round" stroke-miterlimit="22.9256" d="
	M194.5,282.1l-13.6-5.2c11.7-4.7,19.9,5.1,29.8,7.6c-0.2-8.5-2.2-17.1-7-25.9"/>
<path fill-rule="evenodd" clip-rule="evenodd" fill="none" stroke="#D1822F" stroke-width="1.7008" stroke-linecap="round" stroke-linejoin="round" stroke-miterlimit="22.9256" d="
	M182.4,284.8l-15.7,0.9c-0.3-7.2,6.3-11.2,14.2-8.8"/>
<path fill-rule="evenodd" clip-rule="evenodd" fill="none" stroke="#D1822F" stroke-width="1.7008" stroke-linecap="round" stroke-linejoin="round" stroke-miterlimit="22.9256" d="
	M166.7,285.7c-5.6,2-4.2,9.1-0.9,8.6c13.1-2.1,30.2-3.3,50.8-3.6c6.6,0.1,4.7-5.4-0.1-6.5c1.1-8.8,0.9-17.3-1.2-25.5"/>
<path fill-rule="evenodd" clip-rule="evenodd" fill="none" stroke="#D1822F" stroke-width="1.7008" stroke-linecap="round" stroke-linejoin="round" stroke-miterlimit="22.9256" d="
	M227.4,264.3c6.5,10.9,8.3,21.5,8.1,32.1"/>
<path fill-rule="evenodd" clip-rule="evenodd" fill="none" stroke="#D1822F" stroke-width="1.7008" stroke-linecap="round" stroke-linejoin="round" stroke-miterlimit="22.9256" d="
	M235.6,293c-20.6-1.2-27.6,2-27,7.6"/>
<path fill-rule="evenodd" clip-rule="evenodd" fill="none" stroke="#D1822F" stroke-width="1.7008" stroke-linecap="round" stroke-linejoin="round" stroke-miterlimit="22.9256" d="
	M228,301.5c-9.7,3.3-17,7-21,11.3c-7-7.8-4.4-12.8,14.8-14.5"/>
<path fill-rule="evenodd" clip-rule="evenodd" fill="none" stroke="#D1822F" stroke-width="1.7008" stroke-linecap="round" stroke-linejoin="round" stroke-miterlimit="22.9256" d="
	M209.1,310.8c-0.9,3.3,7.6,8.3,13,4.7c11.8-10.1,19.7-16,32.2-16.2c2.6,0.4,3.5-4,0.3-4.7c-3.2-1-7.2-1.7-11.8-2
	c1.7-11.5,1.4-23.2-3.6-33.4"/>
<path fill-rule="evenodd" clip-rule="evenodd" fill="none" stroke="#822E2D" stroke-width="1.7008" stroke-linecap="round" stroke-linejoin="round" stroke-miterlimit="22.9256" d="
	M169.1,165.1c-3.5,1.5-7.4-0.7-7.5-4.6 M159.6,195.4c-1.7,1.3-4.2,0.5-4.8-1.7 M149.8,186.5c-1.3,0.9-3.2,0.3-3.6-1.3 M154.5,166.2
	c-1.5,0.7-3.2-0.3-3.2-2 M164.6,175.4c-2,0.9-4.2-0.4-4.3-2.6 M181.4,176.4c-2.4,1.8-5.9,0.7-6.7-2.3"/>
<path fill-rule="evenodd" clip-rule="evenodd" fill="none" stroke="#822E2D" stroke-width="1.7008" stroke-linecap="round" stroke-linejoin="round" stroke-miterlimit="22.9256" d="
	M184.3,137.4c-71.5-4.5-65.3,122.9,40,103.8"/>
<path fill-rule="evenodd" clip-rule="evenodd" fill="none" stroke="#822E2D" stroke-width="1.7008" stroke-linecap="round" stroke-linejoin="round" stroke-miterlimit="22.9256" d="
	M248.6,241.9c-2.1,3-5.5,5.2-8.7,7.2c3.4,8.3-0.7,13.3-12.4,15.1c-3.5,0.7-14.5-9.1-18.6-14.9"/>
<path fill-rule="evenodd" clip-rule="evenodd" fill="none" stroke="#822E2D" stroke-width="1.7008" stroke-linecap="round" stroke-linejoin="round" stroke-miterlimit="22.9256" d="
	M188.4,241.8c4.5,6.8,11.5,15,15.3,16.8c2,1.8,6.5,1.7,13.5-0.4"/>
<path fill-rule="evenodd" clip-rule="evenodd" fill="#EDB581" d="M144.2,177.9c2.4-10.9,7.7-20.6,16.4-30.4
	C148.6,154.8,143.5,165.1,144.2,177.9z"/>
<path fill-rule="evenodd" clip-rule="evenodd" fill="#BD6E39" d="M242,213.5c-7-8.2-11.6-18.1-14.8-31
	C226.8,196.8,232.1,206.9,242,213.5z"/>
<path fill-rule="evenodd" clip-rule="evenodd" fill="#D88F55" d="M186.8,143.7l41-21.5c26.8-5.9,42.4,7.2,45.7,19.4
	c-2.8-1.5-5.5-2-8.2-1.9C276.6,167.6,226.9,183.7,186.8,143.7z"/>
<path fill-rule="evenodd" clip-rule="evenodd" fill="none" stroke="#822E2D" stroke-width="1.7008" stroke-linecap="round" stroke-linejoin="round" stroke-miterlimit="22.9256" d="
	M201.9,82.1c0.3-9.9-9.4-24.4-13.6-23.7c-3.9,0.6,5.8,17.6-1.3,35.1"/>
<path fill-rule="evenodd" clip-rule="evenodd" fill="#BD6E39" d="M186.8,143.7l35.7,3.7c22.9,9.4,41.2-7.4,32.4-24.3
	c6,3.7,15.4,6.4,18.7,18.5c-2.8-1.5-5.5-2-8.2-1.9C276.6,167.6,226.9,183.7,186.8,143.7z"/>
<path fill-rule="evenodd" clip-rule="evenodd" fill="#BD6E39" d="M192.2,101.8l35.6,20.2c15.8-3.3,28.8-0.5,39,8.4
	c9.7-18,10.2-34.5-5.8-48.5L260,67.7c-4.3,2.8-6.5,6.7-6.6,11.7l-7.2-10.3l-0.2,3.5C218,63.5,199.3,76,192.2,101.8z"/>
<path fill-rule="evenodd" clip-rule="evenodd" fill="#A35939" d="M254.9,123.1l12,7.4c10.6-17.5,6.4-40.4-5.8-48.5L260,67.7
	c-4.3,2.8-6.5,6.7-6.6,11.7C262.3,90.4,265.9,108.2,254.9,123.1z"/>
<path fill-rule="evenodd" clip-rule="evenodd" fill="#FFFFFF" d="M238,120.8l-10.1,1.4c-1.5-6.3-4.3-12-8.9-16.8
	c7-11.9,15.4-16,20.5-13.1C243.6,94.8,244,107.7,238,120.8z"/>
<path fill-rule="evenodd" clip-rule="evenodd" fill="#CA6C32" d="M230.9,121.6l-3,0.5l-2.2-6.7l-5-7.9c4.2-10.1,10.3-12.9,14.7-10.3
	C238.9,99.2,239.8,112.6,230.9,121.6z"/>
<path fill-rule="evenodd" clip-rule="evenodd" fill="#FFFFFF" d="M214,102.3c-5.3-1.7-10.9-1.8-16.7-1.1
	c4.8-14.4,13.5-20.1,18.2-17.5C219,85.8,218.3,94.2,214,102.3z"/>
<path fill-rule="evenodd" clip-rule="evenodd" fill="#CA6C32" d="M210.1,101.2l-12.7,0l3.2-5.6c3.2-6.7,8.4-10.6,12-8.5
	C215.5,88.9,213.9,97.2,210.1,101.2z"/>
<path fill-rule="evenodd" clip-rule="evenodd" fill="#CA6C32" d="M227.9,122.2c-4-16-13.5-24.2-31.2-20.9l-32.8,3.7
	c7.1,16.4,13.6,30.2,23,38.7c7.8,9,25.6,8.8,35.7,3.7C237.4,146.8,238.6,129,227.9,122.2z"/>
<path fill-rule="evenodd" clip-rule="evenodd" fill="#A24B2A" d="M163.8,105c7.1,16.4,13.6,30.2,23,38.7c8.5,8.6,20.3,9.9,35.7,3.7
	c9.8-4.4,7.9-20.4-4.5-18.5C216.2,143.6,173.5,125.5,163.8,105z"/>
<path fill-rule="evenodd" clip-rule="evenodd" fill="none" stroke="#822E2D" stroke-width="1.7008" stroke-linecap="round" stroke-linejoin="round" stroke-miterlimit="22.9256" d="
	M247.7,81.2c-1.5-3.6-2-7.6-1.5-12.1c2.2,4.2,4.7,7.7,7.2,10.3c0.4-5.5,2.6-9.4,6.6-11.7c-0.5,4.6,0,9.3,1.1,14.2
	c12.5,8.1,18.1,29.8,5.8,48.5"/>
<path fill-rule="evenodd" clip-rule="evenodd" fill="none" stroke="#822E2D" stroke-width="1.7008" stroke-linecap="round" stroke-linejoin="round" stroke-miterlimit="22.9256" d="
	M246,72.7c-28-9.1-46.7,3.4-53.8,29.2"/>
<path fill-rule="evenodd" clip-rule="evenodd" fill="none" stroke="#783529" stroke-width="1.7008" stroke-linecap="round" stroke-linejoin="round" stroke-miterlimit="22.9256" d="
	M218,128.9c1.8,0.6,3.2,3.2,2.5,5.1"/>
<path fill-rule="evenodd" clip-rule="evenodd" fill="none" stroke="#822E2D" stroke-width="1.7008" stroke-linecap="round" stroke-linejoin="round" stroke-miterlimit="22.9256" d="
	M218.9,105.4c7-11.9,15.4-16,20.5-13.1c4.1,2.4,4.6,15.4-1.4,28.5"/>
<circle fill-rule="evenodd" clip-rule="evenodd" fill="#1A1A18" cx="228.6" cy="103.1" r="4.6"/>
<circle fill-rule="evenodd" clip-rule="evenodd" fill="#1A1A18" cx="207.2" cy="92.8" r="4"/>
<circle fill-rule="evenodd" clip-rule="evenodd" fill="#FFFFFF" cx="230.3" cy="107.5" r="2.7"/>
<circle fill-rule="evenodd" clip-rule="evenodd" fill="#FFFFFF" cx="208.6" cy="96.4" r="2.3"/>
<circle fill-rule="evenodd" clip-rule="evenodd" fill="#FFFFFF" cx="233.6" cy="115.6" r="2.2"/>
<path fill-rule="evenodd" clip-rule="evenodd" fill="none" stroke="#822E2D" stroke-width="1.7008" stroke-linecap="round" stroke-linejoin="round" stroke-miterlimit="22.9256" d="
	M245.5,91c1.6,1.5,3.4,5.1,3.6,7.8"/>
<path fill-rule="evenodd" clip-rule="evenodd" fill="none" stroke="#822E2D" stroke-width="1.7008" stroke-linecap="round" stroke-linejoin="round" stroke-miterlimit="22.9256" d="
	M213.8,79.6c2.2-0.7,5.1-0.1,5.9,3"/>
<path fill-rule="evenodd" clip-rule="evenodd" fill="none" stroke="#822E2D" stroke-width="1.7008" stroke-linecap="round" stroke-linejoin="round" stroke-miterlimit="22.9256" d="
	M197.3,101.2c4.8-14.4,13.5-20.1,18.2-17.5c3.5,2.1,2.8,10.5-1.5,18.6"/>
<path fill-rule="evenodd" clip-rule="evenodd" fill="none" stroke="#822E2D" stroke-width="1.7008" stroke-linecap="round" stroke-linejoin="round" stroke-miterlimit="22.9256" d="
	M227.9,122.2c26.8-5.9,42.4,7.2,45.7,19.4c-2.8-1.5-5.5-2-8.2-1.9c11.1,28-38.5,44.1-78.6,4.1"/>
<path fill-rule="evenodd" clip-rule="evenodd" fill="none" stroke="#783529" stroke-width="1.7008" stroke-linecap="round" stroke-linejoin="round" stroke-miterlimit="22.9256" d="
	M222.5,147.4c13.2-0.9,17.1-16.2,5.4-25.2c-4.5-17.9-14.2-23.5-29.3-21.1l-34.7,3.9c3.9,10.3,13.5,29.1,23,38.7"/>
<circle fill-rule="evenodd" clip-rule="evenodd" fill="#A24B2A" cx="210.3" cy="114.2" r="3.3"/>
<path fill-rule="evenodd" clip-rule="evenodd" fill="#E29769" d="M199.9,103.2c8.5,0.9,16.2,4.1,22.5,10.6
	C218.1,104.7,209.8,101.1,199.9,103.2z"/>
<path fill-rule="evenodd" clip-rule="evenodd" fill="#D88F55" d="M232.4,162c8.2,1.6,24.2-2.9,30.3-9.1
	C257.8,164.7,241.1,166.8,232.4,162z"/>
<path fill-rule="evenodd" clip-rule="evenodd" fill="#D88F55" d="M212.9,77.8c8.2-3.6,16.8-4.5,27.1-2.9
	C229.8,69.6,220.8,71,212.9,77.8z"/>
<path fill-rule="evenodd" clip-rule="evenodd" fill="none" stroke="#783529" stroke-width="1.7008" stroke-linecap="round" stroke-linejoin="round" stroke-miterlimit="22.9256" d="
	M165.9,110.1c18,18.8,40,27.7,50.1,23.3"/>
</svg>
