<?xml version="1.0" encoding="utf-8"?>
<!-- Generator: Adobe Illustrator 21.1.0, SVG Export Plug-In . SVG Version: 6.00 Build 0)  -->
<svg version="1.1" id="Layer_1" xmlns="http://www.w3.org/2000/svg" xmlns:xlink="http://www.w3.org/1999/xlink" x="0px" y="0px"
	 viewBox="0 0 457 395" style="enable-background:new 0 0 457 395;" xml:space="preserve">
<style type="text/css">
	.st0{enable-background:new    ;}
	.st1{fill-rule:evenodd;clip-rule:evenodd;fill:#F7CA8F;}
	.st2{fill-rule:evenodd;clip-rule:evenodd;fill:#0095D6;}
	.st3{fill-rule:evenodd;clip-rule:evenodd;fill:#0074BA;}
	.st4{fill-rule:evenodd;clip-rule:evenodd;fill:#00B4E8;}
	.st5{fill-rule:evenodd;clip-rule:evenodd;fill:#FFFFFF;}
	.st6{fill-rule:evenodd;clip-rule:evenodd;fill:#CA6C32;}
	.st7{fill-rule:evenodd;clip-rule:evenodd;fill:#CAD44E;}
	.st8{fill:none;stroke:#A3B927;stroke-width:1.7012;stroke-linecap:round;stroke-linejoin:round;stroke-miterlimit:22.9256;}
	.st9{fill-rule:evenodd;clip-rule:evenodd;fill:#1A1A18;}
	.st10{fill:none;stroke:#D1822F;stroke-width:1.7012;stroke-linecap:round;stroke-linejoin:round;stroke-miterlimit:22.9256;}
	.st11{fill-rule:evenodd;clip-rule:evenodd;fill:#A24B2A;}
	.st12{fill:none;stroke:#194B79;stroke-width:1.7012;stroke-linecap:round;stroke-linejoin:round;stroke-miterlimit:22.9256;}
	.st13{fill:none;stroke:#783529;stroke-width:1.7012;stroke-linecap:round;stroke-linejoin:round;stroke-miterlimit:22.9256;}
	.st14{fill-rule:evenodd;clip-rule:evenodd;fill:#F1C078;}
	.st15{fill-rule:evenodd;clip-rule:evenodd;fill:#9BD3EE;}
	.st16{fill-rule:evenodd;clip-rule:evenodd;fill:#E29769;}
	.st17{fill-rule:evenodd;clip-rule:evenodd;fill:#DAE182;}
	.st18{fill-rule:evenodd;clip-rule:evenodd;fill:#D6B36A;}
	.st19{fill:none;stroke:#A96833;stroke-width:1.7012;stroke-linecap:round;stroke-linejoin:round;stroke-miterlimit:22.9256;}
	.st20{filter:url(#Adobe_OpacityMaskFilter);}
	.st21{opacity:0.6;}
	.st22{mask:url(#SVGID_1_);enable-background:new    ;}
	.st23{clip-path:url(#SVGID_3_);}
	.st24{clip-path:url(#SVGID_5_);fill-rule:evenodd;clip-rule:evenodd;fill:#FFFFFF;}
	
		.st25{clip-path:url(#SVGID_5_);fill:none;stroke:#B0B1B2;stroke-width:1.7012;stroke-linecap:round;stroke-linejoin:round;stroke-miterlimit:22.9256;}
</style>
<g class="st0">
	<path class="st1" d="M154.3,350.9c-4.9,10.1-23.5-3.7-36.2-2.5l-11.1-2.5c-3.6-3.4-1.1-5.8,7.3-7.1l-1.6-25.6l10.5-1.1
		c-2.4,10.3-2.7,19.6-1.9,26.3c26.7-4.8,43.1-1.5,37.9,4.8C162.8,344.2,159.9,351.5,154.3,350.9z"/>
	<path class="st1" d="M85.8,317.5l5.9-3.6l3.9,4.9c-0.8,6.6-0.9,14.6,0.4,24c14.9,6.9,30.2,2.3,31.7,15.6c4.6,2.5-3.6,11.4-7.7,8.1
		c1,3.6-6.5,8.5-12.4,4.6c-10.9-11.7-17-18.8-28.8-22.8c-4.4-0.2-3.8-5.2-0.3-5.9c3.5-1.1,5.8-0.5,9.1,0.2
		C85.7,330.1,85.5,325.4,85.8,317.5z"/>
	<path class="st2" d="M98.5,218.8c-11-1.7-19.7-6.2-22.3-18.6l-3.4,3.1c-2.1-3.6-1.6-7.1,1.5-10.7l-2.8,1.5l1.2-8.8
		c-11.3-21.5-8.4-45.2,5.2-58.2c1.7-9.1,11.7-13.2,14.5-7.3c21.4-10.2,47,3.3,53.4,23.4c7.1-4.1,14.4,0.5,14,9.5l12.7,3.1
		c-3.3,13.2-8.5,26.1-16.2,38.3l-20,24.8l30.9,45.6l-1.6,28.2c2.7,11.3,1.7,21.5-1.8,31.1c-18.2-13.2-21.5-10.5-35.9-16
		c-5.7,7.6-12.3,8.3-19.7,2.3l-5.9,5.3l-6.9,3.4c-17.2,3.9-10.6-18.9-15.9-28.3c-9.7-8.4-17.4-20.2-21.5-38.1
		c-19.6-8-36-26.3-48.5-56.8c16.9,4.9,26.6,1.5,29.2-10.1c7.5,22.3,17.2,37.9,28,49.8c9.1,0.5,17.1-1.2,23.6-6.3L98.5,218.8z"/>
	<path class="st3" d="M58.1,252.3c6.7,25.5,12.9,29.2,21.5,38.1c3.3,8.4,0.7,27.8,9.7,28.9c6.3-0.6,14.2-8.2,17.9-17.5l6.4,0.3
		l-5.3,7.9c6.2,7.7,12.8,5,19.7-2.3l12.4,3.9c-11-9.6-24.2-13.1-33.1-28.9l-21.8-9.4L83.2,256c-10.2-1.9-26.7-18.9-16.3-20.9
		c-4-6-11.1-8.9-21.8-32.7c2.4,7.6,2.1,21-3.6,22.2c-3.6,1.5-16.5-5.4-29.6-23.5C19.8,220.7,39.6,246.3,58.1,252.3z"/>
	<path class="st3" d="M72.8,185.2c-11.3-21.5-7.6-41.9,6.1-55c4.2-4.4,7.6-3,7.4,0.8l-6.7,5.9l5.1,0.2l6.4-3.7
		c-10.3,8.5-9.8,31.3-4,40.2L72.8,185.2z"/>
	<path class="st4" d="M141.1,148.7l18.8,3.8C162,143.9,148,135.1,141.1,148.7z"/>
	<path class="st5" d="M122.2,145.4c5.8-1.6,10-4.3,11.9-8.7l8.2,10l-1.2,2c-5.6-2.3-11.3-1.6-17.4,1.9L122.2,145.4z"/>
	<path class="st5" d="M94.3,161.5c7.6-0.2,14.2-3.3,19.4-10.8l3.7,5.8c-3.5,4.8-6,10.7-7.9,17c-3.1-1.7-6.9-2.7-12.4-2.3L94.3,161.5
		z"/>
	<path class="st3" d="M164.2,198.9l-1.8,83.8l3.3,9.8c0.9,6.4,4.6,14.3,9.2,18c2-17.7,45.5-62.4,5.1-103.7
		C174.4,201.2,168.6,198.9,164.2,198.9z"/>
	<path class="st6" d="M94.3,161.5l2.8,9.7l7.5-0.7l4.9,3l3.7-10c-3.4-7.2-9.7-5-13.6-2.7L94.3,161.5z"/>
	<path class="st6" d="M122.2,145.4l1.5,5.2l7.5-0.7l7.6-1.9c-2.1-5.2-5.4-7.6-9.3-5.3L122.2,145.4z"/>
	<path class="st4" d="M122.7,214.5c4.1-1.8,8.6-5.4,13.4-10.6c6.6,0.3,13.3-3,20.2-9.9c28.1,15.8,38.1,54.5,6.1,88.7
		C149.3,259.9,131,250.2,122.7,214.5z"/>
	<path class="st7" d="M294.2,218.4c6.7-39.1-1.9-86.9-31.2-127.7l-5.9,3.8c25.8,33.7,39.2,82.4,29.9,124L294.2,218.4L294.2,218.4z"
		/>
	<path class="st8" d="M294.2,218.4c6.7-39.1-1.9-86.9-31.2-127.7l-5.9,3.8c25.8,33.7,39.2,82.4,29.9,124L294.2,218.4L294.2,218.4z"
		/>
	<path class="st3" d="M112.3,278.2c8.5,5.9,18.3-6.2,8.8-14.2c-12.5-11.2-20.3-34.4-8.8-45.8l-13.9,0.6
		c-14.7,13.9-18.8,42.9-12,57.2C95.6,286.5,107.3,285.4,112.3,278.2z"/>
	<path class="st4" d="M109.5,173.5l26.6,30.3c-20.8,23.7-55.6,17.7-60-3.7l-3.4,3.1c-2.1-3.8-1.6-7.4,1.5-10.7l-2.8,1.5
		C68.7,174.4,101,166.8,109.5,173.5z"/>
	<circle class="st9" cx="131.3" cy="146.4" r="5"/>
	<path class="st2" d="M71.6,194.1c-2.7-7.8,6.8-18.7,15.5-20.5c-6.1,20,2.6,35.7,30.5,38.6c-16.3,6.7-38.6,5.9-41.4-12l-3.4,3.1
		c-2-3.5-2.2-7,1.5-10.7L71.6,194.1z"/>
	<path class="st10" d="M85.8,316.9c-0.8,12.4,0.3,22.5,3.3,30.5"/>
	<path class="st6" d="M109.5,173.5c5.9-19.9,15.7-28.3,29.3-25.2c16,2.4,23.3,5,33.8,7.3c-10.6,39.9-27.6,58.4-52.9,42.3
		C101.2,203.1,95.7,181.8,109.5,173.5z"/>
	<path class="st11" d="M111.6,184.1c-4.3,3.9,1.2,9.8,1.4,3.8c19.8,7.8,42.2,15.2,59.6-32.3c-10.6,39.9-27.6,58.4-52.9,42.3
		C101.2,203.1,101.9,184.8,111.6,184.1z"/>
	<path class="st10" d="M105.7,351.9c10.3,0.2,17.6,2.3,21.9,6.4c0.8-12.2-21.1-10.4-31.7-15.6c-1.6-6.3-2-14.1-0.4-24"/>
	<path class="st10" d="M127.7,358.3c3.4,3.5-3.2,10-7.7,8.1c-0.9-3.2-4.8-7.3-17.3-10.1"/>
	<path class="st10" d="M120,366.4c0.5,4.4-8.4,10.2-13.8,3.1c-9.4-11.4-18.6-19-27.4-21.4c-6.5-1.1-3.2-8.9,8.8-5.7"/>
	<path class="st10" d="M112.7,313.2c-0.8,11,0,19,1.6,25.6c-8,0.7-10.9,3.9-7.3,7.1"/>
	<path class="st10" d="M123.2,312c-2.4,10.3-2.7,19.6-1.9,26.3c26.7-4.8,43.1-1.5,37.9,4.8c-2.9-1.6-12.2-3.6-21-3.9"/>
	<path class="st10" d="M159.2,343.1c4.3,2.4-1.2,8.5-4.9,7.9c-2.7-4.9-13.8-7.1-20.2-7.1"/>
	<path class="st4" d="M122.2,145.4c-5.1-17.1-3.7-24.1,11.9-8.7C134.1,141.4,125.4,145.1,122.2,145.4z M94.3,161.5
		c-3.2-28.1,7.8-26.6,19.4-10.8C110.8,156,103,161.6,94.3,161.5z"/>
	<path class="st10" d="M154.3,350.9c-5.5,10.3-21.3-3.5-37.8-2.9"/>
	<path class="st12" d="M92.5,119.7c19.4-9.1,45.6,2.3,53.4,23.4 M78,127c6.5-19.1,21.6-5.6,14.6,2.2 M72.8,185.2
		c-10.1-18-9.2-48.4,6.8-59.4c3-2.5,10.1-4.6,12.6,1.3c2.1,5.6-4.9,11.9-12.7,9.9c5.7-2.8,9.4-7.5,5.3-9.7 M136.1,203.9
		c-20.8,23.7-55.6,17.7-60-3.7l-3.4,3.1c-2.1-3.8-1.6-7.4,1.5-10.7l-2.8,1.5c-2.8-19.6,29.4-27.3,37.9-20.5 M141.1,148.7
		c6.7-13.1,20.4-5.9,18.8,3.8"/>
	<path class="st13" d="M169.3,167c-16.4,27.7-31,31.5-56.2,20.9"/>
	<path class="st13" d="M110.7,189.9c-1.9-2-0.8-5.8,1.9-6.1"/>
	<ellipse class="st9" cx="104.6" cy="165" rx="5.5" ry="5.5"/>
	<circle class="st5" cx="107.8" cy="161.8" r="2.4"/>
	<circle class="st5" cx="135.9" cy="144.7" r="2.2"/>
	<path class="st12" d="M155.8,222.3c3.5,1.2,5.9-0.8,5.8-3.6 M151.9,212.7c3.2,0.5,5-1.5,4.5-3.9 M168.2,224
		c2.4,1.3,4.4,0.2,4.6-1.8 M156.7,232.2c2.8,1.6,5.3,0.2,5.5-2.2 M162.3,240.3c2.8,1.6,5.3,0.2,5.5-2.2 M154,249.3
		c2.3,1.9,4.7,1.1,5.3-1.1 M143,228.4c3.5,2.6,8.1,0.5,8.6-3.3"/>
	<path class="st3" d="M397.4,257.3l-7.1-19.4c5.3,0.2,11.1-0.4,17.2-1.8C405.7,244.4,402.3,251.4,397.4,257.3z"/>
	<path class="st14" d="M339.6,306.5c-7.3,2.1-11.5,2-12.4-0.2c4.7,9.3,7.3,18.6,7.6,27.9c-10.7-2.7-22.3-14.1-32.1-8.2
		c-11.3-2.5-15.7,1.3-15.3,9.5c-6.1,2.1-4.5,9.8-1,9.3c14.2-2.3,32.5-3.5,54.7-3.9c7.1,0.1,5.1-5.8-0.1-7
		C342,324.5,341.8,315.3,339.6,306.5z"/>
	<path class="st1" d="M365.4,307.2l-4.1,2.9l-8.5,2.4c5.6,9.7,8.5,20,8.7,31c-19.4-2.5-26.9,1.4-29.1,8.2c-8.2,2.1-7.1,7-1.7,13.2
		l2.3-2.2c-1,3.6,8.2,9,14,5.1c12.7-10.9,21.2-17.3,34.7-17.4c2.8,0.5,3.8-4.3,0.3-5c-3.5-1.1-7.7-1.8-12.8-2.1
		C371.1,330.8,370.7,318.2,365.4,307.2z"/>
	<path class="st2" d="M319,244c20.7,50.4,88.7,53.7,105.7,38.4c-34-6.4-26.5-48-51-74L328,196.2l-18.6,10.5L319,244z M400.4,253.3
		l3.4-6l3.8-11.2l-13.8,1.8c10-5.9,16.2-32.1,27.8-66.8c3.1,7.6,5.5,17.2,10.5,21.8c5,2,13,0.6,24.2-4.4
		C454.1,215.4,423,253.6,400.4,253.3z"/>
	<path class="st3" d="M400.4,253.3l3.4-6l3.8-11.2l-13.8,1.8c7.2-6.1,8.3-7.5,19.8-42.1c-3.3,10.1-0.5,27,7,28.7
		c5,2,25.8-8,35.6-35.8C454.1,215.4,423,253.6,400.4,253.3z"/>
	<path class="st3" d="M379.3,252.2c-15.6,27.4-41-29.2-27.3-46l8.2-1.3l8.1-3.1l6.3,6.3c7.1,9.1,12.5,21.6,14.1,25.5
		C391.9,245.7,387.3,250.6,379.3,252.2z"/>
	<path class="st2" d="M328,196.2l-21.7-20.6c-65.1-5.8-79.1,110.2,20.2,113.9c5,6.5,18.6,19.7,26.3,22.8
		c11.1-2.3,17.4-6.8,13.4-16.3l9.4-7.8c-33.3-7.9-48.2-24.6-56.5-44.4C315.1,224.1,317.2,207.6,328,196.2z"/>
	<path class="st3" d="M352.2,280c-22.4,6.1-44.8,5-67.2-1c7.3,4.5,17.6,7.9,32,9.7l-6.4-0.5c4.9,7.3,12.3,16.2,16.4,18.1
		c2.2,2,7,1.8,14.6-0.4l-2.2-2.8c4.7,4.2,9.6,7.9,13.3,9.3c11.1-2.3,17.4-6.8,13.4-16.3l9.4-7.8l-11.5-3.2L352.2,280z"/>
	<path class="st4" d="M328,196.2l-11.8-9.6l-9.9-11c-68-5.8-77.6,111,36,98l-13.2-12.2L319,244C315.1,224.1,317.2,207.6,328,196.2z"
		/>
	<path class="st10" d="M317.2,331.7l-14.6-5.6c12.6-5,21.4,5.4,32.1,8.2c-0.2-9.1-2.4-18.4-7.6-27.9"/>
	<path class="st10" d="M304.2,334.5l-16.9,1c-0.3-7.7,6.8-12,15.3-9.5"/>
	<path class="st10" d="M287.3,335.5c-6.1,2.1-4.5,9.8-1,9.3c14.2-2.3,32.5-3.5,54.7-3.9c7.1,0.1,5.1-5.8-0.1-7
		c1.2-9.5,1-18.7-1.3-27.4"/>
	<path class="st10" d="M352.8,312.4c7,11.7,9,23.2,8.7,34.5"/>
	<path class="st10" d="M361.5,343.4c-22.2-1.2-29.8,2.2-29.1,8.2"/>
	<path class="st10" d="M353.3,352.6c-10.4,3.5-18.3,7.5-22.6,12.2c-7.6-8.4-4.8-13.8,15.9-15.6"/>
	<path class="st10" d="M333,362.6c-1,3.6,8.2,9,14,5.1c12.7-10.9,21.2-17.3,34.7-17.4c2.8,0.5,3.8-4.3,0.3-5
		c-3.5-1.1-7.7-1.8-12.8-2.1c1.9-12.4,1.5-25-3.9-36"/>
	<path class="st12" d="M303.2,217.7c-2.6,1.9-6.3,0.8-7.2-2.5 M285,216.7c-2.1,0.9-4.6-0.4-4.7-2.8 M274.2,206.8
		c-1.6,0.7-3.4-0.3-3.5-2.1 M269.1,228.6c-1.4,1-3.4,0.4-3.8-1.4 M279.7,238.3c-1.9,1.4-4.5,0.5-5.1-1.8 M289.9,205.6
		c-3.7,1.7-8-0.8-8.1-5"/>
	<path class="st12" d="M306.3,175.6c-77.1-4.9-70.3,132.4,43.1,111.8"/>
	<ellipse class="st11" cx="126.5" cy="162.6" rx="3.4" ry="3.4"/>
	<path class="st15" d="M263.1,219.4c2.6-11.8,8.3-22.1,17.6-32.8C267.8,194.4,262.4,205.6,263.1,219.4z"/>
	<path class="st4" d="M293.1,180.3l44.2-23.2c28.8-6.4,45.7,7.8,49.3,20.9c-3-1.6-6-2.2-8.8-2.1
		C389.8,206.1,336.4,223.5,293.1,180.3z"/>
	<path class="st2" d="M293.1,180.3l38.4,3.9c24.7,10.2,44.4-8,34.9-26.2c6.5,4,16.6,6.8,20.2,20c-3-1.6-6-2.2-8.8-2.1
		C389.8,206.1,336.4,223.5,293.1,180.3z"/>
	<path class="st2" d="M298.9,135.2l38.4,21.8c17-3.6,31-0.6,42.1,9.1c10.4-19.4,10.9-37.2-6.2-52.3L372,98.5c-4.7,3-7,7.2-7.1,12.6
		l-7.8-11.2l-0.2,3.8C326.7,93.9,306.5,107.4,298.9,135.2z"/>
	<path class="st3" d="M366.4,158.1l12.9,8c11.5-18.9,6.9-43.6-6.2-52.3l-1.2-15.3c-4.7,3-7,7.2-7.1,12.6
		C374.4,122.8,378.3,142.1,366.4,158.1z"/>
	<path class="st5" d="M348.3,155.6l-10.9,1.5c-1.6-6.8-4.6-12.9-9.6-18.1c7.5-12.9,16.6-17.3,22.1-14.1
		C354.3,127.6,354.7,141.5,348.3,155.6z"/>
	<path class="st6" d="M340.6,156.5l-3.3,0.5l-2.4-7.2l-5.3-8.5c4.5-10.9,11.1-13.9,15.8-11.1C349.3,132.3,350.2,146.8,340.6,156.5z"
		/>
	<path class="st5" d="M322.4,135.7c-5.7-1.9-11.8-1.9-18-1.2c5.1-15.5,14.5-21.6,19.6-18.8C327.8,117.9,327,127,322.4,135.7z"/>
	<path class="st6" d="M318.2,134.5h-13.7l3.4-6c3.4-7.2,9.1-11.4,13-9.1C324,121.2,322.3,130.2,318.2,134.5z"/>
	<path class="st6" d="M337.3,157.1c-4.3-17.3-14.6-26.1-33.6-22.5l-35.4,4c7.6,17.7,14.7,32.6,24.8,41.7c8.4,9.7,27.6,9.5,38.4,3.9
		C347.6,183.7,348.9,164.5,337.3,157.1z"/>
	<path class="st11" d="M268.3,138.6c7.6,17.7,14.7,32.6,24.8,41.7c9.1,9.3,21.9,10.6,38.4,3.9c10.5-4.7,8.5-22-4.9-19.9
		C324.8,180.2,278.7,160.7,268.3,138.6z"/>
	<path class="st13" d="M326.7,164.4c2,0.6,3.5,3.5,2.7,5.5"/>
	<ellipse transform="matrix(0.9923 -0.1238 0.1238 0.9923 -14.3119 42.8916)" class="st9" cx="338.1" cy="136.6" rx="5" ry="5"/>
	<ellipse transform="matrix(0.9923 -0.124 0.124 0.9923 -13.1218 40.0204)" class="st9" cx="315" cy="125.4" rx="4.3" ry="4.3"/>
	<ellipse transform="matrix(0.9924 -0.1232 0.1232 0.9924 -14.814 42.9572)" class="st5" cx="339.9" cy="141.2" rx="2.9" ry="2.9"/>
	<ellipse transform="matrix(0.9923 -0.1242 0.1242 0.9923 -13.626 40.3218)" class="st5" cx="316.6" cy="129.4" rx="2.5" ry="2.5"/>
	<ellipse transform="matrix(0.9923 -0.1238 0.1238 0.9923 -15.9306 43.6678)" class="st5" cx="343.5" cy="150" rx="2.4" ry="2.4"/>
	<path class="st12" d="M97.1,171.3c-4.8-12.5-5.1-25.7-0.9-30.1c4-3.8,13.3,1.5,21.2,15.3 M123.7,150.6c-4.1-13-5-20.3-2.7-21.8
		c3.7-1.7,12.8,6,21.2,17.9 M134.1,136.6c0,4.7-8.7,8.5-11.9,8.7 M113.7,150.7c-2.9,5.3-10.7,10.9-19.4,10.8 M93.4,139.2
		c-2,1.1-3.6,5.4-3.4,8.9"/>
	<path class="st12" d="M322.2,111.2c2.4-0.7,5.5-0.1,6.3,3.2 M356.3,123.5c1.7,1.6,3.7,5.4,3.9,8.4 M327.7,139
		c7.5-12.9,16.6-17.3,22.1-14.1c4.5,2.6,4.9,16.6-1.6,30.7 M358.7,112.9c-1.6-3.9-2.2-8.2-1.6-13c2.4,4.6,5,8.3,7.8,11.1
		c0.4-5.9,2.8-10.1,7.1-12.6c-0.5,4.9-0.1,10,1.2,15.3c13.5,8.8,19.5,32.1,6.2,52.3 M337.3,157.1c28.8-6.4,45.7,7.8,49.3,20.9
		c-3-1.6-6-2.2-8.8-2.1c12,30.1-41.5,47.5-84.7,4.4 M356.9,103.7c-30.2-9.8-50.3,3.7-58,31.4 M304.4,134.5
		c5.1-15.5,14.5-21.6,19.6-18.8c3.8,2.2,3,11.3-1.6,20"/>
	
		<ellipse transform="matrix(0.9923 -0.1238 0.1238 0.9923 -15.9415 40.5575)" class="st11" cx="318.4" cy="148.5" rx="3.5" ry="3.5"/>
	<path class="st16" d="M307.3,136.6c9.1,0.9,17.4,4.4,24.2,11.4C326.8,138.2,317.9,134.4,307.3,136.6z"/>
	<path class="st16" d="M116.6,163.7c5.6-7,11.1-11.4,20.3-13.1C126.6,149,120.5,153.7,116.6,163.7z"/>
	<path class="st17" d="M257.7,283.4c30.2-21.4,44.9-69.4,36-119.8c-0.1-0.6,0-0.3-0.2-0.9l-7.5-5.1l0.2,0.8
		c9.4,43.2,1.1,89.4-35.2,117C245.9,280.1,253.8,287.8,257.7,283.4z"/>
	<path class="st8" d="M257.7,283.4c30.2-21.4,44.9-69.4,36-119.8c-0.1-0.6,0-0.3-0.2-0.9l-7.5-5.1l0.2,0.8
		c9.4,43.2,1.1,89.4-35.2,117C245.9,280.1,253.8,287.8,257.7,283.4z"/>
	<path class="st13" d="M270.6,144.1c19.4,20.3,43.1,29.9,54,25.1"/>
	<path class="st17" d="M253.6,74.3l-15.8-3.6l0.8,11.7c2.2,15.7,17.6,33.3,19.9,30.7c0.8-1.6-0.3-7.6-5.8-16
		c10.3,10.4,17.1,11.3,15.8,1.9c3.9-0.3,0.1-5.5-6.1-13.4c7.3,7.2,10.9,7,10.4,3.2C272.2,83.6,261.4,76.9,253.6,74.3z"/>
	<path class="st8" d="M253.6,74.3l-15.8-3.6l0.8,11.7c2.2,15.7,17.6,33.3,19.9,30.7c0.8-1.6-0.3-7.6-5.8-16
		c10.3,10.4,17.1,11.3,15.8,1.9c3.9-0.3,0.1-5.5-6.1-13.4c7.3,7.2,10.9,7,10.4,3.2C272.2,83.6,261.4,76.9,253.6,74.3z"/>
	<path class="st18" d="M253.6,74.3c0.7-8.9-12.5-12.9-21.5-7c-9.3,6.1-13.5,17-7.6,25.9C236.4,111.4,262.9,90.6,253.6,74.3z"/>
	<path class="st19" d="M253.6,74.3c0.7-8.9-12.5-12.9-21.5-7c-9.3,6.1-13.5,17-7.6,25.9C236.4,111.4,262.9,90.6,253.6,74.3z"/>
	<path class="st19" d="M222.9,78.9c-8.1-4.9-16.5-8.6-25.6-10.2 M230.2,73.4c-2.7-6.5-6.3-12.2-11.9-16.3 M235.6,65.6
		c0.4-2.9-0.5-7-1.6-9.4 M223.1,90.4c-4.7-0.2-9.6,1.5-14.7,5.1 M226.2,95.8c-1.9,0.5-4.6,2.4-6.6,4.6 M240.7,68.3
		c0.9-3,0.8-6.7-0.5-9.3 M234.7,95.3c-0.9,8.2-4.3,14.9-11.2,19.3"/>
	<path class="st12" d="M79.6,290.4c3.5,14.3,1.4,33.4,15.9,28.3c6.1-1.7,13.2-7.4,18.1-16.6 M58.1,252.3
		c-20.5-7.4-38.7-30.9-48.5-56.8c14.9,4.9,24.9,2,29.2-10.1c6.4,21.2,15.8,37.8,28,49.8 M55.4,232.1c-5.8-5.4-10.7-11.4-15.4-21.3
		 M56.4,242.6c-10.8-5.1-19.7-14.1-26.8-26.7 M165.7,292.5c0.9,6.4,4.6,14.3,9.2,18c2-17.7,45.5-62.4,5.1-103.7
		c-5.6-5.6-11.5-8-15.8-7.8 M113.6,302.1c-2.1,0-4.2-0.1-6.4-0.3c-21.5-2.3-48.9-18.2-51.7-69.7c11.2,5.9,32.1,3.5,37.9-6.9
		 M156.4,193.9c35.4,18.9,32.9,63.1,6,88.8 M86.5,276c10,10.1,18.6,10.9,25.8,2.2c8.7,6.7,17.9,2.7,18.3-6.2
		c8.6,1.3,14.1-6.2,12.5-15.4 M98.5,218.8c-19.2,20.7-17.7,47-10.1,61.3c15.4,28.5,53,25.7,75.6,43.5c13.1-50.5-22.3-57.7-33.5-86.6
		 M112.3,278.2c9.4,16.6,27.4,24.3,38.8,37.7 M130.6,272c11.1,17.2,29.6,20,33.4,51.6 M108.3,310c5.9,6,13,5.7,19.7-2.3"/>
	<defs>
		<filter id="Adobe_OpacityMaskFilter" filterUnits="userSpaceOnUse" x="145" y="18" width="133" height="133">
			<feColorMatrix  type="matrix" values="1 0 0 0 0  0 1 0 0 0  0 0 1 0 0  0 0 0 1 0"/>
		</filter>
	</defs>
	<mask maskUnits="userSpaceOnUse" x="145" y="18" width="133" height="133" id="SVGID_1_">
		<g class="st20">
			<rect x="145" y="18" class="st21" width="133" height="133"/>
		</g>
	</mask>
	<g class="st22">
		<g>
			<defs>
				<rect id="SVGID_2_" x="145" y="18" width="133" height="133"/>
			</defs>
			<clipPath id="SVGID_3_">
				<use xlink:href="#SVGID_2_"  style="overflow:visible;"/>
			</clipPath>
			<g class="st23">
				<defs>
					<rect id="SVGID_4_" x="145" y="18" width="133" height="133"/>
				</defs>
				<clipPath id="SVGID_5_">
					<use xlink:href="#SVGID_4_"  style="overflow:visible;"/>
				</clipPath>
				<path class="st24" d="M276.7,93.2c3.8-48.9-41.8-88.9-90-68.3c-60.3,28.1-45.6,95.8-2.4,117.4
					C223.9,163.7,274.3,133.6,276.7,93.2z"/>
				<path class="st25" d="M276.7,93.2c3.8-48.9-41.8-88.9-90-68.3c-60.3,28.1-45.6,95.8-2.4,117.4
					C223.9,163.7,274.3,133.6,276.7,93.2z"/>
			</g>
		</g>
	</g>
	<path class="st5" d="M158.2,102.4c-0.7-19.3,3.9-37.7,14.1-57.9C155.4,61.9,151.4,81.3,158.2,102.4z"/>
	<path class="st8" d="M252.5,278.3c3.7-2.4,7.4,4.2,4.9,5.5"/>
	<path class="st13" d="M331.6,184.2c14.2-1,18.4-17.5,5.8-27.1c-4.9-19.3-15.3-25.3-31.6-22.7l-37.4,4.3c3.4,9,10.9,24.1,19.1,34.9"
		/>
	<path class="st12" d="M406,241.7c8.3-3.3,16.5-12,24.8-26.2 M403.7,236.9c6.6-8.2,12.1-18,16.3-29.3 M393.7,237.9
		c10-5.9,16.2-32.1,27.8-66.8c3.1,7.6,5.5,17.2,10.5,21.8c5,2,13,0.6,24.2-4.4c-2,26.8-33.2,65-55.8,64.7 M342.3,273.8
		c7.7,5,18.5-0.5,19.5-9.4c11.1,5.5,20.4-2.6,17.5-12.2c11.5-0.9,11.8-12,9.4-18.6 M361.8,264.4c13,15.5,31.2,23.4,50.2,24.1
		 M379.3,252.2c10.5,18.2,22.8,26.3,36.4,27.4 M368.2,201.7c29.2,24.9,22.4,74.3,56.5,80.7c-17,15.2-85,12-105.7-38.4 M375.5,288.4
		c-2.3,3.2-5.9,5.6-9.4,7.8c3.7,8.9-0.8,14.4-13.4,16.3c-3.8,0.8-15.7-9.8-20-16.1 M310.7,288.2c4.9,7.3,12.3,16.2,16.4,18.1
		c2.2,2,7,1.8,14.6-0.4 M390.3,237.9c5.3,0.2,11.1-0.4,17.2-1.8c-1.8,8.2-4.8,14.8-9.7,20.7"/>
	<path class="st2" d="M368.4,257.7c-7.5-8.8-12.5-19.5-15.9-33.4C352.1,239.8,357.7,250.6,368.4,257.7z"/>
	<path class="st4" d="M449.1,194.9c-11.4,4.3-18.7,3.1-25-6.6C428.1,202.2,435.5,204.4,449.1,194.9z M342.2,200.2
		c8.9,1.7,26.1-3.2,32.7-9.8C369.6,203,351.7,205.2,342.2,200.2z M321.2,109.3c8.8-3.9,18.1-4.8,29.2-3.1
		C339.4,100.5,329.7,101.9,321.2,109.3z"/>
	<path class="st13" d="M109.5,173.5c5.9-19.9,15.7-28.3,29.3-25.2c16,2.4,23.3,5,33.8,7.3c-10.6,39.9-27.6,58.4-52.9,42.3
		C101.2,203.1,95.7,181.8,109.5,173.5"/>
	<path class="st4" d="M12.5,197.9c11.4,4.3,18.7,3.1,25-6.6C33.5,205.2,26,207.3,12.5,197.9z M126.3,125.6
		c-8.8-3.9-18.1-4.8-29.2-3.1C108.1,116.7,117.7,118.2,126.3,125.6z M164.8,304.2c-2.6-11.8-8.5-27.8-17.8-38.4
		C159.2,276.4,165.6,290.4,164.8,304.2z"/>
	<path class="st2" d="M101.5,235.8c1.7,11.5,6.4,22.2,14.7,33.9C104.3,259.9,99.8,248.5,101.5,235.8z"/>
	<path class="st15" d="M179.5,234c-2.6-11.8-8.3-22.1-17.6-32.8C174.8,209.1,180.2,220.2,179.5,234z"/>
	<path class="st2" d="M192.8,258.2c1.2-10.2,0-20.4-3.6-32.4C195.9,237.1,196.8,247.9,192.8,258.2z"/>
</g>
</svg>
