<?xml version="1.0" encoding="utf-8"?>
<!-- Generator: Adobe Illustrator 21.1.0, SVG Export Plug-In . SVG Version: 6.00 Build 0)  -->
<svg version="1.1" id="Layer_1" xmlns="http://www.w3.org/2000/svg" xmlns:xlink="http://www.w3.org/1999/xlink" x="0px" y="0px"
	 viewBox="0 0 484 423" style="enable-background:new 0 0 484 423;" xml:space="preserve">
<style type="text/css">
	.st0{fill-rule:evenodd;clip-rule:evenodd;fill:#F7CA8F;}
	.st1{fill:none;stroke:#D1822F;stroke-width:1.7008;stroke-linecap:round;stroke-linejoin:round;stroke-miterlimit:22.9256;}
	.st2{fill-rule:evenodd;clip-rule:evenodd;fill:#00833A;}
	.st3{fill-rule:evenodd;clip-rule:evenodd;fill:#A1C413;}
	.st4{fill:none;stroke:#055332;stroke-width:1.7008;stroke-linecap:round;stroke-linejoin:round;stroke-miterlimit:22.9256;}
	.st5{fill-rule:evenodd;clip-rule:evenodd;fill:#A35939;}
	.st6{fill-rule:evenodd;clip-rule:evenodd;fill:#23A635;}
	.st7{fill:none;stroke:#822E2D;stroke-width:1.7008;stroke-linecap:round;stroke-linejoin:round;stroke-miterlimit:22.9256;}
	.st8{fill-rule:evenodd;clip-rule:evenodd;fill:#CBD337;}
	.st9{fill-rule:evenodd;clip-rule:evenodd;fill:#F5B0B4;}
	.st10{fill-rule:evenodd;clip-rule:evenodd;fill:#E08082;}
	.st11{fill-rule:evenodd;clip-rule:evenodd;fill:#FFFFFF;}
	.st12{fill-rule:evenodd;clip-rule:evenodd;fill:#CA6C32;}
	.st13{fill-rule:evenodd;clip-rule:evenodd;fill:#A24B2A;}
	.st14{fill:none;stroke:#783529;stroke-width:1.7008;stroke-linecap:round;stroke-linejoin:round;stroke-miterlimit:22.9256;}
	.st15{fill-rule:evenodd;clip-rule:evenodd;fill:#1A1A18;}
	.st16{fill-rule:evenodd;clip-rule:evenodd;fill:#E29769;}
	.st17{fill-rule:evenodd;clip-rule:evenodd;fill:#F9D4D2;}
	.st18{fill-rule:evenodd;clip-rule:evenodd;fill:#D8D9D9;}
	.st19{fill-rule:evenodd;clip-rule:evenodd;fill:#C5C5C6;}
	.st20{fill-rule:evenodd;clip-rule:evenodd;fill:#ECECEC;}
	.st21{fill:none;stroke:#868685;stroke-width:1.7008;stroke-linecap:round;stroke-linejoin:round;stroke-miterlimit:22.9256;}
	.st22{fill:none;stroke:#C5C5C6;stroke-width:1.7008;stroke-linecap:round;stroke-linejoin:round;stroke-miterlimit:22.9256;}
	.st23{fill:none;stroke:#6E6E6E;stroke-width:1.7008;stroke-linecap:round;stroke-linejoin:round;stroke-miterlimit:22.9256;}
</style>
<path class="st0" d="M354.9,258.9l14.8-5.5l10.2,9.9c-5.2,4.5-3.1,13.1-4.6,19.7c-2,4-9.5,5-11-1c-2.4,5.4-12.3,5.9-12.3-3.3
	c-3.1,3.7-8.8,0.6-7.9-4.7C344.6,267.8,350.1,261.1,354.9,258.9z"/>
<path class="st1" d="M358.8,266.3c-3.2,2.9-5.5,7.1-6.8,12.6c-3.1,3.7-8.8,0.6-7.9-4.7c0.5-6.4,6.1-13.1,10.8-15.3"/>
<path class="st1" d="M371.8,267c-4.6,3.4-6.8,8.6-7.5,15.1c-2,7.4-13.6,4.6-12.3-3.3"/>
<path class="st1" d="M364.2,282.1c0.2,4.6,9.5,5.5,11,1c1.2-6.6-0.8-13.5,4.6-19.7"/>
<path class="st0" d="M312.1,250.1l14.8-5.5l10.2,9.9c-5.2,4.5-3.1,13.1-4.6,19.7c-2,4-9.5,5-11-1c-2.4,5.4-12.3,5.9-12.3-3.3
	c-3.1,3.7-8.8,0.6-7.9-4.7C301.9,258.9,307.4,252.2,312.1,250.1z"/>
<path class="st1" d="M315.9,257.4c-3.2,2.9-5.5,7.1-6.8,12.6c-3.1,3.7-8.8,0.6-7.9-4.7c0.5-6.4,6.1-13.1,10.8-15.3"/>
<path class="st1" d="M328.9,258.2c-4.6,3.4-6.8,8.6-7.5,15.1c-2,7.4-13.6,4.6-12.3-3.3"/>
<path class="st1" d="M321.4,273.3c0.2,4.6,9.5,5.5,11,1c1.2-6.6-0.8-13.5,4.6-19.7"/>
<path class="st2" d="M262.2,206.8l27.2-15.8l17.6-50.3C279.4,150.2,256.1,173.6,262.2,206.8z"/>
<path class="st2" d="M350.6,256.4l29.2-16.6l27.4,12.4C399.4,267.9,363.6,270.1,350.6,256.4z"/>
<path class="st3" d="M299.2,190.6l39.7,32l40.5-66.4l-60.7-22.9C297.9,142.3,286.8,166.6,299.2,190.6z"/>
<path class="st4" d="M318.8,133.2c-20.9,9.1-31.9,33.4-19.5,57.4"/>
<path class="st5" d="M402.6,236.9l0.2-21c5,2.1,10.7,3.6,17,4.5C415.1,227.6,409.4,233.1,402.6,236.9z"/>
<path class="st6" d="M406.9,234.2l5.3-4.5l7.6-9.3l-13.7-3.3c11.6-2,27-24.7,50.5-53.4c0.2,8.3-0.9,18.3,2.1,24.5
	c4,3.7,12.1,5.2,24.5,4.6C471.4,217.6,428.1,242.6,406.9,234.2z"/>
<path class="st2" d="M406.9,234.2l5.3-4.5l7.6-9.3l-13.7-3.3c11.6-2,10.6-4.1,34-32.8c-6.8,8.4-10.2,25.5-3.7,29.7
	c4,3.7,27.4,1.7,46.7-21.2C471.4,217.6,428.1,242.6,406.9,234.2z"/>
<path class="st4" d="M416.4,225.1c9-0.1,20-5.5,33-15.9 M415.9,219.8c9.2-5.4,17.9-12.7,26.1-21.9 M406.1,217.2
	c11.6-2,27-24.7,50.5-53.4c0.2,8.3-0.9,18.3,2.1,24.5c4,3.7,12.1,5.2,24.5,4.6c-11.6,24.7-54.9,49.7-76.3,41.3"/>
<path class="st7" d="M402.8,215.9c5,2.1,10.7,3.6,17,4.5c-4.7,7.2-10.4,12.6-17.2,16.5"/>
<path class="st4" d="M338.4,170.8c-2.9,1.5-6.5-0.2-6.8-3.5 M320.2,167.1c-2.3,0.6-4.5-1.1-4.3-3.5 M310.9,155.6
	c-1.7,0.5-3.4-0.8-3.2-2.6 M302.6,176.8c-1.6,0.8-3.5-0.1-3.7-1.9 M311.8,188.1c-2.1,1.1-4.6-0.1-4.9-2.6 M308.1,202.6
	c-1.6,0.8-3.5-0.1-3.7-1.9"/>
<path class="st8" d="M296.9,172.9c2.7-12,8.4-22.5,17.9-33.3C301.6,147.7,296.1,158.9,296.9,172.9z"/>
<path class="st3" d="M474.1,196.4c-12.4,0-18.9-3.8-21.3-15.3C451.6,195.8,457.9,200.4,474.1,196.4z"/>
<path class="st6" d="M357.4,208.6c-7-23-5.2-40.4,9.3-49.4l37.3,1.2c27.4,19.3,27.6,81.3,62.9,88
	C449.2,264.1,378.8,260.8,357.4,208.6z"/>
<path class="st2" d="M419.8,217c-16.2,28.3-43.2-28.1-30.6-53.4l8-0.9l6.7-2.2l7.8,7.2c7.3,9.5,15,27,16.7,31
	C431.8,211.3,428.1,215.4,419.8,217z"/>
<path class="st4" d="M381.4,239.4c8,5.2,19.2-0.5,20.2-9.7c11.5,5.7,21.1-2.7,18.1-12.7c12-0.9,10.2-13.9,7.7-20.7 M401.6,229.7
	c13.4,16.1,32.3,24.2,52,25 M419.8,217c10.9,18.8,23.6,27.2,37.7,28.3 M407.2,252.2c-6.5,8.8-31.3,23.7-56.6,4.2 M403.9,160.4
	c28.3,19.6,27.6,81.3,62.9,88c-17.6,15.8-88,12.4-109.5-39.8"/>
<path class="st6" d="M408.6,222.7c-7.8-9.1-13-20.1-16.5-34.6C391.6,204.2,397.4,215.4,408.6,222.7z"/>
<path class="st6" d="M341.1,72.6L321.4,123C303.6,101,316.1,57.8,341.1,72.6z"/>
<path class="st3" d="M324.2,124.3l51.9-16.7c32.2-1.5,47.7,16.9,49.1,31.7c-3-2.3-6-3.4-9.1-3.9
	C423.4,170.1,362.6,178.8,324.2,124.3z"/>
<path class="st6" d="M324.2,124.3l40.6,11.4c24.6,15.6,49.3-0.3,42.4-21.7c6.2,5.5,16.6,10.5,18,25.3c-3-2.3-6-3.4-9.1-3.9
	C423.4,170.1,362.6,178.8,324.2,124.3z"/>
<path class="st9" d="M329.4,106.3l36,10.1l1.6,6.6c-22.7,16.6-42.8,20.6-47.1,15.6C325.1,131.6,327.1,116.3,329.4,106.3z"/>
<path class="st10" d="M327.1,117.7l2.7-11.3l35.7,10l5,2.9c-2.4,3.7-9.2,8.4-17.2,13.2c0.8-7.4-8.7-14.8-15.8-9.8
	C338.4,115.9,330.9,113.4,327.1,117.7z"/>
<path class="st6" d="M338.9,76.8l37.2,30.6c18.9-0.7,33.5,5.2,43.6,17.6c14.8-18.9,18.7-38,3.1-57.4l1.6-16.7
	c-5.6,2.4-8.9,6.4-10,12.2l-6.4-13.3l-0.9,4.1C376.6,37.6,352.4,48.4,338.9,76.8z"/>
<path class="st2" d="M407.2,114.1l8.8,6.7l5.1,6.4c15.9-18.2,14.1-47.7,1.6-59.5l1.6-16.7c-5.6,2.4-8.9,6.4-10,12.2
	C422.4,77.7,423.1,99.1,407.2,114.1z"/>
<path class="st11" d="M388.1,108.1l-12-0.4c-0.5-7.6-2.5-14.7-7-21.3c10.5-12.4,21.1-15.5,26.4-11C399.9,79,397.8,94.1,388.1,108.1z
	"/>
<path class="st12" d="M379.8,107.5l-3.6-0.1l-1.2-8.2l-5.8-12.9c6.9-10.9,17.1-11.9,20.8-7.7C393.2,82.2,390.8,98.2,379.8,107.5z"/>
<path class="st11" d="M364.1,81.8c-5.8-3.1-12.3-4.3-19.2-4.7c8.4-15.7,19.6-20.5,24.6-16.6C373.2,63.7,370.6,73.3,364.1,81.8z"/>
<path class="st12" d="M359.8,79.7l-14.8-2.6l4.8-5.8c3.9-8.1,11.9-10.6,15.7-7.4C368.6,66.5,365.1,75.9,359.8,79.7z"/>
<path class="st4" d="M407.4,64.1c-1-4.5-0.8-9.3,0.7-14.3c1.7,5.4,3.8,9.8,6.3,13.4c1.6-6.3,4.9-10.4,10-12.2
	c-1.5,5.2-1.9,10.8-1.6,16.7c12.9,11.9,14,40.3-1.6,59.5 M407.1,53.9c-30.7-16.2-54.8-5.5-68.2,23 M321.4,123
	c-18.5-28.2-4.4-63.9,19.7-50.4 M344.9,77.1c8.4-15.7,19.6-20.5,24.6-16.6c3.6,3.1,1.1,12.7-5.5,21.2 M368.4,55.4
	c2.7-0.3,5.9,0.9,6.2,4.6 M369.1,86.4c10.5-12.4,21.1-15.5,26.4-11c4.3,3.7,2.2,18.8-7.4,32.7 M402.9,75c1.6,2,3,6.5,2.6,9.8
	 M376.1,107.6c32.2-1.5,47.7,16.9,49.1,31.7c-3-2.3-6-3.4-9.1-3.9c6.2,29.8-37.2,40.9-74.1,8.7"/>
<path class="st12" d="M376.1,107.6c-1.4-19.4-10.8-30.8-32-30.5L308.6,75c5.1,22.6,33.5,49.3,61.8,44.2l-6.9,14
	C380.9,135.7,387.2,117.7,376.1,107.6z"/>
<path class="st13" d="M320.1,145.1c7.9,6.6,29.3-3.4,43.5-11.9c14-1.2,13-16.6,4.8-16.9l2.1,2.9l-3.4,3.7
	c-24.6,18-39.1,19.5-44.1,17.4c-3-1.8,3.6-18.2,6.5-34l-4-3.4C323.6,120,313.6,141.7,320.1,145.1z"/>
<path class="st14" d="M368.4,116.4c2,1,3.1,4.4,1.9,6.5"/>
<ellipse transform="matrix(4.826534e-02 -0.9988 0.9988 4.826534e-02 278.5564 460.2987)" class="st15" cx="380.8" cy="84" rx="5.5" ry="5.5"/>
<ellipse transform="matrix(4.818201e-02 -0.9988 0.9988 4.818201e-02 273.2998 423.176)" class="st15" cx="358.7" cy="68.2" rx="4.7" ry="4.7"/>
<ellipse transform="matrix(4.791721e-02 -0.9989 0.9989 4.791721e-02 274.4182 466.5112)" class="st11" cx="381.9" cy="89.3" rx="3.1" ry="3.1"/>
<ellipse transform="matrix(4.850520e-02 -0.9988 0.9988 4.850520e-02 269.4896 428.4452)" class="st11" cx="359.6" cy="72.8" rx="2.7" ry="2.7"/>
<ellipse transform="matrix(4.810444e-02 -0.9988 0.9988 4.810444e-02 264.6386 479.9129)" class="st11" cx="384.1" cy="101.1" rx="2.6" ry="2.6"/>
<path class="st14" d="M308.6,75.1c10.3,34.1,44.9,48.8,61.8,44.2"/>
<path class="st14" d="M363.6,133.3c15.5,1.6,24.4-12.9,12.6-25.7c-1.6-21.7-11.7-30.1-29.7-30.4L308.6,75"/>
<ellipse transform="matrix(4.829727e-02 -0.9988 0.9988 4.829727e-02 245.4193 447.1704)" class="st13" cx="357.4" cy="94.8" rx="3.8" ry="3.8"/>
<path class="st16" d="M347.6,80c9.6,2.7,17.9,8,24,16.8C368.4,85.4,359.4,79.6,347.6,80z"/>
<path class="st17" d="M325.9,130.1c0.3,6.4,4,6.8,16.1,3.9C325.1,141,323.9,138.5,325.9,130.1z"/>
<path class="st3" d="M373.4,154.8c9.2,3.5,28.7,1.5,37-4.5C402.4,163,382.6,162.1,373.4,154.8z"/>
<path class="st3" d="M364.1,53c10.2-2.5,20.4-1.8,32,2.1C385.4,46.9,374.6,46.6,364.1,53z"/>
<path class="st14" d="M367.1,122.9c-16,14.2-40.3,20.5-44.1,17.4c-3-1.8,4.1-24,6.5-34"/>
<path class="st18" d="M321.4,268.4v-80.1c1.8-33-47-35.7-52.3-5.4l3.7,43.7l3.9,27.3C288.1,239.4,308.9,243.2,321.4,268.4z"/>
<path class="st19" d="M321.4,268.4v-80.1c1.8-33-47-35.7-52.3-5.4l3.7,43.7l3.9,27.3C288.1,239.4,308.9,243.2,321.4,268.4z"/>
<path class="st14" d="M363.6,133.3c-24.4,15-37.8,15-43.1,12.1c-5.6-3.1,0.1-15.7,5-42.7"/>
<path class="st20" d="M321.4,188.3v80.1c12.7-9.9,33.3-15.4,54.6-11.8l17.9-77C366.4,173.6,341.8,175.4,321.4,188.3z"/>
<path class="st21" d="M321.4,188.3v80.1c12.7-9.9,33.3-15.4,54.6-11.8l17.9-77C366.4,173.6,341.8,175.4,321.4,188.3z"/>
<path class="st22" d="M348.9,225.1c0-8.3,13.8-9,13.8,0.5c0,4.9-4.8,8.9-9.4,8.9c-5.4-0.1-9.6-3.6-10-9.5
	c-0.7-9.4,16.3-16,18.5-22.8c3.8-11.5-6.9-17.6-7.6-6.6c-0.6,9.3-0.6,24.4-0.3,34.3c0.1,4.4,0.6,10.6-0.2,13c-1.1,3.6-6.2,4-7.5,0"
	/>
<path class="st23" d="M269.1,182.8c5.8-30.6,52-28,52.3,5.4"/>
<path class="st6" d="M264.8,177.6c53.1,53.4,41.2,55.9,20.3,43.6c4.1,2.7,10.8,10.1,9.5,12C291.4,240.1,248.4,225.3,264.8,177.6z"/>
<path class="st23" d="M272.9,226.6l3.9,27.3c11.3-14.5,32.1-10.8,44.7,14.4"/>
<path class="st3" d="M271.8,192.2c7.2,9.3,19.2,20.5,27,27.7C295.1,210.9,280.1,195.8,271.8,192.2z"/>
<path class="st4" d="M285.1,221.2c4.1,2.7,10.8,10.1,9.5,12c-2.7,5.7-31.7-4.6-32.7-28.1 M307.1,140.7
	c-27.7,9.5-50.9,32.9-44.8,66.1 M269.1,182.8c46.3,44.8,44.7,58.9-0.7,27.4"/>
</svg>
