<?xml version="1.0" encoding="utf-8"?>
<!-- Generator: Adobe Illustrator 21.1.0, SVG Export Plug-In . SVG Version: 6.00 Build 0)  -->
<svg version="1.1" id="Layer_1" xmlns="http://www.w3.org/2000/svg" xmlns:xlink="http://www.w3.org/1999/xlink" x="0px" y="0px"
	 viewBox="0 0 484 423" style="enable-background:new 0 0 484 423;" xml:space="preserve">
<style type="text/css">
	.st0{fill-rule:evenodd;clip-rule:evenodd;fill:#9D60A3;}
	.st1{fill-rule:evenodd;clip-rule:evenodd;fill:#3B3A39;}
	.st2{fill-rule:evenodd;clip-rule:evenodd;fill:#BB8EC0;}
	.st3{fill-rule:evenodd;clip-rule:evenodd;fill:#D0B2D5;}
	.st4{fill-rule:evenodd;clip-rule:evenodd;fill:#F7C6C7;}
	.st5{fill:none;stroke:#6C3579;stroke-width:1.7008;stroke-linecap:round;stroke-linejoin:round;stroke-miterlimit:22.9256;}
	.st6{fill-rule:evenodd;clip-rule:evenodd;fill:#FFFFFF;}
	.st7{fill-rule:evenodd;clip-rule:evenodd;fill:#1A1A18;}
	.st8{fill-rule:evenodd;clip-rule:evenodd;fill:#E2D2E8;}
	.st9{fill-rule:evenodd;clip-rule:evenodd;fill:#F3A5A6;}
	.st10{fill-rule:evenodd;clip-rule:evenodd;fill:#6E6E6E;}
	.st11{fill:none;stroke:#3B3A39;stroke-width:1.7008;stroke-linecap:round;stroke-linejoin:round;stroke-miterlimit:22.9256;}
	.st12{fill:none;stroke:#1A1A18;stroke-width:1.7008;stroke-linecap:round;stroke-linejoin:round;stroke-miterlimit:22.9256;}
</style>
<path class="st0" d="M172.2,295.5l44.8-23.5c-11.3,16.1-23.3,29.5-40.6,32.6L172.2,295.5z"/>
<path class="st1" d="M233.9,242.7c17.3-2.6,17.2-20.9-2.2-23.9C218.9,224.3,221.9,241.4,233.9,242.7z"/>
<path class="st2" d="M173.1,298.8c16.2-1.1,27.6-16.4,41.9-22.9l4.1-7.7c-14.9-5.6-25.5,17.5-48.4,15.6l-56.2-7.7l-5.7,17.1
	c-9.1-3.3-17.1-8.7-23.7-17.1c1.3-7.8-12.2-9.3-11.2-3.5c-4.1,7.4-2.3,12.7,5.5,15.7l29.4,30.1l7.1,45.8l5.7,50
	c9.2,6.9,15.9,9.1,19.3,4.4c4.6-3.6,3.4-8-3.7-13.1c-5.2-15,6.3-25.5,9.5-38.3h7.8l8.2,34.6c1.4,8.6,5.5,12.3,12.3,11.1l3.5-0.4
	l3.8-2.5c4.2-4.2,3.4-8.3-2.5-12.3c-3.2-3.3-4-9-2.5-17.1l5.4-30.8c7-13.2,6-27.1-1-36.8C179.4,308.8,177.9,307.6,173.1,298.8z"/>
<path class="st0" d="M110.2,358.5l-0.6-9.8c-67.6,7.9-72.7,54.4-48,65.4C43.8,398.2,48.6,365.8,110.2,358.5
	c2.7,28.5,6.5,48.7,12,56.9c2.5,4.9,6.4,6.8,11.7,5.7l3.7-0.4l3.1-2.1c-1.6,1-5,2.3-6.5,0c-20.6-7.5-7.3-45.9-8.3-61.3
	c8.8,6.8,19,10.2,28.5,10c5.6,14.8-2,45.3,20.4,45.7c-16.1-3.4-10.9-28.4-12.4-40.4c7.1-3.5,13.3-11.4,18.4-18.8
	c-1.1,1.1-2.3,2.2-3.6,3.3c1.5-1.7,2.8-3.6,3.9-5.8c-8.5,7.6-18.9,11-30.7,9.4c-27.5-6.1-27.8-40.9-21.2-58.6
	c6.9,0.8,19.3,2,26.6,5.8l-36.1-30.7l-10.5-2.3l-0.5,18.2l4.3,1.5c-7.3,9.7-17,8.7-30.3-7.8l-1.6,0.7l-1.8,0.8
	c6.7,13.7,16.5,23.7,29.4,30.1L110.2,358.5z"/>
<path class="st0" d="M99.9,231.3l-34.2-48.2l-42.6,5.6c-15.4,23.7-5.3,51.7,17.4,63.2c20.6,11.2,44.6,9,64.3-5.4L99.9,231.3z"/>
<path class="st2" d="M140.1,171.1c-15.1-8.1-25.7-16.8-29.9-26.6c-4.8,6.4-6,14.8-5.6,24.1c-3.3-7.2-5.5-15.2-5.6-25
	c-7.8,7.6-7.6,21.3-1.9,39.1c-32.7-25-75.8-10.9-81,23.8c27-42,55.3-1.7,73.4-8.7l6.8,54.2l125.7-3l12-6.2
	c-13.1-2.5-13.8-20-2.2-23.9c-18-11.4-36.4-22-55.4-31.8L140.1,171.1z"/>
<path class="st3" d="M150.9,225.9c-18.1-5.3-30.3,1.3-39.3,10.3L96.2,252c2.8,14.5,7.1,25.7,12.7,33.6c41.5-3.5,88.5-22.6,125-42.8
	C202.8,250.8,173.4,232.7,150.9,225.9z"/>
<path class="st3" d="M165.9,273l-18.4,4.8l-22,5.6c-0.6,14.2,10.7,11,35.5,27.9C171.9,301.2,176.6,289.2,165.9,273z"/>
<path class="st0" d="M120.6,118.6c-34.7-10-53.6,19.7-45,53.1c6.8,0.6,13.8,6.3,21.5,11.1c-6.7-16.9-6.1-29.9,1.9-39.1
	c0.1,10.4,2.4,18.3,5.6,25c-1.3-8.1,0.6-16.1,5.6-24.1c4.6,9.3,15.2,18.1,29.9,26.6C151.9,146.1,138.4,124.6,120.6,118.6z"/>
<path class="st4" d="M89.4,197.8c-17,4-38.1-16.7-50.9,11.9c-6.8,22.7,19.7,55.1,56.6,34L89.4,197.8z"/>
<path class="st5" d="M231.8,218.8c-26.8-18.9-58.2-34.1-91.7-47.7c-14-6.7-24.5-15.3-29.9-26.6c-5.3,6.7-6.7,14.9-5.6,24.1
	c-3.6-8.6-6-17-5.6-25c-8.5,9.7-7.4,23.5-1.9,39.1c-40.1-30.4-82-2.4-81.2,29.1c1.1,36.8,42.9,59.1,80.4,40.2 M89.4,197.8
	c-10.2,5.5-29.5-12.9-47,4.4C28.8,216.9,45.8,268,94.8,244 M108.9,293.2c0.1-3.5,0.1-4.2,0.2-7.7c-10.3-12.6-16.4-43.8-19.5-87.7
	 M127.1,420.1c-12.5-5.9-17.7-50.8-18.4-101.6 M135.6,251c10.5,13.4,26.1,18.8,35.8,19.1 M136.2,246.2c-3.8,0.3-5.6,3.7-4.4,6.7
	 M109.1,285.6c36.8-6.6,83-18,126.1-43.5 M109.6,348.7c-67.6,7.9-72.7,54.4-48,65.4c-17.9-15.9-13.1-48.3,48.6-55.6 M115.2,320.2
	c-12.6-3.7-24.9-11.2-35.8-31.8 M73.9,272.5c-2.9,3.3-4.4,15.3,5.5,15.8c3,0.4,5.2-3.1,3.2-5.1c2.5-0.9,1.4-5.3-0.9-5.7
	 M113.1,294.7c-8.2-2.3-20.7-9-28-18.6c0.9-7.9-10.7-8.9-11.4-5.5c-1.1,5.1,10.2,9.6,11.4,5.5 M140.9,418.7c0.1-3.3-1-5.9-3.1-7.7
	 M133.9,421.2c0.7-2.7,0-5.9-1.3-8.2 M75.6,171.6c-11.6-39.6,19.4-62.3,45-53.1c20.6,7.1,31.4,31.4,19.4,52.5"/>
<path class="st6" d="M149.2,218.6l-7.8-1.8l-8-0.2c-8.5-21.5-3.5-33.7,10.7-28.1c-2.9-7.9,3.1-14.3,15.2-10.1
	c23.8,7.1,10.1,24-1,23.5C160.6,209.8,156.4,214.8,149.2,218.6z"/>
<ellipse transform="matrix(0.9961 -8.806767e-02 8.806767e-02 0.9961 -15.8611 15.0866)" class="st7" cx="163" cy="187.3" rx="5.7" ry="5.7"/>
<ellipse transform="matrix(0.9961 -8.790290e-02 8.790290e-02 0.9961 -17.094 13.8178)" class="st7" cx="148.3" cy="201" rx="6.2" ry="6.2"/>
<ellipse transform="matrix(0.9961 -8.810797e-02 8.810797e-02 0.9961 -16.1515 14.8771)" class="st6" cx="160.4" cy="190.4" rx="2.9" ry="2.9"/>
<ellipse transform="matrix(0.9961 -8.822269e-02 8.822269e-02 0.9961 -17.4651 13.638)" class="st6" cx="145.6" cy="204.4" rx="3.1" ry="3.1"/>
<path class="st0" d="M204.9,231.6c-1.3,0.6-2,2.2-1.4,3.5c0.6,1.3,2.2,2,3.5,1.4c1.3-0.6,2-2.2,1.4-3.5
	C207.8,231.6,206.2,231,204.9,231.6z M212.4,236.5c-1.3,0.6-2,2.2-1.4,3.5c0.6,1.3,2.2,2,3.5,1.4c1.3-0.6,2-2.2,1.4-3.5
	C215.4,236.5,213.8,235.9,212.4,236.5z M213.6,227.9c-1.3,0.6-2,2.2-1.4,3.5c0.6,1.3,2.2,2,3.5,1.4c1.3-0.6,2-2.2,1.4-3.5
	C216.4,227.9,214.9,227.3,213.6,227.9z"/>
<path class="st5" d="M219.1,268.2c-16.5-4.4-20.1,15-48.1,15.7 M219.1,268.2c-3.9,0.4-7.8,2.4-10.5,5.2 M127.1,420.1
	c1.7,1,4.5,1.9,6.8,1.1c1.8,0.5,5.5-0.6,6.8-2.5c7-8.2-3.1-10.8-3.7-13.1c-3.7-15.7,6.3-25.5,9.5-38.3"/>
<path class="st5" d="M181.4,410.7c0.1-3.6-1-6.3-3.1-8.3 M174.9,413.1c0.1-3.6-0.9-6.3-2.8-8.3 M219.1,268.2
	c-3.5,10.2-24.9,35.4-43,36.5 M123.1,354.6c7.9,8.4,21.3,13,31.4,12.7c31.4-1.6,39.7-37.8,27.1-54.2c-3.3-5.4-8.6-12.1-9.4-17.7
	c0.8-7.6-2.7-16.3-6.4-22.5 M128.8,217.7c6.1-2.4,14.5-1.6,24.9,2.4 M123.9,186.1c-2.8,2.8-3.4,7.2-2.6,11.8 M133.4,216.6
	c-8.5-21.5-3.5-33.7,10.7-28.1c-2.1-8.3,3.1-14.3,15.2-10.1c23.6,9.5,10.1,24-1,23.5c2.3,7.9-1.9,12.9-9,16.6 M180.9,353.8
	c-1.6,15.3-8.7,36-1.3,44c5.3,2.1,7.4,9.1,1.7,12.9c-1,1.7-4.3,2.6-6.5,2.3c-20.6,1.4-16.5-30.7-20.5-45.8"/>
<path class="st8" d="M161.8,307.1c4.8-7,6.4-14.7,5.9-24.1C171.6,292.3,169.8,300.9,161.8,307.1z M144.6,224.8
	c-11.9-0.3-22.2,3.7-33,11.4C119.6,224.5,131.1,220.1,144.6,224.8z"/>
<path class="st2" d="M132.2,130c-11.1-6-23-7.6-37.2-6C108.8,117.6,121.9,119.4,132.2,130z"/>
<path class="st9" d="M53.6,236.6c11.1,6,23,7.6,37.2,6C77.2,248.9,64.1,247.2,53.6,236.6z"/>
<path class="st3" d="M180.1,345.7c2.9-10,1.9-19.9-2-31.1C185.9,324.5,186.9,335.5,180.1,345.7z M142.2,373.7
	c-6,8.1-8.6,17.3-9,28.6C129.8,390.8,132.6,380.6,142.2,373.7z M180.2,196.7c5.2-0.9,36.3,15.3,40.5,22.3
	C208.1,213.7,194.2,206.4,180.2,196.7z"/>
<polygon class="st10" points="72.8,274.5 76.6,268.8 4.4,160.5 "/>
<polyline class="st11" points="76.6,268.8 4.4,160.5 72.8,274.5 "/>
<path class="st12" d="M235.1,242.1c18.2-5.1,12.5-20.5-3.5-23.2"/>
<path class="st12" d="M231.8,218.8c-12.9,5.4-9.8,22.6,2.2,23.9"/>
</svg>
