<?xml version="1.0" encoding="utf-8"?>
<!-- Generator: Adobe Illustrator 21.1.0, SVG Export Plug-In . SVG Version: 6.00 Build 0)  -->
<svg version="1.1" id="Layer_1" xmlns="http://www.w3.org/2000/svg" xmlns:xlink="http://www.w3.org/1999/xlink" x="0px" y="0px"
	 viewBox="0 0 484 423" style="enable-background:new 0 0 484 423;" xml:space="preserve">
<style type="text/css">
	.st0{fill-rule:evenodd;clip-rule:evenodd;fill:#E2EAB6;}
	.st1{fill-rule:evenodd;clip-rule:evenodd;fill:#F0F8FD;}
	.st2{fill-rule:evenodd;clip-rule:evenodd;fill:#D3E095;}
	.st3{fill-rule:evenodd;clip-rule:evenodd;fill:#D6B36A;}
	.st4{fill-rule:evenodd;clip-rule:evenodd;fill:#CE9A41;}
	.st5{fill-rule:evenodd;clip-rule:evenodd;fill:#FFFFFF;}
	.st6{fill:none;stroke:#FFFFFF;stroke-width:1.7009;stroke-linecap:round;stroke-linejoin:round;stroke-miterlimit:22.9256;}
	.st7{fill:none;stroke:#FFFFFF;stroke-width:1.7008;stroke-linecap:round;stroke-linejoin:round;stroke-miterlimit:22.9256;}
	.st8{fill:none;stroke:#E2EAB6;stroke-width:1.7008;stroke-linecap:round;stroke-linejoin:round;stroke-miterlimit:22.9256;}
</style>
<path class="st0" d="M136.6,423c22.9,0,41.6-4.6,41.6-10.2c0-5.6-18.7-10.2-41.6-10.2c-22.9,0-41.6,4.7-41.6,10.3
	C95.1,418.5,113.8,423,136.6,423z"/>
<path class="st1" d="M206.9,13.9c-39.6,24.2-0.3,55.3-28.5,78c-22.4,18-47.8,5.1-98.7,57.1c-59.4,60.7-18.9,187.1,66.2,230.4
	c54.1,27.5,120.6,32.7,156.5,9.9c24.2-15.4,3-37.5,48.4-37.5c43.4,0,98.3-15.2,110.9-72.1C488.9,157.1,322.4-56.5,206.9,13.9z"/>
<path class="st2" d="M378.6,297.5l-2.7-24.7l-115.3-20.1l-52.6,8.3c-13.7,8.3-18.2,20-13.4,35.3c1,6.1,4.5,9.9,11.2,9.1
	c3.9-0.5,3.8,0.5,4.1,7.6c0.7,17.1,24.9,12.2,25.9,8.6c-1.1,2.5,2.8,11.1,9.7,4.1c0.7-0.7-1.6,14.3,9.5,15.1c5.1,0.4,8.5-3.9,9.8-7
	c0.9-2,2.8,0.9,3.6,3c2.2,6.2,10.2,7.1,13.2,1.5c0,0,7.3,13.6,24.3,8.6c12.8-3.7,15.8-17.7,15.8-17.7c2.9,4.6,9.9,7.5,14.7,6
	c4.9-1.5,7.9-6.7,5.5-11.7C341.2,322.3,367.9,326.8,378.6,297.5z"/>
<path class="st0" d="M166.6,195.8l41.6,65.3l146.8-2.1l-35-148.5c3.6-8.5-22.5-16.3-35.5-2.4c-2,2.1-5.7,7.7-5.4,4.4
	c0.7-6.4-3.5-14-9-16.1c-10.2-3.7-8.7,15.7-8.8,14.9c-0.2-1.4-5.7-6.1-9.2-3.2c-4,3.2-3.3,7.6-3,10.7c0.9,7.8-6.3,1.6-8.6,4.8
	c-3.4,4.8-4.2,15-6,22.5c-0.5-4.3-3.7-33.8-10.9-34c-17.8-0.4-19.1,24.3-19.4,24.4c-0.6,0.1-0.6-4.5-3.1-7.6
	c-4.2-5.2-14.9,3.1-10.2,11.5c2.1,3.7-0.2,3.7-3.1,1.2c-5-4.4-16.9-11.4-20.8,0.7c-1.9,6.1,3.3,18.4,7.7,22.1
	C140.4,167.1,152.9,185.9,166.6,195.8z"/>
<path class="st2" d="M215.2,219.7l21.1,36.9L353.6,243l19-101.1c4-8.3-21.7-17.4-35.3-4.1c-2.1,2-6.1,7.4-5.6,4.1
	c1-6.4-2.8-6.1-8.2-8.5c-10-4.3-9.4,15.2-9.5,14.5c-0.1-1.4-5.4-6.4-9.1-3.7c-4.1,3-3.7,7.4-3.5,10.5c0.5,7.9-6.4-6.8-8.8-3.7
	c-3.6,4.6-4.9,14.8-7.1,22.2c-1.5-24.1-7.6-33.4-14.8-34c-11.5-0.9-14.7,22.9-15.1,22.9c-0.6,0.1-0.4-3.1-3.6-5.2
	c-6-4-17.9,4.6-11.2,12.1c2.7,3-0.4,3.6-3.2,1c-4.8-4.6-15.9-6.8-20.8-0.3c-4.1,5.5,1.8,16.9,5.9,20.9
	C188.6,191.8,202.1,209.2,215.2,219.7z"/>
<path class="st3" d="M248.6,284.8c-2.5,5.5-3.4,9.3-2.6,13.2c75.6-23,132.2,14.1,195.7,21.2c8.1-0.4,15.7-14.4,19.4-36.5
	c-52.1-5.5-85.2-25.4-134-36.5c-28.6-6.5-98.8-6.9-136.9,0.1l-30.2-3.6l-2.8,12.3l32.5,9c35.4-5.6,128.9-0.8,87.8,12.6
	C267.6,279.7,257.2,280.6,248.6,284.8z"/>
<path class="st4" d="M332.4,274.2c20.1,6.3,91.3,7.4,77.4-2.2c-44.4-12.4-34-14.8-82.8-25.9c-28.6-6.5-0.5-11.4-38.5-4.4
	C266.2,254.4,301.6,267.5,332.4,274.2z"/>
<ellipse transform="matrix(0.6453 -0.764 0.764 0.6453 35.3857 181.8089)" class="st5" cx="213.5" cy="52.8" rx="5.2" ry="3.6"/>
<ellipse transform="matrix(0.6453 -0.764 0.764 0.6453 35.3857 181.8089)" class="st6" cx="213.5" cy="52.8" rx="5.2" ry="3.6"/>
<ellipse transform="matrix(0.6454 -0.7639 0.7639 0.6454 43.89 192.4619)" class="st5" cx="229.2" cy="49" rx="4.5" ry="3.1"/>
<ellipse transform="matrix(0.6454 -0.7639 0.7639 0.6454 43.89 192.4619)" class="st6" cx="229.2" cy="49" rx="4.5" ry="3.1"/>
<ellipse transform="matrix(0.6949 -0.7191 0.7191 0.6949 22.4675 214.0291)" class="st5" cx="263.5" cy="80.5" rx="4.5" ry="3.1"/>
<ellipse transform="matrix(0.6949 -0.7191 0.7191 0.6949 22.4669 214.0279)" class="st7" cx="263.5" cy="80.5" rx="4.5" ry="3.1"/>
<ellipse transform="matrix(0.6948 -0.7192 0.7192 0.6948 33.0797 222.4548)" class="st5" cx="278.6" cy="72.3" rx="4.5" ry="3.1"/>
<ellipse transform="matrix(0.6948 -0.7192 0.7192 0.6948 33.0797 222.4548)" class="st7" cx="278.6" cy="72.3" rx="4.5" ry="3.1"/>
<ellipse transform="matrix(0.6948 -0.7192 0.7192 0.6948 34.7806 231.6584)" class="st5" cx="290.3" cy="74.8" rx="4.5" ry="3.1"/>
<ellipse transform="matrix(0.6948 -0.7192 0.7192 0.6948 34.7803 231.6578)" class="st7" cx="290.3" cy="74.8" rx="4.5" ry="3.1"/>
<ellipse transform="matrix(0.6948 -0.7192 0.7192 0.6948 34.108 195.1904)" class="st5" cx="247" cy="57.4" rx="4.5" ry="3.1"/>
<ellipse transform="matrix(0.6948 -0.7192 0.7192 0.6948 34.1083 195.1909)" class="st7" cx="247" cy="57.4" rx="4.5" ry="3.1"/>
<polyline class="st7" points="217.8,51.1 220.6,22.3 234.4,24.9 232.9,47.9 "/>
<line class="st7" x1="233.6" y1="35.7" x2="219.6" y2="33"/>
<path class="st7" d="M250.9,56.5l5-29c1,6.3,9.1,10.1,3.1,18.8"/>
<polyline class="st7" points="267.2,78.7 275.6,45 299.2,47.9 294.1,74.2 "/>
<line class="st7" x1="282.4" y1="71.3" x2="287.4" y2="46.5"/>
<line class="st7" x1="285.9" y1="53.8" x2="297.9" y2="55.3"/>
<path class="st0" d="M230.6,329.9c-5.6,4.2-9.1,9.3-9.1,16.8v0.9C221.4,347.9,234.6,342.1,230.6,329.9z"/>
<path class="st2" d="M238.6,332.8c-4.8,4.4-2,16.1,5.6,20.5l0.4,0.8C244.9,354.3,249.9,335.3,238.6,332.8z"/>
<path class="st2" d="M353.9,329c0.7,6.5,11.7,11.3,19.8,7.9l0.9,0.1C374.9,337,362.8,321.6,353.9,329z"/>
<path class="st0" d="M350.4,331.9c-3.5,2.8-2.1,11,3,14.4l0.3,0.5C353.6,347,357.9,334.1,350.4,331.9z"/>
<path class="st8" d="M244.2,272.4c-2.6,4.6-1.8,8,0.9,10.4c2.8,2.4,5.1,0.9,2.5,4.7c-8.6,12.2,7.3,20.2,13.9,15.4c0,0,1.6,3.2,4.6,5
	c4.6,2.8,8.4,1.8,9.5,1.1"/>
</svg>
