<?xml version="1.0" encoding="utf-8"?>
<!-- Generator: Adobe Illustrator 21.1.0, SVG Export Plug-In . SVG Version: 6.00 Build 0)  -->
<svg version="1.1" id="Layer_1" xmlns="http://www.w3.org/2000/svg" xmlns:xlink="http://www.w3.org/1999/xlink" x="0px" y="0px"
	 viewBox="0 0 484 423" style="enable-background:new 0 0 484 423;" xml:space="preserve">
<style type="text/css">
	.st0{fill-rule:evenodd;clip-rule:evenodd;fill:#E2EAB6;}
	.st1{fill-rule:evenodd;clip-rule:evenodd;fill:#F0F8FD;}
	.st2{fill-rule:evenodd;clip-rule:evenodd;fill:#D3E095;}
	.st3{fill-rule:evenodd;clip-rule:evenodd;fill:#D6B36A;}
	.st4{fill-rule:evenodd;clip-rule:evenodd;fill:#CE9A41;}
	.st5{fill-rule:evenodd;clip-rule:evenodd;fill:#F7CA8F;}
	.st6{fill:none;stroke:#D1822F;stroke-width:1.7008;stroke-linecap:round;stroke-linejoin:round;stroke-miterlimit:22.9256;}
	.st7{fill-rule:evenodd;clip-rule:evenodd;fill:#A35939;}
	.st8{fill:none;stroke:#822E2D;stroke-width:1.7008;stroke-linecap:round;stroke-linejoin:round;stroke-miterlimit:22.9256;}
	.st9{fill-rule:evenodd;clip-rule:evenodd;fill:#D88F55;}
	.st10{fill-rule:evenodd;clip-rule:evenodd;fill:#3B3A39;}
	.st11{fill-rule:evenodd;clip-rule:evenodd;fill:#BD6E39;}
	.st12{fill-rule:evenodd;clip-rule:evenodd;fill:#F7C6C7;}
	.st13{fill-rule:evenodd;clip-rule:evenodd;fill:#FFFFFF;}
	.st14{fill-rule:evenodd;clip-rule:evenodd;fill:#1A1A18;}
	.st15{fill-rule:evenodd;clip-rule:evenodd;fill:#EDB581;}
	.st16{fill-rule:evenodd;clip-rule:evenodd;fill:#F3A5A6;}
	.st17{fill:none;stroke:#1A1A18;stroke-width:1.7008;stroke-linecap:round;stroke-linejoin:round;stroke-miterlimit:22.9256;}
	.st18{fill-rule:evenodd;clip-rule:evenodd;fill:#6E6E6E;}
	.st19{fill:none;stroke:#3B3A39;stroke-width:1.7008;stroke-linecap:round;stroke-linejoin:round;stroke-miterlimit:22.9256;}
	.st20{fill-rule:evenodd;clip-rule:evenodd;fill:#F5B0B4;}
	.st21{fill-rule:evenodd;clip-rule:evenodd;fill:#E08082;}
	.st22{fill-rule:evenodd;clip-rule:evenodd;fill:#CA6C32;}
	.st23{fill-rule:evenodd;clip-rule:evenodd;fill:#A24B2A;}
	.st24{fill:none;stroke:#783529;stroke-width:1.7008;stroke-linecap:round;stroke-linejoin:round;stroke-miterlimit:22.9256;}
	.st25{fill-rule:evenodd;clip-rule:evenodd;fill:#E29769;}
	.st26{fill-rule:evenodd;clip-rule:evenodd;fill:#F9D4D2;}
	.st27{fill-rule:evenodd;clip-rule:evenodd;fill:#D8D9D9;}
	.st28{fill-rule:evenodd;clip-rule:evenodd;fill:#C5C5C6;}
	.st29{fill-rule:evenodd;clip-rule:evenodd;fill:#ECECEC;}
	.st30{fill:none;stroke:#868685;stroke-width:1.7008;stroke-linecap:round;stroke-linejoin:round;stroke-miterlimit:22.9256;}
	.st31{fill:none;stroke:#C5C5C6;stroke-width:1.7008;stroke-linecap:round;stroke-linejoin:round;stroke-miterlimit:22.9256;}
	.st32{fill:none;stroke:#6E6E6E;stroke-width:1.7008;stroke-linecap:round;stroke-linejoin:round;stroke-miterlimit:22.9256;}
	.st33{fill:none;stroke:#FFFFFF;stroke-width:1.7009;stroke-linecap:round;stroke-linejoin:round;stroke-miterlimit:22.9256;}
	.st34{fill:none;stroke:#FFFFFF;stroke-width:1.7008;stroke-linecap:round;stroke-linejoin:round;stroke-miterlimit:22.9256;}
	.st35{fill:none;stroke:#E30045;stroke-width:8.5039;stroke-linecap:round;stroke-linejoin:round;stroke-miterlimit:22.9256;}
	.st36{fill:none;stroke:#E2EAB6;stroke-width:1.7008;stroke-linecap:round;stroke-linejoin:round;stroke-miterlimit:22.9256;}
</style>
<path class="st0" d="M136.6,423c22.9,0,41.6-4.6,41.6-10.2c0-5.6-18.7-10.2-41.6-10.2c-22.9,0-41.6,4.7-41.6,10.3
	C95.1,418.5,113.8,423,136.6,423z"/>
<path class="st1" d="M206.9,13.9c-39.6,24.2-0.3,55.3-28.5,78c-22.4,18-47.8,5.1-98.7,57.1c-59.4,60.7-18.9,187.1,66.2,230.4
	c54.1,27.5,120.6,32.7,156.5,9.9c24.2-15.4,3-37.5,48.4-37.5c43.4,0,98.3-15.2,110.9-72.1C488.9,157.1,322.4-56.5,206.9,13.9z"/>
<path class="st2" d="M378.6,297.5l-2.7-24.7l-115.3-20.1l-52.6,8.3c-13.7,8.3-18.2,20-13.4,35.3c1,6.1,4.5,9.9,11.2,9.1
	c3.9-0.5,3.8,0.5,4.1,7.6c0.7,17.1,24.9,12.2,25.9,8.6c-1.1,2.5,2.8,11.1,9.7,4.1c0.7-0.7-1.6,14.3,9.5,15.1c5.1,0.4,8.5-3.9,9.8-7
	c0.9-2,2.8,0.9,3.6,3c2.2,6.2,10.2,7.1,13.2,1.5c0,0,7.3,13.6,24.3,8.6c12.8-3.7,15.8-17.7,15.8-17.7c2.9,4.6,9.9,7.5,14.7,6
	c4.9-1.5,7.9-6.7,5.5-11.7C341.2,322.3,367.9,326.8,378.6,297.5z"/>
<path class="st0" d="M166.6,195.8l41.6,65.3l146.8-2.1l-35-148.5c3.6-8.5-22.5-16.3-35.5-2.4c-2,2.1-5.7,7.7-5.4,4.4
	c0.7-6.4-3.5-14-9-16.1c-10.2-3.7-8.7,15.7-8.8,14.9c-0.2-1.4-5.7-6.1-9.2-3.2c-4,3.2-3.3,7.6-3,10.7c0.9,7.8-6.3,1.6-8.6,4.8
	c-3.4,4.8-4.2,15-6,22.5c-0.5-4.3-3.7-33.8-10.9-34c-17.8-0.4-19.1,24.3-19.4,24.4c-0.6,0.1-0.6-4.5-3.1-7.6
	c-4.2-5.2-14.9,3.1-10.2,11.5c2.1,3.7-0.2,3.7-3.1,1.2c-5-4.4-16.9-11.4-20.8,0.7c-1.9,6.1,3.3,18.4,7.7,22.1
	C140.4,167.1,152.9,185.9,166.6,195.8z"/>
<path class="st2" d="M215.2,219.7l21.1,36.9L353.6,243l19-101.1c4-8.3-21.7-17.4-35.3-4.1c-2.1,2-6.1,7.4-5.6,4.1
	c1-6.4-2.8-6.1-8.2-8.5c-10-4.3-9.4,15.2-9.5,14.5c-0.1-1.4-5.4-6.4-9.1-3.7c-4.1,3-3.7,7.4-3.5,10.5c0.5,7.9-6.4-6.8-8.8-3.7
	c-3.6,4.6-4.9,14.8-7.1,22.2c-1.5-24.1-7.6-33.4-14.8-34c-11.5-0.9-14.7,22.9-15.1,22.9c-0.6,0.1-0.4-3.1-3.6-5.2
	c-6-4-17.9,4.6-11.2,12.1c2.7,3-0.4,3.6-3.2,1c-4.8-4.6-15.9-6.8-20.8-0.3c-4.1,5.5,1.8,16.9,5.9,20.9
	C188.6,191.8,202.1,209.2,215.2,219.7z"/>
<path class="st3" d="M248.6,284.8c-2.5,5.5-3.4,9.3-2.6,13.2c75.6-23,132.2,14.1,195.7,21.2c8.1-0.4,15.7-14.4,19.4-36.5
	c-52.1-5.5-85.2-25.4-134-36.5c-28.6-6.5-98.8-6.9-136.9,0.1l-30.2-3.6l-2.8,12.3l32.5,9c35.4-5.6,128.9-0.8,87.8,12.6
	C267.6,279.7,257.2,280.6,248.6,284.8z"/>
<path class="st4" d="M332.4,274.2c20.1,6.3,91.3,7.4,77.4-2.2c-44.4-12.4-34-14.8-82.8-25.9c-28.6-6.5-0.5-11.4-38.5-4.4
	C266.2,254.4,301.6,267.5,332.4,274.2z"/>
<path class="st5" d="M354.9,258.9l14.8-5.5l10.2,9.9c-5.2,4.5-3.1,13.1-4.6,19.7c-2,4-9.5,5-11-1c-2.4,5.4-12.3,5.9-12.3-3.3
	c-3.1,3.7-8.8,0.6-7.9-4.7C344.6,267.8,350.1,261.1,354.9,258.9z"/>
<path class="st6" d="M358.8,266.3c-3.2,2.9-5.5,7.1-6.8,12.6c-3.1,3.7-8.8,0.6-7.9-4.7c0.5-6.4,6.1-13.1,10.8-15.3"/>
<path class="st6" d="M371.8,267c-4.6,3.4-6.8,8.6-7.5,15.1c-2,7.4-13.6,4.6-12.3-3.3"/>
<path class="st6" d="M364.2,282.1c0.2,4.6,9.5,5.5,11,1c1.2-6.6-0.8-13.5,4.6-19.7"/>
<path class="st5" d="M312.1,250.1l14.8-5.5l10.2,9.9c-5.2,4.5-3.1,13.1-4.6,19.7c-2,4-9.5,5-11-1c-2.4,5.4-12.3,5.9-12.3-3.3
	c-3.1,3.7-8.8,0.6-7.9-4.7C301.9,258.9,307.4,252.2,312.1,250.1z"/>
<path class="st6" d="M315.9,257.4c-3.2,2.9-5.5,7.1-6.8,12.6c-3.1,3.7-8.8,0.6-7.9-4.7c0.5-6.4,6.1-13.1,10.8-15.3"/>
<path class="st6" d="M328.9,258.2c-4.6,3.4-6.8,8.6-7.5,15.1c-2,7.4-13.6,4.6-12.3-3.3"/>
<path class="st6" d="M321.4,273.3c0.2,4.6,9.5,5.5,11,1c1.2-6.6-0.8-13.5,4.6-19.7"/>
<path class="st7" d="M262.2,206.8l27.2-15.8l17.6-50.3C279.4,150.2,256.1,173.6,262.2,206.8z"/>
<path class="st7" d="M350.6,256.4l29.2-16.6l27.4,12.4C399.4,267.9,363.6,270.1,350.6,256.4z"/>
<path class="st8" d="M407.2,252.2c-6.5,8.8-31.3,23.7-56.6,4.2"/>
<path class="st9" d="M299.2,190.6l39.7,32l40.5-66.4l-60.7-22.9C297.9,142.3,286.8,166.6,299.2,190.6z"/>
<path class="st8" d="M318.8,133.2c-20.9,9.1-31.9,33.4-19.5,57.4"/>
<path class="st7" d="M172.2,295.5l44.8-23.5c-11.3,16.1-23.3,29.5-40.6,32.6L172.2,295.5z"/>
<path class="st10" d="M233.9,242.7c17.3-2.6,17.2-20.9-2.2-23.9C218.9,224.3,221.9,241.4,233.9,242.7z"/>
<path class="st11" d="M173.1,298.8c16.2-1.1,27.6-16.4,41.9-22.9l4.1-7.7c-14.9-5.6-25.5,17.5-48.4,15.6l-56.2-7.7l-5.7,17.1
	c-9.1-3.3-17.1-8.7-23.7-17.1c1.3-7.8-12.2-9.3-11.2-3.5c-4.1,7.4-2.3,12.7,5.5,15.7l29.4,30.1l7.1,45.8l5.7,50
	c9.2,6.9,15.9,9.1,19.3,4.4c4.6-3.6,3.4-8-3.7-13.1c-5.2-15,6.3-25.5,9.5-38.3h7.8l8.2,34.6c1.4,8.6,5.5,12.3,12.3,11.1l3.5-0.4
	l3.8-2.5c4.2-4.2,3.4-8.3-2.5-12.3c-3.2-3.3-4-9-2.5-17.1l5.4-30.8c7-13.2,6-27.1-1-36.8C179.4,308.8,177.9,307.6,173.1,298.8z"/>
<path class="st7" d="M180.9,353.8c-5.1,7.4-11.4,15.3-18.4,18.8c1.4,12-3.7,36.9,12.4,40.4c-22.4-0.3-14.9-31-20.5-45.8
	C165.6,366.3,174.6,360.2,180.9,353.8z"/>
<path class="st7" d="M129.4,302.2c6.9,0.8,19.3,2,26.6,5.8l-36.1-30.7l-10.5-2.3l-0.5,18.2l4.3,1.5c-7.3,9.7-17,8.7-30.3-7.8
	l-1.6,0.7l-1.8,0.8c6.7,13.7,16.5,23.7,29.4,30.1l1.5,40.1c2.7,28.5,6.5,48.7,12,56.9c2.5,4.9,6.4,6.8,11.7,5.7l3.7-0.4l3.1-2.1
	c-1.6,1-5,2.3-6.5,0c-20.6-7.5-7.3-45.9-8.3-61.3c19.1,14.8,45.2,13.5,55.3-6.1c-8.5,7.6-18.9,11-30.7,9.4
	C123.1,354.6,122.8,319.9,129.4,302.2z"/>
<path class="st7" d="M99.9,231.3l-34.2-48.2l-42.6,5.6c-15.4,23.7-6.2,49.3,17.4,63.2c20.6,11.2,44.6,9,64.3-5.4L99.9,231.3z"/>
<path class="st11" d="M140.1,171.1c-15.1-8.1-25.7-16.8-29.9-26.6c-4.8,6.4-6,14.8-5.6,24.1c-3.3-7.2-5.5-15.2-5.6-25
	c-7.8,7.6-7.6,21.3-1.9,39.1c-32.7-25-75.8-10.9-81,23.8c27-42,55.3-1.7,73.4-8.7l6.8,54.2l125.7-3l12-6.2
	c-13.1-2.5-13.8-20-2.2-23.9c-18-11.4-36.4-22-55.4-31.8L140.1,171.1z"/>
<path class="st9" d="M150.9,225.9c-18.1-5.3-30.3,1.3-39.3,10.3L96.2,252c2.8,14.5,7.1,25.7,12.7,33.6c41.5-3.5,88.5-22.6,125-42.8
	C202.8,250.8,173.4,232.7,150.9,225.9z"/>
<path class="st9" d="M165.9,273l-18.4,4.8l-22,5.6c-0.6,14.2,10.7,11,35.5,27.9C171.9,301.2,176.6,289.2,165.9,273z"/>
<path class="st7" d="M120.6,118.6c-34.7-10-53.6,19.7-45,53.1c6.8,0.6,13.8,6.3,21.5,11.1c-6.7-16.9-6.1-29.9,1.9-39.1
	c0.1,10.4,2.4,18.3,5.6,25c-1.3-8.1,0.6-16.1,5.6-24.1c4.6,9.3,15.2,18.1,29.9,26.6C151.9,146.1,138.4,124.6,120.6,118.6z"/>
<path class="st12" d="M89.4,197.8c-17,4-38.1-16.7-50.9,11.9c-6.8,22.7,19.7,55.1,56.6,34L89.4,197.8z"/>
<path class="st7" d="M110.2,358.5l-0.6-9.8c-67.6,7.9-72.7,54.4-48,65.4C43.8,398.2,48.6,365.8,110.2,358.5z"/>
<path class="st8" d="M231.8,218.8c-26.8-18.9-58.2-34.1-91.7-47.7c-14-6.7-24.5-15.3-29.9-26.6c-5.3,6.7-6.7,14.9-5.6,24.1
	c-3.6-8.6-6-17-5.6-25c-8.5,9.7-7.4,23.5-1.9,39.1c-40.1-30.4-82-2.4-81.2,29.1c1.1,36.8,42.9,59.1,80.4,40.2"/>
<path class="st8" d="M89.4,197.8c-10.2,5.5-29.5-12.9-47,4.4C28.8,216.9,45.8,268,94.8,244"/>
<path class="st8" d="M135.6,251c10.5,13.4,26.1,18.8,35.8,19.1"/>
<path class="st8" d="M136.2,246.2c-3.8,0.3-5.6,3.7-4.4,6.7"/>
<path class="st8" d="M108.9,293.2c0.1-3.5,0.1-4.2,0.2-7.7c-10.3-12.6-16.4-43.8-19.5-87.7 M127.1,420.1
	c-12.5-5.9-17.7-50.8-18.4-101.6"/>
<path class="st8" d="M109.1,285.6c36.8-6.6,83-18,126.1-43.5"/>
<path class="st8" d="M75.6,171.6c-11.6-39.6,19.4-62.3,45-53.1c20.6,7.1,31.4,31.4,19.4,52.5"/>
<path class="st13" d="M149.2,218.6l-7.8-1.8l-8-0.2c-8.5-21.5-3.5-33.7,10.7-28.1c-2.9-7.9,3.1-14.3,15.2-10.1
	c23.8,7.1,10.1,24-1,23.5C160.6,209.8,156.4,214.8,149.2,218.6z"/>
<path class="st8" d="M133.4,216.6c-8.5-21.5-3.5-33.7,10.7-28.1c-2.1-8.3,3.1-14.3,15.2-10.1c23.6,9.5,10.1,24-1,23.5
	c2.3,7.9-1.9,12.9-9,16.6"/>
<path class="st8" d="M123.9,186.1c-2.8,2.8-3.4,7.2-2.6,11.8"/>
<ellipse transform="matrix(0.9961 -8.771970e-02 8.771970e-02 0.9961 -15.8009 15.0242)" class="st14" cx="163" cy="187.3" rx="5.7" ry="5.7"/>
<ellipse transform="matrix(0.9961 -8.790290e-02 8.790290e-02 0.9961 -17.094 13.8178)" class="st14" cx="148.3" cy="201" rx="6.2" ry="6.2"/>
<ellipse transform="matrix(0.9961 -8.810797e-02 8.810797e-02 0.9961 -16.1515 14.8771)" class="st13" cx="160.4" cy="190.4" rx="2.9" ry="2.9"/>
<ellipse transform="matrix(0.9961 -8.822269e-02 8.822269e-02 0.9961 -17.4651 13.638)" class="st13" cx="145.6" cy="204.4" rx="3.1" ry="3.1"/>
<path class="st7" d="M204.9,231.6c-1.3,0.6-2,2.2-1.4,3.5c0.6,1.3,2.2,2,3.5,1.4c1.3-0.6,2-2.2,1.4-3.5
	C207.8,231.6,206.2,231,204.9,231.6z M212.4,236.5c-1.3,0.6-2,2.2-1.4,3.5c0.6,1.3,2.2,2,3.5,1.4c1.3-0.6,2-2.2,1.4-3.5
	C215.4,236.5,213.8,235.9,212.4,236.5z M213.6,227.9c-1.3,0.6-2,2.2-1.4,3.5c0.6,1.3,2.2,2,3.5,1.4c1.3-0.6,2-2.2,1.4-3.5
	C216.4,227.9,214.9,227.3,213.6,227.9z"/>
<path class="st8" d="M127.1,420.1c1.7,1,4.5,1.9,6.8,1.1c1.8,0.5,5.5-0.6,6.8-2.5c7-8.2-3.1-10.8-3.7-13.1
	c-3.7-15.7,6.3-25.5,9.5-38.3"/>
<path class="st8" d="M219.1,268.2c-3.5,10.2-24.9,35.4-43,36.5"/>
<path class="st8" d="M219.1,268.2c-16.5-4.4-20.1,15-48.1,15.7"/>
<path class="st8" d="M123.1,354.6c7.9,8.4,21.3,13,31.4,12.7c31.4-1.6,39.7-37.8,27.1-54.2c-3.3-5.4-8.6-12.1-9.4-17.7
	c0.8-7.6-2.7-16.3-6.4-22.5"/>
<path class="st8" d="M109.6,348.7c-67.6,7.9-72.7,54.4-48,65.4c-17.9-15.9-13.1-48.3,48.6-55.6"/>
<path class="st8" d="M180.9,353.8c-1.6,15.3-8.7,36-1.3,44c5.3,2.1,7.4,9.1,1.7,12.9c-1,1.7-4.3,2.6-6.5,2.3
	c-20.6,1.4-16.5-30.7-20.5-45.8"/>
<path class="st8" d="M140.9,418.7c0.1-3.3-1-5.9-3.1-7.7"/>
<path class="st8" d="M174.9,413.1c0.1-3.6-0.9-6.3-2.8-8.3"/>
<path class="st8" d="M181.4,410.7c0.1-3.6-1-6.3-3.1-8.3"/>
<path class="st8" d="M133.9,421.2c0.7-2.7,0-5.9-1.3-8.2"/>
<path class="st9" d="M142.2,373.7c-6,8.1-8.6,17.3-9,28.6C129.8,390.8,132.6,380.6,142.2,373.7z"/>
<path class="st9" d="M180.1,345.7c2.9-10,1.9-19.9-2-31.1C185.9,324.5,186.9,335.5,180.1,345.7z"/>
<path class="st15" d="M161.8,307.1c4.8-7,6.4-14.7,5.9-24.1C171.6,292.3,169.8,300.9,161.8,307.1z"/>
<path class="st15" d="M144.6,224.8c-11.9-0.3-22.2,3.7-33,11.4C119.6,224.5,131.1,220.1,144.6,224.8z"/>
<path class="st11" d="M132.2,130c-11.1-6-23-7.6-37.2-6C108.8,117.6,121.9,119.4,132.2,130z"/>
<path class="st16" d="M53.6,236.6c11.1,6,23,7.6,37.2,6C77.2,248.9,64.1,247.2,53.6,236.6z"/>
<path class="st8" d="M128.8,217.7c6.1-2.4,14.5-1.6,24.9,2.4"/>
<path class="st9" d="M180.2,196.7c5.2-0.9,36.3,15.3,40.5,22.3C208.1,213.7,194.2,206.4,180.2,196.7z"/>
<path class="st17" d="M235.1,242.1c18.2-5.1,12.5-20.5-3.5-23.2"/>
<path class="st17" d="M231.8,218.8c-12.9,5.4-9.8,22.6,2.2,23.9"/>
<path class="st8" d="M219.1,268.2c-3.9,0.4-7.8,2.4-10.5,5.2"/>
<path class="st8" d="M115.2,320.2c-12.6-3.7-24.9-11.2-35.8-31.8"/>
<polygon class="st18" points="72.8,274.5 76.6,268.8 4.4,160.5 "/>
<polyline class="st19" points="76.6,268.8 4.4,160.5 72.8,274.5 "/>
<path class="st8" d="M113.1,294.7c-8.2-2.3-20.7-9-28-18.6c0.9-7.9-10.7-8.9-11.4-5.5c-1.1,5.1,10.2,9.6,11.4,5.5"/>
<path class="st8" d="M73.9,272.5c-2.9,3.3-4.4,15.3,5.5,15.8c3,0.4,5.2-3.1,3.2-5.1c2.5-0.9,1.4-5.3-0.9-5.7"/>
<path class="st7" d="M402.6,236.9l0.2-21c5,2.1,10.7,3.6,17,4.5C415.1,227.6,409.4,233.1,402.6,236.9z"/>
<path class="st11" d="M406.9,234.2l5.3-4.5l7.6-9.3l-13.7-3.3c11.6-2,27-24.7,50.5-53.4c0.2,8.3-0.9,18.3,2.1,24.5
	c4,3.7,12.1,5.2,24.5,4.6C471.4,217.6,428.1,242.6,406.9,234.2z"/>
<path class="st7" d="M406.9,234.2l5.3-4.5l7.6-9.3l-13.7-3.3c11.6-2,10.6-4.1,34-32.8c-6.8,8.4-10.2,25.5-3.7,29.7
	c4,3.7,27.4,1.7,46.7-21.2C471.4,217.6,428.1,242.6,406.9,234.2z"/>
<path class="st8" d="M406.1,217.2c11.6-2,27-24.7,50.5-53.4c0.2,8.3-0.9,18.3,2.1,24.5c4,3.7,12.1,5.2,24.5,4.6
	c-11.6,24.7-54.9,49.7-76.3,41.3"/>
<path class="st8" d="M402.8,215.9c5,2.1,10.7,3.6,17,4.5c-4.7,7.2-10.4,12.6-17.2,16.5"/>
<path class="st8" d="M415.9,219.8c9.2-5.4,17.9-12.7,26.1-21.9"/>
<path class="st8" d="M416.4,225.1c9-0.1,20-5.5,33-15.9"/>
<path class="st8" d="M338.4,170.8c-2.9,1.5-6.5-0.2-6.8-3.5 M320.2,167.1c-2.3,0.6-4.5-1.1-4.3-3.5 M310.9,155.6
	c-1.7,0.5-3.4-0.8-3.2-2.6 M302.6,176.8c-1.6,0.8-3.5-0.1-3.7-1.9 M311.8,188.1c-2.1,1.1-4.6-0.1-4.9-2.6 M308.1,202.6
	c-1.6,0.8-3.5-0.1-3.7-1.9"/>
<path class="st15" d="M296.9,172.9c2.7-12,8.4-22.5,17.9-33.3C301.6,147.7,296.1,158.9,296.9,172.9z"/>
<path class="st9" d="M474.1,196.4c-12.4,0-18.9-3.8-21.3-15.3C451.6,195.8,457.9,200.4,474.1,196.4z"/>
<path class="st11" d="M357.4,208.6c-7-23-5.2-40.4,9.3-49.4l37.3,1.2c27.4,19.3,27.6,81.3,62.9,88
	C449.2,264.1,378.8,260.8,357.4,208.6z"/>
<path class="st7" d="M419.8,217c-16.2,28.3-43.2-28.1-30.6-53.4l8-0.9l6.7-2.2l7.8,7.2c7.3,9.5,15,27,16.7,31
	C431.8,211.3,428.1,215.4,419.8,217z"/>
<path class="st8" d="M403.9,160.4c28.3,19.6,27.6,81.3,62.9,88c-17.6,15.8-88,12.4-109.5-39.8"/>
<path class="st8" d="M381.4,239.4c8,5.2,19.2-0.5,20.2-9.7c11.5,5.7,21.1-2.7,18.1-12.7c12-0.9,10.2-13.9,7.7-20.7"/>
<path class="st8" d="M419.8,217c10.9,18.8,23.6,27.2,37.7,28.3"/>
<path class="st8" d="M401.6,229.7c13.4,16.1,32.3,24.2,52,25"/>
<path class="st11" d="M408.6,222.7c-7.8-9.1-13-20.1-16.5-34.6C391.6,204.2,397.4,215.4,408.6,222.7z"/>
<path class="st11" d="M341.1,72.6L321.4,123C303.6,101,316.1,57.8,341.1,72.6z"/>
<path class="st8" d="M321.4,123c-18.5-28.2-4.4-63.9,19.7-50.4"/>
<path class="st9" d="M324.2,124.3l51.9-16.7c32.2-1.5,47.7,16.9,49.1,31.7c-3-2.3-6-3.4-9.1-3.9
	C423.4,170.1,362.6,178.8,324.2,124.3z"/>
<path class="st11" d="M324.2,124.3l40.6,11.4c24.6,15.6,49.3-0.3,42.4-21.7c6.2,5.5,16.6,10.5,18,25.3c-3-2.3-6-3.4-9.1-3.9
	C423.4,170.1,362.6,178.8,324.2,124.3z"/>
<path class="st20" d="M329.4,106.3l36,10.1l1.6,6.6c-22.7,16.6-42.8,20.6-47.1,15.6C325.1,131.6,327.1,116.3,329.4,106.3z"/>
<path class="st21" d="M327.1,117.7l2.7-11.3l35.7,10l5,2.9c-2.4,3.7-9.2,8.4-17.2,13.2c0.8-7.4-8.7-14.8-15.8-9.8
	C338.4,115.9,330.9,113.4,327.1,117.7z"/>
<path class="st11" d="M338.9,76.8l37.2,30.6c18.9-0.7,33.5,5.2,43.6,17.6c14.8-18.9,18.7-38,3.1-57.4l1.6-16.7
	c-5.6,2.4-8.9,6.4-10,12.2l-6.4-13.3l-0.9,4.1C376.6,37.6,352.4,48.4,338.9,76.8z"/>
<path class="st7" d="M407.2,114.1l8.8,6.7l5.1,6.4c15.9-18.2,14.1-47.7,1.6-59.5l1.6-16.7c-5.6,2.4-8.9,6.4-10,12.2
	C422.4,77.7,423.1,99.1,407.2,114.1z"/>
<path class="st13" d="M388.1,108.1l-12-0.4c-0.5-7.6-2.5-14.7-7-21.3c10.5-12.4,21.1-15.5,26.4-11C399.9,79,397.8,94.1,388.1,108.1z
	"/>
<path class="st22" d="M379.8,107.5l-3.6-0.1l-1.2-8.2l-5.8-12.9c6.9-10.9,17.1-11.9,20.8-7.7C393.2,82.2,390.8,98.2,379.8,107.5z"/>
<path class="st13" d="M364.1,81.8c-5.8-3.1-12.3-4.3-19.2-4.7c8.4-15.7,19.6-20.5,24.6-16.6C373.2,63.7,370.6,73.3,364.1,81.8z"/>
<path class="st22" d="M359.8,79.7l-14.8-2.6l4.8-5.8c3.9-8.1,11.9-10.6,15.7-7.4C368.6,66.5,365.1,75.9,359.8,79.7z"/>
<path class="st22" d="M376.1,107.6c-1.4-19.4-10.8-30.8-32-30.5L308.6,75c5.1,22.6,33.5,49.3,61.8,44.2l-6.9,14
	C380.9,135.7,387.2,117.7,376.1,107.6z"/>
<path class="st23" d="M320.1,145.1c7.9,6.6,29.3-3.4,43.5-11.9c14-1.2,13-16.6,4.8-16.9l2.1,2.9l-3.4,3.7
	c-24.6,18-39.1,19.5-44.1,17.4c-3-1.8,3.6-18.2,6.5-34l-4-3.4C323.6,120,313.6,141.7,320.1,145.1z"/>
<path class="st8" d="M407.4,64.1c-1-4.5-0.8-9.3,0.7-14.3c1.7,5.4,3.8,9.8,6.3,13.4c1.6-6.3,4.9-10.4,10-12.2
	c-1.5,5.2-1.9,10.8-1.6,16.7c12.9,11.9,14,40.3-1.6,59.5"/>
<path class="st8" d="M407.1,53.9c-30.7-16.2-54.8-5.5-68.2,23"/>
<path class="st24" d="M368.4,116.4c2,1,3.1,4.4,1.9,6.5"/>
<path class="st8" d="M369.1,86.4c10.5-12.4,21.1-15.5,26.4-11c4.3,3.7,2.2,18.8-7.4,32.7"/>
<ellipse transform="matrix(4.826534e-02 -0.9988 0.9988 4.826534e-02 278.5564 460.2987)" class="st14" cx="380.8" cy="84" rx="5.5" ry="5.5"/>
<ellipse transform="matrix(4.818201e-02 -0.9988 0.9988 4.818201e-02 273.2998 423.176)" class="st14" cx="358.7" cy="68.2" rx="4.7" ry="4.7"/>
<ellipse transform="matrix(4.791721e-02 -0.9989 0.9989 4.791721e-02 274.4182 466.5112)" class="st13" cx="381.9" cy="89.3" rx="3.1" ry="3.1"/>
<ellipse transform="matrix(4.850520e-02 -0.9988 0.9988 4.850520e-02 269.4896 428.4452)" class="st13" cx="359.6" cy="72.8" rx="2.7" ry="2.7"/>
<ellipse transform="matrix(4.810444e-02 -0.9988 0.9988 4.810444e-02 264.6386 479.9129)" class="st13" cx="384.1" cy="101.1" rx="2.6" ry="2.6"/>
<path class="st8" d="M402.9,75c1.6,2,3,6.5,2.6,9.8"/>
<path class="st8" d="M368.4,55.4c2.7-0.3,5.9,0.9,6.2,4.6"/>
<path class="st8" d="M344.9,77.1c8.4-15.7,19.6-20.5,24.6-16.6c3.6,3.1,1.1,12.7-5.5,21.2"/>
<path class="st24" d="M308.6,75.1c10.3,34.1,44.9,48.8,61.8,44.2"/>
<path class="st8" d="M376.1,107.6c32.2-1.5,47.7,16.9,49.1,31.7c-3-2.3-6-3.4-9.1-3.9c6.2,29.8-37.2,40.9-74.1,8.7"/>
<path class="st24" d="M363.6,133.3c15.5,1.6,24.4-12.9,12.6-25.7c-1.6-21.7-11.7-30.1-29.7-30.4L308.6,75"/>
<ellipse transform="matrix(4.829727e-02 -0.9988 0.9988 4.829727e-02 245.4193 447.1704)" class="st23" cx="357.4" cy="94.8" rx="3.8" ry="3.8"/>
<path class="st25" d="M347.6,80c9.6,2.7,17.9,8,24,16.8C368.4,85.4,359.4,79.6,347.6,80z"/>
<path class="st26" d="M325.9,130.1c0.3,6.4,4,6.8,16.1,3.9C325.1,141,323.9,138.5,325.9,130.1z"/>
<path class="st9" d="M373.4,154.8c9.2,3.5,28.7,1.5,37-4.5C402.4,163,382.6,162.1,373.4,154.8z"/>
<path class="st9" d="M364.1,53c10.2-2.5,20.4-1.8,32,2.1C385.4,46.9,374.6,46.6,364.1,53z"/>
<path class="st24" d="M367.1,122.9c-16,14.2-40.3,20.5-44.1,17.4c-3-1.8,4.1-24,6.5-34"/>
<path class="st27" d="M321.4,268.4v-80.1c1.8-33-47-35.7-52.3-5.4l3.7,43.7l3.9,27.3C288.1,239.4,308.9,243.2,321.4,268.4z"/>
<path class="st28" d="M321.4,268.4v-80.1c1.8-33-47-35.7-52.3-5.4l3.7,43.7l3.9,27.3C288.1,239.4,308.9,243.2,321.4,268.4z"/>
<path class="st24" d="M363.6,133.3c-24.4,15-37.8,15-43.1,12.1c-5.6-3.1,0.1-15.7,5-42.7"/>
<path class="st29" d="M321.4,188.3v80.1c12.7-9.9,33.3-15.4,54.6-11.8l17.9-77C366.4,173.6,341.8,175.4,321.4,188.3z"/>
<path class="st30" d="M321.4,188.3v80.1c12.7-9.9,33.3-15.4,54.6-11.8l17.9-77C366.4,173.6,341.8,175.4,321.4,188.3z"/>
<path class="st31" d="M348.9,225.1c0-8.3,13.8-9,13.8,0.5c0,4.9-4.8,8.9-9.4,8.9c-5.4-0.1-9.6-3.6-10-9.5
	c-0.7-9.4,16.3-16,18.5-22.8c3.8-11.5-6.9-17.6-7.6-6.6c-0.6,9.3-0.6,24.4-0.3,34.3c0.1,4.4,0.6,10.6-0.2,13c-1.1,3.6-6.2,4-7.5,0"
	/>
<path class="st32" d="M269.1,182.8c5.8-30.6,52-28,52.3,5.4"/>
<path class="st11" d="M264.8,177.6c53.1,53.4,41.2,55.9,20.3,43.6c4.1,2.7,10.8,10.1,9.5,12C291.4,240.1,248.4,225.3,264.8,177.6z"
	/>
<path class="st8" d="M269.1,182.8c46.3,44.8,44.7,58.9-0.7,27.4"/>
<path class="st32" d="M272.9,226.6l3.9,27.3c11.3-14.5,32.1-10.8,44.7,14.4"/>
<path class="st8" d="M285.1,221.2c4.1,2.7,10.8,10.1,9.5,12c-2.7,5.7-31.7-4.6-32.7-28.1"/>
<path class="st8" d="M307.1,140.7c-27.7,9.5-50.9,32.9-44.8,66.1"/>
<ellipse transform="matrix(0.6453 -0.764 0.764 0.6453 35.3857 181.8089)" class="st13" cx="213.5" cy="52.8" rx="5.2" ry="3.6"/>
<ellipse transform="matrix(0.6453 -0.764 0.764 0.6453 35.3857 181.8089)" class="st33" cx="213.5" cy="52.8" rx="5.2" ry="3.6"/>
<ellipse transform="matrix(0.6454 -0.7639 0.7639 0.6454 43.89 192.4619)" class="st13" cx="229.2" cy="49" rx="4.5" ry="3.1"/>
<ellipse transform="matrix(0.6454 -0.7639 0.7639 0.6454 43.89 192.4619)" class="st33" cx="229.2" cy="49" rx="4.5" ry="3.1"/>
<ellipse transform="matrix(0.6949 -0.7191 0.7191 0.6949 22.4675 214.0291)" class="st13" cx="263.5" cy="80.5" rx="4.5" ry="3.1"/>
<ellipse transform="matrix(0.6949 -0.7191 0.7191 0.6949 22.4669 214.0279)" class="st34" cx="263.5" cy="80.5" rx="4.5" ry="3.1"/>
<ellipse transform="matrix(0.6948 -0.7192 0.7192 0.6948 33.0797 222.4548)" class="st13" cx="278.6" cy="72.3" rx="4.5" ry="3.1"/>
<ellipse transform="matrix(0.6948 -0.7192 0.7192 0.6948 33.0797 222.4548)" class="st34" cx="278.6" cy="72.3" rx="4.5" ry="3.1"/>
<ellipse transform="matrix(0.6948 -0.7192 0.7192 0.6948 34.7806 231.6584)" class="st13" cx="290.3" cy="74.8" rx="4.5" ry="3.1"/>
<ellipse transform="matrix(0.6948 -0.7192 0.7192 0.6948 34.7803 231.6578)" class="st34" cx="290.3" cy="74.8" rx="4.5" ry="3.1"/>
<ellipse transform="matrix(0.6948 -0.7192 0.7192 0.6948 34.108 195.1904)" class="st13" cx="247" cy="57.4" rx="4.5" ry="3.1"/>
<ellipse transform="matrix(0.6948 -0.7192 0.7192 0.6948 34.1083 195.1909)" class="st34" cx="247" cy="57.4" rx="4.5" ry="3.1"/>
<polyline class="st34" points="217.8,51.1 220.6,22.3 234.4,24.9 232.9,47.9 "/>
<line class="st34" x1="233.6" y1="35.7" x2="219.6" y2="33"/>
<path class="st34" d="M250.9,56.5l5-29c1,6.3,9.1,10.1,3.1,18.8"/>
<polyline class="st34" points="267.2,78.7 275.6,45 299.2,47.9 294.1,74.2 "/>
<line class="st34" x1="282.4" y1="71.3" x2="287.4" y2="46.5"/>
<line class="st34" x1="285.9" y1="53.8" x2="297.9" y2="55.3"/>
<path class="st9" d="M271.8,192.2c7.2,9.3,19.2,20.5,27,27.7C295.1,210.9,280.1,195.8,271.8,192.2z"/>
<path class="st35" d="M269.1,182.8c5.8-30.6,52-28,52.3,5.4v80.1c13.5-8.8,35.7-15.6,54.6-11.8"/>
<line class="st35" x1="72.8" y1="274.5" x2="4.4" y2="160.5"/>
<path class="st0" d="M230.6,329.9c-5.6,4.2-9.1,9.3-9.1,16.8v0.9C221.4,347.9,234.6,342.1,230.6,329.9z"/>
<path class="st2" d="M238.6,332.8c-4.8,4.4-2,16.1,5.6,20.5l0.4,0.8C244.9,354.3,249.9,335.3,238.6,332.8z"/>
<path class="st2" d="M353.9,329c0.7,6.5,11.7,11.3,19.8,7.9l0.9,0.1C374.9,337,362.8,321.6,353.9,329z"/>
<path class="st0" d="M350.4,331.9c-3.5,2.8-2.1,11,3,14.4l0.3,0.5C353.6,347,357.9,334.1,350.4,331.9z"/>
<path class="st36" d="M244.2,272.4c-2.6,4.6-1.8,8,0.9,10.4c2.8,2.4,5.1,0.9,2.5,4.7c-8.6,12.2,7.3,20.2,13.9,15.4
	c0,0,1.6,3.2,4.6,5c4.6,2.8,8.4,1.8,9.5,1.1"/>
</svg>
