<?xml version="1.0" encoding="utf-8"?>
<!-- Generator: Adobe Illustrator 21.1.0, SVG Export Plug-In . SVG Version: 6.00 Build 0)  -->
<svg version="1.1" id="Layer_1" xmlns="http://www.w3.org/2000/svg" xmlns:xlink="http://www.w3.org/1999/xlink" x="0px" y="0px"
	 viewBox="0 0 497 474" style="enable-background:new 0 0 497 474;" xml:space="preserve">
<style type="text/css">
	.st0{fill-rule:evenodd;clip-rule:evenodd;fill:#626261;}
	.st1{fill-rule:evenodd;clip-rule:evenodd;fill:#F1C078;}
	.st2{fill:none;stroke:#D1822F;stroke-width:1.6994;stroke-linecap:round;stroke-linejoin:round;stroke-miterlimit:22.9256;}
	.st3{fill-rule:evenodd;clip-rule:evenodd;fill:#3B3A39;}
	.st4{fill-rule:evenodd;clip-rule:evenodd;fill:#9B9B9B;}
	.st5{fill-rule:evenodd;clip-rule:evenodd;fill:#FFFFFF;}
	.st6{fill-rule:evenodd;clip-rule:evenodd;fill:#CA6C32;}
	.st7{fill-rule:evenodd;clip-rule:evenodd;fill:#A24B2A;}
	.st8{fill:none;stroke:#1A1A18;stroke-width:1.6994;stroke-linecap:round;stroke-linejoin:round;stroke-miterlimit:22.9256;}
	.st9{fill:none;stroke:#783529;stroke-width:1.6994;stroke-linecap:round;stroke-linejoin:round;stroke-miterlimit:22.9256;}
	.st10{fill-rule:evenodd;clip-rule:evenodd;fill:#1A1A18;}
	.st11{fill-rule:evenodd;clip-rule:evenodd;fill:#E29769;}
	.st12{fill-rule:evenodd;clip-rule:evenodd;fill:#C5C5C6;}
</style>
<path class="st0" d="M131.2,188.1l9.3-32.6l-16.1-11.4l-43,6.9c-7.6,6.6-12.6,14.9-16.8,23.2c-6.8-6.3-14.6-13.8-23.3-21.9
	c0.9,7.5,3.2,16.3,1.3,22.3c-3.1,3.8-10.2,6.3-21.4,7.2c5.5,8.4,15.8,16.2,27.2,21.8c-4.9,5.7-11.2,9.6-20.6,10.4
	C42.1,229.6,107.6,232.3,131.2,188.1z"/>
<path class="st1" d="M94.3,228.4h46.2c7.8,3.7,7.5,11.6,0.2,13.7c-2.6,3.1-5.4,3.8-8.4,2.1c-2.5,3.7-6.8,4.2-12.9,1.7
	c-1.9,2.5-4,4.5-7.2,4.1c-2,3.9-7.2,4.9-10.5-1.4C86.3,246.8,96.8,235.1,94.3,228.4z"/>
<path class="st2" d="M114.7,231.4c8.9,8.1,6.6,18.3-1.7,18.7"/>
<path class="st2" d="M101.8,248.4c-15.5-1.6-5-13.4-7.5-20.1"/>
<path class="st3" d="M186.6,171.5l-33.1-45.9l8.1-8.6C181.3,118.7,199.5,144.5,186.6,171.5z"/>
<path class="st3" d="M72.3,190.5c11.8,26.5,41.2-21.5,28.3-40.8l-9.4-1.5l-7.2-1.8c-7.3,7.7-16.8,22.8-18.6,26.1
	c-0.2,0.6-0.4,1.2-0.6,1.8l-6.1-5.7c7.2,6.7,1.1,16.1-2.6,23.3c-3.1,3.8-14.6,7.9-34.9-10.1c5.9,7.7,14,15.1,27.2,21.8l7.7-11.7
	l8.4-16.4C62.1,184.4,65.7,188.5,72.3,190.5z"/>
<path class="st0" d="M118,145.3l18.8-20.2c59.5-9,78.7,96.8-12.2,105.7c-17.2,0.2-27.6-3.1-41.5-8.8c26.1-7.6,34.3-18.6,43.7-31
	C142.2,170,141.4,152.8,118,145.3z"/>
<path class="st3" d="M92,219.4c20.7,8.4,49.7,6.2,69.9-0.6c-7.7,5.5-19.6,9.7-37.4,12.1c-18,1.8-32.1-0.9-41.5-8.8L92,219.4z"/>
<path class="st4" d="M118,145.3l10.3-9.5l8.5-10.7c62.2-9.2,80.3,100.8-34,90.3c12.3-8.1,20.5-17.2,26.2-26.9
	C134.4,172,129.6,152.8,118,145.3z"/>
<path class="st2" d="M140.5,228.4c8.1,3.6,6.2,12,0.5,13.6"/>
<path class="st2" d="M127,234.2c6.5,1.1,6.8,7.7,5.3,10c11.2,4.4,13.2-12.2,2.3-12"/>
<path class="st4" d="M142.7,137l-34.1-30.8C84.3,94,66,102.8,60,113.6c3.1-0.8,5.8-0.6,8.3,0.1C50.7,137.9,94.3,165.6,142.7,137z"/>
<path class="st0" d="M142.7,137l-35.2-5.2c-24.3,3.5-37.8-17.3-25.1-31.3c-6.7,2.1-16.4,2.3-22.6,13.2c3.1-0.8,5.8-0.6,8.3,0.1
	C50.7,137.9,94.3,165.6,142.7,137z"/>
<path class="st0" d="M147.8,95.5l-39.2,10.7c-14.3-7.1-27.5-7.6-39.6-1.5C64.1,85,67.7,69,86.5,59.5L91,46.1c3.5,3.8,4.6,8,3.5,12.8
	l9.5-8.1l-0.7,3.4C132.5,52.3,147.4,69,147.8,95.5z"/>
<path class="st3" d="M82.4,100.5L69,104.7c-5.9-19.5,3.8-40.5,17.5-45.2L91,46.1c3.5,3.8,4.6,8,3.5,12.8
	C83.3,67.3,75.4,83.5,82.4,100.5z"/>
<path class="st5" d="M99.1,102.5l9.4,3.8c3-5.7,7-10.5,12.7-14c-3.8-13.2-10.9-19.2-16.5-17.6C100.2,76.1,96.6,88.4,99.1,102.5z"/>
<path class="st6" d="M105.8,105l2.8,1.2l3.8-5.9l6.7-6.4c-1.6-10.7-6.7-14.9-11.6-13.5C103.6,81.5,99.4,94.1,105.8,105z"/>
<path class="st5" d="M126.7,90.6c5.5-0.4,11,1,16.3,3c-1-15-8-22.6-13.2-21.3C126,73.5,124.6,81.8,126.7,90.6z"/>
<path class="st6" d="M130.8,90.5l12.3,3.1l-1.7-6.1c-1.4-7.2-5.5-12.2-9.5-11.1C128.6,77.3,128.1,85.7,130.8,90.5z"/>
<path class="st6" d="M108.5,106.3c7.8-14.4,18.9-19.9,35.1-12.4l30.7,11.7c-10.9,14-20.5,25.7-31.6,31.5c-9.7,6.7-26.8,2.2-35.2-5.2
	C93.3,127.6,96.5,110.2,108.5,106.3z"/>
<path class="st7" d="M174.3,105.6c-10.9,14-20.5,25.7-31.6,31.5c-10.3,6.2-22,4.5-35.2-5.2c-8.3-6.6-2.6-21.6,8.9-16.6
	C114.5,129.6,160,122.8,174.3,105.6z"/>
<path class="st8" d="M99.3,72c-1.9,1-4.6,4-5.4,6.6 M132.6,68.8c-2-1.2-4.8-1.3-6.4,1.4 M143.1,93.6c-1-15-8-22.6-13.2-21.3
	c-3.9,1.1-5.3,9.4-3.1,18.2 M121.3,92.3c-3.8-13.2-10.9-19.2-16.5-17.6c-4.6,1.3-8.2,13.7-5.6,27.7 M108.5,106.3
	c-24.3-12.3-42.6-3.5-48.7,7.4c3.1-0.7,5.8-0.6,8.3,0.1c-17.6,24.1,26.2,51.8,74.5,23.2 M99.6,62c2.3-3.1,3.8-6.9,4.4-11.2
	c-3.2,3.5-6.4,6.2-9.5,8.1c1-5.4-0.2-9.7-3.5-12.8c-0.6,4.5-2.2,9-4.5,13.4C72.3,65.9,62.6,85.1,69,104.7 M103.3,54.2
	c29.2-1.9,44.1,14.8,44.5,41.3"/>
<path class="st9" d="M116.4,115.1c-1.9,0.1-3.9,2.3-3.7,4.3"/>
<ellipse transform="matrix(0.3659 -0.9307 0.9307 0.3659 -10.3673 160.404)" class="st10" cx="112.5" cy="87.8" rx="4.6" ry="4.6"/>
<ellipse transform="matrix(0.3655 -0.9308 0.9308 0.3655 8.7797 178.9926)" class="st10" cx="135.7" cy="83.1" rx="3.9" ry="3.9"/>
<ellipse transform="matrix(0.3654 -0.9309 0.9309 0.3654 -15.426 160.3907)" class="st5" cx="109.9" cy="91.5" rx="2.7" ry="2.7"/>
<ellipse transform="matrix(0.3656 -0.9308 0.9308 0.3656 4.3128 178.8866)" class="st5" cx="133.4" cy="86.3" rx="2.3" ry="2.3"/>
<ellipse transform="matrix(0.3659 -0.9307 0.9307 0.3659 -25.2458 159.8242)" class="st5" cx="104.7" cy="98.4" rx="2.2" ry="2.2"/>
<path class="st9" d="M171,110c-21.9,13.7-45.3,16.8-53.9,10.1"/>
<ellipse transform="matrix(0.366 -0.9306 0.9306 0.366 -14.9983 183.7221)" class="st7" cx="127.3" cy="102.9" rx="3.2" ry="3.2"/>
<path class="st11" d="M140,94.9c-8.3-1.3-16.5,0-24.2,4.6C122.3,91.9,131.1,90.5,140,94.9z"/>
<path class="st4" d="M94.4,143.4c-8.3-0.5-22.6-8.8-26.9-16.2C69.3,139.7,84.8,145.9,94.4,143.4z"/>
<path class="st2" d="M109.9,237.8c9.2,10.8-2.4,21-8.2,10.7c1.6-3.5,2.3-7.2,0.9-11"/>
<path class="st2" d="M132.3,244.1c-1.3,3.4-8.4,4.2-12.7,1.8"/>
<path class="st8" d="M72.3,190.5c-11.3,15.7-23.3,21.9-35.9,21.7 M87.1,203.3c-13.3,13-30.8,18.5-48.2,17.4 M104.1,213.7
	c-7.6,3.9-16.9-2.2-17-10.4c-10.7,4-18.4-4.3-14.9-12.8c-9-1.4-10.2-10.1-7.3-16 M84,146.4C59.2,168,59.7,211.3,27.9,214
	c14.2,15.5,76.7,18.8,100.3-25.4 M164.7,117.4c18.2,4.3,34.1,28.7,22,54.1 M156.1,126.3c50.5,14.3,42,115.2-52.7,103.8
	c-5.6-0.9-13.7-3.9-20.2-8.1 M134.6,164c2.5,1.6,5.9,0.3,6.5-2.7 M151.3,162c2,0.8,4.2-0.7,4.1-2.9 M160.7,152.3
	c1.5,0.6,3.1-0.5,3.1-2.1 M166.6,172.1c1.4,0.9,3.1,0.2,3.5-1.5 M157.4,181.6c1.8,1.2,4.2,0.2,4.6-1.9 M159.7,195
	c1.4,0.9,3.1,0.2,3.5-1.5 M146.2,152.1c3.5,1.3,7.3-1.1,7.2-5 M64.9,174.5c-6.9-6.4-14.8-14-23.6-22.2c0.9,7.5,3.2,16.3,1.3,22.3
	c-3.1,3.8-10.2,6.3-21.4,7.2c5.5,8.4,15.7,16.2,27.1,21.8"/>
<path class="st9" d="M107.5,131.7c-12.5-4.1-12.4-19.8,1-25.5c8.8-16.1,19.5-19.1,33.4-13.1l32.4,12.3c-6.3,8.9-20.1,24.7-31.6,31.5
	"/>
<path class="st0" d="M81.7,196.6c7.7-7.4,13.3-16.7,17.7-29.1C98.3,181.7,92.1,191.1,81.7,196.6z"/>
<path class="st12" d="M178.9,162.8c-3.1-10.7-8.9-19.9-18-29.1C173.2,140.2,178.8,150.1,178.9,162.8z"/>
<path class="st4" d="M133.8,67.4c-7-5.5-15-8.4-25.3-9.5C119.6,55.3,127.9,58.8,133.8,67.4z M29.8,183.8
	c11.1-1.6,16.5-5.9,17.2-16.5C49.9,180.4,44.9,185.3,29.8,183.8z"/>
</svg>
