<?xml version="1.0" encoding="utf-8"?>
<!-- Generator: Adobe Illustrator 21.1.0, SVG Export Plug-In . SVG Version: 6.00 Build 0)  -->
<svg version="1.1" id="Layer_1" xmlns="http://www.w3.org/2000/svg" xmlns:xlink="http://www.w3.org/1999/xlink" x="0px" y="0px"
	 viewBox="0 0 497 474" style="enable-background:new 0 0 497 474;" xml:space="preserve">
<style type="text/css">
	.st0{fill-rule:evenodd;clip-rule:evenodd;fill:#626261;}
	.st1{fill-rule:evenodd;clip-rule:evenodd;fill:#9B9B9B;}
	.st2{fill-rule:evenodd;clip-rule:evenodd;fill:#3B3A39;}
	.st3{fill-rule:evenodd;clip-rule:evenodd;fill:#F7C6C7;}
	.st4{fill-rule:evenodd;clip-rule:evenodd;fill:#FFFFFF;}
	.st5{fill-rule:evenodd;clip-rule:evenodd;fill:#B9C071;}
	.st6{fill:none;stroke:#1A1A18;stroke-width:1.6994;stroke-linecap:round;stroke-linejoin:round;stroke-miterlimit:22.9256;}
	.st7{fill-rule:evenodd;clip-rule:evenodd;fill:#E9A0A2;}
	.st8{fill-rule:evenodd;clip-rule:evenodd;fill:#D8736F;}
	.st9{fill-rule:evenodd;clip-rule:evenodd;fill:#1A1A18;}
	.st10{fill-rule:evenodd;clip-rule:evenodd;fill:#C5C5C6;}
	.st11{fill-rule:evenodd;clip-rule:evenodd;fill:#F3A5A6;}
	.st12{fill-rule:evenodd;clip-rule:evenodd;fill:#919191;}
	.st13{fill:none;stroke:#BA4C4B;stroke-width:1.6994;stroke-linecap:round;stroke-linejoin:round;stroke-miterlimit:22.9256;}
</style>
<path class="st0" d="M370,277.1c6.8,7.3,25.4,4.8,38,7.2c35.2,9.3,54.7,41.9,50.6,76.7c19.9-6.7,31.9,2.5,37.7,8.5
	c-4.4-1.1-10.2-2-13.7,1.7l5.3-0.8l5.2,1.1c-9.5,10.2-24.3,58.1-66.9,40l-15,6.9c0.6,2,0.3,3,1.4,4.6c1.4,2.2,4.1,5,5.4,7.3
	c9.9,10.4-50.3,41.2-80.2,26.4c-4.7,1-7.6,0.6-12-2.6c-4.7-1.5-7.7-3.4-8.9-5.7c1.2-3.5,2.1-7.4,9.1-11c-15.9,2.7-17.3-0.2-24.2-2.8
	c-4.4-0.1-7.8-1-9.4-3.7c-2.5-0.3-4.1-2.9-3.6-5.9c10.1-18.5,32.5-4,51.1-19.6l0.6-10.1l-8.7-11.3c-11.9,11-23.1,15-24.4,7.3
	c-8.9-20.1,9.4-35,12-40.6c4.4-6.7,9.8-13.5,11.1-23.7c-2.1-5.4-6.1-9.8-12-13.2c-3.2-3.5-8.4-11.9-25.3-12.9
	c-8.1,0.1-14.3-4-17.8-15.2c-6.5-10.4-15.1-20.8-13.4-34.2l3.4-4.9l0.2-1l-5,2.5c1.4-14.2,9.2-17.3,19.3-18.3
	c9.6-21.3,23.1-34.8,45.1-31.2c-6.7-6.5-0.2-12.7,9.2-6.9c5.3-37.8,67.5-41.5,82.2-55.3c6.6-4.3,10.4-3.7,9.2,5.6
	c-2.4,13-13.7,27-32.4,41.8c27.1-8.6,49.9,15.1,72.6,14.4c9.6,0.3,11.3,8.9,6.2,12.8c-34.3,27.8-69.7-3.5-98.6,15.6
	C380.9,244,379.8,260.7,370,277.1z"/>
<path class="st1" d="M426,411.5c20.3-9.9,32.3-34.6,32.5-50.5c18.2-6.3,31.7,0,37.7,8.5c-4.3-2-9.7-1.3-13.7,1.7
	c4.2-1,7.8-1.1,10.4,0.3C478.1,389.8,469.8,426.2,426,411.5z"/>
<path class="st2" d="M438.6,309.8c15.3,68.8-25.2,96.9-46.3,105.7c7,0.5,11.1,5.9,10.7,10.1c-7.1,29.9-60.4,22.3-59.4,33.5
	c30.8,6.8,84.8-16.9,74.1-28.7c-4.8-9-5.4-7.3-5.8-12.4C459.7,403.2,469.5,346.8,438.6,309.8z M373,408.6l3,4.5l1.3,4.9
	c-20.1,17.6-34.8,14.1-51.6,19.4c-10.6,2.2-18.7,1.3-24.2-2.8c-3.7,0.3-6.8-0.9-9.4-3.7l-3-2.1l-0.6-3.8
	c10.7-16.3,36.2,2.2,51.1-19.6c0.4-2.1,1.4-6.6,0.6-10.1L373,408.6z M361.5,334.3c-1,14.6-9.9,33.6-36.7,55.3
	c-8.8,4.9-9.9-1-3.9-11.3C328.2,363.8,349.8,363.9,361.5,334.3z M352.5,200.6l2.6,8.8c13.3-16.9,29.9-22.6,38-25.2
	c7-9.7,16.5-15.3,17.8-26.1C397.5,173.5,360.1,176.3,352.5,200.6z M370,277.1c2.2,8-3,14.8-11.3,16.6l-34,1.1l-38.7-27.4l-6.3-37.3
	c6.2-15.2,22.4-29.5,27.6-19.1c3.7,7.9-2.2,18.4-9.8,36l55.2,22.3c9.2-11.6,14.2-26,11.7-45.6c60.7-42,90-12.6,95.1-15.2
	c6.5,4.7,7.8,7.7-1.8,11.3c-35.5,13.4-52.1-12.2-84.4,7.2C381.3,244.2,379.4,260.9,370,277.1z"/>
<path class="st1" d="M331.5,384c2-2.7,6.7-6.3,8.3-8c3.6-3.7,3.9-4.5,10-12.1c0.6,29.8,11.9,33.8,23.2,44.7
	C353.7,408,340.5,398.5,331.5,384z"/>
<path class="st3" d="M364.4,223.7c11.2-19.2,35.5-38.5,84.3-17.4c8.3,3.8,9.1,10.8-5.1,11.6C419.2,218,394.9,200.6,364.4,223.7z"/>
<path class="st2" d="M266.7,234.4l13-4.3l12.1-19c-13.4-17.2-27.9-28.6-44.9-27.3c-3.6-1-7.2-0.6-11,1.2l0.3,2
	C232.9,200.6,253.6,206.4,266.7,234.4z"/>
<path class="st1" d="M324.3,307.8c8.4,7.9,9.9,17.4,8.3,27.6l-2.3-8.3c0.4,6.3-6.1,16.8-12.6,25.8c-7.7-8.4-22.8-4.9-22.7-19.7
	c-6.2-11.5-8.7-20.5-2-32.2c-8-0.9-13.3-6.1-17.8-15.2c-11.3-15.1-18.9-34.8-9.9-39.1l-4.8,1.6c0.2-19.3,24.2-26,30.8-4l21.5,8.6
	c14.2,5.7,43.2-11.1,52.5,32.1c-2.1-2.1-5.2-2.9-8.7-3.2c4.7,0.8,5,5,3.8,8.6C355.5,301.9,342.4,308.8,324.3,307.8z"/>
<path class="st4" d="M296.6,241.5l-5.4,2.8c-1-5.2-4.3-9.4-9.7-12.6c7.6-12.8,15.8-21.2,20.3-19.6
	C306.4,215.3,303.1,224.2,296.6,241.5z"/>
<path class="st5" d="M289.7,230.9c8.7,5.8,18-11.2,12-18.7C294.8,210.1,282.4,225.9,289.7,230.9z"/>
<path class="st4" d="M333.1,254.2l-10.5,0.1l-10-1.4l-4.5-6c8.8-19.2,20.7-27.3,26.5-24.2C339.1,226.4,338.6,238.6,333.1,254.2z"/>
<path class="st5" d="M318.3,246c9.9,5.5,18.7-8,15.2-19.4C328.6,215.5,306.4,237.6,318.3,246z"/>
<path class="st0" d="M365.1,285l-7.2-2.7c12.1,11.2-14.4,28.8-33.6,25.5c9.6,5.6,12.5,19.5,8.3,27.6l-2.3-8.3
	c-1.7,9.1-6,16.9-11.1,23.7c6-9.4,4.2-31.4-6-34.9c-19.2-5.9-18.1-8.9-20.1-14.9c-8-1.1-14.2-5.7-17.8-15.2l-8.8-14.6
	c3,5.4,10.1,7.4,13.1,13.3c7,14.6,18.7,9.5,27.6,12.5c25.1,10.8,61.1-9.1,43.6-38.1C358.8,264.5,362.5,275.7,365.1,285z
	 M458.5,361.1c12.4-2.4,25.3-7.8,37.7,8.5c-7.8-3.8-21.3,3.1-26.5,12.6c4.9-2.3,10.5-4.1,15.1-3.9c-11.7,11.3-28.1,28.7-44.5,22
	C450.4,388.9,454.3,378.5,458.5,361.1z"/>
<path class="st6" d="M291.2,244.3c-3.9-19.9-30-17.3-30.8,4c2.3-1.9,4.9-2.9,7.8-2.9c-4.3,1.2-6.4,3.3-6.4,6.2
	c-0.4,14.4,6.7,23.4,13.4,34.2c8.6,24,28,8.7,39.8,24.6 M318.2,313.9c7.9,4.1,12.6,11.3,14.3,21.5 M330.2,327
	c-1.9,22.5-36.3,41.8-22.5,65.4 M311.8,376c-5.5,10.6-6.3,18.4-1.1,19.1c2.3-4.2,5.1-8.5,9.9-12.8 M361.5,334.3
	c-0.1,28.4-42.2,64.2-50.9,60.8 M349.8,363.9c2.5,47.4,29.4,34,27.7,59.7 M340.2,395.3c0.8,4.7-0.1,9.9-2.5,15.6 M255.7,189.1
	c-5.5-5.4-13.8-8.2-19.8-4.2c-1.3,3.2,10.3,13.5,13.3,12.1 M236.2,187c-3.3,13.7,17.4,19.5,30.5,47.4 M295.7,329.5
	c-3,18.8,19.4,17.7,22,23.4 M293,301c-6.2,10.3-3.9,23.1,2,32.2 M291.8,211.1c-14.8-19.4-32.4-29.4-44.9-27.3 M312.8,252.9
	c14.2,5.7,43.2-11.1,52.5,32.1c-2.1-2.1-5.2-2.9-8.7-3.2c4.7,0.8,5,5,3.8,8.6c-4.7,11.4-17.8,18.3-35.9,17.3"/>
<path class="st7" d="M291.2,244.3c2.3-5.2,15-3.4,21.5,8.6c0.8,3.7-10.5,7.4-16.8,5.6C292.2,255.5,289.4,248.3,291.2,244.3z"/>
<path class="st8" d="M291.2,244.3c2.2,11.4,7.8,10.8,21.5,8.6c0.8,3.7-10.5,7.4-16.8,5.6C292.2,255.5,289.4,248.3,291.2,244.3z"/>
<path class="st6" d="M320.6,267.6c3.2-0.8,4.9,2,4.4,4.3 M286.4,273.6c0.6,8.7,6.7,11,11,8.4 M278.3,258.7c-0.3,6,9,12.3,16.1,6.6
	c0.1,14.8,20.2,18,27.4,5.6"/>
<ellipse transform="matrix(0.9984 -5.621362e-02 5.621362e-02 0.9984 -12.5531 18.6332)" class="st9" cx="324.9" cy="232.5" rx="5.6" ry="5.6"/>
<ellipse transform="matrix(0.9984 -5.608139e-02 5.608139e-02 0.9984 -12.6821 18.7778)" class="st4" cx="328.2" cy="235.3" rx="2.4" ry="2.4"/>
<ellipse transform="matrix(0.9984 -5.631125e-02 5.631125e-02 0.9984 -13.2987 18.7259)" class="st4" cx="325.6" cy="245.3" rx="2.7" ry="2.7"/>
<ellipse transform="matrix(0.9984 -5.617173e-02 5.617173e-02 0.9984 -12.5305 16.8999)" class="st4" cx="294.4" cy="231.3" rx="2.3" ry="2.3"/>
<ellipse transform="matrix(0.9984 -5.624011e-02 5.624011e-02 0.9984 -11.9469 16.9995)" class="st9" cx="296.1" cy="220.8" rx="5" ry="5"/>
<ellipse transform="matrix(0.9984 -5.593658e-02 5.593658e-02 0.9984 -12.0311 17.0779)" class="st4" cx="299.1" cy="223.5" rx="2.2" ry="2.2"/>
<path class="st6" d="M308.2,246.9c8.8-19.2,20.7-27.3,26.5-24.2c4.5,3.6,4,15.9-1.5,31.5 M281.5,231.8c7.6-12.8,15.8-21.2,20.3-19.6
	c4.6,3.1,1.4,12-5.2,29.4"/>
<path class="st6" d="M339.6,405.3c-19.3,15.6-38.1,0.7-51.1,19.6c-0.5,2.2,1.4,5.4,3.6,5.9c1.5,2.7,5.6,4.2,9.4,3.7
	c6.9,3.8,15.7,4.6,26.3,2.4 M304.8,420c-5.9,1.3-11.3,7-12.6,10.9 M311.4,424.7c-4.9,2.2-10.1,6.3-9.9,9.9 M333.7,440.6
	c-4.1,2.8-8.4,6.8-9.5,12.6 M344.3,446.4c-4.5,4-6.2,6.9-6.8,10.3 M377.4,418c-21.7,22.7-56,9.9-60.6,30.4c0.7,2.4,5.5,5.2,7.6,4.8
	c3.7,2.8,8.2,4,13.3,3.5c25,12.9,83.5-10.7,80.7-24.4c-1.2-7.6-9.2-6.7-8-19.9 M458.5,361.1c18.2-6.3,31.7,0,37.7,8.5
	c-4.3-2-9.7-1.3-13.7,1.7c4.2-1,7.8-1.1,10.4,0.3c-14.8,18.3-23.1,54.7-66.9,40 M279.7,230.1c11.8-25.2,26.9-34,45.1-31.2
	 M298.8,208.7c3.4-1.5,6.4-1.5,8.5,2.3 M335.8,214.7c3.2,1.1,5.6,3.3,5.5,7.4 M333.1,204.5c-3.8-1.8-14.1-8.3-11.1-12.5
	c3.3-4.1,12.6-3.3,21,9.2c-9.4-22,4.2-23.8,12.1,8.2 M334,192c6.4-36.5,54.8-36.9,82.2-55.3c14.1-9.9,16.6,16-23.2,47.5
	 M352.9,214.1c9.6-16.3,25.7-27.1,42.5-30.5c24.2-4.2,48.3,13.2,70.3,15c9.2,0.5,11.7,7.8,6.2,12.8c-38.4,30.9-70.5-9.2-104.3,19.9
	 M373.3,227c7.2,13.9,6.1,35-3.4,50.2 M368.2,275.7c11.9,10.6,25.7,3.4,43.1,9.7c59.8,19.1,67.3,109.8-0.3,133 M331.5,384
	c11.5,19,26.1,23.8,41.5,24.6"/>
<path class="st10" d="M315,345.4c-6.8-3.2-12-8.2-16.7-15.6C297.4,340.2,306.4,344.1,315,345.4z M447.6,411.2
	c10.1-2.6,18.2-8.3,25.9-17.2C468.8,405.5,459.8,411.8,447.6,411.2z M364.1,403.8c-10.8-4.4-16.9-7.8-26.7-17.2
	C342.8,397.5,354.1,403.1,364.1,403.8z M350.1,262.7c-8.5-2-15.6-4.5-26.1-5.2C335.2,254.5,346.7,257.6,350.1,262.7z"/>
<path class="st11" d="M418.8,202.4c-12.1-0.8-23.7,1.2-36.7,6C393.4,200,405.7,198.4,418.8,202.4z"/>
<path class="st0" d="M255.8,187.1c11.8,6.3,23.2,16,31.1,25.4C281.2,198.4,269.7,188.4,255.8,187.1z"/>
<path class="st12" d="M426.6,192.2c-9.8-3.6-29-5.3-40.4-2.4C396.6,183,416.9,184.8,426.6,192.2z M374.2,159.8
	c-9.9,3.1-26.2,13.6-33.4,22.8C344.8,171,362,159.9,374.2,159.8z M400.7,288.8c12.6,2.5,22.9,9,33,19.3
	C427.2,294.4,415.7,287.2,400.7,288.8z"/>
<path class="st13" d="M291.2,244.3c2.3-5.2,15-3.4,21.5,8.6c0.8,3.7-10.5,7.4-16.8,5.6C292.2,255.5,289.4,248.3,291.2,244.3z"/>
</svg>
