<?xml version="1.0" encoding="utf-8"?>
<!-- Generator: Adobe Illustrator 21.1.0, SVG Export Plug-In . SVG Version: 6.00 Build 0)  -->
<svg version="1.1" id="Layer_1" xmlns="http://www.w3.org/2000/svg" xmlns:xlink="http://www.w3.org/1999/xlink" x="0px" y="0px"
	 viewBox="0 0 497 474" style="enable-background:new 0 0 497 474;" xml:space="preserve">
<style type="text/css">
	.st0{fill-rule:evenodd;clip-rule:evenodd;fill:#E2EAB6;}
	.st1{fill-rule:evenodd;clip-rule:evenodd;fill:#FFE7B7;}
	.st2{fill-rule:evenodd;clip-rule:evenodd;fill:#FCDB8D;}
	.st3{fill-rule:evenodd;clip-rule:evenodd;fill:#F8CD63;}
	.st4{fill-rule:evenodd;clip-rule:evenodd;fill:#D6B36A;}
	.st5{fill:none;stroke:#AA7831;stroke-width:1.6994;stroke-linecap:round;stroke-linejoin:round;stroke-miterlimit:22.9256;}
	.st6{fill-rule:evenodd;clip-rule:evenodd;fill:#AEC905;}
	.st7{fill-rule:evenodd;clip-rule:evenodd;fill:#F9C500;}
	.st8{fill-rule:evenodd;clip-rule:evenodd;fill:#EDB300;}
	.st9{fill:none;stroke:#BD7D1C;stroke-width:1.6994;stroke-linecap:round;stroke-linejoin:round;stroke-miterlimit:22.9256;}
	.st10{fill-rule:evenodd;clip-rule:evenodd;fill:#FFE67E;}
	.st11{fill-rule:evenodd;clip-rule:evenodd;fill:#D0DB69;}
	.st12{fill-rule:evenodd;clip-rule:evenodd;fill:#89B126;}
	.st13{fill-rule:evenodd;clip-rule:evenodd;fill:#A55A44;}
	.st14{fill:none;stroke:#822E2D;stroke-width:1.6994;stroke-linecap:round;stroke-linejoin:round;stroke-miterlimit:22.9256;}
	.st15{fill:none;stroke:#6B9A2F;stroke-width:1.6994;stroke-linecap:round;stroke-linejoin:round;stroke-miterlimit:22.9256;}
</style>
<path class="st0" d="M372.6,383.1c8.6-10.1,25.4-0.3,17.3,20.1c12.3,1.2,20.2,13,13.1,25.1l-181.8-10.9c-0.5,0-1.2-3-2.1-4.8
	c-3.9-7.7,8.7-21.5,14.7-9.5c0.4,0.8-4.3-8.1-4.2-10.2c0.3-5.5,12.9-1.1,10.7-3.4c-8.7-9.1-7.5-14.9,4.7-22.2
	c10.1-6,15.7,6.4,15.1,8.3c4.1-15.5,19.6-14.2,21.7-9.7c0,0,7.3-27.8,17.9-23.8c6.4,2.4,7.6-9.4,7.4-2.4
	c5.2-18.3,20.4-21.1,25.2-10.1c7.5-22.1,33.9-1.6,16.6,8.9c-1.7,1,4,22.4,4.7,24c2,4.4-6.6-13-5.9-12.8c2.8,1.1,4,25.1,4.5,27.5
	c2.1-0.9,4.6-0.5,7.5,2.8c1.1,1.3,6-6.3,9.1-3.8C368.7,376.5,373.1,380.5,372.6,383.1z"/>
<path class="st0" d="M85.8,426.8c8.4-31.7,147.4-11.6,188.3-11.4c122.3,0.5,170.1,23.7,112.8,48.7c-28.5,12.4-73.6,14.4-108.9-3
	C228.1,436.3,76.5,462.5,85.8,426.8z"/>
<path class="st1" d="M339,180.7l-44.2,107.4c-4.7,18.9-28.1,37.6-55,33c-26.5,30.1-117.4,32.6-148,6.1c-7.3,2.3-19.1,0.8-21.5-11.4
	C46.9,318,10.7,273,22.2,252.3c-20.3-5-26.4-39.2-16.2-52.1c-3.1-2.8-2.7-9.1,0-12.4c-15.1-33.9,1.3-64.1,19.1-74.4
	c-7.3-31.8,20.1-65.9,42.5-68.9c4.5-9.1,10.8-12.9,19.1-11.4c3.2-14.4,45.7-38.2,68.7-25.3c36.9-21.1,120.5,5.4,125.5,44.2
	c14.8,1.2,20.9,10.7,22.9,23.8c21.1,6.5,29.7,29.1,20.2,45.5C348.7,132,346.1,164.2,339,180.7z"/>
<path class="st2" d="M298.8,178.8c13.5,30.3-5.4,76.2-33.5,81.5c-3.5,14.3-21.3,28.6-41.8,25.1c-20.1,22.8-89.1,24.7-112.3,4.7
	c-5.6,1.8-14.5,0.6-16.3-8.7c-18,1.6-45.4-32.6-36.7-48.3c-15.4-3.8-20-29.7-12.3-39.6c-2.4-2.1-2.1-6.9,0-9.4
	c-11.5-25.8,1-48.7,14.5-56.5C55,103.6,75.7,77.7,92.7,75.4c3.4-6.9,8.2-9.8,14.5-8.7c2.4-10.9,34.7-29,52.2-19.2
	c28-16,91.4,4.1,95.2,33.5c11.2,0.9,15.8,8.1,17.4,18.1c16,5,22.6,22.1,15.3,34.5C306.1,141.8,304.2,166.3,298.8,178.8z"/>
<path class="st3" d="M264.2,177.2c9.8,22-3.9,55.5-24.4,59.2c-2.6,10.4-15.5,20.7-30.3,18.2c-14.6,16.6-64.7,18-81.6,3.4
	c-4,1.3-10.5,0.5-11.9-6.3c-13,1.2-32.9-23.6-26.6-35.1c-11.2-2.8-14.5-21.6-9-28.8c-1.7-1.5-1.5-5,0-6.8
	c-8.3-18.7,0.7-35.4,10.5-41.1c-4-17.5,11.1-36.4,23.4-38.1c2.5-5,6-7.1,10.5-6.3c1.8-7.9,25.2-21.1,37.9-14
	c20.4-11.6,66.4,3,69.2,24.4c8.2,0.7,11.5,5.9,12.6,13.1c11.6,3.6,16.4,16,11.2,25.1C269.5,150.3,268.1,168.1,264.2,177.2z"/>
<path class="st4" d="M248.5,416.6c-10.9,4.9-28.1,3.8-39.3,0.4c25.1,15.4-34.5,17.5-35.6,12.5c-4.1-11.4-7.1-11.1-11.8,0.9
	c-2,5.2-27.3,6.5-23.4-3.7l5.3-17.5l-10.9,8.9l-12.8,7.1c-18,8.6-31.5-1.1-24.9-2.6c38.5-10.6,57.6-58.6,60.7-136.2
	c-23.9-26.2-54.2-46.1-93.9-57c1.8-5.5,8.9-10.6,21.1-15.4l60.8,25.3l6.4,2.4l8,4.7l2.5-27.3l22-67.8c7.7,10.3,7.5,28.4,6,47.7
	c-1.4,31.9-0.7,68.1,1,106.4c14.7-11.8,29.2-21.7,43.5-29.9c1.2,0.5,0.4,2.2-2.4,5.3c9.4-2.3,11.3,1.6,9.4,3.8
	c-26.2,17.1-42.4,35.5-49.9,55.2C192.5,389.8,199.5,415.4,248.5,416.6z"/>
<path class="st5" d="M156,286.4C152.7,357,135.3,414,95.3,422.6"/>
<path class="st5" d="M190.3,339.9c2.2,50.1,9.2,75.6,58.2,76.8 M188.6,199.1c-0.8,30.4-1.4,69.4,1,106.4"/>
<path class="st5" d="M189.6,305.5c14-12.4,30.9-23.8,43.5-29.9"/>
<path class="st5" d="M190.3,339.9c0.7-9.5,23.5-39.6,49.9-55.2"/>
<path class="st5" d="M120.1,425.2c9.9-4,19.9-11.5,30.3-22.5"/>
<path class="st5" d="M138.6,426.7c2.2-8.8,5.1-17.3,6.2-18.3"/>
<path class="st5" d="M173.7,429.5c-3-11.5-6.9-11.2-11.8,0.9"/>
<path class="st6" d="M210.1,55.4c5.7-21.9,28.9-10.2,35.3-26C249.8,47.5,234.2,61.2,210.1,55.4z"/>
<path class="st7" d="M220.8,73.2c-38.3,3.9-23.7,57.4,11.8,41.7c19.7,6.7,42.8-11.8,35.1-37.5C260.6,53.2,231.4,54.3,220.8,73.2z"/>
<path class="st8" d="M249.9,59.7c20.9,15,2.5,46.3-20.9,48.8c19.7,6.7,46.4-5.4,38.6-31.1C264.1,65.7,254.1,61.1,249.9,59.7z"/>
<path class="st9" d="M220.8,73.2c-38.3,3.9-23.7,57.4,11.8,41.7c19.7,6.7,42.8-11.8,35.1-37.5C260.6,53.2,231.4,54.3,220.8,73.2"/>
<path class="st10" d="M213,78.7c-5.7,6-8.9,13-10.2,22C200.5,90.9,204.3,83.7,213,78.7z"/>
<path class="st11" d="M241,45.3c-6.7,4.8-12.9,7.2-21.8,8.7C230.2,55.5,234.8,53.3,241,45.3z"/>
<path class="st12" d="M210.1,55.4l3.9,0.8c2.4,7.1,6.1,12.2,11.3,15.2l-4.5,1.8C216.5,68.3,212.9,62.5,210.1,55.4z"/>
<path class="st13" d="M233.5,118.8c2.9,0,5.3-0.9,5.3-1.9c0-1.1-2.4-1.9-5.3-1.9c-2.9,0-5.3,0.9-5.3,1.9
	C228.1,118,230.5,118.8,233.5,118.8z"/>
<path class="st14" d="M233.5,118.8c2.9,0,5.3-0.9,5.3-1.9c0-1.1-2.4-1.9-5.3-1.9c-2.9,0-5.3,0.9-5.3,1.9
	C228.1,118,230.5,118.8,233.5,118.8z"/>
<path class="st15" d="M210.1,55.4c24.2,5.8,39.7-7.8,35.3-26C239,45.1,215.8,33.5,210.1,55.4c2.6,7.4,6.2,13.3,10.7,17.8l4.5-1.8
	c-4.9-3.2-8.7-8.3-11.3-15.2"/>
<path class="st0" d="M308.7,71.6c0-7.7,5.8-19.8,15.4-19.8C324.9,51.8,322,66.9,308.7,71.6z"/>
<path class="st0" d="M228.9,334c0,7.7,5.8,19.8,15.4,19.8C245.2,353.8,242.2,338.8,228.9,334z"/>
<path class="st0" d="M20.4,110.6c-7.6-1.3-18.5-9.1-16.9-18.5C3.7,91.2,18,96.7,20.4,110.6z"/>
<path class="st0" d="M315,72.1c8.3-0.7,23.3,2.3,22.3,3.3C331.5,81.2,319,78.6,315,72.1z"/>
<path class="st0" d="M235.2,333.6c10.9,1,30.8-3,29.5-4.3C257,321.5,240.6,324.9,235.2,333.6z"/>
<path class="st0" d="M68.4,31.9c-5.1-3.8-11-19.3-2.6-22.8l0.6-0.3l0.3-0.3v0.6C70,14.7,69.9,24.5,68.4,31.9z"/>
<path class="st0" d="M60.6,319.3c-2.9,4.5-15.5,10.5-19.1,3.7l-0.3-0.5l-0.3-0.2h0.5C46,319.1,54.3,318.6,60.6,319.3z"/>
<path class="st0" d="M64.9,38.8C64.1,35.7,53.5,13.6,49.1,18C42.9,24.2,56.5,38.8,64.9,38.8z"/>
<path class="st0" d="M66.6,321.8c-2.5,0.8-20.6,11.3-16.5,14.8C55.8,341.4,67.2,329,66.6,321.8z"/>
</svg>
