<?xml version="1.0" encoding="utf-8"?>
<!-- Generator: Adobe Illustrator 21.1.0, SVG Export Plug-In . SVG Version: 6.00 Build 0)  -->
<svg version="1.1" id="Layer_1" xmlns="http://www.w3.org/2000/svg" xmlns:xlink="http://www.w3.org/1999/xlink" x="0px" y="0px"
	 viewBox="0 0 497 474" style="enable-background:new 0 0 497 474;" xml:space="preserve">
<style type="text/css">
	.st0{fill-rule:evenodd;clip-rule:evenodd;fill:#E2EAB6;}
	.st1{fill-rule:evenodd;clip-rule:evenodd;fill:#FFE7B7;}
	.st2{fill-rule:evenodd;clip-rule:evenodd;fill:#FCDB8D;}
	.st3{fill-rule:evenodd;clip-rule:evenodd;fill:#BD6E39;}
	.st4{fill-rule:evenodd;clip-rule:evenodd;fill:#F8CD63;}
	.st5{fill-rule:evenodd;clip-rule:evenodd;fill:#EDB581;}
	.st6{fill-rule:evenodd;clip-rule:evenodd;fill:#A35939;}
	.st7{fill-rule:evenodd;clip-rule:evenodd;fill:#D88F55;}
	.st8{fill-rule:evenodd;clip-rule:evenodd;fill:#F7C6C7;}
	.st9{fill-rule:evenodd;clip-rule:evenodd;fill:#D6B36A;}
	.st10{fill:none;stroke:#AA7831;stroke-width:1.6994;stroke-linecap:round;stroke-linejoin:round;stroke-miterlimit:22.9256;}
	.st11{fill-rule:evenodd;clip-rule:evenodd;fill:#AEC905;}
	.st12{fill-rule:evenodd;clip-rule:evenodd;fill:#F9C500;}
	.st13{fill-rule:evenodd;clip-rule:evenodd;fill:#EDB300;}
	.st14{fill:none;stroke:#BD7D1C;stroke-width:1.6994;stroke-linecap:round;stroke-linejoin:round;stroke-miterlimit:22.9256;}
	.st15{fill:none;stroke:#E30045;stroke-width:8.4971;stroke-linecap:round;stroke-linejoin:round;stroke-miterlimit:22.9256;}
	.st16{fill-rule:evenodd;clip-rule:evenodd;fill:#F1C078;}
	.st17{fill:none;stroke:#D1822F;stroke-width:1.6994;stroke-linecap:round;stroke-linejoin:round;stroke-miterlimit:22.9256;}
	.st18{fill:none;stroke:#822E2D;stroke-width:1.6994;stroke-linecap:round;stroke-linejoin:round;stroke-miterlimit:22.9256;}
	.st19{fill-rule:evenodd;clip-rule:evenodd;fill:#FFFFFF;}
	.st20{fill-rule:evenodd;clip-rule:evenodd;fill:#CA6C32;}
	.st21{fill-rule:evenodd;clip-rule:evenodd;fill:#A24B2A;}
	.st22{fill:none;stroke:#783529;stroke-width:1.6994;stroke-linecap:round;stroke-linejoin:round;stroke-miterlimit:22.9256;}
	.st23{fill-rule:evenodd;clip-rule:evenodd;fill:#1A1A18;}
	.st24{fill-rule:evenodd;clip-rule:evenodd;fill:#E29769;}
	.st25{fill-rule:evenodd;clip-rule:evenodd;fill:#FFE67E;}
	.st26{fill-rule:evenodd;clip-rule:evenodd;fill:#D0DB69;}
	.st27{fill-rule:evenodd;clip-rule:evenodd;fill:#B9C071;}
	.st28{fill-rule:evenodd;clip-rule:evenodd;fill:#E9A0A2;}
	.st29{fill-rule:evenodd;clip-rule:evenodd;fill:#D8736F;}
	.st30{fill-rule:evenodd;clip-rule:evenodd;fill:#89B126;}
	.st31{fill-rule:evenodd;clip-rule:evenodd;fill:#A55A44;}
	.st32{fill:none;stroke:#6B9A2F;stroke-width:1.6994;stroke-linecap:round;stroke-linejoin:round;stroke-miterlimit:22.9256;}
	.st33{fill-rule:evenodd;clip-rule:evenodd;fill:#F7D2AE;}
	.st34{fill-rule:evenodd;clip-rule:evenodd;fill:#F3A5A6;}
	.st35{fill:none;stroke:#BA4C4B;stroke-width:1.6994;stroke-linecap:round;stroke-linejoin:round;stroke-miterlimit:22.9256;}
</style>
<path class="st0" d="M372.6,383.1c8.6-10.1,25.4-0.3,17.3,20.1c12.3,1.2,20.2,13,13.1,25.1l-181.8-10.9c-0.5,0-1.2-3-2.1-4.8
	c-3.9-7.7,8.7-21.5,14.7-9.5c0.4,0.8-4.3-8.1-4.2-10.2c0.3-5.5,12.9-1.1,10.7-3.4c-8.7-9.1-7.5-14.9,4.7-22.2
	c10.1-6,15.7,6.4,15.1,8.3c4.1-15.5,19.6-14.2,21.7-9.7c0,0,7.3-27.8,17.9-23.8c6.4,2.4,7.6-9.4,7.4-2.4
	c5.2-18.3,20.4-21.1,25.2-10.1c7.5-22.1,33.9-1.6,16.6,8.9c-1.7,1,4,22.4,4.7,24c2,4.4-6.6-13-5.9-12.8c2.8,1.1,4,25.1,4.5,27.5
	c2.1-0.9,4.6-0.5,7.5,2.8c1.1,1.3,6-6.3,9.1-3.8C368.7,376.5,373.1,380.5,372.6,383.1z"/>
<path class="st0" d="M85.8,426.8c8.4-31.7,147.4-11.6,188.3-11.4c122.3,0.5,170.1,23.7,112.8,48.7c-28.5,12.4-73.6,14.4-108.9-3
	C228.1,436.3,76.5,462.5,85.8,426.8z"/>
<path class="st1" d="M339,180.7l-44.2,107.4c-4.7,18.9-28.1,37.6-55,33c-26.5,30.1-117.4,32.6-148,6.1c-7.3,2.3-19.1,0.8-21.5-11.4
	C46.9,318,10.7,273,22.2,252.3c-20.3-5-26.4-39.2-16.2-52.1c-3.1-2.8-2.7-9.1,0-12.4c-15.1-33.9,1.3-64.1,19.1-74.4
	c-7.3-31.8,20.1-65.9,42.5-68.9c4.5-9.1,10.8-12.9,19.1-11.4c3.2-14.4,45.7-38.2,68.7-25.3c36.9-21.1,120.5,5.4,125.5,44.2
	c14.8,1.2,20.9,10.7,22.9,23.8c21.1,6.5,29.7,29.1,20.2,45.5C348.7,132,346.1,164.2,339,180.7z"/>
<path class="st2" d="M298.8,178.8c13.5,30.3-5.4,76.2-33.5,81.5c-3.5,14.3-21.3,28.6-41.8,25.1c-20.1,22.8-89.1,24.7-112.3,4.7
	c-5.6,1.8-14.5,0.6-16.3-8.7c-18,1.6-45.4-32.6-36.7-48.3c-15.4-3.8-20-29.7-12.3-39.6c-2.4-2.1-2.1-6.9,0-9.4
	c-11.5-25.8,1-48.7,14.5-56.5C55,103.6,75.7,77.7,92.7,75.4c3.4-6.9,8.2-9.8,14.5-8.7c2.4-10.9,34.7-29,52.2-19.2
	c28-16,91.4,4.1,95.2,33.5c11.2,0.9,15.8,8.1,17.4,18.1c16,5,22.6,22.1,15.3,34.5C306.1,141.8,304.2,166.3,298.8,178.8z"/>
<path class="st3" d="M370,277.1c6.8,7.3,25.4,4.8,38,7.2c35.2,9.3,54.7,41.9,50.6,76.7c19.9-6.7,31.9,2.5,37.7,8.5
	c-4.4-1.1-10.2-2-13.7,1.7l5.3-0.8l5.2,1.1c-9.5,10.2-24.3,58.1-66.9,40l-15,6.9c0.6,2,0.3,3,1.4,4.6c1.4,2.2,4.1,5,5.4,7.3
	c9.9,10.4-50.3,41.2-80.2,26.4c-4.7,1-7.6,0.6-12-2.6c-4.7-1.5-7.7-3.4-8.9-5.7c1.2-3.5,2.1-7.4,9.1-11c-15.9,2.7-17.3-0.2-24.2-2.8
	c-4.4-0.1-7.8-1-9.4-3.7c-2.5-0.3-4.1-2.9-3.6-5.9c10.1-18.5,32.5-4,51.1-19.6l0.6-10.1l-8.7-11.3c-11.9,11-23.1,15-24.4,7.3
	c-8.9-20.1,9.4-35,12-40.6c4.4-6.7,9.8-13.5,11.1-23.7c-2.1-5.4-6.1-9.8-12-13.2c-3.2-3.5-8.4-11.9-25.3-12.9
	c-8.1,0.1-14.3-4-17.8-15.2c-6.5-10.4-15.1-20.8-13.4-34.2l3.4-4.9l0.2-1l-5,2.5c1.4-14.2,9.2-17.3,19.3-18.3
	c9.6-21.3,23.1-34.8,45.1-31.2c-6.7-6.5-0.2-12.7,9.2-6.9c5.3-37.8,67.5-41.5,82.2-55.3c6.6-4.3,10.4-3.7,9.2,5.6
	c-2.4,13-13.7,27-32.4,41.8c27.1-8.6,49.9,15.1,72.6,14.4c9.6,0.3,11.3,8.9,6.2,12.8c-34.3,27.8-69.7-3.5-98.6,15.6
	C380.9,244,379.8,260.7,370,277.1z"/>
<path class="st4" d="M264.2,177.2c9.8,22-3.9,55.5-24.4,59.2c-2.6,10.4-15.5,20.7-30.3,18.2c-14.6,16.6-64.7,18-81.6,3.4
	c-4,1.3-10.5,0.5-11.9-6.3c-13,1.2-32.9-23.6-26.6-35.1c-11.2-2.8-14.5-21.6-9-28.8c-1.7-1.5-1.5-5,0-6.8
	c-8.3-18.7,0.7-35.4,10.5-41.1c-4-17.5,11.1-36.4,23.4-38.1c2.5-5,6-7.1,10.5-6.3c1.8-7.9,25.2-21.1,37.9-14
	c20.4-11.6,66.4,3,69.2,24.4c8.2,0.7,11.5,5.9,12.6,13.1c11.6,3.6,16.4,16,11.2,25.1C269.5,150.3,268.1,168.1,264.2,177.2z"/>
<path class="st5" d="M426,411.5c20.3-9.9,32.3-34.6,32.5-50.5c18.2-6.3,31.7,0,37.7,8.5c-4.3-2-9.7-1.3-13.7,1.7
	c4.2-1,7.8-1.1,10.4,0.3C478.1,389.8,469.8,426.2,426,411.5z"/>
<path class="st6" d="M438.6,309.8c15.3,68.8-25.2,96.9-46.3,105.7c7,0.5,11.1,5.9,10.7,10.1c-7.1,29.9-60.4,22.3-59.4,33.5
	c30.8,6.8,84.8-16.9,74.1-28.7c-4.8-9-5.4-7.3-5.8-12.4C459.7,403.2,469.5,346.8,438.6,309.8z M373,408.6l3,4.5l1.3,4.9
	c-20.1,17.6-34.8,14.1-51.6,19.4c-10.6,2.2-18.7,1.3-24.2-2.8c-3.7,0.3-6.8-0.9-9.4-3.7l-3-2.1l-0.6-3.8
	c10.7-16.3,36.2,2.2,51.1-19.6c0.4-2.1,1.4-6.6,0.6-10.1L373,408.6z M361.5,334.3c-1,14.6-9.9,33.6-36.7,55.3
	c-8.8,4.9-9.9-1-3.9-11.3C328.2,363.8,349.8,363.9,361.5,334.3z M352.5,200.6l2.6,8.8c13.3-16.9,29.9-22.6,38-25.2
	c7-9.7,16.5-15.3,17.8-26.1C397.5,173.5,360.1,176.3,352.5,200.6z M370,277.1c2.2,8-3,14.8-11.3,16.6l-34,1.1l-38.7-27.4l-6.3-37.3
	c6.2-15.2,22.4-29.5,27.6-19.1c3.7,7.9-2.2,18.4-9.8,36l55.2,22.3c9.2-11.6,14.2-26,11.7-45.6c60.7-42,90-12.6,95.1-15.2
	c6.5,4.7,7.8,7.7-1.8,11.3c-35.5,13.4-52.1-12.2-84.4,7.2C381.3,244.2,379.4,260.9,370,277.1z"/>
<path class="st7" d="M331.5,384c2-2.7,6.7-6.3,8.3-8c3.6-3.7,3.9-4.5,10-12.1c0.6,29.8,11.9,33.8,23.2,44.7
	C353.7,408,340.5,398.5,331.5,384z"/>
<path class="st8" d="M364.4,223.7c11.2-19.2,35.5-38.5,84.3-17.4c8.3,3.8,9.1,10.8-5.1,11.6C419.2,218,394.9,200.6,364.4,223.7z"/>
<path class="st9" d="M248.5,416.6c-10.9,4.9-28.1,3.8-39.3,0.4c25.1,15.4-34.5,17.5-35.6,12.5c-4.1-11.4-7.1-11.1-11.8,0.9
	c-2,5.2-27.3,6.5-23.4-3.7l5.3-17.5l-10.9,8.9l-12.8,7.1c-18,8.6-31.5-1.1-24.9-2.6c38.5-10.6,57.6-58.6,60.7-136.2
	c-23.9-26.2-54.2-46.1-93.9-57c1.8-5.5,8.9-10.6,21.1-15.4l60.8,25.3l6.4,2.4l8,4.7l2.5-27.3l22-67.8c7.7,10.3,7.5,28.4,6,47.7
	c-1.4,31.9-0.7,68.1,1,106.4c14.7-11.8,29.2-21.7,43.5-29.9c1.2,0.5,0.4,2.2-2.4,5.3c9.4-2.3,11.3,1.6,9.4,3.8
	c-26.2,17.1-42.4,35.5-49.9,55.2C192.5,389.8,199.5,415.4,248.5,416.6z"/>
<path class="st6" d="M266.7,234.4l13-4.3l12.1-19c-13.4-17.2-27.9-28.6-44.9-27.3c-3.6-1-7.2-0.6-11,1.2l0.3,2
	C232.9,200.6,253.6,206.4,266.7,234.4z"/>
<path class="st10" d="M128.7,234.2c8.5,3.6,22.1,5.9,29.6,12.3c0.5-9.5,9.2-95,10.5-103.8"/>
<path class="st10" d="M62.1,229.4c38.9,9.3,77,35.4,100.9,65.1"/>
<path class="st10" d="M156,286.4C152.7,357,135.3,414,95.3,422.6"/>
<path class="st10" d="M190.3,339.9c2.2,50.1,9.2,75.6,58.2,76.8 M188.6,199.1c-0.8,30.4-1.4,69.4,1,106.4"/>
<path class="st10" d="M189.6,305.5c14-12.4,30.9-23.8,43.5-29.9"/>
<path class="st7" d="M458.5,361.1c12.4-2.4,25.3-7.8,37.7,8.5c-7.8-3.8-21.3,3.1-26.5,12.6c4.9-2.3,10.5-4.1,15.1-3.9
	c-11.7,11.3-28.1,28.7-44.5,22C450.4,388.9,454.3,378.5,458.5,361.1z"/>
<path class="st10" d="M190.3,339.9c0.7-9.5,23.5-39.6,49.9-55.2"/>
<path class="st10" d="M120.1,425.2c9.9-4,19.9-11.5,30.3-22.5"/>
<path class="st10" d="M138.6,426.7c2.2-8.8,5.1-17.3,6.2-18.3"/>
<path class="st10" d="M173.7,429.5c-3-11.5-6.9-11.2-11.8,0.9"/>
<path class="st11" d="M210.1,55.4c5.7-21.9,28.9-10.2,35.3-26C249.8,47.5,234.2,61.2,210.1,55.4z"/>
<path class="st12" d="M220.8,73.2c-38.3,3.9-23.7,57.4,11.8,41.7c19.7,6.7,42.8-11.8,35.1-37.5C260.6,53.2,231.4,54.3,220.8,73.2z"
	/>
<path class="st13" d="M249.9,59.7c20.9,15,2.5,46.3-20.9,48.8c19.7,6.7,46.4-5.4,38.6-31.1C264.1,65.7,254.1,61.1,249.9,59.7z"/>
<path class="st14" d="M220.8,73.2c-38.3,3.9-23.7,57.4,11.8,41.7c19.7,6.7,42.8-11.8,35.1-37.5C260.6,53.2,231.4,54.3,220.8,73.2"/>
<path class="st15" d="M188.6,199.1c-2.5,72-2.3,159.5,11.8,195.1"/>
<path class="st16" d="M94.3,228.4h46.2c7.8,3.7,7.5,11.6,0.2,13.7c-2.6,3.1-5.4,3.8-8.4,2.1c-2.5,3.7-6.8,4.2-12.9,1.7
	c-1.9,2.5-4,4.5-7.2,4.1c-2,3.9-7.2,4.9-10.5-1.4C86.3,246.8,96.8,235.1,94.3,228.4z"/>
<path class="st17" d="M114.7,231.4c8.9,8.1,6.6,18.3-1.7,18.7"/>
<path class="st6" d="M99.1,211l-2.9-18.8c-4.2,2.5-9.1,4.6-14.7,6.2C86.6,204.3,92.5,208.4,99.1,211z"/>
<path class="st17" d="M101.8,248.4c-15.5-1.6-5-13.4-7.5-20.1"/>
<path class="st3" d="M94.9,209.1l-5.4-3.3l-8-7.4l11.9-4.7C82.7,193.4,66,175,41.4,152.3c0.9,7.5,3.2,16.3,1.3,22.3
	c-3.1,3.8-10.2,6.3-21.4,7.2C34.8,202.5,76.8,219.4,94.9,209.1z"/>
<path class="st6" d="M94.9,209.1l-5.4-3.3l-8-7.4l11.9-4.7c-10.7-0.3-10-2.3-34.7-25.1c7.2,6.7,12.5,21.6,7.1,26.2
	c-3.1,3.8-24.3,5-44.6-13C34.8,202.5,76.8,219.4,94.9,209.1z"/>
<path class="st18" d="M93.4,193.7C82.7,193.4,66,175,41.4,152.3c0.9,7.5,3.2,16.3,1.3,22.3c-3.1,3.8-10.2,6.3-21.4,7.2
	c13.5,20.7,55.6,37.6,73.6,27.3"/>
<path class="st18" d="M96.2,192.2c-4.2,2.5-9.1,4.6-14.7,6.2c5.1,5.8,11,10,17.6,12.6"/>
<path class="st7" d="M29.8,183.8c11.1-1.6,16.5-5.9,17.2-16.5C49.9,180.4,44.9,185.3,29.8,183.8z"/>
<path class="st6" d="M186.6,171.5l-33.1-45.9l8.1-8.6C181.3,118.7,199.5,144.5,186.6,171.5z"/>
<path class="st3" d="M128.2,188.6l12.3-33.1l-16.1-11.4l-43,6.9c-24.9,21.6-21.8,60.4-53.6,63.1C42.1,229.6,104.6,232.9,128.2,188.6
	z"/>
<path class="st6" d="M72.3,190.5c11.8,26.5,41.2-21.5,28.3-40.8l-9.4-1.5l-7.2-1.8c-7.3,7.7-16.8,22.8-18.6,26.1
	C61.4,183.4,65,188.3,72.3,190.5z"/>
<path class="st3" d="M118,145.3l18.8-20.2c59.5-9,78.7,96.8-12.2,105.7c-17.2,0.2-27.6-3.1-41.5-8.8c26.1-7.6,29.3-15,43.7-31
	C127.5,172.7,128.5,155.1,118,145.3z"/>
<path class="st6" d="M92,219.4c20.7,8.4,49.7,6.2,69.9-0.6c-7.7,5.5-19.6,9.7-37.4,12.1c-18,1.8-32.1-0.9-41.5-8.8L92,219.4z"/>
<path class="st7" d="M118,145.3l10.3-9.5l8.5-10.7c62.2-9.2,80.3,100.8-34,90.3c12.3-8.1,20.5-17.2,26.2-26.9
	C134.4,172,129.6,152.8,118,145.3z"/>
<path class="st18" d="M84,146.4C59.2,168,59.7,211.3,27.9,214c14.2,15.5,76.7,18.8,100.3-25.4"/>
<path class="st18" d="M104.1,213.7c-7.6,3.9-16.9-2.2-17-10.4c-10.7,4-18.4-4.3-14.9-12.8c-10.5-1.9-9.7-12.1-6.9-17.9"/>
<path class="st17" d="M140.5,228.4c8.1,3.6,6.2,12,0.5,13.6"/>
<path class="st17" d="M127,234.2c6.5,1.1,6.8,7.7,5.3,10c11.2,4.4,13.2-12.2,2.3-12"/>
<path class="st18" d="M72.3,190.5c-11.3,15.7-23.3,21.9-35.9,21.7"/>
<path class="st18" d="M87.1,203.3c-13.3,13-30.8,18.5-48.2,17.4"/>
<path class="st18" d="M134.6,164c2.5,1.6,5.9,0.3,6.5-2.7 M151.3,162c2,0.8,4.2-0.7,4.1-2.9 M160.7,152.3c1.5,0.6,3.1-0.5,3.1-2.1
	 M166.6,172.1c1.4,0.9,3.1,0.2,3.5-1.5 M157.4,181.6c1.8,1.2,4.2,0.2,4.6-1.9 M159.7,195c1.4,0.9,3.1,0.2,3.5-1.5 M146.2,152.1
	c3.5,1.3,7.3-1.1,7.2-5"/>
<path class="st18" d="M136.8,125.1c70.5-8.8,71.9,117.7-33.4,105.1c-5.6-0.9-13.5-2.8-20.2-8.1"/>
<path class="st5" d="M178.9,162.8c-3.1-10.7-8.9-19.9-18-29.1C173.2,140.2,178.8,150.1,178.9,162.8z"/>
<path class="st3" d="M81.7,196.6c7.7-7.4,13.3-16.7,17.7-29.1C98.3,181.7,92.1,191.1,81.7,196.6z"/>
<path class="st18" d="M161.6,117c19.7,1.7,38,27.5,25,54.5"/>
<path class="st7" d="M142.7,137l-34.1-30.8C84.3,94,66,102.8,60,113.6c3.1-0.8,5.8-0.6,8.3,0.1C50.7,137.9,94.3,165.6,142.7,137z"/>
<path class="st3" d="M142.7,137l-35.2-5.2c-24.3,3.5-37.8-17.3-25.1-31.3c-6.7,2.1-16.4,2.3-22.6,13.2c3.1-0.8,5.8-0.6,8.3,0.1
	C50.7,137.9,94.3,165.6,142.7,137z"/>
<path class="st3" d="M147.8,95.5l-39.2,10.7c-14.3-7.1-27.5-7.6-39.6-1.5C64.1,85,67.7,69,86.5,59.5L91,46.1c3.5,3.8,4.6,8,3.5,12.8
	l9.5-8.1l-0.7,3.4C132.5,52.3,147.4,69,147.8,95.5z"/>
<path class="st6" d="M82.4,100.5L69,104.7c-5.9-19.5,3.8-40.5,17.5-45.2L91,46.1c3.5,3.8,4.6,8,3.5,12.8
	C83.3,67.3,75.4,83.5,82.4,100.5z"/>
<path class="st19" d="M99.1,102.5l9.4,3.8c3-5.7,7-10.5,12.7-14c-3.8-13.2-10.9-19.2-16.5-17.6C100.2,76.1,96.6,88.4,99.1,102.5z"/>
<path class="st20" d="M105.8,105l2.8,1.2l3.8-5.9l6.7-6.4c-1.6-10.7-6.7-14.9-11.6-13.5C103.6,81.5,99.4,94.1,105.8,105z"/>
<path class="st19" d="M126.7,90.6c5.5-0.4,11,1,16.3,3c-1-15-8-22.6-13.2-21.3C126,73.5,124.6,81.8,126.7,90.6z"/>
<path class="st20" d="M130.8,90.5l12.3,3.1l-1.7-6.1c-1.4-7.2-5.5-12.2-9.5-11.1C128.6,77.3,128.1,85.7,130.8,90.5z"/>
<path class="st20" d="M108.5,106.3c7.8-14.4,18.9-19.9,35.1-12.4l30.7,11.7c-10.9,14-20.5,25.7-31.6,31.5
	c-9.7,6.7-26.8,2.2-35.2-5.2C93.3,127.6,96.5,110.2,108.5,106.3z"/>
<path class="st21" d="M174.3,105.6c-10.9,14-20.5,25.7-31.6,31.5c-10.3,6.2-22,4.5-35.2-5.2c-8.3-6.6-2.6-21.6,8.9-16.6
	C114.5,129.6,160,122.8,174.3,105.6z"/>
<path class="st18" d="M99.6,62c2.3-3.1,3.8-6.9,4.4-11.2c-3.2,3.5-6.4,6.2-9.5,8.1c1-5.4-0.2-9.7-3.5-12.8c-0.6,4.5-2.2,9-4.5,13.4
	C72.3,65.9,62.6,85.1,69,104.7"/>
<path class="st18" d="M103.3,54.2c29.2-1.9,44.1,14.8,44.5,41.3"/>
<path class="st22" d="M116.4,115.1c-1.9,0.1-3.9,2.3-3.7,4.3"/>
<path class="st18" d="M121.3,92.3c-3.8-13.2-10.9-19.2-16.5-17.6c-4.6,1.3-8.2,13.7-5.6,27.7"/>
<ellipse transform="matrix(0.3655 -0.9308 0.9308 0.3655 -10.3375 160.4523)" class="st23" cx="112.5" cy="87.8" rx="4.6" ry="4.6"/>
<ellipse transform="matrix(0.3659 -0.9307 0.9307 0.3659 8.7355 178.9268)" class="st23" cx="135.7" cy="83.1" rx="3.9" ry="3.9"/>
<ellipse transform="matrix(0.3654 -0.9308 0.9308 0.3654 -15.4309 160.3854)" class="st19" cx="109.9" cy="91.5" rx="2.7" ry="2.7"/>
<ellipse transform="matrix(0.3656 -0.9308 0.9308 0.3656 4.3178 178.8759)" class="st19" cx="133.4" cy="86.3" rx="2.3" ry="2.3"/>
<ellipse transform="matrix(0.3653 -0.9309 0.9309 0.3653 -25.2093 159.9111)" class="st19" cx="104.7" cy="98.4" rx="2.2" ry="2.2"/>
<path class="st18" d="M99.3,72c-1.9,1-4.6,4-5.4,6.6"/>
<path class="st18" d="M132.6,68.8c-2-1.2-4.8-1.3-6.4,1.4"/>
<path class="st18" d="M143.1,93.6c-1-15-8-22.6-13.2-21.3c-3.9,1.1-5.3,9.4-3.1,18.2"/>
<path class="st22" d="M171,110c-21.9,13.7-45.3,16.8-53.9,10.1"/>
<path class="st18" d="M108.5,106.3c-24.3-12.3-42.6-3.5-48.7,7.4c3.1-0.8,5.8-0.6,8.3,0.1c-17.6,24.1,26.2,51.8,74.5,23.2"/>
<ellipse transform="matrix(0.3658 -0.9307 0.9307 0.3658 -14.9786 183.7525)" class="st21" cx="127.3" cy="102.9" rx="3.2" ry="3.2"/>
<path class="st5" d="M324.3,307.8c8.4,7.9,9.9,17.4,8.3,27.6l-2.3-8.3c0.4,6.3-6.1,16.8-12.6,25.8c-7.7-8.4-22.8-4.9-22.7-19.7
	c-6.2-11.5-8.7-20.5-2-32.2c-8-0.9-13.3-6.1-17.8-15.2c-11.3-15.1-18.9-34.8-9.9-39.1l-4.8,1.6c0.2-19.3,24.2-26,30.8-4l21.5,8.6
	c14.2,5.7,43.2-11.1,52.5,32.1c-2.1-2.1-5.2-2.9-8.7-3.2c4.7,0.8,5,5,3.8,8.6C355.5,301.9,342.4,308.8,324.3,307.8z"/>
<path class="st24" d="M140,94.9c-8.3-1.3-16.5,0-24.2,4.6C122.3,91.9,131.1,90.5,140,94.9z"/>
<path class="st7" d="M94.4,143.4c-8.3-0.5-22.6-8.8-26.9-16.2C69.3,139.7,84.8,145.9,94.4,143.4z"/>
<path class="st7" d="M133.8,67.4c-7-5.5-15-8.4-25.3-9.5C119.6,55.3,127.9,58.8,133.8,67.4z"/>
<path class="st25" d="M213,78.7c-5.7,6-8.9,13-10.2,22C200.5,90.9,204.3,83.7,213,78.7z"/>
<path class="st19" d="M296.6,241.5l-5.4,2.8c-1-5.2-4.3-9.4-9.7-12.6c7.6-12.8,15.8-21.2,20.3-19.6
	C306.4,215.3,303.1,224.2,296.6,241.5z"/>
<path class="st26" d="M241,45.3c-6.7,4.8-12.9,7.2-21.8,8.7C230.2,55.5,234.8,53.3,241,45.3z"/>
<path class="st27" d="M289.7,230.9c8.7,5.8,18-11.2,12-18.7C294.8,210.1,282.4,225.9,289.7,230.9z"/>
<path class="st19" d="M333.1,254.2l-10.5,0.1l-10-1.4l-4.5-6c8.8-19.2,20.7-27.3,26.5-24.2C339.1,226.4,338.6,238.6,333.1,254.2z"/>
<path class="st22" d="M107.5,131.7c-12.5-4.1-12.4-19.8,1-25.5c8.8-16.1,19.5-19.1,33.4-13.1l32.4,12.3
	c-6.3,8.9-20.1,24.7-31.6,31.5"/>
<path class="st27" d="M318.3,246c9.9,5.5,18.7-8,15.2-19.4C328.6,215.5,306.4,237.6,318.3,246z"/>
<path class="st17" d="M109.9,237.8c9.2,10.8-2.4,21-8.2,10.7c1.6-3.5,2.3-7.2,0.9-11"/>
<path class="st7" d="M365.1,285l-7.2-2.7c12.1,11.2-14.4,28.8-33.6,25.5c9.6,5.6,12.5,19.5,8.3,27.6l-2.3-8.3
	c-1.7,9.1-6,16.9-11.1,23.7c6-9.4,4.2-31.4-6-34.9c-19.2-5.9-18.1-8.9-20.1-14.9c-8-1.1-14.2-5.7-17.8-15.2l-8.8-14.6
	c3,5.4,10.1,7.4,13.1,13.3c7,14.6,18.7,9.5,27.6,12.5c25.1,10.8,61.1-9.1,43.6-38.1C358.8,264.5,362.5,275.7,365.1,285z"/>
<path class="st17" d="M132.3,244.1c-1.3,3.4-8.4,4.2-12.7,1.8"/>
<path class="st18" d="M279.7,230.1c11.8-25.2,26.9-34,45.1-31.2"/>
<path class="st18" d="M333.1,204.5c-3.8-1.8-14.1-8.3-11.1-12.5c3.3-4.1,12.6-3.3,21,9.2c-9.4-22,4.2-23.8,12.1,8.2"/>
<path class="st18" d="M291.2,244.3c-3.9-19.9-30-17.3-30.8,4c2.3-1.9,4.9-2.9,7.8-2.9c-4.3,1.2-6.4,3.3-6.4,6.2
	c-0.4,14.4,6.7,23.4,13.4,34.2c8.6,24,28,8.7,39.8,24.6"/>
<path class="st18" d="M352.9,214.1c9.6-16.3,25.7-27.1,42.5-30.5c24.2-4.2,48.3,13.2,70.3,15c9.2,0.5,11.7,7.8,6.2,12.8
	c-38.4,30.9-70.5-9.2-104.3,19.9"/>
<path class="st18" d="M373.3,227c7.2,13.9,6.1,35-3.4,50.2"/>
<path class="st18" d="M368.2,275.7c11.9,10.6,25.7,3.4,43.1,9.7c59.8,19.1,67.3,109.8-0.3,133"/>
<path class="st18" d="M334,192c6.4-36.5,54.8-36.9,82.2-55.3c14.1-9.9,16.6,16-23.2,47.5"/>
<path class="st18" d="M312.8,252.9c14.2,5.7,43.2-11.1,52.5,32.1c-2.1-2.1-5.2-2.9-8.7-3.2c4.7,0.8,5,5,3.8,8.6
	c-4.7,11.4-17.8,18.3-35.9,17.3"/>
<path class="st18" d="M291.8,211.1c-14.8-19.4-32.4-29.4-44.9-27.3"/>
<path class="st18" d="M255.7,189.1c-5.5-5.4-13.8-8.2-19.8-4.2c-1.3,3.2,10.3,13.5,13.3,12.1"/>
<path class="st18" d="M236.2,187c-3.3,13.7,17.4,19.5,30.5,47.4"/>
<path class="st28" d="M291.2,244.3c2.3-5.2,15-3.4,21.5,8.6c0.8,3.7-10.5,7.4-16.8,5.6C292.2,255.5,289.4,248.3,291.2,244.3z"/>
<path class="st29" d="M291.2,244.3c2.2,11.4,7.8,10.8,21.5,8.6c0.8,3.7-10.5,7.4-16.8,5.6C292.2,255.5,289.4,248.3,291.2,244.3z"/>
<path class="st18" d="M278.3,258.7c-0.3,6,9,12.3,16.1,6.6c0.1,14.8,20.2,18,27.4,5.6"/>
<path class="st18" d="M286.4,273.6c0.6,8.7,6.7,11,11,8.4"/>
<path class="st18" d="M320.6,267.6c3.2-0.8,4.9,2,4.4,4.3"/>
<path class="st18" d="M298.8,208.7c3.4-1.5,6.4-1.5,8.5,2.3"/>
<path class="st18" d="M335.8,214.7c3.2,1.1,5.6,3.3,5.5,7.4"/>
<ellipse transform="matrix(0.9984 -5.621362e-02 5.621362e-02 0.9984 -12.5531 18.6333)" class="st23" cx="324.9" cy="232.5" rx="5.6" ry="5.6"/>
<path class="st18" d="M308.2,246.9c8.8-19.2,20.7-27.3,26.5-24.2c4.5,3.6,4,15.9-1.5,31.5"/>
<ellipse transform="matrix(0.9984 -5.612810e-02 5.612810e-02 0.9984 -12.6922 18.7938)" class="st19" cx="328.2" cy="235.3" rx="2.4" ry="2.4"/>
<ellipse transform="matrix(0.9984 -5.635292e-02 5.635292e-02 0.9984 -13.3081 18.74)" class="st19" cx="325.6" cy="245.3" rx="2.7" ry="2.7"/>
<ellipse transform="matrix(0.9984 -5.612297e-02 5.612297e-02 0.9984 -12.52 16.8849)" class="st19" cx="294.4" cy="231.3" rx="2.3" ry="2.3"/>
<ellipse transform="matrix(0.9984 -5.594176e-02 5.594176e-02 0.9984 -11.886 16.9075)" class="st23" cx="296.1" cy="220.8" rx="5" ry="5"/>
<ellipse transform="matrix(0.9984 -5.593658e-02 5.593658e-02 0.9984 -12.0311 17.078)" class="st19" cx="299.1" cy="223.5" rx="2.2" ry="2.2"/>
<path class="st18" d="M281.5,231.8c7.6-12.8,15.8-21.2,20.3-19.6c4.6,3.1,1.4,12-5.2,29.4"/>
<path class="st18" d="M318.2,313.9c7.9,4.1,12.6,11.3,14.3,21.5"/>
<path class="st18" d="M330.2,327c-1.9,22.5-36.3,41.8-22.5,65.4"/>
<path class="st18" d="M361.5,334.3c-0.1,28.4-42.2,64.2-50.9,60.8"/>
<path class="st18" d="M293,301c-6.2,10.3-3.9,23.1,2,32.2"/>
<path class="st18" d="M295.7,329.5c-3,18.8,19.4,17.7,22,23.4"/>
<path class="st18" d="M349.8,363.9c2.5,47.4,29.4,34,27.7,59.7"/>
<path class="st18" d="M331.5,384c11.5,19,26.1,23.8,41.5,24.6"/>
<path class="st18" d="M340.2,395.3c0.8,4.7-0.1,9.9-2.5,15.6"/>
<path class="st18" d="M377.4,418c-21.7,22.7-56,9.9-60.6,30.4c0.7,2.4,5.5,5.2,7.6,4.8c3.7,2.8,8.2,4,13.3,3.5
	c25,12.9,83.5-10.7,80.7-24.4c-1.2-7.6-9.2-6.7-8-19.9"/>
<path class="st18" d="M339.6,405.3c-19.3,15.6-38.1,0.7-51.1,19.6c-0.5,2.2,1.4,5.4,3.6,5.9c1.5,2.7,5.6,4.2,9.4,3.7
	c6.9,3.8,15.7,4.6,26.3,2.4"/>
<path class="st18" d="M458.5,361.1c18.2-6.3,31.7,0,37.7,8.5c-4.3-2-9.7-1.3-13.7,1.7c4.2-1,7.8-1.1,10.4,0.3
	c-14.8,18.3-23.1,54.7-66.9,40"/>
<path class="st18" d="M311.8,376c-5.5,10.6-6.3,18.4-1.1,19.1c2.3-4.2,5.1-8.5,9.9-12.8"/>
<path class="st18" d="M304.8,420c-5.9,1.3-11.3,7-12.6,10.9"/>
<path class="st18" d="M311.4,424.7c-4.9,2.2-10.1,6.3-9.9,9.9"/>
<path class="st18" d="M333.7,440.6c-4.1,2.8-8.4,6.8-9.5,12.6"/>
<path class="st18" d="M344.3,446.4c-4.5,4-6.2,6.9-6.8,10.3"/>
<path class="st30" d="M210.1,55.4l3.9,0.8c2.4,7.1,6.1,12.2,11.3,15.2l-4.5,1.8C216.5,68.3,212.9,62.5,210.1,55.4z"/>
<path class="st31" d="M233.5,118.8c2.9,0,5.3-0.9,5.3-1.9c0-1.1-2.4-1.9-5.3-1.9c-2.9,0-5.3,0.9-5.3,1.9
	C228.1,118,230.5,118.8,233.5,118.8z"/>
<path class="st18" d="M233.5,118.8c2.9,0,5.3-0.9,5.3-1.9c0-1.1-2.4-1.9-5.3-1.9c-2.9,0-5.3,0.9-5.3,1.9
	C228.1,118,230.5,118.8,233.5,118.8z"/>
<path class="st32" d="M210.1,55.4c24.2,5.8,39.7-7.8,35.3-26C239,45.1,215.8,33.5,210.1,55.4c2.6,7.4,6.2,13.3,10.7,17.8l4.5-1.8
	c-4.9-3.2-8.7-8.3-11.3-15.2"/>
<path class="st15" d="M210.1,55.4c5.7-21.9,28.9-10.2,35.3-26 M232.6,114.8c19.7,6.7,42.8-11.8,35.1-37.5
	c-7.1-24.2-36.3-23.1-46.9-4.2c-4.5-4.5-8.1-10.5-10.7-17.8"/>
<path class="st33" d="M350.1,262.7c-8.5-2-15.6-4.5-26.1-5.2C335.2,254.5,346.7,257.6,350.1,262.7z"/>
<path class="st34" d="M418.8,202.4c-12.1-0.8-23.7,1.2-36.7,6C393.4,200,405.7,198.4,418.8,202.4z"/>
<path class="st7" d="M374.2,159.8c-9.9,3.1-26.2,13.6-33.4,22.8C344.8,171,362,159.9,374.2,159.8z"/>
<path class="st7" d="M426.6,192.2c-9.8-3.6-29-5.3-40.4-2.4C396.6,183,416.9,184.8,426.6,192.2z"/>
<path class="st3" d="M255.8,187.1c11.8,6.3,23.2,16,31.1,25.4C281.2,198.4,269.7,188.4,255.8,187.1z"/>
<path class="st7" d="M400.7,288.8c12.6,2.5,22.9,9,33,19.3C427.2,294.4,415.7,287.2,400.7,288.8z"/>
<path class="st33" d="M315,345.4c-6.8-3.2-12-8.2-16.7-15.6C297.4,340.2,306.4,344.1,315,345.4z"/>
<path class="st5" d="M364.1,403.8c-10.8-4.4-16.9-7.8-26.7-17.2C342.8,397.5,354.1,403.1,364.1,403.8z"/>
<path class="st33" d="M447.6,411.2c10.1-2.6,18.2-8.3,25.9-17.2C468.8,405.5,459.8,411.8,447.6,411.2z"/>
<path class="st35" d="M291.2,244.3c2.3-5.2,15-3.4,21.5,8.6c0.8,3.7-10.5,7.4-16.8,5.6C292.2,255.5,289.4,248.3,291.2,244.3z"/>
<path class="st0" d="M308.7,71.6c0-7.7,5.8-19.8,15.4-19.8C324.9,51.8,322,66.9,308.7,71.6z"/>
<path class="st0" d="M228.9,334c0,7.7,5.8,19.8,15.4,19.8C245.2,353.8,242.2,338.8,228.9,334z"/>
<path class="st0" d="M20.4,110.6c-7.6-1.3-18.5-9.1-16.9-18.5C3.7,91.2,18,96.7,20.4,110.6z"/>
<path class="st0" d="M315,72.1c8.3-0.7,23.3,2.3,22.3,3.3C331.5,81.2,319,78.6,315,72.1z"/>
<path class="st0" d="M235.2,333.6c10.9,1,30.8-3,29.5-4.3C257,321.5,240.6,324.9,235.2,333.6z"/>
<path class="st0" d="M68.4,31.9c-5.1-3.8-11-19.3-2.6-22.8l0.6-0.3l0.3-0.3v0.6C70,14.7,69.9,24.5,68.4,31.9z"/>
<path class="st0" d="M60.6,319.3c-2.9,4.5-15.5,10.5-19.1,3.7l-0.3-0.5l-0.3-0.2h0.5C46,319.1,54.3,318.6,60.6,319.3z"/>
<path class="st0" d="M64.9,38.8C64.1,35.7,53.5,13.6,49.1,18C42.9,24.2,56.5,38.8,64.9,38.8z"/>
<path class="st0" d="M66.6,321.8c-2.5,0.8-20.6,11.3-16.5,14.8C55.8,341.4,67.2,329,66.6,321.8z"/>
</svg>
