<?xml version="1.0" encoding="utf-8"?>
<!-- Generator: Adobe Illustrator 21.1.0, SVG Export Plug-In . SVG Version: 6.00 Build 0)  -->
<svg version="1.1" id="Layer_1" xmlns="http://www.w3.org/2000/svg" xmlns:xlink="http://www.w3.org/1999/xlink" x="0px" y="0px"
	 viewBox="0 0 515 418" style="enable-background:new 0 0 515 418;" xml:space="preserve">
<style type="text/css">
	.st0{fill-rule:evenodd;clip-rule:evenodd;fill:#F1C078;}
	.st1{fill-rule:evenodd;clip-rule:evenodd;fill:#F7CA8F;}
	.st2{fill:none;stroke:#D1822F;stroke-width:1.6992;stroke-linecap:round;stroke-linejoin:round;stroke-miterlimit:22.9256;}
	.st3{fill-rule:evenodd;clip-rule:evenodd;fill:#A35939;}
	.st4{fill-rule:evenodd;clip-rule:evenodd;fill:#626261;}
	.st5{fill-rule:evenodd;clip-rule:evenodd;fill:#3B3A39;}
	.st6{fill-rule:evenodd;clip-rule:evenodd;fill:#919191;}
	.st7{fill-rule:evenodd;clip-rule:evenodd;fill:#9B9B9B;}
	.st8{fill-rule:evenodd;clip-rule:evenodd;fill:#FFFFFF;}
	.st9{fill-rule:evenodd;clip-rule:evenodd;fill:#CA6C32;}
	.st10{fill-rule:evenodd;clip-rule:evenodd;fill:#A24B2A;}
	.st11{fill:none;stroke:#783529;stroke-width:1.6992;stroke-linecap:round;stroke-linejoin:round;stroke-miterlimit:22.9256;}
	.st12{fill-rule:evenodd;clip-rule:evenodd;fill:#1A1A18;}
	.st13{fill:none;stroke:#1A1A18;stroke-width:1.6992;stroke-linecap:round;stroke-linejoin:round;stroke-miterlimit:22.9256;}
	.st14{fill-rule:evenodd;clip-rule:evenodd;fill:#C5C5C6;}
	.st15{fill-rule:evenodd;clip-rule:evenodd;fill:#E29769;}
</style>
<path class="st0" d="M382.3,267.5c-7.3,2.1-11.5,2-12.4-0.2c4.7,9.3,7.2,18.5,7.5,27.8c-10.7-2.7-22.2-14.1-32-8.1
	c-11.3-2.5-15.6,1.3-15.3,9.4c-6,2.1-4.5,9.8-1,9.3c14.1-2.3,32.4-3.5,54.4-3.9c7.1,0.1,5-5.8-0.1-7
	C384.8,285.3,384.6,276.2,382.3,267.5z"/>
<path class="st1" d="M408.1,268.1L404,271l-8.5,2.4c5.5,9.6,8.4,19.9,8.7,30.9c-19.3-2.5-26.8,1.4-29,8.1c-8.2,2.1-7.1,7-1.7,13.1
	l2.3-2.2c-1,3.6,8.1,8.9,13.9,5.1c12.6-10.8,21.2-17.2,34.6-17.3c2.8,0.5,3.8-4.3,0.3-5c-3.5-1.1-7.7-1.8-12.7-2.1
	C413.7,291.6,413.4,279.1,408.1,268.1z"/>
<path class="st2" d="M360.1,292.5l-14.6-5.6c12.5-5,21.3,5.4,32,8.1c-0.2-9.1-2.4-18.3-7.5-27.8"/>
<path class="st2" d="M347.1,295.4l-16.8,1c-0.3-7.7,6.8-12,15.3-9.4"/>
<path class="st2" d="M330.2,296.4c-6,2.1-4.5,9.8-1,9.3c14.1-2.3,32.4-3.5,54.4-3.9c7.1,0.1,5-5.8-0.1-7c1.2-9.5,1-18.6-1.3-27.3"/>
<path class="st2" d="M395.5,273.4c7,11.7,9,23.1,8.7,34.4"/>
<path class="st2" d="M404.2,304.2c-22.2-1.2-29.7,2.1-29,8.1"/>
<path class="st2" d="M396,313.3c-10.4,3.5-18.3,7.5-22.6,12.1c-7.5-8.3-4.7-13.7,15.8-15.6"/>
<path class="st2" d="M375.8,323.3c-1,3.6,8.1,8.9,13.9,5.1c12.6-10.8,21.2-17.2,34.6-17.3c2.8,0.5,3.8-4.3,0.3-5
	c-3.5-1.1-7.7-1.8-12.7-2.1c1.9-12.3,1.5-24.9-3.8-35.8"/>
<path class="st3" d="M427.9,225.9l4.3-20.1c4.4,3,9.6,5.5,15.5,7.6C441.7,219.4,435.2,223.5,427.9,225.9z"/>
<path class="st4" d="M432.5,224.1l6-3.3l9.1-7.4l-12.6-5.8c11.5,0.4,30.8-18.5,58.8-41.5c-1.4,8-4.5,17.4-2.8,24
	c3.1,4.3,10.7,7.4,22.7,9.2C497.9,220.7,451.4,236.4,432.5,224.1z"/>
<path class="st5" d="M444.9,228.2l-3.4-6l-2.9-7l-3.5-7.7c11.5,0.4,11-1.9,39.1-25c-8.1,6.8-14.8,22.5-9.3,27.9
	c3.1,4.3,26,6.9,49-11.3C497.9,220.7,463.3,230.4,444.9,228.2z"/>
<path class="st4" d="M361.8,205.3l-9.6-37l18.6-10.5l45.6,12.1c24.4,25.9,16.9,67.3,50.8,73.6C450.1,258.7,382.4,255.5,361.8,205.3z
	"/>
<path class="st5" d="M421.8,213.4c-15.6,27.3-40.6-28.1-27-44.8l10.9,1.4l10.6-0.2c7,9.1,13.3,21.2,14.9,25
	C434.4,207,429.8,211.8,421.8,213.4z"/>
<path class="st6" d="M349.2,137.3l46.6-17.5c29.3-2.7,44.2,13.3,46.1,26.8c-2.8-2-5.6-2.9-8.4-3.2
	C441.5,174.6,386.6,185.2,349.2,137.3z"/>
<path class="st4" d="M349.2,137.3l37.5,8.6c23.1,13.1,44.9-2.5,37.7-21.6c5.9,4.7,15.6,8.8,17.5,22.2c-2.8-2-5.6-2.9-8.4-3.2
	C441.5,174.6,386.6,185.2,349.2,137.3z"/>
<path class="st4" d="M370.8,157.8l-21.6-20.5c-64.7-5.8-78.7,109.7,20.1,113.4c5,6.5,18.5,19.6,26.2,22.8c11-2.2,17.4-6.8,13.3-16.3
	l9.3-7.8c-33.2-7.9-48-24.5-56.2-44.2C358,185.4,360.1,169,370.8,157.8z"/>
<path class="st5" d="M395,241.1c-22.3,6.1-44.6,5-66.8-1c7.3,4.5,17.5,7.9,31.9,9.7l-6.4-0.5c4.8,7.2,12.3,16.1,16.4,18.1
	c2.2,2,7,1.8,14.5-0.4l-2.2-2.8c4.7,4.1,9.6,7.8,13.2,9.3c11-2.2,17.4-6.8,13.3-16.3l9.3-7.8l-11.4-3.2L395,241.1z"/>
<path class="st7" d="M370.8,157.8l-11.7-9.6l-9.9-11c-67.7-5.8-77.2,110.5,35.9,97.6l-13.2-12.2l-10.1-17.4
	C358,185.4,360.1,169,370.8,157.8z"/>
<path class="st4" d="M360.5,93.4l35.3,26.3c17.2-1.5,30.7,3.2,40.5,14.2c12.7-17.9,16.2-35.4,1.1-52.3c-2.1-4.8-15.1-12.6-15.1-12.4
	C394.6,57.6,371.4,66.9,360.5,93.4z"/>
<path class="st5" d="M424.3,124.4l11.8,9.5c13.6-17.2,11.7-26.1,10.2-34.7c0.1-3.7,5.3-4.9,7.9-7.3L449,91l-5.3,1.3
	c3.4-3.4,4.6-6.8,3.5-10.2l-6.2,4.8l-4.6-6.4l-8.4-7.8C436,85.6,438,110,424.3,124.4z"/>
<path class="st8" d="M406.7,119.7l-11,0.1c-0.8-6.9-3-13.3-7.3-19.1c9-11.8,18.6-15,23.6-11.2C416,92.7,414.8,106.6,406.7,119.7z"/>
<path class="st9" d="M399,119.6l-3.3,0.1l-1.4-7.5l-4.2-9.1c5.8-10.2,12.7-12.4,17-9.1C410.6,96.8,409.7,111.2,399,119.6z"/>
<path class="st8" d="M383.6,96.8c-5.4-2.6-11.4-3.4-17.7-3.4c7-14.7,17-19.6,21.7-16.2C391.1,79.9,389.2,88.8,383.6,96.8z"/>
<path class="st9" d="M379.5,95.1L366,93.4l3.1-5.7c4.3-6.7,11.4-10,14.9-7.2C387,82.7,384.2,91.4,379.5,95.1z"/>
<path class="st9" d="M395.7,119.8c-2.1-17.6-11.2-27.6-30.5-26.4L329.7,93c5.4,18.4,10.5,34,19.4,44.2c7.1,10.6,26.1,12.8,37.5,8.6
	C402.6,147.4,406.3,128.5,395.7,119.8z"/>
<path class="st10" d="M329.8,93.1c5.4,18.4,10.5,34,19.4,44.2c7.9,10.3,20.4,13.2,37.5,8.6c11-3.4,11.1-20.7-2.4-20.3
	C380.5,141.1,337.3,116.2,329.8,93.1z"/>
<path class="st11" d="M384.3,125.7c1.9,0.9,3,3.9,2,5.8"/>
<circle class="st12" cx="395.6" cy="103" r="5"/>
<ellipse class="st12" cx="373.9" cy="89.7" rx="4.3" ry="4.3"/>
<circle class="st8" cx="399.2" cy="101.5" r="2.6"/>
<ellipse class="st8" cx="377.2" cy="88.3" rx="2.3" ry="2.3"/>
<circle class="st8" cx="402.7" cy="113.5" r="2.4"/>
<path class="st13" d="M353.6,249.3c4.8,7.2,12.3,16.1,16.4,18.1c2.2,2,7,1.8,14.5-0.4 M418.1,249.5c-2.3,3.2-5.9,5.6-9.3,7.8
	c3.7,8.9-0.8,14.3-13.3,16.3c-3.7,0.8-15.6-9.8-19.9-16 M349.2,137.3c-76.7-4.9-70,131.8,43,111.3 M435.8,207.7
	c12.4-0.4,32.2-17.9,58-41.6c-1.4,8-4.4,17.4-2.7,24c3.1,4.3,10.7,7.4,22.7,9.1c-13,17.8-46.4,31.8-68.9,29 M440.9,220.8
	c8.6-1,23.6-3.2,37.4-12.4 M438.6,215.2c9.9-3.4,19.7-8.8,29.3-16 M404.5,225.6c12.9,15.5,31.1,23.3,49.9,24 M421.8,213.4
	c10.4,18.1,22.7,26.2,36.3,27.3 M385,234.9c7.7,5,18.4-0.5,19.4-9.3c11,5.5,20.3-2.6,17.4-12.2c11.5-0.9,11.8-12,9.3-18.6
	 M416.2,169.8c24.4,25.9,16.9,67.3,50.8,73.6c-16.9,15.2-84.6,11.9-105.2-38.3 M440.6,86.3c-18.3-29.5-63.5-32.8-80.2,7.1 M441,86.8
	c1.9-0.8,4.7-3.4,6.2-4.8c1.8,4.8-2.5,9.8-6.9,12.5c4.6-4.3,11.3-4.2,13.9-2.8c-4.5,3.7-8.8,3.7-7.8,9.3
	c1.8,10.3-1.5,22.4-10.3,32.7 M395.7,119.8c29.3-2.7,44.2,13.3,46.1,26.8c-2.8-2-5.6-2.9-8.4-3.2c8.1,31.3-46.9,41.8-84.2-6.1
	 M386.4,72.6c2.4-0.4,5.4,0.6,5.9,4 M418.5,88.9c1.5,1.8,3,5.8,2.8,8.8 M388.4,100.7c9-11.8,18.6-15,23.6-11.2
	c4.1,3.2,2.8,17-5.3,30.1 M366,93.4c7-14.7,17-19.6,21.7-16.2c3.5,2.7,1.6,11.5-4,19.6"/>
<path class="st13" d="M354,179.1c-2.6,1.9-6.3,0.8-7.1-2.5 M335.9,178c-2.1,0.9-4.5-0.4-4.6-2.8 M325.1,168.2
	c-1.6,0.7-3.4-0.3-3.5-2.1 M320.1,189.9c-1.4,1-3.4,0.4-3.8-1.4 M330.6,199.5c-1.9,1.4-4.5,0.5-5.1-1.8 M329,214.2
	c-1.4,1-3.4,0.4-3.8-1.4 M340.8,167c-3.7,1.6-7.9-0.8-8.1-4.9"/>
<path class="st11" d="M331.3,98.8c16.7,22.4,39,34.9,50.3,31.4"/>
<circle class="st10" cx="378.1" cy="109" r="3.5"/>
<path class="st14" d="M306.3,180.7c2.6-11.8,8.3-22.1,17.6-32.6C310.8,155.9,305.5,167,306.3,180.7z"/>
<path class="st15" d="M368.5,95.9c8.9,2,16.7,6.5,22.6,14.2C387.6,99.9,379.3,95,368.5,95.9z"/>
<path class="st4" d="M411.1,218.9c-7.5-8.8-12.5-19.4-15.9-33.3C394.8,201,400.4,211.9,411.1,218.9z"/>
<path class="st6" d="M395.2,162.8c8.6,2.8,26.2,0.1,33.5-5.7C421.9,169,403.9,169.1,395.2,162.8z"/>
<path class="st7" d="M504.5,200.8c-11.9-2.4-17.4-7.4-17.5-18.8C483,195.8,488.1,201.5,504.5,200.8z M385.7,70.6
	c9.2-2.8,18.5-2.5,29.3,0.5C404.7,64.1,395,64.3,385.7,70.6z"/>
<path class="st11" d="M386.7,146c14.2,0.8,20.4-15,9.1-26.1c-2.4-19.7-12-26.9-28.4-26.4l-37.5-0.4c2.8,11.5,10.5,32.8,19.4,44.2"/>
</svg>
