<?xml version="1.0" encoding="utf-8"?>
<!-- Generator: Adobe Illustrator 21.1.0, SVG Export Plug-In . SVG Version: 6.00 Build 0)  -->
<svg version="1.1" id="Layer_1" xmlns="http://www.w3.org/2000/svg" xmlns:xlink="http://www.w3.org/1999/xlink" x="0px" y="0px"
	 viewBox="0 0 515 418" style="enable-background:new 0 0 515 418;" xml:space="preserve">
<style type="text/css">
	.st0{fill-rule:evenodd;clip-rule:evenodd;fill:#D88F55;}
	.st1{fill:none;stroke:#822E2D;stroke-width:1.6992;stroke-linecap:round;stroke-linejoin:round;stroke-miterlimit:22.9256;}
	.st2{fill-rule:evenodd;clip-rule:evenodd;fill:#F5A87D;}
	.st3{fill-rule:evenodd;clip-rule:evenodd;fill:#FACCAF;}
	.st4{fill-rule:evenodd;clip-rule:evenodd;fill:#A35939;}
	.st5{fill-rule:evenodd;clip-rule:evenodd;fill:#008DD0;}
	.st6{fill:none;stroke:#009DDA;stroke-width:1.6992;stroke-linecap:round;stroke-linejoin:round;stroke-miterlimit:22.9256;}
	.st7{fill-rule:evenodd;clip-rule:evenodd;fill:#BB8EC0;}
	.st8{fill-rule:evenodd;clip-rule:evenodd;fill:#9D60A3;}
	.st9{fill-rule:evenodd;clip-rule:evenodd;fill:#D0B2D5;}
	.st10{fill-rule:evenodd;clip-rule:evenodd;fill:#FBD2B6;}
	.st11{fill-rule:evenodd;clip-rule:evenodd;fill:#EDB581;}
	.st12{fill-rule:evenodd;clip-rule:evenodd;fill:#C19CC8;}
	.st13{fill-rule:evenodd;clip-rule:evenodd;fill:#F5B0B4;}
	.st14{fill-rule:evenodd;clip-rule:evenodd;fill:#E2D2E8;}
	.st15{fill-rule:evenodd;clip-rule:evenodd;fill:#FFFFFF;}
	.st16{fill-rule:evenodd;clip-rule:evenodd;fill:#D3ECFB;}
	.st17{fill:none;stroke:#6C3579;stroke-width:1.6992;stroke-linecap:round;stroke-linejoin:round;stroke-miterlimit:22.9256;}
	.st18{fill-rule:evenodd;clip-rule:evenodd;fill:#1A1A18;}
	.st19{fill-rule:evenodd;clip-rule:evenodd;fill:#FDEBDB;}
	.st20{fill-rule:evenodd;clip-rule:evenodd;fill:#FDF1E7;}
	.st21{fill-rule:evenodd;clip-rule:evenodd;fill:#A0D8F7;}
	.st22{fill:none;stroke:#009DDA;stroke-width:1.6993;stroke-linecap:round;stroke-linejoin:round;stroke-miterlimit:22.9256;}
</style>
<path class="st0" d="M71.3,284.4l5.4,8.6c-11.2,3.9-17.4,15-22.9,30.3C52.9,304.4,61.1,292.4,71.3,284.4z"/>
<path class="st1" d="M76.1,292.9c-9.4,6.1-16.9,15.1-22.3,30.5c-1-17.1,6.1-31.6,17.5-38.9"/>
<path class="st2" d="M95.2,301.4l18.4,7.8c-3.3,31.1-2.4,49.9,2.9,63.9l-4.6-0.6l-2.9,4.5C96.5,362.8,92.6,322.6,95.2,301.4z"/>
<path class="st3" d="M113.5,309.2c-3.3,31.1-2.4,49.9,2.9,63.9l-4.6-0.6l1.4,0.2C97.5,354.8,99.8,319.3,113.5,309.2z"/>
<path class="st4" d="M104.9,370.9c1.9-3.6,6-6.2,9.6-3.7c0.6,2.6,1,3.7,1.9,5.9l-4.6-0.6l-2.9,4.5
	C107.4,375,106.4,373.7,104.9,370.9z"/>
<path class="st5" d="M251.3,181.7l-5.2,22.3c-4.8,5.6-9,11.7-13.3,19.9l-0.6-10.2l-8,6.1C233.2,198.6,248.5,182.7,251.3,181.7z"/>
<path class="st6" d="M246.1,204c-4.8,5.6-9,11.7-13.3,19.9l-0.6-10.2l-8,6.1c9.1-21.2,24.4-37.1,27.1-38.1"/>
<path class="st2" d="M164.2,308.9l-21.4,6.4c1.3,32.7,1.9,53.1,10.2,57.3l1.9-5.3l5.6,0.4C158.2,355.5,160.8,338.1,164.2,308.9z"/>
<path class="st2" d="M193.6,199.5l-1.5-10.7l4-2.7l4.2-6.5c9.9,7.9,39,9.7,55.1-0.6l-2.7,7.3l4.9,2.7
	C236.9,202.7,209.6,205.4,193.6,199.5z"/>
<path class="st3" d="M164.2,309l-7.7,4.3c1.3,32.7-9.8,34.3-5.4,49.1h8.5C158.5,337.7,162.1,334.4,164.2,309z"/>
<path class="st3" d="M196.1,186.1l4.2-6.5c9.9,7.9,39,9.7,55.1-0.6l-6.9,3.4C246.5,196.7,204.4,194.9,196.1,186.1z"/>
<path class="st7" d="M113.7,314.8l-0.1-5.6c-5.4,0.9-11.6-1.7-18.5-7.8l-0.5,6.8c-5.7-0.5-8.6-5.2-10.2-9.5
	c-6.7-2.2-12.1-8-14.6-21.8c-6.2-6.8-10.5-12.8-10.2-27l2.5-9.5c-5.5-7.4-1.9-28.1,1.8-36.1l129.8-4.9c4.2,5,7.2,16.7,4,22.9
	c6.2,7.5,7.5,15.2,4,22.9c1.6,13.2-5.5,28.4-12.8,33.1c1.2,9.9-7.4,22.5-18.2,22.1c-1.5,7.5-15.8,16.7-27.9,14.9
	C134.4,318.7,121,318.6,113.7,314.8z"/>
<path class="st8" d="M113.7,314.8l-0.1-5.6c-5.1,0.9-12-1.7-18.5-7.4l-0.5,6.4c-5.4-0.4-9.6-6.3-11.1-10.3c-6.3-2-9.2-15.3-6.5-18.8
	c-11.1-12.3-15.6-15.1-15-38.7c-4.7-9.3,1.4-48.1,17.6-41.4L99.2,216l-1.7,6.6c-4.5,12.4,1.7,20.5,11.9,23.5
	c-6.7,4.4-7.7,14.1-4.3,19.6c-3.8,5.5-1.4,11.5,4,12.3c1.9,11,18.9,10,23.5,4.1c4.1,8.8,35.5,20,50.8-2.1
	c1.2,9.4-7.9,15.6-16.8,17.9c-1.4,7.1-12.6,19.1-24,17.4C134.9,318.5,120.6,318.4,113.7,314.8z"/>
<path class="st9" d="M197.3,162L90.5,137.8l-32.7,25.6c-3.2,13.9-0.2,22.7,5.6,29.1l4.5-4.9c0.2,3.8-2.1,13.6,7.5,17.2l8.5,5
	c2.7,5,7.8,7.1,15.5,6.3c-5.4,9.8,2.4,18,14.1,10.4c5.2,13.3,29.8,12.2,34.1-1.4c23.5,13.6,53.4-11.5,44.7-36.3
	C201.2,184.6,204.9,171.5,197.3,162z"/>
<path class="st7" d="M90.5,137.8l-32.7,25.6c-3.2,13.9-3.7,25,5.6,29.1c-2.3,5-3.7,12.3,4,14.8c1.3,10,11.3,8.6,16.5,8.3
	c5.6-0.6,13.3-6.2,16-9.7c-11.6,5-20.3,1.4-20.3-6.6c-11.3-1.9-11-19.7,2.4-26.4c6.4-8.4,19.4,10.8,21.8,0.8
	C94.5,164.2,111.1,154.3,90.5,137.8z"/>
<path class="st10" d="M191,88.4l-39-31.3l2.5-32.1C194.3,8.1,227.2,62,191,88.4z"/>
<path class="st7" d="M109,144.7c-6.1,11.1-19.3,18.9-30.3,20.4c2.2,3.7,1.6,11.3,16.6,20.8C104,177,111.9,158.8,109,144.7z"/>
<path class="st11" d="M191,88.4l-46.4-17.9l2.4-30.2C192.3,25.6,216,67.4,191,88.4z"/>
<path class="st7" d="M185.6,165.9c-8.8,13.9-40.7,25.9-77.7-5.5l1.3-17.8c8.3-19.9-5.8-39.3-22.1-41.1c5.9,1.1,10.4-0.8,13.6-5.7
	l40.1-50.8l18.2,9.6c13.8,6.8,27.2,22.4,35.1,39.5c19.8,14.8,20.5,53.9,11.6,61.9C201.1,160.5,194.2,164.2,185.6,165.9z"/>
<path class="st8" d="M114.1,165l-5.7-4l0.1-10.3c-4.8,11.4-18.7,18-28.7,14.1l29.3-22.2c8.3-19.9-5.8-39.3-22.1-41.1
	c5.9,1.1,10.4-0.8,13.6-5.7L152,57.2c1.9,16.9-6.4,27.4-19.8,27c0,6.6-3.9,10.2-9.2,12.6c-7,10.6-0.4,22.7,8.7,32.6l-8.8,5.3
	C134.5,134.2,121.2,160.3,114.1,165z"/>
<path class="st1" d="M154.5,25.1c39.8-17,72.7,37,36.5,63.3"/>
<path class="st9" d="M128,79.4c-1.5,9.7-8.4,17.1-26.4,16C106.9,74.2,98.9,59,61,61.7c-1.1-11.2,1.3-18,10.9-23.2
	c0.6-26.4,44.7-32.3,49.2-18.9c6.2-8.3,23.1-5.3,23,6.4c20-8.9,35.6,24.6,7.9,31.1C153.7,67.4,145,79.1,128,79.4z"/>
<path class="st12" d="M117.8,71.7c3.2,9.4-5.6,19.3-21,18.3c4.6-18.1-3.5-25.9-35.9-23.5c-2.4-13.8,11.1-21.8,19.6-19.9
	c0.5-22.7,28.8-23.2,34.9-15c5.3-7.1,16.5-3.5,16.7,4.4c16.8-6.8,24.1,19.8,5.7,23.3C139.3,68.1,128.2,75.3,117.8,71.7z"/>
<path class="st7" d="M186.7,81.3c-6-9.2-12.9-16.5-20.5-22.2C183.6,49,200.7,54,215.8,56C211.8,68.5,202.4,83.3,186.7,81.3z"/>
<path class="st8" d="M186.7,81.3c-6-9.2-7.1-11.8-14.7-17.4c17.4-10.2,30.6-2.7,43.9-7.9C211.8,68.5,202.4,83.3,186.7,81.3z"/>
<path class="st13" d="M181.8,75.1l-5-6.6c2.6-4,25.4-6,24.3,0.8C200,76.2,181.3,76.7,181.8,75.1z"/>
<path class="st14" d="M154.4,106.7c-5.6-7-12-10.7-21.4-13.4C140.8,90.8,150.1,97.1,154.4,106.7z M183.5,86.8
	c-2.8-7.8-10.6-15.2-18.6-13.5C172,74.7,179.3,81,183.5,86.8z M207.1,126c-2.1-10.1-6.3-32.8-27.8-24
	C199.4,86.2,207.9,114.2,207.1,126z M105.1,156.4c-1.6,8.8-5.7,20.1-10.9,25.3C102.8,177.3,106.5,165.7,105.1,156.4z M187.4,139.6
	c9.2,1.4,15.7-3,15.9-10.1C205.1,140.1,198.5,144.9,187.4,139.6z"/>
<path class="st10" d="M87.1,101.6c7.8-0.6,19.3,9,22.8,20c7,21.2-9.8,39.3-29.9,43.3c-37.5,6.3-60.8-32.6-53.2-64.9
	C33.2,66,73.9,49.9,98.1,70.2C108.2,81.4,104.2,103.8,87.1,101.6z"/>
<path class="st11" d="M87.1,101.6c-20.4-3-36.3,13.1-37.1,26.9c2-19.2,39.2-19,36.2,1.7c-2.2,16.4-35.5,20.4-42.6-6.5
	c-6.8-25,20.8-47.2,48-39C101.1,88.3,97.9,101.3,87.1,101.6z"/>
<path class="st15" d="M145,128.1l-7.6-0.2c-11-9.6-13.7-23.8-10.8-28.4c6.2-7.5,25.2,2.1,29.6,15.3
	C157.3,117.9,152.6,126.2,145,128.1z"/>
<path class="st1" d="M113.6,309.2c-3.3,31.1-2.5,49.9,2.8,63.9l-4.6-0.6l-2.9,4.5c-6.8-8.8-16.9-34-13.7-75.1"/>
<path class="st2" d="M86.1,214.9c-4.2,2.3-9.4,2.1-15.8-1.8c-0.7,23.5,18.1,53.5,32.9,60.7l0.8-5.9l5.1-1.9
	C93.3,251.6,85.4,229.6,86.1,214.9z"/>
<path class="st3" d="M86.1,214.9c-4.2,2.3-5.9,3.9-5.9,8.6c-0.7,23.5,13.1,38.3,23.3,48.6l0.6-4.2l5.1-1.9
	C93.3,251.6,85.4,229.6,86.1,214.9z"/>
<path class="st16" d="M133.8,105.3c7.5-6.6,20.3,0,22.5,11.4l-4.3,7.4l-7,4.1l-2.8-0.4C136.5,125.1,127.4,110.5,133.8,105.3z"/>
<path class="st15" d="M184.4,95.7l0.7-0.3c-4.2,1.3-7,3.5-10.3,7.6c-10.1-2.2-19.4-20.4-14.4-25.9C166.2,73.5,177.4,78.3,184.4,95.7
	z"/>
<path class="st4" d="M104.1,261.1c-3.8,0.7-6.7,2-7.8,8.3c2.2,2.4,4.6,3.4,6.8,4.6l1.7-6.3l4.2-1.6
	C107.7,264.1,105.5,263,104.1,261.1z"/>
<path class="st16" d="M166.2,84.4c6.4-5.4,14.9,2.8,18,11.2l-7.6,5.3C170.7,99.6,161.6,89.4,166.2,84.4z"/>
<path class="st1" d="M245.4,195.6c-18.3,7.8-38.8,8.7-51.8,3.9 M200.3,179.6c9.9,7.9,39,9.7,55.1-0.6l-2.7,7.3l4.9,2.7
	c-1.3,0.9-2.5,1.6-3.9,2.4"/>
<path class="st4" d="M249.3,193.5c-3.2-2.1-4.1-5.6-2.1-10.6c3.3-0.3,4.1-2.1,8.2-3.9l-2.7,7.3l4.9,2.7
	C254.9,190.7,252.2,192.2,249.3,193.5z"/>
<path class="st1" d="M70.3,213.2c-0.7,23.5,18.1,53.6,32.9,60.7l0.8-5.9l5.1-1.9c-15.8-14.5-23.7-36.5-23.1-51.1"/>
<path class="st4" d="M159.5,362.5c-5.6-2.2-9.8-0.2-12.2,3.3c1.1,4.2,4.4,4.7,5.7,7l1.9-5.3l5.6,0.4
	C160.4,365.2,159.6,365.8,159.5,362.5z"/>
<path class="st1" d="M142.8,315.4c3.8,32.5-1,50.9,10.2,57.3l1.9-5.3l5.6,0.4c-2.9-6.3,0.2-30.2,3.6-58.9"/>
<path class="st17" d="M201.5,245.3c1.6,13.2-5.5,28.4-12.8,33.1c1.2,9.9-7.4,22.5-18.2,22.1c-1.5,7.5-15.8,16.7-27.9,14.9
	c-7.9,3.2-20.6,3.2-28.1-0.1 M193.6,199.5c4.6,6.4,5.9,14.7,4,22.9c5.3,4.1,7.8,15.3,4,22.9 M88.3,214.3c2.8,1.8,6.3,2.2,11.1,1.8
	c-5.4,9.8,2.4,18,14.1,10.4c5.2,13.3,29.8,12.2,34.1-1.4c23.5,13.6,53.4-11.5,44.7-36.3c9.1-4.2,12.8-17.2,5.2-26.8 M93.3,210.9
	c-7.9,7.7-26,6.6-26-3.7 M57.8,163.3c-3.4,8.3-3.6,25.7,5.6,29.1c-5,7.3,1.5,19.7,12,12.3 M93.2,307.9c-4.7-1.2-8.4-5.3-9.6-10
	c-6.6-1.7-13.8-13.7-13.7-21c-7.1-4.3-13.1-19.9-7.7-36.6c-4.1-9.2-4.8-20.5,1.8-36.1"/>
<path class="st1" d="M105.5,371.5c-0.1-2.4,3.3-6.9,9-4.4"/>
<ellipse transform="matrix(0.9998 -2.128637e-02 2.128637e-02 0.9998 -2.4374 3.2024)" class="st18" cx="149.2" cy="116.1" rx="6.7" ry="6.7"/>
<ellipse transform="matrix(0.9998 -2.147366e-02 2.147366e-02 0.9998 -2.4555 3.1127)" class="st15" cx="143.7" cy="115.9" rx="3.1" ry="3.1"/>
<ellipse transform="matrix(0.9998 -2.130572e-02 2.130572e-02 0.9998 -2.3028 2.859)" class="st15" cx="133" cy="109.5" rx="3.1" ry="3.1"/>
<path class="st17" d="M79.9,164.8c1.3,9.5,8.6,19.6,15.6,21c7.3-6,14.6-22.1,13.7-43.2"/>
<path class="st1" d="M104.1,261.1c-4.1,0.3-8.2,4.4-7.1,8.9"/>
<path class="st1" d="M147.8,367.1c-1.8-3.1,7-8,11.6-4.7"/>
<ellipse transform="matrix(0.9998 -2.168244e-02 2.168244e-02 0.9998 -1.8542 3.6305)" class="st15" cx="166.5" cy="87.3" rx="2.7" ry="2.7"/>
<ellipse transform="matrix(0.9998 -2.159875e-02 2.159875e-02 0.9998 -1.9655 3.8486)" class="st18" cx="177.2" cy="92.9" rx="5.7" ry="5.7"/>
<ellipse transform="matrix(0.9998 -2.168244e-02 2.168244e-02 0.9998 -1.9937 3.749)" class="st15" cx="171.9" cy="93.8" rx="2.7" ry="2.7"/>
<path class="st1" d="M57.7,84.5c-0.8-6.6-6.6-11.1-11.6-10.6"/>
<path class="st1" d="M47.2,86.4c-0.4-3.7-3.7-6.3-6.5-6"/>
<path class="st1" d="M49.9,128.5c7.7-5.9,30.7-11.5,31.8,1.4"/>
<path class="st1" d="M247.2,182.9c-2.9,5-0.7,8.6,2.1,10.9"/>
<path class="st19" d="M88.4,68.7c-11.5-2.2-23-1.6-36.2,1.8C64.5,63.3,76.6,63.1,88.4,68.7z"/>
<path class="st20" d="M92.2,156.2c8.5-7.6,13.5-16.5,15.4-28.7C109.3,142.1,101.9,150.9,92.2,156.2z"/>
<path class="st1" d="M91.9,108.2c-2.4-0.1-4.2,1.9-4.3,3.4"/>
<path class="st1" d="M98,113.2c-2.1-0.5-4.9,1-5.7,3.6"/>
<path class="st21" d="M255.4,263.8c2.9-26.5,1.9-56.9-4-82.5l-8.2,2.8c3.4,11,5.7,45.4,3.5,78.3
	C246.6,265.2,255.1,266.9,255.4,263.8z"/>
<path class="st6" d="M255.4,263.8c4-11.6,1.1-70.3-4.2-82.5c-2.8,1.3-5.4,2.2-7.9,2.8"/>
<path class="st6" d="M243.2,184.1c3.4,11,5.7,45.4,3.5,78.3c0.1,3.9,8.3,4.5,8.7,1.4"/>
<path class="st21" d="M249.7,287l-3.7-6.3c-8.6,8.1-17.6,11.6-20,8.6c-3.5-4-3.5-12.2-0.4-16.3c3.4-3.2,13,0.8,20.4,7.7l3.1-5.4
	c-10.2-13.1-21.8-18.4-28.2-14.3c-8,3.4-9.2,33-0.2,38.7C226.1,303.3,237.6,300.2,249.7,287z"/>
<path class="st6" d="M249.7,287l-3.7-6.3c-8.6,8.1-17.6,11.6-20,8.6c-3.5-4-3.5-12.2-0.4-16.3c3.4-3.2,13,0.8,20.4,7.7l3.1-5.4
	c-10.2-13.1-21.8-18.4-28.2-14.3c-8,3.4-9.2,33-0.2,38.7C226.1,303.3,237.6,300.2,249.7,287z"/>
<path class="st21" d="M255.7,287.3l4.1-6c8,8.7,16.6,12.9,19.3,10.2c3.8-3.7,4.4-11.9,1.6-16.3c-3.2-3.5-13-0.2-20.9,6.1l-2.6-5.7
	c11.2-12.3,23.1-16.6,29.3-12.1c7.7,4.1,6.6,33.6-2.8,38.6C278,305.3,266.8,301.3,255.7,287.3z"/>
<path class="st6" d="M255.7,287.3l4.1-6c8,8.7,16.6,12.9,19.3,10.2c3.8-3.7,4.4-11.9,1.6-16.3c-3.2-3.5-13-0.2-20.9,6.1l-2.6-5.7
	c11.2-12.3,23.1-16.6,29.3-12.1c7.7,4.1,6.6,33.6-2.8,38.6C278,305.3,266.8,301.3,255.7,287.3z"/>
<ellipse transform="matrix(3.851929e-02 -0.9993 0.9993 3.851929e-02 -37.7036 522.8484)" class="st21" cx="252.8" cy="281" rx="6.8" ry="6.8"/>
<ellipse transform="matrix(3.851938e-02 -0.9993 0.9993 3.851938e-02 -37.7035 522.8484)" class="st22" cx="252.8" cy="281" rx="6.8" ry="6.8"/>
<path class="st17" d="M124.3,62.3c4.3,4.3,10.1,0.8,9.3-3.8 M108.1,54.8c1.7,4.1,6.8,1.6,6.8-1.6 M104.8,70.5c4.1,3.6,9,0.3,8.5-3
	 M169.4,187.1c2.6,1.9,5.3-0.4,4.8-2.3 M162.9,202.7c4.7,2.9,8.9-1.3,7.8-4.4 M144.2,202.6c2.8,3.6,7.3,1.7,7.4-1.1 M129.2,190.1
	c3.2,4.4,8.8,2.2,8.9-1.1 M165.7,254.6c3.9,3.3,8.4,0.1,7.8-3 M167.6,271c3.3,2.8,7.1,0,6.6-2.5 M111.7,294c2.1,4.1,7,2.9,7.5,0.2
	 M112.1,279.4c1,4.5,6,4.7,7.2,2.2 M89.6,276.1c1.2,5.6,7.4,5.8,8.9,2.7 M93.1,299.1c5.2,6.6,15.6,12.4,25.7,9.3 M137.1,49.2
	c1.5,2.5,4.5,0.3,4.2-1.7"/>
<path class="st17" d="M71.9,38.6c0.6-26.4,44.7-32.3,49.2-18.9c6.5-7.3,21.7-4.3,23,6.4c20-8.9,35.6,24.6,7.9,31.1
	c1.7,10.3-6.9,21.9-24,22.3 M166.2,59.1C183.6,49,200.7,54,215.8,56c-4,12.4-13.5,27.3-29.2,25.3 M193.9,94.1
	c-7-0.3-13.8,2.4-19.1,8.9c-10.1-2.2-19.4-20.4-14.4-25.9c5.8-3.6,17,1.2,23.9,18.6 M164.1,69.9c-3-2.3-8.5-0.8-10.9,2.4 M123,96.7
	c-3.3,2.1-3.9,6.6-1.9,10.5 M137.4,127.9c-11-9.6-13.7-23.8-10.8-28.4c6.2-7.5,25.2,2.1,29.6,15.3c1.1,3.1-3.6,11.4-11.2,13.3
	 M152.8,131.6c-7.1-5.6-20.3-5.6-30,3 M158.8,54.6c13.8,6.8,27.2,22.4,35.1,39.5c19.8,14.8,20.5,54,11.6,61.9
	c-10.8,11.2-36.7,17.1-67,1.8 M134.9,160.2c2.5-0.4,4.2-2.6,4.5-5.3 M185.5,165.9c-4.5,11.9-36.1,24.6-71.3-1 M128,79.4
	c0,9.2-12.6,19-26.4,16 M200.6,140.2c4,4.2,6.1,14.6,2.8,17.9 M189.9,141.5c10.6,3,14.8-4.5,14.3-11.5 M61,61.8
	C56.9,49.7,67.1,35.3,82.9,37"/>
<path class="st1" d="M49.9,128.5c2.9-29,48.2-40.2,59.8-6.9c7,21.2-9.8,39.3-29.9,43.3c-37.5,6.3-60.8-32.6-53.2-64.9
	C33.1,66,73.8,49.9,98,70.2c10.4,11.1,6.4,33.6-10.9,31.4"/>
<path class="st14" d="M97.1,18.8c7.6-2.6,15.8-0.6,21.6,4.2C115.6,14.2,104,13.1,97.1,18.8z M167.7,224.4c9-5.1,16.6-13.5,19.7-24.9
	C190.3,211.1,177.6,223.3,167.7,224.4z M123.7,229.7c8.1,0.8,15.8-3.1,20.4-9.1C143.2,230,132,233.7,123.7,229.7z M121.3,216.5
	c-6.4,0.6-12.5-2.4-16.1-7.2C105.9,216.7,114.7,219.6,121.3,216.5z M145,30.2c6.4-0.6,12.5,2.4,16.1,7.2C160.3,30,151.5,27,145,30.2
	z"/>
</svg>
