<?xml version="1.0" encoding="utf-8"?>
<!-- Generator: Adobe Illustrator 21.1.0, SVG Export Plug-In . SVG Version: 6.00 Build 0)  -->
<svg version="1.1" id="Layer_1" xmlns="http://www.w3.org/2000/svg" xmlns:xlink="http://www.w3.org/1999/xlink" x="0px" y="0px"
	 viewBox="0 0 515 418" style="enable-background:new 0 0 515 418;" xml:space="preserve">
<style type="text/css">
	.st0{fill-rule:evenodd;clip-rule:evenodd;fill:#E2EAB6;}
	.st1{fill-rule:evenodd;clip-rule:evenodd;fill:#D3E095;}
	.st2{fill-rule:evenodd;clip-rule:evenodd;fill:#E9F6FD;}
</style>
<path class="st0" d="M212.4,418c-86.9,0-197.3-31.6-210.5-153.5c-11.7-107.9,41.8-174,128-198.1c35.9-10.5,81.1,4,92,40.2
	c6.3,20.8,25.8,28.9,48,30.7c24.1,2,44.5,16.2,53.2,43.8c12.1,7.9,28.6,2.3,35.2,15.8c14.3,29.4,22,34.1,54.9,34.1
	c56,0,46.2,70.4,18.7,103.6C375.8,402.3,270.7,416.9,212.4,418z"/>
<path class="st1" d="M362.4,289c48.3,0.6,69.9,13.5,66.3,20.8c-3.9,7.9-26.8,11.1-34,12.5c-9.1,1.8-22.3,1.4-29.7-4.7
	c-12.5-10.6-47.3-5-54.3-15.3C301.8,289.1,341.3,288.7,362.4,289z"/>
<path class="st1" d="M129.9,407.1c-47.1-12.2-83.2-38.4-100.4-65.5c33.9-6.2,194.8-29.8,216.5-10.5C283,364,153.5,407.1,129.9,407.1
	z"/>
<path class="st2" d="M225.8,20.7c-16.3-0.9-16.6,22-1.8,20.1c-7.9,23.1,28.5,31.9,35,9.7c11.9,12.2,32.4,1.5,28.2-8.3
	c15.7-5.1,5.2-35.4-14.6-21.5C270.3-8.8,222.1-4.9,225.8,20.7z"/>
</svg>
