<?xml version="1.0" encoding="utf-8"?>
<!-- Generator: Adobe Illustrator 21.1.0, SVG Export Plug-In . SVG Version: 6.00 Build 0)  -->
<svg version="1.1" id="Layer_1" xmlns="http://www.w3.org/2000/svg" xmlns:xlink="http://www.w3.org/1999/xlink" x="0px" y="0px"
	 viewBox="0 0 515 418" style="enable-background:new 0 0 515 418;" xml:space="preserve">
<style type="text/css">
	.st0{fill:none;stroke:#E30045;stroke-width:8.4958;stroke-linecap:round;stroke-linejoin:round;stroke-miterlimit:22.9256;}
</style>
<path class="st0" d="M255.9,261.4c3-17.4,0.3-68.6-4.7-80.1c-4.1,2.7-18.8,24-24.1,32.6"/>
<path class="st0" d="M255.9,275.5l-3.2,5.3l-3.7-5.5c-10.2-13.1-21.8-18.4-28.2-14.3c-8,3.4-9.2,33-0.2,38.7
	c5.5,3.6,17,0.5,29.1-12.6l2.9-5.5l3.2,5.7c9.3,13.8,21.3,18.5,28,14.8c8.2-2.9,11.4-32.3,2.9-38.6
	C281.3,259.7,268.9,263.2,255.9,275.5z"/>
</svg>
