<?xml version="1.0" encoding="utf-8"?>
<!-- Generator: Adobe Illustrator 21.1.0, SVG Export Plug-In . SVG Version: 6.00 Build 0)  -->
<svg version="1.1" id="Layer_1" xmlns="http://www.w3.org/2000/svg" xmlns:xlink="http://www.w3.org/1999/xlink" x="0px" y="0px"
	 viewBox="0 0 517 425" style="enable-background:new 0 0 517 425;" xml:space="preserve">
<style type="text/css">
	.st0{fill-rule:evenodd;clip-rule:evenodd;fill:#B5CAD6;}
	.st1{fill-rule:evenodd;clip-rule:evenodd;fill:#3B3A39;}
	.st2{fill-rule:evenodd;clip-rule:evenodd;fill:#F7CA8F;}
	.st3{fill:none;stroke:#D1822F;stroke-width:1.7011;stroke-linecap:round;stroke-linejoin:round;stroke-miterlimit:22.9256;}
	.st4{fill-rule:evenodd;clip-rule:evenodd;fill:#A35939;}
	.st5{fill:none;stroke:#1A1A18;stroke-width:1.7011;stroke-linecap:round;stroke-linejoin:round;stroke-miterlimit:22.9256;}
	.st6{fill:none;stroke:#822E2D;stroke-width:1.7011;stroke-linecap:round;stroke-linejoin:round;stroke-miterlimit:22.9256;}
	.st7{fill-rule:evenodd;clip-rule:evenodd;fill:#626261;}
	.st8{fill-rule:evenodd;clip-rule:evenodd;fill:#9B9B9B;}
	.st9{fill-rule:evenodd;clip-rule:evenodd;fill:#C5C5C6;}
	.st10{fill-rule:evenodd;clip-rule:evenodd;fill:#FFFFFF;}
	.st11{fill-rule:evenodd;clip-rule:evenodd;fill:#CA6C32;}
	.st12{fill-rule:evenodd;clip-rule:evenodd;fill:#1A1A18;}
	.st13{fill-rule:evenodd;clip-rule:evenodd;fill:#A24B2A;}
	.st14{fill:none;stroke:#783529;stroke-width:1.7011;stroke-linecap:round;stroke-linejoin:round;stroke-miterlimit:22.9256;}
	.st15{fill-rule:evenodd;clip-rule:evenodd;fill:#E29769;}
	.st16{fill-rule:evenodd;clip-rule:evenodd;fill:#ECECEC;}
	.st17{fill:none;stroke:#FFFFFF;stroke-width:1.7011;stroke-linecap:round;stroke-linejoin:round;stroke-miterlimit:22.9256;}
	.st18{fill-rule:evenodd;clip-rule:evenodd;fill:#E9F6FD;}
	.st19{clip-path:url(#SVGID_2_);}
	.st20{clip-path:url(#SVGID_4_);}
</style>
<path class="st0" d="M354.8,182.8l2.3-2.7c1.6-1.9,4.4-2.1,6.3-0.5l76.7,65.7c1.9,1.6,2.1,4.4,0.5,6.3l-2.3,2.7
	c-1.6,1.9-4.4,2.1-6.3,0.5l-76.7-65.7C353.4,187.5,353.2,184.6,354.8,182.8z"/>
<path class="st1" d="M383.3,138.8c11,4.8,30.2,2.3,39.8-8.3c6.9-8.5,5.2-29.7-19.5-42.4c-24.3-14.2-54.9-1-65.8-26
	C328.9,80.3,346.8,126.7,383.3,138.8z"/>
<path class="st2" d="M410.9,173.3l-4.1,1l-7.3-0.9c1.2,9.2,0.2,18.1-3.1,26.7c-10.9-6.3-30.6,8.1-18,18.5c0.8,3.3,3.2,5.5,7.2,6.2
	c3.1,3.3,10,0.8,7.5-5c-2.2-7.6,12.2-9.6,11.9-4.5c1.2,4.1,4.5,4.9,5.5,0.8c1.5-5.6-4.3-11.9-8-13.7
	C407.9,193.4,411.6,183.5,410.9,173.3z"/>
<path class="st3" d="M399.5,173.4c1.7,11.3,0.2,19.3-3.6,28"/>
<path class="st3" d="M396.4,200.1c-14.9-4.9-29.6,9.8-17.8,19"/>
<path class="st3" d="M393.2,206.8c-9.2,0.5-11.5,12-6.9,18.1c-9.4-0.4-14.6-18.5,2.1-22.1"/>
<path class="st3" d="M386.3,224.9c2.9,3.1,8.6,0,6.8-5c-1.8-6,8.3-10.7,11.9-4.5c0.1,3.1,3.7,5.6,5.5,0.8c0.9-7-4.3-11.9-8-13.7
	c5.4-9,9.1-18.8,8.5-29"/>
<path class="st4" d="M463.4,159.3l-3.4-15.7c4.1,0.7,8.6,0.9,13.5,0.5C471.2,150.2,467.8,155.3,463.4,159.3z"/>
<path class="st1" d="M466.1,156.6l3.2-4.3l4.1-8.3l-10.9-0.1c8.3-3.5,16-23.1,28.6-48.6c1.6,6.2,2.4,13.9,5.8,18
	c3.6,2.1,10,1.8,19.1-0.8C511.7,133.1,483.6,159.2,466.1,156.6z"/>
<path class="st5" d="M471.7,148.2c6.7-1.7,14.1-7.5,22-17.6 M462.6,144c8.3-3.5,16-23.1,28.6-48.6c1.6,6.2,2.4,13.9,5.8,18
	c3.6,2.1,10,1.8,19.1-0.8c-4.5,20.5-32.6,46.6-50,44"/>
<path class="st6" d="M470.5,144.2c6-5.6,11.2-12.6,15.8-20.9"/>
<path class="st1" d="M412.3,181.4l-1.7-9.8l-16.2-3.2C397.8,188.1,408.9,188.4,412.3,181.4z"/>
<path class="st2" d="M433.3,190.1l-4.1,1l-7.3-0.9c1.2,9.2,0.2,18.1-3.1,26.7c-13.4-4.2-31.2,6-20.4,19.2c2.6,2.6,3.7,5,7.5,6
	c2.8,2.7,11,2.5,7.4-5.7c-0.2-6.7,7.2-10.2,7.4-6.9l5.8,5.1c2.3-5.3,1.7-11-2-12.9C429.8,212.6,433.9,200.3,433.3,190.1z"/>
<path class="st3" d="M421.9,190.2c1.7,11.3,0.1,19.4-3.7,28.1"/>
<path class="st3" d="M418.8,216.9c-18.2-4.4-31.2,10.6-17.7,21.8"/>
<path class="st3" d="M414.5,223.2c-9,1.6-14,9.8-8.6,18.9c-9.6-3-12.4-20.1,4.6-22"/>
<path class="st3" d="M426.7,234c3.2-4.6,1.6-9.8-2.3-12.3c5.4-9,9.4-21.3,8.8-31.5 M405.9,242.1c3,3,10.6,1.8,7-6.6
	c-0.6-4.8,5.2-7.4,7.5-6.9"/>
<path class="st7" d="M433.9,100.6l-17.5-17.8c-56.5-7.2-66.9,94.2,13.5,95.6c23.4-1.5,36.6-15.3,43.7-37.2c-25-9.2-40.5,14.7-48.6-1
	C422.4,123.3,424.6,109.7,433.9,100.6z"/>
<path class="st8" d="M437.9,103.2l-13.5-11l-48,12.8c-17.4,28.7,16.5,82,72.8,45.9l-8.8-12.6C412.5,141.5,423.6,117.2,437.9,103.2z"
	/>
<path class="st7" d="M472.1,145.4c-10,7.8-30.4,10.4-43.1,2.1c-9.4-6.8-13.3-29.1,8.7-48.7c21.1-21,56-15.7,60.6-44.3
	C512.3,70.8,506.3,123.3,472.1,145.4z"/>
<path class="st1" d="M474,93.1c22.9,11.3-13.6,45.8-33.6,37.6c-17.3-2.6-19.3-18.3-2.8-32c7.5-6.1,17.4-11.6,20.6-13
	C468.4,82.7,472.6,86.4,474,93.1z"/>
<path class="st1" d="M451.7,171.1c-17.4,12.1-40.3,7.9-56-2.8c3.9,6.2-0.2,8.4,16,10.1C422.1,209.3,444.4,194,451.7,171.1z"/>
<path class="st5" d="M437.7,98.8c21.1-21,56-15.7,60.6-44.3c24.4,33.5-15.8,119.3-69.3,93"/>
<path class="st5" d="M474,93.1c14.9-9.2,21.4-19.6,22-31 M484.6,107.4c12.6-11.2,18.8-26.6,19-42.4 M492.9,123.5
	c4-6.6-0.8-15.4-8.3-16.1c4.4-9.4-2.7-17-10.6-14.3c-1-9.6-10.3-9.6-15.8-7.4"/>
<path class="st5" d="M410.5,122.3c-1.7,2.1-5,1.9-6.3-0.6 M395.5,125.1c-1.5,1.2-3.8,0.6-4.3-1.4 M385.1,138c-0.9,1.1-2.7,1-3.4-0.3
	 M395.6,143.7c-1.2,1.5-3.6,1.4-4.5-0.4 M397.3,155.9c-0.9,1.1-2.7,1-3.4-0.3"/>
<path class="st9" d="M383,145.6c-4.8-8.9-7-18.5-6.9-30.3C372.2,127.3,374.9,137.3,383,145.6z"/>
<path class="st7" d="M477.5,105.8c-5.4,8.1-12.7,14.5-23.1,20.5C466.9,123,474.3,116,477.5,105.8z"/>
<path class="st5" d="M394.4,168.6c1.6,6.2,3.4,10.6,5.4,12.9c1.1,2.2,9.5,6.3,12.8-0.8 M416.4,82.7c-62.3-3.4-60.1,96.2,13.5,95.6
	c19.2-1.1,37.1-14,42.6-33.2 M362.8,107.1c-14.2-7.2-23.4-19.8-27.4-34.2 M403.6,88.1c-24.3-14.2-54.9-1-65.8-26
	c-9.2,23.3,11.9,60.8,35,72 M369.1,91.5c-15.8-4.8-24.2-12.8-27.4-23.1 M451.4,171.8c-6,22.3-31,37.9-40,4.7"/>
<path class="st8" d="M392.3,108.5l16.2-38.4c15.2-19.4,33.6-19.3,42.8-12.7c-2.8,0.6-5,1.8-6.8,3.3
	C468.2,73.8,443,113.4,392.3,108.5z"/>
<path class="st7" d="M392.3,108.5l26.8-17.8c21.3-6.5,24.3-28.7,8.6-35.4c6.3-0.9,14.3-4.4,23.6,2.1c-2.8,0.6-5,1.8-6.8,3.3
	C468.2,73.8,443,113.4,392.3,108.5z"/>
<path class="st7" d="M372,76.4l36.3-6.3c9-11.3,19.7-16.8,31.9-16.5c-3.6-18-12.7-29.8-31.8-30.3l-8.9-9.2
	c-1.4,4.4-0.7,8.4,2.1,11.9l-10.9-3l1.9,2.6C368,35.1,362.2,54.5,372,76.4z"/>
<path class="st1" d="M427.7,55.3l12.6-1.7c-2.6-18.2-18.7-31.8-31.8-30.3l-8.9-9.2c-1.4,4.4-0.7,8.4,2.1,11.9
	C414.1,28.4,426.8,38.7,427.7,55.3z"/>
<path class="st10" d="M414.6,63.4l-6.2,6.8c-4.6-3.5-9.8-5.9-15.8-6.5c-2-12.3,1.5-20,6.8-20.8C403.6,42.1,411.3,50.9,414.6,63.4z"
	/>
<path class="st11" d="M412.2,65.8l-3.9,4.3l-5.4-3.4l-8-2.7c-1.2-6-0.2-12.5,4.3-13.3C403,50.1,410.2,55.2,412.2,65.8z"/>
<path class="st10" d="M387.4,64.3c-4.7,1.8-8.6,5-12.2,8.8c-4.9-12.7-2.1-21.6,2.6-22.5C381.5,50,385.8,56.2,387.4,64.3z"/>
<path class="st11" d="M385.2,65.7l-10,7.3l-1.3-3.9c-0.2-6.1,0.7-12.4,3.8-13C380.7,55.7,385,60.8,385.2,65.7z"/>
<ellipse transform="matrix(0.7078 -0.7064 0.7064 0.7078 62.8465 287.5556)" class="st12" cx="379" cy="67.8" rx="4" ry="4"/>
<path class="st11" d="M408.4,70.1c-11.9-8.9-23.2-9.1-33.6,3.4l-20.7,21.4c14.3,7.3,26.7,13.2,38.1,13.7
	c10.5,1.8,22.8-8.5,26.8-17.9C429.1,81.8,419.8,68.7,408.4,70.1z"/>
<ellipse transform="matrix(0.7088 -0.7054 0.7054 0.7088 65.5294 287.5773)" class="st10" cx="381.1" cy="64.4" rx="2.3" ry="2.3"/>
<path class="st13" d="M354.2,94.9c14.3,7.3,26.7,13.2,38.1,13.7c10.8,1.2,19.8-4.8,26.8-17.9c4.3-8.6-6.2-18.7-13.7-10.2
	C412.6,91.6,372.6,103.6,354.2,94.9z"/>
<path class="st5" d="M392.6,63.6c-2-12.3,1.5-20,6.8-20.8c4.3-0.7,12,8.1,15.3,20.6 M375.2,73c-4.9-12.7-2.1-21.6,2.6-22.5
	c3.6-0.6,7.9,5.7,9.6,13.7 M374.3,48.6c1.2-1.7,3.5-2.9,5.8-1.3 M402.8,38.4c2,0.1,5.3,1.5,7,3.4 M398.7,30.3
	c-3.1-1.7-5.8-4.2-7.9-7.5c4,1.7,7.6,2.7,10.9,3c-2.9-4.1-3.6-8-2.1-11.9c2.3,3.5,5.3,6.5,8.9,9.2c13.3-1.5,29.6,10.3,31.8,30.3
	 M408.4,70.1c15.2-19.4,33.6-19.3,42.8-12.7c-2.8,0.6-5,1.8-6.8,3.3c22.7,12.5,0.6,49.3-45.9,48.2 M392.7,25.4
	c-24.7,9.7-30.5,29.1-20.6,51"/>
<path class="st14" d="M405.4,80.5c1.6-0.6,4.1,0.4,4.7,2.1"/>
<ellipse transform="matrix(0.8104 -0.5858 0.5858 0.8104 39.8713 248.73)" class="st12" cx="404.3" cy="62.8" rx="4.2" ry="4.2"/>
<ellipse transform="matrix(0.8104 -0.5858 0.5858 0.8104 42.2656 249.6997)" class="st10" cx="407" cy="59.5" rx="2.4" ry="2.4"/>
<path class="st14" d="M358.5,97.2c23.2,2.8,43.6-3.7,48.1-12.5"/>
<path class="st14" d="M419.1,90.7c8.6-8.2,2.6-21-10.7-20.6c-13.4-9.8-23.3-8.2-32.4,2.1l-21.8,22.6c9.7,7.6,30,14.5,44.4,14"/>
<ellipse transform="matrix(0.687 -0.7267 0.7267 0.687 68.3797 307.9358)" class="st13" cx="391.6" cy="74.6" rx="2.9" ry="2.9"/>
<path class="st15" d="M378.2,72.9c6.4-4.2,13.6-6.4,21.7-5.5C391.6,63.6,383.8,65.8,378.2,72.9z"/>
<path class="st8" d="M372.7,47.9c3.6-7.2,9.1-12.7,17.1-17.5C379.7,32.6,374.2,38.6,372.7,47.9z M434.3,95.2
	c6.6-3.6,15.1-15.9,15.8-23.7C453.5,82.5,443.2,93.5,434.3,95.2z"/>
<path class="st0" d="M310.5,144.7l4.2-4.9c3.8-4.4,10.5-4.9,14.9-1.1l43.3,37.1c4.4,3.8,4.9,10.5,1.1,14.9l-4.2,4.9
	c-3.8,4.4-10.5,4.9-14.9,1.1l-43.3-37.1C307.3,155.8,306.8,149.1,310.5,144.7z"/>
<path class="st16" d="M312.5,142l3.7-4.3c3.3-3.8,9.1-4.3,12.9-1l42.6,36.8c3.8,3.3,4.3,9.1,1,12.9l-3.7,4.3
	c-3.3,3.8-9.1,4.3-12.9,1l-42.6-36.8C309.7,151.7,309.2,145.9,312.5,142z"/>
<path class="st17" d="M312.5,142l3.7-4.3c3.3-3.8,9.1-4.3,12.9-1l42.6,36.8c3.8,3.3,4.3,9.1,1,12.9l-3.7,4.3
	c-3.3,3.8-9.1,4.3-12.9,1l-42.6-36.8C309.7,151.7,309.2,145.9,312.5,142z"/>
<ellipse transform="matrix(0.657 -0.7539 0.7539 0.657 -4.8167 289.0697)" class="st10" cx="315.3" cy="149.8" rx="2.7" ry="2.7"/>
<ellipse transform="matrix(0.657 -0.7539 0.7539 0.657 -6.134 293.4082)" class="st10" cx="319.4" cy="153.4" rx="2.7" ry="2.7"/>
<ellipse transform="matrix(0.657 -0.7539 0.7539 0.657 -7.3788 297.7742)" class="st10" cx="323.6" cy="157" rx="2.7" ry="2.7"/>
<ellipse transform="matrix(0.6566 -0.7542 0.7542 0.6566 -8.6374 302.2872)" class="st10" cx="327.7" cy="160.6" rx="2.7" ry="2.7"/>
<ellipse transform="matrix(0.657 -0.7539 0.7539 0.657 -10.0148 306.4804)" class="st10" cx="331.8" cy="164.2" rx="2.7" ry="2.7"/>
<ellipse transform="matrix(0.6569 -0.754 0.754 0.6569 -11.2483 310.8976)" class="st10" cx="336" cy="167.8" rx="2.7" ry="2.7"/>
<ellipse transform="matrix(0.6565 -0.7543 0.7543 0.6565 -12.5016 315.4151)" class="st10" cx="340.1" cy="171.4" rx="2.7" ry="2.7"/>
<ellipse transform="matrix(0.6565 -0.7543 0.7543 0.6565 -13.8235 319.7601)" class="st10" cx="344.2" cy="175.1" rx="2.7" ry="2.7"/>
<ellipse transform="matrix(0.6569 -0.754 0.754 0.6569 -15.1299 323.9455)" class="st10" cx="348.4" cy="178.6" rx="2.7" ry="2.7"/>
<ellipse transform="matrix(0.6565 -0.7543 0.7543 0.6565 -16.3967 328.4547)" class="st10" cx="352.5" cy="182.2" rx="2.7" ry="2.7"/>
<ellipse transform="matrix(0.6565 -0.7543 0.7543 0.6565 -17.7069 332.8193)" class="st10" cx="356.6" cy="185.9" rx="2.7" ry="2.7"/>
<ellipse transform="matrix(0.657 -0.7539 0.7539 0.657 0.8822 285.9914)" class="st10" cx="314.7" cy="142" rx="2.7" ry="2.7"/>
<ellipse transform="matrix(0.6566 -0.7543 0.7543 0.6566 -0.3499 290.5225)" class="st10" cx="318.8" cy="145.6" rx="2.7" ry="2.7"/>
<ellipse transform="matrix(0.657 -0.7539 0.7539 0.657 -1.7729 294.6577)" class="st10" cx="322.9" cy="149.3" rx="2.7" ry="2.7"/>
<ellipse transform="matrix(0.6566 -0.7542 0.7542 0.6566 -2.9382 299.2061)" class="st10" cx="327.1" cy="152.8" rx="2.7" ry="2.7"/>
<ellipse transform="matrix(0.657 -0.7539 0.7539 0.657 -4.3219 303.4099)" class="st10" cx="331.3" cy="156.5" rx="2.7" ry="2.7"/>
<ellipse transform="matrix(0.6574 -0.7535 0.7535 0.6574 -5.7378 307.5432)" class="st10" cx="335.4" cy="160.1" rx="2.7" ry="2.7"/>
<ellipse transform="matrix(0.6574 -0.7535 0.7535 0.6574 -6.9892 311.8842)" class="st10" cx="339.5" cy="163.6" rx="2.7" ry="2.7"/>
<ellipse transform="matrix(0.6566 -0.7542 0.7542 0.6566 -8.1413 316.6058)" class="st10" cx="343.6" cy="167.2" rx="2.7" ry="2.7"/>
<ellipse transform="matrix(0.657 -0.7539 0.7539 0.657 -9.5515 320.7638)" class="st10" cx="347.7" cy="170.9" rx="2.7" ry="2.7"/>
<ellipse transform="matrix(0.657 -0.7539 0.7539 0.657 -10.7934 325.1279)" class="st10" cx="351.9" cy="174.4" rx="2.7" ry="2.7"/>
<ellipse transform="matrix(0.6566 -0.7542 0.7542 0.6566 -12.0385 329.6468)" class="st10" cx="356" cy="178" rx="2.7" ry="2.7"/>
<ellipse transform="matrix(0.6571 -0.7538 0.7538 0.6571 -13.436 333.8053)" class="st10" cx="360.2" cy="181.7" rx="2.7" ry="2.7"/>
<ellipse transform="matrix(0.6565 -0.7543 0.7543 0.6565 -14.583 338.436)" class="st10" cx="364.3" cy="185.2" rx="2.7" ry="2.7"/>
<ellipse transform="matrix(0.6571 -0.7538 0.7538 0.6571 -16.0094 342.5532)" class="st10" cx="368.5" cy="188.9" rx="2.7" ry="2.7"/>
<ellipse transform="matrix(0.6566 -0.7542 0.7542 0.6566 -18.9812 337.1255)" class="st10" cx="360.8" cy="189.4" rx="2.7" ry="2.7"/>
<ellipse transform="matrix(0.6566 -0.7542 0.7542 0.6566 5.3011 287.4605)" class="st10" cx="318.4" cy="137.9" rx="2.7" ry="2.7"/>
<ellipse transform="matrix(0.657 -0.7539 0.7539 0.657 3.8937 291.6362)" class="st10" cx="322.4" cy="141.5" rx="2.7" ry="2.7"/>
<ellipse transform="matrix(0.6565 -0.7543 0.7543 0.6565 2.6797 296.1935)" class="st10" cx="326.6" cy="145.2" rx="2.7" ry="2.7"/>
<ellipse transform="matrix(0.6566 -0.7542 0.7542 0.6566 1.4087 300.5278)" class="st10" cx="330.8" cy="148.7" rx="2.7" ry="2.7"/>
<ellipse transform="matrix(0.657 -0.7539 0.7539 0.657 1.140349e-02 304.7126)" class="st10" cx="334.9" cy="152.3" rx="2.7" ry="2.7"/>
<ellipse transform="matrix(0.657 -0.7539 0.7539 0.657 -1.3089 309.0526)" class="st10" cx="339" cy="156" rx="2.7" ry="2.7"/>
<ellipse transform="matrix(0.6571 -0.7538 0.7538 0.6571 -2.5578 313.3891)" class="st10" cx="343.2" cy="159.5" rx="2.7" ry="2.7"/>
<ellipse transform="matrix(0.6564 -0.7544 0.7544 0.6564 -3.7713 318.004)" class="st10" cx="347.3" cy="163.1" rx="2.7" ry="2.7"/>
<ellipse transform="matrix(0.657 -0.7539 0.7539 0.657 -5.1956 322.1037)" class="st10" cx="351.4" cy="166.8" rx="2.7" ry="2.7"/>
<ellipse transform="matrix(0.6569 -0.754 0.754 0.6569 -6.4284 326.49)" class="st10" cx="355.5" cy="170.3" rx="2.7" ry="2.7"/>
<ellipse transform="matrix(0.6571 -0.7538 0.7538 0.6571 -7.7802 330.7943)" class="st10" cx="359.7" cy="173.9" rx="2.7" ry="2.7"/>
<ellipse transform="matrix(0.6565 -0.7543 0.7543 0.6565 -8.9919 335.3948)" class="st10" cx="363.8" cy="177.6" rx="2.7" ry="2.7"/>
<ellipse transform="matrix(0.6565 -0.7543 0.7543 0.6565 -10.2258 339.7887)" class="st10" cx="368" cy="181.1" rx="2.7" ry="2.7"/>
<ellipse transform="matrix(0.6574 -0.7535 0.7535 0.6574 -11.7374 343.6825)" class="st10" cx="372.1" cy="184.8" rx="2.7" ry="2.7"/>
<ellipse transform="matrix(0.6566 -0.7542 0.7542 0.6566 9.6347 288.7686)" class="st10" cx="322" cy="133.8" rx="2.7" ry="2.7"/>
<ellipse transform="matrix(0.6566 -0.7542 0.7542 0.6566 8.3207 293.1343)" class="st10" cx="326.1" cy="137.4" rx="2.7" ry="2.7"/>
<ellipse transform="matrix(0.6566 -0.7542 0.7542 0.6566 6.9897 297.4607)" class="st10" cx="330.2" cy="141.1" rx="2.7" ry="2.7"/>
<ellipse transform="matrix(0.6566 -0.7543 0.7543 0.6566 5.7645 301.869)" class="st10" cx="334.4" cy="144.6" rx="2.7" ry="2.7"/>
<ellipse transform="matrix(0.6569 -0.754 0.754 0.6569 4.3744 306.0743)" class="st10" cx="338.5" cy="148.2" rx="2.7" ry="2.7"/>
<ellipse transform="matrix(0.6573 -0.7536 0.7536 0.6573 2.954 310.2077)" class="st10" cx="342.6" cy="151.9" rx="2.7" ry="2.7"/>
<ellipse transform="matrix(0.657 -0.7539 0.7539 0.657 1.809 314.7261)" class="st10" cx="346.8" cy="155.4" rx="2.7" ry="2.7"/>
<ellipse transform="matrix(0.6566 -0.7542 0.7542 0.6566 0.549 319.2544)" class="st10" cx="350.9" cy="159" rx="2.7" ry="2.7"/>
<ellipse transform="matrix(0.6571 -0.7538 0.7538 0.6571 -0.8686 323.4071)" class="st10" cx="355" cy="162.7" rx="2.7" ry="2.7"/>
<ellipse transform="matrix(0.657 -0.7539 0.7539 0.657 -2.1025 327.8008)" class="st10" cx="359.2" cy="166.2" rx="2.7" ry="2.7"/>
<ellipse transform="matrix(0.6566 -0.7542 0.7542 0.6566 -3.3418 332.3182)" class="st10" cx="363.3" cy="169.8" rx="2.7" ry="2.7"/>
<ellipse transform="matrix(0.6565 -0.7543 0.7543 0.6565 -4.6152 336.6552)" class="st10" cx="367.4" cy="173.4" rx="2.7" ry="2.7"/>
<ellipse transform="matrix(0.6569 -0.754 0.754 0.6569 -5.9358 340.8384)" class="st10" cx="371.5" cy="176.9" rx="2.7" ry="2.7"/>
<ellipse transform="matrix(0.6574 -0.7535 0.7535 0.6574 -7.3869 344.9084)" class="st10" cx="375.6" cy="180.6" rx="2.7" ry="2.7"/>
<path class="st18" d="M317.1,138.4c-3.3-14.5,9.2-22.4,9.2-22.4c0.3,2.9,1.8,9.2,6,14.2c12.9,15.2,47,23,28.7,55.6
	c0,0-4-6.9-7.8-10.1C340.5,164.8,320.9,155.3,317.1,138.4z"/>
<g>
	<defs>
		<rect id="SVGID_1_" x="316" y="116" width="47" height="70"/>
	</defs>
	<clipPath id="SVGID_2_">
		<use xlink:href="#SVGID_1_"  style="overflow:visible;"/>
	</clipPath>
	<g class="st19">
		<defs>
			<path id="SVGID_3_" d="M317.1,138.4c-3.3-14.5,9.2-22.4,9.2-22.4c-8,6-7.6,16.2-3.4,21.1c12.9,15.2,47.7,33.8,38.1,48.6
				c0,0-4-6.9-7.8-10.1C340.5,164.8,320.9,155.3,317.1,138.4z"/>
		</defs>
		<clipPath id="SVGID_4_">
			<use xlink:href="#SVGID_3_"  style="overflow:visible;"/>
		</clipPath>
		<g class="st20">
			<defs>
				<rect id="SVGID_5_" x="316.5" y="116" width="46.1" height="69.8"/>
			</defs>
			<clipPath id="SVGID_6_">
				<use xlink:href="#SVGID_5_"  style="overflow:visible;"/>
			</clipPath>
			<g style="clip-path:url(#SVGID_6_);">
				
					<image style="overflow:visible;" width="197" height="298" xlink:href="39D03F2A8DF6ABDF.jpg"  transform="matrix(0.234 0 0 0.2342 316.4879 115.9737)">
				</image>
			</g>
		</g>
	</g>
</g>
<path class="st10" d="M345.8,145.9c7.6,5.2,13.3,12.2,18.2,21.8C362,156.3,355.7,149.3,345.8,145.9z"/>
</svg>
