<?xml version="1.0" encoding="utf-8"?>
<!-- Generator: Adobe Illustrator 21.1.0, SVG Export Plug-In . SVG Version: 6.00 Build 0)  -->
<svg version="1.1" id="Layer_1" xmlns="http://www.w3.org/2000/svg" xmlns:xlink="http://www.w3.org/1999/xlink" x="0px" y="0px"
	 viewBox="0 0 517 425" style="enable-background:new 0 0 517 425;" xml:space="preserve">
<style type="text/css">
	.st0{fill-rule:evenodd;clip-rule:evenodd;fill:#A35939;}
	.st1{fill:none;stroke:#822E2D;stroke-width:1.7011;stroke-linecap:round;stroke-linejoin:round;stroke-miterlimit:22.9256;}
	.st2{fill-rule:evenodd;clip-rule:evenodd;fill:#F5B0B4;}
	.st3{fill-rule:evenodd;clip-rule:evenodd;fill:#E78E92;}
	.st4{fill:none;stroke:#D8767A;stroke-width:1.7011;stroke-linecap:round;stroke-linejoin:round;stroke-miterlimit:22.9256;}
	.st5{fill-rule:evenodd;clip-rule:evenodd;fill:#FFFFFF;}
	.st6{fill:none;stroke:#575656;stroke-width:1.7011;stroke-linecap:round;stroke-linejoin:round;stroke-miterlimit:22.9256;}
	.st7{fill-rule:evenodd;clip-rule:evenodd;fill:#D88F55;}
	.st8{fill-rule:evenodd;clip-rule:evenodd;fill:#BD6E39;}
	.st9{fill-rule:evenodd;clip-rule:evenodd;fill:#EDB581;}
	.st10{fill-rule:evenodd;clip-rule:evenodd;fill:#D8D9D9;}
	.st11{fill:none;stroke:#6E6E6E;stroke-width:1.7011;stroke-linecap:round;stroke-linejoin:round;stroke-miterlimit:22.9256;}
	.st12{fill-rule:evenodd;clip-rule:evenodd;fill:#CAD44E;}
	.st13{fill-rule:evenodd;clip-rule:evenodd;fill:#1A1A18;}
	.st14{fill:none;stroke:#C5C5C6;stroke-width:1.7011;stroke-linecap:round;stroke-linejoin:round;stroke-miterlimit:22.9256;}
</style>
<path class="st0" d="M241.5,276.9c-17.5-7.9-30.9-17.4-40.1-28.6l5.2-23.1c8.7,28.6,42.2,30.7,40.6,57.1L241.5,276.9z"/>
<path class="st1" d="M206.7,225.2c8.7,28.6,42.2,30.7,40.6,57.1c-4.9-3.9-7.6-7.2-12.2-13.5"/>
<path class="st1" d="M243.3,278.5c-14.8-7.3-35-19.3-41.8-30.2"/>
<path class="st0" d="M147.4,148.5l37.2-14.6c-1.4,35.7,32.6,23.7,41.2,24.2l-35.7,6.3h-20.5L147.4,148.5z"/>
<path class="st1" d="M184.6,133.9c-0.1,13.6,3.1,21.3,9.7,23"/>
<path class="st2" d="M165,143.5c17.6,17.2,65,5.4,71,15.4l-62.3,19h-17.2L117,150L165,143.5z"/>
<path class="st3" d="M175.7,149.8c-2.1-0.8-12.9,0-10.2,6.6c-12.7-1.5-15.5,2.2-13.7,8.3l4.8,13.1L127,158.5l-11.2-2.3l-1.1-9.3
	l50.4-3.3C167.7,145.9,171.2,148,175.7,149.8z"/>
<path class="st4" d="M165,143.5c22.3,18,60.9,5.8,71,15.4"/>
<path class="st5" d="M244.2,158.9l-10.8,0.1c1.6-5.7,2.9-8.4,4-8.2C239.4,150.9,241.5,154.1,244.2,158.9z"/>
<path class="st5" d="M258.4,158.9l-10.8,0.1c1.6-5.7,2.9-8.4,4-8.2C253.6,150.9,255.6,154.1,258.4,158.9z"/>
<path class="st5" d="M220,162.2l-10.8,0.1c1.6-5.7,2.9-8.4,4-8.2C215.2,154.2,217.3,157.5,220,162.2z"/>
<path class="st6" d="M233.4,159c1.6-5.7,2.9-8.4,4-8.2c2,0.1,4.1,3.3,6.8,8.1"/>
<path class="st6" d="M247.5,159c1.6-5.7,2.9-8.4,4-8.2c2,0.1,4.1,3.3,6.8,8.1"/>
<path class="st6" d="M209.3,162.3c1.6-5.7,2.9-8.4,4-8.2c2,0.1,4.1,3.3,6.8,8.1"/>
<path class="st7" d="M23.5,393.5l14.2-2.9C28.6,380.3,26.1,383.5,23.5,393.5z"/>
<path class="st7" d="M64.7,385.6l18.5-5C70.8,368.9,68.7,369.7,64.7,385.6z"/>
<path class="st7" d="M93.6,376.9c6.1-2.7,11-6.4,14.7-11C93.5,359.7,92.5,360.2,93.6,376.9z"/>
<path class="st7" d="M114,356.3l5.8-18.5C103.2,341.6,103.3,343.5,114,356.3z"/>
<path class="st7" d="M121.7,325.9l1.4-21.1C106.3,313.3,109.2,315.1,121.7,325.9z"/>
<path class="st7" d="M123,288.4l-1-22.2C105.1,274.6,104.5,280.4,123,288.4z"/>
<path class="st7" d="M120.7,248.5l-1.8-25.8C100.3,231.1,100.3,239.4,120.7,248.5z"/>
<path class="st8" d="M279.6,395l-5.3-0.5c-12.4,3.3-26.3,3.5-40.7,2.8l-17.6-14.9l13.4-80.8c22.5,13,16.6,42.3,2.6,76.1
	c31.1-2.6,48.7,3.6,52.7,18.7L279.6,395z"/>
<path class="st0" d="M272.5,395l-6.3,1.2c-13.6,1.3-25.4,1.8-39.8,1.1l-17.6-14.9l13.4-80.8c22.5,13,18.1,44.8,0.3,83.2
	c31.1-2.6,30.6,3.5,39,6.3L272.5,395z"/>
<path class="st8" d="M148.3,268c2.1,12.9,5.3,25,9.6,36.3c14-4.1,20.5,22.2-1.7,74.3l59.9,3.6c10.5,3,16.9,10.1,19.3,21.3l-3.6-1.4
	l-11.3-0.6c-38.7,4.6-74.2,5.4-102.7-2.5c-24.5,12.4-75.6-2.1-111.6-0.2c33.8-12,83.8-11.7,102.2-32.9c9.3-12.9,14.5-32.7,14.7-61.1
	c1.1-41.1-6.6-86.8-4.9-125.8l21,2.5c-4,4.2-0.6,38.9,4,55.7c23.8,23.7,67.7,4.4,73.4,25.7l-5.5,7.2C194.9,272,173.4,271,148.3,268z
	"/>
<path class="st0" d="M148.3,268c2.1,12.9,5.3,25,9.6,36.3l-10,4.5l-7.8,7.5c14.4,0.6,11.7,35.2,1.9,62.2c-6.9,14,20,21.7,62.9,18.2
	l15.6,4.6c-38.7,4.6-74.2,5.4-102.7-2.5c-24.5,12.4-75.6-2.1-111.6-0.2c33.8-11.9,73.6,13.2,105-27.8c9.3-12.9,11.7-37.8,11.9-66.2
	c1.1-41.1-6.6-86.8-4.9-125.8l20.7,2.4c-10.4-1.2-7.4,38.9-2.8,55.7c12.2,30.8,44.4,22.3,74.8,22.9l5.6,2.8
	C202.1,267.9,172.4,269.2,148.3,268z"/>
<path class="st9" d="M181.3,176.4c-17.4,3.7-31.5,5.4-42.1,5c-3.2,11.1-1.6,30.1,4,55.7c26.1,24.3,67.7,4.4,73.3,25.3
	c-10,4.5-52.1,6.4-68.2,5.5c3,14.4,5.9,26.4,9.6,36.3c20-1.6,16,30.8-1.7,74.3c10.3,16.8,37.1-0.2,59.7,3.7
	c16.8-15.8,23.7-57.5,12.9-77.3c1.4-14.6-3.4-34.1-14.4-58.6c1.1-6.9-5.2-20.3-14.8-32C199.6,203.6,192.8,190.7,181.3,176.4z"/>
<path class="st7" d="M181.3,176.4c-17.4,3.7-31.5,5.4-42.1,5c-3.2,11.1-1.6,30.1,4,55.7c22.8,26.6,67.6,2.5,73,25.4l0.4,0.3
	c-10.3,2.9-36.4,6-68.3,5.2c3,14.4,5.9,26.4,9.6,36.3c20-1.6,16,30.8-1.7,74.3c10.3,16.8,37.1-0.2,59.7,3.7
	c15.8-14.7,20.8-64.2,6.6-78.5c1.4-14.6-4.5-48.8-16-60c7.2-4.2-3.9-25.4-14.1-31.8C196,208.8,189.8,188.3,181.3,176.4z"/>
<path class="st9" d="M196.2,210.1c-13.5-6.2-38.8-1.9-44,6.7c13-6.9,28.8-7.6,47.2-2.3L196.2,210.1z"/>
<path class="st9" d="M210.9,241.6c-8.6-4.2-37-4.3-38.8,2.2c21.1-2.1,31.7-1.4,42.4,2.6L210.9,241.6z"/>
<path class="st9" d="M222.7,300.6c-9.6-4.9-39.5-2.7-45.6,5c17.9-4.2,38.5-5.1,49.1-0.2L222.7,300.6z"/>
<path class="st9" d="M184.5,354.4c15-5.5,30.8-4.6,39.5-2.8C226.1,341.6,185.2,346.4,184.5,354.4z"/>
<path class="st7" d="M203.6,384.6c8.8-0.3,16.8,2.4,25.2,7.7C222.2,384.1,213.4,381.1,203.6,384.6z"/>
<path class="st7" d="M141.5,242.8c9.2,8.4,21.6,13.8,33.9,15.5C162.4,259.9,148.2,254.4,141.5,242.8z"/>
<path class="st7" d="M168,330.6c1.4-16.2-5.4-24-11.8-24.2C164.7,302.1,171.8,311.2,168,330.6z"/>
<path class="st1" d="M156.2,378.6c8.6,15.7,37.8,0.2,59.7,3.7c10.2,2.3,16.7,9.4,19.5,21.1c-5.3-1.8-11.2-5.2-17.6-10.2"/>
<path class="st1" d="M231.8,402.1c-9.5,0.3-18.4-1.4-26.9-5.2"/>
<path class="st1" d="M117.8,398.9c18.2,4.7,44.3,8.8,102.7,2.5"/>
<path class="st10" d="M150.6,243.7c16.7-8,26.3-4.7,30.1,6.9C167,249.5,157,247.2,150.6,243.7z"/>
<path class="st1" d="M279.6,395c-6.9-0.3-14.3-2.2-22.2-5.6"/>
<path class="st1" d="M233.3,397.3c16.7,0.4,33.7-0.9,40.8-2.8"/>
<path class="st1" d="M224,351.5c-11.5-1.7-24.2-1.6-35.1,1.2"/>
<path class="st1" d="M108.4,365.9c-14.8-6.2-15.9-5.7-14.7,11"/>
<path class="st1" d="M83.2,380.6c-12.4-11.6-14.5-10.8-18.5,5"/>
<path class="st1" d="M37.7,390.6c-9.1-10.3-11.6-7.1-14.2,2.9"/>
<path class="st1" d="M181.3,176.4c12.5,15.9,18.1,28.3,18.2,38c6.1,6.8,17.3,27.2,14.8,32c9,18,17.3,47.6,14.4,58.6
	c10.8,13.7,3.6,64.6-12.9,77.3"/>
<path class="st1" d="M199.4,214.4c-10-4.9-39.3-4.5-47.2,2.3"/>
<path class="st1" d="M214.3,246.5c-6.6-3.2-16.9-4.4-30.8-3.7"/>
<path class="st1" d="M222.5,303.9c-22.6-3.6-40-1.1-54.3,4.7"/>
<path class="st1" d="M137.7,190.1c0.3,12,2.1,31.9,5.5,46.9c23.8,24.9,65.8,3.6,73.3,25.3c-5.1-2.3-7.2-3.3-11.1-4.8"/>
<path class="st1" d="M148.3,268c2.2,13.4,5.7,25.8,9.6,36.3"/>
<path class="st1" d="M140.1,316.4c10.4-12.5,21.7-15.9,28.1-7.8c8.2,13.4-3.5,53.8-14.1,74.2"/>
<path class="st1" d="M229.2,301.6c22.5,13,16.6,42.3,2.6,76.1c31.1-2.6,48.7,3.6,52.7,18.7c-5.1-0.8-11.7-4.2-19.9-10.2"/>
<path class="st7" d="M118.3,210.9l-0.3-22.7C103.2,196.5,102.1,201.7,118.3,210.9z"/>
<path class="st1" d="M118.2,178.9c-3,62.1,17.9,144.8-8.9,186.2c-16.8,22.9-74.6,21.6-103.1,33.6c41.3-3.4,101.7,20.6,123.8-10.2"/>
<path class="st1" d="M118,188.1c-14.8,8.3-15.9,13.6,0.3,22.7"/>
<path class="st1" d="M119,222.7c-18.6,8.3-18.7,16.7,1.8,25.8"/>
<path class="st1" d="M121.9,266.2c-16.8,8.5-17.4,14.2,1,22.2"/>
<path class="st1" d="M123.1,304.8c-16.8,8.5-13.8,10.4-1.4,21.1"/>
<path class="st1" d="M119.8,337.8c-16.6,3.8-16.5,5.7-5.8,18.5"/>
<path class="st8" d="M139.4,150.2c31.3-1.7,91-47.9,123.4-53.6c14.5,0.5,20.7-5,18.8-16.4c0.7-8.7,21.1-16.9,2.1-26.1l-6.7-3.9
	c-7.8-6.5-15.5-6.7-22.9,7c-24.6,5-51.9,13.4-85,29.6c-31.5-31.1-55.9-30.1-48.9-7.5C93.1,68.7,79.8,85,93.8,135.5
	c-17.9,25.9-2.1,51,15.5,54.4l8.7,1.2c35.4,4.9,56.5-29.4,134.2-20c10.5,2.1,16.6-8.7,9.3-13.1c-41.2-1.8-91.8,14.3-125.1,3.6
	c-8.5-2.7-16.1-7-21.6-14.6C121.9,149.6,130.2,150.5,139.4,150.2z"/>
<path class="st0" d="M102,128.8l-8.1,6.7c-14.1-50.6-0.7-66.9,26.4-56.2C86.2,71.4,88.2,104.3,102,128.8z M147.4,148.5
	c25.4-1.2,88-48.9,115.4-51.9c14.5,0.5,20.7-5,18.8-16.4c0.7-8.7-4.2,18.1-23.2,8.8C224.4,101.3,189.5,131.3,147.4,148.5
	c-10.7,3.4-22.7,2.2-36-3.6c-16.5,19.8-13.8,43.6,6.3,46c30.1,3.3,61.9-21.5,108.1-21.4c-43.4-8.4-85.5,20-112.8-16.9l-2-3.2
	l0.5-4.5l10.7,4.5l11.1,1L147.4,148.5z"/>
<path class="st7" d="M254.1,57.2c-33.6,6.4-68.7,20.2-105.3,41.2l34.4-14.3l-0.9,3.2c4.3-6.3,14.6-11.6,30.9-15.8l-2.7,5.8
	c3.3-6.4,14.6-10,37.9-14.3l-6.3,5.2c-4.2,6-2,12.6,3.1,19.4c-4.5-17.4,2.7-16.8,9.9-25c5.1-5.4,7.2-16,15.2-16.3
	C263.2,42.8,258.4,48.7,254.1,57.2z"/>
<path class="st5" d="M261.6,97.2c4.8-1,10.6-1.5,14.5-3.1c1,6.3,0.9,9.5-0.3,9.8C273.8,104.9,268.5,102,261.6,97.2z"/>
<path class="st11" d="M276.2,94.2c1,6.3,0.9,9.5-0.3,9.8c-2,1-7.4-2-14.2-6.7"/>
<path class="st5" d="M281.7,80.2l7.1-10.4c2.1,7,3.1,14,2,14.2C288.9,84.9,285.9,83.1,281.7,80.2z"/>
<path class="st1" d="M114.6,146.8c24.6,34.5,103.4,10.8,143.6,10.4c8.6-0.2,9.7,14.5-6,13.8"/>
<path class="st11" d="M288.8,69.8c2.1,7,3.1,14,2,14.2c-1.8,0.8-4.8-0.9-9.1-3.9"/>
<path class="st7" d="M92.6,142.3c-3.5,10.4-3,20.9,0.4,32.8C85.6,164.4,85.1,152.8,92.6,142.3z"/>
<path class="st5" d="M108.5,124.7c10.7-5.5,24.7-8.6,32.1-16.4c-12.6-19.6-25.7-26.4-34.1-21.8C98.3,93.1,101.9,110.6,108.5,124.7z"
	/>
<path class="st5" d="M148.8,70.3l9.7,6.9l10.7,9.6L149,98.4C130.8,74.7,134,64.9,148.8,70.3z"/>
<path class="st12" d="M148.9,98.5l15.6-9.3c-8.2-10.6-17.2-16.6-22.3-13.5C137.7,78.8,141.3,88.3,148.9,98.5z"/>
<path class="st12" d="M108.5,124.7l26.1-12.2c-10.1-15.6-19.4-22.8-26.1-19.1C101.9,98.6,103.4,112.4,108.5,124.7z"/>
<path class="st1" d="M254.1,57.2c-40.9,8.8-76,22.6-105.3,41.2"/>
<path class="st1" d="M169.1,86.8c-31.5-31.1-55.9-30.1-48.9-7.5C93.1,68.7,79.8,85,93.8,135.5c-19,23.4-2.1,51,15.5,54.4
	c47.5,8.5,59.3-27.2,142.8-18.8"/>
<path class="st1" d="M245.2,87.7c-14.3-21,3.3-20.8,8.9-30.5c4.3-7,8-14.4,16.2-10.9c4.8,1.2,9.1,7,13.4,7.8
	c17.6,7.3-0.1,18.8-2.1,26.1"/>
<path class="st0" d="M253.9,70.3c1.5,3.3,3,15.3,8.3,10.1C266.2,75.4,258.1,71.1,253.9,70.3z"/>
<path class="st1" d="M253.9,70.3c1.5,3.3,3,15.3,8.3,10.1C266.2,75.4,258.1,71.1,253.9,70.3z"/>
<path class="st0" d="M266.1,52.8c2,2.6,5.9,12.7,9.4,7.1C277.9,54.8,269.9,52.7,266.1,52.8z"/>
<path class="st1" d="M266.1,52.8c2,2.6,5.9,12.7,9.4,7.1C277.9,54.8,269.9,52.7,266.1,52.8z"/>
<path class="st5" d="M122,149.3c6.1,0.5,11.9,0.7,17.4,0.6c-0.4,6.9-4.7,16.5-5.7,16.3C131.8,166.3,124.4,155.3,122,149.3z"/>
<path class="st5" d="M184.6,133.9l9.6-4.8c1.1,5.8,1.1,8.8,0,9.1C192.4,139,189.1,137,184.6,133.9z"/>
<path class="st6" d="M194.2,129.1c1.1,5.8,1.1,8.8,0,9.1c-1.8,0.8-5.1-1.2-9.6-4.3"/>
<path class="st1" d="M188.1,77.8c-2.8,2.1-5.7,6.6-5.8,9.5"/>
<path class="st1" d="M217.7,66.9c-3.3,2.4-6.8,7.4-7.1,10.4"/>
<path class="st1" d="M118.6,141.1c-8.6,0.3-9.7,8.1-5.7,11.5"/>
<path class="st1" d="M93.9,135.5c19.6-18.8,37.2-15.7,48.3-28.9"/>
<path class="st1" d="M140.6,108.4C128,88.8,114.9,82,106.5,86.6c-8.2,6.5-4.6,23.9,2,38.1"/>
<path class="st1" d="M148.9,98.4c-18.1-23.7-14.9-33.5-0.1-28.1"/>
<ellipse transform="matrix(0.8195 -0.5731 0.5731 0.8195 -42.6605 87.4529)" class="st13" cx="117.5" cy="111.5" rx="7.4" ry="7.4"/>
<ellipse transform="matrix(0.8194 -0.5733 0.5733 0.8194 -39.2616 87.0697)" class="st5" cx="118.5" cy="105.8" rx="3.3" ry="3.3"/>
<ellipse transform="matrix(0.8195 -0.5731 0.5731 0.8195 -24.0023 102.506)" class="st13" cx="150.7" cy="89.4" rx="6.3" ry="6.3"/>
<ellipse transform="matrix(0.8193 -0.5733 0.5733 0.8193 -21.0722 102.1857)" class="st5" cx="151.6" cy="84.5" rx="2.8" ry="2.8"/>
<path class="st7" d="M92.8,95.3c4-9.3,9.9-17.1,23.3-13C101.7,73.9,94.5,83,92.8,95.3z"/>
<path class="st7" d="M121.4,76.2c0.2-6.9,4.5-13.2,15.4-10.2C125.4,61,119.1,66.5,121.4,76.2z"/>
<path class="st6" d="M139.4,149.9c-0.4,6.9-4.7,16.5-5.7,16.3c-1.9,0.1-9.3-10.9-11.6-16.9"/>
<path class="st1" d="M112.4,146c42.2,21.1,105.7-39.9,150.4-49.4c4.7-0.3,13.4,0.2,16.9-6c5-6.5-0.9-15.3,1.9-21.1"/>
<path class="st10" d="M148.3,268l29.5-0.3c5.9,24,23.6,39.9,17.8,71.9c-6.5-3.4-24.2-2.7-40,3.9C162,307.6,149.4,293.2,148.3,268z"
	/>
<path class="st14" d="M177.8,267.7c5.9,24,23.6,39.9,17.8,71.9c-6.5-3.4-24.2-2.7-40,3.9c6.5-35.9-6.1-50.3-7.2-75.5"/>
<path class="st1" d="M216.5,262.5c-21.5,6.8-42.2,5.2-68.2,5.5"/>
<path class="st5" d="M164.7,239.5c11.3-0.9,24.2,11.7,11.1,31.1c-11.3,16.6-28.9,33.9-24.8,56.7c27.1-18.9,31.7,5.8,50.9-8.7
	c-7.8-32.2,5.5-36.4,7.8-51.5C211.8,242.8,188,235.9,164.7,239.5z"/>
<path class="st14" d="M153.4,242.9c19.8-11,37.8,6.7,22.5,27.8c-11.8,16.3-28.9,33.9-24.8,56.7c27.1-18.9,31.7,5.8,50.9-8.7
	c-7.8-32.2,5.5-36.4,7.8-51.5c2.2-24.5-21.6-31.3-44.9-27.7"/>
</svg>
