<?xml version="1.0" encoding="utf-8"?>
<!-- Generator: Adobe Illustrator 21.1.0, SVG Export Plug-In . SVG Version: 6.00 Build 0)  -->
<svg version="1.1" id="Layer_1" xmlns="http://www.w3.org/2000/svg" xmlns:xlink="http://www.w3.org/1999/xlink" x="0px" y="0px"
	 viewBox="0 0 517 425" style="enable-background:new 0 0 517 425;" xml:space="preserve">
<style type="text/css">
	.st0{fill-rule:evenodd;clip-rule:evenodd;fill:#FFF3DF;}
	.st1{fill-rule:evenodd;clip-rule:evenodd;fill:#E2EAB6;}
	.st2{fill-rule:evenodd;clip-rule:evenodd;fill:#D3E095;}
</style>
<path class="st0" d="M108.9,406.1C-18.5,344-27.6,150.9,80.1,57.7C211-55.7,472.4,8.2,478.7,165.4c-0.8,47.3-60.8,59.4-60.8,90.2
	c0,97.6-100.3,40.6-75.7,113.5C362.4,429.2,181.5,439.2,108.9,406.1z"/>
<path class="st1" d="M58.9,188.9c-6.8-12.1-20.3-6.8-16.4,15.1c-13.4-2-24.5,7.5-19.7,21.1C-27,268.2,8.6,368,93.1,404.4l28.7-31.9
	c-15.8,37,41.7,37.9,46.9-5.9c0.1-0.5,56.6-13.5,11,3.1l29.5-9.5c-92.8,22.9-58.3,50.9,72.8,30.4c30.2-5.3,41.2-25.2,23.1-28.9
	c-0.6-0.1-4.8,5.2-0.3-2.3c9-14.9-4.4-22.2-16.7-24.2c9.6-1.2,10.1-9.7,8.6-15.6c-0.1-0.6,1.9-2.6,3.3-4.1c5.9-6.5-4.2-23.2-13.4-13
	c-0.6,0.6,6.5-6.7,6.8-8.8c1-5.4-4.9-9.6-2-11.3c11.4-6.7,12-17.4,6.8-22.8c-8.7-9-24.9,2.2-24.7,4.2c-0.8-16.1-10-15.9-17-10.8
	c0,0,1.9-15-6.3-22c-7.4-6.4-18.5,0.7-23.2,6.7c3.8-17-17.1-20.1-24.5-16.2c-2.8-23.4-122-66.1-106.1-51.4
	c1.6,1.5-11.4,2.6-12.6,3.9c-3.1,3.8,5.1,9.8,4.2,9.9c-3.2,0.3-5.2,2.6-6.2,4.9c-2-1.4-4.8-1.7-8.6,0.8c-1.5,1-4.9-7.6-8.8-6
	C64.7,183.5,59,186.2,58.9,188.9z"/>
<path class="st2" d="M61.5,239.2c-6.5,0.3-12-1.3-16.4-6.6l-0.5-0.6C44.5,231.8,57.3,228.1,61.5,239.2z"/>
<path class="st1" d="M234,226c6.4-1.3,11.3-4.1,14.3-10.4l0.4-0.7C248.8,214.7,235.5,214.1,234,226z"/>
<path class="st2" d="M39.2,270.6c-6.4,2.5-12.2,2.6-18.1-2l-0.7-0.5C20.1,267.8,31.7,259.3,39.2,270.6z"/>
<path class="st2" d="M65.6,232.5c-6-0.4-10.9-10.3-8.1-17.9l-0.1-0.8C57.4,213.4,72.2,224,65.6,232.5z"/>
<path class="st1" d="M228.4,220.4c5.8-1.8,8.1-12.7,3.5-19.4l-0.1-0.8C231.8,199.9,220,213.9,228.4,220.4z"/>
</svg>
