<?xml version="1.0" encoding="utf-8"?>
<!-- Generator: Adobe Illustrator 21.1.0, SVG Export Plug-In . SVG Version: 6.00 Build 0)  -->
<svg version="1.1" id="Layer_1" xmlns="http://www.w3.org/2000/svg" xmlns:xlink="http://www.w3.org/1999/xlink" x="0px" y="0px"
	 viewBox="0 0 517 425" style="enable-background:new 0 0 517 425;" xml:space="preserve">
<style type="text/css">
	.st0{fill-rule:evenodd;clip-rule:evenodd;fill:#FFF3DF;}
	.st1{fill-rule:evenodd;clip-rule:evenodd;fill:#E2EAB6;}
	.st2{fill-rule:evenodd;clip-rule:evenodd;fill:#B5CAD6;}
	.st3{fill-rule:evenodd;clip-rule:evenodd;fill:#A35939;}
	.st4{fill:none;stroke:#822E2D;stroke-width:1.7011;stroke-linecap:round;stroke-linejoin:round;stroke-miterlimit:22.9256;}
	.st5{fill-rule:evenodd;clip-rule:evenodd;fill:#F7CA8F;}
	.st6{fill:none;stroke:#D1822F;stroke-width:1.7011;stroke-linecap:round;stroke-linejoin:round;stroke-miterlimit:22.9256;}
	.st7{fill-rule:evenodd;clip-rule:evenodd;fill:#F5B0B4;}
	.st8{fill-rule:evenodd;clip-rule:evenodd;fill:#E78E92;}
	.st9{fill:none;stroke:#D8767A;stroke-width:1.7011;stroke-linecap:round;stroke-linejoin:round;stroke-miterlimit:22.9256;}
	.st10{fill-rule:evenodd;clip-rule:evenodd;fill:#FFFFFF;}
	.st11{fill:none;stroke:#575656;stroke-width:1.7011;stroke-linecap:round;stroke-linejoin:round;stroke-miterlimit:22.9256;}
	.st12{fill-rule:evenodd;clip-rule:evenodd;fill:#D3E095;}
	.st13{fill-rule:evenodd;clip-rule:evenodd;fill:#D88F55;}
	.st14{fill-rule:evenodd;clip-rule:evenodd;fill:#BD6E39;}
	.st15{fill-rule:evenodd;clip-rule:evenodd;fill:#EDB581;}
	.st16{fill-rule:evenodd;clip-rule:evenodd;fill:#D8D9D9;}
	.st17{fill:none;stroke:#6E6E6E;stroke-width:1.7011;stroke-linecap:round;stroke-linejoin:round;stroke-miterlimit:22.9256;}
	.st18{fill-rule:evenodd;clip-rule:evenodd;fill:#CAD44E;}
	.st19{fill-rule:evenodd;clip-rule:evenodd;fill:#1A1A18;}
	.st20{fill-rule:evenodd;clip-rule:evenodd;fill:#CA6C32;}
	.st21{fill-rule:evenodd;clip-rule:evenodd;fill:#A24B2A;}
	.st22{fill:none;stroke:#783529;stroke-width:1.7011;stroke-linecap:round;stroke-linejoin:round;stroke-miterlimit:22.9256;}
	.st23{fill-rule:evenodd;clip-rule:evenodd;fill:#E29769;}
	.st24{fill-rule:evenodd;clip-rule:evenodd;fill:#ECECEC;}
	.st25{fill:none;stroke:#FFFFFF;stroke-width:1.7011;stroke-linecap:round;stroke-linejoin:round;stroke-miterlimit:22.9256;}
	.st26{fill:none;stroke:#C5C5C6;stroke-width:1.7011;stroke-linecap:round;stroke-linejoin:round;stroke-miterlimit:22.9256;}
	.st27{fill-rule:evenodd;clip-rule:evenodd;fill:#E9F6FD;}
	.st28{clip-path:url(#SVGID_2_);}
	.st29{clip-path:url(#SVGID_4_);}
	.st30{fill:none;stroke:#E30045;stroke-width:8.5055;stroke-linecap:round;stroke-linejoin:round;stroke-miterlimit:22.9256;}
</style>
<path class="st0" d="M108.9,406.1C-18.5,344-27.6,150.9,80.1,57.7C211-55.7,472.4,8.2,478.7,165.4c-0.8,47.3-60.8,59.4-60.8,90.2
	c0,97.6-100.3,40.6-75.7,113.5C362.4,429.2,181.5,439.2,108.9,406.1z"/>
<path class="st1" d="M58.9,188.9c-6.8-12.1-20.3-6.8-16.4,15.1c-13.4-2-24.5,7.5-19.7,21.1C-27,268.2,8.6,368,93.1,404.4l28.7-31.9
	c-15.8,37,41.7,37.9,46.9-5.9c0.1-0.5,56.6-13.5,11,3.1l29.5-9.5c-92.8,22.9-58.3,50.9,72.8,30.4c30.2-5.3,41.2-25.2,23.1-28.9
	c-0.6-0.1-4.8,5.2-0.3-2.3c9-14.9-4.4-22.2-16.7-24.2c9.6-1.2,10.1-9.7,8.6-15.6c-0.1-0.6,1.9-2.6,3.3-4.1c5.9-6.5-4.2-23.2-13.4-13
	c-0.6,0.6,6.5-6.7,6.8-8.8c1-5.4-4.9-9.6-2-11.3c11.4-6.7,12-17.4,6.8-22.8c-8.7-9-24.9,2.2-24.7,4.2c-0.8-16.1-10-15.9-17-10.8
	c0,0,1.9-15-6.3-22c-7.4-6.4-18.5,0.7-23.2,6.7c3.8-17-17.1-20.1-24.5-16.2c-2.8-23.4-122-66.1-106.1-51.4
	c1.6,1.5-11.4,2.6-12.6,3.9c-3.1,3.8,5.1,9.8,4.2,9.9c-3.2,0.3-5.2,2.6-6.2,4.9c-2-1.4-4.8-1.7-8.6,0.8c-1.5,1-4.9-7.6-8.8-6
	C64.7,183.5,59,186.2,58.9,188.9z"/>
<path class="st2" d="M354.8,182.8l2.3-2.7c1.6-1.9,4.4-2.1,6.3-0.5l76.7,65.7c1.9,1.6,2.1,4.4,0.5,6.3l-2.3,2.7
	c-1.6,1.9-4.4,2.1-6.3,0.5l-76.7-65.7C353.4,187.5,353.2,184.6,354.8,182.8z"/>
<path class="st3" d="M383.3,138.8c11,4.8,30.2,2.3,39.8-8.3c6.9-8.5,5.2-29.7-19.5-42.4c-24.3-14.2-54.9-1-65.8-26
	C328.9,80.3,346.8,126.7,383.3,138.8z"/>
<path class="st4" d="M403.6,88.1c-24.3-14.2-54.9-1-65.8-26c-14.3,36.3,42.7,105.1,85.3,68.4"/>
<path class="st4" d="M369.1,91.5c-15.8-4.8-24.2-12.8-27.4-23.1"/>
<path class="st4" d="M362.8,107.1c-14.2-7.2-23.4-19.8-27.4-34.2"/>
<path class="st5" d="M410.9,173.3l-4.1,1l-7.3-0.9c1.2,9.2,0.2,18.1-3.1,26.7c-10.9-6.3-30.6,8.1-18,18.5c0.8,3.3,3.2,5.5,7.2,6.2
	c3.1,3.3,10,0.8,7.5-5c-2.2-7.6,12.2-9.6,11.9-4.5c1.2,4.1,4.5,4.9,5.5,0.8c1.5-5.6-4.3-11.9-8-13.7
	C407.9,193.4,411.6,183.5,410.9,173.3z"/>
<path class="st6" d="M399.5,173.4c1.7,11.3,0.2,19.3-3.6,28"/>
<path class="st6" d="M396.4,200.1c-14.9-4.9-29.6,9.8-17.8,19"/>
<path class="st6" d="M393.2,206.8c-9.2,0.5-11.5,12-6.9,18.1c-9.4-0.4-14.6-18.5,2.1-22.1"/>
<path class="st6" d="M386.3,224.9c2.9,3.1,8.6,0,6.8-5c-1.8-6,8.3-10.7,11.9-4.5c0.1,3.1,3.7,5.6,5.5,0.8c0.9-7-4.3-11.9-8-13.7
	c5.4-9,9.1-18.8,8.5-29"/>
<path class="st3" d="M463.4,159.3l-3.4-15.7c4.1,0.7,8.6,0.9,13.5,0.5C471.2,150.2,467.8,155.3,463.4,159.3z"/>
<path class="st3" d="M466.1,156.6l3.2-4.3l4.1-8.3l-10.9-0.1c8.3-3.5,16-23.1,28.6-48.6c1.6,6.2,2.4,13.9,5.8,18
	c3.6,2.1,10,1.8,19.1-0.8C511.7,133.1,483.6,159.2,466.1,156.6z"/>
<path class="st4" d="M462.6,144c8.3-3.5,16-23.1,28.6-48.6c1.6,6.2,2.4,13.9,5.8,18c3.6,2.1,10,1.8,19.1-0.8
	c-4.5,20.5-32.6,46.6-50,44"/>
<path class="st4" d="M470.5,144.2c6-5.6,11.2-12.6,15.8-20.9"/>
<path class="st4" d="M471.7,148.2c6.7-1.7,14.1-7.5,22-17.6"/>
<path class="st3" d="M412.3,181.4l-1.7-9.8l-16.2-3.2C397.8,188.1,408.9,188.4,412.3,181.4z"/>
<path class="st5" d="M433.3,190.1l-4.1,1l-7.3-0.9c1.2,9.2,0.2,18.1-3.1,26.7c-13.4-4.2-31.2,6-20.4,19.2c2.6,2.6,3.7,5,7.5,6
	c2.8,2.7,11,2.5,7.4-5.7c-0.2-6.7,7.2-10.2,7.4-6.9l5.8,5.1c2.3-5.3,1.7-11-2-12.9C429.8,212.6,433.9,200.3,433.3,190.1z"/>
<path class="st6" d="M421.9,190.2c1.7,11.3,0.1,19.4-3.7,28.1"/>
<path class="st6" d="M418.8,216.9c-18.2-4.4-31.2,10.6-17.7,21.8"/>
<path class="st6" d="M414.5,223.2c-9,1.6-14,9.8-8.6,18.9c-9.6-3-12.4-20.1,4.6-22"/>
<path class="st6" d="M426.7,234c3.2-4.6,1.6-9.8-2.3-12.3c5.4-9,9.4-21.3,8.8-31.5 M405.9,242.1c3,3,10.6,1.8,7-6.6
	c-0.6-4.8,5.2-7.4,7.5-6.9"/>
<path class="st4" d="M392.9,162.3c1.4,7.2,4.4,16.4,6.9,19.2c1.1,2.2,9.5,6.3,12.8-0.8"/>
<path class="st3" d="M241.5,276.9c-17.5-7.9-30.9-17.4-40.1-28.6l5.2-23.1c8.7,28.6,42.2,30.7,40.6,57.1L241.5,276.9z"/>
<path class="st4" d="M206.7,225.2c8.7,28.6,42.2,30.7,40.6,57.1c-4.9-3.9-7.6-7.2-12.2-13.5"/>
<path class="st4" d="M243.3,278.5c-14.8-7.3-35-19.3-41.8-30.2"/>
<path class="st3" d="M147.4,148.5l37.2-14.6c-1.4,35.7,32.6,23.7,41.2,24.2l-35.7,6.3h-20.5L147.4,148.5z"/>
<path class="st4" d="M184.6,133.9c-0.1,13.6,3.1,21.3,9.7,23"/>
<path class="st7" d="M165,143.5c17.6,17.2,65,5.4,71,15.4l-62.3,19h-17.2L117,150L165,143.5z"/>
<path class="st8" d="M175.7,149.8c-2.1-0.8-12.9,0-10.2,6.6c-12.7-1.5-15.5,2.2-13.7,8.3l4.8,13.1L127,158.5l-11.2-2.3l-1.1-9.3
	l50.4-3.3C167.7,145.9,171.2,148,175.7,149.8z"/>
<path class="st9" d="M165,143.5c22.3,18,60.9,5.8,71,15.4"/>
<path class="st10" d="M244.2,158.9l-10.8,0.1c1.6-5.7,2.9-8.4,4-8.2C239.4,150.9,241.5,154.1,244.2,158.9z"/>
<path class="st10" d="M258.4,158.9l-10.8,0.1c1.6-5.7,2.9-8.4,4-8.2C253.6,150.9,255.6,154.1,258.4,158.9z"/>
<path class="st10" d="M220,162.2l-10.8,0.1c1.6-5.7,2.9-8.4,4-8.2C215.2,154.2,217.3,157.5,220,162.2z"/>
<path class="st11" d="M233.4,159c1.6-5.7,2.9-8.4,4-8.2c2,0.1,4.1,3.3,6.8,8.1"/>
<path class="st11" d="M247.5,159c1.6-5.7,2.9-8.4,4-8.2c2,0.1,4.1,3.3,6.8,8.1"/>
<path class="st11" d="M209.3,162.3c1.6-5.7,2.9-8.4,4-8.2c2,0.1,4.1,3.3,6.8,8.1"/>
<path class="st12" d="M61.5,239.2c-6.5,0.3-12-1.3-16.4-6.6l-0.5-0.6C44.5,231.8,57.3,228.1,61.5,239.2z"/>
<path class="st1" d="M234,226c6.4-1.3,11.3-4.1,14.3-10.4l0.4-0.7C248.8,214.7,235.5,214.1,234,226z"/>
<path class="st12" d="M39.2,270.6c-6.4,2.5-12.2,2.6-18.1-2l-0.7-0.5C20.1,267.8,31.7,259.3,39.2,270.6z"/>
<path class="st12" d="M65.6,232.5c-6-0.4-10.9-10.3-8.1-17.9l-0.1-0.8C57.4,213.4,72.2,224,65.6,232.5z"/>
<path class="st1" d="M228.4,220.4c5.8-1.8,8.1-12.7,3.5-19.4l-0.1-0.8C231.8,199.9,220,213.9,228.4,220.4z"/>
<path class="st13" d="M23.5,393.5l14.2-2.9C28.6,380.3,26.1,383.5,23.5,393.5z"/>
<path class="st13" d="M64.7,385.6l18.5-5C70.8,368.9,68.7,369.7,64.7,385.6z"/>
<path class="st13" d="M93.6,376.9c6.1-2.7,11-6.4,14.7-11C93.5,359.7,92.5,360.2,93.6,376.9z"/>
<path class="st13" d="M114,356.3l5.8-18.5C103.2,341.6,103.3,343.5,114,356.3z"/>
<path class="st13" d="M121.7,325.9l1.4-21.1C106.3,313.3,109.2,315.1,121.7,325.9z"/>
<path class="st13" d="M123,288.4l-1-22.2C105.1,274.6,104.5,280.4,123,288.4z"/>
<path class="st13" d="M120.7,248.5l-1.8-25.8C100.3,231.1,100.3,239.4,120.7,248.5z"/>
<path class="st14" d="M279.6,395l-5.3-0.5c-12.4,3.3-26.3,3.5-40.7,2.8l-17.6-14.9l13.4-80.8c22.5,13,16.6,42.3,2.6,76.1
	c31.1-2.6,48.7,3.6,52.7,18.7L279.6,395z"/>
<path class="st3" d="M272.5,395l-6.3,1.2c-13.6,1.3-25.4,1.8-39.8,1.1l-17.6-14.9l13.4-80.8c22.5,13,18.1,44.8,0.3,83.2
	c31.1-2.6,30.6,3.5,39,6.3L272.5,395z"/>
<path class="st14" d="M148.3,268c2.1,12.9,5.3,25,9.6,36.3c14-4.1,20.5,22.2-1.7,74.3l59.9,3.6c10.5,3,16.9,10.1,19.3,21.3l-3.6-1.4
	l-11.3-0.6c-38.7,4.6-74.2,5.4-102.7-2.5c-24.5,12.4-75.6-2.1-111.6-0.2c33.8-12,83.8-11.7,102.2-32.9c9.3-12.9,14.5-32.7,14.7-61.1
	c1.1-41.1-6.6-86.8-4.9-125.8l21,2.5c-4,4.2-0.6,38.9,4,55.7c23.8,23.7,67.7,4.4,73.4,25.7l-5.5,7.2C194.9,272,173.4,271,148.3,268z
	"/>
<path class="st3" d="M148.3,268c2.1,12.9,5.3,25,9.6,36.3l-10,4.5l-7.8,7.5c14.4,0.6,11.7,35.2,1.9,62.2c-6.9,14,20,21.7,62.9,18.2
	l15.6,4.6c-38.7,4.6-74.2,5.4-102.7-2.5c-24.5,12.4-75.6-2.1-111.6-0.2c33.8-11.9,73.6,13.2,105-27.8c9.3-12.9,11.7-37.8,11.9-66.2
	c1.1-41.1-6.6-86.8-4.9-125.8l20.7,2.4c-10.4-1.2-7.4,38.9-2.8,55.7c12.2,30.8,44.4,22.3,74.8,22.9l5.6,2.8
	C202.1,267.9,172.4,269.2,148.3,268z"/>
<path class="st15" d="M181.3,176.4c-17.4,3.7-31.5,5.4-42.1,5c-3.2,11.1-1.6,30.1,4,55.7c26.1,24.3,67.7,4.4,73.3,25.3
	c-10,4.5-52.1,6.4-68.2,5.5c3,14.4,5.9,26.4,9.6,36.3c20-1.6,16,30.8-1.7,74.3c10.3,16.8,37.1-0.2,59.7,3.7
	c16.8-15.8,23.7-57.5,12.9-77.3c1.4-14.6-3.4-34.1-14.4-58.6c1.1-6.9-5.2-20.3-14.8-32C199.6,203.6,192.8,190.7,181.3,176.4z"/>
<path class="st13" d="M181.3,176.4c-17.4,3.7-31.5,5.4-42.1,5c-3.2,11.1-1.6,30.1,4,55.7c22.8,26.6,67.6,2.5,73,25.4l0.4,0.3
	c-10.3,2.9-36.4,6-68.3,5.2c3,14.4,5.9,26.4,9.6,36.3c20-1.6,16,30.8-1.7,74.3c10.3,16.8,37.1-0.2,59.7,3.7
	c15.8-14.7,20.8-64.2,6.6-78.5c1.4-14.6-4.5-48.8-16-60c7.2-4.2-3.9-25.4-14.1-31.8C196,208.8,189.8,188.3,181.3,176.4z"/>
<path class="st15" d="M196.2,210.1c-13.5-6.2-38.8-1.9-44,6.7c13-6.9,28.8-7.6,47.2-2.3L196.2,210.1z"/>
<path class="st15" d="M210.9,241.6c-8.6-4.2-37-4.3-38.8,2.2c21.1-2.1,31.7-1.4,42.4,2.6L210.9,241.6z"/>
<path class="st15" d="M222.7,300.6c-9.6-4.9-39.5-2.7-45.6,5c17.9-4.2,38.5-5.1,49.1-0.2L222.7,300.6z"/>
<path class="st15" d="M184.5,354.4c15-5.5,30.8-4.6,39.5-2.8C226.1,341.6,185.2,346.4,184.5,354.4z"/>
<path class="st13" d="M203.6,384.6c8.8-0.3,16.8,2.4,25.2,7.7C222.2,384.1,213.4,381.1,203.6,384.6z"/>
<path class="st13" d="M141.5,242.8c9.2,8.4,21.6,13.8,33.9,15.5C162.4,259.9,148.2,254.4,141.5,242.8z"/>
<path class="st13" d="M168,330.6c1.4-16.2-5.4-24-11.8-24.2C164.7,302.1,171.8,311.2,168,330.6z"/>
<path class="st4" d="M156.2,378.6c8.6,15.7,37.8,0.2,59.7,3.7c10.2,2.3,16.7,9.4,19.5,21.1c-5.3-1.8-11.2-5.2-17.6-10.2"/>
<path class="st4" d="M231.8,402.1c-9.5,0.3-18.4-1.4-26.9-5.2"/>
<path class="st4" d="M117.8,398.9c18.2,4.7,44.3,8.8,102.7,2.5"/>
<path class="st16" d="M150.6,243.7c16.7-8,26.3-4.7,30.1,6.9C167,249.5,157,247.2,150.6,243.7z"/>
<path class="st4" d="M279.6,395c-6.9-0.3-14.3-2.2-22.2-5.6"/>
<path class="st4" d="M233.3,397.3c16.7,0.4,33.7-0.9,40.8-2.8"/>
<path class="st4" d="M224,351.5c-11.5-1.7-24.2-1.6-35.1,1.2"/>
<path class="st4" d="M108.4,365.9c-14.8-6.2-15.9-5.7-14.7,11"/>
<path class="st4" d="M83.2,380.6c-12.4-11.6-14.5-10.8-18.5,5"/>
<path class="st4" d="M37.7,390.6c-9.1-10.3-11.6-7.1-14.2,2.9"/>
<path class="st4" d="M181.3,176.4c12.5,15.9,18.1,28.3,18.2,38c6.1,6.8,17.3,27.2,14.8,32c9,18,17.3,47.6,14.4,58.6
	c10.8,13.7,3.6,64.6-12.9,77.3"/>
<path class="st4" d="M199.4,214.4c-10-4.9-39.3-4.5-47.2,2.3"/>
<path class="st4" d="M214.3,246.5c-6.6-3.2-16.9-4.4-30.8-3.7"/>
<path class="st4" d="M222.5,303.9c-22.6-3.6-40-1.1-54.3,4.7"/>
<path class="st4" d="M137.7,190.1c0.3,12,2.1,31.9,5.5,46.9c23.8,24.9,65.8,3.6,73.3,25.3c-5.1-2.3-7.2-3.3-11.1-4.8"/>
<path class="st4" d="M148.3,268c2.2,13.4,5.7,25.8,9.6,36.3"/>
<path class="st4" d="M140.1,316.4c10.4-12.5,21.7-15.9,28.1-7.8c8.2,13.4-3.5,53.8-14.1,74.2"/>
<path class="st4" d="M229.2,301.6c22.5,13,16.6,42.3,2.6,76.1c31.1-2.6,48.7,3.6,52.7,18.7c-5.1-0.8-11.7-4.2-19.9-10.2"/>
<path class="st13" d="M118.3,210.9l-0.3-22.7C103.2,196.5,102.1,201.7,118.3,210.9z"/>
<path class="st4" d="M118.2,178.9c-3,62.1,17.9,144.8-8.9,186.2c-16.8,22.9-74.6,21.6-103.1,33.6c41.3-3.4,101.7,20.6,123.8-10.2"/>
<path class="st4" d="M118,188.1c-14.8,8.3-15.9,13.6,0.3,22.7"/>
<path class="st4" d="M119,222.7c-18.6,8.3-18.7,16.7,1.8,25.8"/>
<path class="st4" d="M121.9,266.2c-16.8,8.5-17.4,14.2,1,22.2"/>
<path class="st4" d="M123.1,304.8c-16.8,8.5-13.8,10.4-1.4,21.1"/>
<path class="st4" d="M119.8,337.8c-16.6,3.8-16.5,5.7-5.8,18.5"/>
<path class="st14" d="M139.4,150.2c31.3-1.7,91-47.9,123.4-53.6c14.5,0.5,20.7-5,18.8-16.4c0.7-8.7,21.1-16.9,2.1-26.1l-6.7-3.9
	c-7.8-6.5-15.5-6.7-22.9,7c-24.6,5-51.9,13.4-85,29.6c-31.5-31.1-55.9-30.1-48.9-7.5C93.1,68.7,79.8,85,93.8,135.5
	c-17.9,25.9-2.1,51,15.5,54.4l8.7,1.2c35.4,4.9,56.5-29.4,134.2-20c10.5,2.1,16.6-8.7,9.3-13.1c-41.2-1.8-91.8,14.3-125.1,3.6
	c-8.5-2.7-16.1-7-21.6-14.6C121.9,149.6,130.2,150.5,139.4,150.2z"/>
<path class="st3" d="M102,128.8l-8.1,6.7c-14.1-50.6-0.7-66.9,26.4-56.2C86.2,71.4,88.2,104.3,102,128.8z M147.4,148.5
	c25.4-1.2,88-48.9,115.4-51.9c14.5,0.5,20.7-5,18.8-16.4c0.7-8.7-4.2,18.1-23.2,8.8C224.4,101.3,189.5,131.3,147.4,148.5
	c-10.7,3.4-22.7,2.2-36-3.6c-16.5,19.8-13.8,43.6,6.3,46c30.1,3.3,61.9-21.5,108.1-21.4c-43.4-8.4-85.5,20-112.8-16.9l-2-3.2
	l0.5-4.5l10.7,4.5l11.1,1L147.4,148.5z"/>
<path class="st13" d="M254.1,57.2c-33.6,6.4-68.7,20.2-105.3,41.2l34.4-14.3l-0.9,3.2c4.3-6.3,14.6-11.6,30.9-15.8l-2.7,5.8
	c3.3-6.4,14.6-10,37.9-14.3l-6.3,5.2c-4.2,6-2,12.6,3.1,19.4c-4.5-17.4,2.7-16.8,9.9-25c5.1-5.4,7.2-16,15.2-16.3
	C263.2,42.8,258.4,48.7,254.1,57.2z"/>
<path class="st10" d="M261.6,97.2c4.8-1,10.6-1.5,14.5-3.1c1,6.3,0.9,9.5-0.3,9.8C273.8,104.9,268.5,102,261.6,97.2z"/>
<path class="st17" d="M276.2,94.2c1,6.3,0.9,9.5-0.3,9.8c-2,1-7.4-2-14.2-6.7"/>
<path class="st10" d="M281.7,80.2l7.1-10.4c2.1,7,3.1,14,2,14.2C288.9,84.9,285.9,83.1,281.7,80.2z"/>
<path class="st4" d="M114.6,146.8c24.6,34.5,103.4,10.8,143.6,10.4c8.6-0.2,9.7,14.5-6,13.8"/>
<path class="st17" d="M288.8,69.8c2.1,7,3.1,14,2,14.2c-1.8,0.8-4.8-0.9-9.1-3.9"/>
<path class="st13" d="M92.6,142.3c-3.5,10.4-3,20.9,0.4,32.8C85.6,164.4,85.1,152.8,92.6,142.3z"/>
<path class="st10" d="M108.5,124.7c10.7-5.5,24.7-8.6,32.1-16.4c-12.6-19.6-25.7-26.4-34.1-21.8C98.3,93.1,101.9,110.6,108.5,124.7z
	"/>
<path class="st10" d="M148.8,70.3l9.7,6.9l10.7,9.6L149,98.4C130.8,74.7,134,64.9,148.8,70.3z"/>
<path class="st18" d="M148.9,98.5l15.6-9.3c-8.2-10.6-17.2-16.6-22.3-13.5C137.7,78.8,141.3,88.3,148.9,98.5z"/>
<path class="st18" d="M108.5,124.7l26.1-12.2c-10.1-15.6-19.4-22.8-26.1-19.1C101.9,98.6,103.4,112.4,108.5,124.7z"/>
<path class="st4" d="M254.1,57.2c-40.9,8.8-76,22.6-105.3,41.2"/>
<path class="st4" d="M169.1,86.8c-31.5-31.1-55.9-30.1-48.9-7.5C93.1,68.7,79.8,85,93.8,135.5c-19,23.4-2.1,51,15.5,54.4
	c47.5,8.5,59.3-27.2,142.8-18.8"/>
<path class="st4" d="M245.2,87.7c-14.3-21,3.3-20.8,8.9-30.5c4.3-7,8-14.4,16.2-10.9c4.8,1.2,9.1,7,13.4,7.8
	c17.6,7.3-0.1,18.8-2.1,26.1"/>
<path class="st3" d="M253.9,70.3c1.5,3.3,3,15.3,8.3,10.1C266.2,75.4,258.1,71.1,253.9,70.3z"/>
<path class="st4" d="M253.9,70.3c1.5,3.3,3,15.3,8.3,10.1C266.2,75.4,258.1,71.1,253.9,70.3z"/>
<path class="st3" d="M266.1,52.8c2,2.6,5.9,12.7,9.4,7.1C277.9,54.8,269.9,52.7,266.1,52.8z"/>
<path class="st4" d="M266.1,52.8c2,2.6,5.9,12.7,9.4,7.1C277.9,54.8,269.9,52.7,266.1,52.8z"/>
<path class="st10" d="M122,149.3c6.1,0.5,11.9,0.7,17.4,0.6c-0.4,6.9-4.7,16.5-5.7,16.3C131.8,166.3,124.4,155.3,122,149.3z"/>
<path class="st10" d="M184.6,133.9l9.6-4.8c1.1,5.8,1.1,8.8,0,9.1C192.4,139,189.1,137,184.6,133.9z"/>
<path class="st11" d="M194.2,129.1c1.1,5.8,1.1,8.8,0,9.1c-1.8,0.8-5.1-1.2-9.6-4.3"/>
<path class="st4" d="M188.1,77.8c-2.8,2.1-5.7,6.6-5.8,9.5"/>
<path class="st4" d="M217.7,66.9c-3.3,2.4-6.8,7.4-7.1,10.4"/>
<path class="st4" d="M118.6,141.1c-8.6,0.3-9.7,8.1-5.7,11.5"/>
<path class="st14" d="M433.9,100.6l-17.5-17.8c-56.5-7.2-66.9,94.2,13.5,95.6c23.4-1.5,36.6-15.3,43.7-37.2
	c-25-9.2-40.5,14.7-48.6-1C422.4,123.3,424.6,109.7,433.9,100.6z"/>
<path class="st4" d="M93.9,135.5c19.6-18.8,37.2-15.7,48.3-28.9"/>
<path class="st4" d="M140.6,108.4C128,88.8,114.9,82,106.5,86.6c-8.2,6.5-4.6,23.9,2,38.1"/>
<path class="st4" d="M148.9,98.4c-18.1-23.7-14.9-33.5-0.1-28.1"/>
<ellipse transform="matrix(0.8195 -0.5731 0.5731 0.8195 -42.6605 87.4529)" class="st19" cx="117.5" cy="111.5" rx="7.4" ry="7.4"/>
<ellipse transform="matrix(0.8194 -0.5733 0.5733 0.8194 -39.2616 87.0697)" class="st10" cx="118.5" cy="105.8" rx="3.3" ry="3.3"/>
<ellipse transform="matrix(0.8195 -0.5731 0.5731 0.8195 -24.0023 102.506)" class="st19" cx="150.7" cy="89.4" rx="6.3" ry="6.3"/>
<ellipse transform="matrix(0.8193 -0.5733 0.5733 0.8193 -21.0722 102.1857)" class="st10" cx="151.6" cy="84.5" rx="2.8" ry="2.8"/>
<path class="st13" d="M437.9,103.2l-13.5-11l-48,12.8c-17.4,28.7,16.5,82,72.8,45.9l-8.8-12.6C412.5,141.5,423.6,117.2,437.9,103.2z
	"/>
<path class="st13" d="M92.8,95.3c4-9.3,9.9-17.1,23.3-13C101.7,73.9,94.5,83,92.8,95.3z"/>
<path class="st13" d="M121.4,76.2c0.2-6.9,4.5-13.2,15.4-10.2C125.4,61,119.1,66.5,121.4,76.2z"/>
<path class="st11" d="M139.4,149.9c-0.4,6.9-4.7,16.5-5.7,16.3c-1.9,0.1-9.3-10.9-11.6-16.9"/>
<path class="st4" d="M112.4,146c42.2,21.1,105.7-39.9,150.4-49.4c4.7-0.3,13.4,0.2,16.9-6c5-6.5-0.9-15.3,1.9-21.1"/>
<path class="st14" d="M472.1,145.4c-10,7.8-30.4,10.4-43.1,2.1c-9.4-6.8-13.3-29.1,8.7-48.7c21.1-21,56-15.7,60.6-44.3
	C512.3,70.8,506.3,123.3,472.1,145.4z"/>
<path class="st3" d="M474,93.1c22.9,11.3-13.6,45.8-33.6,37.6c-17.3-2.6-19.3-18.3-2.8-32c7.5-6.1,17.4-11.6,20.6-13
	C468.4,82.7,472.6,86.4,474,93.1z"/>
<path class="st3" d="M451.7,171.1c-17.4,12.1-40.3,7.9-56-2.8c3.9,6.2-0.2,8.4,16,10.1C422.1,209.3,444.4,194,451.7,171.1z"/>
<path class="st4" d="M437.7,98.8c21.1-21,56-15.7,60.6-44.3c24.4,33.5-15.8,119.3-69.3,93"/>
<path class="st4" d="M492.9,123.5c4-6.6-0.8-15.4-8.3-16.1c4.4-9.4-2.7-17-10.6-14.3c-1-9.6-10.3-9.6-15.8-7.4"/>
<path class="st4" d="M474,93.1c14.9-9.2,21.4-19.6,22-31"/>
<path class="st4" d="M484.6,107.4c12.6-11.2,18.8-26.6,19-42.4"/>
<path class="st4" d="M410.5,122.3c-1.7,2.1-5,1.9-6.3-0.6 M395.5,125.1c-1.5,1.2-3.8,0.6-4.3-1.4 M385.1,138c-0.9,1.1-2.7,1-3.4-0.3
	 M395.6,143.7c-1.2,1.5-3.6,1.4-4.5-0.4 M397.3,155.9c-0.9,1.1-2.7,1-3.4-0.3"/>
<path class="st4" d="M416.4,82.7c-62.3-3.4-60.1,96.2,13.5,95.6c19.2-1.1,37.1-14,42.6-33.2"/>
<path class="st15" d="M383,145.6c-4.8-8.9-7-18.5-6.9-30.3C372.2,127.3,374.9,137.3,383,145.6z"/>
<path class="st14" d="M477.5,105.8c-5.4,8.1-12.7,14.5-23.1,20.5C466.9,123,474.3,116,477.5,105.8z"/>
<path class="st4" d="M451.4,171.8c-6,22.3-31,37.9-40,4.7"/>
<path class="st13" d="M392.3,108.5l16.2-38.4c15.2-19.4,33.6-19.3,42.8-12.7c-2.8,0.6-5,1.8-6.8,3.3
	C468.2,73.8,443,113.4,392.3,108.5z"/>
<path class="st14" d="M392.3,108.5l26.8-17.8c21.3-6.5,24.3-28.7,8.6-35.4c6.3-0.9,14.3-4.4,23.6,2.1c-2.8,0.6-5,1.8-6.8,3.3
	C468.2,73.8,443,113.4,392.3,108.5z"/>
<path class="st14" d="M372,76.4l36.3-6.3c9-11.3,19.7-16.8,31.9-16.5c-3.6-18-12.7-29.8-31.8-30.3l-8.9-9.2
	c-1.4,4.4-0.7,8.4,2.1,11.9l-10.9-3l1.9,2.6C368,35.1,362.2,54.5,372,76.4z"/>
<path class="st3" d="M427.7,55.3l12.6-1.7c-2.6-18.2-18.7-31.8-31.8-30.3l-8.9-9.2c-1.4,4.4-0.7,8.4,2.1,11.9
	C414.1,28.4,426.8,38.7,427.7,55.3z"/>
<path class="st10" d="M414.6,63.4l-6.2,6.8c-4.6-3.5-9.8-5.9-15.8-6.5c-2-12.3,1.5-20,6.8-20.8C403.6,42.1,411.3,50.9,414.6,63.4z"
	/>
<path class="st20" d="M412.2,65.8l-3.9,4.3l-5.4-3.4l-8-2.7c-1.2-6-0.2-12.5,4.3-13.3C403,50.1,410.2,55.2,412.2,65.8z"/>
<path class="st10" d="M387.4,64.3c-4.7,1.8-8.6,5-12.2,8.8c-4.9-12.7-2.1-21.6,2.6-22.5C381.5,50,385.8,56.2,387.4,64.3z"/>
<path class="st20" d="M385.2,65.7l-10,7.3l-1.3-3.9c-0.2-6.1,0.7-12.4,3.8-13C380.7,55.7,385,60.8,385.2,65.7z"/>
<ellipse transform="matrix(0.7078 -0.7064 0.7064 0.7078 62.8465 287.5556)" class="st19" cx="379" cy="67.8" rx="4" ry="4"/>
<path class="st20" d="M408.4,70.1c-11.9-8.9-23.2-9.1-33.6,3.4l-20.7,21.4c14.3,7.3,26.7,13.2,38.1,13.7
	c10.5,1.8,22.8-8.5,26.8-17.9C429.1,81.8,419.8,68.7,408.4,70.1z"/>
<ellipse transform="matrix(0.7088 -0.7054 0.7054 0.7088 65.5294 287.5773)" class="st10" cx="381.1" cy="64.4" rx="2.3" ry="2.3"/>
<path class="st21" d="M354.2,94.9c14.3,7.3,26.7,13.2,38.1,13.7c10.8,1.2,19.8-4.8,26.8-17.9c4.3-8.6-6.2-18.7-13.7-10.2
	C412.6,91.6,372.6,103.6,354.2,94.9z"/>
<path class="st4" d="M398.7,30.3c-3.1-1.7-5.8-4.2-7.9-7.5c4,1.7,7.6,2.7,10.9,3c-2.9-4.1-3.6-8-2.1-11.9c2.3,3.5,5.3,6.5,8.9,9.2
	c13.3-1.5,29.6,10.3,31.8,30.3"/>
<path class="st4" d="M392.7,25.4c-24.7,9.7-30.5,29.1-20.6,51"/>
<path class="st22" d="M405.4,80.5c1.6-0.6,4.1,0.4,4.7,2.1"/>
<path class="st4" d="M392.6,63.6c-2-12.3,1.5-20,6.8-20.8c4.3-0.7,12,8.1,15.3,20.6"/>
<ellipse transform="matrix(0.8104 -0.5858 0.5858 0.8104 39.874 248.7266)" class="st19" cx="404.3" cy="62.8" rx="4.2" ry="4.2"/>
<ellipse transform="matrix(0.8103 -0.586 0.586 0.8103 42.2894 249.7674)" class="st10" cx="407" cy="59.6" rx="2.4" ry="2.4"/>
<path class="st4" d="M402.8,38.4c2,0.1,5.3,1.5,7,3.4"/>
<path class="st4" d="M374.3,48.6c1.2-1.7,3.5-2.9,5.8-1.3"/>
<path class="st4" d="M375.2,73c-4.9-12.7-2.1-21.6,2.6-22.5c3.6-0.6,7.9,5.7,9.6,13.7"/>
<path class="st22" d="M358.5,97.2c23.2,2.8,43.6-3.7,48.1-12.5"/>
<path class="st4" d="M408.4,70.1c15.2-19.4,33.6-19.3,42.8-12.7c-2.8,0.6-5,1.8-6.8,3.3c23.7,13-1.5,52.6-52.2,47.8"/>
<path class="st22" d="M419.1,90.7c8.6-8.2,2.6-21-10.7-20.6c-13.4-9.8-23.3-8.2-32.4,2.1l-21.8,22.6c8.6,4.9,26,12.5,38.1,13.7"/>
<ellipse transform="matrix(0.687 -0.7267 0.7267 0.687 68.3794 307.9351)" class="st21" cx="391.6" cy="74.6" rx="2.9" ry="2.9"/>
<path class="st23" d="M378.2,72.9c6.4-4.2,13.6-6.4,21.7-5.5C391.6,63.6,383.8,65.8,378.2,72.9z"/>
<path class="st13" d="M434.3,95.2c6.6-3.6,15.1-15.9,15.8-23.7C453.5,82.5,443.2,93.5,434.3,95.2z"/>
<path class="st13" d="M372.7,47.9c3.6-7.2,9.1-12.7,17.1-17.5C379.7,32.6,374.2,38.6,372.7,47.9z"/>
<path class="st2" d="M310.5,144.7l4.2-4.9c3.8-4.4,10.5-4.9,14.9-1.1l43.3,37.1c4.4,3.8,4.9,10.5,1.1,14.9l-4.2,4.9
	c-3.8,4.4-10.5,4.9-14.9,1.1l-43.3-37.1C307.3,155.8,306.8,149.1,310.5,144.7z"/>
<path class="st24" d="M312.5,142l3.7-4.3c3.3-3.8,9.1-4.3,12.9-1l42.6,36.8c3.8,3.3,4.3,9.1,1,12.9l-3.7,4.3
	c-3.3,3.8-9.1,4.3-12.9,1l-42.6-36.8C309.7,151.7,309.2,145.9,312.5,142z"/>
<path class="st25" d="M312.5,142l3.7-4.3c3.3-3.8,9.1-4.3,12.9-1l42.6,36.8c3.8,3.3,4.3,9.1,1,12.9l-3.7,4.3
	c-3.3,3.8-9.1,4.3-12.9,1l-42.6-36.8C309.7,151.7,309.2,145.9,312.5,142z"/>
<ellipse transform="matrix(0.657 -0.7539 0.7539 0.657 -4.8167 289.0697)" class="st10" cx="315.3" cy="149.8" rx="2.7" ry="2.7"/>
<ellipse transform="matrix(0.657 -0.7539 0.7539 0.657 -6.1279 293.4295)" class="st10" cx="319.4" cy="153.4" rx="2.7" ry="2.7"/>
<ellipse transform="matrix(0.657 -0.7539 0.7539 0.657 -7.3788 297.7742)" class="st10" cx="323.6" cy="157" rx="2.7" ry="2.7"/>
<ellipse transform="matrix(0.657 -0.7539 0.7539 0.657 -8.7008 302.1184)" class="st10" cx="327.7" cy="160.6" rx="2.7" ry="2.7"/>
<ellipse transform="matrix(0.657 -0.7539 0.7539 0.657 -10.0217 306.4881)" class="st10" cx="331.8" cy="164.3" rx="2.7" ry="2.7"/>
<ellipse transform="matrix(0.6571 -0.7538 0.7538 0.6571 -11.268 310.8225)" class="st10" cx="336" cy="167.8" rx="2.7" ry="2.7"/>
<ellipse transform="matrix(0.6566 -0.7542 0.7542 0.6566 -12.5267 315.348)" class="st10" cx="340.1" cy="171.4" rx="2.7" ry="2.7"/>
<ellipse transform="matrix(0.6569 -0.754 0.754 0.6569 -13.8834 319.5838)" class="st10" cx="344.2" cy="175" rx="2.7" ry="2.7"/>
<ellipse transform="matrix(0.6569 -0.754 0.754 0.6569 -15.1369 323.9539)" class="st10" cx="348.4" cy="178.6" rx="2.7" ry="2.7"/>
<ellipse transform="matrix(0.6574 -0.7535 0.7535 0.6574 -16.5613 328.0483)" class="st10" cx="352.5" cy="182.2" rx="2.7" ry="2.7"/>
<ellipse transform="matrix(0.6568 -0.7541 0.7541 0.6568 -17.7644 332.6628)" class="st10" cx="356.6" cy="185.8" rx="2.7" ry="2.7"/>
<ellipse transform="matrix(0.657 -0.7539 0.7539 0.657 0.8822 285.9914)" class="st10" cx="314.7" cy="142" rx="2.7" ry="2.7"/>
<ellipse transform="matrix(0.6566 -0.7543 0.7543 0.6566 -0.3499 290.5225)" class="st10" cx="318.8" cy="145.6" rx="2.7" ry="2.7"/>
<ellipse transform="matrix(0.657 -0.7539 0.7539 0.657 -1.7729 294.6577)" class="st10" cx="322.9" cy="149.3" rx="2.7" ry="2.7"/>
<ellipse transform="matrix(0.6566 -0.7542 0.7542 0.6566 -2.9382 299.2061)" class="st10" cx="327.1" cy="152.8" rx="2.7" ry="2.7"/>
<ellipse transform="matrix(0.657 -0.7539 0.7539 0.657 -4.3219 303.4099)" class="st10" cx="331.3" cy="156.5" rx="2.7" ry="2.7"/>
<ellipse transform="matrix(0.6574 -0.7535 0.7535 0.6574 -5.7378 307.5432)" class="st10" cx="335.4" cy="160.1" rx="2.7" ry="2.7"/>
<ellipse transform="matrix(0.6574 -0.7535 0.7535 0.6574 -6.9892 311.8842)" class="st10" cx="339.5" cy="163.6" rx="2.7" ry="2.7"/>
<ellipse transform="matrix(0.6566 -0.7542 0.7542 0.6566 -8.1406 316.6054)" class="st10" cx="343.6" cy="167.2" rx="2.7" ry="2.7"/>
<ellipse transform="matrix(0.657 -0.7539 0.7539 0.657 -9.5515 320.7638)" class="st10" cx="347.7" cy="170.9" rx="2.7" ry="2.7"/>
<ellipse transform="matrix(0.657 -0.7539 0.7539 0.657 -10.7934 325.1279)" class="st10" cx="351.9" cy="174.4" rx="2.7" ry="2.7"/>
<ellipse transform="matrix(0.6566 -0.7542 0.7542 0.6566 -12.0385 329.6468)" class="st10" cx="356" cy="178" rx="2.7" ry="2.7"/>
<ellipse transform="matrix(0.6571 -0.7538 0.7538 0.6571 -13.436 333.8053)" class="st10" cx="360.2" cy="181.7" rx="2.7" ry="2.7"/>
<ellipse transform="matrix(0.6566 -0.7542 0.7542 0.6566 -14.6078 338.3958)" class="st10" cx="364.3" cy="185.2" rx="2.7" ry="2.7"/>
<ellipse transform="matrix(0.6573 -0.7536 0.7536 0.6573 -16.0704 342.3926)" class="st10" cx="368.5" cy="188.9" rx="2.7" ry="2.7"/>
<ellipse transform="matrix(0.6566 -0.7542 0.7542 0.6566 -18.9812 337.1255)" class="st10" cx="360.8" cy="189.4" rx="2.7" ry="2.7"/>
<ellipse transform="matrix(0.6573 -0.7536 0.7536 0.6573 5.1579 287.1557)" class="st10" cx="318.3" cy="137.9" rx="2.7" ry="2.7"/>
<ellipse transform="matrix(0.6566 -0.7542 0.7542 0.6566 3.9708 291.7865)" class="st10" cx="322.4" cy="141.5" rx="2.7" ry="2.7"/>
<ellipse transform="matrix(0.6571 -0.7538 0.7538 0.6571 2.568 295.977)" class="st10" cx="326.6" cy="145.2" rx="2.7" ry="2.7"/>
<ellipse transform="matrix(0.6571 -0.7538 0.7538 0.6571 1.3309 300.3356)" class="st10" cx="330.8" cy="148.7" rx="2.7" ry="2.7"/>
<ellipse transform="matrix(0.6566 -0.7542 0.7542 0.6566 7.809314e-02 304.853)" class="st10" cx="334.9" cy="152.3" rx="2.7" ry="2.7"/>
<ellipse transform="matrix(0.657 -0.7539 0.7539 0.657 -1.3089 309.0526)" class="st10" cx="339" cy="156" rx="2.7" ry="2.7"/>
<ellipse transform="matrix(0.6564 -0.7544 0.7544 0.6564 -2.4402 313.6788)" class="st10" cx="343.2" cy="159.5" rx="2.7" ry="2.7"/>
<ellipse transform="matrix(0.6564 -0.7544 0.7544 0.6564 -3.7713 318.004)" class="st10" cx="347.3" cy="163.1" rx="2.7" ry="2.7"/>
<ellipse transform="matrix(0.657 -0.7539 0.7539 0.657 -5.2023 322.081)" class="st10" cx="351.4" cy="166.8" rx="2.7" ry="2.7"/>
<ellipse transform="matrix(0.6569 -0.754 0.754 0.6569 -6.4284 326.49)" class="st10" cx="355.5" cy="170.3" rx="2.7" ry="2.7"/>
<ellipse transform="matrix(0.6565 -0.7543 0.7543 0.6565 -7.6776 331.0176)" class="st10" cx="359.6" cy="173.9" rx="2.7" ry="2.7"/>
<ellipse transform="matrix(0.6565 -0.7543 0.7543 0.6565 -8.9919 335.3948)" class="st10" cx="363.8" cy="177.6" rx="2.7" ry="2.7"/>
<ellipse transform="matrix(0.6565 -0.7543 0.7543 0.6565 -10.2258 339.7887)" class="st10" cx="368" cy="181.1" rx="2.7" ry="2.7"/>
<ellipse transform="matrix(0.6574 -0.7535 0.7535 0.6574 -11.7374 343.6825)" class="st10" cx="372.1" cy="184.8" rx="2.7" ry="2.7"/>
<ellipse transform="matrix(0.6574 -0.7535 0.7535 0.6574 9.4807 288.463)" class="st10" cx="322" cy="133.8" rx="2.7" ry="2.7"/>
<ellipse transform="matrix(0.6566 -0.7542 0.7542 0.6566 8.3207 293.1343)" class="st10" cx="326.1" cy="137.4" rx="2.7" ry="2.7"/>
<ellipse transform="matrix(0.6566 -0.7542 0.7542 0.6566 6.9976 297.4819)" class="st10" cx="330.2" cy="141.1" rx="2.7" ry="2.7"/>
<ellipse transform="matrix(0.6566 -0.7543 0.7543 0.6566 5.7645 301.869)" class="st10" cx="334.4" cy="144.6" rx="2.7" ry="2.7"/>
<path class="st16" d="M148.3,268l29.5-0.3c5.9,24,23.6,39.9,17.8,71.9c-6.5-3.4-24.2-2.7-40,3.9C162,307.6,149.4,293.2,148.3,268z"
	/>
<path class="st26" d="M177.8,267.7c5.9,24,23.6,39.9,17.8,71.9c-6.5-3.4-24.2-2.7-40,3.9c6.5-35.9-6.1-50.3-7.2-75.5"/>
<ellipse transform="matrix(0.6573 -0.7536 0.7536 0.6573 4.296 305.8853)" class="st10" cx="338.5" cy="148.2" rx="2.7" ry="2.7"/>
<ellipse transform="matrix(0.6573 -0.7536 0.7536 0.6573 2.954 310.2077)" class="st10" cx="342.6" cy="151.9" rx="2.7" ry="2.7"/>
<ellipse transform="matrix(0.6569 -0.754 0.754 0.6569 1.8005 314.7618)" class="st10" cx="346.8" cy="155.4" rx="2.7" ry="2.7"/>
<ellipse transform="matrix(0.6566 -0.7543 0.7543 0.6566 0.5604 319.2718)" class="st10" cx="350.9" cy="159" rx="2.7" ry="2.7"/>
<ellipse transform="matrix(0.6569 -0.754 0.754 0.6569 -0.8296 323.4659)" class="st10" cx="355" cy="162.6" rx="2.7" ry="2.7"/>
<ellipse transform="matrix(0.657 -0.7539 0.7539 0.657 -2.1098 327.7768)" class="st10" cx="359.2" cy="166.2" rx="2.7" ry="2.7"/>
<ellipse transform="matrix(0.657 -0.7539 0.7539 0.657 -3.4156 332.1331)" class="st10" cx="363.3" cy="169.8" rx="2.7" ry="2.7"/>
<ellipse transform="matrix(0.6565 -0.7543 0.7543 0.6565 -4.623 336.6301)" class="st10" cx="367.3" cy="173.4" rx="2.7" ry="2.7"/>
<ellipse transform="matrix(0.6571 -0.7538 0.7538 0.6571 -5.9755 340.7749)" class="st10" cx="371.6" cy="177" rx="2.7" ry="2.7"/>
<ellipse transform="matrix(0.6574 -0.7535 0.7535 0.6574 -7.3869 344.9084)" class="st10" cx="375.6" cy="180.6" rx="2.7" ry="2.7"/>
<path class="st27" d="M317.1,138.4c-3.3-14.5,9.2-22.4,9.2-22.4c0.3,2.9,1.8,9.2,6,14.2c12.9,15.2,47,23,28.7,55.6
	c0,0-4-6.9-7.8-10.1C340.5,164.8,320.9,155.3,317.1,138.4z"/>
<g>
	<defs>
		<rect id="SVGID_1_" x="316" y="116" width="47" height="70"/>
	</defs>
	<clipPath id="SVGID_2_">
		<use xlink:href="#SVGID_1_"  style="overflow:visible;"/>
	</clipPath>
	<g class="st28">
		<defs>
			<path id="SVGID_3_" d="M317.1,138.4c-3.3-14.5,9.2-22.4,9.2-22.4c-8,6-7.6,16.2-3.4,21.1c12.9,15.2,47.7,33.8,38.1,48.6
				c0,0-4-6.9-7.8-10.1C340.5,164.8,320.9,155.3,317.1,138.4z"/>
		</defs>
		<clipPath id="SVGID_4_">
			<use xlink:href="#SVGID_3_"  style="overflow:visible;"/>
		</clipPath>
		<g class="st29">
			<defs>
				<rect id="SVGID_5_" x="316.5" y="116.7" width="46.1" height="68.4"/>
			</defs>
			<clipPath id="SVGID_6_">
				<use xlink:href="#SVGID_5_"  style="overflow:visible;"/>
			</clipPath>
			<g transform="matrix(1 0 0 1 0 0)" style="clip-path:url(#SVGID_6_);">
				
					<image style="overflow:visible;" width="201" height="298" xlink:href="1A1B6DA5EC40392B.jpg"  transform="matrix(0.2293 0 0 0.2295 316.4878 116.6681)">
				</image>
			</g>
		</g>
	</g>
</g>
<path class="st10" d="M345.8,145.9c7.6,5.2,13.3,12.2,18.2,21.8C362,156.3,355.7,149.3,345.8,145.9z"/>
<path class="st4" d="M216.5,262.5c-21.5,6.8-42.2,5.2-68.2,5.5"/>
<line class="st30" x1="313.5" y1="148.3" x2="430.9" y2="248.6"/>
<path class="st10" d="M164.7,239.5c11.3-0.9,24.2,11.7,11.1,31.1c-11.3,16.6-28.9,33.9-24.8,56.7c27.1-18.9,31.7,5.8,50.9-8.7
	c-7.8-32.2,5.5-36.4,7.8-51.5C211.8,242.8,188,235.9,164.7,239.5z"/>
<path class="st26" d="M153.4,242.9c19.8-11,37.8,6.7,22.5,27.8c-11.8,16.3-28.9,33.9-24.8,56.7c27.1-18.9,31.7,5.8,50.9-8.7
	c-7.8-32.2,5.5-36.4,7.8-51.5c2.2-24.5-21.6-31.3-44.9-27.7"/>
<path class="st30" d="M153.4,242.9c19.8-11,37.8,6.7,22.5,27.8c-11.8,16.3-28.9,33.9-24.8,56.7c27.1-18.9,31.7,5.8,50.9-8.7"/>
</svg>
