<?xml version="1.0" encoding="utf-8"?>
<!-- Generator: Adobe Illustrator 21.1.0, SVG Export Plug-In . SVG Version: 6.00 Build 0)  -->
<svg version="1.1" id="Layer_1" xmlns="http://www.w3.org/2000/svg" xmlns:xlink="http://www.w3.org/1999/xlink" x="0px" y="0px"
	 viewBox="0 0 486 443" style="enable-background:new 0 0 486 443;" xml:space="preserve">
<style type="text/css">
	.st0{fill-rule:evenodd;clip-rule:evenodd;fill:#C6D7E1;}
	.st1{fill-rule:evenodd;clip-rule:evenodd;fill:#D9E4EB;}
	.st2{fill:none;stroke:#94A5AF;stroke-width:1.6996;stroke-linecap:round;stroke-linejoin:round;stroke-miterlimit:22.9256;}
	.st3{fill-rule:evenodd;clip-rule:evenodd;fill:#717E84;}
	.st4{fill-rule:evenodd;clip-rule:evenodd;fill:#B5CAD6;}
	.st5{fill-rule:evenodd;clip-rule:evenodd;fill:#94A5AF;}
	.st6{fill-rule:evenodd;clip-rule:evenodd;fill:#F7CA8F;}
	.st7{fill:none;stroke:#D1822F;stroke-width:1.6996;stroke-linecap:round;stroke-linejoin:round;stroke-miterlimit:22.9256;}
	.st8{fill-rule:evenodd;clip-rule:evenodd;fill:#ECF1F5;}
	.st9{fill-rule:evenodd;clip-rule:evenodd;fill:#FFFFFF;}
	.st10{fill-rule:evenodd;clip-rule:evenodd;fill:#0074BA;}
	.st11{fill:none;stroke:#194B79;stroke-width:1.6996;stroke-linecap:round;stroke-linejoin:round;stroke-miterlimit:22.9256;}
	.st12{fill-rule:evenodd;clip-rule:evenodd;fill:#A35939;}
	.st13{fill-rule:evenodd;clip-rule:evenodd;fill:#0095D6;}
	.st14{fill-rule:evenodd;clip-rule:evenodd;fill:#00B4E8;}
	.st15{fill-rule:evenodd;clip-rule:evenodd;fill:#CA6C32;}
	.st16{fill-rule:evenodd;clip-rule:evenodd;fill:#1A1A18;}
	.st17{fill-rule:evenodd;clip-rule:evenodd;fill:#A24B2A;}
	.st18{fill:none;stroke:#783529;stroke-width:1.6996;stroke-linecap:round;stroke-linejoin:round;stroke-miterlimit:22.9256;}
	.st19{fill-rule:evenodd;clip-rule:evenodd;fill:#E29769;}
	.st20{fill:none;stroke:#822E2D;stroke-width:1.6996;stroke-linecap:round;stroke-linejoin:round;stroke-miterlimit:22.9256;}
	.st21{fill:none;stroke:#FFFFFF;stroke-width:1.6996;stroke-linecap:round;stroke-linejoin:round;stroke-miterlimit:22.9256;}
	.st22{fill-rule:evenodd;clip-rule:evenodd;fill:#9BD3EE;}
</style>
<path class="st0" d="M167.1,283.5l-3.7-7.8c10-8.6,13.8-18.2,8.4-29.4c-4-11.1-11.8-11.9-23.5-2.5l-3.3-6.9
	c18.5-14.4,32.6-7.5,36.4,11.5C184.6,263,178,274.9,167.1,283.5z"/>
<path class="st1" d="M51.8,280.2c4.1,4.5,14.4-1.6,12.2-4.7c-6-12.2-3.4-18,5.1-19.3c17.5-2.9,7.4,36,23.3,50l1.4-34.6
	c1-24.4-22-37.2-39-22.8C46,256.2,45.5,273.4,51.8,280.2z"/>
<path class="st0" d="M61.4,280l3.2-3.6c-7.8-12.6-4-18.8,4.5-20.1c17.5-2.9,10.8,39,23.2,53.8l1-25.6C89.1,267.6,82,246.1,61.8,254
	C54.2,258,53.7,270.8,61.4,280z"/>
<path class="st1" d="M137.7,221.4c-2.5,8.1-39.4,15-42.6,8.9l-3.8,96.4c8.8,24.8,89.1,10.2,87.7-18L137.7,221.4z"/>
<path class="st0" d="M137.7,221.4c-3.8,8.3-40.2,15.1-42.6,8.9l-3.8,96.4c8.8,24.8,89.1,10.2,87.7-18
	c-20.3,26.8-91.5,49.5-75.9-65.4C124.4,237.9,140,225,137.7,221.4z"/>
<path class="st2" d="M95.1,230.3l-3.8,96.4c8.8,24.8,89.1,10.2,87.7-18l-41.4-87.3"/>
<ellipse transform="matrix(0.9797 -0.2004 0.2004 0.9797 -42.9162 27.9144)" class="st3" cx="116.4" cy="225.9" rx="21.8" ry="5.3"/>
<ellipse transform="matrix(0.9797 -0.2004 0.2004 0.9797 -42.9162 27.9144)" class="st2" cx="116.4" cy="225.9" rx="21.8" ry="5.3"/>
<path class="st4" d="M100.8,207.4c1.3-1.6,2.8-0.8,4.3,2.3c-3,6.9-3.9,14-2,22.4c-3.8,0-6.7-0.4-8-1.8
	C93.1,220.2,95.9,212.3,100.8,207.4z"/>
<path class="st2" d="M93.8,271.5c1-24.4-22-37.2-39-22.8c-8.8,7.5-9.2,24.7-3,31.5c2.7,4.2,12.7-0.7,12.8-3.9"/>
<path class="st2" d="M67.3,255.5c20.6-2.3,11.8,36.2,25.1,54.6 M64.6,276.4c-8.1-11-3.6-21.9,9-20"/>
<path class="st2" d="M111.5,201.8c10.7-2.1,22.9,3.9,26.2,19.9"/>
<path class="st5" d="M137.7,221.6l-3.2-2l-4.7-0.5l-18.3-17.4C122.2,199.7,134.5,205.7,137.7,221.6z"/>
<path class="st2" d="M103.2,232.7c-6.5-32.7,20.7-43,26.7-13.6"/>
<path class="st2" d="M145,236.9c18.5-14.4,32.6-7.5,36.4,11.5c3.2,14.6-3.4,26.5-14.3,35.1"/>
<path class="st2" d="M148.2,243.7c13.6-11.1,22.3-6.7,25.4,9.1c1.8,9-3.4,17.2-10.2,23"/>
<path class="st6" d="M112.4,169l8-3.9l2.3,6.7c-2.2,7.7-3.4,12-2.4,21.2c13.5-2,26.5,18.1,11,22.9c-2,2.7-4.1,4.2-8.1,3.4
	c-4.1,1.9-11.9-2.4-7.3-6.8c4.9-6.2-7.6-13.5-9.3-8.7c-2.6,3.3-6,2.9-5.4-1.3c0.7-5.7,8.2-9.4,12.4-9.7
	C111.5,182.7,111.2,177.8,112.4,169z"/>
<path class="st7" d="M125.1,166c-5,10.2-6,18.3-5,27.8"/>
<path class="st7" d="M120,192.4c15.6-0.2,25.2,18.3,11.2,23.5"/>
<path class="st7" d="M124.3,200c5.8,5.5,4.6,15.4-2,19c8.8,2.3,18.6-12,6.3-20.7"/>
<path class="st7" d="M122.2,219c-3.7,2.1-8.2-2.6-5-6.9c3.6-5.2-4.7-12.7-10-7.9c-1,2.9-5.2,4.3-5.5-0.9c1.3-7,7.6-10,11.8-10.7
	c-2.4-10.2-3-20.6,0.7-30.2"/>
<path class="st6" d="M92.6,165.8l3.9,1.6l7.4,0.3c-2.6,8.9-3,17.9-1.1,26.8c13.9-2.1,29.9,10.7,17.1,22.1c-3,2.2-4.5,4.3-8.4,4.7
	c-3.2,2.2-11.2,0.8-6.4-6.8c1.2-6.6-2.1-7.6-3.3-8.1l-5.1,6.6c-5-4.2-3.8-12-0.4-14.7C92.5,188.6,90.4,175.8,92.6,165.8z"/>
<path class="st7" d="M103.8,167.7c-3.4,10.9-3.1,19.2-0.7,28.4"/>
<path class="st7" d="M102.7,194.5c18.7-1.5,29.2,15.3,14.1,24.3"/>
<path class="st7" d="M106,201.4c8.7,3,12.3,11.8,5.5,20c9.9-1.5,15.3-17.9-1.1-22.5"/>
<path class="st2" d="M95.1,230.3c-2-10.2,0.8-18,5.7-22.9"/>
<path class="st7" d="M95.9,212.1c-3.9-3.7-3.2-10,0.5-13.8c-3.9-9.7-6-22.5-3.8-32.5 M111.5,221.2c-3.4,2.5-10.2-0.2-6.2-8.6
	c0.9-5.1-3.7-7.2-6-7"/>
<path class="st8" d="M74.9,245.8c-11.2-3.8-21.7,3-22.9,12.8C56.5,247.4,70,245,74.9,245.8z"/>
<path class="st9" d="M134.1,273.7c3.1,0,5.7-2.6,5.7-5.7c0-3.1-2.6-5.7-5.7-5.7s-5.7,2.6-5.7,5.7C128.4,271.1,131,273.7,134.1,273.7
	z"/>
<ellipse class="st9" cx="134.1" cy="256.6" rx="2.3" ry="4.5"/>
<ellipse transform="matrix(0.6966 -0.7175 0.7175 0.6966 -159.674 173.8287)" class="st9" cx="125.7" cy="275.7" rx="4.5" ry="2.3"/>
<ellipse transform="matrix(0.7826 -0.6225 0.6225 0.7826 -142.3651 148.1549)" class="st9" cx="141" cy="277.9" rx="2.5" ry="4.9"/>
<ellipse transform="matrix(0.9821 -0.1884 0.1884 0.9821 -47.6175 32.0073)" class="st9" cx="144.5" cy="266.4" rx="3.9" ry="2"/>
<ellipse transform="matrix(0.4082 -0.9129 0.9129 0.4082 -166.5339 268.3395)" class="st9" cx="123.7" cy="262.6" rx="2" ry="3.9"/>
<path class="st10" d="M133.7,77.4c-11.7,2.5-25.8,15.8-27.5,30c-0.7,10.9,13.1,27.2,40.6,23.1c28-2.6,45.2-31.2,68.6-17.3
	C212,93.2,170.3,66.1,133.7,77.4z"/>
<path class="st11" d="M168.8,91.2c15.7-2.4,30.6,2.4,42.2,11.8 M146.8,130.5c28-2.6,45.2-31.2,68.6-17.3
	c-9.6-37.9-95.9-60.4-109.1-5.8 M172.8,107.5c15.6-5.3,27.1-3.7,35.7,2.7"/>
<path class="st12" d="M80.4,148.5l-5-15.3c-3.2,2.7-7,5.1-11.4,7.2C69,144.6,74.5,147.3,80.4,148.5z"/>
<path class="st10" d="M114.6,167.7l1-2.9c-15,29-34.7,8.2-38.4-15.6c10.8,10.3,25.6,14.1,39.4,12.6l1.2-3.5l14.2-0.6
	c0.3-0.1,0.6-0.3,0.9-0.4c-0.1,0.1-0.2,0.3-0.3,0.4l1.7-0.1C127.8,176.6,116.8,175.2,114.6,167.7z M76.6,147.5l2.9-5.4l-2.4-3.6
	l-3.8-3.7c-9,1.2-25.5-11.8-49.3-27.4c1.8,6.1,4.9,13.2,4.1,18.4c-2,3.6-7.7,6.6-16.9,9C25.4,150.3,62.9,158.6,76.6,147.5z"/>
<path class="st13" d="M104.2,85l17.5-17.8c56.5-7.2,66.9,94.1-13.5,95.5c-23.4-1.5-36.6-15.3-43.7-37.2c25-9.2,40.5,14.7,48.6-1
	C115.7,107.8,113.5,94.2,104.2,85z"/>
<path class="st14" d="M100.2,87.6l13.5-11l48,12.8c19.3,41.2-30.8,82.4-72.6,41.5l8.8-8.2C125.6,125.9,114.5,101.7,100.2,87.6z"/>
<path class="st11" d="M133.9,101c1.8,0.7,3.8-0.5,3.8-2.5 M147.5,110.4c1.2,0.8,2.8,0.2,3.2-1.3 M139,118.8c1.6,1.1,3.8,0.3,4.2-1.6
	 M140.8,131c1.2,0.8,2.8,0.2,3.2-1.3"/>
<path class="st14" d="M154.7,89.9l-23.2-34.6C112.8,39.3,94.9,43,87,51.2c2.9,0,5.2,0.8,7.3,1.9C73.6,70.5,105.8,104.4,154.7,89.9z"
	/>
<path class="st13" d="M154.7,89.9l-29.8-12.4c-22.1-2.3-29.4-23.5-15.2-33.1c-6.3,0.4-14.9-1.6-22.7,6.6c2.9,0,5.2,0.8,7.3,1.9
	C73.6,70.5,105.8,104.4,154.7,89.9z"/>
<path class="st13" d="M168.3,54.6l-36.8,0.7c-11-9.4-22.5-12.7-34.5-10.1c0-18.4,6.8-31.7,25.3-35.9l4.6-5.1l1.3-3.5
	c2.2,4.1,2.3,5.8,1.2,9.8l7.9-6.1l0.1,3.7C165.2,13,173.8,31.2,168.3,54.6z"/>
<path class="st10" d="M109.7,44.6l-12.7,0.7c-0.9-18.4,12.2-34.8,25.4-35.9l4.6-5.1l1.3-3.5c2.2,4.1,2.4,6,1.2,9.8
	C117.8,15.5,107.3,28.1,109.7,44.6z"/>
<path class="st9" d="M124,50l7.4,5.4c3.9-4.3,8.5-7.6,14.3-9.5c-0.4-12.4-5.3-19.3-10.6-19.1C130.7,27,124.8,37.1,124,50z"/>
<path class="st15" d="M126.9,51.9l4.6,3.4l4.6-4.3l7.3-4.1c0-6.1-2.2-12.4-6.8-12.2C132.9,34.8,126.8,41.2,126.9,51.9z"/>
<path class="st9" d="M150.9,45.6c4.9,0.9,9.4,3.3,13.7,6.3c2.4-13.4-2.1-21.6-6.9-21.6C154,30.4,151,37.4,150.9,45.6z"/>
<path class="st15" d="M153.3,46.6l11.2,5.3l0.5-4.1c-1-6-3.1-12.1-6.2-12C155.8,35.9,152.6,41.8,153.3,46.6z"/>
<ellipse transform="matrix(0.5569 -0.8306 0.8306 0.5569 32.9689 153.3479)" class="st16" cx="160.2" cy="45.8" rx="4.3" ry="4.3"/>
<path class="st15" d="M131.4,55.4c10-11,21.1-13.4,33.6-3.2l24.4,17c-12.6,9.9-23.7,18.1-34.8,20.7c-10,3.8-24-4-29.8-12.4
	C113.3,70.9,120,56.2,131.4,55.4z"/>
<ellipse transform="matrix(0.557 -0.8305 0.8305 0.557 34.2844 149.5097)" class="st9" cx="157.3" cy="42.6" rx="2.5" ry="2.5"/>
<path class="st17" d="M189.4,69.3c-12.6,9.9-23.7,18.1-34.8,20.7c-10.4,3.2-20.3-0.9-29.8-12.4c-5.8-7.6,2.5-19.5,11.5-12.7
	C131.5,77.2,173,81.3,189.4,69.3z"/>
<path class="st11" d="M164.6,51.9c2.4-13.4-2.1-21.6-6.9-21.6c-3.7,0.1-6.7,7.1-6.8,15.3 M160.8,27.8c-1.5-1.5-4-2.2-5.9-0.2
	 M130.9,23.2c-1.9,0.5-4.9,2.5-6.2,4.6 M145.7,46c-0.4-12.4-5.3-19.3-10.6-19.1c-4.3,0.2-10.2,10.2-11,23.1 M133.3,14.5
	c2.7-2.2,5.7-7.5,4.2-10c-4,3.1-5.9,5.1-7.9,6.1c1.2-3.1,1.4-7.4-1.2-9.8c-0.6,4.1-3.6,6-5.9,8.5c-13.4,2-27.1,15.8-25.3,35.9
	 M131.4,55.4C112.8,39.3,94.9,43,87,51.2c2.9,0,5.2,0.8,7.3,1.9c-20.8,17.3,11.6,51.3,60.4,36.9 M137.5,8.2
	c27,3.9,36.3,23,30.8,46.4"/>
<path class="st18" d="M136.4,65c-1.7-0.3-3.9,1.2-4.2,3"/>
<ellipse transform="matrix(0.4191 -0.908 0.908 0.4191 38.199 150.8746)" class="st16" cx="137" cy="45.6" rx="4.3" ry="4.3"/>
<ellipse transform="matrix(0.4194 -0.9078 0.9078 0.4194 38.646 146.2299)" class="st9" cx="133.6" cy="42.9" rx="2.5" ry="2.5"/>
<path class="st18" d="M185.6,72.4c-22.3,7.2-43.5,4.8-49.6-3"/>
<ellipse transform="matrix(0.5817 -0.8134 0.8134 0.5817 16.1686 144.6322)" class="st17" cx="148.7" cy="56.6" rx="2.9" ry="2.9"/>
<path class="st19" d="M161.6,52.4c-7.1-2.9-14.5-3.7-22.3-1.3C146.7,45.8,154.7,46.5,161.6,52.4z"/>
<path class="st20" d="M99.5,75.6c-8-3.1-16.9-4.9-26.8-5.5"/>
<path class="st13" d="M99.8,73.4c11.9,5.9,23.4,24,21.4,39.7c-2.2,11.9-21.5,25.6-49.9,13.7C42.1,116.3,31.4,81,2.5,89.6
	C11.5,69.1,63.7,51.3,99.8,73.4z"/>
<path class="st10" d="M49.8,95.1c0.4-26.7,49.3-7.8,50.6,14.8c19.3,7.9,14.7,30.4-28.9,17c-9.1-4.3-18.8-11.2-21.5-13.6
	C42.5,105.1,44.1,99.5,49.8,95.1z"/>
<path class="st10" d="M140.2,152.2c-30.7,18.3-65.6,11.8-75.9-28.5L74,128C82.4,160.8,121.9,159.1,140.2,152.2z"/>
<path class="st11" d="M134.2,158c-2.5,5.7-5,9.9-7.3,11.8c-1.4,2-10.3,4.7-12.5-2.7 M77.3,149.2c2.5,23,25,45.2,39,13.8 M69.7,139.1
	c-8.9,0.4-17.1-3-24.8-7.2 M72.7,143.9c-6.1,3.3-20.4,3.8-33.8-2.2 M67.1,133.6c-9.5-1.9-22.3-12.5-43.2-26.2
	c1.8,6.1,4.9,13.2,4.1,18.4c-2,3.6-7.7,6.6-16.9,9c14.2,15.4,51.2,24.1,64.9,13 M160.8,87.7c15,28.3-1.8,75.4-52.6,75
	c-16.5-0.9-33.7-10.4-41.1-29.1c-1.2-3.1-2.2-6.4-2.8-10"/>
<path class="st21" d="M112.8,252.2c8.8,0.9,22.8-2.7,28.7-8.7"/>
<path class="st21" d="M120.1,291.1c10.8,2.6,27.3-2.2,36.5-10.2"/>
<path class="st11" d="M69.9,63.8c-8-0.8-14.2,7.7-11.4,15c-10.8,0.1-14.8,10.1-8.7,16.4c-8.6,5.3-4.4,14,0.1,18.2 M58.5,78.7
	c-16.2-6.9-32.9-6-48,0.9 M120.3,102.9C110.7,51.2,21.9,53.8,2.5,89.6c29-8.5,39.6,26.8,68.9,37.2c12.3,5.6,24.2,5,35.8,1.6
	 M49.8,95.1c-15.4-10-28.1-11.3-39.1-6.8"/>
<path class="st18" d="M124.9,77.6c-10-6.4-6.6-20.2,6.5-22.2c11.2-12.2,21.3-12.5,32.2-4.1l25.8,18c-7.5,6.4-23.1,17.3-34.8,20.7"/>
<path class="st13" d="M60.1,86.2c10,1.4,19.4,5.5,29.7,12.6C81.2,88.4,71.2,84.6,60.1,86.2z M28.4,113.6
	c5.6,11.5,3.8,17.3-11.4,22.2C35,135.5,38.6,126.2,28.4,113.6z"/>
<path class="st14" d="M86.4,71.8c7.4,1.5,21.3,13.2,24.2,20.5C110.5,80.7,95.4,70.8,86.4,71.8z M162.2,26.8
	c-4.9-6.4-11.4-10.7-20.2-13.9C152.4,13,158.9,18,162.2,26.8z"/>
<path class="st22" d="M155.1,130c4.8-8.9,7-18.5,6.9-30.3C165.9,111.8,163.2,121.8,155.1,130z"/>
</svg>
