<?xml version="1.0" encoding="utf-8"?>
<!-- Generator: Adobe Illustrator 21.1.0, SVG Export Plug-In . SVG Version: 6.00 Build 0)  -->
<svg version="1.1" id="Layer_1" xmlns="http://www.w3.org/2000/svg" xmlns:xlink="http://www.w3.org/1999/xlink" x="0px" y="0px"
	 viewBox="0 0 486 443" style="enable-background:new 0 0 486 443;" xml:space="preserve">
<style type="text/css">
	.st0{fill-rule:evenodd;clip-rule:evenodd;fill:#0095D6;}
	.st1{fill-rule:evenodd;clip-rule:evenodd;fill:#0074BA;}
	.st2{fill-rule:evenodd;clip-rule:evenodd;fill:#F3A5A6;}
	.st3{fill-rule:evenodd;clip-rule:evenodd;fill:#00B4E8;}
	.st4{fill-rule:evenodd;clip-rule:evenodd;fill:#9BD3EE;}
	.st5{fill-rule:evenodd;clip-rule:evenodd;fill:#F7C6C7;}
	.st6{fill:none;stroke:#E07C7C;stroke-width:1.6996;stroke-linecap:round;stroke-linejoin:round;stroke-miterlimit:22.9256;}
	.st7{fill-rule:evenodd;clip-rule:evenodd;fill:#494948;}
	.st8{fill:none;stroke:#1A1A18;stroke-width:1.6997;stroke-linecap:round;stroke-linejoin:round;stroke-miterlimit:22.9256;}
	.st9{fill-rule:evenodd;clip-rule:evenodd;fill:#FFFFFF;}
	.st10{fill-rule:evenodd;clip-rule:evenodd;fill:#B5CAD6;}
	.st11{fill-rule:evenodd;clip-rule:evenodd;fill:#1A1A18;}
	.st12{fill:none;stroke:#194B79;stroke-width:1.6996;stroke-linecap:round;stroke-linejoin:round;stroke-miterlimit:22.9256;}
	.st13{fill-rule:evenodd;clip-rule:evenodd;fill:#D0935F;}
	.st14{fill:none;stroke:#822E2D;stroke-width:1.6996;stroke-linecap:round;stroke-linejoin:round;stroke-miterlimit:22.9256;}
	.st15{fill-rule:evenodd;clip-rule:evenodd;fill:#BCE1F4;}
	.st16{fill-rule:evenodd;clip-rule:evenodd;fill:#D8D9D9;}
	.st17{fill-rule:evenodd;clip-rule:evenodd;fill:#C5C5C6;}
	.st18{fill:none;stroke:#868685;stroke-width:1.6996;stroke-linecap:round;stroke-linejoin:round;stroke-miterlimit:22.9256;}
	.st19{fill-rule:evenodd;clip-rule:evenodd;fill:#ECECEC;}
</style>
<path class="st0" d="M359.9,223.5l72.1-3.9c46.9,14.8,72.4,69.5,36.1,98.9c-0.4,4.1,3.3,28-20.4,46.4c2.2,5.7-0.1,10.6-2.6,14.8
	c9.3,4.1,25.7,20,7.8,31.4c-5,4-10.8,3.7-17.2,0.6c-17.2,3.7-36.7-19.3-33.9-26.5l-12.5-7.7l-7.8,5.8c9.4,6.4-11.7,32-35.5,28.8
	c-8.7,2.6-14.6,1.2-17.6-4.1c-9.9-6-5.9-18.3,12.1-25.2c-5.6-7.4-10.1-15.1-8.3-24.7c-3-31.8-6-63.7-9-95.4l-45.5-30.4
	c-10.1-1.7-9.9-22.4-1.2-29.3c7.6-8.9,25-5.8,27.8,5.2c13.2,11.6,28,12.6,43.6,8.8L359.9,223.5z"/>
<path class="st0" d="M361.3,223.6c-15.7-4.9-34.9-26.7-37.2-40l-2.4,2.1c-4.2-21.6-7.4-36.9,6.8-54.5c-3-0.9-7.8-1.1-9.7-4l-0.6,3.1
	c-3.1-4.3-3.7-9.1-1.8-14.4l-3.1,3c-2.4-15,8.3-27.5,23-28.1c12.7-0.2,15.3,5.2,18.4,14.1l7.3-6l8.8-3.8l-1.9,6.9
	c3.7-4.4,8.6-7.2,14.8-8.6l-1.9,3.3c20.3-5.1,36.4-4.3,50,7.6c10.5-25.7,41.4-15.3,40.5,8.7l-3.2-1.7c6.7,9.6-0.7,17.2-12.5,21.6
	c10.4,13.3,13.1,28.9,6.9,52.8l-2.4-2.1c-2.2,9.1-7.9,26.2-37.7,40.2L361.3,223.6z"/>
<path class="st1" d="M319.1,262.4c-15.4-3.4-32.7-12.6-41.5-30.3c5.2,1.7,10.5-0.5,16.1-6.6l7.2-2.1c-17.8,11.2,16.3,29.2,34.6,29.5
	c10-1.8-0.7,7.8-1.8,16.9c-12.7,36.1,7.3,76.3,26.7,82.6c9.1,12.1,31.1,18.7,49.1,13.2c19.3,23.8,40.4,10.2,38.2-0.9
	c24.9-38-6.2-22.5-7.4-49.8c1.3,14.4,20.1,11,27.8,3.4c1.1,19.8-6.2,36.3-20.4,46.4c2.2,17.6-10.8,24.4-26.3,22.5
	c-9.4,0.5-10,12.2,9.4,24.5c-15.9-1.1-32.8-18.6-29-26.8l-5.6-2.7l-6.9-5l-7.8,5.8c10.6,9.6-12.1,22.7-20.2,27.4
	c5.8-11.8,6.3-18.4-1.9-21.7c10.4-13.5-21-31.8-22.6-11.7c-4.2-6.3-7.1-12.2-4.6-19.1C305.2,332.8,307.2,279.4,319.1,262.4z"/>
<path class="st1" d="M361.3,223.6c-16.5-7.2-28.5-19.8-37.2-40l-2.4,2.1c-6.2-22.6-5.1-37.3,5.5-52.9l-8.5-5.5l-0.6,3.1
	c-7.3-13.4-1.7-34.1,14.7-34.5c-16.4,18.5,0.9,38,22.5,8.3l6.5-5.2l8.8-3.8l-1.9,6.9c3.7-4.4,8.6-7.2,14.8-8.6l-1.9,3.3
	c13.6-4.7,28.3-0.2,30.2,5.4c-41.2-11.1-84,23.7-75.7,63.7c-12.8,31.9,19.6,59.8,46.9,61.1L361.3,223.6z"/>
<path class="st1" d="M400.6,197.4l-13-6l-12.4,7.4C380.6,209.3,396.4,208.6,400.6,197.4z"/>
<path class="st2" d="M395.5,194.8l-4.4-1.9l-4-2.9l-3.3,3.2l-4.4,2.6C382.6,203.7,393.3,203,395.5,194.8z"/>
<path class="st1" d="M443.6,116.6l17.1-3.4c3.6-5.9-0.5-18.4-5.1-20.4c8.5,0,17.9,9.4,16.5,20.4l-3.2-1.7
	c5.8,9.3,2.4,15.4-12.4,21.5C449,130.9,443.7,124.5,443.6,116.6z"/>
<path class="st3" d="M402.2,285.5c12.5-4.9,50.6-37,27.7-50.1c1.2-3.5-52.6-3.4-67.2-6.8c-0.8-0.2-2-4.9-2.8-5.1l-3.7,1.9
	c-7,4.5-12.4,16.8-5.8,27.9l2.8-2.2c-2.7,16.6,21.8,18.9,39.1,25.9C399.9,282.1,400.8,280.3,402.2,285.5z"/>
<path class="st3" d="M433.1,320c2.8-14.6,1.5-37.6-13-49.7l-51.2-4.7c-10.9,2.9-20.8,20.2-22.5,35.1c-2.2,21.3,7.4,50.5,42.8,50.5
	C411.8,351.1,428.8,339.1,433.1,320z"/>
<path class="st1" d="M418.2,343.3c-35.6,13.1-61-2.5-69.7-24.7C351.2,350.4,393,360.4,418.2,343.3z"/>
<path class="st3" d="M387.3,189.9l-0.2-5.3L387.3,189.9c-7.4,10.3-21.4,13.5-28.5,4.8c-13.1-19.2,6.7-35.1,29.3-36.1
	c24.2-1.5,44.3,17.2,33.3,32.3C412.7,202,395,198.2,387.3,189.9z"/>
<path class="st4" d="M387.2,184c-3.7,9.4-14.8,16.3-25.5,13.4c9.6,5.2,16.8,1.8,25.6-7.5L387.2,184z M358.8,194.7
	c-13.1-19.2,6.7-35.1,29.3-36.1c24.2-1.5,44.3,17.2,33.3,32.3C428.4,152,340.9,153.2,358.8,194.7z"/>
<path class="st5" d="M341.9,122.9c8-6.9-0.2-18.3-12.3-19.6l1.7,5l-4.1-0.9C324.1,117,332.6,131,341.9,122.9z"/>
<path class="st6" d="M341.9,122.9c8-6.9-0.2-18.3-12.3-19.6l1.7,5l-4.1-0.9C324.1,117,332.6,131,341.9,122.9z"/>
<path class="st5" d="M449.3,103.8l-0.1,5.1l7.8-6.7c10.6,14-4.1,25.3-10.5,21.6C440.5,120.1,437.1,111.6,449.3,103.8z"/>
<path class="st6" d="M449.3,103.8l-0.1,5.1l7.8-6.7c10.6,14-4.1,25.3-10.5,21.6C440.5,120.1,437.1,111.6,449.3,103.8z"/>
<ellipse transform="matrix(0.9975 -7.082686e-02 7.082686e-02 0.9975 -11.0574 27.734)" class="st0" cx="385.6" cy="169.8" rx="16.5" ry="7.9"/>
<ellipse transform="matrix(0.9975 -7.074129e-02 7.074129e-02 0.9975 -10.9495 27.8029)" class="st7" cx="387.1" cy="168.5" rx="15.8" ry="6.7"/>
<ellipse transform="matrix(0.9975 -7.074129e-02 7.074129e-02 0.9975 -10.9495 27.8029)" class="st8" cx="387.1" cy="168.5" rx="15.8" ry="6.7"/>
<path class="st9" d="M365.3,137.6c6.2,0.6,10.9,6.2,10.6,12.5c-0.4,6.3-5.7,10.9-11.9,10.3c-6.2-0.6-10.9-6.2-10.6-12.5
	C353.7,141.6,359.1,137,365.3,137.6z"/>
<path class="st9" d="M410.2,135.3c6.2,0.6,10.9,6.2,10.6,12.5c-0.4,6.3-5.7,10.9-11.9,10.3c-6.2-0.6-10.9-6.2-10.6-12.5
	C398.6,139.3,404,134.7,410.2,135.3z"/>
<path class="st10" d="M365.2,140c4.1,1.9,5.9,6.9,4,11.1c-1.9,4.2-6.8,6-10.9,4.1c-4.1-1.9-5.9-6.9-4-11.1
	C356.1,139.9,361,138.1,365.2,140z"/>
<path class="st10" d="M410,137.8c4.1,1.9,5.9,6.9,4,11.1c-1.9,4.2-6.8,6-10.9,4.1c-4.1-1.9-5.9-6.9-4-11.1
	C401,137.7,405.9,135.8,410,137.8z"/>
<ellipse transform="matrix(0.9339 -0.3577 0.3577 0.9339 -28.7429 139.1902)" class="st11" cx="361.9" cy="147.3" rx="5" ry="5"/>
<ellipse transform="matrix(0.9339 -0.3577 0.3577 0.9339 -24.9946 155.1056)" class="st11" cx="406.8" cy="145.1" rx="5" ry="5"/>
<path class="st9" d="M367.5,149.6c0.2,1.2-0.6,2.4-1.7,2.6c-1.2,0.2-2.3-0.6-2.5-1.8c-0.2-1.2,0.6-2.4,1.7-2.6
	C366.2,147.5,367.3,148.4,367.5,149.6z"/>
<path class="st9" d="M412.4,147.3c0.2,1.2-0.6,2.4-1.7,2.6c-1.2,0.2-2.3-0.6-2.5-1.8c-0.2-1.2,0.6-2.4,1.7-2.6
	C411.1,145.3,412.2,146.1,412.4,147.3z"/>
<path class="st12" d="M277.6,232.1c6.3,18.6,35.6,33.5,48.7,30"/>
<path class="st4" d="M394.3,278.5c9.2-11,47.5-21.3,40.7-47.2c-11.4-20.1-25.9-10.6-46.3-7.6c-15.6-0.6-21.5-3-28.9-0.2
	c-14.3,8.2-14.8,32.3,17.8,40.6C387.1,267.3,392.9,273.2,394.3,278.5z"/>
<path class="st1" d="M439.9,266.5c4.5-3.2,8.7-1.2,12.4,5.9c3.1,7.7-7.4,19.6-11.1,29.4C446.1,278.7,435.2,270,439.9,266.5z"/>
<path class="st3" d="M354.9,130.6c3-2.5,6.5-3.5,7.9-2.3c1.4,1.2,0.1,4.3-2.8,6.8c-3,2.5-6.5,3.5-7.9,2.3
	C350.7,136.2,352,133.1,354.9,130.6z M418.7,125.8c-4.3-2.2-10.2,0.3-10.2,2.7c0.1,3.9,4.6,1.6,7.8,3.7c2.1,1.3,2.4,3.3,4.4,4.3
	C425.3,138.9,427.9,130.6,418.7,125.8z"/>
<path class="st12" d="M354.9,130.6c3-2.5,6.5-3.5,7.9-2.3c1.4,1.2,0.1,4.3-2.8,6.8c-3,2.5-6.5,3.5-7.9,2.3
	C350.7,136.2,352,133.1,354.9,130.6z M418.7,125.8c-4.3-2.2-10.2,0.3-10.2,2.7c0.1,3.9,4.6,1.6,7.8,3.7c2.1,1.3,2.4,3.3,4.4,4.3
	C425.3,138.9,427.9,130.6,418.7,125.8z"/>
<path class="st4" d="M350.9,299.2c3.1-10.3,10-23.5,19.7-30.7C358.5,274.1,350.7,286.4,350.9,299.2z"/>
<path class="st13" d="M284.1,410.8c-0.1,4.7,11.1,3.8,10.9,0V160.6c-1-25.4-1.9-44.1-5.5-44.6c-3.5,0.4-5.1,16.9-5.5,44.6
	L284.1,410.8L284.1,410.8z"/>
<path class="st14" d="M284.1,410.8c-0.1,4.7,11.1,3.8,10.9,0V160.6c-1-25.4-1.9-44.1-5.5-44.6c-3.5,0.4-5.1,16.9-5.5,44.6
	L284.1,410.8L284.1,410.8z"/>
<path class="st0" d="M277.6,232.1c-10.1-1.7-9.9-22.4-1.2-29.3c7.6-8.9,25-5.8,27.8,5.2l0.4,12.8l-3.7,2.6l-6.5,2.3
	C286.6,232.1,281.5,233.3,277.6,232.1z"/>
<path class="st15" d="M431.8,238.4c-2.7-7.6-11.2-16.5-21.1-16.4C424.9,218.8,431.8,228.6,431.8,238.4z"/>
<path class="st12" d="M401.6,385c-3.4,10.1,18.5,29.7,33.9,26.5c2.1-3.4,0.6-8.4-4.5-14.8 M452.7,411c10.9-6.6,12.3-18.3-6.6-31.2
	 M360.4,352.5c19.8,10.9,40.1,10.2,60.9,0 M467.9,318.5c1.3,20.2-7.9,37.3-20.4,46.4c1.1,10.8-2,24.7-26.3,22.5 M319.1,262.4
	c-16.7,35.5-7.5,75.2,13,95.5c-0.8,13.4,5.8,27.5,21.2,29.2 M431.8,219.6c25.3,8.4,48.4,29.3,52.5,56.8c3.4,22.7-7.5,35.3-20,45.3
	c-4.8,2.9-16.5,5.5-20.7,1.2c-14.1-19.7,11.8-34.9,8.7-50.3 M333.4,176.8c-1.4,0.3-2.4,1.9-3,3.3 M455,162.7c1.8,0,3.5,1.9,4.5,3.5
	 M455.8,155.7c2.1,0,3.4,1.3,4.1,2.2 M417.4,251.3c1.7,0.9,2.8,2.5,3.2,4.4 M423.2,244.7c1.6,1.5,1.5,4.5,1.2,6.7 M370.8,245.5
	c-1.3,0.5-2.5,2.5-2.7,4.1 M375.4,248.7c-0.6,1.7-0.6,4.1,0,5.4 M384,256.1c0.4-0.7,0-2.2-0.7-2.8 M323.8,326.8
	c-0.5-1.6,0.6-4.3,2.1-5.5 M329.7,331.7c-0.7-1-0.3-3.2,0.5-4.3 M333.3,341.7c-0.3-0.8,0.2-2.3,0.9-3 M459.6,339.7
	c0.2-1.2-1.1-3.1-2.4-3.8 M450.6,354.8c0.5-1.6-0.6-4.3-2.1-5.5 M455.6,347.4c0.3-1.1-0.7-2.9-1.7-3.6 M329.2,169
	c-1.4,0-2.7,1.5-3.5,2.7 M359.9,223.5c-14.3,8.2-14.8,32.3,17.8,40.6c9.4,3.2,15.3,9.2,16.7,14.5c9.2-11,49.4-21.6,40.7-47.2
	 M377.8,222.9c6.1,1.8,13.4,1.9,23.3-1.7 M316.4,116c-1.9,5.1-1,9.8,1.8,14.4c0-3.6,2.5-8,6.8-10.8 M380.6,98.8l3-5.2
	c-6.1,1-11,3.9-14.8,8.6l1.9-6.9c-6.5,2-11.7,4.9-16,9.7c-2-13.5-18-19.9-33.4-7.8c-5.5,4.1-10.4,12.7-8,21.8c1.9-2.5,4.3-4,7.3-4.6
	 M456.5,132.9c8,9.8,13.6,30.3,6.8,52.8l-2.4-2.1c-1.9,13.2-15.6,29.3-32.8,38 M382.1,96.2c11.6-3.8,35-4.4,49.6,8.2
	c10.2-26.4,42.4-13.5,40.5,8.7l-3.2-1.7c3.9,5.3,4.6,15.9-12.5,21.6 M318.8,127.3c1.4,2.6,5.7,4.6,8.5,5.5
	c-9,10.8-12.2,31.6-5.5,52.9l2.4-2.1c3,10.7,16.1,33.7,37.2,40 M304.2,208.1c13.5,11,27.7,12.1,43.6,8.8 M292.5,198.2
	c10,2.1,13.4,12,12.1,22.7c-3.7-3.4-7.8-6.7-13.9-8.4 M304.6,220.9c-5.7,5.1-13.3,6.1-22.8,3.1 M294.5,225.7
	c-32.8,26.3-31.3-32.8-2.8-27.8 M375.1,384.6c6.1-0.4,11.2-3.5,14.1-7.3c4.6,4.4,11.6,8,17.5,8.4 M350.9,399.7
	c-5.2,3.2-5.7,8.9-5,12.3c16.8,6,46.6-21.9,35.5-28.8 M328.5,407.9c-7.6-2.8-11.1-17.1,11.9-25.3 M345.9,412
	c-16,5.6-23.9-6.4-13.1-15.9 M389.2,351.3c22.7-0.2,40.3-13,43.9-31.2 M450,325c5.3-0.4,9.8-7.4,13.1-11.1 M442.2,320.5
	c1.7-5,3.6-9.5,6.4-13.8 M346.5,300.8c-4.6,14.8,7.4,50.5,42.8,50.5 M431.6,104.4l-1.8,6.8 M435.5,411.5
	c20.1,8.5,23.5-8.7,13.7-18.4"/>
<path class="st16" d="M289.5,53.5C333.6,74.1,330.2,115,331,152h-83.3C249.8,117.1,248,77.7,289.5,53.5z"/>
<path class="st17" d="M289.5,60.7c-6.9,10.5-21.6,38.1-20.2,91.3h29.1h-50.8C251.1,97.8,265,70,289.5,60.7z"/>
<path class="st18" d="M289.5,53.5c43.6,18.3,41.9,67.8,41.9,98.5h-83.6C247.7,121.4,249.6,74.4,289.5,53.5z"/>
<rect x="247.7" y="152" class="st17" width="83.3" height="8"/>
<rect x="247.7" y="152" class="st18" width="83.3" height="8"/>
<path class="st16" d="M284.1,187.6H295v-26.9c-1-25.4-1.9-44.1-5.5-44.6c-3.5,0.4-5.1,16.9-5.5,44.6L284.1,187.6L284.1,187.6z"/>
<path class="st18" d="M284.1,187.6H295v-26.9c-1-25.4-1.9-44.1-5.5-44.6c-3.5,0.4-5.1,16.9-5.5,44.6L284.1,187.6L284.1,187.6z"/>
<path class="st19" d="M314.4,95.5c-3.2-11-10.4-25-20.5-32.6C306.5,69,314.6,81.9,314.4,95.5z"/>
<path class="st12" d="M375.6,147.3c0.9,6.3-3.3,12.2-9.3,13.1c-6.1,0.9-11.7-3.5-12.6-9.8c-0.9-6.3,3.3-12.2,9.3-13.1
	C369.1,136.6,374.7,141,375.6,147.3z M420.5,145c0.9,6.3-3.3,12.2-9.3,13.1c-6.1,0.9-11.7-3.5-12.6-9.8c-0.9-6.3,3.3-12.2,9.3-13.1
	C413.9,134.3,419.6,138.7,420.5,145z M375.3,198.8c6.4,10.4,21.1,10.4,24.9-1.7 M379.8,196.8c3.4,7,13.9,6.1,15.8-1.3 M387.1,184.6
	l0.2,5.3c-7.4,10.3-21.4,13.5-28.5,4.8c-13.6-18.3,6.7-35.1,29.3-36.1c24.2-1.5,44.3,17.2,33.3,32.3c-8.5,11.2-26.2,7.3-34-0.9"/>
<path class="st3" d="M446.6,130.8c7.1,8.1,14.5,21,15.4,33.1C463.8,150.6,457.6,137.5,446.6,130.8z M444.5,91.5
	c8.4,0.9,15.4,4.5,22.1,10.5C462.3,93.8,454.6,89.8,444.5,91.5z M480.9,276.5c0,10.8-2.8,25.4-10,35.1
	C480.9,302.7,484.9,288.7,480.9,276.5z M346.1,219.5c-9,2.4-21.8,2.8-31.2-2.1C324.1,225.1,336.6,225.9,346.1,219.5z M333.8,92.9
	c8,1.1,13.5,3.5,19,11.6C350.4,94.6,342.2,90.9,333.8,92.9z"/>
<path class="st0" d="M410.3,174.7c-1.1,0.3-1.8,1.3-1.5,2.3c0.3,1,1.4,1.6,2.6,1.4c1.1-0.3,1.8-1.3,1.5-2.3
	C412.6,175.1,411.5,174.4,410.3,174.7z M374.6,179.5c1.1,0.2,1.9,1.2,1.7,2.2c-0.2,1-1.3,1.7-2.4,1.5c-1.1-0.2-1.9-1.2-1.7-2.2
	C372.4,180,373.5,179.3,374.6,179.5z M403.5,178.4c-1.1,0.3-1.8,1.3-1.5,2.3c0.3,1,1.4,1.6,2.6,1.4c1.1-0.3,1.8-1.3,1.5-2.3
	C405.7,178.8,404.6,178.2,403.5,178.4z M367.8,182.7c1.1,0.2,1.9,1.2,1.7,2.2s-1.3,1.7-2.4,1.5c-1.1-0.2-1.9-1.2-1.7-2.2
	S366.7,182.5,367.8,182.7z M410.5,181.2c-1.1,0.3-1.8,1.3-1.5,2.3c0.3,1,1.4,1.6,2.6,1.4c1.1-0.3,1.8-1.3,1.5-2.3
	C412.8,181.5,411.6,180.9,410.5,181.2z M367.5,176.3c1.1,0.2,1.9,1.2,1.7,2.2c-0.2,1-1.3,1.7-2.4,1.5c-1.1-0.2-1.9-1.2-1.7-2.2
	C365.3,176.8,366.4,176.1,367.5,176.3z"/>
</svg>
