<?xml version="1.0" encoding="utf-8"?>
<!-- Generator: Adobe Illustrator 21.1.0, SVG Export Plug-In . SVG Version: 6.00 Build 0)  -->
<svg version="1.1" id="Layer_1" xmlns="http://www.w3.org/2000/svg" xmlns:xlink="http://www.w3.org/1999/xlink" x="0px" y="0px"
	 viewBox="0 0 486 443" style="enable-background:new 0 0 486 443;" xml:space="preserve">
<style type="text/css">
	.st0{fill-rule:evenodd;clip-rule:evenodd;fill:#D3E095;}
	.st1{fill-rule:evenodd;clip-rule:evenodd;fill:#F0F8FD;}
	.st2{fill-rule:evenodd;clip-rule:evenodd;fill:#E2EAB6;}
</style>
<path class="st0" d="M388.7,408.9l10.6-41.3l57.3,31.4C460.7,408.5,433.2,430.5,388.7,408.9z"/>
<path class="st1" d="M270.2,424.5l-197-15.1C18.8,380.5-6.9,343.1,1.9,292.2c10.8-62.7,76.6-70.4,47.3-133.3
	c-11.5-24.5-19.8-73,1-98.4C129.2-36.3,376,14,408.5,140C434.3,239.5,462.5,418.6,270.2,424.5z"/>
<path class="st0" d="M292.3,439L54.6,401.8c-96.1-85,246.9-118.5,311.3-93.4c39.3,15.3-127.8-374.1,19.1-75.9
	C429.9,323.8,460.6,421.1,292.3,439z"/>
<path class="st2" d="M51.9,409.4c35.8,30.2,183.7,40.1,240.4,29.6l-124.7-20.4l-3.1-24.3c15.1-23.8-0.4-45.8-14.3-18.3
	c0,0-1-10.6-6.4-11.7c-9.2-1.9-15,11.3-17.4,18.8c-0.6,3.1-2.3-39.5-13.1-25.8c-1.2,2.1-6.7,21-6.7,21c-4-6.1-15.9-34.9-24.9-22.6
	c-8.8,11.8,3,24.5,3.9,35.8c-0.1-3.2-1.5-4.3-2.7-6.1c-18.5-28-32.8,2.3-15.2,16c0.8,0.2,3.5,2.3,2.7,2.2
	C55.6,401.4,41.7,399.4,51.9,409.4z"/>
<path class="st0" d="M196.3,296.2c8.4,11.4,102.8,37,133.8,41.2l-19.4-21.5l-0.9-24.5c17.2-22.3,3.7-45.6-12.6-19.5
	c0,0-0.1-10.6-5.3-12.2c-9-2.7-16,9.9-19,17.1c-0.9,3,1.3-39.6-10.7-26.9c-1.4,2-8.5,20.3-8.5,20.3c-3.5-6.4-12.6-36.2-22.7-24.8
	c-9.8,10.9,0.7,24.7,0.6,36.1c0.1-3.2-1.1-4.4-2.2-6.4c-15.9-29.6-32.9-0.7-16.6,14.6c0.7,0.2,3.3,2.6,2.5,2.4
	C200.8,288.6,187.1,285.4,196.3,296.2z"/>
<path class="st2" d="M219,394.1c-2.2-6.2-2.2-11.8,1.6-17.6l0.5-0.7C221.3,375.7,228.5,386.9,219,394.1z"/>
<path class="st2" d="M74.2,370.8c-6.3-2.7-10.5-6.8-11.4-14.3l-0.1-0.9C62.7,355.3,76.9,357.5,74.2,370.8z"/>
<path class="st2" d="M226.7,396.1c-1.4-5.9,6.8-13.4,14.9-12.9l0.7-0.4C242.6,382.7,236.7,400,226.7,396.1z"/>
<path class="st2" d="M292.3,439c-52.3,3.2-129.1,5.3-136.6-16.1c-7-7.4-15.3-23.8-15.3-34.8c0-12.7,11-11.9,18.7-3.4
	c5.1,5.9,14.4,33.1,14.4,22.9c0-46.7,17.8-43.3,17.8,0c0,15.3,7.6-31.4,18.7-24.6c5.9,4.2,1.7,34,5.9,28c12.7-17,54.3-11,54.3,13.6
	C270.2,427.9,292.3,421.1,292.3,439z"/>
</svg>
