<?xml version="1.0" encoding="utf-8"?>
<!-- Generator: Adobe Illustrator 21.1.0, SVG Export Plug-In . SVG Version: 6.00 Build 0)  -->
<svg version="1.1" id="Layer_1" xmlns="http://www.w3.org/2000/svg" xmlns:xlink="http://www.w3.org/1999/xlink" x="0px" y="0px"
	 viewBox="0 0 486 443" style="enable-background:new 0 0 486 443;" xml:space="preserve">
<style type="text/css">
	.st0{fill-rule:evenodd;clip-rule:evenodd;fill:#D3E095;}
	.st1{fill-rule:evenodd;clip-rule:evenodd;fill:#F0F8FD;}
	.st2{fill-rule:evenodd;clip-rule:evenodd;fill:#E2EAB6;}
	.st3{fill-rule:evenodd;clip-rule:evenodd;fill:#C6D7E1;}
	.st4{fill-rule:evenodd;clip-rule:evenodd;fill:#D9E4EB;}
	.st5{fill:none;stroke:#94A5AF;stroke-width:1.6996;stroke-linecap:round;stroke-linejoin:round;stroke-miterlimit:22.9256;}
	.st6{fill-rule:evenodd;clip-rule:evenodd;fill:#717E84;}
	.st7{fill-rule:evenodd;clip-rule:evenodd;fill:#B5CAD6;}
	.st8{fill-rule:evenodd;clip-rule:evenodd;fill:#94A5AF;}
	.st9{fill-rule:evenodd;clip-rule:evenodd;fill:#F7CA8F;}
	.st10{fill:none;stroke:#D1822F;stroke-width:1.6996;stroke-linecap:round;stroke-linejoin:round;stroke-miterlimit:22.9256;}
	.st11{fill-rule:evenodd;clip-rule:evenodd;fill:#BD6E39;}
	.st12{fill-rule:evenodd;clip-rule:evenodd;fill:#A35939;}
	.st13{fill-rule:evenodd;clip-rule:evenodd;fill:#F3A5A6;}
	.st14{fill-rule:evenodd;clip-rule:evenodd;fill:#D88F55;}
	.st15{fill:none;stroke:#822E2D;stroke-width:1.6996;stroke-linecap:round;stroke-linejoin:round;stroke-miterlimit:22.9256;}
	.st16{fill-rule:evenodd;clip-rule:evenodd;fill:#EDB581;}
	.st17{fill-rule:evenodd;clip-rule:evenodd;fill:#F7C6C7;}
	.st18{fill:none;stroke:#E07C7C;stroke-width:1.6996;stroke-linecap:round;stroke-linejoin:round;stroke-miterlimit:22.9256;}
	.st19{fill-rule:evenodd;clip-rule:evenodd;fill:#494948;}
	.st20{fill:none;stroke:#1A1A18;stroke-width:1.6997;stroke-linecap:round;stroke-linejoin:round;stroke-miterlimit:22.9256;}
	.st21{fill-rule:evenodd;clip-rule:evenodd;fill:#FFFFFF;}
	.st22{fill-rule:evenodd;clip-rule:evenodd;fill:#1A1A18;}
	.st23{fill-rule:evenodd;clip-rule:evenodd;fill:#D8D9D9;}
	.st24{fill-rule:evenodd;clip-rule:evenodd;fill:#C5C5C6;}
	.st25{fill:none;stroke:#868685;stroke-width:1.6996;stroke-linecap:round;stroke-linejoin:round;stroke-miterlimit:22.9256;}
	.st26{fill-rule:evenodd;clip-rule:evenodd;fill:#D0935F;}
	.st27{fill-rule:evenodd;clip-rule:evenodd;fill:#ECECEC;}
	.st28{fill-rule:evenodd;clip-rule:evenodd;fill:#F3CBA4;}
	.st29{fill:none;stroke:#E30045;stroke-width:8.4981;stroke-linecap:round;stroke-linejoin:round;stroke-miterlimit:22.9256;}
	.st30{fill-rule:evenodd;clip-rule:evenodd;fill:#ECF1F5;}
	.st31{fill-rule:evenodd;clip-rule:evenodd;fill:#CA6C32;}
	.st32{fill-rule:evenodd;clip-rule:evenodd;fill:#A24B2A;}
	.st33{fill:none;stroke:#783529;stroke-width:1.6996;stroke-linecap:round;stroke-linejoin:round;stroke-miterlimit:22.9256;}
	.st34{fill-rule:evenodd;clip-rule:evenodd;fill:#E29769;}
	.st35{fill:none;stroke:#FFFFFF;stroke-width:1.6996;stroke-linecap:round;stroke-linejoin:round;stroke-miterlimit:22.9256;}
</style>
<path class="st0" d="M388.7,408.9l10.6-41.3l57.3,31.4C460.7,408.5,433.2,430.5,388.7,408.9z"/>
<path class="st1" d="M270.2,424.5l-197-15.1C18.8,380.5-6.9,343.1,1.9,292.2c10.8-62.7,76.6-70.4,47.3-133.3
	c-11.5-24.5-19.8-73,1-98.4C129.2-36.3,376,14,408.5,140C434.3,239.5,462.5,418.6,270.2,424.5z"/>
<path class="st0" d="M292.3,439L54.6,401.8c-96.1-85,246.9-118.5,311.3-93.4c39.3,15.3-127.8-374.1,19.1-75.9
	C429.9,323.8,460.6,421.1,292.3,439z"/>
<path class="st2" d="M51.9,409.4c35.8,30.2,183.7,40.1,240.4,29.6l-124.7-20.4l-3.1-24.3c15.1-23.8-0.4-45.8-14.3-18.3
	c0,0-1-10.6-6.4-11.7c-9.2-1.9-15,11.3-17.4,18.8c-0.6,3.1-2.3-39.5-13.1-25.8c-1.2,2.1-6.7,21-6.7,21c-4-6.1-15.9-34.9-24.9-22.6
	c-8.8,11.8,3,24.5,3.9,35.8c-0.1-3.2-1.5-4.3-2.7-6.1c-18.5-28-32.8,2.3-15.2,16c0.8,0.2,3.5,2.3,2.7,2.2
	C55.6,401.4,41.7,399.4,51.9,409.4z"/>
<path class="st0" d="M196.3,296.2c8.4,11.4,102.8,37,133.8,41.2l-19.4-21.5l-0.9-24.5c17.2-22.3,3.7-45.6-12.6-19.5
	c0,0-0.1-10.6-5.3-12.2c-9-2.7-16,9.9-19,17.1c-0.9,3,1.3-39.6-10.7-26.9c-1.4,2-8.5,20.3-8.5,20.3c-3.5-6.4-12.6-36.2-22.7-24.8
	c-9.8,10.9,0.7,24.7,0.6,36.1c0.1-3.2-1.1-4.4-2.2-6.4c-15.9-29.6-32.9-0.7-16.6,14.6c0.7,0.2,3.3,2.6,2.5,2.4
	C200.8,288.6,187.1,285.4,196.3,296.2z"/>
<path class="st3" d="M167.1,283.5l-3.7-7.8c10-8.6,13.8-18.2,8.4-29.4c-4-11.1-11.8-11.9-23.5-2.5l-3.3-6.9
	c18.5-14.4,32.6-7.5,36.4,11.5C184.6,263,178,274.9,167.1,283.5z"/>
<path class="st4" d="M51.8,280.2c4.1,4.5,14.4-1.6,12.2-4.7c-6-12.2-3.4-18,5.1-19.3c17.5-2.9,7.4,36,23.3,50l1.4-34.6
	c1-24.4-22-37.2-39-22.8C46,256.2,45.5,273.4,51.8,280.2z"/>
<path class="st3" d="M61.4,280l3.2-3.6c-7.8-12.6-4-18.8,4.5-20.1c17.5-2.9,10.8,39,23.2,53.8l1-25.6C89.1,267.6,82,246.1,61.8,254
	C54.2,258,53.7,270.8,61.4,280z"/>
<path class="st4" d="M137.7,221.4c-2.5,8.1-39.4,15-42.6,8.9l-3.8,96.4c8.8,24.8,89.1,10.2,87.7-18L137.7,221.4z"/>
<path class="st3" d="M137.7,221.4c-3.8,8.3-40.2,15.1-42.6,8.9l-3.8,96.4c8.8,24.8,89.1,10.2,87.7-18
	c-20.3,26.8-91.5,49.5-75.9-65.4C124.4,237.9,140,225,137.7,221.4z"/>
<path class="st5" d="M95.1,230.3l-3.8,96.4c8.8,24.8,89.1,10.2,87.7-18l-41.4-87.3"/>
<ellipse transform="matrix(0.9797 -0.2003 0.2003 0.9797 -42.8934 27.8956)" class="st6" cx="116.4" cy="225.9" rx="21.8" ry="5.3"/>
<ellipse transform="matrix(0.9797 -0.2003 0.2003 0.9797 -42.8934 27.8956)" class="st5" cx="116.4" cy="225.9" rx="21.8" ry="5.3"/>
<path class="st7" d="M100.8,207.4c1.3-1.6,2.8-0.8,4.3,2.3c-3,6.9-3.9,14-2,22.4c-3.8,0-6.7-0.4-8-1.8
	C93.1,220.2,95.9,212.3,100.8,207.4z"/>
<path class="st5" d="M93.8,271.5c1-24.4-22-37.2-39-22.8c-8.8,7.5-9.2,24.7-3,31.5c2.7,4.2,12.7-0.7,12.8-3.9"/>
<path class="st5" d="M67.3,255.5c20.6-2.3,11.8,36.2,25.1,54.6 M64.6,276.4c-8.1-11-3.6-21.9,9-20"/>
<path class="st5" d="M111.5,201.8c10.7-2.1,22.9,3.9,26.2,19.9"/>
<path class="st8" d="M137.7,221.6l-3.2-2l-4.7-0.5l-18.3-17.4C122.2,199.7,134.5,205.7,137.7,221.6z"/>
<path class="st5" d="M103.2,232.7c-6.5-32.7,20.7-43,26.7-13.6"/>
<path class="st5" d="M145,236.9c18.5-14.4,32.6-7.5,36.4,11.5c3.2,14.6-3.4,26.5-14.3,35.1"/>
<path class="st5" d="M148.2,243.7c13.6-11.1,22.3-6.7,25.4,9.1c1.8,9-3.4,17.2-10.2,23"/>
<path class="st9" d="M112.4,169l8-3.9l2.3,6.7c-2.2,7.7-3.4,12-2.4,21.2c13.5-2,26.5,18.1,11,22.9c-2,2.7-4.1,4.2-8.1,3.4
	c-4.1,1.9-11.9-2.4-7.3-6.8c4.9-6.2-7.6-13.5-9.3-8.7c-2.6,3.3-6,2.9-5.4-1.3c0.7-5.7,8.2-9.4,12.4-9.7
	C111.5,182.7,111.2,177.8,112.4,169z"/>
<path class="st10" d="M125.1,166c-5,10.2-6,18.3-5,27.8"/>
<path class="st10" d="M120,192.4c15.6-0.2,25.2,18.3,11.2,23.5"/>
<path class="st10" d="M124.3,200c5.8,5.5,4.6,15.4-2,19c8.8,2.3,18.6-12,6.3-20.7"/>
<path class="st10" d="M122.2,219c-3.7,2.1-8.2-2.6-5-6.9c3.6-5.2-4.7-12.7-10-7.9c-1,2.9-5.2,4.3-5.5-0.9c1.3-7,7.6-10,11.8-10.7
	c-2.4-10.2-3-20.6,0.7-30.2"/>
<path class="st9" d="M92.6,165.8l3.9,1.6l7.4,0.3c-2.6,8.9-3,17.9-1.1,26.8c13.9-2.1,29.9,10.7,17.1,22.1c-3,2.2-4.5,4.3-8.4,4.7
	c-3.2,2.2-11.2,0.8-6.4-6.8c1.2-6.6-2.1-7.6-3.3-8.1l-5.1,6.6c-5-4.2-3.8-12-0.4-14.7C92.5,188.6,90.4,175.8,92.6,165.8z"/>
<path class="st10" d="M103.8,167.7c-3.4,10.9-3.1,19.2-0.7,28.4"/>
<path class="st10" d="M102.7,194.5c18.7-1.5,29.2,15.3,14.1,24.3"/>
<path class="st10" d="M106,201.4c8.7,3,12.3,11.8,5.5,20c9.9-1.5,15.3-17.9-1.1-22.5"/>
<path class="st2" d="M219,394.1c-2.2-6.2-2.2-11.8,1.6-17.6l0.5-0.7C221.3,375.7,228.5,386.9,219,394.1z"/>
<path class="st2" d="M74.2,370.8c-6.3-2.7-10.5-6.8-11.4-14.3l-0.1-0.9C62.7,355.3,76.9,357.5,74.2,370.8z"/>
<path class="st2" d="M226.7,396.1c-1.4-5.9,6.8-13.4,14.9-12.9l0.7-0.4C242.6,382.7,236.7,400,226.7,396.1z"/>
<path class="st11" d="M359.9,223.5l72.1-3.9c46.9,14.8,72.4,69.5,36.1,98.9c-0.4,4.1,3.3,28-20.4,46.4c2.2,5.7-0.1,10.6-2.6,14.8
	c9.3,4.1,25.7,20,7.8,31.4c-5,4-10.8,3.7-17.2,0.6c-17.2,3.7-36.7-19.3-33.9-26.5l-12.5-7.7l-7.8,5.8c9.4,6.4-11.7,32-35.5,28.8
	c-8.7,2.6-14.6,1.2-17.6-4.1c-9.9-6-5.9-18.3,12.1-25.2c-5.6-7.4-10.1-15.1-8.3-24.7c-3-31.8-6-63.7-9-95.4l-45.5-30.4
	c-10.1-1.7-9.9-22.4-1.2-29.3c7.6-8.9,25-5.8,27.8,5.2c13.2,11.6,28,12.6,43.6,8.8L359.9,223.5z"/>
<path class="st11" d="M361.3,223.6c-15.7-4.9-34.9-26.7-37.2-40l-2.4,2.1c-4.2-21.6-7.4-36.9,6.8-54.5c-3-0.9-7.8-1.1-9.7-4
	l-0.6,3.1c-3.1-4.3-3.7-9.1-1.8-14.4l-3.1,3c-2.4-15,8.3-27.5,23-28.1c12.7-0.2,15.3,5.2,18.4,14.1l7.3-6l8.8-3.8l-1.9,6.9
	c3.7-4.4,8.6-7.2,14.8-8.6l-1.9,3.3c20.3-5.1,36.4-4.3,50,7.6c10.5-25.7,41.4-15.3,40.5,8.7l-3.2-1.7c6.7,9.6-0.7,17.2-12.5,21.6
	c10.4,13.3,13.1,28.9,6.9,52.8l-2.4-2.1c-2.2,9.1-7.9,26.2-37.7,40.2L361.3,223.6z"/>
<path class="st12" d="M319.1,262.4c-15.4-3.4-32.7-12.6-41.5-30.3c5.2,1.7,10.6-0.5,16.1-6.6l7.2-2.1
	c-17.8,11.2,16.3,29.2,34.6,29.5c10-1.8-0.7,7.8-1.8,16.9c-12.7,36.1,7.3,76.3,26.7,82.6c9.1,12.1,31.1,18.7,49.1,13.2
	c19.3,23.8,40.4,10.2,38.2-0.9c24.9-38-6.2-22.5-7.4-49.8c1.3,14.4,20.1,11,27.8,3.4c1.1,19.8-6.2,36.3-20.4,46.4
	c2.2,17.6-10.8,24.4-26.3,22.5c-9.4,0.5-10,12.2,9.4,24.5c-15.9-1.1-32.8-18.6-29-26.8l-5.6-2.7l-6.9-5l-7.8,5.8
	c10.6,9.6-12.1,22.7-20.2,27.4c5.8-11.8,6.3-18.4-1.9-21.7c10.4-13.5-21-31.8-22.6-11.7c-4.2-6.3-7.1-12.2-4.6-19.1
	C305.2,332.8,307.2,279.4,319.1,262.4z"/>
<path class="st12" d="M361.3,223.6c-16.5-7.2-28.5-19.8-37.2-40l-2.4,2.1c-6.2-22.6-5.1-37.3,5.5-52.9l-8.5-5.5l-0.6,3.1
	c-7.3-13.4-1.7-34.1,14.7-34.5c-16.4,18.5,0.9,38,22.5,8.3l6.5-5.2l8.8-3.8l-1.9,6.9c3.7-4.4,8.6-7.2,14.8-8.6l-1.9,3.3
	c13.6-4.7,28.3-0.2,30.2,5.4c-41.2-11.1-84,23.7-75.7,63.7c-12.8,31.9,19.6,59.8,46.9,61.1L361.3,223.6z"/>
<path class="st12" d="M400.6,197.4l-13-6l-12.4,7.4C380.6,210.6,396.7,210.5,400.6,197.4z"/>
<path class="st13" d="M395.5,194.8l-4.4-1.9l-4-2.9l-3.3,3.2l-4.4,2.6C382.6,203.7,393.3,203,395.5,194.8z"/>
<path class="st12" d="M443.6,116.6l17.1-3.4c3.6-5.9-0.5-18.4-5.1-20.4c8.5,0,17.9,9.4,16.5,20.4l-3.2-1.7
	c5.8,9.3,2.4,15.4-12.4,21.5C449,130.9,443.7,124.5,443.6,116.6z"/>
<path class="st14" d="M402.2,285.5c12.5-4.9,50.6-37,27.7-50.1c1.2-3.5-52.6-3.4-67.2-6.8c-0.8-0.2-2-4.9-2.8-5.1l-3.7,1.9
	c-7,4.5-12.4,16.8-5.8,27.9l2.8-2.2c-2.7,16.6,21.8,18.9,39.1,25.9C399.9,282.1,400.8,280.3,402.2,285.5z"/>
<path class="st14" d="M433.1,320c2.8-14.6,1.5-37.6-13-49.7l-51.2-4.7c-10.9,2.9-20.8,20.2-22.5,35.1c-2.2,21.3,7.4,50.5,42.8,50.5
	C411.8,351.1,428.8,339.1,433.1,320z"/>
<path class="st12" d="M418.2,343.3c-35.6,13.1-61-2.5-69.7-24.7C351.2,350.4,393,360.4,418.2,343.3z"/>
<path class="st15" d="M401.6,385c-3.4,10.1,18.5,29.7,33.9,26.5c2.1-3.4,0.6-8.4-4.5-14.8 M452.7,411c10.9-6.6,12.3-18.3-6.6-31.2
	 M435.5,411.5c20.1,8.5,23.5-8.7,13.7-18.4"/>
<path class="st15" d="M350.9,399.7c-5.2,3.2-5.7,8.9-5,12.3c16.8,6,46.6-21.9,35.5-28.8 M328.5,407.9c-7.6-2.8-11.1-17.1,11.9-25.3
	 M345.9,412c-16,5.6-23.9-6.4-13.1-15.9"/>
<path class="st15" d="M346.5,300.8c-4.6,14.8,7.4,50.5,42.8,50.5"/>
<path class="st15" d="M389.2,351.3c22.7-0.2,40.3-13,43.9-31.2"/>
<path class="st14" d="M387.3,189.9l-0.2-5.3L387.3,189.9c-7.4,10.3-21.4,13.5-28.5,4.8c-13.1-19.2,6.7-35.1,29.3-36.1
	c24.2-1.5,44.3,17.2,33.3,32.3C412.7,202,395,198.2,387.3,189.9z"/>
<path class="st16" d="M387.2,184c-3.7,9.4-14.8,16.3-25.5,13.4c9.6,5.2,16.8,1.8,25.6-7.5L387.2,184z M358.8,194.7
	c-13.1-19.2,6.7-35.1,29.3-36.1c24.2-1.5,44.3,17.2,33.3,32.3C428.4,152,340.9,153.2,358.8,194.7z"/>
<path class="st17" d="M341.9,122.9c8-6.9-0.2-18.3-12.3-19.6l1.7,5l-4.1-0.9C324.1,117,332.6,131,341.9,122.9z"/>
<path class="st18" d="M341.9,122.9c8-6.9-0.2-18.3-12.3-19.6l1.7,5l-4.1-0.9C324.1,117,332.6,131,341.9,122.9z"/>
<path class="st17" d="M449.3,103.8l-0.1,5.1l7.8-6.7c10.6,14-4.1,25.3-10.5,21.6C440.5,120.1,437.1,111.6,449.3,103.8z"/>
<path class="st18" d="M449.3,103.8l-0.1,5.1l7.8-6.7c10.6,14-4.1,25.3-10.5,21.6C440.5,120.1,437.1,111.6,449.3,103.8z"/>
<path class="st15" d="M375.3,198.8c6.4,10.4,21.1,10.4,24.9-1.7 M379.8,196.8c3.4,7,13.9,6.1,15.8-1.3 M387.1,184.6l0.2,5.3
	c-7.4,10.3-21.4,13.5-28.5,4.8c-13.6-18.3,6.7-35.1,29.3-36.1c24.2-1.5,44.3,17.2,33.3,32.3c-8.5,11.2-26.2,7.3-34-0.9"/>
<path class="st14" d="M354.9,130.6c3-2.5,6.5-3.5,7.9-2.3c1.4,1.2,0.1,4.3-2.8,6.8c-3,2.5-6.5,3.5-7.9,2.3
	C350.7,136.2,352,133.1,354.9,130.6z"/>
<path class="st15" d="M354.9,130.6c3-2.5,6.5-3.5,7.9-2.3c1.4,1.2,0.1,4.3-2.8,6.8c-3,2.5-6.5,3.5-7.9,2.3
	C350.7,136.2,352,133.1,354.9,130.6z"/>
<ellipse transform="matrix(0.9975 -7.082686e-02 7.082686e-02 0.9975 -11.0574 27.734)" class="st11" cx="385.6" cy="169.8" rx="16.5" ry="7.9"/>
<ellipse transform="matrix(0.9975 -7.074129e-02 7.074129e-02 0.9975 -10.9495 27.8029)" class="st19" cx="387.1" cy="168.5" rx="15.8" ry="6.7"/>
<ellipse transform="matrix(0.9975 -7.074129e-02 7.074129e-02 0.9975 -10.9495 27.8029)" class="st20" cx="387.1" cy="168.5" rx="15.8" ry="6.7"/>
<path class="st11" d="M410.3,174.7c-1.1,0.3-1.8,1.3-1.5,2.3c0.3,1,1.4,1.6,2.6,1.4c1.1-0.3,1.8-1.3,1.5-2.3
	C412.6,175.1,411.5,174.4,410.3,174.7z M374.6,179.5c1.1,0.2,1.9,1.2,1.7,2.2c-0.2,1-1.3,1.7-2.4,1.5c-1.1-0.2-1.9-1.2-1.7-2.2
	C372.4,180,373.5,179.3,374.6,179.5z M403.5,178.4c-1.1,0.3-1.8,1.3-1.5,2.3c0.3,1,1.4,1.6,2.6,1.4c1.1-0.3,1.8-1.3,1.5-2.3
	C405.7,178.8,404.6,178.2,403.5,178.4z M367.8,182.7c1.1,0.2,1.9,1.2,1.7,2.2s-1.3,1.7-2.4,1.5c-1.1-0.2-1.9-1.2-1.7-2.2
	S366.7,182.5,367.8,182.7z M410.5,181.2c-1.1,0.3-1.8,1.3-1.5,2.3c0.3,1,1.4,1.6,2.6,1.4c1.1-0.3,1.8-1.3,1.5-2.3
	C412.8,181.5,411.6,180.9,410.5,181.2z M367.5,176.3c1.1,0.2,1.9,1.2,1.7,2.2c-0.2,1-1.3,1.7-2.4,1.5c-1.1-0.2-1.9-1.2-1.7-2.2
	C365.3,176.8,366.4,176.1,367.5,176.3z"/>
<path class="st21" d="M365.3,137.6c6.2,0.6,10.9,6.2,10.6,12.5c-0.4,6.3-5.7,10.9-11.9,10.3c-6.2-0.6-10.9-6.2-10.6-12.5
	C353.7,141.6,359.1,137,365.3,137.6z"/>
<path class="st21" d="M410.2,135.3c6.2,0.6,10.9,6.2,10.6,12.5c-0.4,6.3-5.7,10.9-11.9,10.3c-6.2-0.6-10.9-6.2-10.6-12.5
	C398.6,139.3,404,134.7,410.2,135.3z"/>
<path class="st7" d="M365.2,140c4.1,1.9,5.9,6.9,4,11.1c-1.9,4.2-6.8,6-10.9,4.1c-4.1-1.9-5.9-6.9-4-11.1
	C356.1,139.9,361,138.1,365.2,140z"/>
<path class="st7" d="M410,137.8c4.1,1.9,5.9,6.9,4,11.1c-1.9,4.2-6.8,6-10.9,4.1c-4.1-1.9-5.9-6.9-4-11.1
	C401,137.7,405.9,135.8,410,137.8z"/>
<path class="st15" d="M375.6,147.3c0.9,6.3-3.3,12.2-9.3,13.1c-6.1,0.9-11.7-3.5-12.6-9.8c-0.9-6.3,3.3-12.2,9.3-13.1
	C369.1,136.6,374.7,141,375.6,147.3z"/>
<path class="st15" d="M420.5,145c0.9,6.3-3.3,12.2-9.3,13.1c-6.1,0.9-11.7-3.5-12.6-9.8c-0.9-6.3,3.3-12.2,9.3-13.1
	C413.9,134.3,419.6,138.7,420.5,145z"/>
<ellipse transform="matrix(0.9339 -0.3577 0.3577 0.9339 -28.7444 139.1904)" class="st22" cx="361.9" cy="147.3" rx="5" ry="5"/>
<ellipse transform="matrix(0.9339 -0.3577 0.3577 0.9339 -24.9946 155.1056)" class="st22" cx="406.8" cy="145.1" rx="5" ry="5"/>
<path class="st21" d="M367.5,149.6c0.2,1.2-0.6,2.4-1.7,2.6c-1.2,0.2-2.3-0.6-2.5-1.8c-0.2-1.2,0.6-2.4,1.7-2.6
	C366.2,147.5,367.3,148.4,367.5,149.6z"/>
<path class="st21" d="M412.4,147.3c0.2,1.2-0.6,2.4-1.7,2.6c-1.2,0.2-2.3-0.6-2.5-1.8c-0.2-1.2,0.6-2.4,1.7-2.6
	C411.1,145.3,412.2,146.1,412.4,147.3z"/>
<path class="st14" d="M446.6,130.8c7.1,8.1,14.5,21,15.4,33.1C463.8,150.6,457.6,137.5,446.6,130.8z M444.5,91.5
	c8.4,0.9,15.4,4.5,22.1,10.5C462.3,93.8,454.6,89.8,444.5,91.5z M333.8,92.9c8,1.1,13.5,3.5,19,11.6
	C350.4,94.6,342.2,90.9,333.8,92.9z"/>
<path class="st14" d="M480.9,276.5c0,10.8-2.8,25.4-10,35.1C480.9,302.7,484.9,288.7,480.9,276.5z"/>
<path class="st14" d="M346.1,219.5c-9,2.4-21.8,2.8-31.2-2.1C324.1,225.1,336.6,225.9,346.1,219.5z"/>
<path class="st15" d="M375.1,384.6c6.1-0.4,11.2-3.5,14.1-7.3c4.6,4.4,11.6,8,17.5,8.4"/>
<path class="st15" d="M277.6,232.1c6.3,18.6,35.6,33.5,48.7,30"/>
<path class="st15" d="M304.2,208.1c13.5,11,27.7,12.1,43.6,8.8"/>
<path class="st15" d="M316.4,116c-1.9,5.1-1,9.8,1.8,14.4c0-3.6,2.5-8,6.8-10.8 M380.6,98.8l3-5.2c-6.1,1-11,3.9-14.8,8.6l1.9-6.9
	c-6.5,2-11.7,4.9-16,9.7c-2-13.5-18-19.9-33.4-7.8c-5.5,4.1-10.4,12.7-8,21.8c1.9-2.5,4.3-4,7.3-4.6 M456.5,132.9
	c8,9.8,13.6,30.3,6.8,52.8l-2.4-2.1c-2.1,14.3-18,32-37.2,40 M382.1,96.2c11.6-3.8,35-4.4,49.6,8.2c10.2-26.4,42.4-13.5,40.5,8.7
	l-3.2-1.7c3.9,5.3,4.6,15.9-12.5,21.6 M318.8,127.3c1.4,2.6,5.7,4.6,8.5,5.5c-9,10.8-12.2,31.6-5.5,52.9l2.4-2.1
	c3,10.6,16.1,33.7,37.2,40"/>
<path class="st16" d="M394.3,278.5c9.2-11,47.5-21.3,40.7-47.2c-11.4-20.1-25.9-10.6-46.3-7.6c-15.6-0.6-21.5-3-28.9-0.2
	c-14.3,8.2-14.8,32.3,17.8,40.6C387.1,267.3,392.9,273.2,394.3,278.5z"/>
<path class="st15" d="M359.9,223.5c-14.3,8.2-14.8,32.3,17.8,40.6c9.4,3.2,15.3,9.2,16.7,14.5c9.2-11,49.4-21.6,40.7-47.2"/>
<path class="st15" d="M333.4,176.8c-1.4,0.3-2.4,1.9-3,3.3 M455,162.7c1.8,0,3.5,1.9,4.5,3.5 M455.8,155.7c2.1,0,3.4,1.3,4.1,2.2
	 M417.4,251.3c1.7,0.9,2.8,2.5,3.2,4.4 M423.2,244.7c1.6,1.5,1.5,4.5,1.2,6.7 M370.8,245.5c-1.3,0.5-2.5,2.5-2.7,4.1 M375.4,248.7
	c-0.6,1.7-0.6,4.1,0,5.4 M384,256.1c0.4-0.7,0-2.2-0.7-2.8 M323.8,326.8c-0.5-1.6,0.6-4.3,2.1-5.5 M329.7,331.7
	c-0.7-1-0.3-3.2,0.5-4.3 M333.3,341.7c-0.3-0.8,0.2-2.3,0.9-3 M459.6,339.7c0.2-1.2-1.1-3.1-2.4-3.8 M450.6,354.8
	c0.5-1.6-0.6-4.3-2.1-5.5 M455.6,347.4c0.3-1.1-0.7-2.9-1.7-3.6 M329.2,169c-1.4,0-2.7,1.5-3.5,2.7"/>
<path class="st15" d="M360.4,352.5c19.8,10.9,40.1,10.2,60.9,0 M467.9,318.5c1.3,20.2-7.9,37.3-20.4,46.4c1.1,10.8-2,24.7-26.3,22.5
	 M319.1,262.4c-16.7,35.5-7.5,75.2,13,95.5c-0.8,13.4,5.8,27.5,21.2,29.2"/>
<path class="st15" d="M442.2,320.5c1.7-5,3.6-9.5,6.4-13.8"/>
<path class="st15" d="M450,325c5.3-0.4,9.8-7.4,13.1-11.1"/>
<path class="st12" d="M439.9,266.5c4.5-3.2,8.7-1.2,12.4,5.9c3.1,7.7-7.4,19.6-11.1,29.4C446.1,278.7,435.2,270,439.9,266.5z"/>
<path class="st15" d="M431.8,219.6c25.3,8.4,48.4,29.3,52.5,56.8c3.4,22.7-7.5,35.3-20,45.3c-4.8,2.9-16.5,5.5-20.7,1.2
	c-14.1-19.7,11.8-34.9,8.7-50.3"/>
<path class="st15" d="M377.8,222.9c6.1,1.8,13.4,1.9,23.3-1.7"/>
<line class="st15" x1="431.6" y1="104.4" x2="429.8" y2="111.2"/>
<path class="st14" d="M418.7,125.8c-4.3-2.2-10.2,0.3-10.2,2.7c0.1,3.9,4.6,1.6,7.8,3.7c2.1,1.3,2.4,3.3,4.4,4.3
	C425.3,138.9,427.9,130.6,418.7,125.8z"/>
<path class="st15" d="M418.7,125.8c-4.3-2.2-10.2,0.3-10.2,2.7c0.1,3.9,4.6,1.6,7.8,3.7c2.1,1.3,2.4,3.3,4.4,4.3
	C425.3,138.9,427.9,130.6,418.7,125.8z"/>
<path class="st16" d="M350.9,299.2c3.1-10.3,10-23.5,19.7-30.7C358.5,274.1,350.7,286.4,350.9,299.2z"/>
<path class="st23" d="M289.5,53.5C333.6,74.1,330.2,115,331,152h-83.3C249.8,117.1,248,77.7,289.5,53.5z"/>
<path class="st24" d="M289.5,60.7c-6.9,10.5-21.6,38.1-20.2,91.3h29.1h-50.8C251.1,97.8,265,70,289.5,60.7z"/>
<path class="st25" d="M289.5,53.5c43.6,18.3,41.9,67.8,41.9,98.5h-83.6C247.7,121.4,249.6,74.4,289.5,53.5z"/>
<rect x="247.7" y="152" class="st24" width="83.3" height="8"/>
<rect x="247.7" y="152" class="st25" width="83.3" height="8"/>
<path class="st26" d="M284.1,410.8c-0.1,4.7,11.1,3.8,10.9,0V160.6c-1-25.4-1.9-44.1-5.5-44.6c-3.5,0.4-5.1,16.9-5.5,44.6
	L284.1,410.8L284.1,410.8z"/>
<path class="st15" d="M284.1,410.8c-0.1,4.7,11.1,3.8,10.9,0V160.6c-1-25.4-1.9-44.1-5.5-44.6c-3.5,0.4-5.1,16.9-5.5,44.6
	L284.1,410.8L284.1,410.8z"/>
<path class="st23" d="M284.1,187.6H295v-26.9c-1-25.4-1.9-44.1-5.5-44.6c-3.5,0.4-5.1,16.9-5.5,44.6L284.1,187.6L284.1,187.6z"/>
<path class="st25" d="M284.1,187.6H295v-26.9c-1-25.4-1.9-44.1-5.5-44.6c-3.5,0.4-5.1,16.9-5.5,44.6L284.1,187.6L284.1,187.6z"/>
<path class="st11" d="M277.6,232.1c-10.1-1.7-9.9-22.4-1.2-29.3c7.6-8.9,25-5.8,27.8,5.2l0.4,12.8l-3.7,2.6l-6.5,2.3
	C286.6,232.1,281.5,233.3,277.6,232.1z"/>
<path class="st15" d="M292.5,198.2c10,2.1,13.4,12,12.1,22.7c-3.7-3.4-7.8-6.7-13.9-8.4 M304.6,220.9c-5.7,5.1-13.3,6.1-22.8,3.1
	 M294.5,225.7c-32.8,26.3-31.3-32.8-2.8-27.8"/>
<path class="st27" d="M314.4,95.5c-3.2-11-10.4-25-20.5-32.6C306.5,69,314.6,81.9,314.4,95.5z"/>
<path class="st28" d="M431.8,238.4c-2.7-7.6-11.2-16.5-21.1-16.4C424.9,218.8,431.8,228.6,431.8,238.4z"/>
<path class="st29" d="M294.6,152h-47c0-29.6,0.4-71.2,38.6-96.6"/>
<line class="st29" x1="284.1" y1="117.2" x2="284.1" y2="198.2"/>
<path class="st5" d="M95.1,230.3c-2-10.2,0.8-18,5.7-22.9"/>
<path class="st10" d="M95.9,212.1c-3.9-3.7-3.2-10,0.5-13.8c-3.9-9.7-6-22.5-3.8-32.5 M111.5,221.2c-3.4,2.5-10.2-0.2-6.2-8.6
	c0.9-5.1-3.7-7.2-6-7"/>
<path class="st30" d="M74.9,245.8c-11.2-3.8-21.7,3-22.9,12.8C56.5,247.4,70,245,74.9,245.8z"/>
<path class="st21" d="M134.1,273.7c3.1,0,5.7-2.6,5.7-5.7c0-3.1-2.6-5.7-5.7-5.7s-5.7,2.6-5.7,5.7
	C128.4,271.1,131,273.7,134.1,273.7z"/>
<ellipse class="st21" cx="134.1" cy="256.6" rx="2.3" ry="4.5"/>
<ellipse transform="matrix(0.6961 -0.7179 0.7179 0.6961 -159.7363 174.0085)" class="st21" cx="125.7" cy="275.7" rx="4.5" ry="2.3"/>
<ellipse transform="matrix(0.7829 -0.6221 0.6221 0.7829 -142.2988 148.0146)" class="st21" cx="141" cy="277.9" rx="2.5" ry="4.9"/>
<ellipse transform="matrix(0.9822 -0.1879 0.1879 0.9822 -47.4992 31.9107)" class="st21" cx="144.5" cy="266.4" rx="3.9" ry="2"/>
<ellipse transform="matrix(0.4086 -0.9127 0.9127 0.4086 -166.5381 268.2221)" class="st21" cx="123.7" cy="262.6" rx="2" ry="3.9"/>
<path class="st29" d="M51.8,280.2c-6.2-6.8-7.1-23.3,3-31.5c17.1-14.4,40-2.1,39,22.8l-2.4,55.2c8.3,22.5,81.9,8.8,87.7-18"/>
<path class="st12" d="M133.7,77.4c-11.7,2.5-25.8,15.8-27.5,30c-0.7,10.9,13.1,27.2,40.6,23.1c28-2.6,45.2-31.2,68.6-17.3
	C212,93.2,170.3,66.1,133.7,77.4z"/>
<path class="st15" d="M146.8,130.5c28-2.6,45.2-31.2,68.6-17.3c-9.6-37.9-95.9-60.4-109.1-5.8"/>
<path class="st15" d="M172.8,107.5c15.6-5.3,27.1-3.7,35.7,2.7"/>
<path class="st15" d="M168.8,91.2c15.7-2.4,30.6,2.4,42.2,11.8"/>
<path class="st12" d="M80.4,148.5l-5-15.3c-3.2,2.7-7,5.1-11.4,7.2C69,144.6,74.5,147.3,80.4,148.5z"/>
<path class="st12" d="M76.6,147.5l2.9-5.4l-2.4-3.6l-3.8-3.7c-9,1.2-25.5-11.8-49.3-27.4c1.8,6.1,4.9,13.2,4.1,18.4
	c-2,3.6-7.7,6.6-16.9,9C25.4,150.3,62.9,158.6,76.6,147.5z"/>
<path class="st15" d="M73.3,134.9c-9,1.2-25.5-11.8-49.3-27.4c1.8,6.1,4.9,13.2,4.1,18.4c-2,3.6-7.7,6.6-16.9,9
	c14.2,15.4,51.7,23.7,65.4,12.6"/>
<path class="st15" d="M72.7,143.9c-6.1,3.3-20.4,3.8-33.8-2.2"/>
<path class="st12" d="M114.6,167.7l3.2-9.4l16.5-0.7C127.8,176.6,116.8,175.2,114.6,167.7z"/>
<path class="st15" d="M136.7,151.8c-2.5,6.9-6.9,15.5-9.8,17.9c-1.4,2-10.3,4.7-12.5-2.7"/>
<path class="st11" d="M104.2,85l17.5-17.8c56.5-7.2,66.9,94.1-13.5,95.5c-23.4-1.5-36.6-15.3-43.7-37.2c25-9.2,40.5,14.7,48.6-1
	C115.7,107.8,113.5,94.2,104.2,85z"/>
<path class="st14" d="M100.2,87.6l13.5-11l48,12.8c19.3,41.2-30.8,82.4-72.6,41.5l8.8-8.2C125.6,125.9,114.5,101.7,100.2,87.6z"/>
<path class="st12" d="M77.3,149.2c15.4,14.6,38.6,16.2,55.8,8c-4.8,5.5-1.1,8.3-17.4,7.5C100.6,193.8,81,173,77.3,149.2z"/>
<path class="st15" d="M133.9,101c1.8,0.7,3.8-0.5,3.8-2.5 M147.5,110.4c1.2,0.8,2.8,0.2,3.2-1.3 M139,118.8c1.6,1.1,3.8,0.3,4.2-1.6
	 M140.8,131c1.2,0.8,2.8,0.2,3.2-1.3"/>
<path class="st16" d="M155.1,130c4.8-8.9,7-18.5,6.9-30.3C165.9,111.8,163.2,121.8,155.1,130z"/>
<path class="st15" d="M77.3,149.2c2.5,23,25,45.2,39,13.8"/>
<path class="st14" d="M154.7,89.9l-23.2-34.6C112.8,39.3,94.9,43,87,51.2c2.9,0,5.2,0.8,7.3,1.9C73.6,70.5,105.8,104.4,154.7,89.9z"
	/>
<path class="st11" d="M154.7,89.9l-29.8-12.4c-22.1-2.3-29.4-23.5-15.2-33.1c-6.3,0.4-14.9-1.6-22.7,6.6c2.9,0,5.2,0.8,7.3,1.9
	C73.6,70.5,105.8,104.4,154.7,89.9z"/>
<path class="st11" d="M168.3,54.6l-36.8,0.7c-11-9.4-22.5-12.7-34.5-10.1c0-18.4,6.8-31.7,25.3-35.9l4.6-5.1l1.3-3.5
	c2.2,4.1,2.3,5.8,1.2,9.8l7.9-6.1l0.1,3.7C165.2,13,173.8,31.2,168.3,54.6z"/>
<path class="st12" d="M109.7,44.6l-12.7,0.7c-0.9-18.4,12.2-34.8,25.4-35.9l4.6-5.1l1.3-3.5c2.2,4.1,2.4,6,1.2,9.8
	C117.8,15.5,107.3,28.1,109.7,44.6z"/>
<path class="st21" d="M124,50l7.4,5.4c3.9-4.3,8.5-7.6,14.3-9.5c-0.4-12.4-5.3-19.3-10.6-19.1C130.7,27,124.8,37.1,124,50z"/>
<path class="st31" d="M126.9,51.9l4.6,3.4l4.6-4.3l7.3-4.1c0-6.2-2.2-12.4-6.8-12.2C132.9,34.8,126.8,41.2,126.9,51.9z"/>
<path class="st21" d="M150.9,45.6c4.9,0.9,9.4,3.3,13.7,6.3c2.4-13.4-2.1-21.6-6.9-21.6C154,30.4,151,37.4,150.9,45.6z"/>
<path class="st31" d="M153.3,46.6l11.2,5.3l0.5-4.1c-1-6-3.1-12.1-6.2-12C155.8,35.9,152.6,41.8,153.3,46.6z"/>
<ellipse transform="matrix(0.5569 -0.8306 0.8306 0.5569 32.9689 153.3479)" class="st22" cx="160.2" cy="45.8" rx="4.3" ry="4.3"/>
<path class="st31" d="M131.4,55.4c10-11,21.1-13.4,33.6-3.2l24.4,17c-12.6,9.9-23.7,18.1-34.8,20.7c-10,3.8-24-4-29.8-12.4
	C113.3,70.9,120,56.2,131.4,55.4z"/>
<ellipse transform="matrix(0.557 -0.8305 0.8305 0.557 34.2844 149.5097)" class="st21" cx="157.3" cy="42.6" rx="2.5" ry="2.5"/>
<path class="st32" d="M189.4,69.3c-12.6,9.9-23.7,18.1-34.8,20.7c-10.4,3.2-20.3-0.9-29.8-12.4c-5.8-7.6,2.5-19.5,11.5-12.7
	C131.5,77.2,173,81.3,189.4,69.3z"/>
<path class="st15" d="M133.3,14.5c2.7-2.2,5.7-7.5,4.2-10c-4,3.1-5.9,5.1-7.9,6.1c1.2-3.1,1.4-7.4-1.2-9.8c-0.6,4.1-3.6,6-5.9,8.5
	c-13.4,2-27.1,15.8-25.3,35.9"/>
<path class="st15" d="M137.5,8.2c27,3.9,36.3,23,30.8,46.4"/>
<path class="st33" d="M136.4,65c-1.7-0.3-3.9,1.2-4.2,3"/>
<path class="st15" d="M145.7,46c-0.4-12.4-5.3-19.3-10.6-19.1c-4.3,0.2-10.2,10.2-11,23.1"/>
<ellipse transform="matrix(0.4191 -0.908 0.908 0.4191 38.199 150.8746)" class="st22" cx="137" cy="45.6" rx="4.3" ry="4.3"/>
<ellipse transform="matrix(0.4197 -0.9077 0.9077 0.4197 38.6105 146.1986)" class="st21" cx="133.6" cy="42.9" rx="2.5" ry="2.5"/>
<path class="st15" d="M130.9,23.2c-1.9,0.5-4.9,2.5-6.2,4.6"/>
<path class="st15" d="M160.8,27.8c-1.5-1.5-4-2.2-5.9-0.2"/>
<path class="st15" d="M164.6,51.9c2.4-13.4-2.1-21.6-6.9-21.6c-3.7,0.1-6.7,7.1-6.8,15.3"/>
<path class="st33" d="M185.6,72.4c-22.3,7.2-43.5,4.8-49.6-3"/>
<path class="st15" d="M131.4,55.4C112.8,39.3,94.9,43,87,51.2c2.9,0,5.2,0.8,7.3,1.9c-20.8,17.3,11.6,51.3,60.4,36.9"/>
<ellipse transform="matrix(0.5809 -0.814 0.814 0.5809 16.2526 144.7622)" class="st32" cx="148.7" cy="56.6" rx="2.9" ry="2.9"/>
<path class="st34" d="M161.6,52.4c-7.1-2.9-14.5-3.7-22.3-1.3C146.7,45.8,154.7,46.5,161.6,52.4z"/>
<path class="st14" d="M162.2,26.8c-4.9-6.4-11.4-10.7-20.2-13.9C152.4,13,158.9,18,162.2,26.8z"/>
<path class="st15" d="M99.5,75.6c-8-3.1-16.9-4.9-26.8-5.5"/>
<path class="st11" d="M99.8,73.4c11.9,5.9,23.4,24,21.4,39.7c-2.2,11.9-21.5,25.6-49.9,13.7C42.1,116.3,31.4,81,2.5,89.6
	C11.5,69.1,63.7,51.3,99.8,73.4z"/>
<path class="st12" d="M49.8,95.1c0.4-26.7,49.3-7.8,50.6,14.8c19.3,7.9,14.7,30.4-28.9,17c-9.1-4.3-18.8-11.2-21.5-13.6
	C42.5,105.1,44.1,99.5,49.8,95.1z"/>
<path class="st15" d="M69.9,63.8c-8-0.8-14.2,7.7-11.4,15c-10.8,0.1-14.8,10.1-8.7,16.4c-8.6,5.3-4.4,14,0.1,18.2"/>
<path class="st15" d="M49.8,95.1c-15.4-10-28.1-11.3-39.1-6.8"/>
<path class="st15" d="M58.5,78.7c-16.2-6.9-32.9-6-48,0.9"/>
<path class="st11" d="M60.1,86.2c10,1.4,19.4,5.5,29.7,12.6C81.2,88.4,71.2,84.6,60.1,86.2z"/>
<path class="st15" d="M69.7,139.1c-8.9,0.4-17.1-3-24.8-7.2"/>
<path class="st14" d="M86.4,71.8c7.4,1.5,21.3,13.2,24.2,20.5C110.5,80.7,95.4,70.8,86.4,71.8z"/>
<path class="st12" d="M140.2,152.2c-30.7,18.3-65.6,11.8-75.9-28.5L74,128C82.4,160.8,121.9,159.1,140.2,152.2z"/>
<path class="st11" d="M28.4,113.6c5.6,11.5,3.8,17.3-11.4,22.2C35,135.5,38.6,126.2,28.4,113.6z"/>
<path class="st15" d="M160.8,87.7c15,28.3-1.8,75.4-52.6,75c-19.2-1.1-39.4-13.7-44-39.1"/>
<path class="st15" d="M120.3,102.9C110.7,51.2,21.9,53.8,2.5,89.6c29-8.5,39.6,26.8,68.9,37.2c12.3,5.6,24.2,5,35.8,1.6"/>
<path class="st33" d="M124.9,77.6c-10-6.4-6.6-20.2,6.5-22.2c11.2-12.2,21.3-12.5,32.2-4.1l25.8,18c-7.5,6.4-23.1,17.3-34.8,20.7"/>
<path class="st2" d="M292.3,439c-52.3,3.2-129.1,5.3-136.6-16.1c-7-7.4-15.3-23.8-15.3-34.8c0-12.7,11-11.9,18.7-3.4
	c5.1,5.9,14.4,33.1,14.4,22.9c0-46.7,17.8-43.3,17.8,0c0,15.3,7.6-31.4,18.7-24.6c5.9,4.2,1.7,34,5.9,28c12.7-17,54.3-11,54.3,13.6
	C270.2,427.9,292.3,421.1,292.3,439z"/>
<path class="st35" d="M112.8,252.2c8.8,0.9,22.8-2.7,28.7-8.7"/>
<path class="st35" d="M120.1,291.1c10.8,2.6,27.3-2.2,36.5-10.2"/>
</svg>
