<?xml version="1.0" encoding="utf-8"?>
<!-- Generator: Adobe Illustrator 21.1.0, SVG Export Plug-In . SVG Version: 6.00 Build 0)  -->
<svg version="1.1" id="Layer_1" xmlns="http://www.w3.org/2000/svg" xmlns:xlink="http://www.w3.org/1999/xlink" x="0px" y="0px"
	 viewBox="0 0 527 421" style="enable-background:new 0 0 527 421;" xml:space="preserve">
<style type="text/css">
	.st0{fill-rule:evenodd;clip-rule:evenodd;fill:#BD6E39;}
	.st1{fill-rule:evenodd;clip-rule:evenodd;fill:#A35939;}
	.st2{fill:none;stroke:#822E2D;stroke-width:1.7014;stroke-linecap:round;stroke-linejoin:round;stroke-miterlimit:22.9256;}
	.st3{fill-rule:evenodd;clip-rule:evenodd;fill:#D88F55;}
	.st4{fill-rule:evenodd;clip-rule:evenodd;fill:#FFFFFF;}
	.st5{fill-rule:evenodd;clip-rule:evenodd;fill:#CA6C32;}
	.st6{fill-rule:evenodd;clip-rule:evenodd;fill:#1A1A18;}
	.st7{fill-rule:evenodd;clip-rule:evenodd;fill:#A24B2A;}
	.st8{fill-rule:evenodd;clip-rule:evenodd;fill:#F1C078;}
	.st9{fill-rule:evenodd;clip-rule:evenodd;fill:#F7CA8F;}
	.st10{fill:none;stroke:#D1822F;stroke-width:1.7014;stroke-linecap:round;stroke-linejoin:round;stroke-miterlimit:22.9256;}
	.st11{fill:none;stroke:#783529;stroke-width:1.7014;stroke-linecap:round;stroke-linejoin:round;stroke-miterlimit:22.9256;}
	.st12{fill-rule:evenodd;clip-rule:evenodd;fill:#EDB581;}
	.st13{fill-rule:evenodd;clip-rule:evenodd;fill:#E29769;}
</style>
<path class="st0" d="M55.5,265.6l-3.3-5.9l-3.7-11l13.6,1.8c-9.8-5.8-15.3-26.2-26.7-60.3c-7.4,14.2-16.1,17.5-34.5,14.8
	C5.7,232.6,42.9,261.4,55.5,265.6z"/>
<path class="st1" d="M55.5,265.6l-3.3-5.9l-3.7-11l10.7-1.2c-3-4.5-9.8-14.9-18.6-38c3.2,9.9,2.5,26.2-4.9,27.8
	c-4.9,2-25.1-4.9-34.8-32.2C6.1,231.8,38.6,260.5,55.5,265.6z"/>
<path class="st2" d="M55.2,249.6c-6.5-8.1-11.8-17.7-16-28.8"/>
<path class="st2" d="M50.3,254.2c-8.7-3.5-17.5-12.7-26.2-27.7"/>
<path class="st3" d="M7.6,208.2c11.2,4.3,19.2,0.8,25.4-8.8C29,213.2,19.5,216.9,7.6,208.2z"/>
<path class="st1" d="M113,315c13.3,3.9,22.3-0.8,28.3-11.2L85,298c-0.8,15.7,3.5,21.1,18.9,22l4.9-1.7L113,315z"/>
<path class="st0" d="M162.6,294.3c13.1-0.2,29.4-3,39.4-0.6c-0.4-7.7-5.4-16.5-17.2-27l-61.6-66.4l-40.9,11.7
	c-6.6,10.9-8.1,21.7-6,32.6c-10.3,3.9-19.9,3.7-28.9,0.5C69.5,317.9,130.6,314.6,162.6,294.3z"/>
<path class="st1" d="M162.6,294.3c-18.6,2-35.9-0.8-52-8.3c-11.8,1.1-41.1-0.4-58.8-28.4C75.6,315.2,130.6,314.6,162.6,294.3z"/>
<path class="st3" d="M119.8,209.9l-12-2.9l-0.4-7.9l43.9-18.9c42.2,9.5,56.8,58.4,33.3,86.4l-12.7-8
	C156,254.2,154.4,221.6,119.8,209.9z"/>
<path class="st3" d="M115.1,198.6l-17.6-30c-23.2-5.2-32.2,5.2-43.7,22c2.8-1.9,9.5-0.8,12.5,0.7l-4.9,0.5l-4,2.8
	C77.8,221.2,105.3,215.2,115.1,198.6z"/>
<path class="st0" d="M115.1,198.6l-4.9-2.4c-24.3,15.9-45.6-6.1-38.5-25c-7.1,3.5-12.6,11.9-17.9,19.3c4.5-1.7,8.6-1.5,12.5,0.7
	c-3.4-0.1-6.4,1-8.9,3.3C74.5,217.9,105,217.6,115.1,198.6z"/>
<path class="st0" d="M136.2,139.8l-38.6,28.8c-18-3.8-27,1.5-36.6,12.2c-21.5-29.5,1.3-48.5-1.2-63.1c4.9,2.4,5.1,4.6,5.9,6.9
	c-0.2-4.5,1.3-8.7,4.3-12.5l-0.1,6.6C98.3,100.8,125.3,113.6,136.2,139.8z"/>
<path class="st1" d="M71.7,171.3L60,180.6c-20.5-37.1,4.2-48.2-0.3-62.9c4.9,2.4,7,6.6,7.8,11.8C62.5,136.7,58.8,155.3,71.7,171.3z"
	/>
<path class="st4" d="M89.9,167.5l7.6,1c1.1-6.7,6.1-14.1,10.7-19.6c-8.2-12.1-16.2-18-21.3-14.5C82.7,137.4,83.5,154.4,89.9,167.5z"
	/>
<path class="st5" d="M97.8,166.3l3.2-1.7l1.8-7.3l4.7-8.7c-5.2-10.4-11.8-12.9-16.2-9.9C87.7,141.2,89.3,155.9,97.8,166.3z"/>
<ellipse transform="matrix(5.660541e-02 -0.9984 0.9984 5.660541e-02 -52.0181 237.1601)" class="st6" cx="99.5" cy="146.1" rx="4.9" ry="4.9"/>
<ellipse transform="matrix(5.711079e-02 -0.9984 0.9984 5.711079e-02 -58.0686 240.0087)" class="st4" cx="98" cy="150.7" rx="2.8" ry="2.8"/>
<ellipse transform="matrix(5.585609e-02 -0.9984 0.9984 5.585609e-02 -68.6663 243.6989)" class="st4" cx="94.5" cy="158.2" rx="2.3" ry="2.3"/>
<path class="st2" d="M80.2,133c-1.6,1.7-3.3,5.6-3.3,8.5"/>
<path class="st5" d="M96,174.1c6.6-39.1,39.3-36.3,71.9-32.6c-14.4,34-43.1,48.7-65.9,39.6l29.5,18.8c-10,2.4-21.8-3.6-31.8-10.6
	C92.4,189.1,88.3,180.2,96,174.1z"/>
<path class="st4" d="M116.2,143.8c5.3-2.5,10.3-3.7,16.5-3.8c-6.9-14.5-16-20.5-20.2-18.6C109,124,112.5,136.5,116.2,143.8z"/>
<path class="st5" d="M119.4,142.4l13.1-2.6l-2.4-5.3c-4.2-6.6-10.2-10-13.8-7.3C113.5,129.4,116.4,138.3,119.4,142.4z"/>
<circle class="st6" cx="122.8" cy="132.4" r="4.2"/>
<circle class="st4" cx="121.8" cy="136.4" r="2.4"/>
<path class="st2" d="M113.4,117c-2.4-0.4-5.3,0.6-5.8,3.9"/>
<path class="st7" d="M158.4,159.6c-5.3,18.2-5.6,19.6-12.6,30c-7.8,11.1-24.8,17.6-46.1-0.3c-5.7-0.2-5.8-9.2-1.5-9.6
	C113.8,188.6,141.4,183,158.4,159.6z"/>
<path class="st8" d="M117.3,315.8c4.5,0.9,11-0.3,13.5-1.9c-5,9.8-7.6,19.5-8,29.4c11.3-2.9,23.4-14.8,33.8-8.6
	c11.9-2.6,16.5,1.4,16.1,9.9c6.4,2.2,4.8,10.3,1.1,9.8c-14.9-2.4-34.2-3.7-57.6-4.1c-7.5,0.1-5.3-6.1,0.2-7.4
	C115.1,332.9,114.9,325,117.3,315.8z"/>
<path class="st9" d="M89.9,316.1l4.5,2.3l9.4,1.9c-5.8,10.2-8.9,21-9.2,32.6c20.4-2.6,30.8,1.8,30.6,8.6c6.6,4.1,5.5,9.9,0.6,12.7
	l-1.2-1.1c1,3.8-8.6,9.4-14.7,5.4c-13.3-11.4-22.3-18.1-36.5-18.3c-3,0.5-4-4.6-0.3-5.3c3.7-1.2,8.1-1.9,13.4-2.3
	C84.5,339.5,84.3,327.7,89.9,316.1z"/>
<path class="st10" d="M141.3,340.5l15.4-5.9c-13.2-5.3-22.5,5.7-33.8,8.6c0.2-9.6,2.5-19.4,8-29.4"/>
<path class="st10" d="M155,343.5l17.8,1.1c0.4-8.1-7.1-12.7-16.1-9.9"/>
<path class="st10" d="M172.8,344.6c6.4,2.2,4.8,10.3,1.1,9.8c-14.9-2.4-34.2-3.7-57.6-4.1c-7.5,0.1-5.3-6.1,0.2-7.4
	c-1.2-10-1.4-17.9,0.9-27.1"/>
<path class="st10" d="M103.8,319.9c-7.4,12.3-9.5,24.8-9.2,36.7"/>
<path class="st10" d="M94.6,352.9c23.4-1.3,31.3,2.3,30.6,8.6"/>
<path class="st10" d="M103.2,362.5c10.9,3.7,16.9,6.7,21.4,11.7c5.3,1,13.3-15.1-14.3-15.3"/>
<path class="st10" d="M124.6,374.1c-0.1,3.6-8.6,8.3-14.7,4.2c-13.3-11.4-22.3-18.1-36.5-18.3c-3,0.5-4-4.6-0.3-5.3
	c3.7-1.2,8.1-1.9,13.4-2.3c-1.9-12.5-1.6-25.2,3.4-36.5"/>
<path class="st2" d="M136.2,139.8C125.5,112,96,101.6,69.9,118.7"/>
<path class="st2" d="M71.9,124.9c-2.4-4.3-2.6-8.9-2-12.9c-3.4,3.1-4.6,7.4-4.3,12.5c-1.2-3.9-3.1-6.2-5.9-6.9
	c4.9,13.4-21.2,30,1.2,63.1"/>
<path class="st2" d="M97.5,168.5c-28-5.8-36.5,12.5-43.7,22c4.7-1.7,9-1.7,12.5,0.7c-3.8-0.3-6.7,0.8-8.9,3.3
	c17.6,23,42,22.3,53.1,9.9"/>
<path class="st11" d="M158.4,159.6c-9.6,40.5-28.8,48.8-53.1,34.3"/>
<path class="st11" d="M100.6,176.7c-2.6,1.3-3.2,3.6-1.8,7"/>
<path class="st7" d="M116.2,151.6c1.6,0.6,2.3,3,1.7,5.4c-0.7,2.4-2.5,3.9-4.2,3.3c-1.6-0.6-2.3-3-1.7-5.4
	C112.7,152.5,114.6,151,116.2,151.6z"/>
<path class="st2" d="M89.9,167.5c-5.9-14.8-7.4-29.9-3-33c5.3-2.5,13.5,2.1,21.3,14.5"/>
<path class="st2" d="M116.2,143.8c-4.8-10.8-6.5-18.7-3.7-22.4c4.7-1.7,13.6,4,20.2,18.6"/>
<path class="st2" d="M76.1,244.7c-10.3,3.9-19.9,3.7-28.9,0.5c22.2,72.8,83.4,69.5,115.3,49.2"/>
<path class="st2" d="M151.5,180.2c43.1,9.3,54.8,58.9,33.3,86.4"/>
<path class="st2" d="M55.5,265.6c-27.4-13.4-47.3-34.5-54.6-60.6c17.3,3.3,29.5-1.5,34.5-14.8c5.5,24.8,13.8,42.9,23.8,57.3"/>
<path class="st2" d="M147.1,259.5c16.8,17.1,41.4,12.4,54.9,34.2c-25.4-7.8-54.2-2.2-76.2-23.4"/>
<path class="st2" d="M150,213.8c4.9,1.5,8.7-0.5,8.3-5.1"/>
<path class="st2" d="M163.5,205.3c2.6,0.8,4.6-0.3,4.4-2.7"/>
<path class="st2" d="M164.1,223.4c3.7,1.1,6.5-0.4,6.2-3.8"/>
<path class="st2" d="M173,243.2c2.8,1.4,5.2,0.6,5.4-2.2"/>
<path class="st2" d="M84.9,297.9c-0.8,15.7,3.5,21.1,18.9,22c4.2-0.4,9.2-3.6,16-13.1"/>
<path class="st2" d="M113,315c13,3.4,21.4-0.8,28.3-11.2"/>
<path class="st1" d="M124.5,269.9c36.7-3-9-49.2-33.8-48c-8.6,0.5-14.8,7.1-15.3,15.7c0.4,14.8,8.8,27.9,19.5,38.7
	C104.7,284,124,278.8,124.5,269.9z"/>
<path class="st12" d="M189.3,226.5c-2.6-11.6-8.1-21.8-17.3-32.2C184.7,202,190.1,212.9,189.3,226.5z"/>
<path class="st13" d="M129.1,142.8c-8.8,2-18.4,7.6-24.2,15.2C108.3,147.9,118.5,142.8,129.1,142.8z"/>
<path class="st0" d="M133.7,262.2c-5.1-10.2-12.8-18.8-24.1-27.2C123.7,240.6,131.4,249.8,133.7,262.2z"/>
<path class="st3" d="M101,207c-6.2,2-20.4-0.1-26.6-2.8C80.5,211.6,94.7,211.7,101,207z"/>
<path class="st3" d="M104.2,116.2c-9.4-1.7-18.6-0.6-29,3.2C84.6,111.9,94.3,111.2,104.2,116.2z"/>
<path class="st11" d="M99.6,189.2c-8.5-0.4-10.3-9.5-3.6-15.2c7.4-29.3,18.6-38.7,71.9-32.6c-10.9,28.6-37.1,49-65.9,39.6"/>
<path class="st2" d="M119.8,209.9c34.6,12.6,34.4,39.9,49.8,47.6c25,12.7,30.1,24.6,32.3,36.2c-35.7-5.8-62.8,14.9-107-17.4
	C78,262.7,67.8,235,82.1,211.9"/>
<path class="st2" d="M94.9,276.3c12,7.2,28,2.4,29.5-6.4c12.3,4.5,21-2,22.6-10.4c6.9-2.6,9.4-10.3,5.3-23.3"/>
</svg>
