<?xml version="1.0" encoding="utf-8"?>
<!-- Generator: Adobe Illustrator 21.1.0, SVG Export Plug-In . SVG Version: 6.00 Build 0)  -->
<svg version="1.1" id="Layer_1" xmlns="http://www.w3.org/2000/svg" xmlns:xlink="http://www.w3.org/1999/xlink" x="0px" y="0px"
	 viewBox="0 0 527 421" style="enable-background:new 0 0 527 421;" xml:space="preserve">
<style type="text/css">
	.st0{fill-rule:evenodd;clip-rule:evenodd;fill:#D3ECFB;}
	.st1{fill-rule:evenodd;clip-rule:evenodd;fill:#E9F6FD;}
</style>
<path class="st0" d="M276.8,51.5c-58.8,11.2-58.9,77.3-123.2,76.6c-73-0.8-132.5,58.4-127.1,137.4c5.4,79.8,39.9,102.1,123.5,110.8
	c48.1,5,41.5,46.2,105.7,40.1c40.6-3.9,58.6-29.7,116.6-16.6C607,452.8,509.8,7,276.8,51.5z"/>
<path class="st0" d="M214.9,54.5c0,10.5-3.3,35.9-10.5,43c-9.3,9.3-19.8,7.4-23.3-1.2C173.8,77.9,214.9,61.6,214.9,54.5z"/>
<path class="st1" d="M218.1,114.1c0,7.2-2.3,24.6-7.2,29.6c-6.4,6.4-13.6,5.1-16-0.8C189.9,130.1,218.1,119,218.1,114.1z"/>
<path class="st1" d="M228.7,173.7c1.1,5.4,2.2,18.6-0.7,23.1c-3.7,5.7-9.3,5.9-12,1.9C210.2,190,229.5,177.3,228.7,173.7z"/>
<path class="st1" d="M170.3,78.5c-4.8,2.7-15.4,10.7-16.8,15.8c-1.8,6.6,1.7,10.9,6.5,10.3C170.2,103.1,167.1,80.3,170.3,78.5z"/>
</svg>
