<?xml version="1.0" encoding="utf-8"?>
<!-- Generator: Adobe Illustrator 21.1.0, SVG Export Plug-In . SVG Version: 6.00 Build 0)  -->
<svg version="1.1" id="Layer_1" xmlns="http://www.w3.org/2000/svg" xmlns:xlink="http://www.w3.org/1999/xlink" x="0px" y="0px"
	 viewBox="0 0 527 421" style="enable-background:new 0 0 527 421;" xml:space="preserve">
<style type="text/css">
	.st0{fill-rule:evenodd;clip-rule:evenodd;fill:#D3ECFB;}
	.st1{fill-rule:evenodd;clip-rule:evenodd;fill:#BD6E39;}
	.st2{fill-rule:evenodd;clip-rule:evenodd;fill:#A35939;}
	.st3{fill:none;stroke:#822E2D;stroke-width:1.7014;stroke-linecap:round;stroke-linejoin:round;stroke-miterlimit:22.9256;}
	.st4{fill-rule:evenodd;clip-rule:evenodd;fill:#D88F55;}
	.st5{fill-rule:evenodd;clip-rule:evenodd;fill:#FFFFFF;}
	.st6{fill-rule:evenodd;clip-rule:evenodd;fill:#CA6C32;}
	.st7{fill-rule:evenodd;clip-rule:evenodd;fill:#1A1A18;}
	.st8{fill-rule:evenodd;clip-rule:evenodd;fill:#A24B2A;}
	.st9{fill-rule:evenodd;clip-rule:evenodd;fill:#F1C078;}
	.st10{fill-rule:evenodd;clip-rule:evenodd;fill:#F7CA8F;}
	.st11{fill:none;stroke:#D1822F;stroke-width:1.7014;stroke-linecap:round;stroke-linejoin:round;stroke-miterlimit:22.9256;}
	.st12{fill:none;stroke:#783529;stroke-width:1.7014;stroke-linecap:round;stroke-linejoin:round;stroke-miterlimit:22.9256;}
	.st13{fill-rule:evenodd;clip-rule:evenodd;fill:#F7C6C7;}
	.st14{fill-rule:evenodd;clip-rule:evenodd;fill:#EB9EA1;}
	.st15{fill:none;stroke:#6E6E6E;stroke-width:1.7014;stroke-linecap:round;stroke-linejoin:round;stroke-miterlimit:22.9256;}
	.st16{fill-rule:evenodd;clip-rule:evenodd;fill:#B7DAEF;}
	.st17{fill:none;stroke:#E37767;stroke-width:1.7014;stroke-linecap:round;stroke-linejoin:round;stroke-miterlimit:22.9256;}
	.st18{fill-rule:evenodd;clip-rule:evenodd;fill:#EDB581;}
	.st19{fill-rule:evenodd;clip-rule:evenodd;fill:#00A3D2;}
	.st20{fill-rule:evenodd;clip-rule:evenodd;fill:#0092C0;}
	.st21{fill-rule:evenodd;clip-rule:evenodd;fill:#007298;}
	.st22{fill-rule:evenodd;clip-rule:evenodd;fill:#00B7E6;}
	.st23{fill-rule:evenodd;clip-rule:evenodd;fill:#F3A5A6;}
	.st24{fill:none;stroke:#175275;stroke-width:1.7014;stroke-linecap:round;stroke-linejoin:round;stroke-miterlimit:22.9256;}
	.st25{fill-rule:evenodd;clip-rule:evenodd;fill:#C5C5C6;}
	.st26{fill:none;stroke:#868685;stroke-width:1.7014;stroke-linecap:round;stroke-linejoin:round;stroke-miterlimit:22.9256;}
	.st27{fill:none;stroke:#E30045;stroke-width:8.5071;stroke-linecap:round;stroke-linejoin:round;stroke-miterlimit:22.9256;}
	.st28{fill-rule:evenodd;clip-rule:evenodd;fill:#A0D8F7;}
	.st29{fill-rule:evenodd;clip-rule:evenodd;fill:#E29769;}
	.st30{fill-rule:evenodd;clip-rule:evenodd;fill:#E9F6FD;}
</style>
<path class="st0" d="M276.8,51.5c-58.8,11.2-58.9,77.3-123.2,76.6c-73-0.8-132.5,58.4-127.1,137.4c5.4,79.8,39.9,102.1,123.5,110.8
	c48.1,5,41.5,46.2,105.7,40.1c40.6-3.9,58.6-29.7,116.6-16.6C607,452.8,509.8,7,276.8,51.5z"/>
<path class="st1" d="M55.5,265.6l-3.3-5.9l-3.7-11l13.6,1.8c-9.8-5.8-15.3-26.2-26.7-60.3c-7.4,14.2-16.1,17.5-34.5,14.8
	C5.7,232.6,42.9,261.4,55.5,265.6z"/>
<path class="st2" d="M55.5,265.6l-3.3-5.9l-3.7-11l10.7-1.2c-3-4.5-9.8-14.9-18.6-38c3.2,9.9,2.5,26.2-4.9,27.8
	c-4.9,2-25.1-4.9-34.8-32.2C6.1,231.8,38.6,260.5,55.5,265.6z"/>
<path class="st3" d="M55.2,249.6c-6.5-8.1-11.8-17.7-16-28.8"/>
<path class="st3" d="M50.3,254.2c-8.7-3.5-17.5-12.7-26.2-27.7"/>
<path class="st4" d="M7.6,208.2c11.2,4.3,19.2,0.8,25.4-8.8C29,213.2,19.5,216.9,7.6,208.2z"/>
<path class="st2" d="M113,315c13.3,3.9,22.3-0.8,28.3-11.2L85,298c-0.8,15.7,3.5,21.1,18.9,22l4.9-1.7L113,315z"/>
<path class="st1" d="M162.6,294.3c13.1-0.2,29.4-3,39.4-0.6c-0.4-7.7-5.4-16.5-17.2-27l-61.6-66.4l-40.9,11.7
	c-6.6,10.9-8.1,21.7-6,32.6c-10.3,3.9-19.9,3.7-28.9,0.5C69.5,317.9,130.6,314.6,162.6,294.3z"/>
<path class="st2" d="M162.6,294.3c-18.6,2-35.9-0.8-52-8.3c-11.8,1.1-41.1-0.4-58.8-28.4C75.6,315.2,130.6,314.6,162.6,294.3z"/>
<path class="st4" d="M119.8,209.9l-12-2.9l-0.4-7.9l43.9-18.9c42.2,9.5,56.8,58.4,33.3,86.4l-12.7-8
	C156,254.2,154.4,221.6,119.8,209.9z"/>
<path class="st4" d="M115.1,198.6l-17.6-30c-23.2-5.2-32.2,5.2-43.7,22c2.8-1.9,9.5-0.8,12.5,0.7l-4.9,0.5l-4,2.8
	C77.8,221.2,105.3,215.2,115.1,198.6z"/>
<path class="st1" d="M115.1,198.6l-4.9-2.4c-24.3,15.9-45.6-6.1-38.5-25c-7.1,3.5-12.6,11.9-17.9,19.3c4.5-1.7,8.6-1.5,12.5,0.7
	c-3.4-0.1-6.4,1-8.9,3.3C74.5,217.9,105,217.6,115.1,198.6z"/>
<path class="st1" d="M136.2,139.8l-38.6,28.8c-18-3.8-27,1.5-36.6,12.2c-21.5-29.5,1.3-48.5-1.2-63.1c4.9,2.4,5.1,4.6,5.9,6.9
	c-0.2-4.5,1.3-8.7,4.3-12.5l-0.1,6.6C98.3,100.8,125.3,113.6,136.2,139.8z"/>
<path class="st2" d="M71.7,171.3L60,180.6c-20.5-37.1,4.2-48.2-0.3-62.9c4.9,2.4,7,6.6,7.8,11.8C62.5,136.7,58.8,155.3,71.7,171.3z"
	/>
<path class="st5" d="M89.9,167.5l7.6,1c1.1-6.7,6.1-14.1,10.7-19.6c-8.2-12.1-16.2-18-21.3-14.5C82.7,137.4,83.5,154.4,89.9,167.5z"
	/>
<path class="st6" d="M97.8,166.3l3.2-1.7l1.8-7.3l4.7-8.7c-5.2-10.4-11.8-12.9-16.2-9.9C87.7,141.2,89.3,155.9,97.8,166.3z"/>
<ellipse transform="matrix(5.660541e-02 -0.9984 0.9984 5.660541e-02 -52.0181 237.1601)" class="st7" cx="99.5" cy="146.1" rx="4.9" ry="4.9"/>
<ellipse transform="matrix(5.711079e-02 -0.9984 0.9984 5.711079e-02 -58.0686 240.0087)" class="st5" cx="98" cy="150.7" rx="2.8" ry="2.8"/>
<ellipse transform="matrix(5.585609e-02 -0.9984 0.9984 5.585609e-02 -68.6663 243.6989)" class="st5" cx="94.5" cy="158.2" rx="2.3" ry="2.3"/>
<path class="st3" d="M80.2,133c-1.6,1.7-3.3,5.6-3.3,8.5"/>
<path class="st6" d="M96,174.1c6.6-39.1,39.3-36.3,71.9-32.6c-14.4,34-43.1,48.7-65.9,39.6l29.5,18.8c-10,2.4-21.8-3.6-31.8-10.6
	C92.4,189.1,88.3,180.2,96,174.1z"/>
<path class="st5" d="M116.2,143.8c5.3-2.5,10.3-3.7,16.5-3.8c-6.9-14.5-16-20.5-20.2-18.6C109,124,112.5,136.5,116.2,143.8z"/>
<path class="st6" d="M119.4,142.4l13.1-2.6l-2.4-5.3c-4.2-6.6-10.2-10-13.8-7.3C113.5,129.4,116.4,138.3,119.4,142.4z"/>
<circle class="st7" cx="122.8" cy="132.4" r="4.2"/>
<circle class="st5" cx="121.8" cy="136.4" r="2.4"/>
<path class="st3" d="M113.4,117c-2.4-0.4-5.3,0.6-5.8,3.9"/>
<path class="st8" d="M158.4,159.6c-5.3,18.2-5.6,19.6-12.6,30c-7.8,11.1-24.8,17.6-46.1-0.3c-5.7-0.2-5.8-9.2-1.5-9.6
	C113.8,188.6,141.4,183,158.4,159.6z"/>
<path class="st2" d="M377.5,20.1l64.6,42.2c38.3-7.7,28.7-37.6,16.6-37.5C439.9,24.1,446.6,5.7,435,2.5
	c-11.7-3.5-16.5,13.2-28.4,2.1C398.1-3.3,377.3,2.1,377.5,20.1z"/>
<path class="st3" d="M442.2,62.3c38.3-7.7,28.7-37.6,16.6-37.5C439.9,24.1,446.6,5.7,435,2.5c-11.7-3.5-16.5,13.2-28.4,2.1
	c-8.5-7.9-29.2-2.4-28.9,15.6"/>
<path class="st9" d="M117.3,315.8c4.5,0.9,11-0.3,13.5-1.9c-5,9.8-7.6,19.5-8,29.4c11.3-2.9,23.4-14.8,33.8-8.6
	c11.9-2.6,16.5,1.4,16.1,9.9c6.4,2.2,4.8,10.3,1.1,9.8c-14.9-2.4-34.2-3.7-57.6-4.1c-7.5,0.1-5.3-6.1,0.2-7.4
	C115.1,332.9,114.9,325,117.3,315.8z"/>
<path class="st10" d="M89.9,316.1l4.5,2.3l9.4,1.9c-5.8,10.2-8.9,21-9.2,32.6c20.4-2.6,30.8,1.8,30.6,8.6c6.6,4.1,5.5,9.9,0.6,12.7
	l-1.2-1.1c1,3.8-8.6,9.4-14.7,5.4c-13.3-11.4-22.3-18.1-36.5-18.3c-3,0.5-4-4.6-0.3-5.3c3.7-1.2,8.1-1.9,13.4-2.3
	C84.5,339.5,84.3,327.7,89.9,316.1z"/>
<path class="st11" d="M141.3,340.5l15.4-5.9c-13.2-5.3-22.5,5.7-33.8,8.6c0.2-9.6,2.5-19.4,8-29.4"/>
<path class="st11" d="M155,343.5l17.8,1.1c0.4-8.1-7.1-12.7-16.1-9.9"/>
<path class="st11" d="M172.8,344.6c6.4,2.2,4.8,10.3,1.1,9.8c-14.9-2.4-34.2-3.7-57.6-4.1c-7.5,0.1-5.3-6.1,0.2-7.4
	c-1.2-10-1.4-17.9,0.9-27.1"/>
<path class="st11" d="M103.8,319.9c-7.4,12.3-9.5,24.8-9.2,36.7"/>
<path class="st11" d="M94.6,352.9c23.4-1.3,31.3,2.3,30.6,8.6"/>
<path class="st11" d="M103.2,362.5c10.9,3.7,16.9,6.7,21.4,11.7c5.3,1,13.3-15.1-14.3-15.3"/>
<path class="st11" d="M124.6,374.1c-0.1,3.6-8.6,8.3-14.7,4.2c-13.3-11.4-22.3-18.1-36.5-18.3c-3,0.5-4-4.6-0.3-5.3
	c3.7-1.2,8.1-1.9,13.4-2.3c-1.9-12.5-1.6-25.2,3.4-36.5"/>
<path class="st3" d="M136.2,139.8C125.5,112,96,101.6,69.9,118.7"/>
<path class="st3" d="M71.9,124.9c-2.4-4.3-2.6-8.9-2-12.9c-3.4,3.1-4.6,7.4-4.3,12.5c-1.2-3.9-3.1-6.2-5.9-6.9
	c4.9,13.4-21.2,30,1.2,63.1"/>
<path class="st3" d="M97.5,168.5c-28-5.8-36.5,12.5-43.7,22c4.7-1.7,9-1.7,12.5,0.7c-3.8-0.3-6.7,0.8-8.9,3.3
	c17.6,23,42,22.3,53.1,9.9"/>
<path class="st12" d="M158.4,159.6c-9.6,40.5-28.8,48.8-53.1,34.3"/>
<path class="st12" d="M100.6,176.7c-2.6,1.3-3.2,3.6-1.8,7"/>
<path class="st8" d="M116.2,151.6c1.6,0.6,2.3,3,1.7,5.4c-0.7,2.4-2.5,3.9-4.2,3.3c-1.6-0.6-2.3-3-1.7-5.4
	C112.7,152.5,114.6,151,116.2,151.6z"/>
<path class="st3" d="M89.9,167.5c-5.9-14.8-7.4-29.9-3-33c5.3-2.5,13.5,2.1,21.3,14.5"/>
<path class="st3" d="M116.2,143.8c-4.8-10.8-6.5-18.7-3.7-22.4c4.7-1.7,13.6,4,20.2,18.6"/>
<path class="st3" d="M76.1,244.7c-10.3,3.9-19.9,3.7-28.9,0.5c22.2,72.8,83.4,69.5,115.3,49.2"/>
<path class="st3" d="M151.5,180.2c43.1,9.3,54.8,58.9,33.3,86.4"/>
<path class="st3" d="M55.5,265.6c-27.4-13.4-47.3-34.5-54.6-60.6c17.3,3.3,29.5-1.5,34.5-14.8c5.5,24.8,13.8,42.9,23.8,57.3"/>
<path class="st3" d="M147.1,259.5c16.8,17.1,41.4,12.4,54.9,34.2c-25.4-7.8-54.2-2.2-76.2-23.4"/>
<path class="st3" d="M150,213.8c4.9,1.5,8.7-0.5,8.3-5.1"/>
<path class="st3" d="M163.5,205.3c2.6,0.8,4.6-0.3,4.4-2.7"/>
<path class="st3" d="M164.1,223.4c3.7,1.1,6.5-0.4,6.2-3.8"/>
<path class="st3" d="M173,243.2c2.8,1.4,5.2,0.6,5.4-2.2"/>
<path class="st3" d="M84.9,297.9c-0.8,15.7,3.5,21.1,18.9,22c4.2-0.4,9.2-3.6,16-13.1"/>
<path class="st3" d="M113,315c13,3.4,21.4-0.8,28.3-11.2"/>
<path class="st1" d="M452.1,180.5c-8.6,13.2-18.6,22.7-29.4,29.6c22.8,30.8,26.9,60.6,13.2,85.7h-3.6l-2.4,7.4l-5.3,10.4l-6.5,6.7
	c13.9,23.4,15.1,37.8,7.9,52.6c-5.4,8.5-39.4,17.9-56,1.7c-0.9-15.3,7.9-25.9,2.5-35.4l-21.8,0.2c-2.5,11.5,1.2,17.7,2.6,29.5
	c-11.3,19.1-50.5,11-61.3-4.1l12.1-48.5c-5.6-8.4-7.9-16.6-7-24.5c-8.3-9-13.8-20.8-12.9-39c-8.4,3.4-16.3,5.9-23.8,7.6
	c-5.1,1.2-9.9,1.9-14.6,2.3c14.5,2.1,10.5,14.5,4.4,14c-9.8-0.3-7.9,7.1-12.3,8.3c-5.9,1.5-13.5-0.9-18.3-11.3
	c-6.9-23.2,19.7-29,29.6-40.9c16.9-18.5,11-34.1,6.6-68.6c-17.4-14.2-17.1-24.5-11.6-22.1l12,5.4c2-23,7.3-44.3,16.7-63.5
	c30.2-51.1,78.4-70.1,125.1-60c-2.7-11.5,10.5-10.9,14.3,10.9c0.1-10.1,5.6-14.3,9,0.3c17,9.8,29.8,24.2,37.6,44
	c41.6-7.3,63.5,7.3,63.1,21.6c0.2,8.6-14.1,12.1-2.7,23.1c7.8,7.3,9.7,19.2-0.3,22c-19.6,8.9-5.9,25.2-13.2,31.7
	c-11.6,11-22.3-12.5-31.9,3.1C468.9,190.4,459.4,189.8,452.1,180.5z"/>
<path class="st2" d="M389.6,264.5c-5.7,30.2,5.8,30.6,5.9,35.3c0.1,35.8-70.7,40.1-91.5,16.5c-4.9,7-21.9,45.3-6.4,57.4
	c13.3,7.1,37.1,6,42.4,1.2c-1.6-11.1-21.4-12.5-14.4-27.2c4.7-10.9,21.9-1.2,25-8.3l29-0.2c21.6-7.4,28.4,19.6,20,22.3
	c-13.5,1.4-17.7,8.3-20.6,15.9c12.7,9.6,40.3,6,47-4.5c7.2-14.8,6-29.2-7.9-52.6l4.4-4.6c12.9,5.1,18.7,26.1,41,15.9
	c-25.9,0.7-20.1-17.9-35-25.9l4.1-9l3.3-1.1c15.5-24.6,5-62.1-16.7-72.6c10.1,7.2,28.6,47.2,5,58l-1.7,6.8l-27.8-2.9
	c-0.9-5.8-0.8-12.6,1.3-21.8l-3.9-5.3l-2-6.3C387.4,255.4,387.8,259.8,389.6,264.5z M447.6,171.4c-8.6,25.4-39,49.3-65.2,49.7
	c-15,1.8-60.4,23-51.8,41.7l-5.7-5.4l-4.5-6.5c-11.1-3.2-30.1,9-29.1,33.1c-3.8-7.6-7.8-21.3-7-31.4l-12,4.4l-12.2,3.3l-4.7-3.2
	l-6.4-1.8c36.7-10,59.9-28.3,63.3-58.7c-16.4-5.5,32.3,13.4,43.7,0.5l12.2,14c-21.4-31.8,22.4-9.2,52.6-48.1
	c31.4-44.6,19.6-102.8-30.7-131.4c30,9.5,49.4,19.7,61.9,47.3c-8.2,36.6,38.3,15.6,52.9,33.5c8.4,8,6.7,21,0.5,29.3
	c-10.6,12.9,1,23.2-5.7,29.5c-11.6,11-15.8-6.3-25.4,9.2C468.9,190.4,454.9,180.8,447.6,171.4z"/>
<polygon class="st13" points="359.3,204.2 330.9,203.1 327.6,205.4 327.4,211.9 333.8,223.3 337.3,225.9 341.2,224.6 344.2,222 "/>
<path class="st14" d="M359.3,204.2l-28.4-1.1l-3.2,2.3l-0.2,6.5c7.3-1.4,11-0.6,11.3,2.2c4.8-4.7,9.1-5.1,13-1.1L359.3,204.2z"/>
<path class="st13" d="M501,139.2c-2.3,15.1-18.2,23.9-32.8,21.2c-2.9,5.7-6.2,6.4-9.5,6.9c7.4-20,10-39.6,7.7-58.6
	c12.6,3.2,22.8-2.4,33.4,4.5C507.7,118.3,507.4,132.6,501,139.2z"/>
<path class="st5" d="M355.5,160.3c9.1-1.9,16.8-3.4,25.9-0.5c7.9-17.2,3.2-35.9-3.9-37.4C366.8,121.3,354.5,135.6,355.5,160.3z"/>
<path class="st3" d="M419.4,47.3c8-16.7-7.3-33.1-6.9-12.7c-3-22.5-23.9-26.6-10.3-1.4"/>
<path class="st3" d="M466.4,108.8c6.7,55.8-26.2,118.7-97.3,111.9c-14.4-1.3-22.3,14-31.6,12.6c-4.7-0.9-7.9-5.9-9.7-11.5
	 M421.6,34.9c18,11.6,31.5,27.6,37.6,44"/>
<path class="st5" d="M255.9,164l0.4-16.7c-5.6-0.6-13.4-8.1-15.2-5.2C239.1,144.2,243.5,155.2,255.9,164z"/>
<path class="st5" d="M361.3,203.5c-5.2-3.6-7.5-8.2-6.9-13.8c-37.8,4.2-50.4-13.4-52.3-8.6C301.1,187.8,321.1,216.6,361.3,203.5z"/>
<path class="st3" d="M361.3,203.5c-9.2,6.3-17.3,22.6-24,22.3c-3.2-1.1-6.7-6.3-9.9-13.9"/>
<path class="st15" d="M256.3,147.3c-5.6-0.6-13.4-8.1-15.2-5.2c-2,2.1,2.5,13,14.9,21.9"/>
<path class="st16" d="M356.1,148.4l-0.6,11.5c5.3-0.9,13.2-2.7,21-1c6.2-13.5,1.8-27.2-3.7-28.4
	C365.7,128.9,357.9,135.6,356.1,148.4z"/>
<path class="st17" d="M348.5,211.1c-5.1-0.8-8,0.6-9.8,3c-0.8-2-3.3-3-7.6-3"/>
<path class="st3" d="M453.6,80.3c41.7-11.2,67.9,4.2,68.7,20.2c0.2,8.6-14.1,12.1-2.7,23.1c7.8,7.3,9.7,19.2-0.3,22
	c-19.6,8.9-5.9,25.2-13.2,31.7c-11.6,11-22.3-12.5-31.9,3.1c-5.4,10.1-14.9,9.5-22.2,0.2"/>
<path class="st3" d="M461.1,106.3c12.7,8.1,28.1,0.1,38.8,6.9c7.9,5,7.6,19.4,1.1,26"/>
<path class="st7" d="M363.8,157.9c4.2,0,7.6-3.4,7.6-7.6c0-4.2-3.4-7.6-7.6-7.6c-4.2,0-7.6,3.4-7.6,7.6
	C356.1,154.5,359.6,157.9,363.8,157.9z"/>
<circle class="st5" cx="369.8" cy="146.6" r="3.1"/>
<path class="st4" d="M438,291.4l-2.1,4.5c-14.5,4.9-31.4,0.7-41.2-10.7c10-5.5,19-8,22.2,1.2C421.3,278.2,428.8,279.7,438,291.4z"/>
<path class="st4" d="M395.2,125.1c-3.6-7-17.4-8.5-13.8-14.5C385.2,105.4,398.4,116,395.2,125.1z"/>
<path class="st3" d="M395.2,125.1c-3.6-7-17.4-8.5-13.8-14.5C385.2,105.4,398.4,116,395.2,125.1z"/>
<path class="st4" d="M370.8,364.1l-0.9,10.6c13.2,15.3,52.5,7.6,56.5-2.4c-3.9-4.2-8.6-3.8-14,1.1c-10.7-10.8-28.5-10.4-34,0.6
	C377,369.2,374.5,365.9,370.8,364.1z"/>
<path class="st3" d="M422.7,210.1c25.1,32.1,24.8,62.5,13.2,85.7c-10.5,5-32.7,0.8-41.2-10.7c-1.9-10.3,1.8-19.9,2.8-33.5"/>
<path class="st4" d="M297,291.8c19.8,0,31.8-7.5,40.4-18.4l-1.9-5.6c-11.4-4.8-22.6,2.6-21.4,11.2C304.3,275.8,295.1,284,297,291.8z
	"/>
<path class="st3" d="M395.9,263.4c-2.2-1.2-4.5-5.4-5.9-11.6"/>
<path class="st4" d="M297.6,373.8c10.6,9.8,32.3,12.8,51.5,0.6c-11.4-7.5-20.7-9.7-25.1-0.2C321.2,364.4,312.4,364.2,297.6,373.8z"
	/>
<path class="st3" d="M394.6,285.1c5.4-1.6,17.3-11,22.2,1.2c4.5-8.1,13.4-5.3,21.2,5.1"/>
<path class="st3" d="M432.6,297c-10.1,25.6-26.4,38.5-62.7,42.7c-35.1,3.4-75.2-13.9-72.8-47.8"/>
<path class="st3" d="M418.1,320.5c11.7,18.4,14.7,37,8.4,51.9c-4.6,9.5-42.4,18.3-56.5,2.4c-0.4-13.9,7.4-25.3,2.5-35.4"/>
<path class="st3" d="M426.4,372.3c-3.9-4.2-8.6-3.8-14,1.1c-10.7-10.8-28.5-10.4-34,0.6c-1.4-4.8-3.9-8.1-7.6-9.9"/>
<path class="st3" d="M428.6,305.9c15.6,11.1,10.5,26.7,35,25.9c-23.8,8.9-23.4-8.2-41.3-16.1"/>
<path class="st3" d="M299.8,323.8c1.4-2.6,2.8-5.1,4.2-7.5 M350.7,339.5c-1,9.2-0.3,17.2,2.4,29.5c-6.2,15.8-56,20.2-61.6-5.8"/>
<path class="st3" d="M314,233.3c7.4,34.4,25.4,28.8,23.4,40.1c-5,8.1-24,20.9-40.4,18.4c-10.5-10.1-13.9-28.1-12.9-39"/>
<path class="st3" d="M335.5,267.8c-11.4-4.8-22.6,2.6-21.4,11.2c-9.8-3.3-19,5-17,12.8"/>
<path class="st3" d="M349.1,374.4c-11.4-7.5-20.7-9.7-25.1-0.2c-2.8-9.8-11.6-9.9-26.4-0.4"/>
<path class="st4" d="M360,180.7c-2.5,9.5-4.3,12.1,4.9,25.1C354,196.9,349.8,190.5,360,180.7z"/>
<path class="st18" d="M329.2,268.4c-5.2,0.9-9.3,3.5-13.2,7.7C318.3,270.5,322.9,267.6,329.2,268.4z"/>
<path class="st18" d="M435.7,292.7c-3.1-3.4-11.9-8.4-17.3-5.6C421.7,280.1,433.3,287.4,435.7,292.7z"/>
<path class="st19" d="M309.5,322.3c-9.2,12.9-27,13.5-35.1,8.8c-15.7,8.2-42.3,2.8-47.2-9.8c-11.6,6.7-28.1,2.1-36-13.1
	c-0.1,34,17.7,75.4,40.6,88.7l8.2,2C280.9,389.7,303.7,351.4,309.5,322.3z"/>
<path class="st20" d="M309.5,322.3c-9.3,8.4-12.9,9.7-22.2,11.5c4,21-26.9,57.8-39,54.7l9.9-12.9l8.3-17.1
	c-9.1,15-27.7,11.3-36.9-0.5c0,10.7,2.4,27.5,7.5,35.2l-5.2,3.7l8.2,2C280.9,389.7,303.7,351.4,309.5,322.3z"/>
<path class="st4" d="M311.3,315.7c7.9,7.3,19.4,11.1,29.4,12.9C330.6,330.2,317.8,327,311.3,315.7z"/>
<path class="st4" d="M405.1,252.8c-3,6.9-6.3,19.3-7.1,28.8C395.4,271.4,398.8,257.5,405.1,252.8z"/>
<path class="st18" d="M408.8,373.1c-7.9-4-16.1-4.4-25.7-2.2C391.9,365,401.1,365.5,408.8,373.1z"/>
<path class="st18" d="M322.6,374.7c-4-4.5-11.7-5.1-20.9-1.2C311.2,367.2,319.6,365.7,322.6,374.7z"/>
<path class="st1" d="M452.9,56.1c11.2-8.2,11.8-17.2,11.4-24.3C469.3,37.4,467.5,51,452.9,56.1z"/>
<path class="st21" d="M256.8,313.5l-7.4-1.2c-7.5-1.9-14.2-5.8-18.6-11.1c-14.6,12.6-25.9,13.7-39.6,7c7.9,15.2,24.4,19.8,36,13.1
	c4.9,12.6,31.5,18,47.2,9.8c8.1,4.7,25.9,4.2,35.1-8.8c-11.8,5.1-25.7-1.4-30.6-13.5C272.2,312.6,264.4,314,256.8,313.5z"/>
<path class="st4" d="M352.3,147.4c2.5-11.7,10.3-23.6,17.1-26.8C358.4,119.4,351.4,135.2,352.3,147.4z"/>
<path class="st22" d="M274.4,331c-15.2,8.6-42.3,2.8-47.2-9.8c-11.6,6.7-28.1,2.1-36-13.1c1.3,38.2,15.7,60.4,24.7,74
	c-8.8-17.8-16.4-36-16.4-56.5l10.8,5l10.6,0.3l5.3-1l-0.4,3.5C241.8,341.2,263.2,345.2,274.4,331z"/>
<path class="st23" d="M502.8,125.2c-5.1-9.3-13.7-8.6-25.1-11.3C490.1,113.7,500.2,111.3,502.8,125.2z"/>
<path class="st4" d="M282.1,76.8c-10.2,17.3-16.5,36.4-20.8,59.6C261,113.5,268,92.2,282.1,76.8z"/>
<path class="st4" d="M249.5,236.9c13.5-13.5,14.7-24,14.5-44.6C270.8,215.6,263.4,231.1,249.5,236.9z"/>
<path class="st3" d="M287,133.2c-3.1-2.3-7.5-2.6-10.6-2 M297.9,116.7c-4.3-3.2-10.9-4.3-15.6-4 M280.4,161.4
	c-2.3-1-5.6-1.2-7.7-0.1"/>
<path class="st4" d="M518.2,98.9c-6.2-12.9-35.9-20.5-49-17.8C485.1,75.5,518,82.5,518.2,98.9z"/>
<path class="st2" d="M384.2,123.7c5.1,8.6,1.2,29-2.9,36.2l3.6,1.4C392.1,152.9,392.8,134.4,384.2,123.7z"/>
<path class="st3" d="M350.3,161.6c7.7-3.8,35.5-5.4,37.8,3.3"/>
<path class="st3" d="M382,158.7c7.9-17.2,2.5-34.8-4.6-36.3c-10.7-1.2-22.9,12.8-22,37.5"/>
<path class="st24" d="M191.2,308.1c0.8,36,16.2,72.8,40.6,88.7"/>
<path class="st24" d="M309.2,322.8c-6.6,35.2-35.5,70.1-69.2,76.1"/>
<path class="st24" d="M234.1,393.4c-7.1-12.9-12-38.7-6.7-71.1"/>
<path class="st24" d="M274.7,331.2c-7,31.3-18.6,53.7-34.3,63.6"/>
<path class="st25" d="M235.5,268.5c6.2-10.7,23.4-5,21.2,6.9l-11.5,57.5l7.4,1.8l12.2-61.1c1.4-17.6-21.7-24.6-32.9-11.4
	C229.2,265.2,232.7,268.2,235.5,268.5z"/>
<path class="st26" d="M252.6,334.8l12.2-61.1c1.4-17.6-21.7-24.6-32.9-11.4c-2.8,3,0.8,5.9,3.5,6.2"/>
<path class="st26" d="M245.2,332.9l11.5-57.5c2.5-10.3-13.6-18.9-21.2-6.9"/>
<path class="st24" d="M247.7,311.8c-6.8-2-12.8-5.7-16.9-10.6c-14.6,12.6-25.9,13.7-39.6,7c7.9,15.2,24.4,19.8,36,13.1
	c4.9,12.6,31.5,18,47.2,9.8c8.1,4.7,25.9,4.2,35.1-8.8c-11.8,5.1-25.7-1.4-30.6-13.5c-6.1,3.4-13.5,4.9-20.4,4.7"/>
<path class="st15" d="M354.4,189.8c-37.8,4.2-50.4-13.4-52.3-8.6c-1.1,6.7,19,35.4,59.2,22.4"/>
<path class="st3" d="M359.1,179.9c-13.8,17.9,6.5,24,9.1,31.2"/>
<path class="st27" d="M245.3,397.6c31.3-8.5,57.6-41.6,63.8-74.9c-10,10.7-21.5,13.5-34.5,8.4"/>
<path class="st3" d="M274.9,196.5c3-4.1,8.7-3.5,10.5,0.5"/>
<path class="st3" d="M274.1,210.9c3.1-3.4,8.1-1.8,8.9,1.3"/>
<path class="st3" d="M269.2,223.3c2.6-1.8,5.2,0.2,5.2,2.7"/>
<path class="st3" d="M261.7,260.1c23.7-5.6,62.4-21.2,65.9-54.6 M398.2,23.5c-78.9-16.9-138.5,49.8-142,125.7
	c-3.3,39.9,18.5,63.7-12.7,88.6c-10.3,7.6-29.5,16.5-23.8,35.6c2.7,7.5,10.7,14,18.3,11.3c4.8-1.9,2.2-9,12.3-8.3
	c7.4-1.5,7.3-13-4.4-14"/>
<path class="st25" d="M232.7,395c0.5-3.3,8.8-2.2,7.8,1.1c-5,18.3-7.2,23.9-9,23.7C230.4,419,230.6,414.3,232.7,395z"/>
<path class="st26" d="M232.7,395c0.5-3.3,8.8-2.2,7.8,1.1c-5,18.3-7.2,23.9-9,23.7C230.4,419,230.6,414.3,232.7,395z"/>
<path class="st27" d="M232,262.3c11.2-13.2,34.3-6.2,32.9,11.4l-8,39.8c8.2,0.4,15.6-1.2,22.1-4.6"/>
<path class="st28" d="M232.5,336.4c7.2,2.4,20.3,4.7,30.5,2.7C253.7,343.2,239.6,342.3,232.5,336.4z"/>
<path class="st28" d="M195.7,319.7c5.5,5.8,16.6,10.3,25.4,11.2C211.4,332.7,197.7,327.8,195.7,319.7z"/>
<path class="st4" d="M249.4,273.5c-7,0.2-11,3.7-11.9,8.2C235.3,277.6,239.4,270.6,249.4,273.5z"/>
<path class="st2" d="M124.5,269.9c36.7-3-9-49.2-33.8-48c-8.6,0.5-14.8,7.1-15.3,15.7c0.4,14.8,8.8,27.9,19.5,38.7
	C104.7,284,124,278.8,124.5,269.9z"/>
<path class="st18" d="M189.3,226.5c-2.6-11.6-8.1-21.8-17.3-32.2C184.7,202,190.1,212.9,189.3,226.5z"/>
<path class="st29" d="M129.1,142.8c-8.8,2-18.4,7.6-24.2,15.2C108.3,147.9,118.5,142.8,129.1,142.8z"/>
<path class="st1" d="M133.7,262.2c-5.1-10.2-12.8-18.8-24.1-27.2C123.7,240.6,131.4,249.8,133.7,262.2z"/>
<path class="st4" d="M101,207c-6.2,2-20.4-0.1-26.6-2.8C80.5,211.6,94.7,211.7,101,207z"/>
<path class="st4" d="M104.2,116.2c-9.4-1.7-18.6-0.6-29,3.2C84.6,111.9,94.3,111.2,104.2,116.2z"/>
<path class="st12" d="M99.6,189.2c-8.5-0.4-10.3-9.5-3.6-15.2c7.4-29.3,18.6-38.7,71.9-32.6c-10.9,28.6-37.1,49-65.9,39.6"/>
<path class="st3" d="M119.8,209.9c34.6,12.6,34.4,39.9,49.8,47.6c25,12.7,30.1,24.6,32.3,36.2c-35.7-5.8-62.8,14.9-107-17.4
	C78,262.7,67.8,235,82.1,211.9"/>
<path class="st3" d="M94.9,276.3c12,7.2,28,2.4,29.5-6.4c12.3,4.5,21-2,22.6-10.4c6.9-2.6,9.4-10.3,5.3-23.3"/>
<path class="st0" d="M214.9,54.5c0,10.5-3.3,35.9-10.5,43c-9.3,9.3-19.8,7.4-23.3-1.2C173.8,77.9,214.9,61.6,214.9,54.5z"/>
<path class="st30" d="M218.1,114.1c0,7.2-2.3,24.6-7.2,29.6c-6.4,6.4-13.6,5.1-16-0.8C189.9,130.1,218.1,119,218.1,114.1z"/>
<path class="st30" d="M228.7,173.7c1.1,5.4,2.2,18.6-0.7,23.1c-3.7,5.7-9.3,5.9-12,1.9C210.2,190,229.5,177.3,228.7,173.7z"/>
<path class="st30" d="M170.3,78.5c-4.8,2.7-15.4,10.7-16.8,15.8c-1.8,6.6,1.7,10.9,6.5,10.3C170.2,103.1,167.1,80.3,170.3,78.5z"/>
</svg>
