<?xml version="1.0" encoding="utf-8"?>
<!-- Generator: Adobe Illustrator 21.1.0, SVG Export Plug-In . SVG Version: 6.00 Build 0)  -->
<svg version="1.1" id="Layer_1" xmlns="http://www.w3.org/2000/svg" xmlns:xlink="http://www.w3.org/1999/xlink" x="0px" y="0px"
	 viewBox="0 0 306 355" style="enable-background:new 0 0 306 355;" xml:space="preserve">
<style type="text/css">
	.st0{fill-rule:evenodd;clip-rule:evenodd;fill:#FEE9DA;}
	.st1{fill-rule:evenodd;clip-rule:evenodd;fill:#DBEAB4;}
	.st2{fill-rule:evenodd;clip-rule:evenodd;fill:#CAE197;}
	.st3{fill-rule:evenodd;clip-rule:evenodd;fill:#00BBEB;}
	.st4{fill-rule:evenodd;clip-rule:evenodd;fill:#007BBF;}
	.st5{fill-rule:evenodd;clip-rule:evenodd;fill:#009CD9;}
	.st6{fill-rule:evenodd;clip-rule:evenodd;fill:#FABFBF;}
	.st7{fill-rule:evenodd;clip-rule:evenodd;fill:#EF9192;}
	.st8{fill-rule:evenodd;clip-rule:evenodd;fill:#FFFFFF;}
	.st9{fill:none;stroke:#18537E;stroke-width:1.7018;stroke-linecap:round;stroke-linejoin:round;stroke-miterlimit:22.9256;}
	.st10{fill:none;stroke:#0094D5;stroke-width:1.7018;stroke-linecap:round;stroke-linejoin:round;stroke-miterlimit:22.9256;}
	.st11{fill-rule:evenodd;clip-rule:evenodd;}
	.st12{fill-rule:evenodd;clip-rule:evenodd;fill:#8CD0EA;}
	.st13{fill-rule:evenodd;clip-rule:evenodd;fill:#F7A1A1;}
	.st14{fill-rule:evenodd;clip-rule:evenodd;fill:#8ED8F8;}
	.st15{fill-rule:evenodd;clip-rule:evenodd;fill:#C7EAFB;}
	.st16{fill-rule:evenodd;clip-rule:evenodd;fill:#414042;}
	.st17{fill:none;stroke:#000000;stroke-width:1.7018;stroke-linecap:round;stroke-linejoin:round;stroke-miterlimit:22.9256;}
</style>
<path class="st0" d="M104.7,73.1c51.3-6.2,49-29.7,89.1-28.5c26.1,0.8,65.4,9,73.3,62.6c6.6,44.7,48.2,55.9,36.5,130.9
	c-15,96.2-198.2,151.3-239.1,57.6c-14.7-33.6-37.5-41.6-52.8-74.3C-23.2,146.6,24.9,82.9,104.7,73.1z"/>
<path class="st1" d="M236.1,288.2c7.7-7.8,22,0.4,14.5,16.4c82.9,10-88.8,59.7-114.3,17l-2.7,33.1c-21.8,1.8-39.1-5.7-52.9-21.9
	c-27.5-10.5-18-32.7-5.9-25.6c0.4,0.3,1-1.1,0.7-1.7c-5-12.1,8.2-21,17.8-15c3.1-9.7,3.8-18.4-5.8-22.3c-13.4-5.5-7.3-16.9,0.1-15.9
	c10.4,1.4-6.4-12.6,4.6-17.4c12.9-5.7,18,4.7,21.1,11.5c3.9-12.1,10.7-17.1,44.3,25.8c0,0,3.3-16.1,12.3-12.7
	c5.5,2.1,10.1,4,9.7,9.5c4.9-14.4,18.1-16.2,22.1-7.3c7-17.3,29.3-0.4,14.1,7.5c-1.5,0.8,3.5,0.9,4,2.2c1.6,3.5-5.9,6.4-5.3,6.7
	c0.2,0.1,10.1,7.4,10.1,7.4C225.4,284.3,236,276.6,236.1,288.2z"/>
<path class="st2" d="M205.1,331.3c-11.2-6.2-44.9-8.4-64.4-5c-12.8,2.3-31.9,5.5-33,14.3c-1.1,9,13.3,12.3,19.1,13.5
	c7.5,1.5,16.1,0.4,24.4-3.9c5.9-3.1,28.1-2.2,35.1-2.1C199.8,348.4,214.7,337.4,205.1,331.3z"/>
<path class="st3" d="M143.3,225.1l32.6-9.3c4.9,3.7,8.4,8.1,10.4,13.1l-0.9,21.6l-42.1-7.9V225.1z"/>
<path class="st4" d="M178.9,218c2.2,0.6,9.3,10.1,7.4,19.1c11.6-4.8,34.9-5.6,37.6-20.2c0.4-1.8,0.3-3.5-2.8-4.4
	c-1-2.9-5-1.9-10.4,0.9C204.8,215.7,190.1,218.5,178.9,218z M116.6,291.6l0.4-8.2c-17.1-13.5-33.6,5.4-45.7-16.2
	C81.2,292.3,99.5,278,116.6,291.6z"/>
<path class="st5" d="M120.7,326.3l15.8,17.2l7.5-1l4.7-2.9l-1.4-3.7c-3.4-8.1-2-20.2,4.3-36.3l6.1-0.4c0,26.9,6.7,40.4,17.5,38.9
	c2.3,0.4,4.9-0.7,5.7-2.8c4.2-5.3-3-7.4-2.8-14.2c0.2-12.9,7.9-24.3,9-41.5c3.6-7.3,4.7-14.6,2.1-21.9c2.6-2,4.3-4.7,4-8.8
	c2.4-2.6-2.3-8.7-5.9-8.1l-6.3-2.9c-4.3-0.3-5.2,0.9-7.6,4c-7.9,1.4-17.3,1.2-22.1-2.5c-2.9-1.9-4.6-4-5-6.3l-22.8-4.1l3.3,8.7
	C114,283.6,114.5,308.8,120.7,326.3z"/>
<path class="st4" d="M120.7,326.3c5.8,18.5,12.6,21.5,19.9,19.5c3.4,0.6,6-0.4,7.7-3.6l-1.9-3.6c-2,3.3-6.3,3.5-9.5,1
	c-7.3-15-3.4-42.5,8.3-40.4l12.5,0.2c0,26.9,7.1,40.5,17.8,38.9c2.3,0.4,4.5-0.8,5.3-2.8c-13.2,5.3-14.3-7.4-14.1-14.2
	c0.2-12.9,1.1-7.9,2.2-25l8.9-8.6c-15.8,8.9-45.5-0.6-36.8-22.3c9.8,3.1,19.6,3.1,29.5-1.4c5.6,0.4,13.3,2.7,17.1-5.3
	c4.8-2.7,5.9-6,5.5-9.6c-5.5,8.9-12.1,11.4-19.8,7.4c-15.7,3.6-33-2.7-39.8-23.6l-7.1-2.4l2.4,12
	C116.1,288.1,114.5,308.8,120.7,326.3z"/>
<path class="st4" d="M61.7,155.6l47,4.2l8.4-6.3l7.7-17.7c-6-19.3-24-32.6-44.1-27.9C59.7,112.7,47.8,135.7,61.7,155.6z"/>
<path class="st5" d="M177.4,208.4l40-31.4l7.1-9.8l-11.3-13.5c-30.6-10.3-65.2-13.2-97.9-19.7c-8.9-2.8-14.1-5.1-17.8-13.2
	c-3.5,7.2-2.7,13.4-0.2,22.3c-5-5.3-8.8-12.3-10.1-23c-4.5,12.9-1,25.3,8.1,37.3c-35.9-11.7-65.4,9.1-62.3,35.8
	c4.6,43.7,61.2,44,76.1,17.3C130.3,257.6,181.8,219.7,177.4,208.4z"/>
<path class="st4" d="M87.9,175.2c-96.4-29.3-44.6,98.3,15.2,34.5L87.9,175.2z"/>
<path class="st6" d="M93.5,175.2c-27.5-7.4-42.4,2.9-45,20.1c-0.7,23.5,30.8,39,58.1,11C101.7,198.4,98,189.4,93.5,175.2z"/>
<path class="st6" d="M172.6,216.2l2.9-7.7c-10.9,3.6-14.6,3.9-32.2,4.2C156.7,215,162.2,224,172.6,216.2z"/>
<path class="st7" d="M168.5,213.9c2-2.4,3.3-3.4,6.3-1.7l0.9-3.4c-10.9,3.6-14.8,3.6-32.4,3.9l16.3,5.1
	C161,214.9,164.4,213.2,168.5,213.9z"/>
<path class="st3" d="M219.2,174.7c-18.7,28.3-47.4,40-76,38.2c10.9,0.9,21.6,11,32.8,2.8c-6.5,8.2-15.2,13.9-26.1,17
	c-18.8,3-32.4-3.3-39.6-20.6c3.7-14.2,21.2-39.7,38.2-32.2C164.6,184.4,201,187.7,219.2,174.7z"/>
<path class="st8" d="M142.8,178.8l-2.9-0.1l-6.4,1.9c-12.7-15-6.3-24.8,3.5-25.2c-1.7-10,14.2-14.7,20.8-3.6
	c3.4,5.2-0.3,14.3-9.5,11.3C152.6,169.4,148.3,180,142.8,178.8z"/>
<path class="st9" d="M126.6,237.8c-12.6,45.8-12,71-5.9,88.5c3.3,8.4,8.1,23.1,19.9,19.5c4,0.8,9.8-2.7,7.7-7.8
	c-2.9-4.9-5.5-17.7,3.3-38.3 M123.3,229.1c11.1,33.5,28.8,38,49,31.8c6.3,1.1,12.3,1.9,15.4-2.4c3.3-1.3,6-4.9,5.5-9.6
	c1.7-3.4-1.2-8-6.1-8.1l1.2,1.3c-1.6,2.1-4.7,3.1-10.1,0.5 M117.1,283.4c-14.2-13.9-32.4,6.5-45.7-16.2
	c8.7,25.8,29.2,10.1,45.3,24.4"/>
<path class="st9" d="M148.2,342.2c-0.9-2.9-2.9-5.4-5-6.2 M157.7,299.3c0,26.9,6.7,40.4,17.5,38.9c2.3,0.4,4.9-0.7,5.7-2.8
	c4.2-5.3-3-7.4-2.8-14.2c0.2-12.9,7.9-24.3,9-41.5 M177,329c2.8,2,3.7,4.2,3.9,6.4 M172.2,330.7c3,2.5,4.1,5.3,3.4,7.5 M145.1,299.1
	c2.5,0.5,7.9,0.7,12.7,0.2c22.5-3.1,37.6-23.3,31.3-41.5 M140.5,345.8c-0.8-3.2-2.3-5.8-5.1-7.2"/>
<path class="st10" d="M188.3,260.8c3.5,14.7,9.6,17.7,11.1,33.1"/>
<circle class="st11" cx="139" cy="162.6" r="4.8"/>
<circle class="st8" cx="136.1" cy="166.6" r="2.3"/>
<ellipse class="st11" cx="148.8" cy="149.6" rx="4.1" ry="4.1"/>
<ellipse class="st8" cx="146.2" cy="152.2" rx="2.1" ry="2.1"/>
<path class="st9" d="M224,216.9l-4,1.6 M221.2,212.4l-3.2,2.7 M175.5,215.5c5.5,3.5,13.5,12.4,10.4,24 M224.5,167.2
	c-22.2,33.2-49.5,47.9-81.2,45.5c10.1,1.4,16.4,7.7,25.3,6.1c4.1-1.1,6.3-5.6,7.1-10 M140.1,213.3c-0.4-1.8,0.8-3.4,2.2-3.6
	 M110.1,212.2c-5.9-9.5-11.5-21.1-16.6-36.9c-48.8-13.9-56.7,32.8-29.8,44 M127.3,185c7.2-6.8,14.2-7.3,21.1-5.1 M133.5,180.6
	c-13.4-11.1-6.3-26.3,3.5-25.2c-1.7-10,14.2-14.7,20.8-3.6c3.4,5.2-0.3,14.3-9.5,11.3c4.2,6.3,0,17-5.5,15.8 M124.8,135.8
	c-6.9-22.1-25.7-31.7-45.3-27.4c-19.7,4.7-31.1,26.4-17.8,47.3 M134.4,147c-1.7,1.2-2.6,2.9-2.7,5.1 M121.9,161
	c-2.2,3.3-2.1,7.7,0,10.1 M213.2,153.7c-30.6-10.3-65.2-13.2-97.9-19.7c-8.9-2.8-13-4.4-17.8-13.2c-3.3,6.3-2.7,13.3-0.2,22.3
	c-5-5.3-8.8-12.3-10.1-23c-4.5,12.9-1,25.3,8.1,37.3c-35.9-11.7-65.4,9.1-62.3,35.8c4.6,43.7,61.2,44,76.1,17.3
	c21.3,47.2,72.7,9.3,68.2-2 M188.3,242c-5.4-7.4-12.7-4.1-15-0.1c-8.2,1.5-17.4,1-22.1-2.5 M178.9,218c5.3,0.5,26.3-2,31.8-4.6
	c5.1-3.1,8.6-3.4,10.4-0.9c2.3,0.3,3.5,2.3,2.8,4.4c-1.4,13.9-29.1,16.5-37.6,20.2"/>
<path class="st4" d="M201.1,168.5c1.3,0,2.4,1.1,2.4,2.4c0,1.3-1.1,2.4-2.4,2.4c-1.3,0-2.4-1.1-2.4-2.4
	C198.7,169.6,199.7,168.5,201.1,168.5z M197.4,175.4c1.3,0,2.4,1.1,2.4,2.4c0,1.3-1.1,2.4-2.4,2.4s-2.4-1.1-2.4-2.4
	C195,176.5,196.1,175.4,197.4,175.4z M192.7,169.2c1.3,0,2.4,1.1,2.4,2.4c0,1.4-1.1,2.4-2.4,2.4c-1.3,0-2.4-1.1-2.4-2.4
	C190.2,170.3,191.3,169.2,192.7,169.2z"/>
<path class="st12" d="M123.1,196.9c5.8-5.6,13.8-10.2,22.2-12.8C134.5,182.7,127.4,189.6,123.1,196.9z"/>
<path class="st5" d="M105.6,115.9c-8.2-4.1-17.1-5-27.8-3.6C88.2,107.6,98.1,108.6,105.6,115.9z"/>
<path class="st3" d="M147.4,239.6c7.5,4.1,15.8,5.4,25.8,4.6C163.4,248.1,154.2,246.7,147.4,239.6z M164.3,146.3
	c3.6-1.5,29.6,3.2,34.1,6.8C188.2,152.1,176.5,150,164.3,146.3z M43.8,171.5c7.5-6.8,16.8-10.4,28.7-12.2
	C59.9,157.4,49.6,161.4,43.8,171.5z"/>
<path class="st13" d="M52.4,202.1c6.4,8.3,15,13.5,26.3,17.1C66.3,219.4,56.8,213.7,52.4,202.1z"/>
<path class="st6" d="M211.8,215.6c-1.9,0.7-2.3,2.8-1.4,4.6c2.4,4.7,8.9,4.5,7.6-1.6C217.4,216.1,215,214.5,211.8,215.6z"/>
<path class="st10" d="M215.5,101c15,35.8-40.7,74.5-31.4,140.9"/>
<path class="st14" d="M209.3,96.1l5.3-2.1c18.3,6.9,15.5,20.1,3.9,9c5.7,12.2-2.4,12.1-3.3,2.5C212.7,118.8,202.5,118.9,209.3,96.1z
	"/>
<path class="st10" d="M214.6,94.1c18.3,6.9,15.5,20.1,3.9,9c5.7,12.2-2.4,12.1-3.3,2.5c-4.4,16.2-11.6,9-5.9-9.5"/>
<path class="st14" d="M213.1,95.1c34.5-12.9,33.7-68.7-3.5-86.6c-19.4-10.8-65.7-2.6-58.2,42.1C157.7,93.6,199.4,102.4,213.1,95.1z"
	/>
<path class="st10" d="M213.1,95.1c34.5-12.9,33.7-68.7-3.5-86.6c-19.4-10.8-65.7-2.6-58.2,42.1C157.7,93.6,199.4,102.4,213.1,95.1z"
	/>
<path class="st15" d="M216.4,17.2c-10.5-5.3-22-7.9-36.3-8.4C194.8,5.4,206.8,8.6,216.4,17.2z"/>
<path class="st16" d="M213.2,153.7c15.5-7,22.2,9.4,9.1,14.6C207.2,173.7,204.5,159,213.2,153.7z"/>
<path class="st17" d="M213.2,153.7c15.5-7,22.2,9.4,9.1,14.6C207.2,173.7,204.5,159,213.2,153.7z"/>
</svg>
