<?xml version="1.0" encoding="utf-8"?>
<!-- Generator: Adobe Illustrator 21.1.0, SVG Export Plug-In . SVG Version: 6.00 Build 0)  -->
<svg version="1.1" id="Layer_1" xmlns="http://www.w3.org/2000/svg" xmlns:xlink="http://www.w3.org/1999/xlink" x="0px" y="0px"
	 viewBox="0 0 306 355" style="enable-background:new 0 0 306 355;" xml:space="preserve">
<style type="text/css">
	.st0{fill-rule:evenodd;clip-rule:evenodd;fill:#FEE9DA;}
	.st1{fill-rule:evenodd;clip-rule:evenodd;fill:#DBEAB4;}
	.st2{fill-rule:evenodd;clip-rule:evenodd;fill:#CAE197;}
</style>
<path class="st0" d="M104.7,73.1c51.3-6.2,49-29.7,89.1-28.5c26.1,0.8,65.4,9,73.3,62.6c6.6,44.7,48.2,55.9,36.5,130.9
	c-15,96.2-198.2,151.3-239.1,57.6c-14.7-33.6-37.5-41.6-52.8-74.3C-23.2,146.6,24.9,82.9,104.7,73.1z"/>
<path class="st1" d="M236.1,288.2c7.7-7.8,22,0.4,14.5,16.4c82.9,10-88.8,59.7-114.3,17l-2.7,33.1c-21.8,1.8-39.1-5.7-52.9-21.9
	c-27.5-10.5-18-32.7-5.9-25.6c0.4,0.3,1-1.1,0.7-1.7c-5-12.1,8.2-21,17.8-15c3.1-9.7,3.8-18.4-5.8-22.3c-13.4-5.5-7.3-16.9,0.1-15.9
	c10.4,1.4-6.4-12.6,4.6-17.4c12.9-5.7,18,4.7,21.1,11.5c3.9-12.1,10.7-17.1,44.3,25.8c0,0,3.3-16.1,12.3-12.7
	c5.5,2.1,10.1,4,9.7,9.5c4.9-14.4,18.1-16.2,22.1-7.3c7-17.3,29.3-0.4,14.1,7.5c-1.5,0.8,3.5,0.9,4,2.2c1.6,3.5-5.9,6.4-5.3,6.7
	c0.2,0.1,10.1,7.4,10.1,7.4C225.4,284.3,236,276.6,236.1,288.2z"/>
<path class="st2" d="M205.1,331.3c-11.2-6.2-44.9-8.4-64.4-5c-12.8,2.3-31.9,5.5-33,14.3c-1.1,9,13.3,12.3,19.1,13.5
	c7.5,1.5,16.1,0.4,24.4-3.9c5.9-3.1,28.1-2.2,35.1-2.1C199.8,348.4,214.7,337.4,205.1,331.3z"/>
</svg>
