<?xml version="1.0" encoding="utf-8"?>
<!-- Generator: Adobe Illustrator 19.0.0, SVG Export Plug-In . SVG Version: 6.00 Build 0)  -->
<svg version="1.1" id="Layer_1" xmlns="http://www.w3.org/2000/svg" xmlns:xlink="http://www.w3.org/1999/xlink" x="0px" y="0px"
	 viewBox="0 0 339.8 328.9" enable-background="new 0 0 339.8 328.9" xml:space="preserve">
<path fill-rule="evenodd" clip-rule="evenodd" fill="#B87933" d="M31.4,283c7-8.1,3-26.5,15.4-32.1l13.3,30l-3.6,28.5l-43.6-15
	C11.9,286.4,26.4,289.1,31.4,283z"/>
<polygon fill-rule="evenodd" clip-rule="evenodd" fill="#C98E3E" points="21.1,49.9 15.1,66.8 56.5,316.7 65.3,319.7 45.8,157.4 "/>
<polygon fill-rule="evenodd" clip-rule="evenodd" fill="#DDB476" points="21.1,49.9 165,49.3 211.8,286 65.3,319.7 "/>
<linearGradient id="SVGID_1_" gradientUnits="userSpaceOnUse" x1="114.2736" y1="175.9295" x2="79.8273" y2="55.1648">
	<stop  offset="0" style="stop-color:#D3ECFB"/>
	<stop  offset="1" style="stop-color:#FFFFFF"/>
</linearGradient>
<polygon fill-rule="evenodd" clip-rule="evenodd" fill="url(#SVGID_1_)" points="32.5,60.2 157.2,57.5 200.6,279.4 74.8,306.5 "/>
<linearGradient id="SVGID_2_" gradientUnits="userSpaceOnUse" x1="151.1575" y1="219.7209" x2="65.3857" y2="34.4405">
	<stop  offset="0" style="stop-color:#C4B694"/>
	<stop  offset="1" style="stop-color:#FFFFFF"/>
</linearGradient>
<path fill-rule="evenodd" clip-rule="evenodd" fill="url(#SVGID_2_)" d="M75.8,190.4c-7.8,6.2-7.1,23,4.7,17l11.1,0.7
	c6.9,0.5,14.2,0.4,21.1-0.8c-1.8,5.4-1.3,10.8,1.4,16l0,0c-4.6,16.7-4.7,28.6-0.4,35.7c0.6,11.8,4.7,21.1,5.8,25.5
	c-0.1,4.9,0,9,0.4,12.4l15.7-3.4c-0.9-3.9-2.1-11.5-1.1-20.6c0-0.4,0.1-0.7,0.1-1.1l5.4-0.6c1.5,9.6,2.9,15.7,3.9,20.4l17.4-3.8
	c-0.5-5.9-1.2-11.9-1.8-19.9v0l0.1,0.8l-0.9-12.3l0-0.3l0,0l-0.1-0.9l0,0l-0.1-1v0l-0.1-1c6.6,2.6,10.5,1.7,11.8-2.6
	c-9.8-8.1-10.9-19.2-13-29.4c0.9-9.3,1-17.7-0.3-24.4c7.8-8.7,10.2-23.3,4.1-34.9l-0.2-3.1c1,0.2,1.9,0.4,2.9,0.5
	c0.2,0,0.4,0,0.5,0.1l0,0c4.6,0.6,8.9,0.4,12.8-0.6l-14-71.5c-1.5,0.7-2.9,1.6-4.3,2.6l0,0c0.6-17.9-16.4-25.6-26.3-23.2
	c-18.6,2.8-29,28.9-17.9,49.1C102,133.7,89,158.5,75.8,190.4L75.8,190.4z M159.5,267.3l-0.6-8.4c19.2-2,23.5,22.6,36.3,19.6
	C182.2,287.7,177,262.1,159.5,267.3z"/>
<path fill-rule="evenodd" clip-rule="evenodd" fill="#FCCA00" d="M230.1,317.6c-4.2-1.7-4.4-7.9-3.1-12.2
	c0.6-10.6-3.3-15.4-6.8-39.4l-7.4,0.5c-2.7,13.8,0.5,25,1.1,26.8l-3.7,14.4l-5.1,1.8c-9.5,1.4-15.5-5.3-13.9-29.6
	c-1.3-4.8-6.6-15.3-6.9-28.4c-5.7-8-4.9-21.1,2.2-39.5c3.1,4.9,6.6,8.7,10.5,11.4l0.1,3.8c11.4-11.8,34.3-8.2,34.3-35.4l15.3-7.9
	c1.7,7.5,1.1,17.1-0.5,27.6c2.5,11.3,3.6,23.6,16.7,33c-1.9,4.7-7.4,5.6-16.4,2.5c0.7,23.2,2.3,36.1,3,49.5
	c1,14.3-7.9,22.2-13.1,21.4C234.9,319,231.4,319.6,230.1,317.6z"/>
<path fill-rule="evenodd" clip-rule="evenodd" fill="#E3A921" d="M247.3,262.6l0-9.4c26.6-1.5,31,25.7,48.8,22.9
	C277.7,285.9,271.7,257.4,247.3,262.6c0.8,13.4,1.7,22,2.2,32c1,14.3-7.8,24.1-13,23.3c-1.7,1.1-5.6,2.7-6.7-1.4
	c11.3,0.2,12.4-5.1,13.3-11.9c0.6-10.6-1.3-21.5-5-27.6c-3.1-5.1-16.8-3.8-18-11.1l-7.4,0.5c-6,30.8,11.4,30.6-3.6,41.8
	c-7.9,1.5-16.7-7.5-10-6c21.5,2.7,5.9-24.1,5.8-36.9c-6-2.4-12.3-9-13-15.3c2.1,6.6,33.5,12.5,45-10.9l5.7,5.3
	c13.7-0.6-15.4-29.3-0.5-47.3c1.7,7.5,1.8,4.8,4.2,14.3c2.5,11.3,3.6,23.6,16.7,33c-1.9,4.7-7.4,5.6-16.4,2.5
	C246.8,252.9,247,258,247.3,262.6z"/>
<path fill-rule="evenodd" clip-rule="evenodd" fill="#E3A921" d="M192.1,93.4l42.4-7l19.9-20.2c1.6-19.8-21.5-28.9-35.3-26.7
	C193.1,42,177.5,70.5,192.1,93.4z"/>
<path fill-rule="evenodd" clip-rule="evenodd" fill="#FCCA00" d="M228,70.1l3.3-7c-29.7,13.5-61.7,50.6-96.1,111.1l5.7,18.9
	l15.3,1.2l98-48.3l-0.1-3.5c45.4,9.2,74.9-30.3,58-61.9c-11.6-22.3-55.9-32.2-77.6,5.7c0.3-9.2,2.1-17.6,7.1-23.9l-8.8,4.1L228,70.1
	z"/>
<path fill-rule="evenodd" clip-rule="evenodd" fill="#E3A921" d="M254,142.6c33.3,7.1,72.2-18.8,55.4-50.4
	c-11.6-22.3-37.9-22.7-59.5,15.2l1.9,12.4L254,142.6L254,142.6z M162.3,171.2c-1.6,0-2.8,1.3-2.8,2.8c0,1.6,1.3,2.8,2.8,2.8
	c1.6,0,2.8-1.3,2.8-2.8C165.1,172.5,163.8,171.2,162.3,171.2L162.3,171.2z M157,178.6c-1.4,0-2.5,1.1-2.5,2.5s1.1,2.5,2.5,2.5
	c1.4,0,2.5-1.1,2.5-2.5S158.4,178.6,157,178.6L157,178.6z M154.4,171.6c-1.2,0-2.2,1-2.2,2.2c0,1.2,1,2.2,2.2,2.2
	c1.2,0,2.2-1,2.2-2.2C156.6,172.6,155.6,171.6,154.4,171.6z"/>
<path fill-rule="evenodd" clip-rule="evenodd" fill="#F7C6C7" d="M253.8,138.1c-0.8-12.2-2.5-24.4-5.1-36.7
	C261,80,285.3,78.8,293.6,87.7C307.9,101.6,300.9,140.8,253.8,138.1z"/>
<path fill-rule="evenodd" clip-rule="evenodd" fill="#FFFFFF" d="M208.5,146.7l14.8-7.7c1.9-18.5-5.9-28.4-15.4-23.2
	c-0.8-8.8-10.5-8.3-20.1,2c-6.2,6.5-4.8,16.3,6.7,16.4C194.1,140.1,199.2,146.7,208.5,146.7z"/>
<path fill-rule="evenodd" clip-rule="evenodd" fill="#FFE170" d="M153.2,194.1c10.4,1,21.6,1.3,32.1,0.2
	c-4.4,9.7-0.5,19.4,11.8,29.2l0.1,3.8c7.8-9.5,35.7-8.7,35.4-36c24.6-7,31.4-29,21.6-45.3c-8.8-13.6-31.5-15.5-44,1.4
	C199.6,163,167.2,190.3,153.2,194.1z"/>
<path fill-rule="evenodd" clip-rule="evenodd" fill="none" stroke="#A16215" stroke-width="1.7008" stroke-linecap="round" stroke-linejoin="round" stroke-miterlimit="22.9256" d="
	M140.9,193.2c23.2,1.2,74.2,9.3,87.2-25.7 M232.2,168.8c0.5-3-1.5-6.6-5.8-5.2 M234.4,135.8c-9.3-0.8-20.4,4.3-25.2,13.3
	 M223.5,137.3c1.6-17.4-6.1-26.6-15.6-21.4c-0.8-8.8-10.5-8.3-20.1,2c-6.2,6.5-4.8,16.3,6.7,16.4c0.2,6.6,6,13.9,16.4,11.9
	 M205.8,105.6c-2.2-1.5-4.6-1.5-6.9-0.7 M226,117.7c0-4-3.2-6.6-6.2-7.8 M228,70.1l3.3-7c-23.3,7.8-64.5,53-96.1,111.1 M254,142.6
	c45.4,9.2,74.9-30.3,58-61.9c-11.6-22.3-55.9-32.2-77.6,5.7c0.3-9.2,2.1-17.6,7.1-23.9c-9.8,3.3-16.3,8.9-20.4,16.1 M254.4,66.2
	c-0.8-20.5-21.5-28.9-35.3-26.7c-25.9,2.5-41.5,31-26.9,53.9 M246.3,106c12.8-26.6,39-27.2,47.3-18.3c14.3,14,7.3,53.1-39.8,50.5
	 M207.3,188.9c35.5,13.9,61.6-18.9,46.8-42.9c-0.3-13.7-2.2-29.9-5.4-44.6"/>
<circle fill-rule="evenodd" clip-rule="evenodd" fill="#1A1A18" cx="204.2" cy="130.4" r="4.9"/>
<circle fill-rule="evenodd" clip-rule="evenodd" fill="#FFFFFF" cx="207.5" cy="132.5" r="2.1"/>
<circle fill-rule="evenodd" clip-rule="evenodd" fill="#1A1A18" cx="189.9" cy="121.2" r="4.3"/>
<path fill-rule="evenodd" clip-rule="evenodd" fill="none" stroke="#A16215" stroke-width="1.7008" stroke-linecap="round" stroke-linejoin="round" stroke-miterlimit="22.9256" d="
	M209.2,296.9c3,2.7,3.5,6.7,2.6,9.6 M201.8,301c3,2.8,3.9,5.7,3.2,8.5 M185.3,194.2c-4.4,9.7-0.5,19.4,11.8,29.2 M200.5,213.6
	c-3.5,3.4-3.7,8.4-3.4,13.7c11.2-9.3,30.3-10.2,33.6-27.8 M242.1,197.2c7,15.8,3.6,35.6,20.9,47.3c-3,2.2-6.7-0.3-8.4-1.9
	 M246.9,184.2c2,7.7,1.2,18.5-0.6,27.3 M263,244.5c-1.8,9.2-27.1,7-36.2-25.2 M239.6,254.4c-14.4,19-43,13.4-53.8-0.7
	c-11.4-14.8-0.3-35.5,0.7-41.6 M247.3,253.2c29.3,0.5,30,26.2,48.8,22.9c-20.1,8.4-23.3-17.7-48.8-13.5 M246.6,247
	c0.7,23.2,2.3,36.1,3,49.5c1,14.3-7.9,22.2-13.1,21.4c-1.7,1.1-4.8,1.3-6.5-0.2c-1.2-4.5,0.5-8.7,2.9-11.3 M238.3,308.4l-1.7,9.4
	 M220.2,266c2.8,17.7,7.9,33.2,6.8,39.4c-1.6,8.9,0,10.3,3.1,12.2 M212.7,266.5c-1.7,8.5-1.4,21.4,1.4,27.4
	c5.5,10.4-6.9,18.8-15.4,14.7c-6.7-3.4-8-11.4-7.5-28.6c-2.3-9.5-6.6-17.8-6.9-28.4"/>
<path fill-rule="evenodd" clip-rule="evenodd" fill="#FFF6B1" d="M255.3,156.4c-0.8,10.1-5.2,18.2-13,26.2
	C253.4,177.5,258.3,168.4,255.3,156.4L255.3,156.4z M194.9,217.2c-5-5.3-7-11.9-8.6-19.5C185,205.1,187,212.9,194.9,217.2z"/>
<path fill-rule="evenodd" clip-rule="evenodd" fill="#FCCA00" d="M193.6,60.2c6.6-8.5,15.3-13.8,26.9-17.5
	C207.7,42.5,198,48.4,193.6,60.2z"/>
<path fill-rule="evenodd" clip-rule="evenodd" fill="#F3A5A6" d="M293.1,117.4c-6.6,8-15.4,13-27,16.4
	C278.9,134,288.6,128.5,293.1,117.4z"/>
<path fill-rule="evenodd" clip-rule="evenodd" fill="#3B3A39" stroke="#1A1A18" stroke-width="1.7008" stroke-linecap="round" stroke-linejoin="round" stroke-miterlimit="22.9256" d="
	M140.9,193.2c13.3-6.5,4.6-24.8-5.7-18.9C124.1,180.8,124.3,199.5,140.9,193.2z"/>
<circle fill-rule="evenodd" clip-rule="evenodd" fill="#FFFFFF" cx="193.2" cy="123.9" r="1.9"/>
<path fill-rule="evenodd" clip-rule="evenodd" fill="#FFE67E" d="M229.7,300.6c0-6.3-2.3-26.5-6.3-28.5
	C226.5,282.8,228.2,296.8,229.7,300.6L229.7,300.6z M276.7,65c13.6,2.7,24.8,9.8,35.6,21.1C305.3,71.3,292.9,63.4,276.7,65L276.7,65
	z M170.4,128.4c-4.6,1.3-23.6,27-24.2,34.3C154.4,153.4,162.9,142,170.4,128.4L170.4,128.4z M188.9,251.4
	c-3.9-6.3-4.8-13.1-3.6-21.2C181,238,182,245.5,188.9,251.4z"/>
</svg>
