<?xml version="1.0" encoding="utf-8"?>
<!-- Generator: Adobe Illustrator 21.1.0, SVG Export Plug-In . SVG Version: 6.00 Build 0)  -->
<svg version="1.1" id="Layer_1" xmlns="http://www.w3.org/2000/svg" xmlns:xlink="http://www.w3.org/1999/xlink" x="0px" y="0px"
	 viewBox="0 0 340 329" style="enable-background:new 0 0 340 329;" xml:space="preserve">
<style type="text/css">
	.st0{fill-rule:evenodd;clip-rule:evenodd;fill:#F2E9F4;}
	.st1{fill-rule:evenodd;clip-rule:evenodd;fill:#ECECEC;}
</style>
<path class="st0" d="M59.4,123.9C59.4,51.7,106.3,0,149.3,0c24.7,0,40.6,27.7,74.2,21.7c47.6-8.5,95.6,0.8,109.9,34.4
	c9.7,22.8,4.9,60.4-4.4,75.9c-44.5,74.7,68.4,132.4-32.6,175.5C177.1,358.2,59.4,244.5,59.4,123.9z"/>
<path class="st1" d="M192.9,287c-6.7,1.7-21.3-1-27-1c-8.8,0-33.7,5.7-33.7,17.1c0,8.3,17.1,10.9,24.4,10.9c18.1,0,18.7,15,35.3,15
	c19.2,0,82.8-5.2,76.2-24.9c-3.1-9.4-31.1-15.6-41.5-15.6C222.4,288.6,193.4,284.4,192.9,287z"/>
</svg>
