<?xml version="1.0" encoding="utf-8"?>
<!-- Generator: Adobe Illustrator 21.1.0, SVG Export Plug-In . SVG Version: 6.00 Build 0)  -->
<svg version="1.1" id="Layer_1" xmlns="http://www.w3.org/2000/svg" xmlns:xlink="http://www.w3.org/1999/xlink" x="0px" y="0px"
	 viewBox="0 0 524 435" style="enable-background:new 0 0 524 435;" xml:space="preserve">
<style type="text/css">
	.st0{fill-rule:evenodd;clip-rule:evenodd;fill:#E3A921;}
	.st1{fill-rule:evenodd;clip-rule:evenodd;fill:#FCCA00;}
	.st2{fill-rule:evenodd;clip-rule:evenodd;fill:#F7C6C7;}
	.st3{fill-rule:evenodd;clip-rule:evenodd;fill:#FFE67E;}
	.st4{fill-rule:evenodd;clip-rule:evenodd;fill:#FFFFFF;}
	.st5{fill:none;stroke:#A16215;stroke-width:1.6992;stroke-linecap:round;stroke-linejoin:round;stroke-miterlimit:22.9256;}
	.st6{fill-rule:evenodd;clip-rule:evenodd;fill:#1A1A18;}
	.st7{fill-rule:evenodd;clip-rule:evenodd;fill:#F3A5A6;}
	.st8{fill-rule:evenodd;clip-rule:evenodd;fill:#94A5AF;}
	.st9{fill-rule:evenodd;clip-rule:evenodd;fill:#D6E9D7;}
	.st10{fill-rule:evenodd;clip-rule:evenodd;fill:#EE9395;}
	.st11{fill-rule:evenodd;clip-rule:evenodd;fill:#B5CAD6;}
	.st12{fill-rule:evenodd;clip-rule:evenodd;fill:#A1B5C0;}
	.st13{fill:none;stroke:#717E84;stroke-width:1.6992;stroke-linecap:round;stroke-linejoin:round;stroke-miterlimit:22.9256;}
	.st14{fill-rule:evenodd;clip-rule:evenodd;fill:#FFF6B1;}
	.st15{fill-rule:evenodd;clip-rule:evenodd;fill:#3B3A39;}
	.st16{fill:none;stroke:#1A1A18;stroke-width:1.6992;stroke-linecap:round;stroke-linejoin:round;stroke-miterlimit:22.9256;}
</style>
<path class="st0" d="M450.5,201.6l-72.5-42.4l21.4-14.1C440.2,107.5,499.8,164.1,450.5,201.6z"/>
<path class="st1" d="M429.7,187.5c15.3-1.4,24.8,15.5,20.6,24.6c15.6,21.3,26.9,44,35.3,67.5l-14.5,17.7l-77.1-9.3l22.1,43.4
	l1.7,3.9c21.4-5.5,30.2,19.7,4.7,53.9c7.6,2.8,8.6,15.2-1.8,15.1l-3,1.1l-3.1-0.7c-3.4,2-7.9,2-13.5-0.3c-2.9,3.5-6.9,4.8-11.9,3.8
	l-4.8,0.4c-11.4-0.9-27.7,8.6-34.1-2.6c-14,2.6-18.7-12.5-8.1-23.3c-9.2-24.9-9.1-51.3,1.3-88.6c-7.5-9.4-13.2-21.7-16.4-38.1
	c-44.6,6-68.4-30.1-61.3-61.7c6.6-33.4,52.8-47.1,85.8-23.2c3.5-16.7,19.6-30,41.4-31.8c-8.1,4-12.4,11.2-15,20
	c5.4-8.5,12.5-13.2,21.4-14.1c-7.6,6.4-9.7,11.1-6.4,14.1C405.8,166.3,418.2,175.8,429.7,187.5z"/>
<path class="st0" d="M355.5,296.2c-14.1,52,0.8,81.7,17.8,75.2c-9.5,5.4-12.5,20.1-28.5,16.3c8.2,24.9,34.8-15.8,52.2-23.7
	l-6.9,14.7c12.1,3.4,22.3-0.3,30.6-11.1c2.8-11.4,1.9-17.9-1.3-28.3c18.5-2.6,20.5,26.7,3.1,49.8c7.6,2.8,8.6,15.2-1.8,15.1l-3,1.1
	l-3.1-0.7c-3.4,2-7.9,2-13.5-0.3c-2.9,3.5-6.9,4.8-11.9,3.8l-4.8,0.4c-11.4-0.9-27.7,8.6-34.1-2.6c-14,2.6-18.7-12.5-8.1-23.3
	c-9.2-24.9-9.1-51.3,1.3-88.6c-7.5-9.4-13.2-21.7-16.4-38.1C335.1,275.2,344.9,287.3,355.5,296.2z"/>
<path class="st0" d="M327.1,256.1c-40.3,2.6-62.6-19-55.5-50.8c3-22.9,30.3-44.9,66.2-22.7l-23.6,31.6l12.6,35.1L327.1,256.1z"/>
<path class="st2" d="M326.8,249.3l-0.2-26c-8.2-12.2-2-18.7,1.4-15.9c4.7,4.1,6.8,3.7,6.4-1.2c2.1-5.4,6.4-6.1,8.6-1.6
	c0.4-4.4,1.4-9.6,3.7-16.8c-25.9-19.6-61.5-4-64.1,18.3C278.3,227.2,293,251.5,326.8,249.3z"/>
<path class="st3" d="M373.5,304.7c-1.6-7.6-0.6-13.8,3-18.7l19.2,6l22.5,4.6c17.2,19.5-3.3,33.5-7.5,42.2l-1.1-3.1
	C397.6,325.4,380.2,326,373.5,304.7z"/>
<path class="st3" d="M469.6,292.2l1.5,5.1c-33.4,3-65.2,0.7-94.5-11.4c-18.8-7.4-31.9-19.4-25.4-59.8c34.3-13.1,55.6-8.4,61.3,4.3
	C421.5,244.6,448.5,278.9,469.6,292.2z"/>
<path class="st0" d="M467.5,271.4c1.7,0,3.1,1.4,3.1,3.1c0,1.7-1.4,3.1-3.1,3.1s-3.1-1.4-3.1-3.1
	C464.4,272.8,465.8,271.4,467.5,271.4z M459.4,274.6c1.6,0,3,1.3,3,3c0,1.6-1.3,3-3,3c-1.7,0-3-1.3-3-3
	C456.4,275.9,457.7,274.6,459.4,274.6z M458.9,266.1c1.7,0,3.1,1.4,3.1,3.1c0,1.7-1.4,3.1-3.1,3.1c-1.7,0-3.1-1.4-3.1-3.1
	C455.8,267.5,457.2,266.1,458.9,266.1z"/>
<path class="st4" d="M421.9,192.4c1.2,4.2,4.1,4.5,6.2,6.7c1.8,3.2-4.3,9.6,5.3,9.6c3.8,0,3.2,5.8,4.7,8.7
	c-3.2,4.9-9.2,5.4-17.2,3.1c-1.6,4.6-4.4,7.9-8.4,10c-3.1-6.6-9.5-10.8-20.7-11.6c-2.6-22,11.9-29.8,21.7-21.3
	C414.8,192.6,418,191.6,421.9,192.4z"/>
<path class="st5" d="M391.8,218.9c-2.6-22,11.9-29.8,21.7-21.3c1.3-5,4.5-6,8.4-5.3 M389.3,219c11.1-0.6,18.9,3.3,23.3,11.5
	 M414.9,186.7c1.2-2,4.4-2.5,6.1-0.6 M391,190.4c-4.3-0.5-5.6,4.2-5.3,8 M412.5,230.5c3.6-0.5,6.4-3.8,8.4-10
	c8.1,2.6,13.8,1.6,17.2-3.1"/>
<path class="st6" d="M399.6,212.9c3.5,0,6.4-2.9,6.4-6.4c0-3.5-2.9-6.4-6.4-6.4c-3.5,0-6.4,2.9-6.4,6.4
	C393.2,210,396,212.9,399.6,212.9z"/>
<circle class="st4" cx="403" cy="209.9" r="3"/>
<path class="st6" d="M420.7,205.9c3.1,0,5.7-2.5,5.7-5.7c0-3.1-2.5-5.7-5.7-5.7c-3.1,0-5.7,2.5-5.7,5.7
	C415,203.4,417.5,205.9,420.7,205.9z"/>
<circle class="st4" cx="423.7" cy="203.3" r="2.6"/>
<path class="st5" d="M471.1,297.3c-27,4.1-63.6,0.1-94.5-11.4 M389.8,269.8c4.1,14.9,11.2,21.9,19.7,25.3 M391.6,266.3
	c0,3.2-3,4.3-5.1,3.8 M399.3,145.2c40.9-37.8,100.6,19,51.2,56.4 M450.3,212.1c13,18.5,25.7,42,35.3,67.5 M327.1,256.1
	c-44.6,6-68.4-30.1-61.3-61.7c6.6-33.4,52.8-47.1,85.8-23.2c3.5-16.7,19.6-30,41.4-31.8c-8.1,4-12.4,11.2-15,20
	c5.4-8.5,12.5-13.2,21.4-14.1c-7.6,6.4-9.7,11.1-6.4,14.1c12.9,7.1,25,16.3,36.6,28 M343,204.7c0.4-4.4,1.4-9.6,3.7-16.8
	c-25.9-19.6-61.5-4-64.1,18.3c-4.1,21,10.6,45.3,44.3,43.2"/>
<path class="st5" d="M409.6,335.8c-10.2-8.8-30.8-9.1-36.1-31.1 M417.7,335.3c26.3-7.2,26.6,27.4,5.4,53.1 M414.5,404.6
	c-0.7,1.5-8.4,1.7-13.5-0.3 M420.5,392.9c4.2,3.7,3.2,9.9,0.1,11.3c11.2,0.6,12.1-17.7-7.2-16 M420.6,404.2
	c-1.2,1.2-4.3,1.5-6.1,0.4c2.4-1.7,2.2-7.8,0.3-10.6 M380.1,391.7c22.5-4.2,25.5,13.3,17.5,15.6 M385.3,398c6.9,2.9,6.1,11.9-1,10.5
	c-9.8-1.8-27.4,8.9-34.1-2.6 M393.7,397.1c6.2,2.9,7.4,13.8-4.5,11 M416,331.4c14.1,29,2,56.2-20.7,61.3 M396.9,364.1
	c-2.9,9.5-9.6,20.6-21.3,32.3 M368.2,338.8c17.7-10.8,32.6-0.9,30.3,18.4 M344.8,387.7c20.8,5.6,28.9-36,70.3-31.4
	c-34.3,6.5-41.4,42.9-64.8,49.6c-15.4,3.9-17.8-14.2-8.1-23.3 M343.5,294c-11.6,42.4-10.1,73.1,1.3,93.7 M348.9,299.6
	c-14.5-13.4-24.8-33.9-22.3-76.3c-8.4-12-2.3-18.7,1.4-15.9c2.4,1.9,5.6,6.3,6.4-0.9c0.4-6.4,7.8-6.5,8.6-1.8c0.1,4.1,2.3,5.7,5,3.8
	c3.9-2.7,8.1,0.5,6,5.8c-7.4,27.2-4.6,49.4,5,68.1 M418.3,296.6c17.2,19.5-3.3,33.5-7.5,42.2c-1.6-5.3-4.8-10.2-9.8-14.7"/>
<path class="st4" d="M257.1,218.3c17.6-3.6,41.2,8.9,33.2,17.8C279.9,244.5,273.2,223.6,257.1,218.3z"/>
<path class="st1" d="M450.1,145.1c-10.4-5.2-21.7-6.3-35.3-4.6C428.1,134.5,440.6,135.8,450.1,145.1z"/>
<path class="st7" d="M288.6,222.9c8.2,10.6,19,17.2,33.4,21.7C306.2,245,294.2,237.6,288.6,222.9z"/>
<path class="st8" d="M235.9,205.1c-3.7,5.9-16.2-3.9-14.5-7.8C224.9,192.2,239,201.4,235.9,205.1z"/>
<path class="st3" d="M141.4,235.8l41.3-11.8c6.2,4.7,10.6,10.2,13.2,16.6l-1.1,27.4l-53.4-10V235.8z"/>
<path class="st0" d="M186.4,226.8c2.7,0.8,5.9,5.3,9.6,13.4l9.3-15.8C199,226.5,192.4,227.2,186.4,226.8z"/>
<path class="st0" d="M107.6,320l0.5-10.4c-35.4-5.5-36.3-33.8-62.9-45.2C71.7,282.5,60.3,310.7,107.6,320z"/>
<path class="st1" d="M144.7,360.8c-1,5.7-0.8,11.8,3,18c2.6,6.5-4.8,11-9.8,9.9c-5.5,1.7-10.7,1.4-15.3-5c-2.6-3.9-5-8-7-12.7
	C129,371.1,138.7,367.6,144.7,360.8z M112.7,364.1c20.3,0,33.3-8.7,39.2-33.8l7.7-0.5c0,34.2,8.5,51.3,22.2,49.3
	c2.9,0.5,6.2-0.9,7.3-3.5c5.4-6.7-3.7-9.4-3.5-18c0.2-16.4,10-30.9,11.4-52.5c4.5-9.2,5.9-18.5,2.7-27.8c3.3-2.6,5.4-6,5-11.2
	c5.3-3.8,5.7-8,1.4-12.6l-16.9-1.3c-5.5-0.4-6.5,1.1-9.7,5.1c-10.1,1.8-22,1.5-28.1-3.2c-3.7-2.4-5.8-5.1-6.3-7.9l-29-5.2l4.2,11
	C104.2,309.9,104.9,341.9,112.7,364.1z"/>
<path class="st0" d="M130.3,360.8c-1,5.7-2.6,12.7,1.1,18.9c-4,10.3,11,8.7,16.2,4.5c-7.3,9.2-20.4,6-25.1-0.4c-2.6-3.9-5-8-7-12.7
	C129,371.1,124.3,367.6,130.3,360.8z M112.7,364.1c20.3,0,25.2-9.4,31-34.5l15.9,0.3c0,34.2,9,51.4,22.6,49.4c2.9,0.5,5.8-1,6.8-3.6
	c-16.7,6.8-18.1-9.4-17.9-18c0.2-16.4,1.4-10,2.8-31.8l11.3-10.9c-20,11.3-57.7-0.7-46.7-28.2c12.5,3.9,24.9,3.9,37.4-1.8
	c7.1,0.5,16.8,3.4,21.8-6.8c6.1-3.4,7.5-7.6,6.9-12.2c-7,11.3-15.4,14.4-25.2,9.4c-19.9,4.6-41.8-3.5-50.5-30l-9-3.1l3,15.2
	C106.9,315.6,104.9,341.9,112.7,364.1z"/>
<path class="st9" d="M8.8,394.1c-1.2,4.2,0.1,5.6,2.3,6.6c39.3,12.1,47.5-17.2,71.2-25.8c18.6-7.7,37.2,0.1,55-8.4
	c16.6-8.1,19.7-40.3,31.8-57.5l-6.8-2.5c-11.8,17.3-11.5,42.4-28.6,52.5c-17.5,9.9-35.6,0.5-56.4,9.1
	C52.5,378.6,45.8,406.2,8.8,394.1z"/>
<path class="st0" d="M42.3,146.8l55.1,6.3l10.6-8l9.9-5.5c4.5-46.4-28.7-64.3-54.2-58.4C37.3,87.1,20.7,114.8,42.3,146.8z"/>
<path class="st1" d="M184.5,214.7l50.8-39.9l9-12.4L230,145.3c-38.8-13.1-82.7-16.7-124.1-25c-11.2-3.5-18.5-9.5-17.2-21.1
	c-8.3,10.2-8.8,21.3-5.6,32.7c-6.3-6.7-11.2-15.6-12.9-29.2c-5.7,16.4-1.2,32.1,10.3,47.3c-45.6-14.9-82.9,11.6-79,45.5
	c5.9,55.4,77.5,55.8,96.5,22C124.9,277,190.1,229,184.5,214.7z"/>
<path class="st0" d="M71.1,172.5c-122.2-37.2-55.6,126,20.3,42.9L71.1,172.5z"/>
<path class="st2" d="M78.3,172.5c-34.9-9.4-53.8,3.7-57,25.5c-0.9,29.8,39.1,49.4,73.6,14C88.7,201.9,83.9,190.5,78.3,172.5z"/>
<path class="st2" d="M178.3,224.5l3.7-9.7c-13.9,4.5-18.5,5-40.9,5.4C158.2,223,165.2,234.4,178.3,224.5z"/>
<path class="st10" d="M173.2,221.6c2.5-3,4.1-4.3,8-2.1l1.2-4.3c-13.9,4.5-18.8,4.6-41.1,5l20.7,6.4
	C163.7,222.8,167.9,220.8,173.2,221.6z"/>
<path class="st3" d="M237.5,171.9c-23.7,36-60,50.8-96.4,48.5c13.9,1.2,27.4,13.9,41.6,3.6c-8.3,10.4-19.3,17.6-33.2,21.5
	c-23.8,3.8-41.1-4.1-50.3-26.1c4.8-18.1,26.9-50.4,48.5-40.8C168.3,184.1,214.4,188.3,237.5,171.9z"/>
<path class="st5" d="M137.3,220.9c-0.4-2.2,1-4.4,2.8-4.5 M117.9,122.6C114.2,88.1,86.2,75.8,63.9,81c-26.7,6.1-43.3,33.8-21.7,65.7
	 M229.9,145.3c-38.8-13.1-82.7-16.7-124.1-25c-11.2-3.5-18.5-9.5-17.2-21.1c-8.3,10.2-8.8,21.3-5.6,32.7
	c-6.3-6.7-11.2-15.6-12.9-29.2c-5.7,16.4-1.2,32.1,10.3,47.3c-45.6-14.9-82.9,11.6-79,45.5c5.9,55.4,77.5,55.8,96.5,22
	c27,59.7,92.2,11.8,86.5-2.6 M99.3,219.4c-7.5-12.1-14.7-26.7-21-46.9c-61.8-17.7-71.8,41.6-37.9,55.7 M244.2,162.4
	c-28.1,42.1-62.7,60.7-102.9,57.8c12.8,1.8,20.8,9.8,32.1,7.7c5.2-1.4,8-7.1,9-12.7"/>
<path class="st4" d="M140.7,177.1L137,177l-8.1,2.4c-16.1-19-7.9-31.5,4.4-32c-2.2-12.6,18-18.6,26.4-4.6c4.3,6.6-0.3,18.2-12,14.3
	C153.1,165.1,147.8,178.6,140.7,177.1z"/>
<ellipse transform="matrix(0.998 -6.244095e-02 6.244095e-02 0.998 -9.9079 9.2447)" class="st6" cx="143" cy="163.1" rx="6.1" ry="6.1"/>
<ellipse transform="matrix(0.998 -6.262641e-02 6.262641e-02 0.998 -9.9672 8.8917)" class="st4" cx="136.9" cy="163.4" rx="2.9" ry="2.9"/>
<ellipse transform="matrix(0.9981 -6.240438e-02 6.240438e-02 0.9981 -8.9617 9.9835)" class="st6" cx="155.3" cy="148.5" rx="5.1" ry="5.1"/>
<ellipse transform="matrix(0.9981 -6.229709e-02 6.229709e-02 0.9981 -9.056 9.664)" class="st4" cx="150.4" cy="150.1" rx="2.7" ry="2.7"/>
<path class="st11" d="M164.3,293.9l6.3-10.7l50.8-85.9c-2,4.5,11.3,12.9,14.5,7.8l-30.4,48.5c-4.8,8.1-11.9,8.1-20.1,4.5l-14.9,25.3
	l7.5-2l9.4,1.1l-11.1,17.7l-2.1,1.3c-1.7,4.7-3.4,7.3-5.2,7.7l-3.7-0.6l-3.2-2c-1.2-2.9-1-6.2,2.2-10.1V293.9z"/>
<path class="st12" d="M164.3,293.9l6.3-10.7l14.9-25.3c16.1,5.8,25.4-33,36.9-46.9c3.3,1.2,7.9,3,13.5-6l-30.4,48.5
	c-4.8,8.1-11.9,8.1-20.1,4.5l-14.9,25.3l7.5-2c-8.4,13.7-7.2,18.3-1.6,18.8l-2.1,1.3c-1.7,4.7-3.4,7.3-5.2,7.7l-3.7-0.6l-3.2-2
	c-1.2-2.9-1-6.2,2.2-10.1L164.3,293.9z"/>
<path class="st13" d="M221.4,197.3c3.5-5,17.6,4.2,14.5,7.8"/>
<path class="st13" d="M164.5,296.4c-3.5,5.9-3.5,8.6-2.2,10.1c1.2,1.4,4.8,2.9,6.8,2.5c1.3-0.4,4-3,5.2-7.7"/>
<path class="st5" d="M182.1,223.6c7,4.4,11.5,10.1,13.7,16.9 M189,252.1c-5.5-1.1-7.7,2.3-9.7,5.1c-10.4,1.8-22.1,1.3-28.1-3.2
	 M205.3,224.5c-6.3,2-12.9,2.7-18.9,2.3"/>
<path class="st0" d="M214.6,164.1c1.7,0,3.1,1.4,3.1,3.1c0,1.7-1.4,3.1-3.1,3.1c-1.7,0-3.1-1.4-3.1-3.1
	C211.4,165.4,212.8,164.1,214.6,164.1z M209.9,172.8c1.7,0,3.1,1.4,3.1,3.1c0,1.7-1.4,3.1-3.1,3.1c-1.7,0-3.1-1.4-3.1-3.1
	C206.8,174.2,208.1,172.8,209.9,172.8z M203.8,164.9c1.7,0,3.1,1.4,3.1,3.1c0,1.7-1.4,3.1-3.1,3.1c-1.7,0-3.1-1.4-3.1-3.1
	C200.7,166.3,202.1,164.9,203.8,164.9z"/>
<path class="st4" d="M276.1,190.3c19.2-15.9,51.7-15.5,48.5,0.3C323.2,201,300.4,183.6,276.1,190.3z"/>
<path class="st14" d="M115.8,200c7.4-7.1,17.5-12.9,28.2-16.3C130.3,182.1,121.2,190.8,115.8,200z"/>
<path class="st1" d="M95.1,91.4c-10.4-5.2-21.7-6.3-35.3-4.6C73.1,80.8,85.6,82.1,95.1,91.4z"/>
<path class="st3" d="M167.9,135.9c4.6-1.9,37.6,4,43.2,8.7C198.1,143.2,183.4,140.6,167.9,135.9z M15.2,167.8
	c9.5-8.6,21.3-13.2,36.4-15.5C35.6,150,22.6,155.1,15.2,167.8z M144.5,254.3c9.5,5.3,20,6.8,32.8,5.8
	C164.6,265,152.9,263.3,144.5,254.3z"/>
<path class="st7" d="M26.2,206.6c8.2,10.6,19,17.2,33.4,21.7C43.7,228.7,31.7,221.3,26.2,206.6z"/>
<path class="st13" d="M185.6,257.9l35.8-60.5c-2,4.5,11.3,12.9,14.5,7.8l-7.4,11.8 M187.5,282.3L176.4,300c-1.7,3.7-13.9-1-12.2-6.2
	l6.3-10.7 M215.4,237.8l-9.5,15.6"/>
<path class="st1" d="M228.8,217.7c-2.9-2-6.6,0.2-6.9,4.2c-5.9,0-9.4,4.5-6.3,9.7c-4.3-0.4-4.8,6.9-1.4,9.1
	C227.4,250.6,235.9,222.6,228.8,217.7z"/>
<path class="st5" d="M228.8,217.7c-2.9-2-6.6,0.2-6.9,4.2c-5.9,0-9.4,4.5-6.3,9.7c-4.3-0.4-4.8,6.9-1.4,9.1
	C227.4,250.6,235.9,222.6,228.8,217.7z"/>
<path class="st5" d="M129,179.4c-17-14.1-7.9-33.3,4.4-32c-2.2-12.6,18-18.6,26.4-4.6c4.3,6.6-0.3,18.2-12,14.3
	c5.3,8,0.1,21.5-7,20.1 M130.1,136.9c-2.1,1.5-3.3,3.6-3.4,6.4 M114.3,154.6c-2.8,4.2-2.7,9.8,0,12.8 M121.1,185
	c9.1-8.6,18-9.3,26.7-6.4"/>
<path class="st5" d="M115.5,371.2c2.1,4.6,4.5,8.8,7,12.7c4.6,6.4,9.9,6.6,15.3,5c5.1,1,12.4-3.5,9.8-9.9c-3.7-6.2-3.9-12.3-3-18
	 M137.9,388.7c-1.1-4-2.9-7.3-6.4-9.1 M147.6,384.1c-1.1-3.7-3.7-6.9-6.4-7.8 M159.5,329.8c0,34.2,8.5,51.3,22.2,49.3
	c2.9,0.5,6.2-0.9,7.3-3.5c5.4-6.7-3.7-9.4-3.5-18c0.2-16.4,10-30.9,11.4-52.6 M184,367.5c3.5,2.6,4.7,5.3,4.9,8.1 M177.8,369.6
	c3.8,3.2,5.2,6.7,4.3,9.5 M159.8,329.8c28.5-3.9,47.7-29.6,39.8-52.6 M143.7,329.5c2.8,0.4,5.5,0.7,8.2,0.7 M116,240.9
	c14.1,42.6,36.6,48.2,62,40.4c8.1,1.4,15.7,2.5,19.6-3c4.2-1.7,7.6-6.2,6.9-12.2c6.1-3.8,5.1-8.5,1.4-12.6
	c-5.2,8.1-13.6,7.8-20.4,4.6 M108.1,309.6c-35.4-5.5-36.3-33.8-62.9-45.2c26.5,18.1,15.1,46.4,62.3,55.5 M120.2,251.9
	c-16,58-15.3,90-7.5,112.2"/>
<path class="st13" d="M162.3,306.5c-11.8,17.3-11.5,42.4-28.6,52.6c-17.5,9.9-35.6,0.5-56.4,9.1c-24.9,10.5-31.7,38.1-68.7,26"/>
<path class="st13" d="M169.1,309c-11.8,17.3-13.5,46.7-30.6,56.8c-17.5,9.9-35.6,0.5-56.3,9.1C57.3,385.4,48,412.7,11,400.7"/>
<path class="st15" d="M229.9,145.3c19.6-8.9,28.2,11.9,11.6,18.5C222.3,170.5,218.9,152,229.9,145.3z"/>
<path class="st16" d="M229.9,145.3c19.6-8.9,28.2,11.9,11.6,18.5C222.3,170.5,218.9,152,229.9,145.3z"/>
<path class="st15" d="M485.6,279.6c16.2,12.5,5.6,33.1-14.5,17.7C464.7,290,479.4,276.5,485.6,279.6z"/>
<path class="st16" d="M485.6,279.6c16.2,12.5,5.6,33.1-14.5,17.7C464.7,290,479.4,276.5,485.6,279.6z"/>
<path class="st5" d="M429.5,187.3c-9.1,2-7.5,8.6-4.4,9.5c3.4,1,4.1,4.1,3.3,6.2c-1.7,3.7-0.1,6.1,4.2,5.8c3.1-0.1,4.2,2.4,4.3,5
	c0.3,5.7,10.7,5.5,13.5-1.6C455.9,201,440.5,185.1,429.5,187.3z"/>
<path class="st3" d="M454.5,226.2c7.8,3.8,20.4,28.2,20.7,39C468.5,250.6,461.7,237.4,454.5,226.2z M270.4,194.5
	c5.5-11.6,14.6-20.4,27.6-28.3C282.4,170.1,272.3,179.9,270.4,194.5z M395.9,350.2c-2.8-8.7-10-11.8-19-13.3
	C386.8,334.3,395.2,338.9,395.9,350.2z"/>
<path class="st14" d="M418.9,303.2c0.9,6.3,1.3,12.6-2.4,21.3C425.6,318.4,422.6,309.3,418.9,303.2z M369.1,226.6
	c10.1,1.8,20.2,4.2,32.8,11.9C395,226.3,379.7,225.4,369.1,226.6z"/>
<path class="st3" d="M338,234.4c3.9,0,7.1-3.9,7.1-8.7c0-4.8-3.2-8.7-7.1-8.7c-3.9,0-7.1,3.9-7.1,8.7
	C330.9,230.5,334.1,234.4,338,234.4z"/>
</svg>
