<?xml version="1.0" encoding="utf-8"?>
<!-- Generator: Adobe Illustrator 21.1.0, SVG Export Plug-In . SVG Version: 6.00 Build 0)  -->
<svg version="1.1" id="Layer_1" xmlns="http://www.w3.org/2000/svg" xmlns:xlink="http://www.w3.org/1999/xlink" x="0px" y="0px"
	 viewBox="0 0 524 435" style="enable-background:new 0 0 524 435;" xml:space="preserve">
<style type="text/css">
	.st0{fill-rule:evenodd;clip-rule:evenodd;fill:#D3ECFB;}
	.st1{fill-rule:evenodd;clip-rule:evenodd;fill:#FFFFFF;}
	.st2{fill-rule:evenodd;clip-rule:evenodd;fill:#E9F6FD;}
	.st3{fill:none;stroke:#FFFFFF;stroke-width:1.6992;stroke-linecap:round;stroke-linejoin:round;stroke-miterlimit:22.9256;}
</style>
<path class="st0" d="M115.6,410C3.4,358,11,244.5,48.6,145.9c33-86.2,182.9-194.9,186.6-111c3.6,79,203.2-123.8,216.8,15.4
	c3.8,38.6,41.7,26,62.2,64.6c34.9,65.6-37.7,133.1-65,151.5c-3,9.3-47.1,4.9-61.2,18.6c-8,7.7,12.8,32.2,8.4,41.2
	c-14.2,29.9,39.6,28,49.1,47.3c20.8,43.4-56.8,53.8-89.5,57.8C294.5,439,176.9,436.4,115.6,410z"/>
<path class="st1" d="M262.6,240.1c-6.4,41.5,18.1,85.7,46.5,60.1c6-6.3,8.1-20.1-6.6-30C292.8,261.4,271.3,259.7,262.6,240.1z"/>
<path class="st1" d="M271.5,142.4c6.9-14.3,29.9-42.3,37.4-34.6C319.2,119,283.4,124.4,271.5,142.4z"/>
<path class="st1" d="M267.9,110.4c1.7-15.7,7.5-40.8,18.4-38.8C299,73.6,274.1,97.5,267.9,110.4z"/>
<path class="st2" d="M281.5,106.6c5.1-10.4,15.3-26.3,22.4-22.2C312.2,88.9,289,99.2,281.5,106.6z"/>
<path class="st1" d="M320.5,112.5c18.5-14.8,51.7-35.4,62.1-22.7C395.2,103.8,341.3,104.9,320.5,112.5z"/>
<path class="st2" d="M314.9,70.5c6.2-9.8,18-24.6,24.6-19.7C345.1,54.8,323.1,64,314.9,70.5z"/>
<path class="st1" d="M317.2,82.3c11.8-8.2,32.8-19.9,39.3-13.6C362.1,73.7,330.3,77.7,317.2,82.3z"/>
<path class="st2" d="M350,54.9c8.8-4.8,24.1-10.7,26.9-4.2C379.4,56,359,53.6,350,54.9z"/>
<path class="st2" d="M377.1,81.2c12.4-2.7,33.1-4.5,34.3,4.4C412.6,92.9,388.5,82.7,377.1,81.2z"/>
<path class="st1" d="M453.9,104.4c11.3,0.2,29.3,3,27.9,11.8C480.8,123.5,463.2,108.4,453.9,104.4z"/>
<path class="st2" d="M400,67.9c15.3-1.1,40.4,0.1,40.3,11C440.5,87.9,413.4,71.6,400,67.9z"/>
<path class="st3" d="M240.5,196.8c14.8-16.7,44.5-41.4,73.1-49.2"/>
<path class="st3" d="M243.9,184.5c30.1-34.4,74.7-65.8,117.7-73.5"/>
</svg>
