<?xml version="1.0" encoding="utf-8"?>
<!-- Generator: Adobe Illustrator 21.1.0, SVG Export Plug-In . SVG Version: 6.00 Build 0)  -->
<svg version="1.1" id="Layer_1" xmlns="http://www.w3.org/2000/svg" xmlns:xlink="http://www.w3.org/1999/xlink" x="0px" y="0px"
	 viewBox="0 0 536 442" style="enable-background:new 0 0 536 442;" xml:space="preserve">
<style type="text/css">
	.st0{fill-rule:evenodd;clip-rule:evenodd;fill:#F5AE93;}
	.st1{fill-rule:evenodd;clip-rule:evenodd;fill:#EF8062;}
	.st2{fill-rule:evenodd;clip-rule:evenodd;fill:#A35939;}
	.st3{fill-rule:evenodd;clip-rule:evenodd;fill:#BD6E39;}
	.st4{fill-rule:evenodd;clip-rule:evenodd;fill:#F7C6C7;}
	.st5{fill-rule:evenodd;clip-rule:evenodd;fill:#D88F55;}
	.st6{fill:none;stroke:#822E2D;stroke-width:1.7018;stroke-linecap:round;stroke-linejoin:round;stroke-miterlimit:22.9256;}
	.st7{fill-rule:evenodd;clip-rule:evenodd;fill:#FFFFFF;}
	.st8{fill-rule:evenodd;clip-rule:evenodd;fill:#1A1A18;}
	.st9{fill-rule:evenodd;clip-rule:evenodd;fill:#3B3A39;}
	.st10{fill:none;stroke:#1A1A18;stroke-width:1.7018;stroke-linecap:round;stroke-linejoin:round;stroke-miterlimit:22.9256;}
	.st11{fill:none;stroke:#CA3D26;stroke-width:1.7018;stroke-linecap:round;stroke-linejoin:round;stroke-miterlimit:22.9256;}
	.st12{fill-rule:evenodd;clip-rule:evenodd;fill:#EDB581;}
	.st13{fill-rule:evenodd;clip-rule:evenodd;fill:#F3A5A6;}
</style>
<path class="st0" d="M293.8,368.7c2.5,4.1,6,7.4,10.3,9.7c8.8,10.8,42.8,3.2,46.9-5l5.4-6c12-0.8,18.6-5.5,19.9-14l-10,2.5l-3.1,2.1
	l-3.7,0.8c1-7.4-0.1-14.3-3.2-20.9l4.5-0.9l9.2-5.9c-3.1-3.7-8.3-4.9-18.2-0.7c0.3-7.2-9.9-10.4-30.4-9.5
	c-18.5,2.8-27.6,7.7-27.2,14.8l-1.8,4.8c-15.3-19.4-43.3-19.7-48.1-0.1c-0.8,3.9,5.1,8.5,9.9,7.5c-0.2-9.9,11-13.5,17.3-7.4
	C279.2,349.8,276.3,363.6,293.8,368.7z"/>
<path class="st1" d="M293.8,368.7c2.5,4.1,6,7.4,10.3,9.7c8.8,10.8,42.8,3.2,46.9-5l5.4-6c12-0.8,18.6-5.5,19.9-14l-10,2.5l-3.1,2.1
	l-3.7,0.8c1-7.4-0.1-14.3-3.2-20.9l4.5-0.9l9.2-5.9c-3.1-3.7-8.3-4.9-18.2-0.7c0.3-7.2-14-14.3-45.1-6.3
	c30.3-5.9,39.6,6.9,29.8,15.8c17.8,30.2-32,42.4-45.7,19.4c-15.3-29.3-36.5-31.6-41.4-12l4.8,0.6c-0.2-9.9,11-13.5,17.3-7.4
	C279.2,349.8,276.3,363.6,293.8,368.7z"/>
<path class="st2" d="M472.4,378.5l1.1-12.3c32.2,10.2,24.6,49.3,50.9,55.9C496.8,422.6,495.3,380.2,472.4,378.5z"/>
<path class="st3" d="M362.9,343.9c-2.4,2.6-0.8,7.9,2,8.9c2.2,9.1,15.2,2.6,11.8-5.1c2.2-3.7,2.2-8.8-2.9-10.2
	c2.4-4.9-1.7-8.3-9.3-4.8C359.1,335.5,360.2,340.9,362.9,343.9z"/>
<path class="st2" d="M372.8,331.5c1.6,1.2,1.9,3.2,0.9,6c4.6,1.7,5.6,5.1,2.9,10.2c6.8,0.1,13.3-2.1,19.4-6.7l4.4-11.5l1.7-8
	l-1.6-5.6l0.4-6.3C392.5,320.3,383.4,328.5,372.8,331.5z"/>
<path class="st3" d="M430.6,389.6l-7.4,0.1c1.8,29.4-5.6,41.7-19.2,42.2c-2.5,0.6-4.7-0.3-6.8-2.7c-3.6-3.7-3.6-8,0-12.9
	c6.2-12.6-0.7-27.9-1.1-41.8c-11-20.7,4.1-35.3,6.1-52.9l9,14.5l-0.9,5.4c10.1,0.2,19.8-5.4,29.4-14.9c-0.9-12.3,10.8-28.2,12-31.3
	l16.3-3.5l-2.1,2.8c13.8,8.7,11.1,124-12,142c-1.4,2.7-4.8,4.6-7.4,3.9c-2.5,1.3-7.3,0.4-8.7-2.3c-3.4-0.3-5.3-6.2-2.3-9.4
	C441.1,420.4,439.4,403.9,430.6,389.6z"/>
<path class="st2" d="M443,385.4c-3.7,1.6-6.2,4.6-19.8,4.2c1.8,29.4-5.6,41.7-19.2,42.2c-2.5,0.6-4.7-0.3-6.8-2.7
	c-3.6-3.7-2.8-6.4-1.8-9.8c15.6,16.9,23.6-11,16.3-32l8.4,2c-11.7-3.8-18.9-12-21.7-24.6c11.5,17.8,37.7,14,43.4,1.1
	c12.3-9.2,21.4-44.2,19.7-58.8c21.1,15.1,11.8,114.3-7.6,129.4c-1.4,2.7-4.8,4.6-7.4,3.9c-2.5,1.3-7.3,0.4-8.7-2.3
	c-3.4-0.3-5.3-6.2-2.3-9.4C453.7,447.5,458.3,383.5,443,385.4z"/>
<path class="st2" d="M480.9,165.9l-29.2,22.9l-38.6-1.5c-13.5-30.4,9.9-56.5,32.5-58C469.7,127.1,484.7,143.5,480.9,165.9z"/>
<path class="st3" d="M473.6,254.5l-97.4,45.4l-26.5-0.2l-13.9-15.5c14.5-25.8,42.7-58.5,63-76.9c12.6-12.2,19.2-27.3,19.7-47.2
	c6.1,5.2,6.7,11.5,9,17.5c-0.3-9.6-2-18.1-6.8-23.9c12.4,4.8,22.8,16.1,30.7,35.2c17.6-32.7,60.9-29.3,75-8.1
	C546.8,207.8,532,256.6,473.6,254.5z"/>
<path class="st2" d="M473.6,254.5l-0.9-9.5l9.2-23l-16.4-7.6c16.7-35.5,50.9-41.9,65-20.6C543,206.4,532,256.6,473.6,254.5z"/>
<path class="st4" d="M472.7,245c-2.3-13.8-5.2-26.6-9.7-37c19.2-22.6,48.3-21.9,55.5-10.4C535.5,220.2,517.5,253.3,472.7,245z"/>
<path class="st5" d="M352.2,298.9c27.6-2.8,44.6-29.7,65.3-45.7c17.1-14.5,37.7-13,56.1,1.3c3.6,27.8-3.6,47.1-21.9,40.7
	c1.5,11.4-9.6,18.8-10.8,30.8c-8.9,10.5-20.4,15.6-30.6,15.4l0.9-5.4c-2.9-10.4-14.9-14.1-8.7-31.1c-4.7,0.1-24.4,0.9-59.5-2.9
	L352.2,298.9z"/>
<path class="st6" d="M335.9,284.2c14.5-25.8,42.7-58.5,63-76.9c12.6-12.2,19.2-27.3,19.7-47.2c6.1,5.2,6.7,11.5,9,17.5
	c-0.3-9.6-2-18.1-6.8-23.9c12.4,4.8,22.8,16.1,30.7,35.2c17.6-32.7,60.9-29.3,75-8.1c20.1,27.1,5.3,75.8-53.1,73.7"/>
<path class="st6" d="M463,207.9c13.5,31.1,14.4,77.6,2.9,86.6c13.8,8.7,11.1,124-12,142c-1.4,2.7-4.8,4.6-7.4,3.9
	c-2.5,1.3-7.3,0.4-8.7-2.3c-3.4-0.3-5.3-6.2-2.3-9.4c5.6-8.4,3.9-24.9-4.8-39.1"/>
<path class="st6" d="M451.7,295.2c-35.9,12.1-74.1,11.9-108.7,6.8"/>
<path class="st6" d="M402.5,304.9c-6.9,17.4,5.9,21.3,8.7,31.1"/>
<path class="st6" d="M433.8,360.3c-2.2,2.9-4,6-5.6,9.4c-2.1-4-0.6-8.2,2.7-11.8c5.6-8.9,8-26.7,12.3-40.9"/>
<path class="st6" d="M473.5,366.3c32.2,10.2,24.6,49.3,50.9,55.9c-27.7,0.3-29.2-42.1-52-43.7"/>
<path class="st6" d="M428.2,369.7c0.7,5,7.5,5.7,13.6-3.8"/>
<path class="st6" d="M433.1,373.2c13.5-0.5,23.6-13.9,29.6-43.1c1.8-15.2,1.3-25.5-6.7-26.5"/>
<path class="st6" d="M402.2,321.5c-1,15.4-18.6,32.4-5.4,54.1c11.3,18.7,45.7,20.7,63.3-5.1"/>
<path class="st6" d="M401,309.7c-8.5,10.6-17.7,18.8-28.2,21.8"/>
<path class="st6" d="M396,341c-7.3,5.3-13.7,6.4-19.4,6.7"/>
<path class="st6" d="M396.1,374.4c1.3,13.3,6.8,30.6,1.1,41.8c-3.1,4-4.3,9.3,0,12.9c0.3-3.3,1.4-6.1,3.2-8.4"/>
<path class="st6" d="M397.1,429.3c1,1.8,2.9,2.6,6.8,2.7c15-0.3,20.4-16,19.2-42.2"/>
<path class="st6" d="M404,432c-0.4-2.9,0.5-5.8,2.7-8.7"/>
<path class="st6" d="M446.6,440.4c-0.4-2.7,0.5-5.4,2.5-8.1"/>
<path class="st6" d="M437.7,438.2c-0.4-2.7,0.5-5.4,2.5-8.1"/>
<path class="st6" d="M438.1,276.2c-3.6,13.7-10.7,22.3-20.4,27"/>
<path class="st6" d="M413,187.3c-13.5-30.4,9.9-56.5,32.5-58c24.1-2.2,39.2,14.2,35.4,36.6"/>
<path class="st6" d="M463,207.9c19.2-22.6,48.3-21.9,55.5-10.4c17,22.7-1,55.8-45.8,47.4"/>
<path class="st7" d="M432.8,244.5l-11.5,5.6c-9.6,0.3-18.4-5.1-16.5-16.3c-11.3,5.9-20-2.1-16.1-10.1c6.6-15.5,21.6-17.2,23.2-4.5
	C425,211.8,438.8,222.2,432.8,244.5z"/>
<path class="st6" d="M434.4,273.8c1.9-2.2,6.3-2.6,7.3,1.1"/>
<path class="st6" d="M406.6,205.2c3.8-1.4,5.9-0.1,7.3,2.6"/>
<path class="st6" d="M435,214.3c2.9,1.9,4.5,5.1,4.8,9.7"/>
<path class="st6" d="M421.3,250.1c-9.6,0.3-18.4-5.1-16.5-16.3c-11.3,5.9-20-2.1-16.1-10.1c6.6-15.5,21.6-17.2,23.2-4.5
	c13.1-7.3,26.9,3.1,20.8,25.3"/>
<path class="st2" d="M369.8,272.7c1.7,0,3,1.4,3,3c0,1.7-1.4,3-3,3c-1.7,0-3-1.4-3-3C366.8,274.1,368.1,272.7,369.8,272.7z
	 M367.7,282.2c1.7,0,3,1.4,3,3c0,1.7-1.4,3-3,3c-1.7,0-3-1.4-3-3C364.7,283.5,366,282.2,367.7,282.2z M358.9,277.3
	c1.9,0,3.5,1.6,3.5,3.5c0,1.9-1.6,3.5-3.5,3.5c-1.9,0-3.5-1.6-3.5-3.5C355.4,278.9,357,277.3,358.9,277.3z"/>
<circle class="st8" cx="397.5" cy="219.6" r="4.3"/>
<circle class="st7" cx="400.5" cy="222.4" r="2"/>
<ellipse class="st8" cx="414.4" cy="228.9" rx="4.9" ry="4.9"/>
<circle class="st7" cx="417.4" cy="232.7" r="2.4"/>
<path class="st9" d="M345.2,301.4c17.7-5.8,2.9-28.7-10.9-15.7C325.4,293.5,331,305.4,345.2,301.4z"/>
<path class="st10" d="M345.2,301.4c17.7-5.8,2.9-28.7-10.9-15.7C325.4,293.5,331,305.4,345.2,301.4z"/>
<path class="st6" d="M362.9,343.9c3.7-1.1,10.2-4,10.9-6.4"/>
<path class="st6" d="M364.9,352.8c3.7-0.7,8.4-2.2,11.8-5.1"/>
<path class="st11" d="M321.4,321.1c16-1.8,29.7,1.5,30.6,7.4c0.9,5.9-11.4,12.1-27.5,13.9c-16,1.8-29.7-1.5-30.6-7.4
	C293,329.1,305.3,322.9,321.4,321.1z"/>
<path class="st11" d="M318.4,330.9c1-4.6,7.2-5.5,9.7-1.2"/>
<path class="st11" d="M376.3,353.5c-0.1,8.1-10.4,14.9-19.9,14 M294.1,335.9c-7.1,15.8-5,35.3,9.9,42.5c9.3,8.8,42.6,4.9,46.9-5
	c10.1-7.1,13.3-26.1,0.7-42.9c8-4.2,14.1-3.2,18.2,0.7"/>
<path class="st11" d="M366.2,355.9c-1.5,1.6-3.8,2.8-6.8,3 M356.2,338c1.7-0.7,3.2-0.8,4.6-0.9"/>
<path class="st11" d="M292.3,340.7c-15.3-19.4-43.3-19.7-48.1-0.1c-0.8,3.9,5.1,8.5,9.9,7.5c-0.2-9.9,11-13.5,17.3-7.4
	c7.8,9.2,4.9,23,22.4,28"/>
<path class="st5" d="M434.4,392.3c4.6,6.1,6.6,13.2,6.9,21.8C443.9,405.5,441.7,397.6,434.4,392.3z"/>
<path class="st5" d="M397.7,370.2c-1.8-8-0.7-15.7,2.7-24.3C394.1,353.2,392.9,361.8,397.7,370.2z"/>
<path class="st12" d="M442.8,246.8c10.8,0.9,19.7,4.9,28.4,11.6C465.6,249,455.8,244.6,442.8,246.8z"/>
<path class="st12" d="M410.4,329.1c-4.7-7.6-6.1-14.9-5.2-23.1C400.8,313.1,402.4,321.2,410.4,329.1z"/>
<path class="st3" d="M419,151.1c6.9-9,16.1-14.5,28.3-18.3C433.9,132.4,423.7,138.6,419,151.1z"/>
<path class="st5" d="M485.6,168.2c12.4,0,23.5,3.8,35,11.1C511.8,168.5,499.5,164.3,485.6,168.2z"/>
<path class="st13" d="M520.6,221.6c-7.7,10-18,16.2-31.6,20.5C504,242.5,515.4,235.6,520.6,221.6z"/>
<path class="st5" d="M371.1,242c-5,1.2-26.5,27.9-27.5,35.8C352.8,268.2,362.4,256.3,371.1,242z"/>
<path class="st5" d="M435.7,353.1c3.5-2.4,10.8-27.6,9.3-33.9C440.7,330.4,439.2,342.7,435.7,353.1z"/>
<path class="st6" d="M417.4,253.2c6.6-6,13.9-9.3,21.9-9.9"/>
<path class="st6" d="M408.2,325c3.1,7,3.7,12.5,2,16.5c9.4,0.4,21.5-4.8,30.6-15.4"/>
<path class="st6" d="M362.9,343.9c-2.4,2.6-0.8,7.9,2,8.9c2.2,9.1,15.2,2.6,11.8-5.1c2.2-3.7,2.2-8.8-2.9-10.2
	c2.4-4.9-1.7-8.3-9.3-4.8C359.1,335.5,360.2,340.9,362.9,343.9z"/>
</svg>
