<?xml version="1.0" encoding="utf-8"?>
<!-- Generator: Adobe Illustrator 21.1.0, SVG Export Plug-In . SVG Version: 6.00 Build 0)  -->
<svg version="1.1" id="Layer_1" xmlns="http://www.w3.org/2000/svg" xmlns:xlink="http://www.w3.org/1999/xlink" x="0px" y="0px"
	 viewBox="0 0 536 442" style="enable-background:new 0 0 536 442;" xml:space="preserve">
<style type="text/css">
	.st0{fill-rule:evenodd;clip-rule:evenodd;fill:#FFE494;}
</style>
<path class="st0" d="M78.9,394.2c-5.5-5.3-11-17-11-27.6c0-17,7.7-29.8,19.8-41.5c6.6-6.4,2.2-39.3,2.2-47.8
	c6.6-40.4-0.8-90.8,18.7-129.8c19.7-39.6,52.1-80.1,123.6-73.8c24.3,2.1,38.6,10.8,48.6,21.5c1.4,1.5,2.8,3.1,4,4.7
	c11.8,12.1,30.7,20.3,46.2,20.4c22.2,0.1,33.7,5.9,33.7,28.5c0,7.7,1.2,18.6,10.3,22.6c15.1,6.5,34.7-9.7,42.4,0.7
	c5.2,7.1,0,26.1,14.3,16.2l-23.6,18.6c33.7,11.8,78.4,28.7,93.2,102c12.7,63-17,113.9-67.2,125.5c-81.4,18.8-95.6-27.2-171.6-17.7
	C177.8,427.3,118.5,432.5,78.9,394.2z"/>
</svg>
