<?xml version="1.0" encoding="utf-8"?>
<!-- Generator: Adobe Illustrator 21.1.0, SVG Export Plug-In . SVG Version: 6.00 Build 0)  -->
<svg version="1.1" id="Layer_1" xmlns="http://www.w3.org/2000/svg" xmlns:xlink="http://www.w3.org/1999/xlink" x="0px" y="0px"
	 viewBox="0 0 536 442" style="enable-background:new 0 0 536 442;" xml:space="preserve">
<style type="text/css">
	.st0{fill-rule:evenodd;clip-rule:evenodd;fill:#FFE494;}
	.st1{fill-rule:evenodd;clip-rule:evenodd;fill:#F5AE93;}
	.st2{fill-rule:evenodd;clip-rule:evenodd;fill:#EF8062;}
	.st3{fill-rule:evenodd;clip-rule:evenodd;fill:#A35939;}
	.st4{fill-rule:evenodd;clip-rule:evenodd;fill:#D88F55;}
	.st5{fill-rule:evenodd;clip-rule:evenodd;fill:#EDB581;}
	.st6{fill-rule:evenodd;clip-rule:evenodd;fill:#BD6E39;}
	.st7{fill-rule:evenodd;clip-rule:evenodd;fill:#FFFFFF;}
	.st8{fill-rule:evenodd;clip-rule:evenodd;fill:#B9C071;}
	.st9{fill-rule:evenodd;clip-rule:evenodd;fill:#F7C6C7;}
	.st10{fill-rule:evenodd;clip-rule:evenodd;fill:#E9A0A2;}
	.st11{fill-rule:evenodd;clip-rule:evenodd;fill:#D8736F;}
	.st12{fill:none;stroke:#822E2D;stroke-width:1.7018;stroke-linecap:round;stroke-linejoin:round;stroke-miterlimit:22.9256;}
	.st13{fill-rule:evenodd;clip-rule:evenodd;fill:#1A1A18;}
	.st14{fill-rule:evenodd;clip-rule:evenodd;fill:#E56E4C;}
	.st15{fill:none;stroke:#CA3D26;stroke-width:1.7018;stroke-linecap:round;stroke-linejoin:round;stroke-miterlimit:22.9256;}
	.st16{fill-rule:evenodd;clip-rule:evenodd;fill:#3B3A39;}
	.st17{fill:none;stroke:#1A1A18;stroke-width:1.7018;stroke-linecap:round;stroke-linejoin:round;stroke-miterlimit:22.9256;}
	.st18{fill-rule:evenodd;clip-rule:evenodd;fill:#F7CC9D;}
	.st19{fill-rule:evenodd;clip-rule:evenodd;fill:#F3A5A6;}
	.st20{fill-rule:evenodd;clip-rule:evenodd;fill:#F7D2AE;}
	.st21{fill:none;stroke:#C14B6B;stroke-width:1.7018;stroke-linecap:round;stroke-linejoin:round;stroke-miterlimit:22.9256;}
	.st22{fill:none;stroke:#E30045;stroke-width:8.5087;stroke-linecap:round;stroke-linejoin:round;stroke-miterlimit:22.9256;}
</style>
<path class="st0" d="M78.9,394.2c-5.5-5.3-11-17-11-27.6c0-17,7.7-29.8,19.8-41.5c6.6-6.4,2.2-39.3,2.2-47.8
	c6.6-40.4-0.8-90.8,18.7-129.8c19.7-39.6,52.1-80.1,123.6-73.8c24.3,2.1,38.6,10.8,48.6,21.5c1.4,1.5,2.8,3.1,4,4.7
	c11.8,12.1,30.7,20.3,46.2,20.4c22.2,0.1,33.7,5.9,33.7,28.5c0,7.7,1.2,18.6,10.3,22.6c15.1,6.5,34.7-9.7,42.4,0.7
	c5.2,7.1,0,26.1,14.3,16.2l-23.6,18.6c33.7,11.8,78.4,28.7,93.2,102c12.7,63-17,113.9-67.2,125.5c-81.4,18.8-95.6-27.2-171.6-17.7
	C177.8,427.3,118.5,432.5,78.9,394.2z"/>
<path class="st1" d="M293.8,368.7c2.5,4.1,6,7.4,10.3,9.7c8.8,10.8,42.8,3.2,46.9-5l5.4-6c12-0.8,18.6-5.5,19.9-14l-10,2.5l-3.1,2.1
	l-3.7,0.8c1-7.4-0.1-14.3-3.2-20.9l4.5-0.9l9.2-5.9c-3.1-3.7-8.3-4.9-18.2-0.7c0.3-7.2-9.9-10.4-30.4-9.5
	c-18.5,2.8-27.6,7.7-27.2,14.8l-1.8,4.8c-15.3-19.4-43.3-19.7-48.1-0.1c-0.8,3.9,5.1,8.5,9.9,7.5c-0.2-9.9,11-13.5,17.3-7.4
	C279.2,349.8,276.3,363.6,293.8,368.7z"/>
<path class="st2" d="M293.8,368.7c2.5,4.1,6,7.4,10.3,9.7c8.8,10.8,42.8,3.2,46.9-5l5.4-6c12-0.8,18.6-5.5,19.9-14l-10,2.5l-3.1,2.1
	l-3.7,0.8c1-7.4-0.1-14.3-3.2-20.9l4.5-0.9l9.2-5.9c-3.1-3.7-8.3-4.9-18.2-0.7c0.3-7.2-14-14.3-45.1-6.3
	c30.3-5.9,39.6,6.9,29.8,15.8c17.8,30.2-32,42.4-45.7,19.4c-15.3-29.3-36.5-31.6-41.4-12l4.8,0.6c-0.2-9.9,11-13.5,17.3-7.4
	C279.2,349.8,276.3,363.6,293.8,368.7z"/>
<path class="st2" d="M227.3,309.1l8.6-4.4c3.7,0.7,6.5-0.8,8.3-4.5l-2.1-10.9l-2.7-2.1l-3.1-0.2l-10.5-5.3
	c5.3-2.9,10.8-2.9,16.3,1.1l2.5,3.2l2.4,20.3C243.3,312.4,232.5,312.4,227.3,309.1z"/>
<path class="st2" d="M288.2,282.9h-46c-0.1,25.5,10.1,32.8,23.8,32.1C279.3,314.7,287.4,305.7,288.2,282.9z"/>
<path class="st3" d="M237.1,279.7c-4.3-0.1-8.1,0.6-11.4,2l-28.4,11l1.4-32.6l46.5-18.3C246.7,260.9,243.7,273.4,237.1,279.7z"/>
<path class="st4" d="M137.3,341.2l25.9-67.6l34.1,19.1l-6.8,13C184.2,323.6,161.7,339.3,137.3,341.2z"/>
<path class="st5" d="M189.5,233.2l54.7-16.4c5,15,3.5,25.4-4.5,31.1l-3.1,12.2l-2.7-2.5l-1.4-3.5c-4.5,11.7-13.6,17.7-25.2,19.6
	l-23.9-6.6L189.5,233.2z"/>
<path class="st4" d="M189.5,233.2l49.4-11.6c-7.1,24.3-27.8,26-41.5,20.7L189.5,233.2z"/>
<path class="st5" d="M81.7,344.2l-45.8-59.9L13.3,287l-12.5,2.8l5.2,3.9C18.2,322.9,41.2,361.5,81.7,344.2z"/>
<path class="st4" d="M35.9,284.3c-11.8-0.5-20.5,1.9-29.4,5c7.2,5,18.1,6.4,24.3,7.8c-6.8,0.8-13.2,1.2-18.1-0.2
	c8.6,22.4,28,33.9,47.2,31C47.2,315,41.6,306.9,35.9,284.3z"/>
<path class="st6" d="M221.6,111.1c18.2,3.8,27.2,22.6,32,48.1l-50.1,75.4c-6,4.1-7.5,9.9-7.1,16.6c3.1,21.2,15.5,28.4,30.7,30.7
	c8,0.5,10.8,4,8.3,10.6c4.2,3.7,3.7,6.9,1.2,9.9c-0.2,3.2-3.3,5.4-9.4,6.6c-23.5,6.5-43.4-0.8-58.9-24.6
	c1.1,41.6-22.5,44.1-31.1,56.7c11.2-1,22.1-4.3,32.4-10.8c19.1,21.3,47.8,6,64.2,27.4c0,2.9-1.5,5.1-4.7,6.6
	c-3.7,3.7-7.1,4.7-10.5,4.6c-4.4,4-15.6,5-31.4,3.9c9.5,3.4,15,7.8,16.7,13.2c-0.5,5.2-3.1,6.7-6.7,6.7c-4.3,5-10,5.9-16.2,5.9
	c-29.4,6.2-69-4.7-88.3-18.5c-4.7-3.1-6.2-8.5-0.8-18.9c1.5-5.3-1.9-10.9-10.2-17c-23.5-14.3-41.1-32.7-45.7-59.9
	c-9.3-69.7,59.6-109.8,109-92.7l5.9-5.2c-5.3-11.5-6.8-24.8-2.7-40.6c-37.7-7.7-51.3-90.1-41.1-123.1c14.6-2.5,38.1,44.4,56.7,96.9
	l8.6-5.8c3-7.8,6.9-15,12.5-20.8c-19-27.4-3-92.8,3.9-92.1C200.2,1.8,225.4,75.9,221.6,111.1z"/>
<path class="st3" d="M137.3,341.2l-2.8,4.2l-1.5,6.2c22.2,26.7,81.3,23.5,85.8,17.3c3.3,0.1,6.8-0.9,10.5-4.6
	c3.2-1.5,4.7-3.7,4.7-6.6c-30.5,15.3-96.6-1.5-72.4-23.1C154.2,337.8,148.5,340.2,137.3,341.2z M165.7,279.9l2.7,7.4
	c0-0.9,0-1.9,0-2.8c15.5,23.8,35.4,31.1,58.9,24.6c6.1-1.2,9.2-3.4,9.4-6.6c4-5-0.3-10.4-1.2-9.9c0,0,4.2-8.8-8.3-10.6
	C232.1,317.1,179,301.4,165.7,279.9z M52.2,319.3c-27.5-33.6-10.7-79.2,16.2-90.1c1.9-0.8-19,71.5,28.9,102
	c21.1,13.4-1.2,38.6,35.4,52.5c5.5,2.1,38.4,16.7,71.1,2.3c-0.5,5.2-3.1,6.7-6.7,6.7c-4.3,5-10,5.9-16.2,5.9
	c-29.4,6.2-69-4.7-88.3-18.5c-4.7-3.1-6.2-8.5-0.8-18.9c1.5-5.3-1.9-10.9-10.2-17l-13.3-9.1l-8.5-7.2L52.2,319.3z M201.7,100.2
	c10.4-1.9-2.9,9.4-10.2,14.6c-21.8,11.1-37.4,36.1-32.1,68l47.8,17.8l7.4-20.4c-6.4-15.4-7.3-32.7-1.4-39c8.3-6.8,14.7-1.1,19.2,7.2
	l-8.9,32.8l11.4,29.6l-90.1-19.3l5.9-5.2c-5.3-11.5-6.8-24.8-2.7-40.6c-34.1-8.4-48.5-73.8-38.3-106.7c14.6-2.5,26.1,38.7,44.7,91.3
	l9.1-10.7l8.6-5.8c3-7.8,6.9-15,12.5-20.8c-19-27.4-4.4-79.9,2.5-79.2C179.5,25.3,197.7,105.3,201.7,100.2z"/>
<path class="st3" d="M143.5,211.2l60.1,23.4c-2.1,1.6-4.1,4.1-6.1,7.7c-12-5.3-19.4-0.9-28.8-3.7C154.6,234,147.1,227.9,143.5,211.2
	z"/>
<path class="st5" d="M198.4,189.3c-1.6-5,17.5-11.8,24.8-8.5c14.7-7.9,7.4-21.2,44-23.6l-5.7,6.3l5.6-1.1l5.6,0.9l-1.9,1.4
	c5.1,33.7-9,47.6-29.9,53.1c-6.2,14-14.5,21.9-30.4,18.6c-7-0.5-10.3-5.2-20.9-3.2c-19.4,4.8-35.9-2.1-48.4-26.4
	c0.4-2.2,2.6-4.2,6.9-6.6c-3.2,0.1-6.6-0.3-10.3-1.1C153,181.2,171.6,173.6,198.4,189.3z"/>
<path class="st7" d="M190.5,185.2c-7.7-3.5-15.7-5.5-24.6-4c0.5-21,8.7-30.3,13.4-30.1C187.7,151.6,191.6,165.2,190.5,185.2z"/>
<path class="st4" d="M143.6,192.8l-6,6.2l10.3,1.1l-4.1,2.7l-2.8,3.9c17.2,32.6,36.7,28.9,54,25.9l8.5,1.9c7.7,3,20.6,3.9,25.8-1.2
	l6.8-7l4.7-8.7c9.4-3.3,21.7-5.8,25.3-24.9c-7.4,16.5-23.2,21.4-33.5,23.3c-5.7,12.7-16.1,15.1-21.9,7.7
	c-20.4,6.8-66.6,2.4-51.3-40.9C153.6,185.4,150.6,186.6,143.6,192.8z"/>
<path class="st8" d="M173.3,180.8l7.7,1.1l9.4,3.2l-0.3-15.5l-0.8-5.4C184.3,157.5,173.5,159.4,173.3,180.8z"/>
<path class="st9" d="M150.2,139.2l4.4-8.8l1.7-2.3C129.5,90.9,135.5,72,119,55.5C103.7,40.1,109.1,132.3,150.2,139.2z"/>
<path class="st3" d="M472.4,378.5l1.1-12.3c32.2,10.2,24.6,49.3,50.9,55.9C496.8,422.6,495.3,380.2,472.4,378.5z"/>
<path class="st6" d="M362.9,343.9c-2.4,2.6-0.8,7.9,2,8.9c2.2,9.1,15.2,2.6,11.8-5.1c2.2-3.7,2.2-8.8-2.9-10.2
	c2.4-4.9-1.7-8.3-9.3-4.8C359.1,335.5,360.2,340.9,362.9,343.9z"/>
<path class="st3" d="M372.8,331.5c1.6,1.2,1.9,3.2,0.9,6c4.6,1.7,5.6,5.1,2.9,10.2c6.8,0.1,13.3-2.1,19.4-6.7l4.4-11.5l1.7-8
	l-1.6-5.6l0.4-6.3C392.5,320.3,383.4,328.5,372.8,331.5z"/>
<path class="st6" d="M430.6,389.6l-7.4,0.1c1.8,29.4-5.6,41.7-19.2,42.2c-2.5,0.6-4.7-0.3-6.8-2.7c-3.6-3.7-3.6-8,0-12.9
	c6.2-12.6-0.7-27.9-1.1-41.8c-11-20.7,4.1-35.3,6.1-52.9l9,14.5l-0.9,5.4c10.1,0.2,19.8-5.4,29.4-14.9c-0.9-12.3,10.8-28.2,12-31.3
	l16.3-3.5l-2.1,2.8c13.8,8.7,11.1,124-12,142c-1.4,2.7-4.8,4.6-7.4,3.9c-2.5,1.3-7.3,0.4-8.7-2.3c-3.4-0.3-5.3-6.2-2.3-9.4
	C441.1,420.4,439.4,403.9,430.6,389.6z"/>
<path class="st3" d="M443,385.4c-3.7,1.6-6.2,4.6-19.8,4.2c1.8,29.4-5.6,41.7-19.2,42.2c-2.5,0.6-4.7-0.3-6.8-2.7
	c-3.6-3.7-2.8-6.4-1.8-9.8c15.6,16.9,23.6-11,16.3-32l8.4,2c-11.7-3.8-18.9-12-21.7-24.6c11.5,17.8,37.7,14,43.4,1.1
	c12.3-9.2,21.4-44.2,19.7-58.8c21.1,15.1,11.8,114.3-7.6,129.4c-1.4,2.7-4.8,4.6-7.4,3.9c-2.5,1.3-7.3,0.4-8.7-2.3
	c-3.4-0.3-5.3-6.2-2.3-9.4C453.7,447.5,458.3,383.5,443,385.4z"/>
<path class="st3" d="M480.9,165.9l-29.2,22.9l-38.6-1.5c-13.5-30.4,9.9-56.5,32.5-58C469.7,127.1,484.7,143.5,480.9,165.9z"/>
<path class="st10" d="M198.4,189.3c-3.2-6.3,22.5-12,25.2-8c2.6,7.1-4.9,14.2-9.8,15.4C210.3,197.4,201,195.6,198.4,189.3z"/>
<path class="st6" d="M473.6,254.5l-97.4,45.4l-26.5-0.2l-13.9-15.5c14.5-25.8,42.7-58.5,63-76.9c12.6-12.2,19.2-27.3,19.7-47.2
	c6.1,5.2,6.7,11.5,9,17.5c-0.3-9.6-2-18.1-6.8-23.9c12.4,4.8,22.8,16.1,30.7,35.2c17.6-32.7,60.9-29.3,75-8.1
	C546.8,207.8,532,256.6,473.6,254.5z"/>
<path class="st3" d="M473.6,254.5l-0.9-9.5l9.2-23l-16.4-7.6c16.7-35.5,50.9-41.9,65-20.6C543,206.4,532,256.6,473.6,254.5z"/>
<path class="st9" d="M472.7,245c-2.3-13.8-5.2-26.6-9.7-37c19.2-22.6,48.3-21.9,55.5-10.4C535.5,220.2,517.5,253.3,472.7,245z"/>
<path class="st11" d="M198.4,189.3c8.2,6.4,24.1,0.6,25.7-6.1C220.7,199.8,208.3,200.7,198.4,189.3z"/>
<path class="st12" d="M253.7,159.2c-4.3-26.5-14-43.7-32-48.1"/>
<path class="st7" d="M242.3,163.5c-5.8,1.4-12.4,11.8-18.7,17.8c-10.2-13.1-11.4-30.8-7.3-36.1C220.7,140,235.6,145.1,242.3,163.5z"
	/>
<path class="st8" d="M228.8,176.2c4.3-5,8.7-9.6,13.5-12.7l-4.1-8.3l-3.4-4.4C224.1,147,218.7,155.8,228.8,176.2z"/>
<path class="st12" d="M223.6,181.3c11-9,11.8-21.8,43.6-24.1c-1.7,1.6-3.6,3.7-5.7,6.3c4.4-1.4,8-1.6,11.2-0.3
	c-2.9,1.9-5.1,4.4-6.6,7.7"/>
<path class="st12" d="M270.9,164.6c5.1,33.7-9,47.6-29.9,53.1c-6.2,14-14.5,21.9-30.4,18.6c-7-0.5-10.3-5.2-20.9-3.2
	c-19.4,4.8-35.9-2.1-48.4-26.4c0.4-2.2,2.6-4.2,6.9-6.6c-3.2,0.1-6.6-0.3-10.3-1.1c15.4-17.9,33.9-25.4,60.8-9.7"/>
<path class="st12" d="M163.7,119.7c2.1-1.6,6.2-4.5,8.6-5.8c8.5-25.4,30.5-35.1,16.6-9.8 M150.8,186.4c-4.8-13.7-5.8-27.9-2.7-40.6
	c1.8-7.6,5.2-14.5,10-20.4"/>
<path class="st12" d="M180.8,108.5c26.1-15.1,32.6-7.5,10.7,6.3"/>
<path class="st12" d="M185.7,198.2c7.1,19.3,24.4,15.9,29.4,5.2c9.8,7.4,25.8,0.8,21.3-15"/>
<path class="st12" d="M209.7,215.2c4.1,6.4,13.1,5.9,14.5-2.5"/>
<path class="st12" d="M213.5,226.1c2.3,3.3,7.2,2.9,9.8,0"/>
<path class="st12" d="M223.6,181.3c-10.2-13.1-11.4-30.8-7.3-36.1c4.3-5.2,19.2-0.1,25.9,18.4"/>
<path class="st12" d="M183.2,200.9c1.1-2.1,3.1-3.5,6.1-4.1"/>
<path class="st12" d="M238.6,188.6c-1.8-1.8-3.5-0.8-4.4,0.2"/>
<path class="st12" d="M166.2,130.8c-0.5-15.4-42.1-114-59.2-108c-5.9,1.3-9.2,109.6,41.1,123"/>
<path class="st12" d="M184.9,93.1c-19-27.4-3-92.8,3.9-92.1c11.4,0.9,40.9,80.3,31,118.5"/>
<path class="st13" d="M184.1,179.9c3.2,0,5.9-2.6,5.9-5.9c0-3.2-2.6-5.9-5.9-5.9c-3.2,0-5.9,2.6-5.9,5.9
	C178.3,177.2,180.9,179.9,184.1,179.9z"/>
<path class="st13" d="M233.6,165.7c3.2,0,5.9-2.6,5.9-5.9c0-3.2-2.6-5.9-5.9-5.9c-3.2,0-5.9,2.6-5.9,5.9
	C227.7,163.1,230.4,165.7,233.6,165.7z"/>
<ellipse class="st7" cx="181.1" cy="171" rx="2.8" ry="2.8"/>
<circle class="st7" cx="178.3" cy="164.2" r="3.4"/>
<circle class="st7" cx="223.6" cy="156.2" r="3.4"/>
<circle class="st7" cx="230.6" cy="156.8" r="2.8"/>
<path class="st12" d="M165.9,181.2c0.5-21,8.7-30.3,13.4-30.1c8.3,0.5,12.3,14.1,11.1,34.1"/>
<path class="st12" d="M144.9,191.6c-62.7-20.7-119.4,38.9-109,92.7c7.2,31.5,25.7,47.5,45.7,59.9c24.2,18.2-3.2,23.9,11,35.9
	c17.3,14.6,72.4,25,88.3,18.5c7.3,0.2,12.7-1.7,16.2-5.9c4.4-0.8,6.7-3,6.7-6.7c-11-24.6-47.3-5.9-71-34.4"/>
<path class="st12" d="M133.8,357.3c-7.4-26.2,39.2-22.5,34.6-72.8"/>
<path class="st12" d="M244.2,216.7c5.7,16,3.5,25.6-4.5,31.1"/>
<path class="st12" d="M35.9,284.3c-12.3-1.3-23.4,3.7-35.1,5.5c5.7,5,11.8,8,18.5,8.3"/>
<path class="st12" d="M6,293.7c12.2,29.1,35.2,67.8,75.6,50.5"/>
<path class="st12" d="M197.3,392.7c0-4.6-1.5-8.7-6.4-11.9"/>
<path class="st12" d="M181.1,398.6c0.1-4.4-1.2-8.9-5.1-12.4"/>
<path class="st12" d="M218.7,368.9c-0.8-3.4-3-7-7-9.9"/>
<path class="st12" d="M229.2,364.3c-0.7-3-2.6-5.9-6.6-8.8"/>
<path class="st4" d="M352.2,298.9c27.6-2.8,44.6-29.7,65.3-45.7c17.1-14.5,37.7-13,56.1,1.3c3.6,27.8-3.6,47.1-21.9,40.7
	c1.5,11.4-9.6,18.8-10.8,30.8c-8.9,10.5-20.4,15.6-30.6,15.4l0.9-5.4c-2.9-10.4-14.9-14.1-8.7-31.1c-4.7,0.1-24.4,0.9-59.5-2.9
	L352.2,298.9z"/>
<path class="st12" d="M190.5,305.7c-6.2,17.8-28.8,33.6-53.2,35.5"/>
<path class="st12" d="M169.7,330.4c19.7,22.1,49.7,6.7,64.2,27.4c-0.2,2.6-2.2,5.6-4.7,6.6c-1.7,2.8-7,4.7-10.5,4.6
	c-5.2,4.1-16.9,4.8-31.4,3.9"/>
<path class="st12" d="M238.8,238.6c3.2,10-1.4,14.3-2.2,21.4c-1.9-0.9-3.3-2.9-4.1-6.1c-5.3,12-14.1,17.9-25.2,19.6"/>
<path class="st12" d="M245.2,241.8c1.5,19-1.5,31.5-8.1,37.9"/>
<path class="st14" d="M265.1,287.1c12.7,0,23-1.9,23-4.2c0-2.3-10.3-4.2-23-4.2c-12.7,0-23,1.9-23,4.2
	C242.1,285.2,252.4,287.1,265.1,287.1z"/>
<path class="st15" d="M265.1,287.1c12.7,0,23-1.9,23-4.2c0-2.3-10.3-4.2-23-4.2c-12.7,0-23,1.9-23,4.2
	C242.1,285.2,252.4,287.1,265.1,287.1z"/>
<path class="st15" d="M242.1,282.9c-3.1-3.8-11.7-4-16.3-1.1"/>
<path class="st15" d="M242.1,282.9c-0.1,25.5,10.1,32.8,23.8,32.1c13.3-0.3,21.4-9.2,22.2-32.1"/>
<path class="st15" d="M247,306.3c-3.7,6.1-14.5,6.1-19.7,2.7"/>
<path class="st15" d="M244.2,300.2c-0.6,2.5-4.9,5.4-8.3,4.5"/>
<path class="st15" d="M242.4,290.4c-0.2-2.4-3.6-4-6.2-3.4"/>
<path class="st12" d="M335.9,284.2c14.5-25.8,42.7-58.5,63-76.9c12.6-12.2,19.2-27.3,19.7-47.2c6.1,5.2,6.7,11.5,9,17.5
	c-0.3-9.6-2-18.1-6.8-23.9c12.4,4.8,22.8,16.1,30.7,35.2c17.6-32.7,60.9-29.3,75-8.1c20.1,27.1,5.3,75.8-53.1,73.7"/>
<path class="st12" d="M463,207.9c13.5,31.1,14.4,77.6,2.9,86.6c13.8,8.7,11.1,124-12,142c-1.4,2.7-4.8,4.6-7.4,3.9
	c-2.5,1.3-7.3,0.4-8.7-2.3c-3.4-0.3-5.3-6.2-2.3-9.4c5.6-8.4,3.9-24.9-4.8-39.1"/>
<path class="st12" d="M451.7,295.2c-35.9,12.1-74.1,11.9-108.7,6.8"/>
<path class="st12" d="M402.5,304.9c-6.9,17.4,5.9,21.3,8.7,31.1"/>
<path class="st12" d="M433.8,360.3c-2.2,2.9-4,6-5.6,9.4c-2.1-4-0.6-8.2,2.7-11.8c5.6-8.9,8-26.7,12.3-40.9"/>
<path class="st12" d="M473.5,366.3c32.2,10.2,24.6,49.3,50.9,55.9c-27.7,0.3-29.2-42.1-52-43.7"/>
<path class="st12" d="M428.2,369.7c0.7,5,7.5,5.7,13.6-3.8"/>
<path class="st12" d="M433.1,373.2c13.5-0.5,23.6-13.9,29.6-43.1c1.8-15.2,1.3-25.5-6.7-26.5"/>
<path class="st12" d="M402.2,321.5c-1,15.4-18.6,32.4-5.4,54.1c11.3,18.7,45.7,20.7,63.3-5.1"/>
<path class="st12" d="M401,309.7c-8.5,10.6-17.7,18.8-28.2,21.8"/>
<path class="st12" d="M396,341c-7.3,5.3-13.7,6.4-19.4,6.7"/>
<path class="st12" d="M396.1,374.4c1.3,13.3,6.8,30.6,1.1,41.8c-3.1,4-4.3,9.3,0,12.9c0.3-3.3,1.4-6.1,3.2-8.4"/>
<path class="st12" d="M397.1,429.3c1,1.8,2.9,2.6,6.8,2.7c15-0.3,20.4-16,19.2-42.2"/>
<path class="st12" d="M404,432c-0.4-2.9,0.5-5.8,2.7-8.7"/>
<path class="st12" d="M446.6,440.4c-0.4-2.7,0.5-5.4,2.5-8.1"/>
<path class="st12" d="M437.7,438.2c-0.4-2.7,0.5-5.4,2.5-8.1"/>
<path class="st12" d="M438.1,276.2c-3.6,13.7-10.7,22.3-20.4,27"/>
<path class="st12" d="M413,187.3c-13.5-30.4,9.9-56.5,32.5-58c24.1-2.2,39.2,14.2,35.4,36.6"/>
<path class="st12" d="M463,207.9c19.2-22.6,48.3-21.9,55.5-10.4c17,22.7-1,55.8-45.8,47.4"/>
<path class="st7" d="M432.8,244.5l-11.5,5.6c-9.6,0.3-18.4-5.1-16.5-16.3c-11.3,5.9-20-2.1-16.1-10.1c6.6-15.5,21.6-17.2,23.2-4.5
	C425,211.8,438.8,222.2,432.8,244.5z"/>
<path class="st12" d="M434.4,273.8c1.9-2.2,6.3-2.6,7.3,1.1"/>
<path class="st12" d="M406.6,205.2c3.8-1.4,5.9-0.1,7.3,2.6"/>
<path class="st12" d="M435,214.3c2.9,1.9,4.5,5.1,4.8,9.7"/>
<path class="st12" d="M421.3,250.1c-9.6,0.3-18.4-5.1-16.5-16.3c-11.3,5.9-20-2.1-16.1-10.1c6.6-15.5,21.6-17.2,23.2-4.5
	c13.1-7.3,26.9,3.1,20.8,25.3"/>
<path class="st3" d="M369.8,272.7c1.7,0,3,1.4,3,3c0,1.7-1.4,3-3,3c-1.7,0-3-1.4-3-3C366.8,274.1,368.1,272.7,369.8,272.7z
	 M367.7,282.2c1.7,0,3,1.4,3,3c0,1.7-1.4,3-3,3c-1.7,0-3-1.4-3-3C364.7,283.5,366,282.2,367.7,282.2z M358.9,277.3
	c1.9,0,3.5,1.6,3.5,3.5c0,1.9-1.6,3.5-3.5,3.5c-1.9,0-3.5-1.6-3.5-3.5C355.4,278.9,357,277.3,358.9,277.3z"/>
<circle class="st13" cx="397.5" cy="219.6" r="4.3"/>
<circle class="st7" cx="400.5" cy="222.4" r="2"/>
<ellipse class="st13" cx="414.4" cy="228.9" rx="4.9" ry="4.9"/>
<circle class="st7" cx="417.4" cy="232.7" r="2.4"/>
<path class="st16" d="M345.2,301.4c17.7-5.8,2.9-28.7-10.9-15.7C325.4,293.5,331,305.4,345.2,301.4z"/>
<path class="st17" d="M345.2,301.4c17.7-5.8,2.9-28.7-10.9-15.7C325.4,293.5,331,305.4,345.2,301.4z"/>
<path class="st12" d="M362.9,343.9c3.7-1.1,10.2-4,10.9-6.4"/>
<path class="st12" d="M364.9,352.8c3.7-0.7,8.4-2.2,11.8-5.1"/>
<path class="st15" d="M321.4,321.1c16-1.8,29.7,1.5,30.6,7.4c0.9,5.9-11.4,12.1-27.5,13.9c-16,1.8-29.7-1.5-30.6-7.4
	C293,329.1,305.3,322.9,321.4,321.1z"/>
<path class="st15" d="M318.4,330.9c1-4.6,7.2-5.5,9.7-1.2"/>
<path class="st15" d="M376.3,353.5c-0.1,8.1-10.4,14.9-19.9,14 M294.1,335.9c-7.1,15.8-5,35.3,9.9,42.5c9.3,8.8,42.6,4.9,46.9-5
	c10.1-7.1,13.3-26.1,0.7-42.9c8-4.2,14.1-3.2,18.2,0.7"/>
<path class="st15" d="M366.2,355.9c-1.5,1.6-3.8,2.8-6.8,3 M356.2,338c1.7-0.7,3.2-0.8,4.6-0.9"/>
<path class="st15" d="M292.3,340.7c-15.3-19.4-43.3-19.7-48.1-0.1c-0.8,3.9,5.1,8.5,9.9,7.5c-0.2-9.9,11-13.5,17.3-7.4
	c7.8,9.2,4.9,23,22.4,28"/>
<path class="st4" d="M434.4,392.3c4.6,6.1,6.6,13.2,6.9,21.8C443.9,405.5,441.7,397.6,434.4,392.3z"/>
<path class="st4" d="M397.7,370.2c-1.8-8-0.7-15.7,2.7-24.3C394.1,353.2,392.9,361.8,397.7,370.2z"/>
<path class="st5" d="M442.8,246.8c10.8,0.9,19.7,4.9,28.4,11.6C465.6,249,455.8,244.6,442.8,246.8z"/>
<path class="st5" d="M410.4,329.1c-4.7-7.6-6.1-14.9-5.2-23.1C400.8,313.1,402.4,321.2,410.4,329.1z"/>
<path class="st18" d="M159.7,186.1c7.9-2,20.6-1.4,28.3,1.7C182.4,181.6,169.5,180.5,159.7,186.1z"/>
<path class="st18" d="M251.6,164.1c-8.4,3-15.6,8.3-20,15.3C232.6,171,240.4,165.2,251.6,164.1z"/>
<path class="st6" d="M419,151.1c6.9-9,16.1-14.5,28.3-18.3C433.9,132.4,423.7,138.6,419,151.1z"/>
<path class="st4" d="M485.6,168.2c12.4,0,23.5,3.8,35,11.1C511.8,168.5,499.5,164.3,485.6,168.2z"/>
<path class="st19" d="M520.6,221.6c-7.7,10-18,16.2-31.6,20.5C504,242.5,515.4,235.6,520.6,221.6z"/>
<path class="st4" d="M371.1,242c-5,1.2-26.5,27.9-27.5,35.8C352.8,268.2,362.4,256.3,371.1,242z"/>
<path class="st4" d="M435.7,353.1c3.5-2.4,10.8-27.6,9.3-33.9C440.7,330.4,439.2,342.7,435.7,353.1z"/>
<path class="st12" d="M417.4,253.2c6.6-6,13.9-9.3,21.9-9.9"/>
<path class="st12" d="M408.2,325c3.1,7,3.7,12.5,2,16.5c9.4,0.4,21.5-4.8,30.6-15.4"/>
<path class="st19" d="M142.4,132c-10.1-10.3-17.4-22.3-23.1-37.6C120.6,111,128.7,123.3,142.4,132z"/>
<path class="st4" d="M102.1,193.8c-15.4,3.9-32.5,17.1-44.2,30.6C64.9,207,82,194,102.1,193.8z"/>
<path class="st4" d="M148.4,365.2c10.3,6.6,38.7,5.5,47.4,13.4C186.3,372.9,160.1,376.4,148.4,365.2z"/>
<path class="st5" d="M157.1,330.7c10.7-4.6,19-11.7,26.4-22.4C180,321.8,170.8,328.9,157.1,330.7z"/>
<path class="st20" d="M66.6,346.2c-13.2-1.7-24.3-7.8-35.3-17.8C38.9,342.1,51.2,348.8,66.6,346.2z"/>
<path class="st12" d="M168.9,152.2c3.2-6.4,8.7-8.8,14.5-5.2"/>
<path class="st12" d="M213.4,141.2c3.2-3.2,7.3-3.9,11.6-1.2"/>
<path class="st21" d="M198.4,189.3c-3.2-6.3,22.5-12,25.2-8c2.6,7.1-4.9,14.2-9.8,15.4C210.3,197.4,201,195.6,198.4,189.3"/>
<path class="st12" d="M161.4,268.2c10.8,36.2,41.3,49.5,69.4,39.8c3-0.8,5.1-2.4,5.9-5.5c2-3.1,3.2-6.2-1.2-9.9
	c2.7-5.9-0.7-10.1-8.3-10.6c-15.1-2.3-27.2-9.6-30.7-30.7"/>
<path class="st22" d="M321.8,321c14.6-1.4,27,2.3,27.6,8.2c0.6,5.9-10.7,11.8-25.3,13.2s-27-2.3-27.6-8.2
	C295.8,328.4,307.2,322.4,321.8,321z"/>
<path class="st22" d="M254,348.1c-0.2-9.9,11-13.5,17.3-7.4c7.8,9.2,4.9,23,22.4,28c-3.9-7.6-5.1-15.4-2.6-23.6"/>
<path class="st12" d="M362.9,343.9c-2.4,2.6-0.8,7.9,2,8.9c2.2,9.1,15.2,2.6,11.8-5.1c2.2-3.7,2.2-8.8-2.9-10.2
	c2.4-4.9-1.7-8.3-9.3-4.8C359.1,335.5,360.2,340.9,362.9,343.9z"/>
</svg>
