<?xml version="1.0" encoding="utf-8"?>
<!-- Generator: Adobe Illustrator 21.1.0, SVG Export Plug-In . SVG Version: 6.00 Build 0)  -->
<svg version="1.1" id="Layer_1" xmlns="http://www.w3.org/2000/svg" xmlns:xlink="http://www.w3.org/1999/xlink" x="0px" y="0px"
	 viewBox="0 0 517 460" style="enable-background:new 0 0 517 460;" xml:space="preserve">
<style type="text/css">
	.st0{fill-rule:evenodd;clip-rule:evenodd;fill:#F6A840;}
	.st1{fill-rule:evenodd;clip-rule:evenodd;fill:#AA7831;}
	.st2{fill-rule:evenodd;clip-rule:evenodd;fill:#9B9B9B;}
	.st3{fill-rule:evenodd;clip-rule:evenodd;fill:#D6B36A;}
	.st4{fill-rule:evenodd;clip-rule:evenodd;fill:#626261;}
	.st5{fill-rule:evenodd;clip-rule:evenodd;fill:#3B3A39;}
	.st6{fill-rule:evenodd;clip-rule:evenodd;fill:#F7C6C7;}
	.st7{fill-rule:evenodd;clip-rule:evenodd;fill:#FFFFFF;}
	.st8{fill-rule:evenodd;clip-rule:evenodd;fill:#D64528;}
	.st9{fill-rule:evenodd;clip-rule:evenodd;fill:#EF7E3B;}
	.st10{fill-rule:evenodd;clip-rule:evenodd;fill:#E1682C;}
	.st11{fill:none;stroke:#935428;stroke-width:1.6998;stroke-linecap:round;stroke-linejoin:round;stroke-miterlimit:22.9256;}
	.st12{fill:none;stroke:#822E2D;stroke-width:1.6998;stroke-linecap:round;stroke-linejoin:round;stroke-miterlimit:22.9256;}
	.st13{fill-rule:evenodd;clip-rule:evenodd;fill:#1A1A18;}
	.st14{fill:none;stroke:#1A1A18;stroke-width:1.6998;stroke-linecap:round;stroke-linejoin:round;stroke-miterlimit:22.9256;}
	.st15{fill-rule:evenodd;clip-rule:evenodd;fill:#F3A5A6;}
	.st16{fill-rule:evenodd;clip-rule:evenodd;fill:#C5C5C6;}
</style>
<path class="st0" d="M327.9,251.3l-8.1-5c17.5-10,33.4-3,38.2,20.8c-2.4,3.6-10,5.8-15,5.6C341.9,258.8,334.2,253,327.9,251.3z"/>
<path class="st0" d="M277.7,249.1l-7.4-1.2l-7.6-3.8l-14.7-53.3l-4.7-5.8C277.2,168.2,308.6,208.7,277.7,249.1z"/>
<path class="st1" d="M361.8,336.8l-4.2-1.5l-171.8-18.5l-3,1.7l2.4,7.1c39.5,34.8,139.2,39.7,177.1,14.9L361.8,336.8z"/>
<path class="st2" d="M433.8,306.7l-0.1,4.6c-31-1.3-44.5-18.3-48.1-44.3l42.2-8.9l19.9,14C452.8,283.6,448.2,295.1,433.8,306.7z"/>
<path class="st3" d="M201.5,302.9c36.7,25.1,100.5,32,146.6,16.1l13.2,14.1c-37.9,24.3-137.1,19.3-175.5-16.3L201.5,302.9z"/>
<path class="st4" d="M385.1,421.3c5-2,5.2-9.4,3.7-14.5c-0.7-12.6,13.4-21.2,17.7-49.7l8.8,0.5c4.5,16.6-13.4,49,13.6,49.7
	c9.3,1.8,16.3-5.7,11.1-17.5c-3.6-17.3,9.3-32.3,8.9-50c6.7-9.4,5.9-25-2.5-46.8c-3.7,5.8-7.9,10.3-12.5,13.5l-0.1,4.6
	c-13.5-14-40.7-9.8-40.6-42l-18.2-9.4c-2.1,8.9-1.3,20.3,0.6,32.7c-3,13.4-4.3,28-19.8,39.1c2.3,5.6,8.8,6.6,19.4,2.9
	c-0.8,27.6-14.4,45.5-15.3,61.4c-1.2,17,11.2,27.9,17.3,27C379.1,424.2,383.7,426,385.1,421.3z"/>
<path class="st5" d="M385.1,421.3c-13.4,0.2-14.7-6-15.7-14.1c-0.7-12.6,12.6-20.5,15.8-37c0.8-6.7,14.5-11.1,21.3-13.1l8.8,0.5
	c4.5,16.6-13.4,49,13.6,49.7c9.3,1.8,17.3-10.1,9.5-8.4c-27.5,4.3-15.8-33.9-10.9-43.4c7.1-2.9,13.5-13.1,12.5-17.3
	c-2.4,7.9-39.7,14.8-53.3-12.9l-6.8,6.3c-16.2-0.7,18.3-34.8,0.6-56.1c-2.1,8.9-2.1,5.7-4.9,16.9c-3,13.4-4.3,28-19.8,39.1
	c2.3,5.6,8.8,6.6,19.4,2.9c-0.8,27.6-14.4,45.5-15.3,61.4c-1.2,17,11.2,27.9,17.3,27C379.1,424.2,383.7,426,385.1,421.3z"/>
<path class="st5" d="M347.6,319.2l10.7,10.6l19-16.6l-1.8-20.6l-2-16.2C368,296,359.9,311.8,347.6,319.2z M371.6,357l2.6-12
	c-11,7.4-26.5,4.6-40,13.6c-10.2,8.8-22,12.5-35.3,11.1c11.7,3.7,24.1,3.9,38.1-3.7C346.8,361.1,360.9,363.8,371.6,357z"/>
<path class="st5" d="M439.5,152.7l-50.2-8.3l-17.4-20c-5.1-29.9,20.9-45.4,37.3-42.7C440,84.6,456.8,125.6,439.5,152.7z"/>
<path class="st4" d="M397.2,125.1l-3.9-8.4c35.2,16.1,73.1,60,113.8,131.6l-6.8,22.4l-18.2,1.4l-116-57.3l0.1-4.1
	c-53.8,10.9-88.6-35.9-68.7-73.4c13.7-26.4,66.3-38.1,91.8,6.8c-0.4-10.9-2.5-20.8-8.5-28.4l10.4,4.8L397.2,125.1z"/>
<path class="st5" d="M366.3,211c-39.5,8.5-85.6-22.3-65.6-59.8c13.7-26.4,44.9-26.9,70.5,18l-2.3,14.7L366.3,211z"/>
<path class="st6" d="M366.5,205.7c1-14.4,3-29,6-43.5c-14.5-25.3-43.3-26.8-53.1-16.3C302.4,162.5,310.7,208.8,366.5,205.7z"/>
<path class="st7" d="M419.5,211.4l-16.3-11.2c0.6-22.1,11.3-32.5,21.6-24.9c2.3-10.2,13.6-8.1,23.3,5.4c6.3,8.6,3.2,19.8-10.4,18.3
	C437.3,205.8,430.4,212.8,419.5,211.4z"/>
<path class="st8" d="M252,291.1l-6.5-1.8l-7,10c2.5,6.4,1.7,19.4,0.5,28l3.8,0.6C247.8,317.9,253.2,302.9,252,291.1z"/>
<path class="st8" d="M327.9,299.1l-6.8-2.8l-7.4-0.5c4.3,7.3,3.6,29.5,0,36.9l4.1-0.6C322.7,322,328.2,310.6,327.9,299.1z"/>
<path class="st9" d="M301.7,286.5c-13.3,9.3-32.1,10.2-56.2,2.8c-11.2,17.5-24.2,29.8-39.3,36.8l-3.9-1.9
	c15.7-11.7,22.3-29.5,23.9-50.9c1.8-18.2,8.7-35.8,21.7-52.8l-4.7-3.2c-20,9.4-24-10.3-13.9-13.3c10.6-4.8,14.4-17.3,31.7-14.4l4-8
	c2.4,2.9,3.2,6.3,3.4,10.3c12.6,8.2,10.2,28.4-5.7,52.2c20.3,14.5,42.3-8,60.8,4.1c23.6,13.1-3.2,35.9,22.1,39.5
	c2.3,24.2-1,38.4-4.2,48.4l-5.2,1.5c1.2-18.6,0.7-41.6-18.4-41.6C302.4,295.7,303.5,290.9,301.7,286.5z"/>
<path class="st10" d="M301.7,286.5c-13.3,9.3-32.1,10.2-56.2,2.8c-11.2,17.5-24.2,29.8-39.3,36.8l-3.9-1.9
	c15.7-11.7,31.9-32.3,33.5-53.7c1.8-18.2,4.7-32.3,17.6-49.3l-5.5-0.7l-4.7-3.2c-20,9.4-22.1-6-11.1-6.8c10.6-4.8,13.5-22.6,31-17.1
	l4-9.7c2.4,2.9,1.1,4.1,1.3,8.1l-0.4,6.2c8.3,11.1,2.8,27.1-12,46.5c-11.9,18-11.3,30.9-5.1,35.5c20.3,14.5,47.9-29.1,66.4-17
	c14,8.8,3.9,27.2,24.3,31.2c2.3,24.2,3,31.9-0.2,41.9l-5.2,1.5c1.2-18.6,0.7-41.6-18.4-41.6C302.4,295.7,303.5,290.9,301.7,286.5z"
	/>
<path class="st11" d="M357.6,335.3c-40.3,21.7-134.5,16-171.8-18.5l15.7-13.9c4,2.7,8.4,5.3,13,7.6 M345.2,320c1-0.3,2-0.6,2.9-1
	l10.1,10.8 M321.8,325.4c4.9-0.8,9.7-1.7,14.3-2.9 M246,321.9c22.5,5.7,46.2,7.2,69.5,4.4 M223.9,314.7c5.2,2.1,9.8,3.7,15.5,5.4"/>
<path class="st11" d="M185.2,325.6c39.5,34.8,139.2,39.7,177.1,14.9l-0.5-3.7"/>
<path class="st12" d="M261,189.6c-17-3.8-20.9,11.4-31.7,14.4c-11.7,4.1-4.5,23.4,13.9,13.3c5.1,6.4,20.2,5.8,19.5-7.1"/>
<path class="st12" d="M259.8,192.2l5.3-10.6c3.5,1.6,3.9,7.9,3,16.5"/>
<ellipse class="st7" cx="249.1" cy="199.8" rx="2.7" ry="2.7"/>
<ellipse class="st12" cx="249.1" cy="199.8" rx="2.7" ry="2.7"/>
<path class="st12" d="M268.3,191.9c12.6,8.2,10.2,28.4-5.7,52.2c20.3,14.5,42.3-8,60.8,4.1c23.6,13.1-3.2,35.9,22.1,39.5
	c2.3,24.2-1,38.4-4.2,48.4l-5.2,1.5c1.2-18.6,0.7-41.6-18.4-41.6c-15.4-0.3-19-5.2-15.9-33"/>
<path class="st12" d="M248,220.5c-33.9,45.1-10.9,73.9-45.5,103.6l3.9,1.9c19.1-9.1,33.4-25.2,44.6-46"/>
<path class="st12" d="M245.6,289.3c25.7,7.5,46,5.3,56.2-2.8"/>
<path class="st12" d="M238.6,299.3c2.5,6.4,1.7,19.4,0.5,28l3.8,0.6c5.1-8,9.4-24.8,9.1-36.8"/>
<path class="st12" d="M313.6,295.8c3.4,10.1,4.5,23.6,0,36.9l4.1-0.6c5.6-9.1,9.3-19.9,10.1-32.9"/>
<path class="st12" d="M248,190.9l-4.7-5.8c34.1-16.9,65.4,23.6,34.5,64.1"/>
<path class="st12" d="M319.7,246.3c17.5-10,33.4-3,38.2,20.8c-2.4,3.6-10,5.8-15,5.6c-1-13.9-8.7-19.7-15-21.4"/>
<path class="st12" d="M354.4,270c-1.4-6.8-4.3-12.8-9.5-16.5"/>
<line class="st12" x1="283.8" y1="239.7" x2="273.3" y2="237.1"/>
<line class="st12" x1="287.2" y1="232.1" x2="281.1" y2="231.1"/>
<line class="st12" x1="289.8" y1="222.5" x2="281.3" y2="222.4"/>
<line class="st12" x1="292" y1="212.7" x2="286.2" y2="213.5"/>
<line class="st12" x1="290.2" y1="204.5" x2="286" y2="205.9"/>
<line class="st12" x1="283.9" y1="194.3" x2="280.3" y2="196.5"/>
<line class="st12" x1="275.2" y1="185.8" x2="273.1" y2="188.7"/>
<line class="st12" x1="258.4" y1="181.1" x2="258.4" y2="184.7"/>
<line class="st12" x1="249.7" y1="182.5" x2="251" y2="185.9"/>
<path class="st2" d="M485.7,271.9c-21.6,2.1-45.9,1.6-64.2-6.1c-42.6,17.3-72.7-22.4-55.5-50.8c10.4-16.1,39.2-24.6,54.2-2.3
	C431.6,230.6,468.2,270.4,485.7,271.9z"/>
<path class="st5" d="M484.3,245.3c1.5,0,2.6,1.2,2.6,2.6c0,1.5-1.2,2.6-2.6,2.6c-1.5,0-2.6-1.2-2.6-2.6
	C481.7,246.4,482.8,245.3,484.3,245.3z M481.1,253.6c1.6,0,3,1.3,3,3c0,1.6-1.3,3-3,3c-1.6,0-3-1.3-3-3
	C478.2,254.9,479.5,253.6,481.1,253.6z M474.9,244.8c1.9,0,3.4,1.5,3.4,3.4c0,1.9-1.5,3.4-3.4,3.4c-1.9,0-3.4-1.5-3.4-3.4
	C471.6,246.3,473.1,244.8,474.9,244.8z"/>
<circle class="st13" cx="414.7" cy="197.8" r="5.8"/>
<circle class="st7" cx="418" cy="201.1" r="2.5"/>
<circle class="st13" cx="437.8" cy="187" r="5.1"/>
<path class="st14" d="M374.1,345.1c-11,7.4-26.5,4.6-40,13.6c-10.2,8.8-22,12.5-35.3,11.1c11.7,3.7,24.1,3.9,38.1-3.7
	c9.8-5,23.9-2.3,34.5-9.1 M373.4,276.4c-5.5,19.5-13.6,35.4-25.9,42.7"/>
<path class="st14" d="M415.2,357.7c2,10.1-3.8,27.8-1.3,40.1c2,7.6,9.3,10.6,15,9.6c2.9,1.2,6.8,0.1,9.2-2.3
	c7.7-6.3-1.7-12.3,2.6-31.6c2.7-11.2,7.9-21.1,8.1-33.7 M383.3,343.4c17,22.5,51,15.9,63.7-0.8c13.5-17.6,0.4-42.1-0.8-49.3
	 M429.7,295c4.2,4,4.4,9.9,4,16.2c-13.3-11-35.9-12-39.8-33 M447.6,272.1c5.2,11.5,0.6,23-13.9,34.6 M500.3,270.9
	c-27.5,1.4-87.9,11-103.3-30.5 M403.3,174.7c0.7-4.7,3.2-7.7,8.5-8.3 M428.9,163.5c2.8-1.5,5.9-1.8,8.3,0.2 M403.2,200.2
	c0.6-22.1,11.3-32.5,21.6-24.9c2.3-10.2,13.6-8.1,23.3,5.4c6.3,8.6,3.2,19.8-10.4,18.3c-0.4,6.9-7.3,13.8-18.3,12.5 M421.6,265.8
	c-42.1,16.5-73-22.4-55.5-50.8c0.4-16.3,2.6-35.5,6.4-52.9 M366.3,211c-53.8,10.9-88.6-35.9-68.7-73.4c13.7-26.4,66.3-38.1,91.8,6.8
	c-0.4-10.9-2.5-20.8-8.5-28.4c11.6,4,19.3,10.6,24.1,19.1 M397.2,125.1l-3.9-8.4c27.6,9.2,76.4,62.8,113.8,131.6 M372.1,124.3
	C367,94.4,393,78.9,409.4,81.6c30.7,2.9,47.6,44,30.3,71 M396.2,200.2c12.4-1.7,20.3,5.1,26,15.8 M392.2,241.9
	c-0.6-3.6,1.7-7.8,6.9-6.2 M374.7,409.9l2.4,12.9 M375.1,334.6c-0.8,27.6-14.4,45.5-15.3,61.4c-1.2,17,11.2,27.9,17.3,27
	c2,1.4,5.7,1.5,7.7-0.3c1.4-5.3-0.6-10.3-3.4-13.4 M435,393.8c3.6,3.3,4,7.1,3,11.3 M424.3,395.6c4.2,4,5.4,7.9,4.5,11.9
	 M374.8,260.2c-2.4,9.2-1.4,22,0.7,32.4 M355.7,331.7c2.2,10.9,32.1,8.3,42.9-29.9 M380.4,275.7c-8.2,18.7-4.3,42.2-24.7,56
	c3.6,2.7,8-0.4,10-2.3 M375.5,167.6c-15.2-31.6-46.3-32.2-56.1-21.7c-16.9,16.5-8.7,62.9,47.1,59.8 M406.4,357.2
	c-3.3,21-18.9,42.3-17.7,49.7c1.9,10.6,0,12.2-3.7,14.5"/>
<path class="st4" d="M435.8,105.3c-7.8-10.1-18.2-16.4-31.9-20.7C419.1,84.3,430.6,91.3,435.8,105.3z"/>
<path class="st15" d="M320,181.1c7.8,9.5,18.2,15.4,32,19.5C336.8,200.9,325.3,194.3,320,181.1z"/>
<path class="st5" d="M500.3,270.9c-15.7-7.8-5.4-29.3,6.8-22.4C520.2,256.2,519.9,278.3,500.3,270.9z"/>
<path class="st14" d="M500.3,270.9c-15.7-7.8-5.4-29.3,6.8-22.4C520.2,256.2,519.9,278.3,500.3,270.9z"/>
<circle class="st7" cx="442.2" cy="189" r="2.3"/>
<path class="st2" d="M443.3,339.9c4.6-7.5,5.7-15.5,4.3-25.1C452.8,324,451.6,332.9,443.3,339.9z M465.2,194.2
	c5.5,1.6,28,31.9,28.7,40.7C484.2,223.8,474.2,210.3,465.2,194.2z M339.4,119.1c-16.2,3.2-29.4,11.7-42.2,25
	C305.5,126.4,320.2,117.2,339.4,119.1z M386.1,402.6c0-7.4,9.6-32.7,14.3-35C396.8,380.3,387.9,398.2,386.1,402.6z"/>
<path class="st16" d="M364.7,227.4c0.9,11.9,6.2,21.6,15.4,31C367.1,252.3,361.2,241.5,364.7,227.4z M436.3,299.3
	c5.9-6.3,8.2-14.1,10.1-23.1C447.9,285,445.6,294.2,436.3,299.3z"/>
</svg>
