<?xml version="1.0" encoding="utf-8"?>
<!-- Generator: Adobe Illustrator 21.1.0, SVG Export Plug-In . SVG Version: 6.00 Build 0)  -->
<svg version="1.1" id="Layer_1" xmlns="http://www.w3.org/2000/svg" xmlns:xlink="http://www.w3.org/1999/xlink" x="0px" y="0px"
	 viewBox="0 0 517 460" style="enable-background:new 0 0 517 460;" xml:space="preserve">
<style type="text/css">
	.st0{fill-rule:evenodd;clip-rule:evenodd;fill:#E6D4E8;}
</style>
<path class="st0" d="M213.1,437c-32.3,27.3-107.1,32-146.7,2.4C13.8,400.1,5.5,327.2,39.3,281.6c9.8-13.2,31.3-11.2,41.4-14.2
	c4-6.1,7.1-27.3,7.1-35.4c0-7.1,2-15.2,2-22.2c0-17.2,14.1-40.4,16.2-59.6c2-14.1,12.1-37.4,12.1-50.5c0-5.1,9.1-19.2,11.1-21.2
	c1-1,2-9.1,4-11.1c11.1-11.1-54.6,8.1-54.6-13.1C85.8,2.8,161.3-10.7,208,8.9c31.3,13.1,15,47.6,71.7,36.4
	c47.5-9.4,34.4,31.3,52.5,39.4c7.4,3.3,26.3,1.3,31.3,2c56.4,8.4,129,185,125.2,259.6c-3.4,67.7-44.5,89.7-111.1,86.8
	C316.5,430.3,289.7,396.5,213.1,437z"/>
</svg>
