<?xml version="1.0" encoding="utf-8"?>
<!-- Generator: Adobe Illustrator 21.1.0, SVG Export Plug-In . SVG Version: 6.00 Build 0)  -->
<svg version="1.1" id="Layer_1" xmlns="http://www.w3.org/2000/svg" xmlns:xlink="http://www.w3.org/1999/xlink" x="0px" y="0px"
	 viewBox="0 0 517 460" style="enable-background:new 0 0 517 460;" xml:space="preserve">
<style type="text/css">
	.st0{fill-rule:evenodd;clip-rule:evenodd;fill:#E6D4E8;}
	.st1{fill-rule:evenodd;clip-rule:evenodd;fill:#F6A840;}
	.st2{fill-rule:evenodd;clip-rule:evenodd;fill:#AA7831;}
	.st3{fill-rule:evenodd;clip-rule:evenodd;fill:#FACCAF;}
	.st4{fill-rule:evenodd;clip-rule:evenodd;fill:#F5A87D;}
	.st5{fill-rule:evenodd;clip-rule:evenodd;fill:#BD6E39;}
	.st6{fill-rule:evenodd;clip-rule:evenodd;fill:#A35939;}
	.st7{fill-rule:evenodd;clip-rule:evenodd;fill:#D88F55;}
	.st8{fill-rule:evenodd;clip-rule:evenodd;fill:#FBD2B6;}
	.st9{fill-rule:evenodd;clip-rule:evenodd;fill:#EDB581;}
	.st10{fill-rule:evenodd;clip-rule:evenodd;fill:#F5B0B4;}
	.st11{fill-rule:evenodd;clip-rule:evenodd;fill:#FFFFFF;}
	.st12{fill-rule:evenodd;clip-rule:evenodd;fill:#D3ECFB;}
	.st13{fill-rule:evenodd;clip-rule:evenodd;fill:#E5A46B;}
	.st14{fill-rule:evenodd;clip-rule:evenodd;fill:#D6B36A;}
	.st15{fill-rule:evenodd;clip-rule:evenodd;fill:#F7C6C7;}
	.st16{fill-rule:evenodd;clip-rule:evenodd;fill:#D64528;}
	.st17{fill-rule:evenodd;clip-rule:evenodd;fill:#EF7E3B;}
	.st18{fill-rule:evenodd;clip-rule:evenodd;fill:#E1682C;}
	.st19{fill:none;stroke:#822E2D;stroke-width:1.6998;stroke-linecap:round;stroke-linejoin:round;stroke-miterlimit:22.9256;}
	.st20{fill-rule:evenodd;clip-rule:evenodd;fill:#FDEBDB;}
	.st21{fill-rule:evenodd;clip-rule:evenodd;fill:#FDF1E7;}
	.st22{fill-rule:evenodd;clip-rule:evenodd;fill:#1A1A18;}
	.st23{fill:none;stroke:#935428;stroke-width:1.6998;stroke-linecap:round;stroke-linejoin:round;stroke-miterlimit:22.9256;}
	.st24{fill-rule:evenodd;clip-rule:evenodd;fill:#F3A5A6;}
	.st25{fill-rule:evenodd;clip-rule:evenodd;fill:#3B3A39;}
	.st26{fill:none;stroke:#1A1A18;stroke-width:1.6998;stroke-linecap:round;stroke-linejoin:round;stroke-miterlimit:22.9256;}
	.st27{fill:none;stroke:#E30045;stroke-width:8.499;stroke-linecap:round;stroke-linejoin:round;stroke-miterlimit:22.9256;}
</style>
<path class="st0" d="M213.1,437c-32.3,27.3-107.1,32-146.7,2.4C13.8,400.1,5.5,327.2,39.3,281.6c9.8-13.2,31.3-11.2,41.4-14.2
	c4-6.1,7.1-27.3,7.1-35.4c0-7.1,2-15.2,2-22.2c0-17.2,14.1-40.4,16.2-59.6c2-14.1,12.1-37.4,12.1-50.5c0-5.1,9.1-19.2,11.1-21.2
	c1-1,2-9.1,4-11.1c11.1-11.1-54.6,8.1-54.6-13.1C85.8,2.8,161.3-10.7,208,8.9c31.3,13.1,15,47.6,71.7,36.4
	c47.5-9.4,34.4,31.3,52.5,39.4c7.4,3.3,26.3,1.3,31.3,2c56.4,8.4,129,185,125.2,259.6c-3.4,67.7-44.5,89.7-111.1,86.8
	C316.5,430.3,289.7,396.5,213.1,437z"/>
<path class="st1" d="M327.9,251.3l-8.1-5c17.5-10,33.4-3,38.2,20.8c-2.4,3.6-10,5.8-15,5.6C341.9,258.8,334.2,253,327.9,251.3z"/>
<path class="st1" d="M277.7,249.1l-7.4-1.2l-7.6-3.8l-14.7-53.3l-4.7-5.8C277.2,168.2,308.6,208.7,277.7,249.1z"/>
<path class="st2" d="M361.8,336.8l-4.2-1.5l-171.8-18.5l-3,1.7l2.4,7.1c39.5,34.8,139.2,39.7,177.1,14.9L361.8,336.8z"/>
<path class="st3" d="M228.2,263.4l-2,10.7c-7-0.2-14-2.5-21-7.8l-15.6-26.8l0.1-1.8l6.8-5.6C209.5,251.9,220.1,259.2,228.2,263.4z"
	/>
<path class="st4" d="M227.4,267.2l-1.2,6.9c-7-0.2-14-2.5-21-7.8l-15.6-26.8l0.1-1.8l2-0.8C204.8,256.7,216.4,266.2,227.4,267.2z"/>
<path class="st3" d="M185.7,354.5l-16,12.3c4.7,11.1,5.6,19.1,3.8,24.8c-9.4,21-11.7,33.2-11.4,42.3l5.1-3.9l4.7,3.7
	C176.4,407.2,203.6,394.3,185.7,354.5z"/>
<path class="st4" d="M178.5,354.5c-2.9,4.1-8.7,9.2-11.7,13.3c4.7,11.1,8.4,18.1,6.7,23.8c-9.4,21-11.7,33.2-11.4,42.3l3-2.3
	C169.6,405.2,196.4,394.3,178.5,354.5z"/>
<path class="st3" d="M106.7,376.7l-21.9-5.6c-1.1,24.2-10.2,48.8-21.6,75.8l7.5-0.8l1.8,6.8C87.6,437.7,103.3,405,106.7,376.7z"/>
<path class="st4" d="M96.9,376.4l-7.4-2.1l-7.1-5.3c-1.1,24.2-7.8,50.9-19.2,77.9l9.1,1.1l-0.4-6.2
	C79.7,440.1,93.5,404.6,96.9,376.4z"/>
<path class="st5" d="M81.6,377l0.9-8c7.1,5.3,16.2,8.5,24.6,7.4l-1.1,7.1c23.3,2.5,36.2-3.8,40.1-11.5c25.4-0.5,47.5-17.3,45.8-41.1
	l-6.7-5.3l-2.4-7.1l18.7-15.7c8.6-18.7,6.7-48.5-12-63.3l-142.4,4c-12.1,16.3-10.7,35.9-3.8,47.7C29,309.7,49.5,365.4,81.6,377z"/>
<path class="st6" d="M60,361.4l-6.8-8.9c-8.8,5.7-23.3,10.8-43,6.9C24.3,370.5,41.2,369.9,60,361.4z"/>
<path class="st7" d="M115.2,278.6l-1.9-4.7c4.2,1.4,11.6,2.1,17.5-2l7.1,9.7c31.5-3.3,51.3-25.8,51.7-43.9
	c11.8-3.8,12.2-23.9,5.2-36.1L90.6,185.5l-48.9,18.3c-10.3,18.5-1.9,39.1,14.1,42.3c0.7,10.6,10.7,22.5,24.8,21.3
	C84.9,278.9,102,283.9,115.2,278.6z"/>
<path class="st5" d="M115.2,278.6l-1.9-4.7l-4.6-3.6c-21,3.9-37-23-25.2-35.9c-14.3-3.8-22.5-18.1-15.6-30.3l-12.6-5.5l-13.7,5.1
	c-10.3,18.5-2.4,39.1,14.1,42.3c0.7,10.6,10.7,22.5,24.8,21.3C84.9,278.9,102,283.9,115.2,278.6z"/>
<path class="st8" d="M189.3,113l-31.9-38.2l-14.5-30c14.1-7.3,27.6-7.3,40.6,0.1l13.4,12.7C208.4,74.2,208.7,98.5,189.3,113z"/>
<path class="st9" d="M186.8,116.3l-27.3-32.6l-12.4-25.6c12-6.2,23.6-6.2,34.6,0.1L193.2,69C203.1,83.2,203.3,103.9,186.8,116.3z"/>
<path class="st5" d="M177.3,93c-7.4-7.8-14.4-14.5-20-18.2l2.1-5.7l0.4-5c10-12.7,28-16.9,31.2-30.7C201.5,43.9,198.7,77.8,177.3,93
	z"/>
<path class="st6" d="M177.4,93c-4.4-5.9-9.4-10.6-16.6-15.9c15.8-30.9,28.3-20.3,34.6-36.1C201.1,59.6,191.6,84.6,177.4,93z"/>
<path class="st8" d="M82.5,136.5c19.3-17.7,3.9-56.5-40.4-45.2c-27.4,8.8-44.3,36.1-40.8,67.6c6.2,49.5,64.4,56.8,89.3,34.3
	C110,175,102.4,146.7,82.5,136.5z"/>
<path class="st10" d="M171.1,85.8l-5.5-5.1c9.2-5.3,11.3-20.7,16.5-23C189.5,55.7,191.3,73.7,171.1,85.8z"/>
<path class="st5" d="M100.8,203.5c3.1,7,0.4,15,9.4,21.1c-16.5,6.7-33.6-3.8-42.2-20.5c44-9.7,40.9-52,14.5-67.6
	c3.8-4.7,6.6-7.9,7.3-11.9l52.8-45.7l14.8-4.1c17.8,11.1,28.4,28,35.8,47.5c24,23.9,25.6,58.9,12.4,71.3c-6.6,6.5-16,12-26.8,14.1
	C171.6,220.8,141.1,235.2,100.8,203.5z"/>
<path class="st11" d="M171.9,129.8c-6.2,2.2-16.7-10.2-14.5-22.2c1-6.6,12.4-6.6,22.9,10C184.6,126.3,179.7,127.2,171.9,129.8z"/>
<path class="st11" d="M134.6,161.7c-2.3-2.3-6.3-3.4-12-3.2c-6.6-13.5-6.6-27-1.8-31.5c5.7-3.8,17.4-1.7,26.4,17.3
	C150.5,150.8,142.5,160.8,134.6,161.7z"/>
<path class="st12" d="M173.3,129.3l6.4-2c3.6-4.1,1.4-10.2-6.5-18.5C160.8,103.7,160,125.3,173.3,129.3z"/>
<path class="st12" d="M134.6,161.7c15.7-6,16.1-14.5,6.1-28C126.7,124.2,117.8,147.9,134.6,161.7z"/>
<path class="st13" d="M143.1,84.2c0.1,13.4-7.3,20.1-22.2,20.1c-2.2,17-10.3,26.7-31.1,20.3l0.8-7.8l-1.2-40.5l-47.4,15l-9.4,3.9
	c-8-19.8,13.5-41.3,27.2-43.2C63,24.6,107,20.9,112.7,35.9c9.9-4.2,20.7-1.8,24,8.5C165.9,43.9,167,80.9,143.1,84.2z"/>
<path class="st7" d="M433.8,306.7l-0.1,4.6c-31-1.3-44.5-18.3-48.1-44.3l42.2-8.9l19.9,14C452.8,283.6,448.2,295.1,433.8,306.7z"/>
<path class="st6" d="M347.6,319.2l10.7,10.6l19.8-6.6l-2.6-30.6l-2-16.2C368,296,359.9,311.8,347.6,319.2z"/>
<path class="st14" d="M201.5,302.9c36.7,25.1,100.5,32,146.6,16.1l13.2,14.1c-37.9,24.3-137.1,19.3-175.5-16.3L201.5,302.9z"/>
<path class="st5" d="M385.1,421.3c5-2,5.2-9.4,3.7-14.5c-0.7-12.6,13.4-21.2,17.7-49.7l8.8,0.5c4.5,16.6-13.4,49,13.6,49.7
	c9.3,1.8,16.3-5.7,11.1-17.5c-3.6-17.3,9.3-32.3,8.9-50c6.7-9.4,5.9-25-2.5-46.8c-3.7,5.8-7.9,10.3-12.5,13.5l-0.1,4.6
	c-13.5-14-40.7-9.8-40.6-42l-18.2-9.4c-2.1,8.9-1.3,20.3,0.6,32.7c-3,13.4-4.3,28-19.8,39.1c2.3,5.6,8.8,6.6,19.4,2.9
	c-0.8,27.6-14.4,45.5-15.3,61.4c-1.2,17,11.2,27.9,17.3,27C379.1,424.2,383.7,426,385.1,421.3z"/>
<path class="st6" d="M385.1,421.3c-13.4,0.2-14.7-6-15.7-14.1c-0.7-12.6,12.6-20.5,15.8-37c0.8-6.7,14.5-11.1,21.3-13.1l8.8,0.5
	c4.5,16.6-13.4,49,13.6,49.7c9.3,1.8,17.3-10.1,9.5-8.4c-27.5,4.3-15.8-33.9-10.9-43.4c7.1-2.9,13.5-13.1,12.5-17.3
	c-2.4,7.9-39.7,14.8-53.3-12.9l-6.8,6.3c-16.2-0.7,18.3-34.8,0.6-56.1c-2.1,8.9-2.1,5.7-4.9,16.9c-3,13.4-4.3,28-19.8,39.1
	c2.3,5.6,8.8,6.6,19.4,2.9c-0.8,27.6-14.4,45.5-15.3,61.4c-1.2,17,11.2,27.9,17.3,27C379.1,424.2,383.7,426,385.1,421.3z"/>
<path class="st6" d="M371.6,357l2.6-12c-11,7.4-26.5,4.6-40,13.6c-10.2,8.8-22,12.5-35.3,11.1c11.7,3.7,24.1,3.9,38.1-3.7
	C346.8,361.1,360.9,363.8,371.6,357z"/>
<path class="st6" d="M439.5,152.7l-50.2-8.3l-17.4-20c-5.1-29.9,20.9-45.4,37.3-42.7C440,84.6,456.8,125.6,439.5,152.7z"/>
<path class="st5" d="M397.2,125.1l-3.9-8.4c35.2,16.1,73.1,60,113.8,131.6l-6.8,22.4l-18.2,1.4l-116-57.3l0.1-4.1
	c-53.8,10.9-88.6-35.9-68.7-73.4c13.7-26.4,66.3-38.1,91.8,6.8c-0.4-10.9-2.5-20.8-8.5-28.4l10.4,4.8L397.2,125.1z"/>
<path class="st6" d="M366.3,211c-39.5,8.5-85.6-22.3-65.6-59.8c13.7-26.4,44.9-26.9,70.5,18l-2.3,14.7L366.3,211z"/>
<path class="st15" d="M366.5,205.7c1-14.4,3-29,6-43.5c-14.5-25.3-43.3-26.8-53.1-16.3C302.4,162.5,310.7,208.8,366.5,205.7z"/>
<path class="st11" d="M419.5,211.4l-16.3-11.2c0.6-22.1,11.3-32.5,21.6-24.9c2.3-10.2,13.6-8.1,23.3,5.4c6.3,8.6,3.2,19.8-10.4,18.3
	C437.3,205.8,430.4,212.8,419.5,211.4z"/>
<path class="st16" d="M252,291.1l-6.5-1.8l-7,10c2.5,6.4,1.7,19.4,0.5,28l3.8,0.6C247.8,317.9,253.2,302.9,252,291.1z"/>
<path class="st16" d="M327.9,299.1l-6.8-2.8l-7.4-0.5c4.3,7.3,3.6,29.5,0,36.9l4.1-0.6C322.7,322,328.2,310.6,327.9,299.1z"/>
<path class="st17" d="M301.7,286.5c-13.3,9.3-32.1,10.2-56.2,2.8c-11.2,17.5-24.2,29.8-39.3,36.8l-3.9-1.9
	c15.7-11.7,22.3-29.5,23.9-50.9c1.8-18.2,8.7-35.8,21.7-52.8l-4.7-3.2c-20,9.4-24-10.3-13.9-13.3c10.6-4.8,14.4-17.3,31.7-14.4l4-8
	c2.4,2.9,3.2,6.3,3.4,10.3c12.6,8.2,10.2,28.4-5.7,52.2c20.3,14.5,42.3-8,60.8,4.1c23.6,13.1-3.2,35.9,22.1,39.5
	c2.3,24.2-1,38.4-4.2,48.4l-5.2,1.5c1.2-18.6,0.7-41.6-18.4-41.6C302.4,295.7,303.5,290.9,301.7,286.5z"/>
<path class="st18" d="M301.7,286.5c-13.3,9.3-32.1,10.2-56.2,2.8c-11.2,17.5-24.2,29.8-39.3,36.8l-3.9-1.9
	c15.7-11.7,31.9-32.3,33.5-53.7c1.8-18.2,4.7-32.3,17.6-49.3l-5.5-0.7l-4.7-3.2c-20,9.4-22.1-6-11.1-6.8c10.6-4.8,13.5-22.6,31-17.1
	l4-9.7c2.4,2.9,1.1,4.1,1.3,8.1l-0.4,6.2c8.3,11.1,2.8,27.1-12,46.5c-11.9,18-11.3,30.9-5.1,35.5c20.3,14.5,47.9-29.1,66.4-17
	c14,8.8,3.9,27.2,24.3,31.2c2.3,24.2,3,31.9-0.2,41.9l-5.2,1.5c1.2-18.6,0.7-41.6-18.4-41.6C302.4,295.7,303.5,290.9,301.7,286.5z"
	/>
<path class="st6" d="M66.3,439.4c3.9-0.9,11.5,2.8,11.9,7.1c-1.6,2.1-4.6,4.3-5.7,6.3l-1.7-6h-7.5C63.8,444.5,65.1,442.4,66.3,439.4
	z"/>
<path class="st6" d="M162.6,424.8c3.7-0.8,9.1-0.4,11,2.1c-1.5,2-0.6,4.8-1.7,6.8l-4.7-3.7l-5.1,3.9
	C162,431.6,161.4,427.6,162.6,424.8z"/>
<path class="st6" d="M107,376.4c-8.3,2-17.4-0.6-24.6-7.4l-0.6,8.4c-9.7-0.8-34.2-21.9-41.9-56c-3-6.8,2.5-29.3,9.3-31.2
	c-5.2-10.2-5.6-31.1,3.1-44.8l3.4,0.6c3.6,16.5,13.4,21.5,26,21.2c-8,13.3,0.9,27.9,11.2,33.2c-14.7,6.4-11.4,27.4,1.1,29.9
	c1.6,15,15.4,15.1,21.7,12c4,11.9,44.6,24.2,61.5-0.3c1.3,12.4-17.1,26.1-28.8,24.7c-6.5,14.8-22.9,20.7-42.4,16.7L107,376.4z"/>
<path class="st6" d="M99.5,196.7l-1.4-4.7c-2.7,9.7-19,16.5-30.2,12.2c38.3-6.3,46.3-51.2,14.5-67.6c5-4.5,3.8-6.4,7.3-11.9
	c16.5,9.1,32.8-9,31.1-20.3c13.3,0.8,20.7-5.9,22.2-20.1l3.6-0.8c2.8,12.1-6,28.1-20.3,30.5c0,7.4-5.2,8-11.1,10.7
	C99.1,149.1,138.8,165.1,99.5,196.7z"/>
<path class="st7" d="M112.2,92.9c3.6,11.3-4,25.1-21.6,23.9c0.5-18.3-20-33.2-48.6-25.4c-2.8-16.6,15.8-30.2,27.6-28.7
	c0.6-27.3,32.9-27.9,39.9-18.1c6.1-6.1,18.8-4.2,19,5.2c17.9-6.5,27.5,23.9,6.5,28.1C136.7,88.5,124.1,97.2,112.2,92.9z"/>
<path class="st9" d="M164,265.7c9.5-6.4,17.4-16.9,20.7-31.3C187.7,249,174.4,264.2,164,265.7z"/>
<path class="st9" d="M126.6,265.4c-8.8,0.9-17.2-3.3-22.2-9.9C105.4,265.7,117.6,269.8,126.6,265.4z"/>
<path class="st7" d="M210.8,162.1c-2.3-11-10.9-37.1-37.6-30.8C199.6,117.2,211,147.5,210.8,162.1z"/>
<path class="st7" d="M186.5,181.5c10.4,1.6,17.6-3.4,17.8-11.3C206.5,182.1,199,187.5,186.5,181.5z"/>
<path class="st7" d="M182.5,113.9c-6.4-7.9-9.8-11.9-20.5-15C170.9,96.1,177.7,103.1,182.5,113.9z"/>
<path class="st7" d="M92.7,193.5c4.5,6.7,2.6,25.6,13.4,30C99.5,219.5,100.5,199.7,92.7,193.5z"/>
<path class="st7" d="M146.2,135.3c-4.5-6.4-12.5-13.2-20.2-14.7C134.7,118.7,143.2,126.9,146.2,135.3z"/>
<path class="st9" d="M75.1,134.6c-23-3.2-42.9,9.6-44.2,25.2c4.9-18.6,44.3-14.8,40.2,7.8c-2.6,18.7-43.1,25.3-51.2-5.4
	c-7.7-28.5,26.4-55.9,57.3-46.4C88.1,119.9,82.5,136.5,75.1,134.6z"/>
<path class="st19" d="M98.8,325.4c1.4,6.4,8.5,6.7,10.3,3.1"/>
<path class="st19" d="M120.1,337.3c1.1,5.2,6.9,5.4,8.3,2.5"/>
<path class="st19" d="M160.3,343.7c4.5,3.8,9.7,0.1,9-3.5"/>
<path class="st19" d="M182.1,284c3.8,3.2,8.2,0,7.6-2.9"/>
<path class="st19" d="M119.6,354.2c2.5,4.7,8.1,3.4,8.7,0.2"/>
<path class="st19" d="M157.9,98.9c-3.5,0.8-5.7,5.7-4.9,9.4"/>
<path class="st19" d="M120.4,122.2c-3.6-0.1-9,4.4-8.1,11.6"/>
<path class="st20" d="M72.9,97c-12.3-2.4-24.6-1.7-38.8,1.9C47.4,91.3,60.3,91,72.9,97z"/>
<path class="st21" d="M79.5,194.8c8.8-7.8,14-17.1,16-29.7C97.2,180.2,89.5,189.3,79.5,194.8z"/>
<path class="st19" d="M32.7,95.3c-7.6-19.8,13.5-41.3,27.2-43.2C63,24.7,107,21,112.7,36c9.9-4.2,20.7-1.8,24,8.5
	c29.1-0.6,30.3,36.6,6.4,39.9"/>
<path class="st19" d="M141.8,75.7c4.5,13.5-3.1,30-20.9,28.6c0.7,15.6-18.1,29.3-31.1,20.3"/>
<path class="st19" d="M82.5,136.5c19.3-17.7,3.9-56.5-40.4-45.2c-27.4,8.8-44.3,36.1-40.8,67.6c6.2,49.5,64.4,56.8,89.3,34.3
	C110,175,102.4,146.7,82.5,136.5z"/>
<path class="st19" d="M82.5,136.5c-28.1-9.4-50.7,8.3-51.6,23.4c13.2-8.8,35.7-5.9,35.3,6.8"/>
<path class="st19" d="M159.9,64.1c10-12.7,28-16.9,31.2-30.7c10.4,10.4,7.6,44.4-13.8,59.6"/>
<path class="st19" d="M95.9,187.1c7.7,14.3,2.9,29.2,14.2,37.6c-9.3,5.5-33.9-1.1-42.2-20.5"/>
<path class="st19" d="M157.4,74.8c17.8,11.1,28.4,28,35.8,47.5c24,23.9,25.6,58.9,12.4,71.3c-16.3,16.1-49.5,24.2-77.3,1.1"/>
<path class="st19" d="M178,208.1c-6.1,14.7-43.7,24.7-77.1-4.2"/>
<path class="st19" d="M196.9,57.6c11.5,16.6,11.7,40.9-7.6,55.4 M142.9,44.9c15.5-7.6,29.7-6.2,40.6,0.1"/>
<path class="st19" d="M123.9,196.4c3.5,0.1,5.7-2.1,6.5-6.6"/>
<path class="st19" d="M187.6,182c12.7,3.9,18.4,0.6,17.3-10.1"/>
<path class="st19" d="M202.7,181.4c2.7,3.2,3.2,7.5,2.8,12.2"/>
<path class="st19" d="M118.8,158.8c8.7-1.2,15.1,1.3,20,6.3"/>
<path class="st19" d="M41.7,203.8c-10.3,18.5-1.9,38.2,14.1,42.3c0.7,10.6,10.7,22.5,24.8,21.3c4.4,11.6,21.5,16.7,34.8,11.3"/>
<path class="st3" d="M130.8,271.9c-5.9,3.5-11.7,4.2-17.5,2c18.7,45.2,44.6,52.4,71.9,51.7l-2.4-7.1l6-3.4
	C167.9,310.9,148.2,300,130.8,271.9z"/>
<path class="st4" d="M119.7,275.1l-6.4-1.2c18.7,45.2,44.6,52.4,71.9,51.7l-2.4-7.1l-2.7,2.9C152.5,319,137.1,303.3,119.7,275.1z"/>
<path class="st19" d="M194.7,201.7c8.5,8,6.2,30.9-5.2,36.1c0,20.8-23.2,41.2-51.7,43.9"/>
<path class="st19" d="M134.8,269c-6.1,5.6-19.6,9.6-26.1,1.3"/>
<path class="st19" d="M105.9,383.5c15.9,2.5,34.5-1.1,40.1-11.5c31.1,0,49.4-25.6,45.8-41.1 M47,243.5
	c-12.1,16.3-10.7,35.9-3.8,47.7C29.4,309.1,48,363.9,81.6,377"/>
<path class="st6" d="M177.7,312.1c-2.3,4.5-3.4,8.9-3.3,13.3c3.6,0.3,7.2,0.3,10.8,0.2l-2.4-7.1l6-3.4
	C185.1,314.4,181.4,313.4,177.7,312.1z"/>
<path class="st19" d="M53.2,352.5c-8.8,5.7-23.3,10.8-43,6.9c14.1,11.1,31,10.5,49.8,2"/>
<path class="st19" d="M178.1,312.3c-2.8,2.8-3.7,7.5-3.7,13.1"/>
<path class="st19" d="M160.7,246.7c3.4,4.7,8.8,1.7,9.7-1.9"/>
<path class="st19" d="M171.5,234.9c2.9,2.2,5.5-0.5,5.4-2.8"/>
<path class="st19" d="M89.4,76.3c6.9,5.4,13.4-1.2,13.2-6.8"/>
<path class="st19" d="M116.5,61.9c2.6,2,5-0.4,4.9-2.6"/>
<path class="st19" d="M117.3,76.3c2.6,2,5-0.4,4.9-2.6"/>
<path class="st19" d="M151.1,265c2.1,2.9,5.5,1.1,6-1.2"/>
<path class="st19" d="M131.2,257c2.1,2.9,5.5,1.1,6-1.2"/>
<path class="st19" d="M189.5,239.6c15.7,10.9,22.3,44.9,12,63.3"/>
<path class="st19" d="M196.3,232.1c13.2,19.8,23.7,27.1,31.8,31.2"/>
<path class="st19" d="M204.8,266.1c7.8,5.9,13.7,6.9,21.4,8"/>
<path class="st19" d="M32.7,102.3c3.9,0.6,6.5,3,7.9,5.8"/>
<path class="st19" d="M24.6,109.6c2.9-0.1,5.3,1.2,6.7,3.2"/>
<path class="st19" d="M90.4,151.9c-2.3-1.3-4.8-1.4-6.9-0.7"/>
<path class="st19" d="M92.9,159.3c-2.8-1.7-5.9-1.7-8.5-0.8"/>
<ellipse class="st22" cx="140.7" cy="147.2" rx="6.7" ry="6.7"/>
<circle class="st11" cx="135.6" cy="148.8" r="3.3"/>
<circle class="st11" cx="127.1" cy="142.5" r="4"/>
<circle class="st11" cx="163.9" cy="116.4" r="3.8"/>
<ellipse transform="matrix(0.1101 -0.9939 0.9939 0.1101 35.3073 282.7993)" class="st22" cx="175.6" cy="121.7" rx="6" ry="6"/>
<ellipse transform="matrix(0.11 -0.9939 0.9939 0.11 30.2459 278.8986)" class="st11" cx="170.9" cy="122.6" rx="3" ry="3"/>
<path class="st19" d="M81,367.3c6.9,8.9,22.4,12.6,34.2,7.1"/>
<path class="st19" d="M82.5,369c-1.1,24.2-7.8,50.9-19.2,77.9h7.5l1.7,6c16.3-16.1,30.8-47.9,34.2-76.2"/>
<path class="st19" d="M66.3,439.4c7.9,0.6,12.2,3.6,11.9,7.1"/>
<path class="st19" d="M162.6,424.8c6.3-1.7,10.9,0,10.6,3.3"/>
<path class="st19" d="M166.8,367.8c4.7,11.1,8.4,18.1,6.7,23.8c-9.4,21-11.7,33.2-11.4,42.3l5.1-3.9l4.7,3.7
	c4.6-26.4,31.8-39.4,13.8-79.2"/>
<path class="st19" d="M187.8,126c-4,0-9.3,1.2-15.9,3.7c-6.2,2.2-16.7-10.2-14.5-22.2c1-6.6,12.4-6.6,22.9,10
	c4.3,8.7-0.6,9.7-8.4,12.2"/>
<path class="st19" d="M122.7,158.5c-6.6-13.5-6.6-27-1.8-31.5c5.7-3.8,17.4-1.7,26.4,17.3c3.3,6.6-4.7,16.5-12.5,17.5"/>
<path class="st23" d="M357.6,335.3c-40.3,21.7-134.5,16-171.8-18.5l15.7-13.9c4,2.7,8.4,5.3,13,7.6 M345.2,320c1-0.3,2-0.6,2.9-1
	l10.1,10.8 M321.8,325.4c4.9-0.8,9.7-1.7,14.3-2.9 M246,321.9c22.5,5.7,46.2,7.2,69.5,4.4 M223.9,314.7c5.2,2.1,9.8,3.7,15.5,5.4"/>
<path class="st23" d="M185.2,325.6c39.5,34.8,139.2,39.7,177.1,14.9l-0.5-3.7"/>
<path class="st19" d="M261,189.6c-17-3.8-20.9,11.4-31.7,14.4c-11.7,4.1-4.5,23.4,13.9,13.3c5.1,6.4,20.2,5.8,19.5-7.1"/>
<path class="st19" d="M259.8,192.2l5.3-10.6c3.5,1.6,3.9,7.9,3,16.5"/>
<ellipse class="st11" cx="249.1" cy="199.8" rx="2.7" ry="2.7"/>
<ellipse class="st19" cx="249.1" cy="199.8" rx="2.7" ry="2.7"/>
<path class="st19" d="M268.3,191.9c12.6,8.2,10.2,28.4-5.7,52.2c20.3,14.5,42.3-8,60.8,4.1c23.6,13.1-3.2,35.9,22.1,39.5
	c2.3,24.2-1,38.4-4.2,48.4l-5.2,1.5c1.2-18.6,0.7-41.6-18.4-41.6c-15.4-0.3-19-5.2-15.9-33"/>
<path class="st19" d="M248,220.5c-33.9,45.1-10.9,73.9-45.5,103.6l3.9,1.9c19.1-9.1,33.4-25.2,44.6-46"/>
<path class="st19" d="M245.6,289.3c25.7,7.5,46,5.3,56.2-2.8"/>
<path class="st19" d="M238.6,299.3c2.5,6.4,1.7,19.4,0.5,28l3.8,0.6c5.1-8,9.4-24.8,9.1-36.8"/>
<path class="st19" d="M313.6,295.8c3.4,10.1,4.5,23.6,0,36.9l4.1-0.6c5.6-9.1,9.3-19.9,10.1-32.9"/>
<path class="st19" d="M248,190.9l-4.7-5.8c34.1-16.9,65.4,23.6,34.5,64.1"/>
<path class="st19" d="M319.7,246.3c17.5-10,33.4-3,38.2,20.8c-2.4,3.6-10,5.8-15,5.6c-1-13.9-8.7-19.7-15-21.4"/>
<path class="st19" d="M354.4,270c-1.4-6.8-4.3-12.8-9.5-16.5"/>
<line class="st19" x1="283.8" y1="239.7" x2="273.3" y2="237.1"/>
<line class="st19" x1="287.2" y1="232.1" x2="281.1" y2="231.1"/>
<line class="st19" x1="289.8" y1="222.5" x2="281.3" y2="222.4"/>
<line class="st19" x1="292" y1="212.7" x2="286.2" y2="213.5"/>
<line class="st19" x1="290.2" y1="204.5" x2="286" y2="205.9"/>
<line class="st19" x1="283.9" y1="194.3" x2="280.3" y2="196.5"/>
<line class="st19" x1="275.2" y1="185.8" x2="273.1" y2="188.7"/>
<line class="st19" x1="258.4" y1="181.1" x2="258.4" y2="184.7"/>
<line class="st19" x1="249.7" y1="182.5" x2="251" y2="185.9"/>
<path class="st19" d="M366.3,211c-53.8,10.9-88.6-35.9-68.7-73.4c13.7-26.4,66.3-38.1,91.8,6.8c-0.4-10.9-2.5-20.8-8.5-28.4
	c11.6,4,19.3,10.6,24.1,19.1"/>
<path class="st7" d="M485.7,271.9c-21.6,2.1-45.9,1.6-64.2-6.1c-42.6,17.3-72.7-22.4-55.5-50.8c10.4-16.1,39.2-24.6,54.2-2.3
	C431.6,230.6,468.2,270.4,485.7,271.9z"/>
<path class="st19" d="M397.2,125.1l-3.9-8.4c27.6,9.2,76.4,62.8,113.8,131.6"/>
<path class="st19" d="M500.3,270.9c-27.5,1.4-87.9,11-103.3-30.5"/>
<path class="st19" d="M421.6,265.8c-42.1,16.5-73-22.4-55.5-50.8c0.4-16.3,2.6-35.5,6.4-52.9"/>
<path class="st19" d="M375.5,167.6c-15.2-31.6-46.3-32.2-56.1-21.7c-16.9,16.5-8.7,62.9,47.1,59.8"/>
<path class="st19" d="M372.1,124.3C367,94.4,393,78.9,409.4,81.6c30.7,2.9,47.6,44,30.3,71"/>
<path class="st19" d="M392.2,241.9c-0.6-3.6,1.7-7.8,6.9-6.2"/>
<path class="st6" d="M484.3,245.3c1.5,0,2.6,1.2,2.6,2.6c0,1.5-1.2,2.6-2.6,2.6c-1.5,0-2.6-1.2-2.6-2.6
	C481.7,246.4,482.8,245.3,484.3,245.3z M481.1,253.6c1.6,0,3,1.3,3,3c0,1.6-1.3,3-3,3s-3-1.3-3-3
	C478.2,254.9,479.5,253.6,481.1,253.6z M474.9,244.8c1.9,0,3.4,1.5,3.4,3.4c0,1.9-1.5,3.4-3.4,3.4c-1.9,0-3.4-1.5-3.4-3.4
	C471.6,246.3,473.1,244.8,474.9,244.8z"/>
<path class="st19" d="M403.2,200.2c0.6-22.1,11.3-32.5,21.6-24.9c2.3-10.2,13.6-8.1,23.3,5.4c6.3,8.6,3.2,19.8-10.4,18.3
	c-0.4,6.9-7.3,13.8-18.3,12.5"/>
<path class="st19" d="M403.3,174.7c0.7-4.7,3.2-7.7,8.5-8.3"/>
<path class="st19" d="M428.9,163.5c2.8-1.5,5.9-1.8,8.3,0.2"/>
<circle class="st22" cx="414.7" cy="197.8" r="5.8"/>
<circle class="st11" cx="418" cy="201.1" r="2.5"/>
<path class="st19" d="M396.2,200.2c12.4-1.7,20.3,5.1,26,15.8"/>
<circle class="st22" cx="437.8" cy="187" r="5.1"/>
<path class="st19" d="M380.4,275.7c-8.2,18.7-4.3,42.2-24.7,56c3.6,2.7,8-0.4,10-2.3"/>
<path class="st19" d="M447.6,272.1c5.2,11.5,0.6,23-13.9,34.6"/>
<path class="st19" d="M429.7,295c4.2,4,4.4,9.9,4,16.2c-13.3-11-35.9-12-39.8-33"/>
<path class="st19" d="M355.7,331.7c2.2,10.9,32.1,8.3,42.9-29.9"/>
<path class="st19" d="M374.8,260.2c-2.4,9.2-1.4,22,0.7,32.4"/>
<path class="st19" d="M373.4,276.4c-5.5,19.5-13.6,35.4-25.9,42.7"/>
<path class="st19" d="M375.1,334.6c-0.8,27.6-14.4,45.5-15.3,61.4c-1.2,17,11.2,27.9,17.3,27c2,1.4,5.7,1.5,7.7-0.3
	c1.4-5.3-0.6-10.3-3.4-13.4"/>
<path class="st19" d="M383.3,343.4c17,22.5,51,15.9,63.7-0.8c13.5-17.6,0.4-42.1-0.8-49.3"/>
<path class="st19" d="M374.1,345.1c-11,7.4-26.5,4.6-40,13.6c-10.2,8.8-22,12.5-35.3,11.1c11.7,3.7,24.1,3.9,38.1-3.7
	c9.8-5,23.9-2.3,34.5-9.1"/>
<line class="st19" x1="374.7" y1="409.9" x2="377.1" y2="422.9"/>
<path class="st19" d="M406.4,357.2c-3.3,21-18.9,42.3-17.7,49.7c1.9,10.6,0,12.2-3.7,14.5"/>
<path class="st19" d="M415.2,357.7c2,10.1-3.8,27.8-1.3,40.1c2,7.6,9.3,10.6,15,9.6c2.9,1.2,6.8,0.1,9.2-2.3
	c7.7-6.3-1.7-12.3,2.6-31.6c2.7-11.2,7.9-21.1,8.1-33.7"/>
<path class="st19" d="M424.3,395.6c4.2,4,5.4,7.9,4.5,11.9"/>
<path class="st19" d="M435,393.8c3.6,3.3,4,7.1,3,11.3"/>
<path class="st9" d="M364.7,227.4c0.9,11.9,6.2,21.6,15.4,31C367.1,252.3,361.2,241.5,364.7,227.4z"/>
<path class="st7" d="M443.3,339.9c4.6-7.5,5.7-15.5,4.3-25.1C452.8,324,451.6,332.9,443.3,339.9z"/>
<path class="st7" d="M386.1,402.6c0-7.4,9.6-32.7,14.3-35C396.8,380.3,387.9,398.2,386.1,402.6z"/>
<path class="st9" d="M436.3,299.3c5.9-6.3,8.2-14.1,10.1-23.1C447.9,285,445.6,294.2,436.3,299.3z"/>
<path class="st5" d="M435.8,105.3c-7.8-10.1-18.2-16.4-31.9-20.7C419.1,84.3,430.6,91.3,435.8,105.3z"/>
<path class="st7" d="M339.4,119.1c-16.2,3.2-29.4,11.7-42.2,25C305.5,126.4,320.2,117.2,339.4,119.1z"/>
<path class="st24" d="M320,181.1c7.8,9.5,18.2,15.4,32,19.5C336.8,200.9,325.3,194.3,320,181.1z"/>
<path class="st7" d="M465.2,194.2c5.5,1.6,28,31.9,28.7,40.7C484.2,223.8,474.2,210.3,465.2,194.2z"/>
<path class="st25" d="M500.3,270.9c-15.7-7.8-5.4-29.3,6.8-22.4C520.2,256.2,519.9,278.3,500.3,270.9z"/>
<path class="st26" d="M500.3,270.9c-15.7-7.8-5.4-29.3,6.8-22.4C520.2,256.2,519.9,278.3,500.3,270.9z"/>
<path class="st19" d="M113.3,273.9c18.7,45.2,44.6,52.4,71.9,51.7l-2.4-7.1l6-3.4c-20.9-4.2-40.7-15.1-58.1-43.2"/>
<circle class="st11" cx="442.2" cy="189" r="2.3"/>
<path class="st27" d="M342.1,290.2c-6.8,4.2-15.2,6.6-24.3,5.9c-15.4-0.3-19-5.2-15.9-33"/>
<path class="st27" d="M333.6,277.6c1.7,22.5,3.9,44.6,2.6,60"/>
<path class="st27" d="M295.6,246.6c-11,2.4-22.2,5.2-33-2.5c16-23.8,18.3-44.1,5.7-52.2c-6.5-4-16.7-4.6-24.5,1.5"/>
</svg>
