<?xml version="1.0" encoding="utf-8"?>
<!-- Generator: Adobe Illustrator 21.1.0, SVG Export Plug-In . SVG Version: 6.00 Build 0)  -->
<svg version="1.1" id="Layer_1" xmlns="http://www.w3.org/2000/svg" xmlns:xlink="http://www.w3.org/1999/xlink" x="0px" y="0px"
	 viewBox="0 0 483 481" style="enable-background:new 0 0 483 481;" xml:space="preserve">
<style type="text/css">
	.st0{fill-rule:evenodd;clip-rule:evenodd;fill:#0095D6;}
	.st1{fill-rule:evenodd;clip-rule:evenodd;fill:#00B4E8;}
	.st2{fill-rule:evenodd;clip-rule:evenodd;fill:#0074BA;}
	.st3{fill-rule:evenodd;clip-rule:evenodd;fill:#F7C6C7;}
	.st4{fill:none;stroke:#822E2D;stroke-width:1.7001;stroke-linecap:round;stroke-linejoin:round;stroke-miterlimit:22.9256;}
	.st5{fill-rule:evenodd;clip-rule:evenodd;fill:#F3A5A6;}
	.st6{fill:none;stroke:#194B79;stroke-width:1.7001;stroke-linecap:round;stroke-linejoin:round;stroke-miterlimit:22.9256;}
	.st7{fill-rule:evenodd;clip-rule:evenodd;fill:#3B3A39;}
	.st8{fill:none;stroke:#1A1A18;stroke-width:1.7001;stroke-linecap:round;stroke-linejoin:round;stroke-miterlimit:22.9256;}
	.st9{fill-rule:evenodd;clip-rule:evenodd;fill:#9BD3EE;}
</style>
<path class="st0" d="M400.5,328.5c20.5,7.2,31.5,18.2,28.7,34.8c12.9,15.7,26.1,22.7,39.8,14.4c2.9-5.4,1.7-9.3-3.5-11.8
	c-8.3-16.4,1-36.4-24.9-49.2c-3.7-22.8-22.1-20.1-33.2-30.1c11.9-1.4,21.2,0.3,27.8,5c4.4-22.3-23.2-18-34.5-23.9l-72,17.3
	c1.1,39,21.7,45,43.3,45.8C380.3,331,391.2,339.7,400.5,328.5z"/>
<path class="st1" d="M400.3,305.4l1.2,2.6l-7.4-0.4l-19,2.1l-10.5-0.1c-4.7-1.5-9.3-8.8-13.9-21.9l20.4-6.5l18.2-7.6
	C402.1,283,403.7,293.8,400.3,305.4z"/>
<path class="st2" d="M439.7,324.8c0.7,5.7-3,12.7-5.6,16.1c-5.4,10.9,9.2,34.6,19.2,39.9c-7.5-1-15.5-6.2-24.1-17.5
	c1.3-5.1,0.5-10.6-2.5-16.7c-5.5-8.3-14.2-14.4-26.2-18.1c-6.4-14.7-26.5-10.6-37.3-19.2c15.2,2.3,28.5-3.8,38.4-1.3
	C400.5,321.3,427.8,349.2,439.7,324.8z"/>
<path class="st2" d="M353,183.7l-35.2,3.4l-24.5-26.3c-5.4-26.8,16.4-38.7,32-36.4C347.2,127.2,360,154.1,353,183.7z"/>
<path class="st0" d="M300,224.7c13.2,51.3,28.2,67.6,44.2,64.3l92.1-46.2l-2.7-18.6c-27.6-18.3-58.1-33.1-91.6-44
	c-0.5-6,0.2-10.9,2.2-14.7c-7.9,2.3-13.8,7-17.8,14c1.3-5.2,4.2-9.8,9.5-13.6c-9.3,2.1-16.4,7.2-21.4,15.4
	c-21.2-36.3-68.9-31-77.9-5.9C226.5,202,254.1,233.6,300,224.7z"/>
<path class="st2" d="M300,224.7c13.2,51.3,28.2,67.6,44.2,64.3c1.6,24.6,13.2,35.1,27.7,41.7c-23.5,0.9-43.1-9.5-43.1-45.9
	L314,264.3c-7.5-30.3-6.2-41.1-4.9-50.4c-34.2,0-67.7,0.4-72.5-38.6C226.5,202,254.1,233.6,300,224.7z"/>
<path class="st1" d="M314,264.4c26.4-43.3,80.8-8.4,118.9-23l3.4,1.4c-26.9,23-57.5,38.4-92.1,46.2C333.1,291.2,323,283,314,264.4z"
	/>
<path class="st2" d="M411,236.8c1.5,0,2.7,1.2,2.7,2.7s-1.2,2.7-2.7,2.7s-2.7-1.2-2.7-2.7S409.5,236.8,411,236.8z M416.6,229.4
	c1.5,0,2.7,1.2,2.7,2.7c0,1.5-1.2,2.7-2.7,2.7s-2.7-1.2-2.7-2.7C413.9,230.6,415.1,229.4,416.6,229.4z M405.4,228
	c1.7,0,3.1,1.4,3.1,3.1c0,1.7-1.4,3.1-3.1,3.1s-3.1-1.4-3.1-3.1C402.3,229.4,403.7,228,405.4,228z"/>
<path class="st3" d="M298.4,220.5c8.6-2,13.8-8,15.5-18.2c-11.2-3.3-18.7-23.2-36-26.9c-34.9-6.6-38.8,23.2-25,34.1
	C264.1,218.2,277.7,223.4,298.4,220.5z"/>
<path class="st2" d="M440.5,316.6l-1.7,16.4c15.1,11.7,13.6,27.2,26.6,32.8C457.5,350.7,468.4,330.9,440.5,316.6z"/>
<path class="st4" d="M400.5,328.5c24,8.9,30.3,21.1,28.7,34.8"/>
<path class="st5" d="M249.8,197.6c6.2,8,14.3,12.9,25.1,16.3C263,214.2,253.9,208.7,249.8,197.6z"/>
<path class="st6" d="M399.7,285.6c11.8,2,21.4-2.4,35.4,5.9c-1-4.5-2.6-8.7-8.3-10.3 M435.2,291.6c5.4-22.1-24.7-18.2-34.8-24.1
	 M361.6,268.2c11.4,3.7,23.3,4.4,36,0.7 M362.6,265.4c-1.5,1-2.6,3.7-1.3,5.5 M300,224.7c13.7,49.7,27.7,67.5,44.2,64.3
	c24.3-4.3,71.5-26.1,92.1-46.2 M314.5,181.3c7.1-10.2,14.3-14.2,21.4-15.4c-4.9,3.8-7.7,8.5-9.5,13.6c4.7-7.5,10.6-12.1,17.8-14
	c-2.5,5-2.8,12.6-1.5,22 M342.1,180.2c41.4,14.3,69.5,29,91.6,44 M293.3,160.8c-5.4-26.8,16.4-38.7,32-36.4
	c21.8,2.8,34.7,29.7,27.7,59.3 M313.9,202.3c-11.2-3.3-18.7-23.2-36-26.9c-34.9-6.6-38.8,23.2-25,34.1c11.1,8.7,24.8,13.9,45.5,11
	 M320,192.1c-21.2-50.7-74.3-41.7-83.3-16.7c-10.1,26.2,15.6,60.1,71.3,47.9 M398.8,330.2c-1.8-2.4-5.1-5.2-8.7-6.5 M356.7,302.7
	c13.8,18.7,33.7,7.8,43.7,25.8 M328.6,284.9c1.1,39,21.7,45,43.3,45.8c8.4,0.2,19.2,8.9,28.5-2.3 M395.7,332.5
	c-2.6-0.2-6.9-2.4-10.2-4.9 M388.2,298.9c5.9,0.9,10.3,4,13.3,9c-8.6-2.2-24.9,3.7-38.4,1.3 M389.3,273.5
	c12.8,9.5,14.4,20.4,11,31.9 M438.9,333.1c15.1,11.7,13.6,27.2,26.6,32.8c-8-15.1,2.9-35-24.9-49.2 M462.2,368.8
	c3.5,0.6,6,3.8,6.8,8.8c3.5-3.2,2.3-9.2-3.5-11.8 M469,377.6c-11.7,6.8-26,2.9-38.9-13.2 M385.5,201.1c-0.6,4.4-3.3,7.6-8.2,9.6
	 M365.4,197.3c1.8-1.5,3.8-2.2,6.1-2.3 M363.5,222.8c-1.2,4.4-3.6,7.9-7.2,10.5 M345.7,213.2c-2,3.3-2.3,6.3-1.2,9.1 M407.4,286.5
	c11.5,8.2,26.4,7.4,32.2,25.9c3.5,11.4,0.5,26.7-11.7,33.5"/>
<path class="st7" d="M436.3,242.8c-9.8-2.2-9.3-15.2-2.7-18.6C452.2,221,458.5,240.3,436.3,242.8z"/>
<path class="st8" d="M436.3,242.8c-9.8-2.2-9.3-15.2-2.7-18.6C452.2,221,458.5,240.3,436.3,242.8z"/>
<path class="st1" d="M422.7,297c7.1,4.8,11.8,11.5,15.3,20.5C437.5,307.4,432.3,300,422.7,297z M391.6,204.3
	c4.2-0.7,28.9,12.3,32.1,17.9C413.7,217.9,402.7,212.1,391.6,204.3z M303,189.1c-7.3-9.5-17-15.3-29.9-19.4
	C287.3,169.4,298.1,176,303,189.1z"/>
<path class="st0" d="M296.9,144.2c6.2-8,14.3-12.9,25.1-16.3C310.1,127.6,301,133.1,296.9,144.2z"/>
<path class="st9" d="M390.1,278.1c5,5,7.7,11.2,9.1,19C400.5,288.8,397.4,281.9,390.1,278.1z M323.4,253c9.1-6,17.9-12,34.5-11.1
	C345.6,239.1,330.1,241.3,323.4,253z"/>
</svg>
