<?xml version="1.0" encoding="utf-8"?>
<!-- Generator: Adobe Illustrator 21.1.0, SVG Export Plug-In . SVG Version: 6.00 Build 0)  -->
<svg version="1.1" id="Layer_1" xmlns="http://www.w3.org/2000/svg" xmlns:xlink="http://www.w3.org/1999/xlink" x="0px" y="0px"
	 viewBox="0 0 483 481" style="enable-background:new 0 0 483 481;" xml:space="preserve">
<style type="text/css">
	.st0{fill-rule:evenodd;clip-rule:evenodd;fill:#D9E4EB;}
	.st1{fill-rule:evenodd;clip-rule:evenodd;fill:#A35939;}
	.st2{fill:none;stroke:#822E2D;stroke-width:1.7001;stroke-linecap:round;stroke-linejoin:round;stroke-miterlimit:22.9256;}
	.st3{fill-rule:evenodd;clip-rule:evenodd;fill:#C5C5C6;}
	.st4{fill-rule:evenodd;clip-rule:evenodd;fill:#B0B1B2;}
	.st5{fill-rule:evenodd;clip-rule:evenodd;fill:#F6CC89;}
	.st6{fill-rule:evenodd;clip-rule:evenodd;fill:#E97514;}
	.st7{fill-rule:evenodd;clip-rule:evenodd;fill:#F6A840;}
	.st8{fill-rule:evenodd;clip-rule:evenodd;fill:#ED861A;}
	.st9{fill-rule:evenodd;clip-rule:evenodd;fill:#BD6E39;}
	.st10{fill-rule:evenodd;clip-rule:evenodd;fill:#D88F55;}
	.st11{fill-rule:evenodd;clip-rule:evenodd;fill:#EDB581;}
	.st12{fill-rule:evenodd;clip-rule:evenodd;fill:#FFFFFF;}
	.st13{fill:none;stroke:#6E6E6E;stroke-width:1.7001;stroke-linecap:round;stroke-linejoin:round;stroke-miterlimit:22.9256;}
	.st14{fill-rule:evenodd;clip-rule:evenodd;fill:#CAD44E;}
	.st15{fill:none;stroke:#575656;stroke-width:1.7001;stroke-linecap:round;stroke-linejoin:round;stroke-miterlimit:22.9256;}
	.st16{fill-rule:evenodd;clip-rule:evenodd;fill:#1A1A18;}
	.st17{fill-rule:evenodd;clip-rule:evenodd;fill:#ECECEC;}
	.st18{fill-rule:evenodd;clip-rule:evenodd;fill:#F7C6C7;}
	.st19{fill-rule:evenodd;clip-rule:evenodd;fill:#9B9B9B;}
	.st20{fill:none;stroke:#3B3A39;stroke-width:1.7001;stroke-linecap:round;stroke-linejoin:round;stroke-miterlimit:22.9256;}
	.st21{fill-rule:evenodd;clip-rule:evenodd;fill:#D8D9D9;}
	.st22{fill-rule:evenodd;clip-rule:evenodd;fill:#F3A5A6;}
	.st23{fill:none;stroke:#E30045;stroke-width:8.5004;stroke-linecap:round;stroke-linejoin:round;stroke-miterlimit:22.9256;}
	.st24{fill-rule:evenodd;clip-rule:evenodd;fill:#3B3A39;}
	.st25{fill:none;stroke:#1A1A18;stroke-width:1.7001;stroke-linecap:round;stroke-linejoin:round;stroke-miterlimit:22.9256;}
</style>
<path class="st0" d="M80.7,448.5c36.2,34.3,197.1,35.2,278.1,30.5c91.3-5.2,132.6-37,100.2-47.1c-8.2-2.6-24.8-5.5-33.8-20.6
	c-107.7-71.6,112-148.7,44.3-216.4c-16.2-16.2-81.2-34.1-64.8-74.4C476.9-56.8,246.7-12.7,126.6,88.4
	C84.8,123.5,45,176.2,33.8,221.6c-11.7,47.6-1.3,80.3,31.5,119.1C94.4,375.3,28,387.3,80.7,448.5z"/>
<path class="st1" d="M300.4,238.4c-28.9,4.9-53.9,4.2-75-2.2l-13-33.7c35.3,28.8,79.6,3.1,100,37.9L300.4,238.4z"/>
<path class="st2" d="M212.5,202.5c35.3,28.8,79.6,3.1,100,37.9c-9.5-0.8-15.8-2.7-26.9-6.7"/>
<path class="st2" d="M304,238.9c-25,3.3-60.7,5.3-78.6-2.7"/>
<path class="st3" d="M429.1,363.2l5,5.9c-4.3,6.7-11.2,9.9-20,10.5v-8.8C420.9,369.7,426.4,367.5,429.1,363.2z"/>
<path class="st3" d="M370.2,385.3c-11.7,0-21.3,9.5-21.3,21.3c0,11.7,9.5,21.3,21.3,21.3c11.7,0,21.3-9.5,21.3-21.3
	C391.4,394.8,381.9,385.3,370.2,385.3z M370.2,379c15.2,0,27.6,12.4,27.6,27.6c0,15.2-12.4,27.6-27.6,27.6
	c-15.2,0-27.6-12.4-27.6-27.6C342.6,391.3,354.9,379,370.2,379z"/>
<path class="st4" d="M414.1,370.8v8.9c-46,4.1-84.6,0-86.4-16C352.3,372.8,381.3,374.7,414.1,370.8z"/>
<path class="st5" d="M458.9,318.1l-23.7-26.5v-9.1C455.5,290,463.5,304.1,458.9,318.1z"/>
<path class="st6" d="M455,328.1l-124.7-28.4l-35.7-31.4c3.3-5.8,8.2-10.4,15.5-13.1l46.2,1.2l78.9,35.2
	C455.5,300.4,464.8,315.5,455,328.1z"/>
<path class="st5" d="M429.1,363.2l-6.7,5.3L313.9,315l-22.6-40.1l3.1-6.5c21.2,0.4,23.7,20.9,35.6,31.4l70.3,28.8
	C424.4,337.4,430.8,349.6,429.1,363.2z"/>
<path class="st7" d="M339,318.8l53.9,14.9c24.3,9.3,33.5,20.5,29.5,34.9c-28.7,6.7-68.5,5.1-94.8-4.8c-17.3-21.6-29.4-51.2-36.3-89
	C309.3,273.4,315.6,308.3,339,318.8z"/>
<path class="st8" d="M340.1,343.4c19.2,27.9,63.9,3.3,74,27.5c-28.3,3.3-60.1,2.8-86.4-7.1c-17.3-21.6-29.4-51.2-36.3-89
	C310.3,335.9,326.6,325.8,340.1,343.4z"/>
<path class="st9" d="M400.5,328.5c20.5,7.2,31.5,18.2,28.7,34.8c12.9,15.7,26.1,22.7,39.8,14.4c2.9-5.4,1.7-9.3-3.5-11.8
	c-8.3-16.4,1-36.4-24.9-49.2c-3.7-22.8-22.1-20.1-33.2-30.1c11.9-1.4,21.2,0.3,27.8,5c4.4-22.3-23.2-18-34.5-23.9l-72,17.3
	c1.1,39,21.7,45,43.3,45.8C380.3,331,391.2,339.7,400.5,328.5z"/>
<path class="st10" d="M400.3,305.4l1.2,2.6l-7.4-0.4l-19,2.1l-10.5-0.1c-4.7-1.5-9.3-8.8-13.9-21.9l20.4-6.5l18.2-7.6
	C402.1,283,403.7,293.8,400.3,305.4z"/>
<path class="st1" d="M439.7,324.8c0.7,5.7-3,12.7-5.6,16.1c-5.4,10.9,9.2,34.6,19.2,39.9c-7.5-1-15.5-6.2-24.1-17.5
	c1.3-5.1,0.5-10.6-2.5-16.7c-5.5-8.3-14.2-14.4-26.2-18.1c-6.4-14.7-26.5-10.6-37.3-19.2c15.2,2.3,28.5-3.8,38.4-1.3
	C400.5,321.3,427.8,349.2,439.7,324.8z"/>
<path class="st1" d="M353,183.7l-35.2,3.4l-24.5-26.3c-5.4-26.8,16.4-38.7,32-36.4C347.2,127.2,360,154.1,353,183.7z"/>
<polygon class="st3" points="424.9,409.4 393,380.9 400.9,380.5 428.6,405.3 "/>
<polygon class="st3" points="429.2,407.3 405.1,430.9 403.6,423.2 424.2,403.3 "/>
<path class="st3" d="M425.4,412.8c3.4,0,6.2-2.8,6.2-6.2c0-3.4-2.8-6.2-6.2-6.2s-6.2,2.8-6.2,6.2C419.2,410,421.9,412.8,425.4,412.8
	z"/>
<path class="st10" d="M149.3,208.5l0.6-26.3l-3.1-0.8C129.1,192.5,129.5,196.5,149.3,208.5z"/>
<path class="st3" d="M425.4,385.3c-11.7,0-21.3,9.5-21.3,21.3c0,11.7,9.5,21.3,21.3,21.3c11.7,0,21.3-9.5,21.3-21.3
	C446.6,394.8,437.1,385.3,425.4,385.3z M425.4,379c15.2,0,27.6,12.4,27.6,27.6c0,15.2-12.4,27.6-27.6,27.6
	c-15.2,0-27.6-12.4-27.6-27.6C397.8,391.3,410.1,379,425.4,379z"/>
<path class="st10" d="M22.7,436l17.6-3.6C28.8,422.7,25.7,426.2,22.7,436z"/>
<path class="st10" d="M73.8,426.1l23-6.2C83.3,412.2,80.7,413.2,73.8,426.1z"/>
<path class="st10" d="M109.7,415.4c7.6-3.3,13.7-7.9,18.3-13.7C113.3,396.2,107.3,401.7,109.7,415.4z"/>
<path class="st10" d="M135,389.8l8.4-22.9C131.7,370.1,124.5,376.2,135,389.8z"/>
<path class="st10" d="M146.9,349.6l2.6-23.3C135.7,334.5,132.9,337.4,146.9,349.6z"/>
<path class="st10" d="M150.4,307.9l-0.1-27.5C130.3,291.6,132.4,299.4,150.4,307.9z"/>
<path class="st10" d="M150.2,261l-0.7-30.5C129,242.1,130.5,252.3,150.2,261z"/>
<path class="st9" d="M340.2,437.8l-6.6-0.6c-15.4,4.1-32.7,4.3-50.5,3.5l-21.8-18.5l16.6-100.2c28,16.1,20.6,52.4,3.2,94.4
	c38.6-3.2,60.4,4.5,65.4,23.3L340.2,437.8z"/>
<path class="st1" d="M331.4,437.8l-7.8,1.4c-16.9,1.6-31.5,2.2-49.3,1.4l-21.8-18.5L269.1,322c28,16.1,22.4,55.6,0.3,103.3
	c38.6-3.2,38,4.3,48.4,7.8L331.4,437.8z"/>
<path class="st9" d="M203.6,319.2c17.4-5.1,11.3,33.7-16.3,98.4l74.3,4.4c13,3.8,21,12.6,24,26.4l-4.4-1.8l-14-0.8
	c-48,5.8-92.1,6.7-127.3-3.1C109.4,458,45.9,440,1.4,442.4c42-14.8,107.5-13.7,126.7-40.8c11.6-16,19.2-41.2,21.6-75.5
	c2.2-45.2-0.9-95.2,0.3-144.1l8.6,0.6l20.7-2.5c14,36.7,11.6,64.6,73.2,66.2l3.2,36.4C240.6,284.7,197.9,304.4,203.6,319.2z"/>
<path class="st1" d="M182.5,286.6l18.2,21.5l-11.2,17.3L177,331l-9.7,9.4c17.8,0.8,14.6,43.7,2.4,77.2c-8.5,17.4,24.8,27,78,22.6
	l19.3,5.7c-48,5.8-92.1,6.7-127.3-3.1c-30.4,15.4-93.9-2.6-138.4-0.2c42-14.8,91.3,16.4,130.2-34.5c11.6-16,17.9-48.1,18.2-83.3
	c1.9-51.1-1.4-94.4,0.2-142.6l15.1-0.2c-5.2,14.2-6.2,59.2-0.4,73.2c7.4,32.8,54.8,16.3,83.6,5.1l-1.9,29.3
	C226.2,292.1,213.7,290.4,182.5,286.6z"/>
<path class="st9" d="M302.5,111.5c14.9-4.5,28.1-6.4,39.4-5.6c17.4,4.5,26.5-0.4,27.2-14.7c3.2-10.3,30.1-14.7,9.7-31l-7-6.6
	c-7.7-10-16.9-12.4-29.6,2.2c-31.2-0.7-66.5,2-111,12.6c-29.6-46.3-59.4-51.7-57.1-22.4c-29.9-20.3-50.5-4.2-47.3,60.9
	c-28.8,26.4-16.6,61.1,3.9,70.1C192.8,203.6,256.1,131.2,302.5,111.5z"/>
<path class="st1" d="M138.5,101l-11.7,5.9c-3.2-65.1,17.4-81.1,47.3-60.9C135.1,27.2,128.6,67.5,138.5,101z M302.5,111.5
	c14.9-4.5,28.1-6.4,39.4-5.6c17.4,4.5,26.5-0.4,27.2-14.7c3.2-10.3-10,20.7-30.5,4.4c-44.5,5.5-95,32.3-150.5,41.6
	c-13.9,1.2-28.1-3.5-42.6-14.3c-19.8,14.4-21.6,40.5-5,57.4C201,193,239.1,143,302.5,111.5z"/>
<path class="st10" d="M342.2,55.9c-42.5-1.4-88.7,5.6-138.6,21.1l45.5-8l-2,3.7c7-6.5,20.9-10,41.7-10.6l-4.9,6.3
	c5.8-6.8,20.4-8.2,49.8-6.9l-9,4.6c-6.7,6.1-5.9,14.7-1.6,24.4c-0.6-22.3,7.8-19.6,18.8-27.6c7.6-5.2,13.1-17.4,22.9-15.6
	C357,40.9,349.6,46.7,342.2,55.9z"/>
<path class="st11" d="M223.7,160.9c-12.9,7.8-32.3,16.7-44.6,19.4c-3.9,13.7,5.1,31.3,12,63c19.9,0,47.4-2.3,61.2,3.1l3.2,36.4
	c-21.8,2.8-27.9,14.7-57.6,10.7c3.8,17.9,2.3,16.7,6.8,29c12.8,3.5,9.3,53.5-17.4,95.2c12.8,20.8,46-0.2,74,4.7
	c20.9-19.6,29.5-71.4,16-95.9c1.7-18.1-0.1-44.6-13.8-74.9c1.4-8.6-6.8-30.1-18.8-44.6C244.8,193.4,238,178.6,223.7,160.9z"/>
<path class="st10" d="M226,163.8l-2.2-2.9c-16.4,9.8-31.3,16.3-44.6,19.4c-5.4,18.1-4.5,31.4-0.9,42.6c-2.1,8.6-2.1,16.1,0,22.5
	c26,15.2,51.5,6,70.2,1.9l0.3,20.2c-22.8,13.7-44.9,20-66.3,19.1c11.5,19.1,9.2,27.5,7,38.8c24.8-2,19.9,38.2-2.2,92.2
	c12.8,20.8,46-0.2,74,4.7c19.6-18.3,23.6-82.2,10.4-97.4c1.7-18.1,0-60.5-14.3-74.4c5.2-8.5-5.7-33.7-13.5-40.6
	C248.5,206,237.2,179,226,163.8z"/>
<path class="st12" d="M340.2,106.4c6.1,0.1,13.3,1,18.4,0.3c-0.5,7.9-1.5,11.7-3,11.8C352.8,118.9,347.1,114,340.2,106.4z"/>
<path class="st13" d="M358.6,106.7c-0.5,7.9-1.5,11.7-3,11.8c-2.7,0.6-8.4-4.4-15.4-12"/>
<path class="st12" d="M369.1,91.2l11.4-10.6c0.6,9.1-0.1,17.8-1.5,17.8C376.6,98.9,373.5,95.9,369.1,91.2z"/>
<path class="st13" d="M380.5,80.6c0.6,9.1-0.1,17.8-1.5,17.8c-2.4,0.5-5.6-2.4-10-7.2"/>
<path class="st11" d="M241.2,196.8c-18.2-2.9-47,10.7-50.4,22.7c13.3-12.5,27.9-18.7,51.8-18.5L241.2,196.8z"/>
<path class="st11" d="M272,320.5c-17.4-4.5-45.8,2.9-54.8,14c17.1-7.9,42.9-13.3,57.1-8.9L272,320.5z"/>
<path class="st11" d="M222.5,387.4c18.6-6.8,38.3-5.8,49.1-3.5C274,371.6,223.3,377.5,222.5,387.4z"/>
<path class="st10" d="M246.1,424.9c11-0.4,20.8,2.9,31.2,9.6C269.2,424.4,258.2,420.7,246.1,424.9z"/>
<path class="st10" d="M170.1,245c12.8,8.7,29,13,44.4,12.9C198.9,262.2,180.5,258,170.1,245z"/>
<path class="st10" d="M201.9,358.1c1.7-20.1-6.7-29.8-14.7-30C197.8,322.7,206.7,334,201.9,358.1z"/>
<path class="st10" d="M123.4,114.7c-7.1,11.7-9.4,24.4-8.4,39.8C108.9,139.4,111.5,125.3,123.4,114.7z"/>
<path class="st2" d="M187.3,417.5c10.6,19.5,46.9,0.2,74,4.7c12.6,2.9,20.7,11.6,24.2,26.2c-6.6-2.3-13.9-6.5-21.8-12.6"/>
<path class="st2" d="M281.1,446.6c-11.8,0.4-22.9-1.7-33.4-6.5"/>
<path class="st2" d="M139.7,442.7c22.6,5.8,54.9,10.9,127.3,3.1"/>
<path class="st2" d="M340.2,437.8c-8.5-0.4-17.7-2.7-27.6-6.9"/>
<path class="st2" d="M283,440.6c20.7,0.5,41.8-1.1,50.7-3.5"/>
<path class="st2" d="M271.4,383.9c-14.3-2.1-30.1-2-43.6,1.5"/>
<path class="st12" d="M147.4,97.8c14.5-3.7,32.3-3.6,43.4-11c-10-27.2-27-38.5-38.5-35.1C140.6,57.3,139,78.7,147.4,97.8z"/>
<path class="st2" d="M128,401.7c-13.3-4.2-19.4-3.8-18.3,13.7"/>
<path class="st2" d="M96.8,419.9c-13.4-7.8-17.3-6.1-23,6.2"/>
<path class="st2" d="M40.3,432.4c-10.9-10-14.1-6.4-17.6,3.6"/>
<path class="st12" d="M211.1,42.9l9.8,11l10.3,14.5L203.6,77C188.1,43.3,194.7,32.3,211.1,42.9z"/>
<path class="st14" d="M208.2,75.4l22.3-6.6c-7.1-15.1-16.3-24.8-23.3-22.5C200.9,48.8,200.7,60.9,208.2,75.4z"/>
<path class="st14" d="M157.9,95.4c11-2.9,22.2-1.9,32.9-8.6c-7.9-21.6-21.5-30.6-30.6-27.9C150.9,63.3,151.2,80.2,157.9,95.4z"/>
<path class="st2" d="M231.2,68.4c-29.6-46.3-59.4-51.7-57.1-22.4c-29.9-20.3-50.5-4.2-47.3,60.9c-29.4,23.1-16.5,61.1,4,70.1
	c62,26.7,125.3-45.6,171.7-65.4"/>
<path class="st2" d="M323,90.3c-11.5-29.4,9.7-24.3,19.1-34.5c7.1-7.2,13.6-15.2,22.6-8.8c5.4,2.7,9.1,11,14,13.1
	c19.3,13.7-5.3,22.8-9.7,31"/>
<path class="st1" d="M338.3,71.7c0.9,4.4-0.6,19.4,7.2,14.5C351.8,81.3,343.1,73.8,338.3,71.7z"/>
<path class="st2" d="M338.3,71.7c0.9,4.4-0.6,19.4,7.2,14.5C351.8,81.3,343.1,73.8,338.3,71.7z"/>
<path class="st1" d="M357.7,53.9c1.7,3.6,3.7,17,9.4,11.2C371.5,59.4,362.4,54.7,357.7,53.9z"/>
<path class="st2" d="M357.7,53.9c1.7,3.6,3.7,17,9.4,11.2C371.5,59.4,362.4,54.7,357.7,53.9z"/>
<path class="st12" d="M157.2,131.2c7.2,2.3,14.2,4.1,20.9,5.4c-2.4,8.3-10.2,18.7-11.4,18.2C164.3,154.4,158.4,139.1,157.2,131.2z"
	/>
<path class="st15" d="M178,136.6c-2.4,8.3-10.2,18.7-11.4,18.2c-2.3-0.4-8.2-15.7-9.5-23.6"/>
<path class="st12" d="M237.1,129.6l13-3.2c-0.3,7.3-1.1,11-2.5,11C245.1,137.9,241.8,134.6,237.1,129.6z"/>
<path class="st15" d="M250,126.4c-0.3,7.3-1.1,11-2.5,11c-2.4,0.5-5.9-2.8-10.5-7.8"/>
<path class="st2" d="M256.6,62.8c-4,1.8-8.7,6.5-9.6,9.9"/>
<path class="st2" d="M295.3,57.6c-4.6,2.1-10.2,7.1-11.5,10.7"/>
<path class="st2" d="M155.2,120.4c-10.5-2-14,7.1-10,12.3"/>
<path class="st2" d="M190.8,86.8c-10-27.2-27-38.5-38.5-35.1c-11.7,5.6-13.4,27-4.9,46.2"/>
<path class="st2" d="M203.6,77c-15.5-33.7-8.9-44.7,7.6-34.1"/>
<ellipse transform="matrix(0.9256 -0.3785 0.3785 0.9256 -18.2421 73.1175)" class="st16" cx="176.9" cy="83" rx="9.2" ry="9.2"/>
<ellipse transform="matrix(0.9255 -0.3786 0.3786 0.9255 -17.3684 70.0285)" class="st12" cx="169.4" cy="79.2" rx="4.1" ry="4.1"/>
<ellipse transform="matrix(0.9256 -0.3785 0.3785 0.9256 -14.6876 64.4501)" class="st12" cx="156.6" cy="69.6" rx="5.4" ry="5.4"/>
<ellipse transform="matrix(0.9256 -0.3785 0.3785 0.9256 -8.2623 86.8735)" class="st16" cx="216.9" cy="64.5" rx="7.8" ry="7.8"/>
<ellipse transform="matrix(0.9256 -0.3784 0.3784 0.9256 -7.8806 84.2277)" class="st12" cx="210.4" cy="62.2" rx="3.5" ry="3.5"/>
<path class="st2" d="M261.6,238.9c2,5.7,2.9,10.5,1.9,12.5c11.1,22.3,17.4,61.4,13.8,74.9c13.4,17,4.4,80.2-16,95.9 M251.2,216.5
	c1.4,2.5,4.8,8.2,6.2,11.1 M223.7,160.9c4.9,6.2,8.7,11.8,11.8,17"/>
<path class="st2" d="M237.8,201c-11.7,0.7-30.5,5.6-40.9,13.5"/>
<path class="st2" d="M277.3,326.4c-16.8-4.8-33.9-2.1-51.6,5.1"/>
<path class="st2" d="M182.5,286.6c8.9,15.7,9.9,24.5,7,38.8"/>
<path class="st2" d="M167.4,340.4c12.9-15.5,27-19.7,34.9-9.7c10.2,16.6-4.4,66.7-17.4,92.1"/>
<path class="st2" d="M278,322.1c28,16.1,20.5,52.4,3.2,94.4c38.6-3.2,60.4,4.5,65.4,23.3c-6.3-1-14.5-5.2-24.7-12.6"/>
<path class="st2" d="M149.9,182.1c-3.7,77,12.5,167.4-20.8,218.7c-20.8,28.4-92.6,26.8-127.8,41.7c51.2-4.2,126.1,25.5,153.5-12.6"
	/>
<path class="st2" d="M146.4,181.6c-15.2,8.9-18.6,14.8,2.9,26.9"/>
<path class="st2" d="M149.5,230.5c-20.6,12.1-19.7,20.2,0.7,30.5"/>
<path class="st9" d="M300,224.7c13.2,51.3,28.2,67.6,44.2,64.3l92.1-46.2l-2.7-18.6c-27.6-18.3-58.1-33.1-91.6-44
	c-0.5-6,0.2-10.9,2.2-14.7c-7.9,2.3-13.8,7-17.8,14c1.3-5.2,4.2-9.8,9.5-13.6c-9.3,2.1-16.4,7.2-21.4,15.4
	c-21.2-36.3-68.9-31-77.9-5.9C226.5,202,254.1,233.6,300,224.7z"/>
<path class="st1" d="M300,224.7c13.2,51.3,28.2,67.6,44.2,64.3c1.6,24.6,13.2,35.1,27.7,41.7c-23.5,0.9-43.1-9.5-43.1-45.9
	L314,264.3c-7.5-30.3-6.2-41.1-4.9-50.4c-34.2,0-67.7,0.4-72.5-38.6C226.5,202,254.1,233.6,300,224.7z"/>
<path class="st2" d="M150.6,280.3c-21.5,12.6-16.3,19-0.1,27.6"/>
<path class="st2" d="M149.5,326.3c-13.2,7.5-18.1,9.9-2.6,23.3"/>
<path class="st2" d="M143.3,366.9c-17.8,4.6-16.1,12.5-8.2,22.9"/>
<path class="st2" d="M146.4,124.5c45.3,37,138.8-19.4,195.4-18.7c5.8,1,16.1,3.8,22.2-2.6c7.9-6.5,3.1-18.7,8.1-25"/>
<path class="st10" d="M136.5,57.9c7.4-10.1,16.7-17.9,31.7-9.4C153.2,34.5,141.9,43.4,136.5,57.9z"/>
<path class="st10" d="M176.4,42.6c2.1-8.3,9.1-14.7,21.4-8.2C185.4,25.3,176.2,30.3,176.4,42.6z"/>
<path class="st10" d="M314,264.4c26.4-43.3,80.8-8.4,118.9-23l3.4,1.4c-26.9,23-57.5,38.4-92.1,46.2C333.1,291.2,323,283,314,264.4z
	"/>
<line class="st2" x1="178.3" y1="245.4" x2="170.7" y2="239.8"/>
<path class="st2" d="M293.3,160.8c-5.4-26.8,16.4-38.7,32-36.4c21.8,2.8,34.7,29.7,27.7,59.3"/>
<path class="st2" d="M314.5,181.3c7.1-10.2,14.3-14.2,21.4-15.4c-4.9,3.8-7.7,8.5-9.5,13.6c4.7-7.5,10.6-12.1,17.8-14
	c-2.5,5-2.8,12.6-1.5,22"/>
<path class="st2" d="M342.1,180.2c41.4,14.3,69.5,29,91.6,44"/>
<path class="st2" d="M361.6,268.2c11.4,3.7,23.3,4.4,36,0.7"/>
<path class="st2" d="M363.5,222.8c-1.2,4.4-3.6,7.9-7.2,10.5"/>
<path class="st2" d="M385.5,201.1c-0.6,4.4-3.3,7.6-8.2,9.6"/>
<path class="st2" d="M345.7,213.2c-2,3.3-2.3,6.3-1.2,9.1"/>
<path class="st2" d="M365.4,197.3c1.8-1.5,3.8-2.2,6.1-2.3"/>
<path class="st2" d="M362.6,265.4c-1.5,1-2.6,3.7-1.3,5.5"/>
<path class="st1" d="M411,236.8c1.5,0,2.7,1.2,2.7,2.7s-1.2,2.7-2.7,2.7s-2.7-1.2-2.7-2.7S409.5,236.8,411,236.8z M416.6,229.4
	c1.5,0,2.7,1.2,2.7,2.7c0,1.5-1.2,2.7-2.7,2.7s-2.7-1.2-2.7-2.7C413.9,230.6,415.1,229.4,416.6,229.4z M405.4,228
	c1.7,0,3.1,1.4,3.1,3.1c0,1.7-1.4,3.1-3.1,3.1s-3.1-1.4-3.1-3.1C402.3,229.4,403.7,228,405.4,228z"/>
<path class="st17" d="M348.5,452.3c13.6,0,24.7-11.3,24.7-25.2c0-13.9-11.1-25.2-24.7-25.2c-13.6,0-24.7,11.3-24.7,25.2
	C323.9,441,334.9,452.3,348.5,452.3z"/>
<path class="st17" d="M405.3,451.3c13.6,0,24.7-11.3,24.7-25.2c0-13.9-11.1-25.2-24.7-25.2c-13.6,0-24.7,11.3-24.7,25.2
	C380.7,440,391.7,451.3,405.3,451.3z"/>
<path class="st18" d="M298.4,220.5c8.6-2,13.8-8,15.5-18.2c-11.2-3.3-18.7-23.2-36-26.9c-34.9-6.6-38.8,23.2-25,34.1
	C264.1,218.2,277.7,223.4,298.4,220.5z"/>
<path class="st2" d="M313.9,202.3c-11.2-3.3-18.7-23.2-36-26.9c-34.9-6.6-38.8,23.2-25,34.1c11.1,8.7,24.8,13.9,45.5,11"/>
<path class="st2" d="M389.3,273.5c12.8,9.5,14.4,20.4,11,31.9"/>
<path class="st1" d="M440.5,316.6l-1.7,16.4c15.1,11.7,13.6,27.2,26.6,32.8C457.5,350.7,468.4,330.9,440.5,316.6z"/>
<path class="st2" d="M388.2,298.9c5.9,0.9,10.3,4,13.3,9c-8.6-2.2-24.9,3.7-38.4,1.3"/>
<path class="st2" d="M407.4,286.5c11.5,8.2,26.4,7.4,32.2,25.9c3.6,11.8,0.3,27.7-12.9,34.1"/>
<path class="st2" d="M399.7,285.6c11.8,2,21.4-2.4,35.4,5.9c-1-4.5-2.6-8.7-8.3-10.3"/>
<path class="st2" d="M435.2,291.6c5.4-22.1-24.7-18.2-34.8-24.1"/>
<path class="st2" d="M438.9,333.1c15.1,11.7,13.6,27.2,26.6,32.8c-8-15.1,2.9-35-24.9-49.2"/>
<path class="st2" d="M462.2,368.8c3.5,0.6,6,3.8,6.8,8.8c3.5-3.2,2.3-9.2-3.5-11.8"/>
<path class="st2" d="M398.8,330.2c-1.8-2.4-5.1-5.2-8.7-6.5 M356.7,302.7c13.8,18.7,33.7,7.8,43.7,25.8 M328.6,284.9
	c1.1,39,21.7,45,43.3,45.8c8.4,0.2,19.2,8.9,28.5-2.3 M395.7,332.5c-2.6-0.2-6.9-2.4-10.2-4.9"/>
<path class="st19" d="M348.2,404.1c-12.2,0-22,9.9-22,22c0,12.2,9.9,22,22,22c12.2,0,22-9.9,22-22
	C370.2,414,360.3,404.1,348.2,404.1z M348.2,397.6c15.8,0,28.6,12.8,28.6,28.6s-12.8,28.6-28.6,28.6s-28.6-12.8-28.6-28.6
	S332.4,397.6,348.2,397.6z"/>
<path class="st20" d="M348.2,404.1c-12.2,0-22,9.9-22,22c0,12.2,9.9,22,22,22c12.2,0,22-9.9,22-22
	C370.2,414,360.3,404.1,348.2,404.1z M348.2,397.6c15.8,0,28.6,12.8,28.6,28.6s-12.8,28.6-28.6,28.6s-28.6-12.8-28.6-28.6
	S332.4,397.6,348.2,397.6z"/>
<path class="st19" d="M405.3,404.1c-12.2,0-22,9.9-22,22c0,12.2,9.9,22,22,22c12.2,0,22-9.9,22-22
	C427.4,414,417.5,404.1,405.3,404.1z M405.3,397.6c15.8,0,28.6,12.8,28.6,28.6s-12.8,28.6-28.6,28.6s-28.6-12.8-28.6-28.6
	S389.6,397.6,405.3,397.6z"/>
<path class="st20" d="M405.3,404.1c-12.2,0-22,9.9-22,22c0,12.2,9.9,22,22,22c12.2,0,22-9.9,22-22
	C427.4,414,417.5,404.1,405.3,404.1z M405.3,397.6c15.8,0,28.6,12.8,28.6,28.6s-12.8,28.6-28.6,28.6s-28.6-12.8-28.6-28.6
	S389.6,397.6,405.3,397.6z"/>
<path class="st13" d="M414.1,379.7c10.3-1.1,17-4.7,20-10.6"/>
<path class="st3" d="M306.6,246l3.4,9.1c-9.7,5.2-15.7,11.8-18.5,19.7c-5.5-23.4-13.9-35.3-26.6-36.5c-13.3-1.3-22.9,13.9-8.8,23.3
	c3.7,1.7,0.8,10-4.2,7.8c-24.1-10.9-14.4-45.5,14.7-42.1c15.2,1.7,23.9,13.8,28.1,27.6C297.9,251.1,302.3,248.1,306.6,246z"/>
<path class="st2" d="M327.7,363.8c-12.8-12.8-25.1-36.2-36.3-89c1.9-6.9,7.8-13.5,18.5-19.7"/>
<path class="st2" d="M291.5,274.8c17.8-1.4,24.2,33.5,47.6,43.9"/>
<path class="st2" d="M294.5,268.3c19.4-0.6,23.8,21,35.7,31.5"/>
<path class="st2" d="M392.9,333.7c26,9.9,32.5,23.3,29.5,34.9"/>
<path class="st2" d="M400.5,328.5c24,8.9,30.3,21.1,28.7,34.8"/>
<path class="st2" d="M435.2,291.6c20.3,8.8,29.6,24,19.8,36.6"/>
<path class="st2" d="M435.1,282.4c20.3,7.5,28.4,21.7,23.8,35.7"/>
<path class="st13" d="M291.5,274.8c-5.5-23.4-13.9-35.3-26.6-36.5c-13.3-1.3-22.9,13.9-8.8,23.3c3.7,1.7,0.8,10-4.2,7.8
	c-24.1-10.9-14.4-45.5,14.7-42.1c15.2,1.7,23.9,13.8,28.1,27.6c3.3-3.9,7.7-6.8,12-8.9"/>
<path class="st2" d="M340.1,343.4c3.7,7.5,12.1,12.1,25.3,13.7"/>
<polygon class="st21" points="354.3,423.8 406.2,380.3 396.9,380.8 350.2,419.9 "/>
<line class="st13" x1="396.8" y1="380.8" x2="350.2" y2="419.9"/>
<line class="st13" x1="406.2" y1="380.3" x2="354.3" y2="423.8"/>
<polygon class="st21" points="399.1,424.3 346.7,377.7 357.2,379.3 402.8,420.2 "/>
<line class="st13" x1="346.7" y1="377.7" x2="399.1" y2="424.3"/>
<path class="st7" d="M348.2,432.7c3.6,0,6.5-2.9,6.5-6.5c0-3.6-2.9-6.5-6.5-6.5c-3.6,0-6.5,2.9-6.5,6.5
	C341.7,429.8,344.6,432.7,348.2,432.7z"/>
<path class="st2" d="M348.2,432.7c3.6,0,6.5-2.9,6.5-6.5c0-3.6-2.9-6.5-6.5-6.5c-3.6,0-6.5,2.9-6.5,6.5
	C341.7,429.8,344.6,432.7,348.2,432.7z"/>
<line class="st13" x1="357.6" y1="379.7" x2="402.8" y2="420.2"/>
<path class="st13" d="M414.1,370.8v8.9c-46,4.1-84.6,0-86.4-16C352.3,372.8,381.3,374.7,414.1,370.8z"/>
<path class="st7" d="M405.3,432.7c3.6,0,6.5-2.9,6.5-6.5c0-3.6-2.9-6.5-6.5-6.5c-3.6,0-6.5,2.9-6.5,6.5
	C398.8,429.8,401.7,432.7,405.3,432.7z"/>
<path class="st2" d="M405.3,432.7c3.6,0,6.5-2.9,6.5-6.5c0-3.6-2.9-6.5-6.5-6.5c-3.6,0-6.5,2.9-6.5,6.5
	C398.8,429.8,401.7,432.7,405.3,432.7z"/>
<path class="st10" d="M422.7,297c7.1,4.8,11.8,11.5,15.3,20.5C437.5,307.4,432.3,300,422.7,297z"/>
<path class="st11" d="M323.4,253c9.1-6,17.9-12,34.5-11.1C345.6,239.1,330.1,241.3,323.4,253z"/>
<path class="st9" d="M296.9,144.2c6.2-8,14.3-12.9,25.1-16.3C310.1,127.6,301,133.1,296.9,144.2z"/>
<path class="st10" d="M303,189.1c-7.3-9.5-17-15.3-29.9-19.4C287.3,169.4,298.1,176,303,189.1z"/>
<path class="st22" d="M249.8,197.6c6.2,8,14.3,12.9,25.1,16.3C263,214.2,253.9,208.7,249.8,197.6z"/>
<path class="st10" d="M391.6,204.3c4.2-0.7,28.9,12.3,32.1,17.9C413.7,217.9,402.7,212.1,391.6,204.3z"/>
<path class="st1" d="M235.8,250c13-4.2,20.6-1.5,24.5,6c-2.7,7.3-9.6,12.1-16,14.4l-3-7.5L235.8,250z"/>
<path class="st9" d="M235.8,250c13-4.2,20.6-1.5,24.5,6c-2.7,7.3-12.6,4.6-19,6.9l-6.8-2.3L235.8,250z"/>
<circle class="st23" cx="348.2" cy="426.2" r="28.6"/>
<circle class="st23" cx="405.9" cy="426.1" r="28.6"/>
<path class="st2" d="M126.8,106.9c28.9-17.4,49.3-8.9,66.4-21.8"/>
<path class="st2" d="M342.2,55.9c-52-0.5-98.2,6.5-138.6,21.1"/>
<ellipse transform="matrix(0.9257 -0.3784 0.3784 0.9257 -5.0402 81.0979)" class="st12" cx="203.9" cy="53.4" rx="4.7" ry="4.7"/>
<path class="st11" d="M390.1,278.1c5,5,7.7,11.2,9.1,19C400.5,288.8,397.4,281.9,390.1,278.1z"/>
<path class="st13" d="M414.1,370.8c6.8-1.1,12.3-3.3,15-7.6"/>
<path class="st2" d="M469,377.6c-12,6.9-26.6,2.7-39.8-14.4"/>
<path class="st2" d="M260.2,256.1c-1.5,4.3-5.6,8.1-11.5,11.5"/>
<path class="st2" d="M246.2,254.7c4.3-1.2,10.5-1.4,14,1.4c-3.5-9.2-15.7-8.9-22.1-6.8c-14.9,5-37.1,9.3-59.9-3.8
	c-1.3-7.1-1.7-14.5,0-22.5c-4.2-13.2-3.9-27.4,0.9-42.6"/>
<path class="st2" d="M300,224.7c13.7,49.7,27.7,67.5,44.2,64.3c24.3-4.3,71.5-26.1,92.1-46.2"/>
<path class="st2" d="M320,192.1c-21.2-50.7-74.3-41.7-83.3-16.7c-10.1,26.2,15.6,60.1,71.3,47.9"/>
<path class="st2" d="M248.7,267.5c-12.1,8.6-42.7,22.8-70.2,18.6"/>
<line class="st2" x1="257.4" y1="260.7" x2="248.6" y2="261.7"/>
<path class="st23" d="M256,261.6c-14.1-9.4-4.5-24.6,8.8-23.3c12.7,1.2,21.1,13.1,26.6,36.5c3.1-6.5,7.1-12.3,14.9-17.4"/>
<path class="st24" d="M436.3,242.8c-9.8-2.2-9.3-15.2-2.7-18.6C452.2,221,458.5,240.3,436.3,242.8z"/>
<path class="st25" d="M436.3,242.8c-9.8-2.2-9.3-15.2-2.7-18.6C452.2,221,458.5,240.3,436.3,242.8z"/>
</svg>
