<?xml version="1.0" encoding="utf-8"?>
<!-- Generator: Adobe Illustrator 21.1.0, SVG Export Plug-In . SVG Version: 6.00 Build 0)  -->
<svg version="1.1" id="Layer_1" xmlns="http://www.w3.org/2000/svg" xmlns:xlink="http://www.w3.org/1999/xlink" x="0px" y="0px"
	 viewBox="0 0 506 421" style="enable-background:new 0 0 506 421;" xml:space="preserve">
<style type="text/css">
	.st0{fill-rule:evenodd;clip-rule:evenodd;fill:#3B3A39;}
	.st1{fill-rule:evenodd;clip-rule:evenodd;fill:#0095D6;}
	.st2{fill-rule:evenodd;clip-rule:evenodd;fill:#0074BA;}
	.st3{fill-rule:evenodd;clip-rule:evenodd;fill:#00B4E8;}
	.st4{fill-rule:evenodd;clip-rule:evenodd;fill:#F7C6C7;}
	.st5{fill-rule:evenodd;clip-rule:evenodd;fill:#FFFFFF;}
	.st6{fill-rule:evenodd;clip-rule:evenodd;fill:#1A1A18;}
	.st7{fill:none;stroke:#194B79;stroke-width:1.7011;stroke-linecap:round;stroke-linejoin:round;stroke-miterlimit:22.9256;}
	.st8{fill-rule:evenodd;clip-rule:evenodd;fill:#9BD3EE;}
	.st9{fill-rule:evenodd;clip-rule:evenodd;fill:#F3A5A6;}
	.st10{fill:none;stroke:#1A1A18;stroke-width:1.7011;stroke-linecap:round;stroke-linejoin:round;stroke-miterlimit:22.9256;}
</style>
<path class="st0" d="M172.2,288.5c15.5,4.3,22.2-11.2,7-20.9C166.3,267.4,162.5,282.9,172.2,288.5z"/>
<path class="st1" d="M122.5,289.3c-19.5-0.6-38.6-2.8-57.2-7.4l1.2,81l5.2,45.9c8.4,6.3,14.6,8.3,17.7,4c4.2-3.3,3.1-7.3-3.4-12.1
	c-4.8-13.8,5.8-23.4,8.7-35.1h7.2l7.5,31.8c1.3,7.9,5.1,11.3,11.3,10.2l3.2-0.4l3.5-2.3c3.9-3.8,3.1-7.6-2.3-11.3
	c-2.9-3-3.7-8.3-2.3-15.7l6.1-25.8c7.3-11.6,7.7-21.9,1.3-30.8C132.3,310.5,131.1,299.8,122.5,289.3z"/>
<path class="st2" d="M126.1,355.6c-4.7,6.8-10.3,11.9-16.7,15.1c1.3,11-3.4,33.9,11.4,37.1c-20.6-0.3-13.7-28.5-18.8-42
	C112.1,364.8,120.2,361.4,126.1,355.6z"/>
<path class="st2" d="M128.2,298.6c1.5,13.9-4,23.7-14.2,30.6l10.5,2.5C131.5,321,134.3,310,128.2,298.6z"/>
<path class="st2" d="M74.8,326.9c11.1,14.6,21.1,20.4,29.8,17.6l7.1-1.4l-4.3-0.8c-16.3-4.1-41.6-34.1-37.4-59.2l-9.7-2.1
	c-0.6,24.8-0.3,50.5,0.9,76.7c2.5,26.2,6,44.7,11,52.2c2.3,4.5,5.9,6.2,10.8,5.3l3.4-0.4l2.9-1.9c-1.4,0.9-4.6,2.1-6,0
	c-18.9-6.9-6.7-42.2-7.6-56.3c17.6,13.6,41.5,12.4,50.8-5.6c-7.8,6.9-17.3,10.1-28.2,8.7C82.1,356.8,73.1,343.1,74.8,326.9z"/>
<path class="st2" d="M63.8,229.2L53,175.9l-34.9-9c-21.8,14.2-21.7,34.4-8.2,58.4c13.1,17.1,30.6,23.2,52.5,18.4L63.8,229.2z"/>
<path class="st1" d="M119.8,193.3c-10.8-12.7-15.4-23.7-15.3-33.4c-6.4,3.6-10.5,10.2-13.6,18.2c-0.1-7.2,1-14.8,4.5-23.1
	c-9.4,3.5-14.3,15.1-16.1,32.2c-18.5-27.5-56.6-35.2-73.8-8c38.3-25.3,44,17,61.9,17.9l-4.9,46.6l97.3,45.5l12.4-0.8
	c-10.1-7-4.2-21.9,7-20.9c-10.9-16.2-22.4-32-34.8-47.3L119.8,193.3z"/>
<path class="st3" d="M108.6,243.5c-13.2-11.1-25.9-10.2-36.8-5.9l-9.3,6.2l-2,37.2c36.5,7.8,73.6,11,111.7,7.5
	C142.9,283.7,124.9,257.6,108.6,243.5z"/>
<path class="st3" d="M117.1,289.1l-18.9-1.6l-23.4-3.6c-0.6,13.1,9.2,26,32,41.5C115,313.9,120.9,302,117.1,289.1z"/>
<path class="st2" d="M122.9,142c-25.5-21.2-53.6-1.7-58.7,29.5c5.5,3.1,10.4,8.8,15.1,15.6c0.6-16.7,6-27.4,16.1-32.2
	c-3.7,8.8-4.8,16.2-4.5,23.1c1.9-7.3,6.5-13.3,13.6-18.2c0.7,12.5,6.3,23.7,15.3,33.4C138.9,176.7,135.7,153.7,122.9,142z"/>
<path class="st4" d="M67.4,197.1c-15.7-3-25.8-28.1-47.2-8.9c-14.2,16.6-2,57.6,42.8,48.5L67.4,197.1z"/>
<path class="st2" d="M62.8,355l-0.5-7.4c-30.8,7.4-30.6,42.1-61.5,34.9C31.2,396,40.8,364.6,62.8,355z"/>
<path class="st5" d="M105.4,240.5l-5.9-4.4l-6.7-3.1c0.8-21.2,9.5-29.7,19.4-19.6c0.5-7.7,7.9-10.8,16.5-2.9
	c17.4,14.8-0.4,23.9-9.6,19.4C118.1,237.4,112.7,240,105.4,240.5z"/>
<ellipse class="st6" cx="110.1" cy="221" rx="5" ry="5"/>
<circle class="st5" cx="107.1" cy="224.5" r="2.5"/>
<circle class="st6" cx="124.9" cy="214.2" r="4.6"/>
<circle class="st5" cx="122.3" cy="217.6" r="2.7"/>
<path class="st2" d="M151.9,268.3c-1.4,0-2.5,1.1-2.5,2.5c0,1.4,1.1,2.5,2.5,2.5c1.4,0,2.5-1.1,2.5-2.5
	C154.3,269.4,153.2,268.3,151.9,268.3z M156.4,275.2c-1.4,0-2.5,1.1-2.5,2.5c0,1.4,1.1,2.5,2.5,2.5c1.4,0,2.5-1.1,2.5-2.5
	C158.8,276.3,157.7,275.2,156.4,275.2z M160.5,268.5c-1.4,0-2.5,1.1-2.5,2.5c0,1.4,1.1,2.5,2.5,2.5c1.4,0,2.5-1.1,2.5-2.5
	C163,269.6,161.9,268.5,160.5,268.5z"/>
<path class="st7" d="M126.6,405.6c0.1-3.3-0.9-5.8-2.8-7.6 M120.7,407.8c0.1-3.3-0.8-5.8-2.6-7.6 M83.1,415.2c0.7-2.5,0-5.4-1.2-7.6
	 M89.4,412.9c0.1-3.1-0.9-5.4-2.8-7.1 M60.7,347.8c-31,9.7-29.7,42.9-59.8,34.6c32.8,12.5,37.2-16.2,60.3-26.6 M67.4,197.1
	c-10,67.8-12.9,206.5,9.5,217.1 M130.2,321.5c11.5,15.1,0.6,42.8-28.3,44.3c-9.3,0.3-21.6-3.9-28.9-11.6 M111.8,343.1
	c-9.6,6-28.3-6.1-40.3-31 M124.5,331.7c-13.8-2-28.6-11-44.8-31.6 M118,301.3c-1.7,10.7-5.9,18.1-11.2,24 M60.4,280.9
	c31.4,7.3,68.9,11,113,7.4 M89.2,265.3c5.5,11.5,12.2,19.2,20.2,23.1 M91.3,260.7c-4.4-1.6-8.1,1.4-8.3,5.4 M118.4,201.6
	c-3.9-0.7-7.5,2.4-8.5,5.3 M96.4,204.8c-3.1,1.8-4.7,5.6-5,9.9 M92.8,233c0.8-21.2,9.5-29.7,19.4-19.6c1.3-7.7,7.9-10.8,16.5-2.9
	c16.3,16.8-0.4,23.9-9.6,19.4c-1,7.5-6.4,10.2-13.7,10.6 M88.5,232.3c6.1,0.2,12.8,4,20.1,11.2 M67.4,197.1
	c-10.6,0.9-20-21.7-41.1-13.7c-15.8,6.8-19,44.5,15.1,53.7 M64.2,171.5c4.9-37.6,40.6-46.8,58.7-29.5c14.6,13.6,14.7,38-3.1,51.3
	 M179.1,267.6c-15.5-25.8-36.2-50.2-59.4-74.1c-9.3-10.8-14.9-21.9-15.3-33.4c-6.9,3.7-11.2,10-13.6,18.2c0.1-8.5,1.2-16.5,4.5-23.1
	c-10.7,5-14.9,17-16.1,32.2c-25.8-36.8-66-27.2-75.1-5.4c-12.8,30,14.9,73.2,58.3,61.8 M76.9,414.2c1.6,0.9,4.2,1.7,6.3,1
	c1.7,0.4,5.1-0.6,6.3-2.3c6.4-7.5-2.8-9.9-3.4-12.1c-3.4-14.4,5.8-23.4,8.7-35.1 M119.9,338.1c-1.7,4.5-7.8,6.1-12.4,4.2
	 M122.5,289.3c12.8,16.5,10.8,31.9,2,42.4c-0.9,5.3-5.1,7.9-12.5,7.8 M128.9,352.2c-3,12.6-10.6,34.2-3.8,41.5
	c4.8,1.9,6.8,8.4,1.5,11.9c-0.9,1.5-4,2.4-5.9,2.1c-19,1.3-15.2-28.2-18.8-42"/>
<path class="st3" d="M98.3,359.7c9.9,0.4,18.8-2.7,28.2-8.7C119.2,360.2,109.3,363.6,98.3,359.7z M144.1,229.9
	c4.7,1.2,24.9,26.3,25.7,33.7C161.2,254.5,152.2,243.3,144.1,229.9z M90.7,371.6c-5.5,7.4-7.9,15.9-8.3,26.3
	C79.2,387.4,81.9,378,90.7,371.6z"/>
<path class="st8" d="M103.7,240.3c-9.8-4.7-20-5.1-31.9-2.6C82.8,230.8,94.1,231.4,103.7,240.3z"/>
<path class="st1" d="M128.5,155.9c-7.1-9.2-16.5-14.9-29-18.8C113.3,136.8,123.7,143.2,128.5,155.9z"/>
<path class="st9" d="M22.9,216.5c7.1,9.2,16.5,14.9,29,18.8C38.1,235.6,27.7,229.2,22.9,216.5z"/>
<path class="st10" d="M173.4,288.4c17.2,2.5,18.2-12.6,5.7-20.8"/>
<path class="st10" d="M179.1,267.6c-12.8-0.2-16.6,15.4-7,20.9"/>
</svg>
