<?xml version="1.0" encoding="utf-8"?>
<!-- Generator: Adobe Illustrator 21.1.0, SVG Export Plug-In . SVG Version: 6.00 Build 0)  -->
<svg version="1.1" id="Layer_1" xmlns="http://www.w3.org/2000/svg" xmlns:xlink="http://www.w3.org/1999/xlink" x="0px" y="0px"
	 viewBox="0 0 506 421" style="enable-background:new 0 0 506 421;" xml:space="preserve">
<style type="text/css">
	.st0{fill-rule:evenodd;clip-rule:evenodd;fill:#89B126;}
	.st1{fill-rule:evenodd;clip-rule:evenodd;fill:#6B9A2F;}
	.st2{fill-rule:evenodd;clip-rule:evenodd;fill:#AEC905;}
	.st3{fill:none;stroke:#4C7F34;stroke-width:1.7011;stroke-linecap:round;stroke-linejoin:round;stroke-miterlimit:22.9256;}
	.st4{fill-rule:evenodd;clip-rule:evenodd;fill:#CCD43D;}
	.st5{fill-rule:evenodd;clip-rule:evenodd;fill:#A1C413;}
	.st6{fill-rule:evenodd;clip-rule:evenodd;fill:#23A635;}
	.st7{fill-rule:evenodd;clip-rule:evenodd;fill:#00833A;}
	.st8{fill-rule:evenodd;clip-rule:evenodd;fill:#F7C6C7;}
	.st9{fill:none;stroke:#DB7A77;stroke-width:1.7011;stroke-linecap:round;stroke-linejoin:round;stroke-miterlimit:22.9256;}
	.st10{fill:none;stroke:#055332;stroke-width:1.7011;stroke-linecap:round;stroke-linejoin:round;stroke-miterlimit:22.9256;}
	.st11{fill-rule:evenodd;clip-rule:evenodd;fill:#FFFFFF;}
	.st12{fill-rule:evenodd;clip-rule:evenodd;fill:#B5CAD6;}
	.st13{fill-rule:evenodd;clip-rule:evenodd;fill:#1A1A18;}
	.st14{fill-rule:evenodd;clip-rule:evenodd;fill:#C7E3F7;}
	.st15{fill:none;stroke:#008DD0;stroke-width:1.7011;stroke-linecap:round;stroke-linejoin:round;stroke-miterlimit:22.9256;}
	.st16{fill-rule:evenodd;clip-rule:evenodd;fill:#F3A5A6;}
	.st17{fill-rule:evenodd;clip-rule:evenodd;fill:#494948;}
	.st18{fill:none;stroke:#1A1A18;stroke-width:1.7011;stroke-linecap:round;stroke-linejoin:round;stroke-miterlimit:22.9256;}
	.st19{fill-rule:evenodd;clip-rule:evenodd;fill:#A0D8F7;}
</style>
<path class="st0" d="M251.2,247.1l-4.9,3.3c11.8,18.8,14.3,35.3,6.9,49c-2.5,3.5,4.4,9.8,6.5,2.9
	C266.4,287.6,264.8,269.6,251.2,247.1z"/>
<path class="st0" d="M233.9,219l5.3-1.8c-10.8-19.1-6.5-40.8-7-60.1c1.1-25.1-5.8-42.5-27.1-46.1c-2.2-3.7-5.4-5-9.4-4
	c-0.8,5.7-3.6,9.4-7.2,12.3c6.1-0.7,10.5,1.5,14.1,5.1c2.3-1.4,3.7-3.7,4.1-6.9C245.8,125.3,213.1,182.5,233.9,219z"/>
<path class="st1" d="M236.6,189.7l-3.6,8.6c13.7-10.1,26.8,9.4,40.1-9.8C262.1,197,251.6,183.9,236.6,189.7z"/>
<path class="st2" d="M233,198.3l-0.9-10.5c7-17.4,32.7-26.2,31.8-43.3c-0.9-14.5-12-21.1-22.5-9c8.7-25.2,41.4-12.3,35.8,12.4
	C270.6,174.2,237.4,176.6,233,198.3z"/>
<path class="st3" d="M206.7,117.3c39.1,8,6.4,65.1,27.2,101.6"/>
<path class="st3" d="M246.3,250.5c11.8,18.8,14.3,35.3,6.9,49c-2.5,3.5,4.4,9.8,6.5,2.9c6.6-14.8,5-32.7-8.5-55.2"/>
<polygon class="st4" points="309.1,163.2 407,160.2 429.1,209.4 364.1,240.8 304.4,210.6 "/>
<path class="st5" d="M316.6,188c2.2,10.1,12.1,22.4,28.6,27.1l-1.5-7.9c4.9,7.9,9.6,14.2,22.8,3.7c44.2-10.7,43.8-43.2,23.1-42.4
	l17.3-8.3l22.2,49.1l-65,31.5l-59.7-30.1L316.6,188z"/>
<path class="st6" d="M235.8,217.8c4.9-2.3,11,2,7.4,9.3c4.6-0.9,8.5,5.1,5.9,9.6c5.5,2.8,3.7,10-0.7,12.5
	C232.6,260.7,212.3,232.1,235.8,217.8z"/>
<path class="st6" d="M302.9,333.2c-1.2,8.8,1.9,16.7,7.3,24.1c-17.4,8.1-21.5,22.9-14.6,29.2c-0.7,7.9,11.8,12.7,23.2,6.3
	c15,10.8,45-15.5,40-29.3c4.6-1.4,8.5-4.8,11.5-10.6c2.6,5.6,7.1,8.7,12.4,10.7c1.9,16.5,22.4,36.7,41.8,33.7
	c10.2,4.5,22.1-0.7,22-7.1c7-6.1,5.6-20.6-12.4-30.7c2.4-5.8,3.4-11.6,2.3-17.5c12-12.6,18.9-26.8,20.7-42.8
	c34.6-34,3.8-107.1-42.3-131.6l-19.9,1c9.6,2.1,13.6,8.8,12.8,21.4c0,19-22.8,29.5-53,39.2c-2.1-7-7.7-12.5-10.5-21.7
	c0.6,5,1.8,10,3.7,14.9c-26.3-12.7-38.6-28.2-27.7-43.4l-7.8,6.7c1.5-7.6-3.3-9.9,1.5-17.6c3-3,9.3-3.7,16.9-0.9l-8.4-4.7l-11.7,0.8
	c-11.4,1.9-18,10.3-27,15.4l6.3,0.7c-14.2,9.7-26.1,27.9-38.8,34.4c-5-0.8-10.4-6.8-15-2.5l3,5.8c5.1,0.2,6.1,6.3,4,9.9
	c4.2-1.2,8.3,4.5,5.9,9.6c4.3,2.3,4.2,6,2.2,10.4c8.4,1.8,18.7-0.6,30.9-7.3c-6.2,9.6-7.3,19.2-5.6,30.8l4.1-6.3
	C271.5,288.5,282.5,318.5,302.9,333.2z"/>
<path class="st7" d="M299.4,323.6c-14-22.1-18.1-60.1,0.5-95.1c-2.9-3.5-32.5,17.7-41.7,2.9c-3.1-6.4-7.2-9.9-14.8-4.3
	c4.2-1.2,8.3,4.5,5.9,9.6c4.3,2.3,4.2,6,2.2,10.4c8.4,1.8,18.7-0.6,30.9-7.3c-6.2,9.6-7.3,19.2-5.6,30.8l4.1-6.3
	C271.5,288.5,288.3,317.8,299.4,323.6z"/>
<path class="st6" d="M414.8,33.4c6.3-14,17.2-19.5,30.1-18.8l-5.8,4.5c30.1-4.8,36.4,46.1-0.2,47c14.2,16.9,18.1,37.4,11.7,61.7
	l-3.9-7.2c-1.6,21.5-12.1,37.1-30,47.8c-7.2,1.3-14.6,0.2-21.7,0.2c-20.3-1-27,9.8-38,9.1c-15.4-9.2-30.2-12-46.2-14.3l-3.4-0.1
	c-10.9-6.9-20.4-27.4-18.9-40.8l-2.7,8.4c-5.8-15.3-6-49.3,10.4-67.7C276.5,62.7,271.5,37.7,284,25c14.6-14.6,37.6-6.5,36.7,10.7
	c4.3-10.5,16.3-11.2,26.9-20c-0.6,2.1-3,4.7-7.2,7.8c6.9-4.5,16.1-4,22.7-10.1c-0.1,3.1-1.1,5.8-3,8.1c3.7-1.4,6.2-3.9,7.8-7.5
	C376.3,23,402,19.7,414.8,33.4z"/>
<path class="st7" d="M416.5,168.4c19-11.4,28.3-28.1,30.2-47.8l3.9,7.2c6.1-25.3,1.4-47.2-11.7-61.7c27.1,1.3,32.3-33.5,9.9-37.9
	c19.4,16.5-16,41.6-23.6,12.3l5.5-9.5c-6.5,0.8-12.3,3.5-16.8,9.2l0.9-6.9c-11.5-15.1-38-9.1-46.9-19.7l-3.1,4.6l-4.7,2.9
	c42.2,4.3,71.9,34,62.8,72.8c35.3,32.9-4,69.6-36.5,68.9c-14.4,0.8-29.5,14.7-35.8,11.2l6.3,3.4c2.8,3,16.2-11.4,38-9.1
	c7.6,0.3,14.1,9.1,12.8,21.4c-1.8,10-5.1,16.6-10.1,20l12.7,86.9c-8.2,36.7-40.6,43.3-69.5,34.3l8.3,4.6l4.3,1.6
	c4.8,14.7-8.5,23.2-26.3,23c16.7,7.6-0.9,23.5-7.5,22.5c-10.3,5.9-23.5-0.2-19.7-6.3c-6.8-1.3-5.1-5.6-1.1-11.3l-4.1,5.7
	c-2.9,4.8-2.9,9.6-0.1,14.4c1.3,10.3,14.4,14.8,24.2,7.5c13.1,10.3,44.7-14.4,40-29.3l6.8-4.1l4.7-6.5c2.4,4.6,6.5,8.1,12.4,10.7
	c2.9,15,12.6,25.9,29.1,32.7c-6.4-4.8-3-9.1,10.2-9.7c23.1-3.3,26.1-14.2,9.6-23.9c-7.9,4.8-15.8,6.6-23.8,4.1
	c15.2-1.2,23.3-10,24.3-26.4c10.6-11.1,18.2-24.1,21.7-39.6l-3.7,1.8l-2.7,2.4c-7.7-1.9-12.1-5.6-13.4-11.2
	c-23.5-17.9,0.9-40.8-8.3-61.7c-7.6-17.5-16.2-31.2-11.7-35.8c14.5-7.2,41.9,9.2,56.7,49.5C467.8,223.7,443.3,180.8,416.5,168.4z"/>
<path class="st5" d="M397.7,209.9c-14.2,11.6-28.7,12.8-43,19.3c-2.8-9.1-8.8-13.1-10.5-21.7c-0.1,4.7,1.1,9.7,3.7,14.9
	c-7.3-3.3-13.4-7-18.3-11.1c1.7,16.3-15.9,44.3-9.7,76.4c7.4,32.2,41.1,38.5,63.9,32.5C420.9,309.2,426.8,255.6,397.7,209.9z"/>
<path class="st8" d="M430.4,55.2c-3.6-1.7-6.5-4.1-7.6-8.4c-0.2-7.2,2.4-12.5,7.9-15.8v6.9c4-7.8,15.4-7.7,17.6,2.5
	C450.3,49.1,442.7,60.9,430.4,55.2z"/>
<path class="st9" d="M422.9,46.8c-0.2-7.2,2.4-12.5,7.9-15.8v6.9c4-7.8,15.4-7.7,17.6,2.5c2,8.6-5.6,20.5-17.9,14.8"/>
<path class="st8" d="M297.7,29.3c2.1,1.8,3.2,4,3.8,6.4c-4.1-2.7-9.6,0.2-10.9,4.6c-1.3,4.2-0.3,8.7,2.7,11.4
	c0.2-2.4,1.3-4.3,3.1-5.8c-2.2,5.7,2.6,9.3,8,7.7C318.4,48.6,313.2,28.4,297.7,29.3z"/>
<path class="st9" d="M297.7,29.3c2.1,1.8,3.2,4,3.8,6.4c-4.1-2.7-9.6,0.2-10.9,4.6c-1.3,4.2-0.3,8.7,2.7,11.4
	c0.2-2.4,1.3-4.3,3.1-5.8c-2.2,5.7,2.6,9.3,8,7.7C318.4,48.6,313.2,28.4,297.7,29.3z"/>
<path class="st10" d="M295.7,386.4c-0.1-5.1,2.2-9.1,6.9-12 M358.9,363.5c4.8,19.5-32,38.6-40,29.3c-0.9-3.7-0.2-8,1.9-12.7
	 M424.6,397.3c9.2,4.4,21.8,0.5,22-7.1c0.4-5.8-2.7-9.4-6.3-12 M457.2,299.2c-2.6,16.5-8.4,30.5-20.7,42.8
	c2.1,15.9-3.7,24.4-17.6,25.4 M382.8,363.5c0.7,13.6,21.8,37.4,41.8,33.7c5-2.2,5.6-11.2-1.5-15.7 M351.7,365.5
	c8.2-1.2,14.4-5.5,18.7-12.7c4.4,7.8,10.7,11.7,19,11.6 M340.9,331.2c16,11.5,44,12,63.5-3.4 M304.3,328.6c-4.9,11.7-0.2,30.2,19,37
	 M282.2,239.9c-6.2,9.6-7.3,19.2-5.6,30.8l4.1-6.3c-9.2,24.2,1.7,54.2,22.2,68.9 M235.8,217.8c4.9-2.3,11,2,7.4,9.3
	c4.6-0.9,8.5,5.1,5.9,9.6c5.5,2.8,3.7,10-0.7,12.5C232.6,260.7,212.3,232.1,235.8,217.8 M258.1,223.7c-2-9.7-9.2-10.3-14.1-12.9
	c-3.1-2-5.9-1.4-7.7,0.6 M251.2,247.1c12.7,2.2,28.9-4,48.6-18.7 M310.8,163.3c-10.5,1.4-18,10.3-27,15.4l6.3,0.7
	c-13.3,8.8-26.9,28.4-38.8,34.4 M414.9,167.5c22.8,10.3,50.2,47.6,55.3,75.8c5.1,27.9-4,53.4-20,59.2 M454.8,282.2
	c0.5,12.1-3,20.2-7.5,22.8c-11.5-3.2-17.7-11-12.3-29.1 M434,293.9c-23.3-20.2,1.6-37.4-8.3-61.7 M329.7,211.4
	c1.7,16.3-15.9,44.3-9.7,76.4c7.4,32.2,41.1,38.5,63.9,32.5c37-11.2,43-64.8,13.8-110.4 M314,168.1c-4.9,5.7-0.2,12.6-1.5,17.6
	c2.7-1.7,5.3-4,7.8-6.7c-11.6,15.5,5.1,32.9,27.7,43.4c-2.1-4.1-3.4-9-3.7-14.9c1.1,7.7,8.3,13.8,10.5,21.7
	c4.1-2.1,7.1-5.9,8.2-12.7 M354.7,229.2c16.7-6.6,51.2-12.3,53-39.2 M395,168.5c-20.9-1.1-32.8,11.5-38,9.1
	c-7.8-4.3-16.3-8-26.1-10.4 M438.9,66.1c13.3,13.2,17.9,39.6,11.7,61.7l-3.9-7.2c-1,18.6-12,38.4-30,47.8 M303,135.5
	c-1.7,0.3-3,2.4-3.7,4.1 M423,94c2.2,0,4.3,2.4,5.6,4.3 M424,85.3c2.6,0,4.2,1.6,5.1,2.7 M386.2,197.5c2.2,1.1,3.4,3.1,3.9,5.5
	 M393.3,189.3c2,1.8,1.9,5.6,1.4,8.3 M328.5,199.2c-1.6,0.6-3,3-3.3,5.1 M334.2,203.1c-0.8,2.1-0.8,5.1,0,6.7 M293.6,298.9
	c-0.7-1.9,0.8-5.3,2.6-6.8 M300.9,305c-0.8-1.3-0.4-4,0.6-5.3 M305.3,317.2c-0.4-1,0.2-2.8,1.2-3.7 M435.3,325.8
	c0.2-1.5-1.4-3.9-3-4.7 M424.2,344.4c0.7-1.9-0.8-5.3-2.6-6.8 M440.2,307.4c-0.1-1-1.5-2.3-2.6-2.6 M430.4,335.3
	c0.3-1.3-0.8-3.5-2.1-4.4 M297.7,125.9c-1.8,0-3.3,1.8-4.4,3.4 M307.4,163.2c-10.9-6.9-20.4-27.4-18.9-40.8l-2.7,8.4
	c-5.8-15.3-6-46.8,10.4-67.7c-19.7-0.5-24.7-25.5-12.2-38.2c14.6-14.6,37.6-6.5,36.7,10.7c4.3-10.5,16.3-11.2,26.9-20
	c-0.6,2.1-3,4.7-7.2,7.8c6.9-4.5,16.1-4,22.7-10.1c-0.1,3.1-1.1,5.8-3,8.1c3.7-1.4,6.2-3.9,7.8-7.5c8.4,9.3,34,6,46.9,19.7
	 M281.3,55.2c1.8-2.3,4-3.9,6.7-4.5 M290.7,62.1l3-4.4 M249.1,236.7l-6.5,4.3 M243.1,227.1l-6.3,4.8 M434.3,359.5
	c18.9,10.8,20,24.4,12.4,30.7 M413.9,40.3c0.6-13.2,11.8-26,31-25.7c-2.8,1.5-4,2.1-5.9,4.5c18.6-4.3,30.9,18.7,22.7,34.4
	c-4.1,8.5-16.2,15-26.1,11.8 M318.9,392.8c-10.2,7.1-23.3,1.8-23.2-6.3c-6.5-6.2-2.9-20.9,14.6-29.2"/>
<path class="st11" d="M336.7,100.6c6.6,0,11.9-5.5,11.9-12.2s-5.4-12.2-11.9-12.2c-6.5,0-11.9,5.5-11.9,12.2
	S330.1,100.6,336.7,100.6z"/>
<path class="st11" d="M387.4,97.5c6.6,0,11.9-5.5,11.9-12.2c0-6.7-5.4-12.2-11.9-12.2c-6.6,0-11.9,5.5-11.9,12.2
	C375.5,92,380.9,97.5,387.4,97.5z"/>
<path class="st12" d="M337.4,83.8c4.1,1.9,5.8,6.8,4,10.9c-1.9,4.1-6.6,5.9-10.7,4c-4.1-1.9-5.8-6.8-4-10.9
	C328.5,83.7,333.3,81.9,337.4,83.8z"/>
<path class="st12" d="M388.3,80.9c4.1,1.9,5.8,6.8,4,10.9c-1.9,4.1-6.6,5.9-10.7,4c-4.1-1.9-5.8-6.8-4-10.9
	C379.5,80.8,384.2,79,388.3,80.9z"/>
<path class="st13" d="M332.5,98.5c3.1,0,5.7-2.6,5.7-5.8c0-3.2-2.5-5.8-5.7-5.8c-3.1,0-5.7,2.6-5.7,5.8
	C326.8,95.9,329.4,98.5,332.5,98.5z"/>
<path class="st13" d="M383.2,95.4c3.1,0,5.7-2.6,5.7-5.8c0-3.2-2.5-5.8-5.7-5.8c-3.1,0-5.7,2.6-5.7,5.8
	C377.5,92.8,380.1,95.4,383.2,95.4z"/>
<circle class="st11" cx="335.6" cy="89.6" r="2.6"/>
<circle class="st11" cx="386.3" cy="86.5" r="2.6"/>
<path class="st5" d="M403.2,66.7c-2.2-3.2-6.1-6-11.2-6c-4.1,0-6.6,2-6.3,4.1c0.5,3,5,2.8,7,2.8c4.5,0,6.9,6.1,9.3,5.7
	C405.5,72.7,404.2,68.6,403.2,66.7z M331.8,65.4c3.7-2.4,0.8-10.9-8.2-1.9c-1.2,1.2-5.4,6.6-1.9,8.6
	C323.7,73.2,328.9,67.5,331.8,65.4z"/>
<path class="st10" d="M403.2,66.7c-2.2-3.2-6.1-6-11.2-6c-4.1,0-6.6,2-6.3,4.1c0.5,3,5,2.8,7,2.8c4.5,0,6.9,6.1,9.3,5.7
	C405.5,72.7,404.2,68.6,403.2,66.7z M331.8,65.4c3.7-2.4,0.8-10.9-8.2-1.9c-1.2,1.2-5.4,6.6-1.9,8.6
	C323.7,73.2,328.9,67.5,331.8,65.4z"/>
<path class="st5" d="M227.8,229.1c0.6,7.6,3.2,14.8,9.8,20.5C228.8,245.5,225.6,238.6,227.8,229.1z"/>
<path class="st5" d="M290.6,182.2c-11,8.6-17.7,20.1-30.8,29.4C273.4,207.8,292.6,184.5,290.6,182.2z M305.1,333.6
	c0.6,8.8,3.2,17,9.8,23.7C306.1,352.5,302.9,344.6,305.1,333.6z M458.9,230.5c6.3,12.2,8.5,25.6,8,41.9
	C471.8,256.4,469.3,241.5,458.9,230.5z M297,70.3c-6.9,13.3-9.3,28-8.7,45.7C282.9,98.5,285.6,82.3,297,70.3z"/>
<path class="st14" d="M152.4,160.9l30-38.3L136,133.3c-13.1,8.7-12.9,20.7-22,30.5C126.8,162.7,141,166.9,152.4,160.9z"/>
<path class="st15" d="M136,133.3c-13.1,8.7-12.9,20.7-22,30.5c12.9-1.2,27.1,3.1,38.5-3"/>
<path class="st3" d="M195.6,106.9c10.9-1.4,14.8,12.3,7,17.3"/>
<path class="st3" d="M232.1,187.8c7-17.4,32.7-26.2,31.8-43.3c-0.9-14.5-12-21.1-22.5-9c8.7-25.2,41.4-12.3,35.8,12.4
	c-6.6,26.3-39.7,28.8-44.1,50.4c13.7-10.1,26.8,9.4,40.1-9.8c-11,8.5-21.3-4.6-36.3,1.2"/>
<path class="st7" d="M378.4,143.5l-14.9-7.5l-14.2,8.6C355.1,157.6,373.7,155.9,378.4,143.5z"/>
<path class="st16" d="M373.1,142l-5.2-2.7l-4.3-3.5l-4.4,4.3l-4.6,2.6C358.6,150.9,371.2,149.3,373.1,142z"/>
<path class="st5" d="M363.6,135.8l-0.1-5.8L363.6,135.8c-8.7,11.1-25.4,12.4-33.4,2.7c-14.6-21.2,8.4-38.2,34.4-38.9
	c27.8-1.1,50.4,19.7,37.5,36C392.1,147.7,372.4,145,363.6,135.8z"/>
<path class="st4" d="M363.5,130c-4.5,10.2-15.1,16.8-30,11.5c10.9,5.9,19.7,4.8,29.9-5.1L363.5,130z M330.2,138.5
	c-14.6-21.2,8.4-38.2,34.4-38.9c27.8-1.1,50.4,19.7,37.5,36C411.1,93.4,310.7,92.9,330.2,138.5z"/>
<path class="st10" d="M336.7,76.3c6.6,0,11.9,5.4,11.9,12.2c0,6.7-5.3,12.2-11.9,12.2s-11.9-5.4-11.9-12.2
	C324.8,81.7,330.1,76.3,336.7,76.3z M387.4,73.2c6.6,0,11.9,5.4,11.9,12.2c0,6.7-5.3,12.2-11.9,12.2s-11.9-5.4-11.9-12.2
	C375.5,78.6,380.8,73.2,387.4,73.2z M349.2,144.6c6,11.9,24.6,12,29.2-1.1 M354.7,142.8c3.8,7.7,16.1,7.3,18.4-0.8 M363.5,130
	l0.1,5.8c-8.7,11.1-25.4,12.4-33.4,2.7c-15.2-20.3,8.4-38.2,34.4-38.9c30.3-1.5,50.4,19.7,37.5,36c-10,12.1-29.7,9.4-38.5,0.2"/>
<path class="st6" d="M363.8,105.3c10.4-0.2,19,3.5,19,8.3c0.1,4.8-8.3,8.7-18.7,8.9c-10.4,0.2-19-3.5-19-8.3
	C345,109.4,353.4,105.4,363.8,105.3z"/>
<path class="st17" d="M361.7,105.2c10-0.8,18.4,1.8,18.7,5.8s-7.5,7.9-17.5,8.7c-10,0.8-18.4-1.8-18.7-5.8
	C343.8,109.9,351.7,106,361.7,105.2z"/>
<path class="st18" d="M361.7,105.2c10-0.8,18.4,1.8,18.7,5.8s-7.5,7.9-17.5,8.7c-10,0.8-18.4-1.8-18.7-5.8
	C343.8,109.9,351.7,106,361.7,105.2z"/>
<path class="st6" d="M389.9,117.8c-1.3,0.3-2.1,1.4-1.8,2.5c0.3,1.1,1.6,1.8,2.9,1.5c1.3-0.3,2.1-1.4,1.8-2.5
	C392.5,118.2,391.2,117.6,389.9,117.8z M348.7,122.3c1.3,0.2,2.2,1.3,1.9,2.4c-0.3,1.1-1.5,1.9-2.8,1.6c-1.3-0.2-2.2-1.3-1.9-2.4
	C346.2,122.8,347.4,122.1,348.7,122.3z M382,121.7c-1.3,0.3-2.1,1.4-1.8,2.5c0.3,1.1,1.6,1.8,2.9,1.5c1.3-0.3,2.1-1.4,1.8-2.5
	C384.6,122.2,383.3,121.5,382,121.7z M340.9,125.7c1.3,0.2,2.2,1.3,1.9,2.4c-0.3,1.1-1.5,1.9-2.8,1.6c-1.3-0.2-2.2-1.3-1.9-2.4
	C338.3,126.2,339.6,125.5,340.9,125.7z M390,124.9c-1.3,0.3-2.1,1.4-1.8,2.5c0.3,1.1,1.6,1.8,2.9,1.5c1.3-0.3,2.1-1.4,1.8-2.5
	C392.6,125.3,391.3,124.6,390,124.9z M340.6,118.6c1.3,0.2,2.2,1.3,1.9,2.4c-0.3,1.1-1.5,1.9-2.8,1.6c-1.3-0.2-2.2-1.3-1.9-2.4
	C338.1,119.1,339.3,118.4,340.6,118.6z"/>
<path class="st4" d="M392,310.1c-34.1,11.9-58.5-2.3-66.8-22.5C327.7,316.6,367.8,325.6,392,310.1z"/>
<path class="st3" d="M205,110.9c45.1,7.9,16,73.3,33.1,104.5"/>
<path class="st19" d="M113.6,127c27.4,4.9,39.3-24.6,54.7-33.7c18.6-10.6,37.9,9.7,20.7,25.6c22.9-0.1,22.3,29.3,3.4,33.6
	c-12.2,4.1-33.7,13-37.8,32.4c-8.1-28.2,1.9-49.4,34.4-66C161.3,133.2,126.5,138.6,113.6,127z"/>
<path class="st15" d="M113.6,127c27.4,4.9,39.3-24.6,54.7-33.7c18.6-10.6,37.9,9.7,20.7,25.6c22.9-0.1,22.3,29.3,3.4,33.6
	c-12.2,4.1-33.7,13-37.8,32.4c-8.1-28.2,1.9-49.4,34.4-66C161.3,133.2,126.5,138.6,113.6,127z"/>
</svg>
