<?xml version="1.0" encoding="utf-8"?>
<!-- Generator: Adobe Illustrator 21.1.0, SVG Export Plug-In . SVG Version: 6.00 Build 0)  -->
<svg version="1.1" id="Layer_1" xmlns="http://www.w3.org/2000/svg" xmlns:xlink="http://www.w3.org/1999/xlink" x="0px" y="0px"
	 viewBox="0 0 506 421" style="enable-background:new 0 0 506 421;" xml:space="preserve">
<style type="text/css">
	.st0{fill-rule:evenodd;clip-rule:evenodd;fill:#FDEDE1;}
	.st1{fill-rule:evenodd;clip-rule:evenodd;fill:#E2EAB6;}
</style>
<path class="st0" d="M182,406.2C3.8,448-17,300.7,17,194.4c10.8-51.4,43.3-103.1,86.6-100c0.9,0.1,1.9,0.1,2.8,0.2
	c0.9,0,1.8,0.1,2.7,0.1c0.9,0,1.7,0,2.6,0c0.8,0,1.7-0.1,2.5-0.1c0.8-0.1,1.6-0.1,2.4-0.2c0.8-0.1,1.6-0.2,2.3-0.3
	c0.8-0.1,1.5-0.2,2.3-0.4c0.7-0.1,1.5-0.3,2.2-0.4c0.7-0.2,1.4-0.3,2.1-0.5c0.7-0.2,1.4-0.4,2-0.6c0.7-0.2,1.3-0.4,2-0.6
	c0.6-0.2,1.3-0.4,1.9-0.7c0.6-0.2,1.2-0.5,1.9-0.7c0.6-0.3,1.2-0.5,1.8-0.8c0.6-0.3,1.2-0.6,1.7-0.8c0.6-0.3,1.1-0.6,1.7-0.9
	c0.6-0.3,1.1-0.6,1.6-0.9c0.5-0.3,1.1-0.6,1.6-1c0.5-0.3,1-0.7,1.6-1c0.5-0.3,1-0.7,1.5-1.1c0.5-0.4,1-0.7,1.5-1.1s1-0.7,1.4-1.1
	c0.5-0.4,0.9-0.8,1.4-1.1c0.5-0.4,0.9-0.8,1.4-1.2c0.5-0.4,0.9-0.8,1.4-1.2c0.4-0.4,0.9-0.8,1.3-1.2c0.4-0.4,0.9-0.8,1.3-1.2
	c0.4-0.4,0.9-0.8,1.3-1.2c0.4-0.4,0.9-0.8,1.3-1.2c0.4-0.4,0.9-0.8,1.3-1.2l1.3-1.2l1.3-1.2c0.4-0.4,0.8-0.8,1.3-1.2
	c0.4-0.4,0.8-0.8,1.3-1.2c0.4-0.4,0.8-0.8,1.3-1.2c0.4-0.4,0.8-0.8,1.3-1.2c0.4-0.4,0.8-0.8,1.3-1.1c0.4-0.4,0.9-0.7,1.3-1.1
	c0.4-0.4,0.9-0.7,1.3-1.1c0.4-0.4,0.9-0.7,1.3-1c0.4-0.3,0.9-0.7,1.3-1c0.5-0.3,0.9-0.7,1.4-1c0.5-0.3,0.9-0.6,1.4-0.9
	c0.5-0.3,0.9-0.6,1.4-0.9s1-0.6,1.5-0.8c0.5-0.3,1-0.5,1.5-0.8c0.5-0.3,1-0.5,1.5-0.7c0.5-0.2,1-0.5,1.6-0.7
	c0.5-0.2,1.1-0.4,1.6-0.6c0.5-0.2,1.1-0.4,1.7-0.5c0.6-0.2,1.1-0.3,1.7-0.5c0.6-0.1,1.2-0.3,1.8-0.4c0.6-0.1,1.2-0.2,1.8-0.3
	c0.6-0.1,1.2-0.2,1.9-0.3c0.6-0.1,1.3-0.1,1.9-0.2c0.7,0,1.3-0.1,2-0.1c0.7,0,1.4,0,2.1,0s1.4,0,2.1,0.1c0.7,0,1.5,0.1,2.2,0.2
	c0.7,0.1,1.5,0.2,2.3,0.3c0.8,0.1,1.6,0.2,2.3,0.4c0.8,0.1,1.6,0.3,2.4,0.5c0.8,0.2,1.7,0.4,2.5,0.6c0.9,0.2,1.7,0.4,2.6,0.7
	c73.9,21.2,26.9-12,127.8-48.5c56.5-20.4,142,25.2,125.8,108.1c-12.8,65.3,2.5,50.7,23,101.1C568.3,402.5,314.1,444.5,182,406.2z"/>
<path class="st1" d="M318.8,326.3l104.6,25.4c13.2-0.9,52.3,3.5,35.4,18.7c-55.2,48.5-200.1,65.5-276.8,35.8
	c-39.2,12.1-96.9,9-113.1-3.5c3.8-10.4,76.1-17.4,107.8-11.8c-5.9-2.4-20.6-6-23.7-9.1c-0.9-0.9,3.6-0.9,4.6-0.9
	c11.1,0,21.9,5.5,31,5.5c-2.4-6.7-9.8-14.5-15.5-18.2c0,0-7.9-3.8-1.8-3.6c17.1,0.6,31.9,11.9,41,20.9l2.7,4.6
	c-1.2-9.7-5.9-26.3-9.1-31c-0.5-0.7-5.1-4.6,0-3.6c10.2,2,22,24.8,21.9,22.8c-0.9-13.8,6.4-24.2,6.4-36.4c0-3.6,0.9-1.8,0.9,0.9
	c0,12.7,5.5,24.2,5.5,36.4c5.7-18.4,29.6-42.4,49.2-45.5c4.5-0.7-15.3,15.5-14.6,29.1c0.1,1.5,16.3-23.2,27.3-27.3
	c2.7-1,7.3-3.6,9.1-5.5L318.8,326.3z"/>
</svg>
