<?xml version="1.0" encoding="utf-8"?>
<!-- Generator: Adobe Illustrator 21.1.0, SVG Export Plug-In . SVG Version: 6.00 Build 0)  -->
<svg version="1.1" id="Layer_1" xmlns="http://www.w3.org/2000/svg" xmlns:xlink="http://www.w3.org/1999/xlink" x="0px" y="0px"
	 viewBox="0 0 536 404" style="enable-background:new 0 0 536 404;" xml:space="preserve">
<style type="text/css">
	.st0{fill-rule:evenodd;clip-rule:evenodd;fill:#00B4E8;}
	.st1{fill-rule:evenodd;clip-rule:evenodd;fill:#0074BA;}
	.st2{fill-rule:evenodd;clip-rule:evenodd;fill:#0095D6;}
	.st3{fill-rule:evenodd;clip-rule:evenodd;fill:#F7C6C7;}
	.st4{fill:none;stroke:#868685;stroke-width:2.266;stroke-linecap:round;stroke-linejoin:round;stroke-miterlimit:22.9256;}
	.st5{fill:none;stroke:#194B79;stroke-width:1.6995;stroke-linecap:round;stroke-linejoin:round;stroke-miterlimit:22.9256;}
	.st6{fill-rule:evenodd;clip-rule:evenodd;fill:#3B3A39;}
	.st7{fill:none;stroke:#1A1A18;stroke-width:1.6995;stroke-linecap:round;stroke-linejoin:round;stroke-miterlimit:22.9256;}
	.st8{fill-rule:evenodd;clip-rule:evenodd;fill:#FFFFFF;}
	.st9{fill-rule:evenodd;clip-rule:evenodd;fill:#1A1A18;}
	.st10{fill-rule:evenodd;clip-rule:evenodd;fill:#A59BCC;}
	.st11{fill-rule:evenodd;clip-rule:evenodd;fill:#7C6EAF;}
	.st12{fill:none;stroke:#804896;stroke-width:1.6995;stroke-linecap:round;stroke-linejoin:round;stroke-miterlimit:22.9256;}
	.st13{fill:none;stroke:#6E3F81;stroke-width:1.6995;stroke-linecap:round;stroke-linejoin:round;stroke-miterlimit:22.9256;}
	.st14{fill-rule:evenodd;clip-rule:evenodd;fill:#F3A5A6;}
	.st15{fill-rule:evenodd;clip-rule:evenodd;fill:#BBB4D9;}
	.st16{fill:none;stroke:#A59BCC;stroke-width:1.6995;stroke-linecap:round;stroke-linejoin:round;stroke-miterlimit:22.9256;}
	.st17{fill-rule:evenodd;clip-rule:evenodd;fill:#D1CCE6;}
</style>
<polygon class="st0" points="71.4,234.8 113.7,240.3 115.7,273.2 71.4,264.7 "/>
<path class="st1" d="M121.1,280.4L110.4,266c0.2-7.8,8-13.8,0-25.7l6.6,0.1c4.6,6.4,7.4,13.9,9,22.1
	C132.2,270,129.5,280.1,121.1,280.4z"/>
<path class="st1" d="M59.9,292.4l-0.4-9.3c-35.2-4.9-21.3-36.8-39.1-50.2C35.8,249.6,16,284.7,59.9,292.4z"/>
<path class="st2" d="M88.6,305.6l5.1-0.2c5.3,12.6-1,39.4,13.5,37.2c7.6-0.7,10-4.7,7.1-11.8c0.3-13.7,5.6-25.4,1-41.2l0.8-6.3
	c3.6-1,5.4-2.5,5.5-4.4c1.7-0.7,3.5-2.7,2.3-5.5c0-7.1-5.5-8.6-13.4-7.5c-10.1-0.1-19.3-5.5-27.9-16.2c-2.1-3.7-3.8-7.5-2.3-12.2
	l-12.8-4.8c-8.9,13-6,40-7.6,59.7c-2.1,36.8,5.3,56.8,18.2,56.3c1.8,0.4,4.4-1.1,4.9-2c2.9-1.9,3.7-4.7,1.4-8.9
	C85.2,329.7,80,322,88.6,305.6z"/>
<path class="st1" d="M111.5,158.3l-36.8-7.1l-13.9-16c-2-20.3,11.6-31.5,25.5-30.9C106.3,104,125.5,130.9,111.5,158.3z"/>
<path class="st1" d="M78.1,271c8.2,10.9,24.1,14.9,31.8,12.5l3.1-0.6l-3.7-0.7c-24.3-9.8-37.9-24.7-35.7-47l-6.5-2.4
	c-7,9.7-6.8,49-7.7,65.6c1.1,22.9,3.2,37.4,7.6,44c2.1,4,5.8,7.2,10.1,6.4l3-0.3l2.5-1.7c-1.3,0.8-4,1.8-5.3,0
	c-16.6-6.1-7.4-47.1,3.6-42.6l7.7,1.4l5.1-0.2c5.5,15.7-0.3,34.1,9.5,37.3c-5.2-5.9-1-26.3-1.5-39.4c7.7-3.5,11.2-7.5,12.9-11.8
	C99.4,308.8,70.8,298.5,78.1,271z"/>
<path class="st2" d="M83.9,139.6c2.6-6,6.6-10,11.9-12l-2.5,13c30.4,26.8,52,56.1,69.1,86.5l-4.9,12.2l-12.1,0.6l-85.7-40
	c-43,4-63.5-30.6-48.6-57c12.9-24.2,55.1-15.3,63.8,8.4c2.7-6.8,4.3-14.2,4.9-22l2.5,3.8L83.9,139.6z"/>
<path class="st1" d="M59.5,199.8c-34.3,4-56.6-19.6-45.3-44.4c12.9-24.2,44.8-14.5,51.8,7.2l-3.2,15.2L59.5,199.8z"/>
<path class="st3" d="M60.2,193.1c1.1-7.8,3.4-20.6,5.8-30.5c-13.4-18.6-33.3-19.3-40.4-9.5C14.3,169.1,22.6,194.5,60.2,193.1z"/>
<path class="st4" d="M120,281.3c0.4,16.4,16,14.8,15.1,10.2c-0.7-4.3-16.2,1.3-3.4,21.5"/>
<path class="st0" d="M60,194.7c44.6-17.1,52,30.2,90,44.9c-40.5,1.8-75,1.3-84.8-8.7C59.9,224.4,57.6,213,60,194.7z"/>
<path class="st5" d="M157.4,239.2c-47.6,2.5-83.1,1.3-92.2-8.4c-8.4-8.6-8.1-31.4,0.8-68.3c-13.4-18.6-33.3-19.3-40.4-9.5
	c-11.3,16-3,41.5,34.6,40"/>
<path class="st5" d="M59.5,199.8c-43,4-63.4-30.6-48.6-57c12.9-24.2,55.1-15.3,63.8,8.4c2.7-6.8,4.3-14.2,4.9-22
	c3.8,3.8,4.8,10.9,4.9,19"/>
<path class="st5" d="M93.2,140.6c30,27.2,52.2,56.3,69,86.5"/>
<path class="st5" d="M83.9,139.6c3.1-6.5,7.2-10.3,11.9-12c-4.3,11.4-3,18.4,1,23.5"/>
<path class="st5" d="M60.8,135.2c-2-20.3,11.6-31.5,25.5-30.9c20-0.3,39.2,26.7,25.2,54.1"/>
<path class="st5" d="M79.6,217.3c3.8,12.2,11.8,19.6,19.9,22.4"/>
<path class="st6" d="M157.4,239.2c-6.1-5.1-1.3-12.9,4.9-12.2C174.9,234.1,167.7,243.7,157.4,239.2z"/>
<path class="st7" d="M157.4,239.2c-6.1-5.1-1.3-12.9,4.9-12.2C174.9,234.1,167.7,243.7,157.4,239.2z"/>
<path class="st5" d="M59.5,283.1c-35.2-4.9-21.3-36.8-39.1-50.2c15.4,16.7-4.4,51.8,39.5,59.5"/>
<path class="st5" d="M75.6,217.3c2.8,1.2,5.1-0.4,6.1-2.2"/>
<path class="st1" d="M146.1,221.5c1.4,0,2.6,1.2,2.6,2.6c0,1.4-1.2,2.6-2.6,2.6c-1.4,0-2.6-1.2-2.6-2.6
	C143.5,222.7,144.7,221.5,146.1,221.5z M138.8,223c1.4,0,2.6,1.2,2.6,2.6c0,1.4-1.2,2.6-2.6,2.6c-1.4,0-2.6-1.2-2.6-2.6
	C136.2,224.1,137.3,223,138.8,223z M137.2,215.2c1.6,0,2.9,1.3,2.9,2.9c0,1.6-1.3,2.9-2.9,2.9c-1.6,0-2.9-1.3-2.9-2.9
	C134.3,216.5,135.6,215.2,137.2,215.2z"/>
<path class="st5" d="M122.2,278.6c-3.6,9.4-30.4,1.5-38.9-8.5"/>
<path class="st5" d="M67.4,232.7c-8.9,13-6,40-7.6,59.7c-2.1,36.8,5.3,56.8,18.2,56.3c1.8,0.4,4.4-1.1,4.9-2
	c2.9-1.9,3.7-4.7,1.4-8.9c0.9-8.1-4.3-15.8,4.3-32.2"/>
<path class="st5" d="M110.4,240.2c8.1,12.1,0,18.3,0,25.7"/>
<path class="st5" d="M116,283.4c0.9,19.8-27.7,27.7-39.4,18.3"/>
<path class="st5" d="M80.5,339.1c1.7,1.9,2.5,4.4,2.5,7.6"/>
<path class="st5" d="M110.3,334.7c1.4,1.6,2.1,3.8,2.1,6.5"/>
<path class="st5" d="M105.1,336.1c1.4,1.6,2.1,3.8,2.1,6.5"/>
<path class="st5" d="M74.6,341.1c1.7,1.9,2.5,4.3,2.4,7.5"/>
<path class="st5" d="M93.6,305.4c5,13.4,1.8,30.5,6.1,35.2c2.1,2,4.9,3.1,7.4,2c1.7,0.3,4.3-0.2,5.2-1.5c5.2-3.2,3.1-7.9,1.9-10.3
	c0.3-11.4,5.9-27.2,1-41.2"/>
<path class="st5" d="M107,265.7c-1.5-0.9-3-5.2-3.5-7.5"/>
<path class="st5" d="M106.2,265.5c-3.7-0.9-6.2-3.4-6.9-5.8"/>
<path class="st5" d="M117,240.3c4.6,6.4,7.4,13.9,9,22.1c6.2,7.6,3.5,17.7-4.9,18"/>
<path class="st8" d="M99.4,198.4c-3.6-3.7-8.4-6.2-15-7.1c3.5-16.5,12-21.9,19.3-14.8c1.7-5.8,7.5-6.9,13.3-2.7
	c10.8,10.1,3.9,19.4-6.7,16.5C108.6,195.1,105.4,198.2,99.4,198.4z"/>
<path class="st5" d="M98.9,166.6c-2.4-1.5-5.4-0.8-6.8,1.5"/>
<path class="st5" d="M113,166.4c-1.5-1.6-3.7-2-5.7-1.1"/>
<circle class="st9" cx="101.2" cy="194" r="4.2"/>
<circle class="st9" cx="115.2" cy="187.3" r="3.7"/>
<circle class="st8" cx="98" cy="191.6" r="1.7"/>
<circle class="st8" cx="113" cy="185.3" r="1.5"/>
<path class="st5" d="M84.4,191.3c3.5-16.5,12-21.9,19.3-14.8c1.7-5.8,7.5-6.9,13.3-2.7c10.8,10.1,3.9,19.4-6.7,16.5
	c-1.7,4.8-4.9,7.9-10.8,8.1"/>
<path class="st10" d="M284.6,238.5c-20.3-2.5-6.1-26.1-40.1-22.2c-35.1,0.8-17.2,24.2-36,27.8l-0.3,14.4
	c-0.2,7.6,6.9,12.8,19.5,11.5l43-2.6c12.1-0.3,18-6.5,16.6-14.6L284.6,238.5z"/>
<path class="st11" d="M284.6,238.5c-20.3-2.5-6.1-26.1-40.1-22.2c-35.1,0.8-17.2,24.2-36,27.8l-0.1,3.7c15.4-0.8,8.9-25.9,36.2-27
	c25.9-2.6,17.6,14.3,29.6,20c11.7,4.9,10.4,24.8-3.5,26.7c12.1-0.3,18-6.5,16.6-14.6L284.6,238.5z"/>
<path class="st11" d="M249.2,261.5c9.6,0,17.4-7.5,17.4-16.7c0-9.2-7.8-16.7-17.4-16.7s-17.4,7.5-17.4,16.7
	C231.8,254,239.6,261.5,249.2,261.5z"/>
<path class="st12" d="M208.5,244.2l-0.3,14.4c-0.2,7.6,6.9,12.8,19.5,11.5l43-2.6c12.1-0.3,18-6.5,16.6-14.6l-2.7-14.5"/>
<path class="st8" d="M247.8,259.1c9.2,0,16.7-7.5,16.7-16.7c0-9.2-7.5-16.7-16.7-16.7c-9.2,0-16.7,7.5-16.7,16.7
	C231.1,251.6,238.6,259.1,247.8,259.1z"/>
<path class="st12" d="M247.8,259.1c9.2,0,16.7-7.5,16.7-16.7c0-9.2-7.5-16.7-16.7-16.7c-9.2,0-16.7,7.5-16.7,16.7
	C231.1,251.6,238.6,259.1,247.8,259.1z"/>
<path class="st8" d="M237.5,250.6c0.8,0.8,0.8,2.1,0,2.9l-2.9,2.9c-0.8,0.8-2.1,0.8-2.9,0c-0.8-0.8-0.8-2.1,0-2.9l2.9-2.9
	C235.4,249.8,236.7,249.8,237.5,250.6z"/>
<path class="st12" d="M237.5,250.6c0.8,0.8,0.8,2.1,0,2.9l-2.9,2.9c-0.8,0.8-2.1,0.8-2.9,0c-0.8-0.8-0.8-2.1,0-2.9l2.9-2.9
	C235.4,249.8,236.7,249.8,237.5,250.6z"/>
<circle class="st10" cx="236.8" cy="240.5" r="2.5"/>
<circle class="st13" cx="236.8" cy="240.5" r="2.5"/>
<circle class="st10" cx="241.4" cy="233.6" r="2.5"/>
<circle class="st13" cx="241.4" cy="233.6" r="2.5"/>
<circle class="st10" cx="249.8" cy="232" r="2.5"/>
<circle class="st13" cx="249.8" cy="232" r="2.5"/>
<circle class="st10" cx="256.9" cy="236" r="2.5"/>
<circle class="st13" cx="256.9" cy="236" r="2.5"/>
<circle class="st10" cx="255.4" cy="250.6" r="2.5"/>
<circle class="st13" cx="255.4" cy="250.6" r="2.5"/>
<path class="st4" d="M188.5,232.4c-11.9,1.2-16.7,3.3-14.2,6.5c13.7,21.6-27.9,13.7-22.4,8.3c3.4-3.2,14.5,6.9,7.3,11.9
	c-6.8,4.6-19.8,0.7-19-1.8c3.8-3.3,19.1,8.8,7,18.2c-6,3.8-16.4,4.2-23.4-2.8"/>
<path class="st5" d="M82.5,249.7c10.8,12.1,19.1,16.7,31,16.2c7.1-0.6,10.8,3.4,10.3,7.5c-1.9,0.7-4.3,0.3-7.3-1.2"/>
<path class="st5" d="M123.8,273.5c0.9,3.7-0.8,7.4-8.9,5.1"/>
<path class="st0" d="M114.5,299.9c1,7.3-3.9,18.1-2.5,26.8C114.4,318.8,116.9,307.4,114.5,299.9z"/>
<path class="st0" d="M115.1,268c-8.7,0.3-16.6-2.3-24.8-7.6C96.7,268.4,105.4,271.4,115.1,268z"/>
<path class="st2" d="M64,123.1c6.3-8.1,14.6-13.1,25.5-16.6C77.4,106.3,68.2,111.9,64,123.1z"/>
<path class="st0" d="M19.4,137.1c9.2-4.4,18.9-5.2,30.2-3.3C39,128.1,28.2,129,19.4,137.1z"/>
<path class="st14" d="M25.9,172.7c6.3,8.1,14.6,13.1,25.5,16.6C39.3,189.5,30.1,183.9,25.9,172.7z"/>
<path class="st0" d="M127.5,183.2c4.2,1,21.9,23.2,22.7,29.7C142.5,204.8,134.6,195,127.5,183.2z"/>
<path class="st5" d="M79.6,191c9.5,0,16.5,3.5,21.7,9.3"/>
<path class="st10" d="M244.3,201.6l13.1,7.2l-12.8,7.6c-34.6,2-16.6,18-32.6,26.5c-6.9,3.9-24.5,2.4-22.6-10.6
	C193.7,207.7,221.5,203.1,244.3,201.6z"/>
<path class="st10" d="M242.6,201.8l-6.2,8.2l8.2,6.5c34.5-3.1,19.1,15.3,36.2,21.4c7.4,2.8,24.6-1.2,20.8-13.8
	C293.6,200.4,265.3,199.8,242.6,201.8z"/>
<path class="st15" d="M244.3,201.6c29.1-3.2,47.6,2.8,55.4,17.8c-9.2-10.5-27.9-14.2-55.2-11.8c-37.5,2.1-21.3,20.6-33.9,26.2
	c-5.6,2.1-22.8,5.3-21.3-1.4C193.7,207.7,221.5,203.1,244.3,201.6z"/>
<ellipse class="st16" cx="247.8" cy="242.5" rx="5.8" ry="5.8"/>
<path class="st12" d="M244.5,216.3c34.5-3.1,19.1,15.3,36.2,21.4c7.4,2.8,24.6-1.2,20.8-13.8c-7.9-23.6-36.2-24.2-58.9-22.2"/>
<path class="st12" d="M244.5,216.3c-34.6,2-16.6,18-32.6,26.5c-6.9,3.9-24.5,2.4-22.6-10.6c4.3-24.5,32.2-29.3,55-30.8"/>
<path class="st17" d="M194.7,228c4.8-7.3,11.5-12.1,20.6-15.8C204.9,212.8,197.5,218.1,194.7,228z"/>
</svg>
