<?xml version="1.0" encoding="utf-8"?>
<!-- Generator: Adobe Illustrator 21.1.0, SVG Export Plug-In . SVG Version: 6.00 Build 0)  -->
<svg version="1.1" id="Layer_1" xmlns="http://www.w3.org/2000/svg" xmlns:xlink="http://www.w3.org/1999/xlink" x="0px" y="0px"
	 viewBox="0 0 536 404" style="enable-background:new 0 0 536 404;" xml:space="preserve">
<style type="text/css">
	.st0{fill-rule:evenodd;clip-rule:evenodd;fill:#00833A;}
	.st1{fill-rule:evenodd;clip-rule:evenodd;fill:#23A635;}
	.st2{fill-rule:evenodd;clip-rule:evenodd;fill:#F7C6C7;}
	.st3{fill-rule:evenodd;clip-rule:evenodd;fill:#EB9EA1;}
	.st4{fill-rule:evenodd;clip-rule:evenodd;fill:#FFFFFF;}
	.st5{fill:none;stroke:#6E6E6E;stroke-width:1.6995;stroke-linecap:round;stroke-linejoin:round;stroke-miterlimit:22.9256;}
	.st6{fill-rule:evenodd;clip-rule:evenodd;fill:#B7DAEF;}
	.st7{fill:none;stroke:#E37767;stroke-width:1.6995;stroke-linecap:round;stroke-linejoin:round;stroke-miterlimit:22.9256;}
	.st8{fill-rule:evenodd;clip-rule:evenodd;fill:#1A1A18;}
	.st9{fill-rule:evenodd;clip-rule:evenodd;fill:#A1C413;}
	.st10{fill:none;stroke:#055332;stroke-width:1.6995;stroke-linecap:round;stroke-linejoin:round;stroke-miterlimit:22.9256;}
	.st11{fill-rule:evenodd;clip-rule:evenodd;fill:#F3A5A6;}
	.st12{fill-rule:evenodd;clip-rule:evenodd;fill:#D3D62D;}
</style>
<path class="st0" d="M396.7,51.8l67.9,44.4c21.5-12.9,12.6-29.6,0.9-34.2c-10.4-3.1-3.9-24.9-15.1-28c-11.4-3.4-17.9,14-29.5,3.2
	C412.8,29.6,401.3,38.3,396.7,51.8z"/>
<path class="st1" d="M463.2,205.9c-8.4,12.8-18.2,24.3-31,30.1c22.1,29.9,23.5,62.8,7.4,80.2l-2.8,1.1l-2.7,0.7l-2.9,14.2l-3.6,5.7
	c15.1,22.1,13.2,46,2,59c-4.8,5.9-37.5,5.4-54-8.6c-0.9-14.9,11.6-23.9,6.4-33l-9.1,0.4l-11.5-1.1c3,5.9,2.2,5.4-1.9,22
	c-11.9,17.2-53.7,3.7-54.4-6.6c1.3-13.3,15.2-6.8,13.7-41.5c-16-24.5-8.7-47.7-0.5-64.8c-20.9,8.6-50.2,21.1-71,18.8
	c-11.7,6.7-19.3-0.1-16.3-7.5l-1.6-4.9c31.2-3.5,57.5,2.2,58.2-14.8l-2.9-16.7c11.9-1,17.7-4.9,17.4-11.8
	c-2-11.6-9.7-20.5-27.5-24.7l-1.2-12.1c-16.9-13.8-16.6-23.8-11.2-21.4l11.6,5.2c1.9-22.3,7.1-43,16.2-61.6
	c29.3-49.5,75.9-67.9,121.2-58.2c-2.7-11.3,10-10.6,13.7,10.5c0.1-9.8,5.4-13.8,8.7,0.3c16.5,9.5,28.9,23.5,36.5,42.6
	c40.3-7.1,61.5,7.1,61.2,20.9c0.2,8.4-13.7,11.7-2.6,22.4c7.5,7.1,9.4,18.6-0.3,21.3c-19,8.6-5.7,24.4-12.8,30.7
	c-11.2,10.6-21.6-12.1-30.9,3C479.4,215.6,470.4,215,463.2,205.9z"/>
<path class="st0" d="M403.5,281.7c-2.7,16.7-13.9,23,4.9,39.8c0.1,34.7-69.4,29.9-89.6,7.1c1.5,31.1-13.2,33.2-13.7,41.5
	c6.2-3.8,10.6-2.3,13.4,4.5l3.9-2.4l4.4,0.1c3.8,1.8,10.3,4.9,14-4.5c4.5-10.6,24.2-0.8,20.7-13.3c12.3,2.2,24.4,1.4,36.4-3
	c20.9-7.2,22.7,27.1,14.6,29.7c-13.1,1.4-17.2,8-20,15.5c12.3,9.3,32.1,6.1,37.3,0.1c9.1-10.3,14.1-32.8,0.6-55.5l-2.6-3.5l1.4-1.5
	c12.5,5,33-6.9,40.1-19.6c-14.2,14.2-26.2,11.2-36.8,10.4l1.9-9.1l6.5-2.8c14.9-18.5,11.7-57.9-9.3-67.9c9.8,6.9,22.3,50-0.6,60.4
	l-5.5,9.1l-23.9-12.9c2.4-4.2,6.3-16.3,4.9-26.7l-4.6-2l-2.3-4.4C396.9,274.2,400.5,279.2,403.5,281.7z M458.9,197.3
	c-8.3,24.6-37.8,47.8-63.2,48.2c-25.2,2.6-28.3,19.4-45.4,17c-14-2.7-41.6,10.5-40.3,43.7c-3.4-16.4,4.6-33.6,8.3-42.3
	c-24.1,18-47.8,24.2-71,18.8c-11.9,4.5-18.6,3.4-16.3-7.5l-1.8-5.3l5.6-0.3c7.5,5.5,22.4,6.3,36.7,4.3c28.3-4.6,53.2-22.5,56.4-52.1
	c-15.9-5.4,31.3,13,42.4,0.4l11.9,13.5c-20.8-30.8,21.7-8.9,51-46.6c30.5-43.2,19-99.5-29.8-127.3c29.1,9.2,47.9,19.1,60,45.9
	c-7.9,35.5,37.2,15.2,51.3,32.4c8.1,7.7,6.5,20.4,0.4,28.4c-10.2,12.5,1,22.5-5.6,28.6c-11.2,10.6-15.3-6.1-24.6,8.9
	C479.4,215.6,466,206.3,458.9,197.3z"/>
<polygon class="st2" points="373.4,228.9 345.8,227.9 342.7,230.1 342.5,236.4 348.7,247.3 352.1,249.9 355.9,248.6 358.7,246.1 "/>
<path class="st3" d="M373.4,228.9l-27.5-1l-3.1,2.2l-0.2,6.3c7.1-1.3,10.7-0.6,10.9,2.1c4.6-4.6,8.8-4.9,12.6-1L373.4,228.9z"/>
<path class="st2" d="M510.6,166.1c-2.3,14.6-17.6,23.2-31.8,20.6c-2.8,5.5-6,6.2-9.2,6.7c7.2-19.4,9.7-38.4,7.5-56.8
	c12.3,3.1,22.1-2.3,32.4,4.3C517.1,145.7,516.8,159.7,510.6,166.1z"/>
<path class="st0" d="M397.6,151c4.9,8.3,1.2,28.1-2.8,35.1l3.5,1.4C405.2,179.3,405.9,161.4,397.6,151z"/>
<path class="st4" d="M369.7,186.5c8.8-1.8,16.3-3.3,25.1-0.4c7.7-16.7,3.1-34.8-3.8-36.3C380.7,148.7,368.8,162.6,369.7,186.5z"/>
<path class="st4" d="M273.3,190.1l0.4-16.2c-5.5-0.6-13-7.8-14.8-5C257,170.9,261.3,181.5,273.3,190.1z"/>
<path class="st4" d="M375.4,228.3c-5-3.5-7.2-7.9-6.7-13.4c-36.7,4.1-48.9-13-50.7-8.4C317.1,213,336.4,240.9,375.4,228.3z"/>
<path class="st5" d="M273.7,173.9c-5.5-0.6-13-7.8-14.8-5c-1.9,2,2.4,12.6,14.4,21.2"/>
<path class="st6" d="M370.3,175l-0.6,11.2c5.2-0.9,12.8-2.7,20.3-1c6-13.1,1.8-26.4-3.6-27.5C379.6,156,372.1,162.5,370.3,175z"/>
<path class="st7" d="M363,235.6c-4.9-0.8-7.7,0.5-9.5,2.9c-0.8-1.9-3.2-2.9-7.4-2.9"/>
<path class="st8" d="M377.7,184.2c4.1,0,7.4-3.3,7.4-7.4c0-4.1-3.3-7.4-7.4-7.4c-4.1,0-7.4,3.3-7.4,7.4
	C370.3,180.8,373.7,184.2,377.7,184.2z"/>
<circle class="st4" cx="383.4" cy="173.4" r="3.2"/>
<circle class="st4" cx="389.8" cy="163.3" r="3.7"/>
<path class="st9" d="M376.3,382.5l-0.5,5.8c5.2,12.7,30.4,17.6,41.2,14.1c-2.9-5.4-15.2-24.4-27.7-11.3
	C387.9,386.3,383.9,380.9,376.3,382.5z M305.2,370.1c2.5,8.3,13.7,13.1,33.4,14.5c-3.3-10.5-15.3-15.1-20-10
	C315.3,366.4,310.2,367,305.2,370.1z M439.7,316.4c-19.2,6.2-37.1,1-38.1-12.6c9.4-4.1,14.2-0.4,17.5,7.5
	C427.2,302.2,439,310.5,439.7,316.4z"/>
<path class="st9" d="M410.2,151.9c-2.2,3.2-18.8-7.8-15.3-13.6C398.6,133.3,414.5,144.5,410.2,151.9z"/>
<path class="st10" d="M410.2,151.9c-2.2,3.2-18.8-7.8-15.3-13.6C398.6,133.3,414.5,144.5,410.2,151.9z"/>
<path class="st10" d="M395.5,185c7.7-16.7,2.4-33.7-4.4-35.2c-10.3-1.1-22.2,12.4-21.3,36.3 M364.7,187.7c7.5-3.7,34.5-5.3,36.7,3.2
	 M303.4,160.3c-3-2.2-7.3-2.5-10.3-1.9 M314,144.2c-4.1-3.1-10.5-4.1-15.1-3.9 M297,187.6c-2.3-1-5.4-1.2-7.5-0.1 M255.5,275.5
	c-1.9,2.4,0,5,2.3,5.2 M272.7,280.3c-4.3-1.1-5.2-6.1-2.9-8.2 M375.4,228.3c-8.9,6.1-16.7,21.9-23.2,21.6c-3.1-1-7.7-8.5-10.9-15.9"
	/>
<path class="st9" d="M527.3,127c-6-12.5-34.8-19.8-47.5-17.2C495.2,104.3,527.1,111.1,527.3,127z M409.2,272
	c0.2,7-1.2,18.7-3.9,27.2C411.3,291.3,413.2,278.2,409.2,272z M315.7,305.1c1.8,10.3,8.5,20,15.1,27.2
	C322.1,327.6,314.1,317.7,315.7,305.1z M368.7,168.9c2.2-9.9,8.8-18.2,14.5-20.9C372.9,148.5,367,160.4,368.7,168.9z M298.7,105.5
	c-9.9,16.7-16,35.3-20.2,57.8C278.2,141.1,285,120.5,298.7,105.5z M374.1,206.1c-2.5,9.2-4.2,11.7,4.8,24.3
	C368.3,221.9,364.2,215.6,374.1,206.1z"/>
<path class="st11" d="M512.3,152.5c-4.9-9-13.3-8.4-24.4-10.9C500,141.3,509.8,139,512.3,152.5z"/>
<path class="st5" d="M368.7,214.9c-36.7,4.1-48.9-13-50.7-8.4c-1,6.4,18.4,34.3,57.3,21.7"/>
<path class="st10" d="M338.5,384.6c-3.2-9.5-13.9-16.6-20-10c-2.3-5.6-5.7-9-13.4-4.5 M417,402.4c-6.3-14.6-19.9-20.4-27.7-11.3
	c-1.3-4.7-5.3-9.9-13-8.6 M382.1,355.2c4.7,9.8-6.8,19.6-6.4,33c7.6,20,49,16.5,54,8.6c10.8-10.8,13.2-38.1-2-59
	c3.5-3,5.9-10.5,6.5-19.8 M432.7,327.9c7.9-0.8,20.9,4.3,36.4-11c-6.8,11.5-23.8,24-40.1,19.6 M421.1,338.1
	c-50.7,44.4-140.2-0.3-102.7-74.2 M401.5,303.8c5.3-1.5,12.9-4.2,17.5,7.5c5.4-6.5,16.4-4.9,21.7,4 M432.3,236
	c24.3,31.1,21,67.9,7.4,80.2c-10.2,4.9-34.5,4.3-38.3-11.1c-0.1-6.3,8.7-11.3,3.7-38.1 M342.7,230.1c-9.6,29.2-49.3,61.6-95.5,52.5
	c-10.1,5.1-19.5,2.5-16.3-7.5c-1-1.8-1.6-3.2-1.6-4.9 M411,54c-76.3-16.4-134,48.3-137.4,121.8c-0.8,9.7-0.1,18.4,1,26.4
	 M464.7,96.1c23.1-16.6,10.5-30.5,0.9-34.2c-11.9-6.6-2.4-22.8-15.1-28c-11.4-3.4-17.9,14-29.5,3.2c-8.2-7.6-19.6,1.5-24.3,14.6
	 M431.6,77c7.7-16.1-7.1-32.1-6.6-12.3c-2.9-21.8-23.2-25.8-10-1.4 M477,136.6c6.5,54.1-25.4,115-94.2,108.4
	c-14-1.3-21.7,13.5-30.6,12.2c-7.1-0.3-10.9-14.8-15.5-14.3 M433.7,65.1c17.4,11.2,30.5,26.7,36.5,42.6 M464.7,108.9
	c40.4-10.8,65.8,4.1,66.6,19.6c0.2,8.4-13.7,11.7-2.6,22.4c7.5,7.1,9.4,18.6-0.3,21.3c-19,8.6-5.7,24.4-12.8,30.7
	c-11.2,10.6-21.6-12.1-30.9,3c-5.3,9.8-14.4,9.2-21.5,0.1 M361.5,354.6c3.5,5.3,0.3,15.4-1.5,21.1c-6,15.3-51.6,9.2-54.9-5.6
	c4.6-13.8,14.4-9.2,13.7-41.5 M406.4,277.1c-2.1-1.1-5.6-0.4-6.9-6.4 M471.9,134.2c12.3,7.8,27.2,0.1,37.6,6.7
	c7.7,4.8,7.3,18.8,1.1,25.2 M373.2,205.4c-13.4,17.3,6.3,23.3,8.8,30.3"/>
<path class="st1" d="M472,85.6c1.7-11.5-3.6-17.1-8.2-21.1C470.4,64.9,477.8,73.9,472,85.6z"/>
<path class="st12" d="M318.2,377c4.9-2.6,11.6-0.5,18.1,6.2C330.4,374.2,323.8,369.9,318.2,377z M412,396.3
	c-7.7-3.8-12.4-6.2-21.7-4.2C398.1,385.2,404.6,388.9,412,396.3z M438.1,315.5c-3-2.8-13.1-5.7-17.7-2.8
	C426.9,305.6,435.5,311,438.1,315.5z"/>
</svg>
