<?xml version="1.0" encoding="utf-8"?>
<!-- Generator: Adobe Illustrator 21.1.0, SVG Export Plug-In . SVG Version: 6.00 Build 0)  -->
<svg version="1.1" id="Layer_1" xmlns="http://www.w3.org/2000/svg" xmlns:xlink="http://www.w3.org/1999/xlink" x="0px" y="0px"
	 viewBox="0 0 536 404" style="enable-background:new 0 0 536 404;" xml:space="preserve">
<style type="text/css">
	.st0{fill-rule:evenodd;clip-rule:evenodd;fill:#EFE5F2;}
	.st1{fill-rule:evenodd;clip-rule:evenodd;fill:#E6D4E8;}
</style>
<path class="st0" d="M108.7,116.3c30.4-15.3,26.4-34.7,46.8-50.7c36.4-15.6,40.2,15.1,65.1,3.4c29.1-13.6,20-45.7,49.3-54.2
	c40-8.7,36.4,19.7,74.2,17.5c27.7-1.5,45.6-88.2,119.4,28c25.4,40,54.5,134.5,30.1,233.9C468.2,397.7,360,429.6,246,381
	c-25.3-10.8-79.3-15.3-117.1-17.4C-40.9,364.1-37.6,146.1,108.7,116.3z"/>
<path class="st1" d="M283.1,132.2l127.8-5.4c53-2.2,90.2,90.5,72,166c-28.2,116.8-187.9,82.5-248.6,55.9
	C131.7,305.2,87.4,179.8,283.1,132.2z"/>
<path class="st1" d="M108.1,357.3c-22.1,0.9-58.8-6.6-58.8-19.8c0-22.7,91.2-21.2,104.4-10.3C180.1,349.2,128.3,357.3,108.1,357.3z"
	/>
</svg>
