<?xml version="1.0" encoding="utf-8"?>
<!-- Generator: Adobe Illustrator 21.1.0, SVG Export Plug-In . SVG Version: 6.00 Build 0)  -->
<svg version="1.1" id="Layer_1" xmlns="http://www.w3.org/2000/svg" xmlns:xlink="http://www.w3.org/1999/xlink" x="0px" y="0px"
	 viewBox="0 0 536 404" style="enable-background:new 0 0 536 404;" xml:space="preserve">
<style type="text/css">
	.st0{fill-rule:evenodd;clip-rule:evenodd;fill:#EFE5F2;}
	.st1{fill-rule:evenodd;clip-rule:evenodd;fill:#E6D4E8;}
	.st2{fill-rule:evenodd;clip-rule:evenodd;fill:#D88F55;}
	.st3{fill-rule:evenodd;clip-rule:evenodd;fill:#A35939;}
	.st4{fill-rule:evenodd;clip-rule:evenodd;fill:#BD6E39;}
	.st5{fill-rule:evenodd;clip-rule:evenodd;fill:#F7C6C7;}
	.st6{fill:none;stroke:#868685;stroke-width:2.266;stroke-linecap:round;stroke-linejoin:round;stroke-miterlimit:22.9256;}
	.st7{fill:none;stroke:#822E2D;stroke-width:1.6995;stroke-linecap:round;stroke-linejoin:round;stroke-miterlimit:22.9256;}
	.st8{fill-rule:evenodd;clip-rule:evenodd;fill:#3B3A39;}
	.st9{fill:none;stroke:#1A1A18;stroke-width:1.6995;stroke-linecap:round;stroke-linejoin:round;stroke-miterlimit:22.9256;}
	.st10{fill-rule:evenodd;clip-rule:evenodd;fill:#FFFFFF;}
	.st11{fill-rule:evenodd;clip-rule:evenodd;fill:#1A1A18;}
	.st12{fill-rule:evenodd;clip-rule:evenodd;fill:#EB9EA1;}
	.st13{fill:none;stroke:#6E6E6E;stroke-width:1.6995;stroke-linecap:round;stroke-linejoin:round;stroke-miterlimit:22.9256;}
	.st14{fill-rule:evenodd;clip-rule:evenodd;fill:#B7DAEF;}
	.st15{fill:none;stroke:#E37767;stroke-width:1.6995;stroke-linecap:round;stroke-linejoin:round;stroke-miterlimit:22.9256;}
	.st16{fill-rule:evenodd;clip-rule:evenodd;fill:#EDB581;}
	.st17{fill-rule:evenodd;clip-rule:evenodd;fill:#F3A5A6;}
	.st18{fill-rule:evenodd;clip-rule:evenodd;fill:#A59BCC;}
	.st19{fill-rule:evenodd;clip-rule:evenodd;fill:#7C6EAF;}
	.st20{fill:none;stroke:#804896;stroke-width:1.6995;stroke-linecap:round;stroke-linejoin:round;stroke-miterlimit:22.9256;}
	.st21{fill:none;stroke:#6E3F81;stroke-width:1.6995;stroke-linecap:round;stroke-linejoin:round;stroke-miterlimit:22.9256;}
	.st22{fill-rule:evenodd;clip-rule:evenodd;fill:#BBB4D9;}
	.st23{fill:none;stroke:#A59BCC;stroke-width:1.6995;stroke-linecap:round;stroke-linejoin:round;stroke-miterlimit:22.9256;}
	.st24{fill-rule:evenodd;clip-rule:evenodd;fill:#D1CCE6;}
	.st25{fill:none;stroke:#E30045;stroke-width:8.4976;stroke-linecap:round;stroke-linejoin:round;stroke-miterlimit:22.9256;}
</style>
<path class="st0" d="M108.7,116.3c30.4-15.3,26.4-34.7,46.8-50.7c36.4-15.6,40.2,15.1,65.1,3.4c29.1-13.6,20-45.7,49.3-54.2
	c40-8.7,36.4,19.7,74.2,17.5c27.7-1.5,45.6-88.2,119.4,28c25.4,40,54.5,134.5,30.1,233.9C468.2,397.7,360,429.6,246,381
	c-25.3-10.8-79.3-15.3-117.1-17.4C-40.9,364.1-37.6,146.1,108.7,116.3z"/>
<path class="st1" d="M283.1,132.2l127.8-5.4c53-2.2,90.2,90.5,72,166c-28.2,116.8-187.9,82.5-248.6,55.9
	C131.7,305.2,87.4,179.8,283.1,132.2z"/>
<path class="st1" d="M108.1,357.3c-22.1,0.9-58.8-6.6-58.8-19.8c0-22.7,91.2-21.2,104.4-10.3C180.1,349.2,128.3,357.3,108.1,357.3z"
	/>
<polygon class="st2" points="71.4,234.8 113.7,240.3 115.7,273.2 71.4,264.7 "/>
<path class="st3" d="M121.1,280.4L110.4,266c0.2-7.8,8-13.8,0-25.7l6.6,0.1c4.6,6.4,7.4,13.9,9,22.1
	C132.2,270,129.5,280.1,121.1,280.4z"/>
<path class="st3" d="M59.9,292.4l-0.4-9.3c-35.2-4.9-21.3-36.8-39.1-50.2C35.8,249.6,16,284.7,59.9,292.4z"/>
<path class="st4" d="M88.6,305.6l5.1-0.2c5.3,12.6-1,39.4,13.5,37.2c7.6-0.7,10-4.7,7.1-11.8c0.3-13.7,5.6-25.4,1-41.2l0.8-6.3
	c3.6-1,5.4-2.5,5.5-4.4c1.7-0.7,3.5-2.7,2.3-5.5c0-7.1-5.5-8.6-13.4-7.5c-10.1-0.1-19.3-5.5-27.9-16.2c-2.1-3.7-3.8-7.5-2.3-12.2
	l-12.8-4.8c-8.9,13-6,40-7.6,59.7c-2.1,36.8,5.3,56.8,18.2,56.3c1.8,0.4,4.4-1.1,4.9-2c2.9-1.9,3.7-4.7,1.4-8.9
	C85.2,329.7,80,322,88.6,305.6z"/>
<path class="st3" d="M111.5,158.3l-36.8-7.1l-13.9-16c-2-20.3,11.6-31.5,25.5-30.9C106.3,104,125.5,130.9,111.5,158.3z"/>
<path class="st3" d="M78.1,271c8.2,10.9,24.1,14.9,31.8,12.5l3.1-0.6l-3.7-0.7c-24.3-9.8-37.9-24.7-35.7-47l-6.5-2.4
	c-7,9.7-6.8,49-7.7,65.6c1.1,22.9,3.2,37.4,7.6,44c2.1,4,5.8,7.2,10.1,6.4l3-0.3l2.5-1.7c-1.3,0.8-4,1.8-5.3,0
	c-16.6-6.1-7.4-47.1,3.6-42.6l7.7,1.4l5.1-0.2c5.5,15.7-0.3,34.1,9.5,37.3c-5.2-5.9-1-26.3-1.5-39.4c7.7-3.5,11.2-7.5,12.9-11.8
	C99.4,308.8,70.8,298.5,78.1,271z"/>
<path class="st4" d="M83.9,139.6c2.6-6,6.6-10,11.9-12l-2.5,13c30.4,26.8,52,56.1,69.1,86.5l-4.9,12.2l-12.1,0.6l-85.7-40
	c-43,4-63.5-30.6-48.6-57c12.9-24.2,55.1-15.3,63.8,8.4c2.7-6.8,4.3-14.2,4.9-22l2.5,3.8L83.9,139.6z"/>
<path class="st3" d="M59.5,199.8c-34.3,4-56.6-19.6-45.3-44.4c12.9-24.2,44.8-14.5,51.8,7.2l-3.2,15.2L59.5,199.8z"/>
<path class="st5" d="M60.2,193.1c1.1-7.8,3.4-20.6,5.8-30.5c-13.4-18.6-33.3-19.3-40.4-9.5C14.3,169.1,22.6,194.5,60.2,193.1z"/>
<path class="st6" d="M120,281.3c0.4,16.4,16,14.8,15.1,10.2c-0.7-4.3-16.2,1.3-3.4,21.5"/>
<path class="st2" d="M60,194.7c44.6-17.1,52,30.2,90,44.9c-40.5,1.8-75,1.3-84.8-8.7C59.9,224.4,57.6,213,60,194.7z"/>
<path class="st7" d="M157.4,239.2c-47.6,2.5-83.1,1.3-92.2-8.4c-8.4-8.6-8.1-31.4,0.8-68.3c-13.4-18.6-33.3-19.3-40.4-9.5
	c-11.3,16-3,41.5,34.6,40"/>
<path class="st7" d="M59.5,199.8c-43,4-63.4-30.6-48.6-57c12.9-24.2,55.1-15.3,63.8,8.4c2.7-6.8,4.3-14.2,4.9-22
	c3.8,3.8,4.8,10.9,4.9,19"/>
<path class="st7" d="M93.2,140.6c30,27.2,52.2,56.3,69,86.5"/>
<path class="st7" d="M83.9,139.6c3.1-6.5,7.2-10.3,11.9-12c-4.3,11.4-3,18.4,1,23.5"/>
<path class="st7" d="M60.8,135.2c-2-20.3,11.6-31.5,25.5-30.9c20-0.3,39.2,26.7,25.2,54.1"/>
<path class="st7" d="M79.6,217.3c3.8,12.2,11.8,19.6,19.9,22.4"/>
<path class="st8" d="M157.4,239.2c-6.1-5.1-1.3-12.9,4.9-12.2C174.9,234.1,167.7,243.7,157.4,239.2z"/>
<path class="st9" d="M157.4,239.2c-6.1-5.1-1.3-12.9,4.9-12.2C174.9,234.1,167.7,243.7,157.4,239.2z"/>
<path class="st7" d="M59.5,283.1c-35.2-4.9-21.3-36.8-39.1-50.2c15.4,16.7-4.4,51.8,39.5,59.5"/>
<path class="st7" d="M75.6,217.3c2.8,1.2,5.1-0.4,6.1-2.2"/>
<path class="st3" d="M146.1,221.5c1.4,0,2.6,1.2,2.6,2.6c0,1.4-1.2,2.6-2.6,2.6c-1.4,0-2.6-1.2-2.6-2.6
	C143.5,222.7,144.7,221.5,146.1,221.5z M138.8,223c1.4,0,2.6,1.2,2.6,2.6c0,1.4-1.2,2.6-2.6,2.6c-1.4,0-2.6-1.2-2.6-2.6
	C136.2,224.1,137.3,223,138.8,223z M137.2,215.2c1.6,0,2.9,1.3,2.9,2.9c0,1.6-1.3,2.9-2.9,2.9c-1.6,0-2.9-1.3-2.9-2.9
	C134.3,216.5,135.6,215.2,137.2,215.2z"/>
<path class="st7" d="M122.2,278.6c-3.6,9.4-30.4,1.5-38.9-8.5"/>
<path class="st7" d="M67.4,232.7c-8.9,13-6,40-7.6,59.7c-2.1,36.8,5.3,56.8,18.2,56.3c1.8,0.4,4.4-1.1,4.9-2
	c2.9-1.9,3.7-4.7,1.4-8.9c0.9-8.1-4.3-15.8,4.3-32.2"/>
<path class="st7" d="M110.4,240.2c8.1,12.1,0,18.3,0,25.7"/>
<path class="st7" d="M116,283.4c0.9,19.8-27.7,27.7-39.4,18.3"/>
<path class="st7" d="M80.5,339.1c1.7,1.9,2.5,4.4,2.5,7.6"/>
<path class="st7" d="M110.3,334.7c1.4,1.6,2.1,3.8,2.1,6.5"/>
<path class="st7" d="M105.1,336.1c1.4,1.6,2.1,3.8,2.1,6.5"/>
<path class="st7" d="M74.6,341.1c1.7,1.9,2.5,4.3,2.4,7.5"/>
<path class="st7" d="M93.6,305.4c5,13.4,1.8,30.5,6.1,35.2c2.1,2,4.9,3.1,7.4,2c1.7,0.3,4.3-0.2,5.2-1.5c5.2-3.2,3.1-7.9,1.9-10.3
	c0.3-11.4,5.9-27.2,1-41.2"/>
<path class="st7" d="M107,265.7c-1.5-0.9-3-5.2-3.5-7.5"/>
<path class="st7" d="M106.2,265.5c-3.7-0.9-6.2-3.4-6.9-5.8"/>
<path class="st7" d="M117,240.3c4.6,6.4,7.4,13.9,9,22.1c6.2,7.6,3.5,17.7-4.9,18"/>
<path class="st10" d="M99.4,198.4c-3.6-3.7-8.4-6.2-15-7.1c3.5-16.5,12-21.9,19.3-14.8c1.7-5.8,7.5-6.9,13.3-2.7
	c10.8,10.1,3.9,19.4-6.7,16.5C108.6,195.1,105.4,198.2,99.4,198.4z"/>
<path class="st7" d="M98.9,166.6c-2.4-1.5-5.4-0.8-6.8,1.5"/>
<path class="st7" d="M113,166.4c-1.5-1.6-3.7-2-5.7-1.1"/>
<circle class="st11" cx="101.2" cy="194" r="4.2"/>
<circle class="st11" cx="115.2" cy="187.3" r="3.7"/>
<circle class="st10" cx="98" cy="191.6" r="1.7"/>
<circle class="st10" cx="113" cy="185.3" r="1.5"/>
<path class="st7" d="M84.4,191.3c3.5-16.5,12-21.9,19.3-14.8c1.7-5.8,7.5-6.9,13.3-2.7c10.8,10.1,3.9,19.4-6.7,16.5
	c-1.7,4.8-4.9,7.9-10.8,8.1"/>
<path class="st3" d="M396.7,51.8l67.9,44.4c21.5-12.9,12.6-29.6,0.9-34.2c-10.4-3.1-3.9-24.9-15.1-28c-11.4-3.4-17.9,14-29.5,3.2
	C412.8,29.6,401.3,38.3,396.7,51.8z"/>
<path class="st7" d="M464.7,96.1c23.1-16.6,10.5-30.5,0.9-34.2c-11.9-6.6-2.4-22.8-15.1-28c-11.4-3.4-17.9,14-29.5,3.2
	c-8.2-7.6-19.6,1.5-24.3,14.6"/>
<path class="st4" d="M463.2,205.9c-8.4,12.8-18.2,24.3-31,30.1c22.1,29.9,23.5,62.8,7.4,80.2l-2.8,1.1l-2.7,0.7l-2.9,14.2l-3.6,5.7
	c15.1,22.1,13.2,46,2,59c-4.8,5.9-37.5,5.4-54-8.6c-0.9-14.9,11.6-23.9,6.4-33l-9.1,0.4l-11.5-1.1c3,5.9,2.2,5.4-1.9,22
	c-11.9,17.2-53.7,3.7-54.4-6.6c1.3-13.3,15.2-6.8,13.7-41.5c-16-24.5-8.7-47.7-0.5-64.8c-20.9,8.6-50.2,21.1-71,18.8
	c-11.7,6.7-19.3-0.1-16.3-7.5l-1.6-4.9c31.2-3.5,57.5,2.2,58.2-14.8l-2.9-16.7c11.9-1,17.7-4.9,17.4-11.8
	c-2-11.6-9.7-20.5-27.5-24.7l-1.2-12.1c-16.9-13.8-16.6-23.8-11.2-21.4l11.6,5.2c1.9-22.3,7.1-43,16.2-61.6
	c29.3-49.5,75.9-67.9,121.2-58.2c-2.7-11.3,10-10.6,13.7,10.5c0.1-9.8,5.4-13.8,8.7,0.3c16.5,9.5,28.9,23.5,36.5,42.6
	c40.3-7.1,61.5,7.1,61.2,20.9c0.2,8.4-13.7,11.7-2.6,22.4c7.5,7.1,9.4,18.6-0.3,21.3c-19,8.6-5.7,24.4-12.8,30.7
	c-11.2,10.6-21.6-12.1-30.9,3C479.4,215.6,470.4,215,463.2,205.9z"/>
<path class="st3" d="M403.5,281.7c-2.7,16.7-13.9,23,4.9,39.8c0.1,34.7-69.4,29.9-89.6,7.1c1.5,31.1-13.2,33.2-13.7,41.5
	c6.2-3.8,10.6-2.3,13.4,4.5l3.9-2.4l4.4,0.1c3.8,1.8,10.3,4.9,14-4.5c4.5-10.6,24.2-0.8,20.7-13.3c12.3,2.2,24.4,1.4,36.4-3
	c20.9-7.2,22.7,27.1,14.6,29.7c-13.1,1.4-17.2,8-20,15.5c12.3,9.3,32.1,6.1,37.3,0.1c9.1-10.3,14.1-32.8,0.6-55.5l-2.6-3.5l1.4-1.5
	c12.5,5,33-6.9,40.1-19.6c-14.2,14.2-26.2,11.2-36.8,10.4l1.9-9.1l6.5-2.8c14.9-18.5,11.7-57.9-9.3-67.9c9.8,6.9,22.3,50-0.6,60.4
	l-5.5,9.1l-23.9-12.9c2.4-4.2,6.3-16.3,4.9-26.7l-4.6-2l-2.3-4.4C396.9,274.2,400.5,279.2,403.5,281.7z M458.9,197.3
	c-8.3,24.6-37.8,47.8-63.2,48.2c-25.2,2.6-28.3,19.4-45.4,17c-14-2.7-41.6,10.5-40.3,43.7c-3.4-16.4,4.6-33.6,8.3-42.3
	c-24.1,18-47.8,24.2-71,18.8c-11.9,4.5-18.6,3.4-16.3-7.5l-1.8-5.3l5.6-0.3c7.5,5.5,22.4,6.3,36.7,4.3c28.3-4.6,53.2-22.5,56.4-52.1
	c-15.9-5.4,31.3,13,42.4,0.4l11.9,13.5c-20.8-30.8,21.7-8.9,51-46.6c30.5-43.2,19-99.5-29.8-127.3c29.1,9.2,47.9,19.1,60,45.9
	c-7.9,35.5,37.2,15.2,51.3,32.4c8.1,7.7,6.5,20.4,0.4,28.4c-10.2,12.5,1,22.5-5.6,28.6c-11.2,10.6-15.3-6.1-24.6,8.9
	C479.4,215.6,466,206.3,458.9,197.3z"/>
<polygon class="st5" points="373.4,228.9 345.8,227.9 342.7,230.1 342.5,236.4 348.7,247.3 352.1,249.9 355.9,248.6 358.7,246.1 "/>
<path class="st12" d="M373.4,228.9l-27.5-1l-3.1,2.2l-0.2,6.3c7.1-1.3,10.7-0.6,10.9,2.1c4.6-4.6,8.8-4.9,12.6-1L373.4,228.9z"/>
<path class="st5" d="M510.6,166.1c-2.3,14.6-17.6,23.2-31.8,20.6c-2.8,5.5-6,6.2-9.2,6.7c7.2-19.4,9.7-38.4,7.5-56.8
	c12.3,3.1,22.1-2.3,32.4,4.3C517.1,145.7,516.8,159.7,510.6,166.1z"/>
<path class="st10" d="M369.7,186.5c8.8-1.8,16.3-3.3,25.1-0.4c7.7-16.7,3.1-34.8-3.8-36.3C380.7,148.7,368.8,162.6,369.7,186.5z"/>
<path class="st7" d="M431.6,77c7.7-16.1-7.1-32.1-6.6-12.3c-2.9-21.8-23.2-25.8-10-1.4"/>
<path class="st7" d="M477,136.6c6.5,54.1-25.4,115-94.2,108.4c-14-1.3-21.7,13.5-30.6,12.2c-7.1-0.3-10.9-14.8-15.5-14.3
	 M433.7,65.1c17.4,11.2,30.5,26.7,36.5,42.6"/>
<path class="st10" d="M273.3,190.1l0.4-16.2c-5.5-0.6-13-7.8-14.8-5C257,170.9,261.3,181.5,273.3,190.1z"/>
<path class="st10" d="M375.4,228.3c-5-3.5-7.2-7.9-6.7-13.4c-36.7,4.1-48.9-13-50.7-8.4C317.1,213,336.4,240.9,375.4,228.3z"/>
<path class="st7" d="M375.4,228.3c-8.9,6.1-16.7,21.9-23.2,21.6c-3.1-1-7.7-8.5-10.9-15.9"/>
<path class="st13" d="M273.7,173.9c-5.5-0.6-13-7.8-14.8-5c-1.9,2,2.4,12.6,14.4,21.2"/>
<path class="st14" d="M370.3,175l-0.6,11.2c5.2-0.9,12.8-2.7,20.3-1c6-13.1,1.8-26.4-3.6-27.5C379.6,156,372.1,162.5,370.3,175z"/>
<path class="st15" d="M363,235.6c-4.9-0.8-7.7,0.5-9.5,2.9c-0.8-1.9-3.2-2.9-7.4-2.9"/>
<path class="st7" d="M464.7,108.9c40.4-10.8,65.8,4.1,66.6,19.6c0.2,8.4-13.7,11.7-2.6,22.4c7.5,7.1,9.4,18.6-0.3,21.3
	c-19,8.6-5.7,24.4-12.8,30.7c-11.2,10.6-21.6-12.1-30.9,3c-5.3,9.8-14.4,9.2-21.5,0.1"/>
<path class="st7" d="M471.9,134.2c12.3,7.8,27.2,0.1,37.6,6.7c7.7,4.8,7.3,18.8,1.1,25.2"/>
<path class="st11" d="M377.7,184.2c4.1,0,7.4-3.3,7.4-7.4c0-4.1-3.3-7.4-7.4-7.4c-4.1,0-7.4,3.3-7.4,7.4
	C370.3,180.8,373.7,184.2,377.7,184.2z"/>
<circle class="st10" cx="383.4" cy="173.4" r="3.2"/>
<circle class="st10" cx="389.8" cy="163.3" r="3.7"/>
<path class="st2" d="M439.7,316.4c-19.2,6.2-37.1,1-38.1-12.6c9.4-4.1,14.2-0.4,17.5,7.5C427.2,302.2,439,310.5,439.7,316.4z"/>
<path class="st2" d="M410.2,151.9c-2.2,3.2-18.8-7.8-15.3-13.6C398.6,133.3,414.5,144.5,410.2,151.9z"/>
<path class="st7" d="M410.2,151.9c-2.2,3.2-18.8-7.8-15.3-13.6C398.6,133.3,414.5,144.5,410.2,151.9z"/>
<path class="st2" d="M376.3,382.5l-0.5,5.8c5.2,12.7,30.4,17.6,41.2,14.1c-2.9-5.4-15.2-24.4-27.7-11.3
	C387.9,386.3,383.9,380.9,376.3,382.5z"/>
<path class="st7" d="M432.3,236c24.3,31.1,21,67.9,7.4,80.2c-10.2,4.9-34.5,4.3-38.3-11.1c-0.1-6.3,8.7-11.3,3.7-38.1"/>
<path class="st7" d="M406.4,277.1c-2.1-1.1-5.6-0.4-6.9-6.4"/>
<path class="st2" d="M305.2,370.1c2.5,8.3,13.7,13.1,33.4,14.5c-3.3-10.5-15.3-15.1-20-10C315.3,366.4,310.2,367,305.2,370.1z"/>
<path class="st7" d="M401.5,303.8c5.3-1.5,12.9-4.2,17.5,7.5c5.4-6.5,16.4-4.9,21.7,4"/>
<path class="st7" d="M421.1,338.1c-50.7,44.4-140.2-0.3-102.7-74.2"/>
<path class="st7" d="M382.1,355.2c4.7,9.8-6.8,19.6-6.4,33c7.6,20,49,16.5,54,8.6c10.8-10.8,13.2-38.1-2-59c3.4-3,5.9-10.5,6.5-19.8
	"/>
<path class="st7" d="M417,402.4c-6.3-14.6-19.9-20.4-27.7-11.3c-1.3-4.7-5.3-9.9-13-8.6"/>
<path class="st7" d="M432.7,327.9c7.9-0.8,20.9,4.3,36.4-11c-6.8,11.5-23.8,24-40.1,19.6"/>
<path class="st7" d="M361.5,354.6c3.5,5.3,0.3,15.4-1.5,21.1c-6,15.3-51.6,9.2-54.9-5.6c4.6-13.8,14.4-9.2,13.7-41.5"/>
<path class="st7" d="M338.5,384.6c-3.2-9.5-13.9-16.6-20-10c-2.3-5.6-5.7-9-13.4-4.5"/>
<path class="st2" d="M374.1,206.1c-2.5,9.2-4.2,11.7,4.8,24.3C368.3,221.9,364.2,215.6,374.1,206.1z"/>
<path class="st16" d="M438.1,315.5c-3-2.8-13.1-5.7-17.7-2.8C426.9,305.6,435.5,311,438.1,315.5z"/>
<path class="st2" d="M315.7,305.1c1.8,10.3,8.5,20,15.1,27.2C322.1,327.6,314.1,317.7,315.7,305.1z"/>
<path class="st2" d="M409.2,272c0.2,7-1.2,18.7-3.9,27.2C411.3,291.3,413.2,278.2,409.2,272z"/>
<path class="st16" d="M412,396.3c-7.7-3.8-12.4-6.2-21.7-4.2C398.1,385.2,404.6,388.9,412,396.3z"/>
<path class="st16" d="M318.2,377c4.9-2.6,11.6-0.5,18.1,6.2C330.4,374.2,323.8,369.9,318.2,377z"/>
<path class="st4" d="M472,85.6c1.7-11.5-3.6-17.1-8.2-21.1C470.4,64.9,477.8,73.9,472,85.6z"/>
<path class="st2" d="M368.7,168.9c2.2-9.9,8.8-18.2,14.5-20.9C372.9,148.5,367,160.4,368.7,168.9z"/>
<path class="st17" d="M512.3,152.5c-4.9-9-13.3-8.4-24.4-10.9C500,141.3,509.8,139,512.3,152.5z"/>
<path class="st2" d="M298.7,105.5c-9.9,16.7-16,35.3-20.2,57.8C278.2,141.1,285,120.5,298.7,105.5z"/>
<path class="st7" d="M303.4,160.3c-3-2.2-7.3-2.5-10.3-1.9 M314,144.2c-4.1-3.1-10.5-4.1-15.1-3.9 M297,187.6
	c-2.3-1-5.4-1.2-7.5-0.1"/>
<path class="st2" d="M527.3,127c-6-12.5-34.8-19.8-47.5-17.2C495.2,104.3,527.1,111.1,527.3,127z"/>
<path class="st3" d="M397.6,151c4.9,8.3,1.2,28.1-2.8,35.1l3.5,1.4C405.2,179.3,405.9,161.4,397.6,151z"/>
<path class="st7" d="M364.7,187.7c7.5-3.7,34.5-5.3,36.7,3.2"/>
<path class="st7" d="M395.5,185c7.7-16.7,2.4-33.7-4.4-35.2c-10.3-1.1-22.2,12.4-21.3,36.3"/>
<path class="st13" d="M368.7,214.9c-36.7,4.1-48.9-13-50.7-8.4c-1,6.4,18.4,34.3,57.3,21.7"/>
<path class="st7" d="M373.2,205.4c-13.3,17.3,6.3,23.3,8.8,30.3"/>
<path class="st7" d="M272.7,280.3c-4.3-1.1-5.2-6.1-2.9-8.2"/>
<path class="st7" d="M255.5,275.5c-1.9,2.4,0,5,2.3,5.2"/>
<path class="st7" d="M342.7,230.1c-9.6,29.2-49.3,61.6-95.5,52.5c-10.1,5.1-19.5,2.5-16.3-7.5c-1-1.8-1.6-3.2-1.6-4.9 M411,54
	c-76.3-16.4-134,48.3-137.4,121.8c-0.8,9.7-0.1,18.4,1,26.4"/>
<path class="st18" d="M284.6,238.5c-20.3-2.5-6.1-26.1-40.1-22.2c-35.1,0.8-17.2,24.2-36,27.8l-0.3,14.4
	c-0.2,7.6,6.9,12.8,19.5,11.5l43-2.6c12.1-0.3,18-6.5,16.6-14.6L284.6,238.5z"/>
<path class="st19" d="M284.6,238.5c-20.3-2.5-6.1-26.1-40.1-22.2c-35.1,0.8-17.2,24.2-36,27.8l-0.1,3.7c15.4-0.8,8.9-25.9,36.2-27
	c25.9-2.6,17.6,14.3,29.6,20c11.7,4.9,10.4,24.8-3.5,26.7c12.1-0.3,18-6.5,16.6-14.6L284.6,238.5z"/>
<path class="st19" d="M249.2,261.5c9.6,0,17.4-7.5,17.4-16.7c0-9.2-7.8-16.7-17.4-16.7s-17.4,7.5-17.4,16.7
	C231.8,254,239.6,261.5,249.2,261.5z"/>
<path class="st20" d="M208.5,244.2l-0.3,14.4c-0.2,7.6,6.9,12.8,19.5,11.5l43-2.6c12.1-0.3,18-6.5,16.6-14.6l-2.7-14.5"/>
<path class="st10" d="M247.8,259.1c9.2,0,16.7-7.5,16.7-16.7c0-9.2-7.5-16.7-16.7-16.7c-9.2,0-16.7,7.5-16.7,16.7
	C231.1,251.6,238.6,259.1,247.8,259.1z"/>
<path class="st20" d="M247.8,259.1c9.2,0,16.7-7.5,16.7-16.7c0-9.2-7.5-16.7-16.7-16.7c-9.2,0-16.7,7.5-16.7,16.7
	C231.1,251.6,238.6,259.1,247.8,259.1z"/>
<path class="st10" d="M237.5,250.6c0.8,0.8,0.8,2.1,0,2.9l-2.9,2.9c-0.8,0.8-2.1,0.8-2.9,0c-0.8-0.8-0.8-2.1,0-2.9l2.9-2.9
	C235.4,249.8,236.7,249.8,237.5,250.6z"/>
<path class="st20" d="M237.5,250.6c0.8,0.8,0.8,2.1,0,2.9l-2.9,2.9c-0.8,0.8-2.1,0.8-2.9,0c-0.8-0.8-0.8-2.1,0-2.9l2.9-2.9
	C235.4,249.8,236.7,249.8,237.5,250.6z"/>
<circle class="st18" cx="236.8" cy="240.5" r="2.5"/>
<circle class="st21" cx="236.8" cy="240.5" r="2.5"/>
<circle class="st18" cx="241.4" cy="233.6" r="2.5"/>
<circle class="st21" cx="241.4" cy="233.6" r="2.5"/>
<circle class="st18" cx="249.8" cy="232" r="2.5"/>
<circle class="st21" cx="249.8" cy="232" r="2.5"/>
<circle class="st18" cx="256.9" cy="236" r="2.5"/>
<circle class="st21" cx="256.9" cy="236" r="2.5"/>
<circle class="st18" cx="255.4" cy="250.6" r="2.5"/>
<circle class="st21" cx="255.4" cy="250.6" r="2.5"/>
<path class="st6" d="M188.5,232.4c-11.9,1.2-16.7,3.3-14.2,6.5c13.7,21.6-27.9,13.7-22.4,8.3c3.4-3.2,14.5,6.9,7.3,11.9
	c-6.8,4.6-19.8,0.7-19-1.8c3.8-3.3,19.1,8.8,7,18.2c-6,3.8-16.4,4.2-23.4-2.8"/>
<path class="st7" d="M82.5,249.7c10.8,12.1,19.1,16.7,31,16.2c7.1-0.6,10.8,3.4,10.3,7.5c-1.9,0.7-4.3,0.3-7.3-1.2"/>
<path class="st7" d="M123.8,273.5c0.9,3.7-0.8,7.4-8.9,5.1"/>
<path class="st2" d="M114.5,299.9c1,7.3-3.9,18.1-2.5,26.8C114.4,318.8,116.9,307.4,114.5,299.9z"/>
<path class="st2" d="M115.1,268c-8.7,0.3-16.6-2.3-24.8-7.6C96.7,268.4,105.4,271.4,115.1,268z"/>
<path class="st4" d="M64,123.1c6.3-8.1,14.6-13.1,25.5-16.6C77.4,106.3,68.2,111.9,64,123.1z"/>
<path class="st2" d="M19.4,137.1c9.2-4.4,18.9-5.2,30.2-3.3C39,128.1,28.2,129,19.4,137.1z"/>
<path class="st17" d="M25.9,172.7c6.3,8.1,14.6,13.1,25.5,16.6C39.3,189.5,30.1,183.9,25.9,172.7z"/>
<path class="st2" d="M127.5,183.2c4.2,1,21.9,23.2,22.7,29.7C142.5,204.8,134.6,195,127.5,183.2z"/>
<path class="st7" d="M79.6,191c9.5,0,16.5,3.5,21.7,9.3"/>
<path class="st18" d="M244.3,201.6l13.1,7.2l-12.8,7.6c-34.6,2-16.6,18-32.6,26.5c-6.9,3.9-24.5,2.4-22.6-10.6
	C193.7,207.7,221.5,203.1,244.3,201.6z"/>
<path class="st18" d="M242.6,201.8l-6.2,8.2l8.2,6.5c34.5-3.1,19.1,15.3,36.2,21.4c7.4,2.8,24.6-1.2,20.8-13.8
	C293.6,200.4,265.3,199.8,242.6,201.8z"/>
<path class="st22" d="M244.3,201.6c29.1-3.2,47.6,2.8,55.4,17.8c-9.2-10.5-27.9-14.2-55.2-11.8c-37.5,2.1-21.3,20.6-33.9,26.2
	c-5.6,2.1-22.8,5.3-21.3-1.4C193.7,207.7,221.5,203.1,244.3,201.6z"/>
<ellipse class="st23" cx="247.8" cy="242.5" rx="5.8" ry="5.8"/>
<path class="st20" d="M244.5,216.3c34.5-3.1,19.1,15.3,36.2,21.4c7.4,2.8,24.6-1.2,20.8-13.8c-7.9-23.6-36.2-24.2-58.9-22.2"/>
<path class="st20" d="M244.5,216.3c-34.6,2-16.6,18-32.6,26.5c-6.9,3.9-24.5,2.4-22.6-10.6c4.3-24.5,32.2-29.3,55-30.8"/>
<path class="st24" d="M194.7,228c4.8-7.3,11.5-12.1,20.6-15.8C204.9,212.8,197.5,218.1,194.7,228z"/>
<path class="st25" d="M230.5,202.9c-19.1,2.7-37.8,9.7-41.2,29.4c-1.8,13,15.7,14.5,22.6,10.6c6.5-3.5,7.4-8.2,8.5-12.7
	c2.1-12-15.7-19.4-29.3-4.3"/>
<path class="st25" d="M153,246.6c4.8,0.5,12.7,6.6,6.2,12.5c-6.8,4.6-15.8-0.6-19-1.8c3.1,1.4,19,9.7,7,18.2
	c-5.4,3.9-16.4,4.2-23.4-2.8"/>
</svg>
