<?xml version="1.0" encoding="utf-8"?>
<!-- Generator: Adobe Illustrator 21.1.0, SVG Export Plug-In . SVG Version: 6.00 Build 0)  -->
<svg version="1.1" id="Layer_1" xmlns="http://www.w3.org/2000/svg" xmlns:xlink="http://www.w3.org/1999/xlink" x="0px" y="0px"
	 viewBox="0 0 343 377" style="enable-background:new 0 0 343 377;" xml:space="preserve">
<style type="text/css">
	.st0{fill-rule:evenodd;clip-rule:evenodd;fill:#E1F4FD;}
	.st1{fill-rule:evenodd;clip-rule:evenodd;fill:#CAE197;}
</style>
<path class="st0" d="M39,346.6c27.3,25.9,140.7,15.4,201.9,11.9c38.6-2.2,95-29,65.9-55.8c-74.1-62.6,76.4-96.2,25.4-147.2
	c-12.2-12.2-61.2-25.7-48.9-56.1C337.6-34.5,164.2-1.2,73.5,75C42,101.5,12,141.2,3.6,175.5c-8.8,35.8-1,60.5,23.7,89.8
	C49.3,291.5-0.7,300.5,39,346.6z"/>
<path class="st1" d="M279.8,325.9c4-14.1-1.5-20.3-6-7.6c-7.7,21.6-11.5,14.3-13.8-5.3c-0.4-3.1-2.9-28.3-9-17.4
	c-5.6,9.9-12.5,23.1-15.2,33.3c-1.1,4.1-11-44.3-19.5-13c-5.1,23.3-4,18.7-15.5,0.6c-8.3-9.6-5.5,2.7-6.4,10
	c-1.2,13.8,3.4,7.3-8.9,6.5c-9.7-0.5-30-9.4-27,3.6c2.6,11.5-11.9,4.6-21.2,2.5c-22.9-5.3-80,3.5-75.3,16.9
	C69.9,379,299.5,398.6,279.8,325.9z"/>
</svg>
