<?xml version="1.0" encoding="utf-8"?>
<!-- Generator: Adobe Illustrator 21.1.0, SVG Export Plug-In . SVG Version: 6.00 Build 0)  -->
<svg version="1.1" id="Layer_1" xmlns="http://www.w3.org/2000/svg" xmlns:xlink="http://www.w3.org/1999/xlink" x="0px" y="0px"
	 viewBox="0 0 343 377" style="enable-background:new 0 0 343 377;" xml:space="preserve">
<style type="text/css">
	.st0{fill-rule:evenodd;clip-rule:evenodd;fill:#E1F4FD;}
	.st1{fill-rule:evenodd;clip-rule:evenodd;fill:#CAE197;}
	.st2{fill-rule:evenodd;clip-rule:evenodd;fill:#BB7446;}
	.st3{fill-rule:evenodd;clip-rule:evenodd;fill:#A16044;}
	.st4{fill-rule:evenodd;clip-rule:evenodd;fill:#D58F5C;}
	.st5{fill-rule:evenodd;clip-rule:evenodd;fill:#E7A570;}
	.st6{fill-rule:evenodd;clip-rule:evenodd;fill:#EBB081;}
	.st7{fill:none;stroke:#823436;stroke-width:1.7013;stroke-linecap:round;stroke-linejoin:round;stroke-miterlimit:22.9256;}
	.st8{fill-rule:evenodd;clip-rule:evenodd;fill:#FFFFFF;}
	.st9{fill-rule:evenodd;clip-rule:evenodd;fill:#ADBC72;}
	.st10{fill-rule:evenodd;clip-rule:evenodd;fill:#E89C9D;}
	.st11{fill-rule:evenodd;clip-rule:evenodd;}
	.st12{fill-rule:evenodd;clip-rule:evenodd;fill:#FABFBF;}
	.st13{fill-rule:evenodd;clip-rule:evenodd;fill:#F6CDA8;}
	.st14{fill-rule:evenodd;clip-rule:evenodd;fill:#F7A1A1;}
	.st15{fill-rule:evenodd;clip-rule:evenodd;fill:#D87672;}
	.st16{fill:none;stroke:#B35856;stroke-width:1.7013;stroke-linecap:round;stroke-linejoin:round;stroke-miterlimit:22.9256;}
	.st17{fill:none;stroke:#0094D5;stroke-width:1.7013;stroke-linecap:round;stroke-linejoin:round;stroke-miterlimit:22.9256;}
	.st18{fill-rule:evenodd;clip-rule:evenodd;fill:#8ED8F8;}
	.st19{fill:none;stroke:#ED1651;stroke-width:8.5062;stroke-linecap:round;stroke-linejoin:round;stroke-miterlimit:22.9256;}
	.st20{fill-rule:evenodd;clip-rule:evenodd;fill:#C7EAFB;}
</style>
<path class="st0" d="M39,346.6c27.3,25.9,140.7,15.4,201.9,11.9c38.6-2.2,95-29,65.9-55.8c-74.1-62.6,76.4-96.2,25.4-147.2
	c-12.2-12.2-61.2-25.7-48.9-56.1C337.6-34.5,164.2-1.2,73.5,75C42,101.5,12,141.2,3.6,175.5c-8.8,35.8-1,60.5,23.7,89.8
	C49.3,291.5-0.7,300.5,39,346.6z"/>
<path class="st1" d="M279.8,325.9c4-14.1-1.5-20.3-6-7.6c-7.7,21.6-11.5,14.3-13.8-5.3c-0.4-3.1-2.9-28.3-9-17.4
	c-5.6,9.9-12.5,23.1-15.2,33.3c-1.1,4.1-11-44.3-19.5-13c-5.1,23.3-4,18.7-15.5,0.6c-8.3-9.6-5.5,2.7-6.4,10
	c-1.2,13.8,3.4,7.3-8.9,6.5c-9.7-0.5-30-9.4-27,3.6c2.6,11.5-11.9,4.6-21.2,2.5c-22.9-5.3-80,3.5-75.3,16.9
	C69.9,379,299.5,398.6,279.8,325.9z"/>
<path class="st2" d="M126.8,333.3c18.2,10.5,42.3,12.7,71.1,8c3.6,0.3,7.2-0.8,10.7-4.9c2-0.7,2.8-2.9,2.5-6.6
	c-10.2-13.5-36,1.2-51.4-23.2c8.2-6.4,14-16.4,17.9-28.7c33.4,9.7,57.5-3.2,55.6-13.1c2.3-3.7,2.9-6.8,1.9-9.2
	c0.9-2.8,0.5-4.9-1-6.2c-14.8,4.8-29.7,3.8-44.6-4l5.3-4c6.7,2.4,14.8-0.1,23.9-6c9.2-6.4,16.4-17.7,27.7-19.2
	c2.9-0.6,3.9-2.2,3-4.9c2.3-1.6,3-3.5-0.1-6.3c4.3-4.7-0.4-6.6-11.2-6.6c-12.9,3-33.5,11.5-41.9,10.9l-3.1-4.4
	c5.5-0.5,9.2-2.8,11.3-7.1c15.8-12.7,20.6-29,18.5-47.7c-1.7-1.8-4-3-7.9-2.9c1.4-2.7,3.5-4.4,6.1-5.1c-3.9-1.7-7.9-2.5-11.8-2.3
	c-4.4-20.1-14.5-32.7-33-34.4c11-19.1,8.9-53.3,9.3-67.9c1.3-5.1-3-7.7-10.5-2.8c-16.5,13-37.3,43.7-31.8,72.2l-5.2,6.2
	c-15.7-39.8-34.6-42.9-53.8-70.5C80,35.4,74,34.8,72.5,43c-9,71.3,32.4,68.5,50.8,94.2c-3.1,11-2.7,17.8,0.4,29.8
	c-3.3,5-4.6,11-4.1,16c2.5-2.3,6-4,8.9-4.2c-9.1,9.4,0.2,15.6-16.1,23.8c-41.8,8.9-72,34-68,70.4c2,21.5,18.6,38.1,42.8,52.5
	c4.6,3.1,6.1,7,4.3,11.8c-6.7,4.7-8.4,11.5-2.1,16.1c11.1,10.3,66.9,17.5,70,12.1c7.4,1,11.8-0.1,13.4-3.2c3.3,0.5,7.8-1,8-3.7
	C179.1,340.3,134.1,344.8,126.8,333.3z"/>
<path class="st3" d="M126.8,333.3c18.2,10.5,42.3,12.7,71.1,8c3.6,0.3,7.2-0.8,10.7-4.9c7.6-23.3-38.3-4.1-56.1-24.3l-23,10
	l-30.7-14.7c-56.2-44.5-41.7-69.5-0.7-94l44,6.2c-5.9,14.2-3.1,27,8.2,38.5c17.5,20.7,47.9,29.7,62.8,14
	c-31.6,10.1-72.7-36.2-71-52.5l10.6-24.2l36.8,50l5.3-4c6.7,2.4,14.8-0.1,23.9-6c9.8-6.6,17.4-18.1,29.5-19.8
	c-8-4.8-19-5.4-26.9-0.5c-9.5,5.9-17.2,8.5-25-5.8l-3.1-4.4l2.8-49.3l-8.8-27.9c-4.8,1-5.1,11.5,0.5,31.5l-10.3,14.5L138.2,158
	c-0.8-8.6-1.1-22,7.1-28.3c1.3-14.6,30.8-22.2,18.2-28.5c-3.2,0.2-6.5,3.8-11.4,8.3c5.9-9.2,5.6-12.5,0.8-10.9l4.6-3.5
	c-5.3-5.2-7.8-17.9-0.9-39.9c-6.5,11.5-17.4,29.5-13.2,51.4l-5.3,6.4c3.4,21-10.5,20.7-8.5,10.7c-4.3-7.1-51.4-73.6-52.9-65.3
	c-3.7,47.3,28.1,53.2,46.6,78.9c-3.1,11-2.7,17.8,0.4,29.8c-3.3,5-4.6,11-4.1,16c2.5-2.3,6-4,8.9-4.2l24.2,16.5l-10.6,24.1l-44-6.2
	c-32.1,7.2-55.3,24.3-53.6,59.7c2,21.5,18.6,38.1,42.8,52.5c4.6,3.1,6.1,7,4.3,11.8c-6.7,4.7-8.4,11.5-2.1,16.1
	c11.1,10.3,66.9,17.5,70,12.1c7.4,1,11.8-0.1,13.4-3.2c-32.6,4.6-68.8-12.2-71.5-22.3c-4.1-12.7,17.3-5.7-2.5-32.4l30.7,14.7
	l-2.9,5.7L126.8,333.3z"/>
<path class="st4" d="M177.7,277.9c-10.9-3.1-17.8-9.4-27-19.5c13.7,31.9-6,46.7-21.1,63.7C152.4,317.4,174.3,296,177.7,277.9z"/>
<path class="st5" d="M209.3,139.7c-7.8,2-13.8,5.8-17.9,11.4c-9.8,2.7-14.7,5.5-14.7,8.6c-15.4,1-30.8-6.9-43-0.2
	c-11.3,6.3-15.2,14.3-14.1,23.5l8.9-4.2c-3.8,13.4,7.3,20.9,25.2,25.7l3.6,0.6c-1.6,2.5-0.6,6.5,2.9,12
	c8.7,14.4,18.4,24.5,29.4,28.3c4.1-1.9,7-5.1,8.7-9.8l2.9-0.2c-2.6-10.1,1-20-7.9-30.4c3.7-0.8,9-1.1,11.3-7.1
	c13.8-9.1,22.5-26.8,18.5-47.7c-1.5-2.2-4.1-3.1-7.9-2.9c0.9-2.4,3.2-3.9,6.1-5.1C218.1,140.5,214.4,139.5,209.3,139.7z"/>
<path class="st4" d="M119.6,183l8.9-4.2c-3.8,13.4,7.3,20.9,25.2,25.7l3.6,0.6c-1.6,2.5-0.6,6.5,2.9,12
	c8.7,14.4,18.4,24.5,29.4,28.3c4.1-1.9,7-5.1,8.7-9.8c-9.1,6.3-19.7-1.7-28.5-24.9c6,1.1,18.9-2.3,23.5-5.8c3.7-0.7,7-1.5,11.3-7.1
	c8.3-6,12.5-13.4,12.7-22.4c-1.8,7.7-6.8,13.7-14.9,17.9c-3.2,6-9.2,7.4-17.2,5.6c-31.3,5.6-50.9-11.8-44.5-31.3l-5.6,3
	c1.8-4.1,8.1-8.7,15.3-8.4C137.6,160,120.8,167,119.6,183z"/>
<path class="st6" d="M23.3,269.5c-3.4-8.2-4.1-15.2-2.1-21.2l3.1,5.3c6.3,3.1,13.1,4.7,20.3,5.4c-3.6,23,7.9,41.2,27.7,56.7
	c-55.3,10.9-44.7-32.3-54.6-46.8L23.3,269.5z"/>
<path class="st4" d="M32.6,271.9c-5.3-4.6-9.9-13.6-8.3-18.3l7.1,2.8c4.9,2.4,7.6,2.1,13.2,2.6c-0.3,15.7-0.4,26.9,12,42
	c-23.3-0.2-23.6-19.3-30.3-30.6L32.6,271.9z"/>
<path class="st7" d="M153.7,204.6c12.7,2.2,21.5,3.4,33.3-0.1c6.4,1.9,15.3-0.6,17.5-6.6c13.8-9.1,22.6-27.5,18.5-47.7
	c-1.5-2.2-4.1-3.1-7.9-2.9c0.9-2.4,3.2-3.9,6.1-5.1c-3-1.6-6.7-2.5-11.8-2.3c-4.9-24.2-15.8-32.5-33-34.4c11.9-24.2,7.8-53,9.3-67.9
	c0.7-5.9-5.6-6.4-10.5-2.8c-16.1,12.1-36.5,43.7-31.8,72.2"/>
<path class="st7" d="M126.8,333.3c-6.5-17,44-30.5,23.5-75.3"/>
<path class="st7" d="M72.4,315.6c-55.3,10.9-44.7-32.3-54.6-46.8l5.5,0.6"/>
<path class="st8" d="M173.2,159.8l-22.5-2.6c-0.2-16,2-25.3,7.9-25.8C165.6,131.8,170.1,142.8,173.2,159.8z"/>
<path class="st7" d="M27.5,277.7c-5.9-9.9-9-19.7-6.3-29.3c2.4,5.6,7.7,10.9,14.4,16"/>
<path class="st9" d="M158,150.4c3.5,4.3,13.5,1,11.2-6.9l-4.6-8.7C157,128.1,150.7,139.8,158,150.4z"/>
<path class="st7" d="M24.3,253.6c7.2,3.4,14.8,5.1,20.3,5.4"/>
<path class="st7" d="M156.1,357c2.2,3,2.9,4,3.5,8.4"/>
<path class="st7" d="M169,353.6c2.6,2.9,3.7,3.8,4.1,8.6"/>
<path class="st7" d="M177.7,277.9c-7.5,24.2-24.5,37.7-48.2,44.2"/>
<path class="st8" d="M205.1,140.3c-5.6,2.9-10.5,6.6-14.7,10.9c-4.3-12.7-5.2-26.5-0.2-28.6C195.3,121.3,201.4,128.2,205.1,140.3z"
	/>
<path class="st7" d="M159.8,306.5c14.6,25.8,45.3,8.5,51.4,24.5c-0.2,2.7-0.6,4.3-2.6,5.5c-2.8,3.4-6.4,5.1-10.7,4.9
	c-17.3,4.1-36.9,3.5-58.7-2"/>
<path class="st9" d="M192.3,139.4c2.7,2.8,9.1,1.1,11-4.1c-1.4-4.9-5.5-9.9-8.5-11.8C190.2,122.6,185.9,130.8,192.3,139.4z"/>
<path class="st7" d="M208.6,336.5c-1-3.4-2.9-6.1-6.8-6.9"/>
<path class="st7" d="M197.9,341.4c-1-3.4-2.5-5.9-5.3-8"/>
<path class="st7" d="M123.7,167c14.1-17.7,41-5.8,53-7.3"/>
<path class="st10" d="M197.9,174.5l-5.9-2.1l-1.9,4.5l-3.2,3.6C191.7,186.6,198.7,184.8,197.9,174.5z"/>
<path class="st7" d="M191.4,151.1c6.6-8,12.8-10.5,17.9-11.4"/>
<path class="st7" d="M170.2,173.7c2.4,10.5,20.3,9.9,21.8-1.2c7.4,5.3,15.6-1.6,13.8-9.6"/>
<path class="st7" d="M167.4,172.7c0.8-2.1,2.1-2.7,4-2"/>
<path class="st7" d="M208,161.3c-1.4-1.5-2.7-1.5-4.1-0.1"/>
<path class="st7" d="M186.8,180.5c4.9,6.1,11.9,4.2,11-6"/>
<path class="st7" d="M188.9,187.1c4.1,2.5,8.7,1,10.3-2.8"/>
<path class="st7" d="M190.4,151.2c-4.3-12.7-5.2-26.5-0.2-28.6c5.1-1.3,11.2,5.6,14.9,17.7"/>
<path class="st7" d="M158.1,127.1c-3.1,0-6.4,2.4-8.2,6.7"/>
<path class="st7" d="M187.3,118.5c-1.9,1.1-3.1,3.6-3.2,6.4"/>
<path class="st11" d="M162.4,145.7c2.7,0,4.9-2.2,4.9-4.9c0-2.7-2.2-4.9-4.9-4.9c-2.7,0-4.9,2.2-4.9,4.9
	C157.4,143.5,159.6,145.7,162.4,145.7z"/>
<path class="st8" d="M159.8,145.7c1.3,0,2.3-1,2.3-2.3c0-1.3-1-2.3-2.3-2.3c-1.3,0-2.3,1-2.3,2.3
	C157.4,144.7,158.5,145.7,159.8,145.7z"/>
<path class="st11" d="M196.1,135c2.5,0,4.5-2,4.5-4.5s-2-4.5-4.5-4.5s-4.5,2-4.5,4.5S193.6,135,196.1,135z"/>
<path class="st8" d="M193.7,135c1.2,0,2.1-0.9,2.1-2.1c0-1.2-0.9-2.1-2.1-2.1c-1.2,0-2.1,0.9-2.1,2.1
	C191.6,134.1,192.6,135,193.7,135z"/>
<path class="st7" d="M138.1,113c10.5-13.7,24.7-21.9,27.2-20.4c1.5,1.7-3.3,7.7-12.5,16.6"/>
<path class="st7" d="M159.3,102.4c18.6-5.9,23.5,1.2,7.3,10"/>
<path class="st7" d="M235.2,255.6c1.7,6.6-2.1,11-8.8,14.1"/>
<path class="st7" d="M193.2,205c10.4,12.4,5.1,22.8,7.9,30.4c-2.6,1-7.5-0.7-8.8-2.9"/>
<path class="st7" d="M196.3,209.3c20.5,2,37.4-16.4,52.7-9.8c3.8,2.1,2.5,5.3,0.4,5.5c2.9,1.6,2.4,4.9,0.1,6.3
	c0.7,1.2,0.3,4.5-3,4.9c-10.7,1.7-17.8,12.8-27.7,19.2"/>
<path class="st7" d="M198.2,235.6c-2.2,5.3-5.1,8.6-8.7,9.8"/>
<path class="st7" d="M194.9,241.5c7.4,1.9,16.5-1,23.9-6"/>
<path class="st12" d="M134,127.6c-10.5-44.2-41.4-60.1-49-70.9c-2.3-4.4-8.8-5.1-8.2,1.5c3.9,51.4,37.1,45.6,49.5,70.9
	C128.3,134,135.8,132.7,134,127.6z"/>
<path class="st13" d="M173.7,162.1c-5.5,1.5-13,1.7-22.2-0.3C161.5,160.5,166.6,160.9,173.7,162.1z"/>
<path class="st13" d="M211.6,142c-5.5,1.5-10.1,4.3-15,7.9C198.3,146.5,204.5,140.8,211.6,142z"/>
<path class="st13" d="M197.6,225.3c-0.3-6.1-2.1-11.6-4.5-17.4C195.9,210.4,200.2,218.1,197.6,225.3z"/>
<path class="st14" d="M83.5,75.9c5,10.6,12,19.5,22.1,28.1C93.3,98.4,86.3,88.8,83.5,75.9z"/>
<path class="st4" d="M151.6,273.8c-0.6,11.8-5.2,22.1-13.4,32.7C149.9,298.7,155,287.3,151.6,273.8z"/>
<path class="st4" d="M217.2,254.3c-11.8,1.1-22.6-2-34.3-8.6C192.3,256.2,204.4,259.6,217.2,254.3z"/>
<path class="st4" d="M96,60.3c8.6,5.2,28.9,33.2,34.3,43.1C128.2,91.7,108.9,64.4,96,60.3z"/>
<path class="st4" d="M176.7,97.3c2.2-9.7,5.8-37.2,6-47.6C185.5,60,182.8,86.8,176.7,97.3z"/>
<path class="st6" d="M154.8,306.6c6.2-6.8,13.2-16.8,16.2-26.4C171.3,291.3,164.1,301.9,154.8,306.6z"/>
<path class="st13" d="M56.2,314.5c-10.9-2.8-19.6-8.9-27.9-18.5C33.4,308.3,43.1,315.1,56.2,314.5z"/>
<path class="st7" d="M142.1,125.4c-13.5-49.4-38.5-55.3-57.8-83C80,35.3,74,34.7,72.5,42.9c-9,71.3,32.4,68.5,50.8,94.2
	c-3.1,11-2.7,17.8,0.4,29.8c-3.3,5-4.6,11-4.1,16c2.5-2.3,6-4,8.9-4.2c-9.1,9.4,0.2,15.6-16.1,23.8c-41.8,8.9-72,34-68,70.4
	c2,21.5,18.6,38.1,42.8,52.5c4.6,3.1,6.1,7,4.3,11.8c-1.5,3.6-11.7,9.6-2.1,16.1c11.1,10.3,66.9,17.5,70,12.1
	c7.4,1,11.8-0.1,13.4-3.2c3.3,0.5,7.8-1,8-3.7c-1.6-16.3-44.5-13.2-58.5-28.2"/>
<path class="st4" d="M127.1,337.1c9.6,7,25.9,6,36.5,11.7C153.3,347.7,135.2,346.8,127.1,337.1z"/>
<path class="st10" d="M176.7,159.7c0.2-5.2,16.7-10.8,18.2-7.9c2.5,2.6-0.4,9.5-4.1,12.4C184.1,165.6,178,163.4,176.7,159.7z"/>
<path class="st15" d="M176.7,159.7c5.7,3.8,20.9-3.8,18.2-7.9c2.5,2.6,0.8,10.7-3.9,14.5C184.3,167.6,178,163.4,176.7,159.7z"/>
<path class="st16" d="M176.7,159.7c0.2-3.7,8.5-7.6,13.8-8.5h0.2c2.1-0.3,3.7-0.2,4.1,0.6c2.4,2.6,0.8,11.4-3.9,14.5
	C184.3,167.6,178,163.4,176.7,159.7z"/>
<path class="st7" d="M150.8,156.2c-0.2-16,2-24.3,7.9-24.8c7,0.4,11.5,11.4,14.6,28.4"/>
<path class="st7" d="M249.4,205.1c-1.6-1.2-4.1-1.6-7.5-1.2"/>
<path class="st7" d="M249.4,211.4c-1.4-1.2-3.4-1.8-6.4-1.1"/>
<path class="st17" d="M264.1,115.9c18.8,64.8-41.4,87.5-37.6,135.1"/>
<path class="st17" d="M231.5,271.2c4.3,10.5,6.7,21,7.3,31.5"/>
<path class="st7" d="M160.1,217.1c21.8,36.8,51.9,38.3,73.8,32.3c3.4,2.2,2.2,9.9-7.6,13.8"/>
<path class="st7" d="M150.3,258c25,35.8,85.8,24.4,82.9,6.9"/>
<path class="st18" d="M261.3,105.6l3-1.4c20,7.5,16.1,21.5,3.4,9.3c6.2,13.3-1.5,12.5-2.5,2.1C260.4,133.3,252.3,133.1,261.3,105.6z
	"/>
<path class="st17" d="M264.3,104.2c20,7.5,16.1,21.5,3.4,9.3c6.2,13.3-1.5,12.5-2.5,2.1c-4.8,17.7-13,17.5-3.9-9.9"/>
<path class="st18" d="M266,104.5c37-14.3,36-75.9-3.8-95.6C241.5-3,191.9,6.1,200,55.5C206.7,102.8,251.3,112.5,266,104.5z"/>
<path class="st17" d="M266,104.5c37-14.3,36-75.9-3.8-95.6C241.5-3,191.9,6.1,200,55.5C206.7,102.8,251.3,112.5,266,104.5z"/>
<path class="st19" d="M266,104.5c37-14.3,36-75.9-3.8-95.6C241.5-3,191.9,6.1,200,55.5C206.7,102.8,251.3,112.5,266,104.5z"/>
<path class="st20" d="M266.6,18.6c-9.8-5.9-20.7-8.8-34.1-9.3C246.4,5.5,257.6,9,266.6,18.6z"/>
</svg>
