<?xml version="1.0" encoding="utf-8"?>
<!-- Generator: Adobe Illustrator 19.0.0, SVG Export Plug-In . SVG Version: 6.00 Build 0)  -->
<svg version="1.1" id="Layer_1" xmlns="http://www.w3.org/2000/svg" xmlns:xlink="http://www.w3.org/1999/xlink" x="0px" y="0px"
	 viewBox="0 0 368.5 366.2" enable-background="new 0 0 368.5 366.2" xml:space="preserve">
<path fill-rule="evenodd" clip-rule="evenodd" fill="#B87933" d="M31.4,302.5c7-8.1,3-26.5,15.4-32.1l13.3,30L56.5,329l-43.6-15
	C11.9,305.9,26.4,308.6,31.4,302.5z"/>
<polygon fill-rule="evenodd" clip-rule="evenodd" fill="#C98E3E" points="21.1,69.4 15.1,86.2 56.5,336.2 65.3,339.2 45.8,176.9 "/>
<polygon fill-rule="evenodd" clip-rule="evenodd" fill="#DDB476" points="21.1,69.4 165,68.7 211.8,305.5 65.3,339.2 "/>
<linearGradient id="SVGID_1_" gradientUnits="userSpaceOnUse" x1="114.2736" y1="195.419" x2="79.8273" y2="74.6543">
	<stop  offset="0" style="stop-color:#D3ECFB"/>
	<stop  offset="1" style="stop-color:#FFFFFF"/>
</linearGradient>
<polygon fill-rule="evenodd" clip-rule="evenodd" fill="url(#SVGID_1_)" points="32.5,79.7 157.2,77 200.6,298.9 74.8,326 "/>
<path fill-rule="evenodd" clip-rule="evenodd" fill="#BB8EC0" d="M201.2,15.2c-1.4-4.4,2.2-5.8,10.7-4c11.5,5.5,17.5,15.4,21.1,27.4
	l-5.8,17.6l-18,30.4l-11.3-2.1c-3.8-14.6,5.2-30.5,7.8-45.8L201.2,15.2z"/>
<linearGradient id="SVGID_2_" gradientUnits="userSpaceOnUse" x1="145.3512" y1="253.5708" x2="53.3834" y2="54.9066">
	<stop  offset="0" style="stop-color:#A99CB4"/>
	<stop  offset="1" style="stop-color:#FFFFFF"/>
</linearGradient>
<path fill-rule="evenodd" clip-rule="evenodd" fill="url(#SVGID_2_)" d="M140.9,77.3c0.6,1.7,1.1,3.4,1.5,5.2l-0.2,0.7
	c0.5,1.6,1,3.3,1.3,5.1c5-4.9,10.1-5.8,15.3-2.7l5.2,25.8c-2.8,4.9-2.9,32.8-7.7,37.9v0c-1.9,2.1-4,4-6.3,5.3
	c2.2,9.7,1.9,15.7-0.3,26.3c0.7,1.3,1.3,2.6,1.7,3.9c1.2,3.1,1.6,6.4,1.3,9.9c0,0.1,0,0.2,0,0.2l-6.5-3.7c6.6,8.3-0.1,13.8,11.7,21
	c26.3,6.8,46.3,24.2,49.3,49.6l0,0v0l0.1,0c3.2-0.3,6.4-1,9.4-2.1l0.2-0.1l5.2-2.5l0,0l2.3-4.6c1.5,5.3,1,11.5-1.5,18.7l4-0.6
	c0,7.1,0.2,25.5-9.8,35.6l-16.3-7.3l-8.1,1.7l-106,22.9c7.7-10.7,25.8,1.2,36.8-19.5c-6.2-6.4-10.6-14.3-12-22.1l-2.4,5.2l0,0l0,0v0
	c-2.1-1.1-7.4-0.7-6.7-2.9c-2.8-1.4-8.9-9.7-3.4-18.7c2.6-5.7,6.7-8.3,11.1-13.6c-15-0.3-25.5,21.7-31.6,15.2
	c-2.9,1.8-4.9,0.1-5.6-2.7l0,0c-2.6-4.8-2.1-11.9,1.7-16.1c3.1-3.4,17.9-14.7,20.7-22.1l0,0c-0.1-3.7,1.1-7.8,4.1-12.1
	c-1.4-0.1-2.6-0.5-3.6-1c-1.8-0.7-3.6-2.1-4.6-5.3c-2.2-1.9-4-4-5.5-6.3c-4.6-6.5-7.1-13.8-8-21.8c-0.6-4.3-0.6-9,0-13.8
	c1.1-1.9,3-2.8,5.8-2.6c-0.4-1-0.9-1.8-1.5-2.4c-0.8-0.8-1.8-1.5-3-2c2.2-1.4,4.9-2.2,8.6-2.1c3.2-17.7,10.5-28.8,24-30.3
	c-1-4.5,2.8-4.8,6-4.3c-2.7-12.6,3.7-26.4,5.6-39.6l-0.8-4.9L140.9,77.3L140.9,77.3z M111.4,249.8c-0.5,0.7-1,1.3-1.6,2.1
	C110.3,251.3,110.8,250.6,111.4,249.8z"/>
<path fill-rule="evenodd" clip-rule="evenodd" fill="#9D60A3" d="M213.1,30.8c2.3-16.1,17.7-2.3,21.3,14.4l17.4,24.7l-14.3,34.4
	l-18-6.7C239.2,23.5,209.8,35.3,213.1,30.8z"/>
<path fill-rule="evenodd" clip-rule="evenodd" fill="#F7C6C7" d="M206,86.1c-5.1-9.8,5-33.5,3.7-46.5c0.2-13.7,12.3-12.9,18,3.1
	c6.2,19.1,3.6,44.3-2.3,47.9C217.3,94.5,204.2,91.3,206,86.1z"/>
<path fill-rule="evenodd" clip-rule="evenodd" fill="#BB8EC0" d="M234.5,45.2c10.9-9,22.3-6.4,34.2,7.7c14,20.2,8.6,41.1-16.3,62.8
	l-12.2-41.1C223.8,84.7,216,68.2,234.5,45.2z"/>
<path fill-rule="evenodd" clip-rule="evenodd" fill="#BB8EC0" d="M240,321.2c-18.6,10.7-43,13-72.3,8.2c-3.7,0.3-7.3-0.8-10.9-5
	c-2-0.7-2.9-3-2.6-6.7c10.4-13.8,36.6,1.2,52.3-23.6c-8.4-6.5-12.9-12.8-16.9-25.4l-3.5,6.2c-2.9-1.2-10.4-0.8-9.4-3.3
	c-3.9-1.6-12.5-11.2-4.8-21.6c4.6-8.4,13-11,20.7-21.9l-19.1-0.3c1.5,13.3-28.9,26.8-38.1,20.9c-3.6-5.6-2.9-13.7,2.4-18.6
	c4.4-3.9,25-17,28.9-25.5l5.7-13.9c-5.6-0.5-9.4-2.9-11.5-7.2c-16.1-12.9-21-29.5-18.8-48.5c1.7-1.8,4.1-3.1,8-3
	c-1.4-2.7-3.5-4.5-6.3-5.2c4-1.7,8-2.5,12-2.4c4.5-20.5,14.7-33.3,33.5-35c-2.1-7.8,10.9-4.6,13.1-4.1c11.9,1.4,6.3,3.5,20.4,5.6
	l5.4,6.3l15,24.6c3.1,11.2,2.7,18.1-0.4,30.3c3.4,5.1,4.7,11.2,4.1,16.2c-2.5-2.4-6.1-4.1-9-4.3c9.2,9.6-0.2,15.9,16.3,24.2
	c42.6,9.1,73.2,34.6,69.1,71.6c-2,21.9-18.9,38.7-43.6,53.3c-4.7,3.1-6.2,7.1-4.4,12c6.8,4.8,8.5,11.7,2.2,16.3
	c-11.3,10.5-68,17.8-71.2,12.3c-7.5,1-12-0.1-13.6-3.3c-3.4,0.5-7.9-1-8.2-3.8C186.8,328.2,232.5,332.8,240,321.2z"/>
<path fill-rule="evenodd" clip-rule="evenodd" fill="#9D60A3" d="M240,321.2c-18.6,10.7-43,13-72.3,8.2c-3.7,0.3-7.3-0.8-10.9-5
	c-7.8-23.7,39-4.2,57.1-24.7l23.4,10.2l31.2-14.9c57.2-45.3,42.4-70.8,0.7-95.7l-44.8,6.3c6,14.4,18.7,15.7,7.9,32.4
	c-9.2,12.4-34,11.3-46.2,36.9c-22.6-15.8,55.4-27.3,38.4-69.3l-10.8-24.6l-26.3,53.3c-21-0.3-35.7,25.1-44.2,17.6
	c-6.1,3.2-9.3-2.9-7.7-8.6c10.4,8.3,32.2-8.1,40.2-22.6l-3.1-30l-2.8-50.1l9-28.4c4.8,1,5.2,11.7-0.5,32.1l10.4,14.7l39.9-15.9
	c0.8-8.8,1.2-22.4-7.2-28.8c-1.3-14.8-31.3-22.6-18.5-29c3.3,0.2,6.6,3.8,11.6,8.5c-7.4-7.3-11.6-8.5-13.4-17.4
	c0.5-3.6,16.4,6.6,23.3,13l8.7,10.5c4.7-6.9,7.2-15.3,7.3-25.4l23.6-9.1c11.8,6.5,3,45.1-20.2,56.4c3.1,11.2,2.7,18.1-0.4,30.3
	c3.4,5.1,4.7,11.2,4.1,16.2c-2.5-2.4-6.1-4.1-9-4.3l-24.6,16.8l10.8,24.6l44.8-6.3c32.7,7.4,56.3,24.7,54.5,60.7
	c-2,21.9-18.9,38.7-43.6,53.3c-4.7,3.1-6.2,7.1-4.4,12c6.8,4.8,8.5,11.7,2.2,16.3c-11.3,10.5-68,17.8-71.2,12.3
	c-7.5,1-12-0.1-13.6-3.3c33.2,4.7,70-12.4,72.7-22.7c4.2-12.9-17.6-5.8,2.5-33l-31.2,14.9l3,5.8L240,321.2z"/>
<path fill-rule="evenodd" clip-rule="evenodd" fill="#D0B2D5" d="M189.3,268c2.6-4.9,8.4-8.7,24.4-17.7
	c-10.5,30.3,8.1,42.1,23.6,59.5C213.9,304.9,192.7,286.3,189.3,268z"/>
<path fill-rule="evenodd" clip-rule="evenodd" fill="#E2D2E8" d="M156,124.3c8,2.1,14,5.9,18.2,11.6c9.9,2.7,14.9,5.6,15,8.8
	c15.7,1,31.3-7.1,43.7-0.2c11.5,6.4,15.5,14.5,14.3,23.9l-9-4.3c3.9,13.7-7.4,21.3-25.6,26.1l-11,1.7c1.6,2.6,1.8,19.3-1.8,24.9
	c-8.9,14.6-9.8,14.3-12.5,17.5c0.6-6.2-10.3-13.5-12.9-16.9c-8.7-6.1-11-16.1-2-26.7c-3.8-0.8-9.2-1.2-11.5-7.2
	c-11.9-10.2-22.1-27.6-18.8-48.5c1.5-2.2,4.2-3.2,8-3c-0.9-2.4-3.3-4-6.3-5.2C147.1,125.1,150.9,124.1,156,124.3z"/>
<path fill-rule="evenodd" clip-rule="evenodd" fill="#E2D2E8" d="M345.2,256.3c3.5-8.3,4.2-15.5,2.1-21.6l-3.2,5.4
	c-6.4,3.2-13.3,4.8-20.7,5.4c3.7,23.4-8,41.9-28.2,57.6c56.3,11.1,55.4-34.5,55.5-47.6L345.2,256.3z"/>
<path fill-rule="evenodd" clip-rule="evenodd" fill="#D0B2D5" d="M247.3,168.4l-9-4.3c3.9,13.7-7.4,21.3-25.6,26.1l-11,1.7
	c1.6,2.6,1.7,10.8,1.1,16.3c-4.2,14.4-10.2,19.8-15.4,25.7c0.6-8.6-12.8-10.1-13.7-20.3c12.6,18.4,23.7-3.8,22.7-17.2
	c-6.1,1.1-19.3-2.4-23.9-5.9c-3.7-0.8-7.1-1.5-11.5-7.2c-8.4-6.1-12.7-13.6-12.9-22.8c1.8,7.8,6.9,13.9,15.1,18.2
	c3.2,6.1,9.4,7.5,17.5,5.7c31.9,5.7,51.8-12,45.3-31.9l5.7,3c-1.8-4.2-8.2-8.8-15.6-8.6C229,145,246.1,152,247.3,168.4L247.3,168.4z
	 M335.7,258.7c5.4-4.6,10.1-13.9,8.5-18.6l-7.2,2.8c-5,2.5-7.7,2.1-13.4,2.6c0.3,15.9,0.4,27.4-12.2,42.7
	c23.7-0.2,24-19.6,30.9-31.1L335.7,258.7z"/>
<path fill-rule="evenodd" clip-rule="evenodd" fill="#FFFFFF" d="M192.7,144.8l22.9-2.6c0.2-16.2-2.1-25.8-8-26.3
	C200.5,116.3,195.9,127.5,192.7,144.8z"/>
<path fill-rule="evenodd" clip-rule="evenodd" fill="#B9C071" d="M207.5,143c-10.9,1.6-13.4,0.6-13.4-5.2l4.9-15
	C208.1,112.6,215.5,134.5,207.5,143z"/>
<path fill-rule="evenodd" clip-rule="evenodd" fill="#FFFFFF" d="M160.3,124.9c5.7,3,10.7,6.7,15,11.1c4.3-12.9,5.3-27,0.2-29.1
	C170.3,105.6,164.1,112.6,160.3,124.9z"/>
<path fill-rule="evenodd" clip-rule="evenodd" fill="#B9C071" d="M168.5,130.1c-3.1-2.2-3.3-2.9-8.2-5.2c1.4-5,3.4-9.7,6.6-13.5
	C177.1,105.1,176.3,129.3,168.5,130.1z"/>
<path fill-rule="evenodd" clip-rule="evenodd" fill="#1A1A18" d="M200.9,135.6c2.8,0,5-2.3,5-5c0-2.8-2.3-5-5-5c-2.8,0-5,2.3-5,5
	C195.9,133.4,198.1,135.6,200.9,135.6z"/>
<path fill-rule="evenodd" clip-rule="evenodd" fill="#FFFFFF" d="M203.5,135.6c1.3,0,2.4-1.1,2.4-2.4c0-1.3-1.1-2.4-2.4-2.4
	c-1.3,0-2.4,1.1-2.4,2.4C201.2,134.5,202.2,135.6,203.5,135.6z"/>
<path fill-rule="evenodd" clip-rule="evenodd" fill="#1A1A18" d="M167.4,123c2.5,0,4.5-2,4.5-4.5c0-2.5-2-4.5-4.5-4.5
	c-2.5,0-4.5,2-4.5,4.5C162.9,120.9,164.9,123,167.4,123z"/>
<path fill-rule="evenodd" clip-rule="evenodd" fill="#F7C6C7" d="M238.2,101.6c4.6-9.6,9.5-21.7,6.8-29.3c3.6-1.6,16.6-6.4,18.8-6.9
	c7.5,21.1-8.7,39.2-16.3,44.2C239.3,113.4,236.4,106.7,238.2,101.6z"/>
<path fill-rule="evenodd" clip-rule="evenodd" fill="#FFFFFF" d="M169.8,123c1.2,0,2.1-1,2.1-2.1c0-1.2-1-2.1-2.1-2.1
	c-1.2,0-2.1,1-2.1,2.1C167.7,122,168.6,123,169.8,123z"/>
<path fill-rule="evenodd" clip-rule="evenodd" fill="none" stroke="#6C3579" stroke-width="1.7008" stroke-linecap="round" stroke-linejoin="round" stroke-miterlimit="22.9256" d="
	M135.9,249.4c-15.9-20.9,28.6-31.1,30.6-46.4 M172.1,191.1c-10.6,12.6-4.1,20.1,2.3,26.1 M159.7,146.2c1.6-1,2.9-0.7,3.7,1
	 M196.7,159.5c-0.8-2-2-2.6-3.8-1.9 M174.3,135.9c-6.7-8.1-13-10.7-18.2-11.6 M243.1,152.1c-14.3-18-41.7-5.9-53.9-7.4 M204.5,112.9
	c4.2-3.7,11.2,0.3,12.9,8.7 M175.8,102.2c2.2,0.3,4.3,2.2,5.4,4.8 M236.7,227c0.3,21.4-44.3,24.5-50.7,47.8 M240,321.2
	c6.3-16.5-40.1-29.7-26.4-70.4 M220.5,188.5c-11.3,4.2-28.5,6.5-41.6,1.5c-8.9,2.7-13.6,0.1-17.8-6.7c-28-26.7-16.2-41.2-18.8-48.5
	c1.5-2.2,4.2-3.2,8-3c-0.9-2.4-3.3-4-6.3-5.2c3.1-1.6,6.8-2.6,12-2.4c5-24.6,17.7-33.8,33.5-35 M197.9,84.4
	c-3.5-26.7,14-30.3,3.3-69.2c-2.2-6.4,6.3-7,13.5-2.6c8.1,3.8,17.9,19.1,19.9,32.6 M206.9,86.4c-18.9-6-23.9,1.3-7.4,10.2
	 M213.6,93.2c-9.4-9-14.3-15.1-12.7-16.8c2.5-1.5,21.1,6.5,32,23.5c5.4-8.9,8.2-17.4,7.3-25.4 M244.4,318.1
	c-14.2,15.2-57.8,12-59.5,28.7c0.3,2.8,4.8,4.3,8.2,3.8c1.6,3.2,6.1,4.3,13.6,3.3c3.2,5.5,59.9-1.8,71.2-12.3
	c9.7-6.6-0.6-12.7-2.2-16.3c-1.8-4.9-0.4-8.9,4.4-12c24.7-14.6,41.6-31.5,43.6-53.3c4.1-37-26.6-62.5-69.1-71.6
	c-16.5-8.3-7.1-14.7-16.3-24.2c2.9,0.2,6.5,1.9,9,4.3c0.6-5.1-0.8-11.1-4.1-16.2c3.1-12.2,3.5-19.1,0.4-30.3
	c29.4-18,40.7-46.8,25.2-68.9c-9.7-13.8-26.8-16.3-34.2-7.7c-17.1,21.2-10.5,33.3-4,32.3c8.1-0.6,19.3-9.1,33.3-12.1 M194,160.4
	c-2.5,8.1-19.3,9.4-20.7-1.2c-7.1,4.1-15.5-3.3-12.3-10.7 M174.8,172.2c-2.5,1.8-5.3,0.7-6.3-2 M175.3,136c4.3-12.9,5.3-27,0.2-29.1
	c-3.7-0.9-11.4,5.7-15.2,18 M215.6,141.1c0.2-16.2-2.1-24.7-8-25.2c-7.1,0.4-11.7,11.6-14.8,28.9 M344.2,240.1
	c-7.3,3.4-15.1,5.2-20.7,5.4 M341,264.6c6-10.1,9.2-20,6.4-29.9c-2.4,5.7-7.8,11.1-14.6,16.3 M295.3,303.2
	c56.3,11.1,56.8-35.3,55.5-47.6l-5.6,0.7 M210.1,345.3c-2.2,3-3,4-3.5,8.6 M197.1,341.8c-2.6,2.9-3.7,3.9-4.1,8.8 M206.5,293.9
	c-14.8,26.2-46,8.6-52.3,24.9c0.2,2.7,0.7,4.4,2.6,5.6c2.9,3.5,6.5,5.2,10.9,5c17.6,4.2,37.5,3.5,59.7-2.1 M167.7,329.3
	c1-3.5,2.5-6,5.4-8.1 M156.8,324.3c1-3.5,3-6.2,6.9-7 M189.3,268c8,23.2,24.6,35.4,47.9,41.8 M183.4,258.9
	c-3.2,6.8-3.4,15.2,2.7,15.9 M175.5,258.4c-3.2,6.8-2,14.9,7.7,15.1 M176.7,271.5c-8.6-2.1-9.4-16.3-4.8-21.6
	c9.4-12.4,38.3-29.7,30.1-57.3 M174.2,208.9c-4,14.4,15.1,16,12.9,25.3 M146,238.8c-2.3,5.2-3.1,8.8-2.9,13
	c7.6,6.3,25.9-18.3,43.9-17.6 M138.1,236.1c-5.3,7.5-3.1,20.3,5,15.8"/>
<path fill-rule="evenodd" clip-rule="evenodd" fill="#F3A5A6" d="M263.3,78c-3.7,11.3-9.8,21.1-18.9,31
	C256.2,101.8,262.1,91.3,263.3,78z"/>
<path fill-rule="evenodd" clip-rule="evenodd" fill="#E2D2E8" d="M211.4,294c-6.3-6.9-13.5-17.1-16.5-26.8
	C194.7,278.4,202.1,289.2,211.4,294z"/>
<path fill-rule="evenodd" clip-rule="evenodd" fill="#EEE4F2" d="M315.1,301c11.1-2.8,19.9-9.1,28.3-18.8
	C338.3,294.7,328.4,301.7,315.1,301L315.1,301z M153.7,126.7c5.6,1.5,10.3,4.4,15.2,8C167.2,131.3,160.9,125.5,153.7,126.7
	L153.7,126.7z M192.2,147.1c5.6,1.5,13.2,1.7,22.6-0.3C204.7,145.5,199.5,145.9,192.2,147.1L192.2,147.1z M169,207.7
	c0.3-5.1,2.2-9.7,4.6-14.6C170.7,195.2,166.3,201.7,169,207.7z"/>
<path fill-rule="evenodd" clip-rule="evenodd" fill="#E9A0A2" d="M189.2,144.7c-0.2-5.3-17-11-18.5-8.1c-2.5,2.7,0.4,9.6,4.2,12.6
	C181.7,150.6,187.9,148.4,189.2,144.7z"/>
<path fill-rule="evenodd" clip-rule="evenodd" fill="#D8736F" d="M189.2,144.7c-5.8,3.9-21.3-3.9-18.5-8.1c-2.5,2.7-0.8,10.9,4,14.7
	C181.5,152.7,187.9,148.4,189.2,144.7z"/>
<path fill-rule="evenodd" clip-rule="evenodd" fill="none" stroke="#B34E4B" stroke-width="1.7008" stroke-linecap="round" stroke-linejoin="round" stroke-miterlimit="22.9256" d="
	M189.2,144.7c-0.2-3.7-8.6-7.7-14.1-8.6l-0.2,0c-2.1-0.3-3.8-0.2-4.2,0.6c-2.5,2.7-0.8,11.6,3.9,14.7l0,0l0,0
	C181.5,152.7,187.9,148.4,189.2,144.7z"/>
<path fill-rule="evenodd" clip-rule="evenodd" fill="#D0B2D5" d="M239.7,325c-9.7,7.1-26.4,6.1-37.2,11.9
	C213,335.8,231.4,334.9,239.7,325L239.7,325z M206.2,27.4c7,20.4-8,41.7-6.6,55.5C196.4,68.1,209.5,46.7,206.2,27.4L206.2,27.4z
	 M266.9,53.7c-6-5.7-20.5-9.8-28.6-9.7C246.3,40,259.8,44.3,266.9,53.7L266.9,53.7z M180.2,243.9c9.2-8.1,22.6-25.1,27.1-37
	C207.9,217.1,194.2,239.9,180.2,243.9L180.2,243.9z M214.8,260.6c0.6,12,5.3,22.5,13.6,33.3C216.5,286,211.3,274.3,214.8,260.6z"/>
</svg>
