<?xml version="1.0" encoding="utf-8"?>
<!-- Generator: Adobe Illustrator 19.0.0, SVG Export Plug-In . SVG Version: 6.00 Build 0)  -->
<svg version="1.1" id="Layer_1" xmlns="http://www.w3.org/2000/svg" xmlns:xlink="http://www.w3.org/1999/xlink" x="0px" y="0px"
	 viewBox="0 0 368.5 366.2" enable-background="new 0 0 368.5 366.2" xml:space="preserve">
<path id="XMLID_14_" fill-rule="evenodd" clip-rule="evenodd" fill="#F0F3D1" d="M57.3,160.8c-3.9-12.8,19.8-33.3,12.6-46.5
	l-24.6-45c10.4-51.6,67.7-80.5,104.1-65.2c24.4,10.2,18.9,44.3,63.1,35.5c37-7.3,26.8,24.4,40.9,30.7c5.8,2.6,27.8,0.8,31.6,1.6
	c53.2,10.7,86.2,137,83.2,195.2c-2.7,52.7-29.1,66.5-90.4,74.5C232.5,347.5,112.3,339.7,57.3,160.8z"/>
<path id="XMLID_15_" fill-rule="evenodd" clip-rule="evenodd" fill="#ECECEC" d="M232.4,325L176,310.2l-56.9,16.7
	c-9.9,12.7,41.1,12.5,51.1,22.5c15,15,24.2,17.3,53.5,16.7c18.6-0.3,51.3-3.2,77.7-15.9C333.5,334.8,267.2,325,232.4,325z"/>
</svg>
