<?xml version="1.0" encoding="utf-8"?>
<!-- Generator: Adobe Illustrator 21.1.0, SVG Export Plug-In . SVG Version: 6.00 Build 0)  -->
<svg version="1.1" id="Layer_1" xmlns="http://www.w3.org/2000/svg" xmlns:xlink="http://www.w3.org/1999/xlink" x="0px" y="0px"
	 viewBox="0 0 524 420" style="enable-background:new 0 0 524 420;" xml:space="preserve">
<style type="text/css">
	.st0{fill-rule:evenodd;clip-rule:evenodd;fill:#E9F6FD;}
	.st1{fill-rule:evenodd;clip-rule:evenodd;fill:#E2EAB6;}
	.st2{fill-rule:evenodd;clip-rule:evenodd;fill:#D3E095;}
</style>
<path class="st0" d="M475.3,316.9l-170.6,35.9l-249.9-47c-24.8-19.8-38.3-70.6-19.1-113.2c16.1-35.7,34.3-34.9,51.2-51.8
	c26.6-33.9,17.6-84.2,85.4-115.8C345.3-55.8,549.7,86.3,475.3,316.9z"/>
<path class="st1" d="M328.8,326.6c14.6-5,29.9,8.9,11.5,22.4l33.1,38.3c-30.4,36.2-302.9,55-315.6-13.2c-20.8-9.4-20-28.1-4.9-32.7
	c-3-4.3-3.6-12.5,4.6-7.5c1.5,0.9,1.5,2.9,0.8-1.3c-0.2-1-0.5-3.5,0.7-4.1c0.6-0.3,2.4-0.9,1.8-1.4c-13.3-12.8,22-18.4,32-8.6
	c5.7-5.3,41.9-12.9,47.6-10.7c0.6,0.2-0.1-2.8-0.4-4.6c-1.1-7.6,19.6-14.2,21.4-2.3c0.1,0.8-1.6-8-0.4-9.7c2.7-4.3,10.9-4.2,9.5-6.9
	c-6.3-10.4-2.2-14.6,15.3-16.1c14.4-1.2,15.6,10.8,14.1,12.1c11.6-10.9,29.2-4.4,29.6,0c0.4,4.4,19.2-17.3,31.8,5.2
	c0.3,0.5,9.3-5.7,15,1.7c3.1,4,1.7,9.9,10.4,10.9c35.6,4.3,9,13.5,9.4,13c5-5.1,11.5-3,3.1,4.8c-8.3,7.9,8.8-8.9,15.3,3.8
	c0.7,1.4,9.8-2.9,12.3,0.2C327.1,319.8,330.6,324.6,328.8,326.6z"/>
<path class="st2" d="M235,350c-13.3-8.9-31.4,7-16,27.6c-116,38.4,144.5,59.8,168.6-8.8l5.6-5.6c-19.6,32.7,62.7,18.5,90.1-1.9
	c36.4-23.1,3.5-44.7-11.7-31c-0.6,0.5-2.2-1.5-1.5-2.2c15.8-14.8-17.9-27.7-29.8-16.4c-4.5-7.9,6.8-22.7,0.7-20.6
	c-0.6,0.2,0.7-3.7,1.3-6c2.7-9.8,4.6-21.8,0.4-6.5c-0.3,1,3.2-10.3,2.5-12.7c-1.9-6.1-10-7.4-7.9-10.6c8.3-12.8,5.3-18.9-11.7-23.6
	c-14-3.9-54.9,75.2-53.7,77.1c-9.2-16.2-27.9-10.4-29.2-4.6c0,0-9.4-22.2-21.4-14.6c-7.3,4.6-13.3,8.7-11.1,16.4
	c-11.2-19.1-30.7-17.9-33.7-4.1c-15-22.8-42.2,8-18.1,14.9c2.4,0.7-4.7,2.3-5.1,4.3c-1.3,5.6,10.3,7.5,9.5,8c-3.2,2-4,5.4-3.9,8.2
	c-2.8-0.4-5.8,0.7-8.4,5.3c-1,1.8-9-5.3-12.2-1.6C238.1,341.4,233.7,347.2,235,350z"/>
</svg>
