<?xml version="1.0" encoding="utf-8"?>
<!-- Generator: Adobe Illustrator 21.1.0, SVG Export Plug-In . SVG Version: 6.00 Build 0)  -->
<svg version="1.1" id="Layer_1" xmlns="http://www.w3.org/2000/svg" xmlns:xlink="http://www.w3.org/1999/xlink" x="0px" y="0px"
	 viewBox="0 0 524 420" style="enable-background:new 0 0 524 420;" xml:space="preserve">
<style type="text/css">
	.st0{fill-rule:evenodd;clip-rule:evenodd;fill:#E9F6FD;}
	.st1{fill-rule:evenodd;clip-rule:evenodd;fill:#FFFFFF;}
	.st2{fill-rule:evenodd;clip-rule:evenodd;fill:#E2EAB6;}
	.st3{fill-rule:evenodd;clip-rule:evenodd;fill:#D3E095;}
	.st4{fill-rule:evenodd;clip-rule:evenodd;fill:#9C589E;}
	.st5{fill-rule:evenodd;clip-rule:evenodd;fill:#EDB581;}
	.st6{fill-rule:evenodd;clip-rule:evenodd;fill:#D88F55;}
	.st7{fill-rule:evenodd;clip-rule:evenodd;fill:#BD6E39;}
	.st8{fill-rule:evenodd;clip-rule:evenodd;fill:#A35939;}
	.st9{fill-rule:evenodd;clip-rule:evenodd;fill:#B9C071;}
	.st10{fill:none;stroke:#822E2D;stroke-width:1.7018;stroke-linecap:round;stroke-linejoin:round;stroke-miterlimit:22.9256;}
	.st11{fill-rule:evenodd;clip-rule:evenodd;fill:#F7D2AE;}
	.st12{fill-rule:evenodd;clip-rule:evenodd;fill:#E9A0A2;}
	.st13{fill-rule:evenodd;clip-rule:evenodd;fill:#D8736F;}
	.st14{fill-rule:evenodd;clip-rule:evenodd;fill:#1A1A18;}
	.st15{fill-rule:evenodd;clip-rule:evenodd;fill:#AEC905;}
	.st16{fill:none;stroke:#4C7F34;stroke-width:1.7018;stroke-linecap:round;stroke-linejoin:round;stroke-miterlimit:22.9256;}
	.st17{fill-rule:evenodd;clip-rule:evenodd;fill:#5C2A59;}
	.st18{fill:none;stroke:#7A265F;stroke-width:1.7018;stroke-linecap:round;stroke-linejoin:round;stroke-miterlimit:22.9256;}
	.st19{fill:none;stroke:#E30045;stroke-width:8.5088;stroke-linecap:round;stroke-linejoin:round;stroke-miterlimit:22.9256;}
	.st20{fill-rule:evenodd;clip-rule:evenodd;fill:#F7C6C7;}
	.st21{fill-rule:evenodd;clip-rule:evenodd;fill:#F3A5A6;}
	.st22{fill:none;stroke:#BC433B;stroke-width:1.7018;stroke-linecap:round;stroke-linejoin:round;stroke-miterlimit:22.9256;}
</style>
<path class="st0" d="M475.3,316.9l-170.6,35.9l-249.9-47c-24.8-19.8-38.3-70.6-19.1-113.2c16.1-35.7,34.3-34.9,51.2-51.8
	c26.6-33.9,17.6-84.2,85.4-115.8C345.3-55.8,549.7,86.3,475.3,316.9z"/>
<path class="st1" d="M166,165.3l-10.9-2.6l-13.4-1.8c-3.9-17.9,0.9-30.9,5.4-31.3C153.7,129.2,163.8,137.4,166,165.3z"/>
<path class="st2" d="M328.8,326.6c14.6-5,29.9,8.9,11.5,22.4l33.1,38.3c-30.4,36.2-302.9,55-315.6-13.2c-20.8-9.4-20-28.1-4.9-32.7
	c-3-4.3-3.6-12.5,4.6-7.5c1.5,0.9,1.5,2.9,0.8-1.3c-0.2-1-0.5-3.5,0.7-4.1c0.6-0.3,2.4-0.9,1.8-1.4c-13.3-12.8,22-18.4,32-8.6
	c5.7-5.3,41.9-12.9,47.6-10.7c0.6,0.2-0.1-2.8-0.4-4.6c-1.1-7.6,19.6-14.2,21.4-2.3c0.1,0.8-1.6-8-0.4-9.7c2.7-4.3,10.9-4.2,9.5-6.9
	c-6.3-10.4-2.2-14.6,15.3-16.1c14.4-1.2,15.6,10.8,14.1,12.1c11.6-10.9,29.2-4.4,29.6,0c0.4,4.4,19.2-17.3,31.8,5.2
	c0.3,0.5,9.3-5.7,15,1.7c3.1,4,1.7,9.9,10.4,10.9c35.6,4.3,9,13.5,9.4,13c5-5.1,11.5-3,3.1,4.8c-8.3,7.9,8.8-8.9,15.3,3.8
	c0.7,1.4,9.8-2.9,12.3,0.2C327.1,319.8,330.6,324.6,328.8,326.6z"/>
<path class="st1" d="M180.2,156.5l5.5,1.1l5.3-4.6l8.2-6.9c-6.4-18.3-15.3-24.9-20.4-23.1C173.4,126.6,176.3,142,180.2,156.5z"/>
<path class="st3" d="M235,350c-13.3-8.9-31.4,7-16,27.6c-116,38.4,144.5,59.8,168.6-8.8l5.6-5.6c-19.6,32.7,62.7,18.5,90.1-1.9
	c36.4-23.1,3.5-44.7-11.7-31c-0.6,0.5-2.2-1.5-1.5-2.2c15.8-14.8-17.9-27.7-29.8-16.4c-4.5-7.9,6.8-22.7,0.7-20.6
	c-0.6,0.2,0.7-3.7,1.3-6c2.7-9.8,4.6-21.8,0.4-6.5c-0.3,1,3.2-10.3,2.5-12.7c-1.9-6.1-10-7.4-7.9-10.6c8.3-12.8,5.3-18.9-11.7-23.6
	c-14-3.9-54.9,75.2-53.7,77.1c-9.2-16.2-27.9-10.4-29.2-4.6c0,0-9.4-22.2-21.4-14.6c-7.3,4.6-13.3,8.7-11.1,16.4
	c-11.2-19.1-30.7-17.9-33.7-4.1c-15-22.8-42.2,8-18.1,14.9c2.4,0.7-4.7,2.3-5.1,4.3c-1.3,5.6,10.3,7.5,9.5,8c-3.2,2-4,5.4-3.9,8.2
	c-2.8-0.4-5.8,0.7-8.4,5.3c-1,1.8-9-5.3-12.2-1.6C238.1,341.4,233.7,347.2,235,350z"/>
<path class="st4" d="M280.8,260.8l4.7-34.8l4.3-3l-6.3-12l-2.7-3.5c-1.6-1.8-0.5-3.7,3.3-5.6l25.1-5.5l2.9,0.6l1.9,1.5l-0.6,9.8
	l0.8,9.8c8.2-0.8,15.2,1.6,20.5,9l5.4,34.8C338,280.1,290.4,293.6,280.8,260.8z"/>
<path class="st5" d="M465.4,314.6l25.4-55.9c7.4-9.1,22.1-8.1,31.3-11c-1.4,4.3-5,7.5-8.9,10.3c3.7-0.2,6.5-1,8.5-2.5
	C530.6,294.2,496.3,327.3,465.4,314.6z"/>
<path class="st6" d="M477.7,301.6l13-42.9c7.4-9.1,22.1-8.1,31.3-11c-1.4,4.3-5,7.5-8.9,10.3c3.7-0.2,6.5-1,8.5-2.5
	C524.7,275.4,504.9,302.3,477.7,301.6z"/>
<path class="st5" d="M311,185.1h17.3l28.3,5.7l5.8,15.7l-27.4,21c-3.4-6-9.3-10-20.8-9.6l-0.4-18.2c1.2-2.7-2.4-3.6-8.1-3.6
	C305.3,190.7,306.8,186.7,311,185.1z"/>
<path class="st6" d="M349.1,199c-0.4-8.1-14.7-5.3-20.7-13.8l28.3,5.7l5.8,15.7l-27.4,21c-3.4-6-8.9-7.7-11.3-8.7
	C338.7,224.8,349.9,205.8,349.1,199z"/>
<path class="st7" d="M321,339.6c4.4,4.6,15.1,5.1,27.5,4.4l72.9-4.4l-34-30.4l-10.2-2.8l-9.7-4.2c-17.7,28.6-45.6,2.3-59.1,25.1
	c-1.7,2.5,0.7,6.4,3.6,6.8C311.2,337.2,317,341.4,321,339.6z"/>
<path class="st8" d="M321,339.6c4.4,4.6,15.1,5.1,27.5,4.4l72.9-4.4l-34-30.4l-10.2-2.8l-2.4-1.1c-19.8,33.3-55.1,4.3-66.3,22
	c-1.7,2.5,0.7,6.4,3.6,6.8C311.2,337.2,317,341.4,321,339.6z"/>
<path class="st6" d="M387.4,309.2l-7.9-64.9l-32,15.9C360.9,276.5,343.5,300,387.4,309.2z"/>
<path class="st7" d="M401.2,329.9c-0.4-18.2-34.7-15.8-21.7-85.6c-28.8,21-65.7,25.2-74.4,10.5c-5.4-3.5-6.4-8.1-3.2-13.9
	c22.4-2.4,42-17.4,52.6-33.4c2.8-6.9,4.7-13.3,0.1-16.4l41.8-21.2c23.9,29.6,86.4,20.1,94.3,88.9c2.2,24.3-9.7,46.5-38.8,66.1
	c-14.9,11.2,2.3,19.9-9.2,29.9c-11.1,9.1-66.5,20.2-83.9,11c-9.8,1.1-13.3-1.1-13.9-4.6c-4.5-1.5-6.3-5.1-4.3-8.4
	c4.1-7.1,11.2-11.6,15.1-12C370.1,338.1,380.9,343.5,401.2,329.9z"/>
<path class="st8" d="M379.5,244.2c-28.8,21-65.7,25.2-74.4,10.5c-5.4-3.5-6.4-8.1-3.2-13.9C309.4,259.2,340.1,261.7,379.5,244.2z"/>
<path class="st8" d="M428.7,336.9c-1.1-37,65.4-44.1,28.2-117.3c16,4.7,31.7,24,33.7,39.1c2.2,24.3-9.7,46.5-38.8,66.1
	c-14.9,11.2,2.3,19.9-9.2,29.9c-11.1,9.1-66.5,20.2-83.9,11c-9.8,1.1-13.3-1.1-13.9-4.6c-4.5-1.5-6.3-5.1-4.3-8.4
	c6.3,0.6,17.2,7.2,21.1,6.8C375.7,363.8,428.3,346.7,428.7,336.9z"/>
<path class="st5" d="M328.3,185.2c-9.8,4.8-17.7,3-22.9-8.2c-18.2-11.4-27-31.5-24.4-52.1l-1.8-2.9c11.5,3.2,15.9-8.1,34.6,9.5
	c-2.1,4.5,0.6,10.1,6.5,16.3c10.9-1.8,16.1-4.2,15.4-7.2c16,1.1,26.4-7.7,40.7-7.1c10.7,0.5,19.7,8.8,25,17.3l-8.8-1.2
	c3.6,3.5,8.2,5.8,12.6,7C389.5,186.5,357.5,199.5,328.3,185.2z"/>
<path class="st6" d="M328.3,185.2c-9.8,4.8-17.7,3-22.9-8.2c-11.6-8.4-15.7-14.7-18.9-20.5c7.5,7.5,13.8,11.2,19.5,13.1
	c3.5,14.1,14.5,14.6,23.3,10.2c26.9,14.7,60.7-7.6,50.3-34.8c-2.8-6.7-8.4-10.5-15.6-9.9l8-1.5l6.4,0.3c11.2,1.5,18.2,8.1,23.1,16.9
	l-8.8-1.2c3.6,3.5,8.2,5.8,12.6,7C389.5,186.5,357.5,199.5,328.3,185.2z"/>
<path class="st8" d="M376,64.8l-2.6,10.6l-34.2-4.8c22.2-66.7,79.2-74.1,81.2-67.8c3.6,10.1-9.9,16.3-15.2,27.9
	C400.2,41.5,391.4,52.8,376,64.8z"/>
<path class="st7" d="M388.4,74.3c68.3-60,128.3-47.8,74.8-15.7c-11.8,26.1-33.5,41.9-65,47.5c2.4,13.8,2,26.5-1.4,38.1
	c-19.7-22.6-40.6-2.6-61-3.8c-5-9-12.4-11.6-21.9-9.1c-6.2-5.2-12.2-9-17.8-9.9c7-53.6,55.9-58.9,77.4-46c-3.3-19.4,9.7-9.5,8.2,6
	C384.9,64.4,389.4,69.9,388.4,74.3z"/>
<path class="st7" d="M163.1,362.1l-36.1,5.1l-19.8-12.7l64.6-78.9l5.3,0.2c6.3,26.2,2.4,46.4-18.3,61.3c11.8,3.4,29.4-5.3,41,1.3
	c8.1,4.4,11,11.9,5.6,15.8c-1.6,3.8-5.9,5.5-12.1,5.8C185.5,364.2,174.9,364.1,163.1,362.1z"/>
<path class="st8" d="M163.1,362.1L120,374.2l-19.8-12.7l64.6-78.9l5.3,0.2c6.3,26.2,2.4,46.4-18.3,61.3c11.8,3.4,29.4-5.3,41,1.3
	c9.3-5.5,14.2,5.1,12.6,8.8c-1.6,3.8-5.9,5.5-12.1,5.8C185.5,364.2,174.9,364.1,163.1,362.1z"/>
<path class="st6" d="M146.8,326.9l0.3-59.2l24.7,7.8C176,299.2,164,320.5,146.8,326.9z"/>
<path class="st5" d="M68.6,336.1l-38.1-50.2c-9.9-5-19.7-0.9-29.6-1.3l10.8,11.7l-10.8-4C4.7,335.7,36.3,349.2,68.6,336.1z"/>
<path class="st6" d="M63.5,323.6l-33.1-38.1c-8.6-3.8-21-0.7-29.6-1.1l10.8,11.7l-6.4-2.4C8.6,326.8,35.5,333.6,63.5,323.6z"/>
<path class="st8" d="M164.4,92.8l-25.1,17.5l-3.8-25.6c-4-23.6-15.8-31.1-11.7-69.8c0.8-9.9,7.3-12,11.9-5.5
	C156.5,39.4,170.2,57.5,164.4,92.8z"/>
<path class="st7" d="M110.6,122.9c-6.7,15.9-5.5,32.1,1,48.4c6.7-7.6,17-10.7,30.1-10.3c-3.4-16-1.7-26.4,5.4-31.3
	c10.9,0.2,16.5,13.8,19,34.8c1.6-3.7,6.2-6.4,14-8c-4.9-16.2-6-28-1.4-33.5c7.4-2.2,14,9.1,20.4,23.1l12.6-2.6
	c-12.5-6.9-11.3-52.2-58-51c-0.5-7.5-5.6-5.5-15.3,6.2c16.7-22.2,1.1-25.8-10.9-2.1c-19.7-35.3-46.3-37.1-71.6-55.4
	c-6.6-4.4-12.1,0.7-10.6,8.6C52.5,91.1,93.7,115.2,110.6,122.9z"/>
<path class="st8" d="M110.6,122.9c-6.7,15.9-5.5,32.1,1,48.4c6.7-7.6,11.9-7.9,17.2-9.5c-9.4-18.4-4.7-44.4,12.7-56.6
	c-14.1,0.4-4.5-19.6-0.4-24.4c-5.8,2.9-10.4,8.1-13.6,15.9l5.3,11.5c-4.2-0.4-13.2,4.1-11,10.7C102.1,83.4,102.2,91.3,76.8,73
	c-17.2-19.2-26-19.1-24.4-11.2C60.5,96,93.7,115.2,110.6,122.9z"/>
<path class="st8" d="M398.1,106.1c1.5,13.1,2.4,21.6-1.4,38.1c-6.7-7.6-13.7-9.7-18.4-10.6c7.3-16.3,3.3-40.5-6.7-50.6
	c4.7-0.7,11.8,1.5,14.8,5.7c15.8-27.2,39.7-32.2,61.5-41c24.1-11.5,27.9,1.7,15.1,10.8C452.9,86.9,417.1,103.9,398.1,106.1z"/>
<path class="st7" d="M110.8,353.7c36.9-8.6,49-37.3,36.3-86.1c25.4,13.6,60.7,8.7,55.7-5.1c1.2-4.1,0.1-6.8-3.2-8.2
	c25.2,5.7,43.8,5.1,54.7-3.1c1.7-3.7,1.5-7.5-2.7-11.2c-5-10.8-27.6-8.9-41-17l-76.8-11.7c-9.4-4.3-16.7-10.4-21.1-19
	c-20.3,20-56.9,17.5-75.5,49.5c-17.8,34.3-2.5,72.2,31.4,94.3c10.8,6.5,11.7,14.6,8.1,23.3c-9.8,5,13.8,28.8,62.8,30.5
	c6.7,1.3,13.4,1.1,19.7-2.2c5.2,0,9.3-1.1,11.7-3.6c7.1-2.3,8.1-9,5.4-13C162.5,352.8,130.4,363.7,110.8,353.7z"/>
<path class="st8" d="M147.1,267.6c25.4,13.6,60.7,8.7,55.7-5.1c1.2-4.1,0.1-6.8-3.2-8.2c25.2,5.7,43.8,5.1,54.7-3.1
	c1.7-3.7,1.5-7.5-2.7-11.2c-6.1,22.9-39.6,0-60,1.3c9.7-0.8,16.9-4.4,18.4-14.1l-76.2-15.9c-9.4-4.3-16.7-10.4-21.1-19
	c5.8,22.8,22.5,33.9,42.6,38.2l25.8,20.7l-0.5,24.1L147.1,267.6c-10.1-4.9-18.3-11.8-24.6-20.6c2.8,10.9,11.3,22.6,26,27.2
	L147.1,267.6z"/>
<path class="st8" d="M89.2,360.9c35.5-57.1-56-44.8-39.7-112.7c-19.7,26-14.7,65.7,19.2,87.7c10.8,6.5,11.7,14.6,8.1,23.3
	c-9.8,5,13.8,28.8,62.8,30.5c6.7,1.3,13.4,1.1,19.7-2.2c5.2,0,9.3-1.1,11.7-3.6c7.1-2.3,8.1-9,5.4-13
	C149.6,390.5,86.3,368.7,89.2,360.9z"/>
<path class="st9" d="M196,138.5l3.2,7.6l-12.8,10.7c-4.3-12.2-4.6-22.8-1.1-24.7C189.4,130.5,193.4,133.6,196,138.5z"/>
<path class="st9" d="M148.8,161.7l17.2,3.7l-2.4-15.3c-4.2-11.2-10.7-12.3-12.6-9.6C148,144.4,147.8,152.1,148.8,161.7z"/>
<path class="st10" d="M132.9,108c-17.6-45.8-51.7-48.7-77-66.9c-6.6-4.4-12.1,0.7-10.6,8.6c7.3,41.5,52.3,69.6,71.6,74.7"/>
<path class="st10" d="M135.5,84.7c-4-23.6-15.8-31.1-11.7-69.8c0.8-9.9,7.3-12,11.9-5.5c20.8,30,34.5,48,28.7,83.4"/>
<path class="st10" d="M153.8,92.4c47.3-1.6,46.8,50,58,51"/>
<path class="st10" d="M127.6,96.6c5.3-12.7,15.7-18.1,17.9-15.9c2,0.9-0.4,6.9-7.1,18c12.9-19,20.8-8.3,9.4-0.6"/>
<path class="st5" d="M112.7,182.7l-8.2-4.4l7.2-7c11.2-12.6,30.7-12.5,54.4-5.9l19.1-7.2c15.8-18.1,21.7-13.2,33.6-15.4l-6.1,11.4
	l6.3-5.1c4.8,30.6-7.4,54.6-45,61.6c-40.6,14.2-61.3-11.8-64.6-27.4L112.7,182.7z"/>
<path class="st11" d="M212.3,144.4c-6.6,2-17.2,6.8-24,11.7C193.6,148.5,206,142.3,212.3,144.4z"/>
<path class="st11" d="M382,136.7c-7.6,0-20.3,1.6-29.1,4.5C361,135,376,132.5,382,136.7z"/>
<path class="st11" d="M288.7,122.6c5.8,1.3,15.3,4.9,21.6,9.1C305,124.7,293.9,119.8,288.7,122.6z"/>
<path class="st10" d="M110.6,122.9c-6.5,14.3-5.7,31.1,1,48.4"/>
<path class="st6" d="M104.5,178.3l8.2,4.4l-3.3,0.4l3.5,9.1l3.5,5.6c10.3,12.8,18.1,16.1,35.7,14.8l10.8,0.9
	c7.7,3,14.7,3.5,19.9-1.5l15.8-10.3c9.1-5.3,19.8-15.9,20.8-32c-8.1,22.9-27.5,30.9-38.1,33.2c-1.9,11.1-3.7,10.5-7.5,11.1
	c-7.1-1,2-7.4-0.1-9.5c-18.6,6.9-59.1-9.5-45.9-35.9C112.6,170.3,110.9,178.2,104.5,178.3z"/>
<path class="st10" d="M185.6,157.6c15.7-17.3,21.2-12.7,33.1-14.8l-6.1,11.4l6.3-5.1c4.8,30.6-7.4,54.6-45,61.6
	c-40.6,14.2-61.3-11.8-64.6-27.4l6.6-0.8"/>
<path class="st10" d="M137.6,130.6c0.8-2.7,2.3-5.3,5.2-5.7"/>
<path class="st10" d="M360.4,108.9c-0.8-2.7-2.3-5.3-5.2-5.7"/>
<path class="st10" d="M178,118.5c2.2-0.8,5.4-0.6,6.9,0.4"/>
<path class="st10" d="M158.5,178.3c7,13.2,22,7.1,22.9-2.5c9.1,5.9,20.4,0.4,16.8-11.1"/>
<path class="st10" d="M178.1,189.4c5,4.1,10.6,2.9,12.1-4.3"/>
<path class="st10" d="M112.8,192.2c-20.3,20-56.9,17.5-75.5,49.5C19.4,276,34.7,314,68.6,336c10.8,6.5,11.7,14.6,8.1,23.3
	c-9.8,5,13.8,28.8,62.8,30.5c6.7,1.3,13.4,1.1,19.7-2.2c5.2,0,9.3-1.1,11.7-3.6c7.1-2.3,8.1-9,5.4-13c-13.8-18.3-46-7.3-65.5-17.3"
	/>
<path class="st10" d="M107.3,354.5c39.1-7.3,52.5-35.9,39.9-86.8"/>
<path class="st10" d="M171.8,275.4c4.2,23.7-7.8,45-25,51.4"/>
<path class="st10" d="M177.2,275.9c7,28.9,0,48.7-18.4,61"/>
<path class="st10" d="M158.8,337c11.8,3.4,29.4-5.3,41,1.3c8.1,4.4,11,11.9,5.6,15.8c-1.6,3.8-5.9,5.5-12.1,5.8
	c-7.9,4.3-18.5,4.3-30.2,2.2"/>
<path class="st10" d="M240.5,239.1c4.4-0.4,8.2-0.1,11.2,0.9c-5.1-10.9-25.5-7.4-42.6-17.9"/>
<path class="st10" d="M251.7,240c3.3,2.2,5,7.6,2.7,11.2c-4.1,0.5-8.4-0.5-13-3.6"/>
<path class="st10" d="M254.4,251.2c-11.4,8.5-31.2,7.9-54.7,3.1"/>
<path class="st10" d="M30.5,285.7c-9.9-5-19.7-0.9-29.6-1.3l10.8,11.7l-10.8-4c3.9,43.6,35.4,57,67.7,44"/>
<path class="st12" d="M166,165.3c-0.3-5,15.5-11.3,19.6-7.8c1.4,3.4-1.4,8.8-5.5,12.9C175.4,169.8,166.1,169.6,166,165.3z"/>
<path class="st13" d="M166,165.3c6.9,5.3,22.7-1.1,19.6-7.8c1.4,3.4-1.4,8.8-5.5,12.9C175.4,169.8,166.1,169.6,166,165.3z"/>
<path class="st1" d="M357.2,137.1l-12,3.1l-9.4,0.4l-2.5-4.4c3.9-15.5,14-29.7,19.3-27.9C358,109.7,361.1,120.2,357.2,137.1z"/>
<path class="st9" d="M351.6,137.9l-9.2,2.3l-7.2,0.3l-1.9-3.4c3-11.9,10.7-22.7,14.7-21.4C352.2,116.9,354.5,125.1,351.6,137.9z"/>
<path class="st10" d="M153.1,373.2c7.2,5,8.3,11.2,6.2,14.5"/>
<ellipse transform="matrix(0.1136 -0.9935 0.9935 0.1136 170.558 455.834)" class="st14" cx="340.7" cy="132.3" rx="6.1" ry="6.1"/>
<path class="st1" d="M319.2,130.9l-5.4,0.6l-13.3-8.6c4.6-13.4,14.4-24.9,19.7-23.1C324.5,102.1,324.5,114.4,319.2,130.9z"/>
<path class="st9" d="M314.7,131l-1.6,0.4l-2.4-1.5l-10.2-6.6c3.5-10.2,10.9-17.2,14.9-15.8C318.6,109.2,318.7,118.5,314.7,131z"/>
<path class="st10" d="M165.7,368.4c6.6,4.5,8.6,11.8,5.2,15.7"/>
<path class="st10" d="M189,348.9c5.4,3.7,6.2,8.4,4.7,10.9"/>
<ellipse transform="matrix(0.114 -0.9935 0.9935 0.114 177.1381 460.4279)" class="st1" cx="346.7" cy="130.9" rx="3.7" ry="3.7"/>
<path class="st10" d="M200.8,344.1c4.9,3.4,5.1,7,4.7,9.9"/>
<path class="st10" d="M179.1,249.7c12.2-5.1,21.1-0.5,20.6,4.7"/>
<path class="st15" d="M181.6,237.4c13.8,13.4,19.8,30.7,18.2,52.1c-0.4,3.3-7.6,4.1-7.5,0c-0.4-22.5-5-40.1-15.8-50.8
	c-4.7,23.4-15.1,30.4-23.1,27.7c-6.6-1.8-9-8.6-5.7-15c-15.8,0.5-20.5-21.3,7.8-21c-33.4-5.3-23.5-34.2-3.1-27
	c0-21.2,24.2-18,21.5,10.6c9.3-29.7,31.4-17.7,24.4-0.9C217,213.8,216.9,241.1,181.6,237.4z"/>
<path class="st16" d="M181.6,237.4c13.8,13.4,19.8,30.7,18.2,52.1c-0.4,3.3-7.6,4.1-7.5,0c-0.4-22.5-5-40.1-15.8-50.8
	c-4.7,23.4-15.1,30.4-23.1,27.7c-6.6-1.8-9-8.6-5.7-15c-15.8,0.5-20.5-21.3,7.8-21c-33.4-5.3-23.5-34.2-3.1-27
	c0-21.2,24.2-18,21.5,10.6c9.3-29.7,31.4-17.7,24.4-0.9C217,213.8,216.9,241.1,181.6,237.4z"/>
<path class="st10" d="M296,121.4c7-53.6,55.9-58.9,77.4-46c-3.3-19.4,9.7-9.5,8.2,6c3.2-17.1,9.7-14.7,5.3,0.8"/>
<path class="st10" d="M388.4,74.3c47.3-42,80.2-43.4,87.9-41.8c16.2,2,4.8,14.3-13,26.1c-13.6,27.6-38.5,45.6-73.4,48.5"/>
<path class="st10" d="M339.2,70.6c22.2-66.7,79.2-74.1,81.2-67.8c3.6,10.1-9.9,16.3-15.2,27.9c-4.9,10.9-13.7,22.2-29.1,34.2"/>
<path class="st10" d="M281,124.9c-1.6,22.7,7.4,42.8,24.4,52.1c4.1,10.6,11.8,13.3,22.9,8.2"/>
<path class="st10" d="M335.8,140.5c16,1.1,26.4-7.7,40.7-7.1c10.7,0.5,19.7,8.8,25,17.3l-8.8-1.2c3.6,3.5,8.2,5.8,12.6,7
	c-15.8,30-47.8,43-77,28.6"/>
<path class="st10" d="M302.9,144.2c-1.8,9.7,7.8,17.3,15.9,10.4c1.7,12.2,18.3,14.5,24.6,3.5"/>
<path class="st10" d="M311.9,168.7c1,2.7,3.1,4.3,6.1,4.8"/>
<path class="st10" d="M300.3,143.4c1.4,1.1,3.1,1.4,5.4-0.2"/>
<path class="st10" d="M159.1,174.5c-1.8-0.1-3.3,0.6-4.3,3.3"/>
<path class="st10" d="M195.9,162.6c1-1.1,2.3-1.5,4.2-0.2"/>
<path class="st10" d="M341.6,155.7c0.6,1.7,1.8,2.8,4.7,2.8"/>
<path class="st10" d="M398.1,106.1c2.6,12.7,1.6,25.4-1.4,38.1"/>
<path class="st10" d="M333.3,136.2c3.9-15.5,14-29.7,19.3-27.9c5.4,1.5,8.5,12.1,4.7,28.8"/>
<path class="st10" d="M396.4,169.8c23.9,29.6,86.4,20.1,94.3,88.9c2.2,24.3-9.7,46.5-38.8,66.1c-14.9,11.2,2.3,19.9-9.2,29.9
	c-11.1,9.1-66.5,20.2-83.9,11c-9.8,1.1-13.3-1.1-13.9-4.6c-4.5-1.5-6.3-5.1-4.3-8.4c4.1-7.1,11.2-11.6,15.1-12
	c14.4-2.6,25.2,2.9,45.5-10.8"/>
<path class="st10" d="M398.2,334.8c4.8-3.7,3.7-9.5-1.1-14.2c-17-15.7-26.6-41-17.6-76.3"/>
<path class="st10" d="M385.4,238.4c-22.8,26.2-73.5,31-80.3,16.4c4.7,3.3,13.6,3.4,13.9,2.8"/>
<path class="st10" d="M305.1,254.7c-6.4-4.4-6.2-10.8-3.2-13.9c1.9,5.7,7.1,8.3,15.6,7.8"/>
<path class="st10" d="M301.9,240.9c18.4-1.4,36.1-11.2,52.6-33.4"/>
<path class="st10" d="M344.9,361.1c-0.5-3.4,1-8.9,7.9-13.7"/>
<path class="st10" d="M358.8,365.7c-1.4-4,0.7-8.2,6.3-12.6"/>
<path class="st10" d="M367.5,302.3c-17.7,28.6-45.6,2.3-59.1,25.1c-1.7,2.5,0.7,6.4,3.6,6.8c1.2-4.6,4.7-8.2,8.7-10.1"/>
<path class="st10" d="M311.9,334.2c-0.1,3.7,4.3,6.2,9,5.4c-0.4-3.8,3.3-8.1,6.6-11.1"/>
<path class="st7" d="M147.1,267.6c25.4,13.6,60.7,8.7,55.7-5.1c1.2-4.1,0.1-6.8-3.2-8.2l-6.1-1.5l-13.7-0.9l-10.7,18.4L147.1,267.6z
	"/>
<path class="st10" d="M321,339.6c6.1,3.9,19,4.5,27.5,4.4"/>
<path class="st10" d="M490.7,258.6c7.4-9.1,22.1-8.1,31.3-11c-1.4,4.3-5,7.5-8.9,10.3c3.7-0.2,6.5-1,8.5-2.5
	c8.9,38.8-25.4,71.8-56.3,59.1"/>
<path class="st10" d="M347.5,260.1c13.3,16.4-4,39.7,39.9,49"/>
<path class="st7" d="M283,226.3c3.8-2.3,11.4,6.5,4,14.7c3.1,3,3.1,8.9-1.1,11.1c4.3,7.3-3.6,11.7-7,7.2
	C269.4,247,274,230.5,283,226.3z"/>
<path class="st10" d="M283,226.3c3.8-2.3,11.4,6.5,4,14.7c3.1,3,3.1,8.9-1.1,11.1c4.3,7.3-3.6,11.7-7,7.2
	C269.4,247,274,230.5,283,226.3z"/>
<path class="st17" d="M295.4,199.3c8-1.9,15.1-2.3,16-0.9c0.9,1.4-4.9,4.1-12.8,6.1c-8,1.9-15.1,2.3-16,0.9
	C281.7,204,287.4,201.3,295.4,199.3z"/>
<path class="st18" d="M295.4,199.3c8-1.9,15.1-2.3,16-0.9c0.9,1.4-4.9,4.1-12.8,6.1c-8,1.9-15.1,2.3-16,0.9
	C281.7,204,287.4,201.3,295.4,199.3z"/>
<path class="st18" d="M314,198.4c-0.8,5.7-0.9,13,0.2,19.5"/>
<path class="st18" d="M280,206.5c4.6,5.5,8.1,11,9.8,16.5"/>
<path class="st18" d="M335.1,227.7c-3.5-6.5-12.5-10.6-20.8-9.7c-3.8,4.8-19.2,9.6-24.4,5.1l-4.3,3"/>
<path class="st18" d="M340.1,261.7c-2.1,18.4-49.7,31.8-59.3-0.9"/>
<path class="st10" d="M311,185.1c-3.7,1.8-5.4,5.5-5.3,11.1"/>
<path class="st10" d="M175.8,247.3c3.8,4.9,11.5,5.9,17.8,5.6"/>
<path class="st10" d="M202.9,262.5c1.9-4.2-0.5-7.6-3.2-8.2c-1,3.1-3.1,5.7-8.2,6.9"/>
<path class="st10" d="M122.5,247c19.1,25.5,49.8,31.8,72.3,26.6c5.3-1.6,8.9-5.8,8-11.1c-2.9,3.6-5.8,5.3-8.7,5.3"/>
<path class="st19" d="M198.2,213.2c18.8,0.6,18.7,27.9-16.6,24.2c5.2,5,9.2,10.6,12.2,16.7"/>
<path class="st20" d="M122.2,113.7c-12-27.2-35.7-34-50.4-43.9c-11.3-8-16.2-5.5-11,4.5c5.1,9.4,24,38.8,56.5,46.5
	C121.8,121.6,123.9,116.4,122.2,113.7z"/>
<path class="st20" d="M390.8,90.5c14.7-22,42.3-31.6,58.3-39.3c12.4-6.2,16.8-3.1,10.3,6.1c-6.4,8.5-29.4,38-64.7,40.9
	C390,98.2,388.7,92.9,390.8,90.5z"/>
<path class="st21" d="M75.3,90.7c7.5,9.3,16.6,16.5,28.8,22.6C90.5,110.7,81.1,102.8,75.3,90.7z"/>
<path class="st21" d="M450.3,62.4c-7.5,9.3-16.6,16.5-28.8,22.6C435.1,82.4,444.5,74.6,450.3,62.4z"/>
<path class="st6" d="M62.3,223.7c-11.1,6-18.9,15.2-25.3,27.9C39.1,236.8,47.8,226.7,62.3,223.7z"/>
<path class="st6" d="M434,198.6c12.4,2.5,30.7,14.5,40.5,24.8C468.2,209.9,448.8,197.2,434,198.6z"/>
<path class="st6" d="M119.4,347.4c11.1-6,18.9-15.2,25.3-27.9C142.6,334.3,134,344.4,119.4,347.4z"/>
<path class="st6" d="M393,309.4c-7.2-10.4-10.4-27-10.4-41.3C377.7,282.2,381.3,300.2,393,309.4z"/>
<path class="st6" d="M351.1,216.6c-9.2,11-22.5,20.3-36.3,24C325.8,240.5,346.5,231.8,351.1,216.6z"/>
<path class="st6" d="M189.9,116.9c-5.8-9.1-14.1-15.2-25.4-19.9C177.3,97.9,186.5,104.7,189.9,116.9z"/>
<path class="st6" d="M308.5,94.9c5.8-9.1,16-15,27.3-19.7C323,76,313.2,82.6,308.5,94.9z"/>
<path class="st11" d="M55.2,335.9c-10.1,2.1-19.7,0.5-30.3-4.1C33.9,339.9,44.6,341.7,55.2,335.9z"/>
<path class="st11" d="M509.6,296.9c-6.3,8.1-14.6,13.2-25.6,16.7C496.2,313.9,505.4,308.3,509.6,296.9z"/>
<path class="st6" d="M77.1,58c9.5,5.3,31.2,20,38.8,27.2C109.8,73.5,90.4,62.3,77.1,58z"/>
<path class="st7" d="M147.4,31.4c4.5,9.9,13.3,34.6,15.1,44.9C164.4,63.3,155.5,42.7,147.4,31.4z"/>
<path class="st7" d="M371.4,25.3c-7.1,8.4-22.1,29.7-26.7,39.1C346.4,51.4,360.6,34,371.4,25.3z"/>
<ellipse transform="matrix(0.2421 -0.9703 0.9703 0.2421 -29.4263 272.0707)" class="st14" cx="159.4" cy="154.9" rx="5.3" ry="5.3"/>
<ellipse transform="matrix(0.1136 -0.9935 0.9935 0.1136 29.2216 318.1719)" class="st14" cx="192.9" cy="142.7" rx="5" ry="5"/>
<ellipse transform="matrix(0.1136 -0.9935 0.9935 0.1136 153.8697 411.7557)" class="st14" cx="307.7" cy="119.6" rx="5.6" ry="5.6"/>
<ellipse transform="matrix(0.2423 -0.9702 0.9702 0.2423 -34.0314 267.3702)" class="st1" cx="154.2" cy="155.5" rx="3.2" ry="3.2"/>
<ellipse transform="matrix(0.1139 -0.9935 0.9935 0.1139 23.6325 314.3495)" class="st1" cx="188" cy="143.9" rx="3.1" ry="3.1"/>
<ellipse transform="matrix(0.1136 -0.9935 0.9935 0.1136 160.0257 416.1516)" class="st1" cx="313.2" cy="118.4" rx="3.4" ry="3.4"/>
<path class="st11" d="M121.3,166.6c8.4-1.7,22.6-2.9,32.9-1.6C144,159.9,126.9,160.5,121.3,166.6z"/>
<path class="st10" d="M166,165.3c-49.2-13.7-53.1,8-61.5,13l8.2,4.4"/>
<path class="st10" d="M141.7,161c-3.9-17.9,0.9-30.9,5.4-31.3c6.6-0.5,16.7,7.7,18.9,35.7"/>
<path class="st10" d="M199.1,146.1c-6.4-18.3-15.3-24.9-20.4-23.1c-5.3,3.7-2.4,19,1.4,33.5"/>
<path class="st22" d="M166,165.3c-0.3-5,15.5-11.3,19.6-7.8c1.4,3.4-1.4,8.8-5.5,12.9C175.4,169.8,166.1,169.6,166,165.3z"/>
<path class="st5" d="M158.1,314.9c5.9-8.4,8.9-17.9,9.5-29.8C171.3,297.8,167.7,307.5,158.1,314.9z"/>
<path class="st5" d="M370.9,300.9c-7.4-6.6-12-14.5-14.6-25C354.8,287.6,360,295.8,370.9,300.9z"/>
<path class="st12" d="M320.4,147.8c-5.9-5-8.3-12.1-6.5-16.3c8.5-2.1,20.4,1.9,21.9,9.1C335.5,145.8,325.6,146.4,320.4,147.8z"/>
<path class="st13" d="M320.4,147.8c-5.9-5-8.3-12.1-6.5-16.3c-2.9,10.4,19.7,12.6,21.9,9.1C335.5,145.8,325.6,146.4,320.4,147.8z"/>
<path class="st10" d="M300.5,122.8c4.6-13.4,14.4-24.9,19.7-23.1c4.3,2.5,4.3,14.8-1,31.2"/>
<path class="st10" d="M313.9,131.5c-21.2-17.4-22.9-6.2-34.6-9.5c1.7,3.6,4.5,6.1,8.5,7.3"/>
<path class="st22" d="M320.4,147.8c-5.9-5-8.3-12.1-6.5-16.3c8.5-2.1,20.4,1.9,21.9,9.1C335.5,145.8,325.6,146.4,320.4,147.8z"/>
<path class="st18" d="M295.4,197.7c9.4-2.2,17.7-1.9,18.6,0.7c0.9,2.6-6,6.6-15.4,8.8c-9.4,2.2-17.7,1.9-18.6-0.7
	C279.1,203.9,286,200,295.4,197.7z"/>
<path class="st19" d="M313.8,199.8c-4.2,5.4-23.4,11-33,7.7c4,3.8,7,9,9,15.5c20.3-11,42.4-5.6,49.9,9.5
	c17.8,37.6-27.9,63.2-53.1,39.2"/>
</svg>
