<?xml version="1.0" encoding="utf-8"?>
<!-- Generator: Adobe Illustrator 21.1.0, SVG Export Plug-In . SVG Version: 6.00 Build 0)  -->
<svg version="1.1" id="Layer_1" xmlns="http://www.w3.org/2000/svg" xmlns:xlink="http://www.w3.org/1999/xlink" x="0px" y="0px"
	 viewBox="0 0 519 438" style="enable-background:new 0 0 519 438;" xml:space="preserve">
<style type="text/css">
	.st0{fill-rule:evenodd;clip-rule:evenodd;fill:#E3A921;}
	.st1{fill-rule:evenodd;clip-rule:evenodd;fill:#FFDE6F;}
	.st2{fill-rule:evenodd;clip-rule:evenodd;fill:#FCCA00;}
	.st3{fill-rule:evenodd;clip-rule:evenodd;fill:#FFEFAA;}
	.st4{fill-rule:evenodd;clip-rule:evenodd;fill:#FFFFFF;}
	.st5{fill-rule:evenodd;clip-rule:evenodd;fill:#B9C071;}
	.st6{fill-rule:evenodd;clip-rule:evenodd;fill:#F7C6C7;}
	.st7{fill-rule:evenodd;clip-rule:evenodd;fill:#E9A0A2;}
	.st8{fill-rule:evenodd;clip-rule:evenodd;fill:#D8736F;}
	.st9{fill-rule:evenodd;clip-rule:evenodd;fill:#1A1A18;}
	.st10{fill:none;stroke:#A16215;stroke-width:1.7024;stroke-linecap:round;stroke-linejoin:round;stroke-miterlimit:22.9256;}
	.st11{fill-rule:evenodd;clip-rule:evenodd;fill:#F3A5A6;}
	.st12{fill-rule:evenodd;clip-rule:evenodd;fill:#FFE67E;}
	.st13{fill:none;stroke:#C14B6B;stroke-width:1.7024;stroke-linecap:round;stroke-linejoin:round;stroke-miterlimit:22.9256;}
	.st14{fill-rule:evenodd;clip-rule:evenodd;fill:#FFFADA;}
</style>
<path class="st0" d="M249.1,265.4c-1.5,3.3,3.2,6.6,6.6,5.9c7.3,3.9,20.8,0.6,33.4-1.8c10.2-3,19-7.3,25.1-14l9.2-13.2l-39.4-8.4
	C276.9,243.7,243.1,248.2,249.1,265.4z"/>
<path class="st1" d="M384,322.2l-25.5-66.6l-33.5,18.8l6.7,12.8C337.8,304.8,359.9,320.3,384,322.2z"/>
<path class="st1" d="M332.6,215.9l-53.8-16.2c-4.9,14.8-3.5,25,4.4,30.5l3,12l2.7-2.5l1.4-3.5c4.4,11.6,13.4,17.4,24.8,19.2
	l23.5-6.4L332.6,215.9z"/>
<path class="st2" d="M332.6,215.9L284,204.5c6.9,23.9,27.3,25.5,40.8,20.3L332.6,215.9z"/>
<path class="st3" d="M438.6,325.2l45-59l22.2,2.7l12.3,2.7l-5.1,3.8C501.1,304.2,478.4,342.2,438.6,325.2z"/>
<path class="st1" d="M483.7,266.2c11.6-0.4,20.1,1.9,28.9,4.9c-7.1,4.9-17.8,6.3-23.9,7.6c6.7,0.8,13,1.2,17.8-0.2
	c-8.5,22.1-27.5,33.3-46.4,30.5C472.5,296.4,478.1,288.4,483.7,266.2z"/>
<path class="st2" d="M301,95.8c-14.2,6.6-30.7,21.5-35.4,46.6l53.2,74.9c5.9,4,7.4,9.8,7,16.3c-3.1,20.8-17.4,28.9-30.5,33.5
	c-8.4,2.7-13,4.6-10.5,11.1c-4.1,3.6-1.4,8.7,1.7,10.8c2,1.6,1.7,3.3,7.7,4.5c14.8,4.4,44-3.8,59.4-27.2
	c-1,40.9,22.1,43.3,30.6,55.9c-11-1-21.7-4.2-31.9-10.6c-18.8,21-47,5.9-63.2,26.9c0,2.8,1.5,5,4.6,6.5c3.6,3.6,7,4.7,10.3,4.5
	c4.3,4,15.3,4.9,30.9,3.9c-9.3,3.4-14.8,7.7-16.4,12.9c0.5,5.1,3.1,6.6,6.6,6.6c4.2,4.9,9.9,5.8,15.9,5.8
	c28.9,6.1,67.9-4.6,86.9-18.2c4.6-3.1,6.1-8.3,0.8-18.6c-1.5-5.2,1.9-10.8,10.1-16.7c23.1-14.1,40.4-32.1,45-59
	c9.2-68.6-58.7-108-107.2-91.1l-5.8-5.1c5.2-11.3,6.6-24.4,2.7-39.9c33.6-11.7,122.2-36.2,94.3-51.4c-14-6.1-77.4-11.4-107.3,28.5
	l-10.9-8.5c-3-7.7,0-6.3-5.6-12c44.8-36.4,47.9-57.1,40.8-60.6C370.1,17.3,302.3,57.6,301,95.8z"/>
<path class="st0" d="M384,322.2l2.7,4.1l1.5,6.1c-21.9,26.2-80.1,23.1-84.4,17.1c-3.3,0.1-6.7-0.9-10.3-4.5
	c-3.1-1.5-4.7-3.7-4.6-6.5c30,15,95-1.5,71.3-22.7C367.3,318.8,373,321.2,384,322.2z M356,261.8l-2.7,7.3c0-0.9,0-1.8,0-2.8
	c-15.2,23.4-51,35.5-65.9,23.9c-6-1.2-5.4-10.1-2.8-11.9C284.2,290.2,322.9,296.4,356,261.8z M467.6,300.6c27.1-33,10.5-78-16-88.6
	c-1.9-0.7,18.7,70.4-28.4,100.3c-20.7,13.2,1.2,37.9-34.8,51.7c-5.4,2.1-37.7,16.4-70,2.2c0.5,5.1,3.1,6.6,6.6,6.6
	c4.2,4.9,9.9,5.8,15.9,5.8c28.9,6.1,67.9-4.6,86.9-18.2c4.6-3.1,6.1-8.3,0.8-18.6c-1.5-5.2,1.9-10.8,10.1-16.7l13.1-8.9l8.3-7.1
	L467.6,300.6z M337.1,78.1c-6.1-8.7-6.3,6.4,4,15.1l-8-4.2l-9.5-3.5c21.4,10.9,43.7,49.5,38.5,80.9l-47,17.5l-10.6-21.3
	c6.3-15.1,4.1-31.3,1.4-38.7c-8.1-6.7-16.7,1.1-21.1,9.4l14.3,31.7l-11.2,29.1l88.6-19l-5.8-5.1c5.2-11.3,6.6-24.4,2.7-39.9
	c27.4-13.4,94.7-26.3,82.8-41.9c-4.2-3.1-66.4,3.7-89.2,26.7l-9-10.5l-8.5-5.7l-5.6-12c23-16.8,39.4-44.2,42.7-51.3
	C380.5,46.1,341.1,83.2,337.1,78.1z"/>
<path class="st0" d="M377.9,194.3l-59.2,23c2.1,1.6,4,4.1,6,7.5c11.8-5.3,19.1-0.9,28.4-3.6C366.9,216.7,374.3,210.7,377.9,194.3z"
	/>
<path class="st3" d="M320.6,171.2c1.5-4.9-17.6-11.2-24.8-7.9c-4.8-5.5-4.5-18.7-39.6-22l5.6,6.2l-5.5-1.1l-5.5,0.8l1.8,1.4
	c-5,33.2,8.9,46.8,29.4,52.2c6.1,13.8,14.3,21.5,29.9,18.3c6.9-0.5,10.2-5.1,20.6-3.1c19,4.7,35.3-2.1,47.6-25.9
	c-0.4-2.2-2.5-4.1-6.8-6.5c3.1,0.1,6.5-0.3,10.1-1.1C368.6,164.9,347,155.7,320.6,171.2z"/>
<path class="st4" d="M328.4,167.2c7.6-3.5,15.5-5.4,24.2-4c-0.4-20.7-8.6-29.7-13.2-29.6C331.2,134.1,327.3,147.4,328.4,167.2z"/>
<path class="st1" d="M377.8,176.3l5.9,6.1l-10.1,1.1l4,2.6l2.7,3.8c-16.9,32.1-36.1,28.5-53.1,25.4l-8.4,1.9
	c-7.5,3-20.2,3.8-25.3-1.2l-6.7-6.9l-4.6-8.5c-9.3-3.2-21.3-5.7-24.9-24.5c7.3,16.2,22.9,21,32.9,22.9c5.6,12.5,15.8,14.8,21.5,7.6
	c20.1,6.7,65.6,2.4,50.5-40.2C367.9,169,370.9,170.2,377.8,176.3z"/>
<path class="st5" d="M345.3,162.8l-7.6,1.1l-9.3,3.2l0.3-15.2l0.8-5.3C334.4,139.8,345.1,141.7,345.3,162.8z"/>
<path class="st6" d="M371.4,123.5l-4.3-8.6l-1.7-2.3c34.2-28,93.2-33.9,90.8-24.5C452.9,101.4,399.8,109.8,371.4,123.5z"/>
<path class="st6" d="M341.1,82.5c-14.8-15.3-13.9-5.3-7.9,6.5l-14.8-4l-0.5,2.8l4.3,5.3c-4.1-1.5-8.3-1.3-12.4,0.7
	c8.9-32.3,60.5-60.8,65.8-52.4C377.5,44.7,363.2,58.6,341.1,82.5z"/>
<path class="st7" d="M320.6,171.2c3.1-6.2-22.1-11.8-24.8-7.9c-2.6,7,4.8,14,9.7,15.2C308.9,179.2,318.1,177.4,320.6,171.2z"/>
<path class="st8" d="M320.6,171.2c-8,6.3-23.7,0.6-25.3-6C298.7,181.5,310.9,182.4,320.6,171.2z"/>
<path class="st4" d="M277.4,145.7c5.7,1.4,12.2,11.6,18.4,17.5c10-12.9,11.2-30.3,7.1-35.5C298.7,122.6,284,127.6,277.4,145.7z"/>
<path class="st5" d="M290.7,158.2c-4.2-4.9-8.6-9.4-13.3-12.5l4-8.2l3.3-4.4C295.3,129.5,300.7,138.2,290.7,158.2z"/>
<ellipse class="st9" cx="334.6" cy="156" rx="5.8" ry="5.8"/>
<circle class="st9" cx="286" cy="142.1" r="5.8"/>
<circle class="st4" cx="337.6" cy="153.1" r="2.8"/>
<circle class="st4" cx="340.4" cy="146.4" r="3.4"/>
<circle class="st4" cx="295.9" cy="138.6" r="3.4"/>
<circle class="st4" cx="289" cy="139.2" r="2.8"/>
<path class="st10" d="M325,372.9c0-4.5,1.5-8.6,6.3-11.7 M303.8,349.5c0.8-3.3,2.9-6.9,6.9-9.8 M293.5,344.9c0.7-3,2.6-5.8,6.5-8.7
	 M305.9,123.8c-2.3-2.4-5.2-3.4-8.3-2.6 M309.5,196.4c-4,6.3-12.8,5.8-14.2-2.5 M333.1,179.7c-6.9,18.9-24,15.6-28.9,5.2
	c-9.6,7.3-25.3,0.8-21-14.7 M265.6,142.4c4.2-26.1,19.4-38.5,35.4-46.6 M343.9,86.7c18.8-11.7,52.6-53.6,40.8-60.6
	c-12.9-7.5-79,26.6-83.8,69.7 M357.9,110.8c26.4-43.6,98.3-39.8,109.7-32.2c27.7,16.9-65.2,39.3-94.4,51.5 M360.4,107.1
	c-2.1-1.6-8.5-7.2-10.9-8.5c-8.4-25-30-34.5-16.4-9.6 M370.7,170c4.7-13.4,5.7-27.5,2.7-39.9c-0.8-3.2-2-6.5-3.6-9.5 M376.5,175.1
	c61.7-20.4,117.4,38.2,107.2,91.1c-7,31-25.3,46.7-45,59c-23.8,17.9,3.2,23.5-10.9,35.3c-17,14.4-71.3,24.5-86.9,18.2
	c-7.2,0.2-12.5-1.7-15.9-5.8c-4.4-0.8-6.6-2.9-6.6-6.6c10.9-24.2,46.5-5.8,69.9-33.9 M352,311.5c-19.3,21.7-48.9,6.6-63.2,26.9
	c0.2,2.6,2.2,5.5,4.6,6.5c1.6,2.8,6.9,4.6,10.3,4.5c5.2,4,16.6,4.7,30.9,3.9 M331.6,287.3c6.1,17.5,28.3,33,52.3,34.9 M387.5,338
	c7.3-25.8-38.6-21.7-34.1-71.2 M360.2,250.3c-4.1,29.2-53.4,57.5-74,38.7c-3-1.8-5.6-7.5-1.3-11.1c-2.7-4.4,0.7-7.1,7.7-9.9
	c13.3-4.6,29.5-13.5,33-34.4 M285,278c2.1,0.5,7.8,0.3,10-0.4 M286.4,289.1c3.4,1.2,8.4,1.6,11.9,0.2 M295.8,163.2
	c10-12.9,11.2-30.3,7.1-35.5c-4.2-5.1-18.9-0.1-25.5,18.1 M284.1,221.2c-3.1,9.8,1.4,14,2.1,21.1c1.9-0.9,3.3-2.8,4-6
	c5.2,11.8,13.3,17.5,24.2,19.1 M278.8,199.8c-5.6,15.7-3.5,25.1,4.4,30.5 M255.7,271.3c2.1,4,24.8,0.2,33.4-1.8 M249.1,265.4
	c-1.1,3.1,3,6.8,6.6,5.9c0.9-3.7,3.2-7.1,6.3-9.8 M257.6,255.5c-4.4,1.9-7.1,5.4-8.5,10c-5.1-18.9,28.2-19.4,34.9-31.5 M309.2,208.5
	c-2.3,3.2-7.1,2.8-9.6,0 M352.5,163.1c-0.4-20.7-8.6-29.7-13.2-29.6c-8.2,0.5-12.1,13.9-10.9,33.6 M348.3,132.5
	c-3.2-4.6-8-6.1-12.9-3 M341.2,93.3c-25.7-14.8-32-7.4-10.6,6.2 M252.6,148.4c-5,33.2,8.9,46.8,29.4,52.2
	c6.1,13.8,14.3,21.5,29.9,18.3c6.9-0.5,10.2-5.1,20.6-3.1c19,4.7,35.3-2.1,47.6-25.9c-0.4-2.2-2.5-4.1-6.8-6.5
	c3.1,0.1,6.5-0.3,10.1-1.1c-15.1-17.6-36.6-26.6-63.1-11.2 M513.1,275.5c-12,28.6-34.6,66.7-74.5,49.6 M483.7,266.2
	c12.1-1.3,23,3.6,34.5,5.4c-5.6,4.9-11.6,7.9-18.2,8.1 M295.8,163.2c-8.4-8.5-11.3-20-39.6-22c1.6,1.6,3.5,3.7,5.6,6.2
	c-4.3-1.4-7.9-1.6-11-0.3c2.9,1.8,5,4.4,6.5,7.6 M279.9,170.4c1.8-1.8,4.4-1.5,5.5,0.3 M335.6,182.3c-0.8-1.7-2.2-2.8-4.2-3.5
	 M340.8,378.7c-0.1-4.4,1.1-8.7,5.1-12.2"/>
<path class="st11" d="M402.8,110.1c16.6-7.7,34.3-12.1,50.7-20.8C452.1,95.9,420.9,105.2,402.8,110.1z"/>
<path class="st12" d="M373.1,345.8c-10.1,6.5-38.1,5.4-46.6,13.2C335.7,353.3,361.5,356.8,373.1,345.8z M315.3,68.6
	c9.4-9.3,26.2-22.3,37.5-30.3C338.2,43.4,322.3,56.6,315.3,68.6z M418.6,177.3c15.1,3.8,32,16.8,43.5,30.1
	C455.1,190.3,438.3,177.5,418.6,177.3z"/>
<path class="st3" d="M364.5,311.8c-10.5-4.5-18.7-11.5-26-22C342,303.1,351,310.1,364.5,311.8z"/>
<path class="st13" d="M320.6,171.2c3.1-6.2-22.1-11.8-24.8-7.9c-2.6,7,4.8,14,9.7,15.2C308.9,179.2,318.1,177.4,320.6,171.2"/>
<path class="st14" d="M361.9,169.7c-7.7-2-20.3-1.3-27.8,1.6C339.6,165.2,352.3,164.1,361.9,169.7z M453.4,327.1
	c13-1.7,23.9-7.6,34.8-17.5C480.8,323.1,468.6,329.7,453.4,327.1z M271.5,147.9c8.2,3,15.3,8.2,19.6,15
	C290.2,154.8,282.5,149.1,271.5,147.9z"/>
</svg>
