<?xml version="1.0" encoding="utf-8"?>
<!-- Generator: Adobe Illustrator 21.1.0, SVG Export Plug-In . SVG Version: 6.00 Build 0)  -->
<svg version="1.1" id="Layer_1" xmlns="http://www.w3.org/2000/svg" xmlns:xlink="http://www.w3.org/1999/xlink" x="0px" y="0px"
	 viewBox="0 0 519 438" style="enable-background:new 0 0 519 438;" xml:space="preserve">
<style type="text/css">
	.st0{fill-rule:evenodd;clip-rule:evenodd;fill:#E9F6FD;}
	.st1{fill-rule:evenodd;clip-rule:evenodd;fill:#E2EAB6;}
	.st2{fill-rule:evenodd;clip-rule:evenodd;fill:#D3E095;}
</style>
<path class="st0" d="M447.2,232L19.7,220.4C-83.4-83.2,489-67.3,447.2,232z"/>
<path class="st1" d="M93.2,422l0.1,0.8c-58.4-23.3-85.1-69.6-71-110.6c-6.6-4.5-15.2-2.6-19.7-18.6c-4.8-17.3,10.2-23.8,10.2-23.8
	s-13.2-5.4,3.2-18.5c0.7-0.6,1.7-2.3,0.9-3.1C3,233.4,27.3,203.7,47.5,212.3c2.1-11,12.9-48.7,20.8-48.8c0.8,0-2.2-4-3.9-6.4
	c-7-10.3,10.5-31.8,21.5-15.7c0.7,1-7.8-10.8-7.9-13.8c-0.3-7.8,8.6-12.4,5-15.5c-14.8-11.4-13.5-19.9,4.3-32
	c14.8-10.1,25.2,6.7,24.6,9.4c4.3-22.5,21.6,130.2,25.4,136.3c0,0,7.5-40.5,24.5-36.4c3.6,0.1,7.1,2.2,9.2,7.3c-1.2-3-4.5-12-4-14.3
	c1.6-7.7,11.4-10,8.6-13.9c-11.7-14.7-8.4-22.6,11.8-30.1c16.8-6.2,22.9,12.5,21.6,15c9.5-20.9,33.1-15.6,35.4-8.7
	c0,0,17-37.5,32.5-29.4c9.4,4.9,9.3,18.6,7.4,28.3c11.7-24.6,57.1-46.4,62.3-29.7c5.7-1.7,78.5-9.4,52-4.9c-3,0.5-15.2,2.4-14.5,4.8
	c2.2,6.7-4.8-3.9-3.7-3.4c4.1,2.1,3.6,11.7,3.7,15.2c3.4-0.8,2,8.9,5.7,14.2c1.4,2,10.5-7.5,14.8-3.3c0,0,6,6.6,4.7,10.2
	c15.4-12.3,32.2,12.4,15.4,39.3c18.8,4.5,28.4,8.7,14.9,24.1l26,41l-55.2,90.6c17.4-1.2,29,8.4,29.5,20.4
	C440,417.1,178.2,463.5,93.2,422z"/>
<ellipse transform="matrix(0.9884 -0.1516 0.1516 0.9884 -55.2392 19.5825)" class="st2" cx="100.8" cy="372" rx="63.8" ry="24.7"/>
<path class="st2" d="M342.4,379.8c40.7,0,74-11.5,74-25.6c0-14.1-33.2-25.6-74-25.6s-74,11.5-74,25.6
	C268.5,368.3,301.7,379.8,342.4,379.8z"/>
<path class="st2" d="M137,364c35.6,0,64.8-4.3,64.8-9.6c0-5.3-29.1-9.6-64.8-9.6s-64.8,4.3-64.8,9.6C72.3,359.6,101.4,364,137,364z"
	/>
</svg>
