<?xml version="1.0" encoding="utf-8"?>
<!-- Generator: Adobe Illustrator 21.1.0, SVG Export Plug-In . SVG Version: 6.00 Build 0)  -->
<svg version="1.1" id="Layer_1" xmlns="http://www.w3.org/2000/svg" xmlns:xlink="http://www.w3.org/1999/xlink" x="0px" y="0px"
	 viewBox="0 0 519 438" style="enable-background:new 0 0 519 438;" xml:space="preserve">
<style type="text/css">
	.st0{fill-rule:evenodd;clip-rule:evenodd;fill:#E9F6FD;}
	.st1{fill-rule:evenodd;clip-rule:evenodd;fill:#E2EAB6;}
	.st2{fill-rule:evenodd;clip-rule:evenodd;fill:#D3E095;}
	.st3{fill-rule:evenodd;clip-rule:evenodd;fill:#A35939;}
	.st4{fill-rule:evenodd;clip-rule:evenodd;fill:#D88F55;}
	.st5{fill-rule:evenodd;clip-rule:evenodd;fill:#EDB581;}
	.st6{fill-rule:evenodd;clip-rule:evenodd;fill:#BD6E39;}
	.st7{fill-rule:evenodd;clip-rule:evenodd;fill:#FFFFFF;}
	.st8{fill-rule:evenodd;clip-rule:evenodd;fill:#B9C071;}
	.st9{fill-rule:evenodd;clip-rule:evenodd;fill:#F7C6C7;}
	.st10{fill-rule:evenodd;clip-rule:evenodd;fill:#E9A0A2;}
	.st11{fill-rule:evenodd;clip-rule:evenodd;fill:#D8736F;}
	.st12{fill:none;stroke:#822E2D;stroke-width:1.7024;stroke-linecap:round;stroke-linejoin:round;stroke-miterlimit:22.9256;}
	.st13{fill-rule:evenodd;clip-rule:evenodd;fill:#1A1A18;}
	.st14{fill-rule:evenodd;clip-rule:evenodd;fill:#F7CC9D;}
	.st15{fill-rule:evenodd;clip-rule:evenodd;fill:#F3A5A6;}
	.st16{fill-rule:evenodd;clip-rule:evenodd;fill:#F7D2AE;}
	.st17{fill:none;stroke:#C14B6B;stroke-width:1.7024;stroke-linecap:round;stroke-linejoin:round;stroke-miterlimit:22.9256;}
	.st18{fill-rule:evenodd;clip-rule:evenodd;fill:#F5A87D;}
	.st19{fill-rule:evenodd;clip-rule:evenodd;fill:#FACCAF;}
	.st20{fill-rule:evenodd;clip-rule:evenodd;fill:#FBD2B6;}
	.st21{fill-rule:evenodd;clip-rule:evenodd;fill:#E5A46B;}
	.st22{fill-rule:evenodd;clip-rule:evenodd;fill:#F5B0B4;}
	.st23{fill-rule:evenodd;clip-rule:evenodd;fill:#D3ECFB;}
	.st24{fill-rule:evenodd;clip-rule:evenodd;fill:#FDEBDB;}
	.st25{fill-rule:evenodd;clip-rule:evenodd;fill:#FDF1E7;}
	.st26{fill-rule:evenodd;clip-rule:evenodd;fill:#F4C69E;}
	.st27{fill-rule:evenodd;clip-rule:evenodd;fill:#89B126;}
	.st28{fill:none;stroke:#6B9A2F;stroke-width:1.7024;stroke-linecap:round;stroke-linejoin:round;stroke-miterlimit:22.9256;}
	.st29{fill:none;stroke:#4C7F34;stroke-width:1.7024;stroke-linecap:round;stroke-linejoin:round;stroke-miterlimit:22.9256;}
	.st30{fill:none;stroke:#E30045;stroke-width:8.5117;stroke-linecap:round;stroke-linejoin:round;stroke-miterlimit:22.9256;}
	.st31{fill-rule:evenodd;clip-rule:evenodd;fill:#E94E3E;}
	.st32{fill:none;stroke:#A62522;stroke-width:1.7024;stroke-linecap:round;stroke-linejoin:round;stroke-miterlimit:22.9256;}
	.st33{fill-rule:evenodd;clip-rule:evenodd;fill:#6E6E6E;}
	.st34{fill:none;stroke:#575656;stroke-width:1.7023;stroke-linecap:round;stroke-linejoin:round;stroke-miterlimit:22.9256;}
	.st35{fill-rule:evenodd;clip-rule:evenodd;fill:#EF827B;}
</style>
<path class="st0" d="M447.2,232L19.7,220.4C-83.4-83.2,489-67.3,447.2,232z"/>
<path class="st1" d="M93.2,422l0.1,0.8c-58.4-23.3-85.1-69.6-71-110.6c-6.6-4.5-15.2-2.6-19.7-18.6c-4.8-17.3,10.2-23.8,10.2-23.8
	s-13.2-5.4,3.2-18.5c0.7-0.6,1.7-2.3,0.9-3.1C3,233.4,27.3,203.7,47.5,212.3c2.1-11,12.9-48.7,20.8-48.8c0.8,0-2.2-4-3.9-6.4
	c-7-10.3,10.5-31.8,21.5-15.7c0.7,1-7.8-10.8-7.9-13.8c-0.3-7.8,8.6-12.4,5-15.5c-14.8-11.4-13.5-19.9,4.3-32
	c14.8-10.1,25.2,6.7,24.6,9.4c4.3-22.5,21.6,130.2,25.4,136.3c0,0,7.5-40.5,24.5-36.4c3.6,0.1,7.1,2.2,9.2,7.3c-1.2-3-4.5-12-4-14.3
	c1.6-7.7,11.4-10,8.6-13.9c-11.7-14.7-8.4-22.6,11.8-30.1c16.8-6.2,22.9,12.5,21.6,15c9.5-20.9,33.1-15.6,35.4-8.7
	c0,0,17-37.5,32.5-29.4c9.4,4.9,9.3,18.6,7.4,28.3c11.7-24.6,57.1-46.4,62.3-29.7c5.7-1.7,78.5-9.4,52-4.9c-3,0.5-15.2,2.4-14.5,4.8
	c2.2,6.7-4.8-3.9-3.7-3.4c4.1,2.1,3.6,11.7,3.7,15.2c3.4-0.8,2,8.9,5.7,14.2c1.4,2,10.5-7.5,14.8-3.3c0,0,6,6.6,4.7,10.2
	c15.4-12.3,32.2,12.4,15.4,39.3c18.8,4.5,28.4,8.7,14.9,24.1l26,41l-55.2,90.6c17.4-1.2,29,8.4,29.5,20.4
	C440,417.1,178.2,463.5,93.2,422z"/>
<ellipse transform="matrix(0.9884 -0.1516 0.1516 0.9884 -55.2392 19.5825)" class="st2" cx="100.8" cy="372" rx="63.8" ry="24.7"/>
<path class="st2" d="M342.4,379.8c40.7,0,74-11.5,74-25.6c0-14.1-33.2-25.6-74-25.6s-74,11.5-74,25.6
	C268.5,368.3,301.7,379.8,342.4,379.8z"/>
<path class="st2" d="M137,364c35.6,0,64.8-4.3,64.8-9.6c0-5.3-29.1-9.6-64.8-9.6s-64.8,4.3-64.8,9.6C72.3,359.6,101.4,364,137,364z"
	/>
<path class="st3" d="M249.1,265.4c-1.5,3.3,3.2,6.6,6.6,5.9c7.3,3.9,20.8,0.6,33.4-1.8c10.2-3,19-7.3,25.1-14l9.2-13.2l-39.4-8.4
	C276.9,243.7,243.1,248.2,249.1,265.4z"/>
<path class="st4" d="M384,322.2l-25.5-66.6l-33.5,18.8l6.7,12.8C337.8,304.8,359.9,320.3,384,322.2z"/>
<path class="st5" d="M332.6,215.9l-53.8-16.2c-4.9,14.8-3.5,25,4.4,30.5l3,12l2.7-2.5l1.4-3.5c4.4,11.6,13.4,17.4,24.8,19.2
	l23.5-6.4L332.6,215.9z"/>
<path class="st4" d="M332.6,215.9L284,204.5c6.9,23.9,27.3,25.5,40.8,20.3L332.6,215.9z"/>
<path class="st5" d="M438.6,325.2l45-59l22.2,2.7l12.3,2.7l-5.1,3.8C501.1,304.2,478.4,342.2,438.6,325.2z"/>
<path class="st4" d="M483.7,266.2c11.6-0.4,20.1,1.9,28.9,4.9c-7.1,4.9-17.8,6.3-23.9,7.6c6.7,0.8,13,1.2,17.8-0.2
	c-8.5,22.1-27.5,33.3-46.4,30.5C472.5,296.4,478.1,288.4,483.7,266.2z"/>
<path class="st6" d="M301,95.8c-14.2,6.6-30.7,21.5-35.4,46.6l53.2,74.9c5.9,4,7.4,9.8,7,16.3c-3.1,20.8-17.4,28.9-30.5,33.5
	c-8.4,2.7-13,4.6-10.5,11.1c-4.1,3.6-1.4,8.7,1.7,10.8c2,1.6,1.7,3.3,7.7,4.5c14.8,4.4,44-3.8,59.4-27.2
	c-1,40.9,22.1,43.3,30.6,55.9c-11-1-21.7-4.2-31.9-10.6c-18.8,21-47,5.9-63.2,26.9c0,2.8,1.5,5,4.6,6.5c3.6,3.6,7,4.7,10.3,4.5
	c4.3,4,15.3,4.9,30.9,3.9c-9.3,3.4-14.8,7.7-16.4,12.9c0.5,5.1,3.1,6.6,6.6,6.6c4.2,4.9,9.9,5.8,15.9,5.8
	c28.9,6.1,67.9-4.6,86.9-18.2c4.6-3.1,6.1-8.3,0.8-18.6c-1.5-5.2,1.9-10.8,10.1-16.7c23.1-14.1,40.4-32.1,45-59
	c9.2-68.6-58.7-108-107.2-91.1l-5.8-5.1c5.2-11.3,6.6-24.4,2.7-39.9c33.6-11.7,122.2-36.2,94.3-51.4c-14-6.1-77.4-11.4-107.3,28.5
	l-10.9-8.5c-3-7.7,0-6.3-5.6-12c44.8-36.4,47.9-57.1,40.8-60.6C370.1,17.3,302.3,57.6,301,95.8z"/>
<path class="st3" d="M384,322.2l2.7,4.1l1.5,6.1c-21.9,26.2-80.1,23.1-84.4,17.1c-3.3,0.1-6.7-0.9-10.3-4.5
	c-3.1-1.5-4.7-3.7-4.6-6.5c30,15,95-1.5,71.3-22.7C367.3,318.8,373,321.2,384,322.2z M356,261.8l-2.7,7.3c0-0.9,0-1.8,0-2.8
	c-15.2,23.4-51,35.5-65.9,23.9c-6-1.2-5.4-10.1-2.8-11.9C284.2,290.2,322.9,296.4,356,261.8z M467.6,300.6c27.1-33,10.5-78-16-88.6
	c-1.9-0.7,18.7,70.4-28.4,100.3c-20.7,13.2,1.2,37.9-34.8,51.7c-5.4,2.1-37.7,16.4-70,2.2c0.5,5.1,3.1,6.6,6.6,6.6
	c4.2,4.9,9.9,5.8,15.9,5.8c28.9,6.1,67.9-4.6,86.9-18.2c4.6-3.1,6.1-8.3,0.8-18.6c-1.5-5.2,1.9-10.8,10.1-16.7l13.1-8.9l8.3-7.1
	L467.6,300.6z M337.1,78.1c-6.1-8.7-6.3,6.4,4,15.1l-8-4.2l-9.5-3.5c21.4,10.9,43.7,49.5,38.5,80.9l-47,17.5l-10.6-21.3
	c6.3-15.1,4.1-31.3,1.4-38.7c-8.1-6.7-16.7,1.1-21.1,9.4l14.3,31.7l-11.2,29.1l88.6-19l-5.8-5.1c5.2-11.3,6.6-24.4,2.7-39.9
	c27.4-13.4,94.7-26.3,82.8-41.9c-4.2-3.1-66.4,3.7-89.2,26.7l-9-10.5l-8.5-5.7l-5.6-12c23-16.8,39.4-44.2,42.7-51.3
	C380.5,46.1,341.1,83.2,337.1,78.1z"/>
<path class="st3" d="M377.9,194.3l-59.2,23c2.1,1.6,4,4.1,6,7.5c11.8-5.3,19.1-0.9,28.4-3.6C366.9,216.7,374.3,210.7,377.9,194.3z"
	/>
<path class="st5" d="M320.6,171.2c1.5-4.9-17.6-11.2-24.8-7.9c-4.8-5.5-4.5-18.7-39.6-22l5.6,6.2l-5.5-1.1l-5.5,0.8l1.8,1.4
	c-5,33.2,8.9,46.8,29.4,52.2c6.1,13.8,14.3,21.5,29.9,18.3c6.9-0.5,10.2-5.1,20.6-3.1c19,4.7,35.3-2.1,47.6-25.9
	c-0.4-2.2-2.5-4.1-6.8-6.5c3.1,0.1,6.5-0.3,10.1-1.1C368.6,164.9,347,155.7,320.6,171.2z"/>
<path class="st7" d="M328.4,167.2c7.6-3.5,15.5-5.4,24.2-4c-0.4-20.7-8.6-29.7-13.2-29.6C331.2,134.1,327.3,147.4,328.4,167.2z"/>
<path class="st4" d="M377.8,176.3l5.9,6.1l-10.1,1.1l4,2.6l2.7,3.8c-16.9,32.1-36.1,28.5-53.1,25.4l-8.4,1.9
	c-7.5,3-20.2,3.8-25.3-1.2l-6.7-6.9l-4.6-8.5c-9.3-3.2-21.3-5.7-24.9-24.5c7.3,16.2,22.9,21,32.9,22.9c5.6,12.5,15.8,14.8,21.5,7.6
	c20.1,6.7,65.6,2.4,50.5-40.2C367.9,169,370.9,170.2,377.8,176.3z"/>
<path class="st8" d="M345.3,162.8l-7.6,1.1l-9.3,3.2l0.3-15.2l0.8-5.3C334.4,139.8,345.1,141.7,345.3,162.8z"/>
<path class="st9" d="M371.4,123.5l-4.3-8.6l-1.7-2.3c34.2-28,93.2-33.9,90.8-24.5C452.9,101.4,399.8,109.8,371.4,123.5z"/>
<path class="st9" d="M341.1,82.5c-14.8-15.3-13.9-5.3-7.9,6.5l-14.8-4l-0.5,2.8l4.3,5.3c-4.1-1.5-8.3-1.3-12.4,0.7
	c8.9-32.3,60.5-60.8,65.8-52.4C377.5,44.7,363.2,58.6,341.1,82.5z"/>
<path class="st10" d="M320.6,171.2c3.1-6.2-22.1-11.8-24.8-7.9c-2.6,7,4.8,14,9.7,15.2C308.9,179.2,318.1,177.4,320.6,171.2z"/>
<path class="st11" d="M320.6,171.2c-8,6.3-23.7,0.6-25.3-6C298.7,181.5,310.9,182.4,320.6,171.2z"/>
<path class="st12" d="M265.6,142.4c4.2-26.1,19.4-38.5,35.4-46.6"/>
<path class="st7" d="M277.4,145.7c5.7,1.4,12.2,11.6,18.4,17.5c10-12.9,11.2-30.3,7.1-35.5C298.7,122.6,284,127.6,277.4,145.7z"/>
<path class="st8" d="M290.7,158.2c-4.2-4.9-8.6-9.4-13.3-12.5l4-8.2l3.3-4.4C295.3,129.5,300.7,138.2,290.7,158.2z"/>
<path class="st12" d="M295.8,163.2c-8.4-8.5-11.3-20-39.6-22c1.6,1.6,3.5,3.7,5.6,6.2c-4.3-1.4-7.9-1.6-11-0.3
	c2.9,1.8,5,4.4,6.5,7.6"/>
<path class="st12" d="M252.6,148.4c-5,33.2,8.9,46.8,29.4,52.2c6.1,13.8,14.3,21.5,29.9,18.3c6.9-0.5,10.2-5.1,20.6-3.1
	c19,4.7,35.3-2.1,47.6-25.9c-0.4-2.2-2.5-4.1-6.8-6.5c3.1,0.1,6.5-0.3,10.1-1.1c-15.1-17.6-36.6-26.6-63.1-11.2"/>
<path class="st12" d="M360.4,107.1c-2.1-1.6-8.5-7.2-10.9-8.5c-8.4-25-30-34.5-16.4-9.6 M370.7,170c4.7-13.4,5.7-27.5,2.7-39.9
	c-0.8-3.2-2-6.5-3.6-9.5"/>
<path class="st12" d="M341.2,93.3c-25.7-14.8-32-7.4-10.6,6.2"/>
<path class="st12" d="M333.1,179.7c-6.9,18.9-24,15.6-28.9,5.2c-9.6,7.3-25.3,0.8-21-14.7"/>
<path class="st12" d="M309.5,196.4c-4,6.3-12.8,5.8-14.2-2.5"/>
<path class="st12" d="M309.2,208.5c-2.3,3.2-7.1,2.8-9.6,0"/>
<path class="st12" d="M295.8,163.2c10-12.9,11.2-30.3,7.1-35.5c-4.2-5.1-18.9-0.1-25.5,18.1"/>
<path class="st12" d="M335.6,182.3c-0.8-1.7-2.2-2.8-4.2-3.5"/>
<path class="st12" d="M279.9,170.4c1.8-1.8,4.4-1.5,5.5,0.3"/>
<path class="st12" d="M357.9,110.8c26.4-43.6,98.3-39.8,109.7-32.2c27.7,16.9-65.2,39.3-94.4,51.5"/>
<path class="st12" d="M343.9,86.7c18.8-11.7,52.6-53.6,40.8-60.6c-12.9-7.5-79,26.6-83.8,69.7"/>
<ellipse class="st13" cx="334.6" cy="156" rx="5.8" ry="5.8"/>
<circle class="st13" cx="286" cy="142.1" r="5.8"/>
<circle class="st7" cx="337.6" cy="153.1" r="2.8"/>
<circle class="st7" cx="340.4" cy="146.4" r="3.4"/>
<circle class="st7" cx="295.9" cy="138.6" r="3.4"/>
<circle class="st7" cx="289" cy="139.2" r="2.8"/>
<path class="st12" d="M352.5,163.1c-0.4-20.7-8.6-29.7-13.2-29.6c-8.2,0.5-12.1,13.9-10.9,33.6"/>
<path class="st12" d="M376.5,175.1c61.7-20.4,117.4,38.2,107.2,91.1c-7,31-25.3,46.7-45,59c-23.8,17.9,3.2,23.5-10.9,35.3
	c-17,14.4-71.3,24.5-86.9,18.2c-7.2,0.2-12.5-1.7-15.9-5.8c-4.4-0.8-6.6-2.9-6.6-6.6c10.9-24.2,46.5-5.8,69.9-33.9"/>
<path class="st12" d="M387.5,338c7.3-25.8-38.6-21.7-34.1-71.2"/>
<path class="st12" d="M278.8,199.8c-5.6,15.7-3.5,25.1,4.4,30.5"/>
<path class="st12" d="M483.7,266.2c12.1-1.3,23,3.6,34.5,5.4c-5.6,4.9-11.6,7.9-18.2,8.1"/>
<path class="st12" d="M513.1,275.5c-12,28.6-34.6,66.7-74.5,49.6"/>
<path class="st12" d="M325,372.9c0-4.5,1.5-8.6,6.3-11.7"/>
<path class="st12" d="M340.8,378.7c-0.1-4.4,1.1-8.7,5.1-12.2"/>
<path class="st12" d="M303.8,349.5c0.8-3.3,2.9-6.9,6.9-9.8"/>
<path class="st12" d="M293.5,344.9c0.7-3,2.6-5.8,6.5-8.7"/>
<path class="st12" d="M331.6,287.3c6.1,17.5,28.3,33,52.3,34.9"/>
<path class="st12" d="M352,311.5c-19.3,21.7-48.9,6.6-63.2,26.9c0.2,2.6,2.2,5.5,4.6,6.5c1.6,2.8,6.9,4.6,10.3,4.5
	c5.2,4,16.6,4.7,30.9,3.9"/>
<path class="st12" d="M284.1,221.2c-3.1,9.8,1.4,14,2.1,21.1c1.9-0.9,3.3-2.8,4-6c5.2,11.8,13.3,17.5,24.2,19.1"/>
<path class="st12" d="M257.6,255.5c-4.4,1.9-7.1,5.4-8.5,10c-5.1-18.9,28.2-19.4,34.9-31.5"/>
<path class="st14" d="M361.9,169.7c-7.7-2-20.3-1.3-27.8,1.6C339.6,165.2,352.3,164.1,361.9,169.7z"/>
<path class="st14" d="M271.5,147.9c8.2,3,15.3,8.2,19.6,15C290.2,154.8,282.5,149.1,271.5,147.9z"/>
<path class="st15" d="M402.8,110.1c16.6-7.7,34.3-12.1,50.7-20.8C452.1,95.9,420.9,105.2,402.8,110.1z"/>
<path class="st4" d="M418.6,177.3c15.1,3.8,32,16.8,43.5,30.1C455.1,190.3,438.3,177.5,418.6,177.3z"/>
<path class="st4" d="M315.3,68.6c9.4-9.3,26.2-22.3,37.5-30.3C338.2,43.4,322.3,56.6,315.3,68.6z"/>
<path class="st4" d="M373.1,345.8c-10.1,6.5-38.1,5.4-46.6,13.2C335.7,353.3,361.5,356.8,373.1,345.8z"/>
<path class="st5" d="M364.5,311.8c-10.5-4.5-18.7-11.5-26-22C342,303.1,351,310.1,364.5,311.8z"/>
<path class="st16" d="M453.4,327.1c13-1.7,23.9-7.6,34.8-17.5C480.8,323.1,468.6,329.7,453.4,327.1z"/>
<path class="st12" d="M348.3,132.5c-3.2-4.6-8-6.1-12.9-3"/>
<path class="st12" d="M305.9,123.8c-2.3-2.4-5.2-3.4-8.3-2.6"/>
<path class="st17" d="M320.6,171.2c3.1-6.2-22.1-11.8-24.8-7.9c-2.6,7,4.8,14,9.7,15.2C308.9,179.2,318.1,177.4,320.6,171.2"/>
<path class="st12" d="M360.2,250.3c-4.1,29.2-53.4,57.5-74,38.7c-3-1.8-5.6-7.5-1.3-11.1c-2.7-4.4,0.7-7.1,7.7-9.9
	c13.3-4.6,29.5-13.5,33-34.4"/>
<path class="st12" d="M285,278c2.1,0.5,7.8,0.3,10-0.4"/>
<path class="st12" d="M286.4,289.1c3.4,1.2,8.4,1.6,11.9,0.2"/>
<path class="st12" d="M249.1,265.4c-1.1,3.1,3,6.8,6.6,5.9c0.9-3.7,3.2-7.1,6.3-9.8"/>
<path class="st12" d="M255.7,271.3c2.1,4,24.8,0.2,33.4-1.8"/>
<path class="st18" d="M144,308.1l-21.6,13c1.3,33,6,43.4,10.4,50.7l3.7-4.5l5.2,1.3C136.7,351.9,143.9,339.1,144,308.1z"/>
<path class="st19" d="M144,308.1l-14.9,11.7c-1.4,30,1.9,45.3,7.3,47.5l6.2,1.9C136.8,356.4,143.9,339.1,144,308.1z"/>
<path class="st19" d="M90.4,319.5l-18.7-7.9c3.3,31.4-2.3,56.4,7.7,72.4l3.6-4.2l5.6,1.8C81.9,364.4,85.7,345.2,90.4,319.5z"/>
<path class="st18" d="M81.3,317.8l-12.7-3.2c-1.5,27.7-1,49.4,10.8,69.4l3.6-4.2C66.6,365.7,84.2,341.8,81.3,317.8z"/>
<path class="st3" d="M76,377.3c1.9-3.6,7-5.4,10.7-2.9c0.6,2.6,1.1,4.8,2,7l-5.6-1.8l-3.6,4.2C77.9,381.9,77.5,380.2,76,377.3z"/>
<path class="st4" d="M58.1,303.4l-1.1-5.7l-5.7-1.7c-8.2,8.8-17.4,21.9-32.4,24.4C38.6,322.9,50.6,313.4,58.1,303.4z"/>
<path class="st6" d="M57,297.7c-20.8-0.6-31-44.7-20.4-58.7c1.3-11.1-0.2-30.7,5.8-38.4l129,7.8c4.3,5.1,6.1,12.6,6.8,21.3
	c-7,8.5-11.7,17.6-14.1,27.2l5.2,0.3l5.6,4.7c1.6,13.3-3.2,21.4-8.4,26.2c1.2,10-11.5,20.2-22.4,19.8c-1.6,7.6-21.9,12.5-34.1,10.7
	C93.4,325.6,62.9,315.6,57,297.7z"/>
<path class="st3" d="M57,297.7c-11.4-5.8-15.4-19.5-15.2-33.1c-6-5-8-12.9-5.2-25.5c-4.8-9.4,0.1-31.1,5.8-38.4l6.2,0.9L76,225.1
	l-1.7,6.7c-4.6,12.6,1.7,20.7,12,23.8c-8.7,3.3-8.8,15.2-5.3,20.8c-3.8,5.6-0.5,10.7,4.9,11.5c1.9,11.2,19.1,10.1,23.7,4.2
	c4.1,8.9,35.8,20.3,51.3-2.2c1.2,9.5-8,15.8-16.9,18.1c-1.5,7.2-21.4,18.5-34.1,10.7C96.5,330.9,56.7,316.1,57,297.7z"/>
<path class="st4" d="M175.1,170.5L67,145.9l-33.1,25.9c-3.2,14,1.7,17.1,7.5,23.6l2.7,0.9c6.7,2.4,3.2-0.2,4.4,5.2l21.1,19.8
	c-0.9,8.8,17.8,25.8,35.2,22.3c13.1-1.9,21.3,3.2,22.6-4.5c20.2,6.2,51.1-16.4,42.3-41.6C179.1,193.4,182.8,180.2,175.1,170.5z"/>
<path class="st6" d="M67,145.9l-33.1,25.9c-7.1,11.9,0.4,29.9,14.6,29.7c0.9,12.7,9.3,21.8,21.1,19.8c0.9,11.2,14.3,12.9,18.1,12
	c-12.6-4.9-27.7-30.8-16.8-42.9C66.8,177.1,84.6,169,91,173.6C81.6,164.1,87.9,162.6,67,145.9z"/>
<path class="st20" d="M168.8,96l-39.4-31.6l2.5-32.5C172.1,14.7,205.5,69.3,168.8,96z"/>
<path class="st5" d="M168.8,96l-46.9-18.1l2.4-30.5C170.1,32.3,194.1,74.8,168.8,96z"/>
<path class="st6" d="M163.3,174.5c-8.9,14-41.2,26.2-78.7-5.5l1.3-18c8.4-20.1-5.9-39.7-22.3-41.6c6,1.1,10.5-0.8,13.7-5.8L117.8,52
	l18.4,9.7c14,6.8,27.5,22.7,35.5,39.9c20,14.9,20.7,54.6,11.8,62.7C179,169.1,172,172.8,163.3,174.5z"/>
<path class="st3" d="M106.2,164.8c-10.6,2.9-20.2,2.9-28.2-2.2l7.8-11.6c8.4-20.1-5.9-39.7-22.3-41.6c6,1.1,10.5-0.8,13.7-5.8
	l52-39.1c1.9,17.1-6.4,27.7-20,27.3c0,6.7-3.9,10.3-9.3,12.7c-7.1,10.7-0.4,22.9,8.8,32.9C101.5,140.6,99.3,151.4,106.2,164.8z"/>
<path class="st12" d="M131.8,31.9c40.2-17.2,73.7,37.4,36.9,64.2"/>
<path class="st21" d="M105,86.9c-1.5,9.8-8.5,17.3-26.7,16.2c5.4-21.4-2.9-36.8-41.1-34c-1.2-11.3,1.2-18.3,11-23.5
	c0.6-26.7,45.2-32.6,49.7-19c6.2-8.4,23.3-5.4,23.3,6.4c20.2-9,36,24.8,8,31.5C131,74.8,122.2,86.6,105,86.9z"/>
<path class="st4" d="M94.7,79.2c3.2,9.5-5.6,19.5-21.2,18.5C78.1,79.4,70,71.6,37.2,74c-2.4-13.9,11.2-22,19.8-20.1
	c0.5-22.9,29.1-23.4,35.3-15.2c5.4-7.2,16.6-3.5,16.9,4.4c17-6.9,24.4,20,5.7,23.6C116.4,75.5,105.2,82.8,94.7,79.2z"/>
<path class="st6" d="M164.5,88.8c-6.1-9.3-13-16.7-20.7-22.4c17.6-10.3,34.8-5.2,50.2-3.1C189.9,75.9,180.3,90.9,164.5,88.8z"/>
<path class="st3" d="M164.5,88.8c-6.1-9.3-7.1-11.9-14.8-17.6c17.6-10.3,30.9-2.8,44.3-7.9C189.9,75.9,180.3,90.9,164.5,88.8z"/>
<path class="st22" d="M159.5,82.6l-5.1-6.6c2.7-4.1,25.6-6.1,24.5,0.8C177.9,83.6,158.9,84.1,159.5,82.6z"/>
<path class="st5" d="M98.2,225.6c-6.5,0.6-12.6-2.5-16.3-7.3C82.7,225.8,91.6,228.8,98.2,225.6z"/>
<path class="st4" d="M185.1,134c-2.1-10.2-6.4-33.1-28-24.3C177.2,93.8,185.9,122.1,185.1,134z"/>
<path class="st4" d="M165.1,147.7c9.3,1.4,15.9-3,16-10.2C183.1,148.2,176.4,153.1,165.1,147.7z"/>
<path class="st4" d="M131.7,114.5c-5.7-7.1-12.1-10.8-21.7-13.5C117.9,98.4,127.4,104.8,131.7,114.5z"/>
<path class="st4" d="M161.2,94.4c-4.2-5.9-11.6-12.3-18.8-13.7C150.4,79,158.4,86.6,161.2,94.4z"/>
<path class="st20" d="M63.5,109.4c7.8-0.6,19.5,9.1,23,20.2c7.1,21.4-9.9,39.7-30.2,43.7c-37.9,6.4-61.7-32.9-53.9-65.7
	c6.5-34.2,47.7-50.6,72.3-30C85,88.9,81,111.6,63.5,109.4z"/>
<path class="st5" d="M63.5,109.4c-20.6-3-36.6,13.2-37.5,27.2c2-19.4,39.6-19.2,36.6,1.7c-2.3,16.6-35.9,20.6-43-6.6
	C12.7,106.5,40.6,84,68,92.3C77.8,95.9,74.5,109,63.5,109.4z"/>
<path class="st12" d="M25.9,136.6c2.9-29.3,48.7-40.7,60.6-7c7.1,21.4-9.9,39.7-30.2,43.7c-37.9,6.4-61.7-32.9-53.9-65.7
	c6.5-34.2,47.7-50.6,72.3-30c10.5,11.3,6.4,33.9-11,31.7"/>
<path class="st12" d="M136.1,61.9c14,6.8,27.5,22.7,35.5,39.9c20,14.9,20.7,54.6,11.8,62.7c-10.9,11.3-37.1,17.3-67.9,1.8"/>
<path class="st12" d="M163.2,174.6c-4.5,12-36.5,24.9-72.2-1"/>
<path class="st12" d="M37.2,69.1C33,56.8,43.4,42.1,59.4,43.8"/>
<path class="st12" d="M48.2,45.5c0.6-26.7,45.2-32.6,49.7-19c6.6-7.3,22-4.4,23.3,6.4c20.2-9,36,24.8,8,31.5
	c1.8,10.4-7,22.1-24.2,22.5"/>
<path class="st12" d="M105,86.9c0,9.3-12.7,19.1-26.7,16.2"/>
<path class="st12" d="M81.6,77.9c4.1,3.7,9.1,0.3,8.6-3"/>
<path class="st12" d="M106.3,199c3.3,4.5,8.9,2.2,9-1.1"/>
<path class="st12" d="M70.3,279c1.2,5.6,7.5,5.8,9,2.7"/>
<path class="st12" d="M88.9,289.4c1,4.5,6,4.7,7.3,2.2"/>
<path class="st12" d="M143.1,264.2c3.9,3.3,8.5,0.1,7.9-3"/>
<path class="st12" d="M145,280.9c3.3,2.8,7.2,0,6.7-2.6"/>
<path class="st12" d="M88.5,304.2c2.2,4.1,7.1,2.9,7.6,0.2"/>
<path class="st12" d="M140.3,211.7c4.7,2.9,9-1.3,7.9-4.5"/>
<path class="st12" d="M121.4,211.6c2.8,3.7,7.4,1.7,7.4-1.1"/>
<path class="st12" d="M146.9,195.9c2.7,1.9,5.4-0.4,4.8-2.3"/>
<path class="st12" d="M101.3,69.7c4.3,4.3,10.2,0.8,9.4-3.8"/>
<path class="st12" d="M114.2,56.2c1.5,2.5,4.5,0.3,4.2-1.7"/>
<path class="st12" d="M84.9,62c1.7,4.2,6.9,1.7,6.9-1.6"/>
<path class="st7" d="M122.2,136.2l-7.7-0.2c-11.1-9.7-13.9-24-10.9-28.7c6.3-7.6,25.4,2.1,29.9,15.5
	C134.6,125.9,129.9,134.2,122.2,136.2z"/>
<path class="st23" d="M108.6,115.9c7.6-6.6,21.7,0.7,24,12.2l-4.4,5.1l-6.1,3l-7.7-0.2C110.1,133.9,102.2,121.2,108.6,115.9z"/>
<path class="st12" d="M122.6,140.8c-4.3-4.8-8.1-4.9-13.9-3.5"/>
<path class="st7" d="M162.1,103.4l0.8-0.3c-4.2,1.3-7.1,3.5-10.4,7.7c-10.2-2.2-19.6-20.6-14.5-26.2C143.6,81,155,85.8,162.1,103.4z
	"/>
<path class="st23" d="M141.2,93.1c7.6-6.6,17.3,1.3,18.2,11.4l-7.1,6.3C145.9,111.3,136.6,98.1,141.2,93.1z"/>
<path class="st12" d="M114.5,135.9c-11.1-9.7-13.9-24-10.9-28.7c6.3-7.6,25.4,2.1,29.9,15.5c1.2,3.2-3.6,11.5-11.3,13.5"/>
<path class="st12" d="M171.7,101.8c-7.1-0.3-14,2.4-19.3,9c-10.2-2.2-19.6-20.6-14.5-26.2c5.9-3.6,17.1,1.2,24.2,18.8"/>
<path class="st12" d="M178.5,148.3c4,4.3,6.2,14.7,2.8,18.1"/>
<path class="st12" d="M99.9,104.4c-3.3,2.2-4,6.7-1.9,10.6"/>
<path class="st12" d="M112,168.7c2.5-0.4,4.2-2.6,4.5-5.4"/>
<path class="st12" d="M141.5,77.3c-3-2.3-8.6-0.8-11,2.4"/>
<path class="st12" d="M128.5,239.7c16.9,5.4,50.1-16.9,41.2-42.1c9.2-4.2,13-17.4,5.2-27.1 M69.6,221.4
	c-1.7,10.4,22.7,26.7,35.2,22.3 M49.1,197c-2.9,11.3,7,28.2,20.5,24.4"/>
<path class="st12" d="M174.6,259.9c1.6,13.3-2.1,21.9-8.2,28.3c1.2,10-14.3,21.9-22.4,19.8c-1.6,7.6-20.5,17.8-34.1,10.7
	c-4.6,4.1-13.6,4.4-19.4,3.5"/>
<path class="st12" d="M90.5,322.3C68.6,320,56.6,305.6,57,297.7c-21-2.3-31.1-44.6-20.4-58.7c-2.4-10.2-3.3-24.5,5.8-38.4"/>
<path class="st12" d="M51.3,296c-8.1,9.1-17,21.7-32.4,24.4c13.1,2.7,31.3-5,39.2-17"/>
<path class="st3" d="M54.4,257.6c-6.2,0.5-8.6,4-7.8,10c2.4,1.6,4.8,3.3,7.3,4.9l0.8-6l5.2-1.9C57.9,262.1,56.2,260,54.4,257.6z"/>
<path class="st19" d="M154.8,245.5c-12.6,0.5-26.2-4.2-40.6-14c-4.9,4-10.7,5.4-17.3,4.2c21.6,26.6,65.3,28.6,75.9,16.3L154.8,245.5
	z"/>
<path class="st18" d="M151.8,245.9c-8,5.7-37.1,0.1-42.3-11.8l-5.5,1.9l-7.1-0.3c21.6,25,56.6,26.8,68.1,21.2l-7.5-7.2l-2.5-4.2
	L151.8,245.9z"/>
<path class="st12" d="M96.8,235.6c21.6,26.6,65.3,28.6,75.9,16.3l-10.5,1.3"/>
<path class="st3" d="M141.2,361.3c-5.7-2.3-9.5-0.1-12.4,2.8c1.1,4.2,2.5,5.6,3.9,7.8l3.7-4.5l5.2,1.3
	C141.5,365.9,141.3,364.7,141.2,361.3z"/>
<path class="st12" d="M68.6,314.6c-1.9,28.7,0,53.2,10.8,69.4l3.6-4.2l5.6,1.8c-1.1-4.6-8.3-18.9,1.1-59.1"/>
<path class="st12" d="M122.3,321.1c1.3,33,6,43.4,10.4,50.7l3.7-4.5l5.2,1.3c-3.7-15.1,1.7-27.9,1.8-58.9"/>
<ellipse transform="matrix(0.9998 -2.156819e-02 2.156819e-02 0.9998 -2.7062 2.5297)" class="st13" cx="115.9" cy="126.7" rx="6.6" ry="6.6"/>
<ellipse transform="matrix(0.9998 -2.143559e-02 2.143559e-02 0.9998 -2.6138 2.5861)" class="st7" cx="119.3" cy="123.2" rx="3.1" ry="3.1"/>
<ellipse transform="matrix(0.9998 -2.142179e-02 2.142179e-02 0.9998 -2.4396 2.4732)" class="st7" cx="114.2" cy="115.1" rx="3.1" ry="3.1"/>
<path class="st12" d="M78,162.5c7.7,4.5,18.2,5.4,28.2,2.2c-3.6-3.3-8.6-29.5-19.6-35.1"/>
<ellipse transform="matrix(0.9998 -2.091485e-02 2.091485e-02 0.9998 -1.8708 3.0934)" class="st7" cx="147" cy="91" rx="2.7" ry="2.7"/>
<ellipse transform="matrix(0.9998 -2.153742e-02 2.153742e-02 0.9998 -2.1555 3.251)" class="st13" cx="149.9" cy="101.7" rx="5.8" ry="5.8"/>
<ellipse transform="matrix(0.9998 -2.158319e-02 2.158319e-02 0.9998 -2.0923 3.3221)" class="st7" cx="152.9" cy="98.6" rx="2.8" ry="2.8"/>
<path class="st12" d="M33.8,92.1c-0.8-6.7-6.6-11.2-11.7-10.7"/>
<path class="st12" d="M23.2,94c-0.4-3.8-3.8-6.4-6.6-6.1"/>
<path class="st12" d="M25.9,136.6c7.8-6,31-11.6,32.1,1.5"/>
<path class="st12" d="M76.2,378.4c-1.6-3.2,4.6-6.5,10.4-4"/>
<path class="st12" d="M129,364.4c-0.7-1.9,6.7-6.8,11.4-3.4"/>
<path class="st12" d="M143.6,66.4c17.6-10.3,34.8-5.2,50.2-3.1c-4,12.5-13.6,27.5-29.5,25.5"/>
<path class="st24" d="M64.9,76.1c-11.6-2.3-23.2-1.6-36.6,1.8C40.8,70.6,53,70.4,64.9,76.1z"/>
<path class="st25" d="M68.8,164.6c8.6-7.6,13.7-16.7,15.6-29C86.1,150.2,78.6,159.2,68.8,164.6z"/>
<path class="st12" d="M68.5,116c-2.4-0.1-4.2,1.9-4.3,3.5"/>
<path class="st12" d="M74.6,121.1c-2.1-0.5-4.9,1-5.8,3.7"/>
<path class="st12" d="M167.7,149.7c10.7,3.1,15-4.6,14.4-11.6"/>
<path class="st26" d="M122.2,37c6.5-0.6,12.6,2.5,16.3,7.3C137.7,36.8,128.8,33.8,122.2,37z"/>
<path class="st26" d="M73.6,25.5c7.7-2.6,16-0.6,21.8,4.2C92.5,20.8,80.8,19.7,73.6,25.5z"/>
<path class="st27" d="M221.4,204.7l-48,2c-9.2-2.2-14.1-11.9-10.1-25.9c4.9,23.5,39.1,20.2,38.3-5.2c6.2,19.7,34.9,17.5,31.9-6.7
	C239.6,179.1,239.8,197.5,221.4,204.7z"/>
<path class="st28" d="M221.4,204.7l-48,2c-9.2-2.2-14.1-11.9-10.1-25.9c4.9,23.5,39.1,20.2,38.3-5.2c6.2,19.7,34.9,17.5,31.9-6.7
	C239.6,179.1,239.8,197.5,221.4,204.7z"/>
<path class="st12" d="M154.3,246c-12.4-0.4-25.6-4.7-40.1-14.5"/>
<path class="st29" d="M195.7,202.7c-3.3-8.9,7.5-14.3,5.9-27.2c2.9,13.6,21.3,14.9,15.2,28.1"/>
<path class="st12" d="M48.6,201.5c-12.6,1.1-21.5-15.6-14.6-29.7"/>
<path class="st29" d="M173.4,206.7c-9.2-2.2-14.1-11.9-10.1-25.9c4.9,23.5,39.1,20.2,38.3-5.2c6.2,19.7,34.9,17.5,31.9-6.7
	c6,10.2,6.2,28.7-12.1,35.8"/>
<path class="st30" d="M163.3,180.8c4.9,23.5,39.1,20.2,38.3-5.2c6.2,19.7,34.9,17.5,31.9-6.7"/>
<path class="st31" d="M171.4,206.7c21.9-8.5,65.1-10.1,70.8,13.9c4.9,24.1-9.3,48.2-47,45.4C139.5,262.3,145,216.3,171.4,206.7z"/>
<path class="st32" d="M171.4,206.7c21.9-8.5,65.1-10.1,70.8,13.9c4.9,24.1-9.3,48.2-47,45.4C139.5,262.3,145,216.3,171.4,206.7z"/>
<path class="st30" d="M171.4,208.7c21.9-8.2,65.1-9.8,70.8,13.4c4.9,23.3-9.3,46.5-47,43.8C139.5,262.4,145,218,171.4,208.7z"/>
<ellipse transform="matrix(8.369383e-02 -0.9965 0.9965 8.369383e-02 -77.7645 432.3701)" class="st33" cx="196.2" cy="258.5" rx="2.4" ry="4.7"/>
<ellipse transform="matrix(8.369015e-02 -0.9965 0.9965 8.369015e-02 -77.7638 432.3711)" class="st34" cx="196.2" cy="258.5" rx="2.4" ry="4.7"/>
<path class="st35" d="M233.6,240.2c0.7-11.4-1.2-20.2-8.6-30.3C237.8,215,238.3,229.1,233.6,240.2z"/>
<path class="st12" d="M116.6,228.8c-3.2,4.9-15.9,10.2-23.2,5.4"/>
</svg>
