<?xml version="1.0" encoding="utf-8"?>
<!-- Generator: Adobe Illustrator 21.1.0, SVG Export Plug-In . SVG Version: 6.00 Build 0)  -->
<svg version="1.1" id="Layer_1" xmlns="http://www.w3.org/2000/svg" xmlns:xlink="http://www.w3.org/1999/xlink" x="0px" y="0px"
	 viewBox="0 0 534 386" style="enable-background:new 0 0 534 386;" xml:space="preserve">
<style type="text/css">
	.st0{fill-rule:evenodd;clip-rule:evenodd;fill:#CA6C32;}
	.st1{fill-rule:evenodd;clip-rule:evenodd;fill:#FBD4A4;}
	.st2{fill-rule:evenodd;clip-rule:evenodd;fill:#F1C078;}
	.st3{fill-rule:evenodd;clip-rule:evenodd;fill:#D0B2D5;}
	.st4{fill-rule:evenodd;clip-rule:evenodd;fill:#BB8EC0;}
	.st5{fill-rule:evenodd;clip-rule:evenodd;fill:#9D60A3;}
	.st6{fill-rule:evenodd;clip-rule:evenodd;fill:#E2D2E8;}
	.st7{fill-rule:evenodd;clip-rule:evenodd;fill:#FFFFFF;}
	.st8{fill-rule:evenodd;clip-rule:evenodd;fill:#B9C071;}
	.st9{fill-rule:evenodd;clip-rule:evenodd;fill:#E9A0A2;}
	.st10{fill-rule:evenodd;clip-rule:evenodd;fill:#D8736F;}
	.st11{fill-rule:evenodd;clip-rule:evenodd;fill:#1A1A18;}
	.st12{fill-rule:evenodd;clip-rule:evenodd;fill:#BBE3F9;}
	.st13{fill:none;stroke:#822E2D;stroke-width:1.7011;stroke-linecap:round;stroke-linejoin:round;stroke-miterlimit:22.9256;}
	.st14{fill-rule:evenodd;clip-rule:evenodd;fill:#BA6F2A;}
	.st15{fill:none;stroke:#6C3579;stroke-width:1.7011;stroke-linecap:round;stroke-linejoin:round;stroke-miterlimit:22.9256;}
	.st16{fill:none;stroke:#008DD0;stroke-width:1.7011;stroke-linecap:round;stroke-linejoin:round;stroke-miterlimit:22.9256;}
	.st17{fill-rule:evenodd;clip-rule:evenodd;fill:#D9A061;}
	.st18{fill:none;stroke:#9F472B;stroke-width:1.7011;stroke-linecap:round;stroke-linejoin:round;stroke-miterlimit:22.9256;}
	.st19{fill-rule:evenodd;clip-rule:evenodd;fill:#D0935F;}
	.st20{fill:none;stroke:#9A5732;stroke-width:1.7011;stroke-linecap:round;stroke-linejoin:round;stroke-miterlimit:22.9256;}
	.st21{fill-rule:evenodd;clip-rule:evenodd;fill:#C8D312;}
	.st22{fill:none;stroke:#90BF28;stroke-width:1.7011;stroke-linecap:round;stroke-linejoin:round;stroke-miterlimit:22.9256;}
	.st23{fill:none;stroke:#868685;stroke-width:1.7011;stroke-linecap:round;stroke-linejoin:round;stroke-miterlimit:22.9256;}
	.st24{fill-rule:evenodd;clip-rule:evenodd;fill:#FDEAD2;}
	.st25{fill-rule:evenodd;clip-rule:evenodd;fill:#F7C6C7;}
	.st26{fill-rule:evenodd;clip-rule:evenodd;fill:#F3A5A6;}
	.st27{fill:none;stroke:#C14B6B;stroke-width:1.7011;stroke-linecap:round;stroke-linejoin:round;stroke-miterlimit:22.9256;}
	.st28{fill-rule:evenodd;clip-rule:evenodd;fill:#EBDEEE;}
</style>
<path class="st0" d="M329.4,354.7l13.4-5.6c1.2,8.1,0.4,18.7-2.2,18.6C337.8,367.9,333.9,363.9,329.4,354.7z"/>
<path class="st0" d="M205.7,355.1l-13.4-5.6c-1.2,8.1-0.4,18.7,2.2,18.6C197.4,368.3,201.3,364.3,205.7,355.1z"/>
<path class="st1" d="M267.1,359.2c23.4,0.4,44.5-0.8,62.2-4.4l12-4.9c20.8-6.8,25.3-49.2,38-73.7l-223.5,4.3
	c13.1,24.8,14.5,60.3,37,69.4C206.7,358.5,236,359.9,267.1,359.2z"/>
<path class="st2" d="M269.1,355.5c-23.3,0-60.1-9.5-70.1-24.7c-14.8-23.8,34.8-13.6,108.5-25.7c23.1-4.8,59.3-4.4,72-29l-223.5,4.3
	c13.1,24.8,15.6,56.2,38.1,65.3C211.9,354.4,237.8,356.2,269.1,355.5z"/>
<path class="st3" d="M131.4,283.7l-24-20.6l35.2-13.7l9.2,25.4C147.6,278.8,140.7,282.4,131.4,283.7z"/>
<path class="st4" d="M182.2,343.2l-8.4-13.3c-14.7-3.7-33.6,0.6-44-11.1c10.8-11.1,15-23.5,11.2-37.5l-9.6,2.3l-13.6,11.1
	l-23.4,51.2l50.5,2.8c15.2,1,24-0.1,27.5-3C176,345.7,179.8,344.7,182.2,343.2z"/>
<path class="st5" d="M182.2,343.2l-8.4-13.3c1.8,8.5-65.4-0.9-52.7-8.2c10.8-11.1,23.7-26.4,19.9-40.4l-9.6,2.3l-13.6,11.1
	l-23.4,51.2l50.5,2.8c15.2,1,24-0.1,27.5-3C176,345.7,179.8,344.7,182.2,343.2z"/>
<path class="st5" d="M103.2,331.9L67,340.3c-7.2,9.5-3.3,15.4,8.9,20.3c8.3,4,56.3,8.4,59.8,3.9c5.4,0.9,11.7-0.9,13-3.2
	c3.6-0.6,6.9-3.5,5.2-5.5C141.3,338.2,107.1,351,103.2,331.9z"/>
<path class="st6" d="M174.7,255.8l-28.2-11.2l-1.3-30.1l36.6,1.8c4.8,5,5.8,11.1,5.9,18.5l-5.8-2.3
	C185.3,242.4,180.6,249.1,174.7,255.8z"/>
<path class="st5" d="M150.9,120.4l-32.3,9.2l-18.8-12.4C89,106.9,81.1,94.3,81.1,75.5c-0.1-4.8,5.9-7.3,10.7-0.6
	C110.5,96.7,144.3,98.3,150.9,120.4z"/>
<path class="st4" d="M106.2,151c-3.7,12.7-3.1,23.8,0.4,33.8l62.4,3.3l21.3-25.5c-4.1-26.9-15.4-45.6-46.2-41.7
	c2.6-8.1-0.7-8.4-10.1-0.8c1.6-10.9-5.3-6.6-10.5,6.2l-5.1,3.4c-13.3-19.7-54-15-82.5-25.4c-9.2-2.9-12.9,4-8.9,10.2
	C40.5,136.8,85,157.5,106.2,151z"/>
<path class="st5" d="M106.2,151c-3.7,12.7-3.1,23.8,0.4,33.8l7.8-4.6l8.6-3c-5.6-7.5-6-24.8-3.5-34.2c0.6-3.6-2.3-6.9-5.1-3.6
	c-11.8-17.4-80.8-29-74.5-10.7C57.7,144.7,87.5,155,106.2,151z"/>
<path class="st6" d="M179.7,169.9l-17.9,7.1c-20.5-4.6-39.3-3.5-55.2,7.8c-3.9,3.3-6.6,7.1-10.2,9.4c2.6,1.5,5.7,2.2,8.9,1.3
	c-1.2,2.6-3.1,4.5-5.8,5.2c10,5.2,27.6,29.5,63.1,19.4c12.6,3.3,19.5-0.7,20.9-8.4c17.2-9.5,23.3-26,21.7-47.4
	c-1.9,1.2-4.5,2.1-7.8,2.6c3.3-1.8,5-4.3,5-7.6C194.8,162.9,187.3,160.4,179.7,169.9z"/>
<path class="st3" d="M159,214.1c-30.3,5.3-53.6-18.6-35.9-36.9c-5.9,1.7-9.4,2.8-16.4,7.6c-3.9,3.3-6.6,7.1-10.2,9.4
	c2.6,1.5,5.7,2.2,8.9,1.3c-1.2,2.6-3.1,4.5-5.8,5.2c10,5.2,27.6,29.5,63.1,19.4c12.6,3.3,19.5-0.7,20.9-8.4
	c10.7-6.6,17.3-14.7,19.8-24.5c-5,8.2-9.7,16.2-21,22.2C176.5,218.9,165.7,218.4,159,214.1z"/>
<path class="st6" d="M50,316.9l-21.7-46.8c-5.1-6.1-17.1-0.9-24-10.4c-0.8,5.4,0,10.2,2.9,13.9c-2.3-1-4.5-2.3-6.4-4
	C3.9,305.8,25,321.9,50,316.9z"/>
<path class="st3" d="M35.7,298.5l-7.4-28.4c-5.1-6.1-17.1-0.9-24-10.4c-0.8,5.4,0,10.2,2.9,13.9c-2.3-1-4.5-2.3-6.4-4
	C3.7,285.5,21.2,311.8,35.7,298.5z"/>
<path class="st7" d="M160.3,173.2l-11.5,1.9l-11.4-0.7c-2.3-14.2,0.2-25.2,5.9-26.1C149.2,147.9,156.6,158.4,160.3,173.2z"/>
<path class="st7" d="M188.2,163.3l-8.7,6.6l-7.9-0.1c-2.7-13.5-4.1-27.6-0.4-28.8C176.9,140,183.8,148.4,188.2,163.3z"/>
<path class="st8" d="M147.2,156.7c5.5-1.5,8.9,4.6,11.5,11l1.6,5.5l-0.4,2l0.6,2.3l-16.4-2.9C141.4,165.9,143.4,157.8,147.2,156.7z"
	/>
<path class="st8" d="M176.6,149c4.5-1.9,8,4.7,10.8,11.6l0.8,2.7l-6.8,4.6l-2.5,2.7l-3.9-1.1C172.2,159,172.4,150.2,176.6,149z"/>
<path class="st9" d="M171.8,183.1l-9.3-3.6c-5.1-1.7-2.4-7,4.8-9.1c4.4-1.7,11.3-1.3,12.3,1.1C179.9,175.6,174.9,181,171.8,183.1z"
	/>
<path class="st10" d="M171.8,183.1l-9.3-3.6c-5.1-1.7,3.1,0.2,10.3-2c4.4-1.7,5.9-8.5,6.9-6C179.9,175.6,174.9,181,171.8,183.1z"/>
<ellipse class="st11" cx="154.2" cy="168.5" rx="4.6" ry="4.6"/>
<circle class="st7" cx="151.6" cy="165.9" r="2.1"/>
<circle class="st11" cx="181.6" cy="159.3" r="4.7"/>
<circle class="st7" cx="179" cy="156.7" r="2.1"/>
<ellipse class="st7" cx="144.2" cy="161.7" rx="2.7" ry="2.7"/>
<circle class="st7" cx="173.7" cy="153" r="2.9"/>
<path class="st1" d="M381.2,270.9c-3,17.4-43.4,25.2-114.7,25.2c-82.8,1.8-118.2-9.4-114.5-25.2c0.2-6.9,8.3-12.8,24.3-17.2
	c18.9-5.1,48.9-8.1,90.4-8.1C348.6,244.3,381.6,253.5,381.2,270.9z"/>
<path class="st12" d="M165.5,270.3c1.6-7.2,11.7-11.9,27.6-15c9.1-19.7,9.1-44.9,27.4-59.2c14.8-11.8,47-20.7,44.4-35.4
	c14.4,1.2,18.5,19.8-10.3,28.2c35.6-1.1,31.3,35.4-12.7,46c2.5-9-3.1-8.8-9.7-7.3c-5.8,6.7-9.3,14.7-10.5,24.2l47-1.5l76,4.5
	c14.9,4.2,23.6,8,22.9,15.5c-0.5,12-33.5,20-101.1,20C194.2,291.4,165.1,284.1,165.5,270.3z"/>
<path class="st13" d="M381.2,270.9c-0.5,15.1-38,25.3-114.7,25.2c-81.9,1.4-114.9-7.9-114.5-25.2"/>
<path class="st13" d="M367.6,270.3c-0.5,12-33.5,20-101.1,20c-54.1,0.8-84-3.1-95.4-10.9"/>
<path class="st13" d="M222.3,247c13.1-0.9,27.6-1.4,44.4-1.4c81.9-1.4,114.9,7.9,114.5,25.2 M176.8,253.6c5.5-1.5,11.8-2.7,19.1-3.8
	 M151.9,270.9c0.2-5.8,5.9-10.8,17.2-14.9"/>
<path class="st5" d="M202.7,226.1l-4,14.9l-3.4,10.1l-7.8-0.2l-7.6-1.7c3.3-5.6,4-11.1,2.1-16.6l5.8,2.3c0.2-6.2-0.8-12-4.4-16.7
	C189.4,222.7,194.8,225.1,202.7,226.1z"/>
<path class="st13" d="M221.6,251.8c12.8-1,27.7-1.5,45-1.5c72.1-1.1,101.2,6.2,100.9,20 M179.7,258.8c3.7-1.2,8.2-2.4,13.4-3.4"/>
<path class="st14" d="M329.6,270.9l-7.1-2.8c-5.2,4.7-10.5,4.8-15.9,0.3c-6.1,5.2-12.3,5.8-18.9,1.7c-2.2,3.4-7.1,4.6-14.9,3.6
	c-4.4-4.3-8.3-10-11.3-17.9l87-7.6C343.2,258.3,336.9,265.8,329.6,270.9z"/>
<path class="st13" d="M155.9,280.4c13.1,24.8,14.5,60.3,37,69.4c13.9,8.7,43.2,10.1,74.3,9.4"/>
<path class="st13" d="M378.6,277.2c-13.1,24.8-14.6,63.5-37.1,72.6c-13.9,8.7-43.2,10.1-74.3,9.4"/>
<path class="st13" d="M342.9,349.2c1.2,8.1,0.4,18.7-2.2,18.6c-2.9,0.1-6.8-3.8-11.2-13"/>
<path class="st13" d="M192.3,349.6c-1.2,8.1-0.4,18.7,2.2,18.6c2.9,0.1,6.8-3.8,11.2-13"/>
<path class="st15" d="M165.8,337.6c4.2,1.6,6.2,4.4,6.6,8.2 M129.9,318.8c7.7,10.6,29.3,7.4,44,11.1 M141,281.3
	c4.3,13-0.3,26.4-13.7,40.2 M151.8,274.8c-4.2,4-11.1,7.6-20.4,8.8 M181.8,216.4c4.8,5,5.8,11.1,5.9,18.5l-5.8-2.3
	c3.4,9.8-1.3,16.5-7.2,23.3 M179.8,249.1c4,1.2,10.3,2.6,15.5,1.9 M183.3,218.2c6,4.5,11.4,6.9,19.4,7.9 M144.9,348.7
	c15.2,1,24-0.1,27.5-3c3.6-0.1,7.4-1.1,9.8-2.6"/>
<path class="st16" d="M269.6,279.6c5.1,3.8,13.9,3.7,20.7,0.4"/>
<path class="st17" d="M277.9,243.2l-16.3,12.5c39.7,2,73.4-1.8,87-7.6C336.7,244.2,315.1,242.1,277.9,243.2z"/>
<path class="st18" d="M277.9,243.2l-16.3,12.5c39.7,2,73.4-1.8,87-7.6C336.7,244.2,315.1,242.1,277.9,243.2z"/>
<path class="st19" d="M306.8,249.6l-1.4-74.4c0-1.2-2.6-1.2-2.7,0l-1.9,74.5C300.7,251.3,306.8,251.3,306.8,249.6z"/>
<path class="st20" d="M306.8,249.6l-1.4-74.4c0-1.2-2.6-1.2-2.7,0l-1.9,74.5C300.7,251.3,306.8,251.3,306.8,249.6z"/>
<path class="st21" d="M302.3,191.5l0.3-10.3c13.6-11.1,15.6,1.1,28.9-8l-3.4,6.8l6.1,1.5C319.5,195.8,319,180.5,302.3,191.5z"/>
<path class="st22" d="M302.3,191.5l0.3-10.3c13.6-11.1,15.6,1.1,28.9-8l-3.4,6.8l6.1,1.5C319.5,195.8,319,180.5,302.3,191.5z"/>
<path class="st7" d="M306.8,249.6c47-11.3,44-62-4.7-47C329.3,196.9,326.3,233.8,306.8,249.6z"/>
<path class="st23" d="M306.8,249.6c47-11.3,44-62-4.7-47C329.3,196.9,326.3,233.8,306.8,249.6z"/>
<path class="st18" d="M348.6,248.2c-5.3,10.1-11.6,17.7-19,22.7"/>
<path class="st18" d="M261.4,255.8c2.3,6.6,5.8,12.8,11.3,17.9"/>
<path class="st4" d="M134.3,262.9c-6.7,0.9-9.5,2.8-8.4,5.6c20.8,37.1-14.5,46.9-22.7,63.3c2.9,18.1,39.5,8.6,49.4,22.3
	c-0.8,2.4-11.2,7.3-18.2,6.7c-35.7,2.7-59,0.1-69.8-7.9c-6.3-9.5,12.1-16.9-0.8-25.4c-20-11-32.9-29.1-35.5-57.5
	c-1.9-54,45.5-48,72.1-68.9l2.1,1.7c12,8,19.3,20.7,48.9,19.5c-1,4.1,1.7,9.6,3.6,14c10.5,17.5,26.5,26.1,48.5,29
	c2.2,0.2,3.1,2.5,1.3,4c1.6,0.9,1.3,3.3-0.2,4.8C197.7,283.9,149.4,282.7,134.3,262.9z"/>
<path class="st5" d="M134.3,262.9l-58.7,57.2c18.5,13.9-21,34.2,13.9,40.8l-13.7-0.2l-11.3-7.6c-6.3-9.5,12.1-16.9-0.8-25.4
	c-20-11-38.4-38.8-25.9-71.3c1.2,37.3,16.4,51.2,37.7,63.8L134.3,262.9c-1.8-3-2.4-7.5,2.1-11.1c5.3,21.6,64.1,30.7,68.6,17.5
	c1.6,0.9,1.3,3.3-0.2,4.8C197.7,283.9,149.4,282.7,134.3,262.9z"/>
<path class="st16" d="M244.6,217.1c-37.3,22.7-23.6,70.7,0.3,51.6c2.3,6.8,17.1,7,20.1,0.2c3.5,6.6,19.1,6.5,22.7,1.1
	c4.9,4.4,15.9,3,18.9-1.7c2.8,3.9,12.4,4.6,15.9-0.3c4.8,4,12.6,3.6,22.5,0"/>
<path class="st16" d="M258.3,161.1c22.8-3.6,25.5,19.1-3.8,27.9c31.2-2.8,38.2,35-17.2,47"/>
<path class="st16" d="M232,227.6c9.2-4.8,13,2.4,9.8,7.3"/>
<path class="st24" d="M356.7,319.5c-2.4,11.2-12.6,23-23.3,30.8C347.7,346.2,357.7,334.4,356.7,319.5z"/>
<path class="st25" d="M50.4,125.6c0.4-4.5,50.7-3,64.2,13.8c2.8,2.8,0.6,7.6-7.4,8.3C76.6,151.8,49.7,133.1,50.4,125.6z"/>
<path class="st26" d="M92.6,146.1c-14-3.6-21.6-7.4-35.4-14.7C58.3,136.9,79.6,146,92.6,146.1z"/>
<path class="st16" d="M264.8,160.8c3,16.4-37.1,25.7-49,39.7c-18,19.2-13.7,52.3-28.7,60.9"/>
<path class="st15" d="M99.9,338.8c7.7-25.1,50.3-30,23.1-75.4 M168.4,214.8c2.4,3.3,7.5,1.9,7.9-1.2 M189.1,179.8
	c-1.2-1.8-3.4-1.8-4.5-0.4 M171.6,169.4c-3.9-14.2-4.1-27.1-0.3-28.3c5.6-1.1,12.5,7.4,16.9,22.3 M174,138.3
	c-2.6-2.2-7.3-1.3-7.6,3.7 M137.4,174.4c-2.3-14.2,0.2-25.2,5.9-26.1c5.9-0.4,13.8,10.2,17.5,26 M148.3,145.4
	c-5.3-3.8-11.4-0.1-12.4,5.7 M159.8,177.1c-15.9-4-36.5-4.6-53.2,7.7c-3.7-11.8-4.4-22.7-0.4-33.8 M129.7,125.1
	c17.7-22.1,20.5-3.8,6.8,3.7 M204.7,274.2c-2.2,0.4-4.4,0.4-6.3-0.3 M204.9,269.3c-2.2,0.4-4.4,0.4-6.3-0.3 M155.1,236.3
	c10.5,17.5,26.5,26.1,48.5,29c2.2,0.2,3.1,2.5,1.3,4c1.6,0.9,1.3,3.3-0.2,4.8c-7,9.7-55.3,8.6-70.5-11.3"/>
<path class="st3" d="M178.2,229.9c1.8,7-0.7,16.5-4.5,23.8C180.6,247.4,183,238,178.2,229.9z"/>
<path class="st15" d="M99.7,117.2C89,106.9,81.1,94.3,81.1,75.5c-0.1-4.8,5.9-7.3,10.7-0.6c18.7,21.8,52.5,23.5,59.1,45.5
	 M118.5,129.6l5.1-3.4c6-16,13.1-15,10.5-6.2 M144.3,120.9c28-3.5,42.4,12.9,46.2,41.7 M106.7,184.8c-3.9,3.3-6.6,7.1-10.2,9.4
	c2.6,1.5,5.7,2.2,8.9,1.3c-1.2,2.6-3.1,4.5-5.8,5.2c10,5.2,27.6,29.5,63.1,19.4c9.3,3.8,19.5-0.7,20.9-8.4
	c17.2-9.5,23.3-26,21.7-47.4c-1.9,1.2-4.5,2.1-7.8,2.6c3.3-1.8,5-4.3,5-7.6c-7.6,3.5-14.4,0.6-23.6,11.2 M150.1,191.6
	c7.1,11.4,20.7,6.8,22.8-1.9c4.6,5.3,14.5,1.9,13.7-8.7 M167.7,200.8c4,6.6,9.8,4.1,9.9-2.5 M100.4,201.2
	c-23.3,19.2-73.5,15.6-72.1,69c1.3,25.5,16.2,45.7,35.5,57.5c5.7,3.8,6.2,7.9,3.2,12.7c-7.2,9.5-3.3,15.4,8.9,20.3
	c8.3,4,56.3,8.4,59.8,3.9c5.4,0.9,11.7-0.9,13-3.2c3.6-0.6,6.9-3.5,5.2-5.5c-12.6-17.7-46.8-4.9-50.7-24 M28.3,270.1
	c-5.1-6.1-17.1-0.9-24-10.4c-0.8,5.4,0,10.2,2.9,13.9c-2.3-1-4.5-2.3-6.4-4c3,36.3,24.2,52.3,49.1,47.4 M147.7,192.9
	c-0.3-2.2,1.4-3.6,3.1-3.4 M141.4,352.2c4.7,2.4,6.8,5.5,7.3,9.2 M129,355.8c3.6,1.4,5.7,4.5,6.7,8.7 M121.6,135.6
	c-9.4-27-57-20.9-85.6-31.4c-9.2-2.9-12.9,4-8.9,10.2c13.4,22.4,61.9,45.8,84,34.8"/>
<path class="st27" d="M171.8,183.1l-9.3-3.6c-5.1-1.7-2.4-7,4.8-9.1c4.4-1.7,11.3-1.3,12.3,1.1C179.9,175.6,174.9,181,171.8,183.1z"
	/>
<path class="st3" d="M75.3,217.4c-11,7.3-31.8,17.5-40.5,30.6C40.8,232.3,58.9,221.7,75.3,217.4z M194.7,264.9
	c-11.4-0.3-24.9-8.2-34.5-17.4C166.2,258.8,181.2,266.5,194.7,264.9z M125.4,274.2c2.8,11.1-1.1,26.2-7.2,38
	C129.2,302.2,132.9,287.2,125.4,274.2z M144,124.8c9.2-2,20.6,0.6,30.1,6C166.8,123,154.9,119,144,124.8z M117.5,131.7
	c-10-8.4-30.6-15.2-45.1-16.5C86.2,114.2,109.4,117.6,117.5,131.7z M103.5,339.5c9.3,7.9,33.9,4.5,41.5,11.4
	C136.7,345.9,113.4,351.8,103.5,339.5z"/>
<path class="st4" d="M141.5,110.8c-9.2-6.6-27-12-37.1-22.1C116,95.6,134.3,102.1,141.5,110.8z"/>
<path class="st28" d="M151.2,179.2c-7.7-1.8-20.2-1.2-27.7,1.5C129,175.3,141.7,174.3,151.2,179.2z M44,315
	c-11.6-1.5-21.3-6.8-31-15.7C19.7,311.4,30.5,317.3,44,315z M181.4,170.5c5.3-3.6,14.2-6.4,18.1-8.5
	C194.3,163.1,186.2,162.8,181.4,170.5z"/>
</svg>
