<?xml version="1.0" encoding="utf-8"?>
<!-- Generator: Adobe Illustrator 21.1.0, SVG Export Plug-In . SVG Version: 6.00 Build 0)  -->
<svg version="1.1" id="Layer_1" xmlns="http://www.w3.org/2000/svg" xmlns:xlink="http://www.w3.org/1999/xlink" x="0px" y="0px"
	 viewBox="0 0 534 386" style="enable-background:new 0 0 534 386;" xml:space="preserve">
<style type="text/css">
	.st0{fill-rule:evenodd;clip-rule:evenodd;fill:#00833A;}
	.st1{fill-rule:evenodd;clip-rule:evenodd;fill:#A1C413;}
	.st2{fill-rule:evenodd;clip-rule:evenodd;fill:#23A635;}
	.st3{fill-rule:evenodd;clip-rule:evenodd;fill:#D3D62D;}
	.st4{fill:none;stroke:#055332;stroke-width:1.7011;stroke-linecap:round;stroke-linejoin:round;stroke-miterlimit:22.9256;}
	.st5{fill-rule:evenodd;clip-rule:evenodd;fill:#FFFFFF;}
	.st6{fill-rule:evenodd;clip-rule:evenodd;fill:#CAD44E;}
	.st7{fill-rule:evenodd;clip-rule:evenodd;fill:#1A1A18;}
	.st8{fill:none;stroke:#6E6E6E;stroke-width:1.7011;stroke-linecap:round;stroke-linejoin:round;stroke-miterlimit:22.9256;}
	.st9{fill:none;stroke:#575656;stroke-width:1.7011;stroke-linecap:round;stroke-linejoin:round;stroke-miterlimit:22.9256;}
</style>
<path class="st0" d="M306.3,210.2c17.8,0.9,32.8-1.2,45.1-6.6l5.5-21.3c-19.3,19.9-49.1,8.2-55,29.1L306.3,210.2z"/>
<path class="st1" d="M433.2,304.7l-5.4-17.2C443.2,291.1,443.2,292.9,433.2,304.7z M426.1,276.6l-1.3-19.6
	C440.4,264.9,437.7,266.6,426.1,276.6z M424.9,241.8l1-20.6C441.5,229.1,442.1,234.4,424.9,241.8z M427,204.8l1.6-23.9
	C445.9,188.7,446,196.4,427,204.8z M429.2,170l0.3-21C443.3,156.7,444.3,161.6,429.2,170z M478.9,331.8l-17.2-4.6
	C473.2,316.4,475.2,317.2,478.9,331.8z M517.1,339.2l-13.2-2.7C512.4,327,514.7,329.9,517.1,339.2z M452.1,323.8
	c-5.6-2.5-10.2-5.9-13.6-10.2C452.2,307.9,453.2,308.4,452.1,323.8z"/>
<path class="st2" d="M401.5,222.9c-1.9,12-4.9,23.2-8.9,33.7c-9.6,2.4-18.7,28.4,3.4,72.9c-13.2,12.4-33.4,4.8-44.1,12.7l-6.9,5.9
	c20.1,5.8,60.4,1.9,84.7-3.8c22.7,11.5,70.1-1.9,103.4-0.1c-31.3-11.1-77.6-10.8-94.7-30.5c-8.6-11.9-13.5-30.3-13.6-56.6
	c-1-38.1,6.1-80.4,4.5-116.6l-19.4,2.3c3.7,3.9,0.6,36.1-3.7,51.6c-18.2,26.8-61.6,10.4-64.4,31.5l1.5-1
	C358.3,226.6,378.2,225.7,401.5,222.9z"/>
<path class="st0" d="M401.5,222.9c-1.9,12-4.9,23.2-8.9,33.7l9.3,4.2l7.2,7c-13.3,0.6-14.4,32.1-5.3,57.2
	c9.1,22.4-37,12.9-50.3,16.4l-10.6,7.9l0.5,5c37.4,3.9,60-2.6,86.4-9.9c22.7,11.5,70.1-1.9,103.4-0.1
	c-31.3-11.1-68.2,12.3-97.3-25.8c-8.6-11.9-10.8-35-11-61.3c-1-38.1,6.1-80.4,4.5-116.6l-19.2,2.3c9.6-1.1,6.9,36.1,2.6,51.6
	c-18.2,26.8-36.2,29.4-64.4,31.5l1.5-1C364.8,226.6,378.2,225.7,401.5,222.9z"/>
<path class="st3" d="M370.9,138.1c16.2,3.5,29.1,5,39,4.6c2.9,10.2,1.4,27.9-3.7,51.6c-19,26-59.4,10.2-64.4,31.5l1.5-1
	c16.3,2.1,36,1.1,58.2-1.8c-2.8,13.4-5.5,24.5-8.9,33.7l-8.1,2.3c-15.6-14.7-46-12.2-57.3-14.7c1-13.2,3-18.5,13.2-41.2
	c-1-6.4,4.8-18.8,13.7-29.7C354,163.3,360.3,151.4,370.9,138.1z"/>
<path class="st1" d="M370.9,138.1c16.2,3.5,29.1,5,39,4.6c2.9,10.2,1.4,27.9-3.7,51.6c-19,26-59.4,10.2-64.4,31.5l1.5-1
	c16.3,2.1,36,1.1,58.2-1.8c-2.8,13.4-5.5,24.5-8.9,33.7c-6.1,1.4-10,4.8-11.9,10.1c0.9,3.2,1.5,5.5-1.3,9.4
	c1.7,20.2,8.1,34.5,14.7,49.4c-17.3-46.4-10.7-65.3,1.9-67.7c-6.3-1.4-11.7,0.4-15.4,9c-2.4-7.9-13.4-13.6-33-16.9l0.9-1.6
	l-16.6-3.5c0.5-12.6,5-33.7,15.7-44.1c-6.7-3.9,3.6-23.6,13.1-29.5C357.2,168.2,363,149.1,370.9,138.1z"/>
<path class="st3" d="M357.1,169.3c12.5-5.7,36-1.7,40.8,6.2c-12.1-6.4-26.6-7.1-43.8-2.2L357.1,169.3z M343.4,198.4
	c8-3.9,34.3-4,36,2c-19.5-2-29.4-1.3-39.3,2.4L343.4,198.4z"/>
<path class="st2" d="M379.4,276.1c1.2,18.3,9.4,37,16.5,53.3c-12.7,11.1-29.9,4.9-44.1,12.7c13.8-18.7,17-42.4,25.5-63.7
	L379.4,276.1z"/>
<path class="st4" d="M370.9,138.1c-11.6,14.8-16.8,26.2-16.8,35.2c-5.7,6.3-16,25.2-13.7,29.7c-6,12-11.5,28.5-13.2,41.2
	 M354.1,173.3c9.3-4.6,36.4-4.2,43.8,2.2 M304.2,210.7c10.5,0.2,22.9-0.1,33.7-2.5 M342.8,191.6c-17.9,7.3-38,4.1-41,20
	c5.7-1.1,6.7-2.2,13.1-5.3 M340.3,203c7.7-3.7,20.7-4.6,39.1-2.5"/>
<path class="st4" d="M429.7,344.2c-15.3,3.9-42.3,13.6-86.4,9.9 M396,329.4c-13,11.9-29.9,5-44.1,12.7 M379.4,276.1
	c1.7,18.7,12.5,45.7,18.6,57.5 M409.1,267.8c-9.1-12.8-23.3-15.7-28.5-0.9 M401.5,222.9c-2.1,12.4-5.2,23.9-8.9,33.7 M343.3,224.7
	c20.7,2.3,42.9,1.2,66.5-3.3 M409.9,142.7c3.7,3.9,0.6,36.1-3.7,51.6c-18.2,26.8-61.6,10.4-64.4,31.5c4.2-3,8-5.5,11.2-7.6
	 M429.4,140.4c2.8,57.5-16.5,134.2,8.3,172.5c15.6,21.2,69.1,20,95.5,31.1c-38.2-3.1-94.2,19.1-114.7-9.4"/>
<path class="st2" d="M321.1,127.9c-11.6,0.1-21.4,1.6-29.3,4.7c-11.4,7.1-19,5.6-22.7-4.5c-4.6-6.7-24.7-3.8-13.7-20l3.6-6.2
	c3.3-8.9,9.3-12.6,21.6-4.9c22.1-7.4,47.9-13.2,82-15.5c10.9-39.5,31-50,35.8-28.5c16.9-21,35.1-14.1,47.1,33
	c26.3,12.5,25.2,40,12.6,50.9C419.7,169.5,358.6,131.9,321.1,127.9z"/>
<path class="st5" d="M371.3,58.9l-4.6,10l-4.2,12.6h21.6C387.8,54.1,380.7,47.7,371.3,58.9z"/>
<path class="st6" d="M380.8,81.6l-18.2-0.1c2.5-12.4,7.6-21.5,13.1-21.3C380.7,60.6,382.1,69.9,380.8,81.6z"/>
<path class="st0" d="M435.9,84.3c-0.3-26.1-13.8-53.4-37.5-31.4c16.9-21,35.1-14.1,47.1,33L435.9,84.3z M321.1,127.9
	c-11.6,0.1-21.4,1.6-29.3,4.7c-11.4,7.1-19,5.6-22.7-4.5c-4.6-6.7,11.7,12.6,22.7-3.6c33-5.9,74.9,2.1,116.6-3.5
	c10.2-2.2,19.3-8.7,27.3-19.5c17.3,5.9,24.3,24.1,16.2,39.9C411.5,163.8,373.3,136.5,321.1,127.9z"/>
<ellipse transform="matrix(8.884244e-02 -0.996 0.996 8.884244e-02 261.7992 440.2407)" class="st7" cx="371.5" cy="77" rx="5.8" ry="5.8"/>
<ellipse transform="matrix(8.866221e-02 -0.9961 0.9961 8.866221e-02 268.4808 439.0676)" class="st5" cx="374.2" cy="72.8" rx="2.6" ry="2.6"/>
<path class="st5" d="M293.1,132.6c-4.4,1.4-9.2,3.7-13.1,4.2c2.1,5.5,3.7,8,4.8,7.7C286.9,144.4,289.8,139.5,293.1,132.6z"/>
<path class="st8" d="M280,136.8c2.1,5.5,3.7,8,4.8,7.7c2.1-0.2,5-5,8.3-12"/>
<path class="st5" d="M269.1,128.1l-10.5-5.1c1.5,6.6,4,12.6,5,12.4C265.4,135.2,266.9,132.4,269.1,128.1z"/>
<path class="st8" d="M258.5,123c1.5,6.6,4,12.6,5,12.4c1.9-0.2,3.4-3,5.5-7.3"/>
<path class="st5" d="M428.8,84c-11.1,0.6-23.8,4.5-33.4,1.7c1.1-21.6,10.8-33.4,19.7-33.5C424.7,53.6,430.6,68.5,428.8,84z"/>
<path class="st6" d="M421,84.6c-8.5,0.4-16,3.6-25.6,1.1c0.9-17.2,7.3-25.4,14.2-25.2C417.2,61.6,420.5,73,421,84.6z"/>
<path class="st5" d="M429.2,110.1c-4.7,3.2-9.2,6-13.7,8.5c3.5,5.4,11.4,11.1,12.1,10.5C429.2,128.2,430.1,116,429.2,110.1z"/>
<path class="st9" d="M415.5,118.5c3.5,5.4,11.4,11.1,12.1,10.5c1.5-0.8,2.4-13,1.5-18.9"/>
<path class="st5" d="M371.8,126.5l-10,0.6c1.8,5.2,3.2,7.6,4.2,7.3C367.9,134.2,369.6,131.1,371.8,126.5z"/>
<path class="st9" d="M361.9,127.1c1.8,5.2,3.2,7.6,4.2,7.3c1.8-0.2,3.6-3.3,5.8-7.9"/>
<path class="st7" d="M405.5,74.7c3.8,0.3,6.6,3.7,6.2,7.4c-0.2,1.9-1.1,3.5-2.4,4.6h-8.8c-1.7-1.4-2.6-3.5-2.4-5.9
	C398.4,77.1,401.7,74.4,405.5,74.7z"/>
<ellipse transform="matrix(8.887656e-02 -0.996 0.996 8.887656e-02 295.123 475.8363)" class="st5" cx="407.7" cy="76.6" rx="3.1" ry="3.1"/>
<ellipse transform="matrix(8.913580e-02 -0.996 0.996 8.913580e-02 310.3083 476.8575)" class="st5" cx="415.9" cy="68.8" rx="3.7" ry="3.7"/>
<ellipse transform="matrix(8.927365e-02 -0.996 0.996 8.927365e-02 279.5316 438.0081)" class="st5" cx="379.3" cy="66.2" rx="3.5" ry="3.5"/>
<path class="st1" d="M449.6,90.8c7.6,6.8,12.1,15.4,14.8,26.5C465.5,105.3,460.5,95.8,449.6,90.8z M427.8,53.1
	c-7.5-5.6-15.9-9.1-24.7,0.3C410.7,40.1,420.8,44,427.8,53.1z M396,51c-3.3-5.5-9.7-8.5-17.1-1.1C385.7,40.7,393.4,42.2,396,51z
	 M280.6,97c30-10.3,64.5-15.5,103.6-15.4L350,85.9l2.2,2.2c-6.4-3.1-17.1-2.5-32.1,1.6l4.9,3.4c-5.6-3.6-16.4-1.3-37.1,6l7.4,1.3
	c6.1,2.9,7.4,9.2,6.5,17c-4.5-16.1-9.9-12.3-19.5-15.6c-6.6-2-13.1-9.5-19.8-6.1C266.6,89.5,273.2,92,280.6,97z M405.8,199
	c-8.5,7.8-20,12.8-31.4,14.3C386.4,214.8,399.5,209.7,405.8,199z"/>
<path class="st4" d="M461.8,327.2c11.5-10.8,13.4-10,17.2,4.6 M438.5,313.6c13.7-5.7,14.7-5.3,13.6,10.2 M427.9,287.6
	c15.4,3.5,15.3,5.3,5.4,17.2 M424.8,257c15.6,7.9,12.8,9.6,1.3,19.6 M425.9,221.2c15.6,7.9,16.1,13.2-1,20.6 M428.7,180.9
	c17.2,7.7,17.3,15.4-1.6,23.9 M429.5,149c13.7,7.7,14.8,12.6-0.3,21 M503.9,336.5c8.4-9.6,10.7-6.6,13.2,2.7"/>
<path class="st0" d="M268.9,98.9c-0.4,3,1.1,13-4.3,10.1C260.3,106,265.9,100.6,268.9,98.9z M286.8,107.4c0.3,3.3,4.7,13.7-2,12
	C279.3,117.2,283.8,110,286.8,107.4z"/>
<path class="st4" d="M268.9,98.9c-0.4,3,1.1,13-4.3,10.1C260.3,106,265.9,100.6,268.9,98.9z M286.8,107.4c0.3,3.3,4.7,13.7-2,12
	C279.3,117.2,283.8,110,286.8,107.4z"/>
<path class="st4" d="M395.4,85.7c1.1-21.6,10.8-33.4,19.7-33.5c9.6,1.4,15.5,16.3,13.7,31.9 M428.2,101.9c7.1-3.7,11.6,2,9.9,6.6
	 M435.4,102.9c-24.2,36.4-103.4,16.7-143.6,29.7c-3.9,2-10.7,6.3-16.4,3c-7.1-2.9-6.3-12.7-11.3-16.1 M301.8,117.3
	c1.8-23.5-12.2-15.2-21.2-20.4c-6.7-3.6-13.1-7.9-18-1.3c-3.3,3.1-4.1,9.9-7.1,12.4c-10.8,14,8.8,15.1,13.7,20 M343.1,83.1
	c3.2,0.4,7.6,2.7,9,5 M314.3,87.9c3.8,0.5,8.9,2.8,10.6,5.1 M280.6,97c37-11.8,71.5-16.9,103.6-15.4 M384.2,81.5
	c3.6-27.4-3.5-33.8-12.9-22.7 M445.5,86c-24.5-6.1-37.1,4.5-52.1-0.9 M362.5,81.5c10.9-39.5,31-50,35.8-28.5
	c16.9-21,35.1-14.1,47.1,33c26.1,10,25.2,40,12.6,50.9c-38.4,32.7-99.5-5-137-8.9"/>
</svg>
