<?xml version="1.0" encoding="utf-8"?>
<!-- Generator: Adobe Illustrator 21.1.0, SVG Export Plug-In . SVG Version: 6.00 Build 0)  -->
<svg version="1.1" id="Layer_1" xmlns="http://www.w3.org/2000/svg" xmlns:xlink="http://www.w3.org/1999/xlink" x="0px" y="0px"
	 viewBox="0 0 534 386" style="enable-background:new 0 0 534 386;" xml:space="preserve">
<style type="text/css">
	.st0{fill-rule:evenodd;clip-rule:evenodd;fill:#E9F6FD;}
</style>
<path class="st0" d="M347.8,4.2c10.8-5.4,65.2-16.6,110.4,53.6c100.5,156,75.9,331-107.8,314.3c-50.5-4.6-120.5,14.5-166.3,14
	c-39.4-0.4-84.8-12.7-79.6-24.9l22.2-51.7L89,276.3c-24.2-41-34.8-96.2-3-145.7c20.2-31.4,49.8-52.8,104.5-50.5
	c24,1,23.2-35.8,52.2-46.3c17.6-6.5,34.7,5.8,49.6,7C315.6,42.5,331.8,12.5,347.8,4.2z"/>
</svg>
