<?xml version="1.0" encoding="utf-8"?>
<!-- Generator: Adobe Illustrator 21.1.0, SVG Export Plug-In . SVG Version: 6.00 Build 0)  -->
<svg version="1.1" id="Layer_1" xmlns="http://www.w3.org/2000/svg" xmlns:xlink="http://www.w3.org/1999/xlink" x="0px" y="0px"
	 viewBox="0 0 534 386" style="enable-background:new 0 0 534 386;" xml:space="preserve">
<style type="text/css">
	.st0{fill-rule:evenodd;clip-rule:evenodd;fill:#E9F6FD;}
	.st1{fill-rule:evenodd;clip-rule:evenodd;fill:#CA6C32;}
	.st2{fill-rule:evenodd;clip-rule:evenodd;fill:#FBD4A4;}
	.st3{fill-rule:evenodd;clip-rule:evenodd;fill:#F1C078;}
	.st4{fill-rule:evenodd;clip-rule:evenodd;fill:#D88F55;}
	.st5{fill-rule:evenodd;clip-rule:evenodd;fill:#BD6E39;}
	.st6{fill-rule:evenodd;clip-rule:evenodd;fill:#A35939;}
	.st7{fill-rule:evenodd;clip-rule:evenodd;fill:#EDB581;}
	.st8{fill-rule:evenodd;clip-rule:evenodd;fill:#FFFFFF;}
	.st9{fill-rule:evenodd;clip-rule:evenodd;fill:#B9C071;}
	.st10{fill:none;stroke:#822E2D;stroke-width:1.7011;stroke-linecap:round;stroke-linejoin:round;stroke-miterlimit:22.9256;}
	.st11{fill-rule:evenodd;clip-rule:evenodd;fill:#E9A0A2;}
	.st12{fill-rule:evenodd;clip-rule:evenodd;fill:#D8736F;}
	.st13{fill-rule:evenodd;clip-rule:evenodd;fill:#1A1A18;}
	.st14{fill-rule:evenodd;clip-rule:evenodd;fill:#CAD44E;}
	.st15{fill:none;stroke:#6E6E6E;stroke-width:1.7011;stroke-linecap:round;stroke-linejoin:round;stroke-miterlimit:22.9256;}
	.st16{fill:none;stroke:#575656;stroke-width:1.7011;stroke-linecap:round;stroke-linejoin:round;stroke-miterlimit:22.9256;}
	.st17{fill-rule:evenodd;clip-rule:evenodd;fill:#BBE3F9;}
	.st18{fill-rule:evenodd;clip-rule:evenodd;fill:#BA6F2A;}
	.st19{fill:none;stroke:#008DD0;stroke-width:1.7011;stroke-linecap:round;stroke-linejoin:round;stroke-miterlimit:22.9256;}
	.st20{fill-rule:evenodd;clip-rule:evenodd;fill:#D9A061;}
	.st21{fill:none;stroke:#9F472B;stroke-width:1.7011;stroke-linecap:round;stroke-linejoin:round;stroke-miterlimit:22.9256;}
	.st22{fill-rule:evenodd;clip-rule:evenodd;fill:#D0935F;}
	.st23{fill:none;stroke:#9A5732;stroke-width:1.7011;stroke-linecap:round;stroke-linejoin:round;stroke-miterlimit:22.9256;}
	.st24{fill-rule:evenodd;clip-rule:evenodd;fill:#C8D312;}
	.st25{fill:none;stroke:#90BF28;stroke-width:1.7011;stroke-linecap:round;stroke-linejoin:round;stroke-miterlimit:22.9256;}
	.st26{fill:none;stroke:#868685;stroke-width:1.7011;stroke-linecap:round;stroke-linejoin:round;stroke-miterlimit:22.9256;}
	.st27{fill-rule:evenodd;clip-rule:evenodd;fill:#F7D2AE;}
	.st28{fill-rule:evenodd;clip-rule:evenodd;fill:#FDEAD2;}
	.st29{fill-rule:evenodd;clip-rule:evenodd;fill:#F7C6C7;}
	.st30{fill-rule:evenodd;clip-rule:evenodd;fill:#F3A5A6;}
	.st31{fill:none;stroke:#C14B6B;stroke-width:1.7011;stroke-linecap:round;stroke-linejoin:round;stroke-miterlimit:22.9256;}
	.st32{fill-rule:evenodd;clip-rule:evenodd;fill:#F7CC9D;}
	.st33{fill:none;stroke:#E30045;stroke-width:8.5055;stroke-linecap:round;stroke-linejoin:round;stroke-miterlimit:22.9256;}
</style>
<path class="st0" d="M347.8,4.2c10.8-5.4,65.2-16.6,110.4,53.6c100.5,156,75.9,331-107.8,314.3c-50.5-4.6-120.5,14.5-166.3,14
	c-39.4-0.4-84.8-12.7-79.6-24.9l22.2-51.7L89,276.3c-24.2-41-34.8-96.2-3-145.7c20.2-31.4,49.8-52.8,104.5-50.5
	c24,1,23.2-35.8,52.2-46.3c17.6-6.5,34.7,5.8,49.6,7C315.6,42.5,331.8,12.5,347.8,4.2z"/>
<path class="st1" d="M329.4,354.7l13.4-5.6c1.2,8.1,0.4,18.7-2.2,18.6C337.8,367.9,333.9,363.9,329.4,354.7z"/>
<path class="st1" d="M205.7,355.1l-13.4-5.6c-1.2,8.1-0.4,18.7,2.2,18.6C197.4,368.3,201.3,364.3,205.7,355.1z"/>
<path class="st2" d="M267.1,359.2c23.4,0.4,44.5-0.8,62.2-4.4l12-4.9c20.8-6.8,25.3-49.2,38-73.7l-223.5,4.3
	c13.1,24.8,14.5,60.3,37,69.4C206.7,358.5,236,359.9,267.1,359.2z"/>
<path class="st3" d="M269.1,355.5c-23.3,0-60.1-9.5-70.1-24.7c-14.8-23.8,34.8-13.6,108.5-25.7c23.1-4.8,59.3-4.4,72-29l-223.5,4.3
	c13.1,24.8,15.6,56.2,38.1,65.3C211.9,354.4,237.8,356.2,269.1,355.5z"/>
<path class="st4" d="M131.4,283.7l-24-20.6l35.2-13.7l9.2,25.4C147.6,278.8,140.7,282.4,131.4,283.7z"/>
<path class="st5" d="M182.2,343.2l-8.4-13.3c-14.7-3.7-33.6,0.6-44-11.1c10.8-11.1,15-23.5,11.2-37.5l-9.6,2.3l-13.6,11.1
	l-23.4,51.2l50.5,2.8c15.2,1,24-0.1,27.5-3C176,345.7,179.8,344.7,182.2,343.2z"/>
<path class="st6" d="M182.2,343.2l-8.4-13.3c1.9,8.5-65.4-0.9-52.7-8.2c10.8-11.1,23.7-26.4,19.9-40.4l-9.6,2.3l-13.6,11.1
	l-23.4,51.2l50.5,2.8c15.2,1,24-0.1,27.5-3C176,345.7,179.8,344.7,182.2,343.2z"/>
<path class="st6" d="M103.2,331.9L67,340.3c-7.2,9.5-3.3,15.4,8.9,20.3c8.3,4,56.3,8.4,59.8,3.9c5.4,0.9,11.7-0.9,13-3.2
	c3.6-0.6,6.9-3.5,5.2-5.5C141.3,338.2,107.1,351,103.2,331.9z"/>
<path class="st7" d="M174.7,255.8l-28.2-11.2l-1.3-30.1l36.6,1.8c4.8,5,5.8,11.1,5.9,18.5l-5.8-2.3
	C185.3,242.4,180.6,249.1,174.7,255.8z"/>
<path class="st6" d="M150.9,120.4l-32.3,9.2l-18.8-12.4C89,106.9,81.1,94.3,81.1,75.5c-0.1-4.8,5.9-7.3,10.7-0.6
	C110.5,96.7,144.3,98.3,150.9,120.4z"/>
<path class="st5" d="M106.2,151c-3.7,12.7-3.1,23.8,0.4,33.8l62.4,3.3l21.3-25.5c-4.1-26.9-15.4-45.6-46.2-41.7
	c2.6-8.1-0.7-8.4-10.1-0.8c1.6-10.9-5.3-6.6-10.5,6.2l-5.1,3.4c-13.3-19.7-54-15-82.5-25.4c-9.2-2.9-12.9,4-8.9,10.2
	C40.5,136.8,85,157.5,106.2,151z"/>
<path class="st6" d="M106.2,151c-3.7,12.7-3.1,23.8,0.4,33.8l7.8-4.6l8.6-3c-5.6-7.5-6-24.8-3.5-34.2c0.6-3.6-2.3-6.9-5.1-3.6
	c-11.8-17.4-80.8-29-74.5-10.7C57.7,144.7,87.5,155,106.2,151z"/>
<path class="st7" d="M179.7,169.9l-17.9,7.1c-20.5-4.6-39.3-3.5-55.2,7.8c-3.9,3.3-6.6,7.1-10.2,9.4c2.6,1.5,5.7,2.2,8.9,1.3
	c-1.2,2.6-3.1,4.5-5.8,5.2c10,5.2,27.7,29.5,63.1,19.4c12.6,3.3,19.5-0.7,20.9-8.4c17.2-9.5,23.3-26,21.7-47.4
	c-1.9,1.2-4.5,2.1-7.8,2.6c3.3-1.8,5-4.3,5-7.6C194.8,162.9,187.3,160.4,179.7,169.9z"/>
<path class="st4" d="M159,214.1c-30.3,5.3-53.6-18.6-35.9-36.9c-5.9,1.7-9.4,2.8-16.4,7.6c-3.9,3.3-6.6,7.1-10.2,9.4
	c2.6,1.5,5.7,2.2,8.9,1.3c-1.2,2.6-3.1,4.5-5.8,5.2c10,5.2,27.7,29.5,63.1,19.4c12.6,3.3,19.5-0.7,20.9-8.4
	c10.7-6.6,17.3-14.7,19.8-24.5c-5,8.2-9.7,16.2-21,22.2C176.5,218.9,165.7,218.4,159,214.1z"/>
<path class="st7" d="M50,316.9l-21.7-46.8c-5.1-6.1-17.1-0.9-24-10.4c-0.8,5.4,0,10.2,2.9,13.9c-2.3-1-4.5-2.3-6.4-4
	C3.9,305.8,25,321.9,50,316.9z"/>
<path class="st4" d="M35.7,298.5l-7.4-28.4c-5.1-6.1-17.1-0.9-24-10.4c-0.8,5.4,0,10.2,2.9,13.9c-2.3-1-4.5-2.3-6.4-4
	C3.7,285.5,21.2,311.8,35.7,298.5z"/>
<path class="st8" d="M160.3,173.2l-11.5,1.9l-11.4-0.7c-2.3-14.2,0.2-25.2,5.9-26.1C149.2,147.9,156.6,158.4,160.3,173.2z"/>
<path class="st8" d="M188.2,163.3l-8.7,6.6l-7.9-0.1c-2.7-13.5-4.1-27.6-0.4-28.8C176.9,140,183.8,148.4,188.2,163.3z"/>
<path class="st9" d="M147.2,156.7c5.5-1.5,8.9,4.6,11.5,11l1.6,5.5l-0.4,2l0.6,2.3l-16.4-2.9C141.4,165.9,143.4,157.8,147.2,156.7z"
	/>
<path class="st9" d="M176.6,149c4.5-1.9,8,4.7,10.8,11.6l0.8,2.7l-6.8,4.6l-2.5,2.7l-3.9-1.1C172.2,159,172.4,150.2,176.6,149z"/>
<path class="st10" d="M121.6,135.6c-9.4-27-57-20.9-85.6-31.4c-9.2-2.9-12.9,4-8.9,10.2c13.4,22.4,61.9,45.8,84,34.8"/>
<path class="st10" d="M164,178.2c-16.4-4.8-39.2-6.8-57.3,6.5c-3.7-11.8-4.4-22.7-0.4-33.8"/>
<path class="st10" d="M118.5,129.6l5.1-3.4c6-16,13.1-15,10.5-6.2"/>
<path class="st10" d="M129.7,125.1c17.7-22.1,20.5-3.8,6.8,3.7"/>
<path class="st10" d="M144.3,120.9c28-3.5,42.4,12.9,46.2,41.7"/>
<path class="st10" d="M150.1,191.6c7.1,11.4,20.7,6.8,22.8-1.9c4.6,5.3,14.5,1.9,13.7-8.7"/>
<path class="st10" d="M167.7,200.8c4,6.6,9.8,4.1,9.9-2.5"/>
<path class="st10" d="M168.4,214.8c2.4,3.3,7.5,1.9,7.9-1.2"/>
<path class="st10" d="M99.7,117.2C89,106.9,81.1,94.3,81.1,75.5c-0.1-4.8,5.9-7.3,10.7-0.6c18.7,21.8,52.5,23.5,59.1,45.5"/>
<path class="st10" d="M28.3,270.1c-5.1-6.1-17.1-0.9-24-10.4c-0.8,5.4,0,10.2,2.9,13.9c-2.3-1-4.5-2.3-6.4-4
	c3,36.3,24.2,52.3,49.1,47.4"/>
<path class="st10" d="M151.8,274.8c-4.2,4-11.1,7.6-20.4,8.8"/>
<path class="st10" d="M141,281.3c4.3,13-0.3,26.4-13.7,40.2"/>
<path class="st10" d="M129.9,318.8c7.7,10.6,29.3,7.4,44,11.1"/>
<path class="st10" d="M144.9,348.7c15.2,1,24-0.1,27.5-3c3.6-0.1,7.4-1.1,9.8-2.6"/>
<path class="st10" d="M165.8,337.6c4.2,1.6,6.2,4.4,6.6,8.2"/>
<path class="st11" d="M171.8,183.1l-9.3-3.6c-5.1-1.7-2.4-7,4.8-9.1c4.4-1.7,11.3-1.3,12.3,1.1C179.9,175.6,174.9,181,171.8,183.1z"
	/>
<path class="st12" d="M171.8,183.1l-9.3-3.6c-5.1-1.7,3.1,0.2,10.3-2c4.4-1.7,5.9-8.5,6.9-6C179.9,175.6,174.9,181,171.8,183.1z"/>
<path class="st10" d="M148.3,145.4c-5.3-3.8-11.4-0.1-12.4,5.7"/>
<path class="st10" d="M174,138.3c-2.6-2.2-7.3-1.3-7.6,3.7"/>
<ellipse class="st13" cx="154.2" cy="168.5" rx="4.6" ry="4.6"/>
<path class="st10" d="M137.4,174.4c-2.3-14.2,0.2-25.2,5.9-26.1c5.9-0.4,13.8,10.2,17.5,26"/>
<circle class="st8" cx="151.6" cy="165.9" r="2.1"/>
<circle class="st13" cx="181.6" cy="159.3" r="4.7"/>
<circle class="st8" cx="179" cy="156.7" r="2.1"/>
<path class="st10" d="M171.6,169.4c-3.9-14.2-4.1-27.1-0.3-28.3c5.6-1.1,12.5,7.4,16.9,22.3"/>
<ellipse class="st8" cx="144.2" cy="161.7" rx="2.7" ry="2.7"/>
<path class="st6" d="M306.3,210.2c17.8,0.9,32.8-1.2,45.1-6.6l5.5-21.3c-19.3,19.9-49.1,8.2-55,29.1L306.3,210.2z"/>
<path class="st10" d="M356.9,182.3c-19.3,19.9-51.2,9-55.1,29.2c5.7-1.1,6.7-2.2,13.1-5.3"/>
<path class="st10" d="M304.2,210.7c15.3,0.2,37-1,47.2-7.1"/>
<circle class="st8" cx="173.7" cy="153" r="2.9"/>
<path class="st4" d="M517.1,339.2l-13.2-2.7C512.4,327,514.7,329.9,517.1,339.2z"/>
<path class="st4" d="M478.9,331.8l-17.2-4.6C473.2,316.4,475.2,317.2,478.9,331.8z"/>
<path class="st4" d="M452.1,323.8c-5.6-2.5-10.2-5.9-13.6-10.2C452.2,307.9,453.2,308.4,452.1,323.8z"/>
<path class="st4" d="M433.2,304.7l-5.4-17.2C443.2,291.1,443.2,292.9,433.2,304.7z"/>
<path class="st4" d="M426.1,276.6l-1.3-19.6C440.4,264.9,437.7,266.6,426.1,276.6z"/>
<path class="st4" d="M424.9,241.8l1-20.6C441.5,229.1,442.1,234.4,424.9,241.8z"/>
<path class="st4" d="M427,204.8l1.6-23.9C445.9,188.7,446,196.4,427,204.8z"/>
<path class="st5" d="M401.5,222.9c-1.9,12-4.9,23.2-8.9,33.7c-9.6,2.4-18.7,28.4,3.4,72.9c-13.2,12.4-33.4,4.8-44.1,12.7l-6.9,5.9
	c20.1,5.8,60.4,1.9,84.7-3.8c22.7,11.5,70.1-1.9,103.4-0.1c-31.3-11.1-77.6-10.8-94.7-30.5c-8.6-11.9-13.5-30.3-13.6-56.6
	c-1-38.1,6.1-80.4,4.5-116.6l-19.4,2.3c3.7,3.9,0.6,36.1-3.7,51.6c-18.2,26.8-61.6,10.4-64.4,31.5l1.5-1
	C358.3,226.6,378.2,225.7,401.5,222.9z"/>
<path class="st6" d="M401.5,222.9c-1.9,12-4.9,23.2-8.9,33.7l9.3,4.2l7.2,7c-13.3,0.6-14.4,32.1-5.3,57.2
	c9.1,22.4-37,12.9-50.3,16.4l-10.6,7.9l0.5,5c37.4,3.9,60-2.6,86.4-9.9c22.7,11.5,70.1-1.9,103.4-0.1
	c-31.3-11.1-68.2,12.3-97.3-25.8c-8.6-11.9-10.8-35-11-61.3c-1-38.1,6.1-80.4,4.5-116.6l-19.2,2.3c9.6-1.1,6.9,36.1,2.6,51.6
	c-18.2,26.8-36.2,29.4-64.4,31.5l1.5-1C364.8,226.6,378.2,225.7,401.5,222.9z"/>
<path class="st7" d="M370.9,138.1c16.2,3.5,29.1,5,39,4.6c2.9,10.2,1.4,27.9-3.7,51.6c-19,26-59.4,10.2-64.4,31.5l1.5-1
	c16.3,2.1,36,1.1,58.2-1.8c-2.8,13.4-5.5,24.5-8.9,33.7l-8.1,2.3c-15.6-14.7-46-12.2-57.3-14.7c1-13.2,3-18.5,13.2-41.2
	c-1-6.4,4.8-18.8,13.7-29.7C354,163.3,360.3,151.4,370.9,138.1z"/>
<path class="st4" d="M370.9,138.1c16.2,3.5,29.1,5,39,4.6c2.9,10.2,1.4,27.9-3.7,51.6c-19,26-59.4,10.2-64.4,31.5l1.5-1
	c16.3,2.1,36,1.1,58.2-1.8c-2.8,13.4-5.5,24.5-8.9,33.7c-6.1,1.4-10,4.8-11.9,10.1c0.9,3.2,1.5,5.5-1.3,9.4
	c1.7,20.2,8.1,34.5,14.7,49.4c-17.3-46.4-10.7-65.3,1.9-67.7c-6.3-1.4-11.7,0.4-15.4,9c-2.4-7.9-13.4-13.6-33-16.9l0.9-1.6
	l-16.6-3.5c0.5-12.6,5-33.7,15.7-44.1c-6.7-3.9,3.6-23.6,13.1-29.5C357.2,168.2,363,149.1,370.9,138.1z"/>
<path class="st7" d="M357,169.3c12.5-5.7,36-1.7,40.8,6.2c-12.1-6.4-26.6-7.1-43.8-2.2L357,169.3z"/>
<path class="st7" d="M343.4,198.4c8-3.9,34.3-4,36,2c-19.5-2-29.4-1.3-39.3,2.4L343.4,198.4z"/>
<path class="st4" d="M405.8,199c-8.5,7.8-20,12.8-31.4,14.3C386.4,214.8,399.5,209.7,405.8,199z"/>
<path class="st4" d="M379.4,276.1c1.2,18.3,9.4,37,16.5,53.3c-12.7,11.1-29.9,4.9-44.1,12.7c13.8-18.7,17-42.4,25.5-63.7
	L379.4,276.1z"/>
<path class="st4" d="M383.2,280.9c-1.3-15,5-22.3,10.9-22.4C386.3,254.5,379.7,263,383.2,280.9z"/>
<path class="st10" d="M396,329.4c-13,11.9-29.9,5-44.1,12.7"/>
<path class="st10" d="M429.7,344.2c-15.3,3.9-42.3,13.6-86.4,9.9"/>
<path class="st10" d="M438.5,313.6c13.7-5.7,14.7-5.3,13.6,10.2"/>
<path class="st10" d="M461.8,327.2c11.5-10.8,13.4-10,17.2,4.6"/>
<path class="st10" d="M503.9,336.5c8.4-9.6,10.7-6.6,13.2,2.7"/>
<path class="st10" d="M370.9,138.1c-11.6,14.8-16.8,26.2-16.8,35.2c-5.7,6.3-16,25.2-13.7,29.7c-6,12-11.5,28.5-13.2,41.2"/>
<path class="st10" d="M354.1,173.3c9.3-4.6,36.4-4.2,43.8,2.2"/>
<path class="st10" d="M340.3,203c7.7-3.7,20.7-4.6,39.1-2.5"/>
<path class="st10" d="M409.9,142.7c3.7,3.9,0.6,36.1-3.7,51.6c-18.2,26.8-61.6,10.4-64.4,31.5c4.2-3,8-5.5,11.2-7.6"/>
<path class="st10" d="M343.3,224.7c20.7,2.3,42.9,1.2,66.5-3.3"/>
<path class="st10" d="M401.5,222.9c-2.1,12.4-5.2,23.9-8.9,33.7"/>
<path class="st10" d="M379.4,276.1c1.7,18.7,12.5,45.7,18.6,57.5 M409.1,267.8c-9.1-12.8-23.3-15.7-28.5-0.9"/>
<path class="st4" d="M429.2,170l0.3-21C443.3,156.7,444.3,161.6,429.2,170z"/>
<path class="st10" d="M429.4,140.4c2.8,57.5-16.5,134.2,8.3,172.5c15.6,21.2,69.1,20,95.5,31.1c-38.2-3.1-94.2,19.1-114.7-9.4"/>
<path class="st10" d="M429.5,149c13.7,7.7,14.8,12.6-0.3,21"/>
<path class="st10" d="M428.7,180.9c17.2,7.7,17.3,15.4-1.6,23.9"/>
<path class="st10" d="M425.9,221.2c15.6,7.9,16.1,13.2-1,20.6"/>
<path class="st10" d="M424.8,257c15.6,7.9,12.8,9.6,1.3,19.6"/>
<path class="st10" d="M427.9,287.6c15.4,3.5,15.3,5.3,5.4,17.2"/>
<path class="st5" d="M321.1,127.9c-11.6,0.1-21.4,1.6-29.3,4.7c-11.4,7.1-19,5.6-22.7-4.5c-4.6-6.7-24.7-3.8-13.7-20l3.6-6.2
	c3.3-8.9,9.3-12.6,21.6-4.9c22.1-7.4,47.9-13.2,82-15.5c10.9-39.5,31-50,35.8-28.5c16.9-21,35.1-14.1,47.1,33
	c26.3,12.5,25.2,40,12.6,50.9C419.7,169.5,358.6,131.9,321.1,127.9z"/>
<path class="st8" d="M371.3,58.9l-4.6,10l-4.2,12.6h21.6C387.8,54.1,380.7,47.7,371.3,58.9z"/>
<path class="st14" d="M380.8,81.6l-18.2-0.1c2.5-12.4,7.5-21.5,13.1-21.3C380.7,60.6,382.1,69.9,380.8,81.6z"/>
<path class="st6" d="M435.9,84.3c-0.3-26.1-13.8-53.4-37.5-31.4c16.9-21,35.1-14.1,47.1,33L435.9,84.3z M321.1,127.9
	c-11.6,0.1-21.4,1.6-29.3,4.7c-11.4,7.1-19,5.6-22.7-4.5c-4.6-6.7,11.7,12.6,22.7-3.6c33-5.9,74.9,2.1,116.6-3.5
	c10.2-2.2,19.3-8.7,27.3-19.5c17.3,5.9,24.3,24.1,16.2,39.9C411.5,163.8,373.3,136.5,321.1,127.9z"/>
<ellipse transform="matrix(8.884244e-02 -0.996 0.996 8.884244e-02 261.7992 440.2407)" class="st13" cx="371.5" cy="77" rx="5.8" ry="5.8"/>
<ellipse transform="matrix(8.942497e-02 -0.996 0.996 8.942497e-02 268.2023 438.9866)" class="st8" cx="374.2" cy="72.8" rx="2.6" ry="2.6"/>
<path class="st4" d="M280.6,97c30-10.3,64.5-15.5,103.6-15.4L350,85.9l2.2,2.2c-6.4-3.1-17.1-2.5-32.1,1.6l4.9,3.4
	c-5.6-3.6-16.4-1.3-37.1,6l7.4,1.3c6.1,2.9,7.4,9.2,6.5,17c-4.5-16.1-9.9-12.3-19.5-15.6c-6.6-2-13.1-9.5-19.8-6.1
	C266.6,89.5,273.2,92,280.6,97z"/>
<path class="st8" d="M293.1,132.6c-4.4,1.4-9.2,3.7-13.1,4.2c2.1,5.5,3.7,8,4.8,7.7C286.9,144.4,289.8,139.5,293.1,132.6z"/>
<path class="st15" d="M280,136.8c2.1,5.5,3.7,8,4.8,7.7c2.1-0.2,5-5,8.3-12"/>
<path class="st8" d="M269.1,128.1l-10.5-5.1c1.5,6.6,4,12.6,5,12.4C265.4,135.2,266.9,132.4,269.1,128.1z"/>
<path class="st15" d="M258.5,123c1.5,6.6,4,12.6,5,12.4c1.9-0.2,3.4-3,5.5-7.3"/>
<path class="st4" d="M449.6,90.8c7.6,6.8,12.1,15.4,14.8,26.5C465.5,105.3,460.5,95.8,449.6,90.8z"/>
<path class="st8" d="M428.8,84c-11.1,0.6-23.8,4.5-33.4,1.7c1.1-21.6,10.8-33.4,19.7-33.5C424.7,53.6,430.6,68.5,428.8,84z"/>
<path class="st14" d="M421,84.6c-8.5,0.4-16,3.6-25.6,1.1c0.9-17.2,7.3-25.4,14.2-25.2C417.2,61.6,420.5,73,421,84.6z"/>
<path class="st10" d="M301.8,117.3c1.8-23.5-12.2-15.2-21.2-20.4c-6.7-3.6-13.1-7.9-18-1.3c-3.3,3.1-4.1,9.9-7.1,12.4
	c-10.8,14,8.8,15.1,13.7,20"/>
<path class="st6" d="M286.8,107.4c0.3,3.3,4.7,13.7-2,12C279.3,117.2,283.8,110,286.8,107.4z"/>
<path class="st10" d="M286.8,107.4c0.3,3.3,4.7,13.7-2,12C279.3,117.2,283.8,110,286.8,107.4z"/>
<path class="st6" d="M268.9,98.9c-0.4,3,1.1,13-4.3,10.1C260.3,106,265.9,100.6,268.9,98.9z"/>
<path class="st10" d="M268.9,98.9c-0.4,3,1.1,13-4.3,10.1C260.3,106,265.9,100.6,268.9,98.9z"/>
<path class="st8" d="M429.2,110.1c-4.7,3.2-9.2,6-13.7,8.5c3.5,5.4,11.4,11.1,12.1,10.5C429.2,128.2,430.1,116,429.2,110.1z"/>
<path class="st16" d="M415.5,118.5c3.5,5.4,11.4,11.1,12.1,10.5c1.5-0.8,2.4-13,1.5-18.9"/>
<path class="st8" d="M371.8,126.5l-10,0.6c1.8,5.2,3.2,7.6,4.2,7.3C367.9,134.2,369.6,131.1,371.8,126.5z"/>
<path class="st16" d="M361.9,127.1c1.8,5.2,3.2,7.6,4.2,7.3c1.8-0.2,3.6-3.3,5.8-7.9"/>
<path class="st10" d="M343.1,83.1c3.2,0.4,7.6,2.7,9,5"/>
<path class="st10" d="M314.3,87.9c3.8,0.5,8.9,2.8,10.6,5.1"/>
<path class="st10" d="M428.2,101.9c7.1-3.7,11.6,2,9.9,6.6"/>
<path class="st10" d="M384.2,81.5c3.6-27.4-3.5-33.8-12.9-22.7"/>
<path class="st13" d="M405.5,74.7c3.8,0.3,6.6,3.7,6.2,7.4c-0.2,1.9-1.1,3.5-2.4,4.6h-8.8c-1.7-1.4-2.6-3.5-2.4-5.9
	C398.4,77.1,401.7,74.4,405.5,74.7z"/>
<ellipse transform="matrix(8.887656e-02 -0.996 0.996 8.887656e-02 295.123 475.8363)" class="st8" cx="407.7" cy="76.6" rx="3.1" ry="3.1"/>
<ellipse transform="matrix(8.918376e-02 -0.996 0.996 8.918376e-02 310.2867 476.8543)" class="st8" cx="415.9" cy="68.8" rx="3.7" ry="3.7"/>
<ellipse transform="matrix(8.927365e-02 -0.996 0.996 8.927365e-02 279.5297 438.008)" class="st8" cx="379.3" cy="66.2" rx="3.5" ry="3.5"/>
<path class="st10" d="M435.4,102.9c-24.2,36.4-103.4,16.7-143.6,29.7c-3.9,2-10.7,6.3-16.4,3c-7.1-2.9-6.3-12.7-11.3-16.1"/>
<path class="st2" d="M381.2,270.9c-3,17.4-43.4,25.2-114.7,25.2c-82.8,1.8-118.2-9.4-114.5-25.2c0.2-6.9,8.3-12.8,24.3-17.2
	c18.9-5.1,48.9-8.1,90.4-8.1C348.6,244.3,381.6,253.5,381.2,270.9z"/>
<path class="st4" d="M427.8,53.1c-7.5-5.6-15.9-9.1-24.7,0.3C410.7,40.1,420.8,44,427.8,53.1z"/>
<path class="st4" d="M396,51c-3.3-5.5-9.7-8.5-17.1-1.1C385.7,40.7,393.4,42.2,396,51z"/>
<path class="st17" d="M165.5,270.3c1.6-7.2,11.7-11.9,27.6-15c9.1-19.7,9.1-44.9,27.4-59.2c14.8-11.8,47-20.7,44.4-35.4
	c14.4,1.2,18.5,19.8-10.3,28.2c35.6-1.1,31.3,35.4-12.7,46c2.5-9-3.1-8.8-9.7-7.3c-5.8,6.7-9.3,14.7-10.5,24.2l47-1.5l76,4.5
	c14.9,4.2,23.6,8,22.9,15.5c-0.5,12-33.5,20-101.1,20C194.2,291.4,165.1,284.1,165.5,270.3z"/>
<path class="st10" d="M381.2,270.9c-0.5,15.1-38,25.3-114.7,25.2c-81.9,1.4-114.9-7.9-114.5-25.2"/>
<path class="st10" d="M367.6,270.3c-0.5,12-33.5,20-101.1,20c-54.1,0.8-84-3.1-95.4-10.9"/>
<path class="st10" d="M222.3,247c13.1-0.9,27.6-1.4,44.4-1.4c81.9-1.4,114.9,7.9,114.5,25.2 M176.8,253.6c5.5-1.5,11.8-2.7,19.1-3.8
	 M151.9,270.9c0.2-5.8,5.9-10.8,17.2-14.9"/>
<path class="st6" d="M202.7,226.1l-4,14.9l-3.4,10.1l-7.8-0.2l-7.6-1.7c3.3-5.6,4-11.1,2.1-16.6l5.8,2.3c0.2-6.2-0.8-12-4.4-16.7
	C189.4,222.7,194.8,225.1,202.7,226.1z"/>
<path class="st10" d="M221.6,251.8c12.8-1,27.7-1.5,45-1.5c72.1-1.1,101.2,6.2,100.9,20 M179.7,258.8c3.7-1.2,8.2-2.4,13.4-3.4"/>
<path class="st18" d="M329.6,270.9l-7.1-2.8c-5.2,4.7-10.5,4.8-15.9,0.3c-6.1,5.2-12.3,5.8-18.9,1.7c-2.2,3.4-7.1,4.6-14.9,3.6
	c-4.4-4.3-8.3-10-11.3-17.9l87-7.6C343.2,258.3,336.9,265.8,329.6,270.9z"/>
<path class="st10" d="M155.9,280.4c13.1,24.8,14.5,60.3,37,69.4c13.9,8.7,43.2,10.1,74.3,9.4"/>
<path class="st10" d="M378.6,277.2c-13.1,24.8-14.6,63.5-37.1,72.6c-13.9,8.7-43.2,10.1-74.3,9.4"/>
<path class="st10" d="M342.9,349.2c1.2,8.1,0.4,18.7-2.2,18.6c-2.9,0.1-6.8-3.8-11.2-13"/>
<path class="st10" d="M192.3,349.6c-1.2,8.1-0.4,18.7,2.2,18.6c2.9,0.1,6.8-3.8,11.2-13"/>
<path class="st10" d="M179.8,249.1c4,1.2,10.3,2.6,15.5,1.9"/>
<path class="st19" d="M269.6,279.6c5.1,3.8,13.9,3.7,20.7,0.4"/>
<path class="st20" d="M277.9,243.2l-16.3,12.5c39.7,2,73.4-1.8,87-7.6C336.7,244.2,315.1,242.1,277.9,243.2z"/>
<path class="st21" d="M277.9,243.2l-16.3,12.5c39.7,2,73.4-1.8,87-7.6C336.7,244.2,315.1,242.1,277.9,243.2z"/>
<path class="st22" d="M306.8,249.6l-1.4-74.4c0-1.2-2.6-1.2-2.7,0l-1.9,74.5C300.7,251.3,306.8,251.3,306.8,249.6z"/>
<path class="st23" d="M306.8,249.6l-1.4-74.4c0-1.2-2.6-1.2-2.7,0l-1.9,74.5C300.7,251.3,306.8,251.3,306.8,249.6z"/>
<path class="st24" d="M302.3,191.5l0.3-10.3c13.6-11.1,15.6,1.1,28.9-8l-3.4,6.8l6.1,1.5C319.5,195.8,319,180.5,302.3,191.5z"/>
<path class="st25" d="M302.3,191.5l0.3-10.3c13.6-11.1,15.6,1.1,28.9-8l-3.4,6.8l6.1,1.5C319.5,195.8,319,180.5,302.3,191.5z"/>
<path class="st8" d="M306.8,249.6c47-11.3,44-62-4.7-47C329.3,196.9,326.3,233.8,306.8,249.6z"/>
<path class="st26" d="M306.8,249.6c47-11.3,44-62-4.7-47C329.3,196.9,326.3,233.8,306.8,249.6z"/>
<path class="st21" d="M348.6,248.2c-5.3,10.1-11.6,17.7-19,22.7"/>
<path class="st21" d="M261.4,255.8c2.3,6.6,5.8,12.8,11.3,17.9"/>
<path class="st5" d="M134.3,262.9c-6.7,0.9-9.5,2.8-8.4,5.6c20.8,37.1-14.5,46.9-22.7,63.3c2.9,18.1,39.5,8.6,49.4,22.3
	c-0.8,2.4-11.2,7.3-18.2,6.7c-35.7,2.7-59,0.1-69.8-7.9c-6.3-9.5,12.1-16.9-0.8-25.4c-20-11-32.9-29.1-35.5-57.5
	c-1.9-54,45.5-48,72.1-68.9l2.1,1.7c12,8,19.3,20.7,48.9,19.5c-1,4.1,1.7,9.6,3.6,14c10.5,17.5,26.5,26.1,48.5,29
	c2.2,0.2,3.1,2.5,1.3,4c1.6,0.9,1.3,3.3-0.2,4.8C197.7,283.9,149.4,282.7,134.3,262.9z"/>
<path class="st6" d="M134.3,262.9l-58.7,57.2c18.5,13.9-21,34.2,13.9,40.8l-13.7-0.2l-11.3-7.6c-6.3-9.5,12.1-16.9-0.8-25.4
	c-20-11-38.4-38.8-25.9-71.3c1.2,37.3,16.4,51.2,37.7,63.8L134.3,262.9c-1.8-3-2.4-7.5,2.1-11.1c5.3,21.6,64.1,30.7,68.6,17.5
	c1.6,0.9,1.3,3.3-0.2,4.8C197.7,283.9,149.4,282.7,134.3,262.9z"/>
<path class="st19" d="M244.6,217.1c-37.3,22.7-23.6,70.7,0.3,51.6c2.3,6.8,17.1,7,20.1,0.2c3.5,6.6,19.1,6.5,22.7,1.1
	c4.9,4.4,15.9,3,18.9-1.7c2.8,3.9,12.4,4.6,15.9-0.3c4.8,4,12.6,3.6,22.5,0"/>
<path class="st10" d="M204.9,269.3c-2.2,0.4-4.4,0.4-6.3-0.3"/>
<path class="st10" d="M204.7,274.2c-2.2,0.4-4.4,0.4-6.3-0.3"/>
<path class="st19" d="M258.3,161.1c22.8-3.6,25.5,19.1-3.8,27.9c31.2-2.8,38.2,35-17.2,47"/>
<path class="st19" d="M232,227.6c9.2-4.8,13,2.4,9.8,7.3"/>
<path class="st10" d="M362.5,81.5c10.9-39.5,31-50,35.8-28.5c16.9-21,35.1-14.1,47.1,33c26.1,10,25.2,40,12.6,50.9
	c-38.4,32.7-99.5-5-137-8.9"/>
<path class="st10" d="M280.6,97c37-11.8,71.5-16.9,103.6-15.4"/>
<path class="st10" d="M445.5,86c-24.5-6.1-37.1,4.5-52.1-0.9"/>
<path class="st10" d="M395.4,85.7c1.1-21.6,10.8-33.4,19.7-33.5c9.6,1.4,15.5,16.3,13.7,31.9"/>
<path class="st10" d="M99.9,338.8c7.7-25.1,50.3-30,23.1-75.4"/>
<path class="st10" d="M100.4,201.2c-23.3,19.2-73.5,15.6-72.1,69c1.3,25.5,16.2,45.7,35.5,57.5c5.7,3.8,6.2,7.9,3.2,12.7
	c-7.2,9.5-3.3,15.4,8.9,20.3c8.3,4,56.3,8.4,59.8,3.9c5.4,0.9,11.7-0.9,13-3.2c3.6-0.6,6.9-3.5,5.2-5.5c-12.6-17.7-46.8-4.9-50.7-24
	"/>
<path class="st10" d="M141.4,352.2c4.7,2.4,6.8,5.5,7.3,9.2"/>
<path class="st10" d="M129,355.8c3.6,1.4,5.7,4.5,6.7,8.7"/>
<path class="st10" d="M106.7,184.8c-3.9,3.3-6.6,7.1-10.2,9.4c2.6,1.5,5.7,2.2,8.9,1.3c-1.2,2.6-3.1,4.5-5.8,5.2
	c10,5.2,27.7,29.5,63.1,19.4c9.3,3.8,19.5-0.7,20.9-8.4c17.2-9.5,23.3-26,21.7-47.4c-1.9,1.2-4.5,2.1-7.8,2.6c3.3-1.8,5-4.3,5-7.6
	c-7.6,3.5-14.4,0.6-23.6,11.2"/>
<path class="st27" d="M44,315c-11.6-1.5-21.3-6.8-31-15.7C19.7,311.4,30.5,317.3,44,315z"/>
<path class="st4" d="M75.3,217.4c-11,7.3-31.8,17.5-40.5,30.6C40.8,232.3,58.9,221.7,75.3,217.4z"/>
<path class="st4" d="M125.4,274.2c2.8,11.1-1.1,26.2-7.2,38C129.2,302.2,132.9,287.2,125.4,274.2z"/>
<path class="st28" d="M356.7,319.5c-2.4,11.2-12.6,23-23.3,30.8C347.7,346.2,357.7,334.4,356.7,319.5z"/>
<path class="st4" d="M194.7,264.9c-11.4-0.3-24.9-8.2-34.5-17.4C166.2,258.8,181.2,266.5,194.7,264.9z"/>
<path class="st4" d="M144,124.8c9.2-2,20.6,0.6,30.1,6C166.8,123,154.9,119,144,124.8z"/>
<path class="st4" d="M103.5,339.5c9.3,7.9,33.9,4.5,41.5,11.4C136.7,345.9,113.4,351.8,103.5,339.5z"/>
<path class="st29" d="M50.4,125.6c0.4-4.5,50.7-3,64.2,13.8c2.8,2.8,0.6,7.6-7.4,8.3C76.6,151.8,49.7,133.1,50.4,125.6z"/>
<path class="st4" d="M117.5,131.7c-10-8.4-30.6-15.2-45.1-16.5C86.2,114.2,109.4,117.6,117.5,131.7z"/>
<path class="st30" d="M92.6,146.1c-14-3.6-21.6-7.4-35.4-14.7C58.3,136.9,79.6,146,92.6,146.1z"/>
<path class="st5" d="M141.5,110.8c-9.2-6.6-27-12-37.1-22.1C116,95.6,134.3,102.1,141.5,110.8z"/>
<path class="st31" d="M171.8,183.1l-9.3-3.6c-5.1-1.7-2.4-7,4.8-9.1c4.4-1.7,11.3-1.3,12.3,1.1C179.9,175.6,174.9,181,171.8,183.1z"
	/>
<path class="st10" d="M147.7,192.9c-0.3-2.2,1.4-3.6,3.1-3.4"/>
<path class="st10" d="M189.1,179.8c-1.2-1.8-3.4-1.8-4.5-0.4"/>
<path class="st32" d="M151.2,179.2c-7.7-1.8-20.2-1.2-27.7,1.5C129,175.3,141.7,174.3,151.2,179.2z"/>
<path class="st32" d="M181.4,170.5c5.3-3.6,14.2-6.4,18.1-8.5C194.3,163.1,186.2,162.8,181.4,170.5z"/>
<path class="st10" d="M181.8,216.4c4.8,5,5.8,11.1,5.9,18.5l-5.8-2.3c3.4,9.8-1.3,16.5-7.2,23.3"/>
<path class="st10" d="M183.3,218.2c6,4.5,11.4,6.9,19.4,7.9"/>
<path class="st19" d="M264.8,160.8c2.9,16.4-37.1,25.7-49,39.7c-18,19.2-13.7,52.3-28.7,60.9"/>
<path class="st10" d="M155.1,236.3c10.5,17.5,26.5,26.1,48.5,29c2.2,0.2,3.1,2.5,1.3,4c1.6,0.9,1.3,3.3-0.2,4.8
	c-7,9.7-55.3,8.6-70.5-11.3"/>
<path class="st4" d="M178.2,229.9c1.8,7-0.7,16.5-4.5,23.8C180.6,247.4,183,238,178.2,229.9z"/>
<path class="st33" d="M332.2,183.4c-12.7,11-13.9-2.5-29.8,8.1l-0.3,11"/>
<path class="st33" d="M306.8,249.6c47-11.3,44-62-4.7-47"/>
<path class="st33" d="M258.3,161.1c22.8-3.6,25.5,19.1-3.8,27.9c31.2-2.8,38.2,35-17.2,47"/>
</svg>
