<?xml version="1.0" encoding="utf-8"?>
<!-- Generator: Adobe Illustrator 21.1.0, SVG Export Plug-In . SVG Version: 6.00 Build 0)  -->
<svg version="1.1" id="Layer_1" xmlns="http://www.w3.org/2000/svg" xmlns:xlink="http://www.w3.org/1999/xlink" x="0px" y="0px"
	 viewBox="0 0 520 421" style="enable-background:new 0 0 520 421;" xml:space="preserve">
<style type="text/css">
	.st0{fill-rule:evenodd;clip-rule:evenodd;fill:#F7C6C7;}
	.st1{fill-rule:evenodd;clip-rule:evenodd;fill:#E3A921;}
	.st2{fill-rule:evenodd;clip-rule:evenodd;fill:#FFF2AF;}
	.st3{fill-rule:evenodd;clip-rule:evenodd;fill:#FFE07D;}
	.st4{fill-rule:evenodd;clip-rule:evenodd;fill:#FCCA00;}
	.st5{fill:none;stroke:#EB99B1;stroke-width:1.7;stroke-linecap:round;stroke-linejoin:round;stroke-miterlimit:22.9256;}
	.st6{fill-rule:evenodd;clip-rule:evenodd;fill:#FFFFFF;}
	.st7{fill-rule:evenodd;clip-rule:evenodd;fill:#B9C071;}
	.st8{fill-rule:evenodd;clip-rule:evenodd;fill:#1A1A18;}
	.st9{fill-rule:evenodd;clip-rule:evenodd;fill:#E9A0A2;}
	.st10{fill-rule:evenodd;clip-rule:evenodd;fill:#D8736F;}
	.st11{fill-rule:evenodd;clip-rule:evenodd;fill:#EB99B1;}
	.st12{fill:none;stroke:#A16215;stroke-width:1.7;stroke-linecap:round;stroke-linejoin:round;stroke-miterlimit:22.9256;}
	.st13{fill:none;stroke:#BC5038;stroke-width:1.7;stroke-linecap:round;stroke-linejoin:round;stroke-miterlimit:22.9256;}
</style>
<polygon class="st0" points="158.2,349.6 171.2,336.3 184.3,338.5 180.7,353.3 175.1,393.1 157.5,393.1 "/>
<path class="st1" d="M195.9,360c-4.9-3.1-9.6-2.8-13.6-1.8l2.7-16.9l-14.3-10l-14.3,7.9l-11.8-25l47.9,0.9l9.4,7.8
	c6.9,2.8,13.4,3,19.6,0.5c5.1,2.1,5.5-3.9,2.2-11.1l-10.3-13.3c11.4-11.6,18.7-17.7,23.4-13.3c3.2-2.4,8-2.3,9.9,0.8
	c11.6,1.8,1.8,21.4-4.8,18.8C224.8,350.5,208.6,365,195.9,360z"/>
<path class="st2" d="M169.5,290l-39.1-45l68.8-6.6c9.1,13.9-1.8,24.5-1.6,28.3l-3-5C192.2,278.2,176.2,278.6,169.5,290z"/>
<path class="st2" d="M61.4,370.2l-19.6-53.7c-7.8-13.4-30.5-13.3-30.4-28.7c-5.5,4.9-5.8,11.4-3.6,18.6l-3.5-2.2l-3.2-0.4
	c6.2,11.9-0.1,38,11.3,52.6C23.6,372.5,43.4,376.7,61.4,370.2z"/>
<path class="st3" d="M48,351.7l-6.2-35.1C34,303.3,11.3,303.4,11.4,288c-5.5,4.9-5.8,11.4-3.6,18.6l-3.5-2.2L1.1,304
	c6.2,11.8,2.8,22.5,14.2,37.2C21.6,349.4,39,356.4,48,351.7z"/>
<path class="st4" d="M160.2,403.2c13.2,1.1,20.7-17.5,21.8-42.7l3-19.2l-2.9,0.9c-5.2,11.4-4.9,31.5-9.5,41.9
	c-11.3,23.5-24.1-10.2-1.4-47.8c2.2,2.7,4.5,3.3,6.8,1.8c1.5,5.8,10,6.1,13-7.8l-1.6,0.6l-1.6-0.3l-9.2-5.1l-10.4-2.9l-11.9,16.7
	c1.1-8.4-1.2-16.1-8.5-23c12.2,6.1,31.4,6.6,39.9,14.3c2.4,0.7,4.1,0.1,4-3.5c8.9-20.8-26-27.1-37-64.2c-1.1-6-1.2-11,0.6-14
	l-40.7-18.3c-6.6,15.2-17.4,26.3-32.4,33.3c-51.1,20.9-50,79.3-21.2,106.2c23.7,20.4,55.6,27.1,85.3,26
	C149.3,400.2,155.4,403.8,160.2,403.2z"/>
<path class="st0" d="M209.2,354.5c10.2-0.8,21.3-18.5,33.2-48.9l-2.5-2.3l-0.4-2.2l-3.5,1.2l-4.8,0.1l-18,22.8
	C205.3,340.3,201.2,354.5,209.2,354.5z"/>
<path class="st4" d="M221.2,323.6c-13.2,4.6-22.4-0.4-29.7-9.8l-6.7-8.7l-15.1-15.6c6.2-10.2,20.4-10.4,24.8-28.1l3,5
	c10.2,36.4,31.6,44.7,28.6,54.7C226.1,322.9,223.9,325.8,221.2,323.6z"/>
<path class="st1" d="M160.2,403.2c-5.6-0.8-9.5-6.1-11.7-16c-29.9,2.4-61.2-7.3-68.1-37.1c-21.3-19-8.1-51.8,28.6-71.9l-0.8,7.4
	c16.8,25.4,39.7,30.5,39.7,30.5l8.6,3.5l9.1,2.1c-28.5-14.7-26.9-25.1-32.2-38.5c-8.5-23.9,7.2-26.8,13.5-32.3l-27.7-12
	c-6.6,15.2-21.7,18-36.8,25.1c-51.1,20.9-50,79.3-21.2,106.1c23.7,20.4,55.6,27.1,85.3,26C149.3,400.2,155.4,403.8,160.2,403.2z
	 M84,346.8c6,14.3,16.3,24.8,31,34.1C97.2,376.6,85.9,364.9,84,346.8z M221.2,323.6c-13.2,4.6-22.4-0.4-29.7-9.8l-6.7-8.7
	l-15.1-15.6l5.2-5.8l4.1-2.8C182.6,292.3,204.3,328.8,221.2,323.6z"/>
<path class="st5" d="M171.2,336.3c-14.7,20.4-15.1,54.2-7.5,55.2c3.2,1,6.2-1.5,8.9-7.5"/>
<path class="st5" d="M213.2,325.2c-7.9,15-11.8,30.6-4,29.3c3.1-0.2,6.8-2.3,11.3-7 M231.7,301.9c-0.4,0.4-0.7,0.8-1.1,1.2
	c-2.4,2.7-4.7,5.7-7,8.7"/>
<path class="st1" d="M180.3,130.7l-20.2-2.6l-4.5-8.2c9.4-64.6,47.3-49.5,70.3-67.4c8.9-6.3,12.1,1,9.9,11.5
	c-1.8,12.5-13.3,29.3-26.2,37.1C197,108.8,193.3,125,180.3,130.7z"/>
<path class="st2" d="M201.2,240.7c-3.3,9.9-11.7,11.7-25.3,5.4c-30.8,11-54.8,5.2-68.8-25.3l-2.3-1.2l-4.6-4l5.7-1.3l5.3-2.5
	c-3.9,1.5-7.4,0.6-10.4-2.5l4.9-2.5l4.5-3.7l8.4-14.9l56.4,13.4c2.6,2.7,8.1,4.3,16.5,4.8c6.7-5.3,9.1-10.2,7.4-14.9
	c9.1-12.9,24.8-15,32.3-0.3c-2.8-0.3-5.7-0.2-8.8,0.3c4.1,0.4,7,2,8.7,4.8C221.1,200.2,228.5,225,201.2,240.7z"/>
<path class="st3" d="M201.2,240.7c-3.3,9.9-14.4,16.4-28,10.1c-10,3-15.7,2.7-18.6,0.3c-20,0.2-37-7-47.5-30.3l-2.3-1.2l-4.6-4
	l5.7-1.3l5.3-2.5c-3.9,1.5-7.4,0.6-10.4-2.5l4.9-2.5l4.5-3.7l8.4-14.9l12.5,7.2c-16.4,28.4,11.3,51.6,33.6,46.2
	c18.3,0.2,20.7,8.7,34.4-3.3c8.9-1.9,14.6-5.6,17.2-11l-6,6.8L201.2,240.7z"/>
<path class="st4" d="M96,146.6l18.8,14.2c-7.4,8.3-7,23.9-4.5,42.3c9.4-8.5,23.5-9.4,40.2-6.1l28.3-1l6.3-3.2l6.7-1.8l23-10.4
	c-7.9-34.9-29.5-56.2-54.7-52.4c10.8-12.5-0.3-15.5-19.8,3.4c11.4-14.1,5.9-23.4-8.9-2.3C107.9,95.9,97.8,90.8,86.8,91
	c-24.9,4.8-22.7,40.4-34.1,60.6c-5.8,9.2,1,16.1,13.3,12.4C84.3,158.9,88.9,152.7,96,146.6z"/>
<path class="st1" d="M96,146.6l18.8,14.2c-7.4,8.3-7,23.9-4.5,42.3l9.6-5.8l11.3-1.9c-12.5-7.2-6.8-41.9-1.1-44.8
	c6.3-3.6-21.9-50.9-38.3-20.1c-13.6,28.7-41.1,28.6-39.2,20.9c-5.8,9.2,1,16.1,13.3,12.4C84.3,158.9,88.9,152.7,96,146.6z"/>
<path class="st6" d="M179,197.2l-1.9,1.9l-0.4,2.4c-10.5,1.3-17.5-3-26.3-4.5c0.1-17.1,6.5-30.9,11.8-31.4
	C170.1,165.4,175.4,177.1,179,197.2z"/>
<path class="st0" d="M107.9,131.9c6.4-2.9,14.1,5.8,22.2,18.8c-5.8,2.5-10.8,5.7-14.4,10.5c-7.7-2.7-14.6-7-20.2-14L107.9,131.9z"/>
<path class="st7" d="M179.6,198.1l-1.4,1.5l-0.3,1.8c-8.1,1-13.9-0.9-20.8-2.9c0.1-13.3,5.4-24.6,9.5-24.9
	C172.6,173.4,176.7,182.5,179.6,198.1z"/>
<path class="st6" d="M208.8,181.6c-4.8,3.5-8.3,7.1-10.4,10.8l-6.4-1c-5.5-16.2-6.6-29.7-2.8-32.4
	C195.6,156.2,205.3,165.7,208.8,181.6z"/>
<path class="st8" d="M171.6,198.3c3.4,0,6.3-2.8,6.3-6.3c0-3.4-2.8-6.3-6.3-6.3c-3.4,0-6.3,2.8-6.3,6.3
	C165.3,195.5,168.1,198.3,171.6,198.3z"/>
<path class="st7" d="M209.1,182.9c-3.7,2.7-7.9,5.6-9.6,8.5l-3.2,0.1c-4.2-12.6-5.1-23-2.2-25.1
	C199.1,164.2,206.4,170.6,209.1,182.9z"/>
<path class="st8" d="M202.8,185.9c3.1,0,5.5-2.5,5.5-5.5c0-3.1-2.5-5.5-5.5-5.5c-3,0-5.5,2.5-5.5,5.5S199.7,185.9,202.8,185.9z"/>
<ellipse class="st6" cx="168.3" cy="188.7" rx="3" ry="3"/>
<ellipse class="st6" cx="199.9" cy="177.5" rx="2.6" ry="2.6"/>
<ellipse class="st6" cx="162.7" cy="180.6" rx="3.8" ry="3.8"/>
<circle class="st6" cx="192.8" cy="174" r="3.6"/>
<path class="st9" d="M175.1,201.7c-0.5-7.7,21.1-13.5,23.9-10.2c1.9,3.7-0.6,9.8-7.4,14.9C183.8,206.1,176.2,204.7,175.1,201.7z"/>
<path class="st10" d="M175.1,201.7c-0.9,0.7,20.5,1.1,23.9-10.2c1.9,3.7-0.6,9.8-7.4,14.9C183.8,206.1,176.2,204.7,175.1,201.7z"/>
<path class="st11" d="M167.4,353.5c-3.3,9.3-5.1,20.1-5,33.3C159.8,374.8,160.4,364.9,167.4,353.5z"/>
<path class="st12" d="M149.8,357.9c-3.4,1.5-6.2,3.7-8.1,6 M148.6,387.2c3.7,19.4,17.5,22.4,27.6,3.6c7.5-15.4,4-32.9,8.9-49.5
	 M246.7,286.7c0,1.2-0.1,2.4-0.3,3.5c-1.1,7.2-5.3,11.1-9.5,12.1c-1.9,0.5-3.7,0.3-5.3-0.4c5.3-5.3,6.7-13.7,5.1-16 M213.4,299.2
	c9.9-10.9,19.5-17,23.4-13.3c2-1.5,5.1-1.9,7.4-1.1c1,0.4,1.9,1,2.5,1.9c10.8,1.7,1.8,21.4-4.3,19c-15.9,41.8-33.6,59.7-46.5,54.4
	c-5.4-2.4-9.8-3.1-13.6-1.6 M197.5,266.6c10.2,36.4,31.6,44.7,28.6,54.7c-2-3.2-4.4-5.1-7.1-7.4 M221.5,323.5
	c-11.5,4-21.6,1.5-30-9.7 M191.9,327.2c0.6,2-2.2,4.8-4,3.5c-22.3-16.7-45,2.3-64.3-48.4 M93.5,260.5c-62,16.6-62.8,81.2-32.1,109.7
	c23.7,20.4,55.6,27.1,85.3,26c2.6,4,8.8,7.5,13.7,7 M114,232.8c-5.5,14.7-17.7,24.6-31.3,31.3 M107.2,220.8
	c16.4,39.9,56.8,31.2,68.8,25.3c13.1,6.3,21.5,4.5,25.3-5.4 M123.9,196.4c-12.4,2.3-15,10.6-22.9,13c2.9,3.1,6.4,3.9,10.4,2.5
	c-3.3,2-7,3.3-11,3.8c2.5,2.7,6.1,5.7,10.2,6 M189.7,230.7c3.2,3.5,8,1,9-2.5 M199,191.6c9.1-12.9,24.8-15,32.3-0.3
	c-2.8-0.3-5.7-0.2-8.8,0.3c4.1,0.4,7,2,8.7,4.8c-10.1,3.8-2.6,28.5-29.9,44.3 M160.1,128.2c31.3-2,48.8,23.6,54.7,52.4 M155.6,120
	c9.4-64.6,47.3-49.5,70.3-67.4c8.9-6.3,12.1,1,9.9,11.5c-1.8,12.5-13.3,29.3-26.2,37.1c-12.7,7.5-16.3,23.9-29.3,29.6 M132,128.6
	c15.2-20.7,20.4-10.6,8.4,3c23.8-23.9,36.2-11,9.9,3.3 M140.4,143.6c-20.9-35.2-39.1-55.2-53.6-52.7c-24.9,4.8-22.7,40.4-34.1,60.6
	c-5.8,9.2,1,16.1,13.3,12.4c18.3-4.9,34-16.7,45.8-38.6 M95.5,147.3c5.8,6.5,12.3,11.3,19.3,13.6 M122.2,155
	c-9.7,5-16.8,16.7-11.9,48.1 M167.3,219.3c7.2,9.8,25,8,26.2-4.9c4.3,7,13.6,2,13.7-9 M161.6,160.9c-2.9-0.5-6,1.6-6.7,4.9
	 M191.8,190.9c-5.5-16.2-6.4-29.1-2.6-31.8c6.4-2.9,16.1,6.6,19.6,22.6 M192.7,154.9c-2.2-1.1-4.8-0.6-5.9,1.7 M175.1,201.7
	c-12.7,2.5-25.3-9.9-51.3-5.3 M226.1,321.1c-0.3,4.9-5.1,3.3-13.8-3.8 M200.9,241.5c5.9,11.5-3.6,21.3-3.4,25l-3-5
	c-2.3,16.6-18.3,17-25,28.3 M154.9,263.1c8.6,35.7,46.2,42.8,37,64.2c-0.9-3.4-2.3-6.4-4.8-8.4 M190.8,330.1
	c0.9,8.4-10.3,17.6-12.8,8 M184.6,328.5c1.2,4.6-8.7,15.1-13.4,7.9 M176.2,324.6c1.7,4.8-0.7,8.5-5,11.7 M169.5,322.8
	c-12,10.8-19.7,25.9-21.5,46.9 M148,316.4c7.4,7.4,10.2,15.1,8.5,23 M41.8,316.6c-8-13.9-32.2-14.6-30.4-28.7
	c-4.4,4-5.6,10.2-3.6,18.6 M242.4,305.7c-0.2-0.1-0.3-0.1-0.5-0.2c-1-0.5-1.9-1.6-2.3-2.7c-0.2-0.5-0.2-1-0.2-1.6 M205.2,203.2
	c0.7-0.9,2.8-1.1,4.2,0.2 M164.1,219.2c-0.2-1.4,1.3-3.5,3.7-3.6 M150.6,197c0.1-17.1,6.5-30.9,11.8-31.4
	c7.8-0.2,12.9,10.2,16.6,30.3 M15,315.6c-4.9-8.4-9.5-12.3-13.8-11.7c6.1,11.8-0.2,37.9,11.2,52.5c11.3,16.1,31,20.3,49,13.8"/>
<path class="st13" d="M175.1,201.7c-0.5-7.7,21.1-13.5,23.9-10.2c1.9,3.7-0.6,9.8-7.4,14.9C183.8,206.1,176.2,204.7,175.1,201.7z"/>
<path class="st4" d="M167.4,95.6c6.2-10.9,15.5-18.4,28.2-24.5C180.9,72.8,170.6,81.2,167.4,95.6z"/>
<path class="st3" d="M153.2,338.7c-4.9-11.5-13.2-20.1-25.1-27.6C142.6,314.6,151.7,324.1,153.2,338.7z M180.4,304.2
	c-7.3-5.8-15.8-13.5-20.9-23.8C159.5,291,173.3,301.8,180.4,304.2z M69.7,113.1c6.2-10.9,13.5-21.2,28.8-16
	C87.9,90.1,76.2,92,69.7,113.1z M173.3,134c9.9,2.9,17.7,9.3,25.2,19.3C194,140.5,185.2,133.3,173.3,134z M215.6,306.3
	c-7.2-7.9-15.1-21.3-18.8-32.2C196.9,286.2,205.5,300.7,215.6,306.3z"/>
<path class="st6" d="M203.5,190.1c6-4.5,12.2-5.6,17.9-5.6C215.1,182.1,206.9,184.1,203.5,190.1z M163.8,204.9
	c-10.9-0.8-17.9-6.4-30.1-4.7C145.3,195.1,155.4,201.2,163.8,204.9z M191.7,259.7c-3.5,8.7-9.4,13.8-15.4,17.4
	C184.6,275.6,192,268.3,191.7,259.7z"/>
<path class="st6" d="M42.8,369.7c-11.6-2.9-20.9-9.5-29.7-19.7C18.5,363.1,28.8,370.4,42.8,369.7z"/>
</svg>
