<?xml version="1.0" encoding="utf-8"?>
<!-- Generator: Adobe Illustrator 21.1.0, SVG Export Plug-In . SVG Version: 6.00 Build 0)  -->
<svg version="1.1" id="Layer_1" xmlns="http://www.w3.org/2000/svg" xmlns:xlink="http://www.w3.org/1999/xlink" x="0px" y="0px"
	 viewBox="0 0 520 421" style="enable-background:new 0 0 520 421;" xml:space="preserve">
<style type="text/css">
	.st0{fill-rule:evenodd;clip-rule:evenodd;fill:#E3A921;}
	.st1{fill-rule:evenodd;clip-rule:evenodd;fill:#FFE07D;}
	.st2{fill-rule:evenodd;clip-rule:evenodd;fill:#FCCA00;}
	.st3{fill-rule:evenodd;clip-rule:evenodd;fill:#FFF2AF;}
	.st4{fill-rule:evenodd;clip-rule:evenodd;fill:#F0B3B5;}
	.st5{fill:none;stroke:#E88CA2;stroke-width:1.7;stroke-linecap:round;stroke-linejoin:round;stroke-miterlimit:22.9256;}
	.st6{fill-rule:evenodd;clip-rule:evenodd;fill:#F7C6C7;}
	.st7{fill:none;stroke:#EB99B1;stroke-width:1.7;stroke-linecap:round;stroke-linejoin:round;stroke-miterlimit:22.9256;}
	.st8{fill-rule:evenodd;clip-rule:evenodd;fill:#EF8380;}
	.st9{fill-rule:evenodd;clip-rule:evenodd;fill:#FFE67E;}
	.st10{fill:none;stroke:#A16215;stroke-width:1.7;stroke-linecap:round;stroke-linejoin:round;stroke-miterlimit:22.9256;}
	.st11{fill-rule:evenodd;clip-rule:evenodd;fill:#494948;}
	.st12{fill:none;stroke:#1A1A18;stroke-width:1.7;stroke-linecap:round;stroke-linejoin:round;stroke-miterlimit:22.9256;}
	.st13{fill-rule:evenodd;clip-rule:evenodd;fill:#FFFFFF;}
	.st14{fill-rule:evenodd;clip-rule:evenodd;fill:#B5CAD6;}
	.st15{fill-rule:evenodd;clip-rule:evenodd;fill:#1A1A18;}
</style>
<path class="st0" d="M484.3,309.8l11.5-42.3c8.6,2.9,12.1,11.6,9.2,21.6l2.4-1.3C507.3,298.9,497.5,310.9,484.3,309.8z"/>
<path class="st1" d="M377.8,315.1l34.5,7.2l55.6-52.9l-35.8-61.9l-78.4,15.2c-10.5,10-18.3,21.3-19.2,31.5l3.5-3.2
	C327.6,280.8,344.5,308.7,377.8,315.1z"/>
<path class="st2" d="M432.1,207.6l-78.4,15.2c-1.9,9.1,12.5,16.3,15.6,23.9C386.2,235.1,420.9,225.8,432.1,207.6z"/>
<path class="st3" d="M442,182.5l-86.9-10.8c-8.4,6.1-11.6,12.7-11.8,19.5c1.8-3.6,4.3-5.6,7.4-6.1c-14.4,14.4-4.3,31.9,14.8,50.6
	c-0.8-4.2-0.3-7.5,1.6-10c1.7,6.2,2.6,10.9,3.2,14.8C394.2,221.2,445.1,218.6,442,182.5z"/>
<path class="st0" d="M392.1,21.7l-38.7,25.2c-5.9-2.8-9.4-8.2-9.3-17.5l3.2,2.6c-5-11.5,1.2-26.3,17.9-30.4
	C379.3-2,395.3,8,392.1,21.7z"/>
<path class="st4" d="M382.9,25.3l-22.5,14.5c-5.5-6-3.6-13.9,0.8-18.6l1.7,4.4C364.4,15.8,377.9,13.8,382.9,25.3z"/>
<path class="st5" d="M360.5,39.9c-5.5-6-3.6-13.9,0.8-18.6l1.7,4.4c1.5-9.8,15-11.8,20.1-0.2"/>
<path class="st2" d="M361.7,175.6c36.4,14.1,61.1,13.8,80.3,6.9c1.3,10.3-2,18.7-9.9,25c10,15.3,10.6,27.3,7.1,37.7l5.2-6.8
	c-2.1,20.4-13.1,29-19.6,43.5l8.1-5.5c-6.2,6.7-10.8,13.6-13.8,20.5c-5.5-0.1-10.3,2.5-14.3,7.8l-3,0.1l-5,1.9
	c-3.7-3.5-15.5-4.9-18.8,8.4c-17.7-3.5-31.2-12-38.7-27.6c-5.2-11.8-6.2-24-1.1-36.5l-3.5,3.2c0.8-9.2,7.9-19.8,19.2-31.5
	c-10.4-13.6-14.2-26.4-3.1-37.7l-4.5,2.1l-2.9,4l0.6-4.5c-13.8,14.6-39.5,20.3-43.8,35.4c-5,14.3,0.1,31.5,12.8,32.3
	c-1.3,8.3-0.9,16,1.3,23.2c-6.3-8.6-13.6-10.8-22.4-3.4c-4.6,0.7-7.2,4.6-7.9,11.5c-7.8,4.4-6.4,16.9,3.1,19.6l6.1,9.7l6.4,7.1
	l29.7-0.4c19.5-13.4,36.5-9.7,48.7,5c-4.2,23.4,5.5,38.9,26.9,37.6c22.3,4.5,82.8-33.7,82.4-68l3.2,3.5c9.4-35,6.8-66.2-7.7-93.5
	c39.2-32,30.9-81.1,4.9-94c0.5-5.8-0.3-11.4-4.2-16.6l6.2,3.6c0.2-6.3-1.4-12.7-7.3-19c9.1-4.2,13.8-10.6,11.5-20.8l2.7,7.4
	c11.6-22.7-9.5-43.2-31.5-34.6l6.1-5.6c-7.9,1.3-14.7,5.5-20.1,14c-10.4-12.7-24.4-19.6-42.7-19.5l3.5-2.9
	c-10.3,0.5-18.1,4.3-23.4,11.3l7.4-9.3C357.7,32,334.2,62.6,338,93.4c-8.9,6.2-13.4,15.1-14.9,25.7c2.2-2,4.9-3.3,8.2-3.7
	c-4.1,3.8-6.4,7.9-7.3,12.2C328.9,148,343.4,165.9,361.7,175.6z"/>
<path class="st0" d="M361.7,175.6c36.4,14.1,61.1,13.8,80.3,6.9c15.4-5.5,25.9-18.5,29.3-42.7c-5.9-10.5-8.7-20.5-4.5-29.4l-1.3-0.6
	c4-1.7,7.7-2,11-0.9c16,2.9,27.4,13.1,32.2,34.1c-4.1,30.1-24,54.5-48.8,64.5c10,15.3,10.6,27.3,7.1,37.7l5.2-6.8
	c-2.1,20.4,5.2,26.1-1.3,40.6l8.1-5.5c2.6,13.2-22.1,53-60.2,61.8c-9.2,36-41.9,29.2-41.6-1.7l1.3-10.3c4.1,6.1,8.8,5.1,13.9-0.8
	c2.8,6.3,7.4,7.4,13.8,3.3c1.7,8.7,9.6,6.2,12.4,0.5c-6.7,3.1-10.8,1.6-11.6-5.3c-6.2,3.5-11.3,3-14.9-3.1c-6.9,4.2-12.3,4.7-14-2.9
	c-17.7-3.5-31.2-12-38.7-27.6c-5.2-11.8-6.2-24-1.1-36.5l-3.5,3.2c0.8-9.2,7.9-19.8,19.2-31.5c-3.6-7.9-8.5-11.1-9.8-22.1
	c-16.1,7.6-26.7,29.7-30.7,40.2c-1.9,9.1-1.6,9.8-0.3,13.5c-1-9.5,11.6-16.7,17.5-25c-22.3,29.7-12.8,40.5-2.1,70.6
	c-21.5-34.7-33.7-18.4-31.3-12.1c-4.6,0.7-6.5,0.8-7.2,7.7c-7.8,4.4-6,8.5-2.7,9.7l6.1,9.7l6.4,7.1l29.7-0.4
	c19.5-13.4,36.5-9.7,48.7,5c-4.2,23.4,5.5,38.9,26.9,37.6c22.3,4.5,82.8-33.7,82.4-68l3.2,3.5c9.4-35,6.8-66.2-7.7-93.5
	c39.2-32,30.9-81.1,4.9-94c0.5-5.8-0.3-11.4-4.2-16.6l6.2,3.6c0.2-6.3-1.4-12.7-7.3-19c-12.6,1.2-7.6-13.7-1.4-22.1l2.7,7.4
	c12.4-19.1-3.4-33.2-22.1-26l6.1-5.6c-5,1.2-11.6,2.5-16.6,6.8C439,25.2,402.7,17.8,385.8,33c25.6-4.9,53.5,9,61.6,31.5
	c11,11.5,8.9,45.9-13.6,55.5C485.5,161.2,430.8,201.5,361.7,175.6z"/>
<path class="st6" d="M468.2,56.7c0.5-3.5,1.9-6.7,4.9-9.1c-6.5,1.4-16.6,7.9-11.1,17.9c4.1,8.4,17.8,9.6,22.5-1.6
	C489.2,52,476.4,44.8,468.2,56.7z"/>
<path class="st7" d="M468.2,56.7c0.5-3.5,1.9-6.7,4.9-9.1c-6.5,1.4-16.6,7.9-11.1,17.9c4.1,8.4,17.8,9.6,22.5-1.6
	C489.2,52,476.4,44.8,468.2,56.7z"/>
<path class="st8" d="M384.5,150.7l-6-6.5l-5.7,2.2C372.2,156.3,381.1,156.7,384.5,150.7z"/>
<path class="st1" d="M378.4,144.2c9.3,14.3,31.5,15.6,40.5,3.1c10.4-15.9-5.2-36.2-31.2-38.7c-21.1-2.1-36.9,5.4-37.5,20.1
	C349.8,146.2,369.5,149.3,378.4,144.2z"/>
<path class="st3" d="M386.4,113.4c18.8,1.6,37.7,14.2,32.5,33.9c10.4-15.9-5.2-36.2-31.2-38.7c-21.1-2.1-36.9,5.4-37.5,20.1
	C354.5,110.3,374.2,111.1,386.4,113.4z"/>
<path class="st9" d="M361.1,71.6c3.4-2,7.4-3.5,12.8-1.4c3.1,1.4,5.1-2.7,3.1-4.5c-4.8-4.4-12.8-4.5-18.5,1.8
	C356.8,69.4,358.3,72.9,361.1,71.6z M438.9,90.1c-1.2-3.8-3-7.6-8.3-9.8c-3.2-1.1-2.2-5.9,1.8-5.9c7.1,0.2,12.2,6.9,11.3,14.5
	C443.4,91.5,440,93,438.9,90.1z"/>
<path class="st10" d="M361.1,71.6c3.4-2,7.4-3.5,12.8-1.4c3.1,1.4,5.1-2.7,3.1-4.5c-4.8-4.4-12.8-4.5-18.5,1.8
	C356.8,69.4,358.3,72.9,361.1,71.6z M438.9,90.1c-1.2-3.8-3-7.6-8.3-9.8c-3.2-1.1-2.2-5.9,1.8-5.9c7.1,0.2,12.2,6.9,11.3,14.5
	C443.4,91.5,440,93,438.9,90.1z"/>
<path class="st6" d="M307.8,287.7l-2.6,2.1l-3.9,0.2l-3.2,4.9l-4,1.7l-0.1,3.8l-1.7,3.1c6.9,10.7,14.7,15.6,20.6,11.8
	C318.8,311.8,318.2,296.9,307.8,287.7z"/>
<path class="st11" d="M381.2,127c-8.2-2.7-14.4-8.8-12.7-12.5c3.7-5.3,34.1-1.5,31.6,7.7C398.7,126.1,387.2,128.2,381.2,127z"/>
<path class="st12" d="M381.2,127c-8.2-2.7-14.4-8.8-12.7-12.5c3.7-5.3,34.1-1.5,31.6,7.7C398.7,126.1,387.2,128.2,381.2,127z"/>
<path class="st7" d="M292.2,303.6c6.9,10.7,14.7,15.6,20.6,11.8c5.9-3.6,5.4-18.4-5-27.7"/>
<path class="st6" d="M410,332.4c-2.3-1.2-3.6-3.3-4.1-6.4c-6.2,4.3-10.8,3.3-13.8-3.3c-2.3,3.2-4.9,4.8-7.9,4.8
	c-1.9,11.1,0.4,19.1,7.9,22.2C400.7,351.9,408.7,346.9,410,332.4z"/>
<path class="st7" d="M384.3,327.5c-1.9,11.1,0.4,19.1,7.9,22.2c8.5,2.2,16.5-2.8,17.8-17.3"/>
<path class="st13" d="M370.1,80.9c6.3,0.6,11.1,6.3,10.8,12.7c-0.4,6.4-5.8,11.1-12.1,10.5c-6.3-0.6-11.1-6.3-10.8-12.7
	C358.5,84.9,363.9,80.2,370.1,80.9z"/>
<path class="st13" d="M420.1,89.8c6.7,0.6,11.7,6.7,11.3,13.4c-0.4,6.8-6.1,11.7-12.8,11.1c-6.7-0.6-11.7-6.7-11.3-13.4
	C407.7,94.1,413.4,89.2,420.1,89.8z"/>
<path class="st14" d="M371.7,87.7c4.2,2,6,7,4.1,11.3c-1.9,4.3-6.9,6.2-11.1,4.2c-4.2-2-6-7-4.1-11.3
	C362.6,87.6,367.6,85.7,371.7,87.7z"/>
<path class="st14" d="M421.8,97c4.4,2.1,6.4,7.4,4.3,11.9c-2,4.5-7.3,6.5-11.7,4.4c-4.4-2.1-6.4-7.4-4.3-11.9
	C412.1,96.9,417.4,94.9,421.8,97z"/>
<circle class="st15" cx="366.3" cy="97.5" r="5.1"/>
<path class="st15" d="M416.1,112.7c3,0,5.4-2.4,5.4-5.4c0-3-2.4-5.4-5.4-5.4c-3,0-5.4,2.4-5.4,5.4
	C410.7,110.3,413.1,112.7,416.1,112.7z"/>
<path class="st13" d="M370.5,93c1.2,0.2,2.1,1.4,1.8,2.6c-0.2,1.2-1.4,1.9-2.7,1.7c-1.2-0.2-2.1-1.4-1.8-2.6
	C368,93.5,369.2,92.8,370.5,93z"/>
<path class="st13" d="M420.5,102.7c1.3,0.3,2.2,1.5,1.9,2.7c-0.2,1.2-1.5,2-2.8,1.8c-1.3-0.3-2.2-1.5-1.9-2.7
	C417.9,103.2,419.2,102.4,420.5,102.7z"/>
<path class="st10" d="M431.1,100.2c1,6.8-3.5,13-10,14c-6.5,1-12.6-3.7-13.5-10.5c-1-6.8,3.5-13,10-14
	C424.1,88.8,430.2,93.5,431.1,100.2z M380.6,90.7c0.9,6.4-3.3,12.4-9.5,13.3c-6.2,0.9-11.9-3.5-12.9-9.9c-0.9-6.4,3.3-12.4,9.5-13.3
	C373.9,79.9,379.7,84.3,380.6,90.7z M378.4,144.2c9.3,14.3,31.5,15.6,40.5,3.1c10.4-15.9-5.2-36.2-31.2-38.7
	c-2.5-0.2-4.8-0.4-7.1-0.4c-17.5,0.1-29.9,7.5-30.3,20.4c-0.4,13,10.4,18.1,19.6,17.8L378.4,144.2z M355.2,171.7
	c-8.4,6.1-11.6,12.7-11.8,19.5c1.8-3.6,4.3-5.6,7.4-6.1c-14.4,14.4-4.3,31.9,14.8,50.6c-0.8-4.2-0.3-7.5,1.6-10
	c1.7,6.2,2.6,10.9,3.2,14.8c23.9-19.3,74.9-21.9,71.7-57.9 M353.8,222.8c-10.5,10-18.3,21.3-19.2,31.5l3.5-3.2
	c-10.5,29.7,6.4,57.6,39.8,64.1 M406.3,356.3c9.2-5.2,13.3-16.1,12.2-25.8c7.3-10.9,2-20.2-4.8-18.7c-1.5-7.6-12.2-8.8-17.1-5.2
	c-8.2-7.4-22.8,2.7-18.4,16.7 M396.7,306.8c-3.3,4.2-4.9,8.8-4.9,12.7c0,7.4,5.4,12.2,14.1,6.6 M413.7,312
	c-12.6,8.8-8.5,27.3,4.8,18.7 M495.8,267.4c8.6,2.9,12.1,11.6,9.2,21.6l2.4-1.3c-0.2,11.2-10,23.2-23.2,22 M482.7,206.2
	c15.5,24.4,16.4,67.4,7.7,93.5l-3.2-3.5c0.5,32.2-57.4,72.1-82.4,68c-20.6,0.8-31.8-11.8-26.4-40.6 M338,132.4
	c-1.5-0.2-3.1,1.1-4.2,2.3 M455.6,146.8c1.8,0.6,2.9,3.1,3.4,5 M458.8,139.9c2.1,0.7,3,2.4,3.4,3.6 M405.2,208.7
	c1.5,1.5,1.9,3.5,1.7,5.5 M413.2,204c1.1,2.1,0,5.1-1.1,7.2 M357.6,194.3c-1.5,0.1-3.3,1.7-4.1,3.3 M361.2,199.1
	c-1.2,1.5-2,3.9-1.9,5.5 M367.2,209.5c0.6-0.6,0.7-2.2,0.2-3.1 M316.3,257c0-1.7,2.1-4.1,4-4.9 M320.6,264c-0.3-1.3,0.7-3.3,2-4.2
	 M320.8,275.3c-0.1-0.9,1-2.3,2-2.7 M463.4,320.1c0.6-1.2,0-3.5-1.1-4.7 M449.2,332.3c1.1-1.4,0.8-4.5-0.3-6.3 M472.4,306.5
	c0.2-0.8-0.6-2.3-1.4-2.8 M456.8,326.5c0.6-1,0.3-3.1-0.5-4.2 M336.3,123.1c-1.4-0.5-3.2,0.6-4.5,1.6 M474.2,142.8
	c-7.3-5.5-13.4-24.2-7.4-32.4 M476.5,109c46.5,7.3,43,77.6-2.4,103 M482.2,80.4c5.3,4.9,7.4,11.4,7.3,19l-6.2-3.6
	c3.9,4.5,5,10.1,4.2,16.6 M447.3,48.6c2.7-9.9,11.9-19.2,23.7-21.7l-6.1,5.6c21.8-10.7,43.1,13,31.5,34.6l-2.7-7.4 M408.3,21.4
	c19.2-0.4,34.2,8.4,42.7,19.5 M402.8,28.2c2.5-4,5.5-7.2,9-9.7c-10.3,0.5-18.1,4.3-23.4,11.3l7.4-9.3C357.7,32,334.2,62.6,338,93.4
	c-8.9,6.2-13.4,15.1-14.9,25.7c2.2-2,4.9-3.3,8.2-3.7c-4.1,3.8-6.4,7.9-7.3,12.2c4.8,20.6,19.3,38.5,37.7,48.2 M343.9,186.7
	c-13.8,15.4-37.9,19-43.7,35.3c-4.3,12.5-0.9,31.1,12.8,32.3c-2.4-6.2-3.6-12-2.6-17.1 M342.6,210.5c-0.5,12.7-26.5,27.6-29.6,43.8
	c-1.7,6.9-1.3,14.6,1.3,23.2 M493.7,59.7c3.3,10.1-7.2,23.2-24.7,24.4 M475.8,121.6c-2.1-5-4.8-9.5-10.3-11.7
	c6.1-3.7,15.6-1.2,19.4,6.3 M368.2,178.6c63.5,18.4,97.3,5.2,102.9-38.8 M309.4,284.9c-5.5,13.4-20.5-1.2-17.5-10.8 M301.2,290
	c-5.5,13.4-17.3,3.7-17.3-4.5 M432.1,207.6c9.3,15.9,10.9,28.1,7.1,37.7l5.2-6.8c-1.6,20.1-13.7,28.8-19.6,43.5l8.1-5.5
	c-5.7,5.4-10.3,12.3-13.8,20.5 M425,297.5c-8.8-1.5-15.6,0.9-20.4,7.4 M378.3,323.5c2.3,5.3,10.1,5.8,13.9-0.8 M329.2,321.4
	c14.9-11.9,37-11,48.7,5 M330,305.8c-2.2-10-7.4-19.4-15.7-28.3c-9.9-11.4-19.7-8.4-22.4-3.4c-4.6,1-7.2,4.9-7.9,11.5
	c-6.2,2.4-6.8,16,3.1,19.6c3.7,6.5,7,12,12.4,16.8 M294.1,296.6c0.9,6.3-3.5,9.4-7,8.5 M369.5,146.9c-1.7,14.2,11.6,18.2,19.1,6.2
	 M372.7,146.4c-0.5,9.9,8.4,10.3,11.7,4.3 M378.4,144.2c-0.7-2.1,0.3-7.9,1.4-11.4 M353.5,46.9c-5.9-2.8-9.4-8.2-9.3-17.5l3.2,2.6
	c-5-11.5,1.2-26.3,17.9-30.4C379.3-2,395.3,8,392.1,21.7"/>
<path class="st9" d="M365.9,43.8c-10.2,7.4-16.7,18.1-21.3,32.7C344.6,59.7,351.9,47.9,365.9,43.8z M318.4,208.2
	c-8,5.1-13.3,12.8-17.4,23.6C301.7,219.2,307.7,210.7,318.4,208.2z M434.1,303.7c-8.5-2.9-19.2-2.7-25.5,0
	C415,297.5,425.8,297,434.1,303.7z M486.2,114.8c8.6,5,13,13.5,19.5,24.1C502.4,125.7,496.9,116.7,486.2,114.8z"/>
<path class="st2" d="M411.1,133.7c1.6,0,2.9,1.3,2.9,2.9c0,1.6-1.3,2.9-2.9,2.9c-1.6,0-2.9-1.3-2.9-2.9
	C408.3,134.9,409.6,133.7,411.1,133.7z M402.8,141.4c1.7,0,3.1,1.4,3.1,3.1s-1.4,3.1-3.1,3.1s-3.1-1.4-3.1-3.1
	C399.6,142.8,401,141.4,402.8,141.4z M358.4,124.2c1.6,0,2.9,1.3,2.9,2.9c0,1.6-1.3,2.9-2.9,2.9c-1.6,0-2.9-1.3-2.9-2.9
	C355.5,125.4,356.8,124.2,358.4,124.2z M366.9,123.2c1.4,0,2.6,1.2,2.6,2.6c0,1.4-1.2,2.6-2.6,2.6c-1.4,0-2.6-1.2-2.6-2.6
	C364.4,124.4,365.6,123.2,366.9,123.2z M364.1,131.8c1.5,0,2.7,1.2,2.7,2.7s-1.2,2.7-2.7,2.7s-2.7-1.2-2.7-2.7
	S362.6,131.8,364.1,131.8z M399.8,131c1.6,0,2.9,1.3,2.9,2.9c0,1.6-1.3,2.9-2.9,2.9c-1.6,0-2.9-1.3-2.9-2.9
	C396.9,132.2,398.2,131,399.8,131z"/>
<path class="st3" d="M369.8,306.8c-13.5-8.2-22.6-21-29.7-38.8C341.8,288.9,351.9,303,369.8,306.8z"/>
<path class="st13" d="M358.8,223.2c-9.1-12.4-10.6-26.1-8-34.7C342.3,198.3,347.7,215.1,358.8,223.2z"/>
<path class="st2" d="M347.8,27.3c2.9-9.8,8.8-17.7,18.6-22.9C354.6,5.5,347.2,15.4,347.8,27.3z"/>
</svg>
