<?xml version="1.0" encoding="utf-8"?>
<!-- Generator: Adobe Illustrator 21.1.0, SVG Export Plug-In . SVG Version: 6.00 Build 0)  -->
<svg version="1.1" id="Layer_1" xmlns="http://www.w3.org/2000/svg" xmlns:xlink="http://www.w3.org/1999/xlink" x="0px" y="0px"
	 viewBox="0 0 520 421" style="enable-background:new 0 0 520 421;" xml:space="preserve">
<style type="text/css">
	.st0{fill-rule:evenodd;clip-rule:evenodd;fill:#D3ECFB;}
	.st1{fill-rule:evenodd;clip-rule:evenodd;fill:#F7DDBD;}
	.st2{fill-rule:evenodd;clip-rule:evenodd;fill:#D8D9D9;}
	.st3{fill-rule:evenodd;clip-rule:evenodd;fill:#1A1A18;}
	.st4{fill-rule:evenodd;clip-rule:evenodd;fill:#575656;}
	.st5{fill-rule:evenodd;clip-rule:evenodd;fill:#FFFFFF;}
	.st6{fill-rule:evenodd;clip-rule:evenodd;fill:#EEC185;}
</style>
<path class="st0" d="M31.3,330.5c-13.6-70.8,46-87.7,44.2-135.7C72.6,124.5,114.6,76.5,214.8,98c56.8,12.2,62.3-45.8,96.9-61
	c38.9-17.1,58.4-8.3,83.3,8.5c42.3,35.2,103.8,95.2,117.7,150.4C560,383.4,358.2,416.2,249.1,420.3
	C142.3,424.3,44.8,413.6,31.3,330.5z"/>
<polygon class="st1" points="402.6,402.6 193.8,405.2 241.8,322.7 359.3,321.1 "/>
<polygon class="st2" points="260.8,322.5 241.8,322.7 236.4,331.9 256.5,331.8 "/>
<polygon class="st2" points="246.2,354 223.5,354.2 230.4,342.2 251.7,342.1 "/>
<polygon class="st2" points="231.5,385.8 266.9,385.5 263.1,404.3 222.7,404.8 "/>
<polygon class="st2" points="266.9,385.5 270.7,367.2 300.2,367.1 300.1,385.3 "/>
<polygon class="st2" points="240.1,367.3 231.5,385.8 205,386 215.9,367.3 "/>
<polygon class="st2" points="270.7,367.2 240.1,367.3 246.2,354 273.4,353.9 "/>
<polygon class="st2" points="251.7,342.1 256.5,331.8 278,331.8 275.9,342 "/>
<polygon class="st2" points="363.4,384.9 331.9,385.1 328.7,367.1 355.8,367 "/>
<polygon class="st2" points="356.5,367 351,352.9 376,352.7 383.6,366.9 "/>
<path class="st3" d="M364.4,377.8c0,5.3-7.5,9.5-16.8,9.5c-9.3,0-16.8-4.3-16.8-9.5v-9.5l33.5-0.8L364.4,377.8z"/>
<path class="st4" d="M347.6,377.8c9.2,0,16.8-4.3,16.8-9.5c0-5.2-7.5-9.5-16.8-9.5c-9.2,0-16.8,4.3-16.8,9.5
	C330.8,373.5,338.4,377.8,347.6,377.8z"/>
<path class="st5" d="M347.6,372.2c4.6,0,8.3-2,8.3-4.5c0-2.5-3.7-4.5-8.3-4.5c-4.6,0-8.3,2-8.3,4.5
	C339.3,370.2,343,372.2,347.6,372.2z"/>
<polygon class="st2" points="273.5,353.7 275.9,342 300.4,341.9 300.3,353.4 "/>
<polygon class="st2" points="278,331.8 280,322.2 300.5,321.9 300.4,331.7 "/>
<polygon class="st2" points="300.4,341.9 300.4,331.7 322.3,331.6 324.1,341.8 "/>
<polygon class="st2" points="300.2,367.1 300.3,353.4 326.2,353.2 328.7,367.1 "/>
<polygon class="st2" points="300.1,385.3 331.9,385.1 335.2,403.5 299.9,403.9 "/>
<polygon class="st2" points="370.5,403 363.4,384.9 393,384.6 402.6,402.6 "/>
<polygon class="st2" points="326.2,353.2 324.1,341.8 346.6,341.7 351,352.9 "/>
<polygon class="st2" points="322.3,331.6 320.5,321.6 338.6,321.4 342.6,331.5 "/>
<polygon class="st2" points="346.6,341.7 342.6,331.5 364.8,331.4 370.1,341.6 "/>
<polygon class="st6" points="193.8,405.2 402.6,402.6 402.6,418.9 194,420.8 "/>
</svg>
