<?xml version="1.0" encoding="utf-8"?>
<!-- Generator: Adobe Illustrator 21.1.0, SVG Export Plug-In . SVG Version: 6.00 Build 0)  -->
<svg version="1.1" id="Layer_1" xmlns="http://www.w3.org/2000/svg" xmlns:xlink="http://www.w3.org/1999/xlink" x="0px" y="0px"
	 viewBox="0 0 520 421" style="enable-background:new 0 0 520 421;" xml:space="preserve">
<style type="text/css">
	.st0{fill-rule:evenodd;clip-rule:evenodd;fill:#D3ECFB;}
	.st1{fill-rule:evenodd;clip-rule:evenodd;fill:#F7C6C7;}
	.st2{fill-rule:evenodd;clip-rule:evenodd;fill:#A35939;}
	.st3{fill-rule:evenodd;clip-rule:evenodd;fill:#EDB581;}
	.st4{fill-rule:evenodd;clip-rule:evenodd;fill:#D88F55;}
	.st5{fill-rule:evenodd;clip-rule:evenodd;fill:#BD6E39;}
	.st6{fill-rule:evenodd;clip-rule:evenodd;fill:#F0B3B5;}
	.st7{fill:none;stroke:#E88CA2;stroke-width:1.7;stroke-linecap:round;stroke-linejoin:round;stroke-miterlimit:22.9256;}
	.st8{fill:none;stroke:#822E2D;stroke-width:1.7;stroke-linecap:round;stroke-linejoin:round;stroke-miterlimit:22.9256;}
	.st9{fill:none;stroke:#EB99B1;stroke-width:1.7;stroke-linecap:round;stroke-linejoin:round;stroke-miterlimit:22.9256;}
	.st10{fill-rule:evenodd;clip-rule:evenodd;fill:#EF8380;}
	.st11{fill-rule:evenodd;clip-rule:evenodd;fill:#494948;}
	.st12{fill:none;stroke:#1A1A18;stroke-width:1.7;stroke-linecap:round;stroke-linejoin:round;stroke-miterlimit:22.9256;}
	.st13{fill-rule:evenodd;clip-rule:evenodd;fill:#FFFFFF;}
	.st14{fill-rule:evenodd;clip-rule:evenodd;fill:#B5CAD6;}
	.st15{fill-rule:evenodd;clip-rule:evenodd;fill:#1A1A18;}
	.st16{fill-rule:evenodd;clip-rule:evenodd;fill:#F7DDBD;}
	.st17{fill-rule:evenodd;clip-rule:evenodd;fill:#D8D9D9;}
	.st18{fill-rule:evenodd;clip-rule:evenodd;fill:#575656;}
	.st19{fill-rule:evenodd;clip-rule:evenodd;fill:#EEC185;}
	.st20{fill:none;stroke:#E30045;stroke-width:8.4999;stroke-linecap:round;stroke-linejoin:round;stroke-miterlimit:22.9256;}
	.st21{fill-rule:evenodd;clip-rule:evenodd;fill:#B9C071;}
	.st22{fill-rule:evenodd;clip-rule:evenodd;fill:#E9A0A2;}
	.st23{fill-rule:evenodd;clip-rule:evenodd;fill:#D8736F;}
	.st24{fill-rule:evenodd;clip-rule:evenodd;fill:#F7D2AE;}
	.st25{fill-rule:evenodd;clip-rule:evenodd;fill:#EB99B1;}
	.st26{fill:none;stroke:#BC5038;stroke-width:1.7;stroke-linecap:round;stroke-linejoin:round;stroke-miterlimit:22.9256;}
</style>
<path class="st0" d="M31.3,330.5c-13.6-70.8,46-87.7,44.2-135.7C72.6,124.5,114.6,76.5,214.8,98c56.8,12.2,62.3-45.8,96.9-61
	c38.9-17.1,58.4-8.3,83.3,8.5c42.3,35.2,103.8,95.2,117.7,150.4C560,383.4,358.2,416.2,249.1,420.3
	C142.3,424.3,44.8,413.6,31.3,330.5z"/>
<polygon class="st1" points="158.2,349.6 171.2,336.3 184.3,338.5 180.7,353.3 175.1,393.1 157.5,393.1 "/>
<path class="st2" d="M195.9,360c-4.9-3.1-9.6-2.8-13.6-1.8l2.7-16.9l-14.3-10l-14.3,7.9l-11.8-25l47.9,0.9l9.4,7.8
	c6.9,2.8,13.4,3,19.6,0.5c5.1,2.1,5.5-3.9,2.2-11.1l-10.3-13.3c11.4-11.6,18.7-17.7,23.4-13.3c3.2-2.4,8-2.3,9.9,0.8
	c11.6,1.8,1.8,21.4-4.8,18.8C224.8,350.5,208.6,365,195.9,360z"/>
<path class="st3" d="M169.5,290l-39.1-45l68.8-6.6c9.1,13.9-1.8,24.5-1.6,28.3l-3-5C192.2,278.2,176.2,278.6,169.5,290z"/>
<path class="st3" d="M61.4,370.2l-19.6-53.7c-7.8-13.4-30.5-13.3-30.4-28.7c-5.5,4.9-5.8,11.4-3.6,18.6l-3.5-2.2l-3.2-0.4
	c6.2,11.9-0.1,38,11.3,52.6C23.6,372.5,43.4,376.7,61.4,370.2z"/>
<path class="st4" d="M48,351.7l-6.2-35.1C34,303.3,11.3,303.4,11.4,288c-5.5,4.9-5.8,11.4-3.6,18.6l-3.5-2.2L1.1,304
	c6.2,11.8,2.8,22.5,14.2,37.2C21.6,349.4,39,356.4,48,351.7z"/>
<path class="st5" d="M160.2,403.2c13.2,1.1,20.7-17.5,21.8-42.7l3-19.2l-2.9,0.9c-5.2,11.4-4.9,31.5-9.5,41.9
	c-11.3,23.5-24.1-10.2-1.4-47.8c2.2,2.7,4.5,3.3,6.8,1.8c1.5,5.8,10,6.1,13-7.8l-1.6,0.6l-1.6-0.3l-9.2-5.1l-10.4-2.9l-11.9,16.7
	c1.1-8.4-1.2-16.1-8.5-23c12.2,6.1,31.4,6.6,39.9,14.3c2.4,0.7,4.1,0.1,4-3.5c8.9-20.8-26-27.1-37-64.2c-1.1-6-1.2-11,0.6-14
	l-40.7-18.3c-6.6,15.2-17.4,26.3-32.4,33.3c-51.1,20.9-50,79.3-21.2,106.2c23.7,20.4,55.6,27.1,85.3,26
	C149.3,400.2,155.4,403.8,160.2,403.2z"/>
<path class="st2" d="M160.2,403.2c-5.6-0.8-9.5-6.1-11.7-16c-29.9,2.4-61.2-7.3-68.1-37.1c-21.3-19-8.1-51.8,28.6-71.9l-0.8,7.5
	c16.8,25.4,39.7,30.5,39.7,30.5l8.6,3.5l9.1,2.1c-28.5-14.7-26.9-25.1-32.2-38.5c-8.5-23.9,7.2-26.8,13.5-32.3L119.3,239
	c-6.6,15.2-21.7,18-36.8,25.1c-51.1,20.9-50,79.3-21.2,106.1c23.7,20.4,55.6,27.1,85.3,26C149.3,400.2,155.4,403.8,160.2,403.2z"/>
<path class="st2" d="M484.3,309.8l11.5-42.3c8.6,2.9,12.1,11.6,9.2,21.6l2.4-1.3C507.3,298.9,497.5,310.9,484.3,309.8z"/>
<path class="st4" d="M377.8,315.1l34.5,7.2l55.6-52.9l-35.8-61.9l-78.4,15.2c-10.5,10-18.3,21.3-19.2,31.5l3.5-3.2
	C327.6,280.8,344.5,308.7,377.8,315.1z"/>
<path class="st5" d="M432.1,207.6l-78.4,15.2c-1.9,9.1,12.5,16.3,15.6,23.9C386.2,235.1,420.9,225.8,432.1,207.6z"/>
<path class="st3" d="M442,182.5l-86.9-10.8c-8.4,6.1-11.6,12.7-11.8,19.5c1.8-3.6,4.3-5.6,7.4-6.1c-14.4,14.4-4.3,31.9,14.8,50.6
	c-0.8-4.2-0.3-7.5,1.6-10c1.7,6.2,2.6,10.9,3.2,14.8C394.2,221.2,445.1,218.6,442,182.5z"/>
<path class="st2" d="M392.1,21.7l-38.7,25.2c-5.9-2.8-9.4-8.2-9.3-17.5l3.2,2.6c-5-11.5,1.2-26.3,17.9-30.4
	C379.3-2,395.3,8,392.1,21.7z"/>
<path class="st6" d="M382.9,25.3l-22.5,14.5c-5.5-6-3.6-13.9,0.8-18.6l1.7,4.4C364.4,15.8,377.9,13.8,382.9,25.3z"/>
<path class="st7" d="M360.5,39.9c-5.5-6-3.6-13.9,0.8-18.6l1.7,4.4c1.5-9.8,15-11.8,20.1-0.2"/>
<path class="st5" d="M361.7,175.6c36.4,14.1,61.1,13.8,80.3,6.9c1.3,10.3-2,18.7-9.9,25c10,15.3,10.6,27.3,7.1,37.7l5.2-6.8
	c-2.1,20.4-13.1,29-19.6,43.5l8.1-5.5c-6.2,6.7-10.8,13.6-13.8,20.5c-5.5-0.1-10.3,2.5-14.3,7.8l-3,0.1l-5,1.9
	c-3.7-3.5-15.5-4.9-18.8,8.4c-17.7-3.5-31.2-12-38.7-27.6c-5.2-11.8-6.2-24-1.1-36.5l-3.5,3.2c0.8-9.2,7.9-19.8,19.2-31.5
	c-10.4-13.6-14.2-26.4-3.1-37.7l-4.5,2.1l-2.9,4l0.6-4.5c-13.8,14.6-39.5,20.3-43.8,35.4c-5,14.3,0.1,31.5,12.8,32.3
	c-1.3,8.3-0.9,16,1.3,23.2c-6.3-8.6-13.6-10.8-22.4-3.4c-4.6,0.7-7.2,4.6-7.9,11.5c-7.8,4.4-6.4,16.9,3.1,19.6l6.1,9.7l6.4,7.1
	l29.7-0.4c19.5-13.4,36.5-9.7,48.7,5c-4.2,23.4,5.5,38.9,26.9,37.6c22.3,4.5,82.8-33.7,82.4-68l3.2,3.5c9.4-35,6.8-66.2-7.7-93.5
	c39.2-32,30.9-81.1,4.9-94c0.5-5.8-0.3-11.4-4.2-16.6l6.2,3.6c0.2-6.3-1.4-12.7-7.3-19c9.1-4.2,13.8-10.6,11.5-20.8l2.7,7.4
	c11.6-22.7-9.5-43.2-31.5-34.6l6.1-5.6c-7.9,1.3-14.7,5.5-20.1,14c-10.4-12.7-24.4-19.6-42.7-19.5l3.5-2.9
	c-10.3,0.5-18.1,4.3-23.4,11.3l7.4-9.3C357.7,32,334.2,62.6,338,93.4c-8.9,6.2-13.4,15.1-14.9,25.7c2.2-2,4.9-3.3,8.2-3.7
	c-4.1,3.8-6.4,7.9-7.3,12.2C328.9,148,343.4,165.9,361.7,175.6z"/>
<path class="st2" d="M361.7,175.6c36.4,14.1,61.1,13.8,80.3,6.9c15.4-5.5,25.9-18.5,29.3-42.7c-5.9-10.5-8.7-20.5-4.5-29.4l-1.3-0.6
	c4-1.7,7.7-2,11-0.9c16,2.9,27.4,13.1,32.2,34.1c-4.1,30.1-24,54.5-48.8,64.5c10,15.3,10.6,27.3,7.1,37.7l5.2-6.8
	c-2.1,20.4,5.2,26.1-1.3,40.6l8.1-5.5c2.6,13.2-22.1,53-60.2,61.8c-9.2,36-41.9,29.2-41.6-1.7l1.3-10.3c4.1,6.1,8.8,5.1,13.9-0.8
	c2.8,6.3,7.4,7.4,13.8,3.3c1.7,8.7,9.6,6.2,12.4,0.5c-6.7,3.1-10.8,1.6-11.6-5.3c-6.2,3.5-11.3,3-14.9-3.1c-6.9,4.2-12.3,4.7-14-2.9
	c-17.7-3.5-31.2-12-38.7-27.6c-5.2-11.8-6.2-24-1.1-36.5l-3.5,3.2c0.8-9.2,7.9-19.8,19.2-31.5c-3.6-7.9-8.5-11.1-9.8-22.1
	c-16.1,7.6-26.7,29.7-30.7,40.2c-1.9,9.1-1.6,9.8-0.3,13.5c-1-9.5,11.6-16.7,17.5-25c-22.3,29.7-12.8,40.5-2.1,70.6
	c-21.5-34.7-33.7-18.4-31.3-12.1c-4.6,0.7-6.5,0.8-7.2,7.7c-7.8,4.4-6,8.5-2.7,9.7l6.1,9.7l6.4,7.1l29.7-0.4
	c19.5-13.4,36.5-9.7,48.7,5c-4.2,23.4,5.5,38.9,26.9,37.6c22.3,4.5,82.8-33.7,82.4-68l3.2,3.5c9.4-35,6.8-66.2-7.7-93.5
	c39.2-32,30.9-81.1,4.9-94c0.5-5.8-0.3-11.4-4.2-16.6l6.2,3.6c0.2-6.3-1.4-12.7-7.3-19c-12.6,1.2-7.6-13.7-1.4-22.1l2.7,7.4
	c12.4-19.1-3.4-33.2-22.1-26l6.1-5.6c-5,1.2-11.6,2.5-16.6,6.8C439,25.2,402.7,17.8,385.8,33c25.6-4.9,53.5,9,61.6,31.5
	c11,11.5,8.9,45.9-13.6,55.5C485.5,161.2,430.8,201.5,361.7,175.6z"/>
<path class="st8" d="M330,305.8c-2.2-10-7.4-19.4-15.7-28.3c-9.9-11.4-19.7-8.4-22.4-3.4c-4.6,1-7.2,4.9-7.9,11.5
	c-6.2,2.4-6.8,16,3.1,19.6c3.7,6.5,7,12,12.4,16.8"/>
<path class="st1" d="M209.2,354.5c10.2-0.8,21.3-18.5,33.2-48.9l-2.5-2.3l-0.4-2.2l-3.5,1.2l-4.8,0.1l-18,22.8
	C205.3,340.3,201.2,354.5,209.2,354.5z"/>
<path class="st5" d="M221.2,323.6c-13.2,4.6-22.4-0.4-29.7-9.8l-6.7-8.7l-15.1-15.6c6.2-10.2,20.4-10.4,24.8-28.1l3,5
	c10.2,36.4,31.6,44.7,28.6,54.7C226.1,322.9,224,325.8,221.2,323.6z"/>
<path class="st2" d="M221.2,323.6c-13.2,4.6-22.4-0.4-29.7-9.8l-6.7-8.7l-15.1-15.6l5.2-5.8l4.1-2.8
	C182.6,292.3,204.3,328.8,221.2,323.6z"/>
<path class="st8" d="M114.9,230.8c-5.5,14.7-18.6,26.6-32.2,33.2"/>
<path class="st8" d="M93.5,260.5c-62,16.6-62.8,81.2-32.1,109.7c23.7,20.4,55.6,27.1,85.3,26c2.6,4,8.8,7.5,13.7,7"/>
<path class="st8" d="M154.9,263.1c8.6,35.7,46.2,42.8,37,64.2c-0.9-3.4-2.3-6.4-4.8-8.4"/>
<path class="st8" d="M191.9,327.2c0.6,2-2.2,4.8-4,3.5c-22.3-16.7-45,2.3-64.3-48.4"/>
<path class="st8" d="M148.6,387.2c3.7,19.4,17.5,22.4,27.6,3.6c7.5-15.4,4-32.9,8.9-49.5"/>
<path class="st8" d="M199.1,238.3c9.1,13.9-1.8,24.5-1.6,28.3l-3-5c-2.3,16.6-18.3,17-25,28.3"/>
<path class="st8" d="M226.1,321.1c-0.3,4.9-5.1,3.3-13.8-3.8"/>
<path class="st8" d="M169.5,322.8c-12,10.8-19.7,25.9-21.5,46.9"/>
<path class="st8" d="M148,316.4c7.4,7.4,10.2,15.1,8.5,23"/>
<path class="st8" d="M149.8,357.9c-3.4,1.5-6.2,3.7-8.1,6"/>
<path class="st8" d="M190.8,330.1c0.9,8.4-10.3,17.6-12.8,8"/>
<path class="st9" d="M171.2,336.3c-14.7,20.4-15.1,54.2-7.5,55.2c3.2,1,6.2-1.5,8.9-7.5"/>
<path class="st8" d="M242.4,305.7c-0.2-0.1-0.3-0.1-0.5-0.2c-1-0.5-1.9-1.6-2.3-2.7c-0.2-0.5-0.2-1-0.2-1.6"/>
<path class="st9" d="M213.2,325.2c-7.9,15-11.8,30.6-4,29.3c3.1-0.2,6.8-2.3,11.3-7 M231.7,301.9c-0.4,0.4-0.7,0.8-1.1,1.2
	c-2.4,2.7-4.7,5.7-7,8.7"/>
<path class="st8" d="M41.8,316.6c-8-13.9-32.2-14.6-30.4-28.7c-4.4,4-5.6,10.2-3.6,18.6"/>
<path class="st8" d="M15,315.6c-4.9-8.4-9.5-12.3-13.8-11.7c6.1,11.8-0.2,37.9,11.2,52.5c11.3,16.1,31,20.3,49,13.8"/>
<path class="st8" d="M402.8,28.2c2.5-4,5.5-7.2,9-9.7c-10.3,0.5-18.1,4.3-23.4,11.3l7.4-9.3C357.7,32,334.2,62.6,338,93.4
	c-8.9,6.2-13.4,15.1-14.9,25.7c2.2-2,4.9-3.3,8.2-3.7c-4.1,3.8-6.4,7.9-7.3,12.2c4.8,20.6,19.3,38.5,37.7,48.2"/>
<path class="st8" d="M408.3,21.4c19.2-0.4,34.2,8.4,42.7,19.5"/>
<path class="st8" d="M447.3,48.6c2.7-9.9,11.9-19.2,23.7-21.7l-6.1,5.6c21.8-10.7,43.1,13,31.5,34.6l-2.7-7.4"/>
<path class="st8" d="M493.7,59.7c3.3,10.1-7.2,23.2-24.7,24.4"/>
<path class="st8" d="M353.5,46.9c-5.9-2.8-9.4-8.2-9.3-17.5l3.2,2.6c-5-11.5,1.2-26.3,17.9-30.4C379.3-2,395.3,8,392.1,21.7"/>
<path class="st8" d="M368.2,178.6c63.5,18.4,97.3,5.2,102.9-38.8"/>
<path class="st8" d="M474.2,142.8c-7.3-5.5-13.4-24.2-7.4-32.4"/>
<path class="st8" d="M476.5,109c46.5,7.3,43,77.6-2.4,103"/>
<path class="st8" d="M482.2,80.4c5.3,4.9,7.4,11.4,7.3,19l-6.2-3.6c3.9,4.5,5,10.1,4.2,16.6"/>
<path class="st8" d="M355.2,171.7c-8.4,6.1-11.6,12.7-11.8,19.5c1.8-3.6,4.3-5.6,7.4-6.1c-14.4,14.4-4.3,31.9,14.8,50.6
	c-0.8-4.2-0.3-7.5,1.6-10c1.7,6.2,2.6,10.9,3.2,14.8c23.9-19.3,74.9-21.9,71.7-57.9"/>
<path class="st8" d="M343.9,186.7c-13.8,15.4-37.9,19-43.7,35.3c-4.3,12.5-0.9,31.1,12.8,32.3c-2.4-6.2-3.6-12-2.6-17.1"/>
<path class="st8" d="M342.6,210.5c-0.5,12.7-26.5,27.6-29.6,43.8c-1.7,6.9-1.3,14.6,1.3,23.2"/>
<path class="st8" d="M432.1,207.6c9.3,15.9,10.9,28.1,7.1,37.7l5.2-6.8c-1.6,20.1-13.7,28.8-19.6,43.5l8.1-5.5
	c-5.7,5.4-10.3,12.3-13.8,20.5"/>
<path class="st8" d="M425,297.5c-8.8-1.5-15.6,0.9-20.4,7.4"/>
<path class="st8" d="M482.7,206.2c15.5,24.4,16.4,67.4,7.7,93.5l-3.2-3.5c0.5,32.2-57.4,72.1-82.4,68c-20.6,0.8-31.8-11.8-26.4-40.6
	"/>
<path class="st8" d="M353.8,222.8c-10.5,10-18.3,21.3-19.2,31.5l3.5-3.2c-10.5,29.7,6.4,57.6,39.8,64.1"/>
<path class="st8" d="M495.8,267.4c8.6,2.9,12.1,11.6,9.2,21.6l2.4-1.3c-0.2,11.2-10,23.2-23.2,22"/>
<path class="st1" d="M468.2,56.7c0.5-3.5,1.9-6.7,4.9-9.1c-6.5,1.4-16.6,7.9-11.1,17.9c4.1,8.4,17.8,9.6,22.5-1.6
	C489.2,52,476.4,44.8,468.2,56.7z"/>
<path class="st9" d="M468.2,56.7c0.5-3.5,1.9-6.7,4.9-9.1c-6.5,1.4-16.6,7.9-11.1,17.9c4.1,8.4,17.8,9.6,22.5-1.6
	C489.2,52,476.4,44.8,468.2,56.7z"/>
<path class="st10" d="M384.5,150.7l-6-6.5l-5.7,2.2C372.2,156.3,381.1,156.7,384.5,150.7z"/>
<path class="st4" d="M378.4,144.2c9.3,14.3,31.5,15.6,40.5,3.1c10.4-15.9-5.2-36.2-31.2-38.7c-21.1-2.1-36.9,5.4-37.5,20.1
	C349.8,146.2,369.5,149.3,378.4,144.2z"/>
<path class="st8" d="M378.4,144.2c9.3,14.3,31.5,15.6,40.5,3.1c10.4-15.9-5.2-36.2-31.2-38.7c-21.1-2.1-36.9,5.4-37.5,20.1
	C349.8,146.2,369.5,149.3,378.4,144.2z"/>
<path class="st8" d="M372.7,146.4c-0.5,9.9,8.4,10.3,11.7,4.3"/>
<path class="st8" d="M369.5,146.9c-1.7,14.2,11.6,18.2,19.1,6.2"/>
<path class="st4" d="M361.1,71.6c3.4-2,7.4-3.5,12.8-1.4c3.1,1.4,5.1-2.7,3.1-4.5c-4.8-4.4-12.8-4.5-18.5,1.8
	C356.8,69.4,358.3,72.9,361.1,71.6z"/>
<path class="st8" d="M361.1,71.6c3.4-2,7.4-3.5,12.8-1.4c3.1,1.4,5.1-2.7,3.1-4.5c-4.8-4.4-12.8-4.5-18.5,1.8
	C356.8,69.4,358.3,72.9,361.1,71.6z"/>
<path class="st4" d="M438.9,90.1c-1.2-3.8-3-7.6-8.3-9.8c-3.2-1.1-2.2-5.9,1.8-5.9c7.1,0.2,12.2,6.9,11.3,14.5
	C443.4,91.5,440,93,438.9,90.1z"/>
<path class="st8" d="M438.9,90.1c-1.2-3.8-3-7.6-8.3-9.8c-3.2-1.1-2.2-5.9,1.8-5.9c7.1,0.2,12.2,6.9,11.3,14.5
	C443.4,91.5,440,93,438.9,90.1z"/>
<path class="st5" d="M411.1,133.7c1.6,0,2.9,1.3,2.9,2.9c0,1.6-1.3,2.9-2.9,2.9c-1.6,0-2.9-1.3-2.9-2.9
	C408.3,134.9,409.6,133.7,411.1,133.7z M402.8,141.4c1.7,0,3.1,1.4,3.1,3.1s-1.4,3.1-3.1,3.1s-3.1-1.4-3.1-3.1
	C399.6,142.8,401,141.4,402.8,141.4z M358.4,124.2c1.6,0,2.9,1.3,2.9,2.9c0,1.6-1.3,2.9-2.9,2.9c-1.6,0-2.9-1.3-2.9-2.9
	C355.5,125.4,356.8,124.2,358.4,124.2z M366.9,123.2c1.4,0,2.6,1.2,2.6,2.6c0,1.4-1.2,2.6-2.6,2.6c-1.4,0-2.6-1.2-2.6-2.6
	C364.4,124.4,365.6,123.2,366.9,123.2z M364.1,131.8c1.5,0,2.7,1.2,2.7,2.7s-1.2,2.7-2.7,2.7s-2.7-1.2-2.7-2.7
	S362.6,131.8,364.1,131.8z M399.8,131c1.6,0,2.9,1.3,2.9,2.9c0,1.6-1.3,2.9-2.9,2.9c-1.6,0-2.9-1.3-2.9-2.9
	C396.9,132.2,398.2,131,399.8,131z"/>
<path class="st1" d="M307.8,287.7l-2.6,2.1l-3.9,0.2l-3.2,4.9l-4,1.7l-0.1,3.8l-1.7,3.1c6.9,10.7,14.7,15.6,20.6,11.8
	C318.8,311.8,318.2,296.9,307.8,287.7z"/>
<path class="st11" d="M381.4,127.5c-8.2-2.7-14.4-8.8-12.7-12.5c3.7-5.3,34.1-1.5,31.6,7.7C398.9,126.6,387.4,128.7,381.4,127.5z"/>
<path class="st12" d="M381.4,127.5c-8.2-2.7-14.4-8.8-12.7-12.5c3.7-5.3,34.1-1.5,31.6,7.7C398.9,126.6,387.4,128.7,381.4,127.5z"/>
<path class="st9" d="M292.2,303.6c6.9,10.7,14.7,15.6,20.6,11.8c5.9-3.6,5.4-18.4-5-27.7"/>
<path class="st8" d="M329.2,321.4c14.9-11.9,37-11,48.7,5"/>
<path class="st1" d="M410,332.4c-2.3-1.2-3.6-3.3-4.1-6.4c-6.2,4.3-10.8,3.3-13.8-3.3c-2.3,3.2-4.9,4.8-7.9,4.8
	c-1.9,11.1,0.4,19.1,7.9,22.2C400.7,351.9,408.7,346.9,410,332.4z"/>
<path class="st8" d="M396.7,306.8c-3.3,4.2-4.9,8.8-4.9,12.7c0,7.4,5.4,12.2,14.1,6.6"/>
<path class="st9" d="M384.3,327.5c-1.9,11.1,0.4,19.1,7.9,22.2c8.5,2.2,16.5-2.8,17.8-17.3"/>
<path class="st8" d="M338,132.4c-1.5-0.2-3.1,1.1-4.2,2.3 M455.6,146.8c1.8,0.6,2.9,3.1,3.4,5 M458.8,139.9c2.1,0.7,3,2.4,3.4,3.6
	 M405.2,208.7c1.5,1.5,1.9,3.5,1.7,5.5 M413.2,204c1.1,2.1,0,5.1-1.1,7.2 M357.6,194.3c-1.5,0.1-3.3,1.7-4.1,3.3 M361.2,199.1
	c-1.2,1.5-2,3.9-1.9,5.5 M367.2,209.5c0.6-0.6,0.7-2.2,0.2-3.1 M316.3,257c0-1.7,2.1-4.1,4-4.9 M320.6,264c-0.3-1.3,0.7-3.3,2-4.2
	 M320.8,275.3c-0.1-0.9,1-2.3,2-2.7 M463.4,320.1c0.6-1.2,0-3.5-1.1-4.7 M449.2,332.3c1.1-1.4,0.8-4.5-0.3-6.3 M472.4,306.5
	c0.2-0.8-0.6-2.3-1.4-2.8 M456.8,326.5c0.6-1,0.3-3.1-0.5-4.2 M336.3,123.1c-1.4-0.5-3.2,0.6-4.5,1.6"/>
<path class="st13" d="M370.1,80.9c6.3,0.6,11.1,6.3,10.8,12.7c-0.4,6.4-5.8,11.1-12.1,10.5c-6.3-0.6-11.1-6.3-10.8-12.7
	C358.5,84.9,363.9,80.2,370.1,80.9z"/>
<path class="st13" d="M420.1,89.8c6.7,0.6,11.7,6.7,11.3,13.4c-0.4,6.8-6.1,11.7-12.8,11.1c-6.7-0.6-11.7-6.7-11.3-13.4
	C407.7,94.1,413.4,89.2,420.1,89.8z"/>
<path class="st14" d="M371.7,87.7c4.2,2,6,7,4.1,11.3c-1.9,4.3-6.9,6.2-11.1,4.2c-4.2-2-6-7-4.1-11.3
	C362.6,87.6,367.6,85.7,371.7,87.7z"/>
<path class="st14" d="M421.8,97c4.4,2.1,6.4,7.4,4.3,11.9c-2,4.5-7.3,6.5-11.7,4.4c-4.4-2.1-6.4-7.4-4.3-11.9
	C412.1,96.9,417.4,94.9,421.8,97z"/>
<circle class="st15" cx="366.3" cy="97.5" r="5.1"/>
<path class="st15" d="M416.1,112.7c3,0,5.4-2.4,5.4-5.4c0-3-2.4-5.4-5.4-5.4c-3,0-5.4,2.4-5.4,5.4
	C410.7,110.3,413.1,112.7,416.1,112.7z"/>
<path class="st13" d="M370.5,93c1.2,0.2,2.1,1.4,1.8,2.6c-0.2,1.2-1.4,1.9-2.7,1.7c-1.2-0.2-2.1-1.4-1.8-2.6
	C368,93.5,369.2,92.8,370.5,93z"/>
<path class="st13" d="M420.5,102.7c1.3,0.3,2.2,1.5,1.9,2.7c-0.2,1.2-1.5,2-2.8,1.8c-1.3-0.3-2.2-1.5-1.9-2.7
	C417.9,103.2,419.2,102.4,420.5,102.7z"/>
<path class="st8" d="M380.6,90.7c0.9,6.4-3.3,12.4-9.5,13.3c-6.2,0.9-11.9-3.5-12.9-9.9c-0.9-6.4,3.3-12.4,9.5-13.3
	C373.9,79.9,379.7,84.3,380.6,90.7z"/>
<path class="st8" d="M431.1,100.2c1,6.8-3.5,13-10,14c-6.5,1-12.6-3.7-13.5-10.5c-1-6.8,3.5-13,10-14
	C424.1,88.8,430.2,93.5,431.1,100.2z"/>
<path class="st8" d="M406.3,356.3c9.2-5.2,13.3-16.1,12.2-25.8c7.3-10.9,2-20.2-4.8-18.7c-1.5-7.6-12.2-8.8-17.1-5.2
	c-8.2-7.4-22.8,2.7-18.4,16.7"/>
<path class="st8" d="M378.3,323.5c2.3,5.3,10.1,5.8,13.9-0.8"/>
<path class="st8" d="M413.7,312c-12.6,8.8-8.5,27.3,4.8,18.7"/>
<path class="st8" d="M294.1,296.6c0.9,6.3-3.5,9.4-7,8.5"/>
<path class="st8" d="M301.2,290c-5.5,13.4-17.3,3.7-17.3-4.5"/>
<path class="st8" d="M309.4,284.9c-5.5,13.4-20.5-1.2-17.5-10.8"/>
<polygon class="st16" points="402.6,402.6 193.8,405.2 241.8,322.7 359.3,321.1 "/>
<polygon class="st17" points="260.8,322.5 241.8,322.7 236.4,331.9 256.5,331.8 "/>
<polygon class="st17" points="246.2,354 223.5,354.2 230.4,342.2 251.7,342.1 "/>
<polygon class="st17" points="231.5,385.8 266.9,385.5 263.1,404.3 222.7,404.8 "/>
<polygon class="st17" points="266.9,385.5 270.7,367.2 300.2,367.1 300.1,385.3 "/>
<polygon class="st17" points="240.1,367.3 231.5,385.8 205,386 215.9,367.3 "/>
<polygon class="st17" points="270.7,367.2 240.1,367.3 246.2,354 273.4,353.9 "/>
<polygon class="st17" points="251.7,342.1 256.5,331.8 278,331.8 275.9,342 "/>
<polygon class="st17" points="363.4,384.9 331.9,385.1 328.7,367.1 355.8,367 "/>
<polygon class="st17" points="356.5,367 351,352.9 376,352.7 383.6,366.9 "/>
<path class="st15" d="M364.4,377.8c0,5.3-7.5,9.5-16.8,9.5c-9.3,0-16.8-4.3-16.8-9.5v-9.5l33.5-0.8L364.4,377.8z"/>
<path class="st18" d="M347.6,377.8c9.2,0,16.8-4.3,16.8-9.5c0-5.2-7.5-9.5-16.8-9.5c-9.2,0-16.8,4.3-16.8,9.5
	C330.8,373.5,338.4,377.8,347.6,377.8z"/>
<path class="st13" d="M347.6,372.2c4.6,0,8.3-2,8.3-4.5c0-2.5-3.7-4.5-8.3-4.5c-4.6,0-8.3,2-8.3,4.5
	C339.3,370.2,343,372.2,347.6,372.2z"/>
<polygon class="st17" points="273.5,353.7 275.9,342 300.4,341.9 300.3,353.4 "/>
<polygon class="st17" points="278,331.8 280,322.2 300.5,321.9 300.4,331.7 "/>
<polygon class="st17" points="300.4,341.9 300.4,331.7 322.3,331.6 324.1,341.8 "/>
<polygon class="st17" points="300.2,367.1 300.3,353.4 326.2,353.2 328.7,367.1 "/>
<polygon class="st17" points="300.1,385.3 331.9,385.1 335.2,403.5 299.9,403.9 "/>
<polygon class="st17" points="370.5,403 363.4,384.9 393,384.6 402.6,402.6 "/>
<polygon class="st17" points="326.2,353.2 324.1,341.8 346.6,341.7 351,352.9 "/>
<polygon class="st17" points="322.3,331.6 320.5,321.6 338.6,321.4 342.6,331.5 "/>
<polygon class="st17" points="346.6,341.7 342.6,331.5 364.8,331.4 370.1,341.6 "/>
<polygon class="st19" points="193.8,405.2 402.6,402.6 402.6,418.9 194,420.8 "/>
<path class="st20" d="M302.3,352.3l-0.5,31.5 M273.4,352.4l-2.7,13.3l31.4-0.1"/>
<path class="st20" d="M347.6,376.3c9.2,0,16.8-4.3,16.8-9.5c0-5.2-7.5-9.5-16.8-9.5c-9.2,0-16.8,4.3-16.8,9.5
	C330.8,372,338.4,376.3,347.6,376.3z"/>
<path class="st8" d="M176.2,324.6c1.7,4.8-0.7,8.5-5,11.7"/>
<path class="st8" d="M184.6,328.5c1.2,4.6-8.7,15.1-13.4,7.9"/>
<path class="st8" d="M246.7,286.7c0,1.2-0.1,2.4-0.3,3.5c-1.1,7.2-5.3,11.1-9.5,12.1c-1.9,0.5-3.7,0.3-5.3-0.4
	c5.3-5.3,6.7-13.7,5.1-16"/>
<path class="st8" d="M213.4,299.2c9.9-10.9,19.5-17,23.4-13.3c2-1.5,5.1-1.9,7.4-1.1c1,0.4,1.9,1,2.5,1.9c10.8,1.7,1.8,21.4-4.3,19
	c-15.9,41.8-33.6,59.7-46.5,54.4c-5.4-2.4-9.8-3.1-13.6-1.6"/>
<path class="st8" d="M197.5,266.6c10.2,36.4,31.6,44.7,28.6,54.7c-2-3.2-4.4-5.1-7.1-7.4"/>
<path class="st8" d="M221.5,323.5c-11.5,4-21.6,1.5-30-9.7"/>
<path class="st2" d="M180.3,130.7l-20.2-2.6l-4.5-8.2c9.4-64.6,47.3-49.5,70.3-67.4c8.9-6.3,12.1,1,9.9,11.5
	c-1.8,12.5-13.3,29.3-26.2,37.1C197,108.8,193.3,125,180.3,130.7z"/>
<path class="st3" d="M201.2,240.7c-3.3,9.9-11.7,11.7-25.3,5.4c-30.8,11-54.8,5.2-68.8-25.3l-2.3-1.2l-4.6-4l5.7-1.3l5.3-2.5
	c-3.9,1.5-7.4,0.6-10.4-2.5l4.9-2.5l4.5-3.7l8.4-14.9l56.4,13.4c2.6,2.7,8.1,4.3,16.5,4.8c6.7-5.3,9.1-10.2,7.4-14.9
	c9.1-12.9,24.8-15,32.3-0.3c-2.8-0.3-5.7-0.2-8.8,0.3c4.1,0.4,7,2,8.7,4.8C221.1,200.2,228.5,225,201.2,240.7z"/>
<path class="st4" d="M201.2,240.7c-3.3,9.9-14.4,16.4-28,10.1c-10,3-15.7,2.7-18.6,0.3c-20,0.2-37-7-47.5-30.3l-2.3-1.2l-4.6-4
	l5.7-1.3l5.3-2.5c-3.9,1.5-7.4,0.6-10.4-2.5l4.9-2.5l4.5-3.7l8.4-14.9l12.5,7.2c-16.4,28.4,11.3,51.6,33.6,46.2
	c18.3,0.2,20.7,8.7,34.4-3.3c8.9-1.9,14.6-5.6,17.2-11l-6,6.8L201.2,240.7z"/>
<path class="st5" d="M96,146.6l18.8,14.2c-7.4,8.3-7,23.9-4.5,42.3c9.4-8.5,23.5-9.4,40.2-6.1l28.3-1l6.3-3.2l6.7-1.8l23-10.4
	c-7.9-34.9-29.5-56.2-54.7-52.4c10.8-12.5-0.3-15.5-19.8,3.4c11.4-14.1,5.9-23.4-8.9-2.3C107.9,95.9,97.8,90.8,86.8,91
	c-24.9,4.8-22.7,40.4-34.1,60.6c-5.8,9.2,1,16.1,13.3,12.4C84.3,158.9,88.9,152.7,96,146.6z"/>
<path class="st2" d="M96,146.6l18.8,14.2c-7.4,8.3-7,23.9-4.5,42.3l9.6-5.8l11.3-1.9c-12.5-7.2-6.8-41.9-1.1-44.8
	c6.3-3.6-21.9-50.9-38.3-20.1c-13.6,28.7-41.1,28.6-39.2,20.9c-5.8,9.2,1,16.1,13.3,12.4C84.3,158.9,88.9,152.7,96,146.6z"/>
<path class="st13" d="M179,197.2l-1.9,1.9l-0.4,2.4c-10.5,1.3-17.5-3-26.3-4.5c0.1-17.1,6.5-30.9,11.8-31.4
	C170.1,165.4,175.4,177.1,179,197.2z"/>
<path class="st21" d="M179,198.2l-1.4,1.5l-0.3,1.8c-8.1,1-13.9-0.9-20.8-2.9c0.1-13.3,5.4-24.6,9.5-24.9
	C172.1,173.6,176.2,182.6,179,198.2z"/>
<path class="st1" d="M107.9,131.9c6.4-2.9,14.1,5.8,22.2,18.8c-5.8,2.5-10.8,5.7-14.4,10.5c-7.7-2.7-14.6-7-20.2-14L107.9,131.9z"/>
<path class="st8" d="M95.5,147.3c5.8,6.5,12.3,11.3,19.3,13.6"/>
<path class="st8" d="M122.2,155c-9.7,5-16.8,16.7-11.9,48.1"/>
<path class="st8" d="M132,128.6c15.2-20.7,20.4-10.6,8.4,3c23.8-23.9,36.2-11,9.9,3.3"/>
<path class="st8" d="M155.6,120c9.4-64.6,47.3-49.5,70.3-67.4c8.9-6.3,12.1,1,9.9,11.5c-1.8,12.5-13.3,29.3-26.2,37.1
	c-12.7,7.5-16.3,23.9-29.3,29.6"/>
<path class="st8" d="M160.1,128.2c31.3-2,48.8,23.6,54.7,52.4"/>
<path class="st8" d="M175.1,201.7c-12.7,2.5-25.3-9.9-51.3-5.3"/>
<path class="st8" d="M123.9,196.4c-12.4,2.3-15,10.6-22.9,13c2.9,3.1,6.4,3.9,10.4,2.5c-3.3,2-7,3.3-11,3.8c2.5,2.7,6.1,5.7,10.2,6"
	/>
<path class="st8" d="M107.2,220.8c16.4,39.9,56.8,31.2,68.8,25.3c13.1,6.3,21.5,4.5,25.3-5.4"/>
<path class="st8" d="M167.3,219.3c7.2,9.8,25,8,26.2-4.9c4.3,7,13.6,2,13.7-9"/>
<path class="st8" d="M189.7,230.7c3.2,3.5,8,1,9-2.5"/>
<path class="st8" d="M161.6,160.9c-2.9-0.5-6,1.6-6.7,4.9"/>
<path class="st8" d="M192.7,154.9c-2.2-1.1-4.8-0.6-5.9,1.7"/>
<path class="st13" d="M208.8,181.6c-4.8,3.5-8.3,7.1-10.4,10.8l-6.4-1c-5.5-16.2-6.6-29.7-2.8-32.4
	C195.6,156.2,205.3,165.7,208.8,181.6z"/>
<path class="st21" d="M208.6,183c-3.7,2.7-7.9,5.6-9.6,8.5l-3.2,0.1c-4.2-12.6-5.1-23-2.2-25.1C198.6,164.4,205.9,170.7,208.6,183z"
	/>
<path class="st8" d="M140.4,143.6c-20.9-35.2-39.1-55.2-53.6-52.7c-24.9,4.8-22.7,40.4-34.1,60.6c-5.8,9.2,1,16.1,13.3,12.4
	c18.3-4.9,34-16.7,45.8-38.6"/>
<path class="st15" d="M171.6,198.3c3.4,0,6.3-2.8,6.3-6.3c0-3.4-2.8-6.3-6.3-6.3c-3.4,0-6.3,2.8-6.3,6.3
	C165.3,195.5,168.1,198.3,171.6,198.3z"/>
<path class="st15" d="M202.8,185.9c3.1,0,5.5-2.5,5.5-5.5c0-3.1-2.5-5.5-5.5-5.5c-3.1,0-5.5,2.5-5.5,5.5S199.7,185.9,202.8,185.9z"
	/>
<ellipse class="st13" cx="168.3" cy="188.7" rx="3" ry="3"/>
<circle class="st13" cx="162.2" cy="180.8" r="3.8"/>
<circle class="st13" cx="192.3" cy="174.1" r="3.6"/>
<ellipse class="st13" cx="199.9" cy="177.5" rx="2.6" ry="2.6"/>
<path class="st8" d="M150.6,197c0.1-17.1,6.5-30.9,11.8-31.4c7.8-0.2,12.9,10.2,16.6,30.3"/>
<path class="st8" d="M199,191.6c9.1-12.9,24.8-15,32.3-0.3c-2.8-0.3-5.7-0.2-8.8,0.3c4.1,0.4,7,2,8.7,4.8
	c-10.1,3.8-2.6,28.5-29.9,44.3"/>
<path class="st8" d="M191.8,190.9c-5.5-16.2-6.4-29.1-2.6-31.8c6.4-2.9,16.1,6.6,19.6,22.6"/>
<path class="st22" d="M175.1,201.7c-0.5-7.7,21.1-13.5,23.9-10.2c1.9,3.7-0.6,9.8-7.4,14.9C183.8,206.1,176.2,204.7,175.1,201.7z"/>
<path class="st23" d="M175.1,201.7c-0.9,0.7,20.5,1.1,23.9-10.2c1.9,3.7-0.6,9.8-7.4,14.9C183.8,206.1,176.2,204.7,175.1,201.7z"/>
<path class="st8" d="M164.1,219.2c-0.2-1.4,1.3-3.5,3.7-3.6"/>
<path class="st8" d="M205.2,203.2c0.7-0.9,2.8-1.1,4.2,0.2"/>
<path class="st24" d="M163.8,204.9c-10.9-0.8-17.9-6.4-30.1-4.7C145.3,195.1,155.4,201.2,163.8,204.9z"/>
<path class="st25" d="M167.4,353.5c-3.3,9.3-5.1,20.1-5,33.3C159.8,374.8,160.4,364.9,167.4,353.5z"/>
<path class="st4" d="M173.3,134c9.9,2.9,17.7,9.3,25.2,19.3C194,140.5,185.2,133.3,173.3,134z"/>
<path class="st5" d="M347.8,27.3c2.9-9.8,8.8-17.7,18.6-22.9C354.6,5.5,347.2,15.4,347.8,27.3z"/>
<path class="st3" d="M369.8,306.8c-13.5-8.2-22.6-21-29.7-38.8C341.8,288.9,351.9,303,369.8,306.8z"/>
<path class="st24" d="M358.8,223.2c-9.1-12.4-10.6-26.1-8-34.7C342.3,198.3,347.7,215.1,358.8,223.2z"/>
<path class="st4" d="M318.4,208.2c-8,5.1-13.3,12.8-17.4,23.6C301.7,219.2,307.7,210.7,318.4,208.2z"/>
<path class="st4" d="M434.1,303.7c-8.5-2.9-19.2-2.7-25.5,0C415,297.5,425.8,297,434.1,303.7z"/>
<path class="st4" d="M481.7,113c8.6,5,15.5,10.9,22,21.6C500.4,121.3,492.4,114.9,481.7,113z"/>
<path class="st4" d="M365.9,43.8c-10.2,7.4-16.7,18.1-21.3,32.7C344.6,59.7,351.9,47.9,365.9,43.8z"/>
<path class="st24" d="M203.5,190.1c6-4.5,12.2-5.6,17.9-5.6C215.1,182.1,206.9,184.1,203.5,190.1z"/>
<path class="st24" d="M191.7,259.7c-3.5,8.7-9.4,13.8-15.4,17.4C184.6,275.6,192,268.3,191.7,259.7z"/>
<path class="st4" d="M180.4,304.2c-7.3-5.8-15.8-13.5-20.9-23.8C159.5,291,173.3,301.8,180.4,304.2z"/>
<path class="st4" d="M215.6,306.3c-7.2-7.9-15.1-21.3-18.8-32.2C196.9,286.2,205.5,300.7,215.6,306.3z"/>
<path class="st4" d="M153.2,338.7c-4.9-11.5-13.2-20.1-25.1-27.6C142.6,314.6,151.7,324.1,153.2,338.7z"/>
<path class="st2" d="M84,346.8c6,14.3,16.3,24.8,31,34.1C97.2,376.6,85.9,364.9,84,346.8z"/>
<path class="st5" d="M167.4,95.6c6.2-10.9,15.5-18.4,28.2-24.5C180.9,72.8,170.6,81.2,167.4,95.6z"/>
<path class="st4" d="M69.7,113.1c6.2-10.9,13.5-21.2,28.8-16C87.9,90.1,76.2,92,69.7,113.1z"/>
<path class="st24" d="M42.8,369.7c-11.6-2.9-20.9-9.5-29.7-19.7C18.5,363.1,28.8,370.4,42.8,369.7z"/>
<path class="st26" d="M175.1,201.7c-0.5-7.7,21.1-13.5,23.9-10.2c1.9,3.7-0.6,9.8-7.4,14.9C183.8,206.1,176.2,204.7,175.1,201.7z"/>
<path class="st8" d="M475.8,121.6c-2.1-5-4.8-9.5-10.3-11.7c6.1-3.7,15.6-1.2,19.4,6.3"/>
</svg>
