<?xml version="1.0" encoding="utf-8"?>
<!-- Generator: Adobe Illustrator 21.1.0, SVG Export Plug-In . SVG Version: 6.00 Build 0)  -->
<svg version="1.1" id="Layer_1" xmlns="http://www.w3.org/2000/svg" xmlns:xlink="http://www.w3.org/1999/xlink" x="0px" y="0px"
	 viewBox="0 0 500 475" style="enable-background:new 0 0 500 475;" xml:space="preserve">
<style type="text/css">
	.st0{fill-rule:evenodd;clip-rule:evenodd;fill:#FFE67E;}
	.st1{fill-rule:evenodd;clip-rule:evenodd;fill:#FFF6B1;}
	.st2{fill-rule:evenodd;clip-rule:evenodd;fill:#FCCA00;}
	.st3{fill-rule:evenodd;clip-rule:evenodd;fill:#E3A921;}
	.st4{fill-rule:evenodd;clip-rule:evenodd;fill:#FFF2AF;}
	.st5{fill-rule:evenodd;clip-rule:evenodd;fill:#FFFFFF;}
	.st6{fill-rule:evenodd;clip-rule:evenodd;fill:#B9C071;}
	.st7{fill-rule:evenodd;clip-rule:evenodd;fill:#F7C6C7;}
	.st8{fill-rule:evenodd;clip-rule:evenodd;fill:#E9A0A2;}
	.st9{fill-rule:evenodd;clip-rule:evenodd;fill:#D8736F;}
	.st10{fill-rule:evenodd;clip-rule:evenodd;fill:#1A1A18;}
	.st11{fill-rule:evenodd;clip-rule:evenodd;fill:#F3A5A6;}
	.st12{fill:none;stroke:#A16215;stroke-width:1.7019;stroke-linecap:round;stroke-linejoin:round;stroke-miterlimit:22.9256;}
	.st13{fill:none;stroke:#C14B6B;stroke-width:1.7019;stroke-linecap:round;stroke-linejoin:round;stroke-miterlimit:22.9256;}
</style>
<path class="st0" d="M106.9,410c11-15.8,19.7-33.6,26.6-52.9l-32.4-11.6C67.3,391.8,92.9,409.3,106.9,410z"/>
<path class="st1" d="M60.1,350.5l-10.7,46.2c-19,2.8-29.1-15.4-30.7-54.4l9.2,7.3c-3.3-3.9-5.3-8.4-5.7-13.4
	C35.2,340.5,57.7,340.3,60.1,350.5z"/>
<path class="st0" d="M60.1,350.5l-7.4,24c-8.1,10.6-28.7,2.7-29.5-28.5l4.6,3.6c-3.3-3.9-5.3-8.4-5.7-13.4
	C35.2,340.5,57.7,340.3,60.1,350.5z"/>
<path class="st2" d="M115,208.4c18.7,0.6,33.4,14.5,40.7,36.9l-30.2,33.2l-55.1-1.8c-4.8-11.8-7.5-24-4.6-37.2l-44.7-15.2
	C6.4,248-7.5,236.1,7.3,201.2c9.6-15.9,44.6-6.6,66.4,22.3l8.4-8l1.1-4c-13.1-10.1-49.4-50.6-43.3-57.8c9.8-7.7,30.2,10.2,53.1,20.2
	C111.7,183,115.1,194.6,115,208.4z"/>
<path class="st3" d="M88.6,210.4c10,11.2-20.8,23.3-11.5,62.6l48.3,5.4l-55.1-1.8c-4.8-11.8-7.5-24-4.6-37.2l-39-22.8
	c-21.1,19.8-30.6,27-22.1-8.2c9.6-15.9,41.4-3.6,63.2,25.4l6.1-10.4l8.2-7.8l1.1-4c-11.8-10.2-39.6-36.5-33.4-43.6
	c7.4-6.1,21.5,3.5,39,18C107.4,195,88.7,196.7,88.6,210.4z"/>
<path class="st2" d="M58.8,414.7c-12-2.8-21.8-0.3-28.9,8.5c-5,6.4-3.6,9.5,4,9.5c5.5,8.2,28.3,0.3,42.5,0.4
	c12.6-3.5,22.5-11.7,30.5-23.1c-27.8-4.8-28.7-32.3-5.8-64.5c26.5,15.3,53.1,16.8,55,7c4.9-1.5,5.8-4.3,2.8-8.3
	c3.6-11.6-13.1-7.3-19.6-11l-32.2-30.3l-29.7,6.1c0.4,6.4,1.8,12,4.4,16.8c-7.8,19-28.6,23.1-33.7,43.3
	C44.1,386.3,49.6,402.5,58.8,414.7z"/>
<path class="st3" d="M58.8,414.7c18.7,12.6-9.1,21.5-28.9,8.5c-5,6.4-3.6,9.5,4,9.5c5.5,8.2,28.3,0.3,42.5,0.4l9.3-4.3l4-2l11.6-9.8
	c-8.5,1.6-19.3-1.7-25.5-7c-25.4-18.4-11.2-76,25.2-64.5c26.5,15.3,53.1,16.8,55,7c-27.3,4.3-56.2-16.7-59.2-20.7
	c0.4-13.7,35.5,1.1,29-2.6l-18.7-26.3l-29.7,6.1c0.4,6.4,1.8,12,4.4,16.8c-7.8,19-28.6,23.1-33.7,43.3
	C44.1,386.3,49.6,402.5,58.8,414.7z"/>
<path class="st1" d="M105.3,317.5l43.9-23.3c5.3,11.9,4.9,20.5-1.2,25.8l-1.5,10.2l-2.4-1.9l-1.4-2.8l-3.4,7.6
	C126.3,329.6,114.7,324.6,105.3,317.5z"/>
<path class="st0" d="M100.7,313.6l44.6-15c-3.8,20.5-26.9,23.2-38.6,20L100.7,313.6z"/>
<path class="st4" d="M112.1,273.8c-1.7-3.9,13.8-10.8,20-8.6c3.5-5,2.2-16,31.2-21.6l-4.2,5.6l4.5-1.4l4.7,0.3l-1.4,1.3
	c6.9,27.2-3.6,39.8-20.3,45.9c-4,12-10.2,19.1-23.4,17.7c-5.8,0.1-8.9-3.4-17.4-0.9c-15.5,5.5-29.6,1.1-41.8-17.7
	c0.2-1.8,1.8-3.6,5.1-6c-2.6,0.3-5.5,0.3-8.5-0.1C71.7,272.4,88.9,263.1,112.1,273.8z"/>
<path class="st5" d="M105.3,271c-6.6-2.3-13.3-3.2-20.5-1.3c-1.3-17.3,4.7-25.5,8.6-25.8C100.3,243.7,104.6,254.6,105.3,271z"/>
<path class="st0" d="M64.9,282.6l-4.4,5.6l8.5,0.1l-3.1,2.5l-2,3.4c16.7,25.4,32.4,20.8,46.3,16.9l7.1,0.9c6.5,1.9,17.2,1.5,21-3
	l5-6.3l3.2-7.5c7.5-3.5,17.3-6.4,18.8-22.5c-4.8,14.1-17.3,19.4-25.6,21.7c-3.6,10.8-12,13.7-17.3,8.1c-16.2,7.3-54.3,7.4-45.3-29.3
	C72.5,275.8,70.2,277,64.9,282.6z"/>
<path class="st6" d="M90.9,268.8l6.4,0.3l8,1.9l-1.4-12.6l-1.1-4.3C98.1,248.8,89.3,251.3,90.9,268.8z"/>
<path class="st7" d="M65.3,241.4l1.8-5.8l1.5-3.5c-27.1-23.3-41.2-19.6-47.6-7.7C21,224.3,38.8,236.4,65.3,241.4z"/>
<path class="st7" d="M85.7,205.3c12.8-20.4,13.2-9.4,9.3,0.9l12-4.5l0.6,2.3l-3.1,4.8c3.3-1.6,3.5-2.5,7.1-1.2
	c-4.8-23.8-46.6-42.8-50.5-35.6C59.6,174.8,65.4,187.2,85.7,205.3z"/>
<path class="st8" d="M112.1,273.8c-3.1-4.9,17.5-11.6,20-8.6c2.7,5.6-2.9,12.1-6.8,13.4C122.5,279.5,114.7,278.7,112.1,273.8z"/>
<path class="st9" d="M112.1,273.8c7.2,4.6,19.8-1.5,20.6-7C131.2,280.6,121.1,282.3,112.1,273.8z"/>
<path class="st5" d="M146,249.1c-4.6,1.6-9.3,10.7-13.9,16.1c-9.4-9.9-11.8-24.3-8.8-29C126.4,231.4,139.1,234.4,146,249.1z"/>
<path class="st6" d="M136,260.6c3.1-4.4,6.4-8.6,10.1-11.5l-4-6.5l-3.1-3.4C129.8,236.9,126.1,244.7,136,260.6z"/>
<ellipse transform="matrix(0.9953 -9.721470e-02 9.721470e-02 0.9953 -25.0366 10.8874)" class="st10" cx="99.2" cy="262.4" rx="4.8" ry="4.8"/>
<ellipse transform="matrix(0.9953 -9.714253e-02 9.714253e-02 0.9953 -23.3156 14.6344)" class="st10" cx="138.6" cy="246.8" rx="4.8" ry="4.8"/>
<ellipse transform="matrix(0.9952 -9.752283e-02 9.752283e-02 0.9952 -24.903 10.6508)" class="st5" cx="96.5" cy="260.1" rx="2.3" ry="2.3"/>
<ellipse transform="matrix(0.9953 -9.687148e-02 9.687148e-02 0.9953 -24.2398 10.2658)" class="st5" cx="93.6" cy="254.8" rx="2.8" ry="2.8"/>
<ellipse transform="matrix(0.9953 -9.695739e-02 9.695739e-02 0.9953 -23.0989 13.7686)" class="st5" cx="130.1" cy="244.6" rx="2.8" ry="2.8"/>
<ellipse transform="matrix(0.9953 -9.666592e-02 9.666592e-02 0.9953 -23.004 14.2857)" class="st5" cx="135.9" cy="244.6" rx="2.3" ry="2.3"/>
<path class="st11" d="M63.2,238.4c-11.9-5-22.9-7.8-34.7-13.7C29.9,230.1,55.3,239.1,63.2,238.4z"/>
<path class="st12" d="M81.8,325.8c-7.8,19-28.6,23.1-33.7,43.3c-4,17.3,1.4,33.3,10.7,45.5 M149.3,294.2c5.9,12.7,4.9,20.7-1.2,25.8
	 M146.6,312.5c3.4,7.9,0,11.8-0.1,17.7c-1.7-0.6-2.9-2.1-3.9-4.6c-0.9,2.6-2.2,5.6-3.4,7.6 M105.3,317.5
	c11.8,10.2,29.3,15.6,49.3,18.7c5.6,1,5.4,5.5,4.4,8c3.5,2.8,2,7.2-2.8,8.3c0.2,4.1-5.9,6.1-11.9,5.9c-38.2-2.8-66.8-23.5-66.9-49.4
	 M123.4,293.9c3.9,4.9,11.2,3.8,11.6-3.2 M102.4,281.9c7.3,15.2,21.2,11.1,24.6,1.9c8.6,5.3,21.2-1.4,16.3-14 M124.6,303.9
	c2.2,2.5,6.2,1.8,8-0.8 M132.2,265.2c6.3-7.8,7.8-17.6,31.2-21.6c-1.2,1.5-2.6,3.3-4.2,5.6c3.5-1.5,6.4-1.9,9.1-1.1
	c-2.2,1.8-3.8,4-4.8,6.9 M155.5,244.9c-5.6-21.4-25.4-37.1-40.5-36.4 M73.8,223.5c1.6-1.5,6.5-6.7,8.4-8
	c4.9-21.5,22.2-31.2,12.9-9.3 M70.3,276.8c-5-10.8-7-22.4-5.5-33c0.4-2.8,1.2-5.6,2.2-8.2 M88.6,210.4c20.2-14.5,26.1-8.8,9.3,4.3
	 M83.2,211.6c-13.1-10.1-49.4-50.6-43.3-57.8C49.7,146.1,70.1,164,93,174c18.6,9,22,20.6,21.9,34.3 M132.2,265.2
	c-9.4-9.9-11.8-24.3-8.8-29c3.1-4.6,15.7-1.6,22.7,13 M76.1,226.4c-25.6-34.2-61.8-39.7-68.7-25.2c-14.8,31.3-1.3,48.8,13.7,23.1
	l5.7-7.6l-5.7,7.6c15.4,9.6,43.8,19.4,44.7,15.2 M85.9,243.8c2.3-4.1,6.1-5.7,10.5-3.5 M120.5,233c1.8-2.2,4.1-3.2,6.7-2.8
	 M84.8,269.7c-1.3-17.3,4.7-25.5,8.6-25.8c6.9-0.2,11.2,10.6,11.8,27.1 M166.9,249.4c6.9,27.2-3.6,39.8-20.3,45.9
	c-4,12-10.2,19.1-23.4,17.7c-5.8,0.1-8.9-3.4-17.4-0.9c-15.5,5.5-29.6,1.1-41.8-17.7c0.2-1.8,1.8-3.6,5.1-6
	c-2.6,0.3-5.5,0.3-8.5-0.1c11.2-15.9,28.3-25.2,51.6-14.5 M156.1,352.4h-4.7 M159,344.1l-4.7,0.5 M49.4,396.8
	c-19,2.8-29.1-15.4-30.7-54.4l9.2,7.3c-3.3-3.9-5.3-8.4-5.7-13.4c13.1,4.4,35.6,4.2,38,14.3 M34,432.7c-1.2-2.8-0.3-5.9,2.5-9.3
	 M100.6,284.2c0.6-1.4,1.6-2.5,3.2-3.3 M146,269.8c-1.6-1.3-3.8-0.9-4.6,0.7 M73.8,416.3c-13.5,1.3-29-10.2-43.9,6.9
	c-4.7,4.6-3.3,11.8,4,9.5c1.3,3.1,6.5,4.3,15.7,3.4l26.8-3.1"/>
<path class="st12" d="M101.1,345.4c-33.8,46.4-8.2,63.8,5.8,64.5"/>
<path class="st1" d="M96.9,403c-5.5-5-8.2-18.9-7.9-26.9C86.3,382.3,86.1,396.7,96.9,403z"/>
<path class="st0" d="M144.3,230.2c-5-6.4-15.4-14.5-23.1-17.7C129,212.4,139.8,220.3,144.3,230.2z M108.5,188.9
	c-8.6-7-20.6-14.1-30.6-19.8C90.4,172.4,101.7,179.5,108.5,188.9z M119.8,329.4c8.1,4.2,22.5,8,31.9,8.3
	C143.7,340.5,129,337,119.8,329.4z"/>
<path class="st5" d="M77.6,275.9c6.3-2.3,16.8-2.8,23.3-0.9C95.8,270.4,85.1,270.5,77.6,275.9z M43.8,393c-6-3-14.9-9.2-17.5-16.7
	C27.4,385,35.5,394.1,43.8,393z M151.1,250.4c-6.6,3.1-12.1,8.1-15.2,14.1C136.1,257.7,142.1,252.3,151.1,250.4z"/>
<path class="st13" d="M112.1,273.8c-3.1-4.9,17.5-11.6,20-8.6c2.7,5.6-2.9,12.1-6.8,13.4C122.5,279.5,114.7,278.7,112.1,273.8"/>
</svg>
