<?xml version="1.0" encoding="utf-8"?>
<!-- Generator: Adobe Illustrator 21.1.0, SVG Export Plug-In . SVG Version: 6.00 Build 0)  -->
<svg version="1.1" id="Layer_1" xmlns="http://www.w3.org/2000/svg" xmlns:xlink="http://www.w3.org/1999/xlink" x="0px" y="0px"
	 viewBox="0 0 500 475" style="enable-background:new 0 0 500 475;" xml:space="preserve">
<style type="text/css">
	.st0{fill-rule:evenodd;clip-rule:evenodd;fill:#E3A921;}
	.st1{fill-rule:evenodd;clip-rule:evenodd;fill:#575656;}
	.st2{fill:none;stroke:#1A1A18;stroke-width:1.7019;stroke-linecap:round;stroke-linejoin:round;stroke-miterlimit:22.9256;}
	.st3{fill-rule:evenodd;clip-rule:evenodd;fill:#ECECEC;}
	.st4{fill-rule:evenodd;clip-rule:evenodd;fill:#F6A840;}
	.st5{fill:none;stroke:#DD6A13;stroke-width:1.7019;stroke-linecap:round;stroke-linejoin:round;stroke-miterlimit:22.9256;}
	.st6{fill-rule:evenodd;clip-rule:evenodd;fill:#DD6A13;}
	.st7{fill:none;stroke:#C74D1C;stroke-width:1.7019;stroke-linecap:round;stroke-linejoin:round;stroke-miterlimit:22.9256;}
	.st8{fill-rule:evenodd;clip-rule:evenodd;fill:#FCCA00;}
	.st9{fill-rule:evenodd;clip-rule:evenodd;fill:#F7C6C7;}
	.st10{fill-rule:evenodd;clip-rule:evenodd;fill:#EB9EA1;}
	.st11{fill-rule:evenodd;clip-rule:evenodd;fill:#FFFFFF;}
	.st12{fill:none;stroke:#6E6E6E;stroke-width:1.7019;stroke-linecap:round;stroke-linejoin:round;stroke-miterlimit:22.9256;}
	.st13{fill-rule:evenodd;clip-rule:evenodd;fill:#B7DAEF;}
	.st14{fill:none;stroke:#E37767;stroke-width:1.7019;stroke-linecap:round;stroke-linejoin:round;stroke-miterlimit:22.9256;}
	.st15{fill-rule:evenodd;clip-rule:evenodd;fill:#1A1A18;}
	.st16{fill-rule:evenodd;clip-rule:evenodd;fill:#FFE67E;}
	.st17{fill:none;stroke:#A16215;stroke-width:1.7019;stroke-linecap:round;stroke-linejoin:round;stroke-miterlimit:22.9256;}
	.st18{fill-rule:evenodd;clip-rule:evenodd;fill:#F3A5A6;}
	.st19{fill-rule:evenodd;clip-rule:evenodd;fill:#FFF6B1;}
</style>
<path class="st0" d="M415.9,393.5l5.8-8.9c10.2,3.2,20.3,15.1,39.2,4.3C440.4,406.8,430.6,396.4,415.9,393.5z"/>
<path class="st1" d="M420.6,470.8c11.9,0,21.6-9.7,21.6-21.6c0-11.9-9.7-21.6-21.6-21.6c-11.9,0-21.6,9.7-21.6,21.6
	C399,461.1,408.7,470.8,420.6,470.8z"/>
<path class="st2" d="M420.6,470.8c11.9,0,21.6-9.7,21.6-21.6c0-11.9-9.7-21.6-21.6-21.6c-11.9,0-21.6,9.7-21.6,21.6
	C399,461.1,408.7,470.8,420.6,470.8z"/>
<path class="st3" d="M420.6,464.4c8.4,0,15.2-6.8,15.2-15.2c0-8.4-6.8-15.2-15.2-15.2c-8.4,0-15.2,6.8-15.2,15.2
	C405.4,457.5,412.3,464.4,420.6,464.4z"/>
<path class="st2" d="M420.6,464.4c8.4,0,15.2-6.8,15.2-15.2c0-8.4-6.8-15.2-15.2-15.2c-8.4,0-15.2,6.8-15.2,15.2
	C405.4,457.5,412.3,464.4,420.6,464.4z"/>
<path class="st4" d="M420.6,457.3c4.5,0,8.1-3.7,8.1-8.1c0-4.5-3.7-8.1-8.1-8.1c-4.5,0-8.1,3.7-8.1,8.1
	C412.5,453.6,416.2,457.3,420.6,457.3z"/>
<path class="st5" d="M420.6,457.3c4.5,0,8.1-3.7,8.1-8.1c0-4.5-3.7-8.1-8.1-8.1c-4.5,0-8.1,3.7-8.1,8.1
	C412.5,453.6,416.2,457.3,420.6,457.3z"/>
<polygon class="st6" points="302.9,432.3 403.3,432.3 417,440.2 412.6,448 306.7,448 "/>
<polygon class="st7" points="302.9,432.3 403.3,432.3 417,440.2 412.6,448 306.7,448 "/>
<path class="st4" d="M293.3,367.2l7.4-8.8l-48.5-16c-3.8-1.1-7.7,7.8-2.7,9.2L293.3,367.2z"/>
<path class="st7" d="M293.3,367.2l7.4-8.8l-48.5-16c-3.8-1.1-7.7,7.8-2.7,9.2L293.3,367.2z"/>
<path class="st0" d="M360.7,120.2l60.2,39.3c35.7-7.2,26.8-35.1,15.5-35c-17.6-0.7-11.4-17.8-22.2-20.8
	c-10.9-3.3-15.4,12.3-26.5,1.9C379.8,98.4,360.4,103.5,360.7,120.2z"/>
<path class="st8" d="M430,269.8c-8.1,12.3-14.7,19.6-24.8,26c27.5,27.6,30.2,61.9,16.4,88.9l-10.4,14.7c7.2,4.3,17.2,28,12.2,39.3
	c-5,7.9-22.1,34.9-37.6,19.7c-0.9-14.3-20.4-26.6-24.6-47.1h-9.8c2.4,14.7,2,6.5,0.9,19.9c-9.4,15.9-41.7,10.1-52.7-2.4
	c9.2-7,4.4-26.8,13.6-39.7c-5.2-7.8-5.2-12.1-5.8-15.2c-11.4-3.1-21.2-12-26.7-15.9c1.1-7.6,6.8-11.8,10.1-14.9
	c0.2-0.2-4.2,5.3-6,5.8c-9.5,2.4-31.2-12.2-35.3-11.9c3.2-6.2,8-11.8,18.7-18.1c-5.3-6.1-20.9-31.1-21.1-64.5
	c-16.2-13.3-16-22.9-10.8-20.6l11.1,5c1.8-21.5,6.8-41.3,15.6-59.2c28.1-47.6,73.1-65.3,116.7-56c-2.5-10.7,9.7-10.2,13.3,10.1
	c0.1-9.4,5.2-13.3,8.4,0.3c15.8,9.2,27.8,22.6,35.1,41c38.7-6.8,59.1,6.8,58.8,20.1c0.2,8-13.2,11.3-2.5,21.5
	c7.2,6.8,9,17.9-0.2,20.5c-18.3,8.3-5.5,23.5-12.3,29.5c-10.8,10.2-20.8-11.6-29.7,2.9C445.7,279,436.9,278.5,430,269.8z"/>
<path class="st0" d="M409.1,315.7c34.9,67.8-57.5,115.3-98.8,68.1c2.9,5.2,5.8,15.7,15.9,23.8c12.4,6.7-9.6,26.9-4.7,22.5
	c6.7,1.7,14.7,3.7,18.7,9.8c18-5.9,13.3-20.8,11.1-28.7h9.8c20.1-6.9,24.2,27,16.3,29.5c3.7,4.4,8.4,12.2,8.9,17.2
	c11.8,9,30.9-9.5,37.1-19.4c2.1-21.6-15.1-27.4-12.2-39.3C429.9,382.1,435.7,334,409.1,315.7z M288.1,346.2
	c44,30.9,59.6-8.8,88.1-11.6c-30.4,9.4-62.4,38.7-102.3-8.7c-5.2,1-9.6,3.9-12.8,9.7l24.4,12.4L288.1,346.2z M364.4,215
	c6.2,6.9,6.3,26.3,3.8,33.6l3.5,0.7C376.8,240.4,374.2,223.3,364.4,215z M430,269.8c-12.9,24.5-45,41.2-77.4,37.5
	c-10.7,4.6-22.4,19.6-8,20.5c-18.6,3.3-30.8-7-37.9-38.1c13.7,1,23,7.7,33.6-4.3l11.4,13c-20-29.6,20.9-8.6,49-44.8
	c29.3-41.6,18.3-95.9-28.6-122.5c28,8.8,46,18.4,57.7,44.1c-7.6,34.1,35.7,14.6,49.3,31.2c7.8,7.4,6.2,19.6,0.4,27.3
	c-9.8,12,0.9,21.7-5.3,27.5c-10.8,10.2-14.8-5.9-23.7,8.6C445.7,279,436.9,278.5,430,269.8z"/>
<polygon class="st9" points="343.6,291.8 317.1,290.8 314.1,293 313.9,299.1 319.8,309.6 323.1,312 326.8,310.8 329.6,308.4 "/>
<path class="st10" d="M343.6,291.8l-26.5-1l-3,2.2l-0.2,6.1c6.8-1.3,10.3-0.6,10.5,2c4.4-4.4,8.5-4.8,12.1-1L343.6,291.8z"/>
<path class="st9" d="M475.6,231.2c-2.2,14-17,22.3-30.6,19.8c-2.7,5.3-5.8,5.9-8.8,6.5c6.9-18.7,9.3-36.9,7.2-54.6
	c11.8,3,21.2-2.3,31.2,4.2C481.9,211.7,481.6,225.1,475.6,231.2z"/>
<path class="st11" d="M344.7,253.8c8-3.4,14.8-6.1,23.6-5c4.2-17.2-3.5-33.4-10.2-33.5C348.1,215.9,339.4,231.2,344.7,253.8z"/>
<path class="st11" d="M247.2,254.4l0.4-15.6c-5.2-0.6-12.5-7.5-14.2-4.8C231.6,235.9,235.7,246.2,247.2,254.4z"/>
<path class="st11" d="M345.5,291.2c-4.8-3.3-6.9-7.6-6.4-12.8c-35.3,4-47-12.5-48.7-8C289.3,276.6,308,303.3,345.5,291.2z"/>
<path class="st12" d="M247.6,238.8c-5.2-0.6-12.5-7.5-14.2-4.8c-1.8,2,2.3,12.2,13.8,20.4"/>
<path class="st13" d="M343.1,242.7l1.5,10.6c4.7-1.8,11.6-4.8,19-4.7c3.3-13.5-3.2-25.2-8.5-25.3
	C348.4,223.1,342.5,230.6,343.1,242.7z"/>
<path class="st14" d="M333.6,298.3c-4.8-0.8-7.4,0.5-9.2,2.8c-0.7-1.8-3.1-2.7-7.1-2.8"/>
<ellipse transform="matrix(0.9816 -0.1911 0.1911 0.9816 -39.9831 71.4189)" class="st15" cx="350.4" cy="243.1" rx="7.1" ry="7.1"/>
<ellipse transform="matrix(0.9816 -0.1911 0.1911 0.9816 -39.0474 72.3047)" class="st11" cx="355.3" cy="238.6" rx="2.9" ry="2.9"/>
<path class="st16" d="M374.7,214.3c-0.6,1.4-17.4-4.7-15.2-10.8C362.1,198.1,379.6,206.9,374.7,214.3z"/>
<path class="st17" d="M374.7,214.3c-0.6,1.4-17.4-4.7-15.2-10.8C362.1,198.1,379.6,206.9,374.7,214.3z"/>
<path class="st16" d="M386,455.1c-2.6,8,11.7,14.4,22.2,7.3c9.5-3.9,14.2-19.7,15.3-23.7c-5.6-3.3-18.1,4.7-23.1,14.9
	C399.1,449.1,388.4,448.7,386,455.1z"/>
<path class="st16" d="M313.7,373.3c-14.2-0.9-21.1-4.1-32.8-16.3c3.5-15.7,11.3-6.6,13.4,0.7C305.2,352.4,314.6,367.8,313.7,373.3z
	 M248.9,339.7c10.6,7.2,19.9,11.2,32.8,10.6l3.7-2.4c-3.5-8.2-13-11.6-17.5-8.9C264.6,332.1,250.1,331.8,248.9,339.7z"/>
<path class="st16" d="M299.6,428.9c6.9,8.4,19.6,13.1,40.7,11.2c-9.5-8.6-18.6-12.7-26.3-6.7C313,427.7,302.3,420.6,299.6,428.9z"/>
<path class="st17" d="M285.5,348c-3.2-8.8-13.2-10.4-17.5-8.9c-2.5-6-13.3-7-17.9-2.2 M291.5,342.4c-1.7,1.6-4.8,4.8-8.1,7.2
	c-5.6,4-31.9-5.6-34.4-10c1.6-8.2,9.9-16.9,19.4-20.8 M340.4,440.1c-2.4-5.6-21.2-14.6-26.3-6.7c-1.1-5.4-6.5-8.8-11.4-8.1
	 M351.4,411.3c5.2,12.4,3.1,25.6-11.1,28.7c-10,2.7-37.8-0.6-40.7-11.2c8.7-6.7,5.6-28.4,13.6-39.7 M345.5,291.2
	c-8.6,5.8-16.1,21.1-22.3,20.8c-3-1-6.2-5.9-9.2-13"/>
<path class="st18" d="M477.3,218.2c-4.7-8.6-12.8-8-23.4-10.5C465.5,207.4,474.9,205.2,477.3,218.2z"/>
<path class="st16" d="M491.8,193.7c-5.8-12-33.5-19.1-45.7-16.6C460.8,171.9,491.6,178.4,491.8,193.7z M339.4,242.5
	c0.2-11.2,5.3-23.4,10.9-27.6C340,215.7,336.4,231.4,339.4,242.5z M344.3,269.9c-2.4,8.9-4,11.3,4.6,23.4
	C338.7,285.1,334.8,279.1,344.3,269.9z M325.3,326.7c6.2,7,16.9,7.6,28.6,0.3C343.9,330.7,333.6,330.5,325.3,326.7z M283.1,329.3
	c12.6,13.4,24.3,18.9,42.2,20.4C302.8,351,290.7,343.1,283.1,329.3z M271.6,173c-9.5,16.1-15.3,33.9-19.4,55.5
	C251.9,207.2,258.5,187.4,271.6,173z"/>
<path class="st12" d="M339.1,278.4c-35.3,4-47-12.5-48.7-8c-1,6.2,17.7,33,55.1,20.9"/>
<path class="st1" d="M267.4,470.8c15.2,0,27.5-12.4,27.5-27.5c0-15.2-12.4-27.5-27.5-27.5c-15.2,0-27.5,12.4-27.5,27.5
	C239.9,458.4,252.2,470.8,267.4,470.8z"/>
<path class="st2" d="M267.4,470.8c15.2,0,27.5-12.4,27.5-27.5c0-15.2-12.4-27.5-27.5-27.5c-15.2,0-27.5,12.4-27.5,27.5
	C239.9,458.4,252.2,470.8,267.4,470.8z"/>
<path class="st3" d="M267.4,462.6c10.7,0,19.4-8.7,19.4-19.4s-8.7-19.4-19.4-19.4s-19.4,8.7-19.4,19.4S256.7,462.6,267.4,462.6z"/>
<path class="st2" d="M267.4,462.6c10.7,0,19.4-8.7,19.4-19.4s-8.7-19.4-19.4-19.4s-19.4,8.7-19.4,19.4S256.7,462.6,267.4,462.6z"/>
<polygon class="st4" points="263.5,443.2 270.7,443.8 277.4,361.5 270.2,358.9 "/>
<polygon class="st7" points="263.5,443.2 270.7,443.8 277.4,361.5 270.2,358.9 "/>
<path class="st4" d="M300.6,454.8H385c-0.6-2.4-2.3-5.8-3.6-6.8h-74.6c0-24.3-9.7-36.9-32.9-42.4l-0.5,6.1
	C293.5,416.5,302.4,430.8,300.6,454.8z"/>
<path class="st7" d="M380.6,448h-73.8c0-24.3-9.7-36.9-32.9-42.4l-0.5,6.1c20.2,4.9,29.1,19.2,27.3,43.1h83.5"/>
<path class="st4" d="M267.4,450.8c4.1,0,7.5-3.4,7.5-7.5c0-4.1-3.4-7.5-7.5-7.5c-4.1,0-7.5,3.4-7.5,7.5
	C259.9,447.4,263.3,450.8,267.4,450.8z"/>
<path class="st5" d="M267.4,450.8c4.1,0,7.5-3.4,7.5-7.5c0-4.1-3.4-7.5-7.5-7.5c-4.1,0-7.5,3.4-7.5,7.5
	C259.9,447.4,263.3,450.8,267.4,450.8z"/>
<path class="st17" d="M361.7,393.9c-4.8,35.6,24.1,48.2,24.7,64c0.7,11.5,21.7,7.8,27.8-0.5c13.5-16.3,12.8-35.5,1.9-52.7
	c-4.3-6.7-6.5-4.2-10.1-14 M421.7,384.6c10.2,3.2,20.3,15.1,39.2,4.3c-20.4,17.8-30.2,7.5-45,4.6 M405.3,295.8
	c28,30.9,33.4,73.6,6,103.6 M356.1,366c-9.3,3.9-29,7.8-42.3,7.3c-10.5,2.7-26.1-9.5-32.8-16.3c0.9-6.7,6.7-10.9,10.6-14.6
	 M379.8,123.4c-73.5-15.8-129.1,46.4-132.4,117.3c-1.9,42.7,11.5,76.6,44,101.8c38,26.2,62.8-6.7,84.7-7.8c5.7,0.2,6.1-8.3-1.6-8.1
	c5.8,0,4.7-5.9-0.4-6.2c-15.6-1.9-26.2,11.7-41.8,7.3c-11.8-4-21-15.1-25.4-38 M427.3,157.9c28.8-8.9,19.7-33.4,9-33.3
	c-17.6-0.7-11.4-17.8-22.2-20.8c-10.9-3.3-15.4,12.3-26.5,1.9c-7.9-7.3-27.2-2.3-27,14.5 M399.6,145.6c7.4-15.5-6.8-30.8-6.4-11.8
	c-2.8-20.9-22.3-24.8-9.6-1.3 M431.5,176.3c38.9-10.4,63.3,3.9,64.1,18.8c0.2,8-13.2,11.3-2.5,21.5c7.2,6.8,9,17.9-0.2,20.5
	c-18.3,8.3-5.5,23.5-12.3,29.5c-10.8,10.2-20.8-11.6-29.7,2.9c-5.1,9.4-13.9,8.9-20.7,0.1 M443.4,202.9
	c6.3,52-24.5,110.7-90.7,104.4c-13.5-1.2-20.8,13-29.5,11.8c-4.4-0.9-7.5-5.4-10.4-10.9 M401.6,134c16.7,10.8,29.3,25.7,35.1,41
	 M368.7,247.6c4.2-17.2-3.9-32.3-10.7-32.4c-10,0.8-18.7,15.8-13.4,38.2 M340.1,255.8c6.4-4.9,31.6-11.3,35.2-3.7 M276.2,225.6
	c-2.9-2.1-7-2.4-9.9-1.8 M270,252c-2.2-0.9-5.2-1.1-7.2-0.1 M438.4,200.6c11.8,7.5,26.2,0.1,36.1,6.5c7.4,4.7,7,18.1,1.1,24.2
	 M284.8,348.8c5.1-1.4,8,3.3,9.4,8.9c7.1-4.9,21,6.6,19.4,15.6 M423.5,438.7c-3.6-3.9-17.8,5.5-22.9,15.2
	c-5.1-6.2-13.1-1.9-14.6,1.2 M343.5,269.2c-12.8,16.7,6.1,22.4,8.5,29.1 M264.9,300.1c0.7-4.2,5.5-5.4,7.7-3.4 M260.2,287.3
	c1.3-4.6,6.4-5.9,9.4-3 M361.2,411.3c-12.4,2.7-49.4-7.7-53.7-37.4"/>
<path class="st8" d="M430.8,153.8c10.4-7.6,11-16,10.7-22.6C446.1,136.3,444.4,149,430.8,153.8z"/>
<path class="st19" d="M310.3,367c-2.9-3.2-11.3-8.7-16.3-6.2C297.1,354.4,308,362.1,310.3,367z M420.6,441
	c-6.2,2.9-13.4,8.8-18.6,16.3C404.5,447.7,412.3,441.4,420.6,441z M315.3,434.5c4.7-1.7,12.2-1.7,20.5,4.4
	C329.4,432.3,320.2,428.8,315.3,434.5z M267.5,339.7c-4.1-2.6-8.6-3.5-13.9-3.1C258.7,334.2,263.7,335.2,267.5,339.7z"/>
</svg>
