<?xml version="1.0" encoding="utf-8"?>
<!-- Generator: Adobe Illustrator 21.1.0, SVG Export Plug-In . SVG Version: 6.00 Build 0)  -->
<svg version="1.1" id="Layer_1" xmlns="http://www.w3.org/2000/svg" xmlns:xlink="http://www.w3.org/1999/xlink" x="0px" y="0px"
	 viewBox="0 0 500 475" style="enable-background:new 0 0 500 475;" xml:space="preserve">
<style type="text/css">
	.st0{fill-rule:evenodd;clip-rule:evenodd;fill:#E9F6FD;}
	.st1{fill-rule:evenodd;clip-rule:evenodd;fill:#D3E095;}
	.st2{fill-rule:evenodd;clip-rule:evenodd;fill:#D5AB67;}
	.st3{fill:none;stroke:#AA6F31;stroke-width:1.7019;stroke-linecap:round;stroke-linejoin:round;stroke-miterlimit:22.9256;}
	.st4{fill:none;stroke:#AA7831;stroke-width:1.7019;stroke-linecap:round;stroke-linejoin:round;stroke-miterlimit:22.9256;}
	.st5{fill-rule:evenodd;clip-rule:evenodd;fill:#E2EAB6;}
	.st6{fill-rule:evenodd;clip-rule:evenodd;fill:#ECF1CF;}
</style>
<path class="st0" d="M52.7,371.3c-38.9-33.4-51.5-151,31.1-236.1c77.3-79.6,211.5-104.8,328-24.3c86.7,59.8,135.3,252.5,16.5,313.3
	c-72.6,37.2-162.5,2-233.5,2C132.5,426.3,71,403.9,52.7,371.3z"/>
<path class="st1" d="M295,164.4c40.6-6.8,18.6-34.6,18.6-34.6c14.7-25.8-23.3-26-19.7-29.6c11.4-11.4-15.8-16-13.2-18.6
	c10.9-10.9-5.2-25.4-19.7-25.4c-1,0,9.3-13.4,2.6-16.6c-8.4-4-22.8,38-22.8,32.8c0-16.6-6.9-11.8-6.9-20.6c0-18.7-60.8-6.2-62.3-6.8
	c-19.2-6.2-8.9-24.9-32.7-30.7c-18.7-4.6-35.4,16.7-42.2,29.6c0-4.2-11.5-4.3-20.6,4.5c-10,9.7-6.2,19.5-8.3,20.4
	c-20.4,8.7-11.2,22-15.6,26.5c-17.8,18.4-1.6,25.3-3.2,31.4c-1.2,4.5-9.2,8.7-3.4,21.3c2.7,6,2.4,14.9,2,15.8
	c-5,10.8-4.7,20.5,3,28.3c6.9,7-1.6,8.9,1.5,15.1c8.1,16.3,12.5,7.3,11.4,7.3c17.1,34.3,125.3,75.1,153.3,47c0.5-0.5,17,15,30.6-2
	c3.9-4.9,24.4-15.2,34.8-28.2C288.4,223.5,320.4,165.9,295,164.4z"/>
<path class="st2" d="M169.2,218.8l-35.5,112.8l-0.2,25.7c-15.4,42.8-34.4,68-57,75.6c3,4.8,9.9,6.5,18.6,6.8
	c13.1,0.4,25.5-4.2,36.8-16.1l1.1-0.1l-0.4,3l-3,9.5c-4,8.8,66.8,11.7,67.6,0l0.9-11.5l1.4-0.7c2.3,3.4,5.4,9.9,9.6,13.6
	c8,4.6,36.4-3.7,47.6-12.7c-45.1-15.4-46.1-108.5-24.6-264.5l-11.4-46.7l-37.3,36.5l-8,33.1c-28.6-9.6-27.8-22.5-28.3-84.8
	l-14.3-23.3l-1.6,29.4c-4.2,46.9-2.4,84.7,4.4,91.9C143.3,205.6,154.6,212.6,169.2,218.8z"/>
<path class="st3" d="M175.5,183.2c4-18.7,8.1-35.3,12.2-46 M162.5,242.1c1.6-7.7,4.1-15.6,5.6-23.3 M76.5,433.1
	c24.5-7,42.4-36,56.3-73.8"/>
<path class="st3" d="M131.2,104.6c-4.2,46.9-2.4,84.7,4.4,91.9c12.5,14.6,33.9,23.9,63.5,32.8"/>
<path class="st4" d="M147,98.5c-0.8,48.6,2.4,64,7.3,71c4.2,8,16.5,13.5,40.3,19.1"/>
<path class="st3" d="M233.4,152.9c-33.3,226-2.4,263.7,23.5,272"/>
<path class="st3" d="M95.1,439.9c12.6,0.2,26.9-5.5,36.8-16.1c2.5-2.8,0.3,5.5-2.3,12.4"/>
<path class="st3" d="M197.3,436.3c-0.2-3.3,0.1-7.1,0.9-11.5c2.9-4.1,4.5,9,11,12.9"/>
<path class="st5" d="M303.7,96.2c8.9,1.7,10.5,11.2,7.3,16.2c-5.2,7.9-15.7,3.5-15.9,12.3c-0.1,4.7-1.4,14.5-10.5,20.2
	c-9.4,5.9-26,5.8-35.6-4c-6.5-6.6-2.8,0.6-2.8,5c0,16.2-24,20.1-28.5,5.6c-4.5-14,2.2-4.5-5-1.1c-3.4,1.7-14.5,5.6-14.5-2.8
	c0-14.5-7.1,5.5-14.6,2.5c-9.9-3.9-2.7-12.5-2.7-20.4c0-1.1-11.4,3.2-13.6-0.6c-3.5-6.1,5.2-13.9,6.9-15.6c7.8-7.8-2.2-2.8-7.3-7.8
	c-4.5-4.5-2.2-10.1,1.1-15.1c-2.2-17.3,1.6-40.7-4.5-57c-2.9-7.8-3.3-14.5,1-22c11.6-20.3,23.6-4.8,23.6-4.8
	c14.7-11.1,21.2,5.6,21.2,4.5c0-8.9,20.1-12.8,24-6.7c2.2,3.4,2.8,5.6,2.8,10.1c0,1.1,10.1-6.1,15.6-0.6c2.2,2.2-1.7,6.1,2.2,3.4
	c6.6-4.5,17.3-3.9,17.3,6.1c0,7.8-5,8.4,3.4,8.4c13.4,0,22.3,7.7,15.1,22.9c-4.7,10,4.5,0.6,8.4,4.5c10.6,10.6-5,12.9,3.9,17.3
	C307.1,78.9,311.1,90.8,303.7,96.2z"/>
<path class="st6" d="M136.4,91.2c-1.5,20.1-27.7,31.3-27.3,4.5c-10.6,6.5-25.6-3.8-13.4-18.9c-17.2,0-15.5-19-2.2-20.6
	C75.3,56,76.8,24.8,99.1,29.3c-5.6-27.1,32.7-33,35.6-21.2c4.3-13.6,22.1-8,21.2,1.7c6.7-5.6,11.1,1.7,6.7,6.1
	c12.6-8.8,34.2,3.2,16.7,20C192.1,38,194,53.7,180,53.7c19.9,23-12.2,49.2-27.3,30.6C157.5,96.3,143.4,105.3,136.4,91.2z"/>
</svg>
