<?xml version="1.0" encoding="utf-8"?>
<!-- Generator: Adobe Illustrator 21.1.0, SVG Export Plug-In . SVG Version: 6.00 Build 0)  -->
<svg version="1.1" id="Layer_1" xmlns="http://www.w3.org/2000/svg" xmlns:xlink="http://www.w3.org/1999/xlink" x="0px" y="0px"
	 viewBox="0 0 500 475" style="enable-background:new 0 0 500 475;" xml:space="preserve">
<style type="text/css">
	.st0{fill-rule:evenodd;clip-rule:evenodd;fill:#E9F6FD;}
	.st1{fill-rule:evenodd;clip-rule:evenodd;fill:#A35939;}
	.st2{fill-rule:evenodd;clip-rule:evenodd;fill:#575656;}
	.st3{fill:none;stroke:#1A1A18;stroke-width:1.7019;stroke-linecap:round;stroke-linejoin:round;stroke-miterlimit:22.9256;}
	.st4{fill-rule:evenodd;clip-rule:evenodd;fill:#ECECEC;}
	.st5{fill-rule:evenodd;clip-rule:evenodd;fill:#F6A840;}
	.st6{fill:none;stroke:#DD6A13;stroke-width:1.7019;stroke-linecap:round;stroke-linejoin:round;stroke-miterlimit:22.9256;}
	.st7{fill-rule:evenodd;clip-rule:evenodd;fill:#D88F55;}
	.st8{fill-rule:evenodd;clip-rule:evenodd;fill:#EDB581;}
	.st9{fill-rule:evenodd;clip-rule:evenodd;fill:#D3E095;}
	.st10{fill-rule:evenodd;clip-rule:evenodd;fill:#BD6E39;}
	.st11{fill-rule:evenodd;clip-rule:evenodd;fill:#D5AB67;}
	.st12{fill-rule:evenodd;clip-rule:evenodd;fill:#DD6A13;}
	.st13{fill:none;stroke:#C74D1C;stroke-width:1.7019;stroke-linecap:round;stroke-linejoin:round;stroke-miterlimit:22.9256;}
	.st14{fill:none;stroke:#822E2D;stroke-width:1.7019;stroke-linecap:round;stroke-linejoin:round;stroke-miterlimit:22.9256;}
	.st15{fill-rule:evenodd;clip-rule:evenodd;fill:#F7C6C7;}
	.st16{fill-rule:evenodd;clip-rule:evenodd;fill:#EB9EA1;}
	.st17{fill-rule:evenodd;clip-rule:evenodd;fill:#FFFFFF;}
	.st18{fill:none;stroke:#6E6E6E;stroke-width:1.7019;stroke-linecap:round;stroke-linejoin:round;stroke-miterlimit:22.9256;}
	.st19{fill-rule:evenodd;clip-rule:evenodd;fill:#B7DAEF;}
	.st20{fill:none;stroke:#E37767;stroke-width:1.7019;stroke-linecap:round;stroke-linejoin:round;stroke-miterlimit:22.9256;}
	.st21{fill-rule:evenodd;clip-rule:evenodd;fill:#1A1A18;}
	.st22{fill-rule:evenodd;clip-rule:evenodd;fill:#F3A5A6;}
	.st23{fill-rule:evenodd;clip-rule:evenodd;fill:#B9C071;}
	.st24{fill-rule:evenodd;clip-rule:evenodd;fill:#E9A0A2;}
	.st25{fill-rule:evenodd;clip-rule:evenodd;fill:#D8736F;}
	.st26{fill-rule:evenodd;clip-rule:evenodd;fill:#F7CC9D;}
	.st27{fill:none;stroke:#C14B6B;stroke-width:1.7019;stroke-linecap:round;stroke-linejoin:round;stroke-miterlimit:22.9256;}
	.st28{fill:none;stroke:#AA6F31;stroke-width:1.7019;stroke-linecap:round;stroke-linejoin:round;stroke-miterlimit:22.9256;}
	.st29{fill:none;stroke:#AA7831;stroke-width:1.7019;stroke-linecap:round;stroke-linejoin:round;stroke-miterlimit:22.9256;}
	.st30{fill-rule:evenodd;clip-rule:evenodd;fill:#E2EAB6;}
	.st31{fill-rule:evenodd;clip-rule:evenodd;fill:#ECF1CF;}
	.st32{fill:none;stroke:#E30045;stroke-width:8.5093;stroke-linecap:round;stroke-linejoin:round;stroke-miterlimit:22.9256;}
</style>
<path class="st0" d="M52.7,371.3c-38.9-33.4-51.5-151,31.1-236.1c77.3-79.6,211.5-104.8,328-24.3c86.7,59.8,135.3,252.5,16.5,313.3
	c-72.6,37.2-162.5,2-233.5,2C132.5,426.3,71,403.9,52.7,371.3z"/>
<path class="st1" d="M415.9,393.5l5.8-8.9c10.2,3.2,20.3,15.1,39.2,4.3C440.4,406.8,430.6,396.4,415.9,393.5z"/>
<path class="st2" d="M420.6,470.8c11.9,0,21.6-9.7,21.6-21.6c0-11.9-9.7-21.6-21.6-21.6c-11.9,0-21.6,9.7-21.6,21.6
	C399,461.1,408.7,470.8,420.6,470.8z"/>
<path class="st3" d="M420.6,470.8c11.9,0,21.6-9.7,21.6-21.6c0-11.9-9.7-21.6-21.6-21.6c-11.9,0-21.6,9.7-21.6,21.6
	C399,461.1,408.7,470.8,420.6,470.8z"/>
<path class="st4" d="M420.6,464.4c8.4,0,15.2-6.8,15.2-15.2c0-8.4-6.8-15.2-15.2-15.2c-8.4,0-15.2,6.8-15.2,15.2
	C405.4,457.5,412.3,464.4,420.6,464.4z"/>
<path class="st3" d="M420.6,464.4c8.4,0,15.2-6.8,15.2-15.2c0-8.4-6.8-15.2-15.2-15.2c-8.4,0-15.2,6.8-15.2,15.2
	C405.4,457.5,412.3,464.4,420.6,464.4z"/>
<path class="st5" d="M420.6,457.3c4.5,0,8.1-3.7,8.1-8.1c0-4.5-3.7-8.1-8.1-8.1c-4.5,0-8.1,3.7-8.1,8.1
	C412.5,453.6,416.2,457.3,420.6,457.3z"/>
<path class="st6" d="M420.6,457.3c4.5,0,8.1-3.7,8.1-8.1c0-4.5-3.7-8.1-8.1-8.1c-4.5,0-8.1,3.7-8.1,8.1
	C412.5,453.6,416.2,457.3,420.6,457.3z"/>
<path class="st7" d="M106.9,410c11-15.8,19.7-33.6,26.6-52.9l-32.4-11.6C67.3,391.8,92.9,409.3,106.9,410z"/>
<path class="st8" d="M60.1,350.5l-10.7,46.2c-19,2.8-29.1-15.4-30.7-54.4l9.2,7.3c-3.3-3.9-5.3-8.4-5.7-13.4
	C35.2,340.5,57.7,340.3,60.1,350.5z"/>
<path class="st7" d="M60.1,350.5l-7.4,24c-8.1,10.6-28.7,2.7-29.5-28.5l4.6,3.6c-3.3-3.9-5.3-8.4-5.7-13.4
	C35.2,340.5,57.7,340.3,60.1,350.5z"/>
<path class="st9" d="M295,164.4c40.6-6.8,18.6-34.6,18.6-34.6c14.7-25.8-23.3-26-19.7-29.6c11.4-11.4-15.8-16-13.2-18.6
	c10.9-10.9-5.2-25.4-19.7-25.4c-1,0,9.3-13.4,2.6-16.6c-8.4-4-22.8,38-22.8,32.8c0-16.6-6.9-11.8-6.9-20.6c0-18.7-60.8-6.2-62.3-6.8
	c-19.2-6.2-8.9-24.9-32.7-30.7c-18.7-4.6-35.4,16.7-42.2,29.6c0-4.2-11.5-4.3-20.6,4.5c-10,9.7-6.2,19.5-8.3,20.4
	c-20.4,8.7-11.2,22-15.6,26.5c-17.8,18.4-1.6,25.3-3.2,31.4c-1.2,4.5-9.2,8.7-3.4,21.3c2.7,6,2.4,14.9,2,15.8
	c-5,10.8-4.7,20.5,3,28.3c6.9,7-1.6,8.9,1.5,15.1c8.1,16.3,12.5,7.3,11.4,7.3c17.1,34.3,125.3,75.1,153.3,47c0.5-0.5,17,15,30.6-2
	c3.9-4.9,24.4-15.2,34.8-28.2C288.4,223.5,320.4,165.9,295,164.4z"/>
<path class="st10" d="M115,208.4c18.7,0.6,33.4,14.5,40.7,36.9l-30.2,33.2l-55.1-1.8c-4.8-11.8-7.5-24-4.6-37.2l-44.7-15.2
	C6.4,248-7.5,236.1,7.3,201.2c9.6-15.9,44.6-6.6,66.4,22.3l8.4-8l1.1-4c-13.1-10.1-49.4-50.6-43.3-57.8c9.8-7.7,30.2,10.2,53.1,20.2
	C111.7,183,115.1,194.6,115,208.4z"/>
<path class="st1" d="M88.6,210.4c10,11.2-20.8,23.3-11.5,62.6l48.3,5.4l-55.1-1.8c-4.8-11.8-7.5-24-4.6-37.2l-39-22.8
	c-21.1,19.8-30.6,27-22.1-8.2c9.6-15.9,41.4-3.6,63.2,25.4l6.1-10.4l8.2-7.8l1.1-4c-11.8-10.2-39.6-36.5-33.4-43.6
	c7.4-6.1,21.5,3.5,39,18C107.4,195,88.7,196.7,88.6,210.4z"/>
<path class="st11" d="M169.2,218.8l-35.5,112.8l-0.2,25.7c-15.4,42.8-34.4,68-57,75.6c3,4.8,9.9,6.5,18.6,6.8
	c13.1,0.4,25.5-4.2,36.8-16.1l1.1-0.1l-0.4,3l-3,9.5c-4,8.8,66.8,11.7,67.6,0l0.9-11.5l1.4-0.7c2.3,3.4,5.4,9.9,9.6,13.6
	c8,4.6,36.4-3.7,47.6-12.7c-45.1-15.4-46.1-108.5-24.6-264.5l-11.4-46.7l-37.3,36.5l-8,33.1c-28.6-9.6-27.8-22.5-28.3-84.8
	l-14.3-23.3l-1.6,29.4c-4.2,46.9-2.4,84.7,4.4,91.9C143.3,205.6,154.6,212.6,169.2,218.8z"/>
<path class="st10" d="M58.8,414.7c-12-2.8-21.8-0.3-28.9,8.5c-5,6.4-3.6,9.5,4,9.5c5.5,8.2,28.3,0.3,42.5,0.4
	c12.6-3.5,22.5-11.7,30.5-23.1c-27.8-4.8-28.7-32.3-5.8-64.5c26.5,15.3,53.1,16.8,55,7c4.9-1.5,5.8-4.3,2.8-8.3
	c3.6-11.6-13.1-7.3-19.6-11l-32.2-30.3l-29.7,6.1c0.4,6.4,1.8,12,4.4,16.8c-7.8,19-28.6,23.1-33.7,43.3
	C44.1,386.3,49.6,402.5,58.8,414.7z"/>
<path class="st1" d="M58.8,414.7c18.7,12.6-9.1,21.5-28.9,8.5c-5,6.4-3.6,9.5,4,9.5c5.5,8.2,28.3,0.3,42.5,0.4l9.3-4.3l4-2l11.6-9.8
	c-8.5,1.6-19.3-1.7-25.5-7c-25.4-18.4-11.2-76,25.2-64.5c26.5,15.3,53.1,16.8,55,7c-27.3,4.3-56.2-16.7-59.2-20.7
	c0.4-13.7,35.5,1.1,29-2.6l-18.7-26.3l-29.7,6.1c0.4,6.4,1.8,12,4.4,16.8c-7.8,19-28.6,23.1-33.7,43.3
	C44.1,386.3,49.6,402.5,58.8,414.7z"/>
<polygon class="st12" points="302.9,432.3 403.3,432.3 417,440.2 412.6,448 306.7,448 "/>
<polygon class="st13" points="302.9,432.3 403.3,432.3 417,440.2 412.6,448 306.7,448 "/>
<path class="st5" d="M293.3,367.2l7.4-8.8l-48.5-16c-3.8-1.1-7.7,7.8-2.7,9.2L293.3,367.2z"/>
<path class="st13" d="M293.3,367.2l7.4-8.8l-48.5-16c-3.8-1.1-7.7,7.8-2.7,9.2L293.3,367.2z"/>
<path class="st1" d="M360.7,120.2l60.2,39.3c35.7-7.2,26.8-35.1,15.5-35c-17.6-0.7-11.4-17.8-22.2-20.8
	c-10.9-3.3-15.4,12.3-26.5,1.9C379.8,98.4,360.4,103.5,360.7,120.2z"/>
<path class="st14" d="M420.8,159.6c35.7-7.2,26.8-35.1,15.5-35c-17.6-0.7-11.4-17.8-22.2-20.8c-10.9-3.3-15.4,12.3-26.5,1.9
	c-7.9-7.3-27.2-2.3-27,14.5"/>
<path class="st10" d="M430,269.8c-8.1,12.3-14.7,19.6-24.8,26c27.5,27.6,30.2,61.9,16.4,88.9l-10.4,14.7c7.2,4.3,17.2,28,12.2,39.3
	c-5,7.9-22.1,34.9-37.6,19.7c-0.9-14.3-20.4-26.6-24.6-47.1h-9.8c2.4,14.7,2,6.5,0.9,19.9c-10.5,17.8-42.6,11.7-52.7-2.4
	c9.2-7,4.4-26.8,13.6-39.7c-5.2-7.8-5.2-12.1-5.8-15.2c-11.4-3.1-21.2-12-26.7-15.9c1.1-7.6,6.8-11.8,10.1-14.9
	c0.2-0.2-4.2,5.3-6,5.8c-9.5,2.4-31.2-12.2-35.3-11.9c3.2-6.2,8-11.8,18.7-18.1c-5.3-6.1-20.9-31.1-21.1-64.5
	c-16.2-13.3-16-22.9-10.8-20.6l11.1,5c1.8-21.5,6.8-41.3,15.6-59.2c28.1-47.6,73.1-65.3,116.7-56c-2.5-10.7,9.7-10.2,13.3,10.1
	c0.1-9.4,5.2-13.3,8.4,0.3c15.8,9.2,27.8,22.6,35.1,41c38.7-6.8,59.1,6.8,58.8,20.1c0.2,8-13.2,11.3-2.5,21.5
	c7.2,6.8,9,17.9-0.2,20.5c-18.3,8.3-5.5,23.5-12.3,29.5c-10.8,10.2-20.8-11.6-29.7,2.9C445.7,279,436.9,278.5,430,269.8z"/>
<path class="st1" d="M409.1,315.7c34.9,67.8-57.5,115.3-98.8,68.1c2.9,5.2,5.8,15.7,15.9,23.8c12.4,6.7-9.6,26.9-4.7,22.5
	c6.7,1.7,14.7,3.7,18.7,9.8c18-5.9,13.3-20.8,11.1-28.7h9.8c20.1-6.9,24.2,27,16.3,29.5c3.7,4.4,8.4,12.2,8.9,17.2
	c11.8,9,30.9-9.5,37.1-19.4c2.1-21.6-15.1-27.4-12.2-39.3C429.9,382.1,435.7,334,409.1,315.7z M430,269.8
	c-12.9,24.5-45,41.2-77.4,37.5c-10.7,4.6-22.4,19.6-8,20.5c-18.6,3.3-30.8-7-37.9-38.1c13.7,1,23,7.7,33.6-4.3l11.4,13
	c-20-29.6,20.9-8.6,49-44.8c29.3-41.6,18.3-95.9-28.6-122.5c28,8.8,46,18.4,57.7,44.1c-7.6,34.1,35.7,14.6,49.3,31.2
	c7.8,7.4,6.2,19.6,0.4,27.3c-9.8,12,0.9,21.7-5.3,27.5c-10.8,10.2-14.8-5.9-23.7,8.6C445.7,279,436.9,278.5,430,269.8z"/>
<polygon class="st15" points="343.6,291.8 317.1,290.8 314.1,293 313.9,299.1 319.8,309.6 323.1,312 326.8,310.8 329.6,308.4 "/>
<path class="st16" d="M343.6,291.8l-26.5-1l-3,2.2l-0.2,6.1c6.8-1.3,10.3-0.6,10.5,2c4.4-4.4,8.5-4.8,12.1-1L343.6,291.8z"/>
<path class="st15" d="M475.6,231.2c-2.2,14-17,22.3-30.6,19.8c-2.7,5.3-5.8,5.9-8.8,6.5c6.9-18.7,9.3-36.9,7.2-54.6
	c11.8,3,21.2-2.3,31.2,4.2C481.9,211.7,481.6,225.1,475.6,231.2z"/>
<path class="st17" d="M344.7,253.8c8-3.4,14.8-6.1,23.6-5c4.2-17.2-3.5-33.4-10.2-33.5C348.1,215.9,339.4,231.2,344.7,253.8z"/>
<path class="st14" d="M399.6,145.6c7.4-15.5-6.8-30.8-6.4-11.8c-2.8-20.9-22.3-24.8-9.6-1.3"/>
<path class="st14" d="M443.4,202.9c6.3,52-24.5,110.7-90.7,104.4c-13.5-1.2-20.8,13-29.5,11.8c-4.4-0.9-7.5-5.4-10.4-10.9
	 M401.6,134c16.7,10.8,29.3,25.7,35.1,41"/>
<path class="st17" d="M247.2,254.4l0.4-15.6c-5.2-0.6-12.5-7.5-14.2-4.8C231.6,235.9,235.7,246.2,247.2,254.4z"/>
<path class="st17" d="M345.5,291.2c-4.8-3.3-6.9-7.6-6.4-12.8c-35.3,4-47-12.5-48.7-8C289.3,276.6,308,303.3,345.5,291.2z"/>
<path class="st14" d="M345.5,291.2c-8.6,5.8-16.1,21.1-22.3,20.8c-3-1-6.2-5.9-9.2-13"/>
<path class="st18" d="M247.6,238.8c-5.2-0.6-12.5-7.5-14.2-4.8c-1.8,2,2.3,12.2,13.8,20.4"/>
<path class="st19" d="M343.1,242.7l1.5,10.6c4.7-1.8,11.6-4.8,19-4.7c3.3-13.5-3.2-25.2-8.5-25.3
	C348.4,223.1,342.5,230.6,343.1,242.7z"/>
<path class="st20" d="M333.6,298.3c-4.8-0.8-7.4,0.5-9.2,2.8c-0.7-1.8-3.1-2.7-7.1-2.8"/>
<path class="st1" d="M288.1,346.2l-2.6,1.8l-24.4-12.4c3.2-5.8,7.6-8.7,12.8-9.7c39.8,47.4,71.7,18.1,102.3,8.7
	C347.7,337.4,332.2,377.1,288.1,346.2z"/>
<path class="st14" d="M431.5,176.3c38.9-10.4,63.3,3.9,64.1,18.8c0.2,8-13.2,11.3-2.5,21.5c7.2,6.8,9,17.9-0.2,20.5
	c-18.3,8.3-5.5,23.5-12.3,29.5c-10.8,10.2-20.8-11.6-29.7,2.9c-5.1,9.4-13.9,8.9-20.7,0.1"/>
<path class="st14" d="M438.4,200.6c11.8,7.5,26.2,0.1,36.1,6.5c7.4,4.7,7,18.1,1.1,24.2"/>
<ellipse transform="matrix(0.9816 -0.1911 0.1911 0.9816 -39.9921 71.4402)" class="st21" cx="350.4" cy="243.1" rx="7.1" ry="7.1"/>
<ellipse transform="matrix(0.9816 -0.1911 0.1911 0.9816 -39.0484 72.3058)" class="st17" cx="355.3" cy="238.6" rx="2.9" ry="2.9"/>
<path class="st7" d="M313.7,373.3c-14.2-0.9-21.1-4.1-32.8-16.3c3.5-15.7,11.3-6.6,13.4,0.7C305.2,352.4,314.6,367.8,313.7,373.3z"
	/>
<path class="st7" d="M374.7,214.3c-0.6,1.4-17.4-4.7-15.2-10.8C362.1,198.1,379.6,206.9,374.7,214.3z"/>
<path class="st14" d="M374.7,214.3c-0.6,1.4-17.4-4.7-15.2-10.8C362.1,198.1,379.6,206.9,374.7,214.3z"/>
<path class="st7" d="M386,455.1c-2.6,8,11.7,14.4,22.2,7.3c9.5-3.9,14.2-19.7,15.3-23.7c-5.6-3.3-18.1,4.7-23.1,14.9
	C399.1,449.1,388.4,448.7,386,455.1z"/>
<path class="st14" d="M356.1,366c-9.3,3.9-29,7.8-42.3,7.3c-10.5,2.7-26.1-9.5-32.8-16.3c0.9-6.7,6.7-10.9,10.6-14.6"/>
<path class="st7" d="M248.9,339.7c10.6,7.2,19.9,11.2,32.8,10.6l3.7-2.4c-3.5-8.2-13-11.6-17.5-8.9
	C264.6,332.1,250.1,331.8,248.9,339.7z"/>
<path class="st7" d="M299.6,428.9c6.9,8.4,19.6,13.1,40.7,11.2c-9.5-8.6-18.6-12.7-26.3-6.7C313,427.7,302.3,420.6,299.6,428.9z"/>
<path class="st14" d="M284.8,348.8c5.1-1.4,8,3.3,9.4,8.9c7.1-4.9,21,6.6,19.4,15.6"/>
<path class="st14" d="M361.2,411.3c-12.4,2.7-49.4-7.7-53.7-37.4"/>
<path class="st14" d="M361.7,393.9c-4.8,35.6,24.1,48.2,24.7,64c0.7,11.5,21.7,7.8,27.8-0.5c13.5-16.3,12.8-35.5,1.9-52.7
	c-4.3-6.7-6.5-4.2-10.1-14"/>
<path class="st14" d="M423.5,438.7c-3.6-3.9-17.8,5.5-22.9,15.2c-5.1-6.2-13.1-1.9-14.6,1.2"/>
<path class="st14" d="M421.7,384.6c10.2,3.2,20.3,15.1,39.2,4.3c-20.4,17.8-30.2,7.5-45,4.6"/>
<path class="st14" d="M351.4,411.3c5.2,12.4,3.1,25.6-11.1,28.7c-10,2.7-37.8-0.6-40.7-11.2c8.7-6.7,5.6-28.4,13.6-39.7"/>
<path class="st14" d="M291.5,342.4c-1.7,1.6-4.8,4.8-8.1,7.2c-5.6,4-31.9-5.6-34.4-10c1.6-8.2,9.9-16.9,19.4-20.8"/>
<path class="st14" d="M285.5,348c-3.2-8.8-13.2-10.4-17.5-8.9c-2.5-6-13.3-7-17.9-2.2"/>
<path class="st14" d="M340.4,440.1c-2.4-5.6-21.2-14.6-26.3-6.7c-1.1-5.4-6.5-8.8-11.4-8.1"/>
<path class="st7" d="M344.3,269.9c-2.4,8.9-4,11.3,4.6,23.4C338.7,285.1,334.8,279.1,344.3,269.9z"/>
<path class="st8" d="M267.5,339.7c-4.1-2.6-8.6-3.5-13.9-3.1C258.7,334.2,263.7,335.2,267.5,339.7z"/>
<path class="st8" d="M310.3,367c-2.9-3.2-11.1-7.8-16.1-5.2C297.3,355.3,308,362.1,310.3,367z"/>
<path class="st7" d="M325.3,326.7c8.2,3.8,18.5,4,28.6,0.3C342.3,334.3,331.6,333.6,325.3,326.7z"/>
<path class="st8" d="M421.1,442.7c-8,2.2-13.9,7.1-19.1,14.6C404.5,447.7,411.1,442.3,421.1,442.7z"/>
<path class="st8" d="M314.1,434c6.8-1.7,15.4,0.6,23.1,6.5C330.6,432.8,322.3,428.8,314.1,434z"/>
<path class="st10" d="M430.8,153.8c10.4-7.6,11-16,10.7-22.6C446.1,136.3,444.4,149,430.8,153.8z"/>
<path class="st7" d="M339.4,242.5c0.2-11.2,5.3-23.4,10.9-27.6C340,215.7,336.4,231.4,339.4,242.5z"/>
<path class="st22" d="M477.3,218.2c-4.7-8.6-12.8-8-23.4-10.5C465.5,207.4,474.9,205.2,477.3,218.2z"/>
<path class="st7" d="M271.6,173c-9.5,16.1-15.3,33.9-19.4,55.5C251.9,207.2,258.5,187.4,271.6,173z"/>
<path class="st7" d="M283.1,329.3c12.6,13.4,24.3,18.9,42.2,20.4C302.8,351,290.7,343.1,283.1,329.3z"/>
<path class="st14" d="M276.2,225.6c-2.9-2.1-7-2.4-9.9-1.8 M270,252c-2.2-0.9-5.2-1.1-7.2-0.1"/>
<path class="st7" d="M491.8,193.7c-5.8-12-33.5-19.1-45.7-16.6C460.8,171.9,491.6,178.4,491.8,193.7z"/>
<path class="st1" d="M364.4,215c6.2,6.9,6.3,26.3,3.8,33.6l3.5,0.7C376.8,240.4,374.2,223.3,364.4,215z"/>
<path class="st14" d="M340.1,255.8c6.4-4.9,31.6-11.3,35.2-3.7"/>
<path class="st14" d="M368.7,247.6c4.2-17.2-3.9-32.3-10.7-32.4c-10,0.8-18.7,15.8-13.4,38.2"/>
<path class="st18" d="M339.1,278.4c-35.3,4-47-12.5-48.7-8c-1,6.2,17.7,33,55.1,20.9"/>
<path class="st14" d="M343.5,269.2c-12.8,16.7,6.1,22.4,8.5,29.1"/>
<path class="st14" d="M260.2,287.3c1.3-4.6,6.4-5.9,9.4-3"/>
<path class="st14" d="M264.9,300.1c0.7-4.2,5.5-5.4,7.7-3.4"/>
<path class="st14" d="M379.8,123.4c-73.5-15.8-129.1,46.4-132.4,117.3c-1.9,42.7,11.5,76.6,44,101.8c38,26.2,62.8-6.7,84.7-7.8
	c5.7,0.2,6.1-8.3-1.6-8.1c5.8,0,4.7-5.9-0.4-6.2c-15.6-1.9-26.2,11.7-41.8,7.3c-11.8-4-21-15.1-25.4-38"/>
<path class="st14" d="M405.3,295.8c28,30.9,33.4,73.6,6,103.6"/>
<path class="st8" d="M105.3,317.5l43.9-23.3c5.3,11.9,4.9,20.5-1.2,25.8l-1.5,10.2l-2.4-1.9l-1.4-2.8l-3.4,7.6
	C126.3,329.6,114.7,324.6,105.3,317.5z"/>
<path class="st7" d="M100.7,313.6l44.6-15c-3.8,20.5-26.9,23.2-38.6,20L100.7,313.6z"/>
<path class="st8" d="M112.1,273.8c-1.7-3.9,13.8-10.8,20-8.6c3.5-5,2.2-16,31.2-21.6l-4.2,5.6l4.5-1.4l4.7,0.3l-1.4,1.3
	c6.9,27.2-3.6,39.8-20.3,45.9c-4,12-10.2,19.1-23.4,17.7c-5.8,0.1-8.9-3.4-17.4-0.9c-15.5,5.5-29.6,1.1-41.8-17.7
	c0.2-1.8,1.8-3.6,5.1-6c-2.6,0.3-5.5,0.3-8.5-0.1C71.7,272.4,88.9,263.1,112.1,273.8z"/>
<path class="st17" d="M105.3,271c-6.6-2.3-13.3-3.2-20.5-1.3c-1.3-17.3,4.7-25.5,8.6-25.8C100.3,243.7,104.6,254.6,105.3,271z"/>
<path class="st7" d="M64.9,282.6l-4.4,5.6l8.5,0.1l-3.1,2.5l-2,3.4c16.7,25.4,32.4,20.8,46.3,16.9l7.1,0.9c6.5,1.9,17.2,1.5,21-3
	l5-6.3l3.2-7.5c7.5-3.5,17.3-6.4,18.8-22.5c-4.8,14.1-17.3,19.4-25.6,21.7c-3.6,10.8-12,13.7-17.3,8.1c-16.2,7.3-54.3,7.4-45.3-29.3
	C72.5,275.8,70.2,277,64.9,282.6z"/>
<path class="st23" d="M90.9,268.8l6.4,0.3l8,1.9l-1.4-12.6l-1.1-4.3C98.1,248.8,89.3,251.3,90.9,268.8z"/>
<path class="st15" d="M65.3,241.4l1.8-5.8l1.5-3.5c-27.1-23.3-41.2-19.6-47.6-7.7C21,224.3,38.8,236.4,65.3,241.4z"/>
<path class="st15" d="M85.7,205.3c12.8-20.4,13.2-9.4,9.3,0.9l12-4.5l0.6,2.3l-3.1,4.8c3.3-1.6,3.5-2.5,7.1-1.2
	c-4.8-23.8-46.6-42.8-50.5-35.6C59.6,174.8,65.4,187.2,85.7,205.3z"/>
<path class="st24" d="M112.1,273.8c-3.1-4.9,17.5-11.6,20-8.6c2.7,5.6-2.9,12.1-6.8,13.4C122.5,279.5,114.7,278.7,112.1,273.8z"/>
<path class="st25" d="M112.1,273.8c7.2,4.6,19.8-1.5,20.6-7C131.2,280.6,121.1,282.3,112.1,273.8z"/>
<path class="st14" d="M155.5,244.9c-5.6-21.4-25.4-37.1-40.5-36.4"/>
<path class="st17" d="M146,249.1c-4.6,1.6-9.3,10.7-13.9,16.1c-9.4-9.9-11.8-24.3-8.8-29C126.4,231.4,139.1,234.4,146,249.1z"/>
<path class="st23" d="M136,260.6c3.1-4.4,6.4-8.6,10.1-11.5l-4-6.5l-3.1-3.4C129.8,236.9,126.1,244.7,136,260.6z"/>
<path class="st14" d="M132.2,265.2c6.3-7.8,7.8-17.6,31.2-21.6c-1.2,1.5-2.6,3.3-4.2,5.6c3.5-1.5,6.4-1.9,9.1-1.1
	c-2.2,1.8-3.8,4-4.8,6.9"/>
<path class="st14" d="M166.9,249.4c6.9,27.2-3.6,39.8-20.3,45.9c-4,12-10.2,19.1-23.4,17.7c-5.8,0.1-8.9-3.4-17.4-0.9
	c-15.5,5.5-29.6,1.1-41.8-17.7c0.2-1.8,1.8-3.6,5.1-6c-2.6,0.3-5.5,0.3-8.5-0.1c11.2-15.9,28.3-25.2,51.6-14.5"/>
<path class="st14" d="M73.8,223.5c1.6-1.5,6.5-6.7,8.4-8c4.9-21.5,22.2-31.2,12.9-9.3 M70.3,276.8c-5-10.8-7-22.4-5.5-33
	c0.4-2.8,1.2-5.6,2.2-8.2"/>
<path class="st14" d="M88.6,210.4c20.2-14.5,26.1-8.8,9.3,4.3"/>
<path class="st14" d="M102.4,281.9c7.3,15.2,21.2,11.1,24.6,1.9c8.6,5.3,21.2-1.4,16.3-14"/>
<path class="st14" d="M123.4,293.9c3.9,4.9,11.2,3.8,11.6-3.2"/>
<path class="st14" d="M124.6,303.9c2.2,2.5,6.2,1.8,8-0.8"/>
<path class="st14" d="M132.2,265.2c-9.4-9.9-11.8-24.3-8.8-29c3.1-4.6,15.7-1.6,22.7,13"/>
<path class="st14" d="M100.6,284.2c0.6-1.4,1.6-2.5,3.2-3.3"/>
<path class="st14" d="M146,269.8c-1.6-1.3-3.8-0.9-4.6,0.7"/>
<path class="st14" d="M76.1,226.4c-25.6-34.2-61.8-39.7-68.7-25.2c-14.8,31.3-1.3,48.8,13.7,23.1l5.7-7.6l-5.7,7.6
	c15.4,9.6,43.8,19.4,44.7,15.2"/>
<path class="st14" d="M83.2,211.6c-13.1-10.1-49.4-50.6-43.3-57.8C49.7,146.1,70.1,164,93,174c18.6,9,22,20.6,21.9,34.3"/>
<ellipse transform="matrix(0.9953 -9.721470e-02 9.721470e-02 0.9953 -25.0366 10.8874)" class="st21" cx="99.2" cy="262.4" rx="4.8" ry="4.8"/>
<ellipse transform="matrix(0.9953 -9.714253e-02 9.714253e-02 0.9953 -23.3156 14.6344)" class="st21" cx="138.6" cy="246.8" rx="4.8" ry="4.8"/>
<ellipse transform="matrix(0.9952 -9.752283e-02 9.752283e-02 0.9952 -24.903 10.6508)" class="st17" cx="96.5" cy="260.1" rx="2.3" ry="2.3"/>
<ellipse transform="matrix(0.9953 -9.687148e-02 9.687148e-02 0.9953 -24.2399 10.2658)" class="st17" cx="93.6" cy="254.8" rx="2.8" ry="2.8"/>
<ellipse transform="matrix(0.9953 -9.695739e-02 9.695739e-02 0.9953 -23.0988 13.7686)" class="st17" cx="130.1" cy="244.6" rx="2.8" ry="2.8"/>
<ellipse transform="matrix(0.9953 -9.666592e-02 9.666592e-02 0.9953 -23.004 14.2857)" class="st17" cx="135.9" cy="244.6" rx="2.3" ry="2.3"/>
<path class="st14" d="M84.8,269.7c-1.3-17.3,4.7-25.5,8.6-25.8c6.9-0.2,11.2,10.6,11.8,27.1"/>
<path class="st14" d="M149.3,294.2c5.9,12.7,4.9,20.7-1.2,25.8"/>
<path class="st14" d="M146.6,312.5c3.4,7.9,0,11.8-0.1,17.7c-1.7-0.6-2.9-2.1-3.9-4.6c-0.9,2.6-2.2,5.6-3.4,7.6"/>
<path class="st26" d="M77.6,275.9c6.3-2.3,16.8-2.8,23.3-0.9C95.8,270.4,85.1,270.5,77.6,275.9z"/>
<path class="st26" d="M43.8,393c-6-3-14.9-9.2-17.5-16.7C27.4,385,35.5,394.1,43.8,393z"/>
<path class="st26" d="M151.1,250.4c-6.6,3.1-12.1,8.1-15.2,14.1C136.1,257.7,142.1,252.3,151.1,250.4z"/>
<path class="st22" d="M63.2,238.4c-11.9-5-22.9-7.8-34.7-13.7C29.9,230.1,55.3,239.1,63.2,238.4z"/>
<path class="st7" d="M108.5,188.9c-8.6-7-20.6-14.1-30.6-19.8C90.4,172.4,101.7,179.5,108.5,188.9z"/>
<path class="st14" d="M85.9,243.8c2.3-4.1,6.1-5.7,10.5-3.5"/>
<path class="st14" d="M120.5,233c1.8-2.2,4.1-3.2,6.7-2.8"/>
<path class="st27" d="M112.1,273.8c-3.1-4.9,17.5-11.6,20-8.6c2.7,5.6-2.9,12.1-6.8,13.4C122.5,279.5,114.7,278.7,112.1,273.8"/>
<path class="st14" d="M105.3,317.5c11.8,10.2,29.3,15.6,49.3,18.7c5.6,1,5.4,5.5,4.4,8c3.5,2.8,2,7.2-2.8,8.3
	c0.2,4.1-5.9,6.1-11.9,5.9c-38.2-2.8-66.8-23.5-66.9-49.4"/>
<path class="st14" d="M81.8,325.8c-7.8,19-28.6,23.1-33.7,43.3c-4,17.3,1.4,33.3,10.7,45.5"/>
<path class="st14" d="M73.8,416.3c-13.5,1.3-29-10.2-43.9,6.9c-4.7,4.6-3.3,11.8,4,9.5c1.3,3.1,6.5,4.3,15.7,3.4l26.8-3.1"/>
<path class="st14" d="M49.4,396.8c-19,2.8-29.1-15.4-30.7-54.4l9.2,7.3c-3.3-3.9-5.3-8.4-5.7-13.4c13.1,4.4,35.6,4.2,38,14.3"/>
<path class="st14" d="M101.1,345.4c-33.8,46.4-8.2,63.8,5.8,64.5"/>
<path class="st28" d="M175.5,183.2c4-18.7,8.1-35.3,12.2-46 M162.5,242.1c1.6-7.7,4.1-15.6,5.6-23.3 M76.5,433.1
	c24.5-7,42.4-36,56.3-73.8"/>
<path class="st28" d="M131.2,104.6c-4.2,46.9-2.4,84.7,4.4,91.9c12.5,14.6,33.9,23.9,63.5,32.8"/>
<path class="st29" d="M147,98.5c-0.8,48.6,2.4,64,7.3,71c4.2,8,16.5,13.5,40.3,19.1"/>
<path class="st28" d="M233.4,152.9c-33.3,226-2.4,263.7,23.5,272"/>
<path class="st14" d="M34,432.7c-1.2-2.8-0.3-5.9,2.5-9.3"/>
<path class="st28" d="M95.1,439.9c12.6,0.2,26.9-5.5,36.8-16.1c2.5-2.8,0.3,5.5-2.3,12.4"/>
<path class="st28" d="M197.3,436.3c-0.2-3.3,0.1-7.1,0.9-11.5c2.9-4.1,4.5,9,11,12.9"/>
<path class="st30" d="M303.7,96.2c8.9,1.7,10.5,11.2,7.3,16.2c-5.2,7.9-15.7,3.5-15.9,12.3c-0.1,4.7-1.4,14.5-10.5,20.2
	c-9.4,5.9-26,5.8-35.6-4c-6.5-6.6-2.8,0.6-2.8,5c0,16.2-24,20.1-28.5,5.6c-4.5-14,2.2-4.5-5-1.1c-3.4,1.7-14.5,5.6-14.5-2.8
	c0-14.5-7.1,5.5-14.6,2.5c-9.9-3.9-2.7-12.5-2.7-20.4c0-1.1-11.4,3.2-13.6-0.6c-3.5-6.1,5.2-13.9,6.9-15.6c7.8-7.8-2.2-2.8-7.3-7.8
	c-4.5-4.5-2.2-10.1,1.1-15.1c-2.2-17.3,1.6-40.7-4.5-57c-2.9-7.8-3.3-14.5,1-22c11.6-20.3,23.6-4.8,23.6-4.8
	c14.7-11.1,21.2,5.6,21.2,4.5c0-8.9,20.1-12.8,24-6.7c2.2,3.4,2.8,5.6,2.8,10.1c0,1.1,10.1-6.1,15.6-0.6c2.2,2.2-1.7,6.1,2.2,3.4
	c6.6-4.5,17.3-3.9,17.3,6.1c0,7.8-5,8.4,3.4,8.4c13.4,0,22.3,7.7,15.1,22.9c-4.7,10,4.5,0.6,8.4,4.5c10.6,10.6-5,12.9,3.9,17.3
	C307.1,78.9,311.1,90.8,303.7,96.2z"/>
<path class="st31" d="M136.4,91.2c-1.5,20.1-27.7,31.3-27.3,4.5c-10.6,6.5-25.6-3.8-13.4-18.9c-17.2,0-15.5-19-2.2-20.6
	C75.3,56,76.8,24.8,99.1,29.3c-5.6-27.1,32.7-33,35.6-21.2c4.3-13.6,22.1-8,21.2,1.7c6.7-5.6,11.1,1.7,6.7,6.1
	c12.6-8.8,34.2,3.2,16.7,20C192.1,38,194,53.7,180,53.7c19.9,23-12.2,49.2-27.3,30.6C157.5,96.3,143.4,105.3,136.4,91.2z"/>
<line class="st14" x1="159" y1="344.1" x2="154.2" y2="344.6"/>
<line class="st14" x1="156.1" y1="352.4" x2="151.4" y2="352.4"/>
<path class="st7" d="M119.8,329.4c8.1,4.2,22.5,8,31.9,8.3C143.7,340.5,129,337,119.8,329.4z"/>
<path class="st7" d="M144.3,230.2c-5-6.4-15.4-14.5-23.1-17.7C129,212.4,139.8,220.3,144.3,230.2z"/>
<path class="st32" d="M232.3,160.5c-12.4,76.6-15.7,141.2-11.6,196.2"/>
<path class="st32" d="M131.2,104.6c-4.2,46.9-2.4,84.7,4.4,91.9c12.5,14.6,51.4,29,87.1,39"/>
<path class="st2" d="M267.4,470.8c15.2,0,27.5-12.4,27.5-27.5c0-15.2-12.4-27.5-27.5-27.5c-15.2,0-27.5,12.4-27.5,27.5
	C239.9,458.4,252.2,470.8,267.4,470.8z"/>
<path class="st3" d="M267.4,470.8c15.2,0,27.5-12.4,27.5-27.5c0-15.2-12.4-27.5-27.5-27.5c-15.2,0-27.5,12.4-27.5,27.5
	C239.9,458.4,252.2,470.8,267.4,470.8z"/>
<path class="st4" d="M267.4,462.6c10.7,0,19.4-8.7,19.4-19.4s-8.7-19.4-19.4-19.4s-19.4,8.7-19.4,19.4S256.7,462.6,267.4,462.6z"/>
<path class="st3" d="M267.4,462.6c10.7,0,19.4-8.7,19.4-19.4s-8.7-19.4-19.4-19.4s-19.4,8.7-19.4,19.4S256.7,462.6,267.4,462.6z"/>
<polygon class="st5" points="263.5,443.2 270.7,443.8 277.4,361.5 270.2,358.9 "/>
<polygon class="st13" points="263.5,443.2 270.7,443.8 277.4,361.5 270.2,358.9 "/>
<path class="st5" d="M300.6,454.8H385c-0.6-2.4-2.3-5.8-3.6-6.8h-74.6c0-24.3-9.7-36.9-32.9-42.4l-0.5,6.1
	C293.5,416.5,302.4,430.8,300.6,454.8z"/>
<path class="st13" d="M380.6,448h-73.8c0-24.3-9.7-36.9-32.9-42.4l-0.5,6.1c20.2,4.9,29.1,19.2,27.3,43.1h83.5"/>
<path class="st5" d="M267.4,450.8c4.1,0,7.5-3.4,7.5-7.5c0-4.1-3.4-7.5-7.5-7.5c-4.1,0-7.5,3.4-7.5,7.5
	C259.9,447.4,263.3,450.8,267.4,450.8z"/>
<path class="st6" d="M267.4,450.8c4.1,0,7.5-3.4,7.5-7.5c0-4.1-3.4-7.5-7.5-7.5c-4.1,0-7.5,3.4-7.5,7.5
	C259.9,447.4,263.3,450.8,267.4,450.8z"/>
<path class="st8" d="M96.9,403c-5.5-5-8.2-18.9-7.9-26.9C86.3,382.3,86.1,396.7,96.9,403z"/>
<path class="st32" d="M306.9,371.6l-29.5-10.1l-4.4,54.7c22.3,4.1,30,35.2,11.7,48.5c-14.1,12-40,5.8-44.4-17.6"/>
</svg>
