<?xml version="1.0" encoding="utf-8"?>
<!-- Generator: Adobe Illustrator 21.1.0, SVG Export Plug-In . SVG Version: 6.00 Build 0)  -->
<svg version="1.1" id="Layer_1" xmlns="http://www.w3.org/2000/svg" xmlns:xlink="http://www.w3.org/1999/xlink" x="0px" y="0px"
	 viewBox="0 0 314 402" style="enable-background:new 0 0 314 402;" xml:space="preserve">
<style type="text/css">
	.st0{fill-rule:evenodd;clip-rule:evenodd;fill:#E1F4FD;}
	.st1{fill-rule:evenodd;clip-rule:evenodd;fill:#D9E5AC;}
</style>
<path class="st0" d="M159.2,376.2l-49.5,7.7C16,381.7-14.4,272.8,6.1,177.5C28.3,74.7,152.3,12.1,229.6,49.3
	c68.6,33.1,22.6,90.2,44.6,115.5c66.7,76.7-21.2,80,18.7,135.4c14.3,19.8-25.3,51.8-66.7,61L159.2,376.2z"/>
<path class="st1" d="M178.9,382c10.5,4.5,43.1,1.4,59.7-14.8c6.2,0,37.8-22.7,39.8-26.1c2.2-3.9-23,5.1-23,5.1
	c15.8-7,26.4-25.3,21.5-22.9c-12.1,6.2-17.1,9.8-28.9,14c-23.4,8.3,26-21,15.8-19.7c-10.3,1.4-61.5,22-71.4,7.9
	c-11.4-16.2-21.6-39.3-78.5-11.6c-6.8,3.3-14.2,24.5-10.8,39.4c-1.4-6.6-18.5-18.5-22.3-14.6c-1.2,1,11.3,15.7,11.3,21.6
	c0,2.1-18.8-16.3-20.7-14.5c-1,1,12.8,25.9,13.4,26.9c2.6,3.8-5.3-6.9-12.6-6.7c-3.5,0.1,8.6,14.8,12,18
	c4.2,12.6,21.9,16.8,50.3,17.8C145.5,402.1,178.8,397.5,178.9,382z"/>
</svg>
