<?xml version="1.0" encoding="utf-8"?>
<!-- Generator: Adobe Illustrator 21.1.0, SVG Export Plug-In . SVG Version: 6.00 Build 0)  -->
<svg version="1.1" id="Layer_1" xmlns="http://www.w3.org/2000/svg" xmlns:xlink="http://www.w3.org/1999/xlink" x="0px" y="0px"
	 viewBox="0 0 314 402" style="enable-background:new 0 0 314 402;" xml:space="preserve">
<style type="text/css">
	.st0{fill-rule:evenodd;clip-rule:evenodd;fill:#E1F4FD;}
	.st1{fill-rule:evenodd;clip-rule:evenodd;fill:#D9E5AC;}
	.st2{fill-rule:evenodd;clip-rule:evenodd;fill:#F9A57B;}
	.st3{fill-rule:evenodd;clip-rule:evenodd;fill:#A16044;}
	.st4{fill-rule:evenodd;clip-rule:evenodd;fill:#FCC8A8;}
	.st5{fill:none;stroke:#823436;stroke-width:1.7013;stroke-linecap:round;stroke-linejoin:round;stroke-miterlimit:22.9256;}
	.st6{fill-rule:evenodd;clip-rule:evenodd;fill:#D58F5C;}
	.st7{fill-rule:evenodd;clip-rule:evenodd;fill:#FCC826;}
	.st8{fill-rule:evenodd;clip-rule:evenodd;fill:#E1A836;}
	.st9{fill-rule:evenodd;clip-rule:evenodd;fill:#FFE077;}
	.st10{fill-rule:evenodd;clip-rule:evenodd;fill:#FDCEAE;}
	.st11{fill-rule:evenodd;clip-rule:evenodd;fill:#EBB081;}
	.st12{fill-rule:evenodd;clip-rule:evenodd;fill:#F8ABAD;}
	.st13{fill-rule:evenodd;clip-rule:evenodd;fill:#FFE580;}
	.st14{fill-rule:evenodd;clip-rule:evenodd;fill:#FFFFFF;}
	.st15{fill-rule:evenodd;clip-rule:evenodd;fill:#C7EAFB;}
	.st16{fill:none;stroke:#9A6326;stroke-width:1.7013;stroke-linecap:round;stroke-linejoin:round;stroke-miterlimit:22.9256;}
	.st17{fill-rule:evenodd;clip-rule:evenodd;}
	.st18{fill-rule:evenodd;clip-rule:evenodd;fill:#FEE6D3;}
	.st19{fill-rule:evenodd;clip-rule:evenodd;fill:#FFEDE0;}
	.st20{fill-rule:evenodd;clip-rule:evenodd;fill:#FFF9AE;}
	.st21{fill:none;stroke:#0094D5;stroke-width:1.7013;stroke-linecap:round;stroke-linejoin:round;stroke-miterlimit:22.9256;}
	.st22{fill-rule:evenodd;clip-rule:evenodd;fill:#8ED8F8;}
</style>
<path class="st0" d="M159.2,376.2l-49.5,7.7C16,381.7-14.4,272.8,6.1,177.5C28.3,74.7,152.3,12.1,229.6,49.3
	c68.6,33.1,22.6,90.2,44.6,115.5c66.7,76.7-21.2,80,18.7,135.4c14.3,19.8-25.3,51.8-66.7,61L159.2,376.2z"/>
<path class="st1" d="M178.9,382c10.5,4.5,43.1,1.4,59.7-14.8c6.2,0,37.8-22.7,39.8-26.1c2.2-3.9-23,5.1-23,5.1
	c15.8-7,26.4-25.3,21.5-22.9c-12.1,6.2-17.1,9.8-28.9,14c-23.4,8.3,26-21,15.8-19.7c-10.3,1.4-61.5,22-71.4,7.9
	c-11.4-16.2-21.6-39.3-78.5-11.6c-6.8,3.3-14.2,24.5-10.8,39.4c-1.4-6.6-18.5-18.5-22.3-14.6c-1.2,1,11.3,15.7,11.3,21.6
	c0,2.1-18.8-16.3-20.7-14.5c-1,1,12.8,25.9,13.4,26.9c2.6,3.8-5.3-6.9-12.6-6.7c-3.5,0.1,8.6,14.8,12,18
	c4.2,12.6,21.9,16.8,50.3,17.8C145.5,402.1,178.8,397.5,178.9,382z"/>
<path class="st2" d="M196.1,255.3l-4.1-8.1l2.5-3.3l1.6-6.3c10.1,3.6,33.8-2.9,43.8-15.5l-0.1,6.6l4.6,0.8
	C231.6,246.1,210.5,255.6,196.1,255.3z"/>
<path class="st3" d="M234.2,227.6c0.4,3,0.9,5.2,5.9,7.1c2-1.7,3-3.6,4.2-5.2l-4.6-0.8l0.1-6.6C238.2,223.7,236,226.1,234.2,227.6z"
	/>
<path class="st4" d="M194.5,243.9l1.6-6.3c10.1,3.6,33.8-2.9,43.8-15.5l-5.7,5.5C236.5,239.6,203.5,248.8,194.5,243.9z"/>
<path class="st5" d="M196.1,237.6c10.1,3.6,33.8-2.9,43.8-15.5l-0.1,6.6l4.6,0.8c-1.2,1.8-4.8,6.2-7.9,8.5
	c-12.5,11.3-28.7,17.6-40.4,17.3"/>
<path class="st2" d="M175.5,338.6l-18,5.4c1.1,27.6,1.6,44.8,8.6,48.4l1.6-4.4l4.7,0.4C170.5,377.8,172.7,363.2,175.5,338.6z"/>
<path class="st4" d="M175.5,338.7l-6.5,3.6c1.1,27.6-8.2,28.9-4.6,41.4h7.1C170.7,362.8,173.8,360,175.5,338.7z"/>
<path class="st2" d="M117.2,332.2l15.5,6.6c-2.8,26.2-2,42.1,2.4,53.9l-3.9-0.5l-2.4,3.8C118.3,384,115,350.1,117.2,332.2z"/>
<path class="st4" d="M132.7,338.8c-2.8,26.2-2,42.1,2.4,53.9l-3.9-0.5l1.1,0.2C119.1,377.2,121.1,347.4,132.7,338.8z"/>
<path class="st3" d="M125.4,390.9c1.6-3,5.1-5.3,8.1-3.1c0.5,2.2,0.9,3.1,1.6,5l-3.9-0.5l-2.4,3.8
	C127.6,394.4,126.7,393.3,125.4,390.9z"/>
<path class="st6" d="M102.4,326.5l-2.9-3.9l-1.4-2.9c-7.2,2.6-17.3,2.8-29.5-1.4C79.7,328.3,91.8,329.6,102.4,326.5z"/>
<path class="st7" d="M132.9,343.5l-0.1-4.7c-4.6,0.8-9.8-1.4-15.6-6.6l-0.5,5.8c-4.8-0.4-7.3-4.4-8.6-8c-5.6-1.8-10.2-6.7-12.3-18.4
	c-5.2-5.7-8.8-10.8-8.6-22.8l2.1-8c-4.6-6.2-1.6-23.6,1.5-30.4l109.4-4.1c3.6,4.2,6.1,14.1,3.3,19.3c5.2,6.3,6.4,12.8,3.3,19.3
	c1.3,11.1-4.6,24-10.8,27.9c1,8.4-6.3,18.9-15.4,18.7c-1.3,6.3-13.4,14-23.5,12.5C150.3,346.8,139,346.7,132.9,343.5z"/>
<path class="st8" d="M132.9,343.5l-0.1-4.7c-4.3,0.7-10.1-1.4-15.6-6.3l-0.4,5.4c-4.5-0.4-8.1-5.3-9.4-8.7
	c-5.3-1.7-7.7-12.9-5.5-15.9c-9.4-10.4-13.2-12.7-12.6-32.6c-4-7.8,1.1-40.5,14.8-34.9l16.6,14.2l-1.4,5.6
	c-3.8,10.5,1.4,17.3,10,19.8c-5.6,3.7-6.5,11.9-3.6,16.6c-3.2,4.6-1.2,9.7,3.3,10.4c1.6,9.3,15.9,8.4,19.8,3.5
	c3.4,7.4,29.9,16.9,42.8-1.8c1,7.9-6.6,13.2-14.1,15.1c-1.2,6-10.6,16.1-20.2,14.7C150.7,346.7,138.7,346.5,132.9,343.5z"/>
<path class="st9" d="M203.4,214.7l-90.1-20.4l-27.6,21.6c-2.7,11.7-0.1,19.1,4.8,24.6l3.8-4.1c0.1,3.2-1.7,11.5,6.3,14.5l7.2,4.2
	c2.2,4.2,6.6,6,13,5.3c-4.5,8.3,2,15.2,11.9,8.8c4.4,11.2,25.1,10.3,28.7-1.1c19.8,11.5,45-9.7,37.6-30.6
	C206.7,233.7,209.9,222.7,203.4,214.7z"/>
<path class="st7" d="M113.2,194.1l-27.6,21.6c-2.7,11.7-3.2,21.1,4.8,24.6c-1.9,4.2-3.2,10.4,3.4,12.5c1.1,8.4,9.5,7.3,13.9,7
	c4.7-0.5,11.2-5.2,13.5-8.2c-9.8,4.2-17.1,1.2-17.1-5.6c-9.5-1.6-9.3-16.6,2.1-22.2c5.4-7.1,16.4,9.1,18.4,0.7
	C116.7,216.6,130.7,208.1,113.2,194.1z"/>
<path class="st10" d="M198.1,152.5l-32.9-26.3l2.1-27.1C200.9,84.7,228.7,130.2,198.1,152.5z"/>
<path class="st7" d="M129,199.9c-5.2,9.3-16.3,15.9-25.5,17.2c1.9,3.1,1.3,9.5,14,17.5C124.7,227.4,131.4,211.9,129,199.9z"/>
<path class="st11" d="M198.1,152.5l-39.1-15.1l2-25.5C199.2,99.5,219.3,134.8,198.1,152.5z"/>
<path class="st7" d="M193.6,218c-7.4,11.7-34.3,21.8-65.6-4.6l1.1-15c7-16.8-4.9-33.1-18.6-34.7c5,0.9,8.8-0.7,11.4-4.8l33.8-42.8
	l15.3,8.1c11.6,5.7,22.9,18.9,29.6,33.3c16.7,12.5,17.3,45.5,9.8,52.2C206.7,213.5,200.9,216.5,193.6,218z"/>
<path class="st8" d="M133.2,217.2l-4.8-3.4l0.1-8.7c-4.1,9.6-15.8,15.1-24.2,11.9l24.6-18.7c7-16.8-4.9-33.1-18.6-34.7
	c5,0.9,8.8-0.7,11.4-4.8l43.3-32.6c1.6,14.3-5.4,23.1-16.7,22.8c0,5.6-3.3,8.6-7.7,10.6c-5.9,8.9-0.3,19.1,7.3,27.4l-7.4,4.5
	C150.5,191.1,139.2,213.3,133.2,217.2z"/>
<path class="st5" d="M167.3,99.1c33.6-14.3,61.4,31.2,30.8,53.4"/>
<path class="st9" d="M144.9,144.9c-1.3,8.1-7.1,14.4-22.2,13.5c4.5-17.8-2.4-30.7-34.3-28.4c-1-9.4,1-15.2,9.1-19.6
	C98,88.1,135.2,83.2,139,94.5c5.2-7,19.5-4.5,19.4,5.4c16.8-7.5,30,20.7,6.7,26.2C166.7,134.8,159.4,144.6,144.9,144.9z"/>
<path class="st7" d="M136.3,138.5c2.7,7.9-4.7,16.2-17.7,15.4c3.9-15.3-2.9-21.8-30.2-19.8c-2-11.6,9.3-18.4,16.5-16.8
	c0.5-19.1,24.3-19.5,29.4-12.7c4.5-6,13.9-2.9,14.1,3.7c14.2-5.7,20.3,16.7,4.8,19.7C154.6,135.4,145.1,141.5,136.3,138.5z"/>
<path class="st7" d="M194.5,146.5c-5.1-7.7-10.9-13.9-17.3-18.7c14.7-8.6,29.1-4.3,41.9-2.6C215.8,135.7,207.8,148.2,194.5,146.5z"
	/>
<path class="st8" d="M194.5,146.5c-5.1-7.7-6-9.9-12.4-14.7c14.7-8.6,25.8-2.3,37-6.6C215.8,135.7,207.8,148.2,194.5,146.5z"/>
<path class="st12" d="M190.4,141.3l-4.2-5.5c2.2-3.4,21.4-5.1,20.5,0.7C205.7,142.2,189.9,142.6,190.4,141.3z"/>
<path class="st13" d="M211.8,184.2c0.7-9.9-6.6-33.6-23.4-20.3C206.4,156.6,210,175.7,211.8,184.2z M191.8,151.2
	c-3.5-5-9.7-10.2-15.7-11.4C182.9,138.3,189.5,144.6,191.8,151.2z M167.3,167.9c-4.7-5.9-10.1-9-18.1-11.3
	C155.8,154.5,163.7,159.8,167.3,167.9z M125.6,209.9c-1.4,7.4-4.8,16.9-9.2,21.4C123.7,227.6,126.9,217.8,125.6,209.9z M195.1,195.6
	c7.8,1.2,13.2-2.5,13.4-8.5C210.1,196.1,204.5,200.1,195.1,195.6z"/>
<path class="st10" d="M110.3,163.6c6.5-0.5,16.3,7.6,19.2,16.9c5.9,17.8-8.2,33.1-25.2,36.5c-31.6,5.3-51.3-27.5-45-54.7
	c5.5-28.5,39.8-42.2,60.2-25.1C128.3,146.6,124.9,165.5,110.3,163.6z"/>
<path class="st11" d="M110.3,163.6c-17.2-2.5-30.6,11-31.3,22.7c1.7-16.2,33-16,30.5,1.4c-1.9,13.8-29.9,17.2-35.9-5.5
	c-5.7-21.1,17.6-39.8,40.4-32.8C122.2,152.4,119.4,163.4,110.3,163.6z"/>
<path class="st14" d="M159.2,186l-6.4-0.2c-9.3-8.1-11.6-20-9.1-23.9c5.2-6.3,21.2,1.8,24.9,12.9C169.7,177.4,165.8,184.3,159.2,186
	z"/>
<path class="st15" d="M148.5,160.4c3.7-2.8,15.2,3.7,17.4,9c2.2,4.9-6.7,13.6-14,7.9C147,173.4,143.1,164.8,148.5,160.4z"/>
<path class="st14" d="M192.5,158.6l0.6-0.2c-3.5,1.1-5.9,3-8.7,6.4c-8.5-1.8-16.4-17.2-12.1-21.8C177.3,140,186.7,144,192.5,158.6z"
	/>
<path class="st15" d="M176.2,142c4.2-0.5,9.6,5.3,12.3,9c1.9,5-2.8,8.1-7,7.3C176.5,157.2,170.1,145.8,176.2,142z"/>
<path class="st2" d="M109.5,259.3c-3.6,1.9-7.9,1.8-13.3-1.5c-0.6,19.8,15.2,45.2,27.7,51.2l0.7-5l4.3-1.6
	C115.6,290.2,109,271.6,109.5,259.3z"/>
<path class="st4" d="M109.5,259.3c-3.6,1.9-4.9,3.3-5,7.2c-0.6,19.8,11.1,32.3,19.6,41l0.5-3.5l4.3-1.6
	C115.6,290.2,109,271.6,109.5,259.3z"/>
<path class="st16" d="M115.6,255.9c-6.6,6.4-21.9,5.6-21.9-3.1 M85.7,215.8c-2.9,7-3.1,21.6,4.8,24.6c-4.2,6.2,1.2,16.6,10.1,10.3
	 M104.3,217.1c1.1,8,7.3,16.5,13.1,17.7c6.1-5.1,12.3-18.7,11.5-36.4 M193.5,218c-3.8,10-30.4,20.7-60.2-0.8 M171,124
	c11.6,5.7,22.9,18.9,29.6,33.3c16.7,12.5,17.3,45.5,9.8,52.2c-9.1,9.4-30.9,14.4-56.6,1.5 M197.2,197.3c9,2.6,12.5-3.8,12-9.7
	 M206.2,196.1c3.4,3.6,5.2,12.3,2.4,15.1 M165.9,188.9c-6-4.7-17.1-4.8-25.2,2.5 M152.8,185.8c-9.3-8.1-11.6-20-9.1-23.9
	c5.2-6.3,21.2,1.8,24.9,12.9c1,2.6-3,9.6-9.5,11.2 M200.6,157.3c-5.9-0.2-11.7,2-16.1,7.5c-8.5-1.8-16.4-17.2-12.1-21.8
	c4.9-3,14.3,1,20.2,15.7 M177.2,127.8c14.7-8.6,29.1-4.3,41.9-2.6c-3.4,10.5-11.4,23-24.6,21.3 M170.7,138c-2.9,1.2-4.1,5.9-2.8,9
	 M140.7,159.5c-2.8,1.8-3.3,5.6-1.6,8.9 M144.9,144.9c0,7.8-10.6,16-22.2,13.5 M128.1,124.1c1.4,3.5,5.7,1.4,5.7-1.3 M125.4,137.4
	c3.5,3.1,7.6,0.3,7.1-2.5 M141.8,130.5c3.6,3.6,8.5,0.6,7.9-3.2 M152.6,119.4c1.3,2.1,3.8,0.3,3.5-1.4 M97.6,110.4
	c0.5-22.3,37.7-27.2,41.5-15.9c5.5-6.1,18.3-3.6,19.4,5.4c16.8-7.5,30,20.7,6.7,26.2c1.5,8.7-5.8,18.5-20.2,18.8 M88.4,130
	c-3.5-10.2,5.1-22.4,18.4-21 M150.7,213.1c2.1-0.3,3.5-2.2,3.8-4.5 M179.9,235.8c2.2,1.6,4.5-0.3,4-1.9 M174.4,249
	c3.9,2.4,7.5-1.1,6.6-3.7 M158.7,248.9c2.3,3,6.2,1.4,6.2-0.9 M146,238.4c2.7,3.7,7.4,1.8,7.5-1 M111.4,258.7
	c2.4,1.5,5.3,1.9,9.4,1.5c-4.5,8.3,2,15.2,11.9,8.8c4.4,11.2,25.1,10.3,28.7-1.1c19.8,11.5,45-9.7,37.6-30.6
	c7.7-3.5,10.8-14.5,4.4-22.6"/>
<path class="st3" d="M124.8,298.2c-3.2,0.6-5.6,1.7-6.6,7c1.9,2,3.9,2.9,5.7,3.8l1.4-5.3l3.5-1.3C127.8,300.8,126,299.9,124.8,298.2
	z"/>
<path class="st5" d="M98.2,319.9c-8.4,2.7-17.5,2.8-29.6-1.6c10,9.2,24.2,12,34.2,8.1"/>
<path class="st5" d="M96.2,257.8c-0.6,19.8,15.2,45.2,27.7,51.2l0.7-5l4.3-1.6c-13.3-12.2-20-30.8-19.4-43.1"/>
<path class="st3" d="M171.6,383.7c-4.7-1.9-8.3-0.2-10.3,2.8c1,3.5,3.7,4,4.8,5.9l1.6-4.4l4.7,0.4
	C172.4,386,171.6,386.5,171.6,383.7z"/>
<path class="st5" d="M132.8,338.8c-2.8,26.2-2.1,42.1,2.3,53.9l-3.9-0.5l-2.4,3.8c-5.7-7.4-14.3-28.6-11.6-63.4"/>
<path class="st5" d="M157.4,344c3.2,27.4-0.8,43,8.6,48.4l1.6-4.4l4.7,0.4c-2.5-5.3,0.2-25.5,3-49.7"/>
<circle class="st17" cx="154.8" cy="167.2" r="5.6"/>
<circle class="st14" cx="152.4" cy="171.9" r="2.6"/>
<ellipse class="st14" cx="155.3" cy="179.2" rx="2.6" ry="2.6"/>
<circle class="st14" cx="181.5" cy="158.3" r="2.3"/>
<circle class="st17" cx="180.4" cy="149.5" r="4.8"/>
<circle class="st14" cx="177.7" cy="153.5" r="2.3"/>
<path class="st5" d="M85.6,149.2c-0.6-5.6-5.5-9.4-9.7-9"/>
<path class="st5" d="M76.7,150.8c-0.4-3.2-3.1-5.3-5.5-5.1"/>
<path class="st5" d="M79.1,186.3c6.5-5,25.8-9.7,26.8,1.2"/>
<path class="st5" d="M124.8,298.2c-3.4,0.2-6.9,3.7-6,7.5"/>
<path class="st5" d="M234.2,227.6c0.5,3.2,2.3,7,6.1,6.6"/>
<path class="st5" d="M125.9,391.5c-0.1-2,2.8-5.8,7.6-3.7"/>
<path class="st5" d="M161.8,387.7c-1.5-2.6,5.9-6.8,9.8-4"/>
<path class="st18" d="M111.5,135.9c-9.7-1.9-19.4-1.3-30.5,1.5C91.4,131.3,101.5,131.2,111.5,135.9z"/>
<path class="st19" d="M114.7,209.8c7.1-6.4,11.4-13.9,13-24.2C129.2,197.8,122.9,205.2,114.7,209.8z"/>
<path class="st5" d="M114.5,169.2c-2-0.1-3.5,1.6-3.6,2.9"/>
<path class="st5" d="M119.6,173.4c-1.8-0.4-4.1,0.8-4.8,3"/>
<path class="st20" d="M118.8,93.7c6.4-2.2,13.4-0.5,18.2,3.5C134.5,89.9,124.7,88.9,118.8,93.7z M159.2,103.4
	c5.4-0.5,10.5,2,13.6,6.1C172.3,103.2,164.8,100.7,159.2,103.4z"/>
<path class="st21" d="M253.1,80.7c-36.9,72.4-19.3,103-13.8,147.6c7.6,48.1-13.8,49.8-10.5,79.3"/>
<path class="st22" d="M239.9,102.1l4.8,1.3c6.8,14-2.7,21.6-2,8.3c-2.5,11.4-8,7.1-3.6,0C230.4,119.7,223.2,114.4,239.9,102.1z"/>
<path class="st21" d="M245.5,105.2c3.9,10.7-2.3,20.4-2.9,6.5c-2.5,11.4-8,7.1-3.6,0c-11.5,9-12.8,0.2,0.9-9.7"/>
<path class="st22" d="M232.8,100.7c38.8,19.9,88.1-17.9,74.8-60.4c-5.6-23.2-49.5-55.9-83.6-20C190.5,54,215.5,94.2,232.8,100.7z"/>
<path class="st21" d="M232.8,100.7c38.8,19.9,88.1-17.9,74.8-60.4c-5.6-23.2-49.5-55.9-83.6-20C190.5,54,215.5,94.2,232.8,100.7z"/>
<path class="st15" d="M301.2,58.9c-1.2-12.3-6.6-30.9-17.9-41.3C299.1,25.4,304.1,44.7,301.2,58.9z"/>
<path class="st5" d="M79.1,186.3c2.4-24.4,40.6-33.9,50.5-5.8c5.9,17.8-8.2,33.1-25.2,36.5c-31.6,5.3-51.3-27.5-45-54.7
	c5.5-28.5,39.8-42.2,60.2-25.1c8.7,9.4,5.4,28.3-9.2,26.5"/>
<path class="st16" d="M178.4,306.6c2.8,2.3,6,0,5.6-2.1 M131.2,326.1c1.8,3.4,5.9,2.4,6.3,0.1 M131.5,313.7c0.8,3.8,5,3.9,6.1,1.8
	 M112.5,311c1,4.7,6.2,4.9,7.5,2.3 M115.3,337.7c-3.8-1.1-6.9-4.5-7.9-8.4c-5.6-1.4-11.6-11.6-11.6-17.7c-6-3.6-11.1-16.7-6.5-30.8
	c-3.4-7.8-4-17.2,1.5-30.4 M207,284.9c1.3,11.1-4.6,24-10.8,27.9c1,8.4-6.3,18.9-15.4,18.7c-1.3,6.3-13.4,14-23.5,12.5
	c-6.5,2.7-17,2.7-23.3,0 M115.4,330.3c4.4,5.5,13.1,10.4,21.6,7.8 M200.3,246.3c3.9,5.4,5,12.3,3.3,19.3c4.5,3.4,6.6,12.9,3.3,19.3
	 M176.8,292.8c3.3,2.8,7.1,0,6.6-2.5"/>
<path class="st20" d="M141.3,271.8c6.8,0.7,13.3-2.6,17.2-7.7C157.8,272,148.3,275.1,141.3,271.8z M178.5,267.3
	c7.6-4.3,14-11.3,16.6-21C197.5,256.1,186.8,266.3,178.5,267.3z M139.3,260.6c-5.4,0.5-10.5-2-13.6-6.1
	C126.3,260.8,133.8,263.3,139.3,260.6z"/>
</svg>
