<?xml version="1.0" encoding="utf-8"?>
<!-- Generator: Adobe Illustrator 19.0.0, SVG Export Plug-In . SVG Version: 6.00 Build 0)  -->
<svg version="1.1" id="Layer_1" xmlns="http://www.w3.org/2000/svg" xmlns:xlink="http://www.w3.org/1999/xlink" x="0px" y="0px"
	 viewBox="0 0 367.6 349.1" style="enable-background:new 0 0 367.6 349.1;" xml:space="preserve">
<style type="text/css">
	.st0{fill-rule:evenodd;clip-rule:evenodd;fill:#B47B40;}
	.st1{fill-rule:evenodd;clip-rule:evenodd;fill:#C68E4A;}
	.st2{fill-rule:evenodd;clip-rule:evenodd;fill:#D9AF78;}
	.st3{fill-rule:evenodd;clip-rule:evenodd;fill:url(#SVGID_1_);}
	.st4{fill-rule:evenodd;clip-rule:evenodd;fill:url(#SVGID_2_);}
	.st5{fill-rule:evenodd;clip-rule:evenodd;fill:#F9A57B;}
	.st6{fill-rule:evenodd;clip-rule:evenodd;fill:#FCC8A8;}
	.st7{fill-rule:evenodd;clip-rule:evenodd;fill:#A16044;}
	.st8{fill-rule:evenodd;clip-rule:evenodd;fill:#D58F5C;}
	.st9{fill-rule:evenodd;clip-rule:evenodd;fill:#B28ABF;}
	.st10{fill-rule:evenodd;clip-rule:evenodd;fill:#9665AA;}
	.st11{fill-rule:evenodd;clip-rule:evenodd;fill:#C7A9D0;}
	.st12{fill-rule:evenodd;clip-rule:evenodd;fill:#FDCEAE;}
	.st13{fill-rule:evenodd;clip-rule:evenodd;fill:#EBB081;}
	
		.st14{fill-rule:evenodd;clip-rule:evenodd;fill:none;stroke:#823436;stroke-width:1.7008;stroke-linecap:round;stroke-linejoin:round;stroke-miterlimit:22.9256;}
	.st15{fill-rule:evenodd;clip-rule:evenodd;fill:#F8ABAD;}
	.st16{fill-rule:evenodd;clip-rule:evenodd;fill:#FFFFFF;}
	.st17{fill-rule:evenodd;clip-rule:evenodd;fill:#C7EAFB;}
	
		.st18{fill-rule:evenodd;clip-rule:evenodd;fill:none;stroke:#6C3E81;stroke-width:1.7008;stroke-linecap:round;stroke-linejoin:round;stroke-miterlimit:22.9256;}
	.st19{fill-rule:evenodd;clip-rule:evenodd;}
	.st20{fill-rule:evenodd;clip-rule:evenodd;fill:#FEE6D3;}
	.st21{fill-rule:evenodd;clip-rule:evenodd;fill:#FFEDE0;}
	.st22{fill-rule:evenodd;clip-rule:evenodd;fill:#DACAE3;}
</style>
<path class="st0" d="M31.4,284.5c7-8.1,3-26.5,15.4-32.1l13.3,30l-3.6,28.5l-43.6-15C11.9,287.8,26.4,290.5,31.4,284.5z"/>
<polygon class="st1" points="21.1,51.4 15.1,68.2 56.5,318.1 65.3,321.1 45.8,158.8 "/>
<polygon class="st2" points="21.1,51.4 165,50.7 211.8,287.5 65.3,321.1 "/>
<linearGradient id="SVGID_1_" gradientUnits="userSpaceOnUse" x1="114.2736" y1="177.3625" x2="79.8273" y2="56.5977">
	<stop  offset="0" style="stop-color:#C7EAFB"/>
	<stop  offset="1" style="stop-color:#FFFFFF"/>
</linearGradient>
<polygon class="st3" points="32.5,61.6 157.2,58.9 200.6,280.8 74.8,308 "/>
<g>
	<linearGradient id="SVGID_2_" gradientUnits="userSpaceOnUse" x1="137.8959" y1="202.5686" x2="32.9614" y2="-24.1066">
		<stop  offset="0" style="stop-color:#A197AF"/>
		<stop  offset="1" style="stop-color:#FFFFFF"/>
	</linearGradient>
	<path class="st4" d="M133.7,279.4l0.1,0L133.7,279.4L133.7,279.4z M133.7,279.5L133.7,279.5L133.7,279.5L133.7,279.5z M104.2,301.6
		c-1.3-4.7-2.9-9.7-1.9-20.6l0.2,0.1c0-0.6,0.1-1.3,0.2-1.9l0,0c-1.5-1.6-2.6-3.3-2.9-5c-6.4,0.4-11.8-8.4-11.3-15.5
		c-4.4-3.2-8.9-14-8.3-23.5c-0.8-1.8-1.2-3.6-1.3-5.4v0C61.1,212,72.8,197.8,79,186l0,0c-0.6-3.4-0.1-7.3,2-10.6h0
		c-2-1.1-3.7-2.6-5-4.1c-5.4-5.6-5.8-33.7,5.7-44.7c0.5-1.4,1-2.8,1.6-4.1h0l0,0c-7-5.8-13.6-22.3-4.6-38.6c5.5-8,14.8-12.4,25-7.5
		l0,0c1.9-0.7,4-0.6,6.2,0.5c-0.3-8.4,9.7-10.8,13.6-5c2.4-9.7,28.7-6.4,29.6,12.6c5.6,3.4,7.3,8.1,7,15.7c0.1,0.5,0.1,1.1,0.2,1.6
		c9.7,3,18.5,12.3,21.1,25.9c4.1,18.1-3.2,39.5-17.4,46l0.1,0.1c2.2,9.9,2.7,17.9-2.8,21c1.1,2.8,2,6.6,0.2,9
		c2.3,5.9,4.7,20.1,1.6,25.4l1.7,6.8c0.4,10.2-2,14.6-5.5,19.6c-0.7,5.6-2,9.5-3.7,12c3,7.5,9.9,11.2,19.2,14.1
		c-10.9,1.8-18.4-3-23.6-9.5c-0.4,1-0.9,2-1.6,3c-1,1.7-2.4,3-4.4,3.3l-0.4-4.6l-0.1,0.1c0.7,5.2,0.9,12,0.7,19l-10.6,2.3
		c-0.2-3.6-0.6-7.4-1-11.6l0,0l-0.1,0.1c-4.3,2.7-12.1,3-16.9,0.8l0,0l-3.2,0.7l-2.6,11.3c0.3,1.3,0.6,2.5,0.8,3.7L104.2,301.6
		L104.2,301.6z M84,202.2c-0.2-2-0.1-4,0.3-6c-1.4,4.9-5.7,10.6-7,13.4c0.4,3.4,2,6.5,4.8,9.2l0,0C80,214.3,81.5,205.8,84,202.2
		L84,202.2z"/>
</g>
<path class="st5" d="M154,176.4l-4.9-4.1l-2.5-5.9c-9.1,13.4-25.7,29.2-1.9,50.2l0.8-6l3.3-6.6l-3.3-5.1l-2.1-5.6
	C145.3,189.9,152.7,182.3,154,176.4z"/>
<path class="st5" d="M175,276.3l15.1,5l-4,12.8c3.5,13,2.8,22.6-2.3,28.9l-1.7-4.5l-4.8,0.4C182.3,299.6,171.6,300.2,175,276.3z"/>
<path class="st6" d="M175.5,274.1l5,3.5c-1.6,23.5,6.4,25,2.8,36l-5.1,0.5C179.1,292.8,172,299,175.5,274.1z"/>
<path class="st5" d="M233.6,269.2l-15.8,6.7c2.8,26.7,2.1,42.9-2.5,55l4-0.6l2.5,3.9C232.5,321.9,235.9,287.4,233.6,269.2z"/>
<path class="st6" d="M217.8,275.9c2.8,26.7,2.1,42.9-2.5,55l4-0.6l-1.2,0.2C231.7,315.1,229.6,284.6,217.8,275.9z"/>
<path class="st7" d="M225.2,329c-1.6-3.1-5.2-5.4-8.2-3.2c-0.5,2.2-0.9,3.2-1.6,5.1l4-0.6l2.5,3.9
	C223.1,332.5,223.9,331.4,225.2,329z"/>
<path class="st8" d="M242.1,267.1l6.8-4.9c3.8,9,13.2,13.5,26.1,17.3C259.4,281.2,249.1,275.1,242.1,267.1z"/>
<path class="st9" d="M218.4,280.1l0.1-4.6c4.5,0.7,9.5-1.4,15.2-6.4l0.4,5.6c4.7-0.4,7.1-4.3,8.4-7.8c5.5-1.8,9.9-6.6,12-17.9
	c5.1-5.6,8.6-10.5,8.4-22.2l-2-7.8c4.5-6.1,1.5-23.1-1.5-29.6l-106.7-4c-3.5,4.1-6,13.7-3.3,18.8c-5.1,6.2-6.2,12.5-3.3,18.8
	c-1.3,10.9,4.5,23.4,10.5,27.2c-1,8.2,6.1,18.5,15,18.2c1.3,6.2,13,13.7,22.9,12.2C201.4,283.3,212.4,283.2,218.4,280.1z"/>
<path class="st10" d="M218.4,280.1l0.1-4.6c4.2,0.7,9.9-1.4,15.2-6.1l0.4,5.3c4.4-0.4,7.9-5.2,9.1-8.5c5.2-1.7,7.5-12.6,5.3-15.5
	c9.1-10.1,12.8-12.4,12.3-31.8c3.9-7.6-1.1-39.5-14.5-34l-16.2,13.9l1.4,5.4c3.7,10.2-1.4,16.8-9.8,19.3c5.5,3.6,6.4,11.6,3.5,16.1
	c3.1,4.5,1.1,9.5-3.3,10.1c-1.5,9.1-15.5,8.2-19.3,3.4c-3.3,7.2-29.2,16.5-41.7-1.8c-1,7.7,6.5,12.9,13.8,14.7
	c1.2,5.8,10.4,15.7,19.7,14.3C201,283.1,212.7,283,218.4,280.1z"/>
<path class="st11" d="M149.7,154.4l87.8-19.9l26.9,21c2.6,11.4,0.1,18.6-4.6,24l-3.7-4c-0.1,3.1,1.7,11.2-6.2,14.1l-7,4.1
	c-2.2,4.1-6.4,5.8-12.7,5.2c4.4,8.1-2,14.8-11.6,8.6c-4.3,10.9-24.5,10-28-1.1c-19.4,11.2-43.9-9.4-36.7-29.8
	C146.5,173,143.4,162.3,149.7,154.4z"/>
<path class="st9" d="M237.6,134.4l26.9,21c2.6,11.4,3.1,20.6-4.6,24c1.9,4.1,3.1,10.1-3.3,12.1c-1,8.2-9.3,7.1-13.6,6.8
	c-4.6-0.5-10.9-5.1-13.1-8c9.6,4.1,16.7,1.2,16.7-5.4c9.3-1.5,9-16.2-2-21.7c-5.2-6.9-16,8.9-17.9,0.7
	C234.2,156.2,220.6,148,237.6,134.4z"/>
<path class="st12" d="M154.9,93.8L187,68.1l-2.1-26.4C152.1,27.7,125,72.1,154.9,93.8z"/>
<path class="st9" d="M222.2,140.1c5,9.1,15.9,15.5,24.9,16.8c-1.8,3-1.3,9.3-13.6,17.1C226.4,166.8,219.9,151.7,222.2,140.1z"/>
<path class="st13" d="M154.9,93.8L193,79.2l-2-24.9C153.8,42.1,134.2,76.6,154.9,93.8z"/>
<path class="st9" d="M159.3,157.6c7.2,11.4,33.5,21.3,64-4.5l-1-14.6c-6.8-16.3,4.8-32.3,18.1-33.8c-4.9,0.9-8.6-0.7-11.2-4.7
	l-32.9-41.8l-14.9,7.9C170,71.6,159,84.5,152.5,98.5c-16.3,12.2-16.9,44.4-9.6,50.9C146.5,153.2,152.2,156.2,159.3,157.6z"/>
<path class="st10" d="M218.1,156.9l4.7-3.3l-0.1-8.4c4,9.3,15.4,14.8,23.6,11.6l-24-18.2c-6.8-16.3,4.8-32.3,18.1-33.8
	c-4.9,0.9-8.6-0.7-11.2-4.7L187,68.1c-1.5,13.9,5.2,22.5,16.3,22.2c0,5.4,3.2,8.3,7.5,10.3c5.8,8.7,0.3,18.6-7.1,26.8l7.2,4.4
	C201.3,131.5,212.3,153.1,218.1,156.9z"/>
<path class="st14" d="M184.9,41.7c-32.7-14-59.9,30.4-30,52.1"/>
<path class="st11" d="M206.6,86.5c1.2,7.9,6.9,14.1,21.7,13.1c-4.4-17.4,2.3-30,33.4-27.7c1-9.2-1-14.9-8.9-19.1
	c-0.5-21.7-36.7-26.5-40.4-15.5c-5.1-6.8-19-4.4-18.9,5.2c-16.4-7.3-29.3,20.2-6.5,25.6C185.5,76.6,192.6,86.2,206.6,86.5z"/>
<path class="st9" d="M215,80.1c-2.6,7.7,4.6,15.8,17.3,15.1c-3.8-14.9,2.8-21.3,29.5-19.3c2-11.3-9.1-17.9-16.1-16.4
	C245.2,40.9,222,40.4,217,47.1c-4.4-5.8-13.5-2.8-13.7,3.6c-13.8-5.6-19.8,16.3-4.7,19.2C197.4,77.1,206.5,83.1,215,80.1z"/>
<path class="st9" d="M167.5,76.6c5.4-5.5,8.7-7.4,13.9-10.5c-10.4-12.9-27.8-15.8-40.1-18.6C140.8,58.2,154.8,73.6,167.5,76.6z"/>
<path class="st10" d="M167.5,76.6c2.4-2.4,3.4-4.9,8.7-7.4c-10.4-12.9-26.1-13.9-34.9-21.7C140.8,58.2,143.1,77.9,167.5,76.6z"/>
<path class="st15" d="M169.9,74.2l3.2-2.8c-0.9-3.9-25.4-15-24.2-9.5C150.5,69.4,159.5,73.2,169.9,74.2z"/>
<path class="st11" d="M225.5,149.7c1.3,7.3,4.7,16.5,9,20.8C227.4,167,224.3,157.5,225.5,149.7L225.5,149.7z M161,92.5
	c3.4-4.8,9.5-10,15.3-11.1C169.7,80,163.3,86.2,161,92.5L161,92.5z M141.6,124.8c-0.7-9.7,6.4-32.7,22.8-19.8
	C146.8,97.8,143.3,116.4,141.6,124.8L141.6,124.8z M157.8,135.9c-7.6,1.1-12.9-2.5-13.1-8.3C143.2,136.3,148.7,140.3,157.8,135.9
	L157.8,135.9z M185,108.8c4.6-5.8,9.8-8.8,17.6-11C196.1,95.8,188.5,101,185,108.8z"/>
<path class="st12" d="M240.4,104.7c-6.4-0.5-15.9,7.4-18.7,16.5c-5.8,17.4,8,32.3,24.6,35.6c30.8,5.2,50.1-26.8,43.9-53.4
	c-5.3-27.8-38.8-41.2-58.7-24.4C222.9,88.1,226.2,106.5,240.4,104.7z"/>
<path class="st13" d="M240.4,104.7c16.8-2.5,29.8,10.7,30.5,22.1c-1.6-15.8-32.2-15.7-29.8,1.4c1.8,13.5,29.2,16.8,35-5.4
	c5.6-20.5-17.1-38.8-39.4-32C228.8,93.8,231.5,104.4,240.4,104.7z"/>
<path class="st14" d="M248.7,262.8c5.5,7.4,13.3,13.1,26.1,16.7c-14,1.7-25.6-2.6-32.2-11.6"/>
<path class="st16" d="M192.7,126.5l6.2-0.2c9-7.9,11.3-19.6,8.8-23.3c-5.1-6.2-20.7,1.7-24.3,12.6
	C182.5,118.1,186.4,124.9,192.7,126.5z"/>
<path class="st17" d="M201.9,107.7c-6.1-5.4-16.7,0-18.5,9.3l3.6,6.1l5.7,3.3l2.3-0.3C199.6,124,207.2,112,201.9,107.7z"/>
<path class="st14" d="M190.2,281.3c-0.9,5.1-2.3,9.2-4,12.8c4.1,12.9,2.8,22.2-2.3,28.9l-1.7-4.5l-4.8,0.4
	c4.9-20.5-6.1-17.1-1.8-44.7"/>
<path class="st16" d="M160.3,99.8l-0.6-0.2c3.4,1.1,5.8,2.9,8.5,6.2c8.3-1.8,16-16.8,11.8-21.3C175.2,81.6,166,85.6,160.3,99.8z"/>
<path class="st14" d="M146.5,166.5c-9.6,16.5-25.9,26.2-1.9,50.2"/>
<path class="st17" d="M175.2,90.5c-5.3-4.4-12.2,2.3-14.8,9.2l6.3,4.4C171.5,103,179,94.7,175.2,90.5z"/>
<path class="st14" d="M153.1,179.4c-3.7,5.5-7.5,9.2-9.9,14c0.4,4.6,3.6,7.2,5.4,10.7"/>
<path class="st5" d="M241.2,197.9c3.5,1.9,7.7,1.7,13-1.5c0.5,19.3-14.9,44.1-27.1,50l-0.6-4.9l-4.2-1.6
	C235.2,228.1,241.7,210,241.2,197.9z"/>
<path class="st6" d="M241.2,197.9c3.5,1.9,4.8,3.2,4.8,7.1c0.5,19.3-10.8,31.5-19.1,40l-0.5-3.4l-4.2-1.6
	C235.2,228.1,241.7,210,241.2,197.9z"/>
<path class="st7" d="M226.3,235.9c3.2,0.6,5.5,1.6,6.4,6.8c-1.8,2-3.8,2.8-5.6,3.8l-1.4-5.2l-3.4-1.3
	C223.3,238.4,225.1,237.5,226.3,235.9z"/>
<path class="st18" d="M234.2,274.7c4.4-0.6,8-4.2,9.1-8.5c5.4-1.4,11.4-11.3,11.3-17.2c5.9-3.5,10.8-16.3,6.4-30
	c3.3-7.6,3.9-16.8-1.5-29.6 M206.6,86.5c0,7.6,10.3,15.6,21.7,13.1 M261.8,71.9c3.4-10-5-21.9-18-20.5 M252.8,52.8
	c-0.5-21.7-36.7-26.5-40.4-15.5c-5.4-6-17.9-3.5-18.9,5.2c-16.4-7.3-29.3,20.2-6.5,25.6c-1.4,8.4,5.7,18,19.7,18.3 M147,136.4
	c-3.3,3.5-5,12-2.3,14.7 M152.5,98.5c5.8-0.2,11.4,1.9,15.7,7.3c8.3-1.8,16-16.8,11.8-21.3c-4.8-2.9-13.9,1-19.7,15.3 M246.3,156.7
	c-1.1,7.8-7.1,16.1-12.8,17.3c-6-4.9-12-18.2-11.2-35.5 M152.7,185.2c-3.8,5.3-4.9,12-3.3,18.8c-4.4,3.3-6.4,12.6-3.3,18.8
	 M178.7,64.1c-10.4-12.9-25.1-13.9-37.4-16.7c-0.5,10.7,1.9,30.8,26.2,29.1 M155.7,137.5c-8.7,2.5-12.2-3.7-11.7-9.5 M186.3,129.3
	c5.9-4.6,16.7-4.6,24.6,2.5 M210.8,100.7c2.7,1.8,3.2,5.4,1.6,8.7 M177,78.6c2.5-1.9,7-0.6,9,2 M198.9,126.3
	c9-7.9,11.3-19.6,8.8-23.3c-5.1-6.2-20.7,1.7-24.3,12.6c-0.9,2.6,3,9.3,9.2,11 M201,152.9c-2.1-0.3-3.4-2.1-3.7-4.4 M181.3,66.1
	C170,71.6,159,84.5,152.5,98.5c-16.3,12.2-16.9,44.4-9.6,50.9c8.9,9.2,30.2,14,55.2,1.5 M159.4,157.7c3.7,9.8,29.7,20.2,58.7-0.8
	 M205.6,177.6c-2.7,3.6-7.2,1.8-7.3-0.9 M193.3,187.8c-2.3,3-6,1.4-6.1-0.9 M178,187.9c-3.8,2.3-7.3-1.1-6.4-3.6 M172.6,175
	c-2.2,1.5-4.4-0.3-3.9-1.9 M239.4,197.4c-2.3,1.5-5.2,1.8-9.1,1.4c4.4,8.1-2,14.8-11.6,8.6c-4.3,10.9-24.5,10-28-1.1
	c-19.4,11.2-43.9-9.4-36.7-29.8c-7.5-3.4-10.6-14.2-4.3-22 M146.2,222.9c-1.3,10.9,4.5,23.4,10.5,27.2c-1,8.2,6.1,18.5,15,18.2
	c1.3,6.2,13,13.7,22.9,12.2c6.7,2.8,17.5,2.8,23.5-0.3 M220.1,263c-1.8,3.3-5.7,2.4-6.2,0.1 M219.7,251c-0.8,3.7-4.9,3.8-5.9,1.8
	 M174.1,244.1c-2.7,2.3-5.9,0-5.4-2.1 M175.7,230.6c-3.2,2.7-6.9,0-6.4-2.5 M238.3,248.3c-1,4.6-6.1,4.8-7.3,2.2 M264.5,155.5
	c2.8,6.9,3,21.1-4.6,24c4.1,6-1.2,16.2-9.8,10.1"/>
<path class="st14" d="M254.2,196.5c0.5,19.3-14.9,44.1-27.1,50l-0.6-4.9l-4.2-1.6c13-11.9,19.5-30,18.9-42"/>
<path class="st7" d="M178.3,314.2c4.8-1.9,6.7-0.1,8.8,3c-1,3.6-2,3.9-3.2,5.9l-1.7-4.5l-4.8,0.4C177.4,316.5,178.2,317,178.3,314.2
	z"/>
<path class="st14" d="M217.7,275.9c2.8,26.7,2.1,42.9-2.4,55l4-0.6l2.5,3.9c5.8-7.5,14.6-29.2,11.8-64.6"/>
<circle class="st19" cx="189.2" cy="116.6" r="5.5"/>
<circle class="st16" cx="193.7" cy="116.5" r="2.5"/>
<circle class="st16" cx="202.5" cy="111.1" r="2.5"/>
<circle class="st16" cx="175" cy="93" r="2.2"/>
<circle class="st19" cx="166.2" cy="97.6" r="4.7"/>
<circle class="st16" cx="170.6" cy="98.3" r="2.2"/>
<path class="st14" d="M264.5,90.6c0.6-5.4,5.4-9.2,9.5-8.7"/>
<path class="st14" d="M273.2,92.2c0.4-3.1,3.1-5.2,5.4-5"/>
<path class="st14" d="M270.9,126.8c-6.3-4.9-25.2-9.4-26.1,1.2"/>
<path class="st14" d="M226.3,235.9c3.3,0.2,6.7,3.6,5.8,7.3"/>
<path class="st14" d="M224.7,329.6c0.1-2.1-2.8-5.9-7.7-3.8"/>
<path class="st14" d="M186.9,317.7c1.5-2.7-4.6-6.3-8.6-3.5"/>
<path class="st20" d="M239.2,77.6c9.4-1.8,18.9-1.3,29.8,1.5C258.9,73.2,249,73,239.2,77.6z"/>
<path class="st21" d="M236.1,149.6c-7-6.2-11.1-13.6-12.7-23.6C222,138,228.1,145.2,236.1,149.6z"/>
<path class="st14" d="M236.4,110.1c2-0.1,3.4,1.5,3.5,2.8"/>
<path class="st14" d="M231.4,114.2c1.7-0.4,4,0.8,4.7,3"/>
<path class="st14" d="M270.9,126.8c-2.4-23.8-39.6-33.1-49.2-5.7c-5.8,17.4,8,32.3,24.6,35.6c30.8,5.2,50.1-26.8,43.9-53.4
	c-5.3-27.8-38.8-41.2-58.7-24.4c-8.5,9.2-5.2,27.6,9,25.8"/>
<path class="st18" d="M235.2,194.6c6.5,6.3,21.4,5.4,21.3-3 M209.7,72.4c-3.5,3.5-8.3,0.6-7.7-3.1 M199.2,61.5
	c-1.2,2-3.7,0.3-3.4-1.4 M223,66.2c-1.4,3.4-5.6,1.3-5.6-1.3 M225.7,79.1c-3.4,3-7.4,0.3-7-2.4 M235.4,267.2
	c-4.5,5.6-13.4,10.6-22.1,8"/>
<path class="st22" d="M192.7,45.9c-5.3-0.5-10.3,2-13.2,5.9C180.1,45.7,187.3,43.3,192.7,45.9L192.7,45.9z M174,205.7
	c-7.4-4.2-13.7-11.1-16.2-20.5C155.5,194.8,165.9,204.8,174,205.7L174,205.7z M210.2,210.1c-6.7,0.7-13-2.5-16.8-7.5
	C194.2,210.3,203.4,213.4,210.2,210.1L210.2,210.1z M212.2,199.2c5.3,0.5,10.3-2,13.2-5.9C224.8,199.4,217.5,201.8,212.2,199.2
	L212.2,199.2z M232.2,36.5c-6.2-2.1-13-0.5-17.8,3.5C216.9,32.8,226.4,31.9,232.2,36.5z"/>
</svg>
