<?xml version="1.0" encoding="utf-8"?>
<!-- Generator: Adobe Illustrator 19.0.0, SVG Export Plug-In . SVG Version: 6.00 Build 0)  -->
<svg version="1.1" id="Layer_1" xmlns="http://www.w3.org/2000/svg" xmlns:xlink="http://www.w3.org/1999/xlink" x="0px" y="0px"
	 viewBox="0 0 367.6 349.1" style="enable-background:new 0 0 367.6 349.1;" xml:space="preserve">
<style type="text/css">
	.st0{fill-rule:evenodd;clip-rule:evenodd;fill:#F7E6D6;}
	.st1{fill-rule:evenodd;clip-rule:evenodd;fill:#E6E7E8;}
</style>
<path id="XMLID_14_" class="st0" d="M96.2,233c13.5,78.7,73.3,110.1,124.9,109.3c47.4-0.7,62.3-22,82.9-56.6
	c14.2-23.8,44-38.1,56.7-59.2c31.3-52.5-54.2-57.6-27.9-110c33.9-68.6-36-128.7-108.3-114.3C119.8,23,88.1,83.8,96.2,233z"/>
<path id="XMLID_15_" class="st1" d="M164,298.5l-18.7-5.7l-14.1,13.1c-25.3,17.3,15.9,24.2,25.4,25.4c15.8,2.1,10.6,18.1,38.9,17.8
	c17.6-0.2,54.9-4.7,54.6-27.1C249.8,300.1,183.4,292.8,164,298.5z"/>
</svg>
