<?xml version="1.0" encoding="utf-8"?>
<!-- Generator: Adobe Illustrator 21.1.0, SVG Export Plug-In . SVG Version: 6.00 Build 0)  -->
<svg version="1.1" id="Layer_1" xmlns="http://www.w3.org/2000/svg" xmlns:xlink="http://www.w3.org/1999/xlink" x="0px" y="0px"
	 viewBox="0 0 511 471" style="enable-background:new 0 0 511 471;" xml:space="preserve">
<style type="text/css">
	.st0{fill-rule:evenodd;clip-rule:evenodd;fill:#F5A87D;}
	.st1{fill-rule:evenodd;clip-rule:evenodd;fill:#FACCAF;}
	.st2{fill-rule:evenodd;clip-rule:evenodd;fill:#A35939;}
	.st3{fill-rule:evenodd;clip-rule:evenodd;fill:#D88F55;}
	.st4{fill-rule:evenodd;clip-rule:evenodd;fill:#FCCA00;}
	.st5{fill-rule:evenodd;clip-rule:evenodd;fill:#E3A921;}
	.st6{fill-rule:evenodd;clip-rule:evenodd;fill:#FFE07D;}
	.st7{fill-rule:evenodd;clip-rule:evenodd;fill:#FBD2B6;}
	.st8{fill-rule:evenodd;clip-rule:evenodd;fill:#EDB581;}
	.st9{fill:none;stroke:#822E2D;stroke-width:1.6997;stroke-linecap:round;stroke-linejoin:round;stroke-miterlimit:22.9256;}
	.st10{fill-rule:evenodd;clip-rule:evenodd;fill:#FFF2AF;}
	.st11{fill-rule:evenodd;clip-rule:evenodd;fill:#FFE67E;}
	.st12{fill-rule:evenodd;clip-rule:evenodd;fill:#F5B0B4;}
	.st13{fill:none;stroke:#A16215;stroke-width:1.6997;stroke-linecap:round;stroke-linejoin:round;stroke-miterlimit:22.9256;}
	.st14{fill-rule:evenodd;clip-rule:evenodd;fill:#FFFFFF;}
	.st15{fill-rule:evenodd;clip-rule:evenodd;fill:#D3ECFB;}
	.st16{fill-rule:evenodd;clip-rule:evenodd;fill:#AEC905;}
	.st17{fill:none;stroke:#6B9A2F;stroke-width:1.6997;stroke-linecap:round;stroke-linejoin:round;stroke-miterlimit:22.9256;}
	.st18{fill-rule:evenodd;clip-rule:evenodd;fill:#1A1A18;}
	.st19{fill-rule:evenodd;clip-rule:evenodd;fill:#FDEBDB;}
	.st20{fill-rule:evenodd;clip-rule:evenodd;fill:#FDF1E7;}
	.st21{fill:none;stroke:#B0B1B2;stroke-width:1.6997;stroke-linecap:round;stroke-linejoin:round;stroke-miterlimit:22.9256;}
	.st22{fill-rule:evenodd;clip-rule:evenodd;fill:#FFD94A;}
	.st23{fill:none;stroke:#EDB300;stroke-width:1.6997;stroke-linecap:round;stroke-linejoin:round;stroke-miterlimit:22.9256;}
	.st24{fill-rule:evenodd;clip-rule:evenodd;fill:#FFF6B1;}
</style>
<path class="st0" d="M400.8,259.8c5.1-2.3,11-2.9,17.8-1.6c2.5,19.9-7.5,37.5-14.8,42.6c-8.3,7.5-25.5,6-44,4.8l7-4.5l-6.8-4.3
	c13-2.9,26.3-6.1,32.2-6.4C397.7,286.9,401.1,269.8,400.8,259.8z"/>
<path class="st1" d="M400.8,259.8c5.1-2.3,8.7-2.2,13.2,1.2c-2.1,18.3-8.1,27.9-15.4,33c-5.7,2.3-22.2,5.4-25.5-0.1l-3.9,1.1
	c13-2.9,17-4.3,22.9-4.6C397.7,286.9,401.1,269.8,400.8,259.8z"/>
<path class="st0" d="M297.9,266.7l2.1-8.7l5.1-7.4l-0.5-7.2l0.8-7.3l-5.3-8.1c-8.3,9-15.9,22.7-18.6,33.9
	c-2.8,18.2,17.2,25.5,33.5,13.6l-7.6-9.2L297.9,266.7z"/>
<path class="st1" d="M291.9,263.8c-3-8.8,11.3-26.7,5.7-27.3c-8.3,9.1-13.4,14.2-16.1,25.5c-0.8,22.6,26.9,22.6,32.7,14l-4.3-3.8
	C296.9,278.6,289.7,269,291.9,263.8z"/>
<path class="st0" d="M335.9,364.3l20.8,9.3c6.7,12.4,9.7,39.6,2.1,55.5l-2.7-8.4l-6,7.3C350.5,414.6,349.6,395.6,335.9,364.3z"/>
<path class="st0" d="M170.8,338.2l-17.4,11.5c7.1,33,13.5,48.6,19.6,55.2l1.5-8.4l7.7,3.7C179.5,387.7,176,369.3,170.8,338.2z"/>
<path class="st1" d="M336.1,362.3l11.2,9.3c6.2,14.2,12.3,32.6,7.4,45.6l-4.4,1.3C350.8,405.1,343.9,386.6,336.1,362.3z"/>
<path class="st1" d="M177.2,341.3l-16.8,1.2l-1.6,3.6c7.1,33,10.4,43.4,16.7,44.7l4.8,0.6C173.8,373.5,179.2,356.3,177.2,341.3z"/>
<path class="st1" d="M386.4,363.5l9.5,0.6l10.6-3.4c-3.5,33.2-2.4,57.3,3.2,72.3l-5.8-2.7l-2.2,6.8
	C394.5,427.6,385.2,403.4,386.4,363.5z"/>
<path class="st1" d="M121.6,343.4l-19-8.7c3.4,34.4,2.3,59.4-3.1,75l5.5-2.8l2.2,7C114.2,404.2,122.8,384.9,121.6,343.4z"/>
<path class="st0" d="M398.6,363l8-2.3c-3.5,33.2-2.4,57.3,3.2,72.3l-2.9-1.3l-2.2-7.5C398.6,416.4,395.8,385.7,398.6,363z"/>
<path class="st0" d="M112.3,341.5l-9.7-6.8c3.4,34.4,2.3,59.4-3.1,75l2.8-1.4l2.1-7.8C110.3,392.6,115,365.1,112.3,341.5z"/>
<path class="st2" d="M396.9,429.4c2-3.8,6.7-6.9,10.6-4.2c0.7,2.8,1.4,5.4,2.3,7.7l-4.9-0.7l-3.1,4.8
	C400.2,434.9,398.5,432.4,396.9,429.4z"/>
<path class="st2" d="M111.9,406c-1.9-4-6.5-7.2-10.2-4.4c-0.6,2.9-1.4,5.6-2.2,8l4.8-0.7l2.9,5C108.8,411.7,110.4,409.2,111.9,406z"
	/>
<path class="st3" d="M422.6,358.6l2.2-3.5l5.1-3.8c8.6,9.3,5.7,27.9,24.7,33.8C434.8,383.7,434.5,369.1,422.6,358.6z"/>
<path class="st3" d="M88.6,333.1l-6.3-8.5c-8.3,8.9-32,10.8-29.2-4.6C44.5,341.6,75.1,343.9,88.6,333.1z"/>
<path class="st4" d="M386.3,370.6l0.1-7.1c5.2,0.2,12.1,1.2,20.4-4l-0.7,7.2c6.1-0.5,16.2-6.2,17.9-10.7
	c7.1-2.3,13.5-20.5,12.6-35.6l-5.2-2.8l2.1-8.5l-8.4,0.1c8-10,14.6-19.6,20.1-25.8c-1.3-11.7-9.7-25.8-16.1-34l-123.9,1.2L300,258
	l-2.1,8.7l4.8-0.1l4.8-0.1l10.1,6.9c-4.5,5.3-11.1,7.3-16.3,7.9c-5.7,7.5-8.8,38.6,8.1,44.1c-1.3,10.6,8.8,27.6,20.3,27.3
	c1.6,8,19.3,22.9,32.1,21C370.5,377.2,378.7,376,386.3,370.6z"/>
<path class="st4" d="M121.6,352.4v-9l-50.5-71.6c1.3-11.3,9.4-24.9,15.5-32.7l117.1,0.4c7.3,3.8,4.3,19.2-0.6,30.7
	c0.5,7.5,0.6,20.3-8.1,26.1c6.7,21.6-3.3,44.5-34.8,46.1C153,356.8,125.6,353.7,121.6,352.4z"/>
<path class="st5" d="M386.3,370.6l0.1-7.1c5.5,0.9,13.4,2.1,20.4-4l-0.7,7.2c5.7-0.5,17.3-7.4,18.9-11.6
	c7.1-2.3,13.9-26.7,11.6-34.7c8.1-3.7,12.7-21.8,5.9-30.6c11.1-8.7,6.9-35.8-5.9-44.8l-19.7,29.7c-2.8,9.8-9.2,18.3-19.7,25
	c9.2,3.5,9.3,16,5.6,22c4,5.9,0.5,11.3-5.2,12.2c-2,11.8-20.2,10.7-25,4.4c-4.3,9.4-37.9,21.4-54.2-2.3c-1.2,10,8.4,16.7,17.9,19.1
	c1.5,7.6,13.5,20.4,25.6,18.6C370,377,378.6,376.6,386.3,370.6z"/>
<path class="st5" d="M121.6,352.4v-9c-6.6-0.5-12.9-2.5-18.8-6.3l0.4,4.5c-8.9-1.2-22.2-9-24.9-33.3c-7.6-0.5-17.5-16-9.9-39.3
	c-7.1-16-2.5-34.6,5.9-43.6c8.6-1.6,9.2,5.6,12.3,13.8l8.9,14.2c2.8,5.2,5.2,6.7,7.7,7.7c-4.7,12.8,3.6,23.3,14.1,26.4
	c-8.9,3.4-8.9,15.4-5.4,21.1c-3.9,5.7-0.5,10.9,5,11.7c1.9,11.3,19.4,10.3,24.1,4.3c5.3,13.7,36.4,20.6,52.2-2.2
	c-4.7,18.8-21.7,21.7-32.9,20.1C159.4,350.8,131.9,357.3,121.6,352.4z"/>
<path class="st6" d="M303.4,209.8l114-25.9l24.1,29.5c6.8,29.7-2.5,24-22.7,48.4c-5.4,3.3-7.8,2.8-15.9,2
	c-0.1,2.3-2.1,10.8-5.8,16.8c-6.5,1.6-17.8-0.7-21.5-4.1c-39.4,27.3-80.6-12.5-70.2-40.9C298.9,229.5,295.2,220.1,303.4,209.8z"/>
<path class="st6" d="M218.6,198.8L97.9,176.1L78.2,206c-3.3,14.2-4.8,12.1-3.8,17.6l0.2,3.7c6.8,2.4,10.9,6.4,12.1,11.9l4.4,10.8
	l17.7,2.9c6.4,1,11.7,1.2,17.3-4.1l0.6,4.2l-0.7,2.5c5.6,7,7.7,15.7,16.8,21c10.7,1.4,21-1.8,26.1-11.7c7.1,5.2,20.4,2.5,22.7-7.5
	c9.5,0.8,22.3-11.6,22.3-23.1C223.1,230,228.6,212.6,218.6,198.8z"/>
<path class="st4" d="M417.4,183.9l24.1,29.5c6.4,13.6,5.5,24.7-5,31.6c1.5,16.8-6,25.9-19.7,29.7l2-12.3l-7.4,2.2l-5.3-0.8
	c8.1,0.1,12.4-5.3,15.1-11.1c1.8-15.2,15.8-16.3,4-29.4c-6.3-8.4-17.9,7.2-21.4,0.7c-6.8,2.3-14.6,3.4-21.6,2.9
	c12.1-9.4,3.5-30.2,15-38.4c2.8,5,5.6,9,8.7,12.2C406.7,195.9,409.5,190.3,417.4,183.9z"/>
<path class="st4" d="M97.9,176.1l-19.1,28l-3.3,12.1c-2.7,3.4-0.5,6.8-1,9.3l0.2,1.9c3,19.6,10.6,26.4,21,26.1
	c2.7,5.1,9.6,1.6,13.2-0.4c-7.4-1.2-11.9-5.1-14.5-10.7c-1.7-14.6-15.2-15.7-3.9-28.3c6.5-8.7,18.8,9.2,21.3-1
	C102,203.4,119.1,193.1,97.9,176.1z"/>
<path class="st7" d="M310.1,131.2l41.7-33.4l3-31.3l-5.7-3.1C306.6,45.4,271.3,103,310.1,131.2z"/>
<path class="st7" d="M208.4,125.4l-40.1-32.1l2.6-33C211.8,42.9,245.7,98.3,208.4,125.4z"/>
<path class="st4" d="M124.2,183.2c-6.3,11.4-19.8,19.4-31.1,21c2.3,3.8,1.6,11.6,17.1,21.4C119,216.5,127.1,197.7,124.2,183.2z"/>
<path class="st8" d="M310.1,131.2l49.6-19.1l-2.5-32.3C308.7,64.1,283.3,108.8,310.1,131.2z"/>
<path class="st8" d="M208.4,125.4L160.7,107l2.4-31.1C209.7,60.9,234.2,103.8,208.4,125.4z"/>
<path class="st4" d="M315.9,214.1c9.4,14.8,43.5,27.7,83-5.9l-1.3-19c-8.8-21.2,6.2-42,23.6-43.9c-6.3,1.2-11.1-0.9-14.5-6.1
	l-42.9-54.3l-19.4,10.2c-14.8,7.2-29,23.9-37.5,42.2c-21.1,15.8-21.9,57.6-12.4,66.2C299.3,208.3,306.6,212.2,315.9,214.1z"/>
<path class="st4" d="M202.8,205.2c-9,14.2-41.9,26.6-79.9-5.6l1.3-18.3c8.5-20.4-6-40.4-22.7-42.3c6.1,1.1,10.7-0.8,13.9-5.9
	l41.2-52.2l18.7,9.9c14.2,6.9,27.9,23,36.1,40.6c20.3,15.2,21.1,55.4,12,63.7C218.8,199.6,211.7,203.4,202.8,205.2z"/>
<path class="st5" d="M389.5,210.7c1.1-10.6,3.4-18.8,8.1-21.5l4.5,7.6l6.3,6.8c0.2,10.5-9.6,17.9-26.1,23.4
	c13.3,0.6,25.3-2.4,35.3-10.7l3.3-5.6l-23.2-21.4c-8.8-21.2,6.2-42,23.6-43.9c-6.3,1.2-13.4-1.9-16.4-9.8l-53.1-37.8
	c-2,18.1,6.8,29.2,21.2,28.8c0,7.1,4.2,10.8,9.8,13.4c7.5,11.3,0.4,24.2-9.3,34.8l9.4,5.7C370.4,180.1,380,206.8,389.5,210.7z"/>
<path class="st5" d="M129.4,204.2l-5.9-4.1l0.1-10.6c-5,11.7-19.2,18.5-29.5,14.5l30.1-22.8c8.5-20.4-6-40.4-22.7-42.3
	c6.1,1.1,10.7-0.8,13.9-5.9l52.8-39.8c1.9,17.4-6.5,28.1-20.4,27.8c0,6.8-4,10.4-9.4,12.9c-7.2,10.8-0.4,23.3,8.9,33.4l-9,5.5
	C150.4,172.5,136.6,199.4,129.4,204.2z"/>
<path class="st9" d="M354.8,66.6c-39.1-25.5-85.4,31.3-44.7,64.7"/>
<path class="st9" d="M170.9,60.4c40.9-17.5,74.8,38,37.5,65.1"/>
<path class="st10" d="M359.6,112.1c-2.7,12.4,12,26.6,31,18.7c3.2,4.3,8,5.8,14.2,4.6c-5.7-22.6,3.8-35.7,44.1-32.7
	c4.1-11.6-2.6-26.2-21.9-22.7c6.8-29.1-30.6-32.4-35.4-18.1c-6.6-8.8-25.5-4.9-26.2,6.2c-21.3-9.5-43.2,22.7-13.6,29.7
	C350.3,103,347.3,111.4,359.6,112.1z"/>
<path class="st10" d="M143.7,116.2c-1.5,9.9-8.6,17.6-27.1,16.4c5.5-21.7-2.9-37.4-41.8-34.6C73.6,86.5,76.1,79.4,86,74.2
	c0.6-27.2,45.9-33.1,50.5-19.4c6.4-8.5,23.7-5.5,23.7,6.6c20.5-9.1,36.6,25.3,8.1,32C170.1,103.8,161.2,115.8,143.7,116.2z"/>
<path class="st11" d="M388.3,113.4c-3.4,10,5.9,20.6,22.4,19.6c-4.9-19.4,3.7-27.6,38.3-25.1c2.6-14.7-11.8-23.3-20.9-21.3
	c-0.6-24.2-30.8-24.8-37.3-16.1c-5.7-7.6-17.6-3.7-17.8,4.6c-18-7.3-25.8,21.2-6.1,24.9C365.3,109.5,377.1,117.2,388.3,113.4z"/>
<path class="st11" d="M133.2,108.3c3.2,9.7-5.7,19.8-21.6,18.8c4.7-18.6-3.6-26.6-36.9-24.1C72.3,88.8,86.2,80.6,95,82.5
	c0.6-23.3,29.6-23.8,35.9-15.5c5.4-7.3,16.9-3.6,17.1,4.5c17.3-7,24.8,20.4,5.8,24C155.3,104.5,143.9,112,133.2,108.3z"/>
<path class="st4" d="M316.9,120.1c6.5-9.8,9.8-12.9,18-18.9c-8.8-14.8-29.6-16-33.1-34.8C293,83.3,294.9,115.9,316.9,120.1z"/>
<path class="st4" d="M204,118.1c-6.2-9.4-13.2-17-21.1-22.8c17.9-10.5,37.2-5.1,53.2-11.4C232,96.7,220.1,120.2,204,118.1z"/>
<path class="st5" d="M316.9,120.1c5.5-6.9,8.3-10,13.4-15c-11.2-16-30.7-18.3-31.8-28.6C293.7,95,301.5,119.9,316.9,120.1z"/>
<path class="st5" d="M204,118.1c-6.2-9.4-7.3-12.1-15.1-17.9c17.9-10.5,31-4.2,44.6-9.4C229.5,103.6,218.2,118.9,204,118.1z"/>
<path class="st12" d="M319.9,117l5.3-7c-8.7-2.9-18.6-20.5-21.6-16.3C297.8,101.8,309.2,115.4,319.9,117z"/>
<path class="st12" d="M198.9,111.8l-5.1-6.7c2.7-4.2,26.1-9.6,25-2.6C217.7,109.4,198.4,113.3,198.9,111.8z"/>
<path class="st11" d="M292.8,171.3c-0.9-12.6,8.3-42.5,29.6-25.7C299.6,136.3,295.1,160.5,292.8,171.3z M318.1,129.5
	c4.5-6.3,12.3-13,19.9-14.4C329.4,113.2,321,121.2,318.1,129.5z M349.2,150.7c6-7.5,12.8-11.4,22.9-14.3
	C363.7,133.7,353.7,140.4,349.2,150.7z M402.8,188.9c-4.8,8.2-9.3,20-8.7,27.8C390.1,207.4,395.1,195.5,402.8,188.9z M313.9,185.8
	c-9.9,1.5-16.8-3.2-17-10.8C294.9,186.4,302.1,191.5,313.9,185.8z"/>
<path class="st11" d="M225,164c0.8-12.1-8-40.9-28.5-24.7C218.5,130.4,222.8,153.6,225,164z M200.7,123.8
	c-4.3-6-11.8-12.5-19.1-13.9C189.8,108.1,197.8,115.8,200.7,123.8z M170.8,144.2c-5.8-7.2-12.3-11-22-13.7
	C156.8,127.8,166.4,134.3,170.8,144.2z M120.1,195.3c-1.7,9.1-5.8,20.6-11.2,26C117.7,216.9,121.6,204.9,120.1,195.3z M204.7,178
	c9.5,1.4,16.1-3.1,16.3-10.4C222.9,178.5,216.1,183.5,204.7,178z"/>
<path class="st7" d="M421.1,145.3c-8.3-0.6-20.6,9.7-24.3,21.4c-7.5,22.6,10.4,41.9,32,46.2c40,6.7,65.1-34.8,57-69.4
	c-6.9-36.2-50.5-53.5-76.3-31.8C398.5,123.7,402.8,147.6,421.1,145.3z"/>
<path class="st7" d="M101.5,139c8-0.6,19.8,9.3,23.4,20.6c7.2,21.8-10,40.3-30.8,44.4c-38.5,6.5-62.6-33.5-54.8-66.7
	c6.6-34.8,48.5-51.5,73.4-30.6C123.3,118.2,119.2,141.2,101.5,139z"/>
<path class="st8" d="M421.1,145.3c21.8-3.2,38.7,13.9,39.6,28.8c-2.1-20.5-41.9-20.3-38.7,1.8c2.4,17.5,37.9,21.8,45.5-7
	c7.2-26.7-22.2-50.4-51.2-41.6C406.1,131.1,409.7,145,421.1,145.3z"/>
<path class="st8" d="M101.5,139c-20.9-3.1-37.3,13.4-38.1,27.7c2-19.7,40.3-19.6,37.2,1.7c-2.3,16.9-36.5,21-43.8-6.7
	c-7-25.7,21.4-48.5,49.3-40C116,125.3,112.6,138.7,101.5,139z"/>
<path class="st9" d="M63.5,166.6c3-29.8,49.5-41.3,61.5-7.1c7.2,21.8-10,40.3-30.8,44.4c-38.5,6.5-62.6-33.5-54.8-66.7
	c6.6-34.8,48.5-51.5,73.4-30.6c10.7,11.5,6.5,34.5-11.2,32.3"/>
<path class="st9" d="M102.9,337.1c3.4,34.4,2.1,57-3.3,72.6l4.8-0.7l2.9,5c6.9-9.7,15.5-29.1,14.4-70.6"/>
<path class="st9" d="M153.4,349.7c7.1,33,13.5,48.6,19.6,55.2l3.2-5.1l5.9,0.5c-9.5-29.7-3.4-39.6-5-59"/>
<path class="st13" d="M101.2,311.2c1.2,5.7,7.6,5.9,9.2,2.8 M186.2,226.9c2.7,1.9,5.4-0.4,4.9-2.3 M172.3,242.8
	c4.8,2.9,9.2-1.3,8-4.5 M153.1,242.7c2.8,3.7,7.5,1.7,7.6-1.1 M137.7,230c3.3,4.5,9,2.3,9.1-1.2 M150.7,199.2
	c2.6-0.4,4.3-2.7,4.6-5.5 M207.3,180c10.9,3.1,15.2-4.7,14.7-11.8 M153,85c1.6,2.5,4.6,0.3,4.3-1.7 M139.9,98.6
	c4.4,4.4,10.4,0.8,9.6-3.9 M119.8,107c4.2,3.7,9.3,0.3,8.7-3 M123.2,90.8c1.8,4.3,7,1.7,7-1.6 M98.2,332.5c5.4,6.8,16,12.7,26.4,9.6
	 M120.1,321.7c1,4.6,6.1,4.8,7.4,2.2"/>
<path class="st13" d="M364.4,338.2c-1,4.8-6.4,5-7.7,2.3 M335.1,326.3c-3.5,3-7.6,0-7.1-2.7 M337.1,308.7c-4.2,3.5-9,0.1-8.3-3.2
	 M402.2,112c-4.4,3.9-9.6,0.3-9-3.2 M381.3,103.3c-4.6,4.6-10.8,0.8-10-4 M367.6,89.2c-1.6,2.6-4.8,0.4-4.4-1.8 M398.7,95.2
	c-1.8,4.4-7.3,1.8-7.2-1.7 M388.8,352.8c-2.3,4.3-7.5,3.1-8,0.2"/>
<path class="st14" d="M359.2,173.6l8.1-0.3c11.7-10.3,14.6-25.4,11.5-30.3c-6.6-8-26.9,2.2-31.6,16.3
	C346,162.7,351.1,171.5,359.2,173.6z"/>
<path class="st14" d="M161.1,166.2l-7.8-0.3c-11.3-9.9-14.1-24.4-11.1-29.2c6.4-7.7,25.9,2.1,30.4,15.7
	C173.8,155.8,168.9,164.2,161.1,166.2z"/>
<path class="st15" d="M373.5,152.2c-8-7-22.9,0.8-25.4,12.9l4.7,5.4l6.4,3.2l8.1-0.2C372,171.3,380.3,157.8,373.5,152.2z"/>
<path class="st15" d="M151.3,141c7.7-6.8,19.2,1,21.5,12.7l-5.5,9.5l-6.2,3.1l-1.3-0.2C153.4,163.3,144.7,146.4,151.3,141z"/>
<path class="st14" d="M317.2,139l-0.8-0.3c4.5,1.4,7.5,3.7,11,8.1c10.8-2.3,20.7-21.8,15.4-27.7C336.5,115.3,324.6,120.4,317.2,139z
	"/>
<path class="st16" d="M376.9,341.4c-1.2-0.6-3.9-0.6-4.4-3.1c-5.8-18.5-12.8-36.3-22.5-52.7l7.6,3.9
	C366.5,304.4,372.7,323.5,376.9,341.4z"/>
<path class="st17" d="M376.9,341.4c-1.2-0.6-3.9-0.6-4.4-3.1c-5.8-18.5-12.8-36.3-22.5-52.7l7.6,3.9
	C366.5,304.4,372.7,323.5,376.9,341.4z"/>
<path class="st14" d="M201.6,132.9l0.8-0.3c-4.3,1.3-7.2,3.6-10.6,7.8c-10.4-2.2-20-21-14.8-26.6
	C182.9,110.1,194.4,115.1,201.6,132.9z"/>
<path class="st15" d="M339.1,128.1c-8-7-18.3,1.4-19.2,12l7.5,6.7C334.2,147.3,344,133.4,339.1,128.1z"/>
<path class="st15" d="M184.4,120.2c7.9-5.1,13.2,4.7,17.2,12.7l-4.7,2.2l-5.1,5.3C184.6,135,179.2,124.1,184.4,120.2z"/>
<path class="st9" d="M406.8,359.4c-3.5,33.2-2.6,58.5,3,73.6l-4.9-0.7l-3.1,4.8c-7.2-9.4-16.6-33.6-15.4-73.6"/>
<path class="st1" d="M165.7,309l-0.3-5.8l2.9-5.7c8.7-10.7,16.9-25.7,23.1-40.2c5.1,0.2,10.8-2.8,17-9
	C209.9,272.8,181.9,302.7,165.7,309z"/>
<path class="st9" d="M356.7,373.6c9.5,18.1,6.8,47.8,2.1,55.5l-3.9-4.8l-4.8,3.7c2.3-27.7-9.7-47-14-65.7"/>
<path class="st9" d="M305.1,250.6c-2.9,3.8-6.1,6.2-7.2,16.1"/>
<path class="st9" d="M429.9,351.3c8.6,9.3,5.8,27.2,24.7,33.8c-20.2-1.8-20.1-15.9-32-26.5"/>
<path class="st0" d="M165.7,309l-0.3-5.8l2-6.9c9.1-9.8,18.3-23.3,24.1-39l7.1-1.3C200,280.5,172.5,299.4,165.7,309z"/>
<path class="st9" d="M188.8,262.2c-3.4,11.8-11.5,22.5-21.4,34.1"/>
<path class="st2" d="M175.3,303.5l-9.6,5.5l-0.3-5.8l2.5-7.4l1.2-1.4C172.7,294.7,176.2,300.1,175.3,303.5z"/>
<path class="st9" d="M208.4,248.3c1.4,24.5-26.6,54.5-42.7,60.7"/>
<path class="st13" d="M138.5,134c-3.4,2.2-4,6.8-2,10.8 M180.7,106.4c-3.1-2.4-8.7-0.8-11.2,2.4 M211.3,131.3
	c-7.2-0.3-14.2,2.4-19.6,9.1c-10.4-2.2-20-21-14.8-26.6c6-3.7,17.4,1.3,24.6,19.1 M175.3,90.7c14.2,6.9,27.9,23,36.1,40.6
	c20.3,15.2,21.1,55.4,12,63.7c-11.1,11.5-37.7,17.5-69,1.9 M142.6,276.5c5.5,1.4,20.5-0.9,26.1-11.7c6.3,4.7,18.9,3.7,22.7-7.5
	c9,0.9,22.2-10,22.3-23.1c12.7-6.7,12.7-25.6,4.8-35.5"/>
<path class="st13" d="M412.1,352.9c-3.8,9.6-18.1,13.1-30.8,9.5 M407.8,366.3c6.1-1.4,15.8-6.3,17.1-11.3
	c7.1-1.8,13.4-25.5,11.6-34.7c8.5-4.4,12.4-20.6,5.9-30.6c10.7-13.7,6.1-38.1-5.9-44.8 M397.2,280.5c-6.3,1.7-14.1,0.7-21.5-4.1
	c-29.1,22.9-78.1-0.4-70.2-40.9c-6.3-5.6-10.3-15.6-2.1-25.8 M436.5,244.9c2.1,17.9-9.4,28-19.7,29.7 M436.5,244.9
	c12.7-6.3,9.7-24.9,5-31.6 M420.7,210.6c-1.4,10.1-26.9,17.7-38.5,16.3c11.2-9,4.4-31.1,15-38.4 M315.9,214.1
	c4.6,12.3,36.5,25.4,72.7,1.4 M311.2,187.9c-11.4,3.2-15.8-4.8-15.3-12.3 M344.5,95.1c-14.8,7.2-29,23.9-37.5,42.2
	c-21.1,15.8-21.9,57.6-12.4,66.2c11.5,11.9,39.2,18.2,71.7,1.9 M370,207.9c-2.7-0.4-4.5-2.8-4.8-5.7 M299.8,186.5
	c-4.3,4.5-6.5,15.6-3,19.1 M350.9,177.3c7.6-6,21.7-6,32,3.2 M367.4,173.4c11.7-10.3,14.6-25.4,11.5-30.3c-6.6-8-26.9,2.2-31.6,16.3
	c-1.2,3.3,3.8,12.1,12,14.2 M382.7,140.1c3.5,2.3,4.2,7,2,11.2 M338.8,111.4c3.2-2.5,9.1-0.8,11.7,2.5 M307,137.3
	c7.5-0.3,14.8,2.5,20.4,9.5c10.8-2.3,20.7-21.8,15.4-27.7c-6.2-3.8-18.1,1.3-25.5,19.9 M334.9,101.2c-6.3-13.2-31.3-15.7-33.1-34.8
	c-8.9,19.7-5.1,51.7,15.1,53.7 M427,80.1c6.7-26.6-30.7-32.4-35.5-18.1c-7-7.7-24.8-5.3-26.2,6.2c-21.3-9.5-43.2,22.7-13.6,29.7
	c-4.1,9,0.9,13.9,7.9,14.3c-3.9,16.4,17.8,25.8,31,18.7 M389.7,129.4c1.8,3.6,8.2,7.9,15.1,6 M448.9,102.7
	c4.4-12.9-4.7-26.8-21.9-22.7 M301.3,281.2c-8.7,16.9-4.7,40.9,8,44.2c-1.3,10.6,8.8,27.6,20.3,27.3c1.6,8,19.3,22.9,32.1,21
	c7.9,3.2,17,2.5,22.8-1.7"/>
<path class="st1" d="M126,255.6c-1.4,4-6,6.3-13.8,7.1c8.5,8.8,13.7,19.5,20.3,25.1c7.5,7.1,17.1,5.5,33.2,23l-0.4-7.6l6.5-0.5
	c-9.5-16.1-25-22.5-29.2-26.2C132.1,270.6,131.4,260.2,126,255.6z"/>
<path class="st2" d="M166.3,295.6c-6.3,0.5-7.9,4.2-9.2,7c2.4,1.6,6.2,6.5,8.7,8.2l-0.4-7.6l6.5-0.5
	C170,300.1,168.2,298.1,166.3,295.6z"/>
<path class="st0" d="M124.6,257.9c-1.4,4-4.5,4.1-12.3,4.8c8.5,8.8,11.9,17.9,18.6,23.4c7.5,7.1,12.4,7.9,26.3,16.4l1.5-3l0.1,0.1
	c-12-12.3-19.1-14.3-23.3-18C124.9,275.7,120.8,260.7,124.6,257.9z"/>
<path class="st9" d="M112.2,262.7c8.5,8.8,13.7,19.5,20.3,25.1c7.5,7.1,17.1,5.5,33.2,23l-0.4-7.6l6.5-0.5
	c-9.5-16.1-25-22.5-29.2-26.2c-10.6-5.9-11.3-16.3-16.6-20.8"/>
<path class="st9" d="M82.3,324.6c-8.3,8.9-31.4,10.8-29.2-4.6c-8.8,16.9,16.8,26.4,35.1,13.4"/>
<path class="st13" d="M101.6,341.3c-11-2.3-22.5-13.6-23.3-33c-10.2-1.7-16.4-20.7-9.9-39.3c-5.5-12.2-4.5-32.6,5.9-43.6 M126,248.8
	c5.6,15.8-25.5,19.2-30.4,4.5c-12.3,2.3-24.8-18-20.2-36.7 M94.2,204c1.3,9.7,8.9,20.2,16,21.6c7.5-6.2,15-22.7,14.1-44.3
	 M202.7,205.2c-4.6,12.3-37.1,25.3-73.3-1 M218.2,178.6c4.1,4.3,6.3,15,2.9,18.4 M153.3,166c-11.3-9.9-14.1-24.4-11.1-29.2
	c6.4-7.7,25.9,2.1,30.4,15.7c1.2,3.2-3.7,11.7-11.5,13.7 M169.1,169.8c-7.3-5.8-20.9-5.8-30.8,3.1 M182.9,95.3
	c17.9-10.5,39.5-5,53.2-11.4c-4.1,12.8-16,36.2-32.1,34.1 M74.9,98c-4.2-12.5,6.3-27.3,22.5-25.6 M86,74.2
	c0.6-27.2,45.9-33.1,50.5-19.4c6.7-7.5,22.3-4.4,23.7,6.6c20.5-9.1,36.6,25.3,8.1,32c1.8,10.5-7.1,22.5-24.6,22.9 M143.7,116.2
	c-0.1,9.5-12.9,19.5-27.1,16.4 M75.4,216.7c0.4-4.1,1.6-8.3,3.4-12.6 M203.6,273.6c0.9,11.5-1.5,18.3-8.4,22.7
	c7.9,26.6-13.1,52.5-34.8,46.1c0.5,7.7-23.4,14.1-37,10.4"/>
<path class="st1" d="M402.9,263.7c5.5,1.8,10.9,1.3,16-1.4c-3.4,34.3-26.7,43.9-59.1,43.4l3.8-4.8l-2.1-4.3
	C387.7,290.8,398.2,290.3,402.9,263.7z"/>
<path class="st0" d="M410.1,263.7c5.5,1.8,3.6,0.8,8.7-2c-4.3,28.6-19.5,44.5-51.9,44l3.8-4.8l-0.6-0.6
	C393,299.1,405.4,290.3,410.1,263.7z"/>
<path class="st2" d="M367,295.5c3.7,3.5,4.4,6,1.2,10.1c-3.1-0.2-5.2,0.3-8.4,0.1l3.3-4.6l-1.5-4.5
	C364.8,295.9,363.9,296.3,367,295.5z"/>
<path class="st9" d="M418.8,262.3c-3.4,34.3-26.7,43.9-59.1,43.4l3.8-4.8l-2.1-4.3c26.2-5.8,36.7-6.3,41.4-32.9"/>
<path class="st2" d="M350.3,418.4c6-2.4,8.2-0.5,11.2,2.5c-1.2,4.5-1.3,5.6-2.7,8.1l-3.9-4.8l-4.8,3.7
	C350.2,425,350.2,422,350.3,418.4z"/>
<path class="st2" d="M180.3,391.1c-6.6-1.4-10.5,1.4-13.1,4.7c2,4.1,3.9,7,5.8,9.1l3.2-5.1l5.9,0.5
	C181.6,397.4,180.9,394.4,180.3,391.1z"/>
<ellipse transform="matrix(2.124247e-02 -0.9998 0.9998 2.124247e-02 189.978 526.8089)" class="st18" cx="364" cy="166.4" rx="6.9" ry="6.9"/>
<ellipse transform="matrix(0.9998 -2.127842e-02 2.127842e-02 0.9998 -3.2203 3.5629)" class="st18" cx="165.8" cy="153.1" rx="6.7" ry="6.7"/>
<ellipse transform="matrix(2.183797e-02 -0.9998 0.9998 2.183797e-02 189.9456 519.5929)" class="st14" cx="360.5" cy="162.7" rx="3.3" ry="3.3"/>
<ellipse transform="matrix(0.9998 -2.126772e-02 2.126772e-02 0.9998 -3.2499 3.4254)" class="st14" cx="159.4" cy="154.5" rx="3.2" ry="3.2"/>
<ellipse transform="matrix(2.198273e-02 -0.9998 0.9998 2.198273e-02 208.278 515.478)" class="st14" cx="367.6" cy="151.3" rx="3.3" ry="3.3"/>
<ellipse transform="matrix(0.9998 -2.109142e-02 2.109142e-02 0.9998 -3.0715 3.1927)" class="st14" cx="149.8" cy="147.2" rx="3.7" ry="3.7"/>
<ellipse transform="matrix(2.155788e-02 -0.9998 0.9998 2.155788e-02 199.9826 456.1543)" class="st14" cx="333" cy="125.9" rx="2.9" ry="2.9"/>
<ellipse transform="matrix(0.9998 -2.130577e-02 2.130577e-02 0.9998 -2.5817 3.9312)" class="st14" cx="183.2" cy="123.1" rx="3.1" ry="3.1"/>
<ellipse transform="matrix(2.148575e-02 -0.9998 0.9998 2.148575e-02 182.1535 465.5906)" class="st18" cx="328.9" cy="139.7" rx="6.1" ry="6.1"/>
<ellipse transform="matrix(0.9998 -2.153848e-02 2.153848e-02 0.9998 -2.7511 4.2149)" class="st18" cx="194.3" cy="129.8" rx="5.9" ry="5.9"/>
<ellipse transform="matrix(2.156151e-02 -0.9998 0.9998 2.156151e-02 182.3629 459.1667)" class="st14" cx="325.8" cy="136.4" rx="2.9" ry="2.9"/>
<ellipse transform="matrix(0.9998 -2.162562e-02 2.162562e-02 0.9998 -2.7827 4.1199)" class="st14" cx="189.1" cy="130.7" rx="2.8" ry="2.8"/>
<path class="st9" d="M452.5,127c0.8-7,7-11.9,12.3-11.3"/>
<path class="st9" d="M71.4,121.4c-0.8-6.8-6.7-11.4-11.8-10.9"/>
<path class="st9" d="M463.7,129.1c0.5-4,4-6.8,7-6.4"/>
<path class="st9" d="M60.6,123.4c-0.4-3.8-3.8-6.5-6.7-6.2"/>
<path class="st9" d="M460.7,174c-8.2-6.3-32.8-12.2-33.9,1.5"/>
<path class="st9" d="M63.5,166.6c7.9-6.1,31.5-11.8,32.7,1.5"/>
<path class="st9" d="M366.9,295.4c3.3,2.4,4.3,7.9,0.6,10.1"/>
<path class="st9" d="M167,295.8c-2.1-2.4-9.1,2.5-9.9,6.7"/>
<path class="st9" d="M397.3,430.2c-1.3-3.2,3.9-8.1,10-5.5"/>
<path class="st9" d="M111.5,406.8c1.7-3.5-3.7-8.4-9.6-5.7"/>
<path class="st9" d="M361.3,421.7c1.5-2.7-7-6.1-11-3.3"/>
<path class="st9" d="M167.8,397.1c-2.5-2.9,6-8.4,11.7-5.8"/>
<path class="st9" d="M169.1,294.4c3.6,0.3,7.1,5.7,6.2,9.1"/>
<path class="st19" d="M419.6,110.1c12.3-2.4,24.5-1.7,38.7,1.9C445.1,104.4,432.3,104.1,419.6,110.1z"/>
<path class="st19" d="M102.9,105.1c-11.8-2.3-23.6-1.6-37.2,1.8C78.4,99.6,90.8,99.4,102.9,105.1z"/>
<path class="st20" d="M415.6,203.6c-9-8.1-14.4-17.6-16.5-30.7C397.3,188.5,405.3,198,415.6,203.6z"/>
<path class="st20" d="M106.8,195.1c8.7-7.8,13.9-17,15.8-29.5C124.4,180.5,116.8,189.7,106.8,195.1z"/>
<path class="st9" d="M415.9,152.4c2.6-0.1,4.4,2,4.6,3.7"/>
<path class="st9" d="M106.5,145.8c-2.5-0.1-4.3,1.9-4.4,3.5"/>
<path class="st9" d="M409.5,157.7c2.2-0.5,5.2,1.1,6.1,3.9"/>
<path class="st9" d="M112.7,150.9c-2.2-0.5-5,1-5.9,3.7"/>
<path class="st14" d="M352.4,287.9l-11.3-10.8l2.4-5.7l14.3-2.3C375.1,269.3,370.6,296.2,352.4,287.9z"/>
<path class="st14" d="M347.5,252.2c22-15,26,14.9,10.3,16.9l-14.3,2.3l-11.2-7.8l-4.3-13.8C324.6,229.2,356.3,232.6,347.5,252.2z"/>
<path class="st14" d="M332.3,263.5l-5.4,5.1c-18-6.5-18.5-18.8-13.9-23.2C318.3,241.1,330.8,244.5,332.3,263.5z"/>
<path class="st21" d="M326.9,268.7c-18-6.5-18.5-18.8-13.9-23.2c5.3-4.4,17.7-0.9,19.3,18"/>
<path class="st21" d="M339.1,264.1c6.8-16,20.2-20,26.3-12.2c6.2,9.4-1.8,19.3-21.8,19.4"/>
<path class="st21" d="M328,249.8c-3.5-20.7,28.3-17.3,19.5,2.4"/>
<path class="st2" d="M307.5,266.4l2.5,5.7l4.3,3.8c3.7-1.2,6.2-5.7,6.2-17.2c-4,2.4-6.8,5.7-7,7.5c0.4-3.7,0.5-6.9,0.4-9.6
	C309.6,259.8,307.8,263.6,307.5,266.4z"/>
<path class="st9" d="M298.9,229.6c-8.2,9.5-14.8,21.8-17.4,32.5c-2,13.3,15.6,27,32.7,14c3.7-1.2,6.2-5.7,6.2-17.2
	c-4,2.4-6.8,5.7-7,7.5c0.4-3.7,0.5-6.9,0.4-9.6c-4.2,3.2-5.9,7-6.3,9.8c-2.3,1-9.9,1.9-15.6-2.6"/>
<path class="st14" d="M333.6,280.2l7.6-3.1c16.6,9.8,14.1,21.1,7.5,24.4C341.9,304.5,331.7,299.5,333.6,280.2z"/>
<path class="st21" d="M341.2,277.1c16.6,9.8,14.1,21.1,7.5,24.4c-6.8,3-17-2-15.1-21.3"/>
<path class="st21" d="M357.8,269.1c17.2,0.2,12.7,27.1-5.4,18.8"/>
<path class="st14" d="M383.1,316.7c20.3,6,32,22,23.6,29.2C398.5,353,384.9,340.2,383.1,316.7z"/>
<path class="st21" d="M383.1,316.7c20.3,6,32,22,23.6,29.2C398.5,353,384.9,340.2,383.1,316.7z"/>
<path class="st9" d="M315.1,275.6c-3.7-0.3-7.5-6.1-7.6-9.2"/>
<path class="st22" d="M335,279.6c4.7,0,8.6-3.7,8.6-8.3s-3.8-8.3-8.6-8.3c-4.7,0-8.6,3.7-8.6,8.3S330.3,279.6,335,279.6z"/>
<path class="st23" d="M335,279.6c4.7,0,8.6-3.7,8.6-8.3s-3.8-8.3-8.6-8.3c-4.7,0-8.6,3.7-8.6,8.3S330.3,279.6,335,279.6z"/>
<path class="st13" d="M382.6,260.9c-1.4,4.6-6.7,4.4-7.8,1.7 M390.5,249.5c-2.4,5.3-8.7,4.2-9.5,0.7 M317.5,232.3
	c-2.8,2-5.7-0.4-5.1-2.4 M375.2,244c-2.9,4-7.9,2-8-1 M421.5,259.5c-6.3,6.4-16.6,7.3-23.1-0.3"/>
<path class="st9" d="M460.7,174c-3.1-31-51.5-43-63.9-7.4c-7.5,22.6,10.4,41.9,32,46.2c40,6.7,65.1-34.8,57-69.4
	c-6.9-36.2-50.5-53.5-76.3-31.8c-11.1,11.9-6.8,35.9,11.6,33.5"/>
<path class="st14" d="M362.7,71.3c-8-0.7-15.7,2.6-20.2,7.7C343.4,71,354.5,67.9,362.7,71.3z M415.7,59.9
	c-8.1-2.8-16.9-0.6-23.1,4.5C396,55,408.3,53.8,415.7,59.9z"/>
<path class="st24" d="M143.7,270.8c8.3,0.8,16.2-3.2,20.9-9.4C163.7,271.1,152.2,275,143.7,270.8z M116.8,250.3
	c-6.6,0.7-12.8-2.5-16.6-7.4C101.1,250.5,110.1,253.5,116.8,250.3z M190.4,252.5c9.3-4.7,17.1-12.5,20.3-23.1
	C213.6,240.2,200.6,251.5,190.4,252.5z"/>
<path class="st14" d="M111.8,53.9c7.8-2.7,16.3-0.6,22.2,4.3C130.9,49.2,119,48,111.8,53.9z M161.1,65.6c6.6-0.7,12.8,2.5,16.6,7.4
	C176.9,65.4,167.8,62.3,161.1,65.6z"/>
</svg>
