<?xml version="1.0" encoding="utf-8"?>
<!-- Generator: Adobe Illustrator 21.1.0, SVG Export Plug-In . SVG Version: 6.00 Build 0)  -->
<svg version="1.1" id="Layer_1" xmlns="http://www.w3.org/2000/svg" xmlns:xlink="http://www.w3.org/1999/xlink" x="0px" y="0px"
	 viewBox="0 0 511 471" style="enable-background:new 0 0 511 471;" xml:space="preserve">
<style type="text/css">
	.st0{fill-rule:evenodd;clip-rule:evenodd;fill:#E2EAB6;}
	.st1{fill-rule:evenodd;clip-rule:evenodd;fill:#D3E095;}
	.st2{fill-rule:evenodd;clip-rule:evenodd;fill:#FFFFFF;}
	.st3{fill:none;stroke:#B0B1B2;stroke-width:1.6997;stroke-linecap:round;stroke-linejoin:round;stroke-miterlimit:22.9256;}
	.st4{fill:none;stroke:#C5C5C6;stroke-width:1.6997;stroke-linecap:round;stroke-linejoin:round;stroke-miterlimit:22.9256;}
</style>
<path class="st0" d="M202.5,419.2c-74.5,3-136.8-28.9-159.9-68.6c-29.1-49.9,6-68.7,4-107.7c-2.3-44.4-47-55-46.6-119.4
	C0.4,69.9,48.4,24.6,99.4,10.6c108.3-29.7,267.4,3.9,325.6,90.5c19.2,28.6-39.8,83.7-25.8,120.5c16.8,43.8,29,69.2,65.8,107.7
	C605,476.4,202.5,512.7,202.5,419.2z"/>
<path class="st1" d="M397.2,462.2c-49.3,15.5-193.3,15.9-194.7-43c-4.4-17-3.2-32,6.7-9.1c10.8,25.1,14.8,28.2,17.3,4.6
	c0.4-3.7,3.2-34,10-21c6.2,11.8,13.9,27.8,16.8,40.1c1.2,4.9,12.2-53.2,21.6-15.7c5.6,28,4.5,22.4,17.2,0.7
	c9.2-11.5,6.1,3.2,7.1,12.1c1.3,16.6-3.8,8.8,9.9,7.9c10.7-0.6,33.1-11.3,29.9,4.4c-2.9,13.8,13.2,5.7,23.4,3
	c25.3-6.2,23.9,9.8,7.6,14.1C353.4,464.5,390.2,458.8,397.2,462.2z"/>
<path class="st2" d="M448.1,343.7c8-13.3,21.5-18.7,25-11.3C476.7,339.5,465.2,346.7,448.1,343.7z"/>
<path class="st3" d="M448.1,343.7c8-13.3,21.5-18.7,25-11.3C476.7,339.5,465.2,346.7,448.1,343.7z"/>
<path class="st2" d="M493.3,347.1c1.8-12.5,10.1-20.8,15.1-16.4C513.4,334.9,507.1,344,493.3,347.1z"/>
<path class="st3" d="M493.3,347.1c1.8-12.5,10.1-20.8,15.1-16.4C513.4,334.9,507.1,344,493.3,347.1z"/>
<path class="st4" d="M449.2,350c10.4,4.8,22.5,4.8,35.9,1.5"/>
<path class="st4" d="M466.6,360.2c12.5,2.9,25.1,1.1,37.6-4.5"/>
</svg>
