<?xml version="1.0" encoding="utf-8"?>
<!-- Generator: Adobe Illustrator 21.1.0, SVG Export Plug-In . SVG Version: 6.00 Build 0)  -->
<svg version="1.1" id="Layer_1" xmlns="http://www.w3.org/2000/svg" xmlns:xlink="http://www.w3.org/1999/xlink" x="0px" y="0px"
	 viewBox="0 0 519 407" style="enable-background:new 0 0 519 407;" xml:space="preserve">
<style type="text/css">
	.st0{fill-rule:evenodd;clip-rule:evenodd;fill:#EDB581;}
	.st1{fill-rule:evenodd;clip-rule:evenodd;fill:#D0B2D5;}
	.st2{fill-rule:evenodd;clip-rule:evenodd;fill:#BB8EC0;}
	.st3{fill-rule:evenodd;clip-rule:evenodd;fill:#FBD2B6;}
	.st4{fill-rule:evenodd;clip-rule:evenodd;fill:#9D60A3;}
	.st5{fill:none;stroke:#822E2D;stroke-width:1.7015;stroke-linecap:round;stroke-linejoin:round;stroke-miterlimit:22.9256;}
	.st6{fill-rule:evenodd;clip-rule:evenodd;fill:#E2D2E8;}
	.st7{fill-rule:evenodd;clip-rule:evenodd;fill:#F5B0B4;}
	.st8{fill-rule:evenodd;clip-rule:evenodd;fill:#FFFFFF;}
	.st9{fill-rule:evenodd;clip-rule:evenodd;fill:#D3ECFB;}
	.st10{fill-rule:evenodd;clip-rule:evenodd;fill:#1A1A18;}
	.st11{fill:none;stroke:#6C3579;stroke-width:1.7015;stroke-linecap:round;stroke-linejoin:round;stroke-miterlimit:22.9256;}
	.st12{fill-rule:evenodd;clip-rule:evenodd;fill:#A35939;}
	.st13{fill-rule:evenodd;clip-rule:evenodd;fill:#FDEBDB;}
	.st14{fill-rule:evenodd;clip-rule:evenodd;fill:#FDF1E7;}
	.st15{fill-rule:evenodd;clip-rule:evenodd;fill:#F1E0EF;}
</style>
<path class="st0" d="M266.8,258.4c-13,0.1-20.1,7.5-22.8,20.5l9,1.8l2.5,2.1l4-7.9h11.3l1.3-5.9L266.8,258.4z"/>
<path class="st1" d="M270.5,247.9l88.7-20.1l27.2,21.2c2.6,11.5,0.1,18.8-4.7,24.2l-16.8-7.5c-17.4,0.2-32.3-1.5-43.8,24.1h-43.8
	c-4-3.8-7.9-13.7-5.6-21.5C267.4,264.6,264.2,255.9,270.5,247.9z"/>
<path class="st2" d="M359.2,227.8l27.2,21.2c2.6,11.5,0.8,13.1-0.3,17c6.6,4.9,8,11.6,5.2,22.3l-0.5,1.4H321l2-4l6.4-1.8l5.2,4.5
	c8.2-11.7,23.7-6.4,35.5-9.5c-3.7-2.8-5.5-7.2-5.2-13.2l-6.3,0.5l-10.5-8.6C355.9,249.8,342.1,241.5,359.2,227.8z"/>
<path class="st3" d="M275.7,186.8l32.4-26l-2.1-26.7C273,120.1,245.6,164.9,275.7,186.8z"/>
<path class="st3" d="M370.1,278.9c-3.5-3.1-5.2-7.5-5.2-13.2c-13.8,2.8-26.1-8.7-43.1,23c3.1-0.5,6-1.4,8.6-2.8l3.1,4
	C343.6,274.7,357.9,282.6,370.1,278.9z"/>
<path class="st0" d="M370.1,278.9c-3.5-3.1-5.1-4.5-5.1-10.2c-0.6,3.4-25.8-6-39.9,19.3c3.1-0.5,2.7-0.7,5.3-2.1l3.1,4
	C343.6,274.7,357.9,282.6,370.1,278.9z"/>
<path class="st2" d="M343.8,233.5c5.1,9.2,16,15.7,25.1,17c-1.8,3-1.3,9.4-13.8,17.3C347.9,260.4,341.4,245.2,343.8,233.5z"/>
<path class="st0" d="M275.7,186.8l38.5-14.8l-2-25.1C274.7,134.6,254.9,169.4,275.7,186.8z"/>
<path class="st2" d="M280.2,251.2c7.3,11.5,33.8,21.5,64.6-4.6l-1-14.8c-6.9-16.5,4.8-32.6,18.3-34.1c-4.9,0.9-8.7-0.7-11.3-4.8
	l-33.3-42.2l-15.1,8c-11.5,5.6-22.6,18.6-29.1,32.8c-16.4,12.3-17,44.8-9.7,51.4C267.3,246.7,273,249.8,280.2,251.2z"/>
<path class="st4" d="M339.5,250.4l4.8-3.3l-0.1-8.5c4,9.4,15.5,14.9,23.8,11.7l-24.3-18.4c-6.9-16.5,4.8-32.6,18.3-34.1
	c-4.9,0.9-8.7-0.7-11.3-4.8l-42.6-32.1c-1.5,14.1,5.3,22.7,16.4,22.4c0,5.5,3.2,8.4,7.6,10.4c5.8,8.8,0.3,18.8-7.2,27l7.3,4.4
	C322.6,224.8,333.7,246.6,339.5,250.4z"/>
<path class="st5" d="M306,134.2c-33.1-14.1-60.5,30.7-30.3,52.6"/>
<path class="st6" d="M328,179.3c1.2,8,7,14.2,21.9,13.3c-4.4-17.6,2.4-30.2,33.7-27.9c3.5-9-2.3-19.1-13.7-20.6
	c-0.5-21.9-32.4-25.5-36.2-14.3c-5.1-6.9-19.2-4.4-19.1,5.3c-16.6-7.4-29.5,20.4-6.6,25.8C306.7,169.4,313.9,179,328,179.3z"/>
<path class="st1" d="M336.5,173c-2.6,7.8,4.6,16,17.4,15.2c-3.8-15.1,2.9-21.5,29.8-19.5c2-11.4-9.2-18.1-16.3-16.5
	c-0.4-18.8-23.9-19.3-29-12.5c-4.4-5.9-13.7-2.9-13.9,3.6c-14-5.6-20,16.5-4.7,19.4C318.6,169.9,327.8,175.9,336.5,173z"/>
<path class="st2" d="M279.3,180.9c5-7.6,10.7-13.7,17-18.4c-14.4-8.5-28.6-4.3-41.2-2.6C258.3,170.3,266.2,182.6,279.3,180.9z"/>
<path class="st4" d="M279.3,180.9c5-7.6,5.9-9.8,12.2-14.4c-14.4-8.5-25.4-2.3-36.4-6.5C258.3,170.3,266.2,182.6,279.3,180.9z"/>
<path class="st7" d="M283.4,175.8l4.2-5.4c-2.2-3.4-21-5-20.1,0.6C268.3,176.6,283.8,177.1,283.4,175.8z"/>
<path class="st6" d="M283.4,287.8c-5.6-3.8-8.4-10.4-8-16.7C270.9,277.6,276,286,283.4,287.8z"/>
<path class="st1" d="M278.7,229.3c-7.7,1.1-13-2.5-13.2-8.4C264,229.7,269.5,233.7,278.7,229.3z M262.3,218c-0.7-9.8,6.5-33.1,23-20
	C267.6,190.8,264.1,209.6,262.3,218z M306.1,202c4.7-5.8,9.9-8.9,17.8-11.1C317.4,188.8,309.6,194,306.1,202z M281.9,185.5
	c3.5-4.9,9.5-10.1,15.4-11.2C290.7,172.8,284.2,179.1,281.9,185.5z M347.1,243.3c1.4,7.3,5,17.6,9,22.5
	C348.8,260.9,345.8,251.1,347.1,243.3z"/>
<path class="st3" d="M362.1,197.8c-6.4-0.5-16,7.5-18.9,16.6c-5.8,17.6,8.1,32.6,24.8,35.9c31.1,5.2,50.6-27.1,44.3-53.9
	c-5.4-28.1-39.2-41.6-59.3-24.7C344.4,181,347.8,199.6,362.1,197.8z"/>
<path class="st0" d="M362.1,197.8c16.9-2.5,30.1,10.8,30.8,22.3c-1.6-15.9-32.5-15.8-30,1.4c1.9,13.6,29.5,16.9,35.4-5.4
	c5.6-20.7-17.3-39.2-39.8-32.3C350.4,186.8,353.1,197.5,362.1,197.8z"/>
<path class="st8" d="M313.9,219.8l6.3-0.2c9.1-8,11.4-19.7,8.9-23.6c-5.1-6.2-20.9,1.7-24.5,12.7
	C303.7,211.3,307.6,218.1,313.9,219.8z"/>
<path class="st9" d="M321.2,199c-5.4-4.3-14.5,2.3-16.7,10.4l2.9,6.4l5.6,3.8l2,0.1C320.8,216.4,326.5,203.3,321.2,199z"/>
<path class="st8" d="M281.2,192.9l-0.6-0.2c3.5,1.1,5.8,2.9,8.5,6.3c8.4-1.8,16.1-16.9,11.9-21.5C296.3,174.5,287,178.5,281.2,192.9
	z"/>
<path class="st9" d="M294.5,182c-5.1-4-11,4.3-13.1,10.5l7.1,5.6C294.6,194.9,298.3,186.1,294.5,182z"/>
<ellipse transform="matrix(2.128460e-02 -0.9998 0.9998 2.128460e-02 104.5478 514.6333)" class="st10" cx="315.1" cy="203.9" rx="5.4" ry="5.4"/>
<path class="st5" d="M259.5,274.7c4-0.5,7.7-0.5,11.3,0"/>
<ellipse transform="matrix(2.094653e-02 -0.9998 0.9998 2.094653e-02 101.4047 521.6605)" class="st8" cx="317.1" cy="209.1" rx="2.6" ry="2.6"/>
<ellipse transform="matrix(2.155310e-02 -0.9998 0.9998 2.155310e-02 96.9744 473.078)" class="st10" cx="290.2" cy="187" rx="4.8" ry="4.8"/>
<ellipse transform="matrix(2.131166e-02 -0.9998 0.9998 2.131166e-02 95.8173 479.5025)" class="st8" cx="292.8" cy="190.8" rx="2.3" ry="2.3"/>
<path class="st5" d="M386.6,183.6c0.6-5.5,5.5-9.2,9.6-8.8"/>
<path class="st5" d="M395.3,185.2c0.4-3.1,3.1-5.2,5.4-5"/>
<path class="st5" d="M393,220.1c-6.4-4.9-25.5-9.5-26.4,1.2"/>
<path class="st11" d="M332.2,193.7c2.7,1.8,3.2,5.5,1.6,8.7 M307.4,222.7c5.9-4.7,16.9-4.7,24.9,2.5 M276.6,230.9
	c-8.8,2.5-12.3-3.8-11.9-9.5 M277.2,289.8c-4.8-4.2-7.8-15.1-5.6-21.5c-4.8-4.4-7.5-12.4-1.2-20.3 M280.3,251.2
	c3.7,9.9,30,20.4,59.3-0.8 M302.5,158.8c-11.5,5.6-22.6,18.6-29.1,32.8c-16.4,12.3-17,44.8-9.7,51.4c9,9.3,30.5,14.2,55.7,1.5
	 M322.3,246.4c-2.1-0.3-3.5-2.1-3.7-4.4 M296.3,162.5c-14.4-8.5-28.6-4.3-41.2-2.6c3.3,10.3,11.2,22.6,24.2,21"/>
<path class="st12" d="M337,285.7c-0.3-3.3-3.2-5.9-8.5-7.8c-2.2,2.9-4.4,6.4-6.7,10.8c3.1-0.5,6-1.4,8.6-2.8l3.1,4
	C334.6,288.2,335.8,286.9,337,285.7z"/>
<path class="st13" d="M360.9,170.4c9.5-1.9,19.1-1.3,30.1,1.5C380.8,166,370.8,165.8,360.9,170.4z"/>
<path class="st14" d="M357.8,243.1c-7-6.3-11.2-13.7-12.8-23.8C343.5,231.4,349.7,238.7,357.8,243.1z"/>
<path class="st5" d="M358,203.3c2-0.1,3.5,1.5,3.5,2.8"/>
<path class="st5" d="M353,207.4c1.7-0.4,4,0.8,4.8,3"/>
<path class="st5" d="M352.8,265.9c-9.5-0.4-19.1,0.5-31,22.8c3.1-0.5,6-1.4,8.6-2.8l3.1,4c10.1-15.3,24.4-7.3,36.6-11 M364.9,265.7
	c-2.1,0.4-4.1,0.5-6.1,0.5"/>
<path class="st11" d="M385.2,268.1c2.8-6,3.3-13.9,1.1-19 M368,250.3c-1.1,7.9-7.2,16.3-12.9,17.4c-6-5-12.1-18.4-11.4-35.8
	 M328,179.3c0,7.6,10.4,15.7,21.9,13.3 M370,144.1c-1.1-21.9-28.4-24.5-36.2-14.3c-5.4-6-18-3.6-19.1,5.3
	c-16.6-7.4-29.5,20.4-6.6,25.8c-1.4,8.5,5.7,18.2,19.9,18.5 M383.7,164.7c3.4-10.1-5.1-22.1-18.1-20.7 M386.1,266
	c7,5.6,7.4,13.9,4.7,23.7"/>
<path class="st5" d="M328.5,277.9c6.2,2.9,10.3,6.2,7.5,8.8"/>
<path class="st12" d="M255.6,282.3l-5.5-2.6l-6.4-0.1c-0.6,3.1-1,6.5-1.1,10.2c2.4-0.5,4.9-2.1,7.3-4.9l3.9,4.3
	C254.3,286.7,254.9,284.4,255.6,282.3z"/>
<path class="st5" d="M266.8,258.4c-16.3,0.1-23.3,11.8-24.1,31.4c2.4-0.5,4.9-2.1,7.3-4.9l3.9,4.3c1.5-8.5,5-15.6,11.6-20.6"/>
<path class="st5" d="M244,278.8c6.4,0.4,10.2,1.6,11.5,3.8"/>
<path class="st5" d="M393,220.1c-2.4-24.1-40-33.4-49.7-5.7c-5.8,17.6,8.1,32.6,24.8,35.9c31.1,5.2,50.6-27.1,44.3-53.9
	c-5.4-28.1-39.2-41.6-59.3-24.7c-8.6,9.3-5.3,27.9,9,26.1"/>
<path class="st11" d="M327,271.3c-2.7,3.7-7.3,1.8-7.4-0.9 M314.5,281.6c-2.3,3-6.1,1.4-6.1-0.9 M299.1,281.7
	c-3.9,2.4-7.4-1.1-6.5-3.7 M293.6,268.8c-2.2,1.5-4.4-0.3-3.9-1.9 M365,263.9c-0.8,5.2,1.2,13.4,7.3,16.5 M329.2,171.4
	c-1.4,3.4-5.7,1.4-5.6-1.3 M342,162.8c-2.1,4-6.9,3-7.4,0.2 M309.6,149.8c-1.9,1.5-3.6-1-2.8-2.5 M322.5,157.9
	c-3.6,3.6-8.4,0.6-7.7-3.1 M298,171.4c2.5-1.9,7.1-0.6,9.1,2 M273.3,191.5c5.8-0.2,11.5,2,15.8,7.4c8.4-1.8,16.1-16.9,11.9-21.5
	c-4.8-3-14.1,1-19.9,15.4 M320.2,219.6c9.1-8,11.4-19.7,8.9-23.6c-5.1-6.2-20.9,1.7-24.5,12.7c-0.9,2.6,3,9.4,9.3,11.1 M267.8,229.8
	c-3.3,3.5-5.1,12.1-2.3,14.9"/>
<path class="st15" d="M313.9,138.4c-5.3-0.5-10.4,2-13.4,6C301.2,138.2,308.5,135.8,313.9,138.4z M353.8,128.9
	c-6.3-2.1-13.2-0.5-17.9,3.5C338.3,125.1,347.9,124.2,353.8,128.9z"/>
</svg>
