<?xml version="1.0" encoding="utf-8"?>
<!-- Generator: Adobe Illustrator 21.1.0, SVG Export Plug-In . SVG Version: 6.00 Build 0)  -->
<svg version="1.1" id="Layer_1" xmlns="http://www.w3.org/2000/svg" xmlns:xlink="http://www.w3.org/1999/xlink" x="0px" y="0px"
	 viewBox="0 0 519 407" style="enable-background:new 0 0 519 407;" xml:space="preserve">
<style type="text/css">
	.st0{fill-rule:evenodd;clip-rule:evenodd;fill:#9D60A3;}
	.st1{fill-rule:evenodd;clip-rule:evenodd;fill:#BB8EC0;}
	.st2{fill-rule:evenodd;clip-rule:evenodd;fill:#E2D2E8;}
	.st3{fill-rule:evenodd;clip-rule:evenodd;fill:#D0B2D5;}
	.st4{fill-rule:evenodd;clip-rule:evenodd;fill:#FFFFFF;}
	.st5{fill-rule:evenodd;clip-rule:evenodd;fill:#CAD44E;}
	.st6{fill-rule:evenodd;clip-rule:evenodd;fill:#1A1A18;}
	.st7{fill:none;stroke:#6E6E6E;stroke-width:1.7015;stroke-linecap:round;stroke-linejoin:round;stroke-miterlimit:22.9256;}
	.st8{fill:none;stroke:#575656;stroke-width:1.7015;stroke-linecap:round;stroke-linejoin:round;stroke-miterlimit:22.9256;}
	.st9{fill-rule:evenodd;clip-rule:evenodd;fill:#F5B0B4;}
	.st10{fill-rule:evenodd;clip-rule:evenodd;fill:#E78E92;}
	.st11{fill:none;stroke:#6C3579;stroke-width:1.7015;stroke-linecap:round;stroke-linejoin:round;stroke-miterlimit:22.9256;}
</style>
<path class="st0" d="M193.8,273.8l-10.1-20.5l3.9-7.8l-7.1-3.1l-14.6-24.6l-0.2-3.6c10.6,3.8,29.9,16.9,34.1,25
	C203.9,247.6,196.1,261.5,193.8,273.8z"/>
<path class="st1" d="M252.3,398.2l-11.7-1.2c-9.4,0.5-24.8,2.3-38.2,1.7l-15.5-13.9l13.6-71.3c19.3-3.7,16.1,34.2,2,65.2
	c31.9-5.3,50.2-1.4,49.4,17.6L252.3,398.2z"/>
<path class="st0" d="M240.8,396.6l-5.9,1.1c-12.7,1.2-23.8,1.7-37.2,1l-16.9-15.6l12.5-75.6c21.1,12.2,16.9,42,0.2,77.9
	c29.1-2.4,29.1,4.9,37,7.6L240.8,396.6z"/>
<path class="st2" d="M146.5,176.3c-17.4,3.7-28.5,9-39.1,8.6c-3.2,11-1.6,30,4,55.5c20.4,28,64,11,69.3,33.9l-1.6-1.1
	c-17.5,2.2-38.8,1.2-62.7-2c3,14.4,5.9,26.4,9.6,36.3c19.9-1.6,16,30.7-1.7,74.1c10.3,16.7,39.9-0.8,62.4,3.1
	c11.4-19.9,23.4-67.8,9-76.8c1.8-16.4,1.6-37.9-15.5-58.5c1.1-6.9-4.9-24.4-14.5-31.6C165.9,207,159.8,189.4,146.5,176.3z"/>
<path class="st3" d="M146.5,176.3c-17.4,3.7-32.9,8.8-43.5,8.4c-3.2,11,2.9,30.2,8.5,55.7l5.1,30.8c3,14.4,8.6,25.8,12.3,35.7
	c18-0.2,16.1,31.5-3.7,72.8c13.5,13.6,35,0.2,57.5,4.1c12.6-16.1,22-62.6,7.9-76.9c5.6-19-5.8-46.2-17.4-57.3
	c4.7-5-2.3-25.9-12.6-32.2C164.4,214.3,155.2,186.7,146.5,176.3z"/>
<path class="st3" d="M89.4,247l2.8-10.5l-0.8-7.6c-2.5,2.7-9.9,7.7-9.4,10.6C82.5,242.2,86.4,245.1,89.4,247z M93.5,327.9l1.8-18.7
	C79.5,316.1,81.8,317.8,93.5,327.9z M83.1,357.8l7.7-16.5c-3.5,0-12,2.4-12.5,5C77.9,348.8,81.1,355.3,83.1,357.8z M63.5,378.1
	l7.3-5.8l6-6.1c-2.9-1.4-11.1-1.6-12.6,0.4C62.8,368.5,62.8,375.2,63.5,378.1z M39.1,388l7.9-1.8l8.1-3.2c-2.6-2.4-7.6-4.9-10-4.1
	C42.9,379.8,40.2,385.2,39.1,388z M15,383.3l9.1,4.1c-0.4-2.7-0.8-7.4-2.3-7.8C20.3,379.2,16.7,381.8,15,383.3z M89.5,213.6
	l-2.9-14.9c-2.3,2.5-6.8,6.6-6.4,9.2C80.6,210.4,85.7,212.5,89.5,213.6z"/>
<path class="st1" d="M128.8,306.9c10.2-3.1,22.9,18.5-3.8,73.2c17.7,12.5,41.5-0.3,61.8,4.6c13.1,2.7,16.9,10.2,15.7,21.1l-1.9-0.9
	l-11.4-0.6c-27.7,0.7-49.5,5.7-85.9-3.1c-28.6-4.9-101.9,11.9-97.6-29c12.3,26.7,54.7,15.4,71.1-6c18.8-19.5,18.7-51.4,18.9-80
	l-8.3-12.9l4.9-37.5l-2.8-20.7l-5.3-24.5l20.3,0.7c11.9,16.5,7.7,39,12.3,55.8l0.7,16.8l3,16.5c3.9,4.4,4.9,8.9,3.1,13.6
	L128.8,306.9z"/>
<path class="st0" d="M118.9,296.2l-15.4,9.1c6.9-3.9,17.7-3.1,20.6-11.7l4.6,13.3l-10.1,4.6l-7.8,7.6c14.5,0.7,9.2,35-0.6,62.2
	c-6.9,14.1,28.6,21.7,71.8,18.2l5.4,4.6c-27.6-1.7-33.2,6.7-84.1-3c-30.1-5.2-69,13.2-93.6-12.7c13.4,5.7,48.2,18.5,69.4-14.8
	c16.6-24.5,16.4-59.1,16.6-87.7c-9.8-4.8-14.2-10.2-11.3-18.8l8.3-32.1l-3.3-19.9l-5.3-24.5l15.8,1.2c3.7,11.5,6.9,29.1,4,38.7
	c-8.9,30.4-16.3,40-9.5,44.4C102.6,282.1,117.6,285.9,118.9,296.2z"/>
<path class="st1" d="M181.4,146.3c14.2-4.6,34.6-7.3,41.8-4.2c13.5,4.7,20.2,11.2,32.1-10.5c6.2-3.1,28.2-15.4,13.6-24.7l-6.1-4.9
	c-5.5-8.5-12.7-12.7-20.4-2.4c-21.7,4.9-53.3-2.4-94.6,7.4c-18.7-39.7-34.9-44.6-43.5-26c-12.8-12.6-37.3-3-38.9,49
	c-26.4,19.1-15.3,44.8,0.4,53.2l82.7-12.7l35.7-2c23.1,1.7,37.7,1.1,38.3-13.9c-2.6,7-11.9,9-25.6,7.7c-3.9,2.5-7.5,2.5-10.9,0.2
	c-23.1-1.3-49.2,4.2-69.3-3.8L181.4,146.3z"/>
<path class="st0" d="M73.3,126.1l-8,3.8c1.5-50.2,23.6-61.5,38.9-49C82.9,68.5,70.3,101.7,73.3,126.1z M205.1,141
	c12.2-2.6,15.3,1.3,24.3,2.7c13.5,4.7,16.4,1.7,25.9-12.1c3.2-8-10.7,18.2-27.8,3.7c-32.9-6.2-72,18-113.6,19.7
	c-11.1,0.1-30.6-2.8-42.9-9.4c-12.1,3.8-18.9,22.4-3.4,38.5c42.3,26.4,75.5-21.1,127.5-15.5c-44.3-7.8-82.5,9.3-123.6-18.8l5.4-1
	l15.2,6.1l12.2,2.8l12.4,1.1C145.9,158.8,175.6,147,205.1,141z"/>
<path class="st4" d="M84.2,124c11.7-1,21.8-1.4,31.1-6.6c-6.2-22.3-14.4-32.8-22.4-31.7C85,89.1,81.8,111.2,84.2,124z"/>
<path class="st4" d="M132.4,80.9l6.9,10.2l8.4,15.8l-19.5,6.2C119.1,82.5,120,71.4,132.4,80.9z"/>
<path class="st5" d="M131.4,111.9l16.3-5c-4.7-12.5-12.3-21.4-18-19.9C124.6,88.6,127.3,100,131.4,111.9z"/>
<path class="st5" d="M90.5,123.4l16.3-2.2l8.5-3.8c-4.9-17.7-9.7-25.6-17.1-24C90.5,96.3,86.2,110.8,90.5,123.4z"/>
<ellipse transform="matrix(0.9533 -0.3021 0.3021 0.9533 -29.3315 37.6799)" class="st6" cx="107.1" cy="113.6" rx="7.3" ry="7.3"/>
<ellipse transform="matrix(0.9534 -0.3016 0.3016 0.9534 -29.1428 35.7669)" class="st4" cx="101.3" cy="112.3" rx="3.3" ry="3.3"/>
<ellipse transform="matrix(0.9534 -0.3019 0.3019 0.9534 -25.6253 33.0892)" class="st4" cx="94.2" cy="99.5" rx="4.1" ry="4.1"/>
<ellipse transform="matrix(0.9533 -0.3019 0.3019 0.9533 -24.632 46.9497)" class="st6" cx="139.6" cy="103.2" rx="6.2" ry="6.2"/>
<ellipse transform="matrix(0.9531 -0.3027 0.3027 0.9531 -24.4733 45.1869)" class="st4" cx="133.5" cy="101.5" rx="2.8" ry="2.8"/>
<path class="st4" d="M250.3,138.8c-3.8,5.7-6.9,7.7-9.7,7.2c2.6,2.2,6.4,6.9,8.8,5.9C251.1,150.8,251.4,146.4,250.3,138.8z"/>
<path class="st7" d="M240.6,146.1c2.6,2.2,6.4,6.9,8.8,5.9c1.7-1.2,2-5.5,0.9-13.2"/>
<path class="st4" d="M104.1,157.7l-16.7-4.3c0.7,9.5,2,16.5,4.5,17.9C94.2,171.9,98.5,166.8,104.1,157.7z"/>
<path class="st8" d="M87.4,153.4c0.7,9.5,2,16.5,4.5,17.9c2.4,0.7,6.6-4.5,12.3-13.6"/>
<path class="st4" d="M269.5,122.5l-6.6,5c1.7,1.8,5.7,5.8,6.6,5.6C270.6,131.6,270.8,128.3,269.5,122.5z"/>
<path class="st7" d="M262.9,127.6c1.7,1.8,5.7,5.8,6.6,5.6c1.2-1.5,1.4-4.8,0.1-10.6"/>
<path class="st9" d="M116.5,158.8c26.4,0.1,44.3-8.3,66.5-12.5l21.4,1.2c-0.4,3.3,7.6,3.9,8.7,0.9c15.1,2.4,11.8,15.9-16.3,14
	c-1.4,2.3-9,2.2-10.9,0.2C162.9,161.3,135.8,166.3,116.5,158.8z"/>
<path class="st10" d="M116.5,158.8c26.4,0.1,44.3-8.3,66.5-12.5l21.4,1.2c-0.4,3.3,7.6,3.9,8.7,0.9c15.1,2.4,11.8,15.9-16.3,14
	c-1.4,2.3-9,2.2-10.9,0.2C162.9,161.3,135.8,166.3,116.5,158.8z"/>
<path class="st4" d="M186,162.5c4.2,2.1,7.8,2.1,10.9-0.2c-1.5-4.9-3-8.4-4.7-8.7C190,153.5,187.7,157.1,186,162.5z"/>
<path class="st8" d="M196.9,162.4c-1.5-4.9-3-8.4-4.7-8.7c-2.2-0.2-4.5,3.4-6.2,8.8"/>
<path class="st2" d="M175.7,246.4c-8.3-2.7-31.2,0.4-35.7,9.2c6.9-3.8,23-8.2,33.2-5.9L175.7,246.4z M192.5,303.3
	c-9-4.6-37.8-0.2-40.1,7.1c16.7-4,31.7-5.7,43.5-2.6L192.5,303.3z M154.1,359.8c14.1-5.1,28.9-4.3,37-2.7
	C193.1,347.9,154.8,352.3,154.1,359.8z M162.3,214.1c-10.9-2.1-28.2,2.7-33.1,10.7c12.2-6.4,22.1-8.9,36.1-6.6L162.3,214.1z"/>
<path class="st11" d="M189.9,242.7c-2.8,2.7-5.3,6.4-6.3,10.7 M103.5,305.3l-3.4,4.9c-1.8-3.4-0.9-9.9,4-20.7 M100,226.4
	c-10.5,3.8-10.4,27.1-15.6,40.7c-7.2,19.2,30.8,23.6,34.5,29.1 M110.1,241.8c-0.6,8.9-4,18.3-11.4,28.4 M124.2,293.7
	c1.4,4.4,2.9,8.8,4.6,13.3 M104.5,191.4c13.4,21.7,6.4,37.5,12.3,55.8c-0.4,10.9,1,22,3.7,33.3 M65.3,130
	c1.8-52.2,26.4-61.5,38.9-49c11.7-21.2,26.6-9.1,43.5,26 M203.2,147.3c-6.5-0.8-13.7-1.1-21.8-1 M213.2,148.3
	c15.1,2.4,11.8,15.9-16.3,14c-1.4,2.3-9,2.2-10.9,0.2c-23.1-1.3-50.2,3.7-69.3-3.8 M180.4,242.4l7.1,3.1 M187.5,404.2
	c-2.1-3.2-6.2-5.6-12.1-7.2 M194.5,404.5c2.2,0.8,6.1,1.3,8.1,1.4c1.7-12.8-7.5-25.4-37-21.7c-12.8,0.4-27.6,6.5-42.9-5.6
	 M119.8,310.4c21.9-13.9,32,14.3,5,69.6 M101.3,266.4c20.9,13.2,25.4,19.3,22.4,27.7c-3.5,8.2-13.4,7.5-20.1,11.2
	c2.7-4.3,5.5-8.6,8.2-13 M77.9,143c0.2,4-2.8,7.6-6.6,6.8 M55.1,383c-2.6-2.4-7.6-4.9-10-4.1c-2.2,0.8-4.9,6.3-6,9.1 M76.8,366.3
	c-2.9-1.4-11.1-1.6-12.6,0.4c-1.4,1.9-1.3,8.6-0.7,11.5 M90.8,341.2c-3.5,0-12,2.4-12.5,5c-0.4,2.5,2.8,9,4.8,11.5 M95.3,309.1
	c-3.5,1.2-11.9,5.4-11.5,8.3c0.4,2.7,6.7,8.6,9.7,10.5 M91.4,228.8c-2.5,2.7-9.9,7.7-9.4,10.6c0.4,2.7,4.3,5.7,7.3,7.5 M86,199.3
	c-2.3,2.5-6.3,6-5.9,8.6c0.4,2.5,5.2,4.5,9,5.6 M24.1,387.4c-0.4-2.7-0.8-7.4-2.3-7.8c-1.5-0.4-5.1,2.2-6.8,3.7 M238.8,384.3
	c8.4,4,12,8.8,13.5,13.9c-11.5-3.5-32.1,1.8-50,0.5"/>
<path class="st3" d="M61,134.5c-6.4,8.8-9.1,18.8-9.3,31.1C47.8,153.3,50.7,142.2,61,134.5z M79.4,90.2c6.6-7.6,14.5-13.2,25.9-5.4
	C94.2,72.6,84.7,79,79.4,90.2z M108.8,81.7c2.4-6.5,8.8-11.1,19-5.1C117.8,68.4,109.5,71.8,108.8,81.7z M241.3,99.7
	c-28.4,4.4-67.3-3.8-112.9,13.4c17.8-4.2,31-6.4,37.3-5.8l-2.2,3.9c6-4.7,9.4-6.4,30.9-7.1l-3.3,4.5c5-5,21.8-3.3,41-2.9
	c-3.9,4.1-21.8,8.1-9.5,22.3c-5.4-14.4,5-11.9,14.3-17.5c6.4-3.7,8.8-17.3,20.8-14.1C251.9,90.9,247.5,94.4,241.3,99.7z
	 M174.4,385.7c8.3-0.3,16.1,3.2,23.9,8.2C192.2,386.3,183.9,384.2,174.4,385.7z M137.5,332.4c1.3-15.1-5-22.5-11.1-22.6
	C134.4,305.6,141.1,314.1,137.5,332.4z"/>
<path class="st4" d="M161.8,151.6l-14.4,3.6c2.8,3.5,8.1,10.6,10.5,9.9C160.5,164.4,161.3,155.6,161.8,151.6z"/>
<path class="st4" d="M204.5,147.5c-0.3,2.2,7.2,3.4,8.7,0.9c-1.2-3.4-2.2-5.7-3.5-5.9C208.4,142.3,206.6,144.2,204.5,147.5z"/>
<path class="st8" d="M204.5,147.5c-0.3,2.2,7.2,3.4,8.7,0.9c-1.2-3.4-2.2-5.7-3.5-5.9C208.4,142.3,206.6,144.2,204.5,147.5z"/>
<path class="st8" d="M147.4,155.2c2.8,3.5,8.1,10.6,10.5,9.9c2.6-0.8,3.4-9.5,3.9-13.5"/>
<ellipse transform="matrix(0.9533 -0.3021 0.3021 0.9533 -21.4796 43.0174)" class="st4" cx="128.3" cy="91" rx="3.8" ry="3.8"/>
<path class="st11" d="M191.2,357.2c-10.1-1.9-20.2-2.4-30.3,0.3 M195.8,307.9c-10.6-2.6-25.9-2.1-39.3,1.5 M165.8,217.8
	c-11.2-1.2-22-0.1-32.2,5 M173.2,249.7c-12.2-0.6-22.4,0.6-29.4,4.6 M165.6,214.3c10.6,3.8,29.9,16.9,34.1,25
	c4.2,8.3-3.6,22.2-5.9,34.5 M146.5,176.3c13.4,13.8,19,27.7,19.3,41.5c9.2,7.9,13.6,18.7,14.5,31.6c15.1,17.5,18.8,40.5,15.5,58.5
	c11.9,6.1,7.7,45.3-9,76.8 M95.7,286.2c0.6,25.4-2.3,46.3-4.9,54.9c-14.1,44.8-69.3,63.2-85.1,31c-3.8,19.5,19.2,34.5,65.3,29.5
	c33.1-4,42.9,2.7,64.4,4c20.1,1.2,38.5-2.7,59-1.3c-0.5-6.1-3-10.6-8.4-12.9 M84.1,190.6c3.4,11.2,6.1,27.4,8.1,45.1 M118.2,115
	c-13.1,12.8-37.2,4.1-52.9,14.9c-24.9,16.4-20.9,51.7,18.8,60.7c40.7,8.3,57.3-26.5,112.3-21.7c19.9,2,26.8-6.6,25.6-14.2 M84.2,124
	c-2.3-20.4,2.9-37,8.7-38.3c7.5-1.6,18,13,22.4,31.7 M128.3,113.1c-7.4-19-6.9-32.9-4.2-35.2c2.4-2,8.4,2.8,10.3,5.6 M128.3,113.1
	c47.7-17.5,76-9,114-13.5 M171.6,102.7c-3.6,1.5-6.9,4.8-8.2,8.5 M199,101.2c-2.5,0-6.3,4-8,7.4 M224.1,131.3
	c-9.3-17.1,4-16.9,9.7-22.1c8.7-7.1,10.2-16.7,19.4-15.1c6.9,1.1,8.7,9.7,15.6,12.8c11,7.9,1.9,17.6-13.6,24.7 M263.4,123.5
	c-10.9,5.8-13.4,25-26,22.4c-10.3-1.9-20-8.4-41.9-2.9c-38.6,7.8-75,27.9-118.8,5.8 M200.4,313.4c15.5-4.8,19.7,26.3,2,65.2
	c29.1-4.7,50.4-2.1,48.9,16.8"/>
<path class="st0" d="M233.7,115.9c9.7,2.9,12.9,7.1,9.1,11.2C239.1,130.2,234.7,123.5,233.7,115.9z M252.3,102.1
	c9.5,3.5,10.6,6.8,6.9,9.7C256.1,114,252.9,109.8,252.3,102.1z"/>
<path class="st11" d="M233.7,115.9c9.7,2.9,12.9,7.1,9.1,11.2C239.1,130.2,234.7,123.5,233.7,115.9z M252.3,102.1
	c9.5,3.5,10.6,6.8,6.9,9.7C256.1,114,252.9,109.8,252.3,102.1z"/>
</svg>
