<?xml version="1.0" encoding="utf-8"?>
<!-- Generator: Adobe Illustrator 21.1.0, SVG Export Plug-In . SVG Version: 6.00 Build 0)  -->
<svg version="1.1" id="Layer_1" xmlns="http://www.w3.org/2000/svg" xmlns:xlink="http://www.w3.org/1999/xlink" x="0px" y="0px"
	 viewBox="0 0 519 407" style="enable-background:new 0 0 519 407;" xml:space="preserve">
<style type="text/css">
	.st0{fill-rule:evenodd;clip-rule:evenodd;fill:#F1F0EB;}
	.st1{fill-rule:evenodd;clip-rule:evenodd;fill:#FFFFFF;}
	.st2{fill-rule:evenodd;clip-rule:evenodd;fill:#D3ECFB;}
	.st3{fill-rule:evenodd;clip-rule:evenodd;fill:#FBD8C9;}
	.st4{fill-rule:evenodd;clip-rule:evenodd;fill:#F3E1CE;}
	.st5{fill-rule:evenodd;clip-rule:evenodd;fill:#F2CBB9;}
</style>
<path class="st0" d="M194.2,384.8c0,5.3-109.7-24.5-164.5-117.4C-53,126.8,48-12.1,198.8,3.9C288.9,16.8,381,3.6,402.6,93.8
	c10.1,42.5-0.6,58.4,23.1,82.1c37.6,37.6,96.9,111.1,48.5,175.3C418.6,425,262.9,406.4,194.2,384.8z"/>
<path class="st1" d="M441.3,299.7H214.9c0-96.3,5.2-198.8,0-288.9l224-3.2C435.8,147,443.7,202.4,441.3,299.7z"/>
<path class="st2" d="M425.1,289.8H228.5c0-88.4,5.2-174,0-265.3h199.1C423.6,105.6,426,201.4,425.1,289.8z"/>
<path class="st3" d="M184.7,101.6l56.2-1.9l8.3-5.5c20.6-20.8,31.8-48.4,33.5-82.9l-75.5,0.4C212,58.3,192.2,71.6,184.7,101.6z"/>
<path class="st3" d="M445.7,27.7c-7.1-1.3-13.5-3.9-14.5-16.5l-52.9-0.5c2.4,25.5,22,40.9,48.2,40.8c18.8,0.4,35.6-21.1,54.3-14.2
	c21.7,6.6,21.4,35.6,1.3,57.4c-16.2,15.8-39,41.4-32.9,72.3c30.8-12.9,31.8,18.7,61.3-9.7c-12.4-11.7-18.8-24.4-4.5-47.7
	c20.2-39.4,14.2-65.5,0-76.1C486,17.7,458.9,25.3,445.7,27.7z"/>
<rect x="244.8" y="105.6" class="st1" width="187.7" height="10.6"/>
<rect x="204.9" y="289.8" class="st4" width="246.2" height="20"/>
<rect x="322.7" y="17" class="st1" width="10.6" height="92.7"/>
<path class="st5" d="M399.6,20c14.3,12.2,30.1,10.6,46.5,7.7c-8.3-1.3-13.7-6.2-14.8-16.4l-37.5-0.4C394.6,14.4,396.8,17.4,399.6,20
	z"/>
<path class="st4" d="M200.8,1.9C283.1,1.6,377.6-1.3,447.9,1c1.1,0,1.8,0.9,1.9,1.9l0.7,6.8c0.1,1.1-0.9,2-1.9,1.9
	c-80.3-2-165.3,0-247.8,0c-1.1,0-1.9-0.9-1.9-1.9V3.9C198.8,2.8,199.7,1.9,200.8,1.9z"/>
</svg>
