<?xml version="1.0" encoding="utf-8"?>
<!-- Generator: Adobe Illustrator 21.1.0, SVG Export Plug-In . SVG Version: 6.00 Build 0)  -->
<svg version="1.1" id="Layer_1" xmlns="http://www.w3.org/2000/svg" xmlns:xlink="http://www.w3.org/1999/xlink" x="0px" y="0px"
	 viewBox="0 0 519 407" style="enable-background:new 0 0 519 407;" xml:space="preserve">
<style type="text/css">
	.st0{fill-rule:evenodd;clip-rule:evenodd;fill:#F1F0EB;}
	.st1{fill-rule:evenodd;clip-rule:evenodd;fill:#A35939;}
	.st2{fill-rule:evenodd;clip-rule:evenodd;fill:#BD6E39;}
	.st3{fill-rule:evenodd;clip-rule:evenodd;fill:#EDB581;}
	.st4{fill-rule:evenodd;clip-rule:evenodd;fill:#D88F55;}
	.st5{fill-rule:evenodd;clip-rule:evenodd;fill:#FFFFFF;}
	.st6{fill-rule:evenodd;clip-rule:evenodd;fill:#D3ECFB;}
	.st7{fill-rule:evenodd;clip-rule:evenodd;fill:#FBD8C9;}
	.st8{fill-rule:evenodd;clip-rule:evenodd;fill:#CAD44E;}
	.st9{fill-rule:evenodd;clip-rule:evenodd;fill:#1A1A18;}
	.st10{fill:none;stroke:#822E2D;stroke-width:1.7015;stroke-linecap:round;stroke-linejoin:round;stroke-miterlimit:22.9256;}
	.st11{fill:none;stroke:#6E6E6E;stroke-width:1.7015;stroke-linecap:round;stroke-linejoin:round;stroke-miterlimit:22.9256;}
	.st12{fill:none;stroke:#575656;stroke-width:1.7015;stroke-linecap:round;stroke-linejoin:round;stroke-miterlimit:22.9256;}
	.st13{fill-rule:evenodd;clip-rule:evenodd;fill:#FBD2B6;}
	.st14{fill-rule:evenodd;clip-rule:evenodd;fill:#E5A46B;}
	.st15{fill-rule:evenodd;clip-rule:evenodd;fill:#F5B0B4;}
	.st16{fill-rule:evenodd;clip-rule:evenodd;fill:#FDEBDB;}
	.st17{fill-rule:evenodd;clip-rule:evenodd;fill:#FDF1E7;}
	.st18{fill-rule:evenodd;clip-rule:evenodd;fill:#F4C69E;}
	.st19{fill-rule:evenodd;clip-rule:evenodd;fill:#F3E1CE;}
	.st20{fill-rule:evenodd;clip-rule:evenodd;fill:#F2CBB9;}
	.st21{fill:none;stroke:#E30045;stroke-width:8.5072;stroke-linecap:round;stroke-linejoin:round;stroke-miterlimit:22.9256;}
	.st22{fill-rule:evenodd;clip-rule:evenodd;fill:#E78E92;}
</style>
<path class="st0" d="M194.2,384.8c0,5.3-109.7-24.5-164.5-117.4C-53,126.8,48-12.1,198.8,3.9C288.9,16.8,381,3.6,402.6,93.8
	c10.1,42.5-0.6,58.4,23.1,82.1c37.6,37.6,96.9,111.1,48.5,175.3C418.6,425,262.9,406.4,194.2,384.8z"/>
<path class="st1" d="M193.8,273.8l-10.1-20.5l3.9-7.8l-7.1-3.1l-14.6-24.6l-0.2-3.6c10.6,3.8,29.9,16.9,34.1,25
	C203.9,247.6,196.1,261.5,193.8,273.8z"/>
<path class="st2" d="M252.3,398.2l-11.7-1.2c-9.4,0.5-24.8,2.3-38.2,1.7l-15.5-13.9l13.6-71.3c19.3-3.7,16.1,34.2,2,65.2
	c31.9-5.3,50.2-1.4,49.4,17.6L252.3,398.2z"/>
<path class="st1" d="M240.5,396.3l-5.9,1.1c-12.7,1.2-18.9,1.9-32.4,1.3l-21.5-15.6l12.5-75.6c21.1,12.2,16.9,42,0.2,77.9
	c29.1-2.4,28.9,4.7,36.7,7.3L240.5,396.3z"/>
<path class="st3" d="M146.5,176.3c-17.4,3.7-28.5,9-39.1,8.6c-3.2,11-1.6,30,4,55.5c20.4,28,64,11,69.3,33.9l-1.6-1.1
	c-17.5,2.2-38.8,1.2-62.7-2c3,14.4,5.9,26.4,9.6,36.3c19.9-1.6,16,30.7-1.7,74.1c10.3,16.7,39.9-0.8,62.4,3.1
	c11.4-19.9,23.4-67.8,9-76.8c1.8-16.4,1.6-37.9-15.5-58.5c1.1-6.9-4.9-24.4-14.5-31.6C165.9,207,159.8,189.4,146.5,176.3z"/>
<path class="st4" d="M146.5,176.3c-17.4,3.7-32.9,8.8-43.5,8.4c-3.2,11,2.9,30.2,8.5,55.7l5.1,30.8c3,14.4,8.6,25.8,12.3,35.7
	c18-0.2,16.1,31.5-3.7,72.8c13.5,13.6,35,0.2,57.5,4.1c12.6-16.1,22-62.6,7.9-76.9c5.6-19-5.8-46.2-17.4-57.3
	c4.7-5-2.3-25.9-12.6-32.2C164.4,214.3,155.2,186.7,146.5,176.3z"/>
<path class="st4" d="M89.4,247l2.8-10.5l-0.8-7.6c-2.5,2.7-9.9,7.7-9.4,10.6C82.5,242.2,86.4,245.1,89.4,247z"/>
<path class="st4" d="M89.5,213.6l-2.9-14.9c-2.3,2.5-6.8,6.6-6.4,9.2C80.6,210.4,85.7,212.5,89.5,213.6z"/>
<path class="st4" d="M15,383.3l9.1,4.1c-0.4-2.7-0.8-7.4-2.3-7.8C20.3,379.2,16.7,381.8,15,383.3z"/>
<path class="st4" d="M39.1,388l7.9-1.8l8.1-3.2c-2.6-2.4-7.6-4.9-10-4.1C42.9,379.8,40.2,385.2,39.1,388z"/>
<path class="st4" d="M63.5,378.1l7.3-5.8l6-6.1c-2.9-1.4-11.1-1.6-12.6,0.4C62.8,368.5,62.8,375.2,63.5,378.1z"/>
<path class="st4" d="M83.1,357.8l7.7-16.5c-3.5,0-12,2.4-12.5,5C77.9,348.8,81.1,355.3,83.1,357.8z"/>
<path class="st4" d="M93.5,327.9l1.8-18.7C79.5,316.1,81.8,317.8,93.5,327.9z"/>
<path class="st2" d="M128.8,306.9c10.2-3.1,22.9,18.5-3.8,73.2c17.7,12.5,41.5-0.3,61.8,4.6c13.1,2.7,16.9,10.2,15.7,21.1l-1.9-0.9
	l-11.4-0.6c-27.7,0.7-49.5,5.7-85.9-3.1c-28.6-4.9-101.9,11.9-97.6-29c12.3,26.7,54.7,15.4,71.1-6c18.8-19.5,18.7-51.4,18.9-80
	l-8.3-12.9l4.9-37.5l-2.8-20.7l-5.3-24.5l20.3,0.7c11.9,16.5,7.7,39,12.3,55.8l0.7,16.8l3,16.5c3.9,4.4,4.9,8.9,3.1,13.6
	L128.8,306.9z"/>
<path class="st1" d="M118.9,296.2l-15.4,9.1c6.9-3.9,17.7-3.1,20.6-11.7l4.6,13.3l-10.1,4.6l-7.8,7.6c14.5,0.7,9.2,35-0.6,62.2
	c-6.9,14.1,28.6,21.7,71.8,18.2l5.4,4.6c-27.6-1.7-33.2,6.7-84.1-3c-30.1-5.2-69,13.2-93.6-12.7c13.4,5.7,48.2,18.5,69.4-14.8
	c16.6-24.5,16.4-59.1,16.6-87.7c-9.8-4.8-14.2-10.2-11.3-18.8l8.3-32.1l-3.3-19.9l-5.3-24.5l15.8,1.2c3.7,11.4,6.9,29.1,4,38.7
	c-8.9,30.4-16.3,40-9.5,44.4C102.6,282.1,117.6,285.9,118.9,296.2z"/>
<path class="st5" d="M441.3,299.7H214.9c0-96.3,5.2-198.8,0-288.9l224-3.2C435.8,147,443.7,202.4,441.3,299.7z"/>
<path class="st6" d="M425.1,289.8H228.5c0-88.4,5.2-174,0-265.3h199.1C423.6,105.6,426,201.4,425.1,289.8z"/>
<path class="st7" d="M210.7,168.2c7.4-11,13.4-21.4,10.4-26.5l-26.4-9l-48.2,43.6c8.2,7.2,16.5,19.7,19.1,38l11.9,5.9l10.8,7.4
	C187.7,203.3,194.1,183.9,210.7,168.2z"/>
<path class="st7" d="M184.7,101.6l56.2-1.9l8.3-5.5c20.6-20.8,31.8-48.4,33.5-82.9l-75.5,0.4C212,58.3,192.2,71.6,184.7,101.6z"/>
<path class="st7" d="M445.7,27.7c-7.1-1.3-13.5-3.9-14.5-16.5l-52.9-0.5c2.4,25.5,22,40.9,48.2,40.8c18.8,0.4,35.6-21.1,54.3-14.2
	c21.7,6.6,21.4,35.6,1.3,57.4c-16.2,15.8-39,41.4-32.9,72.3c30.8-12.9,31.8,18.7,61.3-9.7c-12.4-11.7-18.8-24.4-4.5-47.7
	c20.2-39.4,14.2-65.5,0-76.1C486,17.7,458.9,25.3,445.7,27.7z"/>
<rect x="244.8" y="105.6" class="st5" width="187.7" height="10.6"/>
<path class="st3" d="M266.8,258.4c-13,0.1-20.1,7.5-22.8,20.5l9,1.8l2.5,2.1l4-7.9h11.3l1.3-5.9L266.8,258.4z"/>
<path class="st2" d="M181.4,146.3c14.2-4.6,34.6-7.3,41.8-4.2c13.5,4.7,20.2,11.2,32.1-10.5c6.2-3.1,28.2-15.4,13.6-24.7l-6.1-4.9
	c-5.5-8.5-12.7-12.7-20.4-2.4c-21.7,4.9-53.3-2.4-94.6,7.4c-18.7-39.7-34.9-44.6-43.5-26c-12.8-12.6-37.3-3-38.9,49
	c-26.4,19.1-15.3,44.8,0.4,53.2l82.7-12.7l35.7-2c23.1,1.7,37.7,1.1,38.3-13.9c-2.6,7-11.9,9-25.6,7.7c-3.9,2.5-7.5,2.5-10.9,0.2
	c-23.1-1.3-49.2,4.2-69.3-3.8L181.4,146.3z"/>
<path class="st1" d="M73.3,126.1l-8,3.8c1.5-50.2,23.6-61.5,38.9-49C82.9,68.5,70.3,101.7,73.3,126.1z M205.1,141
	c12.2-2.6,15.3,1.3,24.3,2.7c13.5,4.7,16.4,1.7,25.9-12.1c3.2-8-10.7,18.2-27.8,3.7c-32.9-6.2-72,18-113.6,19.7
	c-11.1,0.1-30.6-2.8-42.9-9.4c-12.1,3.8-18.9,22.4-3.4,38.5c42.3,26.4,75.5-21.1,127.5-15.5c-44.3-7.8-82.5,9.3-123.6-18.8l5.4-1
	l15.2,6.1l12.2,2.8l12.4,1.1C145.9,158.8,175.6,147,205.1,141z"/>
<path class="st4" d="M241.3,99.7c-28.4,4.4-67.3-3.8-112.9,13.4c17.8-4.2,31-6.4,37.3-5.8l-2.2,3.9c6-4.7,9.4-6.4,30.9-7.1l-3.3,4.5
	c5-5,21.8-3.3,41-2.9c-3.9,4.1-21.8,8.1-9.5,22.3c-5.4-14.4,5-11.9,14.3-17.5c6.4-3.7,8.8-17.3,20.8-14.1
	C251.9,90.9,247.5,94.4,241.3,99.7z"/>
<path class="st4" d="M61,134.5c-6.4,8.8-9.1,18.8-9.3,31.1C47.8,153.3,50.7,142.2,61,134.5z"/>
<path class="st5" d="M84.2,124c11.7-1,21.8-1.4,31.1-6.6c-6.2-22.3-14.4-32.8-22.4-31.7C85,89.1,81.8,111.2,84.2,124z"/>
<path class="st5" d="M132.4,80.9l6.9,10.2l8.4,15.8l-19.5,6.2C119.1,82.5,120,71.4,132.4,80.9z"/>
<path class="st8" d="M131.4,111.9l16.3-5c-4.7-12.5-12.3-21.4-18-19.9C124.6,88.6,127.3,100,131.4,111.9z"/>
<path class="st8" d="M90.5,123.4l16.3-2.2l8.5-3.8c-4.9-17.7-9.7-25.6-17.1-24C90.5,96.3,86.2,110.8,90.5,123.4z"/>
<ellipse transform="matrix(0.9533 -0.3019 0.3019 0.9533 -29.3123 37.6444)" class="st9" cx="107.1" cy="113.7" rx="7.3" ry="7.3"/>
<ellipse transform="matrix(0.9534 -0.3017 0.3017 0.9534 -29.1486 35.772)" class="st5" cx="101.2" cy="112.3" rx="3.3" ry="3.3"/>
<ellipse transform="matrix(0.9534 -0.3019 0.3019 0.9534 -25.6253 33.0892)" class="st5" cx="94.2" cy="99.5" rx="4.1" ry="4.1"/>
<ellipse transform="matrix(0.9533 -0.3019 0.3019 0.9533 -24.632 46.9497)" class="st9" cx="139.6" cy="103.2" rx="6.2" ry="6.2"/>
<ellipse transform="matrix(0.9533 -0.3021 0.3021 0.9533 -24.4344 45.0793)" class="st5" cx="133.5" cy="101.5" rx="2.8" ry="2.8"/>
<path class="st4" d="M79.4,90.2c6.6-7.6,14.5-13.2,25.9-5.4C94.2,72.6,84.7,79,79.4,90.2z"/>
<path class="st4" d="M108.8,81.7c2.4-6.5,8.8-11.1,19-5.1C117.8,68.4,109.5,71.8,108.8,81.7z"/>
<path class="st5" d="M250.3,138.8c-3.8,5.7-6.9,7.7-9.7,7.2c2.6,2.2,6.4,6.9,8.8,5.9C251.1,150.8,251.4,146.4,250.3,138.8z"/>
<path class="st10" d="M65.3,130c1.8-52.2,26.4-61.5,38.9-49c11.7-21.2,26.6-9.1,43.5,26"/>
<path class="st10" d="M128.3,113.1c47.7-17.5,76-9,114-13.5"/>
<path class="st10" d="M118.2,115c-13.1,12.8-37.2,4.1-52.9,14.9c-24.9,16.4-20.9,51.7,18.8,60.7c40.7,8.3,57.3-26.5,112.3-21.7
	c19.9,2,26.8-6.6,25.6-14.2"/>
<path class="st11" d="M240.6,146.1c2.6,2.2,6.4,6.9,8.8,5.9c1.7-1.2,2-5.5,0.9-13.2"/>
<path class="st10" d="M171.6,102.7c-3.6,1.5-6.9,4.8-8.2,8.5"/>
<path class="st10" d="M199,101.2c-2.5,0-6.3,4-8,7.4"/>
<path class="st5" d="M104.1,157.7l-16.7-4.3c0.7,9.5,2,16.5,4.5,17.9C94.2,171.9,98.5,166.8,104.1,157.7z"/>
<path class="st10" d="M77.9,143c0.2,4-2.8,7.6-6.6,6.8"/>
<path class="st12" d="M87.4,153.4c0.7,9.5,2,16.5,4.5,17.9c2.4,0.7,6.6-4.5,12.3-13.6"/>
<path class="st1" d="M233.7,115.9c9.7,2.9,12.9,7.1,9.1,11.2C239.1,130.2,234.7,123.5,233.7,115.9z"/>
<path class="st10" d="M233.7,115.9c9.7,2.9,12.9,7.1,9.1,11.2C239.1,130.2,234.7,123.5,233.7,115.9z"/>
<path class="st5" d="M269.5,122.5l-6.6,5c1.7,1.8,5.7,5.8,6.6,5.6C270.6,131.6,270.8,128.3,269.5,122.5z"/>
<path class="st1" d="M252.3,102.1c9.5,3.5,10.6,6.8,6.9,9.7C256.1,114,252.9,109.8,252.3,102.1z"/>
<path class="st10" d="M252.3,102.1c9.5,3.5,10.6,6.8,6.9,9.7C256.1,114,252.9,109.8,252.3,102.1z"/>
<path class="st11" d="M262.9,127.6c1.7,1.8,5.7,5.8,6.6,5.6c1.2-1.5,1.4-4.8,0.1-10.6"/>
<path class="st10" d="M84.2,124c-2.3-20.4,2.9-37,8.7-38.3c7.5-1.6,18,13,22.4,31.7"/>
<path class="st10" d="M128.3,113.1c-7.4-19-6.9-32.9-4.2-35.2c2.4-2,8.4,2.8,10.3,5.6"/>
<path class="st10" d="M100,226.4c-10.5,3.8-10.4,27.1-15.6,40.7c-7.2,19.2,30.8,23.6,34.5,29.1"/>
<path class="st10" d="M110.1,241.8c-0.6,8.9-4,18.3-11.4,28.4"/>
<path class="st10" d="M101.3,266.4c20.9,13.2,25.4,19.3,22.4,27.7c-3.5,8.2-13.4,7.5-20.1,11.2c2.7-4.3,5.5-8.6,8.2-13"/>
<path class="st10" d="M103.5,305.3l-3.4,4.9c-1.8-3.4-0.9-9.9,4-20.7"/>
<path class="st10" d="M95.7,286.2c0.6,25.4-2.3,46.3-4.9,54.9c-14.1,44.8-69.3,63.2-85.1,31c-3.8,19.5,19.2,34.5,65.3,29.5
	c33.1-4,42.9,2.7,64.4,4c20.1,1.2,38.5-2.7,59-1.3c-0.5-6.1-3-10.6-8.4-12.9 M84.1,190.6c3.4,11.2,6.1,27.4,8.1,45.1"/>
<path class="st10" d="M187.5,404.2c-2.1-3.2-6.2-5.6-12.1-7.2"/>
<path class="st10" d="M194.5,404.5c2.2,0.8,6.1,1.3,8.1,1.4c1.7-12.8-7.5-25.4-37-21.7c-12.8,0.4-27.6,6.5-42.9-5.6"/>
<path class="st10" d="M119.8,310.4c21.9-13.9,32,14.3,5,69.6"/>
<path class="st10" d="M200.4,313.4c15.5-4.8,19.7,26.3,2,65.2c29.1-4.7,50.4-2.1,48.9,16.8"/>
<path class="st10" d="M238.8,384.3c8.4,4,12,8.8,13.5,13.9c-11.5-3.5-32.1,1.8-50,0.5"/>
<path class="st10" d="M124.2,293.7c1.4,4.4,2.9,8.8,4.6,13.3 M104.5,191.4c13.4,21.7,6.4,37.5,12.3,55.8c-0.4,10.9,1,22,3.7,33.3"/>
<path class="st10" d="M165.6,214.3c10.6,3.8,29.9,16.9,34.1,25c4.2,8.3-3.6,22.2-5.9,34.5"/>
<line class="st10" x1="180.4" y1="242.4" x2="187.5" y2="245.5"/>
<path class="st10" d="M189.9,242.7c-2.8,2.7-5.3,6.4-6.3,10.7"/>
<path class="st10" d="M86,199.3c-2.3,2.5-6.3,6-5.9,8.6c0.4,2.5,5.2,4.5,9,5.6"/>
<path class="st10" d="M91.4,228.8c-2.5,2.7-9.9,7.7-9.4,10.6c0.4,2.7,4.3,5.7,7.3,7.5"/>
<path class="st10" d="M95.3,309.1c-3.5,1.2-11.9,5.4-11.5,8.3c0.4,2.7,6.7,8.6,9.7,10.5"/>
<path class="st10" d="M90.8,341.2c-3.5,0-12,2.4-12.5,5c-0.4,2.5,2.8,9,4.8,11.5"/>
<path class="st10" d="M76.8,366.3c-2.9-1.4-11.1-1.6-12.6,0.4c-1.4,1.9-1.3,8.6-0.7,11.5"/>
<path class="st10" d="M55.1,383c-2.6-2.4-7.6-4.9-10-4.1c-2.2,0.8-4.9,6.3-6,9.1"/>
<path class="st10" d="M24.1,387.4c-0.4-2.7-0.8-7.4-2.3-7.8c-1.5-0.4-5.1,2.2-6.8,3.7"/>
<path class="st4" d="M270.5,247.9l88.7-20.1l27.2,21.2c2.6,11.5,0.1,18.8-4.7,24.2l-16.8-7.5c-17.4,0.2-32.3-1.5-43.8,24.1h-43.8
	c-4-3.8-7.9-13.7-5.6-21.5C267.4,264.6,264.2,255.9,270.5,247.9z"/>
<path class="st2" d="M359.2,227.8l27.2,21.2c2.6,11.5,0.8,13.1-0.3,17c6.6,4.9,8,11.6,5.2,22.3l-0.5,1.4H321l2-4l6.4-1.8l5.2,4.5
	c8.2-11.7,23.7-6.4,35.5-9.5c-3.7-2.8-5.5-7.2-5.2-13.2l-6.3,0.5l-10.5-8.6C355.9,249.8,342.1,241.5,359.2,227.8z"/>
<path class="st13" d="M275.7,186.8l32.4-25.9l-2.1-26.7C273,120.1,245.6,164.9,275.7,186.8z"/>
<path class="st13" d="M370.1,278.9c-3.5-3.1-5.2-7.5-5.2-13.2c-13.8,2.8-26.1-8.7-43.1,23c3.1-0.5,6-1.4,8.6-2.8l3.1,4
	C343.6,274.7,357.9,282.6,370.1,278.9z"/>
<path class="st3" d="M370.1,278.9c-3.5-3.1-5.1-4.5-5.1-10.2c-0.6,3.4-25.8-6-39.9,19.3c3.1-0.5,2.7-0.7,5.3-2.1l3.1,4
	C343.6,274.7,357.9,282.6,370.1,278.9z"/>
<path class="st2" d="M343.8,233.5c5.1,9.2,16,15.7,25.1,17c-1.8,3-1.3,9.4-13.8,17.3C347.9,260.4,341.4,245.2,343.8,233.5z"/>
<path class="st3" d="M275.7,186.8l38.5-14.8l-2-25.1C274.7,134.6,254.9,169.4,275.7,186.8z"/>
<path class="st2" d="M280.2,251.2c7.3,11.5,33.8,21.5,64.6-4.6l-1-14.8c-6.9-16.5,4.8-32.6,18.3-34.1c-4.9,0.9-8.7-0.7-11.3-4.8
	l-33.3-42.2l-15.1,8c-11.5,5.6-22.6,18.6-29.1,32.8c-16.4,12.3-17,44.8-9.7,51.4C267.3,246.7,273,249.8,280.2,251.2z"/>
<path class="st1" d="M339.5,250.4l4.8-3.3l-0.1-8.5c4,9.4,15.5,14.9,23.8,11.7l-24.3-18.4c-6.9-16.5,4.8-32.6,18.3-34.1
	c-4.9,0.9-8.7-0.7-11.3-4.8l-42.6-32.1c-1.5,14.1,5.3,22.7,16.4,22.4c0,5.5,3.2,8.4,7.6,10.4c5.8,8.8,0.3,18.8-7.2,27l7.3,4.4
	C322.6,224.8,333.7,246.6,339.5,250.4z"/>
<path class="st10" d="M306,134.2c-33.1-14.1-60.5,30.7-30.3,52.6"/>
<path class="st14" d="M328,179.3c1.2,8,7,14.2,21.9,13.3c-4.4-17.6,2.4-30.2,33.7-27.9c3.5-9-2.3-19.1-13.7-20.6
	c-0.5-21.9-32.4-25.5-36.2-14.3c-5.1-6.9-19.2-4.4-19.1,5.3c-16.6-7.4-29.5,20.4-6.6,25.8C306.7,169.4,313.9,179,328,179.3z"/>
<path class="st4" d="M336.5,173c-2.6,7.8,4.6,16,17.4,15.2c-3.8-15.1,2.9-21.5,29.8-19.5c2-11.4-9.2-18.1-16.3-16.5
	c-0.4-18.8-23.9-19.3-29-12.5c-4.4-5.9-13.7-2.9-13.9,3.6c-14-5.6-20,16.5-4.7,19.4C318.6,169.9,327.8,175.9,336.5,173z"/>
<path class="st2" d="M279.3,180.9c5-7.6,10.7-13.7,17-18.4c-14.4-8.5-28.6-4.3-41.2-2.6C258.3,170.3,266.2,182.6,279.3,180.9z"/>
<path class="st1" d="M279.3,180.9c5-7.6,5.9-9.8,12.2-14.4c-14.4-8.5-25.4-2.3-36.4-6.5C258.3,170.3,266.2,182.6,279.3,180.9z"/>
<path class="st15" d="M283.4,175.8l4.2-5.4c-2.2-3.4-21-5-20.1,0.6C268.3,176.6,283.8,177.1,283.4,175.8z"/>
<path class="st3" d="M282.1,285.6c-5.6-3.8-8.4-10.4-8-16.7C269.6,275.3,274.7,283.7,282.1,285.6z"/>
<path class="st4" d="M262.3,218c1.8-8.4,5.3-27.2,23-20C268.8,185,261.6,208.2,262.3,218z"/>
<path class="st4" d="M278.7,229.3c-7.7,1.1-13-2.5-13.2-8.4C264,229.7,269.5,233.7,278.7,229.3z"/>
<path class="st4" d="M306.1,202c4.7-5.8,9.9-8.9,17.8-11.1C317.4,188.8,309.6,194,306.1,202z"/>
<path class="st4" d="M347.1,243.3c1.4,7.3,5,17.6,9,22.5C348.8,260.9,345.8,251.1,347.1,243.3z"/>
<path class="st4" d="M281.9,185.5c3.5-4.9,9.5-10.1,15.4-11.2C290.7,172.8,284.2,179.1,281.9,185.5z"/>
<path class="st13" d="M362.1,197.8c-6.4-0.5-16,7.5-18.9,16.6c-5.8,17.6,8.1,32.6,24.8,35.9c31.1,5.2,50.6-27.1,44.3-53.9
	c-5.4-28.1-39.2-41.6-59.3-24.7C344.4,181,347.8,199.6,362.1,197.8z"/>
<path class="st3" d="M362.1,197.8c16.9-2.5,30.1,10.8,30.8,22.3c-1.6-15.9-32.5-15.8-30,1.4c1.9,13.6,29.5,16.9,35.4-5.4
	c5.6-20.7-17.3-39.2-39.8-32.3C350.4,186.8,353.1,197.5,362.1,197.8z"/>
<path class="st10" d="M393,220.1c-2.4-24.1-40-33.4-49.7-5.7c-5.8,17.6,8.1,32.6,24.8,35.9c31.1,5.2,50.6-27.1,44.3-53.9
	c-5.4-28.1-39.2-41.6-59.3-24.7c-8.6,9.3-5.3,27.9,9,26.1"/>
<path class="st10" d="M302.5,158.8c-11.5,5.6-22.6,18.6-29.1,32.8c-16.4,12.3-17,44.8-9.7,51.4c9,9.3,30.5,14.2,55.7,1.5"/>
<path class="st10" d="M280.3,251.2c3.7,9.9,30,20.4,59.3-0.8"/>
<path class="st10" d="M383.7,164.7c3.4-10.1-5.1-22.1-18.1-20.7"/>
<path class="st10" d="M370,144.1c-1.1-21.9-28.4-24.5-36.2-14.3c-5.4-6-18-3.6-19.1,5.3c-16.6-7.4-29.5,20.4-6.6,25.8
	c-1.4,8.5,5.7,18.2,19.9,18.5"/>
<path class="st10" d="M328,179.3c0,7.6,10.4,15.7,21.9,13.3"/>
<path class="st10" d="M342,162.8c-2.1,4-6.9,3-7.4,0.2"/>
<path class="st10" d="M327,271.3c-2.7,3.7-7.3,1.8-7.4-0.9"/>
<path class="st10" d="M299.1,281.7c-3.9,2.4-7.4-1.1-6.5-3.7"/>
<path class="st10" d="M314.5,281.6c-2.3,3-6.1,1.4-6.1-0.9"/>
<path class="st10" d="M293.6,268.8c-2.2,1.5-4.4-0.3-3.9-1.9"/>
<path class="st10" d="M322.5,157.9c-3.6,3.6-8.4,0.6-7.7-3.1"/>
<path class="st10" d="M309.6,149.8c-1.9,1.5-3.6-1-2.8-2.5"/>
<path class="st10" d="M329.2,171.4c-1.4,3.4-5.7,1.4-5.6-1.3"/>
<path class="st5" d="M313.9,219.8l6.3-0.2c9.1-8,11.4-19.7,8.9-23.6c-5.1-6.2-20.9,1.7-24.5,12.7
	C303.7,211.3,307.6,218.1,313.9,219.8z"/>
<path class="st6" d="M321.2,199c-5.4-4.3-14.5,2.3-16.7,10.4l2.9,6.4l5.6,3.8l2,0.1C320.8,216.4,326.5,203.3,321.2,199z"/>
<path class="st10" d="M307.4,222.7c5.9-4.7,16.9-4.7,24.9,2.5"/>
<path class="st5" d="M281.2,192.9l-0.6-0.2c3.5,1.1,5.8,2.9,8.5,6.3c8.4-1.8,16.1-16.9,11.9-21.5C296.3,174.5,287,178.5,281.2,192.9
	z"/>
<path class="st6" d="M294.5,182c-5.1-4-11,4.3-13.1,10.5l7.1,5.6C294.6,194.9,298.3,186.1,294.5,182z"/>
<path class="st10" d="M267.8,229.8c-3.3,3.5-5.1,12.1-2.3,14.9"/>
<path class="st10" d="M332.2,193.7c2.7,1.8,3.2,5.5,1.6,8.7"/>
<path class="st10" d="M322.3,246.4c-2.1-0.3-3.5-2.1-3.7-4.4"/>
<path class="st10" d="M298,171.4c2.5-1.9,7.1-0.6,9.1,2"/>
<path class="st10" d="M277.2,289.8c-4.8-4.2-7.8-15.1-5.6-21.5c-4.8-4.4-7.5-12.4-1.2-20.3"/>
<path class="st10" d="M365,263.9c-0.8,5.2,1.2,13.4,7.3,16.5"/>
<path class="st10" d="M385.2,268.1c2.8-6,3.3-13.9,1.1-19"/>
<ellipse transform="matrix(2.128460e-02 -0.9998 0.9998 2.128460e-02 104.5478 514.6333)" class="st9" cx="315.1" cy="203.9" rx="5.4" ry="5.4"/>
<ellipse transform="matrix(2.094653e-02 -0.9998 0.9998 2.094653e-02 101.4047 521.6605)" class="st5" cx="317.1" cy="209.1" rx="2.6" ry="2.6"/>
<path class="st10" d="M368,250.3c-1.1,7.9-7.2,16.3-12.9,17.4c-6-5-12.1-18.4-11.4-35.8"/>
<ellipse transform="matrix(2.113703e-02 -0.9998 0.9998 2.113703e-02 97.0925 473.1574)" class="st9" cx="290.2" cy="187" rx="4.8" ry="4.8"/>
<ellipse transform="matrix(2.131166e-02 -0.9998 0.9998 2.131166e-02 95.8173 479.5025)" class="st5" cx="292.8" cy="190.8" rx="2.3" ry="2.3"/>
<path class="st10" d="M386.6,183.6c0.6-5.5,5.5-9.2,9.6-8.8"/>
<path class="st10" d="M395.3,185.2c0.4-3.1,3.1-5.2,5.4-5"/>
<path class="st10" d="M393,220.1c-6.4-4.9-25.5-9.5-26.4,1.2"/>
<path class="st10" d="M296.3,162.5c-14.4-8.5-28.6-4.3-41.2-2.6c3.3,10.3,11.2,22.6,24.2,21"/>
<path class="st16" d="M360.9,170.4c9.5-1.9,19.1-1.3,30.1,1.5C380.8,166,370.8,165.8,360.9,170.4z"/>
<path class="st17" d="M357.8,243.1c-7-6.3-11.2-13.7-12.8-23.8C343.5,231.4,349.7,238.7,357.8,243.1z"/>
<path class="st10" d="M358,203.3c2-0.1,3.5,1.5,3.5,2.8"/>
<path class="st10" d="M353,207.4c1.7-0.4,4,0.8,4.8,3"/>
<path class="st10" d="M276.6,230.9c-8.8,2.5-12.3-3.8-11.9-9.6"/>
<path class="st18" d="M313.9,138.4c-5.3-0.5-10.4,2-13.4,6C301.2,138.2,308.5,135.8,313.9,138.4z"/>
<path class="st18" d="M353.8,128.9c-6.3-2.2-13.2-0.5-17.9,3.5C338.3,125.1,347.9,124.2,353.8,128.9z"/>
<path class="st10" d="M273.3,191.5c5.8-0.2,11.5,2,15.8,7.4c8.4-1.8,16.1-16.9,11.9-21.5c-4.8-3-14.1,1-19.9,15.4"/>
<path class="st10" d="M320.2,219.6c9.1-8,11.4-19.7,8.9-23.6c-5.1-6.2-20.9,1.7-24.5,12.7c-0.9,2.6,3,9.4,9.3,11.1"/>
<path class="st10" d="M386.1,266c7,5.6,7.4,13.9,4.7,23.7"/>
<path class="st10" d="M259.5,274.7c4-0.5,7.7-0.5,11.3,0"/>
<path class="st1" d="M337,285.7c-0.3-3.3-3.2-5.9-8.5-7.8c-2.2,2.9-4.4,6.4-6.7,10.8c3.1-0.5,6-1.4,8.6-2.8l3.1,4
	C334.6,288.2,335.8,286.9,337,285.7z"/>
<path class="st10" d="M328.5,277.9c6.2,2.9,10.3,6.2,7.5,8.8"/>
<rect x="204.9" y="289.8" class="st19" width="246.2" height="20"/>
<rect x="322.7" y="17" class="st5" width="10.6" height="92.7"/>
<path class="st20" d="M399.6,20c14.3,12.2,30.1,10.6,46.5,7.7c-8.3-1.3-13.7-6.2-14.8-16.4l-37.5-0.4
	C394.6,14.4,396.8,17.4,399.6,20z"/>
<path class="st21" d="M453.7,42.1c8.9-4.5,17.8-8.1,27.2-4.7c21.7,6.6,21.4,35.6,1.3,57.4c-16.2,15.8-39,41.4-32.9,72.3
	c30.8-12.9,31.8,18.7,61.3-9.7"/>
<path class="st19" d="M200.8,1.9C283.1,1.6,377.6-1.3,447.9,1c1.1,0,1.8,0.9,1.9,1.9l0.7,6.8c0.1,1.1-0.9,2-1.9,1.9
	c-80.3-2-165.3,0-247.8,0c-1.1,0-1.9-0.9-1.9-1.9V3.9C198.8,2.8,199.7,1.9,200.8,1.9z"/>
<path class="st21" d="M426.5,51.6L425.2,284 M333.3,24.5v91.6h91.9"/>
<path class="st1" d="M255.6,282.3l-5.5-2.6l-6.4-0.1c-0.6,3.1-1,6.5-1.1,10.2c2.4-0.5,4.9-2.1,7.3-4.9l3.9,4.3
	C254.3,286.7,254.9,284.4,255.6,282.3z"/>
<path class="st15" d="M116.5,158.8c26.4,0.1,44.3-8.3,66.5-12.5l21.4,1.2c-0.4,3.3,7.6,3.9,8.7,0.9c15.1,2.4,11.8,15.9-16.3,14
	c-1.4,2.3-9,2.2-10.9,0.2C162.9,161.3,135.8,166.3,116.5,158.8z"/>
<path class="st22" d="M116.5,158.8c26.4,0.1,44.3-8.3,66.5-12.5l21.4,1.2c-0.4,3.3,7.6,3.9,8.7,0.9c15.1,2.4,11.8,15.9-16.3,14
	c-1.4,2.3-9,2.2-10.9,0.2C162.9,161.3,135.8,166.3,116.5,158.8z"/>
<path class="st5" d="M186,162.5c4.2,2.1,7.8,2.1,10.9-0.2c-1.5-4.9-3-8.4-4.7-8.7C190,153.5,187.7,157.1,186,162.5z"/>
<path class="st3" d="M154.1,359.8c14.1-5.1,28.9-4.3,37-2.7C193.1,347.9,154.8,352.3,154.1,359.8z"/>
<path class="st12" d="M196.9,162.4c-1.5-4.9-3-8.4-4.7-8.7c-2.2-0.2-4.5,3.4-6.2,8.8"/>
<path class="st3" d="M162.3,214.1c-10.9-2.1-28.2,2.7-33.1,10.7c12.2-6.4,22.1-8.9,36.1-6.6L162.3,214.1z"/>
<path class="st3" d="M175.7,246.4c-8.3-2.7-31.2,0.4-35.7,9.2c6.9-3.8,23-8.2,33.2-5.9L175.7,246.4z"/>
<path class="st3" d="M192.5,303.3c-9-4.6-37.8-0.2-40.1,7.1c16.7-4,31.7-5.7,43.5-2.6L192.5,303.3z"/>
<path class="st4" d="M174.4,385.7c8.3-0.3,16.1,3.2,23.9,8.2C192.2,386.3,183.9,384.2,174.4,385.7z"/>
<path class="st4" d="M137.5,332.4c1.3-15.1-5-22.5-11.1-22.6C134.4,305.6,141.1,314.1,137.5,332.4z"/>
<path class="st10" d="M213.2,148.3c15.1,2.4,11.8,15.9-16.3,14c-1.4,2.3-9,2.2-10.9,0.2c-23.1-1.3-50.2,3.7-69.3-3.8"/>
<path class="st5" d="M161.8,151.6l-14.4,3.6c2.8,3.5,8.1,10.6,10.5,9.9C160.5,164.4,161.3,155.6,161.8,151.6z"/>
<path class="st5" d="M204.5,147.5c-0.3,2.2,7.2,3.4,8.7,0.9c-1.2-3.4-2.2-5.7-3.5-5.9C208.4,142.3,206.6,144.2,204.5,147.5z"/>
<path class="st12" d="M204.5,147.5c-0.3,2.2,7.2,3.4,8.7,0.9c-1.2-3.4-2.2-5.7-3.5-5.9C208.4,142.3,206.6,144.2,204.5,147.5z"/>
<path class="st12" d="M147.4,155.2c2.8,3.5,8.1,10.6,10.5,9.9c2.6-0.8,3.4-9.5,3.9-13.5"/>
<path class="st10" d="M263.4,123.5c-10.9,5.8-13.4,25-26,22.4c-10.3-1.9-20-8.4-41.9-2.9c-38.6,7.8-75,27.9-118.8,5.8"/>
<path class="st10" d="M224.1,131.3c-9.3-17.1,4-16.9,9.7-22.1c8.7-7.1,10.2-16.7,19.4-15.1c6.9,1.1,8.7,9.7,15.6,12.8
	c11,7.9,1.9,17.6-13.6,24.7"/>
<path class="st10" d="M203.2,147.3c-6.5-0.8-13.7-1.1-21.8-1"/>
<ellipse transform="matrix(0.9533 -0.302 0.302 0.9533 -21.4791 43.0118)" class="st5" cx="128.3" cy="91" rx="3.8" ry="3.8"/>
<path class="st10" d="M191.2,357.2c-10.1-1.9-20.2-2.4-30.3,0.3"/>
<path class="st10" d="M195.8,307.9c-10.6-2.6-25.9-2.1-39.3,1.5"/>
<path class="st10" d="M146.5,176.3c13.4,13.8,19,27.7,19.3,41.5c9.2,7.9,13.6,18.7,14.5,31.6c15.1,17.5,18.8,40.5,15.5,58.5
	c11.9,6.1,7.7,45.3-9,76.8"/>
<path class="st10" d="M173.2,249.7c-12.2-0.6-22.4,0.6-29.4,4.6"/>
<path class="st10" d="M165.8,217.8c-11.2-1.2-22-0.1-32.2,5"/>
<path class="st10" d="M266.8,258.4c-16.3,0.1-23.3,11.8-24.1,31.4c2.4-0.5,4.9-2.1,7.3-4.9l3.9,4.3c1.5-8.5,5-15.6,11.6-20.6"/>
<path class="st10" d="M352.8,265.9c-9.5-0.4-19.1,0.5-31,22.8c3.1-0.5,6-1.4,8.6-2.8l3.1,4c10.1-15.3,24.4-7.3,36.6-11 M364.9,265.7
	c-2.1,0.4-4.1,0.5-6.1,0.5"/>
<path class="st10" d="M244,278.8c6.4,0.4,10.2,1.6,11.5,3.8"/>
</svg>
