<?xml version="1.0" encoding="utf-8"?>
<!-- Generator: Adobe Illustrator 21.1.0, SVG Export Plug-In . SVG Version: 6.00 Build 0)  -->
<svg version="1.1" id="Layer_1" xmlns="http://www.w3.org/2000/svg" xmlns:xlink="http://www.w3.org/1999/xlink" x="0px" y="0px"
	 viewBox="0 0 482 413" style="enable-background:new 0 0 482 413;" xml:space="preserve">
<style type="text/css">
	.st0{fill-rule:evenodd;clip-rule:evenodd;fill:#FCCA00;}
	.st1{fill-rule:evenodd;clip-rule:evenodd;fill:#FFE07D;}
	.st2{fill-rule:evenodd;clip-rule:evenodd;fill:#FBD2B6;}
	.st3{fill-rule:evenodd;clip-rule:evenodd;fill:#EDB581;}
	.st4{fill:none;stroke:#822E2D;stroke-width:1.7015;stroke-linecap:round;stroke-linejoin:round;stroke-miterlimit:22.9256;}
	.st5{fill-rule:evenodd;clip-rule:evenodd;fill:#E3A921;}
	.st6{fill-rule:evenodd;clip-rule:evenodd;fill:#F5B0B4;}
	.st7{fill-rule:evenodd;clip-rule:evenodd;fill:#F5A87D;}
	.st8{fill-rule:evenodd;clip-rule:evenodd;fill:#FACCAF;}
	.st9{fill-rule:evenodd;clip-rule:evenodd;fill:#A35939;}
	.st10{fill-rule:evenodd;clip-rule:evenodd;fill:#D88F55;}
	.st11{fill-rule:evenodd;clip-rule:evenodd;fill:#FFEEA3;}
	.st12{fill-rule:evenodd;clip-rule:evenodd;fill:#FFE67E;}
	.st13{fill-rule:evenodd;clip-rule:evenodd;fill:#FFFFFF;}
	.st14{fill-rule:evenodd;clip-rule:evenodd;fill:#D3ECFB;}
	.st15{fill-rule:evenodd;clip-rule:evenodd;fill:#1A1A18;}
	.st16{fill-rule:evenodd;clip-rule:evenodd;fill:#FDEBDB;}
	.st17{fill-rule:evenodd;clip-rule:evenodd;fill:#FDF1E7;}
	.st18{fill:none;stroke:#A16215;stroke-width:1.7015;stroke-linecap:round;stroke-linejoin:round;stroke-miterlimit:22.9256;}
	.st19{fill-rule:evenodd;clip-rule:evenodd;fill:#FBCF40;}
	.st20{fill-rule:evenodd;clip-rule:evenodd;fill:#FFEBAD;}
	.st21{fill-rule:evenodd;clip-rule:evenodd;fill:#FFE494;}
	.st22{fill-rule:evenodd;clip-rule:evenodd;fill:#FCD861;}
	.st23{fill:none;stroke:#E9B422;stroke-width:1.7015;stroke-linecap:round;stroke-linejoin:round;stroke-miterlimit:22.9256;}
	.st24{fill-rule:evenodd;clip-rule:evenodd;fill:#F4B3D1;}
	.st25{fill:none;stroke:#A55E7F;stroke-width:1.7015;stroke-linecap:round;stroke-linejoin:round;stroke-miterlimit:22.9256;}
	.st26{fill-rule:evenodd;clip-rule:evenodd;fill:#FFF2AF;}
</style>
<path class="st0" d="M101.6,308.8l-0.1-5.1c-5,0.8-10.7-1.6-17.1-7.2l-0.5,6.3c-5.3-0.4-8-4.8-9.4-8.7c-6.2-2-11.1-7.4-13.5-20.1
	c-5.7-6.3-9.6-11.8-9.4-24.9c6.4,5.8,13.3,10,16.5,11.9l-1.8-7.4l7.3,0.1c-6.9-8.6-12.6-16.9-17.4-22.3c1.2-10.1,8.4-22.3,13.9-29.3
	l105.2,0.3c11.2,13.2,0.3,28.1,7.3,42.3c1.4,12.2-5.1,26.2-11.8,30.5c1.1,9.2-6.9,20.7-16.8,20.4c-1.4,6.9-14.6,15.4-25.7,13.7
	C120.8,312.4,108.4,312.3,101.6,308.8z"/>
<path class="st1" d="M178.8,167.6l-98.6-22.4l-30.2,23.6c-2.9,12.8-0.2,20.9,5.2,26.9c-5.6,13.2,9.8,26.9,23.3,20.4
	c-1.9,10,17.8,24,34.3,9.7c8.2,5.7,16.1,8.8,19.9,0c4.1,2.4,8.4,3.4,12.6,3.5c18.2,0.4,35.2-18.4,28.6-37c2.4-1.1,4.3-2.8,5.8-4.9
	C183.5,182,183.9,174,178.8,167.6z"/>
<path class="st2" d="M173,99.7l-36-28.8l2.3-29.7C176.1,25.5,206.5,75.3,173,99.7z"/>
<path class="st3" d="M173,99.7l-42.8-16.5l2.2-27.9C174.2,41.6,196.2,80.3,173,99.7z"/>
<path class="st0" d="M168,171.3c-8.1,12.8-37.6,23.9-71.8-5.1l1.2-16.4c7.6-18.3-5.4-36.2-20.4-37.9c5.4,1,9.6-0.8,12.5-5.3l37-46.9
	l16.8,8.8c12.8,6.2,25.1,20.7,32.4,36.4c18.3,13.6,18.9,49.8,10.7,57.2C182.4,166.3,176,169.7,168,171.3z"/>
<path class="st4" d="M139.3,41.2C176,25.5,206.5,75.3,173,99.7"/>
<path class="st0" d="M165.1,87c-5.6-8.5-11.4-11.5-18.4-16.7c10.7-12.2,22.3-10.9,29.4-15.7C178.3,63.9,176.1,79.6,165.1,87z"/>
<path class="st5" d="M165.1,87c-5.6-8.5-7.4-8.8-14.5-14c16-9.4,18.9-6.5,26.3-14.5C177.5,69.3,174.6,80.3,165.1,87z"/>
<path class="st6" d="M160.2,81.7l-5.4-5.5c2.4-3.7,18.4-12.4,17.4-6.2S159.7,83.1,160.2,81.7z"/>
<path class="st7" d="M135.5,303.3l-15.8,8c-1.7,23.7,0.6,36.1,6.1,47.4l3.4-4.2l-0.1-4.2C126.5,334,127.5,313.4,135.5,303.3z"/>
<path class="st8" d="M138.7,308.3l-12.6,1.8c-1.5,12.8-2,38.2,2.9,40.2l3.8,1.1C132.5,336.9,134.4,327.7,138.7,308.3z"/>
<path class="st8" d="M101.5,303.7l-17.1-7.2c-1.5,28.7-1,50.3,5,63.1c2.6-3.3,5.6-5.3,9.6-4.2C99.3,346.1,99.4,337.2,101.5,303.7z"
	/>
<path class="st7" d="M93.1,302.1l-8.7-5.7c-5.1,28.1,0.7,49.5,5,63.1l3.3-3.5C89.4,345,90.8,319.3,93.1,302.1z"/>
<path class="st9" d="M99.6,355c-3.6-0.9-9.8,0.6-10.3,4.6c1.4,2,1.9,4.7,2.9,6.6l2.8-5.5l5.7,1.5C100.4,360,100.7,357.8,99.6,355z"
	/>
<path class="st10" d="M65.7,286.6l-7.5-5.7c-11.2,15.8-34.1,11.3-22.7-6.6C15.8,291.2,47.8,308.2,65.7,286.6z"/>
<path class="st5" d="M101.6,308.8l-0.1-5.1c-4.7,0.8-11.1-1.5-17.1-6.9l-0.5,5.9c-4.1-0.3-15.8-11.6-14.5-13.3
	c-17.2-3.2-24-43.6-16.6-51.8c-6.8-9.5-4.6-23.3,2.3-29.3c6.5,10.2,14.5,11.1,23.3,7.8l1.2,6.1l5.8,6.1c-1,8.2,2.7,14.2,12.2,17
	c-8,3-8,13.9-4.8,19c-3.5,5.1-0.4,9.8,4.5,10.5c1.7,10.2,17.4,9.2,21.6,3.8c3.7,8.1,32.7,18.5,46.8-2c1.1,8.6-7.3,14.4-15.5,16.5
	c-1.3,6.5-11.6,17.6-22.1,16.1C121.2,312.2,108,312.1,101.6,308.8z"/>
<path class="st0" d="M80.1,145.2l-30.2,23.6c-2.9,12.8-0.4,19,3.3,24.6c-5.6,19.8,19.1,26.2,27.9,17.9c-0.7,8.1,8.4,17.4,17.9,12.9
	c-6.9,0.6-16.7-6.9-13.7-18.4c-6.7-0.4-15.3-9.1-4.8-18c4.4-2.4,8.7-5.1,11.4-10.1C83.3,169.1,99.2,160.5,80.1,145.2z"/>
<path class="st0" d="M97.3,149.8C91.6,160,79.5,169,69.4,170.4c-3.1,7,3.9,16.1,1.7,21.5C95.1,186.2,99.9,162.8,97.3,149.8z"/>
<path class="st5" d="M102,170.4l-5.3-3.7l0.1-9.5c-4.5,10.5-17.3,16.6-26.5,13l27-20.5c7.6-18.3-5.4-36.2-20.4-37.9
	c5.4,1,9.6-0.8,12.5-5.3l47.4-35.7c1.7,15.6-5.9,25.3-18.3,24.9c0,6.1-3.6,9.4-8.5,11.6c-6.5,9.7-0.4,20.9,8,30l-8.1,4.9
	C120.9,142,108.5,166.1,102,170.4z"/>
<path class="st11" d="M114.8,91.4c-1.4,8.9-7.7,15.8-24.3,14.8c4.9-19.6-2.7-33.7-37.5-31.1c-1.1-10.3,1.1-16.7,10-21.5
	c0.6-24.4,41.2-29.8,45.4-17.4c5.7-7.6,21.3-4.9,21.3,5.9c18.4-8.2,32.8,22.7,7.3,28.7C138.6,80.3,130.6,91.1,114.8,91.4z"/>
<path class="st1" d="M105.4,84.3c2.9,8.7-5.1,17.8-19.4,16.9c4.2-16.7-3.2-23.9-33.1-21.7C50.7,66.8,63.1,59.4,71,61.2
	c0.5-20.9,26.6-21.4,32.2-13.9c4.9-6.5,15.2-3.2,15.4,4c15.5-6.3,22.3,18.3,5.2,21.5C125.3,80.9,115,87.6,105.4,84.3z"/>
<path class="st12" d="M169.7,146.9c8.5,1.3,14.5-2.8,14.7-9.3C186.1,147.4,180,151.8,169.7,146.9z M187.9,134.4
	c0.8-10.9-7.2-36.8-25.6-22.2C182.1,104.1,186,125,187.9,134.4z M166.1,98.2c-3.9-5.4-10.6-11.2-17.2-12.5
	C156.4,84.2,163.6,91.1,166.1,98.2z M139.2,116.5c-5.2-6.5-11-9.9-19.8-12.3C126.7,101.8,135.3,107.7,139.2,116.5z M93.8,164.4
	c-3,7.7-8.5,17.3-14.2,21.1C88.2,183,93.6,173.2,93.8,164.4z"/>
<path class="st2" d="M76.9,111.9c7.2-0.5,17.8,8.3,21,18.5c6.5,19.5-9,36.2-27.6,39.9c-34.6,5.8-56.2-30.1-49.2-59.9
	c6-31.3,43.6-46.3,65.9-27.5C96.6,93.2,92.9,113.9,76.9,111.9z"/>
<path class="st3" d="M76.9,111.9c-18.8-2.8-33.5,12-34.2,24.8c1.8-17.7,36.2-17.6,33.4,1.5c-2.1,15.2-32.8,18.8-39.3-6
	C30.5,109.2,56,88.7,81,96.3C89.9,99.6,86.9,111.6,76.9,111.9z"/>
<path class="st13" d="M130.6,136.3l-7-0.2c-10.1-8.9-12.7-21.9-9.9-26.2c5.7-6.9,23.2,1.9,27.3,14.1
	C142,126.9,137.6,134.5,130.6,136.3z"/>
<path class="st14" d="M120.9,113.6c5.7-4.4,17.9,1.4,20,11.9l-4.9,8.1l-5.5,2.7C124.4,133.9,115.4,119.7,120.9,113.6z"/>
<path class="st13" d="M166.9,106.4l0.7-0.3c-3.8,1.2-6.5,3.2-9.5,7c-9.3-2-17.9-18.8-13.3-23.9C150.2,85.9,160.5,90.4,166.9,106.4z"
	/>
<path class="st14" d="M152.1,94.9c4.1-3.8,11.4,4.6,14.8,11.6l-7.7,5.4C153.9,111.3,147.9,99.5,152.1,94.9z"/>
<path class="st4" d="M58.2,280.9c-18.5,20.2-32.5,3.7-22.7-6.6c-19.1,15.2,10,34.8,29.2,13.4"/>
<path class="st9" d="M132.8,351.5c-5.2-2.1-6.7-0.6-9.3,2c1,3.9,1,3.1,2.3,5.2l3.4-4.2l4.2,3C133.2,355,132.9,354.6,132.8,351.5z"/>
<path class="st4" d="M84.4,296.4c-3.4,16.8-1.9,51.3,7.9,69.8l2.8-5.5l5.7,1.5c-3.5-17.3-0.3-33.3,0.7-58.6"/>
<path class="st4" d="M119.6,311.3c-2.6,22.6,2.1,40.7,6.1,47.4l3.4-4.2l4.2,3c-2.2-19.5,1.1-29.4,5.4-49.2"/>
<ellipse transform="matrix(0.9998 -2.148751e-02 2.148751e-02 0.9998 -2.6381 2.9179)" class="st15" cx="134.5" cy="124.2" rx="6" ry="6"/>
<ellipse transform="matrix(0.9998 -2.159867e-02 2.159867e-02 0.9998 -2.6488 2.7948)" class="st13" cx="128.1" cy="124" rx="2.8" ry="2.8"/>
<ellipse transform="matrix(0.9998 -2.139363e-02 2.139363e-02 0.9998 -2.5316 2.5957)" class="st13" cx="120.1" cy="119.6" rx="3.2" ry="3.2"/>
<ellipse transform="matrix(0.9998 -2.199175e-02 2.199175e-02 0.9998 -2.1343 3.3373)" class="st13" cx="150.7" cy="98.7" rx="2.5" ry="2.5"/>
<ellipse transform="matrix(0.9998 -2.140720e-02 2.140720e-02 0.9998 -2.1855 3.4591)" class="st15" cx="160.5" cy="103.8" rx="5.3" ry="5.3"/>
<ellipse transform="matrix(0.9998 -2.099757e-02 2.099757e-02 0.9998 -2.1559 3.2938)" class="st13" cx="155.8" cy="104.3" rx="2.5" ry="2.5"/>
<path class="st4" d="M49.8,96.1c-0.7-6.1-6.1-10.3-10.6-9.8"/>
<path class="st4" d="M40.2,97.9c-0.4-3.5-3.4-5.8-6-5.6"/>
<path class="st4" d="M42.7,136.7c7.1-5.4,28.3-10.6,29.3,1.3"/>
<path class="st4" d="M99.8,356.4c-0.3-2.3-8.2-2.2-10.4,3.1"/>
<path class="st4" d="M123.7,354.4c-1.4-2.4,5.6-5.5,9.2-2.9"/>
<path class="st16" d="M78.2,81.5C67.6,79.4,57,80,44.8,83.1C56.2,76.5,67.3,76.3,78.2,81.5z"/>
<path class="st17" d="M81.7,162.2c7.8-7,12.5-15.2,14.2-26.5C97.6,149.2,90.7,157.4,81.7,162.2z"/>
<path class="st8" d="M156.4,250.7h-13.7l3-5.2l-0.1-5.2c-10.2-0.9-21-5.7-32.6-14.4l-9.3,4.8C126.5,253.9,140.9,258.5,156.4,250.7z"
	/>
<path class="st7" d="M156.4,250.7h-13.7l3-5.2c-9.8,7.8-27.8-9.6-37.4-17.2l-4.7,2.4C126.5,253.9,140.9,258.5,156.4,250.7z"/>
<path class="st4" d="M81.4,118c-2.2-0.1-3.8,1.7-3.9,3.2"/>
<path class="st4" d="M87,122.5c-1.9-0.5-4.5,0.9-5.3,3.3"/>
<path class="st4" d="M112.8,225.9c7.7,6,20.7,14.1,32.6,14.4"/>
<path class="st4" d="M103.5,230.8c23,23.2,37.4,27.7,52.8,20"/>
<path class="st18" d="M179.8,187.4c3.7-5.4,4.1-13.5-1-19.8 M153.1,190.8c2.4,1.7,4.9-0.4,4.4-2.1 M129.9,205.1
	c2.5,3.3,6.7,1.6,6.8-1 M117.3,197.4c3,4.1,8.1,2,8.2-1 M117.4,221.1c-14.5,18.8-40.2,9.2-38.9-4.9c-14.2,7.7-30.6-10.3-25.3-22.6
	 M110.2,107.4c-3,2-3.6,6.1-1.8,9.7 M63,53.6c0.6-24.4,41.2-29.8,45.4-17.4c6-6.7,20.1-4,21.3,5.9c18.4-8.2,32.8,22.7,7.3,28.7
	c1.6,9.5-6.4,20.2-22.1,20.5 M146.7,70.4c10.5-12,23.7-11.7,29.4-15.7c2.2,6.3,1.8,23.1-11,32.3 M148.2,82.6
	c-2.8-2.1-7.9-0.7-10.1,2.2 M175.7,104.9c-6.5-0.3-12.8,2.2-17.6,8.2c-9.3-2-17.9-18.8-13.3-23.9c5.3-3.3,15.6,1.1,22.1,17.2
	 M137.8,139.5c-6.6-5.2-18.8-5.2-27.6,2.8 M143.3,68.5c12.8,6.2,25.1,20.7,32.4,36.4c18.3,13.6,18.9,49.8,10.7,57.2
	c-10,10.3-33.8,15.7-61.9,1.7 M168,171.3c-4.1,11-33.3,22.7-65.9-0.9 M181.9,147.4c3.7,3.9,5.7,13.4,2.6,16.5 M69.4,170.4
	c-3.2,8.7,4.2,16.5,1.7,21.5c24.1-8.1,27-22.7,26.2-42.1 M121.2,166c2.3-0.3,3.9-2.4,4.1-4.9 M172.1,148.7
	c9.8,2.8,13.7-4.2,13.2-10.6 M123.6,136.1c-10.1-8.9-12.7-21.9-9.9-26.2c5.7-6.9,23.2,1.9,27.3,14.1c1.1,2.9-3.3,10.5-10.3,12.3
	 M123.2,63.4c1.4,2.3,4.2,0.3,3.8-1.6 M111.4,75.6c3.9,4,9.3,0.7,8.6-3.5 M93.4,83.1c3.8,3.4,8.3,0.3,7.8-2.7 M96.4,68.6
	c1.6,3.8,6.3,1.5,6.3-1.4 M53,75.1c-3.8-11.2,5.6-24.5,20.2-23 M114.8,91.4c0,8.5-11.6,17.5-24.4,14.8 M151.4,268.4
	c3.1,2.6,6.6,0,6.1-2.3 M83.1,266.7c1.1,5.1,6.8,5.3,8.2,2.5 M99.8,289.7c2,3.7,6.5,2.7,6.9,0.1 M100.1,276.2c0.9,4.1,5.5,4.3,6.6,2
	 M133.1,276.6c3.6,3,7.8,0,7.2-2.8 M182.8,250.5c-0.7,10.5-6.2,21.1-11.9,24.7c1.1,9.2-6.9,20.7-16.8,20.4
	c-1.4,6.9-14.6,15.4-25.7,13.7c-7.1,2.9-18.4,3-25.4,0.1 M82,302.3c-4.9-1.7-11.4-8.6-12.5-12.9c-16.1-1.5-24.8-42.5-16.6-51.8
	c-5.8-5.4-5.3-23.1,2.3-29.3 M55.1,195.7c-6.4-6.2-8.3-19.2-5.2-26.9 M82.5,294.3c4.8,6.1,14.4,11.4,23.7,8.6 M124.5,231.9
	c4.4-0.6,7.7-4,8.3-5.9c3.9,2.2,8,3.4,12.3,3.5"/>
<polygon class="st19" points="219.6,250.7 215.9,245.5 235.1,215.2 240.6,217.4 "/>
<path class="st4" d="M175.4,202.3c4.3,5.9,5.2,11,6.2,19.5"/>
<polygon class="st20" points="234,186.6 215.9,218.2 144.9,218.9 173.8,187.8 "/>
<polygon class="st21" points="215.9,245.5 145.6,245.5 144.9,218.9 215.9,218.2 "/>
<polygon class="st22" points="142.7,250.7 219.6,250.7 215.9,245.5 145.6,245.5 "/>
<polygon class="st23" points="142.7,250.7 219.6,250.7 215.9,245.5 145.6,245.5 "/>
<polyline class="st23" points="145.6,245.5 144.9,218.9 215.9,218.2 215.9,245.5 "/>
<polygon class="st22" points="215.9,245.5 215.9,218.2 234,186.6 235.1,215.2 "/>
<polygon class="st23" points="215.9,245.5 215.9,218.2 234,186.6 235.1,215.2 "/>
<polyline class="st23" points="235.1,215.2 240.6,217.4 219.6,250.7 "/>
<path class="st7" d="M228.3,240.3l-1-0.2l3.4-5.6l-0.6-0.5c-1.1-3.5-3.2-7.3-6.2-9.5l3.8-1.1l0.6-3.6
	C237.8,222,244.5,236.3,228.3,240.3z"/>
<polyline class="st23" points="144.9,218.9 173.8,187.8 234,186.6 "/>
<path class="st24" d="M227.7,223.4l-3.8,1.1v-20.4l-65.8,0.5l3.2-3.5l64.4-0.4C225.8,207.9,227.7,216.2,227.7,223.4z"/>
<path class="st25" d="M227.7,223.4l-3.8,1.1v-20.4l-65.8,0.5l3.2-3.5l64.4-0.4C225.8,207.9,227.7,216.2,227.7,223.4z"/>
<path class="st9" d="M234.2,222.9c-0.3,2.6-5.3,7.7-6.3,6.1c-1.1-1.7-2.4-3.3-3.9-4.5l3.8-1.1l0.6-3.6
	C230.9,220.3,232.4,221,234.2,222.9z"/>
<path class="st4" d="M230.1,234.1c-1.1-3.5-3.2-7.3-6.2-9.5l3.8-1.1l0.6-3.6c9.4,2.2,16.1,16.5,0,20.6"/>
<polygon class="st24" points="177,250.7 182.8,250.7 184.3,245.5 184.3,218.5 205.5,187.2 201.6,187.3 178.5,218.6 178.5,245.5 "/>
<polygon class="st25" points="177,250.7 182.8,250.7 184.3,245.5 184.3,218.5 205.5,187.2 201.6,187.3 178.5,218.6 178.5,245.5 "/>
<path class="st24" d="M194.8,188c1.8,2.5,1.6,7.3,1.7,12.1c0,0.8-11.6-0.8-14.1-3.5C174.5,188.1,189.2,178.9,194.8,188z"/>
<path class="st24" d="M196.9,200c-0.9,6.2,0.7,12.6,5.3,15c8.2,4.4,14.9-7.8,9.9-12.5C208.7,199.3,200.8,199.7,196.9,200z"/>
<path class="st25" d="M194.8,188c3,4.3,0.5,15.2,2.7,21.1c1.8,6.9,9.7,9,14.1,4.1c2.9-3,3.9-8.8-0.8-11.8c-6.9-3.9-21.5,2-28.4-4.8
	C174.5,188.1,189.2,178.9,194.8,188z"/>
<path class="st20" d="M192.6,196.7c0.3-3,0.1-6.5-2.3-8.2c-3.7-2.7-7.6,2.1-5.2,5.1C186.8,195.7,190.3,196.5,192.6,196.7z"/>
<path class="st25" d="M192.6,196.7c0.3-3,0.1-6.5-2.3-8.2c-3.7-2.7-7.6,2.1-5.2,5.1C186.8,195.7,190.3,196.5,192.6,196.7z"/>
<path class="st20" d="M199.8,203.4c0.4,3.2,1.6,6.8,3.8,7.8c4.6,1.9,7.6-3.8,4.7-6.3C206.1,203.1,202.2,203.1,199.8,203.4z"/>
<path class="st25" d="M199.8,203.4c0.4,3.2,1.6,6.8,3.8,7.8c4.6,1.9,7.6-3.8,4.7-6.3C206.1,203.1,202.2,203.1,199.8,203.4z"/>
<path class="st4" d="M228.1,229.5c2.5,0.1,5.3-2.2,6.4-6.3"/>
<path class="st4" d="M42.7,136.7c2.7-26.7,44.5-37.1,55.2-6.4c6.5,19.5-9,36.2-27.6,39.9c-34.6,5.8-56.2-30.1-49.2-59.9
	c6-31.2,43.6-46.2,65.9-27.4c9.6,10.3,5.9,31-10,29"/>
<path class="st26" d="M108.6,218c-5.9,0.6-11.5-2.2-14.9-6.6C94.4,218.2,102.6,220.9,108.6,218z"/>
<path class="st13" d="M130.6,45.9c5.9-0.6,11.5,2.2,14.9,6.6C144.7,45.7,136.6,43,130.6,45.9z M86.2,35.4c7-2.4,14.6-0.5,19.9,3.9
	C103.3,31.1,92.7,30.1,86.2,35.4z"/>
</svg>
