<?xml version="1.0" encoding="utf-8"?>
<!-- Generator: Adobe Illustrator 21.1.0, SVG Export Plug-In . SVG Version: 6.00 Build 0)  -->
<svg version="1.1" id="Layer_1" xmlns="http://www.w3.org/2000/svg" xmlns:xlink="http://www.w3.org/1999/xlink" x="0px" y="0px"
	 viewBox="0 0 481.8 412.7" style="enable-background:new 0 0 481.8 412.7;" xml:space="preserve">
<style type="text/css">
	.st0{fill:#009CD9;}
	.st1{fill:#00BBEB;}
	.st2{fill:#FDCEAE;}
	.st3{fill:#EBB081;}
	.st4{fill:none;stroke:#823436;stroke-width:1.7008;stroke-linecap:round;stroke-linejoin:round;stroke-miterlimit:22.9256;}
	.st5{fill:#007BBF;}
	.st6{fill:#F8ABAD;}
	.st7{fill:#F9A57B;}
	.st8{fill:#FCC8A8;}
	.st9{fill:#A16044;}
	.st10{fill:#D58F5C;}
	.st11{fill:#80CEF3;}
	.st12{fill:#FFFFFF;}
	.st13{fill:#C7EAFB;}
	.st14{fill:#FEE6D3;}
	.st15{fill:#FFEDE0;}
	.st16{fill:none;stroke:#18537E;stroke-width:1.7008;stroke-linecap:round;stroke-linejoin:round;stroke-miterlimit:22.9256;}
	.st17{fill:#FACE4D;}
	.st18{fill:#FFE9A8;}
	.st19{fill:#FFE293;}
	.st20{fill:#FBD669;stroke:#E8B337;stroke-width:1.7008;stroke-linecap:round;stroke-linejoin:round;stroke-miterlimit:22.9256;}
	.st21{fill:none;stroke:#E8B337;stroke-width:1.7008;stroke-linecap:round;stroke-linejoin:round;stroke-miterlimit:22.9256;}
	.st22{fill:#F6ADCD;stroke:#A1587B;stroke-width:1.7008;stroke-linecap:round;stroke-linejoin:round;stroke-miterlimit:22.9256;}
	.st23{fill:#F6ADCD;}
	.st24{fill:none;stroke:#A1587B;stroke-width:1.7008;stroke-linecap:round;stroke-linejoin:round;stroke-miterlimit:22.9256;}
	.st25{fill:#FFE9A8;stroke:#A1587B;stroke-width:1.7008;stroke-linecap:round;stroke-linejoin:round;stroke-miterlimit:22.9256;}
	.st26{fill:#8CD0EA;}
	.st27{fill:#ABE1FA;}
</style>
<path class="st0" d="M101.6,308.6l-0.1-5.1c-5,0.8-10.7-1.6-17.1-7.2l-0.5,6.3c-5.3-0.4-8-4.8-9.4-8.7c-6.2-2-11.1-7.4-13.5-20.1
	c-5.7-6.3-9.6-11.8-9.4-24.9c6.4,5.8,13.3,10,16.5,11.9l-1.8-7.4l7.3,0.1c-6.9-8.6-12.6-16.9-17.4-22.3c1.2-10.1,8.4-22.3,13.9-29.3
	l105.2,0.4c11.2,13.2,0.3,28.1,7.3,42.3c1.4,12.2-5.1,26.2-11.8,30.5c1.1,9.2-6.9,20.7-16.8,20.4c-1.4,6.9-14.6,15.4-25.7,13.7
	C120.7,312.2,108.4,312.1,101.6,308.6z"/>
<path class="st1" d="M178.7,167.5l-98.6-22.4l-30.2,23.6c-2.9,12.8-0.2,20.9,5.2,26.9c-5.6,13.2,9.8,26.9,23.3,20.4
	c-1.9,10,17.8,24,34.3,9.7c8.2,5.7,16.1,8.8,19.9,0c4.1,2.4,8.4,3.4,12.6,3.5c18.2,0.4,35.2-18.4,28.6-37c2.4-1.1,4.3-2.8,5.8-4.9
	C183.4,181.9,183.8,173.9,178.7,167.5z"/>
<path class="st2" d="M172.9,99.6l-36-28.8l2.3-29.7C176,25.4,206.4,75.2,172.9,99.6z"/>
<path class="st3" d="M172.9,99.6l-42.8-16.5l2.2-27.9C174.1,41.5,196.1,80.2,172.9,99.6z"/>
<path class="st0" d="M167.9,171.2c-8.1,12.8-37.6,23.9-71.8-5.1l1.2-16.4c7.6-18.3-5.4-36.2-20.4-37.9c5.4,1,9.6-0.8,12.5-5.3
	l37-46.9l16.8,8.8c12.8,6.2,25.1,20.7,32.4,36.4c18.3,13.6,18.9,49.8,10.7,57.2C182.3,166.2,175.9,169.6,167.9,171.2z"/>
<path class="st4" d="M139.2,41.1c36.7-15.7,67.2,34.1,33.7,58.5"/>
<path class="st0" d="M165,86.9c-5.6-8.5-11.4-11.5-18.4-16.7c10.7-12.2,22.3-10.9,29.4-15.7C178.2,63.8,176,79.5,165,86.9z"/>
<path class="st5" d="M165,86.9c-5.6-8.5-7.4-8.8-14.5-14c16-9.4,18.9-6.5,26.3-14.5C177.4,69.2,174.5,80.2,165,86.9z"/>
<path class="st6" d="M160.1,81.6l-5.4-5.5c2.4-3.7,18.4-12.4,17.4-6.2C171.1,76.1,159.6,83,160.1,81.6z"/>
<path class="st7" d="M135.4,303.1l-15.8,8c-1.7,23.7,0.6,36.1,6.1,47.4l3.4-4.2l-0.1-4.2C126.4,333.8,127.4,313.2,135.4,303.1z"/>
<path class="st8" d="M138.6,308.1l-12.6,1.8c-1.5,12.8-2,38.2,2.9,40.2l3.8,1.1C132.4,336.7,134.3,327.5,138.6,308.1z"/>
<path class="st8" d="M101.5,303.5l-17.1-7.2c-1.5,28.7-1,50.3,5,63.1l0,0c2.6-3.3,5.6-5.3,9.6-4.2C99.3,345.9,99.4,337,101.5,303.5z
	"/>
<path class="st7" d="M93.1,301.9l-8.7-5.7c-5.1,28.1,0.7,49.5,5,63.1l3.3-3.5l0,0C89.4,344.8,90.8,319.1,93.1,301.9z"/>
<path class="st9" d="M99.6,354.8c-3.6-0.9-9.8,0.6-10.3,4.6c1.4,2,1.9,4.7,2.9,6.6l2.8-5.5l5.7,1.5
	C100.4,359.8,100.7,357.6,99.6,354.8z"/>
<path class="st10" d="M65.7,286.4l-7.5-5.7C47,296.5,24.1,292,35.5,274.1C15.8,291,47.8,308,65.7,286.4z"/>
<path class="st5" d="M101.6,308.6l-0.1-5.1c-4.7,0.8-11.1-1.5-17.1-6.9l-0.5,5.9c-4.1-0.3-15.8-11.6-14.5-13.3
	c-17.2-3.2-24-43.6-16.6-51.8c-6.8-9.5-4.6-23.3,2.3-29.3c6.5,10.2,14.5,11.1,23.3,7.8l1.2,6.1l5.8,6.1c-1,8.2,2.7,14.2,12.2,17
	c-8,3-8,13.9-4.8,19c-3.5,5.1-0.4,9.8,4.5,10.5c1.7,10.2,17.4,9.2,21.6,3.8c3.7,8.1,32.7,18.5,46.8-2c1.1,8.6-7.3,14.4-15.5,16.5
	c-1.3,6.5-11.6,17.6-22.1,16C121.2,312,108,311.9,101.6,308.6z"/>
<path class="st0" d="M80.1,145.1l-30.2,23.6c-2.9,12.8-0.4,19,3.3,24.6c-5.6,19.8,19.1,26.2,27.9,17.9c-0.7,8.1,8.4,17.4,17.9,12.9
	c-6.9,0.6-16.7-6.9-13.7-18.4c-6.7-0.4-15.3-9.1-4.8-18c4.4-2.4,8.7-5.1,11.4-10.1C83.3,169,99.2,160.4,80.1,145.1z"/>
<path class="st0" d="M97.3,149.7c-5.7,10.2-17.8,19.2-27.9,20.6c-3.1,7,3.9,16.1,1.7,21.5C95.1,186.1,99.9,162.7,97.3,149.7z"/>
<path class="st5" d="M102,170.3l-5.3-3.7l0.1-9.5c-4.5,10.5-17.3,16.6-26.5,13l27-20.5c7.6-18.3-5.4-36.2-20.4-37.9
	c5.4,1,9.6-0.8,12.5-5.3l47.4-35.7c1.7,15.6-5.9,25.3-18.3,24.9c0,6.1-3.6,9.4-8.4,11.6c-6.5,9.7-0.4,20.9,8,30l-8.1,4.9
	C120.8,141.9,108.5,166,102,170.3z"/>
<path class="st11" d="M114.8,91.3c-1.4,8.9-7.7,15.8-24.3,14.8C95.4,86.5,87.8,72.4,53,75c-1.1-10.3,1.1-16.7,10-21.5
	c0.6-24.4,41.2-29.8,45.4-17.4c5.7-7.6,21.3-4.9,21.3,5.9c18.4-8.2,32.8,22.7,7.3,28.7C138.5,80.2,130.5,91,114.8,91.3z"/>
<path class="st1" d="M105.4,84.2c2.9,8.7-5.1,17.8-19.4,16.9c4.2-16.7-3.2-23.9-33.1-21.7C50.7,66.7,63.1,59.3,71,61.1
	c0.5-20.9,26.6-21.4,32.2-13.9c4.9-6.5,15.2-3.2,15.4,4c15.5-6.3,22.3,18.3,5.2,21.5C125.2,80.8,115,87.5,105.4,84.2z"/>
<path class="st1" d="M93.8,164.3c-3,7.7-8.5,17.3-14.2,21.1C88.2,182.9,93.6,173.1,93.8,164.3L93.8,164.3z M139.1,116.4
	c-5.2-6.5-11-9.9-19.8-12.3C126.6,101.7,135.2,107.6,139.1,116.4L139.1,116.4z M166,98.1c-3.9-5.4-10.6-11.2-17.2-12.5
	C156.3,84.1,163.5,91,166,98.1L166,98.1z M187.8,134.3c0.8-10.9-7.2-36.8-25.6-22.2C182,104,185.9,124.9,187.8,134.3L187.8,134.3z
	 M169.6,146.8c8.5,1.3,14.5-2.8,14.7-9.3C186,147.3,179.9,151.7,169.6,146.8z"/>
<path class="st2" d="M76.9,111.8c7.2-0.5,17.8,8.3,21,18.5c6.5,19.5-9,36.2-27.6,39.9c-34.6,5.8-56.2-30.1-49.2-59.9
	C27.1,79,64.7,64,87,82.8C96.6,93.1,92.9,113.8,76.9,111.8z"/>
<path class="st3" d="M76.9,111.8c-18.8-2.8-33.5,12-34.2,24.8c1.8-17.7,36.2-17.6,33.4,1.5c-2.1,15.2-32.8,18.8-39.3-6
	C30.5,109.1,56,88.6,81,96.2C89.9,99.5,86.9,111.5,76.9,111.8z"/>
<path class="st12" d="M130.5,136.2l-7-0.2c-10.1-8.9-12.7-21.9-9.9-26.2c5.7-6.9,23.2,1.9,27.3,14.1
	C141.9,126.8,137.5,134.4,130.5,136.2z"/>
<path class="st13" d="M120.9,113.6c5.7-4.4,17.9,1.4,20,11.9l-4.9,8.1l-5.5,2.7l0,0C124.3,133.8,115.4,119.6,120.9,113.6z"/>
<path class="st12" d="M166.8,106.3l0.7-0.3c-3.8,1.2-6.5,3.2-9.5,7c-9.4-2-17.9-18.8-13.3-23.9C150.1,85.8,160.4,90.3,166.8,106.3z"
	/>
<path class="st13" d="M152,94.8c4.1-3.8,11.4,4.6,14.8,11.6l-7.7,5.4C153.8,111.2,147.8,99.4,152,94.8z"/>
<path class="st4" d="M58.2,280.7c-18.5,20.2-32.5,3.7-22.7-6.6c-19.1,15.2,10,34.8,29.2,13.4"/>
<path class="st9" d="M132.8,351.3c-5.2-2.1-6.7-0.6-9.3,2c1,3.9,1,3.1,2.3,5.2l3.4-4.2l4.2,3C133.1,354.9,132.8,354.4,132.8,351.3z"
	/>
<path class="st4" d="M84.4,296.2C81,313,82.6,347.5,92.3,366l2.8-5.5l5.7,1.5c-3.5-17.3-0.3-33.3,0.7-58.6"/>
<path class="st4" d="M119.6,311.1c-2.6,22.6,2.1,40.7,6.1,47.4l3.4-4.2l4.2,3c-2.2-19.5,1.1-29.4,5.4-49.2"/>
<circle cx="134.4" cy="124.1" r="6"/>
<circle class="st12" cx="128" cy="123.9" r="2.8"/>
<circle class="st12" cx="120" cy="119.5" r="3.2"/>
<circle class="st12" cx="150.6" cy="98.6" r="2.5"/>
<circle cx="160.4" cy="103.7" r="5.3"/>
<circle class="st12" cx="155.8" cy="104.2" r="2.5"/>
<path class="st4" d="M49.8,96c-0.7-6.1-6.1-10.3-10.6-9.8"/>
<path class="st4" d="M40.2,97.8c-0.4-3.5-3.4-5.8-6-5.6"/>
<path class="st4" d="M42.7,136.6c7.1-5.4,28.3-10.6,29.3,1.3"/>
<path class="st4" d="M99.8,356.2c-0.3-2.3-8.2-2.2-10.4,3.1"/>
<path class="st4" d="M123.6,354.2c-1.4-2.4,5.6-5.5,9.2-2.9"/>
<path class="st14" d="M78.2,81.4C67.6,79.3,57,79.9,44.8,83C56.2,76.4,67.3,76.2,78.2,81.4z"/>
<path class="st15" d="M81.7,162.1c7.8-7,12.5-15.2,14.2-26.5C97.6,149.1,90.7,157.3,81.7,162.1z"/>
<path class="st8" d="M156.3,250.5h-13.7l3-5.2l-0.1-5.2c-10.2-0.9-21-5.7-32.6-14.4l-9.3,4.8C126.4,253.7,140.8,258.3,156.3,250.5z"
	/>
<path class="st7" d="M156.3,250.5h-13.7l3-5.2c-9.8,7.8-27.8-9.6-37.4-17.2l-4.7,2.4C126.4,253.7,140.8,258.3,156.3,250.5z"/>
<path class="st4" d="M81.4,117.9c-2.2-0.1-3.8,1.7-3.9,3.2"/>
<path class="st4" d="M87,122.4c-1.9-0.5-4.5,0.9-5.3,3.3"/>
<path class="st4" d="M112.8,225.7c7.7,6,20.7,14.1,32.6,14.4"/>
<path class="st4" d="M103.5,230.6c23,23.2,37.4,27.7,52.8,20"/>
<path class="st16" d="M124.4,231.7c4.4-0.6,7.7-4,8.3-5.9c3.9,2.2,8,3.4,12.3,3.5 M82.5,294.1c4.8,6.1,14.4,11.4,23.7,8.6
	 M55.1,195.6c-6.4-6.2-8.3-19.2-5.2-26.9 M82,302.1c-4.9-1.7-11.4-8.6-12.5-12.9c-16.1-1.5-24.8-42.5-16.6-51.8
	c-5.8-5.4-5.3-23.1,2.3-29.3 M182.7,250.3c-0.7,10.5-6.2,21.1-11.9,24.7c1.1,9.2-6.9,20.7-16.8,20.4c-1.4,6.9-14.6,15.4-25.7,13.7
	c-7.1,2.9-18.4,3-25.4,0.1 M133,276.4c3.6,3,7.8,0,7.2-2.8 M100.1,276c0.9,4.1,5.5,4.3,6.6,2 M99.8,289.5c2,3.7,6.5,2.7,6.9,0.1
	 M83.1,266.5c1.1,5.1,6.8,5.3,8.2,2.5 M151.3,268.2c3.1,2.6,6.6,0,6.1-2.3 M114.8,91.3c0,8.5-11.6,17.5-24.3,14.8 M53,75
	c-3.8-11.2,5.6-24.5,20.2-23 M96.4,68.5c1.6,3.8,6.3,1.5,6.3-1.4 M93.4,83c3.8,3.4,8.3,0.3,7.8-2.7 M111.4,75.5
	c3.9,4,9.3,0.7,8.6-3.5 M123.2,63.3c1.4,2.3,4.2,0.3,3.8-1.6 M123.5,136c-10.1-8.9-12.7-21.9-9.9-26.2c5.7-6.9,23.2,1.9,27.3,14.1
	c1.1,2.9-3.3,10.5-10.3,12.3 M172,148.6c9.8,2.8,13.7-4.2,13.2-10.6 M121.2,165.9c2.3-0.4,3.9-2.4,4.1-4.9 M69.4,170.3
	c-3.2,8.7,4.2,16.5,1.7,21.5c24.1-8.1,27-22.7,26.2-42.1 M181.8,147.3c3.7,3.9,5.7,13.4,2.6,16.5 M167.9,171.2
	c-4.1,11-33.3,22.7-65.9-0.9 M143.2,68.4c12.8,6.2,25.1,20.7,32.4,36.4c18.3,13.6,18.9,49.8,10.7,57.2c-10,10.3-33.8,15.8-61.9,1.7
	 M137.7,139.4c-6.6-5.2-18.8-5.2-27.6,2.8 M175.6,104.8c-6.5-0.3-12.8,2.2-17.6,8.2c-9.4-2-17.9-18.8-13.3-23.9
	c5.3-3.3,15.6,1.1,22.1,17.2 M148.1,82.5c-2.8-2.1-7.9-0.7-10.1,2.2 M146.6,70.3c10.5-12,23.7-11.7,29.4-15.7
	c2.2,6.3,1.8,23.1-11,32.3 M63,53.5c0.6-24.4,41.2-29.8,45.4-17.4c6-6.7,20.1-4,21.3,5.9c18.4-8.2,32.8,22.7,7.3,28.7
	c1.6,9.5-6.4,20.2-22.1,20.5 M110.2,107.3c-3,2-3.6,6.1-1.8,9.7 M117.4,220.9c-14.5,18.8-40.2,9.2-38.9-4.9
	c-14.2,7.7-30.6-10.3-25.3-22.6 M117.3,197.3c3,4.1,8.1,2,8.2-1 M129.8,205c2.5,3.3,6.7,1.6,6.8-1 M153,190.7
	c2.4,1.7,4.9-0.4,4.4-2.1 M179.7,187.3c3.7-5.4,4.1-13.5-1-19.8"/>
<polygon class="st17" points="219.5,250.5 215.8,245.3 235,215 240.5,217.2 "/>
<path class="st4" d="M175.3,202.2c4.3,5.9,5.2,11,6.2,19.5"/>
<polygon class="st18" points="233.9,186.5 215.8,218 144.8,218.7 173.7,187.7 "/>
<polygon class="st19" points="215.8,245.3 145.5,245.3 144.8,218.7 215.8,218 "/>
<polygon class="st20" points="142.6,250.5 219.5,250.5 215.8,245.3 145.5,245.3 "/>
<polyline class="st21" points="145.5,245.3 144.8,218.7 215.8,218 215.8,245.3 "/>
<polygon class="st20" points="215.8,245.3 215.8,218 233.9,186.5 235,215 "/>
<polyline class="st21" points="235,215 240.5,217.2 219.5,250.5 "/>
<path class="st7" d="M228.2,240.1l-1-0.2l3.4-5.6l-0.6-0.5c-1.1-3.5-3.2-7.3-6.2-9.5l3.8-1.1l0.6-3.6
	C237.7,221.8,244.4,236.1,228.2,240.1z"/>
<polyline class="st21" points="144.8,218.7 173.7,187.7 233.9,186.5 "/>
<path class="st22" d="M227.6,223.2l-3.8,1.1l0-20.4l-65.8,0.5l3.2-3.5l64.4-0.4C225.7,207.8,227.6,216,227.6,223.2z"/>
<path class="st9" d="M234.1,222.7c-0.3,2.6-5.3,7.7-6.3,6.1c-1.1-1.7-2.4-3.3-3.9-4.5l3.8-1.1l0.6-3.6
	C230.8,220.1,232.3,220.8,234.1,222.7z"/>
<path class="st4" d="M230,233.9c-1.1-3.5-3.2-7.3-6.2-9.5l3.8-1.1l0.6-3.6c9.4,2.2,16.1,16.5,0,20.6"/>
<polygon class="st22" points="176.9,250.5 182.7,250.5 184.2,245.3 184.2,218.3 205.4,187.1 201.5,187.2 178.4,218.4 178.4,245.3 
	"/>
<path class="st23" d="M194.7,187.9c1.8,2.5,1.6,7.3,1.7,12.1c0,0.8-11.6-0.8-14.1-3.5C174.4,188,189.1,178.8,194.7,187.9z"/>
<path class="st23" d="M196.8,199.9c-0.9,6.2,0.7,12.6,5.3,15c8.2,4.4,14.9-7.8,9.9-12.5C208.6,199.2,200.7,199.6,196.8,199.9z"/>
<path class="st24" d="M194.7,187.9c3,4.3,0.5,15.2,2.7,21.1c1.8,6.9,9.7,9,14.1,4.1c2.9-3,3.9-8.8-0.8-11.8
	c-6.9-3.9-21.5,2-28.4-4.8C174.4,188,189.1,178.8,194.7,187.9z"/>
<path class="st25" d="M192.5,196.6c0.3-3,0.1-6.5-2.3-8.2c-3.7-2.7-7.6,2.1-5.2,5.1C186.7,195.6,190.2,196.4,192.5,196.6z"/>
<path class="st25" d="M199.7,203.3c0.4,3.2,1.6,6.8,3.8,7.8c4.6,1.9,7.6-3.8,4.7-6.3C206,203,202.1,203,199.7,203.3z"/>
<path class="st4" d="M228,229.3c2.5,0.1,5.3-2.2,6.4-6.3"/>
<path class="st4" d="M42.7,136.6c2.7-26.7,44.5-37.1,55.2-6.4c6.5,19.5-9,36.2-27.6,39.9c-34.6,5.8-56.2-30.1-49.2-59.9
	C27.1,79,64.7,64,87,82.8c9.6,10.3,5.9,31-10,29"/>
<path class="st26" d="M108.6,217.8c-5.9,0.6-11.5-2.2-14.9-6.6C94.4,218,102.6,220.7,108.6,217.8z"/>
<path class="st27" d="M86.2,35.3c7-2.4,14.6-0.5,19.9,3.9C103.3,31,92.7,30,86.2,35.3L86.2,35.3z M130.5,45.8
	c5.9-0.6,11.5,2.2,14.9,6.6C144.6,45.6,136.5,42.9,130.5,45.8z"/>
<g id="XMLID_14_">
</g>
<g id="XMLID_15_">
</g>
<g id="XMLID_16_">
</g>
<g id="XMLID_17_">
</g>
<g id="XMLID_18_">
</g>
<g id="XMLID_19_">
</g>
</svg>
