<?xml version="1.0" encoding="utf-8"?>
<!-- Generator: Adobe Illustrator 21.1.0, SVG Export Plug-In . SVG Version: 6.00 Build 0)  -->
<svg version="1.1" id="Layer_1" xmlns="http://www.w3.org/2000/svg" xmlns:xlink="http://www.w3.org/1999/xlink" x="0px" y="0px"
	 viewBox="0 0 482 413" style="enable-background:new 0 0 482 413;" xml:space="preserve">
<style type="text/css">
	.st0{fill-rule:evenodd;clip-rule:evenodd;fill:#FFF2AF;}
	.st1{fill-rule:evenodd;clip-rule:evenodd;fill:#FFE07D;}
	.st2{fill-rule:evenodd;clip-rule:evenodd;fill:#FCCA00;}
	.st3{fill-rule:evenodd;clip-rule:evenodd;fill:#E3A921;}
	.st4{fill-rule:evenodd;clip-rule:evenodd;fill:#F7C6C7;}
	.st5{fill:none;stroke:#DB7A77;stroke-width:1.7015;stroke-linecap:round;stroke-linejoin:round;stroke-miterlimit:22.9256;}
	.st6{fill-rule:evenodd;clip-rule:evenodd;fill:#FFFFFF;}
	.st7{fill-rule:evenodd;clip-rule:evenodd;fill:#B5CAD6;}
	.st8{fill-rule:evenodd;clip-rule:evenodd;fill:#1A1A18;}
	.st9{fill-rule:evenodd;clip-rule:evenodd;fill:#F3A5A6;}
	.st10{fill-rule:evenodd;clip-rule:evenodd;fill:#494948;}
	.st11{fill:none;stroke:#1A1A18;stroke-width:1.7015;stroke-linecap:round;stroke-linejoin:round;stroke-miterlimit:22.9256;}
	.st12{fill:none;stroke:#A16215;stroke-width:1.7015;stroke-linecap:round;stroke-linejoin:round;stroke-miterlimit:22.9256;}
	.st13{fill-rule:evenodd;clip-rule:evenodd;fill:#FFE67E;}
</style>
<polygon class="st0" points="293.5,142.2 385.7,139.4 406.5,185.5 345.2,215.2 289.1,186.8 "/>
<path class="st1" d="M300.5,165.5c2.1,9.5,10.7,17.3,26.2,21.8l-0.7-3.7c5.3,9.7,8.2,13.8,11.6,18.6c3.1,1.6,13.8-7.3,13.8-10.4
	c35.7-12.6,35.4-39.3,20.1-41.3l16.6-5.6l18.3,40.6l-61.2,29.6l-56.1-28.3L300.5,165.5z"/>
<path class="st2" d="M288.2,300.1c-2.2,8.5,0.2,18,6.4,24.7c-16.4,7.6-20.3,21.5-13.7,27.4c-0.6,7.5,11.1,11.9,21.8,6
	c14.1,10.2,42.4-14.6,37.7-27.6c4.4-1.3,8-4.5,10.8-10c2.5,5.2,6.6,8.2,11.6,10.1c1.7,15.5,21.1,34.5,39.3,31.8
	c9.6,4.2,20.8-0.7,20.7-6.7c6.6-5.8,3.2-19.4-13.6-28.9c2.2-5.5,3.3-14.8,2.3-20.3c11.3-12.4,17.2-26.3,18.9-41.3l-37.4-119l-18.7,1
	c9,2,12.8,8.2,12,20.1c0,17.9-18.1,30.6-46.5,39.7c-2-6.6-10.6-14.6-13.2-23.2c0.5,4.7,1.7,9.4,3.5,14.1
	c-24.8-12-36.3-26.5-26.1-40.8l-7.4,6.3c1.5-7.1-3.1-9.4,1.4-16.6c2.9-2.8,8.7-3.5,15.9-0.9l-7.9-4.4l-11,0.7
	c-10.7,1.8-16.1,17.8-24.5,22.7l9.6-1.6c-13.1,10.3-15.5,25.3-9,44.1c-4.3,8.4-8.6,21.8-8.5,32.6l4.3-2.9
	C260.4,260,270.5,286.1,288.2,300.1z"/>
<path class="st2" d="M389.9,19.5c6-12.2,14.9-16,27.1-15.4l-5.5,4.2c28.3-4.5,33.4,40.4,5.7,43.9c13.3,15.9,14.8,30.8,9.3,52.4
	l-3.3-2.5c-1.5,20.2-11.4,34.9-28.3,45c-6.8,1.2-10.7,0.3-17.3,0.2c-19.1-1-24,17-40.2,10.1c-15-9.3-27.8-15.7-42.4-12l-2.9-3.2
	c-10.3-6.5-19.2-25.8-17.8-38.4l-2.5,7.9c-5.4-14.4-5.6-46.4,9.8-63.8C263,47.4,258.2,23.9,270,12c13.8-13.8,35.4-6.1,34.5,10.1
	c4-9.9,15.4-10.6,25.3-18.8c-0.6,2-2.8,4.5-6.7,7.3c6.5-4.3,15.2-3.7,21.3-9.5c-0.1,2.9-1,5.5-2.8,7.6c3.5-1.3,5.9-3.7,7.3-7
	C356.7,10.2,377.8,6.6,389.9,19.5z"/>
<path class="st3" d="M397.1,147.8c13,4.3,18.7,14.4,25.8,26.5l-3.9-0.1c3.2,7.2,4.3,15.2,2.5,24.4c6.8,10.1,10.5,20.8,12.1,32
	l-4.3-1.6c8,23.7-2.3,66-19.9,79.9c-0.9,15.4-8.5,23.7-22.8,24.8c7.5,2.3,15,0.6,22.4-3.9c15.5,9.2,12.7,19.4-9,22.5
	c-12.4,0.6-15.6,4.5-9.6,9.1c-15.5-6.4-24.7-16.7-27.4-30.8c-5.5-2.4-9.4-5.8-11.6-10.1l-4.4,6.1l-6.4,3.9
	c4.3,14.1-25.4,37.3-37.7,27.6c-9.2,6.9-21.6,2.7-22.8-7c-2.6-4.5-2.6-9,0.1-13.6l3.8-5.4c-3.8,5.4-5.4,9.4,1,10.6
	c-3.6,5.7,8.9,11.5,18.6,5.9c6.2,0.9,22.8-14.1,7.1-21.2c16.8,0.3,29.3-7.8,24.8-21.6l-4.1-1.5l-7.8-4.3
	c27.2,8.5,59.7-3.2,65.4-32.3l-48.6-15.4l5.2-3c54.1-14.3,66.4-61.8,40.5-91c-2.5-6.5-8.8-7.8-14.3-7.9c-9.8,0.6-23,10.5-25.7,7.7
	l-8.7-0.9l-6.6-4.1c6,3.2,22.2-10.6,35.7-11.3c30.6,0.6,67.5-33.8,34.3-64.8c8.6-36.5-19.4-64.5-59.1-68.5l4.4-2.7l2.9-4.3
	c8.4,10,30.1,3.8,40.9,18l2.3,7c4.3-5.3,6.9-7.1,13-7.8l-2.4,8c7.2,27.6,40.5,4,22.2-11.6c18.3,6.5,9.6,35.9-8,37.1
	c11.2,15.2,14.3,29.8,9.4,52.4l-3.3-2.5C421.3,120.6,414.5,136,397.1,147.8z M355.8,123.6l-14.1-7l-13.4,8.1
	C333.9,136.9,351.4,135.3,355.8,123.6z M284.3,293.1c-10.7-18-14.2-26.9-5.7-48.2c2-8.9,13.7-7.4,21.4-8.2
	c8.8,3.4,20.6,6.4,33.9,9.2l-0.1-8.6c-40.8-8.4-66.2-26-64.4-59.8c-2.9,10-1.9,20,1.7,30.1c-3.8,7.2-8,19.7-8.5,32.6l4.3-2.9
	C258.1,260.1,273.9,287.6,284.3,293.1z"/>
<path class="st1" d="M383.5,177.6c-5,14.9-26.9,24.9-43.6,29.4c-2.6-8.6-11.7-15.2-13.2-23.2c-0.1,4.4,1.1,9.1,3.5,14.1
	c-6.8-3.1-8.9-3.9-13.6-7.7c1.7,15.5,16.2,23.7,24.3,35.6c-6.5,5.7-8.8,12.4-6.9,20l-9.9-1.5l-21.2-6.1l-0.3,10.6l1.2,10.6
	c7,30.3,38.7,36.3,60.1,30.6c24.5-9.4,30.9-27.1,30.1-54.7c-19,12.2-37.2,19.8-53.8,17.2l-4,0.4l-2.2-7c-1.4-6.8-0.2-13.6,6.9-20.1
	C372.6,207.1,383.7,193.5,383.5,177.6z"/>
<path class="st4" d="M404.9,41.4c-3.4-1.6-6.1-3.9-7.1-7.9c-0.2-6.8,2.3-11.7,7.4-14.8v6.5c3.8-7.3,14.5-7.3,16.5,2.3
	C423.6,35.6,416.5,46.8,404.9,41.4z"/>
<path class="st5" d="M397.8,33.5c-0.2-6.8,2.3-11.7,7.4-14.8v6.5c3.8-7.3,14.5-7.3,16.5,2.3c1.8,8.1-5.3,19.3-16.8,13.9"/>
<path class="st4" d="M282.8,16.1c2,1.7,3,3.7,3.6,6c-3.9-2.5-9.1,0.2-10.2,4.3c-1.2,4-0.3,8.2,2.6,10.7c0.2-2.3,1.2-4.1,2.9-5.5
	c-2.1,5.4,2.4,8.8,7.6,7.2C302.2,34.4,297.3,15.3,282.8,16.1z"/>
<path class="st5" d="M282.8,16.1c2,1.7,3,3.7,3.6,6c-3.9-2.5-9.1,0.2-10.2,4.3c-1.2,4-0.3,8.2,2.6,10.7c0.2-2.3,1.2-4.1,2.9-5.5
	c-2.1,5.4,2.4,8.8,7.6,7.2C302.2,34.4,297.3,15.3,282.8,16.1z"/>
<path class="st6" d="M316.6,83.3c6.2,0,11.2-5.1,11.2-11.4c0-6.3-5-11.4-11.2-11.4c-6.2,0-11.2,5.1-11.2,11.4
	C305.4,78.1,310.4,83.3,316.6,83.3z"/>
<path class="st6" d="M367.3,80.3c6.2,0,11.2-5.1,11.2-11.4c0-6.3-5-11.4-11.2-11.4c-6.2,0-11.2,5.1-11.2,11.4
	C356,75.2,361.1,80.3,367.3,80.3z"/>
<path class="st7" d="M317.2,67.5c3.8,1.8,5.5,6.4,3.7,10.3c-1.7,3.9-6.3,5.6-10.1,3.8c-3.8-1.8-5.5-6.4-3.7-10.3
	S313.4,65.7,317.2,67.5z"/>
<path class="st7" d="M368.1,64.7c3.8,1.8,5.5,6.4,3.7,10.3c-1.7,3.9-6.3,5.6-10.1,3.8c-3.8-1.8-5.5-6.4-3.7-10.3
	C359.8,64.6,364.2,62.9,368.1,64.7z"/>
<path class="st8" d="M312.6,81.3c2.9,0,5.3-2.4,5.3-5.4c0-3-2.4-5.4-5.3-5.4c-2.9,0-5.3,2.4-5.3,5.4
	C307.3,78.9,309.7,81.3,312.6,81.3z"/>
<path class="st8" d="M363.2,78.4c2.9,0,5.3-2.4,5.3-5.4c0-3-2.4-5.4-5.3-5.4s-5.3,2.4-5.3,5.4C357.9,75.9,360.3,78.4,363.2,78.4z"/>
<ellipse class="st6" cx="315.5" cy="72.9" rx="2.4" ry="2.5"/>
<ellipse class="st6" cx="366.2" cy="70" rx="2.4" ry="2.5"/>
<path class="st9" d="M350.8,122.2l-4.9-2.5l-4.1-3.3l-4.1,4.1l-4.3,2.5C337.2,130.6,349,129.1,350.8,122.2z"/>
<path class="st1" d="M341.9,116.4l-0.1-5.4L341.9,116.4c-8.2,10.5-23.9,11.7-31.4,2.5c-13.8-20,7.9-36,32.4-36.6
	c26.2-1,47.4,18.6,35.3,33.9C368.8,127.6,350.2,125.1,341.9,116.4z"/>
<path class="st0" d="M341.8,111c-4.2,9.6-14.2,15.8-28.2,10.8c10.2,5.6,18.5,4.5,28.2-4.8V111z M310.5,119
	c-13.8-20,7.9-36,32.4-36.6c26.2-1,47.4,18.6,35.3,33.9C386.7,76.5,292.1,76,310.5,119z"/>
<path class="st2" d="M342.1,87.6c9.8-0.2,17.8,3.3,17.9,7.8c0.1,4.5-7.8,8.2-17.6,8.4c-9.8,0.2-17.8-3.3-17.9-7.8
	C324.4,91.6,332.3,87.8,342.1,87.6z"/>
<path class="st10" d="M340.1,87.6c9.4-0.7,17.3,1.7,17.6,5.5c0.3,3.8-7.1,7.4-16.5,8.2c-9.4,0.7-17.3-1.7-17.6-5.5
	C323.3,92,330.7,88.4,340.1,87.6z"/>
<path class="st11" d="M340.1,87.6c9.4-0.7,17.3,1.7,17.6,5.5c0.3,3.8-7.1,7.4-16.5,8.2c-9.4,0.7-17.3-1.7-17.6-5.5
	C323.3,92,330.7,88.4,340.1,87.6z"/>
<path class="st12" d="M367.3,57.5c6.2,0,11.2,5.1,11.2,11.4c0,6.3-5,11.4-11.2,11.4c-6.2,0-11.2-5.1-11.2-11.4
	C356,62.6,361.1,57.5,367.3,57.5z M316.6,60.4c6.2,0,11.2,5.1,11.2,11.4c0,6.3-5,11.4-11.2,11.4c-6.2,0-11.2-5.1-11.2-11.4
	C305.4,65.5,310.4,60.4,316.6,60.4z M387.7,28.2c0.6-12.4,11.1-24.5,29.2-24.2c-2.6,1.4-3.7,2-5.5,4.2c17.5-4.1,29,17.6,21.4,32.4
	c-3.8,8-15.3,14.2-24.6,11.1 M328.4,124.7c5.6,11.2,23.1,11.3,27.5-1.1 M333.5,123c3.5,7.3,15.1,6.8,17.3-0.7 M341.8,111l0.1,5.4
	c-8.2,10.5-23.9,11.7-31.4,2.5c-14.3-19.1,7.9-36,32.4-36.6c28.5-1.4,47.4,18.6,35.3,33.9c-9.4,11.4-27.9,8.8-36.2,0.2 M359.1,153.7
	c-27.6,13.3-23.6-4.9-45.1-7.7 M287.7,116.1c-1.6,0.3-2.8,2.3-3.5,3.8 M400.8,77.1c2.1,0,4,2.2,5.2,4.1 M401.7,68.9
	c2.5,0,3.9,1.5,4.8,2.6 M366.1,174.4c2,1.1,3.2,2.9,3.7,5.1 M372.8,166.7c1.9,1.7,1.8,5.2,1.3,7.8 M308.7,164.3
	c-1.5,0.6-2.8,2.9-3.1,4.8 M314,168c-0.7,2-0.7,4.8,0,6.3 M278.9,269.8c-0.6-1.8,0.7-5,2.4-6.4 M285.7,275.6c-0.8-1.2-0.4-3.7,0.6-5
	 M289.9,287.1c-0.4-0.9,0.2-2.7,1.1-3.5 M412.4,295.1c0.2-1.4-1.3-3.7-2.8-4.5 M401.8,312.7c0.6-1.8-0.7-5-2.4-6.4 M417,277.9
	c-0.1-0.9-1.4-2.1-2.5-2.4 M407.7,304.1c0.3-1.2-0.8-3.3-2-4.2 M282.7,107.1c-1.7,0-3.1,1.7-4.1,3.2 M339.8,207.1
	c15.7-6.2,44.8-14.4,46.5-39.7 M349.3,245.7c-4.9,5.7-10,7.9-13.1,7.2c-3.9-6.4-3.4-12.6,6.8-18.5 M393.1,146.2
	c12.5,4.2,24.5,15.7,29.8,28.1l-3.9-0.1c20.5,50.9-59.6,85.2-78.6,78.3 M397,334.3c13-0.9,16.6-12.8,14.6-27.8
	c15-14.6,26.7-54.4,17.7-77.5l4.3,1.6c-1.6-11.4-5.3-22.1-12.1-32 M402.2,362.4c8.7,4.1,20.5,0.5,20.7-6.7c0.4-5.5-2.6-8.8-6-11.2
	 M362.9,330.7c0.7,12.8,20.5,35.2,39.3,31.8c4.7-2.1,5.3-10.5-1.4-14.8 M333.6,332.6c7.7-1.2,13.6-5.2,17.6-11.9
	c4.1,7.4,10.1,11,17.9,10.9 M340.4,330.6c4.5,18.3-30.1,36.3-37.7,27.6c-0.8-3.5-0.2-7.5,1.8-11.9 M289,297.8
	c-4.6,11-0.2,28.4,17.9,34.8 M271.1,207.6c-5.9,8.3-8.7,22.9-8.5,32.6l4.3-2.9c-5.9,21.1,3.5,48.3,21.3,62.7 M293.5,142.6
	c-9.9,1.3-14.4,17.5-22.9,22.3l9.6-1.6c-18.5,6.5-27.3,72.9,53.8,82.5 M291.9,142.2c-10.3-6.5-19.2-25.8-17.8-38.4l-2.5,7.9
	c-5.4-14.4-5.6-44,9.8-63.8c-18.5-0.5-23.3-24-11.5-35.9c13.8-13.8,35.4-6.1,34.5,10.1c4-9.9,15.4-10.6,25.3-18.8
	c-0.6,2-2.8,4.5-6.7,7.3c6.5-4.3,15.2-3.7,21.3-9.5c-0.1,2.9-1,5.5-2.8,7.6c3.5-1.3,5.9-3.7,7.3-7c7.9,8.7,28.9,5,40.9,18
	 M316.5,190.1c1.4,16.9,16.2,23.7,24.3,35.6 M298.1,146.8c-4.6,5.3-0.2,11.8-1.4,16.6c2.5-1.6,5-3.7,7.4-6.3
	c-10.9,14.6,4.8,31,26.1,40.8c-2-3.9-3.2-8.5-3.5-14.1c1,7.2,11.2,15.8,13.2,23.2c3.8-2,5.3-4.1,6.3-10.5 M334,245.9
	c-7.3-26,46.9-30.3,49.3-67.1 M302.8,238.3c-0.6,6.8-0.5,13.9,0.9,21.2c7,30.3,38.7,36.3,60.1,30.6c21.8-6.6,32.1-28.5,30.1-54.7
	 M323.4,300.2c15.1,10.8,41.4,11.3,59.7-3.2 M302.7,358.2c-9.6,6.7-22,1.6-21.8-6c-6.1-5.8-2.7-19.7,13.7-27.4 M280.9,352.3
	c-0.1-4.8,2.1-8.5,6.5-11.3 M276.2,47l2.8-4.2 M267.3,40.5c1.7-2.1,3.8-3.6,6.3-4.2 M409.3,326.9c17.8,10.2,20.8,23,13.6,28.9
	 M417,52.2c9.3,10.5,15.2,31.6,9.4,52.4l-3.3-2.5c-0.9,17.5-9.5,35.7-26.2,45.8"/>
<path class="st13" d="M282.1,54.7c-6.4,12.5-8.7,26.3-8.2,43C268.8,81.3,271.4,66,282.1,54.7z M385.5,189.3
	c-6.1,11.3-15.4,20.2-28.3,28.5C372.3,213.2,382.5,203.2,385.5,189.3z M288.8,8.3c-7.7,1.5-14.1,5.9-20.1,13.5
	C272.3,10.8,279.2,6.7,288.8,8.3z M289.7,302.5c0.6,8.3,3.1,16,9.2,22.3C290.7,320.3,287.6,312.9,289.7,302.5z"/>
<path class="st0" d="M371.6,280.4c-32.1,11.2-55-2.2-62.9-21.1C310.9,286.5,348.7,295,371.6,280.4z"/>
<path class="st2" d="M366.8,99.5c-1.2,0.2-2,1.3-1.7,2.4c0.3,1,1.5,1.7,2.7,1.4c1.2-0.2,2-1.3,1.7-2.4
	C369.2,99.9,368,99.2,366.8,99.5z M327.9,103.7c1.2,0.2,2,1.2,1.8,2.3c-0.2,1.1-1.4,1.7-2.7,1.5c-1.2-0.2-2-1.2-1.8-2.3
	C325.5,104.1,326.7,103.5,327.9,103.7z M359.2,103.2c-1.2,0.2-2,1.3-1.7,2.4c0.3,1,1.5,1.7,2.7,1.4c1.2-0.2,2-1.3,1.7-2.4
	C361.6,103.6,360.4,102.9,359.2,103.2z M320.5,106.9c1.2,0.2,2,1.2,1.8,2.3c-0.2,1.1-1.4,1.7-2.7,1.5c-1.2-0.2-2-1.2-1.8-2.3
	C318.1,107.3,319.3,106.7,320.5,106.9z M366.8,106.1c-1.2,0.2-2,1.3-1.7,2.4c0.3,1,1.5,1.7,2.7,1.4c1.2-0.2,2-1.3,1.7-2.4
	C369.3,106.5,368,105.9,366.8,106.1z M320.3,100.2c1.2,0.2,2,1.2,1.8,2.3c-0.2,1.1-1.4,1.7-2.7,1.5c-1.2-0.2-2-1.2-1.8-2.3
	C317.9,100.7,319.1,100,320.3,100.2z"/>
<path class="st1" d="M380.6,50.6c-5.3-6.5-14.4-6.5-14.9-2c-0.3,2.9,4.6,3.5,6.6,3.5c4.2,0,6.5,5.7,8.8,5.4
	C384.3,57,382.1,52.4,380.6,50.6z M314.7,51.6c4.1-1,4-9.5-6.7-4.2c-1.4,0.7-6.8,4.2-4.3,7.1C305.2,56.2,311.5,52.6,314.7,51.6z"/>
<path class="st12" d="M380.6,50.6c-5.3-6.5-14.4-6.5-14.9-2c-0.3,2.9,4.6,3.5,6.6,3.5c4.2,0,6.5,5.7,8.8,5.4
	C384.3,57,382.1,52.4,380.6,50.6z M314.7,51.6c4.1-1,4-9.5-6.7-4.2c-1.4,0.7-6.8,4.2-4.3,7.1C305.2,56.2,311.5,52.6,314.7,51.6z"/>
</svg>
