<?xml version="1.0" encoding="utf-8"?>
<!-- Generator: Adobe Illustrator 21.1.0, SVG Export Plug-In . SVG Version: 6.00 Build 0)  -->
<svg version="1.1" id="Layer_1" xmlns="http://www.w3.org/2000/svg" xmlns:xlink="http://www.w3.org/1999/xlink" x="0px" y="0px"
	 viewBox="0 0 482 413" style="enable-background:new 0 0 482 413;" xml:space="preserve">
<style type="text/css">
	.st0{fill-rule:evenodd;clip-rule:evenodd;fill:#FBE4F0;}
	.st1{fill-rule:evenodd;clip-rule:evenodd;fill:#D3E095;}
</style>
<path class="st0" d="M433.8,365.5c54.6-53.3,62.2-157.7,26.1-230.8c-33-70.4-109.4-90.9-153.8-90.9c-35.3,0-56.1,1.8-94.9-7.5
	c-63.3-15.2-104.7-40-166-3C-1,61.1-9.5,126.2,9.4,168c9,25.5,22,46.3,28.9,76.4c8.1,35.5-13.8,87.3,18.2,123
	c25.3,24.6,58,28.7,110.3,15c36.5-9.6,56.1,15.7,97.5,25.2C321.1,420.4,391.6,411.6,433.8,365.5z"/>
<path class="st1" d="M433.8,365.3c-26.5,29.6-64.2,43.6-106.2,46.9c-104.6,5.4-104.8-41.5-160.6-29.8c-41.6,13.8-80.4,12.3-110.3-15
	c-11.1-10.9-15.7-31.2-4.3-44c5.7-6.4,16.1-0.3,34.1,17.6c0.6,0.6-2.8-9.2,2.8-21.6c5.7-12.4,29.1,11.1,31.4,23.9
	c1.4,8.1,4.3-0.3,12.2-0.3c2.3-11.9,37.3-58.9,33.2-22.5c-1.5,13-4,11.4,3.4,4c16.5-16.5,44.9-39.2,35.2-4.5
	c-7.4,25.6,5.7,7.4,14.8-1.7c4.5-4.5-6.3,23.9,1.7,18.8c3.4-2.3,35-15.9,26.7-4c-10.2,14.6,21.4,12.1,32.4,4.4
	c19.2-13.4,63.8-10.5,83.5-9.4C435.9,331.8,445.1,352.7,433.8,365.3z"/>
</svg>
