<?xml version="1.0" encoding="utf-8"?>
<!-- Generator: Adobe Illustrator 21.1.0, SVG Export Plug-In . SVG Version: 6.00 Build 0)  -->
<svg version="1.1" id="Layer_1" xmlns="http://www.w3.org/2000/svg" xmlns:xlink="http://www.w3.org/1999/xlink" x="0px" y="0px"
	 viewBox="0 0 482 413" style="enable-background:new 0 0 482 413;" xml:space="preserve">
<style type="text/css">
	.st0{fill-rule:evenodd;clip-rule:evenodd;fill:#FBE4F0;}
	.st1{fill-rule:evenodd;clip-rule:evenodd;fill:#D3E095;}
	.st2{fill-rule:evenodd;clip-rule:evenodd;fill:#FBCF40;}
	.st3{fill-rule:evenodd;clip-rule:evenodd;fill:#BD6E39;}
	.st4{fill-rule:evenodd;clip-rule:evenodd;fill:#D88F55;}
	.st5{fill-rule:evenodd;clip-rule:evenodd;fill:#FBD2B6;}
	.st6{fill-rule:evenodd;clip-rule:evenodd;fill:#EDB581;}
	.st7{fill:none;stroke:#822E2D;stroke-width:1.7015;stroke-linecap:round;stroke-linejoin:round;stroke-miterlimit:22.9256;}
	.st8{fill-rule:evenodd;clip-rule:evenodd;fill:#A35939;}
	.st9{fill-rule:evenodd;clip-rule:evenodd;fill:#F5B0B4;}
	.st10{fill-rule:evenodd;clip-rule:evenodd;fill:#F5A87D;}
	.st11{fill-rule:evenodd;clip-rule:evenodd;fill:#FACCAF;}
	.st12{fill-rule:evenodd;clip-rule:evenodd;fill:#E5A46B;}
	.st13{fill-rule:evenodd;clip-rule:evenodd;fill:#FFFFFF;}
	.st14{fill-rule:evenodd;clip-rule:evenodd;fill:#D3ECFB;}
	.st15{fill-rule:evenodd;clip-rule:evenodd;fill:#1A1A18;}
	.st16{fill-rule:evenodd;clip-rule:evenodd;fill:#FDEBDB;}
	.st17{fill-rule:evenodd;clip-rule:evenodd;fill:#FDF1E7;}
	.st18{fill-rule:evenodd;clip-rule:evenodd;fill:#FFEBAD;}
	.st19{fill-rule:evenodd;clip-rule:evenodd;fill:#F4C69E;}
	.st20{fill-rule:evenodd;clip-rule:evenodd;fill:#FFE494;}
	.st21{fill-rule:evenodd;clip-rule:evenodd;fill:#FCD861;}
	.st22{fill:none;stroke:#E9B422;stroke-width:1.7015;stroke-linecap:round;stroke-linejoin:round;stroke-miterlimit:22.9256;}
	.st23{fill-rule:evenodd;clip-rule:evenodd;fill:#F4B3D1;}
	.st24{fill:none;stroke:#A55E7F;stroke-width:1.7015;stroke-linecap:round;stroke-linejoin:round;stroke-miterlimit:22.9256;}
	.st25{fill:none;stroke:#E30045;stroke-width:8.5074;stroke-linecap:round;stroke-linejoin:round;stroke-miterlimit:22.9256;}
	.st26{fill-rule:evenodd;clip-rule:evenodd;fill:#F7C6C7;}
	.st27{fill:none;stroke:#DB7A77;stroke-width:1.7015;stroke-linecap:round;stroke-linejoin:round;stroke-miterlimit:22.9256;}
	.st28{fill-rule:evenodd;clip-rule:evenodd;fill:#B5CAD6;}
	.st29{fill-rule:evenodd;clip-rule:evenodd;fill:#F3A5A6;}
	.st30{fill-rule:evenodd;clip-rule:evenodd;fill:#494948;}
	.st31{fill:none;stroke:#1A1A18;stroke-width:1.7015;stroke-linecap:round;stroke-linejoin:round;stroke-miterlimit:22.9256;}
</style>
<path class="st0" d="M433.8,365.5c54.6-53.3,62.2-157.7,26.1-230.8c-33-70.4-109.4-90.9-153.8-90.9c-35.3,0-56.1,1.8-94.9-7.5
	c-63.3-15.2-104.7-40-166-3C-1,61.1-9.5,126.2,9.4,168c9,25.5,22,46.3,28.9,76.4c8.1,35.5-13.8,87.3,18.2,123
	c25.3,24.6,58,28.7,110.3,15c36.5-9.6,56.1,15.7,97.5,25.2C321.1,420.4,391.6,411.6,433.8,365.5z"/>
<path class="st1" d="M433.8,365.3c-26.5,29.6-64.2,43.6-106.2,46.9c-104.6,5.4-104.8-41.5-160.6-29.8c-41.6,13.8-80.4,12.3-110.3-15
	c-11.1-10.9-15.7-31.2-4.3-44c5.7-6.4,16.1-0.3,34.1,17.6c0.6,0.6-2.8-9.2,2.8-21.6c5.7-12.4,29.1,11.1,31.4,23.9
	c1.4,8.1,4.3-0.3,12.2-0.3c2.3-11.9,37.3-58.9,33.2-22.5c-1.5,13-4,11.4,3.4,4c16.5-16.5,44.9-39.2,35.2-4.5
	c-7.4,25.6,5.7,7.4,14.8-1.7c4.5-4.5-6.3,23.9,1.7,18.8c3.4-2.3,35-15.9,26.7-4c-10.2,14.6,21.4,12.1,32.4,4.4
	c19.2-13.4,63.8-10.5,83.5-9.4C435.9,331.8,445.1,352.7,433.8,365.3z"/>
<polygon class="st2" points="219.6,250.7 215.9,245.5 235.1,215.2 240.6,217.4 "/>
<path class="st3" d="M101.6,308.8l-0.1-5.1c-5,0.8-10.7-1.6-17.1-7.2l-0.5,6.3c-5.3-0.4-8-4.8-9.4-8.7c-6.2-2-11.1-7.4-13.5-20.1
	c-5.7-6.3-9.6-11.8-9.4-24.9c6.4,5.8,13.3,10,16.5,11.9l-1.8-7.4l7.3,0.1c-6.9-8.6-12.6-16.9-17.4-22.3c1.2-10.1,8.4-22.3,13.9-29.3
	l105.2,0.3c11.2,13.2,0.3,28.1,7.3,42.3c1.4,12.2-5.1,26.2-11.8,30.5c1.1,9.2-6.9,20.7-16.8,20.4c-1.4,6.9-14.6,15.4-25.7,13.7
	C120.8,312.4,108.4,312.3,101.6,308.8z"/>
<path class="st4" d="M178.8,167.6l-98.6-22.4l-30.2,23.6c-2.9,12.8-0.2,20.9,5.2,26.9c-5.6,13.2,9.8,26.9,23.3,20.4
	c-1.9,10,17.8,24,34.3,9.7c8.2,5.7,16.1,8.8,19.9,0c4.1,2.4,8.4,3.4,12.6,3.5c18.2,0.3,35.2-18.4,28.6-37c2.4-1.1,4.3-2.8,5.8-4.9
	C183.5,182,183.9,174,178.8,167.6z"/>
<path class="st5" d="M173,99.7l-36-28.8l2.3-29.7C176.1,25.5,206.5,75.3,173,99.7z"/>
<path class="st6" d="M173,99.7l-42.8-16.5l2.2-27.9C174.2,41.6,196.2,80.3,173,99.7z"/>
<path class="st3" d="M168,171.3c-8.1,12.8-37.6,23.9-71.8-5.1l1.2-16.4c7.6-18.3-5.4-36.2-20.4-37.9c5.4,1,9.6-0.8,12.5-5.3l37-46.9
	l16.8,8.8c12.8,6.2,25.1,20.7,32.4,36.4c18.3,13.6,18.9,49.8,10.7,57.2C182.4,166.3,176,169.7,168,171.3z"/>
<path class="st7" d="M139.3,41.2C176,25.5,206.5,75.3,173,99.7"/>
<path class="st3" d="M165.1,87c-5.6-8.5-11.4-11.5-18.4-16.7c10.7-12.2,22.3-10.9,29.4-15.7C178.3,63.9,176.1,79.6,165.1,87z"/>
<path class="st8" d="M165.1,87c-5.6-8.5-7.4-8.8-14.5-14c16-9.4,18.9-6.5,26.3-14.5C177.5,69.3,174.6,80.3,165.1,87z"/>
<path class="st9" d="M160.2,81.7l-5.4-5.5c2.4-3.7,18.4-12.4,17.4-6.2S159.7,83.1,160.2,81.7z"/>
<path class="st4" d="M187.9,134.4c-1.9-9.3-5.8-30.2-25.6-22.2C180.8,97.6,188.7,123.5,187.9,134.4z"/>
<path class="st4" d="M169.7,146.9c8.5,1.3,14.5-2.8,14.7-9.3C186.1,147.4,180,151.8,169.7,146.9z"/>
<path class="st7" d="M143.3,68.5c12.8,6.2,25.1,20.7,32.4,36.4c18.3,13.6,18.9,49.8,10.7,57.2c-10,10.3-33.8,15.7-61.9,1.7"/>
<path class="st7" d="M181.9,147.4c3.7,3.9,5.7,13.4,2.6,16.5"/>
<path class="st7" d="M179.8,187.4c3.7-5.4,4.1-13.5-1-19.8 M121.2,231.8c6,1.2,10.8-3.5,11.5-5.8c3.9,2.2,8,3.4,12.3,3.5"/>
<path class="st7" d="M175.4,202.3c4.3,5.9,5.2,11,6.2,19.5"/>
<path class="st7" d="M146.7,70.4c10.5-12,23.7-11.7,29.4-15.7c2.2,6.3,1.8,23.1-11,32.3"/>
<path class="st7" d="M172.1,148.7c9.8,2.8,13.7-4.2,13.2-10.6"/>
<path class="st10" d="M135.5,303.3l-15.8,8c-1.7,23.7,0.6,36.1,6.1,47.4l3.4-4.2l-0.1-4.2C126.5,334,127.5,313.4,135.5,303.3z"/>
<path class="st11" d="M138.7,308.3l-12.6,1.8c-1.5,12.8-2,38.2,2.9,40.2l3.8,1.1C132.5,336.9,134.4,327.7,138.7,308.3z"/>
<path class="st11" d="M101.5,303.7l-17.1-7.2c-1.5,28.7-1,50.3,5,63.1c2.6-3.3,5.6-5.3,9.6-4.2C99.3,346.1,99.4,337.2,101.5,303.7z"
	/>
<path class="st10" d="M93.1,302.1l-8.7-5.7c-5.1,28.1,0.7,49.5,5,63.1l3.3-3.5C89.4,345,90.8,319.3,93.1,302.1z"/>
<path class="st8" d="M99.6,355c-3.6-0.9-9.8,0.6-10.3,4.6c1.4,2,1.9,4.7,2.9,6.6l2.8-5.5l5.7,1.5C100.4,360,100.7,357.8,99.6,355z"
	/>
<path class="st4" d="M65.7,286.6l-7.5-5.7c-11.2,15.8-34.1,11.3-22.7-6.6C15.8,291.2,47.8,308.2,65.7,286.6z"/>
<path class="st8" d="M101.6,308.8l-0.1-5.1c-4.7,0.8-11.1-1.5-17.1-6.9l-0.5,5.9c-4.1-0.3-15.8-11.6-14.5-13.3
	c-17.2-3.2-24-43.6-16.6-51.8c-6.8-9.5-4.6-23.3,2.3-29.3c6.5,10.2,14.5,11.1,23.3,7.8l1.2,6.1l5.8,6.1c-1,8.2,2.7,14.2,12.2,17
	c-8,3-8,13.9-4.8,19c-3.5,5.1-0.4,9.8,4.5,10.5c1.7,10.2,17.4,9.2,21.6,3.8c3.7,8.1,32.7,18.5,46.8-2c1.1,8.6-7.3,14.4-15.5,16.5
	c-1.3,6.5-11.6,17.6-22.1,16.1C121.2,312.2,108,312.1,101.6,308.8z"/>
<path class="st3" d="M80.1,145.2l-30.2,23.6c-2.9,12.8-0.4,19,3.3,24.6c-5.6,19.8,19.1,26.2,27.9,17.9c-0.7,8.1,8.4,17.4,17.9,12.9
	c-6.9,0.6-16.7-6.9-13.7-18.4c-6.7-0.4-15.3-9.1-4.8-18c4.4-2.4,8.7-5.1,11.4-10.1C83.3,169.1,99.2,160.5,80.1,145.2z"/>
<path class="st3" d="M97.3,149.8C91.6,160,79.5,169,69.4,170.4c-3.1,7,3.9,16.1,1.7,21.5C95.1,186.2,99.9,162.8,97.3,149.8z"/>
<path class="st8" d="M102,170.4l-5.3-3.7l0.1-9.5c-4.5,10.5-17.3,16.6-26.5,13l27-20.5c7.6-18.3-5.4-36.2-20.4-37.9
	c5.4,1,9.6-0.8,12.5-5.3l47.4-35.7c1.7,15.6-5.9,25.3-18.3,24.9c0,6.1-3.6,9.4-8.5,11.6c-6.5,9.7-0.4,20.9,8,30l-8.1,4.9
	C120.9,142,108.5,166.1,102,170.4z"/>
<path class="st12" d="M114.8,91.4c-1.4,8.9-7.7,15.8-24.3,14.8c4.9-19.6-2.7-33.7-37.5-31.1c-1.1-10.3,1.1-16.7,10-21.5
	c0.6-24.4,41.2-29.8,45.4-17.4c5.7-7.6,21.3-4.9,21.3,5.9c18.4-8.2,32.8,22.7,7.3,28.7C138.6,80.3,130.6,91.1,114.8,91.4z"/>
<path class="st4" d="M105.4,84.3c2.9,8.7-5.1,17.8-19.4,16.9c4.2-16.7-3.2-23.9-33.1-21.7C50.7,66.8,63.1,59.4,71,61.2
	c0.5-20.9,26.6-21.4,32.2-13.9c4.9-6.5,15.2-3.2,15.4,4c15.5-6.3,22.3,18.3,5.2,21.5C125.3,80.9,115,87.6,105.4,84.3z"/>
<path class="st6" d="M108.6,218c-5.9,0.6-11.5-2.2-14.9-6.6C94.4,218.2,102.6,220.9,108.6,218z"/>
<path class="st4" d="M139.2,116.5c-5.2-6.5-11-9.9-19.8-12.3C126.7,101.8,135.3,107.7,139.2,116.5z"/>
<path class="st4" d="M93.8,164.4c-3,7.7-8.5,17.3-14.2,21.1C88.2,183,93.6,173.2,93.8,164.4z"/>
<path class="st4" d="M166.1,98.2c-3.9-5.4-10.6-11.2-17.2-12.5C156.4,84.2,163.6,91.1,166.1,98.2z"/>
<path class="st5" d="M76.9,111.9c7.2-0.5,17.8,8.3,21,18.5c6.5,19.5-9,36.2-27.6,39.9c-34.6,5.8-56.2-30.1-49.2-59.9
	c6-31.3,43.6-46.3,65.9-27.5C96.6,93.2,92.9,113.9,76.9,111.9z"/>
<path class="st6" d="M76.9,111.9c-18.8-2.8-33.5,12-34.2,24.8c1.8-17.7,36.2-17.6,33.4,1.5c-2.1,15.2-32.8,18.8-39.3-6
	C30.5,109.2,56,88.7,81,96.3C89.9,99.6,86.9,111.6,76.9,111.9z"/>
<path class="st7" d="M42.7,136.7c2.7-26.7,44.5-37.1,55.2-6.4c6.5,19.5-9,36.2-27.6,39.9c-34.6,5.8-56.2-30.1-49.2-59.9
	c6-31.2,43.6-46.2,65.9-27.4c9.6,10.3,5.9,31-10,29"/>
<path class="st7" d="M168,171.3c-4.1,11-33.3,22.7-65.9-0.9"/>
<path class="st7" d="M53,75.1c-3.8-11.2,5.6-24.5,20.2-23"/>
<path class="st7" d="M63,53.6c0.6-24.4,41.2-29.8,45.4-17.4c6-6.7,20.1-4,21.3,5.9c18.4-8.2,32.8,22.7,7.3,28.7
	c1.6,9.5-6.4,20.2-22.1,20.5"/>
<path class="st7" d="M114.8,91.4c0,8.5-11.6,17.5-24.4,14.8"/>
<path class="st7" d="M93.4,83.1c3.8,3.4,8.3,0.3,7.8-2.7"/>
<path class="st7" d="M117.3,197.4c3,4.1,8.1,2,8.2-1"/>
<path class="st7" d="M83.1,266.7c1.1,5.1,6.8,5.3,8.2,2.5"/>
<path class="st7" d="M100.1,276.2c0.9,4.1,5.5,4.3,6.6,2"/>
<path class="st7" d="M133.1,276.6c3.6,3,7.8,0,7.2-2.8"/>
<path class="st7" d="M151.4,268.4c3.1,2.6,6.6,0,6.1-2.3"/>
<path class="st7" d="M99.8,289.7c2,3.7,6.5,2.7,6.9,0.1"/>
<path class="st7" d="M129.9,205.1c2.5,3.3,6.7,1.6,6.8-1"/>
<path class="st7" d="M153.1,190.8c2.4,1.7,4.9-0.4,4.4-2.1"/>
<path class="st7" d="M111.4,75.6c3.9,4,9.3,0.7,8.6-3.5"/>
<path class="st7" d="M123.2,63.4c1.4,2.3,4.2,0.3,3.8-1.6"/>
<path class="st7" d="M96.4,68.6c1.6,3.8,6.3,1.5,6.3-1.4"/>
<path class="st13" d="M130.6,136.3l-7-0.2c-10.1-8.9-12.7-21.9-9.9-26.2c5.7-6.9,23.2,1.9,27.3,14.1
	C142,126.9,137.6,134.5,130.6,136.3z"/>
<path class="st14" d="M120.9,113.6c5.7-4.4,17.9,1.4,20,11.9l-4.9,8.1l-5.5,2.7C124.4,133.9,115.4,119.7,120.9,113.6z"/>
<path class="st7" d="M137.8,139.5c-6.6-5.2-18.8-5.2-27.6,2.8"/>
<path class="st13" d="M166.9,106.4l0.7-0.3c-3.8,1.2-6.5,3.2-9.5,7c-9.3-2-17.9-18.8-13.3-23.9C150.2,85.9,160.5,90.4,166.9,106.4z"
	/>
<path class="st14" d="M152.1,94.9c4.1-3.8,11.4,4.6,14.8,11.6l-7.7,5.4C153.9,111.3,147.9,99.5,152.1,94.9z"/>
<path class="st7" d="M110.2,107.4c-3,2-3.6,6.1-1.8,9.7"/>
<path class="st7" d="M121.2,166c2.3-0.3,3.9-2.4,4.1-4.9"/>
<path class="st7" d="M148.2,82.6c-2.8-2.1-7.9-0.7-10.1,2.2"/>
<path class="st7" d="M83.4,302.6c-4.9-0.6-12.7-8.5-13.9-13.2c-16.1-1.5-24.8-42.5-16.6-51.8c-5.8-5.4-5.3-23.1,2.3-29.3"/>
<path class="st7" d="M82.5,294.3c4.8,6.1,14.4,11.4,23.7,8.6"/>
<path class="st7" d="M58.2,280.9c-18.5,20.2-32.5,3.7-22.7-6.6c-19.1,15.2,10,34.8,29.2,13.4"/>
<path class="st7" d="M55.1,195.7c-6.4-6.2-8.3-19.2-5.2-26.9"/>
<path class="st8" d="M132.8,351.5c-5.2-2.1-6.7-0.6-9.3,2c1,3.9,1,3.1,2.3,5.2l3.4-4.2l4.2,3C133.2,355,132.9,354.6,132.8,351.5z"/>
<path class="st7" d="M84.4,296.4c-3.4,16.8-1.9,51.3,7.9,69.8l2.8-5.5l5.7,1.5c-3.5-17.3-0.3-33.3,0.7-58.6"/>
<path class="st7" d="M119.6,311.3c-2.6,22.6,2.1,40.7,6.1,47.4l3.4-4.2l4.2,3c-2.2-19.5,1.1-29.4,5.4-49.2"/>
<ellipse transform="matrix(0.9998 -2.148751e-02 2.148751e-02 0.9998 -2.6381 2.9179)" class="st15" cx="134.5" cy="124.2" rx="6" ry="6"/>
<ellipse transform="matrix(0.9998 -2.159867e-02 2.159867e-02 0.9998 -2.6488 2.7948)" class="st13" cx="128.1" cy="124" rx="2.8" ry="2.8"/>
<ellipse transform="matrix(0.9998 -2.139363e-02 2.139363e-02 0.9998 -2.5316 2.5957)" class="st13" cx="120.1" cy="119.6" rx="3.2" ry="3.2"/>
<path class="st7" d="M69.4,170.4c-3.2,8.7,4.2,16.5,1.7,21.5c24.1-8.1,27-22.7,26.2-42.1"/>
<ellipse transform="matrix(0.9998 -2.199175e-02 2.199175e-02 0.9998 -2.1343 3.3373)" class="st13" cx="150.7" cy="98.7" rx="2.5" ry="2.5"/>
<ellipse transform="matrix(0.9998 -2.140720e-02 2.140720e-02 0.9998 -2.1855 3.4591)" class="st15" cx="160.5" cy="103.8" rx="5.3" ry="5.3"/>
<ellipse transform="matrix(0.9998 -2.179658e-02 2.179658e-02 0.9998 -2.2366 3.42)" class="st13" cx="155.8" cy="104.3" rx="2.5" ry="2.5"/>
<path class="st7" d="M49.8,96.1c-0.7-6.1-6.1-10.3-10.6-9.8"/>
<path class="st7" d="M40.2,97.9c-0.4-3.5-3.4-5.8-6-5.6"/>
<path class="st7" d="M42.7,136.7c7.1-5.5,28.3-10.6,29.3,1.3"/>
<path class="st7" d="M99.8,356.4c-0.3-2.3-8.2-2.2-10.4,3.1"/>
<path class="st7" d="M123.7,354.4c-1.4-2.4,5.6-5.5,9.2-2.9"/>
<path class="st16" d="M78.2,81.5C67.6,79.4,57,80,44.8,83.1C56.2,76.5,67.3,76.3,78.2,81.5z"/>
<path class="st17" d="M81.7,162.2c7.8-7,12.5-15.2,14.2-26.5C97.6,149.2,90.7,157.4,81.7,162.2z"/>
<path class="st11" d="M156.4,250.7h-13.7l3-5.2l-0.1-5.2c-10.2-0.9-21-5.7-32.6-14.4l-9.3,4.8C126.5,253.9,140.9,258.5,156.4,250.7z
	"/>
<polygon class="st18" points="234,186.6 215.9,218.2 144.9,218.9 173.8,187.8 "/>
<path class="st10" d="M156.4,250.7h-13.7l3-5.2c-9.8,7.8-27.8-9.6-37.4-17.2l-4.7,2.4C126.5,253.9,140.9,258.5,156.4,250.7z"/>
<path class="st7" d="M81.4,118c-2.2-0.1-3.8,1.7-3.9,3.2"/>
<path class="st7" d="M87,122.5c-1.9-0.5-4.5,0.9-5.3,3.3"/>
<path class="st19" d="M130.6,45.9c5.9-0.6,11.5,2.2,14.9,6.6C144.7,45.7,136.6,43,130.6,45.9z"/>
<path class="st19" d="M86.2,35.4c7-2.4,14.6-0.5,19.9,3.9C103.3,31.1,92.7,30.1,86.2,35.4z"/>
<path class="st7" d="M117.4,221.1c-14.5,18.8-40.2,9.2-38.9-4.9c-14.2,7.7-30.6-10.3-25.3-22.6"/>
<path class="st7" d="M112.8,225.9c7.7,6,20.7,14.1,32.6,14.4"/>
<path class="st7" d="M103.5,230.8c23,23.2,37.4,27.7,52.8,20"/>
<polygon class="st20" points="215.9,245.5 145.6,245.5 144.9,218.9 215.9,218.2 "/>
<polygon class="st21" points="142.7,250.7 219.6,250.7 215.9,245.5 145.6,245.5 "/>
<polygon class="st22" points="142.7,250.7 219.6,250.7 215.9,245.5 145.6,245.5 "/>
<polyline class="st22" points="145.6,245.5 144.9,218.9 215.9,218.2 215.9,245.5 "/>
<polygon class="st21" points="215.9,245.5 215.9,218.2 234,186.6 235.1,215.2 "/>
<polygon class="st22" points="215.9,245.5 215.9,218.2 234,186.6 235.1,215.2 "/>
<polyline class="st22" points="235.1,215.2 240.6,217.4 219.6,250.7 "/>
<path class="st10" d="M228.3,240.3l-1-0.2l3.4-5.6l-0.6-0.5c-1.1-3.5-3.2-7.3-6.2-9.5l3.8-1.1l0.6-3.6
	C237.8,222,244.5,236.3,228.3,240.3z"/>
<polyline class="st22" points="144.9,218.9 173.8,187.8 234,186.6 "/>
<path class="st23" d="M227.7,223.4l-3.8,1.1v-20.4l-65.8,0.5l3.2-3.5l64.4-0.4C225.8,207.9,227.7,216.2,227.7,223.4z"/>
<path class="st24" d="M227.7,223.4l-3.8,1.1v-20.4l-65.8,0.5l3.2-3.5l64.4-0.4C225.8,207.9,227.7,216.2,227.7,223.4z"/>
<path class="st8" d="M234.2,222.9c-0.3,2.6-5.3,7.7-6.3,6.1c-1.1-1.7-2.4-3.3-3.9-4.5l3.8-1.1l0.6-3.6
	C230.9,220.3,232.4,221,234.2,222.9z"/>
<path class="st7" d="M230.1,234.1c-1.1-3.5-3.2-7.3-6.2-9.5l3.8-1.1l0.6-3.6c9.4,2.2,16.1,16.5,0,20.6"/>
<path class="st7" d="M175.7,104.9c-6.5-0.3-12.8,2.2-17.6,8.2c-9.3-2-17.9-18.8-13.3-23.9c5.3-3.3,15.6,1.1,22.1,17.2"/>
<path class="st7" d="M123.6,136.1c-10.1-8.9-12.7-21.9-9.9-26.2c5.7-6.9,23.2,1.9,27.3,14.1c1.1,2.9-3.3,10.5-10.3,12.3"/>
<path class="st7" d="M182.8,250.5c-0.7,10.5-6.2,21.1-11.9,24.7c1.1,9.2-6.9,20.7-16.8,20.4c-1.4,6.9-14.6,15.4-25.7,13.7
	c-7.6,3.1-19.9,3-26.7-0.5"/>
<polygon class="st23" points="177,250.7 182.8,250.7 184.3,245.5 184.3,218.5 205.5,187.2 201.6,187.3 178.5,218.6 178.5,245.5 "/>
<polygon class="st24" points="177,250.7 182.8,250.7 184.3,245.5 184.3,218.5 205.5,187.2 201.6,187.3 178.5,218.6 178.5,245.5 "/>
<path class="st23" d="M194.8,188c1.8,2.5,1.6,7.3,1.7,12.1c0,0.8-11.6-0.8-14.1-3.5C174.5,188.1,189.2,178.9,194.8,188z"/>
<path class="st23" d="M196.9,200c-0.9,6.2,0.7,12.6,5.3,15c8.2,4.4,14.9-7.8,9.9-12.5C208.7,199.3,200.8,199.7,196.9,200z"/>
<path class="st24" d="M194.8,188c3,4.3,0.5,15.2,2.7,21.1c1.8,6.9,9.7,9,14.1,4.1c2.9-3,3.9-8.8-0.8-11.8c-6.9-3.9-21.5,2-28.4-4.8
	C174.5,188.1,189.2,178.9,194.8,188z"/>
<path class="st18" d="M192.6,196.7c0.3-3,0.1-6.5-2.3-8.2c-3.7-2.7-7.6,2.1-5.2,5.1C186.8,195.7,190.3,196.5,192.6,196.7z"/>
<path class="st24" d="M192.6,196.7c0.3-3,0.1-6.5-2.3-8.2c-3.7-2.7-7.6,2.1-5.2,5.1C186.8,195.7,190.3,196.5,192.6,196.7z"/>
<path class="st18" d="M199.8,203.4c0.4,3.2,1.6,6.8,3.8,7.8c4.6,1.9,7.6-3.8,4.7-6.3C206.1,203.1,202.2,203.1,199.8,203.4z"/>
<path class="st24" d="M199.8,203.4c0.4,3.2,1.6,6.8,3.8,7.8c4.6,1.9,7.6-3.8,4.7-6.3C206.1,203.1,202.2,203.1,199.8,203.4z"/>
<path class="st7" d="M228.1,229.5c2.5,0.1,5.3-2.2,6.4-6.3"/>
<path class="st25" d="M182.2,213.3l-3.8,5.3l-33.6,0.4l25.7-27.5 M178.5,218.6v27"/>
<path class="st25" d="M194.8,188c3,4.3,0.5,15.2,2.7,21.1c1.8,6.9,9.7,9,14.1,4.1c2.9-3,3.9-8.8-0.8-11.8c-6.9-3.9-21.5,2-28.4-4.8
	C174.5,188.1,189.2,178.9,194.8,188z"/>
<polygon class="st6" points="293.5,142.2 385.7,139.4 406.5,185.5 345.2,215.2 289.1,186.8 "/>
<path class="st4" d="M300.5,165.5c2.1,9.5,10.7,17.3,26.2,21.8l-0.7-3.7c5.3,9.7,8.2,13.8,11.6,18.6c3.1,1.6,13.8-7.3,13.8-10.4
	c35.7-12.6,35.4-39.3,20.1-41.3l16.6-5.6l18.3,40.6l-61.2,29.6l-56.1-28.3L300.5,165.5z"/>
<path class="st3" d="M288.2,300.1c-2.2,8.5,0.2,18,6.4,24.7c-16.4,7.6-20.3,21.5-13.7,27.4c-0.6,7.5,11.1,11.9,21.8,6
	c14.1,10.2,42.4-14.6,37.7-27.6c4.4-1.3,8-4.5,10.8-10c2.5,5.2,6.6,8.2,11.6,10.1c1.7,15.5,21.1,34.5,39.3,31.8
	c9.6,4.2,20.8-0.7,20.7-6.7c6.6-5.8,3.2-19.4-13.6-28.9c2.2-5.5,3.3-14.8,2.3-20.3c11.3-12.4,17.2-26.3,18.9-41.3l-37.4-119l-18.7,1
	c9,2,12.8,8.2,12,20.1c0,17.9-18.1,30.6-46.5,39.7c-2-6.6-10.6-14.6-13.2-23.2c0.5,4.7,1.7,9.4,3.5,14.1
	c-24.8-12-36.3-26.5-26.1-40.8l-7.4,6.3c1.5-7.1-3.1-9.4,1.4-16.6c2.9-2.8,8.7-3.5,15.9-0.9l-7.9-4.4l-11,0.7
	c-10.7,1.8-16.1,17.8-24.5,22.7l9.6-1.6c-13.1,10.3-15.5,25.3-9,44.1c-4.3,8.4-8.6,21.8-8.5,32.6l4.3-2.9
	C260.4,260,270.5,286.1,288.2,300.1z"/>
<path class="st8" d="M284.3,293.1c-10.6-18-14.2-26.9-5.7-48.2c2-8.9,13.7-7.4,21.4-8.2c8.8,3.4,20.6,6.4,33.9,9.2l-0.1-8.6
	c-40.8-8.4-66.2-26-64.4-59.8c-2.9,10-1.9,20,1.7,30.1c-3.8,7.2-8,19.7-8.5,32.6l4.3-2.9C258.1,260.1,273.9,287.6,284.3,293.1z"/>
<path class="st3" d="M389.9,19.5c6-12.2,14.9-16,27.1-15.4l-5.5,4.2c28.3-4.5,33.4,40.4,5.7,43.9c13.3,15.9,14.8,30.8,9.3,52.4
	l-3.3-2.5c-1.5,20.2-11.4,34.9-28.3,45c-6.8,1.2-10.7,0.3-17.3,0.2c-19.1-1-24,17-40.2,10.1c-15-9.3-27.8-15.7-42.4-12l-2.9-3.2
	c-10.3-6.5-19.2-25.8-17.8-38.4l-2.5,7.9c-5.4-14.4-5.6-46.4,9.8-63.8C263,47.4,258.2,23.9,270,12c13.8-13.8,35.4-6.1,34.5,10.1
	c4-9.9,15.4-10.6,25.3-18.8c-0.6,2-2.8,4.5-6.7,7.3c6.5-4.3,15.2-3.7,21.3-9.5c-0.1,2.9-1,5.5-2.8,7.6c3.5-1.3,5.9-3.7,7.3-7
	C356.7,10.2,377.8,6.6,389.9,19.5z"/>
<path class="st8" d="M397.1,147.8c17.4-11.7,24.2-27.2,26-45.7l3.3,2.5c4.9-22.5,1.8-37.2-9.4-52.4c17.6-1.2,26.4-30.6,8-37.1
	c18.3,15.6-15.1,39.2-22.2,11.6l2.4-8c-6.1,0.7-8.7,2.5-13,7.8l-2.3-7c-10.9-14.2-32.6-7.9-40.9-18L346,5.8l-4.4,2.7
	c39.7,4.1,67.7,32,59.1,68.5c33.2,31-3.7,65.5-34.3,64.8c-13.6,0.7-29.8,14.6-35.7,11.3l6.6,4.1l8.7,0.9c2.6,2.8,15.8-7.1,25.7-7.7
	c5.5,0.2,11.8,1.4,14.3,7.9c26,29.1,13.6,76.7-40.5,91l-5.2,3l48.6,15.4c-5.6,29.1-38.2,40.8-65.4,32.3l7.8,4.3l4.1,1.5
	c4.5,13.8-8,21.9-24.8,21.6c15.7,7.1-0.9,22.1-7.1,21.2c-9.7,5.6-22.1-0.2-18.6-5.9c-6.4-1.2-4.8-5.2-1-10.6l-3.8,5.4
	c-2.7,4.5-2.8,9.1-0.1,13.6c1.2,9.7,13.6,14,22.8,7c12.3,9.7,42-13.5,37.7-27.6l6.4-3.9l4.4-6.1c2.2,4.3,6.1,7.7,11.6,10.1
	c2.7,14.1,11.9,24.4,27.4,30.8c-6-4.5-2.8-8.5,9.6-9.1c21.7-3.1,24.5-13.3,9-22.5c-7.4,4.5-14.9,6.2-22.4,3.9
	c14.3-1.1,21.9-9.4,22.8-24.8c17.6-13.9,27.9-56.2,19.9-79.9l4.3,1.6c-1.6-11.1-5.4-21.8-12.1-32c1.8-9.2,0.7-17.2-2.5-24.4l3.9,0.1
	C415.8,162.2,410.1,152.1,397.1,147.8z"/>
<path class="st4" d="M383.5,177.6c-5,14.9-26.9,24.9-43.6,29.4c-2.6-8.6-11.7-15.2-13.2-23.2c-0.1,4.4,1.1,9.1,3.5,14.1
	c-6.8-3.1-8.9-3.9-13.6-7.7c1.7,15.5,16.2,23.7,24.3,35.6c-6.5,5.7-8.8,12.4-6.9,20l-9.9-1.5l-21.2-6.1l-0.3,10.6l1.2,10.6
	c7,30.3,38.7,36.3,60.1,30.6c24.5-9.4,30.9-27.1,30.1-54.7c-19,12.2-37.2,19.8-53.8,17.2l-4,0.4l-2.2-7c-1.4-6.8-0.2-13.6,6.9-20.1
	C372.6,207.1,383.7,193.5,383.5,177.6z"/>
<path class="st7" d="M291.9,142.2c-10.3-6.5-19.2-25.8-17.8-38.4l-2.5,7.9c-5.4-14.4-5.6-44,9.8-63.8c-18.5-0.5-23.3-24-11.5-35.9
	c13.8-13.8,35.4-6.1,34.5,10.1c4-9.9,15.4-10.6,25.3-18.8c-0.6,2-2.8,4.5-6.7,7.3c6.5-4.3,15.2-3.7,21.3-9.5c-0.1,2.9-1,5.5-2.8,7.6
	c3.5-1.3,5.9-3.7,7.3-7c7.9,8.7,28.9,5,40.9,18"/>
<path class="st7" d="M387.7,28.2c0.6-12.4,11.1-24.5,29.2-24.2c-2.6,1.4-3.7,2-5.5,4.2c17.5-4.1,29,17.6,21.4,32.4
	c-3.8,8-15.3,14.2-24.6,11.1"/>
<path class="st7" d="M417,52.2c9.3,10.5,15.2,31.6,9.4,52.4l-3.3-2.5c-0.9,17.5-9.5,35.7-26.2,45.8"/>
<path class="st7" d="M359.1,153.7c-27.6,13.3-23.6-4.9-45.1-7.7"/>
<path class="st26" d="M404.9,41.4c-3.4-1.6-6.1-3.9-7.1-7.9c-0.2-6.8,2.3-11.7,7.4-14.8v6.5c3.8-7.3,14.5-7.3,16.5,2.3
	C423.6,35.6,416.5,46.8,404.9,41.4z"/>
<path class="st27" d="M397.8,33.5c-0.2-6.8,2.3-11.7,7.4-14.8v6.5c3.8-7.3,14.5-7.3,16.5,2.3c1.8,8.1-5.3,19.3-16.8,13.9"/>
<path class="st26" d="M282.8,16.1c2,1.7,3,3.7,3.6,6c-3.9-2.5-9.1,0.2-10.2,4.3c-1.2,4-0.3,8.2,2.6,10.7c0.2-2.3,1.2-4.1,2.9-5.5
	c-2.1,5.4,2.4,8.8,7.6,7.2C302.2,34.4,297.3,15.3,282.8,16.1z"/>
<path class="st27" d="M282.8,16.1c2,1.7,3,3.7,3.6,6c-3.9-2.5-9.1,0.2-10.2,4.3c-1.2,4-0.3,8.2,2.6,10.7c0.2-2.3,1.2-4.1,2.9-5.5
	c-2.1,5.4,2.4,8.8,7.6,7.2C302.2,34.4,297.3,15.3,282.8,16.1z"/>
<path class="st7" d="M293.5,142.6c-9.9,1.3-14.4,17.5-22.9,22.3l9.6-1.6c-18.5,6.5-27.3,72.9,53.8,82.5"/>
<path class="st7" d="M393.1,146.2c12.5,4.2,24.5,15.7,29.8,28.1l-3.9-0.1c20.5,50.9-59.6,85.2-78.6,78.3"/>
<path class="st7" d="M349.3,245.7c-4.9,5.7-10,7.9-13.1,7.2c-3.9-6.4-3.4-12.6,6.8-18.5"/>
<path class="st7" d="M334,245.9c-7.3-26,46.9-30.3,49.3-67.1"/>
<path class="st7" d="M298.1,146.8c-4.6,5.3-0.2,11.8-1.4,16.6c2.5-1.6,5-3.7,7.4-6.3c-10.9,14.6,4.8,31,26.1,40.8
	c-2-3.9-3.2-8.5-3.5-14.1c1,7.2,11.2,15.8,13.2,23.2c3.8-2,5.3-4.1,6.3-10.5"/>
<path class="st7" d="M339.8,207.1c15.7-6.2,44.8-14.4,46.5-39.7"/>
<path class="st7" d="M271.1,207.6c-5.9,8.3-8.7,22.9-8.5,32.6l4.3-2.9c-5.9,21.1,3.5,48.3,21.3,62.7"/>
<path class="st7" d="M289,297.8c-4.6,11-0.2,28.4,17.9,34.8"/>
<path class="st7" d="M323.4,300.2c15.1,10.8,41.4,11.3,59.7-3.2"/>
<path class="st7" d="M302.7,358.2c-9.6,6.7-22,1.6-21.8-6c-6.1-5.8-2.7-19.7,13.7-27.4"/>
<path class="st7" d="M333.6,332.6c7.7-1.2,13.6-5.2,17.6-11.9c4.1,7.4,10.1,11,17.9,10.9"/>
<path class="st7" d="M340.4,330.6c4.5,18.3-30.1,36.3-37.7,27.6c-0.8-3.5-0.2-7.5,1.8-11.9"/>
<path class="st7" d="M362.9,330.7c0.7,12.8,20.5,35.2,39.3,31.8c4.7-2.1,5.3-10.5-1.4-14.8"/>
<path class="st7" d="M397,334.3c13-0.9,16.6-12.8,14.6-27.8c15-14.6,26.7-54.4,17.7-77.5l4.3,1.6c-1.6-11.4-5.3-22.1-12.1-32"/>
<path class="st7" d="M402.2,362.4c8.7,4.1,20.5,0.5,20.7-6.7c0.4-5.5-2.6-8.8-6-11.2"/>
<path class="st7" d="M409.3,326.9c17.8,10.2,20.8,23,13.6,28.9"/>
<path class="st7" d="M280.9,352.3c-0.1-4.8,2.1-8.5,6.5-11.3"/>
<path class="st7" d="M302.8,238.3c-0.6,6.8-0.5,13.9,0.9,21.2c7,30.3,38.7,36.3,60.1,30.6c21.8-6.6,32.1-28.5,30.1-54.7"/>
<path class="st13" d="M316.6,83.3c6.2,0,11.2-5.1,11.2-11.4c0-6.3-5-11.4-11.2-11.4c-6.2,0-11.2,5.1-11.2,11.4
	C305.4,78.1,310.4,83.3,316.6,83.3z"/>
<path class="st13" d="M367.3,80.3c6.2,0,11.2-5.1,11.2-11.4c0-6.3-5-11.4-11.2-11.4c-6.2,0-11.2,5.1-11.2,11.4
	C356,75.2,361.1,80.3,367.3,80.3z"/>
<path class="st28" d="M317.2,67.5c3.8,1.8,5.5,6.4,3.7,10.3c-1.7,3.9-6.3,5.6-10.1,3.8c-3.8-1.8-5.5-6.4-3.7-10.3
	S313.4,65.7,317.2,67.5z"/>
<path class="st28" d="M368.1,64.7c3.8,1.8,5.5,6.4,3.7,10.3c-1.7,3.9-6.3,5.6-10.1,3.8c-3.8-1.8-5.5-6.4-3.7-10.3
	C359.8,64.6,364.2,62.9,368.1,64.7z"/>
<path class="st15" d="M312.6,81.3c2.9,0,5.3-2.4,5.3-5.4c0-3-2.4-5.4-5.3-5.4c-2.9,0-5.3,2.4-5.3,5.4
	C307.3,78.9,309.7,81.3,312.6,81.3z"/>
<path class="st15" d="M363.2,78.4c2.9,0,5.3-2.4,5.3-5.4c0-3-2.4-5.4-5.3-5.4s-5.3,2.4-5.3,5.4C357.9,75.9,360.3,78.4,363.2,78.4z"
	/>
<ellipse class="st13" cx="315.5" cy="72.9" rx="2.4" ry="2.5"/>
<ellipse class="st13" cx="366.2" cy="70" rx="2.4" ry="2.5"/>
<path class="st7" d="M316.6,83.3c6.2,0,11.2-5.1,11.2-11.4c0-6.3-5-11.4-11.2-11.4c-6.2,0-11.2,5.1-11.2,11.4
	C305.4,78.1,310.4,83.3,316.6,83.3z"/>
<path class="st7" d="M367.3,80.3c6.2,0,11.2-5.1,11.2-11.4c0-6.3-5-11.4-11.2-11.4c-6.2,0-11.2,5.1-11.2,11.4
	C356,75.2,361.1,80.3,367.3,80.3z"/>
<path class="st4" d="M314.7,51.6c4.1-1,4-9.5-6.7-4.2c-1.4,0.7-6.8,4.2-4.3,7.1C305.2,56.2,311.5,52.6,314.7,51.6z"/>
<path class="st7" d="M314.7,51.6c4.1-1,4-9.5-6.7-4.2c-1.4,0.7-6.8,4.2-4.3,7.1C305.2,56.2,311.5,52.6,314.7,51.6z"/>
<path class="st4" d="M380.6,50.6c-5.3-6.5-14.4-6.5-14.9-2c-0.3,2.9,4.6,3.5,6.6,3.5c4.2,0,6.5,5.7,8.8,5.4
	C384.3,57,382.1,52.4,380.6,50.6z"/>
<path class="st7" d="M380.6,50.6c-5.3-6.5-14.4-6.5-14.9-2c-0.3,2.9,4.6,3.5,6.6,3.5c4.2,0,6.5,5.7,8.8,5.4
	C384.3,57,382.1,52.4,380.6,50.6z"/>
<path class="st4" d="M385.5,189.3c-6.1,11.3-15.4,20.2-28.3,28.5C372.3,213.2,382.5,203.2,385.5,189.3z"/>
<path class="st4" d="M289.7,302.5c0.6,8.3,3.1,16,9.2,22.3C290.7,320.3,287.6,312.9,289.7,302.5z"/>
<path class="st4" d="M282.1,54.7c-6.4,12.5-8.7,26.3-8.2,43C268.8,81.3,271.4,66,282.1,54.7z"/>
<path class="st8" d="M355.8,123.6l-14.1-7l-13.4,8.1C333.9,136.9,351.4,135.3,355.8,123.6z"/>
<path class="st29" d="M350.8,122.2l-4.9-2.5l-4.1-3.3l-4.1,4.1l-4.3,2.5C337.2,130.6,349,129.1,350.8,122.2z"/>
<path class="st4" d="M341.9,116.4l-0.1-5.4L341.9,116.4c-8.2,10.5-23.9,11.7-31.4,2.5c-13.8-20,7.9-36,32.4-36.6
	c26.2-1,47.4,18.6,35.3,33.9C368.8,127.6,350.2,125.1,341.9,116.4z"/>
<path class="st6" d="M341.8,111c-4.2,9.6-14.2,15.8-28.2,10.8c10.2,5.6,18.5,4.5,28.2-4.8V111z M310.5,119
	c-13.8-20,7.9-36,32.4-36.6c26.2-1,47.4,18.6,35.3,33.9C386.7,76.5,292.1,76,310.5,119z"/>
<path class="st7" d="M328.4,124.7c5.6,11.2,23.1,11.3,27.5-1.1 M333.5,123c3.5,7.3,15.1,6.8,17.3-0.7 M341.8,111l0.1,5.4
	c-8.2,10.5-23.9,11.7-31.4,2.5c-14.3-19.1,7.9-36,32.4-36.6c28.5-1.4,47.4,18.6,35.3,33.9c-9.4,11.4-27.9,8.8-36.2,0.2"/>
<path class="st3" d="M342.1,87.6c9.8-0.2,17.8,3.3,17.9,7.8c0.1,4.5-7.8,8.2-17.6,8.4c-9.8,0.2-17.8-3.3-17.9-7.8
	C324.4,91.6,332.3,87.8,342.1,87.6z"/>
<path class="st30" d="M340.1,87.6c9.4-0.7,17.3,1.7,17.6,5.5c0.3,3.8-7.1,7.4-16.5,8.2c-9.4,0.7-17.3-1.7-17.6-5.5
	C323.3,92,330.7,88.4,340.1,87.6z"/>
<path class="st31" d="M340.1,87.6c9.4-0.7,17.3,1.7,17.6,5.5c0.3,3.8-7.1,7.4-16.5,8.2c-9.4,0.7-17.3-1.7-17.6-5.5
	C323.3,92,330.7,88.4,340.1,87.6z"/>
<path class="st3" d="M366.8,99.5c-1.2,0.2-2,1.3-1.7,2.4c0.3,1,1.5,1.7,2.7,1.4c1.2-0.2,2-1.3,1.7-2.4
	C369.2,99.9,368,99.2,366.8,99.5z M327.9,103.7c1.2,0.2,2,1.2,1.8,2.3c-0.2,1.1-1.4,1.7-2.7,1.5c-1.2-0.2-2-1.2-1.8-2.3
	C325.5,104.1,326.7,103.5,327.9,103.7z M359.2,103.2c-1.2,0.2-2,1.3-1.7,2.4c0.3,1,1.5,1.7,2.7,1.4c1.2-0.2,2-1.3,1.7-2.4
	C361.6,103.6,360.4,102.9,359.2,103.2z M320.5,106.9c1.2,0.2,2,1.2,1.8,2.3c-0.2,1.1-1.4,1.7-2.7,1.5c-1.2-0.2-2-1.2-1.8-2.3
	C318.1,107.3,319.3,106.7,320.5,106.9z M366.8,106.1c-1.2,0.2-2,1.3-1.7,2.4c0.3,1,1.5,1.7,2.7,1.4c1.2-0.2,2-1.3,1.7-2.4
	C369.3,106.5,368,105.9,366.8,106.1z M320.3,100.2c1.2,0.2,2,1.2,1.8,2.3c-0.2,1.1-1.4,1.7-2.7,1.5c-1.2-0.2-2-1.2-1.8-2.3
	C317.9,100.7,319.1,100,320.3,100.2z"/>
<path class="st6" d="M371.6,280.4c-32.1,11.2-55-2.2-62.9-21.1C310.9,286.5,348.7,295,371.6,280.4z"/>
<path class="st7" d="M287.7,116.1c-1.6,0.3-2.8,2.3-3.5,3.8 M400.8,77.1c2.1,0,4,2.2,5.2,4.1 M401.7,68.9c2.5,0,3.9,1.5,4.8,2.6
	 M366.1,174.4c2,1.1,3.2,2.9,3.7,5.1 M372.8,166.7c1.9,1.7,1.8,5.2,1.3,7.8 M308.7,164.3c-1.5,0.6-2.8,2.9-3.1,4.8 M314,168
	c-0.7,2-0.7,4.8,0,6.3 M278.9,269.8c-0.6-1.8,0.7-5,2.4-6.4 M285.7,275.6c-0.8-1.2-0.4-3.7,0.6-5 M289.9,287.1
	c-0.4-0.9,0.2-2.7,1.1-3.5 M412.4,295.1c0.2-1.4-1.3-3.7-2.8-4.5 M401.8,312.7c0.6-1.8-0.7-5-2.4-6.4 M417,277.9
	c-0.1-0.9-1.4-2.1-2.5-2.4 M407.7,304.1c0.3-1.2-0.8-3.3-2-4.2 M282.7,107.1c-1.6,0-3.1,1.7-4.1,3.2"/>
<path class="st7" d="M267.3,40.5c1.7-2.1,3.8-3.6,6.3-4.2"/>
<line class="st7" x1="276.2" y1="47" x2="279" y2="42.8"/>
<path class="st7" d="M316.5,190.1c1.4,16.9,16.2,23.7,24.3,35.6"/>
<path class="st4" d="M287.8,7.9c-7.7,1.5-14.1,5.9-20.1,13.5C271.3,10.4,278.2,6.3,287.8,7.9z"/>
</svg>
