<?xml version="1.0" encoding="utf-8"?>
<!-- Generator: Adobe Illustrator 21.1.0, SVG Export Plug-In . SVG Version: 6.00 Build 0)  -->
<svg version="1.1" id="Layer_1" xmlns="http://www.w3.org/2000/svg" xmlns:xlink="http://www.w3.org/1999/xlink" x="0px" y="0px"
	 viewBox="0 0 525 431" style="enable-background:new 0 0 525 431;" xml:space="preserve">
<style type="text/css">
	.st0{fill-rule:evenodd;clip-rule:evenodd;fill:#EDB581;}
	.st1{fill-rule:evenodd;clip-rule:evenodd;fill:#F5A87D;}
	.st2{fill-rule:evenodd;clip-rule:evenodd;fill:#FACCAF;}
	.st3{fill-rule:evenodd;clip-rule:evenodd;fill:#A35939;}
	.st4{fill-rule:evenodd;clip-rule:evenodd;fill:#D88F55;}
	.st5{fill-rule:evenodd;clip-rule:evenodd;fill:#BB8EC0;}
	.st6{fill-rule:evenodd;clip-rule:evenodd;fill:#9D60A3;}
	.st7{fill-rule:evenodd;clip-rule:evenodd;fill:#D0B2D5;}
	.st8{fill-rule:evenodd;clip-rule:evenodd;fill:#FBD2B6;}
	.st9{fill:none;stroke:#822E2D;stroke-width:1.7005;stroke-linecap:round;stroke-linejoin:round;stroke-miterlimit:22.9256;}
	.st10{fill-rule:evenodd;clip-rule:evenodd;fill:#E2D2E8;}
	.st11{fill-rule:evenodd;clip-rule:evenodd;fill:#F5B0B4;}
	.st12{fill-rule:evenodd;clip-rule:evenodd;fill:#FFFFFF;}
	.st13{fill-rule:evenodd;clip-rule:evenodd;fill:#D3ECFB;}
	.st14{fill-rule:evenodd;clip-rule:evenodd;fill:#1A1A18;}
	.st15{fill:none;stroke:#6C3579;stroke-width:1.7005;stroke-linecap:round;stroke-linejoin:round;stroke-miterlimit:22.9256;}
	.st16{fill-rule:evenodd;clip-rule:evenodd;fill:#FDEBDB;}
	.st17{fill-rule:evenodd;clip-rule:evenodd;fill:#FDF1E7;}
	.st18{fill-rule:evenodd;clip-rule:evenodd;fill:#EFE0EE;}
</style>
<path class="st0" d="M115.9,229.6c7.5,0.8,14.6-2.8,18.9-8.4C133.9,229.9,123.5,233.3,115.9,229.6z"/>
<path class="st1" d="M140.4,305.7l-12.2,1.1l-4.3,3.1c1.2,30.3-2.8,41.5,1.2,48.3l3-6.4l5.1,0.9
	C134.2,341.4,140.3,334.1,140.4,305.7z"/>
<path class="st2" d="M140.4,305.7l-10.2,1.4c1.2,30.3-4.5,43.2,0.5,45.2l2.6,0.5C132.9,341.2,140.3,334.1,140.4,305.7z"/>
<path class="st2" d="M101.6,304.4l-17.1-7.2c3,28.8,1,52.5,7,62.2l3.4-3.6l4.1-0.2C97.4,347.9,102.7,339.1,101.6,304.4z"/>
<path class="st1" d="M93.2,302.8l-8.7-5.7c1.7,16.1,1.9,48.3,5.8,58.9l3.9-1.8C90.9,345.8,95.6,322.5,93.2,302.8z"/>
<path class="st3" d="M99,355.6c-1.7-3.3-7.2-1.5-8.1,1.1l2.2,5.8l2.7-4.4l4.2,3.2L99,355.6z"/>
<path class="st4" d="M67.4,288.9l-3.4-9.3c-7.5,8-21.3,17.2-28.6,0.9C35.1,297.8,57.1,298.1,67.4,288.9z"/>
<path class="st5" d="M101.7,309.5l-0.1-5.2c-5,0.8-10.8-1.6-17.1-7.2l-0.5,6.3c-5.3-0.4-8-4.9-9.4-8.8c-6.2-2-4.1-7.4-6.5-20.2
	c-5.7-6.3-9.7-11.8-9.5-25l-2.5-17.7c1.2-10.2,8.4-22.4,14-29.5l104.3,4c3.9,4.6,6.6,15.6-0.2,27.6c5.4,5.4,7.6,24.2-5.7,31.4
	c2.8,10.6-7.7,28.9-17.7,28.6c-1.7,9.3-11.4,14.6-22.5,13C120.6,310,108.5,313,101.7,309.5z"/>
<path class="st6" d="M101.7,309.5l-0.1-5.2c-4.8,0.8-11.2-1.5-17.2-6.9l0.7,6.4c-8-1.2-10.1-6.3-11.4-10c-5.8-1.9-12.7-18.7-10.2-22
	c-9.2-9.5-9.6-27.4-6.9-34.2c-4.4-8.6-5-19.2,0.2-25.9c7.2,9.4,14.2,12.3,20.8,8.6l5,6.1c-0.7,8.4,3.3,17.8,12.7,20.6
	c-8,3-7.5,13.6-2.4,17.7c-3.5,5.1-0.4,9.8,4.5,10.6c1.7,10.2,17.5,9.3,21.7,3.8c3.8,8.1,32.9,18.6,47.1-2
	c1.1,8.7-7.3,14.5-15.5,16.6c0.2,8-12,14.5-22.5,13C121.2,313.3,108.1,312.8,101.7,309.5z"/>
<path class="st7" d="M179.2,167.8l-99-22.5L49.8,169c-2.9,12.8-0.2,21,5.2,27l4.1-4.5c6.2,2.2,9.8,5.8,10.9,10.8l4,9.7
	c2.5,4.6,8.9,3.3,16,2.6c-5,9.1,8.5,16.3,17.8,11c4.8,12.3,22,11.4,28.4,0c21.8,12.6,44.3-13.3,38.2-33
	C182.8,188.8,186.3,176.7,179.2,167.8z"/>
<path class="st5" d="M80.1,145.3L49.8,169c-2.9,12.8-0.2,21,5.2,27c-5.3,19.8,14,31.6,21.7,19.3c2.5,4.6,10,1.2,13.2-0.7
	c-7,0.1-10.8-4.6-13.1-9.6c-1.6-13.2-13.8-14.2-3.5-25.5c5.9-7.8,15.2,1.5,22.8-0.1C87.5,170.7,99.3,160.6,80.1,145.3z"/>
<path class="st8" d="M173.4,99.5l-36.2-29l-8.1-25.2C167.1,16.7,207.7,71.4,173.4,99.5z"/>
<path class="st5" d="M98.5,146.9c-4.1,9.8-8.1,15.8-16.6,19.3c1.5,3.8,11.2,17.5,31.4,15.9C104.3,174.6,106.6,155,98.5,146.9z"/>
<path class="st0" d="M173.4,99.5l-43-16.6l1.7-31.5C175.2,31.1,196.6,80.1,173.4,99.5z"/>
<path class="st5" d="M168.4,171.5c-8.1,12.8-32.2,20-60.1,3.2l-4.9-19.9l-4.9-7.8c3.8-15.5-6.4-33.5-21.5-35.2
	c5.5,1,9.7-0.8,12.6-5.3l37.1-47.1l16.8,8.9c12.8,6.3,25.2,20.8,32.5,36.6c18.3,13.7,19,50,10.8,57.4
	C182.8,166.5,176.4,169.9,168.4,171.5z"/>
<path class="st6" d="M105.8,165.7l-3.5-12.7l-3.8-6c-9.7,18.2-5.3,29.3,8.7,35.4c-13.5-3.1-18.7-5.2-22.6-10.8
	c-14.2,5.2-24.7,4.6-31.5-1.7L97.5,150c7.7-18.4-5.4-36.4-20.5-38.1c5.5,1,9.7-0.8,12.6-5.3l47.7-35.9c1.7,15.7-5.9,25.4-18.4,25
	c0,6.1-3.6,9.4-8.5,11.7c-6.5,9.8-0.4,21,8,30.2l-8.2,4.9C121.1,142,113.9,162.3,105.8,165.7z"/>
<path class="st9" d="M129.1,45.4c35.5-26.7,79.3,23.5,44.3,54.2"/>
<path class="st10" d="M115.7,96.4c-1.4,9-14.7,14.2-27.3,11.5c4.9-19.6-3.5-33.7-38.5-31.1c-5.8-11.1,4.1-19.1,14-19.1
	c-1.9-12,13.6-18.6,18.8-13.8c12.6-22.9,47.4-9.3,47.1,5.5c20.8-9.8,33.2,23.8,1.1,25.9C132.6,84.8,130.6,94,115.7,96.4z"/>
<path class="st7" d="M105.5,84.1c2.9,8.7-5.2,17.9-19.5,17c4.2-16.8-3.2-24-33.2-21.8C50.6,66.5,63.1,59.1,71,60.8
	c0.5-21,26.7-21.5,32.4-13.9c4.9-6.6,15.3-3.2,15.5,4c15.6-6.3,22.4,18.4,5.3,21.6C125.5,80.7,115.2,87.4,105.5,84.1z"/>
<path class="st5" d="M167.5,90.1c-5.6-8.5-8.6-10.3-14.3-15.5c14.5-13.6,26-7.2,39-14.7C188.4,71.4,183.7,88.4,167.5,90.1z"/>
<path class="st6" d="M167.5,90.1c-5.2-7.2-7.7-10.3-11.6-13.2c16.1-9.5,21.9-5.6,34.2-10.4C186.3,78,181.8,87,167.5,90.1z"/>
<path class="st11" d="M164.9,87.3l-4.6-6.1c2.4-3.7,19.7-9.2,20.7-5C182.6,83.4,164.4,88.7,164.9,87.3z"/>
<path class="st7" d="M166.4,98.1c-2.6-7.2-9.8-14.1-17.3-12.5C155.8,86.8,162.6,92.6,166.4,98.1z M139.4,116.5
	c-5.2-6.5-11.1-9.9-19.9-12.4C126.9,101.7,135.5,107.6,139.4,116.5z M188.4,134.4c-2-9.4-5.9-30.4-25.7-22.3
	C181.2,97.5,189.1,123.5,188.4,134.4z M99.7,153.3c3.5,6.1,0,18.3,7.4,24.8C104.9,173.2,105.3,158.2,99.7,153.3z M170,147
	c8.5,1.3,14.5-2.8,14.7-9.4C186.5,147.5,180.3,151.9,170,147z"/>
<path class="st8" d="M77,111.8c7.2-0.5,17.9,8.4,21.1,18.6c6.5,19.6-9,36.4-27.7,40.1c-34.7,5.9-56.5-30.2-49.4-60.2
	c6-31.4,43.8-46.4,66.2-27.6C96.7,93,92.9,113.8,77,111.8z"/>
<path class="st0" d="M77,111.8c-18.9-2.8-33.6,12.1-34.4,25c1.8-17.8,36.3-17.6,33.5,1.5c-2.1,15.2-32.9,18.9-39.5-6
	C30.3,109.1,55.9,88.6,81,96.2C90,99.5,87,111.5,77,111.8z"/>
<path class="st12" d="M130.7,136.4l-7-0.2c-10.2-8.9-12.7-22-10-26.3c5.7-6.9,23.3,1.9,27.4,14.2
	C142.2,126.9,137.8,134.5,130.7,136.4z"/>
<path class="st13" d="M120.7,114.9c6.9-6.1,18.5,0.2,20.6,10.7l-2.6,5.1l-4.8,4.4l-4.7,1C125,134.3,114.7,119.7,120.7,114.9z"/>
<path class="st12" d="M167.2,106.3l0.7-0.3c-3.9,1.2-6.5,3.2-9.5,7c-9.4-2-18-18.9-13.3-24C150.4,85.7,160.8,90.2,167.2,106.3z"/>
<path class="st13" d="M151.7,94.9c6.9-6.1,12.5,5.1,15.5,11.4l-7.5,5.2C154.8,111.6,147.5,99.5,151.7,94.9z"/>
<path class="st2" d="M90.8,229.8l6.7-0.1l7.1-2.2c2.1,22.5,12,33.3,16.4,37.9l-3.3,1.7l0.6,3.6C107.4,266.7,97.4,254.6,90.8,229.8z"
	/>
<path class="st9" d="M64,279.6c-6.9,9.9-23.4,15.9-28.6,0.9c-0.6,18.2,21.3,16.9,32,8.4"/>
<path class="st1" d="M90.8,229.8l6.7-0.1l-1.9,0.2c2.1,22.5,18.8,36.6,25.4,35.4l-3.3,1.7l0.6,3.6
	C107.4,266.7,97.4,254.6,90.8,229.8z"/>
<path class="st3" d="M133.3,352.8c-5.2-2.1-6.7-1.5-9.3,1.2c1.1,3.9,0.8,4,2.1,6.1l3.3-2.6l3.6,2.2
	C132.9,357.2,133.4,355.9,133.3,352.8z"/>
<path class="st3" d="M112.2,267.5l1.9-4.2l3.3-1.9c1.3,1.7,2.6,3,3.5,4l-3.3,1.7l0.6,3.6C116.2,269.9,114.2,268.8,112.2,267.5z"/>
<path class="st2" d="M163.9,222.7c-4.3,3.2-8.9,5.3-13.8,6.1c-1,16.2-4.6,30.9-8.8,37.9l4.2-0.8l1.6,2.8
	C155.9,262.8,163.4,241.4,163.9,222.7z"/>
<path class="st9" d="M84.5,297.1c3,28.8,1.6,55.2,8.6,65.3l2.7-4.4l4.2,3.2c-3.8-12.3,2.6-22.1,1.6-56.9"/>
<path class="st1" d="M156.4,227.7c-4.3,3.2-1.4,0.3-6.3,1.1c-1,16.2-4.6,30.9-8.8,37.9l4.2-0.8C154.4,260,157.6,236.7,156.4,227.7z"
	/>
<path class="st9" d="M123.9,310c1.2,30.3-2.5,42.5,2.2,50.1l3.3-2.6l3.6,2.2c-1.2-10.5,7.4-25.8,7.4-54.1"/>
<path class="st3" d="M151.5,264.4l-2.2-2.4l-5.1-1.4c-0.9,2.4-1.9,4.5-2.9,6.1l4.2-0.8l1.6,2.8C148.6,267.7,150.1,266.3,151.5,264.4
	z"/>
<path class="st9" d="M104.6,227.5c2.1,22.5,12,33.3,16.4,37.9l-3.3,1.7l0.6,3.6c-10.7-3.9-20.8-16-27.4-40.8"/>
<path class="st9" d="M150.1,228.8c-1,16.2-4.6,30.9-8.8,37.9l4.2-0.8l1.6,2.8c8.9-5.9,16.4-27.4,16.9-46"/>
<ellipse transform="matrix(0.9998 -2.150183e-02 2.150183e-02 0.9998 -2.6505 2.9333)" class="st14" cx="135.1" cy="124.7" rx="6" ry="6"/>
<path class="st9" d="M144,261.2c3.3-1.2,5.3,0.4,7.2,2.8"/>
<path class="st9" d="M113,268c-1.8-1.2,1.9-7.4,4.5-6.5"/>
<ellipse transform="matrix(0.9998 -2.154303e-02 2.154303e-02 0.9998 -2.6415 2.8354)" class="st12" cx="130.3" cy="124" rx="2.9" ry="2.9"/>
<ellipse transform="matrix(0.9998 -2.115167e-02 2.115167e-02 0.9998 -2.4989 2.5878)" class="st12" cx="121.1" cy="119.4" rx="3.5" ry="3.5"/>
<path class="st15" d="M121.4,166.1c2.3-0.4,3.9-2.4,4.2-4.9 M168.3,171.5c-3.9,10.4-29.9,21.3-60.1,3.1 M148.5,82.4
	c-2.8-2.1-7.9-0.7-10.1,2.2 M176,104.8c-6.5-0.3-12.8,2.2-17.7,8.2c-9.4-2-18-18.9-13.3-24c5.4-3.3,15.7,1.1,22.2,17.2 M123.7,136.1
	c-10.2-8.9-12.7-22-10-26.3c5.7-6.9,23.3,1.9,27.4,14.2c1.1,2.9-3.3,10.5-10.4,12.4 M110.3,107.3c-3,2-3.6,6.1-1.8,9.8 M138,139.6
	c-6.6-5.2-18.8-5.2-27.8,2.8 M182.3,147.5c3.7,3.9,5.7,13.5,2.6,16.6 M172.4,148.8c9.9,2.8,13.7-4.2,13.2-10.7 M153.2,74.5
	c14.2-13.3,25.8-7.5,39-14.7c-3.7,11.5-7.7,27.1-24.7,30.2 M115.7,96.4c-1.2,8.4-14.5,14.3-27.3,11.5 M63.9,57.7
	c-1.6-13.4,14-18.8,18.8-13.8c6-16.9,43.7-16.8,47.1,5.5c21-10.2,32.9,24.2,1.1,25.9c3.8,6.3-1.9,20.8-15.2,21.2 M49.9,76.8
	c-4.6-6.3,0.9-19.9,14-19.1 M146.5,69.9c11.7,6.9,22.8,20.4,29.5,35c18.3,13.7,19,50,10.8,57.4c-10,10.4-34,15.8-62.2,1.7
	 M145.8,282.4c3.1,2.6,6.6,0,6.1-2.3 M134.2,277.4c3.6,3,7.8,0,7.2-2.8 M99.9,290.3c2,3.8,6.5,2.7,7,0.1 M100.2,276.7
	c0.9,4.2,5.5,4.3,6.7,2 M83.2,267.2c1.1,5.2,6.8,5.4,8.3,2.5 M103.4,310.3c7.2,2.8,19.2,2.7,24.8-3.4c11.2,1.7,22.8-5,22.5-13
	c10,0.3,20.5-18.2,17.7-28.6c7.7-2.1,14.7-20.2,5.7-31.4c3.1-5.3,6.9-18.7,0.2-27.6 M55,196c-5.8,9,6.6,30.5,22.5,24.4
	c5.2,11,19.3,12.2,30.2,5.2c4.8,12.3,22.9,11.3,28.4,0c21.8,12.6,44.1-13.8,38.2-33c8.4-3.9,11.9-16,4.8-24.9 M153.4,191.1
	c2.4,1.7,4.9-0.4,4.4-2.1 M147.3,205.6c4.3,2.6,8.3-1.2,7.2-4.1 M130,205.4c2.6,3.4,6.8,1.6,6.8-1 M116.1,193.9c3,4.1,8.1,2,8.2-1.1
	 M123.4,63.1c1.4,2.3,4.2,0.3,3.8-1.6 M111.6,75.4c4,4,9.4,0.7,8.6-3.5 M93.5,82.9c3.8,3.4,8.4,0.3,7.8-2.8 M96.5,68.4
	c1.6,3.8,6.3,1.5,6.3-1.4 M83.3,303.3c-4.6-0.9-8.4-4.9-9.6-9.4c-6.1-1.5-10.8-12-10.2-22c-6.6-4-11-27.6-6.9-34.2
	c-4.4-6.4-5.6-16.3,0.2-25.9 M55,196c-6.4-6.2-8.4-19.3-5.2-27 M82.5,295c4.9,6.1,14.4,11.5,23.8,8.6 M81.9,166.3
	c1.2,8.8,20.2,18,31.4,15.9c-11.2-11.5-4.8-25.4-14.8-35.2"/>
<ellipse transform="matrix(0.9998 -2.149467e-02 2.149467e-02 0.9998 -2.0893 3.2723)" class="st12" cx="151.2" cy="98.8" rx="3" ry="3"/>
<ellipse transform="matrix(0.9998 -2.129840e-02 2.129840e-02 0.9998 -2.1876 3.4522)" class="st14" cx="161" cy="104.4" rx="5.4" ry="5.4"/>
<ellipse transform="matrix(0.9998 -2.101436e-02 2.101436e-02 0.9998 -2.1137 3.3066)" class="st12" cx="156.3" cy="102.2" rx="2.5" ry="2.5"/>
<path class="st9" d="M49.7,95.9C49,89.8,43.6,85.6,39,86.1"/>
<path class="st9" d="M40,97.7c-0.4-3.5-3.5-5.9-6.1-5.6"/>
<path class="st9" d="M42.6,136.7c7.1-5.5,28.4-10.6,29.5,1.3"/>
<path class="st9" d="M90.7,357.4c0-2.9,5.2-4.6,8.3-1.8"/>
<path class="st9" d="M124.2,355c-0.4-2.9,6.8-4.8,9-1.5"/>
<path class="st16" d="M78.2,81.3c-10.7-2.1-21.3-1.5-33.6,1.7C56.1,76.3,67.3,76.1,78.2,81.3z"/>
<path class="st17" d="M81.7,162.4c7.8-7,12.5-15.3,14.3-26.6C97.7,149.3,90.8,157.5,81.7,162.4z"/>
<path class="st9" d="M81.5,117.9c-2.2-0.1-3.9,1.7-4,3.2"/>
<path class="st9" d="M87.1,122.5c-1.9-0.5-4.5,0.9-5.3,3.3"/>
<path class="st18" d="M97.4,37.4c7-2.4,14.7-0.5,20,3.9C114.7,33.1,103.9,32.1,97.4,37.4z M132.1,51.5c5.9-0.6,11.6,2.2,14.9,6.7
	C146.3,51.3,138.1,48.5,132.1,51.5z"/>
<path class="st9" d="M42.6,136.7c2.7-26.9,44.7-37.3,55.5-6.4c6.5,19.6-9,36.4-27.7,40.1c-34.7,5.9-56.5-30.2-49.4-60.2
	c6-31.4,43.8-46.4,66.2-27.6c9.6,10.3,5.9,31.1-10.1,29.1"/>
<path class="st10" d="M150.6,222.2c8.4-4.7,15.4-12.5,18.3-23.1C171.5,209.9,159.7,221.1,150.6,222.2z M108.7,218.3
	c-5.9,0.6-11.6-2.2-14.9-6.7C94.5,218.5,102.7,221.3,108.7,218.3z"/>
</svg>
