<?xml version="1.0" encoding="utf-8"?>
<!-- Generator: Adobe Illustrator 21.1.0, SVG Export Plug-In . SVG Version: 6.00 Build 0)  -->
<svg version="1.1" id="Layer_1" xmlns="http://www.w3.org/2000/svg" xmlns:xlink="http://www.w3.org/1999/xlink" x="0px" y="0px"
	 viewBox="0 0 525 431" style="enable-background:new 0 0 525 431;" xml:space="preserve">
<style type="text/css">
	.st0{fill-rule:evenodd;clip-rule:evenodd;fill:#E2EAB6;}
	.st1{fill-rule:evenodd;clip-rule:evenodd;fill:#D3E095;}
</style>
<path class="st0" d="M419.1,416.4c-103.9,45.1-155.7-30.7-250.9-26.4C103.5,393,22,375.7,28.9,259.7C29.7,193-14.6,173.5,5,113.8
	C22.2,61.2,79,38,149,57.4c92.7,22.3,126.7-11.8,191.7-7.1c71.6,5.2,118.9,76.6,135.8,151.5C496.6,291.6,490.1,377.5,419.1,416.4z"
	/>
<path class="st1" d="M272.8,412.3c64.3,36.3,171.3,18.5,186-41.2c4.3-16.7,3.1-31.4-6.5-9c-10.6,24.7-14.6,27.6-17,4.5
	c-0.4-3.7-3.1-33.3-9.8-20.6c-6.1,11.6-13.6,27.3-16.4,39.3c-1.1,4.8-11.9-52.2-21.2-15.4c-5.5,27.5-4.4,22-16.8,0.7
	c-9-11.3-5.9,3.1-6.9,11.8c-1.3,16.3,3.7,8.7-9.7,7.7c-10.5-0.6-32.5-11.1-29.3,4.3c2.9,13.5-13,5.6-23,2.9
	c-24.9-6.1-23.4,9.6-7.5,13.8C310.6,415.5,279.6,408.9,272.8,412.3z"/>
<path class="st1" d="M62.5,362.2c27.3,25,72.5,31.4,123.8,27.9l-22.6-36.3c-3.1-12.5-31.3-33.8-40.5-33.8c-6.5,0,0,4.3,3.2,7.6
	c27.9,27.9-33.9-19.1-27.1-3.2c2.2,4.3,13,18.4,13,23.8c0,1.1-25.9-20.4-35.7-24.8c-8.8-3.9-2.2,7.6,0,11.9
	c1.1,2.2,7.7,18.6,5.4,16.2c-4.9-5.1-57.2-22.3-50.6-11.7C35.5,346.4,60.1,360.3,62.5,362.2z"/>
</svg>
