<?xml version="1.0" encoding="utf-8"?>
<!-- Generator: Adobe Illustrator 21.1.0, SVG Export Plug-In . SVG Version: 6.00 Build 0)  -->
<svg version="1.1" id="Layer_1" xmlns="http://www.w3.org/2000/svg" xmlns:xlink="http://www.w3.org/1999/xlink" x="0px" y="0px"
	 viewBox="0 0 525 431" style="enable-background:new 0 0 525 431;" xml:space="preserve">
<style type="text/css">
	.st0{fill-rule:evenodd;clip-rule:evenodd;fill:#E2EAB6;}
	.st1{fill-rule:evenodd;clip-rule:evenodd;fill:#D3E095;}
	.st2{fill-rule:evenodd;clip-rule:evenodd;fill:#F6A840;}
	.st3{fill:none;stroke:#D3621D;stroke-width:1.7005;stroke-linecap:round;stroke-linejoin:round;stroke-miterlimit:22.9256;}
	.st4{fill-rule:evenodd;clip-rule:evenodd;fill:#F5A87D;}
	.st5{fill-rule:evenodd;clip-rule:evenodd;fill:#FACCAF;}
	.st6{fill-rule:evenodd;clip-rule:evenodd;fill:#A35939;}
	.st7{fill-rule:evenodd;clip-rule:evenodd;fill:#D88F55;}
	.st8{fill-rule:evenodd;clip-rule:evenodd;fill:#BD6E39;}
	.st9{fill-rule:evenodd;clip-rule:evenodd;fill:#FBD2B6;}
	.st10{fill-rule:evenodd;clip-rule:evenodd;fill:#EDB581;}
	.st11{fill:none;stroke:#822E2D;stroke-width:1.7005;stroke-linecap:round;stroke-linejoin:round;stroke-miterlimit:22.9256;}
	.st12{fill-rule:evenodd;clip-rule:evenodd;fill:#E5A46B;}
	.st13{fill-rule:evenodd;clip-rule:evenodd;fill:#F5B0B4;}
	.st14{fill-rule:evenodd;clip-rule:evenodd;fill:#FFFFFF;}
	.st15{fill-rule:evenodd;clip-rule:evenodd;fill:#D3ECFB;}
	.st16{fill-rule:evenodd;clip-rule:evenodd;fill:#1A1A18;}
	.st17{fill-rule:evenodd;clip-rule:evenodd;fill:#FDEBDB;}
	.st18{fill-rule:evenodd;clip-rule:evenodd;fill:#FDF1E7;}
	.st19{fill-rule:evenodd;clip-rule:evenodd;fill:#F4C69E;}
	.st20{fill-rule:evenodd;clip-rule:evenodd;fill:#F7C6C7;}
	.st21{fill-rule:evenodd;clip-rule:evenodd;fill:#EB9EA1;}
	.st22{fill:none;stroke:#6E6E6E;stroke-width:1.7005;stroke-linecap:round;stroke-linejoin:round;stroke-miterlimit:22.9256;}
	.st23{fill-rule:evenodd;clip-rule:evenodd;fill:#B7DAEF;}
	.st24{fill:none;stroke:#E37767;stroke-width:1.7005;stroke-linecap:round;stroke-linejoin:round;stroke-miterlimit:22.9256;}
	.st25{fill-rule:evenodd;clip-rule:evenodd;fill:#F3A5A6;}
	.st26{fill-rule:evenodd;clip-rule:evenodd;fill:#D1CCE6;}
	.st27{fill:none;stroke:#7C6EAF;stroke-width:1.7005;stroke-linecap:round;stroke-linejoin:round;stroke-miterlimit:22.9256;}
	.st28{fill:none;stroke:#9B9B9B;stroke-width:1.7005;stroke-linecap:round;stroke-linejoin:round;stroke-miterlimit:22.9256;}
	.st29{fill:none;stroke:#B0B1B2;stroke-width:1.7005;stroke-linecap:round;stroke-linejoin:round;stroke-miterlimit:22.9256;}
	.st30{fill-rule:evenodd;clip-rule:evenodd;fill:#575656;}
	.st31{fill:none;stroke:#1A1A18;stroke-width:1.7005;stroke-linecap:round;stroke-linejoin:round;stroke-miterlimit:22.9256;}
	.st32{fill-rule:evenodd;clip-rule:evenodd;fill:#D3621D;}
	.st33{fill:none;stroke:#E30045;stroke-width:8.5023;stroke-linecap:round;stroke-linejoin:round;stroke-miterlimit:22.9256;}
	.st34{fill-rule:evenodd;clip-rule:evenodd;fill:#7B7B7A;}
</style>
<path class="st0" d="M419.1,416.4c-103.9,45.1-155.7-30.7-250.9-26.4C103.5,393,22,375.7,28.9,259.7C29.7,193-14.6,173.5,5,113.8
	C22.2,61.2,79,38,149,57.4c92.7,22.3,126.7-11.8,191.7-7.1c71.6,5.2,118.9,76.6,135.8,151.5C496.6,291.6,490.1,377.5,419.1,416.4z"
	/>
<path class="st1" d="M272.8,412.3c64.3,36.3,171.3,18.5,186-41.2c4.3-16.7,3.1-31.4-6.5-9c-10.6,24.7-14.6,27.6-17,4.5
	c-0.4-3.7-3.1-33.3-9.8-20.6c-6.1,11.6-13.6,27.3-16.4,39.3c-1.1,4.8-11.9-52.2-21.2-15.4c-5.5,27.5-4.4,22-16.8,0.7
	c-9-11.3-5.9,3.1-6.9,11.8c-1.3,16.3,3.7,8.7-9.7,7.7c-10.5-0.6-32.5-11.1-29.3,4.3c2.9,13.5-13,5.6-23,2.9
	c-24.9-6.1-23.4,9.6-7.5,13.8C310.6,415.5,279.6,408.9,272.8,412.3z"/>
<path class="st1" d="M62.5,362.2c27.3,25,72.5,31.4,123.8,27.9l-22.6-36.3c-3.1-12.5-31.3-33.8-40.5-33.8c-6.5,0,0,4.3,3.2,7.6
	c27.9,27.9-33.9-19.1-27.1-3.2c2.2,4.3,13,18.4,13,23.8c0,1.1-25.9-20.4-35.7-24.8c-8.8-3.9-2.2,7.6,0,11.9
	c1.1,2.2,7.7,18.6,5.4,16.2c-4.9-5.1-57.2-22.3-50.6-11.7C35.5,346.4,60.1,360.3,62.5,362.2z"/>
<path class="st2" d="M224.5,211.1l-10.9-1.8c-2-3.2-0.6-6.1,1.5-8c4.4-3.4,8.9-6.9,13.3-10.3c5.1-1.5,10.2,4.6,7.1,8L224.5,211.1z"
	/>
<path class="st3" d="M224.5,211.1l-10.9-1.8c-2-3.2-0.6-6.1,1.5-8c4.4-3.4,8.9-6.9,13.3-10.3c5.1-1.5,10.2,4.6,7.1,8L224.5,211.1z"
	/>
<path class="st4" d="M140.4,305.7l-12.2,1.1l-4.3,3.1c1.2,30.3-2.8,41.5,1.2,48.3l3-6.4l5.1,0.9
	C134.2,341.4,140.3,334.1,140.4,305.7z"/>
<path class="st5" d="M140.4,305.7l-10.2,1.4c1.2,30.3-4.5,43.2,0.5,45.2l2.6,0.5C132.9,341.2,140.3,334.1,140.4,305.7z"/>
<path class="st5" d="M101.6,304.4l-17.1-7.2c3,28.8,1,52.5,7,62.2l3.4-3.6l4.1-0.2C97.4,347.9,102.7,339.1,101.6,304.4z"/>
<path class="st4" d="M93.2,302.8l-8.7-5.7c1.7,16.1,1.9,48.3,5.8,58.9l3.9-1.8C90.9,345.8,95.6,322.5,93.2,302.8z"/>
<path class="st6" d="M99,355.6c-1.7-3.3-7.2-1.5-8.1,1.1l2.2,5.8l2.7-4.4l4.2,3.2L99,355.6z"/>
<path class="st7" d="M67.4,288.9l-3.4-9.3c-7.5,8-21.3,17.2-28.6,0.9C35.1,297.8,57.1,298.1,67.4,288.9z"/>
<path class="st8" d="M101.7,309.5l-0.1-5.2c-5,0.8-10.8-1.6-17.1-7.2l-0.5,6.3c-5.3-0.4-8-4.9-9.4-8.8c-6.2-2-4.1-7.4-6.5-20.2
	c-5.7-6.3-9.7-11.8-9.5-25l-2.5-17.7c1.2-10.2,8.4-22.4,14-29.5l104.3,4c3.9,4.6,6.6,15.6-0.2,27.6c5.4,5.4,7.6,24.2-5.7,31.4
	c2.8,10.6-7.7,28.9-17.7,28.6c-1.7,9.3-11.4,14.6-22.5,13C120.6,310,108.5,313,101.7,309.5z"/>
<path class="st6" d="M101.7,309.5l-0.1-5.2c-4.8,0.8-11.2-1.5-17.2-6.9l0.7,6.4c-8-1.2-10.1-6.3-11.4-10c-5.8-1.9-12.7-18.7-10.2-22
	c-9.2-9.5-9.6-27.4-6.9-34.2c-4.4-8.6-5-19.2,0.2-25.9c7.2,9.4,14.2,12.3,20.8,8.6l5,6.1c-0.7,8.4,3.3,17.8,12.7,20.6
	c-8,3-7.5,13.6-2.4,17.7c-3.5,5.1-0.4,9.8,4.5,10.6c1.7,10.2,17.5,9.3,21.7,3.8c3.8,8.1,32.9,18.6,47.1-2
	c1.1,8.7-7.3,14.5-15.5,16.6c0.2,8-12,14.5-22.5,13C121.2,313.3,108.1,312.8,101.7,309.5z"/>
<path class="st7" d="M179.2,167.8l-99-22.5L49.8,169c-2.9,12.8-0.2,21,5.2,27l4.1-4.5c6.2,2.2,9.8,5.8,10.9,10.8l4,9.7
	c2.5,4.6,8.9,3.3,16,2.6c-5,9.1,8.5,16.3,17.8,11c4.8,12.3,22,11.4,28.4,0c21.8,12.6,44.3-13.3,38.2-33
	C182.8,188.8,186.3,176.7,179.2,167.8z"/>
<path class="st8" d="M80.1,145.3L49.8,169c-2.9,12.8-0.2,21,5.2,27c-5.3,19.8,14,31.6,21.7,19.3c2.5,4.6,10,1.2,13.2-0.7
	c-7,0.1-10.8-4.6-13.1-9.6c-1.6-13.2-13.8-14.2-3.5-25.5c5.9-7.8,15.2,1.5,22.8-0.1C87.5,170.7,99.3,160.6,80.1,145.3z"/>
<path class="st9" d="M173.4,99.5l-36.2-29l-8.1-25.2C167.1,16.7,207.7,71.4,173.4,99.5z"/>
<path class="st8" d="M98.5,146.9c-4.1,9.8-8.1,15.8-16.6,19.3c1.5,3.8,11.2,17.5,31.4,15.9C104.3,174.6,106.6,155,98.5,146.9z"/>
<path class="st10" d="M173.4,99.5l-43-16.6l1.7-31.5C175.2,31.1,196.6,80.1,173.4,99.5z"/>
<path class="st8" d="M168.4,171.5c-8.1,12.8-32.2,20-60.1,3.2l-4.9-19.9l-4.9-7.8c3.8-15.5-6.4-33.5-21.5-35.2
	c5.5,1,9.7-0.8,12.6-5.3l37.1-47.1l16.8,8.9c12.8,6.3,25.2,20.8,32.5,36.6c18.3,13.7,19,50,10.8,57.4
	C182.8,166.5,176.4,169.9,168.4,171.5z"/>
<path class="st6" d="M105.8,165.7l-3.5-12.7l-3.8-6c-9.7,18.2-5.3,29.3,8.7,35.4c-13.5-3.1-18.7-5.2-22.6-10.8
	c-14.2,5.2-24.7,4.6-31.5-1.7L97.5,150c7.7-18.4-5.4-36.4-20.5-38.1c5.5,1,9.7-0.8,12.6-5.3l47.7-35.9c1.7,15.7-5.9,25.4-18.4,25
	c0,6.1-3.6,9.4-8.5,11.7c-6.5,9.8-0.4,21,8,30.2l-8.2,4.9C121.1,142,113.9,162.3,105.8,165.7z"/>
<path class="st11" d="M129.1,45.4c35.5-26.7,79.3,23.5,44.3,54.2"/>
<path class="st12" d="M115.7,96.4c-1.4,9-14.7,14.2-27.3,11.5c4.9-19.6-3.5-33.7-38.5-31.1c-5.8-11.1,4.1-19.1,14-19.1
	c-1.9-12,13.6-18.6,18.8-13.8c12.6-22.9,47.4-9.3,47.1,5.5c20.8-9.8,33.2,23.8,1.1,25.9C132.6,84.8,130.6,94,115.7,96.4z"/>
<path class="st7" d="M105.5,84.1c2.9,8.7-5.2,17.9-19.5,17c4.2-16.8-3.2-24-33.2-21.8C50.6,66.5,63.1,59.1,71,60.8
	c0.5-21,26.7-21.5,32.4-13.9c4.9-6.6,15.3-3.2,15.5,4c15.6-6.3,22.4,18.4,5.3,21.6C125.5,80.7,115.2,87.4,105.5,84.1z"/>
<path class="st8" d="M167.5,90.1c-5.6-8.5-8.6-10.3-14.3-15.5c14.5-13.6,26-7.2,39-14.7C188.4,71.4,183.7,88.4,167.5,90.1z"/>
<path class="st6" d="M167.5,90.1c-5.2-7.2-7.7-10.3-11.6-13.2c16.1-9.5,21.9-5.6,34.2-10.4C186.3,78,181.8,87,167.5,90.1z"/>
<path class="st13" d="M164.9,87.3l-4.6-6.1c2.4-3.7,19.7-9.2,20.7-5C182.6,83.4,164.4,88.7,164.9,87.3z"/>
<path class="st10" d="M150.6,222.2c8.4-4.7,15.4-12.5,18.3-23.1C171.5,209.9,159.7,221.1,150.6,222.2z"/>
<path class="st10" d="M115.9,229.6c7.5,0.8,14.6-2.8,18.9-8.4C133.9,229.9,123.5,233.3,115.9,229.6z"/>
<path class="st10" d="M108.7,218.3c-5.9,0.6-11.6-2.2-14.9-6.7C94.5,218.5,102.7,221.3,108.7,218.3z"/>
<path class="st7" d="M188.4,134.4c-2-9.4-5.9-30.4-25.7-22.3C181.2,97.5,189.1,123.5,188.4,134.4z"/>
<path class="st7" d="M170,147c8.5,1.3,14.5-2.8,14.7-9.4C186.5,147.5,180.3,151.9,170,147z"/>
<path class="st7" d="M139.4,116.5c-5.2-6.5-11.1-9.9-19.9-12.4C126.9,101.7,135.5,107.6,139.4,116.5z"/>
<path class="st7" d="M99.7,153.3c3.5,6.1,0,18.3,7.4,24.8C104.9,173.2,105.3,158.2,99.7,153.3z"/>
<path class="st7" d="M166.4,98.1c-3.9-5.4-10.7-11.3-17.3-12.5C156.6,83.9,163.9,90.9,166.4,98.1z"/>
<path class="st9" d="M77,111.8c7.2-0.5,17.9,8.4,21.1,18.6c6.5,19.6-9,36.4-27.7,40.1c-34.7,5.9-56.5-30.2-49.4-60.2
	c6-31.4,43.8-46.4,66.2-27.6C96.7,93,92.9,113.8,77,111.8z"/>
<path class="st10" d="M77,111.8c-18.9-2.8-33.6,12.1-34.4,25c1.8-17.8,36.3-17.6,33.5,1.5c-2.1,15.2-32.9,18.9-39.5-6
	C30.3,109.1,55.9,88.6,81,96.2C90,99.5,87,111.5,77,111.8z"/>
<path class="st11" d="M42.6,136.7c2.7-26.9,44.7-37.3,55.5-6.4c6.5,19.6-9,36.4-27.7,40.1c-34.7,5.9-56.5-30.2-49.4-60.2
	c6-31.4,43.8-46.4,66.2-27.6c9.6,10.3,5.9,31.1-10.1,29.1"/>
<path class="st11" d="M146.5,69.9c11.7,6.9,22.8,20.4,29.5,35c18.3,13.7,19,50,10.8,57.4c-10,10.4-34,15.8-62.2,1.7"/>
<path class="st11" d="M168.3,171.5c-3.9,10.4-29.9,21.3-60.1,3.1"/>
<path class="st11" d="M49.9,76.8c-4.6-6.3,0.9-19.9,14-19.1"/>
<path class="st11" d="M63.9,57.7c-1.6-13.4,14-18.8,18.8-13.8c6-16.9,43.7-16.8,47.1,5.5c21-10.2,32.9,24.2,1.1,25.9
	c3.8,6.3-1.9,20.8-15.2,21.2"/>
<path class="st11" d="M115.7,96.4c-1.2,8.4-14.5,14.3-27.3,11.5"/>
<path class="st11" d="M93.5,82.9c3.8,3.4,8.4,0.3,7.8-2.8"/>
<path class="st11" d="M116.1,193.9c3,4.1,8.1,2,8.2-1.1"/>
<path class="st11" d="M83.2,267.2c1.1,5.2,6.8,5.4,8.3,2.5"/>
<path class="st11" d="M100.2,276.7c0.9,4.2,5.5,4.3,6.7,2"/>
<path class="st11" d="M134.2,277.4c3.6,3,7.8,0,7.2-2.8"/>
<path class="st11" d="M145.8,282.4c3.1,2.6,6.6,0,6.1-2.3"/>
<path class="st11" d="M99.9,290.3c2,3.8,6.5,2.7,7,0.1"/>
<path class="st11" d="M147.3,205.6c4.3,2.6,8.3-1.2,7.2-4.1"/>
<path class="st11" d="M130,205.4c2.6,3.4,6.8,1.6,6.8-1"/>
<path class="st11" d="M153.4,191.1c2.4,1.7,4.9-0.4,4.4-2.1"/>
<path class="st11" d="M111.6,75.4c4,4,9.4,0.7,8.6-3.5"/>
<path class="st11" d="M123.4,63.1c1.4,2.3,4.2,0.3,3.8-1.6"/>
<path class="st11" d="M96.5,68.4c1.6,3.8,6.3,1.5,6.3-1.4"/>
<path class="st14" d="M130.7,136.4l-7-0.2c-10.2-8.9-12.7-22-10-26.3c5.7-6.9,23.3,1.9,27.4,14.2
	C142.2,126.9,137.8,134.5,130.7,136.4z"/>
<path class="st15" d="M120.7,114.9c6.9-6.1,18.5,0.2,20.6,10.7l-2.6,5.1l-4.8,4.4l-4.7,1C125,134.3,114.7,119.7,120.7,114.9z"/>
<path class="st11" d="M138,139.6c-6.6-5.2-18.8-5.2-27.8,2.8"/>
<path class="st14" d="M167.2,106.3l0.7-0.3c-3.9,1.2-6.5,3.2-9.5,7c-9.4-2-18-18.9-13.3-24C150.4,85.7,160.8,90.2,167.2,106.3z"/>
<path class="st15" d="M151.7,94.9c6.9-6.1,12.5,5.1,15.5,11.4l-7.5,5.2C154.8,111.6,147.5,99.5,151.7,94.9z"/>
<path class="st11" d="M182.3,147.5c3.7,3.9,5.7,13.5,2.6,16.6"/>
<path class="st11" d="M110.3,107.3c-3,2-3.6,6.1-1.8,9.8"/>
<path class="st11" d="M121.4,166.1c2.3-0.4,3.9-2.4,4.2-4.9"/>
<path class="st11" d="M148.5,82.4c-2.8-2.1-7.9-0.7-10.1,2.2"/>
<path class="st11" d="M101.7,309.5c6.8,3.5,20.5,4,26.5-2.6c11.2,1.7,22.8-5,22.5-13c10,0.3,20.5-18.2,17.7-28.6
	c7.7-2.1,14.7-20.2,5.7-31.4c3.1-5.3,6.9-18.7,0.2-27.6"/>
<path class="st11" d="M84,303.5c-4.9-0.6-9-4.7-10.3-9.5c-6.1-1.5-10.8-12-10.2-22c-6.6-4-11-27.6-6.9-34.2
	c-4.4-6.4-5.6-16.3,0.2-25.9"/>
<path class="st11" d="M82.5,295c4.9,6.1,14.4,11.5,23.8,8.6"/>
<path class="st11" d="M64,279.6c-6.9,9.9-23.4,15.9-28.6,0.9c-0.6,18.2,21.3,16.9,32,8.4"/>
<path class="st11" d="M55,196c-6.4-6.2-8.4-19.3-5.2-27"/>
<path class="st6" d="M133.3,352.8c-5.2-2.1-6.7-1.5-9.3,1.2c1.1,3.9,0.8,4,2.1,6.1l3.3-2.6l3.6,2.2
	C132.9,357.2,133.4,355.9,133.3,352.8z"/>
<path class="st11" d="M84.5,297.1c3,28.8,1.6,55.2,8.6,65.3l2.7-4.4l4.2,3.2c-3.8-12.3,2.6-22.1,1.6-56.9"/>
<path class="st11" d="M123.9,310c1.2,30.3-2.5,42.5,2.2,50.1l3.3-2.6l3.6,2.2c-1.2-10.5,7.4-25.8,7.4-54.1"/>
<ellipse transform="matrix(0.9998 -2.150183e-02 2.150183e-02 0.9998 -2.6505 2.9333)" class="st16" cx="135.1" cy="124.7" rx="6" ry="6"/>
<ellipse transform="matrix(0.9998 -2.154303e-02 2.154303e-02 0.9998 -2.6415 2.8354)" class="st14" cx="130.3" cy="124" rx="2.9" ry="2.9"/>
<ellipse transform="matrix(0.9998 -2.115167e-02 2.115167e-02 0.9998 -2.4989 2.5878)" class="st14" cx="121.1" cy="119.4" rx="3.5" ry="3.5"/>
<path class="st11" d="M81.9,166.3c1.2,8.8,20.2,18,31.4,15.9c-11.2-11.5-4.8-25.4-14.8-35.2"/>
<ellipse transform="matrix(0.9998 -2.149467e-02 2.149467e-02 0.9998 -2.0893 3.2723)" class="st14" cx="151.2" cy="98.8" rx="3" ry="3"/>
<ellipse transform="matrix(0.9998 -2.129840e-02 2.129840e-02 0.9998 -2.1876 3.4522)" class="st16" cx="161" cy="104.4" rx="5.4" ry="5.4"/>
<ellipse transform="matrix(0.9998 -2.099757e-02 2.099757e-02 0.9998 -2.112 3.3039)" class="st14" cx="156.3" cy="102.2" rx="2.5" ry="2.5"/>
<path class="st11" d="M49.7,95.9C49,89.8,43.6,85.6,39,86.1"/>
<path class="st11" d="M40,97.7c-0.4-3.5-3.5-5.9-6.1-5.6"/>
<path class="st11" d="M42.6,136.7c7.1-5.5,28.4-10.6,29.5,1.3"/>
<path class="st11" d="M90.7,357.4c0-2.9,5.2-4.6,8.3-1.8"/>
<path class="st11" d="M124.2,355c-0.4-2.9,6.8-4.8,9-1.5"/>
<path class="st11" d="M153.2,74.5c14.2-13.3,25.8-7.5,39-14.7c-3.7,11.5-7.7,27.1-24.7,30.2"/>
<path class="st17" d="M78.2,81.3c-10.7-2.1-21.3-1.5-33.6,1.7C56.1,76.3,67.3,76.1,78.2,81.3z"/>
<path class="st18" d="M81.7,162.4c7.8-7,12.5-15.3,14.3-26.6C97.7,149.3,90.8,157.5,81.7,162.4z"/>
<path class="st11" d="M81.5,117.9c-2.2-0.1-3.9,1.7-4,3.2"/>
<path class="st11" d="M87.1,122.5c-1.9-0.5-4.5,0.9-5.3,3.3"/>
<path class="st11" d="M172.4,148.8c9.9,2.8,13.8-4.2,13.2-10.7"/>
<path class="st19" d="M132.1,51.5c5.9-0.6,11.6,2.2,14.9,6.7C146.3,51.3,138.1,48.5,132.1,51.5z"/>
<path class="st19" d="M97.4,37.4c7-2.4,14.7-0.5,20,3.9C114.7,33.1,103.9,32.1,97.4,37.4z"/>
<path class="st5" d="M90.8,229.8l6.7-0.1l7.1-2.2c2.1,22.5,12,33.3,16.4,37.9l-3.3,1.7l0.6,3.6C107.4,266.7,97.4,254.6,90.8,229.8z"
	/>
<path class="st4" d="M90.8,229.8l6.7-0.1l-1.9,0.2c2.1,22.5,18.8,36.6,25.4,35.4l-3.3,1.7l0.6,3.6
	C107.4,266.7,97.4,254.6,90.8,229.8z"/>
<path class="st5" d="M163.9,222.7c-4.3,3.2-8.9,5.3-13.8,6.1c-1,16.2-4.6,30.9-8.8,37.9l4.2-0.8l1.6,2.8
	C155.9,262.8,163.4,241.4,163.9,222.7z"/>
<path class="st4" d="M156.4,227.7c-4.3,3.2-1.4,0.3-6.3,1.1c-1,16.2-4.6,30.9-8.8,37.9l4.2-0.8C154.4,260,157.6,236.7,156.4,227.7z"
	/>
<path class="st6" d="M112.2,267.5l1.9-4.2l3.3-1.9c1.3,1.7,2.6,3,3.5,4l-3.3,1.7l0.6,3.6C116.2,269.9,114.2,268.8,112.2,267.5z"/>
<path class="st6" d="M151.5,264.4l-2.2-2.4l-5.1-1.4c-0.9,2.4-1.9,4.5-2.9,6.1l4.2-0.8l1.6,2.8C148.6,267.7,150.1,266.3,151.5,264.4
	z"/>
<path class="st11" d="M104.6,227.5c2.1,22.5,12,33.3,16.4,37.9l-3.3,1.7l0.6,3.6c-10.7-3.9-20.8-16-27.4-40.8"/>
<path class="st11" d="M150.1,228.8c-1,16.2-4.6,30.9-8.8,37.9l4.2-0.8l1.6,2.8c8.9-5.9,16.4-27.4,16.9-46"/>
<path class="st11" d="M113,268c-1.8-1.2,1.9-7.4,4.5-6.5"/>
<path class="st11" d="M144,261.2c3.3-1.2,5.3,0.4,7.2,2.8"/>
<path class="st11" d="M55,196c-5.8,9,6.6,30.5,22.5,24.4c5.2,11,19.3,12.2,30.2,5.2c4.8,12.3,22.9,11.3,28.4,0
	c21.8,12.6,44.1-13.8,38.2-33c8.4-3.9,11.9-16,4.8-24.9"/>
<path class="st6" d="M371.6,20.4l66.3,43.4c39.4-7.9,29.5-38.7,17.1-38.5c-19.4-0.8-12.6-19.7-24.4-23c-12-3.6-16.9,13.5-29.2,2.1
	C392.6-3.6,371.3,2,371.6,20.4z"/>
<path class="st11" d="M437.9,63.8c39.4-7.9,29.5-38.7,17.1-38.5c-19.4-0.8-12.6-19.7-24.4-23c-12-3.6-16.9,13.5-29.2,2.1
	c-8.7-8.1-30-2.5-29.7,16"/>
<path class="st8" d="M448.1,185.2c-8.9,13.6-19.1,23.3-30.2,30.4c23.5,31.7,19,63.7,11.6,83.1l-1.3,3.7l-2.4,2.5l-5.1,11.5
	l-8.1,11.1c14.3,24,14.2,37.9,6.9,53.1c-5.5,8.8-38.6,20.7-55.8,4c-1-15.8,8.1-26.6,2.6-36.4l-22.4,0.2c-2.6,11.8,1.3,18.2,2.6,30.3
	c-11.6,19.6-51.9,11.3-63-4.2l12.4-49.9c-12.7-15.6-9.3-34.6-8.3-42.7c-11.3,7.4-19.8-9.5-18.9-28.3l-18.8,5.2l4.1,2.4
	c2,7.9-16.2,15.1-26.3,6.2c-15.7-16.9,3.2-28.5,12.2-42.7c10.6-15.9,11.1-26.7,8.2-55.7c-20.7-14.6-19.3-26.1-13.6-23.6l12.3,5.5
	c-0.6-24.7,8.6-48.5,18.3-68.2c31-52.5,79.5-69.1,127.5-58.8c-2.7-11.8,10.7-11.2,14.7,11.2c0.2-10.4,5.7-14.7,9.3,0.3
	c17.5,10.1,30.6,24.9,38.7,45.2c42.7-7.5,65.2,7.5,64.9,22.2c0.2,8.9-14.5,12.4-2.8,23.7c8,7.5,9.9,19.7-0.3,22.6
	c-20.1,9.1-6.1,25.9-13.5,32.6c-11.9,11.3-22.9-12.8-32.8,3.2C465.3,195.5,455.6,194.9,448.1,185.2z"/>
<path class="st6" d="M388.6,270.4c-5.9,31-3.6,33.9,1.4,37.3c0.1,36.7-72.6,41.2-94,17c-5.1,7.2-22.5,46.6-6.6,59
	c13.7,7.3,38.2,6.1,43.6,1.2c-1.6-11.4-22-12.9-14.8-28c4.8-11.2,22.5-1.2,25.7-8.5l29.8-0.2c22.2-7.6,29.2,20.2,20.5,22.9
	c-13.9,1.5-18.2,8.5-21.2,16.4c13.1,9.9,38.5,5.2,45.3-5.6c7.4-15.2,9.7-31.7-4.6-55.7l7-9.8c11.3,6.5,18.4,14.4,41.4,4
	c-25.9,3.6-21.3-5.2-36.7-13.3l4.4-9c12-21.9,3.4-59.9-15.5-69c10.4,7.4,18.3,55.8-2.8,69.3c-5.3-4.6-14.3-6.5-21.7-1.3
	c2.9-10.7,3.9-19.5,4.3-29.8l-3.4-4.2l-2.6-7.7C385.3,259,386.7,265.6,388.6,270.4z M443.4,175.9c-8.8,26.1-40,50.6-67.1,51.1
	c-30.2,4.9-48.5,27.2-66.9,37.4l3.2-6.8c-11.4-3.2-43.5,8.1-35,26.2c-7.8-8.2-9.8-19.8-8.9-30.1l-18,5.4c12.3,3.4-11,21.5-24.4,6.9
	c7.2,3.4,19.3,3.2,23.7-7.2l2.4-3.2l0.9-5.6c23.3-7.4,47.6-17.1,51.1-48.4c-16.9-5.7,33.2,13.7,44.9,0.5l12.6,14.4
	c-22-32.7,23-9.5,54.1-49.5c32.3-45.8,20.2-105.6-31.6-135c30.9,9.7,50.8,20.3,63.6,48.6c-8.4,37.6,39.4,16.1,54.4,34.4
	c8.6,8.2,6.9,21.6,0.5,30.1c-10.9,13.2,1,23.9-5.9,30.3c-11.9,11.3-16.3-6.5-26.1,9.5C465.3,195.5,451,185.6,443.4,175.9z"/>
<polygon class="st20" points="352.8,209.6 323.6,208.5 320.3,210.8 320.1,217.6 326.7,229.1 330.3,231.8 334.2,230.4 337.3,227.8 
	"/>
<path class="st21" d="M352.8,209.6l-29.2-1.1l-3.3,2.4l-0.2,6.7c7.5-1.4,11.3-0.7,11.6,2.2c4.9-4.9,9.3-5.2,13.4-1.1L352.8,209.6z"
	/>
<path class="st20" d="M498.3,142.9c-2.4,15.5-18.7,24.6-33.8,21.8c-2.9,5.8-6.4,6.6-9.7,7.1c7.6-20.6,10.3-40.7,8-60.2
	c13,3.3,23.4-2.5,34.4,4.6C505.3,121.3,504.9,136.1,498.3,142.9z"/>
<path class="st14" d="M348.9,164.5c9.4-1.9,17.3-3.5,26.6-0.5c8.1-17.7,3.2-36.9-4-38.4C360.6,124.4,347.9,139.2,348.9,164.5z"/>
<path class="st11" d="M414.5,48.4c8.2-17.1-7.5-34-7-13c-3.1-23.1-24.6-27.4-10.6-1.5"/>
<path class="st11" d="M462.8,111.6c6.9,57.3-27,122-100,115c-14.8-1.4-23,14.3-32.5,13c-7.2-1.4-10.5-12.6-15.5-15.2 M416.7,35.7
	c18.5,11.9,32.4,28.3,38.7,45.2"/>
<path class="st14" d="M246.7,168.3l0.4-17.2c-5.8-0.6-13.8-8.3-15.7-5.3C229.4,148,234,159.2,246.7,168.3z"/>
<path class="st14" d="M354.9,208.9c-5.3-3.7-7.7-8.4-7.1-14.2c-38.9,4.4-51.8-13.8-53.7-8.9C293,192.7,313.6,222.3,354.9,208.9z"/>
<path class="st11" d="M354.9,208.9c-9.4,6.4-17.7,23.2-24.6,22.9c-3.3-1.1-8-8.2-11.3-16"/>
<path class="st22" d="M247.1,151.1c-5.8-0.6-13.8-8.3-15.7-5.3c-2,2.2,2.5,13.4,15.3,22.5"/>
<path class="st23" d="M349.6,152.3l-0.6,11.8c5.5-0.9,13.5-2.8,21.6-1c6.4-13.9,1.9-28-3.8-29.1
	C359.4,132.2,351.4,139.1,349.6,152.3z"/>
<path class="st24" d="M341.8,216.7c-5.2-0.9-8.2,0.6-10.1,3.1c-0.8-2-3.4-3-7.8-3.1"/>
<path class="st11" d="M449.6,82.3c42.9-11.5,69.8,4.3,70.6,20.8c0.2,8.9-14.5,12.4-2.8,23.7c8,7.5,9.9,19.7-0.3,22.6
	c-20.1,9.1-6.1,25.9-13.5,32.6c-11.9,11.3-22.9-12.8-32.8,3.2c-5.6,10.4-15.3,9.8-22.8,0.2"/>
<path class="st11" d="M457.3,109c13.1,8.3,28.9,0.1,39.8,7.1c8.1,5.1,7.8,19.9,1.2,26.7"/>
<path class="st16" d="M357.4,162c4.3,0,7.9-3.5,7.9-7.9c0-4.4-3.5-7.9-7.9-7.9c-4.3,0-7.9,3.5-7.9,7.9
	C349.5,158.5,353.1,162,357.4,162z"/>
<ellipse class="st14" cx="363.6" cy="150.4" rx="3.2" ry="3.2"/>
<path class="st7" d="M389.8,128.3c-3.6-7.2-19-11.2-14.1-14.9C381.7,110.1,396,122.3,389.8,128.3z"/>
<path class="st11" d="M389.8,128.3c-3.6-7.2-19-11.2-14.1-14.9C381.7,110.1,396,122.3,389.8,128.3z"/>
<path class="st7" d="M364.7,373.8l-1,10.9c13.5,15.7,50.6,7.6,54.6-2.7c-4-4.3-5.4-3.7-11,1.4c-11-11.1-29.3-10.7-34.9,0.6
	C371,379.1,368.5,375.7,364.7,373.8z"/>
<path class="st11" d="M394.1,267.2c-2.2-1.2-4.6-5.5-6.1-11.9"/>
<path class="st7" d="M289.4,383.8c10.9,10,33.2,13.1,52.9,0.6c-11.8-7.7-21.3-10-25.8-0.2C313.7,374.1,304.6,374,289.4,383.8z"/>
<path class="st11" d="M421.2,315.6c-10.5,18.6-26.6,29.5-57.5,33c-36.1,3.5-85-15.6-76.6-66.6"/>
<path class="st11" d="M413.7,326.3c12,18.9,10.6,39.7,4,55.1c-4.8,9.7-39.6,19.7-54,3.3c-0.4-14.3,7.6-26,2.6-36.4"/>
<path class="st11" d="M418.4,382c-4-4.3-5.4-3.7-11,1.4c-11-11.1-29.3-10.7-34.9,0.6c-1.4-5-4-8.4-7.8-10.2"/>
<path class="st11" d="M425.4,307.1c8.6,6.7,16.3,18.2,36.7,13.3c-18.5,8.6-27,5.7-41.4-4"/>
<path class="st11" d="M344,348.5c-1,9.4-0.3,17.7,2.5,30.3c-6.4,16.2-57.6,20.8-63.3-5.9c-2.3-12.7,1.1-28.2,12.8-48.1"/>
<path class="st11" d="M342.4,384.4c-11.8-7.7-21.3-10-25.8-0.2c-2.9-10.1-11.9-10.2-27.1-0.4"/>
<path class="st7" d="M353.5,185.4c-2.6,9.8-4.4,12.4,5.1,25.8C347.4,202.1,343,195.5,353.5,185.4z"/>
<path class="st7" d="M303.5,324.1c8.1,7.5,20,11.4,30.2,13.3C323.4,339,310.2,335.7,303.5,324.1z"/>
<path class="st7" d="M393.5,288.9c2.2-7.5,4-20.5,3.7-30.3C401,268.6,399.4,283.2,393.5,288.9z"/>
<path class="st10" d="M403.6,383.1c-8.2-4.1-16.6-4.5-26.4-2.3C386.3,374.8,395.7,375.3,403.6,383.1z"/>
<path class="st10" d="M315.2,384.7c-4.2-4.6-12-5.2-21.4-1.2C303.5,377,312.1,375.5,315.2,384.7z"/>
<path class="st8" d="M448.9,57.4c11.5-8.4,12.1-17.7,11.8-24.9C465.8,38.2,464,52.2,448.9,57.4z"/>
<path class="st7" d="M346.9,146.8c2.6-12.1,9.4-19.7,16.4-23.1C353.9,122.7,345.9,134.2,346.9,146.8z"/>
<path class="st25" d="M500.2,128.5c-5.2-9.5-14.1-8.9-25.8-11.6C487.2,116.6,497.5,114.2,500.2,128.5z"/>
<path class="st7" d="M273.5,78.6c-10.4,17.7-16.9,37.4-21.4,61.2C251.9,116.4,259.1,94.6,273.5,78.6z"/>
<path class="st7" d="M240.8,227c12.3-17,11.8-23.7,12.4-43.3C259.1,205.5,252.5,217.5,240.8,227z"/>
<path class="st11" d="M268.6,147.7c-2.8-1.1-5.9-1.1-8.3-0.6 M273.6,132.6c-4-1.7-8.7-2.3-12.4-2.1 M264.6,178
	c-2.4-1-5.8-1.2-7.9-0.1"/>
<path class="st7" d="M516.1,101.4c-6.3-13.2-36.9-21-50.4-18.3C482,77.4,515.9,84.6,516.1,101.4z"/>
<path class="st6" d="M378.5,126.8c5.2,8.8,1.3,29.8-2.9,37.2l3.7,1.5C386.5,156.9,387.2,137.9,378.5,126.8z"/>
<path class="st11" d="M343.6,165.8c8-3.9,36.5-5.6,38.9,3.4"/>
<path class="st11" d="M376.2,162.9c8.1-17.7,2.6-35.8-4.7-37.3c-10.9-1.2-23.6,13.1-22.6,38.5"/>
<path class="st22" d="M347.8,194.8c-38.9,4.4-51.8-13.8-53.7-8.9c-1.1,6.8,19.5,36.4,60.8,23"/>
<path class="st11" d="M352.6,184.6c-14.2,18.4,6.7,24.7,9.3,32.1"/>
<path class="st11" d="M258.1,209c3.1-3.5,8.3-1.8,9.1,1.3"/>
<path class="st11" d="M252.5,222c2.6-1.9,5.3,0.3,5.4,2.8"/>
<path class="st11" d="M250.1,259c19.9-4.9,64.1-16.5,70.3-48.2 M392.7,23.9c-81.1-17.4-141.8,46-145.4,124
	c-1.5,30.4,12.7,53.1-9.5,79.8c-6.5,9.1-24,21.8-11.5,38.4c11.7,12.6,32,0.6,27.5-5.1c-0.7-0.9-1.9-1.6-3.9-2.1
	c8.3-7.7,1-20.5-14.9-12.5"/>
<path class="st11" d="M176,104.8c-6.5-0.3-12.8,2.2-17.7,8.2c-9.4-2-18-18.9-13.3-24c5.4-3.3,15.7,1.1,22.2,17.2"/>
<rect x="376.1" y="282" class="st26" width="4.9" height="12"/>
<rect x="376.1" y="282" class="st27" width="4.9" height="12"/>
<path class="st11" d="M123.7,136.1c-10.2-8.9-12.7-22-10-26.3c5.7-6.9,23.3,1.9,27.4,14.2c1.1,2.9-3.3,10.5-10.4,12.4"/>
<polyline class="st28" points="404.9,377.7 379.1,346.8 349.5,374.1 "/>
<polyline class="st28" points="342.6,363.9 379.1,346.8 359.7,382.1 "/>
<line class="st28" x1="379.1" y1="346.8" x2="340.8" y2="334.4"/>
<polyline class="st28" points="388.7,307.7 379.1,346.8 400.3,312.6 "/>
<polyline class="st28" points="410.5,321.7 379.1,346.8 412.8,368.8 "/>
<polyline class="st29" points="200.3,383.9 216,346.8 189.8,377.3 "/>
<polyline class="st29" points="185.5,320.6 216,346.8 179,331.1 "/>
<polyline class="st29" points="246.6,320.6 216,346.8 256.1,350.1 "/>
<polyline class="st29" points="253.1,362.5 216,346.8 246.6,373 "/>
<line class="st29" x1="216" y1="346.8" x2="237.3" y2="381"/>
<path class="st30" d="M216,306.6c-22.2,0-40.2,18-40.2,40.2c0,22.2,18,40.2,40.2,40.2c22.2,0,40.2-18,40.2-40.2
	C256.2,324.6,238.3,306.6,216,306.6z M216,294c29.1,0,52.8,23.6,52.8,52.8c0,29.2-23.6,52.8-52.8,52.8c-29.1,0-52.8-23.6-52.8-52.8
	C163.2,317.6,186.9,294,216,294z"/>
<path class="st31" d="M216,306.6c-22.2,0-40.2,18-40.2,40.2c0,22.2,18,40.2,40.2,40.2c22.2,0,40.2-18,40.2-40.2
	C256.2,324.6,238.3,306.6,216,306.6z M216,294c29.1,0,52.8,23.6,52.8,52.8c0,29.2-23.6,52.8-52.8,52.8c-29.1,0-52.8-23.6-52.8-52.8
	C163.2,317.6,186.9,294,216,294z"/>
<path class="st30" d="M379.1,306.6c-22.2,0-40.2,18-40.2,40.2c0,22.2,18,40.2,40.2,40.2s40.2-18,40.2-40.2
	C419.3,324.6,401.3,306.6,379.1,306.6z M379.1,294c7.5,0,14.6,1.6,21.1,4.4v8.6h9v-3.6c13.7,9.5,22.7,25.4,22.7,43.3
	c0,29.1-23.6,52.8-52.8,52.8c-29.1,0-52.8-23.6-52.8-52.8C326.3,317.5,349.9,294,379.1,294z"/>
<path class="st31" d="M379.1,306.6c-22.2,0-40.2,18-40.2,40.2c0,22.2,18,40.2,40.2,40.2s40.2-18,40.2-40.2
	C419.3,324.6,401.3,306.6,379.1,306.6z M379.1,294c7.5,0,14.6,1.6,21.1,4.4v8.6h9v-3.6c13.7,9.5,22.7,25.4,22.7,43.3
	c0,29.1-23.6,52.8-52.8,52.8c-29.1,0-52.8-23.6-52.8-52.8C326.3,317.5,349.9,294,379.1,294z"/>
<path class="st26" d="M244.4,282h86.9l-26.4,57.4L244.4,282z M231.1,269.8L212,346.1l7.4,1.9l16.4-64.9l66.1,62.8l-1,2.1l6.1,2.8
	l4.6-4.8l-1.7-1.6l26.4-57.4l43.1,65.1l5.6-3.6l-44-66.5h50l-0.1-6.6l-49.4,0.2l9.9-21.5l-6.1-2.8L334,275.6h-48.7l-4.9,6.3h-4
	l-4-6.3h-23.9c-2.8-0.1-4.8-1.6-6-3.8L231.1,269.8z M245.7,243.8l4.8-19.1l-7.7-1.9l-5.8,23.1L245.7,243.8z"/>
<path class="st27" d="M244.4,282h86.9l-26.4,57.4L244.4,282z M231.1,269.8L212,346.1l7.4,1.9l16.4-64.9l66.1,62.8l-1,2.1l6.1,2.8
	l4.6-4.8l-1.7-1.6l26.4-57.4l43.1,65.1l5.6-3.6l-44-66.5h50l-0.1-6.6l-49.4,0.2l9.9-21.5l-6.1-2.8L334,275.6h-48.7l-4.9,6.3h-4
	l-4-6.3h-23.9c-2.8-0.1-4.8-1.6-6-3.8 M245.7,243.8l4.8-19.1l-7.7-1.9l-5.8,23.1"/>
<path class="st2" d="M216,356.2c5.2,0,9.4-4.2,9.4-9.4c0-5.2-4.2-9.4-9.4-9.4c-5.2,0-9.4,4.2-9.4,9.4
	C206.6,352,210.9,356.2,216,356.2z"/>
<path class="st3" d="M216,356.2c5.2,0,9.4-4.2,9.4-9.4c0-5.2-4.2-9.4-9.4-9.4c-5.2,0-9.4,4.2-9.4,9.4
	C206.6,352,210.9,356.2,216,356.2z"/>
<path class="st2" d="M306.2,363.3c9.1,0,16.5-7.4,16.5-16.5c0-9.1-7.4-16.5-16.5-16.5c-9.1,0-16.5,7.4-16.5,16.5
	C289.7,355.9,297.1,363.3,306.2,363.3z"/>
<path class="st3" d="M306.2,363.3c9.1,0,16.5-7.4,16.5-16.5c0-9.1-7.4-16.5-16.5-16.5c-9.1,0-16.5,7.4-16.5,16.5
	C289.7,355.9,297.1,363.3,306.2,363.3z"/>
<path class="st32" d="M306.2,356.2c5.2,0,9.4-4.2,9.4-9.4c0-5.2-4.2-9.4-9.4-9.4s-9.4,4.2-9.4,9.4
	C296.9,352,301.1,356.2,306.2,356.2z"/>
<path class="st3" d="M306.2,356.2c5.2,0,9.4-4.2,9.4-9.4c0-5.2-4.2-9.4-9.4-9.4s-9.4,4.2-9.4,9.4C296.9,352,301.1,356.2,306.2,356.2
	z"/>
<polygon class="st2" points="308.1,347.5 317.7,370.9 313.8,370.9 304,347.5 "/>
<polygon class="st3" points="308.1,347.5 317.7,370.9 313.8,370.9 304,347.5 "/>
<path class="st2" d="M285.7,228.2l-3.6-7.9c-0.1-1.1,0.8-2.3,3.2-3.3c5.9-2.5,12.8-4.7,18.4-6.2c3.7-1.2,8,7,4.2,9.4
	C300.7,225.2,289,231.3,285.7,228.2z"/>
<path class="st3" d="M285.7,228.2l-3.6-7.9c-0.1-1.1,0.8-2.3,3.2-3.3c5.9-2.5,12.8-4.7,18.4-6.2c3.7-1.2,8,7,4.2,9.4
	C300.7,225.2,289,231.3,285.7,228.2z"/>
<path class="st26" d="M224.7,208.7l-1.3,1.6c12.4,8.5,40.7,12.9,59.8,9.8c4.4-1.1,6.5,6.7,2.6,8.1c-11.8,3.1-29.9,3-47.2-1.8
	c-21.2-5.3-29.9-14.1-22.5-21.9C218.4,202.6,223.4,204.8,224.7,208.7z"/>
<path class="st27" d="M224.7,208.7l-1.3,1.6c12.4,8.5,40.7,12.9,59.8,9.8c4.4-1.1,6.5,6.7,2.6,8.1c-11.8,3.1-29.9,3-47.2-1.8
	c-21.2-5.3-29.9-14.1-22.5-21.9C218.4,202.6,223.4,204.8,224.7,208.7z"/>
<path class="st2" d="M348.8,259.5c-6-3-15.2-4.9-31.5-5.6c-5-0.2-5.9-6.8,1.6-8c41.1-3.7,50.9,2.3,48.5,9.7
	C364.5,263.9,356.1,264.4,348.8,259.5z"/>
<path class="st3" d="M348.8,259.5c-6-3-15.2-4.9-31.5-5.6c-5-0.2-5.9-6.8,1.6-8c41.1-3.7,50.9,2.3,48.5,9.7
	C364.5,263.9,356.1,264.4,348.8,259.5z"/>
<path class="st2" d="M311.6,370.9H325c1,0,1.9,0.9,1.9,1.9v1.9c0,1-0.9,1.9-1.9,1.9h-13.4c-1,0-1.9-0.9-1.9-1.9v-1.9
	C309.7,371.7,310.5,370.9,311.6,370.9z"/>
<path class="st3" d="M311.6,370.9H325c1,0,1.9,0.9,1.9,1.9v1.9c0,1-0.9,1.9-1.9,1.9h-13.4c-1,0-1.9-0.9-1.9-1.9v-1.9
	C309.7,371.7,310.5,370.9,311.6,370.9z"/>
<path class="st7" d="M420.1,311.5c-2.8,4-18.7,3.6-31.2-11.1c2.3-9.4,13.6-6.1,16.9,3.3C410.5,300.2,416.9,302.5,420.1,311.5z"/>
<path class="st10" d="M405.1,305.8c-2.6-3.5-10-8.6-14.5-5.8C393.4,293,403.1,300.4,405.1,305.8z"/>
<path class="st11" d="M389.7,297c2.9-4.3,13.6-2.9,16,6.6c4.7-4.7,13.7,1.7,14.4,7.8"/>
<path class="st7" d="M277.7,283.9c16.1-1.3,35.7-17.9,35.3-28.1c-10.9-3.1-18.2,7.6-17.8,14.9C285.1,267.4,275.7,275.9,277.7,283.9z
	"/>
<path class="st11" d="M417.9,215.7c25.8,33,22.2,81.1,0,97.6c-5,1.6-20.3-0.9-29.1-12.9c3.4-11.5,6.5-33.5,5-46.5"/>
<path class="st11" d="M313,255.8c-8.8-3.8-18.9,6-17.8,14.9c-10.1-3.3-19.5,5.1-17.5,13.1"/>
<path class="st11" d="M304.4,235.8c4.3,6.4,10.5,10.3,8.4,21.8c-2.2,10.6-22.6,27-35,26.2c-7.5-10.2-10-18.9-8.9-30.1"/>
<path class="st10" d="M311.7,258.6c-5.3,1-9.6,3.6-13.6,7.9C300.6,260.7,305.3,257.8,311.7,258.6z"/>
<path class="st11" d="M250.1,259c19.9-4.9,64.1-16.5,70.3-48.2 M238,227.7c-6.5,9.1-24,21.8-11.5,38.4c11.7,12.6,32,0.6,27.5-5.1
	c-0.7-0.9-1.9-1.6-3.9-2.1c8.3-7.7,1-20.5-14.9-12.5"/>
<path class="st7" d="M239.1,246.5c7.2,0.2,11.4,3.6,12.2,7.8C253.5,250.5,249.3,243.8,239.1,246.5z"/>
<path class="st2" d="M379.1,356.2c5.2,0,9.4-4.2,9.4-9.4c0-5.2-4.2-9.4-9.4-9.4s-9.4,4.2-9.4,9.4C369.7,352,373.9,356.2,379.1,356.2
	z"/>
<path class="st3" d="M379.1,356.2c5.2,0,9.4-4.2,9.4-9.4c0-5.2-4.2-9.4-9.4-9.4s-9.4,4.2-9.4,9.4C369.7,352,373.9,356.2,379.1,356.2
	z"/>
<path class="st33" d="M308,220.3c-16.4,8.7-35.7,11.9-58.6,8.5l-17.1,67.8c35.9,10.6,51.2,62.7,16.6,91.4
	c-27.9,20.7-61.8,12.6-79.2-15.8"/>
<path class="st34" d="M205.1,300c-19.8,6.8-23.3,12.6-35.1,28.2C177.8,307.1,190,301,205.1,300z"/>
<path class="st34" d="M389.6,394.5c19.8-6.8,23.3-12.6,35.1-28.2C417,387.4,404.7,393.4,389.6,394.5z"/>
<path class="st33" d="M304.7,282h81.9 M248.1,285.6l56.7,53.8l36.3-78.9"/>
</svg>
