<?xml version="1.0" encoding="utf-8"?>
<!-- Generator: Adobe Illustrator 21.1.0, SVG Export Plug-In . SVG Version: 6.00 Build 0)  -->
<svg version="1.1" id="Layer_1" xmlns="http://www.w3.org/2000/svg" xmlns:xlink="http://www.w3.org/1999/xlink" x="0px" y="0px"
	 viewBox="0 0 388 438" style="enable-background:new 0 0 388 438;" xml:space="preserve">
<style type="text/css">
	.st0{fill-rule:evenodd;clip-rule:evenodd;fill:#FFF0D8;}
	.st1{fill-rule:evenodd;clip-rule:evenodd;fill:#CAE197;}
	.st2{fill:none;stroke:#0094D5;stroke-width:1.6999;stroke-linecap:round;stroke-linejoin:round;stroke-miterlimit:22.9256;}
	.st3{fill-rule:evenodd;clip-rule:evenodd;fill:#D58F5C;}
	.st4{fill:none;stroke:#823436;stroke-width:1.6999;stroke-linecap:round;stroke-linejoin:round;stroke-miterlimit:22.9256;}
	.st5{fill-rule:evenodd;clip-rule:evenodd;fill:#939598;}
	.st6{fill-rule:evenodd;clip-rule:evenodd;fill:#414042;}
	.st7{fill-rule:evenodd;clip-rule:evenodd;fill:#636466;}
	.st8{fill-rule:evenodd;clip-rule:evenodd;fill:#BCBEC0;}
	.st9{fill:none;stroke:#000000;stroke-width:1.6999;stroke-linecap:round;stroke-linejoin:round;stroke-miterlimit:22.9256;}
	.st10{fill-rule:evenodd;clip-rule:evenodd;fill:#FFFFFF;}
	.st11{fill:none;stroke:#58595B;stroke-width:1.6999;stroke-linecap:round;stroke-linejoin:round;stroke-miterlimit:22.9256;}
	.st12{fill:none;stroke:#6D6E71;stroke-width:1.6999;stroke-linecap:round;stroke-linejoin:round;stroke-miterlimit:22.9256;}
	.st13{fill-rule:evenodd;clip-rule:evenodd;fill:#C1D55D;}
	.st14{fill-rule:evenodd;clip-rule:evenodd;}
	.st15{fill-rule:evenodd;clip-rule:evenodd;fill:#8ED8F8;}
	.st16{fill-rule:evenodd;clip-rule:evenodd;fill:#C7EAFB;}
</style>
<path class="st0" d="M66.6,412.9l242.7,4.8c59.7-31.4,80.6-99.6,78.7-136c-3.1-57.8-55-67.6-41.7-110.6
	c15.8-51.1-9.9-137.7-95.9-143.7C118.5,18.1-11.6,137.5,0.8,303.3C4.1,346.5,30.2,396.6,66.6,412.9z"/>
<path class="st1" d="M201.4,287.3c7.8-18.5,37.6-7.1,35.8,25c19-5.1,36.5-7.8,31.9,12.5c16.8,2.6,12.6,15,4.6,21.3
	c39.9,0.1,33.9,24.1,16.7,45.5c49.6,11.7,30.8,32.6-43.5,41.8c-57.2,7.1-181.7,8.7-164.7-19.1l-31-2.9c-0.8-11.3-16.2-8.2-8.5-10.3
	c0.8-0.2-3.2-3.4-5.5-5.3c-9.6-8.3,2.1-34,17.1-21c1,0.8-10.4-8.6-11.3-11.5c-2.3-7.7,5.4-14.6,1-16.6c-17.5-7.6-18.5-16.1-4.1-32.7
	c11.9-13.7,26.5,0.1,26.6,3c-5.2,1-0.5-39.9,27.9-21.6c-1.5-27.7,16.5-23,29.2-10.6c0-34.2,51.4-54.2,31-30.4c-2,2.4,6.5-0.8,8.4,1
	c5.2,4.9-5.6,14.9-4.4,14.9c4.7-0.1,7.9,2.9,9.7,5.9c2.6-2.3,6.6-3.2,12.5-0.3c2.3,1.1,5.8,2.6,11.6,4.3
	C192.2,280.4,200.8,283.4,201.4,287.3z"/>
<path class="st2" d="M259.3,267.2c9.2,21.7,12.5,37.3,6.7,51.9"/>
<path class="st2" d="M229.8,101c23.4,54.1-6.9,96.9,23,149.8"/>
<path class="st3" d="M173.4,375l13.2-2.7C178.1,362.7,175.8,365.7,173.4,375z"/>
<path class="st3" d="M211.7,367.6l17.2-4.6C217.4,352.2,215.4,352.9,211.7,367.6z"/>
<path class="st4" d="M228.9,363c-11.5-10.8-13.5-10.1-17.2,4.6"/>
<path class="st4" d="M186.6,372.3c-8.5-9.6-10.8-6.6-13.2,2.7"/>
<path class="st5" d="M69.9,397.3l17.5-4.7C75.7,381.7,73.7,382.4,69.9,397.3z M97.1,389.2c5.7-2.5,10.4-6,13.9-10.4
	C97.1,373,96.1,373.4,97.1,389.2z M116.3,369.8l5.4-17.5C106.1,355.9,106.2,357.7,116.3,369.8z M123.5,341.1l1.3-19.9
	C109,329.2,111.8,331,123.5,341.1z M124.7,305.8l-1-20.9C107.9,292.9,107.3,298.3,124.7,305.8z M122.6,268.3l-1.7-24.3
	C103.4,251.8,103.3,259.7,122.6,268.3z M120.3,232.9l-0.4-19.1C106,221.6,105,224.3,120.3,232.9z M31.2,404.8l13.4-2.7
	C36,392.3,33.6,395.3,31.2,404.8z"/>
<path class="st6" d="M254,266.8c-15.8,3.8-31.6,2.2-47.4-3.9l-8-20.8c15.1,10.7,33.2,14.4,54.8,8.6c4.3,0,5.8,1.1,4.6,3.5
	c2,0.3,2.8,1.7,2.6,4.2c1.6,1.1,1.7,2.7,0.2,4.7C263.7,265.2,258.8,269.3,254,266.8z"/>
<path class="st7" d="M272,406.2l-5-0.5c-11.7,3.1-24.8,3.3-38.3,2.6l-16.6-14l12.6-76.1c21.2,12.2,15.6,39.8,2.5,71.6
	c29.3-2.5,45.8,3.4,49.6,17.6L272,406.2z"/>
<path class="st6" d="M265.4,406.2l-5.9,1.1c-12.8,1.2-23.9,1.7-37.4,1l-16.6-14l12.6-76.1c21.2,12.2,17,42.2,0.2,78.4
	c29.3-2.5,28.8,3.3,36.7,5.9L265.4,406.2z"/>
<path class="st7" d="M148.6,286.6c2,12.2,5,23.6,9.1,34.2c13.2-3.9,19.3,20.9-1.6,70l56.4,3.4c9.9,2.9,15.9,9.5,18.2,20l-3.4-1.3
	l-10.7-0.6c-36.4,4.4-69.9,5.1-96.7-2.3c-23.1,11.7-71.2-1.9-105-0.2c31.8-11.2,78.9-11,96.2-31c8.8-12.1,13.7-30.8,13.9-57.5
	c1-38.7-6.2-81.7-4.6-118.3l19.8,2.3c-3.8,3.9-0.6,36.6,3.8,52.4c18.5,27.2,60.6,23.1,63.5,44.5l-1.5-1.1
	C190.5,302.9,172.2,289.5,148.6,286.6z"/>
<path class="st6" d="M148.6,286.6c2,12.2,5,23.6,9.1,34.2l-9.5,4.3l-7.3,7.1c13.5,0.6,11,33.2,1.8,58.6
	c-6.5,13.2,18.8,20.5,59.2,17.1l14.7,4.3c-36.4,4.4-69.9,5.1-96.7-2.3c-23.1,11.7-71.2-1.9-105-0.2c31.8-11.2,69.3,12.5,98.9-26.2
	c8.8-12.1,11-35.6,11.2-62.3c1-38.7-6.2-81.7-4.6-118.3l19.5,2.3c-9.8-1.2-6.3,39.5-1.9,55.3c4,22.8,41,35.1,68,40.6l-1.5-1.1
	C189.6,304.4,173.3,294.1,148.6,286.6z"/>
<path class="st8" d="M179.6,200.5c-16.4,3.5-29.6,5.1-39.6,4.7c-3,10.4-1.5,28.3,3.8,52.4c19.3,26.4,58.4,22.9,63.5,44.5l-1.5-1.1
	c-16.5,2.1-36.6-6.8-57.2-14.4c2.9,13.6,5.6,24.9,9.1,34.2c18.8-1.5,15.1,29-1.6,70c9.7,15.8,34.9-0.2,56.2,3.5
	c15.9-14.9,22.4-54.2,12.1-72.8c1.3-13.7-3.2-32.1-13.6-55.1c1-6.5-4.9-19.2-14-30.1C196.8,226,190.4,214,179.6,200.5z"/>
<path class="st5" d="M179.6,200.5c-16.4,3.5-29.6,5.1-39.6,4.7c-3,10.4-1.5,28.3,3.8,52.4c19.3,26.4,58.4,22.9,63.5,44.5l-1.3-1
	c-16.5,2.1-37.9-7.6-57.3-14.5c2.9,13.6,5.6,24.9,9.1,34.2c18.8-1.5,15.1,29-1.6,70c9.7,15.8,34.9-0.2,56.2,3.5
	c14.8-13.9,19.6-60.4,6.2-73.9c1.3-13.7-4.2-46-15.1-56.4c6.8-4-3.6-24-13.3-30C193.5,231,187.6,211.8,179.6,200.5z"/>
<path class="st8" d="M218.6,317.3c-9.1-4.6-37.2-2.5-42.9,4.7c16.8-4,36.2-4.8,46.3-0.2L218.6,317.3z M207.5,261.7
	c-8.1-3.9-34.9-4.1-36.5,2.1c19.8-2,29.9-1.4,39.9,2.5L207.5,261.7z M193.7,232.2c-12.7-5.8-36.6-1.8-41.5,6.3
	c12.2-6.5,27.1-7.2,44.5-2.2L193.7,232.2z M182.6,367.9c14.1-5.2,29-4.4,37.2-2.7C221.8,355.9,183.2,360.4,182.6,367.9z"/>
<path class="st9" d="M227.2,412.8c-8.9,0.3-17.4-1.3-25.3-4.9 M156,390.8c8.1,14.8,35.6,0.1,56.2,3.5c9.6,2.2,15.7,8.8,18.4,19.9
	c-5-1.7-10.5-4.9-16.5-9.6 M228.6,408.3c15.7,0.4,31.7-0.8,38.4-2.6 M272,406.2c-6.5-0.3-13.5-2-20.9-5.2 M224.8,318.3
	c21.2,12.2,15.6,39.8,2.5,71.6c29.3-2.5,45.8,3.4,49.6,17.6c-4.8-0.7-11-3.9-18.8-9.6 M254,266.8c-6-0.1-16.1,5.9-42.8-2.3
	 M203.2,245.4c34.8,17.2,48.1,1.6,54.4,6.1c2.5,1.7-1.1,5.8-9.2,6.7c0.1,3.6-1.5,5.7-4.7,6.3 M210.7,266.4
	c-7.8-3.8-21.1-4.7-39.7-2.6 M196.7,236.2c-9.4-4.7-37-4.3-44.5,2.2 M180.1,201.1c11.8,15,16.6,26.1,16.7,35.2
	c5.8,6.4,16.3,25.6,14,30.1c5.8,8.8,14.1,33.4,13.8,49.6c0.3,2.3,0.1,4.2-0.2,5.5c10.1,12.9,3.4,60.8-12.1,72.8
	c15.5-12,22.3-59.9,12.1-72.8 M138.3,214.7c-0.2,11.8,2.3,31.6,5.5,43c18.5,27.2,60.6,23.1,63.5,44.5c-4.3-3.1-8.1-5.6-11.4-7.7
	 M205.9,301.1c-21.1,2.3-41.8-11.4-65.8-15.9 M148.7,287.1c2.1,12.6,5.2,23.7,8.9,33.7 M140.8,332.2c9.8-11.8,20.5-15,26.5-7.4
	c7.7,12.6-3.3,50.6-13.2,69.9 M218.5,320.6c-19.9-5.6-42.9,1.4-51.2,4.3 M219.9,365.3c-10.8-1.6-22.8-1.5-33.1,1.1 M87.4,392.6
	c-11.7-10.9-13.6-10.2-17.5,4.7 M110.9,378.8c-14-5.8-15-5.3-13.9,10.4 M121.7,352.3c-15.6,3.6-15.6,5.4-5.4,17.5 M124.8,321.3
	c-15.8,8-13,9.8-1.3,19.9 M123.5,285c-15.8,8-16.2,13.3,1.2,20.8 M120.9,244c-17.5,7.9-17.9,15.6,1.4,24.2 M120.1,232.8
	c-15.3-8.6-14.1-11.1-0.2-19c-1.3,57.6,16.2,126.7-8.2,164.3c-15.8,21.6-70.2,20.3-97.1,31.6c38.8-3.2,95.7,19.4,116.4-9.6
	 M44.5,402.1c-8.6-9.7-10.9-6.7-13.4,2.7 M259.8,258.3c-5.6,3.7-9.7,3-8.9-0.6 M260.7,263c-6.3,4-11.2,1.4-8.4-2.4 M257.9,254.1
	c2.3-0.2,2.9,2.4,1.9,4.2c2.9-0.6,2.5,3.5,1,4.7c3.5,3.7-7.3,7.3-7.7,1.7 M119.8,409.9c17.1,4.4,41.7,8.3,96.6,2.3"/>
<path class="st3" d="M223.5,141.9c-3.4,9.4-3.1,18.9-0.2,29.8C216.7,161.8,216.5,151.3,223.5,141.9z"/>
<path class="st10" d="M250.2,148.8c5.5,0.6,10.8,0.8,15.8,0.8c-0.5,6.3-4.6,14.9-5.5,14.8C258.7,164.3,252.2,154.3,250.2,148.8z"/>
<path class="st11" d="M265.9,149.6c-0.5,6.3-4.6,14.9-5.5,14.8c-1.7,0-8.2-10.1-10.3-15.5"/>
<path class="st4" d="M247.1,141.2c-7.8,0.1-9,7.2-5.4,10.3"/>
<path class="st7" d="M233.2,178.1c11.4-1.6,21.3-1.5,29.4,0.3c12.2,5.3,19.4,2.7,21.6-7.7c3.5-7.2,23.7-7.4,10.5-21.6l-4.4-5.6
	c-4.5-8.2-11-11-21.9-1.7c-22.8-4-49-5.9-82.7-3.2c-16.5-37.2-37.7-44.5-39.3-22.8c-19.6-18.2-36.5-8.7-41.4,39.3
	c-24,16.1-18.9,42.9-5,51.8C142.5,233.2,197,187.4,233.2,178.1z"/>
<path class="st6" d="M114.2,152c-3.5-25.6,5.8-54.4,32.2-36.2c-19.6-18.2-36.5-8.7-41.4,39.3L114.2,152z M233.2,178.1
	c11.4-1.6,21.3-1.5,29.4,0.3c12.2,5.3,19.4,2.7,21.6-7.7c3.5-7.2-9.7,14-22.8-0.2c-33.2-1-73.2,13-114.9,13.6
	c-10.3-0.6-20.2-5.7-29.6-15.2c-16.1,8.3-20.4,27.2-10.1,41.5C149.7,226.3,183.2,194.1,233.2,178.1z"/>
<path class="st10" d="M261.4,178.5c4.5,0.8,9.6,2.2,13.5,2.3c-1.3,5.7-2.4,8.4-3.5,8.3C269.2,189.2,265.6,184.9,261.4,178.5z"/>
<path class="st12" d="M274.8,180.8c-1.3,5.7-2.4,8.4-3.5,8.3c-2.1,0.1-5.7-4.2-9.9-10.5"/>
<path class="st10" d="M284.3,170.6l9.6-6.5c-0.6,6.7-2.1,13-3.1,12.8C288.9,177.1,286.9,174.6,284.3,170.6z"/>
<path class="st12" d="M293.8,164.1c-0.6,6.7-2.1,13-3.1,12.8c-1.8,0.1-3.8-2.4-6.5-6.4"/>
<path class="st10" d="M121.1,150.7c11-1.1,24,0.9,33-3.2c-4.3-21-15.5-31.2-24.2-30C120.7,120.2,117.1,135.7,121.1,150.7z"/>
<path class="st10" d="M173.9,117.6l5.9,9.2l5.9,11.8l-21.2,3.2C157,115.3,163.1,108,173.9,117.6z"/>
<path class="st13" d="M167.5,133.6c3.7,4.9,14.2,2.5,14-3.4c-4.9-11-8.4-16.5-13.8-15.5C162.9,115.8,161.3,125,167.5,133.6z"/>
<path class="st13" d="M127.9,140.1c4.5,10.2,27.1,6.9,22.6-4.4c-4.6-8.8-10.6-18.4-17.6-17.4C125.6,120.5,123.2,130,127.9,140.1z"/>
<path class="st10" d="M124.5,176.3c5,2.5,9.9,4.6,14.7,6.3c-2.7,5.8-9.6,12.6-10.4,12.1C127.2,194.1,124.5,182.2,124.5,176.3z"/>
<path class="st11" d="M139.2,182.6c-2.7,5.8-9.6,12.6-10.4,12.1c-1.6-0.6-4.3-12.4-4.3-18.4"/>
<path class="st10" d="M183.2,184l9.8-0.9c-1,5.3-2,7.9-3,7.8C188.2,191,186.1,188.2,183.2,184z"/>
<path class="st11" d="M193.1,183.1c-1,5.3-2,7.9-3,7.8c-1.8,0.1-4-2.7-6.8-6.9"/>
<circle class="st14" cx="139.9" cy="130.1" r="6.8"/>
<circle class="st10" cx="137.2" cy="134.6" r="3.1"/>
<circle class="st10" cx="130.1" cy="141.9" r="4.1"/>
<ellipse class="st10" cx="170.1" cy="134.1" rx="3.5" ry="3.5"/>
<circle class="st14" cx="170.7" cy="123" r="5.8"/>
<path class="st5" d="M167.5,345.5c0.8-15.3-5.9-22.4-11.9-22.3C163.4,318.8,170.4,327.1,167.5,345.5z M147.1,264.7
	c8.9,7.6,19.4,13.8,33.9,18.8C168.7,282,153.9,275.3,147.1,264.7z M101.7,159.7c-6.5,7.7-9.7,16.8-10.7,28.1
	C88.3,176.2,91.8,166.2,101.7,159.7z M117.7,119.6c6.6-6.5,14.3-11.2,24.3-3.2C132.7,104.4,123.4,109.7,117.7,119.6z M148.7,113.1
	c2.5-5.8,8.3-9.7,16.6-3.5C157.3,101.4,150,104,148.7,113.1z M268.6,141.8c-30.9-5.9-65.6-6.1-103.8-0.5l34.2-0.6l-1.9,2.5
	c5.9-3.9,16.4-4.9,31.8-3l-4.3,4c5-4.3,15.9-3.6,37.2,0.6l-7.1,2.3c-5.6,3.7-6,10.1-4,17.7c2.1-16.4,8-13.5,16.9-18.1
	c6.2-2.9,11.6-11.2,18.6-8.8C281.2,132.6,275.1,135.9,268.6,141.8z M200,396.3c8.3-0.6,15.9,1.7,23.9,6.4
	C217.5,395.2,208.9,393.1,200,396.3z"/>
<circle class="st10" cx="168.4" cy="126.8" r="2.6"/>
<path class="st9" d="M124.3,168.1c-7.5-2.6-11.1,3.6-8.7,7.9 M250.6,164.8c-5.2-22.8,9.8-16.7,17.9-23.1c6-4.5,11.7-9.6,17.5-3.9
	c3.7,2.6,5.5,9.1,8.8,11.2c12.6,12.2-6.4,16.1-10.5,21.6 M268.5,141.7c-38-6.2-72.6-6.2-103.8-0.1 M234,137.8
	c-3.6,1-8.3,4.1-9.6,6.5 M205.1,137.2c-3.1,0.9-7.1,3.8-8.2,6.2 M105,155c23.1-9.5,37.1-1,51-8.5 M185.8,138.5
	c-16.5-37.2-37.7-44.5-39.3-22.8C126.9,97.5,110,107,105.1,155c-24.2,13.6-18.9,42.9-5,51.8c42.4,26.5,96.9-19.4,133.1-28.7
	 M164.6,141.7c-7.5-26.4-1.5-33.7,9.4-24.1 M154.1,147.4c-4.3-21-15.5-31.2-24.2-30c-9.2,2.8-12.8,18.3-8.8,33.3 M117.4,170.1
	c29,32.2,103.8,1.3,145.2,8.2c4.1,1.4,11.4,4.6,16.5,0.6c6.5-3.9,4.3-13.4,8.7-17.4"/>
<path class="st6" d="M280.1,142c0.9,2.9,0.8,12.9,5.6,9.3C289.6,147.6,283.4,143.1,280.1,142z M263.9,152.9
	c0.2,3.3-2.6,14.1,3.7,11.4C272.7,161.4,267.2,155,263.9,152.9z"/>
<path class="st9" d="M280.1,142c0.9,2.9,0.8,12.9,5.6,9.3C289.6,147.6,283.4,143.1,280.1,142z M263.9,152.9
	c0.2,3.3-2.6,14.1,3.7,11.4C272.7,161.4,267.2,155,263.9,152.9z"/>
<path class="st15" d="M226,97.6l5.5-1.6c17.6,8.5,13.6,21.4,3.1,9.3c4.5,12.6-4.7,8-4.8-1.6C226.1,116.7,221.2,116.3,226,97.6z"/>
<path class="st2" d="M231.4,96c17.6,8.5,13.6,21.4,3.1,9.3c4.5,12.6-4.7,8-4.8-1.6c-5.8,15.8-7.2,8.7-3.8-6.1"/>
<path class="st15" d="M229.9,97c35.6-9.8,39.7-65.4,4.3-86.5c-18.4-12.5-65.3-8.5-61.8,36.7C174.9,90.4,215.5,103,229.9,97z"/>
<path class="st2" d="M229.9,97c35.6-9.8,39.7-65.4,4.3-86.5c-18.4-12.5-65.3-8.5-61.8,36.7C174.9,90.4,215.5,103,229.9,97z"/>
<path class="st16" d="M240.1,19.8c-10-6.3-21.2-9.9-35.4-11.6C219.8,6.1,231.4,10.4,240.1,19.8z"/>
</svg>
