<?xml version="1.0" encoding="utf-8"?>
<!-- Generator: Adobe Illustrator 21.1.0, SVG Export Plug-In . SVG Version: 6.00 Build 0)  -->
<svg version="1.1" id="Layer_1" xmlns="http://www.w3.org/2000/svg" xmlns:xlink="http://www.w3.org/1999/xlink" x="0px" y="0px"
	 viewBox="0 0 388 438" style="enable-background:new 0 0 388 438;" xml:space="preserve">
<style type="text/css">
	.st0{fill-rule:evenodd;clip-rule:evenodd;fill:#FFF0D8;}
	.st1{fill-rule:evenodd;clip-rule:evenodd;fill:#CAE197;}
</style>
<path class="st0" d="M66.6,412.9l242.7,4.8c59.7-31.4,80.6-99.6,78.7-136c-3.1-57.8-55-67.6-41.7-110.6
	c15.8-51.1-9.9-137.7-95.9-143.7C118.5,18.1-11.6,137.5,0.8,303.3C4.1,346.5,30.2,396.6,66.6,412.9z"/>
<path class="st1" d="M201.4,287.3c7.8-18.5,37.6-7.1,35.8,25c19-5.1,36.5-7.8,31.9,12.5c16.8,2.6,12.6,15,4.6,21.3
	c39.9,0.1,33.9,24.1,16.7,45.5c49.6,11.7,30.8,32.6-43.5,41.8c-57.2,7.1-181.7,8.7-164.7-19.1l-31-2.9c-0.8-11.3-16.2-8.2-8.5-10.3
	c0.8-0.2-3.2-3.4-5.5-5.3c-9.6-8.3,2.1-34,17.1-21c1,0.8-10.4-8.6-11.3-11.5c-2.3-7.7,5.4-14.6,1-16.6c-17.5-7.6-18.5-16.1-4.1-32.7
	c11.9-13.7,26.5,0.1,26.6,3c-5.2,1-0.5-39.9,27.9-21.6c-1.5-27.7,16.5-23,29.2-10.6c0-34.2,51.4-54.2,31-30.4c-2,2.4,6.5-0.8,8.4,1
	c5.2,4.9-5.6,14.9-4.4,14.9c4.7-0.1,7.9,2.9,9.7,5.9c2.6-2.3,6.6-3.2,12.5-0.3c2.3,1.1,5.8,2.6,11.6,4.3
	C192.2,280.4,200.8,283.4,201.4,287.3z"/>
</svg>
