<?xml version="1.0" encoding="utf-8"?>
<!-- Generator: Adobe Illustrator 19.0.0, SVG Export Plug-In . SVG Version: 6.00 Build 0)  -->
<svg version="1.1" id="Layer_1" xmlns="http://www.w3.org/2000/svg" xmlns:xlink="http://www.w3.org/1999/xlink" x="0px" y="0px"
	 viewBox="0 0 396.1 370.7" style="enable-background:new 0 0 396.1 370.7;" xml:space="preserve">
<style type="text/css">
	.st0{fill-rule:evenodd;clip-rule:evenodd;fill:#B47B40;}
	.st1{fill-rule:evenodd;clip-rule:evenodd;fill:#C68E4A;}
	.st2{fill-rule:evenodd;clip-rule:evenodd;fill:#D9AF78;}
	.st3{fill-rule:evenodd;clip-rule:evenodd;fill:url(#SVGID_1_);}
	.st4{fill-rule:evenodd;clip-rule:evenodd;fill:#9ACA3C;}
	.st5{fill-rule:evenodd;clip-rule:evenodd;fill:url(#SVGID_2_);}
	.st6{fill-rule:evenodd;clip-rule:evenodd;fill:#25B34B;}
	.st7{fill-rule:evenodd;clip-rule:evenodd;fill:#008D49;}
	.st8{fill-rule:evenodd;clip-rule:evenodd;fill:#CCD745;}
	.st9{fill-rule:evenodd;clip-rule:evenodd;fill:#FFFFFF;}
	
		.st10{fill-rule:evenodd;clip-rule:evenodd;fill:none;stroke:#6D6E71;stroke-width:1.7008;stroke-linecap:round;stroke-linejoin:round;stroke-miterlimit:22.9256;}
	.st11{fill-rule:evenodd;clip-rule:evenodd;fill:#C1D55D;}
	
		.st12{fill-rule:evenodd;clip-rule:evenodd;fill:none;stroke:#58595B;stroke-width:1.7008;stroke-linecap:round;stroke-linejoin:round;stroke-miterlimit:22.9256;}
	.st13{fill-rule:evenodd;clip-rule:evenodd;}
	
		.st14{fill-rule:evenodd;clip-rule:evenodd;fill:none;stroke:#0A5737;stroke-width:1.7008;stroke-linecap:round;stroke-linejoin:round;stroke-miterlimit:22.9256;}
	
		.st15{fill-rule:evenodd;clip-rule:evenodd;fill:#008D49;stroke:#0A5737;stroke-width:1.7008;stroke-linecap:round;stroke-linejoin:round;stroke-miterlimit:22.9256;}
</style>
<path class="st0" d="M31.4,317.8c7-8.1,3-26.5,15.4-32.1l13.3,30l-3.6,28.5l-43.6-15C11.9,321.2,26.4,323.8,31.4,317.8z"/>
<polygon class="st1" points="21.1,84.7 15.1,101.5 56.5,351.4 65.3,354.5 45.8,192.1 "/>
<polygon class="st2" points="21.1,84.7 165,84 211.8,320.8 65.3,354.5 "/>
<linearGradient id="SVGID_1_" gradientUnits="userSpaceOnUse" x1="114.2736" y1="210.7047" x2="79.8273" y2="89.9399">
	<stop  offset="0" style="stop-color:#C7EAFB"/>
	<stop  offset="1" style="stop-color:#FFFFFF"/>
</linearGradient>
<polygon class="st3" points="32.5,95 157.2,92.3 200.6,314.2 74.8,341.3 "/>
<path class="st4" d="M291.7,170.6l-0.4-19.3l2.3-0.6C306.5,158.9,306.1,161.8,291.7,170.6L291.7,170.6z M291,209.1l0.5-22.4
	C306.5,195.3,305.4,202.7,291,209.1L291,209.1z M290.8,243.5l0.1-20.1C305.6,231.5,304.1,237.2,290.8,243.5L290.8,243.5z M293.4,274
	l-1.9-17.1C301.6,263,303.7,265,293.4,274L293.4,274z M302.1,303.6l-6.1-16.8C304.5,289.1,309.8,293.6,302.1,303.6L302.1,303.6z
	 M320.7,322.3c-5.5-2.5-10-5.8-13.4-10C318,308.3,322.4,312.2,320.7,322.3L320.7,322.3z M347,330.2l-12.4-2.3l-5.6-1.6
	C338.8,320.7,341.9,320.7,347,330.2L347,330.2z M374.7,328.4l-13,1.9C367.1,320.8,370.1,322.5,374.7,328.4z"/>
<linearGradient id="SVGID_2_" gradientUnits="userSpaceOnUse" x1="136.0871" y1="259.1594" x2="54.1175" y2="55.1107">
	<stop  offset="0" style="stop-color:#A1AC91"/>
	<stop  offset="1" style="stop-color:#FFFFFF"/>
</linearGradient>
<path class="st5" d="M169.6,214.6c9.8,6.6,9.3,12.8,0.5,18.3c0.1,4,0.2,7.9,0.4,11.9c9.5,6.3,8.8,11.1,0.7,16.5
	c0.1,2.6,0.3,5.2,0.5,7.9c0.1,1.1,0,0.6,0.1,1.7c7.6,4.5,8.2,8.1,2,15.7c0.6,3.7,1.3,7.3,2.2,10.5c5.5,1.8,9,5.3,4.5,13.7
	c1.1,2.6,2.3,4.9,3.5,6.9L83.5,339.4c3.5-8.1,13-10.9,28.7-9.8c-9.2-25.1-13.6-47-0.9-57.3c-1.3-9.4-1.1-27.7,2.9-41
	c0-0.2-0.1-0.5-0.1-0.8c-3-15.2,3-28.4,9.9-32.5l0,0v0c0.3-4,1.3-8.3,3.1-12.9c-4.3-0.6-8.6-1.2-12.6-1.7c-4.7-0.4-9.6-0.6-14.6-0.4
	l-0.3,0.1l-0.3,0.1l-0.3,0.1l-0.3,0.1l-0.3,0.1l-0.3,0.1h0l-0.3,0.1l0,0l-0.3,0.1l0,0l-0.3,0.1l0,0l-0.3,0.1l0,0l-0.3,0.1l0,0
	l-0.3,0.1v0l-0.3,0.1l0,0l-0.3,0.1l0,0l-0.3,0.1l0,0l-0.3,0.1v0l-0.3,0.1l0,0l-0.3,0.1v0l-0.3,0.1l0,0l-0.3,0.1l0,0l-0.3,0.1v0
	l-0.3,0.1l0,0l-0.3,0.1v0l-0.3,0.1l0,0l-0.3,0.1v0l-0.3,0.1l0,0l-0.3,0.1l0,0l-0.3,0.1l0,0l-0.3,0.1l0,0l-0.3,0.1l0,0l-0.3,0.1l0,0
	l-0.3,0.1l0,0l-0.3,0.1l0,0l-0.3,0.1h0l-0.3,0.1l0,0l-0.3,0.1h0l-0.3,0.1l0,0l-0.3,0.1l0,0l-0.3,0.1l0,0l-0.3,0.1h0l-0.3,0.1l0,0
	l-0.3,0.1l0,0l-0.3,0.1h0l-0.2,0.1l0,0l-0.2,0.1l0,0l-0.2,0.1l0,0l-0.2,0.1l0,0l-0.2,0.1l0,0L86,189l0,0l-0.2,0.2l0,0l-0.2,0.2l0,0
	l-0.2,0.2l0,0l-0.2,0.2l0,0l-0.2,0.2l0,0l-0.2,0.2l0,0l-0.2,0.2l0,0l-0.2,0.2h0l-0.2,0.2l-0.2,0.2l-0.2,0.2l-0.1,0.4
	c-1.1,6.1-2.2,10.4-3.5,10.8c-0.6,0.4-1.9-1.3-3.9-5.3c-3.3,1-6.2-1.5-8-5.2c-0.7,3.8-1.2,6.1-2.3,6.5c-0.6,0.4-2.9-4-4.7-9.1
	c-3.9-2-6.5-5.2-4-11.4l1.3-5.5c0.2-2.2,0.7-4.1,1.4-5.6l0,0c1.7-5.5,6.1-4.5,11.3-1.8c5.5-4.2,11.4-8,17.7-11.4
	c8.8-4.9,18.8-9.5,30.7-13.6c1.4-33.2,12.3-44.7,18.2-28.3c0.1-0.3,0.2-0.6,0.4-0.9c0.1-0.3,0.2-0.6,0.4-0.9
	c0.1-0.3,0.2-0.6,0.4-0.8c0.1-0.3,0.2-0.5,0.4-0.8c0.1-0.3,0.3-0.5,0.4-0.8c0.1-0.2,0.3-0.5,0.4-0.7c0.1-0.2,0.3-0.5,0.4-0.7
	c0.1-0.2,0.3-0.4,0.4-0.7c0.1-0.2,0.3-0.4,0.4-0.6c0.1-0.2,0.3-0.4,0.4-0.6c0.1-0.2,0.3-0.4,0.4-0.6c0.1-0.2,0.3-0.4,0.4-0.5
	c0.1-0.2,0.3-0.3,0.4-0.5c0.1-0.2,0.3-0.3,0.4-0.4c0.1-0.1,0.3-0.3,0.4-0.4c0.1-0.1,0.3-0.3,0.4-0.4c0.2-0.1,0.3-0.2,0.5-0.3
	c0.2-0.1,0.3-0.2,0.5-0.3c0.2-0.1,0.3-0.2,0.5-0.3c0.2-0.1,0.3-0.2,0.5-0.2c0.2-0.1,0.3-0.1,0.5-0.2c0.2-0.1,0.3-0.1,0.5-0.2
	c0.2,0,0.3-0.1,0.5-0.1c0.2,0,0.3-0.1,0.5-0.1c0.2,0,0.3,0,0.5,0c0.2,0,0.3,0,0.5,0c0.2,0,0.3,0,0.5,0c0.2,0,0.3,0,0.5,0.1
	c0.2,0,0.3,0.1,0.5,0.1c0.2,0,0.3,0.1,0.5,0.2c0.2,0.1,0.4,0.1,0.5,0.2c0.2,0.1,0.4,0.1,0.5,0.2c0.2,0.1,0.4,0.2,0.5,0.3
	c0.2,0.1,0.4,0.2,0.5,0.3c0.2,0.1,0.4,0.2,0.5,0.4c0.2,0.1,0.4,0.3,0.6,0.4c0.2,0.1,0.4,0.3,0.6,0.4c0.2,0.2,0.4,0.3,0.6,0.5
	c0.2,0.2,0.4,0.3,0.6,0.5c0.2,0.2,0.4,0.4,0.6,0.6c0.2,0.2,0.4,0.4,0.6,0.6c0.2,0.2,0.4,0.4,0.6,0.6c0.2,0.2,0.4,0.5,0.6,0.7
	c0.2,0.2,0.4,0.5,0.6,0.7v0c0.2,0.3,0.4,0.5,0.6,0.8l0,0c0.2,0.3,0.4,0.5,0.6,0.8l0,0c0.2,0.3,0.4,0.6,0.6,0.9v0l0.1,0.2l14,71.8
	c-2,1.3-4.2,2.4-6.4,3.3l1.3,0.7c8.6,6.4,8.5,8.8-0.4,16.4C169.3,205.6,169.4,210.1,169.6,214.6L169.6,214.6z M185,317.5
	c0.7-0.2,1.3-0.4,1.9-0.4L185,317.5L185,317.5z M180.3,310.9L180.3,310.9L180.3,310.9z M173.6,286"/>
<path class="st6" d="M151.7,338.8l4.8-0.5c11.3,3,23.9,3.2,37,2.5l16-13.5l-12.2-73.5c-20.5,11.8-15.1,38.4-2.4,69.2
	c-28.3-2.4-44.3,3.3-47.9,17L151.7,338.8z"/>
<path class="st7" d="M158.1,338.8l5.7,1.1c12.4,1.2,23.1,1.6,36.2,1l16-13.5l-12.2-73.5c-20.5,11.8-16.4,40.7-0.2,75.7
	c-28.3-2.4-27.8,3.1-35.4,5.7L158.1,338.8z"/>
<path class="st6" d="M251.9,251.8c-12.8-3.8-8.3,24.7,11.9,72.1l-54.4,3.2c-9.5,2.8-15.4,9.2-17.6,19.3l3.3-1.3l10.3-0.6
	c35.2,4.2,67.5,4.9,93.4-2.3c22.3,11.3,84.3-3.3,84.6-16.5c-22.4,7.9-61.8,6.3-76-13.6c-8.5-11.7-14-30.2-15.8-55.3
	c-1.6-33.2,0.7-69.8-0.2-105.7l-6.3,0.4l-15.1-1.8c-10.3,26.9-8.5,47.4-53.6,48.5l-9.6,12.2l-1.8,6.4l0.4,5.5l-0.3,1.6l9,0.9
	C224.7,226.4,256,240.9,251.9,251.8z"/>
<path class="st7" d="M268.4,224.1l-5.2,11.8l-2.3,9.9l1.3,10.5l9.1,4.1l7.1,6.9c-13.1,0.6-10.7,32-1.8,56.6
	c6.2,12.7-18.1,19.8-57.2,16.5l-14.2,4.2c35.2,4.2,67.5,4.9,93.4-2.3c22.3,11.3,72.2-2.1,79.7-9.8c-9.9,1-45.1,21.7-73.7-15.6
	c-8.5-11.7-13.1-35.2-13.3-61c-1.4-37.5,1.3-70.8,0.1-106.2l-11.3,1.5c3.8,10.4,3.8,38.9-0.4,49.1c-1.7,6.3-15.6,18.9-33.3,17
	l5.8-9.4c-10.3,8.8-20,13.7-28.3,9.9l-9.8,4.2c8.7,9.6,16.3,10.3,23.1,4.8C250.7,227.4,256.6,226.7,268.4,224.1z"/>
<path class="st8" d="M237.1,135.7c9.5,5.7,23.7,12.2,32.7,14.2c2.9,10.1-3.7,22.9-8.8,46.2c-14.6,0-34.8-1.7-44.8,2.3l-9.6,12.2
	l-2,7l0.2,6.5l9,0.9c12,14.3,18.9,15.6,42.2,7.8c-2.8,13.1-1.7,12.2-5,21.2c-9.4,2.6-6.8,39.2,12.8,69.8
	c-9.4,15.2-33.7-0.2-54.3,3.4c-15.3-14.4-21.6-52.3-11.7-70.3c-1.3-13.3-3.3-30.2,6.7-52.5c-1-6.3,8.4-24.5,17.2-35.1
	C221.6,159.6,226.6,148.7,237.1,135.7z"/>
<path class="st4" d="M235.5,137.8l1.6-2.1c12,7.2,22.9,11.9,32.7,14.2c4,13.2,3.3,23,0.6,31.2c1.5,6.3,1.5,11.8,0,16.5
	c-1.2,2.2-3.6,4.2-8.3,6.3c-3.8-7.3-16.8-7-28.5,4.9c-14.9-9.3-31.4-2.8-28.7,13.7l-0.2,1.6l9.4-2.2c7.8,9.6,15.4,10.3,23.1,4.8
	c10.5,0.6,19.3,0.9,31.2-2.7c-8.4,14-7.8,23.9-6.2,32.2c-18.2-1.5-14.6,28,1.6,67.6c-9.4,15.2-33.7-0.2-54.3,3.4
	c-14.3-13.4-17.3-60.3-7.6-71.4c-1.3-13.3,0-44.4,10.5-54.5c-3.8-6.2,4.6-27.4,10.3-32.4C219.3,166.1,227.2,149,235.5,137.8z"/>
<path class="st8" d="M261.2,178.7c-9.7-9.2-25-11.8-39.5-9.3C229.8,157.9,257.8,166.8,261.2,178.7L261.2,178.7z M238,301.8
	c-13.7-5-28-4.2-36-2.6C200.2,290.2,237.4,294.5,238,301.8L238,301.8z M201.6,252.7c12.8-3.3,33.6,2.2,40.2,10.2
	c-12.5-5.8-31.4-9.7-41.8-6.5L201.6,252.7z"/>
<path class="st7" d="M223.6,205.1c-10.5-12.1-10.8-28.9-1.9-35.7l0.3-4.6c-12.5,5.2-23.7,24.4-15.5,45.9
	C209.6,206.3,214.9,204.1,223.6,205.1z"/>
<path class="st6" d="M185.5,145.7c-11.3,1.9-20.5,5-27.6,9.2c-9.9,8.7-17.5,8.4-22.7-0.8c-5.5-5.7-24.5,0.2-16.5-17.2l2.5-6.6
	c1.7-9.1,7-13.7,20.1-8.2c20.2-10.7,44.3-20.4,76.9-28.1c4.3-40,22.1-53.4,30.1-33.4c13-23.1,31.7-19.3,50.9,24.4
	c27.5,7.9,30.8,34.7,20.3,47.2C287.7,170.2,222.5,143.5,185.5,145.7z"/>
<path class="st7" d="M185.5,145.7c-11.3,1.9-20.5,5-27.6,9.2c-9.9,8.7-17.5,8.4-22.7-0.8c-5.5-5.7,13.3,10.3,21.4-7.1
	c31-11,72.9-9.9,112.4-22c9.5-3.7,17.3-11.5,23.3-23.3c17.7,3,27.4,19.5,22.1,36C278.8,165.9,237.5,145.6,185.5,145.7L185.5,145.7z
	 M289.7,85c-4.5-25.2-21.9-49.5-41.3-24.4c13-23.1,31.7-19.3,50.9,24.4L289.7,85z"/>
<path class="st4" d="M141.3,122.1c27.4-14.8,60-25.3,97.9-31.5l-32.5,9.7l2.5,1.8c-6.7-1.9-17,0.3-30.9,6.7l5.2,2.5
	c-6-2.6-16.1,1.3-34.9,11.7l7.4,0.1c6.4,1.8,8.7,7.7,9,15.5c-6.9-14.8-11.6-10.3-21.4-12c-6.7-0.9-14.3-7.1-20.1-2.8
	C126.7,117.2,133.5,118.5,141.3,122.1z"/>
<path class="st9" d="M159.1,154.6c-4,2.1-8.4,5-12,6.2c2.9,5,4.8,7.2,5.8,6.7C155,167,157,161.9,159.1,154.6z"/>
<path class="st10" d="M147.1,160.8c2.9,5,4.8,7.2,5.8,6.7c2-0.5,4.1-5.7,6.1-12.9"/>
<path class="st9" d="M135.2,154.1l-11-3.2c2.6,6.2,5.9,11.6,6.8,11.2C132.8,161.6,133.9,158.6,135.2,154.1z"/>
<path class="st10" d="M124.2,150.9c2.6,6.2,5.9,11.6,6.8,11.2c1.8-0.5,2.9-3.4,4.2-8"/>
<path class="st9" d="M282.8,85.9c-10.7,2.3-22.3,8.2-32.1,6.9c-2.4-21.1,5.1-34.1,13.7-35.6C274,57.1,282.1,70.6,282.8,85.9z"/>
<path class="st9" d="M223,70.7l-2.8,10.4l-2,12.9l20.9-3.4C238.3,63.5,230.4,58.4,223,70.7z"/>
<path class="st11" d="M235.6,91.1l-16.8,3c-0.3-12.2,2.6-21.6,8-22.4C231.7,71.3,235.8,79.1,235.6,91.1z"/>
<path class="st11" d="M275.1,87.7c-8.1,1.7-15.2,6-24.4,5.1c-1.9-16.8,4.1-27.1,10.9-28.3C269.2,64.4,274.6,75.6,275.1,87.7z"/>
<path class="st9" d="M287.4,111.1c-4,3.9-8,7.3-11.9,10.4c4.3,4.6,12.8,8.9,13.4,8.2C290.2,128.6,289.1,116.6,287.4,111.1z"/>
<path class="st12" d="M275.5,121.4c4.3,4.6,12.8,8.9,13.4,8.2c1.4-1,0.3-13-1.5-18.6"/>
<path class="st9" d="M234.4,136.1l-9.5,2.1c2.6,4.7,4.3,6.8,5.2,6.4C231.8,144.2,233,140.9,234.4,136.1z"/>
<path class="st12" d="M224.9,138.3c2.6,4.7,4.3,6.8,5.2,6.4c1.7-0.5,2.9-3.8,4.3-8.5"/>
<circle class="st13" cx="256.7" cy="85.7" r="6.7"/>
<circle class="st9" cx="260.3" cy="80.8" r="3"/>
<circle class="st9" cx="267.5" cy="70.4" r="4"/>
<circle class="st13" cx="224.4" cy="86.7" r="5.7"/>
<circle class="st9" cx="228" cy="83.1" r="2.6"/>
<circle class="st9" cx="231.3" cy="75.2" r="3.4"/>
<path class="st14" d="M222.2,164.5c-16.1,8.1-23,28.2-15.7,46.2 M233.5,209c-13.3-8.5-31.9-4.5-28.6,13.5 M270.4,197.6
	c1-5.2,1.2-10.6,0-16.5c2.8-8.8,2.9-18.1,0.3-28.1 M209.5,327.3c-15-11.5-21.5-57.8-11.7-70.3c-2.6-9.9-1.4-36.1,6.7-52.5
	 M221.7,169.4c0.5-6.8,1.8-13.6,6.1-20 M221.7,169.4c9.2-4.1,27.5-0.2,35.1,5.6 M206,224.3c9.8-2.7,20.4-5.3,27.5-15.3
	c5.3-8.7,24.4-14.3,29-5.3 M210,213.1c-3.1,3.5-4.9,7.8-5.4,12.6c4-4.1,8.7-8.2,14.5-12.1 M270.4,197.6c-3.6,4.8-10.9,8.4-18.2,10.2
	c-8.2,15.1-16,21.6-23.7,22.3c-6.6,0-11.5-5.1-14.3-8.2 M237.2,226.8c10.6,1.3,21,0.4,31.2-2.7 M268.4,224.1
	c-6.5,11.5-8.3,21.8-6.2,32.2 M291.5,149.6c2.7,56.5-9.4,124.4,15,162c15.3,20.8,59.1,22.4,76.8,14.2c1,13.3-75.5,35.1-95.6,7.1
	 M291.5,186.8c15.1,8.9,14.4,14.8-0.5,22.4 M291.5,149.6c11.1,6.5,16,12.1,0.2,21 M290.7,223.2c15.7,9.2,12,13.9,0.1,20.2
	 M291.5,256.9c9.6,5.5,13.2,7.3,1.9,17.1 M296.1,286.8c13.1,3.4,11.8,9.2,6,16.8 M307.3,312.3c9.8-3.1,14.2-2.8,13.4,10 M329,326.3
	c9.8-5.7,13.2-5.4,17.4,3.6 M361.6,330.3c5-9.6,8.1-7.9,13-1.9 M263.8,323.9c-7.8,14.3-34.4,0.1-54.3,3.4
	c-9.2,2.1-15.2,8.5-17.8,19.2c4.9-1.7,10.2-4.7,16-9.2 M193.6,340.8c-15.2,0.4-30.6-0.8-37.1-2.5 M195,345.2
	c8.6,0.3,16.8-1.3,24.4-4.7 M298.7,342.4c-16.6,4.2-40.3,8-93.4,2.3 M278.4,267.3c-9.5-11.4-19.8-14.4-25.6-7.1
	c-7.5,12.2,3.2,48.9,12.8,67.5 M202.1,299.2c10.4-1.6,22-1.4,32,1.1 M197.8,257c12.3-3.5,24.8-1.5,37.8,3.7 M197.3,253.9
	c-20.5,11.8-15,38.4-2.3,69.2c-28.3-2.4-44.3,3.3-47.9,17c4.6-0.7,10.7-3.8,18.1-9.2 M221.7,169.4c-8.3,7.4-9.2,22.2,1.9,35.7"/>
<path class="st14" d="M165.1,138.5c-2.1-23-14.3-12.8-23.8-16.3c-7-2.4-13.9-5.5-17.7,1.6c-2.7,3.6-2.4,10.2-4.9,13.2
	c-8.2,15.3,10.9,13.2,16.5,17.2 M141.3,122.1c33.9-17.3,66.5-27.8,97.9-31.5 M172.6,108c3.7-0.2,9,1.3,11,3.2 M199.7,98.7
	c3.2-0.1,7.8,1.4,9.6,3.4 M218.2,94c4.3-40,22.1-53.4,30.1-33.4c13-23.1,31.7-19.3,50.9,24.4c26.9,5.5,30.8,34.7,20.3,47.2
	c-31.9,37.8-97.2,11.1-134.1,13.3 M299.3,85.1c-24.7-2-35.2,10.3-50.7,7.4 M250.7,92.9c-2.4-21.1,5.1-34.1,13.7-35.6
	c9.5-0.2,17.6,13.4,18.3,28.7 M239.2,90.6c-0.9-27.2-8.8-32.2-16.1-19.9 M285.1,103.3c6.2-4.8,11.5,0.1,10.6,4.8 M292.2,103.1
	c-17.6,39.1-97.4,32.7-134.3,51.7c-3.5,2.5-9.3,7.8-15.4,5.5c-7.3-1.7-8.1-11.3-13.5-13.8"/>
<path class="st15" d="M149,131.2c0.9,3.2,6.7,12.5,0,11.9C143.3,141.9,146.5,134.2,149,131.2L149,131.2z M130.4,125.9
	c0.1,3,3.1,12.4-2.5,10.4C123.3,134.1,127.7,128,130.4,125.9z"/>
<path class="st4" d="M220.7,329.3c-8-0.3-15.3,2.2-22.9,7C203.7,328.9,211.8,326.2,220.7,329.3L220.7,329.3z M254.9,201.1
	c-10.1,1.8-13.7,6.1-22.3,11.9C238.3,204.2,244.1,201.8,254.9,201.1L254.9,201.1z M276.9,56.1c-8.2-4.2-16.8-6.3-23.9,4.2
	C258.3,46.2,268.6,48.4,276.9,56.1L276.9,56.1z M245.8,59.2c-4.1-4.8-10.8-6.7-16.7,1.7C234.2,50.8,241.8,51,245.8,59.2L245.8,59.2z
	 M304,89.1c8.5,5.3,14.1,13,18.5,23.3C321.7,100.6,315.4,92.2,304,89.1L304,89.1z M253.1,280.2c-1.3-14.7,4.9-21.9,10.7-22
	C256.1,254.3,249.6,262.6,253.1,280.2z"/>
</svg>
