<?xml version="1.0" encoding="utf-8"?>
<!-- Generator: Adobe Illustrator 19.0.0, SVG Export Plug-In . SVG Version: 6.00 Build 0)  -->
<svg version="1.1" id="Layer_1" xmlns="http://www.w3.org/2000/svg" xmlns:xlink="http://www.w3.org/1999/xlink" x="0px" y="0px"
	 viewBox="0 0 396.1 370.7" style="enable-background:new 0 0 396.1 370.7;" xml:space="preserve">
<style type="text/css">
	.st0{fill-rule:evenodd;clip-rule:evenodd;fill:#E1F4FD;}
	.st1{fill-rule:evenodd;clip-rule:evenodd;fill:#E6E7E8;}
</style>
<path id="XMLID_15_" class="st0" d="M57,204.8L84.2,93.6c5.4-61.5,61.5-47.9,87.7-47.9c36.2,0,52.2-38.6,90.4-44.3
	c43.4-6.5,104,10.9,113.9,53.4c12.7,51.5-47.9,104-33.5,147.4c8.1,26.2,53.4,22.6,53.4,64.2C396.1,402.8,57,414.6,57,204.8z"/>
<path id="XMLID_16_" class="st1" d="M264.1,324.1l-130.2,4.5c-20.9,4.4-22.6,23.5,0.9,23.5c29.8,0,36.2,9.9,62.4,16.3
	c31.8,7.6,112.1-5,143.8-20.8C372.6,332.3,256.9,324.1,264.1,324.1z"/>
</svg>
