<?xml version="1.0" encoding="utf-8"?>
<!-- Generator: Adobe Illustrator 21.1.0, SVG Export Plug-In . SVG Version: 6.00 Build 0)  -->
<svg version="1.1" id="Layer_1" xmlns="http://www.w3.org/2000/svg" xmlns:xlink="http://www.w3.org/1999/xlink" x="0px" y="0px"
	 viewBox="0 0 520 483" style="enable-background:new 0 0 520 483;" xml:space="preserve">
<style type="text/css">
	.st0{fill-rule:evenodd;clip-rule:evenodd;fill:#D88F55;}
	.st1{fill-rule:evenodd;clip-rule:evenodd;fill:#00833A;}
	.st2{fill-rule:evenodd;clip-rule:evenodd;fill:#23A635;}
	.st3{fill-rule:evenodd;clip-rule:evenodd;fill:#D3D62D;}
	.st4{fill-rule:evenodd;clip-rule:evenodd;fill:#A1C413;}
	.st5{fill-rule:evenodd;clip-rule:evenodd;fill:#EDB581;}
	.st6{fill:none;stroke:#822E2D;stroke-width:1.7001;stroke-linecap:round;stroke-linejoin:round;stroke-miterlimit:22.9256;}
	.st7{fill:none;stroke:#055332;stroke-width:1.7001;stroke-linecap:round;stroke-linejoin:round;stroke-miterlimit:22.9256;}
	.st8{fill-rule:evenodd;clip-rule:evenodd;fill:#94A5AF;}
	.st9{fill-rule:evenodd;clip-rule:evenodd;fill:#FFFFFF;}
	.st10{fill:none;stroke:#6E6E6E;stroke-width:1.7001;stroke-linecap:round;stroke-linejoin:round;stroke-miterlimit:22.9256;}
	.st11{fill-rule:evenodd;clip-rule:evenodd;fill:#CAD44E;}
	.st12{fill-rule:evenodd;clip-rule:evenodd;fill:#1A1A18;}
	.st13{fill:none;stroke:#575656;stroke-width:1.7001;stroke-linecap:round;stroke-linejoin:round;stroke-miterlimit:22.9256;}
	.st14{fill-rule:evenodd;clip-rule:evenodd;fill:#BBE3F9;}
	.st15{fill-rule:evenodd;clip-rule:evenodd;fill:#B5CAD6;}
	.st16{fill:none;stroke:#717E84;stroke-width:1.7001;stroke-linecap:round;stroke-linejoin:round;stroke-miterlimit:22.9256;}
	.st17{fill-rule:evenodd;clip-rule:evenodd;fill:#C6D7E1;}
	.st18{fill-rule:evenodd;clip-rule:evenodd;fill:#D9E4EB;}
	.st19{fill:none;stroke:#717E84;stroke-width:1.7;stroke-linecap:round;stroke-linejoin:round;stroke-miterlimit:22.9256;}
	.st20{fill-rule:evenodd;clip-rule:evenodd;fill:#A3BDCC;}
	.st21{fill-rule:evenodd;clip-rule:evenodd;fill:#E9F6FD;}
</style>
<path class="st0" d="M344.9,438.4l-13.4-2.7C340.1,425.9,342.4,428.9,344.9,438.4z"/>
<path class="st0" d="M306.1,430.9l-17.5-4.7C300.2,415.2,302.2,416,306.1,430.9z"/>
<path class="st0" d="M251.2,339.4l1-20.9C268,326.4,268.5,331.8,251.2,339.4z"/>
<path class="st1" d="M97.7,195.3c10.6,14.7,21.9,25.2,33.9,31.6l20.4-9.2c-28-2.6-36.3-33.2-60.4-26.8L97.7,195.3z"/>
<path class="st2" d="M103.7,439.8l5-0.5c11.7,3.1,24.8,3.3,38.4,2.6l16.6-14L151,351.8c-21.2,12.2-15.6,39.8-2.5,71.7
	c-29.3-2.5-45.9,3.4-49.7,17.7L103.7,439.8z"/>
<path class="st1" d="M110.4,439.8l5.9,1.1c12.8,1.2,23.9,1.7,37.5,1l16.6-14l-12.6-76.1c-21.2,12.2-17,42.2-0.2,78.4
	c-29.3-2.5-28.8,3.3-36.7,5.9L110.4,439.8z"/>
<path class="st2" d="M227.3,320.1c-2,12.2-5,23.6-9.1,34.3c-13.2-3.9-19.3,20.9,1.6,70.1l-56.4,3.4c-9.9,2.9-15.9,9.6-18.2,20.1
	l3.4-1.3l10.7-0.6c36.5,4.4,70,5.1,96.8-2.3c23.1,11.7,71.3-1.9,105.2-0.2c-31.9-11.3-79-11-96.3-31c-8.8-12.1-13.7-30.9-13.9-57.6
	c-1-38.7,6.2-81.8,4.6-118.6l-19.8,2.3c3.8,3.9,0.6,36.7-3.8,52.5c-18.5,27.2-62.7,10.6-65.5,32l1.5-1.1
	C183.4,324,203.6,323,227.3,320.1z"/>
<path class="st1" d="M227.3,320.1c-2,12.2-5,23.6-9.1,34.3l9.5,4.3l7.3,7.1c-13.4,2.4-8.1,35.6-1.8,58.7
	c6.5,13.2-18.8,20.5-59.3,17.2l-14.7,4.3c36.5,4.4,70,5.1,96.8-2.3c23.1,11.7,71.3-1.9,105.2-0.2c-31.9-11.3-69.4,12.5-99-26.2
	c-8.8-12.1-11-35.7-11.2-62.4c-1-38.7,6.2-81.8,4.6-118.6l-19.5,2.3c9.8-1.2,7,36.7,2.6,52.5L227.3,320.1z"/>
<path class="st3" d="M196.3,233.9c16.4,3.5,29.7,5.1,39.7,4.7c3,10.4,1.5,28.3-3.8,52.5c-19.3,26.4-60.4,10.4-65.5,32l1.5-1.1
	c16.5,2.1,36.7,1.1,59.2-1.9c-2.9,13.6-5.6,24.9-9.1,34.3c-18.8-1.5-15.1,29,1.6,70.1c-9.8,15.8-35-0.2-56.2,3.5
	c-15.9-14.9-22.4-54.2-12.1-72.9c-1.3-13.7,3.2-32.2,13.6-55.2c-1-6.5,4.9-19.2,14-30.2C179,259.5,185.4,247.4,196.3,233.9z"/>
<path class="st4" d="M195.6,234.8c-0.7-6,1.8-13.3,7.4-20.1c10.1-12.5,23.3,24.3,33,23.9c3,10.4,1.5,28.3-3.8,52.5l-4.8,29.1
	c-2.9,13.6-5.6,24.9-9.1,34.3c-18.8-1.5-15.1,29,1.6,70.1c-9.8,15.8-35-0.2-56.2,3.5c-14.9-13.9-19.6-60.5-6.3-74
	c-1.3-13.7,4.2-46,15.1-56.5c-6.8-4,3.6-24,13.3-30C182.3,264.5,187.5,246,195.6,234.8z"/>
<path class="st5" d="M182.1,265.6c12.8-5.8,36.6-1.8,41.5,6.3c-12.3-6.5-27.1-7.2-44.5-2.2L182.1,265.6z"/>
<path class="st5" d="M168.3,295.2c8.1-3.9,34.9-4.1,36.6,2.1c-19.9-2-29.9-1.4-40,2.5L168.3,295.2z"/>
<path class="st3" d="M157.2,350.9c9.1-4.6,37.2-2.6,43,4.7c-16.8-4-36.2-4.8-46.3-0.2L157.2,350.9z M193.2,401.5
	c-14.2-5.2-29.1-4.4-37.3-2.7C154,389.5,192.6,393.9,193.2,401.5z"/>
<path class="st6" d="M288.6,426.2c11.7-11,13.7-10.2,17.5,4.7"/>
<path class="st4" d="M253.3,301.8l1.7-24.3C272.4,285.3,272.5,293.2,253.3,301.8z M252.4,374.7l-1.3-19.9
	C266.9,362.8,264.1,364.6,252.4,374.7z M259.6,403.3l-5.4-17.5C269.7,389.4,269.7,391.2,259.6,403.3z M278.8,422.7
	c-5.7-2.5-10.4-6-13.9-10.4C278.9,406.5,279.9,407,278.8,422.7z M255.6,266.4l0.3-21.4C269.7,252.8,270.8,257.7,255.6,266.4z"/>
<path class="st6" d="M331.5,435.6c8.6-9.7,10.9-6.7,13.4,2.7"/>
<path class="st7" d="M155.9,398.8c10.8-1.6,22.8-1.5,33.1,1.1 M235.1,365.8c-9.8-11.8-20.5-15-26.5-7.4
	c-7.7,12.6,3.3,50.7,13.3,69.9 M256.1,443.5c-17.2,4.4-41.7,8.3-96.8,2.3 M219.9,424.4c-8.1,14.8-35.7,0.1-56.2,3.5
	c-9.6,2.2-15.7,8.8-18.4,19.9c5-1.7,10.6-4.9,16.6-9.6 M147.2,441.9c-15.7,0.4-31.8-0.8-38.5-2.6 M103.7,439.8
	c6.5-0.3,13.5-2,20.9-5.3 M152,217.7c-28-2.6-36.3-33.2-60.4-26.8c4.5,3.8,8.1,5.6,14.7,8.7 M95.9,193.9
	c9.6,12.3,24.4,28.7,35.7,32.9 M151,351.8c-21.2,12.2-15.6,39.8-2.5,71.7c-29.3-2.5-45.9,3.4-49.7,17.7c4.8-0.7,11-3.9,18.8-9.6
	 M255.7,236.3c2.8,58.5-16.8,136.4,8.4,175.4c15.8,21.6,70.3,20.4,97.2,31.7c-38.9-3.2-95.8,19.4-116.7-9.6 M235.9,238.6
	c2.4,2.5,2,16.9,0.2,31 M163.7,427.9c-15.5-12-22.3-59.9-12.1-72.9c-2.7-10.3,5.2-38.3,13.6-55.2c-2.3-4.5,8.2-23.8,14-30.2
	c0-9.1,4.6-19.9,16.4-35c-0.8-7,1.7-13.7,7.4-20.1 M148.6,446.4c8.9,0.3,17.4-1.3,25.3-4.9 M157.4,354c21.3-3.4,37.7-1.1,51.2,4.4"
	/>
<path class="st6" d="M227.3,320.1c-2.1,12.6-5.3,24.3-9.1,34.3"/>
<path class="st6" d="M252.2,318.4c15.9,8,16.4,13.4-1,20.9"/>
<path class="st2" d="M162.6,179.1c-10.4-5.1-19.8-8.1-28.2-8.9c-13.3,1.2-19.3-3.5-18.2-14.1c-1.1-8-20.3-14.4-3.3-23.9l5.9-4
	c6.8-6.4,13.9-7,21.4,5.2c22.9,3.2,48.5,9.5,79.9,22.6c27.3-30.3,49.8-30.7,44.6-9.5c24.4-11.3,37.5,3,27.3,50.3
	c17.9,22.8,4.7,46.8-11.4,50.9C232,259.9,194.2,199.2,162.6,179.1z"/>
<path class="st8" d="M113.4,239.3c23.5-33.5,66.1-40.2,78-17l-49,44.3l-18.2,42.3C100,304.2,89.3,276.2,113.4,239.3z"/>
<path class="st1" d="M284.1,191.2l7.8,5.8c10.2-47.3-2.9-61.6-27.3-50.3C295.5,137.5,295.4,167.9,284.1,191.2z M162.6,179.1
	c-10.4-5.1-19.8-8.1-28.2-8.9c-13.3,1.2-19.3-3.5-18.2-14.1c-1.1-8,4.8,16.4,21.8,6.9c32,9.4,65.7,35.2,105.4,48.7
	c10,2.6,21,0.8,33-5.3c12.8,13,11,32.3-3.3,42.7C227.2,251.2,205.3,209.9,162.6,179.1z"/>
<path class="st9" d="M135.6,170.7c-4.5-0.7-9.8-0.9-13.5-2c-0.6,5.9-0.3,8.8,0.8,9C124.8,178.5,129.6,175.5,135.6,170.7z"/>
<path class="st10" d="M122.1,168.7c-0.6,5.9-0.3,8.8,0.8,9c1.9,0.8,6.7-2.2,12.7-7"/>
<path class="st9" d="M116.2,156.1l-7.1-9.2c-1.6,6.6-2.1,13-1.1,13.2C109.8,160.8,112.5,159.1,116.2,156.1z"/>
<path class="st10" d="M109.2,147c-1.6,6.6-2.1,13-1.1,13.2c1.7,0.7,4.4-1.1,8.2-4"/>
<path class="st0" d="M293.4,203.1c3.8,9.4,3.9,19,1.4,30.2C301.1,223,300.9,212.3,293.4,203.1z"/>
<path class="st9" d="M277.9,187.8c-10.2-4.4-23.2-6.6-30.5-13.3c10.6-18.7,24.4-24.9,32.4-21.1C285.8,160.3,285.3,175.6,277.9,187.8
	z"/>
<path class="st9" d="M237.9,139.8l-8.5,6.9l-9.3,9.4l19.2,9.6C254.8,142.9,251.3,134.1,237.9,139.8z"/>
<path class="st4" d="M263.3,143.8c-0.5-6.3-4.9-11.9-14.7-8.6C258.9,130.1,265,134.8,263.3,143.8z M140.3,133.5
	c31.3,4.1,64.3,14.9,99.1,32.3L207,154.4l1,2.9c-4.3-5.6-14.1-9.9-29.3-12.8l2.8,5.2c-3.4-5.7-14-8.5-35.7-11.1l6.1,4.4
	c4.2,5.3,2.5,11.5-1.8,18.1c3.2-16.3-3.4-15.3-10.4-22.5c-5-4.7-7.5-14.3-14.9-14.2C131.2,120.8,135.9,125.9,140.3,133.5z
	 M175.2,430c-8.3-0.3-15.8,2.2-23.7,7.3C157.7,429.5,166,426.7,175.2,430z M208.8,379.1c-1.3-15.2,5.1-22.7,11.1-22.8
	C211.9,352.4,205.2,360.9,208.8,379.1z M290.7,159.9c-4.2-8.3-10.1-15.2-22.1-10.7C281.3,140.7,288.5,148.6,290.7,159.9z"/>
<path class="st11" d="M235.5,163l-15.4-6.9c7.2-8.7,15-16.2,19.8-13.6C244.2,145.1,243.7,151.9,235.5,163z"/>
<path class="st11" d="M270.1,184.7l-11.9-3.9l-10.8-6.3c8.2-14.2,16-19.4,22.3-17.3C275.2,158.4,277,171.4,270.1,184.7z"/>
<ellipse transform="matrix(0.5244 -0.8515 0.8515 0.5244 -14.8097 271.2483)" class="st12" cx="235.4" cy="148.9" rx="5.8" ry="5.8"/>
<path class="st9" d="M266.7,211.2c-5.6,0.8-10.9,1.3-15.9,1.4c0.8,6.3,5.2,15,6.2,14.7C258.7,227.3,264.8,216.8,266.7,211.2z"/>
<path class="st13" d="M250.8,212.6c0.8,6.3,5.2,15,6.2,14.7c1.7-0.1,7.9-10.5,9.8-16.2"/>
<path class="st9" d="M208.4,200.3l-9.1-3.9c-0.7,5.4-0.5,8.2,0.5,8.4C201.5,205.4,204.4,203.4,208.4,200.3z"/>
<path class="st13" d="M199.3,196.4c-0.7,5.4-0.5,8.2,0.5,8.4c1.7,0.7,4.6-1.3,8.6-4.4"/>
<path class="st6" d="M269.4,203.4c7.9-0.2,9.4,6.9,5.9,10.3"/>
<ellipse transform="matrix(0.5244 -0.8514 0.8514 0.5244 -15.2016 302.5132)" class="st12" cx="263.2" cy="164.9" rx="6.8" ry="6.8"/>
<path class="st7" d="M239.4,165.7c15.4-22.8,11.9-31.7-1.4-25.9 M247.5,174.5c10.6-18.7,23.6-24.5,30.5-21.8
	c7.8,3.9,8.5,22.1,0,35.1 M291.9,196.9c-19.1-16.3-35.1-12.5-46-24 M220.1,156.1c27.3-30.3,49.8-30.7,44.6-9.5
	c24.4-11.3,37.5,3,27.3,50.3c18.8,20.5,4.7,46.8-11.4,50.9c-48.7,12.1-86.4-48.6-118.1-68.8 M202.1,148.9c2.7,1.8,5.6,5.8,5.9,8.4
	 M174.4,140.4c3.1,2.1,6.6,6.4,7.1,9.2 M140.3,133.5c38.1,5.9,71.2,16.7,99.1,32.3 M150.1,161.1c12-20.1-4.1-19-9.9-27.6
	c-4.4-6.2-8.1-12.8-15.5-9.2c-4.3,1.3-8,7-11.9,7.9c-15.8,7.7,1.1,17.3,3.3,23.9 M255,277.5c17.5,7.9,17.6,15.7-1.7,24.3
	 M264.9,412.3c14-5.8,15-5.3,13.9,10.4 M254.2,385.8c15.6,3.6,15.6,5.4,5.4,17.5 M251.1,354.8c15.9,8,13,9.8,1.3,19.9 M262.3,249.1
	c6.5,5.9,5,10.6-6.8,17.2 M275.4,207.5c-37.7,21.7-99.5-31-141-37.3c-4.4,0-12.3,0.9-15.9-4.6c-5-5.7,0-14.1-2.9-19.3"/>
<ellipse transform="matrix(0.5239 -0.8518 0.8518 0.5239 -17.7679 307.5758)" class="st9" cx="266.3" cy="169.7" rx="3.1" ry="3.1"/>
<ellipse transform="matrix(0.5244 -0.8515 0.8515 0.5244 -16.5996 275.9332)" class="st9" cx="238.7" cy="152.8" rx="2.6" ry="2.6"/>
<path class="st4" d="M449.9,461l-17.7-4.8C444.1,445.1,446.1,445.9,449.9,461z M422.3,452.7c-5.8-2.6-10.5-6.1-14.1-10.5
	C422.4,436.3,423.4,436.8,422.3,452.7z M402.8,433l-5.5-17.7C413.1,419,413.1,420.8,402.8,433z M395.5,404l-1.3-20.2
	C410.2,391.9,407.4,393.7,395.5,404z M394.3,368.2l1-21.2C411.3,355.1,411.9,360.6,394.3,368.2z M396.4,330.2l1.7-24.6
	C415.9,313.5,416,321.5,396.4,330.2z M398.7,294.3l0.3-21.7C413.2,280.6,414.2,285.5,398.7,294.3z M489.3,468.6l-13.6-2.8
	C484.4,456,486.8,459,489.3,468.6z"/>
<path class="st1" d="M289.9,328.1l10.6-0.6l10.8-2.8l8.1-21.1c-15.3,10.8-30.8,10.1-41.9,11.2L289.9,328.1z"/>
<path class="st2" d="M244.9,470l5.1-0.5c11.8,3.1,25.2,3.3,38.9,2.7l16.8-14.2l-12.9-77.2c-21.5,12.4-15.8,40.4-2.5,72.7
	c-29.7-2.5-46.5,3.5-50.4,17.9L244.9,470z"/>
<path class="st1" d="M251.6,470l6,1.1c13,1.2,24.2,1.7,38,1.1l16.8-14.2l-12.8-77.2c-21.5,12.4-17.3,42.8-0.2,79.5
	c-29.7-2.5-29.2,3.3-37.2,6L251.6,470z"/>
<path class="st2" d="M370.1,348.8c-2,12.3-5.1,23.9-9.2,34.7c-13.4-3.9-19.6,21.2,1.7,71l-57.2,3.4c-10,2.9-16.2,9.7-18.5,20.3
	l3.4-1.4l10.8-0.6c37,4.4,70.9,5.1,98.1-2.4c23.4,11.9,72.3-2,106.6-0.2c-32.3-11.4-80-11.1-97.6-31.4
	c-8.9-12.3-13.9-31.3-14.1-58.4c-1-39.2,6.3-82.9,4.7-120.2l-20,2.4c3.8,4,0.6,37.2-3.9,53.2c-18.8,27.6-61.5,23.4-64.4,45.1
	l1.5-1.1C327.5,365.2,346.1,351.7,370.1,348.8z"/>
<path class="st1" d="M370.1,348.8c-2,12.3-5.1,23.9-9.2,34.7l9.6,4.3l7.4,7.2c-13.7,0.6-11.2,33.7-1.9,59.5
	c6.5,13.4-19.1,20.8-60.1,17.4l-14.9,4.4c37,4.4,70.9,5.1,98.1-2.4c23.4,11.9,72.3-2,106.6-0.2c-32.3-11.4-70.3,12.6-100.3-26.6
	c-8.9-12.3-11.2-36.1-11.4-63.2c-1-39.2,6.3-82.9,4.7-120.1l-19.8,2.3c9.9-1.2,6.4,40.1,2,56.1c-4.1,23.2-41.6,35.6-69,41.2l1.5-1.1
	C328.4,366.8,345,356.4,370.1,348.8z"/>
<path class="st3" d="M338.6,261.4c16.7,3.6,30.1,5.2,40.2,4.8c3,10.6,1.5,28.7-3.9,53.2c-19.6,26.8-59.3,23.2-64.4,45.1l1.5-1.1
	c16.8,2.1,37.1-6.9,58-14.6c-2.9,13.8-5.7,25.2-9.2,34.7c-19.1-1.5-15.3,29.4,1.7,71c-9.9,16-35.4-0.2-57,3.6
	c-16.1-15.1-22.7-54.9-12.3-73.9c-1.3-13.9,3.3-32.6,13.8-56c-1-6.6,5-19.4,14.2-30.6C321.1,287.3,327.6,275,338.6,261.4z"/>
<path class="st4" d="M338.6,261.4c16.7,3.6,30.1,5.2,40.2,4.8c3,10.6,1.5,28.7-3.9,53.2c-19.6,26.8-59.3,23.2-64.4,45.1l1.4-1
	c16.8,2.1,38.5-7.7,58.2-14.7c-2.9,13.8-5.7,25.2-9.2,34.7c-19.1-1.5-15.3,29.4,1.7,71c-9.9,16-35.4-0.2-57,3.6
	c-15-14.1-19.8-61.3-6.3-75c-1.3-13.9,4.3-46.6,15.3-57.3c-6.9-4,3.7-24.3,13.5-30.4C324.5,292.4,330.5,272.7,338.6,261.4z"/>
<path class="st3" d="M299,379.8c9.2-4.7,37.7-2.6,43.5,4.8c-17.1-4-36.7-4.8-46.9-0.2L299,379.8z M310.2,323.5
	c8.2-4,35.4-4.1,37.1,2.1c-20.1-2.1-30.3-1.4-40.5,2.5L310.2,323.5z M324.3,293.5c12.9-5.9,37.1-1.8,42.1,6.4
	c-12.4-6.6-27.5-7.3-45.1-2.2L324.3,293.5z M335.5,431.2c-14.4-5.2-29.4-4.4-37.8-2.7C295.8,419,334.9,423.6,335.5,431.2z"/>
<path class="st7" d="M290.3,476.8c9.1,0.3,17.6-1.3,25.7-5 M362.5,454.4c-8.2,15-36.1,0.1-57,3.6c-9.7,2.2-15.9,9-18.7,20.1
	c5.1-1.7,10.7-5,16.8-9.7 M288.9,472.2c-16,0.4-32.2-0.9-39-2.7 M244.9,470c6.6-0.3,13.7-2.1,21.2-5.3 M292.7,380.8
	c-21.5,12.4-15.8,40.4-2.5,72.7c-29.7-2.5-46.5,3.5-50.4,17.9c4.8-0.7,11.2-4,19-9.7 M290.1,328.2c6.1-0.1,11.8-0.7,16.5-1.9
	 M314.6,307c-12.2,7.3-25.7,6.2-37.2,7.9 M399.2,473.8c-17.4,4.4-42.3,8.4-98.1,2.4"/>
<path class="st8" d="M292.8,377.1l15.8-26.1l5.8,4.8l-2.5,3.8l-0.7,4.2l12.5-0.3l4,3.3c6.1,5.2-4.7,25.6-14.7,19.9L292.8,377.1z"/>
<path class="st14" d="M126.3,310.6l31.4,8.1l62-50.5l-29-47.1C149.6,195.8,90.3,284.7,126.3,310.6z"/>
<polygon class="st15" points="227.4,368.4 239.9,368.4 239.9,387.2 279.5,456 268.7,462.2 233.6,401.4 198.5,462.2 187.7,456 
	227.4,387.2 "/>
<path class="st16" d="M323.7,363.6l4,3.3c6.1,5.2-4.7,25.6-14.7,19.9l-20.2-9.6 M308.6,351.2l5.8,4.8"/>
<path class="st15" d="M119.6,307.8c41.6,13.6,92.6-53.4,71-86.6l115.4,124.2c9.6,10.5-6.9,37.4-21.7,31.9L119.6,307.8z"/>
<path class="st17" d="M186.7,271.9c9.1-15.8,11.6-40.4,3.9-50.8l115.4,124.2c9.6,10.5-6.9,37.4-21.7,31.9
	c14.9-4,18.6-16.7,12.6-21.8L186.7,271.9z"/>
<path class="st16" d="M190.6,221.1c12.1,18.5,2.8,50.4-20.8,71.3c-23.6,20.9-52.6,22.8-64.7,4.3c-12.1-18.5-2.8-50.4,20.8-71.3
	C149.5,204.6,178.5,202.6,190.6,221.1z"/>
<path class="st16" d="M190.6,221.1l115.4,124.2c9.6,10.5-6.9,37.4-21.7,31.9l-164.7-69.5"/>
<path class="st15" d="M210.5,347l12.8,5.3c11.4,21.6,27.9-3.7,34.6-37.7c2.2-8.6,15.7-4.1,14.6,3.4c-3.9,22.7-21.3,47.1-34.2,50.6
	c-3.7,1-8.1,1.1-11.3,0C221.5,366.1,214.7,359,210.5,347z"/>
<path class="st16" d="M190.6,221.1c-41-25.3-100.3,63.5-64.4,89.5"/>
<path class="st16" d="M223.7,353.2c11.4,19.4,27.7-5.7,34.2-38.7c2.2-8.6,15.7-4.1,14.6,3.4c-3.9,22.7-21.3,47.1-34.2,50.6
	c-3.7,1-8.1,1.1-11.3,0c-5.2-2.2-11.9-9.8-16.2-20.9"/>
<ellipse transform="matrix(0.2357 -0.9718 0.9718 0.2357 -107.5532 501.3189)" class="st18" cx="264.9" cy="319" rx="5.9" ry="4.8"/>
<ellipse transform="matrix(0.2357 -0.9718 0.9718 0.2357 -107.5531 501.3191)" class="st19" cx="264.9" cy="319" rx="5.9" ry="4.8"/>
<path class="st16" d="M213.6,245.8c13.4,22.2-24.8,79.9-54.6,78.6"/>
<polygon class="st20" points="227.4,455.1 227.4,412.2 233.6,401.4 239.9,412.2 239.9,455.1 233.6,454.6 "/>
<path class="st16" d="M221.1,253.8c12.7,21.1-23.6,76-51.9,74.7"/>
<path class="st16" d="M239.9,387.2v-18.1 M239.9,455.1v-42.9 M227.4,412.2v42.9 M227.4,368.4v18.8"/>
<path class="st8" d="M225.7,455.4c4.4-1,11.5-1.1,15.9,0v18.5c-0.4,3.6-15.7,3.8-15.9,0V455.4z"/>
<path class="st16" d="M225.7,455.4c4.4-1,11.5-1.1,15.9,0v18.5c-0.4,3.6-15.7,3.8-15.9,0V455.4z"/>
<path class="st16" d="M198.5,462.2l35.1-60.8 M227.4,387.2l-39.7,68.7"/>
<path class="st16" d="M268.7,462.2l-35.1-60.8 M279.5,456l-39.7-68.7c0,4.9-12.5,4.5-12.5,0"/>
<path class="st8" d="M186.1,455.4c4.3,1.4,10.5,4.8,13.7,7.9l-10.5,18.1c-2.1,2.9-15.4-4.6-13.7-7.9L186.1,455.4z"/>
<path class="st16" d="M186.1,455.4c4.3,1.4,10.5,4.8,13.7,7.9l-10.5,18.1c-2.1,2.9-15.4-4.6-13.7-7.9L186.1,455.4z"/>
<path class="st8" d="M281.1,455.4c-4.3,1.4-10.5,4.8-13.7,7.9l10.5,18.1c2.1,2.9,15.4-4.6,13.7-7.9L281.1,455.4z"/>
<path class="st16" d="M281.1,455.4c-4.3,1.4-10.5,4.8-13.7,7.9l10.5,18.1c2.1,2.9,15.4-4.6,13.7-7.9L281.1,455.4z"/>
<path class="st2" d="M285.1,240.2c-11.7-1.2-21.6-0.7-29.8,1.5c-12.2,5.8-19.6,3.5-22.2-7c-3.9-7.2-24.3-6.5-11.6-21.5l4.2-5.8
	c4.2-8.5,10.7-11.6,22.1-2.6c22.9-5,49.4-8,83.7-6.7c15.2-38.4,36.4-46.7,38.9-24.7c19.1-19.3,36.7-10.3,43.6,38.1
	c25,15.4,21,42.7,7.1,52.3C379.3,292.4,322.2,248.1,285.1,240.2z"/>
<path class="st1" d="M404.6,208.9c2.5-26.1-8.1-54.9-34.2-35.4c19.1-19.3,36.7-10.3,43.6,38.1L404.6,208.9z M285.1,240.2
	c-11.7-1.2-21.6-0.7-29.8,1.5c-12.2,5.8-19.6,3.5-22.2-7c-3.9-7.2,10.4,13.8,23.1-1.1c33.6-2.3,74.7,10.2,117.1,9.1
	c10.4-1.1,20.2-6.6,29.4-16.6c16.7,7.8,21.8,26.8,11.9,41.7C371.7,285.8,336.4,254.4,285.1,240.2z"/>
<path class="st9" d="M256.6,241.8c-4.5,0.9-9.6,2.7-13.6,2.8c1.5,5.8,2.8,8.4,3.9,8.2C249.1,252.9,252.6,248.4,256.6,241.8z"/>
<path class="st10" d="M243.1,244.6c1.5,5.8,2.8,8.4,3.9,8.2c2.1,0.1,5.6-4.5,9.6-11.1"/>
<path class="st9" d="M233.1,234.7l-9.9-6.2c0.8,6.8,2.6,13.1,3.6,12.9C228.7,241.5,230.6,238.8,233.1,234.7z"/>
<path class="st10" d="M223.2,228.5c0.8,6.8,2.6,13.1,3.6,12.9c1.9,0,3.8-2.6,6.3-6.7"/>
<path class="st21" d="M123.6,280.6c5.1-19.5,16.3-35.1,33.6-49.8C135,239.6,122.6,256.9,123.6,280.6z"/>
<path class="st9" d="M397.6,207.8c-11.2-0.6-24.3,1.9-33.6-1.9c3.4-21.5,14.4-32.2,23.3-31.4C396.8,176.9,401.1,192.5,397.6,207.8z"
	/>
<path class="st9" d="M342.7,176.4l-5.6,9.5l-5.5,12.2l21.6,2.3C359.7,173.4,353.3,166.3,342.7,176.4z"/>
<path class="st11" d="M353.2,200.6l-16.8-2.1c3.1-12.2,8.5-20.7,14-19.9C355.3,179.5,355.8,189,353.2,200.6z"/>
<path class="st11" d="M397.6,207.8l-26.9-0.6c2.7-17.1,11.4-25.6,18.6-25C396.8,184.2,400.3,195.6,397.6,207.8z"/>
<path class="st4" d="M351.3,408.5c-1.3-15.4,5.1-23,11.3-23.1C354.5,381.3,347.6,390,351.3,408.5z M374.5,324.1
	c-8.8,8-19.2,14.7-33.7,20.3C353.3,342.5,368.1,335.2,374.5,324.1z M417.7,216.8c6.9,7.6,10.4,16.7,11.9,28.1
	C432,233.1,428.1,223,417.7,216.8z M399.9,176.8c-6.9-6.4-14.9-10.8-24.8-2.4C384.2,161.9,393.8,166.9,399.9,176.8z M368.3,171.2
	c-2.7-5.8-8.8-9.6-17-3C359.2,159.8,366.7,162.1,368.3,171.2z M247.9,204.8c31.1-7.1,66.3-8.6,105.4-4.3l-34.7,0.6l2,2.4
	c-6.1-3.8-16.9-4.4-32.3-1.9l4.5,3.9c-5.2-4.2-16.2-3.1-37.7,2l7.3,2.1c5.8,3.5,6.5,10,4.7,17.8c-2.7-16.5-8.6-13.4-17.8-17.7
	c-6.4-2.7-12.1-10.9-19.1-8.2C234.8,195.9,241.1,199.1,247.9,204.8z M317.3,460.1c-8.4-0.3-16,2.3-24,7.4
	C299.5,459.6,307.9,456.8,317.3,460.1z"/>
<path class="st1" d="M141.2,145.5c-1.2,3.1-1.9,14.3-7.1,9.8C130.1,150.9,137.4,146.5,141.2,145.5z M129.1,130.1
	c-1.7,2.5-4.8,12-8.3,7.1C118.3,132.6,125.6,130.2,129.1,130.1z"/>
<path class="st7" d="M141.2,145.5c-1.2,3.1-1.9,14.3-7.1,9.8C130.1,150.9,137.4,146.5,141.2,145.5z M129.1,130.1
	c-1.7,2.5-4.8,12-8.3,7.1C118.3,132.6,125.6,130.2,129.1,130.1z"/>
<path class="st9" d="M395.2,233.9c-5,2.7-9.9,5.1-14.6,7c3,5.8,10.2,12.3,11,11.8C393.2,252.1,395.4,239.9,395.2,233.9z"/>
<path class="st13" d="M380.6,240.9c3,5.8,10.2,12.3,11,11.8c1.6-0.7,3.8-12.8,3.6-18.8"/>
<path class="st9" d="M336,244.2l-10-0.5c1.3,5.4,2.4,7.9,3.4,7.8C331.2,251.5,333.3,248.5,336,244.2z"/>
<path class="st13" d="M326,243.7c1.3,5.4,2.4,7.9,3.4,7.8c1.9,0,3.9-2.9,6.6-7.3"/>
<ellipse transform="matrix(0.1951 -0.9808 0.9808 0.1951 113.7071 538.3996)" class="st12" cx="384.9" cy="199.9" rx="6.9" ry="6.9"/>
<ellipse transform="matrix(0.1948 -0.9808 0.9808 0.1948 115.8452 531.8781)" class="st9" cx="381.9" cy="195.4" rx="3.1" ry="3.1"/>
<ellipse transform="matrix(0.1951 -0.9808 0.9808 0.1951 90.5049 497.1692)" class="st12" cx="348.2" cy="193.4" rx="5.9" ry="5.9"/>
<ellipse transform="matrix(0.1955 -0.9807 0.9807 0.1955 92.1332 491.6137)" class="st9" cx="345.7" cy="189.7" rx="2.6" ry="2.6"/>
<path class="st7" d="M395.1,225.6c7.5-3,11.4,3.2,9.2,7.7 M266.9,227.5c4.3-23.3-10.6-16.5-19.1-22.7c-6.3-4.3-12.2-9.3-17.9-3.3
	c-3.6,2.8-5.2,9.5-8.5,11.7c-12.3,12.9,7.2,16,11.6,21.5 M247.9,204.8c38.3-7.8,73.4-9.3,105.4-4.3 M282.6,199.4
	c3.7,0.9,8.6,3.8,10,6.2 M311.9,197.6c3.2,0.8,7.3,3.5,8.5,5.9 M414.1,211.6c-23.8-8.7-37.6,0.5-52.1-6.5 M331.5,198.1
	c15.2-38.4,36.4-46.7,38.9-24.7c19.1-19.3,36.7-10.3,43.6,38.1c25,12.8,21,42.7,7.1,52.3c-41.9,28.6-99.1-15.7-136.1-23.6
	 M307,328.3c8-3.9,21.4-4.7,40.3-2.6 M321.2,297.7c9.6-4.7,37.5-4.3,45.1,2.2 M293,378.5c-0.3,2.3-0.1,4.3,0.2,5.6
	c-10.3,13.1-3.4,61.7,12.3,73.9c-15.7-12.1-22.6-60.7-12.3-73.9 M338.6,261.4c-12,15.2-17.3,27.1-17.4,36.3
	c-5.8,6.5-16.5,26-14.2,30.6c-1.6,3.2-3.2,7.3-4.7,11.1 M399,272.6c1.3,58.5-16.3,130.8,8.4,169c16,21.9,71.2,20.6,98.5,32.1
	c-39.4-3.2-97.1,19.6-118.2-9.7 M380.4,272.8c0.8,11.4-2,34-5.4,46.5c-18.8,27.6-61.5,23.4-64.4,45.1c4.4-3.1,8.2-5.7,11.6-7.8
	 M353.2,200.5c6.6-27.1,0.1-34.2-10.5-24.1 M364,205.9c3.4-21.5,14.4-32.2,23.3-31.4c9.5,2.5,13.7,18,10.2,33.4 M311.9,363.4
	c21.4,2.4,42.4-11.6,66.8-16.2 M370,349.3c-2.1,12.8-5.3,24.1-9.1,34.2 M377.9,394.9c-9.9-11.9-20.8-15.2-26.9-7.5
	c-7.8,12.8,3.4,51.4,13.4,70.9 M327.5,381.8c8.8,0.8,16.6,2.8,23.6,5.7 M297.7,428.5c11-1.7,23.1-1.5,33.6,1.1 M432.2,456.2
	c11.8-11.1,13.8-10.3,17.7,4.8 M408.2,442.2c14.2-5.9,15.2-5.4,14.1,10.5 M397.3,415.3c15.8,3.6,15.8,5.5,5.5,17.7 M394.2,383.8
	c16.1,8.1,13.2,9.9,1.3,20.2 M395.3,347c16.1,8.1,16.7,13.6-1,21.2 M398.1,305.5c17.8,8,17.8,15.9-1.7,24.6 M399,272.6
	c14.1,8,15.2,13-0.3,21.7 M475.7,465.8c8.7-9.9,11.1-6.8,13.6,2.8 M402.2,227.4c-28.1,33.8-105.3,5.6-146.9,14.3
	c-4.1,1.6-11.4,5.2-16.7,1.2c-6.7-3.7-4.9-13.4-9.5-17.3"/>
<path class="st1" d="M236.2,205.5c-0.7,2.9-0.3,13.1-5.3,9.6C226.8,211.6,232.8,206.8,236.2,205.5z M253,215.9
	c0,3.4,3.2,14.2-3.3,11.8C244.4,224.9,249.8,218.2,253,215.9z"/>
<path class="st7" d="M236.2,205.5c-0.7,2.9-0.3,13.1-5.3,9.6C226.8,211.6,232.8,206.8,236.2,205.5z M253,215.9
	c0,3.4,3.2,14.2-3.3,11.8C244.4,224.9,249.8,218.2,253,215.9z"/>
</svg>
