<?xml version="1.0" encoding="utf-8"?>
<!-- Generator: Adobe Illustrator 21.1.0, SVG Export Plug-In . SVG Version: 6.00 Build 0)  -->
<svg version="1.1" id="Layer_1" xmlns="http://www.w3.org/2000/svg" xmlns:xlink="http://www.w3.org/1999/xlink" x="0px" y="0px"
	 viewBox="0 0 520 483" style="enable-background:new 0 0 520 483;" xml:space="preserve">
<style type="text/css">
	.st0{fill-rule:evenodd;clip-rule:evenodd;fill:#DDE1F2;}
	.st1{fill-rule:evenodd;clip-rule:evenodd;fill:#FFF1CC;}
</style>
<path class="st0" d="M317,460.4l-62.3-24.9c-27.2-10.9-110.3,11.7-136.6-1c-44.5-21.4-11.9-52.2-45.1-76.4
	c-47.9-34.9-54-62-38.3-124.3c13.2-52.3-47.5-71-32.2-142.8c20.6-96,120.7-103.6,176.7-79.5c40.9,16.9,62.2,46.9,89.8,70.8
	c47.1,40.9,119.1-5.2,208.6,88.2c56.3,58.7,53.9,187.1,8.5,247.6C432.3,489.9,372.9,465.3,317,460.4z"/>
<polygon class="st1" points="55.8,36.5 73,60.4 101,51.5 83.6,75.2 100.7,99.2 72.8,89.9 55.3,113.6 55.5,84.2 27.5,74.9 55.6,66 
	"/>
<polygon class="st1" points="48.9,142.4 53.3,148.4 60.3,146.2 55.9,152.2 60.3,158.2 53.2,155.9 48.8,161.8 48.9,154.4 41.8,152.1 
	48.9,149.8 "/>
<polygon class="st1" points="172.6,49.1 176.9,55.2 184,52.9 179.6,58.9 183.9,64.9 176.9,62.6 172.5,68.6 172.5,61.1 165.5,58.8 
	172.5,56.5 "/>
</svg>
