<?xml version="1.0" encoding="utf-8"?>
<!-- Generator: Adobe Illustrator 21.1.0, SVG Export Plug-In . SVG Version: 6.00 Build 0)  -->
<svg version="1.1" id="Layer_1" xmlns="http://www.w3.org/2000/svg" xmlns:xlink="http://www.w3.org/1999/xlink" x="0px" y="0px"
	 viewBox="0 0 518 435" style="enable-background:new 0 0 518 435;" xml:space="preserve">
<style type="text/css">
	.st0{fill-rule:evenodd;clip-rule:evenodd;fill:#00BBEB;}
	.st1{fill-rule:evenodd;clip-rule:evenodd;fill:#007BBF;}
	.st2{fill-rule:evenodd;clip-rule:evenodd;fill:#009CD9;}
	.st3{fill-rule:evenodd;clip-rule:evenodd;fill:#8CD0EA;}
	.st4{fill:none;stroke:#18537E;stroke-width:1.7004;stroke-linecap:round;stroke-linejoin:round;stroke-miterlimit:22.9256;}
	.st5{fill-rule:evenodd;clip-rule:evenodd;fill:#FFFFFF;}
	.st6{fill:none;stroke:#6D6E71;stroke-width:1.7004;stroke-linecap:round;stroke-linejoin:round;stroke-miterlimit:22.9256;}
	.st7{fill-rule:evenodd;clip-rule:evenodd;fill:#C1D55D;}
	.st8{fill:none;stroke:#58595B;stroke-width:1.7004;stroke-linecap:round;stroke-linejoin:round;stroke-miterlimit:22.9256;}
	.st9{fill-rule:evenodd;clip-rule:evenodd;fill:#ED7B29;}
	.st10{fill:none;stroke:#823436;stroke-width:1.7004;stroke-linecap:round;stroke-linejoin:round;stroke-miterlimit:22.9256;}
	.st11{fill-rule:evenodd;clip-rule:evenodd;fill:#FAA74A;}
	.st12{fill-rule:evenodd;clip-rule:evenodd;}
</style>
<path class="st0" d="M36.9,406l10.2-1l8.2-2.4C44.8,391.1,42.2,392.8,36.9,406z M63.9,397.8c6-2.7,10.9-6.3,14.5-10.9
	C63.8,380.9,62.8,381.4,63.9,397.8z M84.1,377.5l5.7-18.3C73.4,362.9,73.4,364.8,84.1,377.5z M91.6,347.5l1.3-20.9
	C76.4,335,79.3,336.9,91.6,347.5z M92.9,310.4l-1-21.9C75.2,296.9,74.6,302.5,92.9,310.4z M90.7,271.1L89,245.6
	C70.5,253.8,70.5,262,90.7,271.1z M88.3,233.9L88,211.6C73.4,219.8,72.2,224.9,88.3,233.9z M13.9,401.2l13.6,4.4
	C24.7,392.2,21,393.8,13.9,401.2z"/>
<path class="st1" d="M188.7,282.6c3.2-14.8-0.6-26.5-14.2-33.3l-8.4-21.8c22.8,18.7,57.1,14.1,28.3,72.3L188.7,282.6z"/>
<path class="st2" d="M247.4,415.7l-5.2-0.5c-12.2,3.2-26,3.4-40.2,2.8l-17.4-14.7l13.2-79.8c22.3,12.8,16.4,41.7,2.6,75.1
	c30.7-2.6,48.1,3.6,52.1,18.5L247.4,415.7z"/>
<path class="st1" d="M240.4,415.7l-6.2,1.2c-13.4,1.3-25.1,1.8-39.3,1.1l-17.4-14.7l13.2-79.8c22.3,12.8,17.8,44.2,0.3,82.2
	c30.7-2.6,30.2,3.4,38.5,6.2L240.4,415.7z"/>
<path class="st2" d="M117.3,288.3c2.1,12.8,5.8,26.7,10.1,37.9c13.9-4.1,20.2,21.9-1.7,73.4l59.1,3.5c10.3,3,16.7,10,19.1,21
	l-3.5-1.4l-11.2-0.6c-38.2,4.6-75.8,3.7-103.9-4C61.1,430.4-1,423.3,6.3,386.5c2,29.5,54.3,23.6,72.4,0.6
	c9.2-12.7,14.3-32.3,14.5-60.3c1-40.6-6.5-85.7-4.8-124.2l20.7,2.4c-3.9,4.1-0.6,38.4,4,55c15.7,10.2,51.8-9.2,60.6-17.7l4.4,4.9
	l0.2,5.3C172.3,266,141,288.2,117.3,288.3z"/>
<path class="st1" d="M117.3,288.3c2.1,12.8,5.8,26.7,10.1,37.9l-9.9,4.5l-7.7,7.5c14.2,0.6,11.6,34.8,1.9,61.5
	c-6.8,13.8,19.7,21.5,62.1,18l15.4,4.5c-38.2,4.6-75.8,3.7-103.9-4c-24.2,12.3-63.2,5.7-75.5-12c10.6,6.6,40.5,26.5,71.5-14.1
	c9.2-12.7,11.5-37.4,11.7-65.4c1-40.6-6.5-85.7-4.8-124.2l20.5,2.4c-10.2-1.2-7.3,38.5-2.7,55c8.3,30.4,63.1,4.3,72.2-12l-1.7,7.5
	C164.3,270.9,141.1,286,117.3,288.3z"/>
<path class="st3" d="M150.4,200c-17.2,3.7-31.1,5.3-41.6,4.9c-3.1,10.9-1.5,29.7,4,55c13.4,9.6,52.3-8.4,60-18l5,5.2l-0.9,7.4
	l2.9,37.8c-17.3,2.2-38.4,1.2-62-2c3,14.3,5.8,26.1,9.5,35.9c19.7-1.6,15.8,30.4-1.7,73.4c10.2,16.5,36.6-0.2,58.9,3.7
	c16.6-15.6,23.4-56.8,12.7-76.3c1.4-14.4-3.4-33.7-14.3-57.8l-6.1-14.8l0.9-7.3l-5-5.2l-1.6,1.9l-2.9-6.3
	C168.5,226.8,161.8,214.1,150.4,200z"/>
<path class="st0" d="M150.4,200c-17.2,3.7-31.1,5.3-41.6,4.9c-3.1,10.9-1.5,29.7,4,55c14,8.1,40.1-4.9,55.6-13.3
	c1-0.6,4.2-5.8,6.9-3.3l2.7,4.6l-1.1,6.5c-8.6,14.6-34.4,31.6-59.6,34c3,14.3,6.4,28.1,10.1,37.9c19.7-1.6,15.8,30.4-1.7,73.4
	c10.2,16.5,36.6-0.2,58.9,3.7c15.6-14.5,20.5-63.4,6.6-77.5c1.4-14.4-4.4-48.2-15.8-59.2l1.8-12l1-6.7l-2.7-4.6l-14-8.1
	C165,232,158.9,211.8,150.4,200z"/>
<path class="st3" d="M191.3,322.4c-9.5-4.8-39-2.7-45,4.9c17.6-4.2,38-5,48.5-0.2L191.3,322.4z M165.2,233.2
	c-13.4-6.1-38.3-1.9-43.5,6.6c12.8-6.8,28.4-7.5,46.7-2.3L165.2,233.2z M153.6,375.6c14.8-5.4,30.4-4.6,39-2.8
	C194.7,363,154.3,367.7,153.6,375.6z"/>
<path class="st4" d="M183.1,269.1c8.9,17.7,17.1,47,14.3,57.8c10.6,13.6,3.5,63.8-12.7,76.3 M166.1,227.5
	c22.8,18.7,55.6,13.6,28.3,72.3 M188.7,282.7c2.3-14.6-1.6-25.5-10.7-31.3 M168.4,237.5c-9.9-4.9-38.8-4.5-46.7,2.3 M150.4,200
	c12.4,15.7,17.9,28,18,37.5c1.4,1.5,2.4,2.9,4.1,5.4"/>
<path class="st2" d="M206.7,168.6c12.3-1.9,22.8-1.9,31.6,0c13.2,5.5,20.9,2.7,23.1-8.5c3.7-7.8,25.4-8.2,11.1-23.3l-4.8-6
	c-4.9-8.8-11.9-11.7-23.6-1.6c-24.5-4.1-52.6-5.9-88.9-2.6c-18.1-39.8-41-47.4-42.5-24.1c-21.3-19.3-39.3-9-44.1,42.6
	c-25.6,17.6-19.9,46.3-4.8,55.6C109.8,228.7,167.9,179,206.7,168.6z"/>
<path class="st1" d="M78.6,141.8c-4-27.5,5.6-58.5,34.2-39.3c-21.3-19.3-39.3-9-44.1,42.6L78.6,141.8z M206.7,168.6
	c12.3-1.9,22.8-1.9,31.6,0c13.2,5.5,20.9,2.7,23.1-8.5c3.7-7.8-10.2,15.2-24.5,0c-35.7-0.7-78.5,14.8-123.3,15.9
	c-11.1-0.6-21.7-5.9-32-16c-17.2,9.1-21.6,29.4-10.4,44.7C117.5,221.3,153.1,186.3,206.7,168.6z"/>
<path class="st5" d="M237,168.8c4.8,0.8,10.3,2.3,14.5,2.3c-1.3,6.2-2.5,9.1-3.7,8.9C245.5,180.1,241.6,175.5,237,168.8z"/>
<path class="st6" d="M251.4,171c-1.3,6.2-2.5,9.1-3.7,8.9c-2.2,0.2-6.1-4.4-10.8-11.2"/>
<path class="st5" d="M261.4,160.1l10.2-7.1c-0.5,7.2-2.1,14-3.1,13.8C266.5,166.9,264.4,164.3,261.4,160.1z"/>
<path class="st6" d="M271.6,153c-0.5,7.2-2.1,14-3.1,13.8c-2,0.1-4.1-2.5-7-6.8"/>
<path class="st5" d="M86,140.4c11.8-1.3,25.8,0.8,35.4-3.8c-4.8-22.5-16.9-33.3-26.3-32C85.2,107.6,81.5,124.3,86,140.4z"/>
<path class="st5" d="M142.4,104.2l6.5,9.8l6.5,12.6l-22.7,3.6C124.2,102,130.6,94.1,142.4,104.2z"/>
<path class="st7" d="M132.6,130.3l17.7-3.1c-3.9-12.7-10.1-21.4-15.9-20.3C129.2,108.2,129.2,118.2,132.6,130.3z"/>
<path class="st7" d="M86,140.4l28.4-2.1c-3.8-17.9-13.5-26.5-21-25.4C85.6,115.3,82.4,127.6,86,140.4z"/>
<path class="st5" d="M89.9,167.8c5.4,2.6,10.7,4.8,15.8,6.6c-2.8,6.2-10.2,13.6-11,13.1C93,186.9,90,174.2,89.9,167.8z"/>
<path class="st8" d="M105.8,174.4c-2.8,6.2-10.2,13.6-11,13.1c-1.8-0.6-4.7-13.3-4.8-19.7"/>
<path class="st5" d="M153.1,175.5l10.6-1.1c-1.1,5.7-2.1,8.5-3.2,8.4C158.5,183,156.2,180,153.1,175.5z"/>
<path class="st8" d="M163.7,174.5c-1.1,5.7-2.1,8.5-3.2,8.4c-2,0.1-4.3-2.9-7.4-7.3"/>
<path class="st9" d="M205.6,274.1c2,4.7-7.6,13.4-21.5,19.4c-13.9,6-26.8,7-28.8,2.2l-6.1-13l50.3-21.6L205.6,274.1z"/>
<path class="st10" d="M205.6,274.1c2,4.7-7.6,13.4-21.5,19.4c-13.9,6-26.8,7-28.8,2.2l-6.1-13l50.3-21.6L205.6,274.1z"/>
<path class="st11" d="M170.7,263.3c13.9-6,26.8-7,28.8-2.2c2,4.7-7.6,13.4-21.5,19.4c-13.9,6-26.8,7-28.8,2.2
	c-0.6-1.5-0.1-3.4,1.4-5.5l9.8-5.7l9.5-7.7C170.2,263.6,170.4,263.4,170.7,263.3z"/>
<circle class="st12" cx="99.1" cy="131.3" r="7.3"/>
<ellipse class="st5" cx="102" cy="126.4" rx="3.3" ry="3.3"/>
<circle class="st12" cx="137.5" cy="122.5" r="6.2"/>
<circle class="st5" cx="140" cy="118.4" r="2.8"/>
<path class="st11" d="M135,199.2l16.6-6.8l20.9,50.6l4.5,11.6l5.1,12.6c2.3,4.5-14.2,11.9-16.6,6.8l-1.9-4.7l7.1-5.8l6.3-8.9
	l-4.5-11.6L157,253L135,199.2z"/>
<path class="st10" d="M177.1,254.6l5.1,12.5c2.3,4.5-14.2,11.9-16.6,6.8l-1.9-4.6 M156.9,252.6L135,199.1l16.6-6.8l20.6,49.9"/>
<path class="st9" d="M176.4,204.5c2,4.7-7.6,13.4-21.5,19.4c-13.9,6-26.8,7-28.8,2.2l-6.1-13l50.3-21.6L176.4,204.5z"/>
<path class="st10" d="M176.4,204.5c2,4.7-7.6,13.4-21.5,19.4c-13.9,6-26.8,7-28.8,2.2l-6.1-13l50.3-21.6L176.4,204.5z"/>
<path class="st10" d="M179.6,260.1c10.1-2.9,18.4-2.7,20,1c2,4.7-7.6,13.4-21.5,19.4c-13.9,6-26.8,7-28.8,2.2
	c-0.6-1.5-0.1-3.3,1.3-5.4"/>
<path class="st0" d="M115,100.1c2.6-6.3,8.8-10.6,17.8-4C124.1,87.5,116.3,90.4,115,100.1z M81.9,107.7c7-7.1,15.2-12.3,26.1-3.9
	C97.7,91.1,87.8,96.9,81.9,107.7z M65.2,151c-6.9,8.4-10.1,18.2-11.1,30.4C51,168.9,54.6,158,65.2,151z M172.5,405.4
	c8.7-0.3,16.6,2.3,24.9,7.6C190.9,405,182.2,402,172.5,405.4z M137.3,352.2c1.4-16-5.3-23.7-11.7-23.9
	C134,324,141.1,333,137.3,352.2z M244.2,129.2c-33.3-5.9-70.5-5.5-111.6,1.1l36.7-1.2l-2,2.7c6.2-4.3,17.6-5.5,34.1-3.7l-4.5,4.4
	c5.3-4.7,17-4.1,40,0.1l-7.6,2.6c-6,4-6.3,10.9-4,19c2-17.6,8.4-14.6,17.9-19.6c6.6-3.2,12.2-12.2,19.8-9.7
	C257.6,119.1,251.1,122.8,244.2,129.2z M119.2,264.2c12.3,0.8,26.1-3.6,37.7-8.8C147.2,263.1,130.7,268.1,119.2,264.2z"/>
<path class="st4" d="M68.8,145.2c24.7-10.5,39.8-1.5,54.7-9.7 M132.6,130.3c-8.4-28.3-2-36.2,9.8-26 M89.6,159
	c-8.1-2.8-11.8,4-9.3,8.6 M82.2,161.3c31.5,34.2,111.6,0.3,156.1,7.3c4.4,1.4,12.3,4.8,17.7,0.4c6.9-4.2,4.5-14.4,9.2-18.8
	 M225.2,154.2c-5.8-24.4,10.3-18,19-25c6.4-4.9,12.4-10.5,18.8-4.4c4,2.8,6,9.7,9.6,11.9c13.7,13-6.7,17.3-11.1,23.3 M244.2,129.2
	c-40.9-6.2-78.1-5.9-111.6,1.1 M207.1,125.3c-3.9,1.1-8.9,4.4-10.3,7.1 M176,125c-3.3,1-7.6,4.1-8.7,6.7 M155.3,126.6
	c-18.1-39.8-41-47.4-42.5-24.1c-21.3-19.3-39.3-9-44.1,42.6c-25.8,14.9-19.9,46.3-4.8,55.6c45.8,28,103.9-21.9,142.7-32.3
	 M175.4,243.3c14.6,12.7-30.7,46-66.3,45.5 M107.6,208.9c-1.5,10.5,1.5,37.1,5.3,51c11.5,10.4,56.2-10.9,60-18
	c5.5,2.6-2.2,12.5-6.2,14.1 M247.4,415.7c-6.8-0.3-14.1-2.1-21.9-5.5 M197.8,323.5c22.3,12.8,16.4,41.7,2.6,75.1
	c30.7-2.6,48.1,3.6,52.1,18.5c-5-0.8-11.6-4.1-19.7-10 M201.9,417.9c16.5,0.4,33.3-0.9,40.3-2.8 M200.3,422.7
	c-9.4,0.3-18.2-1.4-26.5-5.2 M125.7,399.6c8.5,15.5,37.4,0.2,58.9,3.7c10,2.3,16.5,9.3,19.3,20.8c-5.3-1.8-11.1-5.1-17.4-10
	 M109.8,338.1c10.3-12.3,21.5-15.7,27.8-7.7c8.1,13.2-3.5,53.1-13.9,73.3 M85.2,418c18,4.6,46.3,10.2,103.9,4 M87.9,208.9
	c-1.6,60.6,17.1,137.8-8.6,177.5c-16.6,22.6-70,29.7-73.2,0.1c-7.8,38.3,61.2,49.7,93.7,23 M55.3,402.6c-6.9-8.8-14.4-12.2-18.4,3.4
	 M78.5,387c-14.6-6.1-15.7-5.6-14.5,10.9 M89.8,359.2c-16.4,3.7-16.3,5.7-5.7,18.3 M93,326.6c-16.6,8.4-13.7,10.2-1.3,20.9
	 M91.8,288.5c-16.6,8.4-17.2,14,1,21.9 M88.9,245.6c-18.4,8.2-18.4,16.5,1.7,25.5 M88,211.6c-14.6,8.3-15.8,13.4,0.3,22.4
	 M27.5,405.5c-2.9-13.3-6-12.3-13.1-4.9 M192.7,372.8c-11.3-1.7-23.9-1.6-34.7,1.2 M191.2,325.8c-22.4-3.5-39.5-1.1-53.6,4.6
	 M117.3,288.3c2.2,13.2,6.2,27.4,10.1,37.9 M121.4,136.5c-4.8-22.5-16.9-33.3-26.3-32c-9.9,3.1-13.6,19.8-9.1,35.8"/>
<ellipse transform="matrix(0.9191 -0.3941 0.3941 0.9191 -67.9522 73.6041)" class="st11" cx="145.2" cy="202.2" rx="27.4" ry="9.3"/>
<ellipse transform="matrix(0.9191 -0.3941 0.3941 0.9191 -67.9524 73.6044)" class="st10" cx="145.2" cy="202.2" rx="27.4" ry="9.3"/>
<path class="st1" d="M239.4,141.2c0.2,3.5-2.6,15.2,4.1,12.3C248.9,150.3,243,143.4,239.4,141.2z M256.7,129.3
	c0.9,3.1,1,13.8,6.2,9.9C266.9,135.3,260.2,130.5,256.7,129.3z"/>
<path class="st4" d="M239.4,141.2c0.2,3.5-2.6,15.2,4.1,12.3C248.9,150.3,243,143.4,239.4,141.2z M256.7,129.3
	c0.9,3.1,1,13.8,6.2,9.9C266.9,135.3,260.2,130.5,256.7,129.3z"/>
</svg>
