<?xml version="1.0" encoding="utf-8"?>
<!-- Generator: Adobe Illustrator 21.1.0, SVG Export Plug-In . SVG Version: 6.00 Build 0)  -->
<svg version="1.1" id="Layer_1" xmlns="http://www.w3.org/2000/svg" xmlns:xlink="http://www.w3.org/1999/xlink" x="0px" y="0px"
	 viewBox="0 0 518 435" style="enable-background:new 0 0 518 435;" xml:space="preserve">
<style type="text/css">
	.st0{fill-rule:evenodd;clip-rule:evenodd;fill:#FCC826;}
	.st1{fill-rule:evenodd;clip-rule:evenodd;fill:#E1A836;}
	.st2{fill-rule:evenodd;clip-rule:evenodd;fill:#FFDD74;}
	.st3{fill-rule:evenodd;clip-rule:evenodd;fill:#FFE694;}
	.st4{fill-rule:evenodd;clip-rule:evenodd;fill:#FFFCD5;}
	.st5{fill-rule:evenodd;clip-rule:evenodd;fill:#FABFBF;}
	.st6{fill:none;stroke:#DA7C78;stroke-width:1.7004;stroke-linecap:round;stroke-linejoin:round;stroke-miterlimit:22.9256;}
	.st7{fill-rule:evenodd;clip-rule:evenodd;fill:#FFFFFF;}
	.st8{fill-rule:evenodd;clip-rule:evenodd;fill:#A5C3D2;}
	.st9{fill-rule:evenodd;clip-rule:evenodd;}
	.st10{fill-rule:evenodd;clip-rule:evenodd;fill:#FFE580;}
	.st11{fill:none;stroke:#9A6326;stroke-width:1.7004;stroke-linecap:round;stroke-linejoin:round;stroke-miterlimit:22.9256;}
	.st12{fill-rule:evenodd;clip-rule:evenodd;fill:#F7A1A1;}
	.st13{fill-rule:evenodd;clip-rule:evenodd;fill:#FFF1AB;}
	.st14{fill-rule:evenodd;clip-rule:evenodd;fill:#636466;}
	.st15{fill-rule:evenodd;clip-rule:evenodd;fill:#4D4D4F;}
	.st16{fill:none;stroke:#000000;stroke-width:1.7004;stroke-linecap:round;stroke-linejoin:round;stroke-miterlimit:22.9256;}
</style>
<path class="st0" d="M451.1,67.1c4.3-7.3,9.8-11.8,16.6-13.6l-1.6,4.9c13.8-8.2,34.3,3.9,30.2,25.7l-3.8-3.2
	c1.8,10.6-3.5,16.8-13.8,20c5.9,8.1,7.7,18.7,7.6,30.3l-4.7-5.8c9.8,20.5,3.2,41-19.8,61.4c11.6,7.4,19.5,15.8,24.8,24.9l-5.8-0.4
	c16.1,16.2,29.3,54.3,35.1,62.7c1.4,7.2,0.9,12.2-1.5,14.9l-1.2,3.7l-2.4,1.4c-6.2,0.7-13.8-0.8-23.6-5.5
	c1.7,14.4,0.1,25.4-5.1,33.1l-1.9-3.6c1.1,11-2.2,20-9.7,27c4.9,7.6,4.1,13.8,0.7,19.5c16.7,14,17.2,23.8,8.5,31.1
	c-0.5,6.1-11.7,8.6-18,5c-14.8,3.9-26.5-4.5-33.7-30.8c-5.1-0.9-8.9-4.4-10.2-13.2l-5.5,0.4c-1.3,7.2-5.3,11.9-12.1,14.2
	c7.6,7.6-9.5,33.2-35.1,30.8c-13.6,3.5-27.3-4.3-25.3-15c-4.2-18.1,15.2-16.5,21.9-27.7c-6.3-5.5-10.5-12.1-9.9-21.5
	c-7.9-8.6-14.5-20.3-18.1-38.7l-1.6-15.1l-12.8-10c-26.5-21.7-22.9-43.3,3.4-64.9H318c12.6-13.1,24.8-20.7,36.8-22.8
	c-16.1-13.3-22.2-28-18.4-44.1l-3.3,2.5c-0.1-6.1,1.8-11.8,6.5-17c-2.8-12.4-0.1-23.7,7.9-34.1c-15.1-1.3-23.5-17.3-19-29.1
	c5.1-11.3,19.6-15.6,28.2-11.6l-4.5,2.9c7.9-2.4,14,1.8,17.7,9c7.5-6.9,17.2-11,28.9-12.5l-4-2.5c7.1-1,13,0.3,17.7,4l-6.5-6.7
	C427.8,49.7,442.4,56.7,451.1,67.1z"/>
<path class="st1" d="M451.1,67.1c4.3-7.3-0.4,8.5-0.4,8.5c17-22.2,41.5-9.2,35.9,11.1c1.3,6.1-2.5,12-7.8,14.2
	c5.9,8.1,7.7,18.7,7.6,30.3l-4.7-5.8c9.8,20.5,3.2,41-19.8,61.4c10.9,6.9,19.2,15.2,24.8,24.9l-11.6-0.7c10,10.1,37.4,56.7,39.4,78
	l-1.2,3.7l-2.4,1.4c-6.2,0.7-23,0.5-30.8-10.6c-4.9,4-15.8-8.4-17.2-11.1c14.1,26.5,6.6,42.6-1,49.7c11.1,27.6,1.3,45.1-9.7,37.8
	c-22.2,49.2,20,36.8,27.5,35.6c-0.5,6.1-11.7,8.6-18,5c-14.8,3.9-26.5-4.5-33.7-30.8c-5.1-0.9-8.9-4.4-10.2-13.2l-5.5,0.4
	c-1.3,7.2-5.3,11.9-12.1,14.2c7.6,7.6-9.5,33.2-35.1,30.8c-13.6,3.5-27.3-4.3-25.3-15c17.3,19.6,68.5-2.4,42.8-24.6
	c-8.3-7-11.5-21-10.9-30.4c28.2,22.8,64.6,16.9,66.5-13.1L372,279.4l-7.9,14.8c-22.1-31.2,10.1-52-0.2-78.9l14.4-5.2
	c12.6-13.1,53.1-0.8,65.1-2.9c-6.5-4.5-20.7-10.5-21.1-19.1c34,4.8,52-33.7,33.1-57.9c12.2-5.1,14.6-29.1-13.7-53.5
	c-5.4-6.2-29.7-16.7-51.5-12.4c1.3-5.2,17.7-14.3,22.4-10.6l-6.5-6.7C427.8,49.7,442.4,56.7,451.1,67.1z"/>
<path class="st1" d="M414.5,168.6l-13.1-6.6l-12.5,7.5C394.1,181,410.4,179.5,414.5,168.6z M316.7,285.1l0.1-5.3l2.6-6l12.8,10
	l1.6,15.1C319,299.3,312.9,293.5,316.7,285.1z M328.6,232.5c0.3,6.3,2.9,9.4,6.6,11.2l-2.8,9.3l-1.6,11.2l3.4-3.7l-1.8,11.5
	C319.4,262.5,316.5,242.4,328.6,232.5z"/>
<path class="st2" d="M371.7,225.8l66-4.3c17.5,25.9,23.5,56,17.2,75.8c-11.4,32.2-53.3,36.7-75.1,20.6
	C345.3,288.3,372.9,250.7,371.7,225.8z"/>
<path class="st0" d="M437.7,221.6c-1.2-8.1-24.7-24.7-37.3-14.5c-7.6-5.2-17.9-8.1-31.1-8.6c-9.5,5.4-11.2,10.3-9.3,15l11.7,12.4
	c3.3,10.2,9.1,8.4,15.9,22.8C406.8,248.1,437.6,233.3,437.7,221.6z"/>
<path class="st3" d="M448.7,201.3c-1.2-8.1-36.9-11.3-49.6-1.2c-7.6-5.2-17.9-8.1-31.1-8.6c-9.5,5.4-11.2,10.3-9.3,15l7.6-4
	c-11.6,22,15.9,25.2,22.8,39.6c3.6-0.9,6.8-3.5,9.7-7.6l-0.7,7.1C429.9,233.3,450.6,213.9,448.7,201.3z"/>
<path class="st4" d="M402.9,236.2c14.5-5.9,25.1-12,33.9-19.6C433.5,225,412.6,238.3,402.9,236.2z"/>
<path class="st5" d="M364.3,78.3c-1,6.4-10.8,12.1-19.2,5.5c-5.4-3.4-3-16.6,6.2-14.4l-4-3.1C353,62.2,365.2,69.4,364.3,78.3z"/>
<path class="st6" d="M364.3,78.3c-1,6.4-10.8,12.1-19.2,5.5c-5.4-3.4-3-16.6,6.2-14.4l-4-3.1C353,62.2,365.2,69.4,364.3,78.3z"/>
<path class="st5" d="M459.9,87.7c-3-5.9,0.4-13.9,5.4-16.6c-0.1,1.4,0.2,2.9,1.1,4.5c2.2-7.7,15.2-7.1,16.8,4.3
	C483.8,89.5,466,97.9,459.9,87.7z"/>
<path class="st6" d="M459.9,87.7c-3-5.9,0.4-13.9,5.4-16.6c-0.1,1.4,0.2,2.9,1.1,4.5c2.2-7.7,15.2-7.1,16.8,4.3
	C483.8,89.5,466,97.9,459.9,87.7z"/>
<path class="st7" d="M378.1,131.1c5.7,0,10.4-4.8,10.4-10.6c0-5.8-4.7-10.6-10.4-10.6c-5.7,0-10.4,4.8-10.4,10.6
	C367.7,126.3,372.3,131.1,378.1,131.1z"/>
<path class="st7" d="M422.4,128.4c5.7,0,10.4-4.8,10.4-10.6c0-5.9-4.7-10.6-10.4-10.6S412,112,412,117.8
	C412,123.6,416.7,128.4,422.4,128.4z"/>
<path class="st8" d="M378.7,116.4c3.5,1.7,5.1,5.9,3.5,9.6c-1.6,3.6-5.8,5.2-9.4,3.5c-3.5-1.7-5.1-5.9-3.5-9.6
	C370.9,116.3,375.1,114.7,378.7,116.4z"/>
<path class="st8" d="M423.2,113.8c3.5,1.7,5.1,5.9,3.5,9.6c-1.6,3.6-5.8,5.2-9.4,3.5c-3.5-1.7-5.1-5.9-3.5-9.6
	C415.5,113.7,419.7,112.2,423.2,113.8z"/>
<path class="st9" d="M374.3,129.3c2.7,0,5-2.3,5-5.1s-2.2-5.1-5-5.1c-2.8,0-5,2.3-5,5.1C369.4,127,371.6,129.3,374.3,129.3z"/>
<path class="st9" d="M418.7,126.6c2.7,0,5-2.3,5-5.1c0-2.8-2.2-5.1-5-5.1c-2.8,0-5,2.3-5,5.1C413.8,124.3,416,126.6,418.7,126.6z"/>
<path class="st7" d="M377.1,123.8c1.2,0,2.2-1,2.2-2.3c0-1.3-1-2.3-2.2-2.3s-2.2,1-2.2,2.3C374.9,122.8,375.8,123.8,377.1,123.8z"/>
<path class="st7" d="M421.5,121c1.2,0,2.2-1,2.2-2.3s-1-2.3-2.2-2.3c-1.2,0-2.2,1-2.2,2.3S420.2,121,421.5,121z"/>
<path class="st10" d="M436.2,101.4c-1.9-2.8-5.4-5.2-9.8-5.2c-3.6,0-5.8,1.7-5.5,3.6c0.4,2.7,4.4,2.4,6.2,2.4c3.9,0,6,5.3,8.2,5
	C438.3,106.6,437.1,103.1,436.2,101.4z M373.8,100.3c3.3-2.1,0.7-9.5-7.2-1.7c-1,1-4.7,5.8-1.7,7.5
	C366.7,107.1,371.3,102.1,373.8,100.3z"/>
<path class="st11" d="M436.2,101.4c-1.9-2.8-5.4-5.2-9.8-5.2c-3.6,0-5.8,1.7-5.5,3.6c0.4,2.7,4.4,2.4,6.2,2.4c3.9,0,6,5.3,8.2,5
	C438.3,106.6,437.1,103.1,436.2,101.4z M373.8,100.3c3.3-2.1,0.7-9.5-7.2-1.7c-1,1-4.7,5.8-1.7,7.5
	C366.7,107.1,371.3,102.1,373.8,100.3z"/>
<path class="st12" d="M409.9,167.3l-4.5-2.4l-3.8-3.1l-3.8,3.8l-4,2.3C397.2,175.2,408.2,173.7,409.9,167.3z"/>
<path class="st10" d="M401.6,161.9l-0.1-5.1L401.6,161.9c-7.6,9.8-22.2,10.9-29.2,2.4c-12.8-18.6,7.4-33.5,30.1-34
	c24.3-1,44.1,17.3,32.8,31.5C426.5,172.4,409.3,170,401.6,161.9z"/>
<path class="st13" d="M401.5,156.9c-3.9,8.9-13.2,14.7-26.2,10.1c9.5,5.2,17.2,4.2,26.2-4.4V156.9z M372.4,164.3
	c-12.8-18.6,7.4-33.5,30.1-34c24.3-1,44.1,17.3,32.8,31.5C443.2,124.8,355.3,124.4,372.4,164.3z"/>
<path class="st11" d="M422.4,107.1c5.8,0,10.4,4.8,10.4,10.6c0,5.9-4.7,10.6-10.4,10.6c-5.8,0-10.4-4.8-10.4-10.6
	C412,111.9,416.7,107.1,422.4,107.1z M378.1,109.8c5.8,0,10.4,4.8,10.4,10.6c0,5.8-4.7,10.6-10.4,10.6c-5.8,0-10.4-4.8-10.4-10.6
	C367.7,114.6,372.3,109.8,378.1,109.8z M350.6,90.1c-10.8,11.5-13.2,24.2-10.8,37.6c-4,5.7-6.1,11.3-6.5,17l3.3-2.5
	c-4.9,15.2,2.5,30.4,18.4,44.1c-9.4,0.4-21.7,7.9-36.8,22.8h4.7c-36.2,32.7-22.6,51.7,9.4,75 M437.7,221.6
	c17.5,25.9,23.5,56,17.2,75.8c-11.4,32.2-53.3,36.7-75.1,20.6c-34.5-29.6-6.9-67.2-8.1-92.1 M461.9,186.9
	c9.7,5.2,18.3,14.6,24.8,24.9l-5.8-0.4c17.9,18.7,22.2,39.5,33.2,59.2c3.3,6.1,3.6,12.6,1.1,17.3 M510.8,274.5
	c5.4,13.5,4.2,18.5,0,19.5c-3.9,0.1-7.7-9.2-11.6-13.7 M510.8,294.1c-19.7,0.8-37.9-9.1-52.7-43 M348.8,146.3
	c-1.6,0.3-2.8,2.3-3.5,3.8 M462.3,121.1c2.1,0,4,2.2,5.3,4.1 M463.2,112.8c2.5,0,4,1.5,4.8,2.6 M427.5,211.9c2,1.1,3.2,3,3.7,5.2
	 M434.2,204.1c1.9,1.7,1.8,5.2,1.4,7.9 M373,206.5c-1.5,0.6-2.9,2.9-3.2,4.8 M378.3,210.2c-0.7,2-0.7,4.8,0,6.3 M340,300.5
	c-0.6-1.8,0.7-5,2.4-6.4 M346.8,306.3c-0.8-1.2-0.4-3.7,0.6-5 M351,317.9c-0.4-0.9,0.2-2.7,1.1-3.5 M473.9,325.9
	c0.2-1.4-1.3-3.7-2.8-4.5 M463.4,343.6c0.6-1.8-0.7-5-2.4-6.4 M478.6,308.6c-0.1-0.9-1.4-2.1-2.5-2.4 M469.2,334.9
	c0.3-1.2-0.8-3.3-2-4.2 M343.8,137.2c-1.7,0-3.2,1.7-4.1,3.2 M452.2,359.9c4.7,2.1,11,1,11.9-3.8 M457.4,386.4
	c0.3,4.2,2.1,10.9,4.3,14 M417.8,357.5c1.8,7.2,5.2,11.2,10.2,12.1c6.5,25.7,18.3,34.2,33.7,30.8c4.1,3.4,17.7,0.8,18-5
	c8.5-5.4,8.4-16.4-8.5-31.1c3.6-6.8,3.9-13.3-0.7-19.5c7.4-7.4,10.6-16.4,9.7-27l2.1,3.8c5.2-8.2,6.9-19.2,5.1-33.1 M398.6,351.1
	c10.9,7.9,26.7,7.1,37.7-2.4 M361.7,359.1c-8,13-27.2,8.6-21.5,29.2c-2.1,7,10.4,17,24.9,13.5c16.4,3.2,45.2-18.7,35.1-30.8
	c6.9-3.2,10.9-7.9,12.1-14.2 M389,169.6c5.2,10.4,21.5,10.5,25.5-1 M393.8,168c3.3,6.7,14.1,6.4,16.1-0.7 M401.5,156.9l0.1,5.1
	c-7.6,9.8-22.2,10.9-29.2,2.4c-13.3-17.8,7.4-33.5,30.1-34c26.5-1.3,44.1,17.3,32.8,31.5c-8.7,10.6-26,8.2-33.7,0.1 M459.3,188.7
	c23.9-15.3,31.3-42.1,22.4-63.2l4.7,5.8c0-11.8-1.8-22.4-7.6-30.3 M450.7,75.6c-0.9-13,10.1-20.1,17-22.2l-1.6,4.9
	c13.9-10.1,34.5,4.9,30.2,25.7l-3.8-3.2c3.6,11.8-8.4,21.8-22.6,20.2 M439,194.7c-19.4-1.9-33.1-0.3-39.9,5.5
	c-9.4-5.8-20.6-9.1-34.4-8.5 M368.1,191.6c-9.5,5.4-11.2,10.3-9.3,15l7.6-4c-11.6,22,15.9,25.2,22.8,39.6c3.6-0.9,6.8-3.5,9.7-7.6
	l-0.7,7.1c31.7-8.3,52.4-27.8,50.5-40.3 M471.4,382.9c6.3,3.1,7.9,9.1,8.3,12.6 M365.6,383.4c-4.6,8.4-4.7,14.5-0.5,18.5
	 M342.6,231.3c-9.3,13.6-11.3,24-11.8,32.8l3.7-5c-6,23.8-1.2,59.8,17.3,78.5c-0.2,11,4.4,19.4,14.9,24.7 M352.1,375.5
	c-7.7,4.3-11.7,8.5-11.9,12.8 M347.6,93.6c-15.1-1.3-23.5-17.3-19-29.1c5.1-11.3,19.6-15.6,28.2-11.6l-4.5,2.9
	c7.9-2.4,14,1.8,17.7,9c7.5-6.9,17.2-11,28.9-12.5l-4-2.5c7.1-1,13,0.3,17.7,4l-6.5-6.7c21.8,2.7,36.5,9.7,45.2,20.1 M333.7,298.9
	c-14.7,0.4-20.8-5.4-17-13.8 M327.9,291.8c-10-2.1-14.9-7-8.5-18 M335.2,243.6c-3.6-1.5-6.2-4.6-6.6-11.2"/>
<path class="st13" d="M366.4,284.5c5.4,17,15.6,31.1,30.4,37.7C379.8,319.8,365.3,300.3,366.4,284.5z"/>
<path class="st10" d="M308,258.5c-1.9-10.4-1.8-21.4,1.8-30.2C300.7,236.6,301.8,250.9,308,258.5z M354.8,92.5
	c-6.6,10.4-9.4,22.5-11,33.5C341.2,116.1,344.5,98,354.8,92.5z M330,75.4c3.7-8.3,9-16,16-20.4C335.3,56.3,329.2,66.9,330,75.4z
	 M494.4,77.6c-3.7-8.3-9-16-16-20.4C489.1,58.5,495.2,69.1,494.4,77.6z M366.7,358.8c-5.9-7.6-10.2-16.4-10.4-24.7
	C351.3,343.9,357.9,354.9,366.7,358.8z"/>
<path class="st0" d="M424.6,146.2c-1.1,0.2-1.8,1.2-1.6,2.2c0.3,1,1.4,1.6,2.5,1.3c1.1-0.2,1.8-1.2,1.6-2.2
	C426.9,146.6,425.8,145.9,424.6,146.2z M388.6,150.1c1.1,0.2,1.9,1.2,1.7,2.1c-0.2,1-1.3,1.6-2.5,1.4c-1.1-0.2-1.9-1.2-1.7-2.1
	C386.3,150.5,387.4,149.9,388.6,150.1z M417.7,149.6c-1.1,0.2-1.8,1.2-1.6,2.2c0.3,1,1.4,1.6,2.5,1.3c1.1-0.2,1.8-1.2,1.6-2.2
	C420,150,418.8,149.4,417.7,149.6z M381.7,153.1c1.1,0.2,1.9,1.2,1.7,2.1c-0.2,1-1.3,1.6-2.5,1.4c-1.1-0.2-1.9-1.1-1.7-2.1
	S380.5,152.9,381.7,153.1z M424.7,152.4c-1.1,0.2-1.8,1.2-1.6,2.2c0.3,1,1.4,1.6,2.5,1.3c1.1-0.2,1.8-1.2,1.6-2.2
	S425.8,152.1,424.7,152.4z M381.5,146.9c1.1,0.2,1.9,1.2,1.7,2.1c-0.2,1-1.3,1.6-2.5,1.4c-1.1-0.2-1.9-1.1-1.7-2.1
	C379.2,147.3,380.4,146.7,381.5,146.9z"/>
<path class="st14" d="M401.8,135.2c9.1-0.1,16.6,3.1,16.7,7.3c0.1,4.2-7.3,7.7-16.4,7.8c-9.1,0.1-16.6-3.1-16.7-7.3
	C385.3,138.8,392.7,135.3,401.8,135.2z"/>
<path class="st15" d="M399.9,135.2c8.8-0.7,16.1,1.6,16.4,5.1c0.3,3.5-6.6,6.9-15.3,7.6c-8.8,0.7-16.1-1.6-16.4-5.1
	C384.3,139.3,391.1,135.9,399.9,135.2z"/>
<path class="st16" d="M399.9,135.2c8.8-0.7,16.1,1.6,16.4,5.1c0.3,3.5-6.6,6.9-15.3,7.6c-8.8,0.7-16.1-1.6-16.4-5.1
	C384.3,139.3,391.1,135.9,399.9,135.2z"/>
</svg>
