<?xml version="1.0" encoding="utf-8"?>
<!-- Generator: Adobe Illustrator 21.1.0, SVG Export Plug-In . SVG Version: 6.00 Build 0)  -->
<svg version="1.1" id="Layer_1" xmlns="http://www.w3.org/2000/svg" xmlns:xlink="http://www.w3.org/1999/xlink" x="0px" y="0px"
	 viewBox="0 0 518 435" style="enable-background:new 0 0 518 435;" xml:space="preserve">
<style type="text/css">
	.st0{fill-rule:evenodd;clip-rule:evenodd;fill:#FFE6CB;}
	.st1{fill-rule:evenodd;clip-rule:evenodd;fill:#FED09E;}
	.st2{fill-rule:evenodd;clip-rule:evenodd;fill:#CB90AB;}
	.st3{fill-rule:evenodd;clip-rule:evenodd;fill:#C67B96;}
	.st4{fill:none;stroke:#823436;stroke-width:1.7004;stroke-linecap:round;stroke-linejoin:round;stroke-miterlimit:22.9256;}
	.st5{fill-rule:evenodd;clip-rule:evenodd;fill:#BE6485;}
</style>
<path class="st0" d="M193.7,424.1l-88.1-35.7c-144.2-50.1-122-231-43.2-305.1C221.1-66,511.5,4.5,504,145
	c-2.7,50.9-33.4,53.5-1.5,126.8C580.1,449.9,259.3,446.7,193.7,424.1z"/>
<path class="st1" d="M360.2,249.9c-99.8-84-349.5-80.4-235,115c38,64.9,276.4,85.4,313,10.4C454.1,342.5,394.3,266.9,360.2,249.9z"
	/>
<path class="st2" d="M308.4,342.6c-10.4-2.7-20.9-1.5-31.3,3.4c-5.2-6.1-0.4-20.2,12.8-22.8C303.1,320.6,312.5,330.5,308.4,342.6z
	 M317.8,346.3c8.2-18.3-6.3-36.1-29-32.7c-23.1,3.9-28.5,24.9-20.8,37.8c-18.4,14.1-12.9,60.5,27,58.6
	C334.1,408.5,341.2,366.2,317.8,346.3z"/>
<path class="st3" d="M314.7,349.7c18.7,51.1-51.1,38.4-20.3,56.9C329.3,405.1,335.6,367.4,314.7,349.7z"/>
<path class="st4" d="M308.4,342.6c4.1-12.1-5.3-22-18.5-19.3c-13.2,2.6-18,16.7-12.8,22.8C287.6,341.1,298,340,308.4,342.6z
	 M317.8,346.3c8.2-18.3-6.3-36.1-29-32.7c-23.1,3.9-28.5,24.9-20.8,37.8c-18.4,14.1-12.9,60.5,27,58.6
	C334.1,408.5,341.2,366.2,317.8,346.3z"/>
<path class="st5" d="M286.9,357.1c4-1.6,8.2-1.9,12.6-1l-0.2,5.3l-11.3,1.1L286.9,357.1z"/>
<path class="st4" d="M286.9,357.1c4-1.6,8.2-1.9,12.6-1l-0.2,5.3l-11.3,1.1L286.9,357.1z"/>
</svg>
