<?xml version="1.0" encoding="utf-8"?>
<!-- Generator: Adobe Illustrator 21.1.0, SVG Export Plug-In . SVG Version: 6.00 Build 0)  -->
<svg version="1.1" id="Layer_1" xmlns="http://www.w3.org/2000/svg" xmlns:xlink="http://www.w3.org/1999/xlink" x="0px" y="0px"
	 viewBox="0 0 518 435" style="enable-background:new 0 0 518 435;" xml:space="preserve">
<style type="text/css">
	.st0{fill-rule:evenodd;clip-rule:evenodd;fill:#FFE6CB;}
	.st1{fill-rule:evenodd;clip-rule:evenodd;fill:#FED09E;}
	.st2{fill-rule:evenodd;clip-rule:evenodd;fill:#CB90AB;}
	.st3{fill-rule:evenodd;clip-rule:evenodd;fill:#C67B96;}
	.st4{fill-rule:evenodd;clip-rule:evenodd;fill:#A16044;}
	.st5{fill-rule:evenodd;clip-rule:evenodd;fill:#BB7446;}
	.st6{fill-rule:evenodd;clip-rule:evenodd;fill:#D58F5C;}
	.st7{fill-rule:evenodd;clip-rule:evenodd;fill:#EBB081;}
	.st8{fill-rule:evenodd;clip-rule:evenodd;fill:#F4CAA2;}
	.st9{fill:none;stroke:#823436;stroke-width:1.7004;stroke-linecap:round;stroke-linejoin:round;stroke-miterlimit:22.9256;}
	.st10{fill-rule:evenodd;clip-rule:evenodd;fill:#FFFFFF;}
	.st11{fill:none;stroke:#6D6E71;stroke-width:1.7004;stroke-linecap:round;stroke-linejoin:round;stroke-miterlimit:22.9256;}
	.st12{fill-rule:evenodd;clip-rule:evenodd;fill:#C1D55D;}
	.st13{fill:none;stroke:#58595B;stroke-width:1.7004;stroke-linecap:round;stroke-linejoin:round;stroke-miterlimit:22.9256;}
	.st14{fill-rule:evenodd;clip-rule:evenodd;fill:#ED7B29;}
	.st15{fill-rule:evenodd;clip-rule:evenodd;fill:#FAA74A;}
	.st16{fill-rule:evenodd;clip-rule:evenodd;}
	.st17{fill-rule:evenodd;clip-rule:evenodd;fill:#FABFBF;}
	.st18{fill:none;stroke:#DA7C78;stroke-width:1.7004;stroke-linecap:round;stroke-linejoin:round;stroke-miterlimit:22.9256;}
	.st19{fill-rule:evenodd;clip-rule:evenodd;fill:#A5C3D2;}
	.st20{fill-rule:evenodd;clip-rule:evenodd;fill:#F7A1A1;}
	.st21{fill-rule:evenodd;clip-rule:evenodd;fill:#4D4D4F;}
	.st22{fill:none;stroke:#000000;stroke-width:1.7004;stroke-linecap:round;stroke-linejoin:round;stroke-miterlimit:22.9256;}
	.st23{fill-rule:evenodd;clip-rule:evenodd;fill:#BE6485;}
	.st24{fill:none;stroke:#ED1651;stroke-width:8.5019;stroke-linecap:round;stroke-linejoin:round;stroke-miterlimit:22.9256;}
</style>
<path class="st0" d="M193.7,424.1l-88.1-35.7c-144.2-50.1-122-231-43.2-305.1C221.1-66,511.5,4.5,504,145
	c-2.7,50.9-33.4,53.5-1.5,126.8C580.1,449.9,259.3,446.7,193.7,424.1z"/>
<path class="st1" d="M360.2,249.9c-99.8-84-349.5-80.4-235,115c38,64.9,276.4,85.4,313,10.4C454.1,342.5,394.3,266.9,360.2,249.9z"
	/>
<path class="st2" d="M308.4,342.6c-10.4-2.7-20.9-1.5-31.3,3.4c-5.2-6.1-0.4-20.2,12.8-22.8C303.1,320.6,312.5,330.5,308.4,342.6z
	 M317.8,346.3c8.2-18.3-6.3-36.1-29-32.7c-23.1,3.9-28.5,24.9-20.8,37.8c-18.4,14.1-12.9,60.5,27,58.6
	C334.1,408.5,341.2,366.2,317.8,346.3z"/>
<path class="st3" d="M314.7,349.7c18.7,51.1-51.1,38.4-20.3,56.9C329.3,405.1,335.6,367.4,314.7,349.7z"/>
<path class="st4" d="M316.7,285.1l0.1-5.3l2.6-6l12.8,10l1.6,15.1C319,299.3,312.9,293.5,316.7,285.1z"/>
<path class="st5" d="M451.1,67.1c4.3-7.3,9.8-11.8,16.6-13.6l-1.6,4.9c13.8-8.2,34.3,3.9,30.2,25.7l-3.8-3.2
	c1.8,10.6-3.5,16.8-13.8,20c5.9,8.1,7.7,18.7,7.6,30.3l-4.7-5.8c9.8,20.5,3.2,41-19.8,61.4c11.6,7.4,19.5,15.8,24.8,24.9l-5.8-0.4
	c16.1,16.2,29.3,54.3,35.1,62.7c1.4,7.2,0.9,12.2-1.5,14.9l-1.2,3.7l-2.4,1.4c-6.2,0.7-13.8-0.8-23.6-5.5
	c1.7,14.4,0.1,25.4-5.1,33.1l-1.9-3.6c1.1,11-2.2,20-9.7,27c4.9,7.6,4.1,13.8,0.7,19.5c16.7,14,17.2,23.8,8.5,31.1
	c-0.5,6.1-11.7,8.6-18,5c-14.8,3.9-26.5-4.5-33.7-30.8c-5.1-0.9-8.9-4.4-10.2-13.2l-5.5,0.4c-1.3,7.2-5.3,11.9-12.1,14.2
	c7.6,7.6-9.5,33.2-35.1,30.8c-13.6,3.5-27.3-4.3-25.3-15c-4.2-18.1,15.2-16.5,21.9-27.7c-6.3-5.5-10.5-12.1-9.9-21.5
	c-7.9-8.6-14.5-20.3-18.1-38.7l-1.6-15.1l-12.8-10c-26.5-21.7-22.9-43.3,3.4-64.9H318c12.6-13.1,24.8-20.7,36.8-22.8
	c-16.1-13.3-22.2-28-18.4-44.1l-3.3,2.5c-0.1-6.1,1.8-11.8,6.5-17c-2.8-12.4-0.1-23.7,7.9-34.1c-15.1-1.3-23.5-17.3-19-29.1
	c5.1-11.3,19.6-15.6,28.2-11.6l-4.5,2.9c7.9-2.4,14,1.8,17.7,9c7.5-6.9,17.2-11,28.9-12.5l-4-2.5c7.1-1,13,0.3,17.7,4l-6.5-6.7
	C427.8,49.7,442.4,56.7,451.1,67.1z"/>
<path class="st4" d="M451.1,67.1c4.3-7.3-0.4,8.5-0.4,8.5c17-22.2,41.5-9.2,35.9,11.1c1.3,6.1-2.5,12-7.8,14.2
	c5.9,8.1,7.7,18.7,7.6,30.3l-4.7-5.8c9.8,20.5,3.2,41-19.8,61.4c10.9,6.9,19.2,15.2,24.8,24.9l-11.6-0.7c10,10.1,37.4,56.7,39.4,78
	l-1.2,3.7l-2.4,1.4c-6.2,0.7-23,0.5-30.8-10.6c-4.9,4-15.8-8.4-17.2-11.1c14.1,26.5,6.6,42.6-1,49.7c11.1,27.6,1.3,45.1-9.7,37.8
	c-22.2,49.2,20,36.8,27.5,35.6c-0.5,6.1-11.7,8.6-18,5c-14.8,3.9-26.5-4.5-33.7-30.8c-5.1-0.9-8.9-4.4-10.2-13.2l-5.5,0.4
	c-1.3,7.2-5.3,11.9-12.1,14.2c7.6,7.6-9.5,33.2-35.1,30.8c-13.6,3.5-27.3-4.3-25.3-15c17.3,19.6,68.5-2.4,42.8-24.6
	c-8.3-7-11.5-21-10.9-30.4c28.2,22.8,64.6,16.9,66.5-13.1L372,279.4l-7.9,14.8c-22.1-31.2,10.1-52-0.2-78.9l14.4-5.2
	c12.6-13.1,53.1-0.8,65.1-2.9c-6.5-4.5-20.7-10.5-21.1-19.1c34,4.8,52-33.7,33.1-57.9c12.2-5.1,14.6-29.1-13.7-53.5
	c-5.4-6.2-29.7-16.7-51.5-12.4c1.3-5.2,17.7-14.3,22.4-10.6l-6.5-6.7C427.8,49.7,442.4,56.7,451.1,67.1z"/>
<path class="st4" d="M328.6,232.5c0.3,6.3,2.9,9.4,6.6,11.2l-2.8,9.3l-1.6,11.2l3.4-3.7l-1.8,11.5
	C319.4,262.5,316.5,242.4,328.6,232.5z"/>
<path class="st6" d="M371.7,225.8l66-4.3c17.5,25.9,23.5,56,17.2,75.8c-11.4,32.2-53.3,36.7-75.1,20.6
	C345.3,288.3,372.9,250.7,371.7,225.8z"/>
<path class="st5" d="M437.7,221.6c-1.2-8.1-24.7-24.7-37.3-14.5c-7.6-5.2-17.9-8.1-31.1-8.6c-9.5,5.4-11.2,10.3-9.3,15l11.7,12.4
	c3.3,10.2,9.1,8.4,15.9,22.8C406.8,248.1,437.6,233.3,437.7,221.6z"/>
<path class="st7" d="M448.7,201.3c-1.2-8.1-36.9-11.3-49.6-1.2c-7.6-5.2-17.9-8.1-31.1-8.6c-9.5,5.4-11.2,10.3-9.3,15l7.6-4
	c-11.6,22,15.9,25.2,22.8,39.6c3.6-0.9,6.8-3.5,9.7-7.6l-0.7,7.1C429.9,233.3,450.6,213.9,448.7,201.3z"/>
<path class="st6" d="M13.9,401.2l13.6,4.4C24.7,392.2,21,393.8,13.9,401.2z"/>
<path class="st6" d="M36.9,406l10.2-1l8.2-2.4C44.8,391.1,42.2,392.8,36.9,406z"/>
<path class="st6" d="M63.9,397.8c6-2.7,10.9-6.3,14.5-10.9C63.8,380.9,62.8,381.4,63.9,397.8z"/>
<path class="st6" d="M84.1,377.5l5.7-18.3C73.4,362.9,73.4,364.8,84.1,377.5z"/>
<path class="st6" d="M91.6,347.5l1.3-20.9C76.4,335,79.3,336.9,91.6,347.5z"/>
<path class="st6" d="M92.9,310.4l-1-21.9C75.2,296.9,74.6,302.5,92.9,310.4z"/>
<path class="st4" d="M188.7,282.6c3.2-14.8-0.6-26.5-14.2-33.3l-8.4-21.8c22.8,18.7,57.1,14.1,28.3,72.3L188.7,282.6z"/>
<path class="st6" d="M90.7,271.1L89,245.6C70.5,253.8,70.5,262,90.7,271.1z"/>
<path class="st5" d="M247.4,415.7l-5.2-0.5c-12.2,3.2-26,3.4-40.2,2.8l-17.4-14.7l13.2-79.8c22.3,12.8,16.4,41.7,2.6,75.1
	c30.7-2.6,48.1,3.6,52.1,18.5L247.4,415.7z"/>
<path class="st4" d="M240.4,415.7l-6.2,1.2c-13.4,1.3-25.1,1.8-39.3,1.1l-17.4-14.7l13.2-79.8c22.3,12.8,17.8,44.2,0.3,82.2
	c30.7-2.6,30.2,3.4,38.5,6.2L240.4,415.7z"/>
<path class="st5" d="M117.3,288.3c2.1,12.8,5.8,26.7,10.1,37.9c13.9-4.1,20.2,21.9-1.7,73.4l59.1,3.5c10.3,3,16.7,10,19.1,21
	l-3.5-1.4l-11.2-0.6c-38.2,4.6-75.8,3.7-103.9-4C61.1,430.4-1,423.3,6.3,386.5c2,29.5,54.3,23.6,72.4,0.6
	c9.2-12.7,14.3-32.3,14.5-60.3c1-40.6-6.5-85.7-4.8-124.2l20.7,2.4c-3.9,4.1-0.6,38.4,4,55c15.7,10.2,51.8-9.2,60.6-17.7l4.4,4.9
	l0.2,5.3C172.3,266,141,288.2,117.3,288.3z"/>
<path class="st4" d="M117.3,288.3c2.1,12.8,5.8,26.7,10.1,37.9l-9.9,4.5l-7.7,7.5c14.2,0.6,11.6,34.8,1.9,61.5
	c-6.8,13.8,19.7,21.5,62.1,18l15.4,4.5c-38.2,4.6-75.8,3.7-103.9-4c-24.2,12.3-63.2,5.7-75.5-12c10.6,6.6,40.5,26.5,71.5-14.1
	c9.2-12.7,11.5-37.4,11.7-65.4c1-40.6-6.5-85.7-4.8-124.2l20.5,2.4c-10.2-1.2-7.3,38.5-2.7,55c8.3,30.4,63.1,4.3,72.2-12l-1.7,7.5
	C164.3,270.9,141.1,286,117.3,288.3z"/>
<path class="st7" d="M150.4,200c-17.2,3.7-31.1,5.3-41.6,4.9c-3.1,10.9-1.5,29.7,4,55c13.4,9.6,52.3-8.4,60-18l5,5.2l-0.9,7.4
	l2.9,37.8c-17.3,2.2-38.4,1.2-62-2c3,14.3,5.8,26.1,9.5,35.9c19.7-1.6,15.8,30.4-1.7,73.4c10.2,16.5,36.6-0.2,58.9,3.7
	c16.6-15.6,23.4-56.8,12.7-76.3c1.4-14.4-3.4-33.7-14.3-57.8l-6.1-14.8l0.9-7.3l-5-5.2l-1.6,1.9l-2.9-6.3
	C168.5,226.8,161.8,214.1,150.4,200z"/>
<path class="st6" d="M150.4,200c-17.2,3.7-31.1,5.3-41.6,4.9c-3.1,10.9-1.5,29.7,4,55c14,8.1,40.1-4.9,55.6-13.3
	c1-0.6,4.2-5.8,6.9-3.3l2.7,4.6l-1.1,6.5c-8.6,14.6-34.4,31.6-59.6,34c3,14.3,6.4,28.1,10.1,37.9c19.7-1.6,15.8,30.4-1.7,73.4
	c10.2,16.5,36.6-0.2,58.9,3.7c15.6-14.5,20.5-63.4,6.6-77.5c1.4-14.4-4.4-48.2-15.8-59.2l1.8-12l1-6.7l-2.7-4.6l-14-8.1
	C165,232,158.9,211.8,150.4,200z"/>
<path class="st7" d="M165.2,233.2c-13.4-6.1-38.3-1.9-43.5,6.6c12.8-6.8,28.4-7.5,46.7-2.3L165.2,233.2z"/>
<path class="st7" d="M191.3,322.4c-9.5-4.8-39-2.7-45,4.9c17.6-4.2,38-5,48.5-0.2L191.3,322.4z"/>
<path class="st7" d="M153.6,375.6c14.8-5.4,30.4-4.6,39-2.8C194.7,363,154.3,367.7,153.6,375.6z"/>
<path class="st6" d="M172.5,405.4c8.7-0.3,16.6,2.3,24.9,7.6C190.9,405,182.2,402,172.5,405.4z"/>
<path class="st6" d="M119.2,264.2c12.3,0.8,26.1-3.6,37.7-8.8C147.2,263.1,130.7,268.1,119.2,264.2z"/>
<path class="st6" d="M354.8,92.5c-6.6,10.4-9.4,22.5-11,33.5C341.2,116.1,344.5,98,354.8,92.5z"/>
<path class="st8" d="M402.9,236.2c14.5-5.9,25.1-12,33.9-19.6C433.5,225,412.6,238.3,402.9,236.2z"/>
<path class="st7" d="M366.4,284.5c5.4,17,15.6,31.1,30.4,37.7C379.8,319.8,365.3,300.3,366.4,284.5z"/>
<path class="st6" d="M494.4,77.6c-3.7-8.3-9-16-16-20.4C489.1,58.5,495.2,69.1,494.4,77.6z"/>
<path class="st6" d="M330,75.4c3.7-8.3,9-16,16-20.4C335.3,56.3,329.2,66.9,330,75.4z"/>
<path class="st6" d="M308,258.5c-1.9-10.4-1.8-21.4,1.8-30.2C300.7,236.6,301.8,250.9,308,258.5z"/>
<path class="st6" d="M366.7,358.8c-5.9-7.6-10.2-16.4-10.4-24.7C351.3,343.9,357.9,354.9,366.7,358.8z"/>
<path class="st6" d="M137.3,352.2c1.4-16-5.3-23.7-11.7-23.9C134,324,141.1,333,137.3,352.2z"/>
<path class="st9" d="M125.7,399.6c8.5,15.5,37.4,0.2,58.9,3.7c10,2.3,16.5,9.3,19.3,20.8c-5.3-1.8-11.1-5.1-17.4-10"/>
<path class="st9" d="M200.3,422.7c-9.4,0.3-18.2-1.4-26.5-5.2"/>
<path class="st9" d="M85.2,418c18,4.6,46.3,10.2,103.9,4"/>
<path class="st9" d="M247.4,415.7c-6.8-0.3-14.1-2.1-21.9-5.5"/>
<path class="st9" d="M201.9,417.9c16.5,0.4,33.3-0.9,40.3-2.8"/>
<path class="st9" d="M192.7,372.8c-11.3-1.7-23.9-1.6-34.7,1.2"/>
<path class="st9" d="M78.5,387c-14.6-6.1-15.7-5.6-14.5,10.9"/>
<path class="st9" d="M55.3,402.6c-6.9-8.8-14.4-12.2-18.4,3.4"/>
<path class="st9" d="M27.5,405.5c-2.9-13.3-6.5-11.8-13.6-4.4"/>
<path class="st9" d="M183.1,269.1c8.9,17.7,17.1,47,14.3,57.8c10.6,13.6,3.5,63.8-12.7,76.3 M150.4,200c12.4,15.7,17.9,28,18,37.5
	c1.4,1.5,2.4,2.9,4.1,5.4"/>
<path class="st9" d="M168.4,237.5c-9.9-4.9-38.8-4.5-46.7,2.3"/>
<path class="st9" d="M191.2,325.8c-22.4-3.5-39.5-1.1-53.6,4.6"/>
<path class="st9" d="M166.1,227.5c22.8,18.7,55.6,13.6,28.3,72.3"/>
<path class="st9" d="M188.7,282.6c2.3-14.6-1.6-25.5-10.7-31.3"/>
<path class="st9" d="M117.3,288.3c2.2,13.2,6.2,27.4,10.1,37.9"/>
<path class="st9" d="M109.8,338.1c10.3-12.3,21.5-15.7,27.8-7.7c8.1,13.2-3.5,53.1-13.9,73.3"/>
<path class="st9" d="M197.8,323.5c22.3,12.8,16.4,41.7,2.6,75.1c30.7-2.6,48.1,3.6,52.1,18.5c-5-0.8-11.6-4.1-19.7-10"/>
<path class="st6" d="M88.3,233.9L88,211.6C73.4,219.8,72.2,224.9,88.3,233.9z"/>
<path class="st9" d="M88.2,202.5c-2.9,61.3,17.6,143-8.8,183.9c-16.6,22.6-70,29.7-73.2,0.1c-7.8,38.3,61.2,49.7,93.7,23"/>
<path class="st9" d="M88,211.6c-14.6,8.3-15.8,13.4,0.3,22.4"/>
<path class="st9" d="M88.9,245.6c-18.4,8.2-18.4,16.5,1.7,25.5"/>
<path class="st9" d="M91.8,288.5c-16.6,8.4-17.2,14,1,21.9"/>
<path class="st9" d="M93,326.6c-16.6,8.4-13.7,10.2-1.3,20.9"/>
<path class="st9" d="M89.8,359.2c-16.4,3.7-16.3,5.7-5.7,18.3"/>
<path class="st5" d="M206.7,168.6c12.3-1.9,22.8-1.9,31.6,0c13.2,5.5,20.9,2.7,23.1-8.5c3.7-7.8,25.4-8.2,11.1-23.3l-4.8-6
	c-4.9-8.8-11.9-11.7-23.6-1.6c-24.5-4.1-52.6-5.9-88.9-2.6c-18.1-39.8-41-47.4-42.5-24.1c-21.3-19.3-39.3-9-44.1,42.6
	c-25.6,17.6-19.9,46.3-4.8,55.6C109.8,228.7,167.9,179,206.7,168.6z"/>
<path class="st4" d="M78.6,141.8c-4-27.5,5.6-58.5,34.2-39.3c-21.3-19.3-39.3-9-44.1,42.6L78.6,141.8z M206.7,168.6
	c12.3-1.9,22.8-1.9,31.6,0c13.2,5.5,20.9,2.7,23.1-8.5c3.7-7.8-10.2,15.2-24.5,0c-35.7-0.7-78.5,14.8-123.3,15.9
	c-11.1-0.6-21.7-5.9-32-16c-17.2,9.1-21.6,29.4-10.4,44.7C117.5,221.3,153.1,186.3,206.7,168.6z"/>
<path class="st6" d="M244.2,129.2c-33.3-5.9-70.5-5.5-111.6,1.1l36.7-1.2l-2,2.7c6.2-4.3,17.6-5.5,34.1-3.7l-4.5,4.4
	c5.3-4.7,17-4.1,40,0.1l-7.6,2.6c-6,4-6.3,10.9-4,19c2-17.6,8.4-14.6,17.9-19.6c6.6-3.2,12.2-12.2,19.8-9.7
	C257.6,119.1,251.1,122.8,244.2,129.2z"/>
<path class="st10" d="M237,168.8c4.8,0.8,10.3,2.3,14.5,2.3c-1.3,6.2-2.5,9.1-3.7,8.9C245.5,180.1,241.6,175.5,237,168.8z"/>
<path class="st11" d="M251.4,171c-1.3,6.2-2.5,9.1-3.7,8.9c-2.2,0.2-6.1-4.4-10.8-11.2"/>
<path class="st10" d="M261.4,160.1l10.2-7.1c-0.5,7.2-2.1,14-3.1,13.8C266.5,166.9,264.4,164.3,261.4,160.1z"/>
<path class="st11" d="M271.6,153c-0.5,7.2-2.1,14-3.1,13.8c-2,0.1-4.1-2.5-7-6.8"/>
<path class="st6" d="M65.2,151c-6.9,8.4-10.1,18.2-11.1,30.4C51,168.9,54.6,158,65.2,151z"/>
<path class="st10" d="M86,140.4c11.8-1.3,25.8,0.8,35.4-3.8c-4.8-22.5-16.9-33.3-26.3-32C85.2,107.6,81.5,124.3,86,140.4z"/>
<path class="st10" d="M142.4,104.2l6.5,9.8l6.5,12.6l-22.7,3.6C124.2,102,130.6,94.1,142.4,104.2z"/>
<path class="st12" d="M132.6,130.3l17.7-3.1c-3.9-12.7-10.1-21.4-15.9-20.3C129.2,108.2,129.2,118.2,132.6,130.3z"/>
<path class="st12" d="M86,140.4l28.4-2.1c-3.8-17.9-13.5-26.5-21-25.4C85.6,115.3,82.4,127.6,86,140.4z"/>
<path class="st9" d="M244.2,129.2c-40.9-6.2-78.1-5.9-111.6,1.1"/>
<path class="st9" d="M155.3,126.6c-18.1-39.8-41-47.4-42.5-24.1c-21.3-19.3-39.3-9-44.1,42.6c-25.8,14.9-19.9,46.3-4.8,55.6
	c45.8,28,103.9-21.9,142.7-32.3"/>
<path class="st9" d="M225.2,154.2c-5.8-24.4,10.3-18,19-25c6.4-4.9,12.4-10.5,18.8-4.4c4,2.8,6,9.7,9.6,11.9
	c13.7,13-6.7,17.3-11.1,23.3"/>
<path class="st4" d="M239.4,141.2c0.2,3.5-2.6,15.2,4.1,12.3C248.9,150.3,243,143.4,239.4,141.2z"/>
<path class="st9" d="M239.4,141.2c0.2,3.5-2.6,15.2,4.1,12.3C248.9,150.3,243,143.4,239.4,141.2z"/>
<path class="st4" d="M256.7,129.3c0.9,3.1,1,13.8,6.2,9.9C266.9,135.3,260.2,130.5,256.7,129.3z"/>
<path class="st9" d="M256.7,129.3c0.9,3.1,1,13.8,6.2,9.9C266.9,135.3,260.2,130.5,256.7,129.3z"/>
<path class="st10" d="M89.9,167.8c5.4,2.6,10.7,4.8,15.8,6.6c-2.8,6.2-10.2,13.6-11,13.1C93,186.9,90,174.2,89.9,167.8z"/>
<path class="st13" d="M105.8,174.4c-2.8,6.2-10.2,13.6-11,13.1c-1.8-0.6-4.7-13.3-4.8-19.7"/>
<path class="st10" d="M153.1,175.5l10.6-1.1c-1.1,5.7-2.1,8.5-3.2,8.4C158.5,183,156.2,180,153.1,175.5z"/>
<path class="st13" d="M163.7,174.5c-1.1,5.7-2.1,8.5-3.2,8.4c-2,0.1-4.3-2.9-7.4-7.3"/>
<path class="st9" d="M176,125c-3.3,1-7.6,4.1-8.7,6.7"/>
<path class="st9" d="M207.1,125.3c-3.9,1.1-8.9,4.4-10.3,7.1"/>
<path class="st14" d="M205.6,274.1c2,4.7-7.6,13.4-21.5,19.4c-13.9,6-26.8,7-28.8,2.2l-6.1-13l50.3-21.6L205.6,274.1z"/>
<path class="st9" d="M205.6,274.1c2,4.7-7.6,13.4-21.5,19.4c-13.9,6-26.8,7-28.8,2.2l-6.1-13l50.3-21.6L205.6,274.1z"/>
<path class="st9" d="M89.6,159c-8.1-2.8-11.8,4-9.3,8.6"/>
<path class="st15" d="M170.7,263.3c13.9-6,26.8-7,28.8-2.2c2,4.7-7.6,13.4-21.5,19.4c-13.9,6-26.8,7-28.8,2.2
	c-0.6-1.5-0.1-3.4,1.4-5.5l9.8-5.7l9.5-7.7C170.2,263.6,170.4,263.4,170.7,263.3z"/>
<path class="st9" d="M68.8,145.2c24.7-10.5,39.8-1.5,54.7-9.7"/>
<path class="st9" d="M121.4,136.5c-4.8-22.5-16.9-33.3-26.3-32c-9.9,3.1-13.6,19.8-9.1,35.8"/>
<path class="st9" d="M132.6,130.3c-8.4-28.3-2-36.2,9.8-26"/>
<circle class="st16" cx="99.1" cy="131.3" r="7.3"/>
<ellipse class="st10" cx="102" cy="126.4" rx="3.3" ry="3.3"/>
<circle class="st16" cx="137.5" cy="122.5" r="6.2"/>
<circle class="st10" cx="140" cy="118.4" r="2.8"/>
<path class="st9" d="M82.2,161.3c31.5,34.2,111.6,0.3,156.1,7.3c4.4,1.4,12.3,4.8,17.7,0.4c6.9-4.2,4.5-14.4,9.2-18.8"/>
<path class="st6" d="M81.9,107.7c7-7.1,15.2-12.3,26.1-3.9C97.7,91.1,87.8,96.9,81.9,107.7z"/>
<path class="st6" d="M115,100.1c2.6-6.3,8.8-10.6,17.8-4C124.1,87.5,116.3,90.4,115,100.1z"/>
<path class="st15" d="M135,199.2l16.6-6.8l20.9,50.6l4.5,11.6l5.1,12.6c2.3,4.5-14.2,11.9-16.6,6.8l-1.9-4.7l7.1-5.8l6.3-8.9
	l-4.5-11.6L157,253L135,199.2z"/>
<path class="st9" d="M177.1,254.6l5.1,12.5c2.3,4.5-14.2,11.9-16.6,6.8l-1.9-4.6 M156.9,252.6L135,199.1l16.6-6.8l20.6,49.9"/>
<path class="st14" d="M176.4,204.5c2,4.7-7.6,13.4-21.5,19.4c-13.9,6-26.8,7-28.8,2.2l-6.1-13l50.3-21.6L176.4,204.5z"/>
<path class="st9" d="M176.4,204.5c2,4.7-7.6,13.4-21.5,19.4c-13.9,6-26.8,7-28.8,2.2l-6.1-13l50.3-21.6L176.4,204.5z"/>
<ellipse transform="matrix(0.919 -0.3943 0.3943 0.919 -67.975 73.6408)" class="st15" cx="145.2" cy="202.2" rx="27.4" ry="9.3"/>
<ellipse transform="matrix(0.919 -0.3943 0.3943 0.919 -67.975 73.6408)" class="st9" cx="145.2" cy="202.2" rx="27.4" ry="9.3"/>
<path class="st9" d="M107.6,208.9c-1.5,10.5,1.5,37.1,5.3,51c11.5,10.4,56.2-10.9,60-18c5.5,2.6-2.2,12.5-6.2,14.1"/>
<path class="st9" d="M175.4,243.3c14.6,12.7-30.7,46-66.3,45.5"/>
<path class="st9" d="M179.6,260.1c10.1-2.9,18.4-2.7,20,1c2,4.7-7.6,13.4-21.5,19.4c-13.9,6-26.8,7-28.8,2.2
	c-0.6-1.5-0.1-3.3,1.3-5.4"/>
<path class="st9" d="M350.6,90.1c-10.8,11.5-13.2,24.2-10.8,37.6c-4,5.7-6.1,11.3-6.5,17l3.3-2.5c-4.9,15.2,2.5,30.4,18.4,44.1
	c-9.4,0.4-21.7,7.9-36.8,22.8h4.7c-36.2,32.7-22.6,51.7,9.4,75"/>
<path class="st9" d="M459.3,188.7c23.9-15.3,31.3-42.1,22.4-63.2l4.7,5.8c0-11.8-1.8-22.4-7.6-30.3"/>
<path class="st9" d="M461.9,186.9c9.7,5.2,18.3,14.6,24.8,24.9l-5.8-0.4c17.9,18.7,22.2,39.5,33.2,59.2c3.3,6.1,3.6,12.6,1.1,17.3"
	/>
<path class="st9" d="M510.8,274.5c5.4,13.5,4.2,18.5,0,19.5c-3.9,0.1-7.7-9.2-11.6-13.7"/>
<path class="st9" d="M510.8,294.1c-19.7,0.8-37.9-9.1-52.7-43"/>
<path class="st9" d="M347.6,93.6c-15.1-1.3-23.5-17.3-19-29.1c5.1-11.3,19.6-15.6,28.2-11.6l-4.5,2.9c7.9-2.4,14,1.8,17.7,9
	c7.5-6.9,17.2-11,28.9-12.5l-4-2.5c7.1-1,13,0.3,17.7,4l-6.5-6.7c21.8,2.7,36.5,9.7,45.2,20.1"/>
<path class="st9" d="M450.7,75.6c-0.9-13,10.1-20.1,17-22.2l-1.6,4.9c13.9-10.1,34.5,4.9,30.2,25.7l-3.8-3.2
	c3.6,11.8-8.4,21.8-22.6,20.2"/>
<path class="st17" d="M364.3,78.3c-1,6.4-10.8,12.1-19.2,5.5c-5.4-3.4-3-16.6,6.2-14.4l-4-3.1C353,62.2,365.2,69.4,364.3,78.3z"/>
<path class="st18" d="M364.3,78.3c-1,6.4-10.8,12.1-19.2,5.5c-5.4-3.4-3-16.6,6.2-14.4l-4-3.1C353,62.2,365.2,69.4,364.3,78.3z"/>
<path class="st17" d="M459.9,87.7c-3-5.9,0.4-13.9,5.4-16.6c-0.1,1.4,0.2,2.9,1.1,4.5c2.2-7.7,15.2-7.1,16.8,4.3
	C483.8,89.5,466,97.9,459.9,87.7z"/>
<path class="st18" d="M459.9,87.7c-3-5.9,0.4-13.9,5.4-16.6c-0.1,1.4,0.2,2.9,1.1,4.5c2.2-7.7,15.2-7.1,16.8,4.3
	C483.8,89.5,466,97.9,459.9,87.7z"/>
<path class="st9" d="M439,194.7c-19.4-1.9-33.1-0.3-39.9,5.5c-9.4-5.8-20.6-9.1-34.4-8.5"/>
<path class="st9" d="M368.1,191.6c-9.5,5.4-11.2,10.3-9.3,15l7.6-4c-11.6,22,15.9,25.2,22.8,39.6c3.6-0.9,6.8-3.5,9.7-7.6l-0.7,7.1
	c31.7-8.3,52.4-27.8,50.5-40.3"/>
<path class="st9" d="M342.6,231.3c-9.3,13.6-11.3,24-11.8,32.8l3.7-5c-6,23.8-1.2,59.8,17.3,78.5c-0.2,11,4.4,19.4,14.9,24.7"/>
<path class="st9" d="M335.2,243.6c-3.6-1.5-6.2-4.6-6.6-11.2"/>
<path class="st9" d="M333.7,298.9c-14.7,0.4-20.8-5.4-17-13.8"/>
<path class="st9" d="M327.9,291.8c-10-2.1-14.9-7-8.5-18"/>
<path class="st9" d="M361.7,359.1c-8,13-27.2,8.6-21.5,29.2c-2.1,7,10.4,17,24.9,13.5c16.4,3.2,45.2-18.7,35.1-30.8
	c6.9-3.2,10.9-7.9,12.1-14.2"/>
<path class="st9" d="M417.8,357.5c1.8,7.2,5.2,11.2,10.2,12.1c6.5,25.7,18.3,34.2,33.7,30.8c4.1,3.4,17.7,0.8,18-5
	c8.5-5.4,8.4-16.4-8.5-31.1c3.6-6.8,3.9-13.3-0.7-19.5c7.4-7.4,10.6-16.4,9.7-27l2.1,3.8c5.2-8.2,6.9-19.2,5.1-33.1"/>
<path class="st9" d="M398.6,351.1c10.9,7.9,26.7,7.1,37.7-2.4"/>
<path class="st9" d="M452.2,359.9c4.7,2.1,11,1,11.9-3.8"/>
<path class="st9" d="M352.1,375.5c-7.7,4.3-11.7,8.5-11.9,12.8"/>
<path class="st9" d="M437.7,221.6c17.5,25.9,23.5,56,17.2,75.8c-11.4,32.2-53.3,36.7-75.1,20.6c-34.5-29.6-6.9-67.2-8.1-92.1"/>
<path class="st9" d="M365.6,383.4c-4.6,8.4-4.7,14.5-0.5,18.5"/>
<path class="st9" d="M457.4,386.4c0.3,4.2,2.1,10.9,4.3,14"/>
<path class="st9" d="M471.4,382.9c6.3,3.1,7.9,9.1,8.3,12.6"/>
<path class="st10" d="M378.1,131.1c5.7,0,10.4-4.8,10.4-10.6c0-5.9-4.7-10.6-10.4-10.6c-5.7,0-10.4,4.8-10.4,10.6
	C367.6,126.3,372.3,131.1,378.1,131.1z"/>
<path class="st10" d="M422.4,128.4c5.7,0,10.4-4.8,10.4-10.6c0-5.9-4.7-10.6-10.4-10.6S412,112,412,117.8
	C412,123.6,416.7,128.4,422.4,128.4z"/>
<path class="st19" d="M378.7,116.4c3.5,1.7,5.1,5.9,3.5,9.6c-1.6,3.6-5.8,5.2-9.4,3.5c-3.5-1.7-5.1-5.9-3.5-9.6
	C370.9,116.3,375.1,114.7,378.7,116.4z"/>
<path class="st19" d="M423.2,113.8c3.5,1.7,5.1,5.9,3.5,9.6c-1.6,3.6-5.8,5.2-9.4,3.5c-3.5-1.7-5.1-5.9-3.5-9.6
	C415.5,113.7,419.7,112.2,423.2,113.8z"/>
<path class="st16" d="M374.4,129.3c2.7,0,5-2.3,5-5.1s-2.2-5.1-5-5.1c-2.7,0-5,2.3-5,5.1S371.6,129.3,374.4,129.3z"/>
<path class="st16" d="M418.7,126.6c2.7,0,5-2.3,5-5.1c0-2.8-2.2-5.1-5-5.1c-2.7,0-5,2.3-5,5.1C413.8,124.3,416,126.6,418.7,126.6z"
	/>
<path class="st10" d="M377.1,123.8c1.2,0,2.2-1,2.2-2.3c0-1.3-1-2.3-2.2-2.3s-2.2,1-2.2,2.3C374.9,122.8,375.8,123.8,377.1,123.8z"
	/>
<path class="st10" d="M421.5,121c1.2,0,2.2-1,2.2-2.3s-1-2.3-2.2-2.3c-1.2,0-2.2,1-2.2,2.3S420.2,121,421.5,121z"/>
<path class="st9" d="M378.1,131.1c5.7,0,10.4-4.8,10.4-10.6c0-5.9-4.7-10.6-10.4-10.6c-5.7,0-10.4,4.8-10.4,10.6
	C367.6,126.3,372.3,131.1,378.1,131.1z"/>
<path class="st9" d="M422.4,128.4c5.7,0,10.4-4.8,10.4-10.6c0-5.9-4.7-10.6-10.4-10.6S412,112,412,117.8
	C412,123.6,416.7,128.4,422.4,128.4z"/>
<path class="st6" d="M373.8,100.3c3.3-2.1,0.7-9.5-7.2-1.7c-1,1-4.7,5.8-1.7,7.5C366.7,107.1,371.3,102.1,373.8,100.3z"/>
<path class="st9" d="M373.8,100.3c3.3-2.1,0.7-9.5-7.2-1.7c-1,1-4.7,5.8-1.7,7.5C366.7,107.1,371.3,102.1,373.8,100.3z"/>
<path class="st6" d="M436.2,101.4c-1.9-2.8-5.4-5.2-9.8-5.2c-3.6,0-5.8,1.7-5.5,3.6c0.4,2.7,4.4,2.4,6.2,2.4c3.9,0,6,5.3,8.2,5
	C438.3,106.6,437.1,103.1,436.2,101.4z"/>
<path class="st9" d="M436.2,101.4c-1.9-2.8-5.4-5.2-9.8-5.2c-3.6,0-5.8,1.7-5.5,3.6c0.4,2.7,4.4,2.4,6.2,2.4c3.9,0,6,5.3,8.2,5
	C438.3,106.6,437.1,103.1,436.2,101.4z"/>
<path class="st4" d="M414.5,168.6l-13.1-6.6l-12.5,7.5C394.1,181,410.4,179.5,414.5,168.6z"/>
<path class="st20" d="M409.9,167.3l-4.5-2.4l-3.8-3.1l-3.8,3.8l-4,2.3C397.2,175.2,408.2,173.7,409.9,167.3z"/>
<path class="st6" d="M401.6,161.9l-0.1-5.1L401.6,161.9c-7.6,9.8-22.2,10.9-29.2,2.4c-12.8-18.6,7.4-33.5,30.1-34
	c24.3-1,44.1,17.3,32.8,31.5C426.5,172.4,409.3,170,401.6,161.9z"/>
<path class="st7" d="M401.5,156.9c-3.9,8.9-13.2,14.7-26.2,10.1c9.5,5.2,17.2,4.2,26.2-4.4V156.9z M372.4,164.3
	c-12.8-18.6,7.4-33.5,30.1-34c24.3-1,44.1,17.3,32.8,31.5C443.2,124.8,355.3,124.4,372.4,164.3z"/>
<path class="st9" d="M389,169.6c5.2,10.4,21.5,10.5,25.5-1 M393.8,168c3.3,6.7,14.1,6.4,16.1-0.7 M401.5,156.9l0.1,5.1
	c-7.6,9.8-22.2,10.9-29.2,2.4c-13.3-17.8,7.4-33.5,30.1-34c26.5-1.3,44.1,17.3,32.8,31.5c-8.7,10.6-26,8.2-33.7,0.1"/>
<path class="st5" d="M401.8,135.2c9.1-0.1,16.6,3.1,16.7,7.3c0.1,4.2-7.3,7.7-16.4,7.8c-9.1,0.1-16.6-3.1-16.7-7.3
	C385.3,138.8,392.7,135.3,401.8,135.2z"/>
<path class="st21" d="M399.9,135.2c8.8-0.7,16.1,1.6,16.4,5.1c0.3,3.5-6.6,6.9-15.3,7.6c-8.8,0.7-16.1-1.6-16.4-5.1
	C384.3,139.3,391.1,135.9,399.9,135.2z"/>
<path class="st22" d="M399.9,135.2c8.8-0.7,16.1,1.6,16.4,5.1c0.3,3.5-6.6,6.9-15.3,7.6c-8.8,0.7-16.1-1.6-16.4-5.1
	C384.3,139.3,391.1,135.9,399.9,135.2z"/>
<path class="st5" d="M424.6,146.2c-1.1,0.2-1.8,1.2-1.6,2.2c0.3,1,1.4,1.6,2.5,1.3c1.1-0.2,1.8-1.2,1.6-2.2
	C426.9,146.6,425.8,145.9,424.6,146.2z M388.6,150.1c1.1,0.2,1.9,1.2,1.7,2.1c-0.2,1-1.3,1.6-2.5,1.4c-1.1-0.2-1.9-1.2-1.7-2.1
	C386.3,150.5,387.4,149.9,388.6,150.1z M417.7,149.6c-1.1,0.2-1.8,1.2-1.6,2.2c0.3,1,1.4,1.6,2.5,1.3c1.1-0.2,1.8-1.2,1.6-2.2
	C420,150,418.8,149.4,417.7,149.6z M381.7,153.1c1.1,0.2,1.9,1.2,1.7,2.1c-0.2,1-1.3,1.6-2.5,1.4c-1.1-0.2-1.9-1.1-1.7-2.1
	S380.5,152.9,381.7,153.1z M424.7,152.4c-1.1,0.2-1.8,1.2-1.6,2.2c0.3,1,1.4,1.6,2.5,1.3c1.1-0.2,1.8-1.2,1.6-2.2
	S425.8,152.1,424.7,152.4z M381.5,146.9c1.1,0.2,1.9,1.2,1.7,2.1c-0.2,1-1.3,1.6-2.5,1.4c-1.1-0.2-1.9-1.2-1.7-2.1
	C379.2,147.3,380.4,146.7,381.5,146.9z"/>
<path class="st9" d="M348.8,146.3c-1.6,0.3-2.8,2.3-3.5,3.8 M462.3,121.1c2.1,0,4,2.2,5.3,4.1 M463.2,112.8c2.5,0,4,1.5,4.8,2.6
	 M427.5,211.9c2,1.1,3.2,3,3.7,5.2 M434.2,204.1c1.9,1.7,1.8,5.2,1.4,7.9 M373,206.5c-1.5,0.6-2.9,2.9-3.2,4.8 M378.3,210.2
	c-0.7,2-0.7,4.8,0,6.3 M340,300.5c-0.6-1.8,0.7-5,2.4-6.4 M346.8,306.3c-0.8-1.2-0.4-3.7,0.6-5 M351,317.9c-0.4-0.9,0.2-2.7,1.1-3.5
	 M473.9,325.9c0.2-1.4-1.3-3.7-2.8-4.5 M463.4,343.6c0.6-1.8-0.7-5-2.4-6.4 M478.6,308.6c-0.1-0.9-1.4-2.1-2.5-2.4 M469.2,334.9
	c0.3-1.2-0.8-3.3-2-4.2 M343.8,137.2c-1.7,0-3.2,1.7-4.1,3.2"/>
<path class="st9" d="M308.4,342.6c4.1-12.1-5.3-22-18.5-19.3c-13.2,2.6-18,16.7-12.8,22.8C287.6,341.1,298,340,308.4,342.6z
	 M317.8,346.3c8.2-18.3-6.3-36.1-29-32.7c-23.1,3.9-28.5,24.9-20.8,37.8c-18.4,14.1-12.9,60.5,27,58.6
	C334.1,408.5,341.2,366.2,317.8,346.3z"/>
<path class="st23" d="M286.9,357.1c4-1.6,8.2-1.9,12.6-1l-0.2,5.3l-11.3,1.1L286.9,357.1z"/>
<path class="st9" d="M286.9,357.1c4-1.6,8.2-1.9,12.6-1l-0.2,5.3l-11.3,1.1L286.9,357.1z"/>
<path class="st24" d="M176.4,204.5c-0.3,8.4-10.3,15.9-30,22.5l16.2,38.3c23.8-11.5,35.3-9.6,40,2.4c9.4,18-32,35.5-45.5,29.9"/>
<path class="st24" d="M316.3,323.7c-13.5-21.8-60.2-10.6-53,27.4c-14,22.1-3.2,61,31.7,59c41.9-3.7,44.7-46.7,22.8-63.7
	c-12.8-9.1-38.9-7.4-54.5,4.7"/>
</svg>
