<?xml version="1.0" encoding="utf-8"?>
<!-- Generator: Adobe Illustrator 21.1.0, SVG Export Plug-In . SVG Version: 6.00 Build 0)  -->
<svg version="1.1" id="Layer_1" xmlns="http://www.w3.org/2000/svg" xmlns:xlink="http://www.w3.org/1999/xlink" x="0px" y="0px"
	 viewBox="0 0 524 366" style="enable-background:new 0 0 524 366;" xml:space="preserve">
<style type="text/css">
	.st0{fill-rule:evenodd;clip-rule:evenodd;fill:#9ACA3C;}
	.st1{fill-rule:evenodd;clip-rule:evenodd;fill:#008D49;}
	.st2{fill-rule:evenodd;clip-rule:evenodd;fill:#25B34B;}
	.st3{fill-rule:evenodd;clip-rule:evenodd;fill:#CCD745;}
	.st4{fill-rule:evenodd;clip-rule:evenodd;fill:#647B98;}
	.st5{fill:none;stroke:#0A5737;stroke-width:1.6998;stroke-linecap:round;stroke-linejoin:round;stroke-miterlimit:22.9256;}
	.st6{fill-rule:evenodd;clip-rule:evenodd;fill:#FFFFFF;}
	.st7{fill:none;stroke:#6D6E71;stroke-width:1.6998;stroke-linecap:round;stroke-linejoin:round;stroke-miterlimit:22.9256;}
	.st8{fill-rule:evenodd;clip-rule:evenodd;fill:#C1D55D;}
	.st9{fill:none;stroke:#58595B;stroke-width:1.6998;stroke-linecap:round;stroke-linejoin:round;stroke-miterlimit:22.9256;}
	.st10{fill-rule:evenodd;clip-rule:evenodd;}
	.st11{fill-rule:evenodd;clip-rule:evenodd;fill:#BCBEC0;}
	.st12{fill:none;stroke:#4F4B6A;stroke-width:1.6998;stroke-linecap:round;stroke-linejoin:round;stroke-miterlimit:22.9256;}
	.st13{fill-rule:evenodd;clip-rule:evenodd;fill:#4F4B6A;}
</style>
<path class="st0" d="M43.6,323l8.9-2.7l6.9-3.5C48,308.4,46,310.3,43.6,323z M66.6,312.6c5.5-2.4,9.9-5.7,13.2-9.9
	C66.5,297.2,65.5,297.7,66.6,312.6z M84.9,294.2l5.2-16.6C75.2,281,75.2,282.7,84.9,294.2z M91.7,266.9l1.2-18.9
	C77.9,255.6,80.6,257.3,91.7,266.9z M88.6,164l-0.3-20.3C75.2,151.2,74.2,155.9,88.6,164z M90.8,197.6l-1.6-23.1
	C72.6,182.1,72.5,189.4,90.8,197.6z M92.8,233.3l-0.9-19.9C76.9,221,76.3,226.2,92.8,233.3z M19.7,324.3l13-0.8
	C25.9,313.2,23.3,315.7,19.7,324.3z"/>
<path class="st1" d="M155.7,149.1l10.9,2.7l5.4,3.4l-6.9,0.9l-5.2,2.2l-2.4-6.1L155.7,149.1z M190,184.8c-5-6.4-13.8-8.3-26.2-14.4
	l-2.5-3.2c7.3-7.6,15-7.3,23.1-0.5l2,0.2l3-2.1c12.1,8.7,25.5,22.1,21.2,32.5c-1.3,4.6-6.3,7-13,8.3c-1.2-5.7-0.4-11.4,2.3-17.1
	l-2.6-4L190,184.8z"/>
<path class="st2" d="M233,328.8l-4.7-0.5c-11.1,2.9-23.6,3.1-36.5,2.5L176,317.5l12-72.4c20.2,11.6,14.8,37.9,2.3,68.2
	c27.9-2.3,43.6,3.3,47.2,16.8L233,328.8z"/>
<path class="st1" d="M226.6,328.8l-5.6,1c-12.2,1.2-22.7,1.6-35.6,1l-15.8-13.3l12-72.4c20.2,11.6,16.2,40.1,0.2,74.5
	c27.9-2.3,27.4,3.1,34.9,5.6L226.6,328.8z"/>
<path class="st2" d="M116.8,222.9c2.8,12.6,3.4,14.6,7.3,24.7c12.6-3.7,18.4,19.9-1.6,66.6l53.6,3.2c9.4,2.7,15.2,9.1,17.3,19.1
	l-3.2-1.3l-10.1-0.6c-34.7,4.2-69.7,2.5-95.1-4.6c-21.9,11.2-87.9,8.1-84-18.4c4.3,21.8,62.4,12.1,78.8-8.8
	c8.4-11.5,13-29.3,13.2-54.7c0.9-36.8-5.9-77.7-4.4-112.6l18.8,2.2c-0.9,5.2,2.2,42.3,6.4,57.3c14.2,9.3,39.7-20,47.6-27.7l7.4,12.6
	l1.4,31.8C174.1,225.8,141,227.4,116.8,222.9z"/>
<path class="st3" d="M145,133.2c-15.6,3.4-28.2,4.8-37.7,4.5c-2.9,9.9-0.1,27.7,4.9,50.6c12.6,9.2,75,17.3,52.3-16.1l3.6,6.2l1,4.3
	l1.1,29.5c2.7,8.6-19.4,22.6-53,10.9c2.7,12.9,3.6,15.8,6.9,24.7c17.9-1.5,14.4,27.6-1.6,66.6c9.3,15,33.2-0.2,53.4,3.4
	c15.1-14.2,21.3-51.5,11.5-69.3c1.2-13.1-3.1-30.6-12.9-52.5l-5.5-13.4l-0.7-3.7l-3.6-6.9l-3.4-4.7C161.4,157.5,155.3,146,145,133.2
	z"/>
<path class="st0" d="M145,133.2c-15.6,3.4-30,5-39.5,4.6c-0.6,10.1,3.1,34.2,8.2,57.1c18.7,13,47,19.3,56.1,15.4l0.4,1.3
	c2.5,12.9-26.6,20.1-53.3,11.3l7.3,24.7c17.9-1.5,14.4,27.6-1.6,66.6c9.3,15,33.2-0.2,53.4,3.4c14.1-13.2,18.6-57.5,5.9-70.3
	c2-21.2-6.5-70.3-27-82.2C158.2,162.3,152.6,143.9,145,133.2z"/>
<path class="st4" d="M206.7,202.3l-4.2,2l-5,1.1c-1.1-5.3-0.9-10.8,2.1-16.6l-2.3-4.4c-18.5,1.1-32.9,7.6-43.3,19.5l2.8,6.8l7.5,0.7
	l5.8-0.3c1,3.1-0.3,6.8-6.7,11.6c8.7,12.7,19.3,16.9,31.1,11.9C207,229.4,212.7,219,206.7,202.3z"/>
<path class="st3" d="M182.1,244.2c-8.6-4.4-35.4-2.4-40.8,4.5c16-3.8,34.4-4.5,44-0.1L182.1,244.2z M158.4,163.4
	c-12.1-5.6-34.8-1.7-39.4,6c11.7-6.1,25.8-6.8,42.3-2.1L158.4,163.4z M147.9,292.4c13.5-4.9,27.6-4.2,35.4-2.5
	C185.1,281,148.5,285.3,147.9,292.4z"/>
<path class="st5" d="M187.5,236.6c0.7,4.8,0.7,8.9,0,11.6c9.6,12.3,3.2,57.9-11.5,69.3 M162.2,168.4c4.7,5.9,7.8,13.7,10.2,22.3
	 M145,133.2c6.8,8.7,12.1,18.3,14.8,25.1 M197.5,205.4c4.6-2.9,7.6-6.3,8.8-10.3 M191.8,166.5c19.6,13.7,28.7,35.9,5.7,39.1
	 M190,184.8c-5.5-7.1-18.5-9.9-26.7-15.2 M173,155.2c-3-2.6-11.9-4.8-17.3-6.1 M197.5,205.4c-1.6-6,0.1-12.6,2.3-17.1 M151.1,164.1
	c-10.8-1.4-24.6,0.9-32.1,5.2"/>
<path class="st2" d="M195.3,125.6c11.2,1.2,20.4,3.6,27.7,7.3c10.3,7.9,17.7,7.2,22.2-2.2c5-6,24.1-1.3,15.1-17.9l-2.8-6.3
	c-2.3-8.8-7.8-13-20.3-6.8c-20.5-9.2-44.8-17.3-77.4-22.7c-6.7-39.1-25-51.1-31.7-30.9c-14.2-21.9-32.4-16.9-48.5,27.2
	c-26.5,9.5-28.1,36-17,47.7C96.4,156.1,158.9,125.7,195.3,125.6z"/>
<path class="st1" d="M89.1,72.6c2.8-25,18.4-50,39.1-26.6C114,24.1,95.8,29.1,79.8,73.2L89.1,72.6z M195.3,125.6
	c11.2,1.2,20.4,3.6,27.7,7.3c10.3,7.9,17.7,7.2,22.2-2.2c5-6-12.5,11-21.5-5.6c-31.2-8.8-72.2-5.1-111.8-14.5
	c-9.6-3.1-17.7-10.2-24.4-21.4c-17.2,4.1-25.7,20.9-19.4,36.8c6.7,4.6,13.5,7.7,20.4,9.5h-0.1c-1.5,34.9,5.3,75.9,4.4,112.6
	c-0.2,25.4-2.3,47.8-10.6,59.3c-26.4,28.7-63.8,22-74.1,19.1c15.5,11.7,57.5,11.5,75.9,3.9c25.5,7.1,61.5,8.4,96,4.3l-13.9-4.1
	c-38.5,3.2-62.5-3.8-56.3-16.3c8.8-24.2,11.1-55.2-1.7-55.8l7-6.8l9-4.1c-3.9-10.1-5-13.1-6.9-24.7c28.8,9.2,53.6,1.7,53-11.3
	l-0.2,3.9c-13.4,12-58.6,3.4-61.8-9.7c-4.2-15-9.9-66.2-4.7-68.1h-0.3C130.3,139.3,160,127.8,195.3,125.6z"/>
<path class="st6" d="M221.8,132.7c4.1,1.8,8.5,4.4,12.2,5.3c-2.6,5.1-4.3,7.4-5.3,7C226.7,144.6,224.3,139.7,221.8,132.7z"/>
<path class="st7" d="M234,138c-2.6,5.1-4.3,7.4-5.3,7c-2-0.4-4.3-5.3-6.9-12.3"/>
<path class="st6" d="M245.3,130.7l10.6-3.9c-2.1,6.2-5,11.8-6,11.4C248.1,137.9,246.9,135,245.3,130.7z"/>
<path class="st7" d="M255.9,126.8c-2.1,6.2-5,11.8-6,11.4c-1.8-0.3-3-3.2-4.6-7.6"/>
<path class="st6" d="M95.9,73c10.6,1.6,22.5,6.6,31.9,4.8c1-20.9-7.2-33.1-15.7-34.1C103.5,45.5,96.1,58.8,95.9,73z"/>
<path class="st6" d="M153.7,54.3l3.4,10.1l2.8,12.5l-20.8-2.1C138.3,48.1,145.7,42.6,153.7,54.3z"/>
<path class="st8" d="M143.1,75.3l16.2,1.4c-0.5-12.1-3.9-21.1-9.2-21.5C145.2,55.1,142.9,63.9,143.1,75.3z"/>
<path class="st8" d="M102.5,74l13.1,3.3l12.2,0.5c0.8-16.6-4.4-26.1-11.3-26.9C109.2,51.2,102.3,62,102.5,74z"/>
<path class="st0" d="M133.1,271.2c1.3-14.5-4.8-21.5-10.6-21.6C130.1,245.7,136.5,253.8,133.1,271.2z M237.3,99.6
	c-27.9-12.8-60.6-21.1-98.1-24.8l32.5,7.4l-2.4,1.9c6.5-2.3,16.7-0.8,30.8,4.6l-5,2.8c5.7-2.9,15.9,0.3,35.1,9.3l-7.3,0.5
	c-6.2,2.2-8,8.1-7.9,15.8c5.8-15,10.7-10.9,20.3-13.1c6.5-1.3,13.6-7.9,19.6-4C251.4,93.8,244.8,95.6,237.3,99.6z M130.7,44.4
	c3.7-4.9,10.1-7.3,16.6,0.6C141.5,35.4,134,36.1,130.7,44.4z M99.8,43.3c7.8-4.6,16.1-7.3,23.7,2.6C117.5,32.4,107.5,35.2,99.8,43.3
	z M75.3,77.5c-8,5.8-13.1,13.6-16.8,24.1C58.7,89.9,64.4,81.2,75.3,77.5z M115.1,199.7c10.6,4.8,27.2,11.9,39.7,12.7
	C145.8,217.1,121.8,207.9,115.1,199.7z M165,319.5c7.9-0.3,15,2.1,22.5,6.9C181.7,319.1,173.8,316.4,165,319.5z"/>
<path class="st6" d="M93,98c4.2,3.5,8.3,6.7,12.4,9.4c-3.9,4.8-12,9.6-12.7,8.9C91.3,115.4,91.6,103.6,93,98z"/>
<path class="st9" d="M105.4,107.4c-3.9,4.8-12,9.6-12.7,8.9c-1.4-0.9-1.1-12.8,0.3-18.4"/>
<path class="st6" d="M146.7,119.3l9.5,1.5c-2.2,4.8-3.8,7-4.7,6.6C149.7,127.1,148.4,123.9,146.7,119.3z"/>
<path class="st9" d="M156.2,120.8c-2.2,4.8-3.8,7-4.7,6.6c-1.7-0.3-3.1-3.5-4.8-8.1"/>
<path class="st5" d="M178.4,80.3c-3.2,0.1-7.6,1.9-9.2,3.9 M79.8,73.2c24.1-3.5,35.3,7.9,50.3,4.1 M139.1,74.8
	c-0.8-26.7,6.6-32.2,14.6-20.6 M127.9,77.8c1-20.9-6.5-33-15-34c-8.2,0.5-17.2,14.1-17,29.2 M87.9,90.5
	c19.8,37.3,97.7,26,135.2,42.4c3.6,2.3,9.7,7.1,15.5,4.5c7.1-2.1,7.3-11.6,12.4-14.4 M94.8,90.2c-6.4-4.3-11.3,0.8-10.1,5.4
	 M237.3,99.6c-34.4-14.9-67.1-23.2-98.1-24.8 M159.9,76.9c-6.7-39.1-25-51.1-31.7-30.9C114,24.1,95.8,29.1,79.8,73.2
	c-26.1,7.1-28.1,36-17,47.7c33.8,35.1,96.1,4.8,132.6,4.6 M88.6,135.4c-2.7,55.6,16,129.6-8,166.7c-15,20.5-74.5,32.1-79.6,9.4
	c-4.1,29,72.5,30.3,98,11.6 M84.1,330.3c16.3,4.2,43.8,9.9,96,4.3 M190.3,335.2c-8.5,0.3-16.5-1.3-24.1-4.7 M122.5,314.2
	c7.7,14.1,33.9,0.1,53.4,3.4c9.1,2.1,14.9,8.4,17.5,18.9c-4.8-1.6-10-4.7-15.7-9.1 M108.1,258.4c9.3-11.2,19.5-14.2,25.2-7
	c7.3,12-3.1,48.2-12.6,66.5 M124.1,247.6c-2.9-7.8-5-14.9-7.3-24.7l-5.5-1.9 M170.1,211.6c2.6,13.5-26.2,20.6-53.3,11.3
	 M105.5,137.8c-1.4,9.5,4.7,44.4,8.2,57.1c10.4,9.4,45.9,19.2,56.5,15.8c0.2,2.5-5.6,4.1-9.3,5.5 M181.9,247.2
	c-20.3-3.2-35.8-1-48.6,4.2 M183.3,289.9c-10.3-1.5-21.7-1.4-31.5,1 M188,245.2c20.2,11.6,14.8,37.9,2.3,68.2
	c27.9-2.3,43.6,3.3,47.2,16.8c-4.5-0.7-10.5-3.7-17.8-9.1 M191.6,330.9c15,0.4,30.2-0.8,36.6-2.5 M233,328.8
	c-6.2-0.3-12.8-1.9-19.9-5 M214.9,117.2c0.6-22.8,13.2-13.4,22.4-17.6c6.8-2.8,13.3-6.3,17.5,0.5c2.9,3.3,3,9.9,5.7,12.7
	c9,14.5-9.9,13.7-15.1,17.9 M59.4,316.8c-7.7-6.7-13.9-8.8-15.7,5 M79.8,302.8c-13.3-5.5-14.2-5.1-13.2,9.9 M90,277.6
	c-14.8,3.4-14.8,5.1-5.2,16.6 M92.9,248c-15.1,7.6-12.4,9.3-1.2,18.9 M91.8,213.4c-15.1,7.6-15.6,12.7,0.9,19.9 M89.2,174.6
	c-16.7,7.5-16.7,14.9,1.6,23.1 M88.3,143.7c-13.3,7.5-14.3,12.2,0.3,20.3 M32.7,323.5c-6.8-10.3-9.1-8.4-12.7,0.2 M205.7,87.7
	c-3.7,0.1-8.8,1.9-10.6,3.9"/>
<circle class="st10" cx="121.3" cy="71" r="6.6"/>
<circle class="st6" cx="116.6" cy="67.5" r="3"/>
<circle class="st10" cx="152.8" cy="70.6" r="5.6"/>
<ellipse class="st6" cx="147.8" cy="68" rx="2.5" ry="2.5"/>
<path class="st11" d="M154,203.8l7.8-6.8C146.4,166.7,172,158.2,185,171c2.1,2,8.7-4.4,6.6-6.9c-8.7-9.3-23.5-13-35.7-3.2
	C146.6,169,141.9,179.9,154,203.8z"/>
<path class="st7" d="M161.8,197.1c-15.4-30.4,10.2-38.9,23.2-26.1c2.1,2,8.7-4.4,6.6-6.9c-8.7-9.3-23.5-13-35.7-3.2
	c-9.2,8-13.9,18.9-1.8,43"/>
<path class="st12" d="M199.7,188.2c-0.8-1.2-1.6-2.5-2.4-3.8c-15.1-0.8-33.9,9.5-43.3,19.5 M163.4,222.6
	c8.7,12.7,19.3,16.9,31.1,11.9c12-5,17.7-14.7,12.8-30.4 M154,203.8c1,2.6,1,2.9,2.1,5.2"/>
<path class="st13" d="M181.9,200.1c3,0,5.4,2.4,5.4,5.4c0,0.9-0.2,1.8-0.7,2.6l8.6,6.7l-12.5,6.1l-1.1-10c-2.8-0.1-5.1-2.5-5.1-5.4
	C176.5,202.5,178.9,200.1,181.9,200.1z"/>
<path class="st12" d="M181.9,200.1c3,0,5.4,2.4,5.4,5.4c0,0.9-0.2,1.8-0.7,2.6l8.6,6.7l-12.5,6.1l-1.1-10c-2.8-0.1-5.1-2.5-5.1-5.4
	C176.5,202.5,178.9,200.1,181.9,200.1z"/>
<path class="st1" d="M230.3,109.1c-0.6,3.2-5.8,12.7,0.7,11.7C236.6,119.2,232.9,111.8,230.3,109.1z M248.2,102.6
	c0.1,2.9-2.3,12.4,3.1,10.1C255.8,110.2,251.1,104.5,248.2,102.6z"/>
<path class="st5" d="M230.3,109.1c-0.6,3.2-5.8,12.7,0.7,11.7C236.6,119.2,232.9,111.8,230.3,109.1z M248.2,102.6
	c0.1,2.9-2.3,12.4,3.1,10.1C255.8,110.2,251.1,104.5,248.2,102.6z"/>
</svg>
