<?xml version="1.0" encoding="utf-8"?>
<!-- Generator: Adobe Illustrator 21.1.0, SVG Export Plug-In . SVG Version: 6.00 Build 0)  -->
<svg version="1.1" id="Layer_1" xmlns="http://www.w3.org/2000/svg" xmlns:xlink="http://www.w3.org/1999/xlink" x="0px" y="0px"
	 viewBox="0 0 524 366" style="enable-background:new 0 0 524 366;" xml:space="preserve">
<style type="text/css">
	.st0{fill-rule:evenodd;clip-rule:evenodd;fill:#FAA74A;}
	.st1{fill-rule:evenodd;clip-rule:evenodd;fill:#008D49;}
	.st2{fill-rule:evenodd;clip-rule:evenodd;fill:#25B34B;}
	.st3{fill-rule:evenodd;clip-rule:evenodd;fill:#FABFBF;}
	.st4{fill-rule:evenodd;clip-rule:evenodd;fill:#EA9A9D;}
	.st5{fill-rule:evenodd;clip-rule:evenodd;fill:#FFFFFF;}
	.st6{fill:none;stroke:#6D6E71;stroke-width:1.6998;stroke-linecap:round;stroke-linejoin:round;stroke-miterlimit:22.9256;}
	.st7{fill-rule:evenodd;clip-rule:evenodd;fill:#A8D4EA;}
	.st8{fill:none;stroke:#E47A6B;stroke-width:1.6998;stroke-linecap:round;stroke-linejoin:round;stroke-miterlimit:22.9256;}
	.st9{fill-rule:evenodd;clip-rule:evenodd;}
	.st10{fill-rule:evenodd;clip-rule:evenodd;fill:#9ACA3C;}
	.st11{fill:none;stroke:#0A5737;stroke-width:1.6998;stroke-linecap:round;stroke-linejoin:round;stroke-miterlimit:22.9256;}
	.st12{fill-rule:evenodd;clip-rule:evenodd;fill:#F7A1A1;}
	.st13{fill:none;stroke:#823436;stroke-width:1.6998;stroke-linecap:round;stroke-linejoin:round;stroke-miterlimit:22.9256;}
	.st14{fill-rule:evenodd;clip-rule:evenodd;fill:#CCD745;}
</style>
<path class="st0" d="M270.8,251.1c12.6-2.3,24.6,6.1,24.7,13.2c0,10.5-12.2,10.4-18.8,7.4c-2.9,7.2-16.1,10.6-19.8,3.3
	C252.7,267.9,259.2,255.9,270.8,251.1z M274.6,241.6l-12.9,3.2c-15.1,11-19.2,24.8-12.2,36.2c7.1,11.3,24.8,9.7,29.4-1.9
	c10.6,4.8,25.3,1.9,25.3-15C303.9,252.8,291.9,242.5,274.6,241.6z"/>
<path class="st0" d="M253.6,211.1l8.2,33.6l9.1,6.4l3.8-9.5l-7.9-28.5l-14.1-50.5c-0.6-2.1-10.7,0.4-10,2.9l2,8.6l-8,1.7l2,8.3
	l9.4-2.9l1.3,4.8l-6.4,1.2l2.4,8.4l4-1.8L253.6,211.1z"/>
<path class="st1" d="M303.1,76.9L346.3,34c0.4-30.9-24.3-28.4-26.2-19c-3.7,14.4-16.8,6.3-21.2,14.7c-4.7,8.5,7.4,14.9-3.1,22.3
	C288.4,57.3,289.1,74.2,303.1,76.9z"/>
<path class="st2" d="M458.4,159.9c-7.6,11.6-16.2,19.9-25.7,25.9c20,27,23.5,53,11.5,74.9h-3.1l-2.1,6.5l-4.7,9.1l-5.6,6
	c12.2,20.4,13.2,33.1,6.9,46c-4.7,7.4-34.4,15.7-49,1.5c-0.8-13.4,6.9-22.7,2.2-30.9l-19.1,0.1c-2.2,10,1.1,15.5,2.2,25.8
	c-9.9,16.7-44.1,9.6-53.6-3.6l10.6-42.4c-4.9-7.4-6.9-14.5-6.1-21.5c-7.3-7.8-12-18.2-11.2-34.1c-16.7,8.4-36,14.5-49.4,11.4
	c-18.4-3.4-19.8-21-10.8-28.6l2.5,6.2c3.4,4.7,12,2.8,21.5-4.4c1.6-1.2,1.6-1.8,3.2-3.2c13.2-15.6,10.7-28.2,8.4-58.9
	c-15.2-12.4-15-21.5-10.1-19.3l10.5,4.7c1.7-20.2,6.4-38.8,14.6-55.5c26.4-44.7,68.6-61.3,109.3-52.5c-2.3-10.1,9.1-9.5,12.5,9.5
	c0.1-8.8,4.9-12.5,7.9,0.3c14.9,8.6,26.1,21.2,32.9,38.5c36.4-6.4,55.5,6.4,55.2,18.9c0.2,7.6-12.3,10.6-2.4,20.2
	c6.8,6.4,8.4,16.8-0.2,19.2c-17.1,7.8-5.2,22-11.5,27.7c-10.1,9.6-19.5-10.9-27.9,2.7C473.1,168.6,464.8,168.1,458.4,159.9z"/>
<path class="st1" d="M404,233.2c-5,26.4,5.1,26.8,5.1,30.9c0.1,31.3-61.8,35-80,14.5c-4.3,6.1-19.2,39.6-5.6,50.2
	c11.7,6.2,32.5,5.2,37.1,1.1c-1.4-9.7-18.7-10.9-12.6-23.8c4.1-9.5,19.1-1,21.9-7.2l25.3-0.1c18.9-6.5,24.8,17.1,17.5,19.5
	c-11.8,1.2-15.5,7.3-18,13.9c11.1,8.4,35.3,5.3,41.1-4c6.3-12.9,5.3-25.5-6.9-46l3.9-4c11.3,4.5,21.6,11.3,42.6-5
	c-20.5,10-24.2,3.3-37.3-3.7l3.6-7.8l2.8-1c13.6-21.5,4.3-54.3-14.6-63.5c8.9,6.3,25,41.3,4.4,50.7l-1.5,6l-24.3-2.6
	c-0.8-5.1-0.7-11,1.1-19l-3.4-4.6l-1.8-5.5C402,225.3,402.4,229.1,404,233.2z M399.3,110.2c4.4,7.5,1.1,25.3-2.5,31.7l3.1,1.3
	C406.1,135.8,406.8,119.7,399.3,110.2z M454.5,152c-7.5,22.2-34.1,43.1-57.1,43.5c-13.1,1.6-52.8,20.1-45.3,36.5l-5-4.7l-3.9-5.7
	c-9.7-2.8-26.4,7.9-25.4,29c-3.3-6.7-6.8-18.6-6.1-27.5c-22.5,9.5-43.7,19.2-61.1,5.6c35.2,10.7,82.6-28,85.6-54.6
	c-14.4-4.8,28.3,11.7,38.2,0.4l10.7,12.2c-18.7-27.8,19.6-8.1,46-42.1c27.5-39,17.2-89.8-26.9-114.8c26.3,8.3,43.2,17.2,54.2,41.4
	c-7.1,32,33.5,13.7,46.3,29.3c7.4,7,5.9,18.4,0.4,25.6c-9.2,11.3,0.9,20.3-5,25.8c-10.1,9.6-13.8-5.5-22.2,8.1
	C473.1,168.6,460.9,160.2,454.5,152z"/>
<polygon class="st3" points="377.4,180.6 352.6,179.7 349.8,181.7 349.6,187.3 355.2,197.2 358.3,199.5 361.6,198.3 364.2,196.1 "/>
<path class="st4" d="M377.4,180.6l-24.8-0.9l-2.8,2l-0.2,5.7c6.4-1.2,9.7-0.6,9.9,1.9c4.2-4.1,8-4.5,11.4-0.9L377.4,180.6z"/>
<path class="st3" d="M501.2,123.9c-2,13.2-15.9,20.9-28.7,18.6c-2.5,5-5.4,5.6-8.3,6.1c6.5-17.5,8.7-34.6,6.8-51.2
	c11.1,2.8,19.9-2.1,29.3,3.9C507.1,105.5,506.8,118.1,501.2,123.9z"/>
<path class="st5" d="M374.1,142.3c8-1.7,14.7-3,22.6-0.4c6.9-15.1,2.8-31.4-3.4-32.7C384,108.2,373.3,120.7,374.1,142.3z"/>
<path class="st5" d="M287.1,145.5l0.3-14.6c-4.9-0.6-11.8-7.1-13.3-4.5C272.4,128.2,276.2,137.8,287.1,145.5z"/>
<path class="st5" d="M379.2,180.1c-4.5-3.1-6.5-7.1-6-12c-33.1,3.7-44.1-11.7-45.7-7.6C326.6,166.3,344.1,191.3,379.2,180.1z"/>
<path class="st6" d="M287.4,130.9c-4.9-0.6-11.8-7.1-13.3-4.5c-1.7,1.8,2.1,11.4,13,19.1"/>
<path class="st7" d="M374.7,131.9l-0.5,10.1c4.7-0.8,11.5-2.4,18.3-0.9c5.5-11.8,1.6-23.8-3.3-24.8
	C383.1,114.8,376.3,120.7,374.7,131.9z"/>
<path class="st8" d="M368,186.6c-4.5-0.7-7,0.5-8.6,2.6c-0.7-1.7-2.9-2.6-6.7-2.6"/>
<circle class="st9" cx="381.4" cy="133.5" r="6.7"/>
<path class="st5" d="M386.6,133c1.5,0,2.7-1.2,2.7-2.7s-1.2-2.7-2.7-2.7s-2.7,1.2-2.7,2.7S385.1,133,386.6,133z"/>
<circle class="st5" cx="393.5" cy="122.3" r="3.8"/>
<path class="st10" d="M408.9,111.5c-2.1-0.1-15.2-7.5-12-12.7C400.2,94.3,413.9,107.6,408.9,111.5z"/>
<path class="st11" d="M408.9,111.5c-2.1-0.1-15.2-7.5-12-12.7C400.2,94.3,413.9,107.6,408.9,111.5z"/>
<path class="st10" d="M446.1,256.7l-1.8,3.9c-12.7,4.3-27.5,0.6-36.1-9.4c8.8-4.8,16.6-7,19.4,1
	C431.6,245.2,438.1,246.5,446.1,256.7z M323.5,328.8c9.3,8.5,28.2,11.2,45,0.5c-10-6.6-18.1-8.5-21.9-0.2
	C344.2,320.6,336.5,320.4,323.5,328.8z M387.5,320.3l-0.8,9.2c11.5,13.4,45.9,6.6,49.4-2.1c-3.4-3.7-7.5-3.3-12.2,1
	c-9.4-9.4-25-9.1-29.7,0.5C393,324.8,390.8,321.9,387.5,320.3z M323,257.1c17.3,0,27.9-6.6,35.3-16.1l-1.7-4.9
	c-10-4.2-19.7,2.3-18.7,9.8C329.3,243.1,321.3,250.3,323,257.1z"/>
<path class="st10" d="M378.1,160.1c-2.2,8.3-3.8,10.6,4.3,22C372.8,174.3,369.1,168.7,378.1,160.1z M373.2,125
	c2.2-9.7,7.2-14.6,13.1-17.4C377.6,107.2,372.4,114.3,373.2,125z M516.3,88.6c-5.4-11.2-31.4-17.9-42.9-15.5
	C487.3,68.2,516.1,74.3,516.3,88.6z M310,69.2c-8.9,15.1-14.4,31.9-18.2,52.1C291.5,101.3,297.6,82.8,310,69.2z M278.6,209
	c11.8-11.8,12.8-21,12.7-39C297.3,190.3,290.8,203.9,278.6,209z M417.4,223c-2.6,6.1-5.5,16.9-6.2,25.2
	C409,239.3,411.9,227.1,417.4,223z M335.5,278c6.9,6.4,17,9.7,25.7,11.3C352.4,290.7,341.2,287.9,335.5,278z"/>
<path class="st12" d="M502.8,111.6c-4.4-8.1-12-7.5-22-9.9C491.7,101.5,500.5,99.5,502.8,111.6z"/>
<path class="st6" d="M373.2,168c-33.1,3.7-44.1-11.7-45.7-7.6c-0.9,5.8,16.6,30.9,51.7,19.6"/>
<path class="st13" d="M259.1,233.6l2.7,11.2 M266.6,212.9l-14-50.2c-0.6-2.1-10.7,0.4-10,2.9l2,8.6l-8,1.7l2,8.3l9.4-2.9l1.3,4.8
	l-6.4,1.2l2.4,8.4l4-1.8l4.2,17.4 M274.6,241.6l-1.8-6.4"/>
<path class="st13" d="M261.8,244.8c-15.1,11-19.2,24.8-12.2,36.2c7.1,11.3,24.8,9.7,29.4-1.9c10.6,4.8,25.3,1.9,25.3-15
	c-0.2-11.3-12.3-21.6-29.5-22.5"/>
<path class="st13" d="M270.8,251.1c-11.7,4.8-18.3,16.8-13.9,23.9c3.7,7.3,16.9,3.9,19.8-3.3c6.6,3,18.8,3.1,18.8-7.4
	C295.4,257.3,283.5,248.8,270.8,251.1z"/>
<path class="st11" d="M337.4,204.3c6.5,30.1,22.7,26.9,20.9,36.7c-4.4,7.1-21,18.3-35.3,16.1c-9.2-8.9-12.2-24.6-11.2-34.1
	 M370,298.8c-0.8,8-0.3,15.1,2.1,25.8c-5.5,13.8-49,17.7-53.9-5c0-12.8,3.1-26.3,10.9-41 M428.8,282.2c10.2,16.1,12.9,32.3,7.3,45.4
	c-4.1,8.3-37.1,16-49.4,2.1c-0.4-12.2,6.4-22.1,2.2-30.9 M437.9,269.4c13.7,9.7,19.2,10.7,37.3,3.7c-18.2,14.1-27.2,11.8-42.9,4.9
	 M441.4,261.6c-8.8,22.4-23.1,33.7-54.8,37.3c-30.7,3-65.7-12.1-63.7-41.8 M408.3,251.3c4.8-1.4,15.2-9.6,19.4,1
	c3.9-7.1,11.7-4.6,18.5,4.4 M409.5,232.2c-1.9-1-4-4.7-5.2-10.1 M432.9,185.8c21.9,28.1,21.7,54.7,11.5,74.9
	c-9.2,4.4-28.6,0.7-36.1-9.4c-1.7-9,1.6-17.4,2.4-29.3 M459.8,72.3c36.5-9.8,59.4,3.7,60.1,17.7c0.2,7.6-12.3,10.6-2.4,20.2
	c6.8,6.4,8.4,16.8-0.2,19.2c-17.1,7.8-5.2,22-11.5,27.7c-10.1,9.6-19.5-10.9-27.9,2.7c-4.7,8.8-13,8.3-19.4,0.1 M470.9,97.3
	c5.9,48.8-22.9,103.7-85.1,97.7c-12.6-1.2-19.5,12.2-27.6,11c-4.1-0.8-8.8-10.1-13.6-11.4 M431.9,32.7
	c15.7,10.1,27.5,24.1,32.9,38.5 M346.3,31.6C346.2,3.2,322,5.8,320.1,15.1c-3.7,14.4-16.8,6.3-21.2,14.7c-4.7,8.5,7.4,14.9-3.1,22.3
	c-7.5,5.2-6.7,22.1,7.2,24.9 M350.2,181.4c-7.3,31.8-50.3,49.6-68.6,52.4c-33,6.9-42.6-14.6-30.9-27.1 M411.4,22.6
	c-69-14.8-120.9,43.6-124,109.9c-1.4,30.6,12.4,64.1-20.1,80.3c-5.8,2.6-12.7,2-13.9-2.7 M397.4,140.9c6.9-15.1,2.2-30.4-4-31.7
	c-9.3-1-20.1,11.2-19.2,32.8 M369.6,143.4c6.8-3.3,31.1-4.7,33.1,2.9 M314.2,118.6c-2.7-2-6.6-2.3-9.3-1.7 M323.8,104.1
	c-3.7-2.8-9.5-3.7-13.7-3.5 M308.5,143.3c-2-0.9-4.9-1-6.8-0.1 M303.7,173.9c2.6-3.6,7.6-3,9.2,0.5 M302.9,186.3
	c2.7-3,7.1-1.6,7.8,1.1 M298.6,197.2c2.2-1.6,4.6,0.2,4.6,2.4 M436.1,327.5c-3.4-3.7-7.5-3.3-12.2,1c-9.4-9.4-25-9.1-29.7,0.5
	c-1.2-4.2-3.4-7.1-6.6-8.7 M356.7,236.1c-10-4.2-19.7,2.3-18.7,9.8c-8.6-2.8-16.6,4.3-14.9,11.2 M430,43.5c7-14.6-6.4-28.9-6-11.1
	c-2.6-19.6-20.9-23.2-9-1.2 M466.3,95.1c11.1,7.1,24.6,0.1,33.9,6.1c6.9,4.4,6.6,16.9,1,22.7 M368.6,329.3
	c-10-6.6-18.1-8.5-21.9-0.2c-2.5-8.6-10.2-8.7-23.1-0.4 M377.3,159.4c-12,15.6,5.7,21,7.9,27.3 M379.2,180.1
	c-8,5.5-15.1,19.8-21,19.5c-2.8-0.9-6.8-6.4-9.6-13.1"/>
<path class="st2" d="M343.3,24.8c-4.5-10-11.3-11.9-16.8-12.8C331.5,9.1,341.8,12.6,343.3,24.8z"/>
<path class="st14" d="M444.1,257.8c-2.7-3-10.4-7.3-15.1-4.9C432,246.9,442,253.3,444.1,257.8z M351.1,236.6
	c-4.5,0.8-8.1,3.1-11.6,6.7C341.6,238.5,345.7,236,351.1,236.6z M420.7,328.2c-6.9-3.5-14.1-3.8-22.5-2
	C406,321.2,413.9,321.6,420.7,328.2z"/>
</svg>
