<?xml version="1.0" encoding="utf-8"?>
<!-- Generator: Adobe Illustrator 21.1.0, SVG Export Plug-In . SVG Version: 6.00 Build 0)  -->
<svg version="1.1" id="Layer_1" xmlns="http://www.w3.org/2000/svg" xmlns:xlink="http://www.w3.org/1999/xlink" x="0px" y="0px"
	 viewBox="0 0 524 366" style="enable-background:new 0 0 524 366;" xml:space="preserve">
<style type="text/css">
	.st0{fill-rule:evenodd;clip-rule:evenodd;fill:#FDDFD1;}
	.st1{fill-rule:evenodd;clip-rule:evenodd;fill:#FAA74A;}
	.st2{fill-rule:evenodd;clip-rule:evenodd;fill:#A16044;}
	.st3{fill-rule:evenodd;clip-rule:evenodd;fill:#D58F5C;}
	.st4{fill-rule:evenodd;clip-rule:evenodd;fill:#BB7446;}
	.st5{fill-rule:evenodd;clip-rule:evenodd;fill:#EBB081;}
	.st6{fill-rule:evenodd;clip-rule:evenodd;fill:#647B98;}
	.st7{fill:none;stroke:#823436;stroke-width:1.6998;stroke-linecap:round;stroke-linejoin:round;stroke-miterlimit:22.9256;}
	.st8{fill-rule:evenodd;clip-rule:evenodd;fill:#FFFFFF;}
	.st9{fill:none;stroke:#6D6E71;stroke-width:1.6998;stroke-linecap:round;stroke-linejoin:round;stroke-miterlimit:22.9256;}
	.st10{fill-rule:evenodd;clip-rule:evenodd;fill:#C1D55D;}
	.st11{fill:none;stroke:#58595B;stroke-width:1.6998;stroke-linecap:round;stroke-linejoin:round;stroke-miterlimit:22.9256;}
	.st12{fill-rule:evenodd;clip-rule:evenodd;}
	.st13{fill-rule:evenodd;clip-rule:evenodd;fill:#FABFBF;}
	.st14{fill-rule:evenodd;clip-rule:evenodd;fill:#EA9A9D;}
	.st15{fill-rule:evenodd;clip-rule:evenodd;fill:#A8D4EA;}
	.st16{fill:none;stroke:#E47A6B;stroke-width:1.6998;stroke-linecap:round;stroke-linejoin:round;stroke-miterlimit:22.9256;}
	.st17{fill-rule:evenodd;clip-rule:evenodd;fill:#F7A1A1;}
	.st18{fill-rule:evenodd;clip-rule:evenodd;fill:#BCBEC0;}
	.st19{fill:none;stroke:#4F4B6A;stroke-width:1.6998;stroke-linecap:round;stroke-linejoin:round;stroke-miterlimit:22.9256;}
	.st20{fill-rule:evenodd;clip-rule:evenodd;fill:#4F4B6A;}
	.st21{fill:none;stroke:#ED1651;stroke-width:8.499;stroke-linecap:round;stroke-linejoin:round;stroke-miterlimit:22.9256;}
</style>
<path class="st0" d="M74.4,314.4c-44.7-18.9-101.4-98.1-59.8-151.8c26.8-34.5,30.9-33.4,28.8-73.4c-4.6-87.1,96.9-113.8,168-63.9
	c79.3,55.7,116.1-50.8,224.6,98.3c59.5,81.7,46.2,207-90.7,233.8C251.8,375.7,151.7,364.1,74.4,314.4z"/>
<path class="st1" d="M270.8,251.1c12.6-2.3,24.6,6.1,24.7,13.2c0,10.5-12.2,10.4-18.8,7.4c-2.9,7.2-16.1,10.6-19.8,3.3
	C252.7,267.9,259.2,255.9,270.8,251.1z M274.6,241.6l-12.9,3.2c-15.1,11-19.2,24.8-12.2,36.2c7.1,11.3,24.8,9.7,29.4-1.9
	c10.6,4.8,25.3,1.9,25.3-15C303.9,252.8,291.9,242.5,274.6,241.6z"/>
<path class="st1" d="M253.6,211.1l8.2,33.6l9.1,6.4l3.8-9.5l-7.9-28.5l-14.1-50.5c-0.6-2.1-10.7,0.4-10,2.9l2,8.6l-8,1.7l2,8.3
	l9.4-2.9l1.3,4.8l-6.4,1.2l2.4,8.4l4-1.8L253.6,211.1z"/>
<polygon class="st2" points="155.7,149.1 166.6,151.8 171.9,155.2 165.1,156.1 159.8,158.3 157.4,152.2 "/>
<path class="st3" d="M19.7,324.3l13-0.8C25.9,313.2,23.3,315.7,19.7,324.3z"/>
<path class="st3" d="M43.6,323l8.9-2.7l6.9-3.5C48,308.4,46,310.3,43.6,323z"/>
<path class="st3" d="M66.6,312.6c5.5-2.4,9.9-5.7,13.2-9.9C66.5,297.2,65.5,297.7,66.6,312.6z"/>
<path class="st3" d="M84.9,294.2l5.2-16.6C75.2,281,75.2,282.7,84.9,294.2z"/>
<path class="st3" d="M91.7,266.9l1.2-18.9C77.9,255.6,80.6,257.3,91.7,266.9z"/>
<path class="st3" d="M92.8,233.3l-0.9-19.9C76.9,221,76.3,226.2,92.8,233.3z"/>
<path class="st2" d="M190,184.8c-5-6.4-13.8-8.3-26.2-14.4l-2.5-3.2c7.3-7.6,15-7.4,23.1-0.5l2,0.2l3-2.1
	c12.1,8.7,25.5,22.1,21.2,32.5c-1.3,4.6-6.3,7-13,8.3c-1.2-5.7-0.4-11.4,2.3-17.1l-2.6-4L190,184.8z"/>
<path class="st3" d="M90.8,197.6l-1.6-23.1C72.6,182.1,72.5,189.4,90.8,197.6z"/>
<path class="st4" d="M233,328.8l-4.7-0.5c-11.1,2.9-23.6,3.1-36.5,2.5L176,317.5l12-72.4c20.2,11.6,14.8,37.9,2.3,68.2
	c27.9-2.3,43.6,3.3,47.2,16.8L233,328.8z"/>
<path class="st2" d="M226.6,328.8l-5.6,1c-12.2,1.2-22.7,1.6-35.6,1l-15.8-13.3l12-72.4c20.2,11.6,16.2,40.1,0.2,74.5
	c27.9-2.3,27.4,3.1,34.9,5.6L226.6,328.8z"/>
<path class="st4" d="M116.8,222.9c2.8,12.6,3.4,14.6,7.3,24.7c12.6-3.7,18.4,19.9-1.6,66.6l53.6,3.2c9.4,2.7,15.2,9.1,17.3,19.1
	l-3.2-1.3l-10.1-0.6c-34.7,4.2-69.7,2.5-95.1-4.6c-21.9,11.2-87.9,8.1-84-18.4c4.3,21.8,62.4,12.1,78.8-8.8
	c8.4-11.5,13-29.3,13.2-54.7c0.9-36.8-5.9-77.7-4.4-112.6l18.8,2.2c-0.9,5.2,2.2,42.3,6.4,57.3c14.2,9.3,39.7-20,47.6-27.7l7.4,12.6
	l1.4,31.8C174.1,225.8,141,227.4,116.8,222.9z"/>
<path class="st2" d="M117.2,222.9c1.9,11.6,3,14.6,6.9,24.7l-9,4.1l-7,6.8c12.9,0.6,10.5,31.6,1.7,55.8
	c-6.1,12.5,17.9,19.5,56.3,16.3l13.9,4.1c-34.7,4.2-70.6,2.8-96-4.3c-18.3,7.5-60.4,7.8-75.9-3.9c10.3,2.9,47.6,9.6,74.1-19.1
	c8.4-11.5,10.5-33.9,10.6-59.3c0.9-36.8-5.9-77.7-4.4-112.6l15,2.3c-5.2,1.9,0.5,53.1,4.7,68.1c3.2,13.1,48.3,21.7,61.8,9.7l0.2-3.9
	C170.8,224.6,145.9,232,117.2,222.9z"/>
<path class="st5" d="M145,133.2c-15.6,3.4-28.2,4.8-37.7,4.5c-2.8,9.9-0.1,27.7,4.9,50.6c12.6,9.2,75,17.3,52.3-16.1l3.6,6.2l1,4.3
	l1.1,29.5c2.7,8.6-19.4,22.6-53,10.9c2.7,12.9,3.6,15.8,6.9,24.7c17.9-1.5,14.4,27.6-1.6,66.6c9.3,15,33.2-0.2,53.4,3.4
	c15.1-14.2,21.3-51.5,11.5-69.3c1.2-13.1-3.1-30.6-12.9-52.5l-5.5-13.4l-0.7-3.7l-3.6-6.9l-3.4-4.7C161.4,157.5,155.3,146,145,133.2
	z"/>
<path class="st3" d="M145,133.2c-15.6,3.4-30,5-39.5,4.6c-0.6,10.1,3.1,34.2,8.2,57.1c18.7,13,47,19.3,56.1,15.4l0.4,1.3
	c2.5,12.9-26.6,20.1-53.3,11.3l7.3,24.7c17.9-1.5,14.4,27.6-1.6,66.6c9.3,15,33.2-0.2,53.4,3.4c14.1-13.2,18.6-57.5,5.9-70.3
	c2-21.2-6.5-70.3-27-82.2C158.2,162.3,152.6,143.9,145,133.2z"/>
<path class="st6" d="M206.7,202.3l-4.2,2l-5,1.1c-1.1-5.3-0.9-10.8,2.1-16.6l-2.3-4.4c-18.5,1.1-32.9,7.6-43.3,19.5l2.8,6.8l7.5,0.7
	l5.8-0.3c1,3.1-0.3,6.8-6.7,11.6c8.7,12.7,19.3,16.9,31.1,11.9C207,229.4,212.7,219,206.7,202.3z"/>
<path class="st5" d="M158.4,163.4c-12.1-5.6-34.8-1.7-39.4,6c11.7-6.1,25.8-6.8,42.3-2.1L158.4,163.4z"/>
<path class="st5" d="M182.1,244.2c-8.6-4.4-35.4-2.4-40.8,4.5c16-3.8,34.4-4.5,44-0.1L182.1,244.2z"/>
<path class="st5" d="M147.9,292.4c13.5-4.9,27.6-4.2,35.4-2.5C185.1,281,148.5,285.3,147.9,292.4z"/>
<path class="st3" d="M165,319.5c7.9-0.3,15,2.1,22.5,6.9C181.7,319.1,173.8,316.4,165,319.5z"/>
<path class="st3" d="M116.6,191.4c11.1,0.7,23.7-3.2,34.2-8C142,190.4,127.1,194.9,116.6,191.4z"/>
<path class="st3" d="M133.1,271.2c1.3-14.5-4.8-21.5-10.6-21.6C130.1,245.7,136.5,253.8,133.1,271.2z"/>
<path class="st7" d="M122.5,314.2c7.7,14.1,33.9,0.1,53.4,3.4c9.1,2.1,14.9,8.4,17.5,18.9c-4.8-1.6-10-4.7-15.7-9.1"/>
<path class="st7" d="M190.3,335.2c-8.5,0.3-16.5-1.3-24.1-4.7"/>
<path class="st7" d="M84.1,330.3c16.3,4.2,43.8,9.9,96,4.3"/>
<path class="st7" d="M233,328.8c-6.2-0.3-12.8-1.9-19.9-5"/>
<path class="st7" d="M191.6,330.9c15,0.4,30.2-0.8,36.6-2.5"/>
<path class="st7" d="M183.3,289.9c-10.3-1.5-21.7-1.4-31.5,1"/>
<path class="st7" d="M79.8,302.8c-13.3-5.5-14.2-5.1-13.2,9.9"/>
<path class="st7" d="M59.4,316.8c-7.7-6.7-13.9-8.8-15.7,5"/>
<path class="st7" d="M32.7,323.5c-6.8-10.3-9.1-8.4-12.7,0.2"/>
<path class="st7" d="M187.5,236.6c0.7,4.8,0.7,8.9,0,11.6c9.6,12.3,3.2,57.9-11.5,69.3 M162.2,168.4c4.7,5.9,7.8,13.7,10.2,22.3
	 M145,133.2c6.8,8.7,12.1,18.3,14.8,25.1"/>
<path class="st7" d="M151.1,164.1c-10.8-1.4-24.6,0.9-32.1,5.2"/>
<path class="st7" d="M181.9,247.2c-20.3-3.2-35.8-1-48.6,4.2"/>
<path class="st7" d="M191.8,166.5c19.6,13.7,28.7,35.9,5.7,39.1"/>
<path class="st7" d="M190,184.8c-5.5-7.1-18.5-9.9-26.7-15.2"/>
<path class="st7" d="M124.1,247.6c-2.9-7.8-5-14.9-7.3-24.7l-5.5-1.9"/>
<path class="st7" d="M108.1,258.4c9.3-11.2,19.5-14.2,25.2-7c7.3,12-3.1,48.2-12.6,66.5"/>
<path class="st7" d="M188,245.2c20.2,11.6,14.8,37.9,2.3,68.2c27.9-2.3,43.6,3.3,47.2,16.8c-4.5-0.7-10.5-3.7-17.8-9.1"/>
<path class="st3" d="M88.6,164l-0.3-20.3C75.2,151.2,74.2,155.9,88.6,164z"/>
<path class="st7" d="M88.6,135.4c-2.7,55.6,16,129.6-8,166.7c-15,20.5-74.5,32.1-79.6,9.4c-4.1,29,72.5,30.3,98,11.6"/>
<path class="st7" d="M88.3,143.7c-13.3,7.5-14.3,12.2,0.3,20.3"/>
<path class="st7" d="M89.2,174.6c-16.7,7.5-16.7,14.9,1.6,23.1"/>
<path class="st7" d="M91.8,213.4c-15.1,7.6-15.6,12.7,0.9,19.9"/>
<path class="st7" d="M92.9,248c-15.1,7.6-12.4,9.3-1.2,18.9"/>
<path class="st7" d="M90,277.6c-14.8,3.4-14.8,5.1-5.2,16.6"/>
<path class="st4" d="M195.3,125.6c11.2,1.2,20.4,3.6,27.7,7.3c10.3,7.9,17.7,7.2,22.2-2.2c5-6,24.1-1.3,15.1-17.9l-2.8-6.3
	c-2.3-8.8-7.8-13-20.3-6.8c-20.5-9.2-44.8-17.3-77.4-22.7c-6.7-39.1-25-51.1-31.7-30.9c-14.2-21.9-32.4-16.9-48.5,27.2
	c-26.5,9.5-28.1,36-17,47.7C96.4,156.1,158.9,125.7,195.3,125.6z"/>
<path class="st2" d="M89.1,72.6c2.8-25,18.4-50,39.1-26.6C114,24.1,95.8,29.1,79.8,73.2L89.1,72.6z M195.3,125.6
	c11.2,1.2,20.4,3.6,27.7,7.3c10.3,7.9,17.7,7.2,22.2-2.2c5-6-12.5,11-21.5-5.6c-31.2-8.8-72.2-5.1-111.8-14.5
	c-9.6-3.1-17.7-10.2-24.4-21.4c-17.2,4.1-25.7,20.9-19.4,36.8C104.9,151.4,144.2,128.8,195.3,125.6z"/>
<path class="st3" d="M237.3,99.6c-27.9-12.8-60.6-21.1-98.1-24.8l32.5,7.4l-2.4,1.9c6.5-2.3,16.7-0.8,30.8,4.6l-5,2.8
	c5.7-2.9,15.9,0.3,35.1,9.3l-7.3,0.5c-6.2,2.2-8,8.1-7.9,15.8c5.8-15,10.7-10.9,20.3-13.1c6.5-1.3,13.6-7.9,19.6-4
	C251.4,93.8,244.8,95.6,237.3,99.6z"/>
<path class="st8" d="M221.8,132.7c4.1,1.8,8.5,4.4,12.2,5.3c-2.6,5.1-4.3,7.4-5.3,7C226.7,144.6,224.3,139.7,221.8,132.7z"/>
<path class="st9" d="M234,138c-2.6,5.1-4.3,7.4-5.3,7c-2-0.4-4.3-5.3-6.9-12.3"/>
<path class="st8" d="M245.3,130.7l10.6-3.9c-2.1,6.2-5,11.8-6,11.4C248.1,137.9,246.9,135,245.3,130.7z"/>
<path class="st9" d="M255.9,126.8c-2.1,6.2-5,11.8-6,11.4c-1.8-0.3-3-3.2-4.6-7.6"/>
<path class="st3" d="M75.3,77.5c-8,5.8-13.1,13.6-16.8,24.1C58.7,89.9,64.4,81.2,75.3,77.5z"/>
<path class="st8" d="M95.9,73c10.6,1.6,22.5,6.6,31.9,4.8c1-20.9-7.2-33.1-15.7-34.1C103.5,45.5,96.1,58.8,95.9,73z"/>
<path class="st8" d="M153.7,54.3l3.4,10.1l2.8,12.5l-20.8-2.1C138.3,48.1,145.7,42.6,153.7,54.3z"/>
<path class="st10" d="M143.1,75.3l16.2,1.4c-0.5-12.1-3.9-21.1-9.2-21.5C145.2,55.1,142.9,63.9,143.1,75.3z"/>
<path class="st10" d="M102.5,74l13.1,3.3l12.2,0.5c0.8-16.6-4.4-26.1-11.3-26.9C109.2,51.2,102.3,62,102.5,74z"/>
<path class="st7" d="M214.9,117.2c0.6-22.8,13.2-13.4,22.4-17.6c6.8-2.8,13.3-6.3,17.5,0.5c2.9,3.3,3,9.9,5.7,12.7
	c9,14.5-9.9,13.7-15.1,17.9"/>
<path class="st2" d="M230.3,109.1c-0.6,3.2-5.8,12.7,0.7,11.7C236.6,119.2,232.9,111.8,230.3,109.1z"/>
<path class="st7" d="M230.3,109.1c-0.6,3.2-5.8,12.7,0.7,11.7C236.6,119.2,232.9,111.8,230.3,109.1z"/>
<path class="st2" d="M248.2,102.6c0.1,2.9-2.3,12.4,3.1,10.1C255.8,110.2,251.1,104.5,248.2,102.6z"/>
<path class="st7" d="M248.2,102.6c0.1,2.9-2.3,12.4,3.1,10.1C255.8,110.2,251.1,104.5,248.2,102.6z"/>
<path class="st8" d="M93,98c4.2,3.5,8.3,6.7,12.4,9.4c-3.9,4.8-12,9.6-12.7,8.9C91.3,115.4,91.6,103.6,93,98z"/>
<path class="st11" d="M105.4,107.4c-3.9,4.8-12,9.6-12.7,8.9c-1.4-0.9-1.1-12.8,0.3-18.4"/>
<path class="st8" d="M146.7,119.3l9.5,1.5c-2.2,4.8-3.8,7-4.7,6.6C149.7,127.1,148.4,123.9,146.7,119.3z"/>
<path class="st11" d="M156.2,120.8c-2.2,4.8-3.8,7-4.7,6.6c-1.7-0.3-3.1-3.5-4.8-8.1"/>
<path class="st7" d="M178.4,80.3c-3.2,0.1-7.6,1.9-9.2,3.9"/>
<path class="st7" d="M205.7,87.7c-3.7,0.1-8.8,1.9-10.6,3.9"/>
<path class="st7" d="M94.8,90.2c-6.4-4.3-11.3,0.8-10.1,5.4"/>
<path class="st7" d="M139.1,74.8c-0.8-26.7,6.6-32.2,14.6-20.6"/>
<circle class="st12" cx="121.3" cy="71" r="6.6"/>
<circle class="st8" cx="116.6" cy="67.5" r="3"/>
<circle class="st12" cx="152.8" cy="70.6" r="5.6"/>
<ellipse class="st8" cx="147.8" cy="68" rx="2.5" ry="2.5"/>
<path class="st7" d="M87.9,90.5c19.8,37.3,97.7,26,135.2,42.4c3.6,2.3,9.7,7.1,15.5,4.5c7.1-2.1,7.3-11.6,12.4-14.4"/>
<path class="st3" d="M99.8,43.3c7.8-4.6,16.1-7.3,23.7,2.6C117.5,32.4,107.5,35.2,99.8,43.3z"/>
<path class="st3" d="M130.7,44.4c3.7-4.9,10.1-7.3,16.6,0.6C141.5,35.4,134,36.1,130.7,44.4z"/>
<path class="st2" d="M303.1,76.9L346.3,34c0.4-30.9-24.3-28.4-26.2-19c-3.7,14.4-16.8,6.3-21.2,14.7c-4.7,8.5,7.4,14.9-3.1,22.3
	C288.4,57.3,289.1,74.2,303.1,76.9z"/>
<path class="st7" d="M346.3,34.1c0.4-30.9-24.3-28.4-26.2-19c-3.7,14.4-16.8,6.3-21.2,14.7c-4.7,8.5,7.4,14.9-3.1,22.3
	c-7.5,5.2-6.7,22.1,7.2,24.9"/>
<path class="st4" d="M458.4,159.9c-7.6,11.6-16.2,19.9-25.7,25.9c20,27,23.5,53,11.5,74.9h-3.1l-2.1,6.5l-4.7,9.1l-5.6,6
	c12.2,20.4,13.2,33.1,6.9,46c-4.7,7.4-34.4,15.7-49,1.5c-0.8-13.4,6.9-22.7,2.2-30.9l-19.1,0.1c-2.2,10,1.1,15.5,2.2,25.8
	c-9.9,16.7-44.1,9.6-53.6-3.6l10.6-42.4c-4.9-7.4-6.9-14.5-6.1-21.5c-7.3-7.8-12-18.2-11.2-34.1c-16.7,8.4-36,14.5-49.4,11.4
	c-18.4-3.4-19.8-21-10.8-28.6l2.5,6.2c3.4,4.7,12,2.8,21.5-4.4c1.6-1.2,1.6-1.8,3.2-3.2c13.2-15.6,10.7-28.2,8.4-58.9
	c-15.2-12.4-15-21.5-10.1-19.3l10.5,4.7c1.7-20.2,6.4-38.8,14.6-55.5c26.4-44.7,68.6-61.3,109.3-52.5c-2.3-10.1,9.1-9.5,12.5,9.5
	c0.1-8.8,4.9-12.5,7.9,0.3c14.9,8.6,26.1,21.2,32.9,38.5c36.4-6.4,55.5,6.4,55.2,18.9c0.2,7.6-12.3,10.6-2.4,20.2
	c6.8,6.4,8.4,16.8-0.2,19.2c-17.1,7.8-5.2,22-11.5,27.7c-10.1,9.6-19.5-10.9-27.9,2.7C473.1,168.6,464.8,168.1,458.4,159.9z"/>
<path class="st2" d="M404,233.2c-5,26.4,5.1,26.8,5.1,30.9c0.1,31.3-61.8,35-80,14.5c-4.3,6.1-19.2,39.6-5.6,50.2
	c11.7,6.2,32.5,5.2,37.1,1.1c-1.4-9.7-18.7-10.9-12.6-23.8c4.1-9.5,19.1-1,21.9-7.2l25.3-0.1c18.9-6.5,24.8,17.1,17.5,19.5
	c-11.8,1.2-15.5,7.3-18,13.9c11.1,8.4,35.3,5.3,41.1-4c6.3-12.9,5.3-25.5-6.9-46l3.9-4c11.3,4.5,21.6,11.3,42.6-5
	c-20.5,10-24.2,3.3-37.3-3.7l3.6-7.8l2.8-1c13.6-21.5,4.3-54.3-14.6-63.5c8.9,6.3,25,41.3,4.4,50.7l-1.5,6l-24.3-2.6
	c-0.8-5.1-0.7-11,1.1-19l-3.4-4.6l-1.8-5.5C402,225.3,402.4,229.1,404,233.2z M454.5,152c-7.5,22.2-34.1,43.1-57.1,43.5
	c-13.1,1.6-52.8,20.1-45.3,36.5l-5-4.7l-3.9-5.7c-9.7-2.8-26.4,7.9-25.4,29c-3.3-6.7-6.8-18.6-6.1-27.5
	c-22.5,9.5-43.7,19.2-61.1,5.6c35.2,10.7,82.6-28,85.6-54.6c-14.4-4.8,28.3,11.7,38.2,0.4l10.7,12.2c-18.7-27.8,19.6-8.1,46-42.1
	c27.5-39,17.2-89.8-26.9-114.8c26.3,8.3,43.2,17.2,54.2,41.4c-7.1,32,33.5,13.7,46.3,29.3c7.4,7,5.9,18.4,0.4,25.6
	c-9.2,11.3,0.9,20.3-5,25.8c-10.1,9.6-13.8-5.5-22.2,8.1C473.1,168.6,460.9,160.2,454.5,152z"/>
<polygon class="st13" points="377.4,180.6 352.6,179.7 349.8,181.7 349.6,187.3 355.2,197.2 358.3,199.5 361.6,198.3 364.2,196.1 
	"/>
<path class="st14" d="M377.4,180.6l-24.8-0.9l-2.8,2l-0.2,5.7c6.4-1.2,9.7-0.6,9.9,1.9c4.2-4.1,8-4.5,11.4-0.9L377.4,180.6z"/>
<path class="st13" d="M501.2,123.9c-2,13.2-15.9,20.9-28.7,18.6c-2.5,5-5.4,5.6-8.3,6.1c6.5-17.5,8.7-34.6,6.8-51.2
	c11.1,2.8,19.9-2.1,29.3,3.9C507.1,105.5,506.8,118.1,501.2,123.9z"/>
<path class="st8" d="M374.1,142.3c8-1.7,14.7-3,22.6-0.4c6.9-15.1,2.8-31.4-3.4-32.7C384,108.2,373.3,120.7,374.1,142.3z"/>
<path class="st7" d="M430,43.5c7-14.6-6.4-28.9-6-11.1c-2.6-19.6-20.9-23.2-9-1.2"/>
<path class="st7" d="M470.9,97.3c5.9,48.8-22.9,103.7-85.1,97.7c-12.6-1.2-19.5,12.2-27.6,11c-4.1-0.8-8.8-10.1-13.6-11.4
	 M431.9,32.7c15.7,10.1,27.5,24.1,32.9,38.5"/>
<path class="st8" d="M287.1,145.5l0.3-14.6c-4.9-0.6-11.8-7.1-13.3-4.5C272.4,128.2,276.2,137.8,287.1,145.5z"/>
<path class="st8" d="M379.2,180.1c-4.5-3.1-6.5-7.1-6-12c-33.1,3.7-44.1-11.7-45.7-7.6C326.6,166.3,344.1,191.3,379.2,180.1z"/>
<path class="st7" d="M379.2,180.1c-8,5.5-15.1,19.8-21,19.5c-2.8-0.9-6.8-6.4-9.6-13.1"/>
<path class="st9" d="M287.4,130.9c-4.9-0.6-11.8-7.1-13.3-4.5c-1.7,1.8,2.1,11.4,13,19.1"/>
<path class="st15" d="M374.7,131.9l-0.5,10.1c4.7-0.8,11.5-2.4,18.3-0.9c5.5-11.8,1.6-23.8-3.3-24.8
	C383.1,114.8,376.3,120.7,374.7,131.9z"/>
<path class="st16" d="M368,186.6c-4.5-0.7-7,0.5-8.6,2.6c-0.7-1.7-2.9-2.6-6.7-2.6"/>
<path class="st7" d="M459.8,72.3c36.5-9.8,59.4,3.7,60.1,17.7c0.2,7.6-12.3,10.6-2.4,20.2c6.8,6.4,8.4,16.8-0.2,19.2
	c-17.1,7.8-5.2,22-11.5,27.7c-10.1,9.6-19.5-10.9-27.9,2.7c-4.7,8.8-13,8.3-19.4,0.1"/>
<path class="st7" d="M466.3,95.1c11.1,7.1,24.6,0.1,33.9,6.1c6.9,4.4,6.6,16.9,1,22.7"/>
<circle class="st12" cx="381.4" cy="133.5" r="6.7"/>
<path class="st8" d="M386.6,133c1.5,0,2.7-1.2,2.7-2.7s-1.2-2.7-2.7-2.7s-2.7,1.2-2.7,2.7S385.1,133,386.6,133z"/>
<circle class="st8" cx="393.5" cy="122.3" r="3.8"/>
<path class="st3" d="M446.1,256.7l-1.8,3.9c-12.7,4.3-27.5,0.6-36.1-9.4c8.8-4.8,16.6-7,19.4,1C431.6,245.2,438.1,246.5,446.1,256.7
	z"/>
<path class="st3" d="M408.9,111.5c-2.1-0.1-15.2-7.5-12-12.7C400.2,94.3,413.9,107.6,408.9,111.5z"/>
<path class="st7" d="M408.9,111.5c-2.1-0.1-15.2-7.5-12-12.7C400.2,94.3,413.9,107.6,408.9,111.5z"/>
<path class="st3" d="M387.5,320.3l-0.8,9.2c11.5,13.4,45.9,6.6,49.4-2.1c-3.4-3.7-7.5-3.3-12.2,1c-9.4-9.4-25-9.1-29.7,0.5
	C393,324.8,390.8,321.9,387.5,320.3z"/>
<path class="st7" d="M432.9,185.8c21.9,28.1,21.7,54.7,11.5,74.9c-9.2,4.4-28.6,0.7-36.1-9.4c-1.7-9,1.6-17.4,2.5-29.3"/>
<path class="st3" d="M323,257.1c17.3,0,27.9-6.6,35.3-16.1l-1.7-4.9c-10-4.2-19.7,2.3-18.7,9.8C329.3,243.1,321.3,250.3,323,257.1z"
	/>
<path class="st7" d="M409.5,232.2c-1.9-1-4-4.7-5.2-10.1"/>
<path class="st3" d="M323.5,328.8c9.3,8.5,28.2,11.2,45,0.5c-10-6.6-18.1-8.5-21.9-0.2C344.2,320.6,336.5,320.4,323.5,328.8z"/>
<path class="st7" d="M408.3,251.3c4.8-1.4,15.2-9.6,19.4,1c3.9-7.1,11.7-4.6,18.5,4.4"/>
<path class="st7" d="M441.4,261.6c-8.8,22.4-23.1,33.7-54.8,37.3c-30.7,3-65.7-12.1-63.7-41.8"/>
<path class="st7" d="M173,155.2c-3-2.6-12.1-6-17.3-6.1"/>
<path class="st7" d="M428.8,282.2c10.2,16.1,12.9,32.3,7.3,45.4c-4.1,8.3-37.1,16-49.4,2.1c-0.4-12.2,6.4-22.1,2.2-30.9"/>
<path class="st7" d="M436.1,327.5c-3.4-3.7-7.5-3.3-12.2,1c-9.4-9.4-25-9.1-29.7,0.5c-1.2-4.2-3.4-7.1-6.6-8.7"/>
<path class="st7" d="M437.9,269.4c13.7,9.7,19.2,10.7,37.3,3.7c-18.2,14.1-27.2,11.8-42.9,4.9"/>
<path class="st7" d="M370,298.8c-0.8,8-0.3,15.1,2.1,25.8c-5.5,13.8-49,17.7-53.9-5c0-12.8,3.1-26.3,10.9-41"/>
<path class="st7" d="M337.4,204.3c6.5,30.1,22.7,26.9,20.9,36.7c-4.4,7.1-21,18.3-35.3,16.1c-9.2-8.9-12.2-24.6-11.2-34.1"/>
<path class="st7" d="M356.7,236.1c-10-4.2-19.7,2.3-18.7,9.8c-8.6-2.8-16.6,4.3-14.9,11.2"/>
<path class="st7" d="M368.6,329.3c-10-6.6-18.1-8.5-21.9-0.2c-2.5-8.6-10.2-8.7-23.1-0.4"/>
<path class="st3" d="M378.1,160.1c-2.2,8.3-3.8,10.6,4.3,22C372.8,174.3,369.1,168.7,378.1,160.1z"/>
<path class="st5" d="M351.1,236.6c-4.5,0.8-8.1,3.1-11.6,6.7C341.6,238.5,345.7,236,351.1,236.6z"/>
<path class="st5" d="M444.1,257.8c-2.7-3-10.4-7.3-15.1-4.9C432,246.9,442,253.3,444.1,257.8z"/>
<path class="st3" d="M335.5,278c6.9,6.4,17,9.7,25.7,11.3C352.4,290.7,341.2,287.9,335.5,278z"/>
<path class="st3" d="M417.4,223c-2.6,6.1-5.5,16.9-6.2,25.2C409,239.3,411.9,227.1,417.4,223z"/>
<path class="st5" d="M420.7,328.2c-6.9-3.5-14.1-3.8-22.5-2C406,321.2,413.9,321.6,420.7,328.2z"/>
<path class="st5" d="M345.4,329.6c-3.5-3.9-10.2-4.5-18.2-1C335.5,323.1,342.8,321.7,345.4,329.6z"/>
<path class="st4" d="M343.3,24.8c-4.5-10-11.3-11.9-16.8-12.8C331.5,9.1,341.8,12.6,343.3,24.8z"/>
<path class="st3" d="M373.2,125c2.2-9.7,7.2-14.6,13.1-17.4C377.6,107.2,372.4,114.3,373.2,125z"/>
<path class="st17" d="M502.8,111.6c-4.4-8.1-12-7.5-22-9.9C491.7,101.5,500.5,99.5,502.8,111.6z"/>
<path class="st3" d="M310,69.2c-8.9,15.1-14.4,31.9-18.2,52.1C291.5,101.3,297.6,82.8,310,69.2z"/>
<path class="st3" d="M278.6,209c11.8-11.8,12.8-21,12.7-39C297.3,190.3,290.8,203.9,278.6,209z"/>
<path class="st7" d="M314.2,118.6c-2.7-2-6.6-2.3-9.3-1.7 M323.8,104.1c-3.7-2.8-9.5-3.7-13.7-3.5 M308.5,143.3
	c-2-0.9-4.9-1-6.8-0.1"/>
<path class="st3" d="M516.3,88.6c-5.4-11.2-31.4-17.9-42.9-15.5C487.3,68.2,516.1,74.3,516.3,88.6z"/>
<path class="st2" d="M399.3,110.2c4.4,7.5,1.1,25.3-2.5,31.7l3.1,1.3C406.1,135.8,406.8,119.7,399.3,110.2z"/>
<path class="st7" d="M369.6,143.4c6.8-3.3,31.1-4.7,33.1,2.9"/>
<path class="st7" d="M397.4,140.9c6.9-15.1,2.2-30.4-4-31.7c-9.3-1-20.1,11.2-19.2,32.8"/>
<path class="st7" d="M303.7,173.9c2.6-3.6,7.6-3,9.2,0.5"/>
<path class="st7" d="M302.9,186.3c2.7-3,7.1-1.6,7.8,1.1"/>
<path class="st7" d="M298.6,197.2c2.2-1.6,4.5,0.2,4.6,2.4"/>
<path class="st7" d="M350.2,181.4c-7.3,31.8-50.3,49.6-68.6,52.4c-33.5,7-42.7-15.6-30.1-28 M411.4,22.6
	c-69-14.8-120.9,43.6-124,109.9c-1.4,30.6,12.4,64.1-20.1,80.3c-5.8,2.6-12.7,2-13.9-2.7"/>
<path class="st9" d="M373.2,168c-33.1,3.7-44.1-11.7-45.7-7.6c-0.9,5.8,16.6,30.9,51.7,19.6"/>
<path class="st7" d="M377.3,159.4c-12,15.6,5.7,21,7.9,27.3"/>
<path class="st18" d="M154,203.8l7.8-6.8C146.4,166.7,172,158.2,185,171c2.1,2,8.7-4.4,6.6-6.9c-8.7-9.3-23.5-13-35.7-3.2
	C146.6,169,141.9,179.9,154,203.8z"/>
<path class="st9" d="M161.8,197.1c-15.4-30.4,10.2-38.9,23.2-26.1c2.1,2,8.7-4.4,6.6-6.9c-8.7-9.3-23.5-13-35.7-3.2
	c-9.2,8-13.9,18.9-1.8,43"/>
<path class="st19" d="M199.7,188.2c-0.8-1.2-1.6-2.5-2.4-3.8c-15.1-0.8-33.9,9.5-43.3,19.5 M163.4,222.6
	c8.7,12.7,19.3,16.9,31.1,11.9c12-5,17.7-14.7,12.8-30.4 M154,203.8c1,2.6,1.7,4.5,2.8,6.8"/>
<path class="st20" d="M181.9,200.1c3,0,5.4,2.4,5.4,5.4c0,0.9-0.2,1.8-0.7,2.6l8.6,6.7l-12.5,6.1l-1.1-10c-2.8-0.1-5.1-2.5-5.1-5.4
	C176.5,202.5,178.9,200.1,181.9,200.1z"/>
<path class="st19" d="M181.9,200.1c3,0,5.4,2.4,5.4,5.4c0,0.9-0.2,1.8-0.7,2.6l8.6,6.7l-12.5,6.1l-1.1-10c-2.8-0.1-5.1-2.5-5.1-5.4
	C176.5,202.5,178.9,200.1,181.9,200.1z"/>
<path class="st7" d="M197.5,205.4c4.6-2.9,7.6-6.3,8.8-10.3"/>
<path class="st7" d="M197.5,205.4c-1.6-6,0.1-12.6,2.3-17.1"/>
<path class="st7" d="M127.9,77.8c1-20.9-6.5-33-15-34c-8.2,0.5-17.2,14.1-17,29.2"/>
<path class="st7" d="M79.8,73.2c24.1-3.5,35.3,7.9,50.3,4.1"/>
<path class="st7" d="M237.3,99.6c-34.4-14.9-67.1-23.2-98.1-24.8"/>
<path class="st7" d="M159.9,76.9c-6.7-39.1-25-51.1-31.7-30.9C114,24.1,95.8,29.1,79.8,73.2c-26.1,7.1-28.1,36-17,47.7
	c33.8,35.1,96.1,4.8,132.6,4.6"/>
<path class="st7" d="M259.1,233.6l2.7,11.2 M266.7,213.1l-14.1-50.5c-0.6-2.1-10.7,0.4-10,2.9l2,8.6l-8,1.7l2,8.3l9.4-2.9l1.3,4.8
	l-6.4,1.2l2.4,8.4l4-1.8l4.2,17.4 M274.6,241.6l-1.8-6.4"/>
<path class="st7" d="M261.8,244.8c-15.1,11-19.2,24.8-12.2,36.2c7.1,11.3,24.8,9.7,29.4-1.9c10.6,4.8,25.3,1.9,25.3-15
	c-0.2-11.3-12.3-21.6-29.5-22.5"/>
<path class="st21" d="M250.5,256.3c-5.3,8.3-5.6,17-0.9,24.6c7.1,11.3,24.8,9.7,29.4-1.9c10.6,4.8,25.3,1.9,25.3-15
	c-0.1-4.6-2.1-9-5.7-12.7"/>
<path class="st7" d="M270.8,251.1c-11.7,4.8-18.3,16.8-13.9,23.9c3.7,7.3,16.9,3.9,19.8-3.3c6.6,3,18.8,3.1,18.8-7.4
	C295.4,257.3,283.5,248.8,270.8,251.1z"/>
<path class="st7" d="M105.5,137.8c-1.4,9.5,4.7,44.4,8.2,57.1c10.4,9.4,45.9,19.2,56.5,15.8c0.2,2.5-5.6,4.1-9.3,5.5"/>
<path class="st7" d="M170.1,211.6c2.6,13.5-26.2,20.6-53.3,11.3"/>
<path class="st21" d="M154,203.8c9.3-10,28.2-20.3,43.3-19.5c10.3,15.5,21.4,40.2-2.7,50.2C174.2,242.2,160.2,220.3,154,203.8
	c-19.8-39.5,14.2-58.9,37.6-39.8"/>
</svg>
