<?xml version="1.0" encoding="utf-8"?>
<!-- Generator: Adobe Illustrator 21.1.0, SVG Export Plug-In . SVG Version: 6.00 Build 0)  -->
<svg version="1.1" id="Layer_1" xmlns="http://www.w3.org/2000/svg" xmlns:xlink="http://www.w3.org/1999/xlink" x="0px" y="0px"
	 viewBox="0 0 360 419" style="enable-background:new 0 0 360 419;" xml:space="preserve">
<style type="text/css">
	.st0{fill-rule:evenodd;clip-rule:evenodd;fill:#FEE9DA;}
	.st1{fill-rule:evenodd;clip-rule:evenodd;fill:#DBEAB4;}
</style>
<path class="st0" d="M359.9,188.2c-2-38.9-33.5-37-34-68.7C324.3,7.5,180.4-21.9,77,82C-18,177.4-23,306.9,50.6,371.6
	c56.1,49.4,102.8,34.7,138,15.1c50.2-27.9-11.2,27,46.7,22.7c53.3-3.9,136.5-57.1,92.1-109.1C294.2,261.6,363.3,253.6,359.9,188.2z"
	/>
<path class="st1" d="M239.2,368.5c7.7-7.8,22,0.4,14.5,16.4c82.9,10-88.7,59.7-114.1,17c-32,19.7-113.4-6-83.2-50.3
	c0.3-0.4,0.3,0.6,0,0c-5-12.1,4.1-10.7,10.1-7.8c-18-20-3.1-21.3,6.1-20.8c14.4,0.8-1.8-8.6,0.1-15.9c2.5-9.4,15.3-10.7,23.2,5.4
	c0.1,0.2-4.1-28.5-0.9-21.7c3.9-12.1,32.3,18.9,65.9,61.8c0,0,3.3-16.1,12.3-12.7c5.5,2.1,10.1,4,9.7,9.5
	c4.9-14.4,18.1-16.2,22.1-7.3c7-17.3,29.3-0.4,14.1,7.5c-1.5,0.8-4.2-3.1-3.6-1.8c1.6,3.5,1.8,10.4,2.4,10.6
	c0.2,0.1,6.5,4.7,6.5,4.7C224.9,362,238.6,350.5,239.2,368.5z"/>
</svg>
