<?xml version="1.0" encoding="utf-8"?>
<!-- Generator: Adobe Illustrator 21.1.0, SVG Export Plug-In . SVG Version: 6.00 Build 0)  -->
<svg version="1.1" id="Layer_1" xmlns="http://www.w3.org/2000/svg" xmlns:xlink="http://www.w3.org/1999/xlink" x="0px" y="0px"
	 viewBox="0 0 360 419" style="enable-background:new 0 0 360 419;" xml:space="preserve">
<style type="text/css">
	.st0{fill-rule:evenodd;clip-rule:evenodd;fill:#FEE9DA;}
	.st1{fill-rule:evenodd;clip-rule:evenodd;fill:#DBEAB4;}
	.st2{fill:none;stroke:#0094D5;stroke-width:1.6999;stroke-linecap:round;stroke-linejoin:round;stroke-miterlimit:22.9256;}
	.st3{fill-rule:evenodd;clip-rule:evenodd;fill:#8ED8F8;}
	.st4{fill-rule:evenodd;clip-rule:evenodd;fill:#FCC826;}
	.st5{fill-rule:evenodd;clip-rule:evenodd;fill:#FABFBF;}
	.st6{fill:none;stroke:#DA7C78;stroke-width:1.6999;stroke-linecap:round;stroke-linejoin:round;stroke-miterlimit:22.9256;}
	.st7{fill-rule:evenodd;clip-rule:evenodd;fill:#E1A836;}
	.st8{fill-rule:evenodd;clip-rule:evenodd;fill:#FFE077;}
	.st9{fill-rule:evenodd;clip-rule:evenodd;fill:#FFF1AB;}
	.st10{fill-rule:evenodd;clip-rule:evenodd;fill:#FFFCE1;}
	.st11{fill-rule:evenodd;clip-rule:evenodd;fill:#D58F5C;}
	.st12{fill:none;stroke:#9A6326;stroke-width:1.6999;stroke-linecap:round;stroke-linejoin:round;stroke-miterlimit:22.9256;}
	.st13{fill-rule:evenodd;clip-rule:evenodd;fill:#FFFFFF;}
	.st14{fill-rule:evenodd;clip-rule:evenodd;fill:#A5C3D2;}
	.st15{fill-rule:evenodd;clip-rule:evenodd;}
	.st16{fill-rule:evenodd;clip-rule:evenodd;fill:#FFE580;}
	.st17{fill-rule:evenodd;clip-rule:evenodd;fill:#F7A1A1;}
	.st18{fill-rule:evenodd;clip-rule:evenodd;fill:#FFF9AE;}
	.st19{fill-rule:evenodd;clip-rule:evenodd;fill:#4D4D4F;}
	.st20{fill:none;stroke:#000000;stroke-width:1.6999;stroke-linecap:round;stroke-linejoin:round;stroke-miterlimit:22.9256;}
	.st21{fill-rule:evenodd;clip-rule:evenodd;fill:#C7EAFB;}
</style>
<path class="st0" d="M359.9,188.2c-2-38.9-33.5-37-34-68.7C324.3,7.5,180.4-21.9,77,82C-18,177.4-23,306.9,50.6,371.6
	c56.1,49.4,102.8,34.7,138,15.1c50.2-27.9-11.2,27,46.7,22.7c53.3-3.9,136.5-57.1,92.1-109.1C294.2,261.6,363.3,253.6,359.9,188.2z"
	/>
<path class="st1" d="M239.2,368.5c7.7-7.8,22,0.4,14.5,16.4c82.9,10-88.7,59.7-114.1,17c-32,19.7-113.4-6-83.2-50.3
	c0.3-0.4,0.3,0.6,0,0c-5-12.1,4.1-10.7,10.1-7.8c-18-20-3.1-21.3,6.1-20.8c14.4,0.8-1.8-8.6,0.1-15.9c2.5-9.4,15.3-10.7,23.2,5.4
	c0.1,0.2-4.1-28.5-0.9-21.7c3.9-12.1,32.3,18.9,65.9,61.8c0,0,3.3-16.1,12.3-12.7c5.5,2.1,10.1,4,9.7,9.5
	c4.9-14.4,18.1-16.2,22.1-7.3c7-17.3,29.3-0.4,14.1,7.5c-1.5,0.8-4.2-3.1-3.6-1.8c1.6,3.5,1.8,10.4,2.4,10.6
	c0.2,0.1,6.5,4.7,6.5,4.7C224.9,362,238.6,350.5,239.2,368.5z"/>
<path class="st2" d="M242.8,292.3c8.5,29.9,20.8,33.7,16.1,59.7"/>
<path class="st3" d="M283.6,110.8l-4.5,1.3c-6.5,13.2,2.6,20.5,1.9,7.9c2.3,10.9,7.6,6.8,3.4,0C292.6,127.5,299.4,122.5,283.6,110.8
	z"/>
<path class="st2" d="M278.2,113.8c-3.7,10.1,2.2,19.4,2.8,6.2c2.3,10.9,7.6,6.8,3.4,0c11,8.5,12.2,0.2-0.8-9.2"/>
<path class="st4" d="M127.1,99c-4-6.8-9.2-11-15.4-12.7l1.5,4.6c-12.9-7.6-31.9,3.6-28.2,24l3.5-3c-1.7,9.9,3.3,15.7,12.8,18.6
	c-5.5,7.6-7.2,17.4-7.1,28.3l4.4-5.4c-9.1,19.1-3,38.2,18.4,57.3c-10.9,6.9-18.2,14.8-23.1,23.2l5.4-0.3
	c-15.6,15.1-24.5,59.9-19,70.6c5.8,0.7,3.9,5.8,13,1.4c-1.6,13.4,0,23.7,4.7,30.8l2-3.5c-1,10.2,2,18.6,9.1,25.2
	c-4.6,7.1-3.9,12.9-0.7,18.1c-15.6,13.1-16,22.1-8,29c0.4,5.7,10.9,8,16.8,4.6c13.8,3.6,24.7-4.2,31.4-28.7
	c4.7-0.9,8.3-4.1,9.5-12.3l5.1,0.4c1.2,6.7,4.9,11.1,11.3,13.3c-7.1,7.1,8.9,30.9,32.7,28.7c12.7,3.2,25.5-4,23.6-14
	c3.9-16.9-14.2-15.4-20.4-25.9c5.9-5.1,9.8-11.3,9.2-20.1c7.4-8,13.5-18.9,16.9-36L238,301l-0.3-11.2c31,16.6,45.1-34.5,9-58.7h4.4
	c-11.6-12.2-23.4-18.1-34.2-21.2c15-12.4,20.7-26.1,17.2-41.1l3,2.4c0.1-5.6-1.7-11-6.1-15.8c2.6-11.5,0.1-22.1-7.3-31.8
	c14.1-1.2,18.7-13.3,14.5-24.3c-4.7-10.5-17.2-15.7-25.2-12l4.2,2.7c-7-1.4-10.9,0-14.3,6.7c-7-6.4-16-10.3-26.9-11.7l3.8-2.3
	c-6.6-1-12.1,0.3-16.5,3.8l6-6.3C148.9,82.8,135.2,89.3,127.1,99z"/>
<path class="st5" d="M211.7,107.9c2.7,6.6,9.3,11.2,14.9,7.9c4.9-3.1,2.7-15-5.6-13.1l3.6-2.8C218.2,96.8,208.3,100.5,211.7,107.9z"
	/>
<path class="st6" d="M211.7,107.9c2.7,6.6,9.3,11.2,14.9,7.9c4.9-3.1,2.7-15-5.6-13.1l3.6-2.8C218.2,96.8,208.3,100.5,211.7,107.9z"
	/>
<path class="st7" d="M127.1,99c-4-6.8,0.4,7.9,0.4,7.9c-15.9-20.7-38.7-8.6-33.4,10.3c-1.2,5.7,2.3,11.2,7.3,13.2
	c-5.5,7.6-7.2,17.4-7.1,28.3l4.4-5.4c-9.1,19.1-3,38.2,18.4,57.3l2.4,1.6c5,4.3-30.3,32.5-39.3,66.2c-0.8,5.3-4.5,24.8,3,31
	c2.5,4.1,5.7,4.5,9.7,1c3.7-0.6,7.7-2.1,11.2-6.5c-1,2-3.2,3.5-4.7,4.6c0.2,20.6,9.8,49.5,16.4,48.2c-3.2,8.1,6.6,17.5,16.8,10.7
	c20.7,27.9-6.7,47.4-32,37.7c0.4,5.7,10.9,8,16.8,4.6c13.8,3.6,24.7-4.2,31.4-28.7c4.7-0.9,8.3-4.1,9.5-12.3l5.1,0.4
	c1.2,6.7,4.9,11.1,11.3,13.3c-7.1,7.1,8.9,30.9,32.7,28.7c12.7,3.2,25.5-4,23.6-14c-16.1,18.3-68.6-3.3-44.6-24
	c7.7-6.5,7.3-13.9,6.7-22.7c-31,21.5-62.5,4.6-63.3-25.6l71.1-27.8l7.4,13.8c16.5-24.4-4.4-48.4-1.6-63.1c8-7.4,9.6-16,4.8-25.7
	l-16.4,10.4c-11.7-12.2-49.5-0.7-60.7-2.7c6.1-4.2,20-6.8,20.5-14.8c-33.1,0.8-54-30.5-36.3-53.1c-11.4-4.8-8.9-31,17.5-53.8
	c5-5.8,27.7-15.6,48-11.5c-1.3-4.8-16.5-13.4-20.9-9.9l6-6.3C148.9,82.8,135.2,89.3,127.1,99z"/>
<path class="st8" d="M199.6,248.2l-59.9-5.3c-16.3,24.2-21.9,52.2-16.1,70.7c10.6,30,49.7,34.2,70,19.2
	C225.8,305.1,206,268.1,199.6,248.2z"/>
<path class="st4" d="M139.7,242.9c1.1-7.5,23-23,34.8-13.6c7.1-4.9,16.7-7.5,29-8c8.9,5,1.8,10.6,0,15l-2.3,10.6
	c-3.1,9.5-8.5,7.8-14.9,21.2C168.5,267.7,139.8,253.9,139.7,242.9z"/>
<path class="st9" d="M131.5,225.2c4.1-16.3,32.3-11.7,44.1-2.3c7.1-4.9,16.7-7.5,29-8c8.9,5,7.8,7.5,6,11.9l-3.6-5.4
	c11.3,22.6-15.7,27.2-22.1,40.6c-3.3-0.9-6.3-3.2-9.1-7.1l0.7,6.6C148.8,254.9,128.1,238.3,131.5,225.2z"/>
<path class="st10" d="M172.1,256.6c-13.6-5.5-23.4-11.2-31.6-18.3C143.6,246.2,163,258.5,172.1,256.6z"/>
<path class="st11" d="M238.2,110.8c-1.4-9.1-5.8-16.8-11.7-21.1C236.1,92.5,240.2,103.1,238.2,110.8z"/>
<path class="st7" d="M229,265.7c-3.8,7.7-0.9,15.9,8.8,24.5c2,22.9-2.9,40.6-12.9,54.4c7.5-22,11.4-40.9,5.4-51.2
	C224.3,281.6,222.9,275.8,229,265.7z"/>
<path class="st5" d="M119,118.2c2.8-5.5-0.3-12.9-5-15.4c0.1,1.3-0.2,2.7-1,4.2c-2.1-7.2-14.2-6.6-15.6,4
	C96.6,119.9,113.3,127.7,119,118.2z"/>
<path class="st6" d="M119,118.2c2.8-5.5-0.3-12.9-5-15.4c0.1,1.3-0.2,2.7-1,4.2c-2.1-7.2-14.2-6.6-15.6,4
	C96.6,119.9,113.3,127.7,119,118.2z"/>
<path class="st12" d="M139.8,244.1c-16.3,24.2-22,50.9-16.2,69.5c10.6,30,49.7,34.2,70,19.2c32.2-27.6,10.4-66.8,6-84.6
	 M204.6,214.9c5.9,2.5,8.9,8.4,6,11.9l-3.6-5.4c12,22.3-15.7,27.2-22.1,40.6c-3.3-0.9-6.3-3.2-9.1-7.1l0.7,6.6
	c-28.1-7-48.7-23.3-45-36.4 M139.6,214.8c18.1-1.7,29.7,2.8,36,8.1c8.8-5.4,19.2-8.4,32.1-8 M158.2,369.7
	c-1.7,6.7-4.9,10.5-9.5,11.3c-6.1,24-17.1,31.9-31.4,28.7c-3.8,3.2-16.5,0.7-16.8-4.6c-7.9-5-7.9-15.3,8-29
	c-3.4-6.3-3.6-12.4,0.7-18.1c-6.9-6.9-9.9-15.3-9.1-25.2l-2,3.5c-4.2-6.7-4.9-15.3-4.2-26.1 M222.5,172.8c1.5,0.3,2.6,2.1,3.3,3.6
	 M116.7,149.3c-2,0-3.8,2.1-4.9,3.8 M115.9,141.6c-2.3,0-3.7,1.4-4.5,2.4 M149.2,233.8c-1.9,1-3,2.8-3.4,4.8 M142.9,226.6
	c-1.8,1.6-1.7,4.9-1.3,7.3 M200,228.8c1.4,0.6,2.7,2.7,2.9,4.5 M195,232.3c0.7,1.8,0.7,4.5,0,5.9 M230.8,316.6
	c0.6-1.7-0.7-4.7-2.3-6 M224.4,321.9c0.7-1.1,0.4-3.5-0.6-4.7 M220.4,332.7c0.4-0.9-0.2-2.5-1-3.2 M105.9,340.3
	c-0.2-1.3,1.2-3.4,2.6-4.2 M115.7,356.7c-0.6-1.7,0.7-4.7,2.3-6 M101.5,324.1c0.1-0.9,1.3-2,2.3-2.3 M110.2,348.6
	c-0.3-1.2,0.7-3.1,1.9-3.9 M227.1,164.4c1.5,0,2.9,1.6,3.8,3 M91.3,310.4c19,1.4,19-31.6,25.9-40.4 M85.6,294
	c-5.1,12.6-2.7,19.2,3.3,18.4c3.6,0.1,3.9-8.8,7.5-13 M117.1,210.6c-9,4.9-17.1,13.6-23.1,23.2l5.4-0.3
	c-16.2,16.6-27.1,63.5-16.1,75.9 M119.5,212.2C97.2,198,90.4,173,98.6,153.4l-4.4,5.4c0-11,1.7-20.9,7.1-28.3 M127.5,106.9
	c0.8-12.1-9.5-18.8-15.9-20.7l1.5,4.6c-12.9-9.4-32.1,4.6-28.2,24l3.5-3c-3.3,11,7.8,20.3,21.1,18.9 M223.8,123.6
	c14.1-1.2,19.1-14.4,14.3-24.3c-4.7-10.8-17.2-15.7-25.2-12l4.2,2.7c-5.7-1.7-10.9,0-14.3,6.7c-7-6.4-16-10.3-26.9-11.7l3.8-2.3
	c-6.6-1-12.1,0.3-16.5,3.8l6-6.3c-20.4,2.5-34,9-42.1,18.8 M210.5,371.2c7.5,12.1,25.4,8,20,27.2c2,6.6-9.7,15.8-23.2,12.6
	c-15.3,3-42.1-17.4-32.7-28.7c-6.4-2.9-10.2-7.4-11.3-13.3"/>
<path class="st12" d="M121.3,396.6c-0.3,4-2,10.2-4,13 M126.2,371.9c-4.3,1.9-10.2,1-11.1-3.5 M176.2,363.7
	c-10.2,7.4-24.9,6.6-35.2-2.2 M206.9,393.7c4.3,7.8,4.4,13.6,0.4,17.2 M219.5,386.5c7.2,4,10.9,8,11.1,11.9 M237.8,290.2
	c1.7,20.9-3.8,46.4-18.1,60.9c0.2,10.2-4.1,18.1-13.9,23 M215.9,114.1c12.7,12,17.3,28.9,15.1,41.4c3.7,5.3,5.7,10.6,6.1,15.8
	l-3-2.4c4.6,14.1-2.3,28.4-17.2,41.1c11.1,4.2,22.9,11.2,34.3,21.2h-4.4c40.4,31.6,16.2,74.9-9,58.7c-8-5.4-12.5-16.8-8.8-24.1
	 M108.3,393.2c-5.9,2.9-7.4,8.5-7.7,11.7"/>
<path class="st13" d="M195.3,158.7c5.4,0,9.7-4.5,9.7-9.9c0-5.5-4.4-9.9-9.7-9.9c-5.4,0-9.7,4.5-9.7,9.9
	C185.5,154.2,189.9,158.7,195.3,158.7z"/>
<path class="st13" d="M153.9,156.1c5.4,0,9.7-4.5,9.7-9.9c0-5.5-4.4-9.9-9.7-9.9c-5.4,0-9.7,4.5-9.7,9.9
	C144.1,151.7,148.5,156.1,153.9,156.1z"/>
<path class="st14" d="M194.5,152.7c-3.3-1.6-4.8-5.5-3.2-8.9c1.5-3.4,5.4-4.8,8.7-3.3c3.3,1.6,4.8,5.5,3.2,8.9
	C201.8,152.8,197.9,154.3,194.5,152.7z"/>
<path class="st14" d="M153.5,150.8c-3.3-1.6-4.8-5.5-3.2-8.9c1.5-3.4,5.4-4.8,8.7-3.3c3.3,1.6,4.8,5.5,3.2,8.9
	C160.8,150.9,156.9,152.3,153.5,150.8z"/>
<path class="st15" d="M198.6,150.1c2.5,0,4.6-2.1,4.6-4.7c0-2.6-2.1-4.7-4.6-4.7s-4.6,2.1-4.6,4.7C193.9,148,196,150.1,198.6,150.1z
	"/>
<path class="st15" d="M157.7,148.3c2.5,0,4.6-2.1,4.6-4.7s-2.1-4.7-4.6-4.7c-2.5,0-4.6,2.1-4.6,4.7S155.2,148.3,157.7,148.3z"/>
<path class="st13" d="M196,150.1c1.1,0,2.1-1,2.1-2.1c0-1.2-0.9-2.1-2.1-2.1c-1.2,0-2.1,1-2.1,2.1
	C193.9,149.2,194.9,150.1,196,150.1z"/>
<path class="st13" d="M155.2,148.3c1.2,0,2.1-1,2.1-2.1c0-1.2-0.9-2.1-2.1-2.1c-1.1,0-2.1,1-2.1,2.1
	C153.1,147.3,154,148.3,155.2,148.3z"/>
<path class="st16" d="M192.7,133.3c-2.6,1.3-5.8-4.7,2.1-6.3c1-0.2,5.4-0.4,5.1,2.9C199.7,131.8,194.8,132.4,192.7,133.3z
	 M139.5,133.4c1.4-2.8,4.3-5.5,8.4-6.1c3.3-0.5,5.6,0.9,5.6,2.6c0,2.5-3.7,2.8-5.4,3c-3.6,0.5-4.9,5.7-6.9,5.6
	C138.3,138.5,138.9,135.1,139.5,133.4z"/>
<path class="st12" d="M192.7,133.3c-2.6,1.3-5.8-4.7,2.1-6.3c1-0.2,5.4-0.4,5.1,2.9C199.7,131.8,194.8,132.4,192.7,133.3z
	 M139.5,133.4c1.4-2.8,4.3-5.5,8.4-6.1c3.3-0.5,5.6,0.9,5.6,2.6c0,2.5-3.7,2.8-5.4,3c-3.6,0.5-4.9,5.7-6.9,5.6
	C138.3,138.5,138.9,135.1,139.5,133.4z"/>
<path class="st7" d="M163.7,193.6l11.5-6.1l11,7C181.7,205.2,167.4,203.7,163.7,193.6z"/>
<path class="st17" d="M167.8,192.4l4-2.2l3.3-2.8l3.4,3.5l3.5,2.2C179,199.7,169.3,198.4,167.8,192.4z"/>
<path class="st16" d="M175.1,187.4l0.1-4.7L175.1,187.4c6.7,9.1,19.5,10.1,25.7,2.2c11.3-17.3-6.5-31.2-26.4-31.7
	c-21.4-0.9-38.8,16.1-28.8,29.4C153.2,197.1,168.4,194.9,175.1,187.4z"/>
<path class="st18" d="M175.2,182.7c3.4,8.3,11.6,13.7,23,9.4c-8.4,4.8-15.1,3.9-23-4.1V182.7z M200.8,189.6
	c11.3-17.3-6.5-31.2-26.4-31.7c-21.4-0.9-38.8,16.1-28.8,29.4C138.6,152.8,215.8,152.4,200.8,189.6z"/>
<path class="st12" d="M153.9,136.3c-5.4,0-9.7,4.4-9.7,9.9c0,5.5,4.4,9.9,9.7,9.9c5.4,0,9.7-4.4,9.7-9.9
	C163.6,140.7,159.2,136.3,153.9,136.3z M195.3,138.8c-5.4,0-9.7,4.4-9.7,9.9c0,5.5,4.4,9.9,9.7,9.9c5.4,0,9.7-4.4,9.7-9.9
	C205,143.3,200.6,138.8,195.3,138.8z M186.2,194.5c-4.6,9.7-18.9,9.8-22.4-0.9 M182,193.1c-2.9,6.3-12.4,5.9-14.2-0.6 M175.2,182.7
	l-0.1,4.7c6.7,9.1,19.5,10.1,25.7,2.2c11.7-16.6-6.5-31.2-26.4-31.7c-23.3-1.2-38.8,16.1-28.8,29.4c7.7,9.9,22.8,7.6,29.6,0.1"/>
<ellipse transform="matrix(1.700664e-02 -0.9999 0.9999 1.700664e-02 2.4707 341.3651)" class="st4" cx="174.8" cy="169.4" rx="7" ry="14.5"/>
<path class="st19" d="M176.6,162.4c-7.7-0.6-14.1,1.5-14.4,4.7c-0.2,3.3,5.8,6.4,13.5,7.1c7.7,0.6,14.1-1.5,14.4-4.7
	C190.3,166.3,184.3,163.1,176.6,162.4z"/>
<path class="st20" d="M176.6,162.4c-7.7-0.6-14.1,1.5-14.4,4.7c-0.2,3.3,5.8,6.4,13.5,7.1c7.7,0.6,14.1-1.5,14.4-4.7
	C190.3,166.3,184.3,163.1,176.6,162.4z"/>
<path class="st2" d="M286,120.9c23.4,76.9-41.9,78.7-42.7,135.3"/>
<path class="st12" d="M232.5,274.2c-5.9-7.1-3-14.7,2.9-16.2 M239.4,267.2c-6.2-4.7-7.2-19.9,14.2-5.6"/>
<path class="st3" d="M292.3,108.9c-42.2,21.6-95.7-19.5-81.3-65.6c6.1-25.2,53.8-60.7,90.9-21.7C338.2,58.1,311.1,101.8,292.3,108.9
	z"/>
<path class="st2" d="M292.3,108.9c-42.2,21.6-95.7-19.5-81.3-65.6c6.1-25.2,53.8-60.7,90.9-21.7C338.2,58.1,311.1,101.8,292.3,108.9
	z"/>
<path class="st21" d="M218,63.5c1.3-13.4,7.1-33.6,19.4-44.9C220.3,27.1,214.8,48,218,63.5z"/>
<path class="st16" d="M262.8,282.1c1.8-9.7,1.7-19.9-1.7-28.1C269.6,261.8,268.6,275,262.8,282.1z M217,122.7
	c6.1,9.7,8.7,21,10.2,31.2C229.6,144.6,226.5,127.8,217,122.7z M86.8,108.7c3.4-7.7,8.4-14.9,14.9-19C91.6,91,86,100.8,86.8,108.7z
	 M205.9,370.9c5.5-7.1,9.5-15.3,9.7-23C220.2,357,214,367.2,205.9,370.9z"/>
<path class="st18" d="M206.1,301.6c-5,15.9-14.5,29-28.4,35.2C193.6,334.6,207.1,316.4,206.1,301.6z"/>
<path class="st4" d="M154.8,172.7c1,0.2,1.6,1.1,1.4,2c-0.2,0.9-1.2,1.5-2.2,1.3c-1-0.2-1.6-1.1-1.4-2
	C152.9,173,153.8,172.5,154.8,172.7z M186.5,176.3c-1,0.2-1.7,1.1-1.5,2c0.2,0.9,1.2,1.5,2.2,1.3c1-0.2,1.7-1.1,1.5-2
	C188.5,176.8,187.5,176.2,186.5,176.3z M161,175.9c1,0.2,1.6,1.1,1.4,2c-0.2,0.9-1.2,1.5-2.2,1.3s-1.6-1.1-1.4-2
	C159,176.2,160,175.7,161,175.9z M192.6,179.1c-1,0.2-1.7,1.1-1.5,2c0.2,0.9,1.2,1.5,2.2,1.3c1-0.2,1.7-1.1,1.5-2
	C194.6,179.5,193.6,178.9,192.6,179.1z M154.8,178.5c1,0.2,1.6,1.1,1.4,2c-0.2,0.9-1.2,1.5-2.2,1.3c-1-0.2-1.6-1.1-1.4-2
	C152.8,178.8,153.8,178.2,154.8,178.5z M192.8,173.3c-1,0.2-1.7,1.1-1.5,2c0.2,0.9,1.2,1.5,2.2,1.3c1-0.2,1.7-1.1,1.5-2
	C194.7,173.8,193.8,173.2,192.8,173.3z"/>
</svg>
