<?xml version="1.0" encoding="utf-8"?>
<!-- Generator: Adobe Illustrator 19.0.0, SVG Export Plug-In . SVG Version: 6.00 Build 0)  -->
<svg version="1.1" id="Layer_1" xmlns="http://www.w3.org/2000/svg" xmlns:xlink="http://www.w3.org/1999/xlink" x="0px" y="0px"
	 viewBox="0 0 378 372.6" style="enable-background:new 0 0 378 372.6;" xml:space="preserve">
<style type="text/css">
	.st0{fill-rule:evenodd;clip-rule:evenodd;fill:#B47B40;}
	.st1{fill-rule:evenodd;clip-rule:evenodd;fill:#C68E4A;}
	.st2{fill-rule:evenodd;clip-rule:evenodd;fill:#D9AF78;}
	.st3{fill-rule:evenodd;clip-rule:evenodd;fill:url(#SVGID_1_);}
	.st4{fill-rule:evenodd;clip-rule:evenodd;fill:url(#SVGID_2_);}
	.st5{fill-rule:evenodd;clip-rule:evenodd;fill:#636466;}
	.st6{fill-rule:evenodd;clip-rule:evenodd;fill:#414042;}
	.st7{fill-rule:evenodd;clip-rule:evenodd;fill:#939598;}
	.st8{fill-rule:evenodd;clip-rule:evenodd;fill:#D58F5C;}
	.st9{fill-rule:evenodd;clip-rule:evenodd;fill:#BCBEC0;}
	.st10{fill-rule:evenodd;clip-rule:evenodd;fill:#EFADAE;}
	
		.st11{fill-rule:evenodd;clip-rule:evenodd;fill:none;stroke:#E88A9F;stroke-width:1.7008;stroke-linecap:round;stroke-linejoin:round;stroke-miterlimit:22.9256;}
	
		.st12{fill-rule:evenodd;clip-rule:evenodd;fill:#FABFBF;stroke:#EA96AD;stroke-width:1.7008;stroke-linecap:round;stroke-linejoin:round;stroke-miterlimit:22.9256;}
	.st13{fill-rule:evenodd;clip-rule:evenodd;fill:#F48580;}
	
		.st14{fill-rule:evenodd;clip-rule:evenodd;fill:#939598;stroke:#000000;stroke-width:1.7008;stroke-linecap:round;stroke-linejoin:round;stroke-miterlimit:22.9256;}
	
		.st15{fill-rule:evenodd;clip-rule:evenodd;fill:#4D4D4F;stroke:#000000;stroke-width:1.7008;stroke-linecap:round;stroke-linejoin:round;stroke-miterlimit:22.9256;}
	.st16{fill-rule:evenodd;clip-rule:evenodd;fill:#FFFFFF;}
	.st17{fill-rule:evenodd;clip-rule:evenodd;fill:#A5C3D2;}
	.st18{fill-rule:evenodd;clip-rule:evenodd;}
	
		.st19{fill-rule:evenodd;clip-rule:evenodd;fill:none;stroke:#000000;stroke-width:1.7008;stroke-linecap:round;stroke-linejoin:round;stroke-miterlimit:22.9256;}
</style>
<path class="st0" d="M31.4,312.2c7-8.1,3-26.5,15.4-32.1l13.3,30l-3.6,28.5l-43.6-15C11.9,315.5,26.4,318.2,31.4,312.2z"/>
<polygon class="st1" points="21.1,79.1 15.1,95.9 56.5,345.8 65.3,348.9 45.8,186.5 "/>
<polygon class="st2" points="21.1,79.1 165,78.4 211.8,315.2 65.3,348.9 "/>
<linearGradient id="SVGID_1_" gradientUnits="userSpaceOnUse" x1="114.2736" y1="205.0924" x2="79.8273" y2="84.3276">
	<stop  offset="0" style="stop-color:#C7EAFB"/>
	<stop  offset="1" style="stop-color:#FFFFFF"/>
</linearGradient>
<polygon class="st3" points="32.5,89.4 157.2,86.7 200.6,308.6 74.8,335.7 "/>
<linearGradient id="SVGID_2_" gradientUnits="userSpaceOnUse" x1="143.0665" y1="242.8466" x2="45.2795" y2="20.7276">
	<stop  offset="0" style="stop-color:#A7A9AC"/>
	<stop  offset="1" style="stop-color:#FFFFFF"/>
</linearGradient>
<path class="st4" d="M101.4,321.6c-11.5-14.8-18.3-32.9-18.3-56c-4.3-1.9-6.2-5.1-5.5-9.7c-0.7-2.3-0.8-4.2-0.4-6.6
	c-13.6-16.4-7.8-32.2,15.5-44.1c1.2-2,2.8-3.9,4.6-5.6l0,0c-7.9-7.1-13.9-17.8-16.2-29.7c0.5-3,1.8-5.8,4.1-8.5
	c-1.9,0.3-3.4,1.2-4.6,2.6c0.8-7.4,3.4-13.6,8.4-17.9c-1.2-11.6,2.1-23.1,8.8-32.5l0,0c-3.3-2-5.3-5.8-5.3-12.2l1.8,1.8
	c-1.7-4.9-1.1-10.7,1.8-15.1l22.2-0.5c1.4,2.4,2,5.2,1.4,8.4l0,0c0.7-0.3,1.4-0.6,2.1-0.8l-4.2,6.5c3-4.9,7.4-7.5,13.3-7.9l-2,2
	c10.1-0.1,17.9,4.5,23.7,13c0.1,0.2,0.3,0.4,0.4,0.6c2-4,4.4-6.6,7.1-8.2l13.7,69.8c-0.5,2.3-1,4.6-1.7,6.8c-1.6,6-4.2,12.4-8.3,18
	c-0.7,1.1-1.5,2.1-2.3,3.1l0,0c21.9,26.3,28.2,46.7,15.8,60c2.4,1.5,2.9,3.8,1.7,6.8c0.4,4.9-2.7,9.5-9.2,13.7
	c1,11.3-1.8,20.8-8.4,28.6c0.6,3.3,1,6.2,1.2,8.8L102,329.8C101.6,327.7,101.4,325,101.4,321.6z"/>
<path class="st5" d="M203.4,309.2c-16.5-17.2-26.3-38.4-26.3-65.2c-6.2-2.2-8.9-6-7.9-11.3c-1-2.7-1.1-4.9-0.6-7.7
	c-19.6-19.1-11.1-37.5,22.3-51.4l78.7,4.1l20.2-11.4c31.4,30.7,40.5,54.5,22.7,69.9c3.4,1.8,4.2,4.4,2.4,7.9c0.6,5.7-3.8,11-13.2,16
	c1.4,13.2-2.6,24.3-12,33.4c3.5,15.8,2.1,24-2.7,26.9c6.1,12.1,22.4,15.8,25.8,26.1c1.9,6,0.1,10-3.4,13.1c-2,3.9-6.5,6.1-13.4,6.5
	c-16.4,6-39.5-17.8-42.4-38.6l-6-5.3l-3.7,9.5c4.1,20.7-36.7,30.9-43.1,22c-4.6,1.1-14,0.4-14.5-6.2c-8.4-4.3-5.3-12.7-1-15.2
	c5.4-3.9,19.4-1.3,22.4-6.5C205.1,323,203.3,318.3,203.4,309.2z"/>
<path class="st6" d="M227.6,304.3l11.2,6.6l8.8,11.2l6,5.3c16.1,24.2,30.1,34.8,41.9,31.7c35.2-11-14.6-25.4-16.8-37.9
	c-2.8-9.3-7.7-23.7-22.1-23.2c-25.9,3.5-47.2-4.5-61.6-29.7l0.4-57l-3.5-4.9c-9.6,10.7-14.5,23.2-14.8,37.4c-6.2-2.2-8.9-6-7.9-11.3
	c-1-2.7-1.1-4.9-0.6-7.7c-13.1-24.5,4.8-33.6,20.7-40.9l12-1.2l13.5,39.6l62.8,27.7l6.1,6.3c25.9,3.8,26.6-13.4,16.8-14.4
	c15.8-19.6-8.1-60.7-19.1-54.5c-4.8,2.8-12.6,8.7-20.1,11.1l8.3-21.1l20.2-11.4c31.4,30.7,40.5,54.5,22.7,69.9
	c3.4,1.8,4.2,4.4,2.4,7.9c0.6,5.7-3.8,11-13.2,16c1.4,13.2-2.6,24.3-12,33.4c3.5,15.8,2.1,24-2.7,26.9c6.1,12.1,22.4,15.8,25.8,26.1
	c1.9,6,0.1,10-3.4,13.1c-2,3.9-6.5,6.1-13.4,6.5c-16.4,6-39.5-17.8-42.4-38.6l-6-5.3l-3.7,9.5c4.1,20.7-36.7,30.9-43.1,22
	c-4.6,1.1-14,0.4-14.5-6.2c-8.4-4.3-5.3-12.7-1-15.2c4.9,28.3,51.6,5.7,50.9-2.8C233.6,326.8,227.5,313.4,227.6,304.3z"/>
<path class="st7" d="M195.4,211.4c-10.7,16.8-13.2,33.9-7.6,51.1l2.9-5.5c12.7,52.1,79.9,36.4,86.9-6.9c-4.6-7-5.5-14.1-2.8-21.1
	c-0.8-9.2-4.2-19.1-13.5-30.4L195.4,211.4z"/>
<path class="st8" d="M261.3,198.6l-65.9,12.8L261.3,198.6z"/>
<path class="st5" d="M261.3,198.6l-65.9,12.8c-1.6,7.6,10.5,13.7,13.1,20.1C222.7,221.8,251.9,214,261.3,198.6L261.3,198.6z"/>
<path class="st9" d="M269.6,177.6l-72-10.6c-7.1,5.2-10.9,12.2-11.1,17.9c1.5-3,3.6-4.7,6.2-5.1c-12.1,12.1-3.6,26.8,12.5,42.5
	c-0.7-3.5-0.2-6.3,1.4-8.4c1.4,5.2,2.2,9.1,2.7,12.5C229.4,210.1,272.3,207.9,269.6,177.6z"/>
<path class="st6" d="M229.8,46.2l-31.5,20.5c-4.8-2.3-7.6-6.7-7.6-14.3l2.6,2.1c-4.1-9.4,1-21.4,14.6-24.8
	C219.3,26.9,232.3,35.1,229.8,46.2z"/>
<path class="st10" d="M222.3,49.2L203.9,61c-4.5-4.8-2.9-11.3,0.6-15.2l1.4,3.5C207.2,41.4,218.1,39.8,222.3,49.2z"/>
<path class="st11" d="M203.9,61c-4.5-4.8-2.9-11.3,0.6-15.2l1.4,3.5c1.2-7.9,12.2-9.6,16.3-0.2"/>
<path class="st5" d="M204.9,171.5c29.7,11.4,49.2,9.1,65.4,5.7c27.7-4.6,47-52.2,35.3-71.5l5,3c0.2-5.1-2.8-9.5-7.6-14.6
	c7.4-3.4,11.2-8.7,9.4-16.9l2.2,6C324,64.6,306.9,47.9,289,55l4.9-4.5c-6.4,1.1-12,4.5-16.3,11.4c-8.5-10.4-19.9-16-34.7-15.9
	l2.9-2.4c-8.4,0.4-14.7,3.5-19.1,9.2l6-7.6c-31.1,9.3-50.2,34.2-47.1,59.3c-7.3,5.1-10.9,12.3-12.1,20.9c1.8-1.6,4-2.7,6.7-3
	c-3.3,3.1-5.2,6.4-5.9,9.9C178.2,149.1,190,163.6,204.9,171.5z"/>
<path class="st6" d="M204.9,171.5c29.7,11.4,49.7,11.2,65.4,5.7c35.6-12.1,38.1-48.2,38.7-58c0.4-4.7-0.2-9.3-3.4-13.5l5,3
	c0.2-5.1-1.2-10.3-5.9-15.5c-10.3,1-7.8-10.3-2.7-17.1l2.2,6c10.1-15.5-2.8-27-17.9-21.2l4.9-4.5c-4,1-9.4,2-13.5,5.5
	c-10-12.6-39.6-18.6-53.3-6.3c20.8-3.9,43.5,7.4,50.1,25.6c8.9,9.3,7.2,37.4-11.1,45.1C305.7,159.8,261.2,192.6,204.9,171.5z"/>
<path class="st12" d="M291.6,74.7c0.4-2.9,1.5-5.5,4-7.4c-5.3,1.2-13.5,6.4-9,14.6c3.3,6.8,14.5,7.8,18.3-1.3
	C308.8,70.9,298.3,65,291.6,74.7z"/>
<path class="st13" d="M223.5,151.3l-4.9-5.3l-4.7,1.8C213.5,155.8,220.7,156.1,223.5,151.3z"/>
<path class="st14" d="M218.6,146c7.5,11.6,25.6,12.7,33,2.5c8.5-12.9-4.2-29.5-25.4-31.5c-17.2-1.7-30.1,4.4-30.5,16.3
	C195.2,147.6,211.4,150.2,218.6,146z"/>
<path class="st14" d="M204.4,86.8c2.8-1.6,6-2.8,10.4-1.2c2.5,1.1,4.1-2.2,2.5-3.7c-3.9-3.6-10.4-3.7-15.1,1.5
	C200.9,85.1,202.1,87.9,204.4,86.8L204.4,86.8z M267.8,101.9c-0.9-3.1-2.5-6.2-6.8-7.9c-2.6-0.9-1.8-4.8,1.5-4.8
	c5.8,0.2,9.9,5.6,9.2,11.8C271.5,103,268.7,104.3,267.8,101.9z"/>
<path class="st15" d="M221,132.4c-6.6-2.2-11.7-7.2-10.3-10.2c3-4.3,27.7-1.2,25.7,6.3C235.2,131.7,225.9,133.3,221,132.4z"/>
<path class="st16" d="M211.8,94.4c5.1,0.5,9.1,5.1,8.8,10.4c-0.3,5.2-4.7,9.1-9.9,8.6c-5.1-0.5-9.1-5.1-8.8-10.4
	C202.3,97.7,206.7,93.9,211.8,94.4z"/>
<path class="st16" d="M252.5,101.7c5.4,0.5,9.5,5.4,9.2,10.9c-0.3,5.5-5,9.5-10.4,9c-5.4-0.5-9.5-5.4-9.2-10.9
	C242.4,105.2,247.1,101.1,252.5,101.7z"/>
<path class="st17" d="M213.1,99.9c3.4,1.6,4.9,5.7,3.4,9.2c-1.6,3.5-5.6,5-9,3.4c-3.4-1.6-4.9-5.7-3.4-9.2
	C205.7,99.8,209.7,98.3,213.1,99.9z"/>
<path class="st17" d="M253.9,107.5c3.6,1.7,5.2,6,3.5,9.7s-5.9,5.3-9.5,3.6c-3.6-1.7-5.2-6-3.5-9.7
	C246,107.4,250.3,105.8,253.9,107.5z"/>
<path class="st18" d="M208.7,112.1c2.3,0,4.2-1.9,4.2-4.2s-1.9-4.2-4.2-4.2c-2.3,0-4.2,1.9-4.2,4.2S206.4,112.1,208.7,112.1z"/>
<path class="st18" d="M249.2,120.3c2.4,0,4.4-2,4.4-4.4c0-2.4-2-4.4-4.4-4.4c-2.4,0-4.4,2-4.4,4.4
	C244.8,118.4,246.8,120.3,249.2,120.3z"/>
<path class="st16" d="M212.1,104.3c1,0.2,1.7,1.1,1.5,2.1c-0.2,1-1.2,1.6-2.2,1.4c-1-0.2-1.7-1.1-1.5-2.1
	C210.1,104.7,211.1,104.1,212.1,104.3z"/>
<path class="st16" d="M252.8,112.1c1.1,0.2,1.8,1.2,1.6,2.2c-0.2,1-1.2,1.7-2.3,1.5c-1.1-0.2-1.8-1.2-1.6-2.2
	C250.7,112.5,251.7,111.9,252.8,112.1z"/>
<path class="st19" d="M224.6,300.6c4.9,7.3,11.7,11,20.3,11 M309.3,359.4c-3.1,4.5-7.6,6.7-13.4,6.5 M242.9,46
	c15.6-0.3,27.8,6.8,34.7,15.9 M198.2,66.7c-4.8-2.3-7.6-6.7-7.6-14.3l2.6,2.1c-4.1-9.4,1-21.4,14.6-24.8
	c11.5-2.9,24.5,5.2,21.9,16.4 M180.7,127.6c-1.2-0.4-2.7,0.5-3.8,1.3 M206.8,200.2c0.5-0.5,0.6-1.9,0.2-2.6 M201.6,191.5
	c-1,1.3-1.7,3.3-1.6,4.6 M198.6,187.5c-1.2,0.1-2.8,1.4-3.5,2.7 M245.4,195.6c1,1.7,0,4.3-0.9,6.1 M238.7,199.6
	c1.2,1.3,1.6,2.9,1.4,4.7 M283.8,141.7c1.8,0.6,2.5,2,2.9,3.1 M281.1,147.5c1.5,0.5,2.4,2.6,2.8,4.2 M182.1,135.3
	c-1.3-0.2-2.6,1-3.5,1.9 M304.7,93.2c4.3,4,6,9.3,5.9,15.5l-5-3c3.2,3.6,4.1,10.7,3.5,15.9 M274.6,68.1c2.2-8,9.6-15.6,19.3-17.7
	L289,55c17.7-8.7,35.1,10.6,25.6,28.1l-2.2-6 M211.3,148.2c-1.4,11.5,9.4,14.8,15.5,5 M197.6,166.9c-7.1,5.2-10.9,12.2-11.1,17.9
	c1.5-3,3.6-4.7,6.2-5.1c-12.1,12.1-3.6,26.8,12.5,42.5c-0.7-3.5-0.2-6.3,1.4-8.4c1.4,5.2,2.2,9.1,2.7,12.5
	c20.1-16.2,63-18.4,60.3-48.7 M191,173.5c-36.9,15-43.4,35.2-16.5,56.6 M169.2,232.6c-0.7,6.4,2.7,9.6,7.9,11.3 M289.8,166.1
	c41.4,42.2,40.5,65.5,10.7,75.9 M277.4,224.1c-10.5,14.8,1.4,40,24.3,35.9c7.1-2.2,13.2-8.2,13.2-16 M281,300.8
	c0.3-1.1-0.7-3-1.8-3.7 M289.3,277.1c-0.1-0.8-1.2-1.9-2.2-2.2 M275.7,308.5c0.6-1.6-0.6-4.5-2.2-5.8 M285.2,292.7
	c0.2-1.3-1.1-3.3-2.5-4 M173.5,222.6c-0.3-0.8,0.2-2.4,1-3.1 M169.7,212.2c-0.7-1.1-0.4-3.4,0.5-4.5 M163.5,207
	c-0.6-1.6,0.6-4.5,2.2-5.8 M288.7,289.9c5.9,23.3,2.5,33.8-10,31.3 M287,320.2c5.5,11.8,23,16,25.8,26.1c1.6,5.7,0.5,10.1-3.4,13.1
	c1.2-3.4,0-8.1-5.2-11.4 M238.7,310.9c4.9,7.4,9.9,12.9,14.8,16.6c4.6,30.5,34.9,44.9,42.4,38.6c0.9-3.7-0.2-8.9-4.5-12.4
	 M200.8,353.6c7.6,10.7,48.3-5.1,43.1-22c1.7-2,2.9-5.2,3.7-9.5 M189.1,336.7c-2.8,2.9-3.7,6.4-2.8,10.7c-8.4-4.3-5.3-12.7-1-15.2
	c5.4-3.9,19.4-1.3,22.4-6.5c-2.6-2.7-4.4-7.4-4.3-16.5 M261.5,110.1c0.8,5.5-2.9,10.6-8.2,11.4c-5.3,0.8-10.2-3-11-8.5
	c-0.8-5.5,2.9-10.6,8.2-11.4C255.8,100.8,260.7,104.6,261.5,110.1L261.5,110.1z M220.4,102.4c0.8,5.2-2.7,10.1-7.7,10.8
	c-5,0.8-9.7-2.9-10.5-8.1s2.7-10.1,7.7-10.8C214.9,93.6,219.6,97.2,220.4,102.4z"/>
<path class="st19" d="M312.4,77.1c2.7,8.3-5.8,18.9-20.1,19.9 M301.7,260c0.6,15.7-3.4,26.8-12,33.4 M312.5,236.1
	c5.5,2.7,5.8,11.5-8.5,10.4 M261.3,198.6c7.7,8.1,11.7,19.2,13.5,30.4 M195.4,211.4c-12.1,18.2-13.5,35.1-7.6,51.1l2.9-5.5
	c12.7,50.6,79.6,37.8,86.9-6.9 M202.9,340.8c-4.1,3.7-4,8.1-2.1,12.7c-6.2,1.6-13.1-0.7-14.5-6.2 M191.9,206.5
	c-36.9,40.3,4.9,110.5,19.6,104.9 M168.6,224.9c-1.8,5.4,1.1,10.5,6.3,13 M210.3,174c51.7,15,94.9,2.4,98.8-52.4 M213.9,147.8
	c-0.4,8,6.8,8.4,9.6,3.5 M238.4,51.5c2-3.2,4.5-5.9,7.3-7.9c-8.4,0.4-14.7,3.5-19.1,9.2l6-7.6c-31.1,9.3-50.2,34.2-47.1,59.3
	c-7.3,5.1-10.9,12.3-12.1,20.9c1.8-1.6,4-2.7,6.7-3c-3.3,3.1-5.2,6.4-5.9,9.9c3.9,16.8,15.7,31.3,30.7,39.2"/>
<path class="st5" d="M236,135.2c1.3,0,2.3,1,2.3,2.3s-1,2.3-2.3,2.3c-1.3,0-2.3-1-2.3-2.3S234.7,135.2,236,135.2L236,135.2z
	 M206.8,135.9c1.2,0,2.2,1,2.2,2.2c0,1.2-1,2.2-2.2,2.2c-1.2,0-2.2-1-2.2-2.2C204.6,136.8,205.6,135.9,206.8,135.9L206.8,135.9z
	 M209.2,128.9c1.2,0,2.1,0.9,2.1,2.1c0,1.2-0.9,2.1-2.1,2.1c-1.2,0-2.1-0.9-2.1-2.1C207.1,129.9,208.1,128.9,209.2,128.9
	L209.2,128.9z M202.2,129.7c1.3,0,2.3,1,2.3,2.3s-1,2.3-2.3,2.3c-1.3,0-2.3-1-2.3-2.3S200.9,129.7,202.2,129.7L202.2,129.7z
	 M238.4,143.7c1.4,0,2.5,1.1,2.5,2.5c0,1.4-1.1,2.5-2.5,2.5c-1.4,0-2.5-1.1-2.5-2.5C235.9,144.9,237,143.7,238.4,143.7L238.4,143.7z
	 M245.2,137.4c1.3,0,2.3,1,2.3,2.3s-1,2.3-2.3,2.3s-2.3-1-2.3-2.3S243.9,137.4,245.2,137.4z"/>
<path class="st7" d="M186.9,277.3c3,9.8,15.8,26.3,24.5,31.5C203.4,310.8,187.3,287.9,186.9,277.3L186.9,277.3z M208.3,64.2
	c-8.3,6-13.6,14.7-17.3,26.6C191,77.2,196.9,67.5,208.3,64.2L208.3,64.2z M276.7,231.2c-0.4,7.5,2.1,14.5,7.2,22.1
	C276.1,247,273.3,239.2,276.7,231.2z"/>
<path class="st5" d="M193.6,50.8c2.4-8,7.2-14.4,15.1-18.6C199.1,33,193.1,41.1,193.6,50.8z"/>
<path class="st9" d="M252.7,278.8c-28.9,10.1-49.6-2-56.7-19.1C198.2,284.2,232.2,291.9,252.7,278.8z"/>
</svg>
