<?xml version="1.0" encoding="utf-8"?>
<!-- Generator: Adobe Illustrator 19.0.0, SVG Export Plug-In . SVG Version: 6.00 Build 0)  -->
<svg version="1.1" id="Layer_1" xmlns="http://www.w3.org/2000/svg" xmlns:xlink="http://www.w3.org/1999/xlink" x="0px" y="0px"
	 viewBox="0 0 378 372.6" style="enable-background:new 0 0 378 372.6;" xml:space="preserve">
<style type="text/css">
	.st0{fill-rule:evenodd;clip-rule:evenodd;fill:#F8E9D6;}
	.st1{fill-rule:evenodd;clip-rule:evenodd;fill:#E6E7E8;}
</style>
<path id="XMLID_14_" class="st0" d="M80.6,163.9l-6-69.3c5.4-37.9,29.2-58,67.6-63.1c73.9-9.9,103.6-55.9,165.9-14.4
	c85,56.6-4.3,116.5,47.8,168.6c47.8,47.8,3.6,62.2,0,85.7c-2.1,13.9,23.9,29.7,8.1,55c-17.9,28.8-82.5,43-145.2,29.5
	C123.8,335.4,78.5,261.8,80.6,163.9z"/>
<path id="XMLID_16_" class="st1" d="M163,316.4c0.9-9.9-14.5,8.5-17.1,19.8c-4.7,19.6,22.3,31.5,54.1,28c20-2.2,40.6-7.5,51.6,0
	c15.1,10.2,44.3,12,53-0.3c13.3-18.7-46-48.5-55.9-52.9c-8.1-3.6-45.1-4.5-55-2.7c-3.6,0-18.9,4.5-19.8,5.4
	C171.1,316.4,161.2,323.6,163,316.4z"/>
</svg>
