<?xml version="1.0" encoding="utf-8"?>
<!-- Generator: Adobe Illustrator 21.1.0, SVG Export Plug-In . SVG Version: 6.00 Build 0)  -->
<svg version="1.1" id="Layer_1" xmlns="http://www.w3.org/2000/svg" xmlns:xlink="http://www.w3.org/1999/xlink" x="0px" y="0px"
	 viewBox="0 0 486 396" style="enable-background:new 0 0 486 396;" xml:space="preserve">
<style type="text/css">
	.st0{fill-rule:evenodd;clip-rule:evenodd;fill:#E1F4FD;}
	.st1{fill-rule:evenodd;clip-rule:evenodd;fill:#DBEAB4;}
	.st2{fill-rule:evenodd;clip-rule:evenodd;fill:#CAE197;}
</style>
<path class="st0" d="M385.5,370.7L25.6,194.8C1.3,141.3,14.9,52.8,94.8,13.5c77-37.8,136.3,16.9,221.9,17.1
	C513.6,31.1,541.6,303.7,385.5,370.7z"/>
<path class="st1" d="M276.6,166.7c7.3-17.3,41-14.4,39.3,15.6c17.7-4.8,28.2,7.2,23.9,26.2l4.3,26.6l35.6,46.9l21.9,56.3
	c27,47.2-112.6,64.8-126.5,6.8c-0.2-0.7-5.5,19.7-25,11.6c0.6,46.8-127.2,55.1-185,5.3c-50.3,0.9-27.9-34.5-8.4-40.8
	c0.8-0.3,1.1-0.4,0,0c-26.9,9.4-58.2-11.2-38-32.2c-10.2,9.6,35-31.3-11.7-20.8c-19,4.3,8.1-18.7,8.1-18.7
	c-8.1-6.4-6.4-18.2,5.6-22.7c-17.9-9.6-11.6-41.2,6.9-44.2c-10-14.1,3.6-22,14.2-18.1c0,0,0.7-26.3,17.3-26.6
	c10.1-0.2,12.7-1.4,15.6,7.5c-1.4-25.8,118.9-27.2,122.1-3.9c17.6-21.2,40.6-7.3,36.2,8c-0.8,2.8,7.5,0,10.6,5.4
	c2.9,5.1-2.8,11-1.6,11c4.4-0.1,2.1,1.2,3.8,4c2.5-2.2,6.1-3,11.6-0.3c2.1,1.1,5.4-11,10.8-9.4C268,160.3,276,163.1,276.6,166.7z"/>
<path class="st2" d="M137.1,383.9c40.3,0,73.1-12.6,73.1-28.1s-32.9-28.1-73.1-28.1S64,340.3,64,355.8S96.8,383.9,137.1,383.9z"/>
<path class="st2" d="M36.4,148.5c-4.6-1.5-12.8-14.4-8.1-14.8C35.6,133,38.7,145.7,36.4,148.5z M39.2,157.8
	c-4.9,6.5-12.8-1-17.7-4.7l-0.7-0.6l0.6-0.7C25.6,149.6,37,153.3,39.2,157.8z"/>
<path class="st2" d="M283.5,149.4c-1.8-7.3,3.2-7.4,8.9-10.3C293.9,138.5,291.9,151,283.5,149.4z M277.3,159.5
	c-7.1-2.5-7-9.6-10-15.6c0,0-1.6-1.2-0.5-1.2C276.9,142.7,279.6,152.5,277.3,159.5z"/>
</svg>
