<?xml version="1.0" encoding="utf-8"?>
<!-- Generator: Adobe Illustrator 21.1.0, SVG Export Plug-In . SVG Version: 6.00 Build 0)  -->
<svg version="1.1" id="Layer_1" xmlns="http://www.w3.org/2000/svg" xmlns:xlink="http://www.w3.org/1999/xlink" x="0px" y="0px"
	 viewBox="0 0 486 396" style="enable-background:new 0 0 486 396;" xml:space="preserve">
<style type="text/css">
	.st0{fill-rule:evenodd;clip-rule:evenodd;fill:#E1F4FD;}
	.st1{fill-rule:evenodd;clip-rule:evenodd;fill:#DBEAB4;}
	.st2{fill-rule:evenodd;clip-rule:evenodd;fill:#CAE197;}
	.st3{fill-rule:evenodd;clip-rule:evenodd;fill:#A66D3F;}
	.st4{fill:none;stroke:#823436;stroke-width:1.7011;stroke-linecap:round;stroke-linejoin:round;stroke-miterlimit:22.9256;}
	.st5{fill-rule:evenodd;clip-rule:evenodd;fill:#F9A870;}
	.st6{fill-rule:evenodd;clip-rule:evenodd;fill:#A16044;}
	.st7{fill-rule:evenodd;clip-rule:evenodd;fill:#E6E7E8;}
	.st8{fill-rule:evenodd;clip-rule:evenodd;fill:#BB7446;}
	.st9{fill-rule:evenodd;clip-rule:evenodd;fill:#D58F5C;}
	.st10{fill-rule:evenodd;clip-rule:evenodd;fill:#EBB081;}
	.st11{fill-rule:evenodd;clip-rule:evenodd;fill:#FFFFFF;}
	.st12{fill-rule:evenodd;clip-rule:evenodd;fill:#FFFCD5;}
	.st13{fill-rule:evenodd;clip-rule:evenodd;fill:#F48580;}
	.st14{fill-rule:evenodd;clip-rule:evenodd;fill:#F7A1A1;}
	.st15{fill-rule:evenodd;clip-rule:evenodd;fill:#FABFBF;}
	.st16{fill:none;stroke:#DA7C78;stroke-width:1.7011;stroke-linecap:round;stroke-linejoin:round;stroke-miterlimit:22.9256;}
	.st17{fill:none;stroke:#A7A9AC;stroke-width:1.7011;stroke-linecap:round;stroke-linejoin:round;stroke-miterlimit:22.9256;}
	.st18{fill:none;stroke:#EB4E45;stroke-width:1.7011;stroke-linecap:round;stroke-linejoin:round;stroke-miterlimit:22.9256;}
	.st19{fill-rule:evenodd;clip-rule:evenodd;fill:#A5C3D2;}
	.st20{fill-rule:evenodd;clip-rule:evenodd;}
	.st21{fill:none;stroke:#823436;stroke-width:1.7012;stroke-linecap:round;stroke-linejoin:round;stroke-miterlimit:22.9256;}
	.st22{fill-rule:evenodd;clip-rule:evenodd;fill:#4D4D4F;}
	.st23{fill:none;stroke:#000000;stroke-width:1.7011;stroke-linecap:round;stroke-linejoin:round;stroke-miterlimit:22.9256;}
	.st24{fill-rule:evenodd;clip-rule:evenodd;fill:#F3AD34;}
	.st25{fill-rule:evenodd;clip-rule:evenodd;fill:#E2A64D;}
	.st26{fill:none;stroke:#ED1651;stroke-width:8.5056;stroke-linecap:round;stroke-linejoin:round;stroke-miterlimit:22.9256;}
</style>
<path class="st0" d="M385.5,370.7L25.6,194.8C1.3,141.3,14.9,52.8,94.8,13.5c77-37.8,136.3,16.9,221.9,17.1
	C513.6,31.1,541.6,303.7,385.5,370.7z"/>
<path class="st1" d="M276.6,166.7c7.3-17.3,41-14.4,39.3,15.6c17.7-4.8,28.2,7.2,23.9,26.2l4.3,26.6l35.6,46.9l21.9,56.3
	c27,47.2-112.6,64.8-126.5,6.8c-0.2-0.7-5.5,19.7-25,11.6c0.6,46.8-127.2,55.1-185,5.3c-50.3,0.9-27.9-34.5-8.4-40.8
	c0.8-0.3,1.1-0.4,0,0c-26.9,9.4-58.2-11.2-38-32.2c-10.2,9.6,35-31.3-11.7-20.8c-19,4.3,8.1-18.7,8.1-18.7
	c-8.1-6.4-6.4-18.2,5.6-22.7c-17.9-9.6-11.6-41.2,6.9-44.2c-10-14.1,3.6-22,14.2-18.1c0,0,0.7-26.3,17.3-26.6
	c10.1-0.2,12.7-1.4,15.6,7.5c-1.4-25.8,118.9-27.2,122.1-3.9c17.6-21.2,40.6-7.3,36.2,8c-0.8,2.8,7.5,0,10.6,5.4
	c2.9,5.1-2.8,11-1.6,11c4.4-0.1,2.1,1.2,3.8,4c2.5-2.2,6.1-3,11.6-0.3c2.1,1.1,5.4-11,10.8-9.4C268,160.3,276,163.1,276.6,166.7z"/>
<path class="st2" d="M137.1,383.9c40.3,0,73.1-12.6,73.1-28.1s-32.9-28.1-73.1-28.1S64,340.3,64,355.8S96.8,383.9,137.1,383.9z"/>
<rect x="49.8" y="240.8" class="st3" width="84.2" height="39.7"/>
<rect x="49.8" y="240.8" class="st4" width="84.2" height="39.7"/>
<path class="st5" d="M87.1,272.8c-11.5,0.7-22.6-1.2-33.4-5.8l-0.8-11.8l1-6.8l14.9,1.4C80.8,253.3,87.1,264.3,87.1,272.8z"/>
<path class="st6" d="M426.7,320.2l8.1-41.7l2.9,2.9c9.4,6.1,9.8,17.2,4.8,25.1l5-3.1C445.5,311.6,438.7,317.6,426.7,320.2z"/>
<path class="st7" d="M123.5,265.1l-19.1,5.9l-17.3,1.9l-2.4-8.3l-1-3.5c8-3.5,14-1.3,21.2,3.5c2,1.3,0.8,0,3.2-1.6
	C117.3,256.7,123.5,265.3,123.5,265.1z"/>
<path class="st8" d="M279.6,209.7l13.5,30.1l8.6-2.5c-4.5,5.2-6.5,11.2-5.9,17.9l3.8-4.8c-8.6,25.5-4.2,47.4,11.1,66.2
	c-3.7,10.7,8.5,19.2,2.2,23.7c-14.5,6.1-19.4,13-10,21.1c1.7,4.9,8.2,5.8,16.7,4.8c24.2,6.1,43.7-9.3,37-23c2.8-1.6,5.2-4.1,7.1-7.4
	h5c0.2,7.8,3.8,13.2,8.9,17.6c-4.2,8.7-13.8,10.1-15,16.1c-0.2,6.2,2.8,8.8,7.3,9.8c1.8,4.9,7.1,5.5,14,4.2c10.4,6.6,36.7-4,42-26.3
	c4-14.1-10.2-19.2,0.6-37.1c6.8-12.8,9.8-26.7,8.1-41.7l2.9,2.9l-0.1-9.6l-1.9-9.4c3.4-7.7,4.2-15.2,1.1-22.3l3.8,2.3
	c0.2-21.9-9-41.4-26.1-59.2c17.1-17.1,23.9-36,20.5-56.8l2.7,3.8c0.3-9.5-1.2-18.4-6.4-25.9l4.1-3.2l2.4-5l0.7,4
	c13.7-7.7,7.8-33.9-6.4-34.7l6.2-1.5c-11.9-5.5-20.7-3.4-26.3,6.3l0.2-5.6c-4.5,3-7.4,6.6-8.7,10.8c-7.6-8.5-17.6-13.9-31.2-15
	l3.3,4c-4-3.6-9.2-5.4-15.5-5.4l3.3,3.5c-13.7-0.8-24.2,3.1-32.7,10.4l-5.3-3.7l-7.2-0.7l4.2-1.9c-11.7-5.3-33.9,5.9-26.6,24.9
	l-1.7-1.8c-1,7.5,4.3,11.3,12.4,13.4l-0.4,3.8l3.8-1.9c-6.6,7.6-7.9,16.7-5.7,26.8c-5.3,6.2-7.7,12.4-8,18.6l4.5-5.4
	c-2.6,16.4,5.1,32.8,19.1,40C310.8,186.4,294.5,199.6,279.6,209.7z"/>
<path class="st6" d="M285.9,222.7l7.2,17.1c7.5-0.6,14.4-3.8,19.9-12.5c-4.5,5.2-0.1,7.1,0.5,13.8l3.8-4.8
	c-13.5,22.2-30.1,73.7,31.7,96.5c-10.5,1.3-18.9-3.4-26.1-7.3c-3,7.5,5.3,16.8,18,19.4c23,11.2-8.3,22.7-37.9,16.5
	c1.7,4.9,8.2,5.8,16.7,4.8c24.2,6.1,43.7-9.3,37-23c2.8-1.6,5.2-4.1,7.1-7.4h5l3.4,4.4c16.5,6,28.1-16.1,39,14.4
	c7.7,24.2-26.4,34.9-48.5,14.9c-0.2,6.2,2.8,8.8,7.3,9.8c1.8,4.9,7.1,5.5,14,4.2c10.4,6.6,36.7-4,42-26.3c4-14.1-13.9-20.9-3.1-38.8
	c6.8-12.8,8.3-20,6.7-35l2.9,2.9l-0.1-9.6l0.2-8.1c5.1-8.4,8.8-22.1,4.3-28.6l3.8,2.3c0.2-21.9-9-41.4-26.1-59.2
	c17.1-17.1,23.9-36,20.5-56.8l2.7,3.8c0.3-9.5-1.2-18.4-6.4-25.9l4.1-3.2l2.4-5l0.7,4c13.7-7.7,7.8-33.9-6.4-34.7l6.2-1.5
	c-11.9-5.5-20.7-3.4-26.3,6.3l0.2-5.6c-4.5,3-7.4,6.6-8.7,10.8c-7.6-8.5-17.6-13.9-31.2-15l3.3,4c-4-3.6-9.2-5.4-15.5-5.4l3.3,3.5
	c-13.7-0.8-24.2,3.1-32.7,10.4l-5.3-3.7l-7.2-0.7l4.2-1.9c-11.7-5.3-33.9,5.9-26.6,24.9l-1.7-1.8c-1,7.5,4.3,11.3,12.4,13.4
	c2-10.5,8.4-18.5,16.8-25.2l7.2-4.9c41.5-27.3,72.8,9.9,68.1,18.5c14.8,6.1,29.1,38.4,8.4,56.1c15.1,18.3-0.9,35.7-22,39.7l14.9,7.4
	c3.2,21.2,29.5,26.4,30.3,43.2c5.7,16.2-3.9,38-14.2,51.3l-8.6,7.7l-5.7-0.8l-4.1-4.7l-54.2-3.9l-1-54.7l-0.2-9.5l-20.1-16
	C320.5,210.3,302.7,242.2,285.9,222.7z"/>
<path class="st9" d="M129.5,303.3c10.8-11.5,13.8-25.2,10.3-40.8c2.1-10.1-8.6-15.8-28-18.6l-16.4-29.1c-2.9-3.3-8.3-4.1-16.1-2.4
	l13.3-18.1l67.4,4.7c2.8,24.9,13.3,32.7,14.1,54.2C173.7,281,154.2,301.3,129.5,303.3z"/>
<path class="st8" d="M92.6,194.2c7.1,11.9,33.6,12.1,47.1,31.8c4-6.8,16.6-13.8,20.6-24.8C177.6,167.1,70.7,186.5,92.6,194.2z"/>
<path class="st10" d="M164.4,160.3L86,159.9l6,9.6c-10.2,16.4-1.2,26.5,9.1,29l-1.4-4.4c7.1,11.9,28.4,5,41.9,24.8
	c4.4-7.4,12.8-10.9,13.2-22.1l0.5,5.8c11.7-8.2,16.7-17.5,9.8-28.8c2.2,0.9,3.8,2.7,4.8,5.3C171.3,171,169.7,164.7,164.4,160.3z"/>
<path class="st8" d="M134.3,337.9c-6.1-3-9.4-7.1-10.9-12c-0.4,7.3-4.2,12.2-12.2,14.5c4,16.2-14.7,27.1-38.4,26.2
	c-10.9,0.2-18.5-1.4-19-6.9c-15.9-13.1,8.5-20,12.8-30c-2-4.2-5.2-10.7-3.3-18.2c15.9,9.7,50.2,4.4,65.2-8.2
	c22-2.9,36.5-14.7,43.4-35.3c7.5-29-9.6-44.7-11.9-69.2c8.6-7,10.3-15.3,5.1-25.1l4.8,5.3c1.3-8.4-0.1-15-5.4-18.8l4.3-1.7
	c10.5,2.7,19.4,7.4,26.8,14l-4.6,1.7c28.2,15.7,26.4,30.1,12.2,54.4c9.9,2,11.1,31.3-9.6,28c5.8,16.5,3.6,31.5-4,45.6l0.4-5
	c-3.2,12.7-9.6,17.2-14.4,25.8c-1.1,6.3,11.1,9.8,16.7,16.9c4,3.9,3.5,11.7-1.1,14.9c-1.1,3.5-4.1,5.9-9,7c-1.9,4.3-9.1,6.6-19.4,3
	C155,358.8,136.8,358.7,134.3,337.9z"/>
<path class="st6" d="M134.3,337.9c-6.1-3-9.4-7.1-10.9-12c-0.4,7.3-4.2,12.2-12.2,14.5c4,16.2-14.7,27.1-38.4,26.2
	c-10.9,0.2-18.5-1.4-19-6.9c32.6,11.7,65.9-15.5,31.6-30c-8.9,0.7-18.2-8.1-16.3-15.5c25.9,8,46.7-2.1,59.4-10.8
	c22-2.9,36.5-14.7,43.4-35.3c7.5-29-9.6-44.7-11.9-69.2c8.6-7,10.3-15.3,5.1-25.1l4.8,5.3c-0.8,22.2,12.9,27.3,12.9,27.3
	c-4.1,36.9,8.6,36.6,15.4,27.7c9.9,2,11.6,21.9-4.6,22.7c0,0-5-1-9.5-4.3c-1.6-1.2-3.2-4.5-4-5.8c6.3,48.6-39.5,76-68.3,78.4
	l11.5,0.8l13-1.9l4.4,15.6c8.3,12,29,33.1,50.4,15.2c-1.1,3.5-4.1,5.9-9,7c-1.9,4.3-9.1,6.6-19.4,3
	C155,358.8,136.8,358.7,134.3,337.9z"/>
<path class="st8" d="M110.8,169.5c-9.2-3.5-15.4-3.5-18.8,0c-6.1,8.6-5.9,16.8,0.6,24.7l-6,9.6l-7.3,8.6l16.4,2.4
	c16.5,4.7,19.9,12.2,17.3,20.9c0.8,14-12.2,18.6-24.4,9.6c-11.4,4.4-23,5.4-34.7,3.1c6.4-18.9,19.4-31.2,41.8-33.7l-16.4-2.4
	c-15.1,4.3-26.7,14.8-35.2,30.3l-5.4-7.9l-1,4.3l-2.6-6.3l-0.4-4.7l-1.8,3.8c-6-19.8,5.1-39.2,27.8-58.5l-5,1.7
	c4.5-5,9.9-8.9,16-11.7C54,146.1,44.8,123.7,52.8,93.7l-4.4,4.7c0.7-8.2,3.3-15.1,7.8-20.7c-8.5-2.9-15.2-7-18.1-13.4l6,1.3
	c-12.6-19.4,2.5-35.2,14.7-33.9l-3.2,5.2c11.2-7.7,20.5-4.7,27.9,9.1c6.5-6.2,13.7-10.3,21.3-13.2c-2,1.9-3.6,4-4.7,6.3
	c9.4-7,21-10.1,34.3-10.4c-2.7,1.3-5.1,3.2-7.2,5.7c34.8-6.7,61.1,30.2,61.1,65.8c4.9,3.8,7.2,9.6,8.2,16.4l-3.5-1.9
	c3.3,26.8-12.4,45.5-46,49.4c-4.9,1.2-8.4,4.7-10.4,10.4C132.2,168.7,122.7,167.9,110.8,169.5z"/>
<path class="st6" d="M110.8,169.5c-9.2-3.5-15.4-3.5-18.8,0c-6.1,8.6-4.9,7.1-4.4,12c-6.6-3.1-5.1-13-16.3-8.1
	c-28.7,27.2-28.6,39.3-9.1,47.1l-0.6,12.7c21.1-0.5,47.8,13.6,51.5,2.5c0.8,14-12.2,18.6-24.4,9.6c-11.4,4.4-23,5.4-34.7,3.1
	l4.3-10.6l3.4-4.6l0.6-12.7c-6.5,5-9.5,6.7-18.1,22.2l-5.4-7.9l-1,4.3l-2.6-6.3l-0.4-4.7L33,232c-6-19.8,5.1-39.2,27.8-58.5l-5,1.7
	c4.5-5,9.9-8.9,16-11.7c-17.7-17.2-26.9-39.6-18.9-69.6l-4.4,4.7c0.7-8.2,3.3-15.1,7.8-20.7c-8.5-2.9-15.2-7-18.1-13.4l6,1.3
	C31.7,46.1,49.8,43.8,62,45.1l-3.2,5.2c11.1-7.7,29.7,21.1,24.8-4.2c6.5-6.2,13.7-10.3,21.3-13.2c-2,1.9-3.6,4-4.7,6.3
	c9.4-7,21-10.1,34.3-10.4c-2.7,1.3-5.1,3.2-7.2,5.7c21.6,1.4-68.6,2.7-43.9,68.3c5.6,10.6-21,27.9,4.2,49c7.9,8.7,37,17.2,59.5,12.4
	c-4.9,1.2-8.4,4.7-10.4,10.4C132.2,168.7,122.7,167.9,110.8,169.5z"/>
<path class="st11" d="M274.9,200.4l18.2,39.5c2.6,11.7-15.3,14.6-19.3,7.9l-15.2-21.7l-6.9-10.9c-10.9,5.5-19.8,8-22.4,5.7
	c-3.6-3.2,7.1-14.8,23.9-25.9c16.8-11.1,33.3-17.4,36.9-14.2C293,183.2,286.5,191.4,274.9,200.4z"/>
<path class="st12" d="M274.9,200.4l-3.2-4.8l0.7-3.6l-4.5-2.5l-1.6-2.4l-22.2,14.3l7.5,13.7c-10.9,5.5-19.8,8-22.4,5.7
	c-3.6-3.2,7.1-14.8,23.9-25.9c16.8-11.1,33.3-17.4,36.9-14.2C293,183.2,286.5,191.4,274.9,200.4z"/>
<path class="st13" d="M289,180c-15.9-1.8-64.3,29.7-59.8,40.7c-5.6-19.2-2.2-55.6,2.9-59.5C238.6,157.5,273.4,164.3,289,180z"/>
<path class="st6" d="M184.2,75.7c-4.5-13-10.7-23.8-19.5-31.5c4.6-4.6,10.1-7.1,16.4-7.6l-3.1,4.1C194.1,38.7,203.5,68.5,184.2,75.7
	z"/>
<path class="st9" d="M138.3,104.6c-17.1,0.4-33.1,8.6-32.6,19.8c0,17.3,23.3,20.9,32.3,6.9c9.7,11.3,29.6,8,30-9
	C168.5,109.7,154.6,104.1,138.3,104.6z"/>
<path class="st10" d="M138.3,104.6c-17.1,0.4-33.1,8.6-32.6,19.8c3-5,10.4-14.3,31.8-16.4c15-0.2,25.9,3.2,30.6,14.3
	C168.5,109.7,154.6,104.1,138.3,104.6z"/>
<path class="st14" d="M355.7,165.3l-5.6-3.5l-2.3-2.2l-3.2,2.8l-2.4,1.4C345.5,170.7,352.8,169,355.7,165.3z"/>
<path class="st14" d="M144.8,136.3l-3.1-2.1l-3.6-2.9l-3.7,3.6l-3.8,2.2C135.2,146.6,142.5,144.5,144.8,136.3z"/>
<path class="st4" d="M85,56.5c0.7-21.6-19.4-29-29.4-19.6l3.2-5.2c-20.5,0.6-24,24.8-14.7,33.9l-6-1.3c4.5,8.6,13.3,13.2,25,14.9"/>
<path class="st4" d="M83.5,46c6.5-6.2,13.7-10.3,21.3-13.2c-2,1.9-3.6,4-4.7,6.3c9.4-7,21-10.1,34.3-10.4c-2.7,1.3-5.1,3.2-7.2,5.7
	c34.8-6.7,61.1,30.2,61.1,65.8c4.9,3.8,7.2,9.6,8.2,16.4l-3.5-1.9c3.3,26.8-12.4,45.5-46,49.4c-4.9,1.2-8.4,4.7-10.4,10.4
	c-4.4-5.8-14-6.6-25.8-5"/>
<path class="st4" d="M56.3,77.7c-5.4,6.9-7.4,13.8-7.8,20.7l4.4-4.7c-7.6,26.8-0.1,56,24.2,74"/>
<path class="st4" d="M164.7,44.2c4.6-4.6,10.1-7.1,16.4-7.6l-3.1,4.1c16.3-2,25.6,27.8,6.3,34.9"/>
<path class="st4" d="M79.3,212.4c4.1-3.7,9.1-10.7,13.2-18.1 M53.9,248.5c9.7,3,22.1,1.2,34.7-3.1c5.2,1.3,8.6,7.1,15.6,3.8
	c5-1,10-4.7,8.9-13.4c3.3-6.2-1.1-17.7-17.3-20.9 M71.8,163.3c-6.9,3-12.3,6.9-16,11.7l5-1.7C35,193.6,27.9,214.8,33,231.9l1.8-3.8
	c-0.4,3.5,1,7.2,3,11l1-4.3c1.4,3.2,3.2,5.8,5.4,7.9"/>
<path class="st4" d="M104.2,249.2c0.7-3.4-0.8-6.8-5.6-10.5"/>
<path class="st4" d="M113.1,235.7c-0.5-3-1.8-5.5-5.2-6.7"/>
<path class="st4" d="M92,169.5c-10.2,16.4-1.2,26.5,9.1,29l-1.4-4.4c7.1,11.9,28.4,5,41.9,24.8c4.4-7.4,12.8-10.9,13.2-22.1l0.5,5.8
	c11.7-8.2,16.7-17.5,9.8-28.8c2.2,0.9,3.8,2.7,4.8,5.3c1.5-8-0.1-14.4-5.4-18.8"/>
<path class="st4" d="M168.7,158.6c10.9,3.3,21.9,8.3,26.8,14l-4.6,1.7c18,11.7,23.3,20,22.8,26.6c-1.4,12.1-7.8,25.2-19.4,39.3"/>
<path class="st4" d="M182.8,206.5c-12.6,31.1-3,47.5,10.8,50.3c21.4,4.6,20.2-26.8,9.6-28"/>
<path class="st4" d="M168.4,204.2c3.9,4.3,7.9,7.1,12.1,8.3"/>
<path class="st4" d="M160,198.9c2.8,24.9,13.3,32.7,14.1,54.2c-0.3,27.9-19.9,48.2-44.5,50.2"/>
<path class="st4" d="M104.9,323.5c17.1,5.2,37.5,2.2,51.4-9.8"/>
<path class="st4" d="M193.6,256.8c5.8,16.5,3.6,31.5-4,45.6l0.4-5c-3.2,12.7-9.6,17.2-14.4,25.8c-1.1,6.3,11.1,9.8,16.7,16.9
	c4,3.9,3.5,11.7-1.1,14.9c-1.1,3.5-4.1,5.9-9,7c-1.9,4.3-9.1,6.6-19.4,3c-7.9-6.2-26-6.4-28.5-27.1"/>
<path class="st4" d="M140.8,339.7c-8.1-1.5-14.6-5.1-17.4-13.8c-0.4,6.7-4.2,11.6-12.2,14.5c5.3,19.1-22.6,27.7-37.5,26.2
	c-11.3,0.6-18.6-1.2-19.9-6.8c-4.7-3.6-6.9-7.9-3.9-13.8c2.7-5.2,16.4-10.4,16.7-16.2"/>
<path class="st4" d="M63.3,311.6c-0.8,7.2,0.7,16.8,6.1,21.6"/>
<path class="st4" d="M156.8,328.2c3.5,1.7,6.6,0.7,9.1-2.9"/>
<path class="st9" d="M398.1,290.8c-12.3-11.3,0-26.6,5-48.1c-5.1-8.9-9.2-17.7-12.2-26.6l-62.1-1.4c-1.3,26.1-19.2,33-14.6,59.6
	C323.1,313.3,374,322.8,398.1,290.8z"/>
<path class="st4" d="M61.7,345.8c-7,3.6-9.1,8.4-7.9,14"/>
<path class="st4" d="M75.5,350.5c-7.6,5.5-6.6,12.7-2.7,16.2"/>
<path class="st4" d="M175.6,347.2c6.8,4.4,8,9.4,6.6,14.7"/>
<path class="st4" d="M186.5,341.5c4.9,3.3,6.5,7.8,4.7,13.5"/>
<path class="st15" d="M70.4,66.8c6-6.3,4.5-15.8-4-19l0.6,2.7c-7.1-2-12.6,0.1-14.2,7.4C51,68.2,63.9,73,70.4,66.8z"/>
<path class="st16" d="M70.4,66.8c6-6.3,4.5-15.8-4-19l0.6,2.7c-7.1-2-12.6,0.1-14.2,7.4C51,68.2,63.9,73,70.4,66.8z"/>
<path class="st4" d="M323.4,77.6c-12,7.8-17.2,20.8-17.3,29l3.8-1.9c-6.6,7.6-7.9,16.7-5.7,26.8c-5.3,6.2-7.7,12.4-8,18.6l4.5-5.4
	c-2.6,16.4,5.1,32.8,19.1,40c-9,1.6-27.6,17.4-40.2,24.8"/>
<path class="st4" d="M306.6,102.8c-7.2-0.1-13.6-7.4-12.4-13.4l1.7,1.8c-6.4-20.9,17.8-30.1,26.6-24.9l-4.2,1.9
	c5-0.3,9.4,0.6,12.5,4.5c10.6-7.9,21.5-11.9,32.7-10.4l-3.3-3.5c6.8-0.4,11.8,1.6,15.5,5.4l-3.3-4c11.4,0.5,21.1,5.1,31.2,15"/>
<path class="st4" d="M403.5,82.6c-1.1-7.2,1.8-14.3,8.8-18.1l-0.2,5.6c3.7-11.4,20.2-11.1,26.3-6.3l-6.3,1.4
	c14.1,0.7,19.7,25.2,6.4,34.7l-0.7-4c-1.1,6.3-7.2,9.5-15.6,11.3"/>
<path class="st15" d="M411.3,91.6c-0.4-5.5,0.8-9.8,4.4-12.5l0.7,3.5c4.4-7.2,14.1-5,16.2,3.9C434.3,94.7,421.3,104.7,411.3,91.6z"
	/>
<path class="st16" d="M411.3,91.6c-0.4-5.5,0.8-9.8,4.4-12.5l0.7,3.5c4.4-7.2,14.1-5,16.2,3.9C434.3,94.7,421.3,104.7,411.3,91.6z"
	/>
<path class="st4" d="M431.3,104.1c5.1,8.6,6.3,17.2,6.4,25.9l-2.7-3.8c3.6,21-4.1,43.6-23.6,59.6"/>
<path class="st8" d="M390.9,216.2c-19.2-16.3-21.8-16.7-36.6-17.1c4.6,3.6-36.6-7-25.5,15.6c9.4,6.4,20.6,21,21.3,25.2
	C376.8,237.6,389.3,227.5,390.9,216.2z"/>
<path class="st10" d="M400.1,194.4c-19.2-16.3-29.5-0.8-44.3-1.3c-8-2.9-13.5-8.6-24-8.8c-11.5-0.5-15.6,4.9-15.5,13.6l3.4-3.8
	l4.6-2.1c-11.6,18.7,11.5,27.4,18.2,30.9c2.8,5.9,1.9,3.1,4.6,6.3c2.8-1.4,4.8-4.2,6.1-8.4c1.3,4.6,1.1,9.2-0.2,13.6
	C376.1,231.3,402.3,213.8,400.1,194.4z"/>
<path class="st4" d="M331.8,184.4c13.7,0.8,16,5.9,24,8.8c12.7-1,23.2-10.1,38.2-2.9"/>
<path class="st4" d="M326.1,184.6c-7.7,2.4-10,7.3-9.8,13.4c2-3.2,4.7-5.2,7.9-5.9C312.4,211,337.5,219,343.7,225"/>
<path class="st4" d="M338.7,216.2c2.8,5.9,5.7,9.9,8.3,13.2c2.8-1.4,4.8-4.2,6.1-8.4c1.3,4.6,1.1,9.2-0.2,13.6
	c23.2-3.3,49.4-20.9,47.2-40.1"/>
<path class="st4" d="M390.9,216.2c3.8,12.6,9.2,22.5,15.3,31.2"/>
<path class="st4" d="M414.6,183.1c19.1,20.3,26,39.9,26.1,59.2l-3.8-2.3c6.2,15-4.1,35.6-29.3,56.6"/>
<path class="st4" d="M403.1,242.7c-2,16.4-19.2,36.5-4.7,48.9"/>
<path class="st4" d="M397.6,278.5c-1.7,14.8,2.8,19,10,18.2c-1.7-3.6-1.8-8.4-0.2-14.2"/>
<path class="st4" d="M313,227.3c-4.1,7-10.7,11.1-19.9,12.5"/>
<path class="st4" d="M301.7,237.4c-4.7,6.3-6.7,12.2-5.9,17.9l3.8-4.8c-11.4,25.6-1.5,63.3,23.2,75"/>
<path class="st4" d="M328.8,214.8c-1.3,26.1-19.2,33-14.6,59.6c8.9,39,59.8,48.4,83.9,16.5"/>
<path class="st4" d="M310.7,316.7c-2.6,15,8.6,17.9,2.2,23.7c-17.1,6.3-18,15-10,21.1c1.8,5.1,8.2,5.9,16.7,4.8
	c6.4,5.5,46.1-2.3,37-23"/>
<path class="st4" d="M348.9,332.8c12.8,4.6,24.9,3.9,36.6-0.4"/>
<path class="st4" d="M350.8,345.4c5.8-1.4,10.5-4.1,13-9.5"/>
<path class="st4" d="M368.8,335.9c1.4,12.3,7.3,18.7,16.5,20.9"/>
<path class="st4" d="M309.8,348.3c-7.6,4.7-8.7,9-6.9,13.2"/>
<path class="st4" d="M319.4,351.2c-4.8,5.1-3.8,11.9,0.2,15"/>
<path class="st4" d="M435.8,262.4c1.8,5.5,2.6,12.6,2,19l-2.9-2.9c2.2,14.5-1.4,30.1-10.9,46.8c-6.4,15.9,6.4,16.9,2.1,32
	c-7.1,25.8-34.1,33.1-42,26.3c-7.2,1.7-11.8,0.3-14-4.2c-6.7-1.6-7.8-5.8-7.3-9.8c1.4-6.4,11.9-8,15-16.1"/>
<path class="st4" d="M375.2,366.9c-4.8,3.6-6,7.9-5.2,12.5"/>
<path class="st4" d="M385.5,370.7c-3.3,4-3.8,8.4-1.5,13"/>
<path class="st4" d="M437.7,281.4c9.4,6.1,9.8,17.2,4.8,25.1l5-3.1c-2.1,8.2-8.9,14.2-20.9,16.8"/>
<path class="st4" d="M77.6,109.8c-4,0.5-7.1,2.3-9.5,5.5"/>
<path class="st4" d="M76,117.9c-2.2,0.4-3.9,1.8-5,3.8"/>
<path class="st4" d="M79,127.8c-1.1-0.3-2.7,0.5-3.4,1.6"/>
<path class="st4" d="M55.3,192.6c-2.3-0.9-4.5-0.8-6.4,0.2"/>
<path class="st4" d="M422.3,212.2c2.3-0.9,4.5-0.8,6.4,0.2"/>
<path class="st4" d="M50.5,200.9c-2.2,0-3.8,0.5-4.8,1.7"/>
<path class="st4" d="M427.1,220.6c2.2,0,3.8,0.5,4.8,1.7"/>
<path class="st4" d="M176.2,125.9c2.7-0.8,5-0.7,6.7,0.9"/>
<path class="st4" d="M175.4,132.2c2.4-0.6,4.8,0,6.6,1.5"/>
<path class="st4" d="M138.3,104.6c-17.1,0.4-33.1,8.6-32.6,19.8c0,17.3,23.3,20.9,32.3,6.9c9.7,11.3,29.6,8,30-9
	C168.5,109.7,154.6,104.1,138.3,104.6z"/>
<path class="st4" d="M130.4,138c4.8,8.4,12.1,5.4,14.4-1.7"/>
<path class="st4" d="M125,139.7c7.4,12.2,19,11.5,23.3,1.4"/>
<path class="st4" d="M52.2,187.6c2.1-2,6.9-1,8,1.2"/>
<path class="st4" d="M425.4,207.2c-2.1-2-6.9-1-8,1.2"/>
<path class="st9" d="M351.7,132.3c24.6-0.7,34.5,11.1,31,23.9c-3.5,12.9-22.5,16-34.9,3.4c-8.6,9.6-22.3,6.2-25.4-5.6
	C319.5,142.2,332,131.4,351.7,132.3z"/>
<path class="st10" d="M351.7,132.3c24.6-0.7,34.5,11.1,31,23.9c0.6-6.3-4.5-19.4-31.8-21.2c-21.5,2.8-26.1,7.3-28.5,19
	C319.5,142.2,332,131.4,351.7,132.3z"/>
<path class="st4" d="M351.7,132.3c24.6-0.7,34.5,11.1,31,23.9c-3.5,12.9-22.5,16-34.9,3.4c-8.6,9.6-22.3,6.2-25.4-5.6
	C319.5,142.2,332,131.4,351.7,132.3z"/>
<path class="st4" d="M342.2,163.8c3.1,6.3,9.9,6.4,13.5,1.4"/>
<path class="st4" d="M339.4,165.8c3.3,10,16,10.7,20.9,1.1"/>
<path class="st17" d="M245.9,204.6c-0.6-1.1-1.3-2.2-1.9-3.3 M258.6,226c-3.3-5.3-6.4-10.6-9.4-15.9 M271.7,195.6
	c8.7,14.2,15.4,29.1,21.4,44.3c3.1,8.3-11.6,15.9-17.4,10.1c-0.6-0.7-1.3-1.4-1.9-2.1 M266.3,187c0.5,0.8,1.1,1.6,1.6,2.4"/>
<path class="st11" d="M275.9,170.7l-13.6-5.8c-3.1,1.1-6.1,9.5-0.8,14.6C268,185.7,278.8,179,275.9,170.7z"/>
<path class="st11" d="M226.9,208.6l-0.6-15.5c4.7-1.6,10.8,0.5,10.8,8.3C237,206.1,230.9,210.2,226.9,208.6
	C226.9,208.6,225.8,208.6,226.9,208.6z"/>
<path class="st18" d="M228.5,218.4c-5.6-19.2-1.6-53.2,3.5-57.2c6.5-3.7,41.2,3.1,56.9,18.8"/>
<path class="st18" d="M262.3,164.9c-3.1,1.1-6.1,9.5-0.8,14.6c6.5,6.2,17.3-0.5,14.4-8.8"/>
<path class="st18" d="M226.2,193.1c4.7-1.6,10.8,0.5,10.8,8.3c0,4.7-6.1,8.8-10.1,7.2c0,0-1.1,0,0,0"/>
<path class="st11" d="M239.6,183.3c4.1,0,7.5-3.4,7.5-7.5c0-4.1-3.4-7.5-7.5-7.5c-4.1,0-7.5,3.4-7.5,7.5
	C232.1,180,235.5,183.3,239.6,183.3z"/>
<path class="st18" d="M239.6,183.3c4.1,0,7.5-3.4,7.5-7.5c0-4.1-3.4-7.5-7.5-7.5c-4.1,0-7.5,3.4-7.5,7.5
	C232.1,180,235.5,183.3,239.6,183.3z"/>
<path class="st11" d="M332,131.3c5.3,0,9.6-4.4,9.6-9.8c0-5.4-4.3-9.8-9.6-9.8s-9.6,4.4-9.6,9.8C322.4,126.9,326.7,131.3,332,131.3z
	"/>
<ellipse transform="matrix(0.9962 -8.747275e-02 8.747275e-02 0.9962 -7.4789 13.9919)" class="st11" cx="155.9" cy="92.3" rx="10" ry="10.2"/>
<path class="st11" d="M373,128.8c5.3,0,9.6-4.4,9.6-9.8c0-5.4-4.3-9.8-9.6-9.8c-5.3,0-9.6,4.4-9.6,9.8
	C363.4,124.4,367.7,128.8,373,128.8z"/>
<ellipse transform="matrix(0.9962 -8.753881e-02 8.753881e-02 0.9962 -7.7471 10.5722)" class="st11" cx="116.7" cy="93.6" rx="10" ry="10.2"/>
<path class="st19" d="M332.6,117.7c3.3,1.5,4.7,5.5,3.2,8.8s-5.4,4.8-8.6,3.3c-3.3-1.5-4.7-5.5-3.2-8.8
	C325.5,117.7,329.3,116.2,332.6,117.7z"/>
<path class="st19" d="M154.9,88.4c-3.3,1.9-4.4,6.1-2.5,9.5c1.9,3.3,6,4.5,9.3,2.6c3.3-1.9,4.4-6.1,2.5-9.5
	C162.3,87.7,158.2,86.5,154.9,88.4z"/>
<path class="st19" d="M373.7,115.4c3.3,1.5,4.7,5.5,3.2,8.8c-1.5,3.3-5.4,4.8-8.6,3.3c-3.3-1.5-4.7-5.5-3.2-8.8
	C366.5,115.3,370.4,113.8,373.7,115.4z"/>
<path class="st19" d="M115.6,89.9c-3.3,1.9-4.4,6.1-2.5,9.5c1.9,3.3,6,4.5,9.3,2.6c3.3-1.9,4.4-6.1,2.5-9.5
	C123,89.1,118.8,88,115.6,89.9z"/>
<path class="st20" d="M328.6,129.6c2.5,0,4.6-2.1,4.6-4.7c0-2.6-2.1-4.7-4.6-4.7s-4.6,2.1-4.6,4.7
	C324.1,127.5,326.1,129.6,328.6,129.6z"/>
<ellipse transform="matrix(0.9962 -8.722488e-02 8.722488e-02 0.9962 -7.7302 14.3001)" class="st20" cx="159.8" cy="95.6" rx="4.8" ry="4.9"/>
<path class="st20" d="M369.6,127.1c2.5,0,4.6-2.1,4.6-4.7c0-2.6-2.1-4.7-4.6-4.7c-2.5,0-4.6,2.1-4.6,4.7
	C365,125,367.1,127.1,369.6,127.1z"/>
<ellipse transform="matrix(0.9962 -8.725013e-02 8.725013e-02 0.9962 -7.994 10.885)" class="st20" cx="120.5" cy="96.9" rx="4.8" ry="4.9"/>
<path class="st11" d="M331.1,124.5c1.1,0,2.1-0.9,2.1-2.1c0-1.2-0.9-2.1-2.1-2.1c-1.1,0-2.1,0.9-2.1,2.1
	C329.1,123.6,330,124.5,331.1,124.5z"/>
<ellipse transform="matrix(0.9961 -8.772843e-02 8.772843e-02 0.9961 -7.5663 14.1285)" class="st11" cx="157" cy="93.1" rx="2.2" ry="2.2"/>
<path class="st11" d="M372.1,122c1.1,0,2.1-0.9,2.1-2.1c0-1.2-0.9-2.1-2.1-2.1c-1.1,0-2.1,0.9-2.1,2.1
	C370,121.1,370.9,122,372.1,122z"/>
<ellipse transform="matrix(0.9961 -8.787429e-02 8.787429e-02 0.9961 -7.8513 10.71)" class="st11" cx="117.7" cy="94.5" rx="2.2" ry="2.2"/>
<path class="st4" d="M332,131.3c5.3,0,9.6-4.4,9.6-9.8c0-5.4-4.3-9.8-9.6-9.8s-9.6,4.4-9.6,9.8C322.4,126.9,326.7,131.3,332,131.3z"
	/>
<ellipse transform="matrix(0.9962 -8.748107e-02 8.748107e-02 0.9962 -7.4796 13.9933)" class="st21" cx="155.9" cy="92.3" rx="10" ry="10.2"/>
<path class="st4" d="M373,128.8c5.3,0,9.6-4.4,9.6-9.8c0-5.4-4.3-9.8-9.6-9.8c-5.3,0-9.6,4.4-9.6,9.8
	C363.4,124.4,367.7,128.8,373,128.8z"/>
<ellipse transform="matrix(0.9962 -8.751545e-02 8.751545e-02 0.9962 -7.7451 10.5693)" class="st21" cx="116.7" cy="93.6" rx="10" ry="10.2"/>
<path class="st9" d="M328.1,102.9c3-2,0.7-8.8-6.6-1.5c-0.9,0.9-4.4,5.3-1.5,6.9C321.6,109.2,325.8,104.6,328.1,102.9z"/>
<path class="st4" d="M328.1,102.9c3-2,0.7-8.8-6.6-1.5c-0.9,0.9-4.4,5.3-1.5,6.9C321.6,109.2,325.8,104.6,328.1,102.9z"/>
<path class="st9" d="M385.7,103.9c-1.8-2.6-4.9-4.8-9.1-4.8c-3.3,0-5.3,1.6-5.1,3.3c0.4,2.5,4,2.2,5.7,2.2c3.6,0,5.6,4.9,7.5,4.6
	C387.6,108.7,386.5,105.5,385.7,103.9z"/>
<path class="st4" d="M385.7,103.9c-1.8-2.6-4.9-4.8-9.1-4.8c-3.3,0-5.3,1.6-5.1,3.3c0.4,2.5,4,2.2,5.7,2.2c3.6,0,5.6,4.9,7.5,4.6
	C387.6,108.7,386.5,105.5,385.7,103.9z"/>
<path class="st9" d="M102,79.1c1.6-2.9,4.7-5.5,9-5.8c3.5-0.3,5.7,1.2,5.6,3c-0.2,2.6-4,2.7-5.7,2.9c-3.8,0.3-5.3,5.6-7.4,5.5
	C100.5,84.3,101.3,80.8,102,79.1z"/>
<path class="st4" d="M102,79.1c1.6-2.9,4.7-5.5,9-5.8c3.5-0.3,5.7,1.2,5.6,3c-0.2,2.6-4,2.7-5.7,2.9c-3.8,0.3-5.3,5.6-7.4,5.5
	C100.5,84.3,101.3,80.8,102,79.1z"/>
<path class="st9" d="M159.6,72.7c3.3-0.3,7.2,0.8,9.9,4.2c2.2,2.7,2.2,5.4,0.7,6.3c-2.2,1.3-4.5-1.8-5.6-3.1
	c-2.4-2.9-7.6-1.3-8.7-3.1C154.5,74.4,157.8,73.1,159.6,72.7z"/>
<path class="st4" d="M159.6,72.7c3.3-0.3,7.2,0.8,9.9,4.2c2.2,2.7,2.2,5.4,0.7,6.3c-2.2,1.3-4.5-1.8-5.6-3.1
	c-2.4-2.9-7.6-1.3-8.7-3.1C154.5,74.4,157.8,73.1,159.6,72.7z"/>
<path class="st8" d="M350.7,135.5c8,0.4,14.3,4,14.1,7.9c-0.2,3.9-6.9,6.7-14.9,6.3c-8-0.4-14.3-4-14.1-7.9
	C336.1,137.8,342.8,135,350.7,135.5z"/>
<path class="st8" d="M137.4,108c-8.3,0.6-14.8,4.2-14.5,8c0.3,3.8,7.2,6.3,15.5,5.7c8.3-0.6,14.8-4.2,14.5-8
	C152.6,109.9,145.7,107.4,137.4,108z"/>
<path class="st22" d="M349.1,135.3c7.7-0.1,13.9,2.5,13.9,5.8c0,3.3-6.2,6.1-13.9,6.2c-7.7,0.1-13.9-2.5-13.9-5.8
	C335.1,138.2,341.4,135.4,349.1,135.3z"/>
<path class="st23" d="M349.1,135.3c7.7-0.1,13.9,2.5,13.9,5.8c0,3.3-6.2,6.1-13.9,6.2c-7.7,0.1-13.9-2.5-13.9-5.8
	C335.1,138.2,341.4,135.4,349.1,135.3z"/>
<path class="st22" d="M139.1,107.8c-8,0.1-14.4,2.8-14.4,6c0,3.2,6.5,5.7,14.5,5.6c8-0.1,14.4-2.8,14.4-6
	C153.6,110.2,147.1,107.7,139.1,107.8z"/>
<path class="st23" d="M139.1,107.8c-8,0.1-14.4,2.8-14.4,6c0,3.2,6.5,5.7,14.5,5.6c8-0.1,14.4-2.8,14.4-6
	C153.6,110.2,147.1,107.7,139.1,107.8z"/>
<path class="st8" d="M372.3,145.4c-1.1,0.2-1.7,1.1-1.5,2.1c0.2,0.9,1.3,1.5,2.4,1.3c1.1-0.2,1.7-1.1,1.5-2.1
	C374.4,145.8,373.3,145.2,372.3,145.4z M338.3,149.1c1.1,0.2,1.8,1.1,1.6,2c-0.2,0.9-1.3,1.5-2.3,1.3c-1.1-0.2-1.8-1.1-1.6-2
	C336.2,149.5,337.2,148.9,338.3,149.1z M365.7,148.7c-1.1,0.2-1.7,1.1-1.5,2.1c0.2,0.9,1.3,1.5,2.4,1.3c1.1-0.2,1.7-1.1,1.5-2.1
	C367.9,149,366.8,148.5,365.7,148.7z M331.8,151.9c1.1,0.2,1.8,1.1,1.6,2c-0.2,0.9-1.3,1.5-2.3,1.3c-1.1-0.2-1.8-1.1-1.6-2
	C329.7,152.3,330.7,151.7,331.8,151.9z M372.3,151.3c-1.1,0.2-1.7,1.1-1.5,2.1c0.3,0.9,1.3,1.5,2.4,1.3c1.1-0.2,1.7-1.1,1.5-2.1
	C374.4,151.6,373.4,151,372.3,151.3z M331.6,146.1c1.1,0.2,1.8,1.1,1.6,2c-0.2,0.9-1.3,1.5-2.3,1.3c-1.1-0.2-1.8-1.1-1.6-2
	C329.5,146.5,330.5,145.9,331.6,146.1z"/>
<path class="st24" d="M108.5,247.5l3.3-3.5c19.2,2.1,29.7,7.6,28,18.6c-13.3,22.5-93.8,25.7-97.2,3.4c-7.9-37.8,38.6-63.7,53.2-51.1
	c-21.4,0.1-49.2,23.2-41.8,51c20,14.9,79.4,3.4,76.8-9.5C130,253.1,125.9,248.8,108.5,247.5z"/>
<path class="st8" d="M117.7,119.8c1,0.1,1.8,0.9,1.6,1.8c-0.2,0.9-1.1,1.5-2.2,1.4c-1-0.1-1.8-0.9-1.6-1.8
	C115.6,120.4,116.6,119.7,117.7,119.8z M150.6,120.4c-1,0.3-1.6,1.2-1.3,2.1c0.3,0.9,1.4,1.4,2.4,1.1c1-0.3,1.6-1.2,1.3-2.1
	C152.7,120.6,151.6,120.1,150.6,120.4z M124.2,122.4c1,0.1,1.8,0.9,1.6,1.8c-0.2,0.9-1.1,1.5-2.2,1.4c-1-0.1-1.8-0.9-1.6-1.8
	C122.2,122.9,123.2,122.2,124.2,122.4z M157.1,122.5c-1,0.3-1.6,1.2-1.3,2.1c0.3,0.9,1.4,1.4,2.4,1.1c1-0.3,1.6-1.2,1.3-2.1
	C159.2,122.7,158.1,122.2,157.1,122.5z M118.1,125.4c1,0.1,1.8,0.9,1.6,1.8c-0.2,0.9-1.1,1.5-2.2,1.4c-1-0.1-1.8-0.9-1.6-1.8
	C116.1,126,117.1,125.3,118.1,125.4z M156.7,116.9c-1,0.3-1.6,1.2-1.3,2.1c0.3,0.9,1.4,1.4,2.4,1.1s1.6-1.2,1.3-2.1
	C158.8,117.1,157.8,116.6,156.7,116.9z"/>
<path class="st4" d="M310.9,146.1c-1.4,0.3-2.5,2-3.1,3.4 M411,123.9c1.9,0,3.6,2,4.6,3.6 M411.8,116.6c2.2,0,3.5,1.3,4.2,2.3
	 M380.3,204.1c1.8,0.9,2.8,2.6,3.3,4.6 M386.2,197.2c1.7,1.5,1.6,4.6,1.2,6.9 M332.2,199.2c-1.3,0.5-2.5,2.5-2.8,4.2 M336.9,202.6
	c-0.7,1.7-0.7,4.2,0,5.6 M303.1,282.4c-0.6-1.6,0.6-4.4,2.2-5.7 M309.2,287.5c-0.7-1.1-0.3-3.3,0.5-4.4 M312.9,297.7
	c-0.3-0.8,0.2-2.4,1-3.1 M421.3,304.8c0.2-1.3-1.1-3.2-2.5-4 M412,320.4c0.6-1.6-0.6-4.4-2.2-5.7 M425.4,289.5
	c-0.1-0.8-1.2-1.9-2.2-2.2 M417.2,312.7c0.3-1.1-0.7-2.9-1.8-3.7 M306.5,138.1c-1.5,0-2.8,1.5-3.6,2.8"/>
<path class="st4" d="M152.9,185.1c1.8,0.9,2.8,2.6,3.3,4.6 M158.8,178.3c1.7,1.5,1.6,4.6,1.2,6.9 M98.1,180.3
	c-1.3,0.5-2.5,2.5-2.8,4.2 M102.8,183.6c-0.7,1.7-0.7,4.2,0,5.6 M187.2,285.9c0.2-1.3-1.1-3.2-2.5-4 M177.8,301.5
	c0.6-1.6-0.6-4.4-2.2-5.7 M191.3,270.6c-0.1-0.8-1.2-1.9-2.2-2.2 M183,293.8c0.3-1.1-0.7-2.9-1.8-3.7"/>
<path class="st4" d="M42.7,265.9c3.4,22.2,83.9,19,97.2-3.4c6.6,28.9-9.9,52-50.1,53.9C64.7,319.1,36.9,302.1,42.7,265.9
	c-7.9-37.8,38.6-63.7,53.2-51.1c-21.4,0.1-49.2,23.2-41.8,51c20,14.9,79.4,3.4,76.8-9.5c-0.8-3.2-4.9-7.5-22.3-8.8"/>
<path class="st25" d="M42.7,265.9c3.4,22.2,83.9,19,97.2-3.4c6.6,28.9-9.9,52-50.1,53.9C64.7,319.1,36.9,302.1,42.7,265.9z"/>
<path class="st4" d="M42.7,265.9c3.4,22.2,83.9,19,97.2-3.4c6.6,28.9-9.9,52-50.1,53.9C64.7,319.1,36.9,302.1,42.7,265.9z"/>
<path class="st4" d="M139.9,262.5c1.2-7.6-5.1-17-28-18.6"/>
<path class="st4" d="M55.8,277.4c3.5,26.6,14.2,36.8,27.3,39.2"/>
<path class="st4" d="M73.3,280.7c0.6,22.3,6.5,31.9,14.8,35.7"/>
<path class="st4" d="M91,280.8c-1.2,15.6,0.5,30.1,4.3,35.2"/>
<path class="st4" d="M111.5,277.9c1.2,18-3.5,33.6-10.6,37.4"/>
<path class="st4" d="M127.8,272.3c2.2,20.2-9,37.4-18.4,41"/>
<path class="st4" d="M42,277.3c13.7,17.5,64.2,16.6,91.5-0.5"/>
<path class="st4" d="M52.9,293.2c16.9,10.7,49.7,9,65.9-0.4"/>
<path class="st4" d="M58.4,302.8c15,9.5,44.2,8,58.6-0.4"/>
<path class="st4" d="M54.1,265.8c-1.2,4.2-3.6,6.5-7.1,7"/>
<path class="st4" d="M53.6,249.8c-3.8,2.5-7.9,10.3-11.7,9.3"/>
<path class="st4" d="M63.2,231c-5.1,0.4-12.1,8.7-16.9,7.8"/>
<path class="st4" d="M82.3,217.6c-5.7-1-14.8,4.7-20.1,2.9"/>
<path class="st4" d="M67.1,271.3c-5.1,0.8-7.6,3.4-8.9,6.9"/>
<path class="st4" d="M85,272.9c-4.6,2-7.3,4.7-8.2,8"/>
<path class="st4" d="M102.6,271.3c-4.8,1.8-6.9,5.1-7.7,9.2"/>
<path class="st4" d="M118.2,267.3c-3.3,2.9-4.1,6.3-3.8,9.9"/>
<path class="st4" d="M129.8,260.2c3.2,2.7,3.2,7,1.3,10.3"/>
<path class="st4" d="M126.8,251.7c4.9-1.4,8.5-0.3,11,2.4"/>
<path class="st4" d="M114.5,248.1c3.1-2.4,6.5-3.3,10.6-2"/>
<path class="st8" d="M258.8,226l-0.7,0.4l-2.4-3.8l-0.8-0.1c-5.5,8.3,4.5,30.8,18,25.1c4.1-1.9,5-4.7,2.7-8.3
	c3.7-3.8,0.2-10.9-4.8-9.9C271.6,224.1,266.4,222.3,258.8,226z"/>
<path class="st17" d="M251.6,215.1c-10.9,5.5-19.8,8-22.4,5.7c-3.6-3.2,7.1-14.8,23.9-25.9c16.8-11.1,33.3-17.4,36.9-14.2
	c2.9,2.6-3.6,10.8-15.1,19.7"/>
<path class="st4" d="M254.9,222.6c-5.5,8.3,4.5,30.8,18,25.1c4.1-1.9,5-4.7,2.7-8.3c3.7-3.8,0.2-10.9-4.8-9.9
	c0.8-5.5-4.4-7.3-12-3.5"/>
<path class="st17" d="M245.9,204.6c0.7,9,7.3,5.5,7.1,0c-0.1-1.5,3.4,1.6,5.7,0.1c2.6-1.7-0.1-6.1,0.9-5.8c1.5,0.4,7.4,3.2,6.5-0.9
	c-0.5-2.3-2.4-2.6,0.1-2.6c2.2,0,6.5,1.3,6.5-2.4c0-1.3-2-2.6-5-3.6"/>
<path class="st10" d="M332.9,297.3c-8.2-10.6-12.5-23.5-15.5-35.4C315.8,273,321.4,292.4,332.9,297.3z"/>
<path class="st10" d="M170.4,257c-4.9,14.9-13.8,27.3-22.4,37.6C158.4,289.5,172.2,271.8,170.4,257z"/>
<path class="st9" d="M89.2,217.3c8.5,1.4,18.6,3.9,22.9,11.8C110.2,220,97.4,214.3,89.2,217.3z"/>
<path class="st9" d="M211.2,203.6c-4.9-9.8-13.8-18-22.4-24.7C199.2,182.1,213,193.8,211.2,203.6z"/>
<path class="st9" d="M58.6,37.1c10.5-2.3,19.6,4.4,23.3,10.3C80.9,41.1,71.1,29.5,58.6,37.1z"/>
<path class="st8" d="M418.3,68.8c10.5-2.3,19.6,4.4,23.3,10.3C440.5,72.7,430.8,61.1,418.3,68.8z"/>
<path class="st9" d="M371.5,66.7c-15.9-2.3-34.1,4.9-39.7,10.9C333.4,71.2,352.7,59.1,371.5,66.7z"/>
<path class="st8" d="M428.7,151.5c-4.9,12.5-13.8,22.8-22.4,31.5C416.7,178.6,430.5,163.8,428.7,151.5z"/>
<path class="st9" d="M410.1,245.8c-6.1-8.9-10.5-18.4-13.9-27.4C396.4,227.5,401.9,240.8,410.1,245.8z"/>
<path class="st9" d="M391.2,355.8c-9.6-2.7-15.7-9.2-19-15.5C372.3,346.6,377.9,355.8,391.2,355.8z"/>
<path class="st9" d="M177.7,76.7c-4.9-12.5-13.8-22.8-22.4-31.5C165.7,49.6,179.5,64.4,177.7,76.7z"/>
<path class="st4" d="M68.9,249.8c11.9,3.5,18.2,14.5,18.2,23"/>
<path class="st4" d="M83.6,261.1c8-3.5,14-1.3,21.2,3.5c2,1.3,0.8,0,3.2-1.6c9.3-6.2,15.5,2.4,15.5,2.1"/>
<path class="st26" d="M47,262c12.2-20.5,88.8-30.7,93.9,6.1c3.4,23.3-10.8,46.5-51,48.3c-31.2,0.5-49-17.9-51.1-50
	C35.7,223.9,79,206.2,96,214.9"/>
<path class="st26" d="M266.3,187c11.7,18,20.4,35.5,26.8,52.7 M232,161.2c-3.1,6.5-8.5,40.4-2.9,59.5c6.7,4.3,39.7-10.5,60.1-34.6"
	/>
<path class="st2" d="M36.4,148.5c-4.6-1.5-12.8-14.4-8.1-14.8C35.6,133,38.7,145.7,36.4,148.5z M39.2,157.8
	c-4.9,6.5-12.8-1-17.7-4.7l-0.7-0.6l0.6-0.7C25.6,149.6,37,153.3,39.2,157.8z"/>
<path class="st2" d="M283.5,149.4c-1.8-7.3,3.2-7.4,8.9-10.3C293.9,138.5,291.9,151,283.5,149.4z M277.3,159.5
	c-7.1-2.5-7-9.6-10-15.6c0,0-1.6-1.2-0.5-1.2C276.9,142.7,279.6,152.5,277.3,159.5z"/>
</svg>
