<?xml version="1.0" encoding="utf-8"?>
<!-- Generator: Adobe Illustrator 21.1.0, SVG Export Plug-In . SVG Version: 6.00 Build 0)  -->
<svg version="1.1" id="Layer_1" xmlns="http://www.w3.org/2000/svg" xmlns:xlink="http://www.w3.org/1999/xlink" x="0px" y="0px"
	 viewBox="0 0 486 421" style="enable-background:new 0 0 486 421;" xml:space="preserve">
<style type="text/css">
	.st0{fill-rule:evenodd;clip-rule:evenodd;fill:#FCC826;}
	.st1{fill-rule:evenodd;clip-rule:evenodd;fill:#E1A836;}
	.st2{fill-rule:evenodd;clip-rule:evenodd;fill:#F7A1A1;}
	.st3{fill-rule:evenodd;clip-rule:evenodd;fill:#FFDD7F;}
	.st4{fill-rule:evenodd;clip-rule:evenodd;fill:#FFF1AB;}
	.st5{fill-rule:evenodd;clip-rule:evenodd;fill:#FABFBF;}
	.st6{fill:none;stroke:#DA7C78;stroke-width:1.7;stroke-linecap:round;stroke-linejoin:round;stroke-miterlimit:22.9256;}
	.st7{fill-rule:evenodd;clip-rule:evenodd;fill:#FFFFFF;}
	.st8{fill-rule:evenodd;clip-rule:evenodd;fill:#A5C3D2;}
	.st9{fill-rule:evenodd;clip-rule:evenodd;}
	.st10{fill:none;stroke:#9A6326;stroke-width:1.7;stroke-linecap:round;stroke-linejoin:round;stroke-miterlimit:22.9256;}
	.st11{fill-rule:evenodd;clip-rule:evenodd;fill:#4D4D4F;}
	.st12{fill:none;stroke:#000000;stroke-width:1.7;stroke-linecap:round;stroke-linejoin:round;stroke-miterlimit:22.9256;}
	.st13{fill:none;stroke:#823436;stroke-width:1.7;stroke-linecap:round;stroke-linejoin:round;stroke-miterlimit:22.9256;}
	.st14{fill-rule:evenodd;clip-rule:evenodd;fill:#FFE580;}
</style>
<path class="st0" d="M225.6,223.8c5.2,10.2,0.6,15.4-8.4,18.4c-7.8,3-14.4,0.9-16.8-7.7c-5.8,1.1-11.2-0.8-16.3-5.7l1.3,4.1
	l-5.6-2.6l-5.4-3.9c3,33.4,13.3,27.2,20,40.8l-4.1-0.8c18.9,21.1-5.5,32.3,1.3,43.6c18.9,9.2,26.9,19.1,19,30.6
	c-1,4.9-9.3,7.9-15.5,5.8c-9.6,1.9-23,2-36.4-13.1c-5.6-6.4,1-13.5-9.6-20.7c-13.7,2.5-24,6.6-30.8,12.1
	c-0.7,6.8-4.1,12.1-10.2,15.7c12.2,10.7,9.8,18.2,0.7,24.3c-3.9,5-8.8,6.2-14.6,3.4c-8.3,2.3-16.8-1.5-25.9-18.5
	c-5.7-11.2-5.1-22.7,4.6-34.4c-9.6-11.1-14.1-23.5-11-38l-3.4,6.4c-1.4-7.3-1.1-15,0.9-23.2c-4.4,4.7-9.1,5.5-14.2,2.3
	c-11.2-3.5-18.7-10.5-13.2-29.7c2.6-21.6,10.4-36.3,23.5-44.2l-5,1.3c6.2-11.1,15.4-18.9,27.5-23.3c-7.8-4.3-12.8-11.6-14.9-21.8
	l-0.7,3c-6.3-13.4-7.8-25-2.1-41.2l-5,3.9c1-8,4.5-15.7,10.7-22.9C46.7,76.8,55.9,51.6,69.5,48l0.2,2c7.5-4.4,15.3-4.7,23.5,0.8
	l-5,1.1l7.5,3.6c3.5-7.2,9.9-11.8,19.3-13.8l-4.4,5.3c6.1-5.8,15.2-7,25.7-6.1l-6.9,3.9c16,0.3,26.2,4.6,32.6,11.6h-4
	c22.8,7.2,32.7,27.6,26.8,53.9c6.8,7.6,9.2,16.5,8.6,26.3l-3.3-2.8c1.9,18.4-4.2,29.2-14.1,36.5c6.1,2.7,10.4,7.1,13,13.3l-3-0.6
	C199.3,205.4,221,206.7,225.6,223.8z"/>
<path class="st1" d="M202.2,226.4c5.2,10.2,1.5,14.1,15.1,15.7c-7.8,3-14.4,0.9-16.8-7.7c-5.8,1.1-11.2-0.8-16.3-5.7l1.3,4.1
	l-5.6-2.6l-5.4-3.9c3,33.4-2.3,25.6,4.4,39.2l-4.1-0.8c23.7,35.3-21.7,47.4-7.6,65.6c21.5,23.8,51.5-1.2,43.5,10.3
	c-1,4.9-9.3,7.9-15.5,5.8c-9.6,1.9-23,2-36.4-13.1c-5.6-6.4,1-13.5-9.6-20.7c-13.7,2.5-24,6.6-30.8,12.1
	c-0.7,6.8-4.1,12.1-10.2,15.7c12.2,10.7,9.8,18.2,0.7,24.3c-3.9,5-8.8,6.2-14.6,3.4c-8.3,2.3-16.8-1.5-25.9-18.5
	c-5.7-11.2-5.1-22.7,4.6-34.4c-9.6-11.1-14.1-23.5-11-38c1.1,25.6,11.5,37.7,24.7,42.6c2.1,9.4-2.7,19.1-9.1,21.4
	c9.4,28.1,44.5,14.5,30.6-0.9c6.4-2.5,9.9-7.8,10.2-15.7l21.3-10.2c-60.7,18.9-72-56.7-59.8-100.7l-7.8,6.7l-5.2,10.8l-1.6,17.2
	c-14-27.5,7.7-55.4,28.4-60.6l-5,1.3c6.2-11.1-22.7-17.8-10.6-22.3c-7.8-4.3-12.8-11.6-14.9-21.8l-0.7,3c-6.3-13.4-7.8-25-2.1-41.2
	l-5,3.9c1-8,4.5-15.7,10.7-22.9c-19.3-11.1-2-31.3,12.9-23.5L79.7,85l19.8-19.2l-1.4-6.6l-2.4-3.6c3.5-7.2,9.9-11.8,19.3-13.8
	l-4.4,5.3c6.1-5.8,15.2-7,25.7-6.1l-6.9,3.9c16,0.3,26.2,4.6,32.6,11.6c-22.1-7.3-43.3-7.1-62.6,9.3L79.7,85l7.3-7.1
	c-10.2,11.5-16.5,43.2,4.2,52.7c-17.5,14.5-6.3,39.5,17.5,40.1c1.9,18.4,71.5,11.2,61.7,18.5C181.5,194.1,174.5,225.5,202.2,226.4z"
	/>
<path class="st1" d="M186.4,99.9c-0.4-18.5-6-31.2-17-38c3.1-4.6,7.3-6.2,11.9-6.4l-1.4,4.1C199.1,58.4,208.5,85.9,186.4,99.9z"/>
<path class="st2" d="M132.7,152.6l4.2-2.2l4.9-3.5l2.3,3.1l1.9,1.6C145.5,161.9,134.3,158.6,132.7,152.6z"/>
<path class="st3" d="M144.7,117.7c-13.5-2.1-32.9,4.8-32.9,17.9c-0.8,19.1,20.5,20.8,30,11.3c6.6,12.6,27.1,6.1,28-3.8
	C171.5,132.7,163.9,120.5,144.7,117.7z"/>
<path class="st4" d="M144.7,117.7c-13.5-2.1-32.9,4.8-32.9,17.9c5.7-21.5,62.7-19.5,58,7.5C171.5,132.7,163.9,120.5,144.7,117.7z"/>
<path class="st5" d="M79,64.6c10.2,3.3,9.6,15,5.4,17.9c-8.1,6.9-13.7-0.8-7.9-4.9c-2.3,0.1-4.3,0.8-6.1,2.3
	C67,71.2,73.3,65.6,78,67.5L79,64.6z"/>
<path class="st6" d="M79,64.6c10.2,3.3,9.6,15,5.4,17.9c-8.1,6.9-13.7-0.8-7.9-4.9c-2.3,0.1-4.3,0.8-6.1,2.3
	C67,71.2,73.3,65.6,78,67.5L79,64.6z"/>
<path class="st3" d="M100.1,192.9l53.6,10.9c-0.6,25.3,18.2,31.3,13.8,58.4c-7.5,41.9-65.1,40.5-74,9l-0.7,4.5
	C82.9,260.4,78.3,224.8,100.1,192.9z"/>
<ellipse transform="matrix(4.210735e-02 -0.9991 0.9991 4.210735e-02 49.417 268.913)" class="st7" cx="165" cy="108.7" rx="9.6" ry="9.4"/>
<ellipse transform="matrix(4.210989e-02 -0.9991 0.9991 4.210989e-02 15.392 225.1774)" class="st7" cx="125.1" cy="104.6" rx="9.6" ry="9.4"/>
<path class="st8" d="M164.6,104.9c-3.3,1.4-4.8,5.2-3.5,8.5c1.3,3.3,5,4.9,8.3,3.5c3.3-1.4,4.8-5.2,3.5-8.5
	C171.6,105.2,167.9,103.7,164.6,104.9z"/>
<path class="st8" d="M124.6,101c-3.3,1.4-4.8,5.2-3.5,8.5c1.3,3.3,5,4.9,8.3,3.5c3.3-1.4,4.8-5.2,3.5-8.5
	C131.6,101.2,127.8,99.7,124.6,101z"/>
<ellipse transform="matrix(4.251778e-02 -0.9991 0.9991 4.251778e-02 48.9365 275.4908)" class="st9" cx="168.2" cy="112.2" rx="4.6" ry="4.5"/>
<ellipse transform="matrix(4.208384e-02 -0.9991 0.9991 4.208384e-02 14.8898 231.7037)" class="st9" cx="128.3" cy="108.1" rx="4.6" ry="4.5"/>
<ellipse transform="matrix(4.262128e-02 -0.9991 0.9991 4.262128e-02 49.3067 270.621)" class="st7" cx="165.9" cy="109.6" rx="2.1" ry="2"/>
<ellipse transform="matrix(4.167105e-02 -0.9991 0.9991 4.167105e-02 15.3261 226.8906)" class="st7" cx="125.9" cy="105.5" rx="2.1" ry="2"/>
<path class="st10" d="M165.4,99.2c-5.2-0.2-9.6,3.9-9.8,9.2c-0.2,5.3,3.8,9.8,9,10c5.2,0.2,9.6-3.9,9.8-9.2
	C174.6,103.8,170.6,99.4,165.4,99.2z M144.7,117.7c-13.5-2.1-32.9,4.8-32.9,17.9c0.1,18.4,20.5,20.8,30,11.3
	c6.6,12.6,26.4,6.1,28-3.8C172.4,131.4,163.9,120.5,144.7,117.7z M125.5,95c-5.2-0.2-9.6,3.9-9.8,9.2c-0.2,5.3,3.8,9.8,9,10
	c5.2,0.2,9.6-3.9,9.8-9.2C134.7,99.7,130.7,95.2,125.5,95z M132.3,152.1c3.2,7.1,11.5,7.1,13.7,0.9"/>
<path class="st0" d="M143.6,121.1c-7.6-0.1-13.8,2.6-13.9,6.1c-0.1,3.5,6.1,6.4,13.7,6.5c7.6,0.1,13.8-2.6,13.9-6.1
	C157.4,124.1,151.2,121.2,143.6,121.1z"/>
<path class="st11" d="M145.2,121.1c-7.3-0.6-13.4,1.3-13.7,4.2c-0.2,2.9,5.5,5.8,12.8,6.3c7.3,0.6,13.4-1.3,13.7-4.2
	C158.3,124.5,152.5,121.6,145.2,121.1z"/>
<path class="st12" d="M145.2,121.1c-7.3-0.6-13.4,1.3-13.7,4.2c-0.2,2.9,5.5,5.8,12.8,6.3c7.3,0.6,13.4-1.3,13.7-4.2
	C158.3,124.5,152.5,121.6,145.2,121.1z"/>
<path class="st0" d="M102.9,195.2c2.6,11.6,18.2,13.3,17.4,27c13-2.5,25.8-8.9,31.9-16.5L102.9,195.2z"/>
<path class="st4" d="M114.2,201.1c3.6,5.3,9.8,7,9.2,15.8c13-2.5,23.8-6.6,29.9-14.2l-1.2,3.1c9.7-4.5,14.6-9,14.7-13.5l1.2,2.4
	c6.9-12,0.8-22.1-9-18.8l3.3-2.4c-9.6-1.1-18.3,0.6-25.4,6.5c-12.7-14.2-40.5-11.5-42.1,0.1l4-1.8C92.4,185,100.3,197.2,114.2,201.1
	z"/>
<line class="st13" x1="69.8" y1="50.2" x2="70.1" y2="48.1"/>
<path class="st10" d="M212.3,230.8c3.7,2.4,5.3,6.2,4.9,11.4 M220.8,219.7c11,5.4,7.9,21.9-3.6,22.5c-5.1,4.3-16.4-0.3-16.8-7.7
	c-5.7,0.5-11.2-0.7-16.3-5.7l1.3,4.1c-4-1.3-7.8-3.4-11.1-7.5 M73.8,145.1c-1.4,0.3-2.4,1.9-3,3.3 M179.9,142.8
	c1.8,0,3.4,1.9,4.5,3.4 M180.7,135.8c2.1,0,3.3,1.2,4.1,2.2 M163.7,183.1c1.6,1.5,1.5,4.4,1.1,6.7 M106.1,181.3
	c-1.3,0.5-2.4,2.4-2.7,4.1 M110.7,184.4c-0.6,1.7-0.6,4.1,0,5.4 M66.2,275.8c-0.5-1.5,0.6-4.3,2.1-5.4 M72.1,280.7
	c-0.7-1-0.3-3.2,0.5-4.3 M75.6,290.5c-0.3-0.8,0.2-2.3,0.9-2.9 M189.3,292.6c0.2-1.2-1.1-3.1-2.4-3.8 M193.2,277.9
	c-0.1-0.8-1.2-1.8-2.1-2.1 M185.3,300.2c0.3-1.1-0.7-2.8-1.7-3.5 M69.5,137.4c-1.4,0-2.7,1.5-3.5,2.7 M170.9,197.7
	c9.1,12.9-3.6,32.1,11.7,56.6c3.7,5.3,9.2,6,11.9,12.9l-4.1-0.8c19.8,23.1-6.4,30.6,1.3,43.6 M202,328.3c6.2,2.4,8.3,6.9,8.6,12.3
	 M189.7,333.9c4.3,3.3,5.6,7.7,5.4,12.5 M185.4,305c8.4,11,37,13,25.2,35.7c-0.4,3.7-8.6,8-15.5,5.8c-11.3,2.7-23.1,1.6-36.4-13.1
	c-5.6-5.6,0.9-14.2-9.6-20.7 M118.3,324.8c11-8.6,25.9-13,44.9-13.1 M92,352.9c5.5,4.4,6.5,10.3,2.2,15.1 M105.6,350.9
	c3.9,4.3,4.3,9,3.2,13.8 M72.9,315.2c-13.9,16.9-9.2,32.8,5.9,48.2c5.4,5.2,10.6,5.9,15.5,4.7c6,2.4,12.2,1.2,14.6-3.4
	c9.7-5.1,10.2-16.4-0.7-24.3 M94.6,340.2c14.6,3.9,22.7-2.7,24.3-19.8 M59.5,260.5c-2.3,8.3-2.1,15.9-0.9,23.2l3.4-6.4
	c-3.9,19.1,5.3,37.7,24.3,48.4 M40.9,250.4c0,14.7,11.8,18,18.6,10.1c11.2-5.6,0.7-24.6,12.7-40 M59.5,260.5
	c-4.6-3.6-6.5-9.3-5.7-17 M78.1,167c-13.2,4.5-20.6,13.3-27.5,23.3l5-1.3c-12.8,6.9-20.3,22.1-23.5,44.2
	c-1.8,7.8-6.7,23.2,13.2,29.7 M169.3,61.9c3.1-4.6,7.3-6.2,11.9-6.4l-1.4,4.1c19.2-1.2,28.6,26.3,6.5,40.3 M70.1,48.1
	C51.7,53.5,48.7,85.3,72,90 M66.2,88.1c-5.3,5.3-9.1,14-10.7,22.9l5-3.9c-5.8,16.4-3.2,27.7,2.1,41.2l0.7-3
	c3,14.9,14.4,24.7,27.7,26 M110.6,195.3c2.3,7.8,13.8,11.4,12.8,21.5c13-2.5,23.8-6.6,29.9-14.2l-1.2,3.1c9.7-4.5,14.6-9,14.7-13.5
	l1.2,2.4c6.9-12,0.8-22.1-9-18.8l3.3-2.4c-9.6-1.1-18.3,0.6-25.4,6.5c-12.7-14.2-40.5-11.5-42.1,0.1l4-1.8
	c-6.5,6.8,1.4,19,15.3,22.9 M153.7,203.8c-0.6,25.3,18.2,31.3,13.8,58.4c-7.5,41.9-65.1,40.5-74,9l-0.7,4.5
	c-9.9-15.2-14.5-50.9,7.4-82.7 M130.4,158.2c3.5,7.1,8.7,7.6,15.1,3.7 M95,76.7c8.3-7.9,5.1-23.5-6.6-24.6l5-1.1
	c-7.5-5.1-15.3-5.3-23.5-0.8l-0.3,5.3 M95.8,55.7c3.5-7.2,9.9-11.8,19.3-13.8l-4.4,5.3c6.1-5.8,15.2-7,25.7-6.1l-6.9,3.9
	c16,0.3,26.2,4.6,32.6,11.6H158c22.8,7.2,32.7,27.6,26.8,53.9c6.8,7.6,9.2,16.5,8.6,26.3l-3.3-2.8c1.9,18.4-4.2,29.2-14.1,36.5
	c6.1,2.7,10.4,7.1,13,13.3l-3-0.6c13.4,22.3,35.1,23.6,39.7,40.7"/>
<path class="st14" d="M216.2,214c-5.7-6-20.5-15-28.4-23.3C191.7,200.6,207.3,210.3,216.2,214z M173.7,70.4
	c5.9,9.6,8.4,20.9,9.9,31.1C186,92.3,183,75.5,173.7,70.4z M94.8,73.2c1.4-7,0.7-14.1-6.8-19.2C99.2,57.6,99.5,67,94.8,73.2z
	 M38.9,218.4c4.6-11.7,12.9-21.4,21-29.5C50.2,193,37.3,206.8,38.9,218.4z M115.3,322.9c-2.1,10.3-9.4,15.2-17.2,16
	C111.8,342.2,115.9,330.5,115.3,322.9z"/>
<path class="st4" d="M157.6,230.6c1.7,8.7,10.5,21,1.7,45.2C168.5,266.2,169.2,244,157.6,230.6z"/>
<path class="st0" d="M126,131c1.3,0.4,2,1.5,1.6,2.6c-0.4,1.1-1.7,1.7-3,1.3c-1.3-0.4-2-1.5-1.6-2.6
	C123.4,131.2,124.7,130.6,126,131z M153.7,136.1c-1.3,0.1-2.2,1.1-2,2.3c0.2,1.1,1.4,1.9,2.7,1.8c1.3-0.1,2.2-1.1,2-2.3
	C156.2,136.8,155,136,153.7,136.1z M133.5,135.4c1.3,0.4,2,1.5,1.6,2.6c-0.4,1.1-1.7,1.7-3,1.3c-1.3-0.4-2-1.5-1.6-2.6
	C130.9,135.6,132.3,135,133.5,135.4z M161.2,140c-1.3,0.1-2.2,1.1-2,2.3c0.2,1.1,1.4,1.9,2.7,1.8c1.3-0.1,2.2-1.1,2-2.3
	C163.7,140.7,162.5,139.9,161.2,140z M125.4,137.9c1.3,0.4,2,1.5,1.6,2.6c-0.4,1.1-1.7,1.7-3,1.3c-1.3-0.4-2-1.5-1.6-2.6
	C122.9,138.1,124.2,137.5,125.4,137.9z M161.9,133.1c-1.3,0.1-2.2,1.1-2,2.3c0.2,1.1,1.4,1.9,2.7,1.8c1.3-0.1,2.2-1.1,2-2.2
	C164.4,133.8,163.2,133,161.9,133.1z"/>
<path class="st14" d="M125.8,90.2c4.2-0.2,5.8-8.5-5.8-5.4c-1.5,0.4-7.5,2.8-5.6,6.2C115.4,92.8,122.4,90.6,125.8,90.2z M166.2,93.8
	c-3.4-0.9-3.3-7.9,5.6-3.5c1.2,0.6,5.7,3.6,3.6,6C174.2,97.6,168.9,94.6,166.2,93.8z"/>
<path class="st10" d="M125.8,90.2c4.2-0.2,5.8-8.5-5.8-5.4c-1.5,0.4-7.5,2.8-5.6,6.2C115.4,92.8,122.4,90.6,125.8,90.2z M166.2,93.8
	c-3.4-0.9-3.3-7.9,5.6-3.5c1.2,0.6,5.7,3.6,3.6,6C174.2,97.6,168.9,94.6,166.2,93.8z"/>
</svg>
