<?xml version="1.0" encoding="utf-8"?>
<!-- Generator: Adobe Illustrator 21.1.0, SVG Export Plug-In . SVG Version: 6.00 Build 0)  -->
<svg version="1.1" id="Layer_1" xmlns="http://www.w3.org/2000/svg" xmlns:xlink="http://www.w3.org/1999/xlink" x="0px" y="0px"
	 viewBox="0 0 486 421" style="enable-background:new 0 0 486 421;" xml:space="preserve">
<style type="text/css">
	.st0{fill-rule:evenodd;clip-rule:evenodd;fill:#B28ABF;}
	.st1{fill-rule:evenodd;clip-rule:evenodd;fill:#9665AA;}
	.st2{fill-rule:evenodd;clip-rule:evenodd;fill:#FABFBF;}
	.st3{fill-rule:evenodd;clip-rule:evenodd;fill:#EA9A9D;}
	.st4{fill-rule:evenodd;clip-rule:evenodd;fill:#FFFFFF;}
	.st5{fill:none;stroke:#6D6E71;stroke-width:1.7;stroke-linecap:round;stroke-linejoin:round;stroke-miterlimit:22.9256;}
	.st6{fill-rule:evenodd;clip-rule:evenodd;fill:#A8D4EA;}
	.st7{fill:none;stroke:#E47A6B;stroke-width:1.7;stroke-linecap:round;stroke-linejoin:round;stroke-miterlimit:22.9256;}
	.st8{fill-rule:evenodd;clip-rule:evenodd;}
	.st9{fill-rule:evenodd;clip-rule:evenodd;fill:#C7A9D0;}
	.st10{fill:none;stroke:#6C3E81;stroke-width:1.7;stroke-linecap:round;stroke-linejoin:round;stroke-miterlimit:22.9256;}
	.st11{fill-rule:evenodd;clip-rule:evenodd;fill:#F7A1A1;}
	.st12{fill-rule:evenodd;clip-rule:evenodd;fill:#DACAE3;}
</style>
<path class="st0" d="M422.6,153.4c-7.1,10.9-15.3,18.7-24.2,24.4c23.8,23.3,25.1,53.7,13.8,70.7h-5.9l-2,6.1
	c12.3,5.3,21.2,23.2,37,15.8c-15.5,12.7-27.6-4.8-41.4-7.2l-3.8,4c11.5,19.3,14.3,35,8.4,47.2c-5.5,8.7-35.8,15.5-49.5,2.1
	c-0.8-12.7,6.5-24.3,2.1-32.1l-37.4-4.6l-2.8,6.5l4.2,7.8c-6.8,7.3-41.9,23.4-44.3,14.5c-17.4-20-6.7-50.5,19.6-53.8
	c-3.4-8.9-5-18.5-3.7-29.1l-4.5-5.6l-2.8,6.6l-2.8,2.8c-13.1,0.2-22.6-4.8-30.1-15.8c1.6-12,9.1-20.7,18.4-25.1
	c-5.9-18.9-9.8-25.6-9.8-48.9c-14.4-11.7-14.1-20.2-9.5-18.2l9.9,4.4c1.6-19,6-36.6,13.8-52.4C261.8,69,256,59,265.4,48.3
	c9.8-7.3-2.4-15.4,1.1-23.5c4.8-9.1,18.2,0.5,20.7-17.3c0.7-9,19-14.7,36.2,18.9l12.8-3.3c-5-5,4.7-10.2,14.5-7
	c-14.4-11.7-1-14.2,15,4.2c33.2,7.7,52.4,26.7,62.8,49.4c34.3-6,52.4,6,52.1,17.8c0.1,7.1-11.6,10-2.3,19.1c6.4,6,8,15.8-0.2,18.1
	c-16.2,7.3-4.9,20.8-10.9,26.2c-9.5,9.1-18.4-10.3-26.3,2.5C436.4,161.6,428.6,161.1,422.6,153.4z"/>
<path class="st1" d="M418.8,145.9c-7.1,21-32.1,40.7-53.8,41c-12.9,1.5-23,5.6-27.1,15.1c-4.2,11.1,6,31.4,25.3,33.2
	c8.6,0.5,10.6-13.9,8-24.5l4.6,7l4.3,2.2l-2.1,15.9l4.8-0.2c4.4-1.8,8.4-1.9,14,1.8c19.5-3.4,5.6-41-1.3-48.7
	c15.4,5.2,26.6,28.6,20,54l-3.3,5.9h-5.9l-2,6.1c12.3,5.3,21.2,23.2,37,15.8c-15.5,12.7-27.6-4.8-41.4-7.2l-3.8,4
	c11.5,19.3,14.3,35,8.4,47.2c-5.5,8.7-28.3,14.9-42.1,1.5c2.4-6.3,5.8-12,17-13.2c7-2.2,1.3-24.5-16.5-18.4
	c-15.9,1.2-30.4-0.1-43.4-4.6l-2.8,6.5c1.4,1.8,3.7,5,4.2,7.8c-4.4,3.9-16.9,14.2-26.7,3.5c-12-12.3-5.4-29.5,6.4-34.2
	c18.3,17.9,66.3,19.2,68.6-2.1c-32.4,9.5-63.9-13.1-71.9-30.2c28.9,26.1,49.9,24.9,64.8,25.2l1.8-1.1l-0.7-4.6l1.4-1.6
	c2.9-4.8,1-7.7-5.7-8.8c-30.9-5.1-57-28.1-51.6-73.4c-13.5-4.6,26.7,11,36.1,0.4l10.1,11.5c-17.7-26.2,18.5-7.6,43.4-39.7
	c25.9-36.8,16.2-84.8-25.4-108.4c24.8,7.8,40.8,16.3,51.1,39c-6.7,30.2,31.6,12.9,43.7,27.6c6.9,6.6,5.5,17.3,0.4,24.2
	c-8.7,10.6,0.8,19.2-4.7,24.3c-9.5,9.1-13.1-5.2-21,7.6C436.4,161.6,424.9,153.7,418.8,145.9z"/>
<polygon class="st2" points="346.1,173 322.6,172.1 320,174 319.8,179.4 325.1,188.7 328,190.8 331.2,189.7 333.6,187.6 "/>
<path class="st3" d="M346.1,173l-23.4-0.9L320,174l-0.2,5.4c6-1.1,9.1-0.5,9.3,1.8c3.9-3.9,7.5-4.2,10.7-0.9L346.1,173z"/>
<path class="st2" d="M462.8,119.4c-1.9,12.4-15,19.7-27.1,17.5c-2.4,4.7-5.1,5.3-7.8,5.7c6.1-16.5,8.3-32.6,6.4-48.3
	c10.4,2.6,18.8-2,27.6,3.7C468.4,102.2,468.1,113.9,462.8,119.4z"/>
<path class="st4" d="M343,136.8c7.9,4,14.6-0.9,21.9-1.3c6.5-14.2,2.1-28.7-3.8-29.9C352.3,104.6,342.2,116.4,343,136.8z"/>
<path class="st4" d="M260.8,139.8l0.3-13.8c-4.6-0.5-11.1-6.7-12.6-4.3C246.9,123.5,250.6,132.5,260.8,139.8z"/>
<path class="st4" d="M347.8,172.4c-4.3-2.9-6.2-6.7-5.7-11.4c-31.2,3.5-41.6-11.1-43.1-7.1C298.1,159.4,314.6,183.1,347.8,172.4z"/>
<path class="st5" d="M342.1,161.1c-31.2,3.5-41.6-11.1-43.1-7.1c-0.9,5.5,15.6,29.2,48.8,18.5"/>
<path class="st5" d="M261.1,126c-4.6-0.5-11.1-6.7-12.6-4.3c-1.6,1.7,2,10.8,12.3,18"/>
<path class="st6" d="M343.5,127l-0.5,9.8c6.4,3.7,11.3-0.3,17-0.4c5.1-11.2,1.8-23.2-2.7-24.2C351.4,110.9,345,116.4,343.5,127z"/>
<path class="st7" d="M337.2,178.7c-4.2-0.7-6.6,0.5-8.1,2.5c-0.6-1.6-2.7-2.4-6.3-2.5"/>
<path class="st8" d="M351.3,138.1c3.2,0,5.9-2.6,5.9-5.9c0-3.2-2.6-5.9-5.9-5.9c-3.2,0-5.9,2.6-5.9,5.9
	C345.4,135.4,348,138.1,351.3,138.1z"/>
<path class="st4" d="M355.3,130.8c1.3,0,2.4-1.1,2.4-2.4c0-1.3-1.1-2.4-2.4-2.4s-2.4,1.1-2.4,2.4
	C352.8,129.8,353.9,130.8,355.3,130.8z"/>
<path class="st4" d="M359.5,120.6c1.7,0,3.1-1.4,3.1-3.1s-1.4-3.1-3.1-3.1s-3.1,1.4-3.1,3.1C356.3,119.2,357.8,120.6,359.5,120.6z"
	/>
<path class="st9" d="M377.8,112.5c-1.7-6.2-13.7-10.8-8.8-13.9C374,95.6,381.8,105.6,377.8,112.5z"/>
<path class="st10" d="M377.8,112.5c-1.7-6.2-13.7-10.8-8.8-13.9C374,95.6,381.8,105.6,377.8,112.5z"/>
<path class="st2" d="M307.8,34.4c-12,8-21.2,18.8-27.3,29.2c-0.7-1.4-0.5-4.9,0.8-6.5c-5.9-3.8-6.4-11.6-4.3-18
	C282.6,22.7,296.2,18.6,307.8,34.4z"/>
<path class="st9" d="M410.7,249.2c-13.6,3.5-34.6-1.2-32.7-13.4c4.5-1.3,12.9,0.9,14.8,8.1C398.4,233.7,412.5,248.1,410.7,249.2z
	 M355.7,307.2l-0.8,9.3c11.6,13.4,46.1,6.7,49.5-2.1c-3.4-3.7-7.5-3.3-12.3,1c-9.4-9.5-25-9.1-29.8,0.5
	C361.1,311.7,358.9,308.8,355.7,307.2z M271.3,300.6l5.6,8.8c9.6,3.6,24.2-3,40.1-12.1c-9.6-7.6-21.9-3-26.8,4.7
	C287.6,298.6,281.4,297.3,271.3,300.6z M252.2,213.8c1.9,7.8,20.9,18.1,30.1,15.8c-2.3-9.6-12.5-14-17.6-9
	C263.8,210.6,256.4,208.8,252.2,213.8z"/>
<path class="st9" d="M301.2,258.1c6.4,7.1,16.4,11.5,25.3,14C317.2,272.6,306,268.5,301.2,258.1z M290.5,215.4
	c7.6,10.8,17.6,19.4,30.6,27.6C306.9,238,295.9,228.4,290.5,215.4z M477.1,86.2c-5.1-10.6-29.6-16.9-40.4-14.7
	C449.8,66.9,476.9,72.7,477.1,86.2z M313.7,16.8C308.9,11.1,298.3,5,292.1,4C297.7,1,307.8,6.1,313.7,16.8z M282.4,67.9
	c-8.4,14.2-13.6,30-17.2,49.2C265,98.2,270.8,80.7,282.4,67.9z M340.3,126.1c2.1-9.7,8.5-19.5,14.1-22.1
	C345.3,103.1,339.5,116.1,340.3,126.1z M346.7,153.6c-2.1,7.9-3.5,10,4.1,20.7C341.7,167,338.2,161.6,346.7,153.6z M361.3,249
	c8.9-4.3-1.2-8.6-12.9-9.1C357.9,242.7,364.3,243.1,361.3,249z M382.6,204.8c3.5,6.7,2.7,22.1-1.6,27.5
	C382.7,224.8,382.4,210.9,382.6,204.8z"/>
<path class="st11" d="M304.2,32.7c-7.4-3.5-13.3-4.4-20.1-1.5C291.9,24.5,297.1,26,304.2,32.7z"/>
<path class="st11" d="M464.3,107.8c-4.2-7.6-11.3-7.1-20.7-9.3C453.9,98.4,462.1,96.5,464.3,107.8z"/>
<path class="st1" d="M366.7,106.6c4.2,7.1,1.6,23-1.8,29h4C374,127.9,373.7,115.4,366.7,106.6z"/>
<path class="st10" d="M396,267.2c11.1,17.8,14,34.1,8.4,47.2c-4.1,8.3-37.2,16-49.5,2.1c-0.4-12.2,6.3-23.3,2.1-32.1 M404.3,254.7
	c15,5.7,17.7,22.1,37,15.8c-16.8,12.8-25.3-4.7-41.4-7.2 M405.6,250.5c-8.3,21.1-20.8,30.7-50.8,34.1c-43.8,2.4-65.1-21.1-62.3-58.8
	 M310,280.4c6.4,4.7,8.8,7.6,10.9,13.7c-6.6,7-39.4,22.1-44.3,14.5c-17.2-19.7-5.9-49.4,18.6-53.7 M287.9,220.2
	c-1.4,5.6-3.8,8.2-5.6,9.4c-7.8,0.8-24-4.2-30.1-15.8c1.7-11.7,9-20.9,18.4-25.1 M296.5,221.7c-1.7,0.8-3.6,2.4-4.1,4.1 M314,235.4
	c-1.9,1.2-3.8,3.5-4.1,5.6 M286.4,114.4c-2.6-1.9-6.2-2.2-8.7-1.6 M295.4,100.9c-3.5-2.6-9-3.5-12.9-3.3 M281,143.4
	c-1.9-0.8-4.6-1-6.4-0.1 M286.6,210.7c-1.5,0.4-3.1,1.4-3.7,2.7 M345.9,152.9c-11.4,14.8,5.4,19.8,7.5,25.8 M423.8,70.8
	c34.4-9.2,56,3.5,56.7,16.7c0.1,7.1-11.6,10-2.3,19.1c6.4,6,8,15.8-0.2,18.1c-16.2,7.3-4.9,20.8-10.9,26.2
	c-9.5,9.1-18.4-10.3-26.3,2.5c-4.5,8.3-12.3,7.9-18.3,0.1 M434.4,94.4c5.5,46-21.7,97.9-80.3,92.3c-11.9-1.1-18.4,11.5-26.1,10.4
	c-3.9-0.8-6.5-4.8-8-9.5 M359.3,22.9c-10.6-7.3-16.5-12.6-15.4-15c2.3-2.6,11.7,0.6,21.5,12.6c29,5.2,54.8,26.9,63.1,49.1
	 M350.9,22.3c-4.6,2.5-12.1,3.6-15,1.1c-42.6,6.6-71.2,52-74.9,104.2c-3.9,66.9,38.5,133,101.1,128.6c4.6-0.3-1.6-5.5,2.4-7.4
	c3.4-3.3,1.9-6.7-2.9-8.1c-27.6-6.4-43.3-28.5-41.7-65.5 M277,39.1c5.6-16.4,19.3-20.6,30.8-4.7 M323.1,26.7
	c-16-32.1-35.1-28.9-36.2-19c-2.4,17.9-16.9,8.1-20.7,17.3c-4.1,9.2,9.2,14.8-1.1,23.5c-7.3,6.2-6.5,20.5,9.9,25.3 M378,235.8
	c4.5-1.3,12.8,0.5,14.8,8.1c3.7-6.7,13.3-4.7,18.1,5.2 M398.3,177.8c21.9,18.8,25.9,54.3,13.8,70.7c-14.2,7-36.7-3.6-34.2-12.7
	c1.5-7.2,2.6-8.7,1.9-26.2 M380.1,219.9c-3.1-0.7-7.8-4-9-9.2 M430,92.3c10.5,6.7,23.2,0.1,32,5.7c6.5,4.1,6.2,16,0.9,21.4
	 M335.9,23.4c-3.6-4.2-0.6-9.5,14.5-7 M364.9,135.5c6.5-14.2,2.1-28.7-3.8-29.9c-8.8-1-18.9,10.9-18.1,31.3 M339,133.8
	c9.6,10,21.1-0.4,31.2,1.9 M282.3,229.6c-2.3-9.6-12.5-14-17.6-9c0.2-7.8-8.2-12.2-12.4-7.1 M404.4,314.4c-3.4-3.7-7.5-3.3-12.3,1
	c-9.4-9.5-25-9.1-29.8,0.5c-1.2-4.2-3.4-7.1-6.7-8.7 M347.8,172.4c-7.6,5.2-14.2,18.6-19.8,18.4c-2.6-0.9-5.5-5.2-8.2-11.5
	 M316.7,286.3l2.8-6.5 M317.2,297.1c-9.6-7.6-22.1-2.8-27,4.9c-4.5-4.7-13.9-3.7-18.9-1.4"/>
<path class="st12" d="M388.9,315.1c-7-3.5-14.2-3.8-22.6-2C374.1,308,382.1,308.5,388.9,315.1z M292.3,301.7
	c4.4-3.3,13.1-7.1,21.8-4.6C305,292.6,296.5,295.2,292.3,301.7z M408.7,248.8c-2.4-2.8-9.3-6.9-13.6-4.6
	C397.7,238.4,406.8,244.4,408.7,248.8z"/>
</svg>
