<?xml version="1.0" encoding="utf-8"?>
<!-- Generator: Adobe Illustrator 21.1.0, SVG Export Plug-In . SVG Version: 6.00 Build 0)  -->
<svg version="1.1" id="Layer_1" xmlns="http://www.w3.org/2000/svg" xmlns:xlink="http://www.w3.org/1999/xlink" x="0px" y="0px"
	 viewBox="0 0 486 421" style="enable-background:new 0 0 486 421;" xml:space="preserve">
<style type="text/css">
	.st0{fill-rule:evenodd;clip-rule:evenodd;fill:#FFEFC6;}
	.st1{fill-rule:evenodd;clip-rule:evenodd;fill:#D9E5AC;}
	.st2{fill-rule:evenodd;clip-rule:evenodd;fill:#CAE197;}
	.st3{fill-rule:evenodd;clip-rule:evenodd;fill:#F3BBBC;}
	.st4{fill-rule:evenodd;clip-rule:evenodd;fill:#E28CB5;}
	.st5{fill-rule:evenodd;clip-rule:evenodd;fill:#DA7BA1;}
	.st6{fill:none;stroke:#AC4D68;stroke-width:1.7;stroke-linecap:round;stroke-linejoin:round;stroke-miterlimit:22.9256;}
	.st7{fill:none;stroke:#823436;stroke-width:1.7;stroke-linecap:round;stroke-linejoin:round;stroke-miterlimit:22.9256;}
	.st8{fill-rule:evenodd;clip-rule:evenodd;fill:#C7EAFB;}
	.st9{fill:none;stroke:#3EB3E6;stroke-width:1.7;stroke-linecap:round;stroke-linejoin:round;stroke-miterlimit:22.9256;}
</style>
<path class="st0" d="M360.2,391L56.6,341.3C-26.3,265.7-1.4,146,27.6,111c45.3-54.7,87.9-69.3,153.3-43.7
	C220.6,83,241.9,33.9,293.2,18c160.8-49.8,243.3,150.1,159.3,291.3C428.3,350,384.5,375.6,360.2,391z"/>
<path class="st1" d="M377.1,307.6c-64.8,9.1-128.6,10.5-190.7-5.4c-7.6-5.1-11.2-18.8-12.2-27.4c-0.6-5.4,2.1-11.1,8.5-11.8
	c9-1,26.4,29.1,24.8,23.9c-3.1-8.9-8-24.1-1.8-31.8c2.9-3.6,8.2-4.7,12.1,1.4c0.1,0.5,6.8,12.8,6.8,12.8c3,2.4,0.1,1.1,0.8-2.3
	c2.8-13.9,14.1,5.5,14.7,10.3c1-10.9,15-21.7,19.7-8.6c0.9,3.2,1.2,5.8,1.5,9c0.1,1.1,14.8-20.4,26.8-17.5c21,5,4.4,26.1,5,26
	c7-0.8,22.4,1.4,14.2,11.5c-8.1,10.1,25.4-20.1,41,3.7c2.7,4.1,3.8-7.4,13.3-6.9C366.4,294.9,376.6,302.8,377.1,307.6z"/>
<path class="st1" d="M56.6,341c-15.1-8.1-18-30.3,1.4-22.1c7.2,3.1-14.4-19.4,0.6-35.3c14-14.8,115.1-41.9,126-7.6
	c16.1,50.6,4.3-4.9,25.9-4.9c10.8,0,12.2,41.5,16.2,16.3c3.2-19.9,47.2-54.1,34.3-12.6c-5.1,16.4-18,32.6,3.6,19.9
	c9.1-5.3,46.2-36,58.8-36c7.2,0,1.8,10.8,1.8,14.4c0,3.6,37.9,0.5,59.5,0.5c14.4,0,37.3,2.5,30,18.7c-8.9,19.9-11.2,8.4,3.6,3.6
	c21.5-7,29.9,13.4,11.5,21.7c-45.7,20.4,30.7,28.9-3.6,63.2C372.1,435,56.6,445.8,56.6,341z"/>
<path class="st2" d="M95.2,393.6c-25.9-13-39.7-30.2-38.6-52.4c20.5-15,131.5-32.8,144.8-5.6C214.8,362.9,114.1,393.6,95.2,393.6z"
	/>
<path class="st2" d="M267,358.3c23.3,2.8,41.7,9.2,41,14.5c-0.7,5.2-20.1,7.2-43.4,4.5c-23.3-2.8-41.7-9.2-41-14.5
	C224.4,357.6,243.8,355.5,267,358.3z"/>
<path class="st3" d="M316.3,371.4c-0.3,4.9-2.6,7.3-7.9,6c-5-4.5-3.8-14.4,1.7-21.1c3.5-2.1,7.4,0,7.2,3
	C312.6,360.2,317.3,372.1,316.3,371.4z"/>
<path class="st2" d="M356.2,324.8c26,0,47.3-5.9,47.3-13.2s-21.2-13.2-47.3-13.2c-26,0-47.3,5.9-47.3,13.2
	C309,318.9,330.2,324.8,356.2,324.8z"/>
<path class="st4" d="M308.3,377.3c-35.3,0.7-65.7-7-90.4-24.8c11.9-6.6,21.5-15.3,26.1-28.6c17.9,16.5,38.3,28.9,66,32.3
	C305.2,360.2,303.2,373.6,308.3,377.3z"/>
<path class="st5" d="M308.3,377.3c-35.3,0.7-65.7-7-90.4-24.8c11.9-6.6,21.5-15.3,26.1-28.6c17.9,16.5-15.5,31.9,12.3,35.3
	c9.5,1.1,46.5,1.4,49.1,12.5C306,374.2,307.7,376.9,308.3,377.3z"/>
<path class="st6" d="M308.3,377.3c-35.3,0.7-65.7-7-90.4-24.8c11.9-6.6,21.5-15.3,26.1-28.6c17.9,16.5,38.3,28.9,66,32.3
	C305.2,360.2,303.2,373.6,308.3,377.3z"/>
<path class="st6" d="M308.3,377.3c2,1.9,7.3,0.2,7.9-6"/>
<path class="st6" d="M310.1,356.2c3.5-2.1,7.4,0,7.2,3l-4.7,1c-3.1,9,1.2,12.5,3.7,11.1"/>
<path class="st7" d="M317.3,370.4c1,0,1.9-2.5,1.9-5.6c0-3.1-0.8-5.6-1.9-5.6c-1,0-1.9,2.5-1.9,5.6
	C315.4,367.9,316.2,370.4,317.3,370.4z"/>
<path class="st8" d="M319.7,367.2c-1.1,0.2-2.4-3.7-0.2-7.1c19.1-19.1,31.1-16.1,34.5-11c5.4,7.1,0.2,16.8-12.8,30.3
	c28.5-14.3,38.9,5.7,60.3,3.7c-12.5,9.7-25.1,1.5-39.1-0.7c-11.1-0.9-26.7,8-31.6,4.4c-3.6-1.8,9.3-14.6,13.9-21.9
	C349.9,356.1,343.7,350.8,319.7,367.2z"/>
<path class="st9" d="M319.7,367.2c-1.1,0.2-2.4-3.7-0.2-7.1c19.1-19.1,31.1-16.1,34.5-11c5.4,7.1,0.2,16.8-12.8,30.3
	c28.5-14.3,38.9,5.7,60.3,3.7c-12.5,9.7-25.1,1.5-39.1-0.7c-11.1-0.9-26.7,8-31.6,4.4c-3.6-1.8,9.3-14.6,13.9-21.9
	C349.9,356.1,343.7,350.8,319.7,367.2z"/>
</svg>
