<?xml version="1.0" encoding="utf-8"?>
<!-- Generator: Adobe Illustrator 21.1.0, SVG Export Plug-In . SVG Version: 6.00 Build 0)  -->
<svg version="1.1" id="Layer_1" xmlns="http://www.w3.org/2000/svg" xmlns:xlink="http://www.w3.org/1999/xlink" x="0px" y="0px"
	 viewBox="0 0 486 421" style="enable-background:new 0 0 486 421;" xml:space="preserve">
<style type="text/css">
	.st0{fill-rule:evenodd;clip-rule:evenodd;fill:#FFEFC6;}
	.st1{fill-rule:evenodd;clip-rule:evenodd;fill:#D9E5AC;}
	.st2{fill-rule:evenodd;clip-rule:evenodd;fill:#CAE197;}
	.st3{fill-rule:evenodd;clip-rule:evenodd;fill:#F3BBBC;}
	.st4{fill-rule:evenodd;clip-rule:evenodd;fill:#BB7446;}
	.st5{fill-rule:evenodd;clip-rule:evenodd;fill:#A16044;}
	.st6{fill-rule:evenodd;clip-rule:evenodd;fill:#F7A1A1;}
	.st7{fill-rule:evenodd;clip-rule:evenodd;fill:#D58F5C;}
	.st8{fill-rule:evenodd;clip-rule:evenodd;fill:#EBB081;}
	.st9{fill-rule:evenodd;clip-rule:evenodd;fill:#FABFBF;}
	.st10{fill-rule:evenodd;clip-rule:evenodd;fill:#EA9A9D;}
	.st11{fill-rule:evenodd;clip-rule:evenodd;fill:#FFFFFF;}
	.st12{fill:none;stroke:#6D6E71;stroke-width:1.7;stroke-linecap:round;stroke-linejoin:round;stroke-miterlimit:22.9256;}
	.st13{fill-rule:evenodd;clip-rule:evenodd;fill:#A8D4EA;}
	.st14{fill:none;stroke:#E47A6B;stroke-width:1.7;stroke-linecap:round;stroke-linejoin:round;stroke-miterlimit:22.9256;}
	.st15{fill-rule:evenodd;clip-rule:evenodd;}
	.st16{fill:none;stroke:#823436;stroke-width:1.7;stroke-linecap:round;stroke-linejoin:round;stroke-miterlimit:22.9256;}
	.st17{fill:none;stroke:#DA7C78;stroke-width:1.7;stroke-linecap:round;stroke-linejoin:round;stroke-miterlimit:22.9256;}
	.st18{fill-rule:evenodd;clip-rule:evenodd;fill:#E28CB5;}
	.st19{fill-rule:evenodd;clip-rule:evenodd;fill:#DA7BA1;}
	.st20{fill:none;stroke:#AC4D68;stroke-width:1.7;stroke-linecap:round;stroke-linejoin:round;stroke-miterlimit:22.9256;}
	.st21{fill-rule:evenodd;clip-rule:evenodd;fill:#C7EAFB;}
	.st22{fill:none;stroke:#3EB3E6;stroke-width:1.7;stroke-linecap:round;stroke-linejoin:round;stroke-miterlimit:22.9256;}
	.st23{fill:none;stroke:#ED1651;stroke-width:8.4999;stroke-linecap:round;stroke-linejoin:round;stroke-miterlimit:22.9256;}
	.st24{fill-rule:evenodd;clip-rule:evenodd;fill:#A5C3D2;}
	.st25{fill-rule:evenodd;clip-rule:evenodd;fill:#4D4D4F;}
	.st26{fill:none;stroke:#000000;stroke-width:1.7;stroke-linecap:round;stroke-linejoin:round;stroke-miterlimit:22.9256;}
</style>
<path class="st0" d="M360.2,391L56.6,341.3C-26.3,265.7-1.4,146,27.6,111c45.3-54.7,87.9-69.3,153.3-43.7
	C220.6,83,241.9,33.9,293.2,18c160.8-49.8,243.3,150.1,159.3,291.3C428.3,350,384.5,375.6,360.2,391z"/>
<path class="st1" d="M377.1,307.6c-64.8,9.1-128.6,10.5-190.7-5.4c-7.6-5.1-11.2-18.8-12.2-27.4c-0.6-5.4,2.1-11.1,8.5-11.8
	c9-1,26.4,29.1,24.8,23.9c-3.1-8.9-8-24.1-1.8-31.8c2.9-3.6,8.2-4.7,12.1,1.4c0.1,0.5,6.8,12.8,6.8,12.8c3,2.4,0.1,1.1,0.8-2.3
	c2.8-13.9,14.1,5.5,14.7,10.3c1-10.9,15-21.7,19.7-8.6c0.9,3.2,1.2,5.8,1.5,9c0.1,1.1,14.8-20.4,26.8-17.5c21,5,4.4,26.1,5,26
	c7-0.8,22.4,1.4,14.2,11.5c-8.1,10.1,25.4-20.1,41,3.7c2.7,4.1,3.8-7.4,13.3-6.9C366.4,294.9,376.6,302.8,377.1,307.6z"/>
<path class="st1" d="M56.6,341c-15.1-8.1-18-30.3,1.4-22.1c7.2,3.1-14.4-19.4,0.6-35.3c14-14.8,115.1-41.9,126-7.6
	c16.1,50.6,4.3-4.9,25.9-4.9c10.8,0,12.2,41.5,16.2,16.3c3.2-19.9,47.2-54.1,34.3-12.6c-5.1,16.4-18,32.6,3.6,19.9
	c9.1-5.3,46.2-36,58.8-36c7.2,0,1.8,10.8,1.8,14.4c0,3.6,37.9,0.5,59.5,0.5c14.4,0,37.3,2.5,30,18.7c-8.9,19.9-11.2,8.4,3.6,3.6
	c21.5-7,29.9,13.4,11.5,21.7c-45.7,20.4,30.7,28.9-3.6,63.2C372.1,435,56.6,445.8,56.6,341z"/>
<path class="st2" d="M95.2,393.6c-25.9-13-39.7-30.2-38.6-52.4c20.5-15,131.5-32.8,144.8-5.6C214.8,362.9,114.1,393.6,95.2,393.6z"
	/>
<path class="st2" d="M267,358.3c23.3,2.8,41.7,9.2,41,14.5c-0.7,5.2-20.1,7.2-43.4,4.5c-23.3-2.8-41.7-9.2-41-14.5
	C224.4,357.6,243.8,355.5,267,358.3z"/>
<path class="st3" d="M316.3,371.4c-0.3,4.9-2.6,7.3-7.9,6c-5-4.5-3.8-14.4,1.7-21.1c3.5-2.1,7.4,0,7.2,3
	C312.6,360.2,317.3,372.1,316.3,371.4z"/>
<path class="st2" d="M356.2,324.8c26,0,47.3-5.9,47.3-13.2s-21.2-13.2-47.3-13.2c-26,0-47.3,5.9-47.3,13.2
	C309,318.9,330.2,324.8,356.2,324.8z"/>
<path class="st4" d="M225.6,223.8c5.2,10.2,0.6,15.4-8.4,18.4c-7.8,3-14.4,0.9-16.8-7.7c-5.8,1.1-11.2-0.8-16.3-5.7l1.3,4.1
	l-5.6-2.6l-5.4-3.9c3,33.4,13.3,27.2,20,40.8l-4.1-0.8c18.9,21.1-5.5,32.3,1.3,43.6c18.9,9.2,26.9,19.1,19,30.6
	c-1,4.9-9.3,7.9-15.5,5.8c-9.6,1.9-23,2-36.4-13.1c-5.6-6.4,1-13.5-9.6-20.7c-13.7,2.5-24,6.6-30.8,12.1
	c-0.7,6.8-4.1,12.1-10.2,15.7c12.2,10.7,9.8,18.2,0.7,24.3c-3.9,5-8.8,6.2-14.6,3.4c-8.3,2.3-16.8-1.5-25.9-18.5
	c-5.7-11.2-5.1-22.7,4.6-34.4c-9.6-11.1-14.1-23.5-11-38l-3.4,6.4c-1.4-7.3-1.1-15,0.9-23.2c-4.4,4.7-9.1,5.5-14.2,2.3
	c-11.2-3.5-18.7-10.5-13.2-29.7c2.6-21.6,10.4-36.3,23.5-44.2l-5,1.3c6.2-11.1,15.4-18.9,27.5-23.3c-7.8-4.3-12.8-11.6-14.9-21.8
	l-0.7,3c-6.3-13.4-7.8-25-2.1-41.2l-5,3.9c1-8,4.5-15.7,10.7-22.9C46.7,76.8,55.9,51.6,69.5,48l0.2,2c7.5-4.4,15.3-4.7,23.5,0.8
	l-5,1.1l7.5,3.6c3.5-7.2,9.9-11.8,19.3-13.8l-4.4,5.3c6.1-5.8,15.2-7,25.7-6.1l-6.9,3.9c16,0.3,26.2,4.6,32.6,11.6h-4
	c22.8,7.2,32.7,27.6,26.8,53.9c6.8,7.6,9.2,16.5,8.6,26.3l-3.3-2.8c1.9,18.4-4.2,29.2-14.1,36.5c6.1,2.7,10.4,7.1,13,13.3l-3-0.6
	C199.3,205.4,221,206.7,225.6,223.8z"/>
<path class="st5" d="M202.2,226.4c5.2,10.2,1.5,14.1,15.1,15.7c-7.8,3-14.4,0.9-16.8-7.7c-5.8,1.1-11.2-0.8-16.3-5.7l1.3,4.1
	l-5.6-2.6l-5.4-3.9c3,33.4-2.3,25.6,4.4,39.2l-4.1-0.8c23.7,35.3-21.7,47.4-7.6,65.6c21.5,23.8,51.5-1.2,43.5,10.3
	c-1,4.9-9.3,7.9-15.5,5.8c-9.6,1.9-23,2-36.4-13.1c-5.6-6.4,1-13.5-9.6-20.7c-13.7,2.5-24,6.6-30.8,12.1
	c-0.7,6.8-4.1,12.1-10.2,15.7c12.2,10.7,9.8,18.2,0.7,24.3c-3.9,5-8.8,6.2-14.6,3.4c-8.3,2.3-16.8-1.5-25.9-18.5
	c-5.7-11.2-5.1-22.7,4.6-34.4c-9.6-11.1-14.1-23.5-11-38c1.1,25.6,11.5,37.7,24.7,42.6c2.1,9.4-2.7,19.1-9.1,21.4
	c9.4,28.1,44.5,14.5,30.6-0.9c6.4-2.5,9.9-7.8,10.2-15.7l21.3-10.2c-60.7,18.9-72-56.7-59.8-100.7l-7.8,6.7l-5.2,10.8l-1.6,17.2
	c-14-27.5,7.7-55.4,28.4-60.6l-5,1.3c6.2-11.1-22.7-17.8-10.6-22.3c-7.8-4.3-12.8-11.6-14.9-21.8l-0.7,3c-6.3-13.4-7.8-25-2.1-41.2
	l-5,3.9c1-8,4.5-15.7,10.7-22.9c-19.3-11.1-2-31.3,12.9-23.5L79.7,85l19.8-19.2l-1.4-6.6l-2.4-3.6c3.5-7.2,9.9-11.8,19.3-13.8
	l-4.4,5.3c6.1-5.8,15.2-7,25.7-6.1l-6.9,3.9c16,0.3,26.2,4.6,32.6,11.6c-22.1-7.3-43.3-7.1-62.6,9.3L79.7,85l7.3-7.1
	c-10.2,11.5-16.5,43.2,4.2,52.7c-17.5,14.5-6.3,39.5,17.5,40.1c1.9,18.4,71.5,11.2,61.7,18.5C181.5,194.1,174.5,225.5,202.2,226.4z"
	/>
<path class="st5" d="M186.4,99.9c-0.4-18.5-6-31.2-17-38c3.1-4.6,7.3-6.2,11.9-6.4l-1.4,4.1C199.1,58.4,208.5,85.9,186.4,99.9z"/>
<path class="st6" d="M132.7,152.6l4.2-2.2l4.9-3.5l2.3,3.1l1.9,1.6C145.5,161.9,134.3,158.6,132.7,152.6z"/>
<path class="st7" d="M144.7,117.7c-13.5-2.1-32.9,4.8-32.9,17.9c-0.8,19.1,20.5,20.8,30,11.3c6.6,12.6,27.1,6.1,28-3.8
	C171.5,132.7,163.9,120.5,144.7,117.7z"/>
<path class="st8" d="M144.7,117.7c-13.5-2.1-32.9,4.8-32.9,17.9c5.7-21.5,62.7-19.5,58,7.5C171.5,132.7,163.9,120.5,144.7,117.7z"/>
<path class="st4" d="M422.6,153.4c-7.1,10.9-15.3,18.7-24.2,24.4c23.8,23.3,25.1,53.7,13.8,70.7h-5.9l-2,6.1
	c12.3,5.3,21.2,23.2,37,15.8c-15.5,12.7-27.6-4.8-41.4-7.2l-3.8,4c11.5,19.3,14.3,35,8.4,47.2c-5.5,8.7-35.8,15.5-49.5,2.1
	c-0.8-12.7,6.5-24.3,2.1-32.1l-37.4-4.6l-2.8,6.5l4.2,7.8c-6.8,7.3-41.9,23.4-44.3,14.5c-17.4-20-6.7-50.5,19.6-53.8
	c-3.4-8.9-5-18.5-3.7-29.1l-4.5-5.6l-2.8,6.6l-2.8,2.8c-13.1,0.2-22.6-4.8-30.1-15.8c1.6-12,9.1-20.7,18.4-25.1
	c-5.9-18.9-9.8-25.6-9.8-48.9c-14.4-11.7-14.1-20.2-9.5-18.2l9.9,4.4c1.6-19,6-36.6,13.8-52.4C261.8,69,256,59,265.4,48.3
	c9.8-7.3-2.4-15.4,1.1-23.5c4.8-9.1,18.2,0.5,20.7-17.3c0.7-9,19-14.7,36.2,18.9l12.8-3.3c-5-5,4.7-10.2,14.5-7
	c-14.4-11.7-1-14.2,15,4.2c33.2,7.7,52.4,26.7,62.8,49.4c34.3-6,52.4,6,52.1,17.8c0.1,7.1-11.6,10-2.3,19.1c6.4,6,8,15.8-0.2,18.1
	c-16.2,7.3-4.9,20.8-10.9,26.2c-9.5,9.1-18.4-10.3-26.3,2.5C436.4,161.6,428.6,161.1,422.6,153.4z"/>
<path class="st5" d="M418.8,145.9c-7.1,21-32.1,40.7-53.8,41c-12.9,1.5-23,5.6-27.1,15.1c-4.2,11.1,6,31.4,25.3,33.2
	c8.6,0.5,10.6-13.9,8-24.5l4.6,7l4.3,2.2l-2.1,15.9l4.8-0.2c4.4-1.8,8.4-1.9,14,1.8c19.5-3.4,5.6-41-1.3-48.7
	c15.4,5.2,26.6,28.6,20,54l-3.3,5.9h-5.9l-2,6.1c12.3,5.3,21.2,23.2,37,15.8c-15.5,12.7-27.6-4.8-41.4-7.2l-3.8,4
	c11.5,19.3,14.3,35,8.4,47.2c-5.5,8.7-28.3,14.9-42.1,1.5c2.4-6.3,5.8-12,17-13.2c7-2.2,1.3-24.5-16.5-18.4
	c-15.9,1.2-30.4-0.1-43.4-4.6l-2.8,6.5c1.4,1.8,3.7,5,4.2,7.8c-4.4,3.9-16.9,14.2-26.7,3.5c-12-12.3-5.4-29.5,6.4-34.2
	c18.3,17.9,66.3,19.2,68.6-2.1c-32.4,9.5-63.9-13.1-71.9-30.2c28.9,26.1,49.9,24.9,64.8,25.2l1.8-1.1l-0.7-4.6l1.4-1.6
	c2.9-4.8,1-7.7-5.7-8.8c-30.9-5.1-57-28.1-51.6-73.4c-13.5-4.6,26.7,11,36.1,0.4l10.1,11.5c-17.7-26.2,18.5-7.6,43.4-39.7
	c25.9-36.8,16.2-84.8-25.4-108.4c24.8,7.8,40.8,16.3,51.1,39c-6.7,30.2,31.6,12.9,43.7,27.6c6.9,6.6,5.5,17.3,0.4,24.2
	c-8.7,10.6,0.8,19.2-4.7,24.3c-9.5,9.1-13.1-5.2-21,7.6C436.4,161.6,424.9,153.7,418.8,145.9z"/>
<polygon class="st9" points="346.1,173 322.6,172.1 320,174 319.8,179.4 325.1,188.7 328,190.8 331.2,189.7 333.6,187.6 "/>
<path class="st10" d="M346.1,173l-23.4-0.9L320,174l-0.2,5.4c6-1.1,9.1-0.5,9.3,1.8c3.9-3.9,7.5-4.2,10.7-0.9L346.1,173z"/>
<path class="st9" d="M462.8,119.4c-1.9,12.4-15,19.7-27.1,17.5c-2.4,4.7-5.1,5.3-7.8,5.7c6.1-16.5,8.3-32.6,6.4-48.3
	c10.4,2.6,18.8-2,27.6,3.7C468.4,102.2,468.1,113.9,462.8,119.4z"/>
<path class="st11" d="M343,136.8c7.9,4,14.6-0.9,21.9-1.3c6.5-14.2,2.1-28.7-3.8-29.9C352.3,104.6,342.2,116.4,343,136.8z"/>
<path class="st11" d="M260.8,139.8l0.3-13.8c-4.6-0.5-11.1-6.7-12.6-4.3C246.9,123.5,250.6,132.5,260.8,139.8z"/>
<path class="st11" d="M347.8,172.4c-4.3-2.9-6.2-6.7-5.7-11.4c-31.2,3.5-41.6-11.1-43.1-7.1C298.1,159.4,314.6,183.1,347.8,172.4z"
	/>
<path class="st12" d="M342.1,161.1c-31.2,3.5-41.6-11.1-43.1-7.1c-0.9,5.5,15.6,29.2,48.8,18.5"/>
<path class="st12" d="M261.1,126c-4.6-0.5-11.1-6.7-12.6-4.3c-1.6,1.7,2,10.8,12.3,18"/>
<path class="st13" d="M343.5,127l-0.5,9.8c6.4,3.7,11.3-0.3,17-0.4c5.1-11.2,1.8-23.2-2.7-24.2C351.4,110.9,345,116.4,343.5,127z"/>
<path class="st14" d="M337.2,178.7c-4.2-0.7-6.6,0.5-8.1,2.5c-0.6-1.6-2.7-2.4-6.3-2.5"/>
<path class="st15" d="M351.3,138.1c3.2,0,5.9-2.6,5.9-5.9c0-3.2-2.6-5.9-5.9-5.9c-3.3,0-5.9,2.6-5.9,5.9
	C345.4,135.4,348,138.1,351.3,138.1z"/>
<path class="st11" d="M355.3,130.8c1.3,0,2.4-1.1,2.4-2.4c0-1.3-1.1-2.4-2.4-2.4s-2.4,1.1-2.4,2.4
	C352.8,129.8,353.9,130.8,355.3,130.8z"/>
<path class="st11" d="M359.5,120.6c1.7,0,3.1-1.4,3.1-3.1s-1.4-3.1-3.1-3.1s-3.1,1.4-3.1,3.1C356.3,119.2,357.8,120.6,359.5,120.6z"
	/>
<path class="st7" d="M377.8,112.5c-1.7-6.2-13.7-10.8-8.8-13.9C374,95.6,381.8,105.6,377.8,112.5z"/>
<path class="st16" d="M377.8,112.5c-1.7-6.2-13.7-10.8-8.8-13.9C374,95.6,381.8,105.6,377.8,112.5z"/>
<path class="st9" d="M307.8,34.4c-12,8-21.2,18.8-27.3,29.2c-0.7-1.4-0.5-4.9,0.8-6.5c-5.9-3.8-6.4-11.6-4.3-18
	C282.6,22.7,296.2,18.6,307.8,34.4z"/>
<path class="st7" d="M410.7,249.2c-13.6,3.5-34.6-1.2-32.7-13.4c4.5-1.3,12.9,0.9,14.8,8.1C398.4,233.7,412.5,248.1,410.7,249.2z
	 M355.7,307.2l-0.8,9.3c11.6,13.4,46.1,6.7,49.5-2.1c-3.4-3.7-7.5-3.3-12.3,1c-9.4-9.5-25-9.1-29.8,0.5
	C361.1,311.7,358.9,308.8,355.7,307.2z M271.3,300.6l5.6,8.8c9.6,3.6,24.2-3,40.1-12.1c-9.6-7.6-21.9-3-26.8,4.7
	C287.6,298.6,281.4,297.3,271.3,300.6z M252.2,213.8c1.9,7.8,20.9,18.1,30.1,15.8c-2.3-9.6-12.5-14-17.6-9
	C263.8,210.6,256.4,208.8,252.2,213.8z"/>
<path class="st7" d="M301.2,258.1c6.4,7.1,16.4,11.5,25.3,14C317.2,272.6,306,268.5,301.2,258.1z M290.5,215.4
	c7.6,10.8,17.6,19.4,30.6,27.6C306.9,238,295.9,228.4,290.5,215.4z M477.1,86.2c-5.1-10.6-29.6-16.9-40.4-14.7
	C449.8,66.9,476.9,72.7,477.1,86.2z M313.7,16.8C308.9,11.1,298.3,5,292.1,4C297.7,1,307.8,6.1,313.7,16.8z M282.4,67.9
	c-8.4,14.2-13.6,30-17.2,49.2C265,98.2,270.8,80.7,282.4,67.9z M340.3,126.1c2.1-9.7,8.5-19.5,14.1-22.1
	C345.3,103.1,339.5,116.1,340.3,126.1z M346.7,153.6c-2.1,7.9-3.5,10,4.1,20.7C341.7,167,338.2,161.6,346.7,153.6z M361.3,249
	c8.9-4.3-1.2-8.6-12.9-9.1C357.9,242.7,364.3,243.1,361.3,249z M382.6,204.8c3.5,6.6,2.7,22.1-1.6,27.5
	C382.7,224.8,382.4,210.9,382.6,204.8z"/>
<path class="st6" d="M304.2,32.7c-7.4-3.5-13.3-4.4-20.1-1.5C291.9,24.5,297.1,26,304.2,32.7z"/>
<path class="st6" d="M464.3,107.8c-4.2-7.6-11.3-7.1-20.7-9.3C453.9,98.4,462.1,96.5,464.3,107.8z"/>
<path class="st5" d="M366.7,106.6c4.2,7.1,1.6,23-1.8,29h4C374,127.9,373.7,115.4,366.7,106.6z"/>
<path class="st9" d="M79,64.6c10.2,3.3,9.6,15,5.4,17.9c-8.1,6.9-13.7-0.8-7.9-4.9c-2.3,0.1-4.3,0.8-6.1,2.3
	C67,71.2,73.3,65.6,78,67.5L79,64.6z"/>
<path class="st17" d="M79,64.6c10.2,3.3,9.6,15,5.4,17.9c-8.1,6.9-13.7-0.8-7.9-4.9c-2.3,0.1-4.3,0.8-6.1,2.3
	C67,71.2,73.3,65.6,78,67.5L79,64.6z"/>
<path class="st7" d="M100.1,192.9l53.6,10.9c-0.6,25.3,18.2,31.3,13.8,58.4c-7.5,41.9-65.1,40.5-74,9l-0.7,4.5
	C82.9,260.4,78.3,224.8,100.1,192.9z"/>
<path class="st18" d="M308.3,377.3c-35.3,0.7-65.7-7-90.4-24.8c11.9-6.6,21.5-15.3,26.1-28.6c17.9,16.5,38.3,28.9,66,32.3
	C305.2,360.2,303.2,373.6,308.3,377.3z"/>
<path class="st19" d="M308.3,377.3c-35.3,0.7-65.7-7-90.4-24.8c11.9-6.6,21.5-15.3,26.1-28.6c17.9,16.5-15.5,31.9,12.3,35.3
	c9.5,1.1,46.5,1.4,49.1,12.5C306,374.2,307.7,376.9,308.3,377.3z"/>
<path class="st20" d="M308.3,377.3c-35.3,0.7-65.7-7-90.4-24.8c11.9-6.6,21.5-15.3,26.1-28.6c17.9,16.5,38.3,28.9,66,32.3
	C305.2,360.2,303.2,373.6,308.3,377.3z"/>
<path class="st20" d="M308.3,377.3c2,1.9,7.3,0.2,7.9-6"/>
<path class="st20" d="M310.1,356.2c3.5-2.1,7.4,0,7.2,3l-4.7,1c-3.1,9,1.2,12.5,3.7,11.1"/>
<path class="st16" d="M317.3,370.4c1,0,1.9-2.5,1.9-5.6c0-3.1-0.8-5.6-1.9-5.6c-1,0-1.9,2.5-1.9,5.6
	C315.4,367.9,316.2,370.4,317.3,370.4z"/>
<path class="st21" d="M319.7,367.2c-1.1,0.2-2.4-3.7-0.2-7.1c19.1-19.1,31.1-16.1,34.5-11c5.4,7.1,0.2,16.8-12.8,30.3
	c28.5-14.3,38.9,5.7,60.3,3.7c-12.5,9.7-25.1,1.5-39.1-0.7c-11.1-0.9-26.7,8-31.6,4.4c-3.6-1.8,9.3-14.6,13.9-21.9
	C349.9,356.1,343.7,350.8,319.7,367.2z"/>
<path class="st22" d="M319.7,367.2c-1.1,0.2-2.4-3.7-0.2-7.1c19.1-19.1,31.1-16.1,34.5-11c5.4,7.1,0.2,16.8-12.8,30.3
	c28.5-14.3,38.9,5.7,60.3,3.7c-12.5,9.7-25.1,1.5-39.1-0.7c-11.1-0.9-26.7,8-31.6,4.4c-3.6-1.8,9.3-14.6,13.9-21.9
	C349.9,356.1,343.7,350.8,319.7,367.2z"/>
<path class="st23" d="M320.8,358.8c18.4-17.6,29.9-14.7,33.2-9.7c5.4,7.1,0.2,16.8-12.8,30.3c26.3-13.2,37.2,2.8,55.4,3.8"/>
<path class="st23" d="M273.8,359.5l9.4-15.1 M218,352.5c11.9-6.6,21.5-15.3,26.1-28.6c17.9,16.5,38.3,28.9,66,32.3"/>
<ellipse transform="matrix(4.210073e-02 -0.9991 0.9991 4.210073e-02 49.4173 268.9145)" class="st11" cx="165" cy="108.7" rx="9.6" ry="9.4"/>
<ellipse transform="matrix(4.210989e-02 -0.9991 0.9991 4.210989e-02 15.392 225.1774)" class="st11" cx="125.1" cy="104.6" rx="9.6" ry="9.4"/>
<path class="st24" d="M164.6,104.9c-3.3,1.4-4.8,5.2-3.5,8.5c1.3,3.3,5,4.9,8.3,3.5c3.3-1.4,4.8-5.2,3.5-8.5
	C171.6,105.2,167.9,103.7,164.6,104.9z"/>
<path class="st24" d="M124.6,101c-3.3,1.4-4.8,5.2-3.5,8.5c1.3,3.3,5,4.9,8.3,3.5c3.3-1.4,4.8-5.2,3.5-8.5
	C131.6,101.2,127.8,99.7,124.6,101z"/>
<ellipse transform="matrix(4.251778e-02 -0.9991 0.9991 4.251778e-02 48.9365 275.4908)" class="st15" cx="168.2" cy="112.2" rx="4.6" ry="4.5"/>
<ellipse transform="matrix(4.208384e-02 -0.9991 0.9991 4.208384e-02 14.8898 231.7037)" class="st15" cx="128.3" cy="108.1" rx="4.6" ry="4.5"/>
<ellipse transform="matrix(4.262128e-02 -0.9991 0.9991 4.262128e-02 49.3067 270.621)" class="st11" cx="165.9" cy="109.6" rx="2.1" ry="2"/>
<ellipse transform="matrix(4.167105e-02 -0.9991 0.9991 4.167105e-02 15.3261 226.8906)" class="st11" cx="125.9" cy="105.5" rx="2.1" ry="2"/>
<path class="st16" d="M165.4,99.2c-5.2-0.2-9.6,3.9-9.8,9.2c-0.2,5.3,3.8,9.8,9,10c5.2,0.2,9.6-3.9,9.8-9.2
	C174.6,103.8,170.6,99.4,165.4,99.2z M144.7,117.7c-13.5-2.1-32.9,4.8-32.9,17.9c0.1,18.4,20.5,20.8,30,11.3
	c6.6,12.6,26.4,6.1,28-3.8C172.4,131.4,163.9,120.5,144.7,117.7z M125.5,95c-5.2-0.2-9.6,3.9-9.8,9.2c-0.2,5.3,3.8,9.8,9,10
	c5.2,0.2,9.6-3.9,9.8-9.2C134.7,99.7,130.7,95.2,125.5,95z M132.3,152.1c3.2,7.1,11.5,7.1,13.7,0.9"/>
<path class="st4" d="M143.6,121.1c-7.6-0.1-13.8,2.6-13.9,6.1c-0.1,3.5,6.1,6.4,13.7,6.5c7.6,0.1,13.8-2.6,13.9-6.1
	C157.4,124.1,151.2,121.2,143.6,121.1z"/>
<path class="st25" d="M145.2,121.1c-7.3-0.6-13.4,1.3-13.7,4.2c-0.2,2.9,5.5,5.8,12.8,6.3c7.3,0.6,13.4-1.3,13.7-4.2
	C158.3,124.5,152.5,121.6,145.2,121.1z"/>
<path class="st26" d="M145.2,121.1c-7.3-0.6-13.4,1.3-13.7,4.2c-0.2,2.9,5.5,5.8,12.8,6.3c7.3,0.6,13.4-1.3,13.7-4.2
	C158.3,124.5,152.5,121.6,145.2,121.1z"/>
<path class="st4" d="M102.9,195.2c2.6,11.6,18.2,13.3,17.4,27c13-2.5,25.8-8.9,31.9-16.5L102.9,195.2z"/>
<path class="st8" d="M114.2,201.1c3.6,5.3,9.8,7,9.2,15.8c13-2.5,23.8-6.6,29.9-14.2l-1.2,3.1c9.7-4.5,14.6-9,14.7-13.5l1.2,2.4
	c6.9-12,0.8-22.1-9-18.8l3.3-2.4c-9.6-1.1-18.3,0.6-25.4,6.5c-12.7-14.2-40.5-11.5-42.1,0.1l4-1.8C92.4,185,100.3,197.2,114.2,201.1
	z"/>
<line class="st16" x1="69.8" y1="50.2" x2="70.1" y2="48.1"/>
<path class="st16" d="M396,267.2c11.1,17.8,14,34.1,8.4,47.2c-4.1,8.3-37.2,16-49.5,2.1c-0.4-12.2,6.3-23.3,2.1-32.1 M404.3,254.7
	c15,5.7,17.7,22.1,37,15.8c-16.8,12.8-25.3-4.7-41.4-7.2 M405.6,250.5c-8.3,21.1-20.8,30.7-50.8,34.1c-43.8,2.4-65.1-21.1-62.3-58.8
	 M310,280.4c6.4,4.7,8.8,7.6,10.9,13.7c-6.6,7-39.4,22.1-44.3,14.5c-17.2-19.7-5.9-49.4,18.6-53.7 M287.9,220.2
	c-1.4,5.6-3.8,8.2-5.6,9.4c-7.8,0.8-24-4.1-30.1-15.8c1.7-11.7,9-20.9,18.4-25.1 M296.5,221.7c-1.7,0.8-3.6,2.4-4.1,4.1 M314,235.4
	c-1.9,1.2-3.8,3.5-4.1,5.6 M286.4,114.4c-2.6-1.9-6.2-2.2-8.7-1.6 M295.4,100.9c-3.5-2.6-9-3.5-12.9-3.3 M281,143.4
	c-1.9-0.8-4.6-1-6.4-0.1 M286.6,210.7c-1.5,0.4-3.1,1.4-3.7,2.7 M345.9,152.9c-11.4,14.8,5.4,19.8,7.5,25.8 M423.8,70.8
	c34.4-9.2,56,3.5,56.7,16.7c0.1,7.1-11.6,10-2.3,19.1c6.4,6,8,15.8-0.2,18.1c-16.2,7.3-4.9,20.8-10.9,26.2
	c-9.5,9.1-18.4-10.3-26.3,2.5c-4.5,8.3-12.3,7.9-18.3,0.1 M434.4,94.4c5.5,46-21.7,97.9-80.3,92.3c-11.9-1.1-18.4,11.5-26.1,10.4
	c-3.9-0.8-6.5-4.8-8-9.5 M359.3,22.9c-10.6-7.3-16.5-12.6-15.4-15c2.3-2.6,11.7,0.6,21.5,12.6c29,5.2,54.8,26.9,63.1,49.1
	 M350.9,22.3c-4.6,2.5-12.1,3.6-15,1.1c-42.6,6.6-71.2,52-74.9,104.2c-3.9,66.9,38.5,133,101.1,128.6c4.6-0.3-1.6-5.5,2.4-7.4
	c3.4-3.3,1.9-6.7-2.9-8.1c-27.6-6.4-43.3-28.5-41.7-65.5 M277,39.1c5.6-16.4,19.3-20.6,30.8-4.7 M323.1,26.7
	c-16-32.1-35.1-28.9-36.2-19c-2.4,17.9-16.9,8.1-20.7,17.3c-4.1,9.2,9.2,14.8-1.1,23.5c-7.3,6.2-6.5,20.5,9.9,25.3 M378,235.8
	c4.5-1.3,12.8,0.5,14.8,8.1c3.7-6.7,13.3-4.7,18.1,5.2 M398.3,177.8c21.9,18.8,25.9,54.3,13.8,70.7c-14.2,7-36.7-3.6-34.2-12.7
	c1.5-7.2,2.6-8.7,1.9-26.2 M380.1,219.9c-3.1-0.7-7.8-4-9-9.2 M430,92.3c10.5,6.7,23.2,0.1,32,5.7c6.5,4.1,6.2,16,0.9,21.4
	 M335.9,23.4c-3.6-4.2-0.6-9.5,14.5-7 M364.9,135.5c6.5-14.2,2.1-28.7-3.8-29.9c-8.8-1-18.9,10.9-18.1,31.3 M339,133.8
	c9.6,10,21.1-0.4,31.2,1.9 M282.3,229.6c-2.3-9.6-12.5-14-17.6-9c0.2-7.8-8.2-12.2-12.4-7.1 M404.4,314.4c-3.4-3.7-7.5-3.3-12.3,1
	c-9.4-9.5-25-9.1-29.8,0.5c-1.2-4.2-3.4-7.1-6.7-8.7 M347.8,172.4c-7.6,5.2-14.2,18.6-19.8,18.4c-2.6-0.9-5.5-5.2-8.2-11.5
	 M316.7,286.3l2.8-6.5 M317.2,297.1c-9.6-7.6-22.1-2.8-27,4.9c-4.5-4.7-13.9-3.7-18.9-1.4"/>
<path class="st8" d="M388.9,315.1c-7-3.5-14.2-3.8-22.6-2C374.1,308,382.1,308.5,388.9,315.1z M292.3,301.7
	c4.4-3.3,13.1-7.1,21.8-4.6C305,292.6,296.5,295.2,292.3,301.7z M408.7,248.7c-2.4-2.8-9.3-6.9-13.6-4.6
	C397.7,238.4,406.8,244.4,408.7,248.7z"/>
<path class="st16" d="M212.3,230.8c3.7,2.4,5.3,6.2,4.9,11.4 M220.8,219.7c11,5.4,7.9,21.9-3.6,22.5c-5.1,4.3-16.4-0.3-16.8-7.7
	c-5.7,0.5-11.2-0.7-16.3-5.7l1.3,4.1c-4-1.3-7.8-3.4-11.1-7.5 M73.8,145.1c-1.4,0.3-2.4,1.9-3,3.3 M179.9,142.8
	c1.8,0,3.4,1.9,4.5,3.4 M180.7,135.8c2.1,0,3.3,1.2,4.1,2.2 M163.7,183.1c1.6,1.5,1.5,4.4,1.1,6.7 M106.1,181.3
	c-1.3,0.5-2.4,2.4-2.7,4.1 M110.7,184.4c-0.6,1.7-0.6,4.1,0,5.4 M66.2,275.8c-0.5-1.5,0.6-4.3,2.1-5.4 M72.1,280.7
	c-0.7-1-0.3-3.2,0.5-4.3 M75.6,290.5c-0.3-0.8,0.2-2.3,0.9-2.9 M189.3,292.6c0.2-1.2-1.1-3.1-2.4-3.8 M193.2,277.9
	c-0.1-0.8-1.2-1.8-2.1-2.1 M185.3,300.2c0.3-1.1-0.7-2.8-1.7-3.5 M69.5,137.4c-1.4,0-2.7,1.5-3.5,2.7 M170.9,197.7
	c9.1,12.9-3.6,32.1,11.7,56.6c3.7,5.3,9.2,6,11.9,12.9l-4.1-0.8c19.8,23.1-6.4,30.6,1.3,43.6 M202,328.3c6.2,2.4,8.3,6.9,8.6,12.3
	 M189.7,333.9c4.3,3.3,5.6,7.7,5.4,12.5 M185.4,305c8.4,11,37,13,25.2,35.7c-0.4,3.7-8.6,8-15.5,5.8c-11.3,2.7-23.1,1.6-36.4-13.1
	c-5.6-5.6,0.9-14.2-9.6-20.7 M118.3,324.8c11-8.6,25.9-13,44.9-13.1 M92,352.9c5.5,4.4,6.5,10.3,2.2,15.1 M105.6,350.9
	c3.9,4.3,4.3,9,3.2,13.8 M72.9,315.2c-13.9,16.9-9.2,32.8,5.9,48.2c5.4,5.2,10.6,5.9,15.5,4.7c6,2.4,12.2,1.2,14.6-3.4
	c9.7-5.1,10.2-16.4-0.7-24.3 M94.6,340.2c14.6,3.9,22.7-2.7,24.3-19.8 M59.5,260.5c-2.3,8.3-2.1,15.9-0.9,23.2l3.4-6.4
	c-3.9,19.1,5.3,37.7,24.3,48.4 M40.9,250.4c0,14.7,11.8,18,18.6,10.1c11.2-5.6,0.7-24.6,12.7-40 M59.5,260.5
	c-4.6-3.6-6.5-9.3-5.7-17 M78.1,167c-13.2,4.5-20.6,13.3-27.5,23.3l5-1.3c-12.8,6.9-20.3,22.1-23.5,44.2
	c-1.8,7.8-6.7,23.2,13.2,29.7 M169.3,61.9c3.1-4.6,7.3-6.2,11.9-6.4l-1.4,4.1c19.2-1.2,28.6,26.3,6.5,40.3 M70.1,48.1
	C51.7,53.5,48.7,85.3,72,90 M66.2,88.1c-5.3,5.3-9.1,14-10.7,22.9l5-3.9c-5.8,16.4-3.2,27.7,2.1,41.2l0.7-3
	c3,14.9,14.4,24.7,27.7,26 M110.6,195.3c2.3,7.8,13.8,11.4,12.8,21.5c13-2.5,23.8-6.6,29.9-14.2l-1.2,3.1c9.7-4.5,14.6-9,14.7-13.5
	l1.2,2.4c6.9-12,0.8-22.1-9-18.8l3.3-2.4c-9.6-1.1-18.3,0.6-25.4,6.5c-12.7-14.2-40.5-11.5-42.1,0.1l4-1.8
	c-6.5,6.8,1.4,19,15.3,22.9 M153.7,203.8c-0.6,25.3,18.2,31.3,13.8,58.4c-7.5,41.9-65.1,40.5-74,9l-0.7,4.5
	c-9.9-15.2-14.5-50.9,7.4-82.7 M130.4,158.2c3.5,7.1,8.7,7.6,15.1,3.7 M95,76.7c8.3-7.9,5.1-23.5-6.6-24.6l5-1.1
	c-7.5-5.1-15.3-5.3-23.5-0.8l-0.3,5.3 M95.8,55.7c3.5-7.2,9.9-11.8,19.3-13.8l-4.4,5.3c6.1-5.8,15.2-7,25.7-6.1l-6.9,3.9
	c16,0.3,26.2,4.6,32.6,11.6H158c22.8,7.2,32.7,27.6,26.8,53.9c6.8,7.6,9.2,16.5,8.6,26.3l-3.3-2.8c1.9,18.4-4.2,29.2-14.1,36.5
	c6.1,2.7,10.4,7.1,13,13.3l-3-0.6c13.4,22.3,35.1,23.6,39.7,40.7"/>
<path class="st7" d="M216.2,214c-5.7-6-20.5-15-28.4-23.3C191.7,200.6,207.3,210.3,216.2,214z M173.7,70.4
	c5.9,9.6,8.4,20.9,9.9,31.1C186,92.3,183,75.5,173.7,70.4z M94.8,73.2c1.4-7,0.7-14.1-6.8-19.2C99.2,57.6,99.5,67,94.8,73.2z
	 M38.9,218.4c4.6-11.7,12.9-21.4,21-29.5C50.2,193,37.3,206.8,38.9,218.4z M115.3,322.9c-2.1,10.3-9.4,15.2-17.2,16
	C111.8,342.2,115.9,330.5,115.3,322.9z"/>
<path class="st8" d="M157.6,230.6c1.7,8.7,10.5,21,1.7,45.2C168.5,266.2,169.2,244,157.6,230.6z"/>
<path class="st7" d="M125.8,90.2c4.2-0.2,5.8-8.5-5.8-5.4c-1.5,0.4-7.5,2.8-5.6,6.2C115.4,92.8,122.4,90.6,125.8,90.2z M166.2,93.8
	c-3.4-0.9-3.3-7.9,5.6-3.5c1.2,0.6,5.7,3.6,3.6,6C174.2,97.6,168.9,94.6,166.2,93.8z"/>
<path class="st16" d="M125.8,90.2c4.2-0.2,5.8-8.5-5.8-5.4c-1.5,0.4-7.5,2.8-5.6,6.2C115.4,92.8,122.4,90.6,125.8,90.2z M166.2,93.8
	c-3.4-0.9-3.3-7.9,5.6-3.5c1.2,0.6,5.7,3.6,3.6,6C174.2,97.6,168.9,94.6,166.2,93.8z"/>
<path class="st4" d="M126,131c1.3,0.4,2,1.5,1.6,2.6c-0.4,1.1-1.7,1.7-3,1.3c-1.3-0.4-2-1.5-1.6-2.6
	C123.4,131.2,124.7,130.6,126,131z M153.7,136.1c-1.3,0.1-2.2,1.1-2,2.3c0.2,1.1,1.4,1.9,2.7,1.8c1.3-0.1,2.2-1.1,2-2.3
	C156.2,136.8,155,136,153.7,136.1z M133.5,135.4c1.3,0.4,2,1.5,1.6,2.6c-0.4,1.1-1.7,1.7-3,1.3c-1.3-0.4-2-1.5-1.6-2.6
	C130.9,135.6,132.3,135,133.5,135.4z M161.2,140c-1.3,0.1-2.2,1.1-2,2.3c0.2,1.1,1.4,1.9,2.7,1.8c1.3-0.1,2.2-1.1,2-2.3
	C163.7,140.7,162.5,139.9,161.2,140z M125.4,137.9c1.3,0.4,2,1.5,1.6,2.6c-0.4,1.1-1.7,1.7-3,1.3c-1.3-0.4-2-1.5-1.6-2.6
	C122.9,138.1,124.2,137.5,125.4,137.9z M161.9,133.1c-1.3,0.1-2.2,1.1-2,2.3c0.2,1.1,1.4,1.9,2.7,1.8c1.3-0.1,2.2-1.1,2-2.2
	C164.4,133.8,163.2,133,161.9,133.1z"/>
</svg>
