<?xml version="1.0" encoding="utf-8"?>
<!-- Generator: Adobe Illustrator 21.1.0, SVG Export Plug-In . SVG Version: 6.00 Build 0)  -->
<svg version="1.1" id="Layer_1" xmlns="http://www.w3.org/2000/svg" xmlns:xlink="http://www.w3.org/1999/xlink" x="0px" y="0px"
	 viewBox="0 0 331 384" style="enable-background:new 0 0 331 384;" xml:space="preserve">
<style type="text/css">
	.st0{fill-rule:evenodd;clip-rule:evenodd;fill:#E1F4FD;}
	.st1{fill-rule:evenodd;clip-rule:evenodd;fill:#DBEAB4;}
	.st2{fill-rule:evenodd;clip-rule:evenodd;fill:#007BBF;}
	.st3{fill:none;stroke:#0094D5;stroke-width:1.7017;stroke-linecap:round;stroke-linejoin:round;stroke-miterlimit:22.9256;}
	.st4{fill-rule:evenodd;clip-rule:evenodd;fill:#00BBEB;}
	.st5{fill-rule:evenodd;clip-rule:evenodd;fill:#009CD9;}
	.st6{fill-rule:evenodd;clip-rule:evenodd;fill:#FABFBF;}
	.st7{fill-rule:evenodd;clip-rule:evenodd;fill:#EA9A9D;}
	.st8{fill-rule:evenodd;clip-rule:evenodd;fill:#FFFFFF;}
	.st9{fill:none;stroke:#18537E;stroke-width:1.7017;stroke-linecap:round;stroke-linejoin:round;stroke-miterlimit:22.9256;}
	.st10{fill:none;stroke:#6D6E71;stroke-width:1.7017;stroke-linecap:round;stroke-linejoin:round;stroke-miterlimit:22.9256;}
	.st11{fill-rule:evenodd;clip-rule:evenodd;fill:#A8D4EA;}
	.st12{fill:none;stroke:#E47A6B;stroke-width:1.7017;stroke-linecap:round;stroke-linejoin:round;stroke-miterlimit:22.9256;}
	.st13{fill-rule:evenodd;clip-rule:evenodd;}
	.st14{fill-rule:evenodd;clip-rule:evenodd;fill:#F7A1A1;}
	.st15{fill-rule:evenodd;clip-rule:evenodd;fill:#8ED8F8;}
	.st16{fill-rule:evenodd;clip-rule:evenodd;fill:#C7EAFB;}
	.st17{fill-rule:evenodd;clip-rule:evenodd;fill:#8CD0EA;}
</style>
<path class="st0" d="M120.7,3.8C74.1,10.1,20.1,38.6,26.9,89.4c5.1,37.8,18.8,54.5-9.4,92.9c-21.7,29.5,9.4,59.8,0.3,87.6
	C-32.5,423.8,288.3,397.8,310,330c8.9-27.8-18.7-46.5-2.4-68.6c36.9-50.1,31.1-135.4-22.4-195.8C240.4,14.9,185-4.9,120.7,3.8z"/>
<path class="st1" d="M42.7,357.4c44.1,35.5,175.7,34.6,234.9,2.1c11.2-7.9-25.7-8.9-60.1-8.4l-43.8-6.2
	c15.1-23.8-18.5-48.3-32.4-20.8c0,0-1-10.6-6.4-11.7c-9.2-1.9-15,11.3-17.4,18.8c-0.6,3.1-2.3-39.5-13.1-25.8
	c-1.2,2.1-6.7,21-6.7,21c-4-6.1-15.9-34.9-24.9-22.6c-8.8,11.8,3,24.5,3.9,35.8c-0.1-3.2-1.5-4.3-2.7-6.1c-18.5-28-32.8,2.3-15.2,16
	c0.8,0.2,3.5,2.3,2.7,2.2C46.4,349.5,32.6,347.5,42.7,357.4z"/>
<path class="st2" d="M252.4,185.9l16.9,22.7l4.9,12.4c-4.9,5.8-12,9.1-20.7,10.6l-18.2-8.8l8.8-28.1L252.4,185.9z"/>
<path class="st3" d="M276.5,254.3c-1.8,8.5-2.7,17.3-1.8,26.8c2.2,16.5,15.5,28.5,11.1,40.6"/>
<path class="st4" d="M274.4,221c0.1-18.1-6.8-29.1-16.7-36.9l-5.1,1.7c-4.4,10.4,2.3,20.6,10.2,19.6
	C259.6,214.4,267.2,222.8,274.4,221z"/>
<path class="st2" d="M136.4,39.6L80.9,76c-33-6.6-24.7-32.4-14.3-32.3c16.2-0.6,10.5-16.5,20.5-19.2c10.1-3,14.2,11.3,24.5,1.8
	C118.8,19.5,136.7,24.2,136.4,39.6z"/>
<path class="st5" d="M68.4,183.9c7.9,12.1,16.9,20.7,26.8,27c-20.8,28.1-24.5,55.3-12,78.2h3.3l2.2,6.8l4.9,9.5l5.9,6.1
	c-12.7,21.3-13.8,34.5-7.2,48c4.9,7.8,35.9,16.4,51.1,1.5c0.8-14-7.2-23.7-2.3-32.3l19.9,0.2c2.3,10.5,1.3,15.3,0.1,26
	c6.9,19.8,46.5,9.9,56.3-3.9c-4.4-14.8-9.6-38.8-16.2-40.4c6.7-7.7,9.5-18,8.7-25.2c-1.1-14.3-3.7-22.6,0.6-36.6
	c7.7,7.8,29.2,19,52.8,19c21,0.1,29.7-11.8,29.8-23.6c3.3-8-22.1-21.3-19.3-1.6c-3-0.7-11.5-1.4-20.3-11.1
	c-15.5-16.9-10-31.1-6.1-62.6c15.9-13,15.6-22.4,10.6-20.1l-10.9,4.9c-1.8-21-6.7-40.5-15.3-57.9c-27.6-46.6-71.5-64-114.3-54.8
	c2.4-10.5-9.5-9.9-13,9.9c-0.1-9.2-5.1-13-8.2,0.3c-15.7,8.8-27.4,21.9-34.5,40C24,84.4,4,97.9,4.3,110.9c-0.2,7.9,12.9,11,2.5,21.1
	c-7.1,6.7-8.8,17.5,0.2,20.1c17.9,8.1,5.4,23,12,28.9c10.5,10,20.4-11.4,29.1,2.8C53.1,192.9,61.7,192.4,68.4,183.9z"/>
<path class="st2" d="M125.4,260.4c5.2,27.5-5.3,27.9-5.3,32.2c-0.1,32.6,64.8,36.2,81.1,18c8,6.6,12.1,29.2,16.2,40.4
	c-6.6,17.3-41.9,14.6-46.8,10.3c1.5-10.1,19.5-11.4,13.2-24.9c-4.3-10-19.9-1.1-22.8-7.5l-26.4-0.2c-19.7-6.8-25.9,17.9-18.2,20.3
	c12.3,1.3,16.2,7.6,18.8,14.6c-11.6,8.8-36.8,5.5-42.8-4.1c-6.5-13.5-5.5-26.6,7.2-48l-4-4.2c-11.8,4.7-27.3,10.6-40.1-3.3
	c14,8.2,24.1,1.4,34.6-5.7l-3.7-8.2l-3-1c-14.2-22.5-4.5-56.7,15.3-66.2c-9.3,6.5-26.1,43.1-4.6,52.9l1.6,6.2l25.4-2.7
	c0.8-5.3,0.8-11.5-1.2-19.8l3.6-4.8l1.8-5.8C127.5,252.1,127.1,256.1,125.4,260.4z M72.6,175.6c7.8,23.2,35.6,45,59.5,45.4
	c29.2,0.9,34.8,21,46.7,15.5c11.5-4.3,23.7,11.8,29.8,18.1l1.8-5.9c19.1,15.4,46.7,23.2,67.6,16.2c-37,7.2-77.3-24.4-82-66.4
	c15-5-29.5,12.2-39.9,0.4l-11.2,12.7c19.6-29-20.4-8.4-48-43.9C68.2,127.2,79.1,74,125.1,47.9c-27.4,8.6-45.1,18-56.5,43.2
	c7.4,33.4-35,14.3-48.3,30.5c-7.7,7.3-6.1,19.2-0.4,26.7c9.6,11.8-0.9,21.2,5.2,26.9c10.5,10,14.4-5.8,23.2,8.4
	C53.1,192.9,65.8,184.2,72.6,175.6z"/>
<polygon class="st6" points="153.1,205.5 179,204.5 182,206.6 182.2,212.6 176.3,222.8 173.1,225.3 169.6,224 166.9,221.7 "/>
<path class="st7" d="M153.1,205.5l25.9-1l2.9,2.1l0.2,6c-6.7-1.3-10.1-0.6-10.3,2c-4.3-4.3-8.3-4.7-11.9-1L153.1,205.5z"/>
<path class="st6" d="M23.8,146.2c2.1,13.7,16.6,21.8,30,19.4c2.6,5.2,5.6,5.8,8.6,6.3c-6.8-18.3-9.1-36.1-7.1-53.4
	c-11.5,2.9-20.8-2.2-30.5,4.1C17.6,127.1,17.9,140.2,23.8,146.2z"/>
<path class="st8" d="M160.7,161.7c-8.5,0.1-15.7,0.2-23.2,4.5c-10.4-13.9-9.7-31.5-3.7-34.1C143.1,129,156.8,139.4,160.7,161.7z"/>
<path class="st8" d="M247.4,168.8l-0.4-15.3c5.1-0.6,12.3-7.4,13.9-4.7C262.9,150.8,258.8,160.8,247.4,168.8z"/>
<path class="st8" d="M151.3,204.9c4.7-3.3,6.8-7.4,6.3-12.6c34.5,3.9,46-12.3,47.7-7.9C206.2,190.5,187.9,216.7,151.3,204.9z"/>
<path class="st9" d="M151.3,204.9c8.4,5.7,15.7,20.6,21.9,20.4c2.9-1,6.1-5.7,9-12.7"/>
<path class="st10" d="M247,153.6c5.1-0.6,12.3-7.4,13.9-4.7c1.8,1.9-2.2,11.9-13.6,20"/>
<path class="st11" d="M155.4,146.5l2.1,3.9c-2,8.7-10.8,10.4-17.9,5.8c-9.6-7-7.2-20.4-2.5-22.5C143.1,131,151.3,135.4,155.4,146.5z
	"/>
<path class="st12" d="M162.9,211.8c4.7-0.8,7.3,0.5,9,2.7c0.7-1.8,3-2.7,7-2.7"/>
<circle class="st13" cx="146.1" cy="144.4" r="7"/>
<ellipse class="st8" cx="140" cy="146.5" rx="2.9" ry="2.9"/>
<path class="st4" d="M81.4,284.9l1.9,4.1c13.2,4.4,28.7,0.6,37.6-9.8c-9.2-5-17.3-7.3-20.2,1.1C96.6,273,89.7,274.3,81.4,284.9z"/>
<path class="st4" d="M118.5,137.8c1.8-6.9,13.9-10.9,9.5-15.6C123.6,118.4,114,130.3,118.5,137.8z"/>
<path class="st9" d="M118.5,137.8c1.8-6.9,13.9-10.9,9.5-15.6C123.6,118.4,114,130.3,118.5,137.8z"/>
<path class="st4" d="M168.1,363.6c11,7.2,31,6.8,46.5-7c-11.4-5.1-20.1-5.7-22.6,3.5C188,351.7,180,352.8,168.1,363.6z M142.6,351.4
	l0.9,9.6c-12,14-47.9,6.9-51.5-2.2c3.6-3.8,7.8-3.5,12.8,1c9.8-9.9,26-9.5,31,0.5C136.9,356.1,139.2,353.1,142.6,351.4z"/>
<path class="st9" d="M91.9,358.9c3.6-3.8,7.8-3.5,12.8,1c9.8-9.9,26-9.5,31,0.5c1.3-4.4,3.6-7.4,6.9-9.1 M201.2,310.7
	c7.6,4.2,11.9,29.8,16.2,40.4c-3.3,15.1-47.5,26.5-56.3,3.9c0-8.7,3.1-18.5-0.1-26 M99.5,311.6c-10.6,16.8-13.5,33.7-7.6,47.3
	c4.2,8.6,38.7,16.7,51.5,2.2c0.4-12.7-6.7-23.1-2.3-32.3 M86.2,290.2c9.2,23.3,24.1,35.1,57.2,38.9c32.1,3.1,68.6-12.7,66.4-43.6
	c-1.4-16.4-2.3-27.8,0.6-36.6 M90,298.3c-8.7,5.8-15.1,14.5-34.6,5.7c15,11.9,24,10.4,40.4,3.2 M119.7,259.4c2-1.1,4.1-4.9,5.4-10.6
	 M120.9,279.3c-5-1.4-15.8-10-20.2,1.1c-4.1-7.4-12.2-4.8-19.3,4.6 M95.3,210.9c-22.9,29.3-22.7,57-12,78.2
	c9.6,4.6,29.8,0.8,37.6-9.8c1.8-9.4-1.6-18.2-2.6-30.6 M214.6,356.5c-11.4-5.1-20.1-5.7-22.6,3.5c-4-8.4-11.9-7.3-23.8,3.5"/>
<path class="st14" d="M22.1,133.5c4.6-8.4,12.5-7.9,22.9-10.3C33.7,122.9,24.5,120.8,22.1,133.5z"/>
<path class="st4" d="M111.4,249.7c2.7,6.3,5.7,17.6,6.5,26.3C120.2,266.8,117.2,254.1,111.4,249.7z M201.1,263.9
	c3.1,9.3,1.9,20.3-0.4,29.3C205.8,285.5,208,273.7,201.1,263.9z M291.6,243.1c-1.3,6.3-5,13.9-10.5,17.2
	C286.5,260,292.6,252.4,291.6,243.1z M253.3,235.3c-12.3-12.3-13.4-21.9-13.2-40.7C233.8,215.8,240.6,230,253.3,235.3z M223.5,89.1
	c9.3,15.7,15,33.2,19,54.4C242.8,122.7,236.4,103.3,223.5,89.1z M161,149.5c-4.5-10-13.7-19.1-20.4-20.7
	C150.3,125.7,159.5,138.4,161,149.5z M152.5,184c2.3,8.7,3.9,11-4.5,22.9C157.9,198.9,161.8,193,152.5,184z M8,109.4
	c5.6-11.7,32.8-18.7,44.7-16.2C38.3,88,8.2,94.4,8,109.4z"/>
<path class="st2" d="M128,134.4c-2.9,8.6,4.5,26.1,9.5,31.8l-2.9,2C126.6,162,122.4,145.7,128,134.4z"/>
<path class="st9" d="M243.8,195c8.2-6.6,7-12.1,13.7-10.9c7.4,4.6,19,22,16.7,36.9c-5.8,6-12.6,9.1-20.7,10.6 M182,206.6
	c3.2,30.4,43.3,56.4,65.6,59.4c30.5,7,46.9-7.8,45.6-21.8c-1.9-13.4-22.7-17.7-19.3-1.6 M117.7,40.5C189.7,25.1,244,86,247.2,155.4
	c1.3,15.4-1.6,28.1-3.1,39.4c-2.1,15.5-1.8,28.3,14.7,41.4c14.4,10.4,34,7.3,23.5,2.1 M98.3,62.2C91,47,105,32,104.6,50.6
	c2.8-20.5,21.8-24.3,9.4-1.3 M71.8,73.3C47.8,64.6,57,43.6,66.5,43.7c16.2-0.6,10.5-16.5,20.5-19.2c10.1-3,14.2,11.3,24.5,1.8
	c7.3-6.8,25.1-3.6,24.9,11.9 M60.2,116.2c-11.6,7.4-25.7,0.1-35.4,6.3c-7.2,4.6-6.9,17.7-1,23.7 M55.3,118.5
	c-6.1,50.9,23.9,108.4,88.8,102.2c13.2-1.2,20.4,12.7,28.8,11.5c4.3-0.9,7.2-5.3,8.9-10.5 M96.3,50.9C79.9,61.5,67.6,76.1,61.9,91.1
	 M235.3,222.8c-2.3-1.7-4.7,0.2-4.8,2.5 M230.9,211.5c-2.8-3.1-7.4-1.6-8.1,1.2 M230.1,198.5c-2.8-3.8-7.9-3.1-9.6,0.5 M219.1,140.8
	c2.8-2.1,6.9-2.4,9.7-1.8 M216.1,122.6c2.5-0.6,5.1-0.8,7.3-0.7 M225.1,166.5c2.1-0.9,5.1-1.1,7-0.1 M67,92.3
	C29,82.1,5,96.2,4.3,110.9c-0.2,7.9,12.9,11,2.5,21.1c-7.1,6.7-8.8,17.5,0.2,20.1c17.9,8.1,5.4,23,12,28.9
	c10.5,10,20.4-11.4,29.1,2.8c4.9,9.2,13.6,8.7,20.3,0.1 M252.4,185.9c-4.4,10.4,2.3,20.6,10.2,19.6c-3,9,4.5,17.3,11.6,15.6"/>
<path class="st10" d="M157.5,192.3c34.5,3.9,46-12.3,47.7-7.9c1,6.1-17.3,32.3-54,20.4"/>
<path class="st9" d="M153.3,183.3c12.6,16.3-6,21.9-8.3,28.5"/>
<path class="st3" d="M293.2,115c29.8,53.1,0.1,86.4-13,126.5"/>
<path class="st15" d="M291,111.3l2.6-1.5c17.8,7.9,14.3,22.7,3,9.8c5.5,14.1-1.3,13.2-2.2,2.2C290.2,140.5,282.9,140.2,291,111.3z"
	/>
<path class="st3" d="M293.6,109.8c17.8,7.9,14.3,22.7,3,9.8c5.5,14.1-1.3,13.2-2.2,2.2c-4.3,18.7-11.5,18.5-3.5-10.5"/>
<path class="st15" d="M295.2,110.1c32.9-15.1,32-80.1-3.3-100.9c-18.4-12.6-62.5-3-55.3,49C242.4,108.3,282.1,118.5,295.2,110.1z"/>
<path class="st3" d="M295.2,110.1c32.9-15.1,32-80.1-3.3-100.9c-18.4-12.6-62.5-3-55.3,49C242.4,108.3,282.1,118.5,295.2,110.1z"/>
<path class="st16" d="M295.7,19.3c-8.7-6.2-18.4-9.3-30.3-9.8C277.8,5.6,287.7,9.3,295.7,19.3z"/>
<path class="st9" d="M136.7,165.3c-10.4-13.9-8.9-30.6-2.9-33.2c9.3-3.1,22.9,7,26.8,29.2 M165.5,161.8c-7.6-1.9-32.8,2-33.1,10.2"
	/>
<path class="st5" d="M71.7,70.6c-9.6-7-10.1-14.8-9.8-20.9C57.5,54.5,59,66.2,71.7,70.6z"/>
<path class="st17" d="M190.8,360.7c-4.3-3.4-11.3-2.9-19,2C179.4,355.7,186.7,353.1,190.8,360.7z M83.4,286.1
	c2.8-3.1,10.8-7.7,15.8-5.1C96.2,274.7,85.7,281.3,83.4,286.1z M108,359.6c7.2-3.6,14.7-4,23.5-2C123.4,352.3,115,352.7,108,359.6z
	 M252.9,191.6c0.8,4.7,3.2,8.5,7,12.1C254.9,201.5,252.3,197.4,252.9,191.6z"/>
</svg>
