<?xml version="1.0" encoding="utf-8"?>
<!-- Generator: Adobe Illustrator 21.1.0, SVG Export Plug-In . SVG Version: 6.00 Build 0)  -->
<svg version="1.1" id="Layer_1" xmlns="http://www.w3.org/2000/svg" xmlns:xlink="http://www.w3.org/1999/xlink" x="0px" y="0px"
	 viewBox="0 0 331 384" style="enable-background:new 0 0 331 384;" xml:space="preserve">
<style type="text/css">
	.st0{fill-rule:evenodd;clip-rule:evenodd;fill:#E1F4FD;}
	.st1{fill-rule:evenodd;clip-rule:evenodd;fill:#DBEAB4;}
</style>
<path class="st0" d="M120.7,3.8C74.1,10.1,20.1,38.6,26.9,89.4c5.1,37.8,18.8,54.5-9.4,92.9c-21.7,29.5,9.4,59.8,0.3,87.6
	C-32.5,423.8,288.3,397.8,310,330c8.9-27.8-18.7-46.5-2.4-68.6c36.9-50.1,31.1-135.4-22.4-195.8C240.4,14.9,185-4.9,120.7,3.8z"/>
<path class="st1" d="M42.7,357.4c44.1,35.5,175.7,34.6,234.9,2.1c11.2-7.9-25.7-8.9-60.1-8.4l-43.8-6.2
	c15.1-23.8-18.5-48.3-32.4-20.8c0,0-1-10.6-6.4-11.7c-9.2-1.9-15,11.3-17.4,18.8c-0.6,3.1-2.3-39.5-13.1-25.8
	c-1.2,2.1-6.7,21-6.7,21c-4-6.1-15.9-34.9-24.9-22.6c-8.8,11.8,3,24.5,3.9,35.8c-0.1-3.2-1.5-4.3-2.7-6.1c-18.5-28-32.8,2.3-15.2,16
	c0.8,0.2,3.5,2.3,2.7,2.2C46.4,349.5,32.6,347.5,42.7,357.4z"/>
</svg>
