<?xml version="1.0" encoding="utf-8"?>
<!-- Generator: Adobe Illustrator 19.0.0, SVG Export Plug-In . SVG Version: 6.00 Build 0)  -->
<svg version="1.1" id="Layer_1" xmlns="http://www.w3.org/2000/svg" xmlns:xlink="http://www.w3.org/1999/xlink" x="0px" y="0px"
	 viewBox="0 0 401.5 361" style="enable-background:new 0 0 401.5 361;" xml:space="preserve">
<style type="text/css">
	.st0{fill-rule:evenodd;clip-rule:evenodd;fill:#B47B40;}
	.st1{fill-rule:evenodd;clip-rule:evenodd;fill:#C68E4A;}
	.st2{fill-rule:evenodd;clip-rule:evenodd;fill:#D9AF78;}
	.st3{fill-rule:evenodd;clip-rule:evenodd;fill:url(#SVGID_1_);}
	.st4{fill-rule:evenodd;clip-rule:evenodd;fill:url(#SVGID_2_);}
	.st5{fill-rule:evenodd;clip-rule:evenodd;fill:#FCC826;}
	.st6{fill-rule:evenodd;clip-rule:evenodd;fill:#E1A836;}
	.st7{fill-rule:evenodd;clip-rule:evenodd;fill:#FABFBF;}
	.st8{fill-rule:evenodd;clip-rule:evenodd;fill:#EA9A9D;}
	.st9{fill-rule:evenodd;clip-rule:evenodd;fill:#FFFFFF;}
	
		.st10{fill-rule:evenodd;clip-rule:evenodd;fill:none;stroke:#6D6E71;stroke-width:1.7008;stroke-linecap:round;stroke-linejoin:round;stroke-miterlimit:22.9256;}
	.st11{fill-rule:evenodd;clip-rule:evenodd;fill:#A8D4EA;}
	
		.st12{fill-rule:evenodd;clip-rule:evenodd;fill:none;stroke:#E47A6B;stroke-width:1.7008;stroke-linecap:round;stroke-linejoin:round;stroke-miterlimit:22.9256;}
	.st13{fill-rule:evenodd;clip-rule:evenodd;}
	
		.st14{fill-rule:evenodd;clip-rule:evenodd;fill:#FFE580;stroke:#9A6326;stroke-width:1.7008;stroke-linecap:round;stroke-linejoin:round;stroke-miterlimit:22.9256;}
	.st15{fill-rule:evenodd;clip-rule:evenodd;fill:#FFE580;}
	.st16{fill-rule:evenodd;clip-rule:evenodd;fill:#F7A1A1;}
	
		.st17{fill-rule:evenodd;clip-rule:evenodd;fill:none;stroke:#9A6326;stroke-width:1.7008;stroke-linecap:round;stroke-linejoin:round;stroke-miterlimit:22.9256;}
	.st18{fill-rule:evenodd;clip-rule:evenodd;fill:#FFF9AE;}
</style>
<path class="st0" d="M31.4,318c7-8.1,3-26.5,15.4-32.1l13.3,30l-3.6,28.5l-43.6-15C11.9,321.3,26.4,324,31.4,318z"/>
<polygon class="st1" points="21.1,84.9 15.1,101.7 56.5,351.6 65.3,354.7 45.8,192.3 "/>
<polygon class="st2" points="21.1,84.9 165,84.2 211.8,321 65.3,354.7 "/>
<linearGradient id="SVGID_1_" gradientUnits="userSpaceOnUse" x1="114.2736" y1="210.8861" x2="79.8272" y2="90.1213">
	<stop  offset="0" style="stop-color:#C7EAFB"/>
	<stop  offset="1" style="stop-color:#FFFFFF"/>
</linearGradient>
<polygon class="st3" points="32.5,95.2 157.2,92.5 200.6,314.4 74.8,341.5 "/>
<linearGradient id="SVGID_2_" gradientUnits="userSpaceOnUse" x1="158.6699" y1="232.4817" x2="47.7046" y2="-7.222">
	<stop  offset="0" style="stop-color:#BCB192"/>
	<stop  offset="1" style="stop-color:#FFFFFF"/>
</linearGradient>
<path class="st4" d="M181,213.8c-3.8,6.2-8,10.9-12.5,14.6c13.8,17.2,16.1,39.2,11.4,53.9c0,0.2-0.1,0.4-0.1,0.7l-0.5,1.1
	c-0.5,1.4-1.1,2.7-1.7,3.9l0,0h-0.9c0.1,0.3,0,0.5-0.1,0.6c-1,0.3-2.1,0.6-3.2,0.7l-1,3.9c8.1,4.4,18.1,10.1,18.4,23.3
	c-1.1-8.8-12.2-14.1-21.3-16.1l-2.5,3.3c0.1,0.3,0.2,0.5,0.3,0.8c0.1,0.3,0.2,0.5,0.3,0.8c0.1,0.3,0.2,0.5,0.3,0.7
	c0.1,0.2,0.2,0.5,0.3,0.7c0.1,0.2,0.2,0.5,0.3,0.7l0,0c0.1,0.2,0.2,0.5,0.3,0.7l0,0c0.1,0.2,0.2,0.5,0.3,0.7l0,0
	c0.1,0.2,0.2,0.5,0.3,0.7l0,0c0.1,0.2,0.2,0.5,0.3,0.7v0c0.1,0.2,0.2,0.5,0.3,0.7l0,0c0.1,0.2,0.2,0.5,0.3,0.7v0
	c0.1,0.2,0.2,0.5,0.3,0.7v0c0.1,0.2,0.2,0.5,0.2,0.7l0,0c0.1,0.2,0.2,0.5,0.2,0.7l0,0c0.1,0.2,0.2,0.5,0.2,0.7v0
	c0.1,0.2,0.1,0.5,0.2,0.7v0c0.1,0.2,0.1,0.5,0.2,0.7l0,0c0.1,0.2,0.1,0.5,0.2,0.7v0c0.1,0.2,0.1,0.5,0.2,0.7v0
	c0.1,0.2,0.1,0.5,0.2,0.7v0c0.1,0.2,0.1,0.4,0.2,0.7l0,0c0.1,0.2,0.1,0.4,0.2,0.7l0,0c0.1,0.2,0.1,0.4,0.2,0.7v0l0.1,0.4l-31,6.7
	c0.4-3.3,0.5-6.3-0.6-8.9l-9.5,0.3l0,0l0.5,6.9l0,0.1l0.4,1.7c0.1,0.6,0.3,1.2,0.4,1.7l-29.2,6.3c-2.9-10.3,3.4-19.9,3.2-30
	c-0.2-0.3-0.4-0.5-0.5-0.8c-0.9-1.3-1.7-2.6-2.4-4c0.2,0.2,0.4,0.5,0.6,0.7c-0.7-1.5-1.7-3.7-3.5-7.9c-2.3-7.5-3.3-15.6-2.4-24.5
	l-2.1-3l-2,3.4l-2.6,2.8l0,0c-2.6,0.8-6.3-0.2-9.9-2.3c-0.6-0.3-1.2-0.7-1.7-1.1c-4.1-2.7-7.6-6.6-8.2-9.9
	c1-10.1,9.3-12.4,12.1-21.1c-3.9-15.9-6.4-21.6-6.4-41.2c-6.7-6.1-9.1-13.7-8-15.2c0.3-0.6,0.8-0.6,1.5-0.3c0.1,0,0.2,0.1,0.3,0.2
	l0,0c0.2,0.1,0.4,0.2,0.5,0.3l5.9,3.4l0,0c1.1-16,4-30.8,9.1-44.1c-8.9-3.8-12.7-12.3-6.5-21.3c6.4-6.2-1.6-13,0.7-19.8
	c2.1-5.1,6.6-3.3,10-5.8l23.9-0.5c1.2,2.2,2.3,4.8,3.5,7.7l8.4-2.8c-1.5-1.9-1-3.9,0.7-5.2l16.4-0.4c0.8,1,1.5,2,2.3,3.2
	c4.4,1.2,8.4,2.9,12.1,4.8L181,213.8L181,213.8z M215.5,140.1c4.7,3.1,7.1,7.7,7,12.1c0,0.4,0,0.8-0.1,1.1L215.5,140.1z"/>
<path class="st5" d="M318.4,179.8c-7.1,10.9-15.3,18.7-24.2,24.4c23.8,23.3,25.1,53.7,13.8,70.7h-5.9l-2,6.1l-4.4,8.6l-3.8,4
	c11.5,19.3,14.3,35,8.4,47.2c-5.5,8.7-35.8,15.5-49.5,2.1c-0.8-12.7,6.5-24.3,2.1-32.1l-14.3,0.5c-0.9,9,5.1,16.6,4.4,24.9
	c-2,6.8-27.9,17.6-40.7,4.1c-15.9-15.9-0.8-29.9-1.2-44.9c-2.9-3.4-2.9-3.4-8.9-14.2c-3.4-8.9-5-18.5-3.7-29.1l-3.2-3.6l-3.1,4.1
	l-3.9,3.3c-13.1,0.2-22.6-4.8-30.1-15.8c1.6-12,14.1-14.7,18.4-25.1c-5.9-18.9-9.8-25.6-9.8-48.9c-14.4-11.7-14.1-20.2-9.5-18.2
	l9.9,4.4c1.6-19,6-36.6,13.8-52.4c-13.5-4.6-19.3-14.6-9.9-25.3c9.8-7.3-2.4-15.4,1.1-23.5c4.8-9.1,18.2,0.5,20.7-17.3
	c0.7-9,19-14.7,36.2,18.9l12.8-3.3c-5-5,4.7-10.2,14.5-7c-14.4-11.7-1-14.2,15,4.2c33.5,7.4,52.8,26.4,63.1,49.1
	c34.3-6,52.4,6,52.1,17.8c0.1,7.1-11.6,10-2.3,19.1c6.4,6,8,15.8-0.2,18.1c-16.2,7.3-4.9,20.8-10.9,26.2
	c-9.5,9.1-18.4-10.3-26.3,2.5C332.3,188,324.5,187.5,318.4,179.8z"/>
<path class="st6" d="M314.7,172.3c-7.1,21-32.1,40.7-53.8,41c-12.9,1.5-23,5.6-27.1,15.1c-4.2,11.1,6,31.4,25.3,33.2
	c8.6,0.5,10.6-13.9,8-24.5l4.6,7l4.3,2.2l-2.1,15.9l4.8-0.2c4.4-1.8,8.4-1.9,14,1.8c19.5-3.4,5.6-41-1.3-48.7
	c15.4,5.2,26.6,28.6,20,54l-3.3,5.9h-5.9l-2,6.1c12.3,5.3,27.6,12,28,27.7c-1.7-10.5-18.6-16.7-32.4-19.1l-3.8,4
	c11.5,19.3,14.3,35,8.4,47.2c-5.5,8.7-28.3,14.9-42.1,1.5c2.4-6.3,5.8-12,17-13.2c7-2.2,1.3-24.5-16.5-18.4l-20.3,0.5l0.8,8.2
	l3.4,12.3l0.2,4.3c-3.6,8.8-20.3,7.6-36.6-1.3c23.3,0.2,30.2-13.2,9.1-28.7c-8.9-5.1-15.2-10.6-18.9-16.3
	c18.3,17.9,66.3,19.2,68.6-2.1c-32.4,9.5-63.9-13.1-71.9-30.2c28.9,26.1,49.9,24.9,64.8,25.2l1.8-1.1l-0.7-4.6l1.4-1.6
	c2.9-4.8,1-7.7-5.7-8.8c-30.9-5.1-57-28.1-51.6-73.4c-13.5-4.6,26.7,11,36.1,0.4l10.1,11.5c-17.7-26.2,18.5-7.6,43.4-39.7
	c25.9-36.8,16.2-84.8-25.4-108.4c24.8,7.8,40.8,16.3,51.1,39c-6.7,30.2,31.6,12.9,43.7,27.6c6.9,6.6,5.5,17.3,0.4,24.2
	c-8.7,10.6,0.8,19.2-4.7,24.3c-9.5,9.1-13.1-5.2-21,7.6C332.3,188,320.7,180.1,314.7,172.3z"/>
<polygon class="st7" points="241.9,199.3 218.5,198.4 215.8,200.3 215.6,205.7 220.9,215 223.8,217.2 227,216.1 229.5,214 "/>
<path class="st8" d="M241.9,199.3l-23.4-0.9l-2.7,1.9l-0.2,5.4l0,0c6-1.1,9.1-0.5,9.3,1.8c3.9-3.9,7.5-4.2,10.7-0.9L241.9,199.3z"/>
<path class="st7" d="M358.8,145.8c-1.9,12.4-15,19.7-27.1,17.5c-2.4,4.7-5.1,5.3-7.8,5.7c6.1-16.5,8.3-32.6,6.4-48.3
	c10.4,2.6,18.8-2,27.6,3.7C364.3,128.5,364.1,140.3,358.8,145.8z"/>
<path class="st9" d="M238.8,163.2c7.9,4,14.6-0.9,21.9-1.3c6.5-14.2,2.1-28.7-3.8-29.9C248.1,131,238,142.8,238.8,163.2z"/>
<path class="st9" d="M156.7,166.2l0.3-13.8c-4.6-0.5-11.1-6.7-12.6-4.3C142.8,149.9,146.4,158.9,156.7,166.2z"/>
<path class="st9" d="M243.6,198.8c-4.3-2.9-6.2-6.7-5.7-11.4c-31.2,3.5-41.6-11.1-43.1-7.1C193.9,185.8,210.4,209.5,243.6,198.8z"/>
<path class="st10" d="M237.9,187.4c-31.2,3.5-41.6-11.1-43.1-7.1c-0.9,5.5,15.6,29.2,48.8,18.5"/>
<path class="st10" d="M157,152.4c-4.6-0.5-11.1-6.7-12.6-4.3c-1.6,1.7,2,10.8,12.3,18"/>
<path class="st11" d="M239.3,153.4l-0.5,9.8c6.4,3.7,11.3-0.3,17-0.4c5.1-11.2,1.8-23.2-2.7-24.2
	C247.2,137.2,240.8,142.7,239.3,153.4z"/>
<path class="st12" d="M233,205.1c-4.2-0.7-6.6,0.5-8.1,2.5c-0.6-1.6-2.7-2.4-6.3-2.5"/>
<path class="st13" d="M247.1,164.4c3.2,0,5.9-2.6,5.9-5.9c0-3.2-2.6-5.9-5.9-5.9c-3.2,0-5.9,2.6-5.9,5.9
	C241.2,161.8,243.9,164.4,247.1,164.4z"/>
<path class="st9" d="M251.1,157.2c1.3,0,2.4-1.1,2.4-2.4c0-1.3-1.1-2.4-2.4-2.4c-1.3,0-2.4,1.1-2.4,2.4
	C248.7,156.1,249.8,157.2,251.1,157.2z"/>
<path class="st9" d="M255.3,147c1.7,0,3.1-1.4,3.1-3.1s-1.4-3.1-3.1-3.1c-1.7,0-3.1,1.4-3.1,3.1S253.6,147,255.3,147z"/>
<path class="st14" d="M273.7,138.8c-1.7-6.2-13.7-10.8-8.8-13.9C269.8,121.9,277.6,132,273.7,138.8z"/>
<path class="st7" d="M203.6,60.7c-12,8-21.2,18.8-27.3,29.2c-0.7-1.4-0.5-4.9,0.8-6.5c-5.9-3.8-6.4-11.6-4.3-18
	C178.4,49,192.1,44.9,203.6,60.7z"/>
<path class="st15" d="M148,240.2c1.9,7.8,20.9,18.1,30.1,15.8c-2.3-9.6-12.5-14-17.6-9C159.6,237,152.3,235.1,148,240.2L148,240.2z
	 M199.2,337c13.5-3.7,23.3-4.2,27.9,0.1c4.2-3.7,9.3-4.5,15.7-0.9C234,350.3,205.6,350.2,199.2,337L199.2,337z M251.5,333.6
	l-0.8,9.3c11.6,13.4,46.1,6.7,49.5-2.1c-3.4-3.7-7.5-3.3-12.3,1c-9.4-9.5-25-9.1-29.8,0.5C256.9,338.1,254.7,335.2,251.5,333.6
	L251.5,333.6z M306.5,275.6c-13.6,3.5-34.6-1.2-32.7-13.4c4.5-1.3,12.9,0.9,14.8,8.1C294.3,260.1,308.4,274.4,306.5,275.6z"/>
<path class="st15" d="M278.4,231.2c3.5,6.7,2.7,22.1-1.6,27.5C278.5,251.2,278.3,237.3,278.4,231.2L278.4,231.2z M257.2,275.4
	c8.9-4.3-1.2-8.6-12.9-9.1C253.8,269,260.2,269.5,257.2,275.4L257.2,275.4z M242.5,179.9c-2.1,7.9-3.5,10,4.1,20.7
	C237.6,193.4,234.1,188,242.5,179.9L242.5,179.9z M236.2,152.5c2.1-9.7,8.5-19.5,14.1-22.1C241.2,129.4,235.4,142.4,236.2,152.5
	L236.2,152.5z M178.3,94.2c-8.4,14.2-13.6,30-17.2,49.2C160.8,124.5,166.6,107,178.3,94.2L178.3,94.2z M209.5,43
	c-4.8-5.6-15.4-11.7-21.7-12.8C193.6,27.3,203.7,32.4,209.5,43L209.5,43z M373,112.5c-5.1-10.6-29.6-16.9-40.4-14.7
	C345.7,93.2,372.8,99,373,112.5L373,112.5z M186.3,241.8c7.6,10.8,17.6,19.4,30.6,27.6C202.7,264.4,191.7,254.8,186.3,241.8
	L186.3,241.8z M197,284.5c6.4,7.1,16.4,11.5,25.3,14C213,298.9,201.8,294.9,197,284.5z"/>
<path class="st16" d="M200.1,59c-7.4-3.5-13.3-4.4-20.1-1.5C187.7,50.8,192.9,52.3,200.1,59z"/>
<path class="st16" d="M360.3,134.2c-4.2-7.6-11.3-7.1-20.7-9.3C349.8,124.7,358.1,122.8,360.3,134.2z"/>
<path class="st6" d="M262.5,132.9c4.2,7.1,1.6,23-1.8,28.9l4,0C269.8,154.3,269.6,141.8,262.5,132.9z"/>
<path class="st17" d="M242.8,336.2c-7.8-2.9-13-2.6-15.7,0.9c-6.1-4.5-15.4-4.6-27.9-0.1 M243.6,198.8c-7.6,5.2-14.2,18.6-19.8,18.4
	c-2.6-0.9-5.5-5.2-8.2-11.5 M300.2,340.8c-3.4-3.7-7.5-3.3-12.3,1c-9.4-9.5-25-9.1-29.8,0.5c-1.2-4.2-3.4-7.1-6.7-8.7 M178.2,256
	c-2.3-9.6-12.5-14-17.6-9c0.2-7.8-8.2-12.2-12.4-7.1 M234.9,160.2c9.6,10,21.1-0.4,31.2,1.9 M260.7,161.9
	c6.5-14.2,2.1-28.7-3.8-29.9c-8.8-1-18.9,10.9-18.1,31.3 M231.7,49.7c-3.6-4.2-0.6-9.5,14.5-7 M325.8,118.6
	c10.5,6.7,23.2,0.1,32,5.7c6.5,4.1,6.2,16,0.9,21.4 M275.9,246.3c-3.1-0.7-7.8-4-9-9.2 M294.2,204.2C316,223,320,258.5,308,274.9
	c-14.2,7-36.7-3.6-34.2-12.7c1.5-7.2,2.6-8.7,1.9-26.2 M273.8,262.2c4.5-1.3,12.8,0.5,14.8,8.1c3.7-6.7,13.3-4.7,18.1,5.2 M218.9,53
	c-16-32.1-35.1-28.9-36.2-18.9c-2.4,17.9-16.9,8.1-20.7,17.3c-4.1,9.2,9.2,14.8-1.1,23.5c-7.3,6.2-6.5,20.5,9.9,25.3 M172.8,65.4
	c5.6-16.4,19.3-20.6,30.8-4.7 M246.7,48.6c-4.6,2.5-12.1,3.6-15,1.1c-42.6,6.6-71.2,52-74.9,104.3c-3.9,66.9,38.5,133.1,101.1,128.7
	c4.6-0.3-1.6-5.5,2.4-7.4c3.4-3.3,1.9-6.7-2.9-8.1c-27.6-6.4-43.3-28.5-41.7-65.5 M255.1,49.2c-10.6-7.3-16.5-12.6-15.4-15
	c2.3-2.6,11.7,0.6,21.5,12.6c29,5.2,54.8,26.9,63.1,49.1 M330.2,120.7c5.5,46-21.7,97.9-80.3,92.3c-11.9-1.1-18.4,11.5-26.1,10.4
	c-3.9-0.8-6.5-4.8-8-9.5 M319.7,97.1c34.4-9.2,56,3.5,56.7,16.7c0.1,7.1-11.6,10-2.3,19.1c6.4,6,8,15.8-0.2,18.1
	c-16.2,7.3-4.9,20.8-10.9,26.2c-9.5,9.1-18.4-10.3-26.3,2.5c-4.5,8.3-12.3,7.9-18.3,0.1 M241.7,179.3c-11.4,14.8,5.4,19.8,7.5,25.8
	 M182.5,237c-1.5,0.4-3.1,1.4-3.7,2.7 M176.8,169.8c-1.9-0.8-4.6-1-6.4-0.1 M186.7,124.9c-2.8-0.9-5.8-1.2-8.3-1.1 M182.3,140.8
	c-2.6-1.9-6.2-2.2-8.7-1.6 M209.9,261.7c-1.9,1.2-3.8,3.5-4.1,5.6 M192.4,248.1c-1.7,0.8-3.6,2.4-4.1,4.1 M185.2,248.6
	c-2.6,4.5-5.6,6-7,7.4c-7.8,0.8-24-4.1-30.1-15.8c1.7-11.7,15-15.7,18.3-24.9 M301.4,276.9c-8.3,21.1-20.8,30.7-50.8,34.1
	c-43.8,2.4-65.1-21.1-62.3-58.8 M300.1,281c15,5.7,28.7,15.9,28,27.7c-2.9-10-16.3-16.6-32.4-19.1 M291.9,293.6
	c11.1,17.8,14,34.1,8.4,47.2c-4.1,8.3-37.2,16-49.5,2.1c-0.4-12.2,6.3-23.3,2.1-32.1 M238.4,311.3c0.5,15.6,5.1,17.2,4.4,24.9
	c-3.1,8.8-28,15.9-40.7,4.1c-16-16.2-0.8-29.9-1.2-44.9"/>
<path class="st18" d="M304.6,275.1c-2.4-2.8-9.3-6.9-13.6-4.6C293.6,264.8,302.6,270.8,304.6,275.1L304.6,275.1z M224.6,337.9
	c-8.1-2.2-12.3-0.3-20.7,1C211.2,334.3,216.4,334.6,224.6,337.9L224.6,337.9z M284.7,341.5c-7-3.5-14.2-3.8-22.6-2
	C270,334.4,278,334.9,284.7,341.5z"/>
</svg>
