<?xml version="1.0" encoding="utf-8"?>
<!-- Generator: Adobe Illustrator 19.0.0, SVG Export Plug-In . SVG Version: 6.00 Build 0)  -->
<svg version="1.1" id="Layer_1" xmlns="http://www.w3.org/2000/svg" xmlns:xlink="http://www.w3.org/1999/xlink" x="0px" y="0px"
	 viewBox="0 0 401.5 361" style="enable-background:new 0 0 401.5 361;" xml:space="preserve">
<style type="text/css">
	.st0{fill-rule:evenodd;clip-rule:evenodd;fill:#E1F4FD;}
	.st1{fill-rule:evenodd;clip-rule:evenodd;fill:#E6E7E8;}
</style>
<path id="XMLID_15_" class="st0" d="M109,219.7C97,148.8,87.4,84.6,154.5,30.8C197.2-3.4,272.1-13,324.6,21.9
	c56.2,37.3-12.5,92.7,37.4,117.6c55.2,27.6,43.7,49,18.7,87.3c-24.9,38.3,54.3,89.1-36.5,119.4C274.7,369.4,113.5,341.9,109,219.7z"
	/>
<path id="XMLID_14_" class="st1" d="M162.5,321.2c-5.3,10.7-21.4,26.7,4.5,33c35.9,8.3,98.3,10.1,134.5-0.9
	c55.2-17.8-54.3-45.4-67.7-48.1C201.7,297.2,189.2,307,162.5,321.2z"/>
</svg>
