<?xml version="1.0" encoding="utf-8"?>
<!-- Generator: Adobe Illustrator 21.1.0, SVG Export Plug-In . SVG Version: 6.00 Build 0)  -->
<svg version="1.1" id="Layer_1" xmlns="http://www.w3.org/2000/svg" xmlns:xlink="http://www.w3.org/1999/xlink" x="0px" y="0px"
	 viewBox="0 0 513 370" style="enable-background:new 0 0 513 370;" xml:space="preserve">
<style type="text/css">
	.st0{fill-rule:evenodd;clip-rule:evenodd;fill:#A16044;}
	.st1{fill-rule:evenodd;clip-rule:evenodd;fill:#BB7446;}
	.st2{fill-rule:evenodd;clip-rule:evenodd;fill:#FABFBF;}
	.st3{fill-rule:evenodd;clip-rule:evenodd;fill:#EA9A9D;}
	.st4{fill-rule:evenodd;clip-rule:evenodd;fill:#FFFFFF;}
	.st5{fill:none;stroke:#823436;stroke-width:1.6994;stroke-linecap:round;stroke-linejoin:round;stroke-miterlimit:22.9256;}
	.st6{fill:none;stroke:#6D6E71;stroke-width:1.6994;stroke-linecap:round;stroke-linejoin:round;stroke-miterlimit:22.9256;}
	.st7{fill-rule:evenodd;clip-rule:evenodd;fill:#A8D4EA;}
	.st8{fill:none;stroke:#E47A6B;stroke-width:1.6994;stroke-linecap:round;stroke-linejoin:round;stroke-miterlimit:22.9256;}
	.st9{fill-rule:evenodd;clip-rule:evenodd;}
	.st10{fill-rule:evenodd;clip-rule:evenodd;fill:#FAA74A;}
	.st11{fill-rule:evenodd;clip-rule:evenodd;fill:#D58F5C;}
	.st12{fill-rule:evenodd;clip-rule:evenodd;fill:#EBB081;}
	.st13{fill-rule:evenodd;clip-rule:evenodd;fill:#F7A1A1;}
	.st14{fill-rule:evenodd;clip-rule:evenodd;fill:#ED7B29;}
	.st15{fill-rule:evenodd;clip-rule:evenodd;fill:#F18A2E;}
	.st16{fill-rule:evenodd;clip-rule:evenodd;fill:#CD8C5D;}
	.st17{fill-rule:evenodd;clip-rule:evenodd;fill:#D3602C;}
	.st18{fill-rule:evenodd;clip-rule:evenodd;fill:#FED09E;}
</style>
<path class="st0" d="M326.7,229.9l2-9.8l-8.1-3.7l-1.5-2.1L304.7,230C312.8,232.8,321.3,231.7,326.7,229.9z"/>
<path class="st1" d="M452.3,149.6c-5.1,13.3-24.8,25-35.5,29.3c11.2,15.6,18.9,39.4,10.6,63.1c12.1,5.2,28.4,0.2,39.5-11
	c-8.3,13.5-23.2,28.2-42.6,19.2c-3.5,19.2,5.3,51.6-1.8,57.9c-10.4,5.5-30.7,8.8-44.2-4.3c0.8-8.8,6.9-18.6,2.6-26.2l-10.9-0.1
	c-2,9.3,1,16.4,2.1,25.9c-5.6,11.9-40.4,14-49.1,1.9c-8.5-9.7-5.6-25.4,9.1-44.9l-3.1-5.5l-1.5-6c-1.9-9.2-1.9-18.8,1.1-28.7
	l-8.7-4.3l-1-1.6l-29.2,6.1c-5.3-30.5,25.5-38.6,36.3-28.3l12.9-12c-49.5-2.7-49.2-43-83.6-38.9c-6.8,2.3-8.4-5.5-3.5-9.9
	c-4.9-1-4.9-5-1.9-6.9c16.9-10.2,32.7,9.2,48.6,6c-1.2-10.9-0.9-36.3,9.3-59.1c-13.3-4.5-18.9-14.3-9.7-24.7
	c9.6-7.2-2.3-15.1,1.1-23c4.7-9,17.3-0.6,21.8-12.9c2.7-5.6,17-18.4,33.8,14.5l12.5-3.2c-1.3-2.6,3.3-10.3,12.8-7.2
	c-5.3-8.2,8.1-9,16.1,4.4c32.8,7.2,51.6,25.8,61.8,48.1c33.6-5.9,51.3,5.9,51,17.4c0.1,7-11.4,9.8-2.2,18.6
	c6.3,5.9,7.8,15.5-0.2,17.7c-15.8,7.2-4.8,20.3-10.6,25.6c-9.3,8.9-18-10.1-25.7,2.5C465.9,157.6,458.2,157.2,452.3,149.6z"/>
<path class="st0" d="M423.3,252.2c-1,28.8,18.5,24.5,7.6,47.6c-5.4,8.5-24.1,21.9-37.5,8.8c2.3-6.2,5.7-11.7,16.6-12.9
	c6.8-2.2-11.6-24.1-29-18.1l-10.9-0.1c-1.7,7.4-16-1.9-19.8,6.9c-5.6,11.9,13.9,9.4,15.2,18.4c-4.3,3.8-33.8,17-38.7,2.7
	c-11.7-12.1,1.4-39.4,5.4-45.1c18,17.5,70.5,20.4,70.4-8.4c-1.1-23.4-42.5-8.3-71.4-30.8l-2.5-1l12.3,4.4
	c38.2,1.8,55.3-13.2,55-42.2l20.8-3.6C434.5,204.8,432.9,227.1,423.3,252.2z"/>
<path class="st0" d="M448.6,142.3c-6.9,20.5-31.5,39.8-52.7,40.2c-10.6-0.4-19-1.2-27.9,6.8l-11.3-0.7l-7.6-2.3l6-4.3l1.1-4.2
	l-1.8-4.3l-3.1-2.1l-3.2-0.1l-9.4,9.1c-46.6-2-53.5-42.8-79.3-39.7c23.7-9.2,50.6,40.4,86.1,26.4c-13.3-4.5,19.7,6.6,28.9-3.8
	l9.9,11.3c-17.3-25.7,18.1-7.5,42.5-38.9c25.4-36,15.9-82.9-24.8-106c24.3,7.6,39.9,15.9,50,38.2c-6.6,29.5,31,12.6,42.7,27
	c6.8,6.4,5.4,17,0.4,23.6c-8.5,10.4,0.8,18.8-4.6,23.8c-9.3,8.9-12.8-5.1-20.5,7.4C465.9,157.6,454.6,149.9,448.6,142.3z"/>
<polygon class="st2" points="377.5,168.7 354.6,167.9 352,169.7 354.6,173.3 356.4,177.6 355,181.3 357,184.1 359.8,186.1 
	362.9,185.1 365.3,183.1 "/>
<path class="st3" d="M377.5,168.7l-22.9-0.9l-2.6,1.9l3.6,4.8l-0.8-0.2c3.5,0.4,6,0.1,6.2,2.4c3.8-3.8,7.3-4.1,10.5-0.9L377.5,168.7
	z"/>
<path class="st2" d="M491.8,116.3c-1.9,12.2-14.7,19.3-26.5,17.1c-2.3,4.6-5,5.2-7.6,5.6c6-16.2,8.1-32,6.2-47.3
	c10.2,2.6,18.4-2,27,3.6C497.2,99.4,497,111,491.8,116.3z"/>
<path class="st4" d="M374.5,133.3c7.7,3.9,14.3-0.9,21.4-1.3c6.4-13.9,2-28.1-3.7-29.3C383.5,101.8,373.7,113.4,374.5,133.3z"/>
<path class="st5" d="M367.5,22.4c-2.4-4.1,4.7-9.2,12.8-7.2"/>
<path class="st5" d="M463.9,91.7c5.4,45-21.2,95.8-78.5,90.3c-7.3-0.7-12.5,3.9-17.2,7.2 M387.8,21.5c-10.4-7.1-9.5-9.4-8.5-11.8
	c2.3-2.5,10.4,0,16.9,9.8c28.3,5,53.6,26.3,61.8,48.1"/>
<path class="st4" d="M379.2,168.2c-4.2-2.9-6-6.6-5.6-11.1c-30.6,3.4-40.7-10.8-42.2-7C330.5,155.5,346.7,178.7,379.2,168.2z"/>
<path class="st5" d="M379.2,168.2c-7.4,5.1-13.9,18.2-19.4,18c-1.5-0.5-3-2-4.5-4.4"/>
<path class="st6" d="M373.6,157.1c-30.6,3.4-40.7-10.8-42.2-7c-0.9,5.4,15.3,28.6,47.8,18.1"/>
<path class="st7" d="M375,123.7l-0.5,9.6c6.2,3.6,11.1-0.3,16.6-0.4c5-10.9,1.8-22.7-2.7-23.6C382.6,108,376.4,113.3,375,123.7z"/>
<path class="st8" d="M368.8,174.3c-4.1-0.7-6.4,0.5-7.9,2.4c-0.6-1.6-1.9-2.2-5.4-2.3"/>
<path class="st5" d="M453.5,68.7c33.7-9,54.9,3.4,55.5,16.3c0.1,7-11.4,9.8-2.2,18.6c6.3,5.9,7.8,15.5-0.2,17.7
	c-15.8,7.2-4.8,20.3-10.6,25.6c-9.3,8.9-18-10.1-25.7,2.5c-4.4,8.2-12,7.7-17.9,0.1"/>
<path class="st5" d="M459.6,89.7c10.3,6.5,22.7,0.1,31.3,5.6c6.4,4,6.1,15.6,0.9,21"/>
<path class="st9" d="M381.2,131.2c3.5,0,6.3-2.8,6.3-6.3c0-3.5-2.8-6.3-6.3-6.3c-3.5,0-6.3,2.8-6.3,6.3
	C375,128.4,377.8,131.2,381.2,131.2z"/>
<path class="st10" d="M319,214.3l19.8-30.4l9.3,2.6l6.8-5.3c3.7-6.5-1.5-12-6.6-10.2c-32.7,32.8-60,52.6-81.7,59.4
	c12,4.8,18.5,14,22.5,25.1C292.2,245.6,301.6,232.1,319,214.3z"/>
<path class="st4" d="M386.3,124.9c1.4,0,2.6-1.2,2.6-2.6c0-1.4-1.2-2.6-2.6-2.6c-1.4,0-2.6,1.2-2.6,2.6
	C383.7,123.7,384.9,124.9,386.3,124.9z"/>
<path class="st4" d="M391.2,118.1c1.8,0,3.2-1.5,3.2-3.2c0-1.8-1.5-3.2-3.2-3.2c-1.7,0-3.2,1.5-3.2,3.2
	C388,116.7,389.4,118.1,391.2,118.1z"/>
<path class="st11" d="M320,215.9l-0.2-0.8c-4.2-6.8,4.2-20.5,17.7-31.7l4.8,1.4c-0.2,4.6-3.1,12.5-10.3,14.3
	C335,203.9,333.7,208,320,215.9z"/>
<path class="st11" d="M408.5,109.5c-1.9,1.7-13.4-10.5-8.6-13.6C404.7,92.9,412.3,102.8,408.5,109.5z"/>
<path class="st5" d="M408.5,109.5c-1.9,1.7-13.4-10.5-8.6-13.6C404.7,92.9,412.3,102.8,408.5,109.5z"/>
<path class="st5" d="M355,25.6c-15.9-31.1-30.4-22.2-33.8-14.5C317,23.3,303.1,15,299.4,24c-4,9,9,14.5-1.1,23
	c-7.1,6-6.4,20.1,9.7,24.7"/>
<path class="st2" d="M340.1,33.1c-11.7,7.8-20.7,18.4-26.8,28.6c-0.7-1.4-0.5-4.8,0.8-6.3c-5.7-3.7-6.3-11.3-4.2-17.7
	C315.4,21.7,328.7,17.7,340.1,33.1z"/>
<path class="st5" d="M309.9,37.8c5.5-16.1,18.9-20.1,30.2-4.6"/>
<path class="st11" d="M379.1,297.7l-0.8,4c-0.1,16,38,16.6,44.4,6.3c-9.2-9.3-24.5-8.9-29.2,0.5
	C392.1,304.4,386.9,298.3,379.1,297.7z"/>
<path class="st5" d="M391.1,221.6c-11.4,12.5-42.4,8.1-68.3-4c-13.4-4,10.2-32.3,14.2-34.1c11.6,3,26.3,8.4,40.1,4.8"/>
<path class="st11" d="M297.2,215.5l28.9-23.4c-1.8-1.2-19-3.2-15.8,6.8C306.6,196.9,294.8,204.9,297.2,215.5z"/>
<path class="st11" d="M323.1,305.3c8.5,9.3,30.2,12.4,47.3,0.5c-9.4-7.5-19.2-5.1-24,2.5C344.8,299.8,337.1,298.8,323.1,305.3z"/>
<path class="st5" d="M342.3,185.4c-0.4,4.6-3.1,12.4-10.3,13.8c4.8,5.7-1.5,10.4-12,16.8"/>
<path class="st5" d="M380.9,277.6c-46.2,1.3-61.6-24.1-52.3-57.4"/>
<path class="st5" d="M377.7,261.6c-3,12,10.4,16.1,1.3,36.1c-7.7,18.4,38.9,27.3,52.8,0.3c9.5-19.5-10.4-20.8-8.5-45.8
	c11.5-23.6,9.2-50.5-6.5-73.4"/>
<path class="st5" d="M422.5,308.1c-9.2-9.3-24.5-8.9-29.2,0.5c-1.2-4.1-6.3-10.8-14.3-10.8"/>
<path class="st5" d="M427.4,242c14.7,5.6,28.3-0.5,39.5-11c-15.1,22.9-28.9,24.3-42.6,19.2"/>
<path class="st5" d="M370.1,277.5c-2.7,7.9,0.9,15.4,2.1,25.9c-7,12.6-47.9,16.1-53.3-6.2c-1.7-12.7,4.4-26,13.3-36.8"/>
<path class="st5" d="M289.8,220.4c-5-27.7,21.8-39.3,36.3-28.3"/>
<path class="st5" d="M324.4,190.9c-7-0.9-15.1,1-14,8c-7.7-2.4-15,9.2-13.2,16.6"/>
<path class="st5" d="M370.4,305.9c-9.4-7.5-19.2-5.1-24,2.5c-1.5-8.5-9.2-9.5-23.2-3"/>
<path class="st11" d="M378.1,149.7c-2,7.7-3.5,9.8,4,20.3C373.2,162.9,369.8,157.7,378.1,149.7z"/>
<path class="st12" d="M309.7,200.4c-4.3,2.3-8.5,5.3-10.8,10.2C299.5,204.8,305,198.5,309.7,200.4z"/>
<path class="st12" d="M321.3,212.2c6.1-3.1,8.4-8.4,9.2-12.5C333.3,203.8,329.8,209.2,321.3,212.2z"/>
<path class="st11" d="M332.6,255.6c6.3,6.9,16.1,11.3,24.7,13.8C348.3,269.8,337.3,265.8,332.6,255.6z"/>
<path class="st12" d="M419.3,307.8c-6.8-3.4-13.9-3.8-22.1-1.9C404.9,300.8,412.7,301.3,419.3,307.8z"/>
<path class="st12" d="M345.1,308.6c-3.1-4.1-9.8-5.4-18.3-3.1C335.8,301.2,343.3,300.8,345.1,308.6z"/>
<path class="st11" d="M348.6,18.8c-4.7-5.5-15.1-11.5-21.2-12.5C332.9,3.4,342.8,8.3,348.6,18.8z"/>
<path class="st11" d="M373.7,117.1c2.5-8.3,6.6-13.2,12-15.8C378.4,100.3,372.9,107.2,373.7,117.1z"/>
<path class="st13" d="M336.5,31.4c-7.2-3.4-13-4.4-19.7-1.5C324.5,23.4,329.6,24.9,336.5,31.4z"/>
<path class="st13" d="M493.3,105c-4.1-7.5-11.1-7-20.3-9.1C483,95.7,491.1,93.8,493.3,105z"/>
<path class="st5" d="M377.4,149.1c-11.1,14.4,5.3,19.4,7.3,25.2"/>
<path class="st5" d="M382.1,21.3c-4.5,2.4-11.8,3.5-14.7,1.1c-41.7,6.5-73.6,50.7-68.9,108.2"/>
<path class="st11" d="M346.2,188.1c10.3,3.2,21.1,3.7,33.7,2.2C372.5,195.8,356.2,194.1,346.2,188.1z"/>
<path class="st11" d="M275.5,127.3c-7.3-2.4-14.8-2.7-23.6-1.4C257.1,121.4,268.4,122.6,275.5,127.3z"/>
<path class="st5" d="M319.1,111.5c-2.5-1.9-6.1-2.1-8.6-1.6 M327.9,98.1c-3.4-2.6-8.8-3.4-12.6-3.3"/>
<path class="st11" d="M505.6,83.7c-5-10.4-29-16.5-39.6-14.4C479,64.9,505.5,70.5,505.6,83.7z"/>
<path class="st0" d="M397.6,103.7c4.1,6.9,1.5,22.5-1.8,28.3h3.9C404.7,124.7,404.5,112.4,397.6,103.7z"/>
<path class="st5" d="M370.6,130.4c9.4,9.8,20.6-0.4,30.5,1.8"/>
<path class="st5" d="M395.8,132.1c6.4-13.9,2-28.1-3.7-29.3c-8.6-0.9-18.5,10.6-17.7,30.6"/>
<path class="st5" d="M302.9,128c-12.8,11.9-30.3-14.3-52.9-3.3c-3.4,2.3-2.1,6.2,1.9,6.9c-5.5,5-2.8,12.1,3.5,9.9
	c27.4-7.7,35.5,36.2,83.6,38.9"/>
<path class="st5" d="M332.3,281.1c1.6,4.4,6.5,5.4,9.7,1"/>
<path class="st5" d="M348.4,171.1c-35.4,35-63.4,56.3-81.7,59.4"/>
<path class="st5" d="M349.3,186.1c1.8-1.6,3.7-3.2,5.7-4.9c4.6-5.3-2.6-11.9-6.6-10.2 M289.1,255.7c3.1-10.1,12.4-23.6,29.9-41.4"/>
<ellipse transform="matrix(0.7272 -0.6864 0.6864 0.7272 -92.1148 256.1949)" class="st14" cx="276.3" cy="244" rx="5.3" ry="17.9"/>
<ellipse transform="matrix(0.7272 -0.6864 0.6864 0.7272 -92.1148 256.1954)" class="st5" cx="276.3" cy="244" rx="5.3" ry="17.9"/>
<path class="st5" d="M297.9,229c2,0,3.7-1.7,3.7-3.7c0-2-1.7-3.7-3.7-3.7c-2,0-3.7,1.7-3.7,3.7C294.2,227.3,295.8,229,297.9,229z"/>
<path class="st5" d="M307.8,219.7c1.8,0,3.3-1.5,3.3-3.3c0-1.8-1.5-3.3-3.3-3.3c-1.8,0-3.3,1.5-3.3,3.3
	C304.5,218.2,306,219.7,307.8,219.7z"/>
<path class="st5" d="M316.2,211.4c1.7,0,3-1.4,3-3c0-1.7-1.4-3-3-3c-1.7,0-3,1.4-3,3C313.2,210,314.5,211.4,316.2,211.4z"/>
<path class="st5" d="M304.7,230.1c8.2,2.6,16.6,1.6,22-0.2"/>
<path class="st10" d="M251.1,207.2l-5.7-2.4l-6.8-7.3c5.8-6.3,11.6-12.5,17.4-18.8c5.3-1.5,15.8,9.1,12.7,15.3L251.1,207.2z"/>
<path class="st1" d="M61.6,181.3c6.2,12.9,20.9,23.7,30.5,27.5c-12.9,19.9-5.9,33.5-2.8,41.6c-2.6,11-1.6,20.6,1.5,29.3l0.6,11.5
	c-10.9,20-10,40.2-4.2,52.3c8.2,6.8,35.9,6.2,47.8-6c0.8-12.6-7.5-22.6-3.2-30.3l14.8,6.4c2.1,9.4,1.4,14.1,0.3,23.8
	c5.7,12.1,39.8,9.1,48.6-3.2c3.3-5.5,2.9-20.5-12-40.3l-2.8-24.1l14.2-13.2c10.3-1.4,13.7-13,21.2-23.9c20.2,10.4,36.7-14.6,35-25.4
	l-5.7-2.4l-6.8-7.3c-11.1-2.5-22.7-3.1-34.8-1.6c16.7-12,24.1-19.9,31.1-47.2c0.7-21.4,7-40.5,21.5-56.3c4.6-2.9,3.8-10.4-3.5-10.5
	c1.7-6.5-7-8.5-10.5-0.4c-13.8,5.5-19.1,26.3-30.5,31.2l-7.5-17.9c9.5,0.4,14.5-13,8.8-20.1c-8-8-1.1-7.5-4.6-15.5
	c-3.6-6.8-13.9,4.4-16.3-13.2c-0.6-9-15-24.2-32,9.2l-12.7-3.3c5-5-4.7-10.1-14.4-7c14.3-11.6,1-14.1-14.9,4.2
	C85.1,56.8,66,75.5,55.8,98.1c-34.1-6-52,6-51.7,17.7c-0.1,7.1,11.6,9.9,2.2,18.9c-6.4,6-7.9,15.7,0.2,18c16.1,7.3,4.8,20.6,10.8,26
	c9.5,9,18.3-10.2,26.1,2.5C47.8,189.4,55.6,188.9,61.6,181.3z"/>
<path class="st0" d="M204.3,95c9.5,0.4,14.5-13,8.8-20.1c-8-8-1.1-7.5-4.6-15.5c-3.6-6.8-13.9,4.4-16.3-13.2c-0.6-9-15-24.2-32,9.2
	C179.3,63.8,193.9,76.9,204.3,95z"/>
<path class="st0" d="M89.2,250.3c-2.9,10.2-2,19.9,1.5,29.3c-18.4,8-20.1,23.7-40.4,18.7c15.8,12.6,28.1-6.2,41.1-7.2
	c-11.1,19.3-10,40.2-4.2,52.3c7.1,5.6,26.1,7.3,38.2-3.1c-1.7-8-13.7-6.7-20.8-10.8c-6.8-3.6,7.1-30.4,24.8-24.3l2.5,1.9l9,4.2
	l5.9,2.2c1,7,17.3,2.9,19.6,8.1c5.7,12.1-11.6,9.7-13,18.8c4.3,3.9,23.2,5.1,35.7-1c11.9-12.2-1.4-40-5.4-45.7
	c-18.2,17.7-69.2,12.9-69.1-16.4l3.5,1.6c-0.5-4.8,4.7-8.3,8.4-10.4c-17-3.3-32.4-11.9-41.5-39.5l0.6,9.1L89.2,250.3z"/>
<path class="st0" d="M61.7,181.5c11,20.6,35.5,32.8,57.1,33.2c19,1,16.8,12.2,7.8,19.4l-4.9,5l6.5,6.8l38.9,0.6l21.8-28.3l18.2,4.3
	l20.6-16.1c-0.8-3.9-10.7-6.3-29.7-7c-9.1,4.7-16.9,6.1-24,5.9h-3.8l-3.3-0.2c-3.9,3.6-10,14.9-11.4,13.5l0.4-15.7
	c13.4-4.5-6.2,2.8-15.6-7.8l-10,11.4c17.6-26-18.3-7.6-43.1-39.4c-25.8-36.7-16.1-84.2,25.2-107.7C87.8,67,71.9,75.5,61.7,98.1
	c6.7,30-31.4,12.8-43.4,27.4c-6.9,6.5-5.5,17.2-0.4,24c8.7,10.6-0.8,19,4.7,24.1c9.5,9,13-5.2,20.8,7.6
	C47.8,189.4,55.7,189,61.7,181.5z"/>
<polygon class="st2" points="137.5,200.6 157.4,203.1 163.5,204.3 164.7,207.2 158.3,216.2 155.4,218.4 152.3,217.2 149.8,215.2 "/>
<path class="st3" d="M137.5,200.6l19.9,2.5l8.7,1.7l-1.4,2.4l-0.6-0.1c-6-1.1-9.6-0.7-9.8,1.7c-3.9-3.9-7.5-4.2-10.7-0.9
	L137.5,200.6z"/>
<path class="st2" d="M21.5,147.5c1.9,12.3,14.9,19.6,26.9,17.4c2.3,4.6,5.1,5.2,7.8,5.7c-6.1-16.4-8.2-32.4-6.3-48
	c-10.4,2.6-18.7-2-27.4,3.7C16,130.4,16.3,142.1,21.5,147.5z"/>
<path class="st4" d="M149,162.6c-6.5,5.8-14.2,2.9-21.4,4.3c-9.9-12-9.3-27-4-29.7C131.9,134.1,144.6,142.9,149,162.6z"/>
<path class="st5" d="M147.6,52.2c3.5-4.1,0.6-9.4-14.4-7"/>
<path class="st5" d="M49.9,122.6c-5.5,45.7,21.5,97.2,79.6,91.6c11.8-1.1,18.3,11.4,25.9,10.3c6,0,10.7-10.8,16.3-13.4 M124.5,51.8
	c10.5-7.2,16.3-12.5,15.3-14.9c-2.3-2.5-11.6,0.6-21.4,12.5C89.7,54.5,64,76,55.7,98.1"/>
<path class="st4" d="M135.8,200.1c4.2-2.9,6.1-6.7,5.7-11.3c31,3.5,41.3-11,42.8-7.1C185.1,187.2,168.7,210.7,135.8,200.1z"/>
<path class="st7" d="M146,153.3l3,9.3c-5.2,5.2-10.9,2.6-16.4,3.9c-7.8-9.4-7.7-21.8-3.5-23.9C134.3,139.9,141.9,143.5,146,153.3z"
	/>
<path class="st8" d="M146.3,206.3c4.2-0.7,6.5,0.5,8,2.5c0.6-1.6,2.7-2.4,6.3-2.5"/>
<path class="st10" d="M114.3,277.4l3.5,1.6l17.2-8.1l10.5-10.2c3.2-5-11.6-10-17.4-14.9c7.2-3.9,15.7-5.3,24.9-5.7
	c5.3,0.3,10.5-1.1,17.9-12.1c9.1-15.5,22.8-15.6,36.1-5.7l9.1,10.3c7.9,13.7,1.7,33.6-16.6,36c-7,0.6-13,4.3-13.2,12.3
	c-1.3,21-21.5,33.7-39.7,32.6C129.1,308.2,117.2,296.3,114.3,277.4z"/>
<path class="st15" d="M114.3,277.2l3.5,1.9l8.7-0.4c5.6,27.9,48.8,33,52.1,2c2.1-11,5.7-17.7,16.8-17.9c17.1-3,27.2-11.8,20.8-30.1
	c9,14.6,3,34.7-16.6,36c-7,0.6-13,4.3-13.2,12.3c-1.3,21-21.5,33.7-39.7,32.6C128.9,307.9,117.2,295.5,114.3,277.2z"/>
<path class="st5" d="M60.4,99.2C26.2,90,4.9,102.6,4.2,115.7c-0.1,7.1,11.6,9.9,2.2,18.9c-6.4,6-7.9,15.7,0.2,18
	c16.1,7.3,4.8,20.6,10.8,26c9.5,9,18.3-10.2,26.1,2.5c4.4,8.3,12.2,7.8,18.2,0.1"/>
<path class="st5" d="M54.2,120.6c-10.4,6.6-23,0.1-31.8,5.7c-6.5,4.1-6.2,15.9-0.9,21.3"/>
<polygon class="st16" points="245.4,204.8 239.7,202.4 216.4,233.3 195.1,250.1 185.4,239.2 238.5,197.5 "/>
<circle class="st9" cx="141.5" cy="157.3" r="6.2"/>
<circle class="st4" cx="135.9" cy="157.4" r="2.5"/>
<circle class="st4" cx="127.9" cy="150.4" r="3.8"/>
<path class="st11" d="M117.8,279l2.5,0.9c12.1-1.4,14.7-6.7,19.8-11.8l5.5-7.5c-4.5-1.3-14.5-1.3-14.1,7.5
	C126.6,266.5,117.9,272.7,117.8,279z"/>
<path class="st11" d="M109.4,148.2c0.1-6.4,10.4-13.8,4.9-15.6C108.8,130.9,103.9,142.6,109.4,148.2z"/>
<path class="st5" d="M109.4,148.2c0.1-6.4,10.4-13.8,4.9-15.6C108.8,130.9,103.9,142.6,109.4,148.2z"/>
<path class="st5" d="M160.3,55.5c15.9-31.9,30.9-19.1,32-9.2c2.3,17.8,11.5,5.6,16.3,13.2c3.2,3.8-2.5,8.3,2.9,13.7
	c7.2,6.1,4.8,21.1-7.1,21.9"/>
<path class="st11" d="M90.2,345.1c11.8-11,23.9-10.1,27.3-5.3c3.6-4.8,7.4-5.6,17.5-2.4C128.4,346.5,101.8,351.5,90.2,345.1z"/>
<path class="st5" d="M92.1,208.8c-20.6,26.3,4.9,63.3,28.2,71.1c14-0.4,23.2-17.2,25.3-19.3c4.6-7.7-26.6-12.1-25.9-29.4"/>
<path class="st11" d="M216,232.6c0.9-15.8,15.1-30.3,23.7-30.2c4.2,8.9-2.4,12.7-9.5,12.1C233.1,222.1,222.5,233.9,216,232.6z"/>
<path class="st5" d="M121.7,238.9c1.7-0.4,4.3-2.2,4.9-5"/>
<path class="st11" d="M188.9,339.4c-12.2,6.3-35.1,8.6-42-2.2c9.5-7.6,14.6-3.3,18.3,1.3C169,333.4,174.7,332.8,188.9,339.4z"/>
<path class="st5" d="M145.5,260.7c-4.5-1.3-14.1-1.5-14.1,7.5c-6.6-0.8-11.9,3.5-13.6,10.9"/>
<path class="st5" d="M89.2,250.3c-4,16.6-0.5,46,35.8,50.8"/>
<path class="st5" d="M94.2,286.1c-11,17.6-15.2,40.8-7,57.3c7,5.8,35.6,7.9,47.8-6c0.4-12.1-7.4-21.5-3.2-30.3"/>
<path class="st5" d="M90.2,345.1c9.4-9.4,25-11.9,27.3-5.3c1.2-4.2,10.6-5.9,17.5-2.4"/>
<path class="st5" d="M90.7,279.6c-14.9,5.7-21.3,24.9-40.4,18.7c16.7,12.8,25.1-4.7,41.1-7.2"/>
<path class="st5" d="M146.6,313.5c1.4,6,1.5,13.1,0.3,23.8c7.1,12.8,45.4,8.5,50.1-6.2c1.7-12.9-4.5-26.4-13.5-37.4"/>
<path class="st5" d="M238.5,197.5c-5.2-2.4-25.2-3.7-34.8-1.6"/>
<path class="st5" d="M239.7,202.4c3.5,9.2-2.5,11.2-9.5,12.1c2.3,7.8-7.4,19.8-14.2,18.2"/>
<path class="st5" d="M146.9,337.2c6-4,13.4-6.4,18.3,1.3c4-5.2,9.6-5.7,23.7,0.9"/>
<path class="st11" d="M136.9,181.5c2.1,7.8,3.5,9.9-4,20.6C141.8,194.7,145.3,189.4,136.9,181.5z"/>
<path class="st12" d="M228.4,216.5c-0.7,4.1-2.8,7.3-6.1,10.5C226.8,225,229.1,221.4,228.4,216.5z"/>
<path class="st12" d="M119.3,278.9c1.3-2.9,6.1-8.4,10.6-8.4C125.9,267.5,119.7,275.1,119.3,278.9z"/>
<path class="st11" d="M134.2,251.6c-7.4-3.5-13.4-8.5-16.4-16.2C120.1,248.2,128.6,251.8,134.2,251.6z"/>
<path class="st12" d="M94.9,343.4c6.9-3.5,13.1-4,21.5-2.2C114.3,335.6,101.6,336.9,94.9,343.4z"/>
<path class="st12" d="M166,341.4c3.6-3.8,10.5-4.4,18.8-1.1C176.2,335,168.7,333.7,166,341.4z"/>
<path class="st1" d="M164.4,51.2c4.8-5.6,15.3-11.6,21.5-12.7C180.3,35.6,170.2,40.6,164.4,51.2z"/>
<path class="st11" d="M148.8,151.7c-4.5-8.8-13.2-16.5-19.2-17.6C138.1,130.9,147,141.9,148.8,151.7z"/>
<path class="st13" d="M20.1,136.1c4.1-7.6,11.3-7.1,20.6-9.2C30.4,126.6,22.2,124.7,20.1,136.1z"/>
<path class="st5" d="M132.8,51.1c4.6,2.5,12,3.6,14.9,1.1c29.4,4.6,54.7,30.2,64.2,60.7"/>
<path class="st11" d="M153.2,56c15.3,7.5,28.7,18,42.4,32.1C185.5,72.2,170.7,60.7,153.2,56z"/>
<path class="st11" d="M231.5,151.5c-6.4,15.1-15.9,28.6-29,42.8C217.7,183.2,228.2,168.3,231.5,151.5z"/>
<path class="st11" d="M221.9,107.8c5.7-6.6,13.8-16.3,21.3-23.7C233.6,89.5,225.4,98.6,221.9,107.8z"/>
<path class="st11" d="M7.5,114.5c5.1-10.5,29.4-16.8,40.2-14.6C34.5,95.3,7.7,101.1,7.5,114.5z"/>
<path class="st0" d="M118.6,139.7c-2.2,7.9,4.4,22.4,9.1,27.3l-3.8,1C117.1,162.1,114.1,150,118.6,139.7z"/>
<path class="st5" d="M152,158.8c-6.6,12.1-20.3,5-29.5,9.8"/>
<path class="st5" d="M127.7,167c-9.9-12-9.3-27-4-29.7c8.2-3.2,20.9,5.6,25.4,25.4"/>
<path class="st5" d="M193.7,117.1c29.8,0.9,27.6-24.7,48.6-35.5c3.1-8.2,11.4-7.2,10.5,0.4c6.4,0,7.6,7.9,3.5,10.5
	c-9.5,9.3-18.3,27.2-20.1,48.2c-6.5,50.3-47.2,72.2-80.3,61.9"/>
<path class="st5" d="M169.2,73.7c1.1-1.8,2.8-3,5.3-3.5"/>
<path class="st5" d="M177.2,78.8c0.9-1.3,2.1-2.4,3.8-2.5"/>
<path class="st5" d="M251.1,207.2c0.1,17-17.7,32.3-35,25.4c-4-3.7,13.4-33.3,23.7-30.2L251.1,207.2z"/>
<polyline class="st5" points="216.4,233.3 195.1,250.1 185.4,239.2 238.5,197.5 245.4,204.8 "/>
<path class="st5" d="M238.5,197.5c5.8-6.3,11.6-12.5,17.4-18.8c5.3-1.5,15.8,9.1,12.7,15.3l-17.5,13.1"/>
<path class="st17" d="M186.3,257.7c5.1,0,9.3-4.2,9.3-9.3c0-5.1-4.2-9.3-9.3-9.3c-5.1,0-9.3,4.2-9.3,9.3
	C177,253.5,181.1,257.7,186.3,257.7z"/>
<path class="st5" d="M186.3,257.7c5.1,0,9.3-4.2,9.3-9.3c0-5.1-4.2-9.3-9.3-9.3c-5.1,0-9.3,4.2-9.3,9.3
	C177,253.5,181.1,257.7,186.3,257.7z"/>
<polygon class="st16" points="141.9,272.5 147.1,269.6 155.3,281 151.8,284.2 "/>
<polygon class="st5" points="141.9,272.5 147.1,269.6 155.3,281 151.8,284.2 "/>
<path class="st5" d="M207,222.3c-10.1-9-20.3-9.1-29-3.5c-9.8,7.6-6.5,19.2-25,21.3c-8.7,0.3-17.3,1.2-24.9,5.7"/>
<path class="st5" d="M216,232.6c9.6,12.3,4.1,34.3-13.8,35.5c-7,0.6-15.9,4.8-16,12.8c-1.3,21-21,35-38.2,32.7
	c-19.8-2.7-33.1-21.1-33.8-36.2"/>
<line class="st5" x1="148.9" y1="272.1" x2="223.3" y2="213.8"/>
<line class="st5" x1="151.2" y1="275.3" x2="217.8" y2="223"/>
<line class="st5" x1="153.6" y1="278.7" x2="215.5" y2="229.8"/>
<path class="st6" d="M141.4,188.8c31,3.5,41.3-11,42.8-7.1c0.9,5.4-15.5,29-48.5,18.4"/>
<path class="st5" d="M137.6,180.8c11.3,14.7-5.3,19.7-7.4,25.6"/>
<path class="st5" d="M135.8,200.1c7.5,5.1,14.1,18.5,19.6,18.3c3.4,0,7.2-9.8,11.4-13.5"/>
<path class="st18" d="M175.8,232.7c4.8-5.2,12.2-8.5,18.7-10.4C187.6,222,179.3,225,175.8,232.7z"/>
<line class="st5" x1="240.5" y1="199.6" x2="255.4" y2="187.7"/>
<line class="st5" x1="243.4" y1="202.8" x2="254.2" y2="194.2"/>
<line class="st5" x1="246.6" y1="205.4" x2="253.3" y2="200.1"/>
<path class="st5" d="M255,200.9c1.2,0,2.1-0.9,2.1-2.1c0-1.2-0.9-2.1-2.1-2.1c-1.2,0-2.1,0.9-2.1,2.1
	C252.9,199.9,253.8,200.9,255,200.9z"/>
<path class="st5" d="M255.9,194.7c1.2,0,2.1-0.9,2.1-2.1c0-1.2-0.9-2.1-2.1-2.1c-1.2,0-2.1,0.9-2.1,2.1
	C253.8,193.8,254.8,194.7,255.9,194.7z"/>
<path class="st5" d="M257.1,188.5c1.2,0,2.1-0.9,2.1-2.1c0-1.2-0.9-2.1-2.1-2.1c-1.2,0-2.1,0.9-2.1,2.1
	C255,187.6,255.9,188.5,257.1,188.5z"/>
</svg>
