<?xml version="1.0" encoding="utf-8"?>
<!-- Generator: Adobe Illustrator 21.1.0, SVG Export Plug-In . SVG Version: 6.00 Build 0)  -->
<svg version="1.1" id="Layer_1" xmlns="http://www.w3.org/2000/svg" xmlns:xlink="http://www.w3.org/1999/xlink" x="0px" y="0px"
	 viewBox="0 0 513 370" style="enable-background:new 0 0 513 370;" xml:space="preserve">
<style type="text/css">
	.st0{fill-rule:evenodd;clip-rule:evenodd;fill:#FFE6CB;}
	.st1{fill-rule:evenodd;clip-rule:evenodd;fill:#FED09E;}
</style>
<path class="st0" d="M203.8,349.8c-41.1,25.7-124.5,33.4-158-16.7c-23.1-34.7,5.1-89.9,5.1-129.7c0-41.1-28.5-77.2-19.3-125.8
	c11.9-63,82.9-90.5,142.5-71.9c37.9,11.9,50.9,41.7,86,43.7c121.4,7,254.3,83.4,220.8,218.3c-14,56.6-83.4,69.3-136.1,69.3
	C323.2,337,252.6,322.9,203.8,349.8z"/>
<path class="st1" d="M358.6,323.8c35.2,0,63.8-6.9,63.8-15.3c0-8.4-28.7-15.3-63.8-15.3c-35.2,0-63.8,6.9-63.8,15.3
	C294.7,317,323.4,323.8,358.6,323.8z"/>
<path class="st1" d="M145.5,352.5c33.3,0,60.4-10,60.4-22.2s-27.1-22.2-60.4-22.2s-60.4,10-60.4,22.2S112.3,352.5,145.5,352.5z"/>
</svg>
